<svg width="374" height="279" viewBox="0 0 374 279" fill="none" xmlns="http://www.w3.org/2000/svg">
<path d="M373.759 244.58H0.976562V244.766H373.759V244.58Z" fill="#EBEBEB"/>
<path d="M336.406 256.582H311.711V256.768H336.406V256.582Z" fill="#EBEBEB"/>
<path d="M247.919 258.605H241.438V258.792H247.919V258.605Z" fill="#EBEBEB"/>
<path d="M310.965 249.658H296.656V249.845H310.965V249.658Z" fill="#EBEBEB"/>
<path d="M72.2891 250.91H40.0859V251.097H72.2891V250.91Z" fill="#EBEBEB"/>
<path d="M83.6513 250.91H78.9297V251.097H83.6513V250.91Z" fill="#EBEBEB"/>
<path d="M168.841 254.059H99V254.245H168.841V254.059Z" fill="#EBEBEB"/>
<path d="M177.684 211.331H33.7166C31.3703 211.331 29.4609 209.421 29.4609 207.075V4.7049C29.4609 2.35861 31.3703 0.449219 33.7166 0.449219H177.684C180.03 0.449219 181.939 2.35861 181.939 4.7049V207.075C181.939 209.421 180.03 211.331 177.684 211.331ZM33.7166 0.636355C31.4725 0.636355 29.6473 2.4615 29.6473 4.70565V207.076C29.6473 209.32 31.4725 211.145 33.7166 211.145H177.684C179.928 211.145 181.753 209.32 181.753 207.076V4.7049C181.753 2.4615 179.928 0.63561 177.684 0.63561L33.7166 0.636355Z" fill="#EBEBEB"/>
<path d="M338.948 211.331H194.981C192.635 211.331 190.727 209.421 190.727 207.075V4.7049C190.727 2.35861 192.636 0.449219 194.981 0.449219H338.948C341.296 0.449219 343.204 2.35861 343.204 4.7049V207.075C343.205 209.421 341.296 211.331 338.948 211.331ZM194.981 0.636355C192.738 0.636355 190.913 2.4615 190.913 4.70565V207.076C190.913 209.32 192.738 211.145 194.981 211.145H338.948C341.193 211.145 343.018 209.32 343.018 207.076V4.7049C343.018 2.4615 341.193 0.63561 338.948 0.63561L194.981 0.636355Z" fill="#EBEBEB"/>
<path d="M61.337 80.3164C51.3345 106.703 99.5419 149.441 169.011 175.776C238.481 202.111 302.906 202.07 312.908 175.684" stroke="#E0E0E0" stroke-width="1.9163" stroke-miterlimit="10" stroke-linecap="round" stroke-linejoin="round"/>
<path d="M107.094 239.7C129.775 256.488 183.993 221.689 228.193 161.973C272.393 102.258 289.837 40.2398 267.155 23.4512" stroke="#E0E0E0" stroke-width="1.9163" stroke-miterlimit="10" stroke-linecap="round" stroke-linejoin="round"/>
<path d="M291.248 140.266C291.273 136.788 291.128 133.357 290.821 129.97C288.203 100.963 273.738 75.3353 252.281 58.0047C234.497 43.6384 211.902 34.9697 187.263 34.7953C186.625 34.7908 185.986 34.7938 185.355 34.7967C172.191 34.9421 159.61 37.5143 148.038 42.0869H148.031C112.659 56.0833 86.6782 88.7793 82.4061 128.076C82.0274 131.596 81.8178 135.165 81.7917 138.78C81.7299 147.511 82.7386 155.996 84.6965 164.11C90.4806 188.162 104.572 209.01 123.795 223.409C141.082 236.348 162.514 244.086 185.776 244.25C198.238 244.339 210.209 242.246 221.314 238.333C261.79 224.081 290.927 185.645 291.248 140.266Z" fill="#EBEBEB"/>
<path opacity="0.4" d="M217.898 215.814C219.864 216.005 220.749 218.421 221.15 220.391C221.744 223.35 222.346 226.308 222.941 229.266C219.336 230.957 219.635 235.351 221.314 238.332C261.789 224.079 290.926 185.644 291.248 140.265C291.272 136.788 291.128 133.356 290.82 129.969C290.736 129.915 290.644 129.868 290.552 129.821C287.698 128.472 285.446 130.912 283.293 132.289C282.807 132.601 276.531 135.649 276.45 134.801C276.714 137.54 276.566 140.319 276.013 143.015C275.971 143.219 275.914 143.443 275.742 143.561C275.334 143.841 274.871 143.277 274.722 142.805C274.341 141.597 274.178 140.324 273.724 139.142C273.271 137.959 272.444 136.824 271.236 136.444C270.021 136.061 268.698 136.511 267.437 136.336C265.899 136.121 264.616 134.979 263.84 133.634C263.091 132.336 262.742 130.835 262.364 129.406C260.885 132.691 257.132 130.666 254.927 133.321C254.218 134.174 253.367 135.404 252.339 134.991C251.361 134.598 251.248 132.927 250.201 132.797C249.469 132.706 248.932 133.511 248.824 134.24C248.716 134.97 248.834 135.751 248.525 136.421C248.092 137.364 246.778 137.767 245.891 137.23C245.094 136.748 244.786 135.769 244.288 134.982C243.79 134.194 242.722 133.531 241.972 134.084C241.795 134.214 241.664 134.397 241.562 134.592C240.836 135.991 241.659 137.689 242.633 138.929C243.607 140.169 244.808 141.41 244.911 142.984C244.346 143.388 243.451 143.2 243.096 142.603C242.973 142.395 242.904 142.145 242.719 141.989C242.316 141.651 241.721 141.973 241.279 142.258C239.201 143.602 236.575 144.068 234.161 143.521C233.982 140.329 233.801 137.137 233.621 133.944C232.898 133.92 232.465 133.874 232.191 133.132C229.796 135.463 227.602 137.974 224.962 140.076C224.646 140.328 224.309 140.602 224.201 140.992C224.089 141.399 224.259 141.83 224.233 142.25C224.148 143.644 222.28 144.009 220.884 143.972C220.479 144.197 220.712 144.863 221.118 145.088C221.522 145.313 222.029 145.334 222.396 145.619C222.942 146.045 222.952 146.876 222.752 147.539C222.058 149.845 219.238 151.251 216.979 150.416C216.71 150.316 216.438 150.18 216.278 149.943C215.925 149.421 216.259 148.731 216.324 148.104C216.578 145.631 213.909 146.206 212.679 146.89C211.011 147.816 210.076 150.276 209.764 152.035C209.4 154.09 207.847 167.732 203.294 165.846C202.867 165.67 202.558 165.285 202.341 164.876C201.684 163.638 201.73 162.145 201.248 160.829C200.767 159.512 199.268 158.311 198.043 158.993C197.552 159.267 197.239 159.781 196.769 160.091C195.461 160.953 193.599 159.918 192.173 160.567C191.517 160.866 191.062 161.477 190.468 161.884C189.874 162.291 188.941 162.421 188.522 161.835C188.053 161.179 188.603 160.189 188.218 159.48C187.814 158.735 186.558 158.89 186.131 159.622C185.705 160.354 185.962 161.322 186.488 161.986C186.763 162.333 187.118 162.652 187.209 163.086C187.373 163.864 186.635 164.51 185.982 164.962C184.944 165.681 183.906 166.4 182.867 167.118C182.935 167.837 183.636 168.338 184.331 168.533C185.026 168.729 185.77 168.721 186.46 168.949C189.784 170.058 189.771 174.992 194.132 174.023C193.872 172.713 195.27 171.379 196.565 171.698C198.164 172.092 199.197 174.37 200.781 173.919C201.332 173.763 201.752 173.283 202.309 173.151C203.847 172.786 204.6 175.151 205.033 176.158C206.468 179.496 204.235 179.9 204.325 182.88C204.366 184.244 205.376 185.395 205.626 186.736C205.857 187.971 205.423 189.247 205.591 190.492C206.051 193.912 210.578 191.838 212.584 191.442C211.493 193.38 213.115 195.738 214.883 197.082C217.599 199.146 217.134 198.969 217.473 201.947C217.562 202.734 218.014 203.532 218.76 203.796C220.059 204.257 221.323 202.973 222.695 202.839C223.354 202.775 224.022 202.982 224.674 202.872C226.386 202.583 226.982 200.484 228.098 199.154C229.075 197.99 230.647 197.355 232.158 197.515C232.28 198.393 232.284 199.289 232.169 200.169C231.21 200.76 230.251 201.352 229.292 201.945C228.444 202.469 227.565 203.023 227.04 203.87C226.747 204.345 226.565 204.91 226.14 205.271C225.294 205.99 224.026 205.556 222.918 205.484C220.232 205.31 215.86 206.984 213.272 207.834C210.514 208.74 209.549 210.69 207.006 211.564C206.558 211.719 206.458 212.368 206.722 212.762C206.986 213.155 207.475 213.331 207.941 213.413C209.025 213.605 210.171 213.416 211.136 212.887C209.871 213.58 213.569 216.634 214.238 216.785C215.335 217.032 216.81 216.205 217.926 216.148C220.693 216.008 222.297 216.558 220.479 219.567C219.785 220.718 218.973 222.184 219.737 223.291C220.469 222.987 221.352 223.427 221.763 224.106C222.173 224.785 222.203 225.627 222.114 226.415C222.053 226.946 221.924 227.508 221.536 227.875C221.328 228.072 221.055 228.204 220.896 228.442C220.381 229.217 221.44 230.066 222.309 230.4" fill="#F5F5F5"/>
<path opacity="0.4" d="M126.252 95.8441C127.113 95.1984 128.338 95.7188 129.235 96.3131C130.131 96.9073 131.185 97.6014 132.197 97.2353C132.216 95.9872 132.236 94.7392 132.256 93.4911C132.259 93.2562 132.274 92.9946 132.444 92.8328C132.616 92.6687 132.883 92.6695 133.121 92.6807C133.924 92.7172 134.727 92.7537 135.531 92.791C136.201 93.5276 134.334 94.4268 134.6 95.3863C134.717 95.8106 135.196 95.9947 135.584 96.2027C138.891 97.9772 136.793 101.667 135.295 103.671C133.555 105.997 133.671 109.168 133.858 112.069C133.927 113.1 134.05 114.255 134.845 114.93C135.617 115.597 136.757 115.551 137.747 115.843C139.458 116.34 140.671 117.856 142.273 118.644C147.872 121.4 151.563 115.407 149.739 110.685C148.794 108.238 148.389 108.703 148.93 106.087C149.156 104.997 148.794 103.71 149.929 102.966C151.132 102.177 152.867 103.024 152.963 104.488C153.057 105.926 153.386 107.291 152.796 108.641C154.452 108.026 156.424 108.417 158.234 108.417C157.976 110.084 160.128 111.554 161.587 110.705C161.538 109.888 161.76 108.763 162.578 108.77C162.817 108.771 163.039 108.886 163.245 109.008C164.104 109.514 164.863 110.189 165.768 110.612C167.159 111.261 171.156 110.954 171.781 112.83C171.891 113.159 171.889 113.52 172.02 113.842C172.298 114.529 173.169 114.864 173.877 114.644C174.584 114.425 175.092 113.747 175.23 113.018C175.322 112.533 175.27 112.025 175.397 111.548C176.07 109.013 178.673 110.998 179.835 110.315C180.393 109.987 182.69 105.666 182.741 105.143C183.846 106.519 185.5 107.68 187.339 107.593C189.353 107.5 190.212 105.898 190.665 103.942C191.143 101.876 191.168 99.4139 191.62 97.9175C191.863 97.1138 192.071 96.1379 191.502 95.5198C190.791 94.7474 189.276 95.0426 188.76 94.1286C188.596 93.8385 188.582 93.4911 188.526 93.1623C188.195 91.2358 186.035 89.8401 184.142 90.3299C183.524 89.9243 183.513 89.0453 183.477 88.3064C183.441 87.5676 183.128 86.6535 182.39 86.6013C181.543 86.5409 181.157 87.6511 181.171 88.501C181.186 89.3681 181.32 90.233 181.571 91.0628C181.759 91.6824 182.012 92.3467 181.792 92.9558C181.625 93.4165 181.22 93.7424 180.823 94.0287C179.866 94.7176 178.777 95.3379 177.596 95.3297C176.417 95.3215 175.175 94.4641 175.129 93.2853C175.116 92.9692 175.187 92.6464 175.113 92.3385C174.923 91.5474 173.913 91.2745 173.107 91.3834C172.301 91.4922 171.497 91.8292 170.7 91.6674C169.903 91.5057 169.24 90.4671 169.805 89.8818C168.735 89.5061 167.202 89.3197 166.78 90.3732C166.645 90.7116 166.683 91.0896 166.676 91.4542C166.635 93.7036 163.838 96.9505 161.931 94.5983C160.676 93.052 162.836 90.2389 160.586 88.9663C159.51 88.3579 158.049 88.8954 156.984 88.2669C156.651 87.8725 157.222 87.3387 157.722 87.2075C159.299 86.793 161.081 87.2761 162.232 88.4317C162.871 87.121 161.885 85.1997 162.997 84.258C164.096 83.3283 166.209 84.4228 167.032 83.2426C167.268 82.9048 167.305 82.4717 167.334 82.0594C167.48 80.0284 166.854 76.3021 169.723 75.9614C170.071 75.9204 170.433 75.9465 170.76 75.8197C171.75 75.4343 171.741 74.049 171.557 73.003C170.479 72.5393 169.324 73.3377 168.287 73.8865C167.25 74.4352 165.605 74.5269 165.252 73.4086C164.999 72.6078 165.627 71.6051 165.097 70.9542C164.851 70.6522 164.416 70.5374 164.208 70.2086C163.704 69.4124 164.929 68.6146 165.148 67.6976C165.447 66.4346 163.759 65.6226 162.464 65.7188C161.169 65.815 159.721 66.2504 158.675 65.4803C158.344 65.2365 158.098 64.8942 157.79 64.6206C156.842 63.7804 155.461 63.7043 154.195 63.6715C152.174 63.6186 156.773 55.3055 156.819 54.7993C157.166 50.9432 153.214 48.89 150.948 46.4378C149.765 45.145 148.899 43.6151 148.032 42.0859C113.976 55.562 88.7922 86.8355 83.0804 123.036C82.8239 124.659 82.5197 126.337 82.5078 127.955C84.8981 127.281 88.6162 125.491 91.043 126.946C94.1252 128.793 91.8945 133.365 95.4471 134.717C96.3268 134.705 96.0726 133.257 96.5826 132.539C96.8659 132.14 97.3841 132.007 97.821 131.787C98.2579 131.566 98.6798 131.095 98.5032 130.64C99.2718 130.036 100.332 130.806 101.046 131.474C101.886 132.259 102.846 132.981 103.971 133.218C106.315 133.711 108.48 132.03 110.592 130.898C112.337 129.963 114.24 129.367 116.13 128.776C115.216 128.831 114.753 127.566 115.105 126.721C115.457 125.875 116.253 125.315 116.836 124.607C117.829 123.402 117.066 121.998 117.896 120.718C118.923 119.125 120.901 118.007 121.068 116.124C121.276 113.841 118.748 112.384 116.623 111.538C117.749 108.962 120.8 107.191 120.797 104.375C120.797 103.29 120.312 102.279 119.842 101.306C118.879 99.3147 117.916 97.3226 116.953 95.3386C116.551 94.5125 116.142 93.6022 116.387 92.7187C116.664 91.6742 117.73 91.074 118.687 90.5961C119.729 90.0727 120.772 89.5493 121.814 89.0259C122.246 88.8134 122.718 88.5942 123.186 88.674C123.693 88.762 124.067 89.1646 124.379 89.5747C126.079 91.7793 126.89 94.6467 126.609 97.4217C130.305 96.8707 133.936 95.8657 137.385 94.4208C137.002 96.5569 137.883 98.9143 137.222 100.915" fill="#F5F5F5"/>
<path opacity="0.4" d="M212.844 113.321C213.839 114.035 214.637 115.126 214.699 116.349C214.737 117.103 214.496 117.843 214.448 118.597C214.399 119.35 214.612 120.211 215.273 120.575C216.118 121.04 217.137 120.462 217.923 119.904C218.561 119.45 219.248 118.924 219.405 118.157C219.52 117.595 219.321 117.015 219.371 116.444C219.469 115.315 220.47 114.52 221.267 113.715C222.065 112.909 222.744 111.641 222.115 110.698C221.701 110.077 220.861 109.86 220.417 109.26C219.333 107.797 221.293 105.751 220.395 104.419C219.331 102.841 216.693 103.648 215.234 104.446C213.756 105.253 212.681 106.749 211.625 108.016C208.638 111.599 209.681 111.051 212.844 113.321Z" fill="#F5F5F5"/>
<path opacity="0.4" d="M252.199 57.9741C234.676 42.7735 210.222 34.9578 187.266 34.7953C186.628 34.7908 185.989 34.7938 185.358 34.7967C182.329 38.2122 180.722 44.6814 186.723 45.8892C186.726 46.5439 186.348 46.7064 186.018 47.2298C185.499 48.0521 186.364 49.087 187.264 49.4583C190.211 50.6758 193.789 50.6049 193.321 54.5967C192.763 59.3579 190.513 56.3279 188.042 58.0516C187.684 58.3014 187.475 58.7077 187.188 59.0365C186.137 60.2436 184.293 60.2339 182.696 60.128C183.097 59.1923 182.475 57.9689 181.483 57.74C181.109 57.6535 180.689 57.6833 180.378 57.4582C179.71 56.975 180.216 55.8343 180.978 55.5205C181.74 55.2066 182.616 55.337 183.408 55.1067C184.2 54.8763 184.922 53.9384 184.442 53.2681C184.241 52.9885 183.893 52.858 183.557 52.782C182.147 52.4644 180.591 52.8961 179.546 53.8944C179.283 53.1369 178.464 52.6127 177.666 52.691C176.867 52.7686 176.166 53.4411 176.054 54.2358C175.89 55.3974 176.688 56.9788 175.648 57.523C176.571 57.2815 177.617 57.6118 178.235 58.3387C180.664 61.2017 179.218 68.1637 185.62 66.9969C186.648 66.8098 187.633 66.3714 188.676 66.3162C189.72 66.261 190.916 66.7464 191.193 67.7552C192.538 65.804 195.987 66.22 197.134 64.1466C197.674 63.1707 197.429 61.8287 196.578 61.107C196.436 60.9869 196.274 60.8736 196.206 60.7014C196.067 60.3502 196.381 59.9901 196.432 59.6158C196.521 58.965 195.816 58.461 195.729 57.8093C195.609 56.902 196.664 56.3227 197.549 56.093C198.436 55.8634 199.518 55.5376 199.698 54.6399C199.759 54.3343 199.694 54.0129 199.756 53.7072C199.88 53.0899 200.508 52.6769 201.132 52.5963C201.757 52.5158 202.382 52.6963 202.986 52.8744C203.398 53.2249 203.215 53.9197 202.847 54.3149C202.478 54.71 201.968 54.9702 201.666 55.4176C201.496 55.6681 202.329 61.0958 201.92 60.9549C203.861 61.6244 208.005 61.7235 207.17 64.6238C206.876 65.6474 206.278 66.7143 206.658 67.7104C205.294 67.3265 203.925 66.9589 202.551 66.607C202.217 67.0476 202.766 67.65 203.302 67.7857C203.838 67.9214 204.475 67.902 204.84 68.3181C205.095 68.6096 205.13 69.0293 205.151 69.417C205.221 70.6785 205.292 71.9393 205.362 73.2008C205.439 74.5696 205.622 76.1375 206.755 76.9085C208.044 77.786 209.867 77.0874 210.95 75.9661C211.21 75.6969 211.495 75.3823 211.869 75.3808C212.208 75.3793 212.482 75.6373 212.735 75.8624C214.064 77.0509 215.924 77.7658 217.66 77.3558C219.395 76.945 220.83 75.1996 220.539 73.4401C220.426 72.7631 220.133 71.9348 220.657 71.4904C220.965 71.2295 221.491 71.1974 221.629 70.8187C221.802 70.3423 221.193 69.9986 220.786 69.6966C220.051 69.1501 219.787 68.0556 220.194 67.2347C220.402 66.8143 224.187 65.2605 224.774 65.5468C226.122 66.2036 225.885 69.8174 226.052 71.2116C226.117 71.7499 226.216 72.3501 226.651 72.6736C227.33 73.1791 228.311 72.6535 228.838 71.99C229.364 71.3272 229.75 70.4854 230.512 70.1179C230.956 69.9039 231.464 69.8852 231.956 69.8711C232.953 69.842 234.073 69.8584 234.775 70.5659C235.104 70.897 235.297 71.3428 235.625 71.6746C236.374 72.4306 237.623 72.3941 238.625 72.0354C239.628 71.6768 240.53 71.0573 241.559 70.7821C243.747 70.1976 246.249 71.2347 248.262 70.1954C249.235 69.6929 249.936 68.3046 249.166 67.5263C248.501 66.8545 247.058 66.9701 246.881 66.0419C246.712 65.1524 248.892 63.8685 249.275 63.0902C249.579 62.4736 248.915 61.3276 249.617 60.1854C250.188 59.2565 251.578 58.9724 252.199 57.9741Z" fill="#F5F5F5"/>
<path opacity="0.4" d="M123.585 207.94C122.34 207.106 120.943 206.626 120.51 204.914C119.919 202.583 121.177 201.589 123.495 202.454C123.702 202.53 123.926 202.612 124.136 202.545C124.806 202.331 124.331 201.341 123.894 200.789C122.874 199.5 122.804 197.77 123.333 196.271C123.458 195.916 116.928 195.766 116.21 196.16C113.693 197.537 115.333 202.905 112.412 202C112.214 199.959 112.322 197.846 112.317 195.782C111.322 195.743 110.328 195.705 109.333 195.667C110.075 195.696 109.634 191.889 109.382 191.473C108.402 189.857 105.377 190.544 105.646 187.491C105.987 183.626 113.47 182.841 112.575 187.275C114.855 188.147 117.52 188.342 119.958 188.271C120.014 189.056 120.063 189.848 120.111 190.633C120.678 190.984 121.424 191.043 122.041 190.778C123.224 188.794 123.043 186.077 121.61 184.259C122.466 182.95 121.424 181.265 120.425 180.058C123.163 178.053 122.375 172.963 119.16 171.879C115.937 170.794 112.233 174.376 113.203 177.629C111.632 177.81 110.127 178.5 108.965 179.568C108.794 175.459 105.698 171.637 101.712 170.624C99.708 170.11 97.3304 170.139 95.9645 168.583C95.3539 167.894 95.0527 166.984 94.4883 166.257C93.2074 164.633 90.917 164.301 88.8489 164.186C87.4643 164.114 86.0798 164.09 84.6953 164.111C90.4794 188.162 104.571 209.01 123.794 223.409C124.525 223.437 125.279 223.427 125.912 223.093C127.086 222.463 127.45 220.981 127.691 219.667C128.636 214.558 128.105 211.376 123.948 208.199C123.829 208.109 123.708 208.023 123.585 207.94Z" fill="#F5F5F5"/>
<path d="M217.898 215.814C219.864 216.005 220.749 218.421 221.15 220.391C221.744 223.35 222.346 226.308 222.941 229.266C219.336 230.957 219.635 235.351 221.314 238.332C261.789 224.079 290.926 185.644 291.248 140.265C291.272 136.788 291.128 133.356 290.82 129.969C290.736 129.915 290.644 129.868 290.552 129.821C287.698 128.472 285.446 130.912 283.293 132.289C282.807 132.601 276.531 135.649 276.45 134.801C276.714 137.54 276.566 140.319 276.013 143.015C275.971 143.219 275.914 143.443 275.742 143.561C275.334 143.841 274.871 143.277 274.722 142.805C274.341 141.597 274.178 140.324 273.724 139.142C273.271 137.959 272.444 136.824 271.236 136.444C270.021 136.061 268.698 136.511 267.437 136.336C265.899 136.121 264.616 134.979 263.84 133.634C263.091 132.336 262.742 130.835 262.364 129.406C260.885 132.691 257.132 130.666 254.927 133.321C254.218 134.174 253.367 135.404 252.339 134.991C251.361 134.598 251.248 132.927 250.201 132.797C249.469 132.706 248.932 133.511 248.824 134.24C248.716 134.97 248.834 135.751 248.525 136.421C248.092 137.364 246.778 137.767 245.891 137.23C245.094 136.748 244.786 135.769 244.288 134.982C243.79 134.194 242.722 133.531 241.972 134.084C241.795 134.214 241.664 134.397 241.562 134.592C240.836 135.991 241.659 137.689 242.633 138.929C243.607 140.169 244.808 141.41 244.911 142.984C244.346 143.388 243.451 143.2 243.096 142.603C242.973 142.395 242.904 142.145 242.719 141.989C242.316 141.651 241.721 141.973 241.279 142.258C239.201 143.602 236.575 144.068 234.161 143.521C233.982 140.329 233.801 137.137 233.621 133.944C232.898 133.92 232.465 133.874 232.191 133.132C229.796 135.463 227.602 137.974 224.962 140.076C224.646 140.328 224.309 140.602 224.201 140.992C224.089 141.399 224.259 141.83 224.233 142.25C224.148 143.644 222.28 144.009 220.884 143.972C220.479 144.197 220.712 144.863 221.118 145.088C221.522 145.313 222.029 145.334 222.396 145.619C222.942 146.045 222.952 146.876 222.752 147.539C222.058 149.845 219.238 151.251 216.979 150.416C216.71 150.316 216.438 150.18 216.278 149.943C215.925 149.421 216.259 148.731 216.324 148.104C216.578 145.631 213.909 146.206 212.679 146.89C211.011 147.816 210.076 150.276 209.764 152.035C209.4 154.09 207.847 167.732 203.294 165.846C202.867 165.67 202.558 165.285 202.341 164.876C201.684 163.638 201.73 162.145 201.248 160.829C200.767 159.512 199.268 158.311 198.043 158.993C197.552 159.267 197.239 159.781 196.769 160.091C195.461 160.953 193.599 159.918 192.173 160.567C191.517 160.866 191.062 161.477 190.468 161.884C189.874 162.291 188.941 162.421 188.522 161.835C188.053 161.179 188.603 160.189 188.218 159.48C187.814 158.735 186.558 158.89 186.131 159.622C185.705 160.354 185.962 161.322 186.488 161.986C186.763 162.333 187.118 162.652 187.209 163.086C187.373 163.864 186.635 164.51 185.982 164.962C184.944 165.681 183.906 166.4 182.867 167.118C182.935 167.837 183.636 168.338 184.331 168.533C185.026 168.729 185.77 168.721 186.46 168.949C189.784 170.058 189.771 174.992 194.132 174.023C193.872 172.713 195.27 171.379 196.565 171.698C198.164 172.092 199.197 174.37 200.781 173.919C201.332 173.763 201.752 173.283 202.309 173.151C203.847 172.786 204.6 175.151 205.033 176.158C206.468 179.496 204.235 179.9 204.325 182.88C204.366 184.244 205.376 185.395 205.626 186.736C205.857 187.971 205.423 189.247 205.591 190.492C206.051 193.912 210.578 191.838 212.584 191.442C211.493 193.38 213.115 195.738 214.883 197.082C217.599 199.146 217.134 198.969 217.473 201.947C217.562 202.734 218.014 203.532 218.76 203.796C220.059 204.257 221.323 202.973 222.695 202.839C223.354 202.775 224.022 202.982 224.674 202.872C226.386 202.583 226.982 200.484 228.098 199.154C229.075 197.99 230.647 197.355 232.158 197.515C232.28 198.393 232.284 199.289 232.169 200.169C231.21 200.76 230.251 201.352 229.292 201.945C228.444 202.469 227.565 203.023 227.04 203.87C226.747 204.345 226.565 204.91 226.14 205.271C225.294 205.99 224.026 205.556 222.918 205.484C220.232 205.31 215.86 206.984 213.272 207.834C210.514 208.74 209.549 210.69 207.006 211.564C206.558 211.719 206.458 212.368 206.722 212.762C206.986 213.155 207.475 213.331 207.941 213.413C209.025 213.605 210.171 213.416 211.136 212.887C209.871 213.58 213.569 216.634 214.238 216.785C215.335 217.032 216.81 216.205 217.926 216.148C220.693 216.008 222.297 216.558 220.479 219.567C219.785 220.718 218.973 222.184 219.737 223.291C220.469 222.987 221.352 223.427 221.763 224.106C222.173 224.785 222.203 225.627 222.114 226.415C222.053 226.946 221.924 227.508 221.536 227.875C221.328 228.072 221.055 228.204 220.896 228.442C220.381 229.217 221.44 230.066 222.309 230.4" fill="#F5F5F5"/>
<path d="M126.252 95.8441C127.113 95.1984 128.338 95.7188 129.235 96.3131C130.131 96.9073 131.185 97.6014 132.197 97.2353C132.216 95.9872 132.236 94.7392 132.256 93.4911C132.259 93.2562 132.274 92.9946 132.444 92.8328C132.616 92.6687 132.883 92.6695 133.121 92.6807C133.924 92.7172 134.727 92.7537 135.531 92.791C136.201 93.5276 134.334 94.4268 134.6 95.3863C134.717 95.8106 135.196 95.9947 135.584 96.2027C138.891 97.9772 136.793 101.667 135.295 103.671C133.555 105.997 133.671 109.168 133.858 112.069C133.927 113.1 134.05 114.255 134.845 114.93C135.617 115.597 136.757 115.551 137.747 115.843C139.458 116.34 140.671 117.856 142.273 118.644C147.872 121.4 151.563 115.407 149.739 110.685C148.794 108.238 148.389 108.703 148.93 106.087C149.156 104.997 148.794 103.71 149.929 102.966C151.132 102.177 152.867 103.024 152.963 104.488C153.057 105.926 153.386 107.291 152.796 108.641C154.452 108.026 156.424 108.417 158.234 108.417C157.976 110.084 160.128 111.554 161.587 110.705C161.538 109.888 161.76 108.763 162.578 108.77C162.817 108.771 163.039 108.886 163.245 109.008C164.104 109.514 164.863 110.189 165.768 110.612C167.159 111.261 171.156 110.954 171.781 112.83C171.891 113.159 171.889 113.52 172.02 113.842C172.298 114.529 173.169 114.864 173.877 114.644C174.584 114.425 175.092 113.747 175.23 113.018C175.322 112.533 175.27 112.025 175.397 111.548C176.07 109.013 178.673 110.998 179.835 110.315C180.393 109.987 182.69 105.666 182.741 105.143C183.846 106.519 185.5 107.68 187.339 107.593C189.353 107.5 190.212 105.898 190.665 103.942C191.143 101.876 191.168 99.4139 191.62 97.9175C191.863 97.1138 192.071 96.1379 191.502 95.5198C190.791 94.7474 189.276 95.0426 188.76 94.1286C188.596 93.8385 188.582 93.4911 188.526 93.1623C188.195 91.2358 186.035 89.8401 184.142 90.3299C183.524 89.9243 183.513 89.0453 183.477 88.3064C183.441 87.5676 183.128 86.6535 182.39 86.6013C181.543 86.5409 181.157 87.6511 181.171 88.501C181.186 89.3681 181.32 90.233 181.571 91.0628C181.759 91.6824 182.012 92.3467 181.792 92.9558C181.625 93.4165 181.22 93.7424 180.823 94.0287C179.866 94.7176 178.777 95.3379 177.596 95.3297C176.417 95.3215 175.175 94.4641 175.129 93.2853C175.116 92.9692 175.187 92.6464 175.113 92.3385C174.923 91.5474 173.913 91.2745 173.107 91.3834C172.301 91.4922 171.497 91.8292 170.7 91.6674C169.903 91.5057 169.24 90.4671 169.805 89.8818C168.735 89.5061 167.202 89.3197 166.78 90.3732C166.645 90.7116 166.683 91.0896 166.676 91.4542C166.635 93.7036 163.838 96.9505 161.931 94.5983C160.676 93.052 162.836 90.2389 160.586 88.9663C159.51 88.3579 158.049 88.8954 156.984 88.2669C156.651 87.8725 157.222 87.3387 157.722 87.2075C159.299 86.793 161.081 87.2761 162.232 88.4317C162.871 87.121 161.885 85.1997 162.997 84.258C164.096 83.3283 166.209 84.4228 167.032 83.2426C167.268 82.9048 167.305 82.4717 167.334 82.0594C167.48 80.0284 166.854 76.3021 169.723 75.9614C170.071 75.9204 170.433 75.9465 170.76 75.8197C171.75 75.4343 171.741 74.049 171.557 73.003C170.479 72.5393 169.324 73.3377 168.287 73.8865C167.25 74.4352 165.605 74.5269 165.252 73.4086C164.999 72.6078 165.627 71.6051 165.097 70.9542C164.851 70.6522 164.416 70.5374 164.208 70.2086C163.704 69.4124 164.929 68.6146 165.148 67.6976C165.447 66.4346 163.759 65.6226 162.464 65.7188C161.169 65.815 159.721 66.2504 158.675 65.4803C158.344 65.2365 158.098 64.8942 157.79 64.6206C156.842 63.7804 155.461 63.7043 154.195 63.6715C152.174 63.6186 156.773 55.3055 156.819 54.7993C157.166 50.9432 153.214 48.89 150.948 46.4378C149.765 45.145 148.899 43.6151 148.032 42.0859C113.976 55.562 88.7922 86.8355 83.0804 123.036C82.8239 124.659 82.5197 126.337 82.5078 127.955C84.8981 127.281 88.6162 125.491 91.043 126.946C94.1252 128.793 91.8945 133.365 95.4471 134.717C96.3268 134.705 96.0726 133.257 96.5826 132.539C96.8659 132.14 97.3841 132.007 97.821 131.787C98.2579 131.566 98.6798 131.095 98.5032 130.64C99.2718 130.036 100.332 130.806 101.046 131.474C101.886 132.259 102.846 132.981 103.971 133.218C106.315 133.711 108.48 132.03 110.592 130.898C112.337 129.963 114.24 129.367 116.13 128.776C115.216 128.831 114.753 127.566 115.105 126.721C115.457 125.875 116.253 125.315 116.836 124.607C117.829 123.402 117.066 121.998 117.896 120.718C118.923 119.125 120.901 118.007 121.068 116.124C121.276 113.841 118.748 112.384 116.623 111.538C117.749 108.962 120.8 107.191 120.797 104.375C120.797 103.29 120.312 102.279 119.842 101.306C118.879 99.3147 117.916 97.3226 116.953 95.3386C116.551 94.5125 116.142 93.6022 116.387 92.7187C116.664 91.6742 117.73 91.074 118.687 90.5961C119.729 90.0727 120.772 89.5493 121.814 89.0259C122.246 88.8134 122.718 88.5942 123.186 88.674C123.693 88.762 124.067 89.1646 124.379 89.5747C126.079 91.7793 126.89 94.6467 126.609 97.4217C130.305 96.8707 133.936 95.8657 137.385 94.4208C137.002 96.5569 137.883 98.9143 137.222 100.915" fill="#F5F5F5"/>
<path d="M212.844 113.321C213.839 114.035 214.637 115.126 214.699 116.349C214.737 117.103 214.496 117.843 214.448 118.597C214.399 119.35 214.612 120.211 215.273 120.575C216.118 121.04 217.137 120.462 217.923 119.904C218.561 119.45 219.248 118.924 219.405 118.157C219.52 117.595 219.321 117.015 219.371 116.444C219.469 115.315 220.47 114.52 221.267 113.715C222.065 112.909 222.744 111.641 222.115 110.698C221.701 110.077 220.861 109.86 220.417 109.26C219.333 107.797 221.293 105.751 220.395 104.419C219.331 102.841 216.693 103.648 215.234 104.446C213.756 105.253 212.681 106.749 211.625 108.016C208.638 111.599 209.681 111.051 212.844 113.321Z" fill="#F5F5F5"/>
<path d="M252.199 57.9741C234.676 42.7735 210.222 34.9578 187.266 34.7953C186.628 34.7908 185.989 34.7938 185.358 34.7967C182.329 38.2122 180.722 44.6814 186.723 45.8892C186.726 46.5439 186.348 46.7064 186.018 47.2298C185.499 48.0521 186.364 49.087 187.264 49.4583C190.211 50.6758 193.789 50.6049 193.321 54.5967C192.763 59.3579 190.513 56.3279 188.042 58.0516C187.684 58.3014 187.475 58.7077 187.188 59.0365C186.137 60.2436 184.293 60.2339 182.696 60.128C183.097 59.1923 182.475 57.9689 181.483 57.74C181.109 57.6535 180.689 57.6833 180.378 57.4582C179.71 56.975 180.216 55.8343 180.978 55.5205C181.74 55.2066 182.616 55.337 183.408 55.1067C184.2 54.8763 184.922 53.9384 184.442 53.2681C184.241 52.9885 183.893 52.858 183.557 52.782C182.147 52.4644 180.591 52.8961 179.546 53.8944C179.283 53.1369 178.464 52.6127 177.666 52.691C176.867 52.7686 176.166 53.4411 176.054 54.2358C175.89 55.3974 176.688 56.9788 175.648 57.523C176.571 57.2815 177.617 57.6118 178.235 58.3387C180.664 61.2017 179.218 68.1637 185.62 66.9969C186.648 66.8098 187.633 66.3714 188.676 66.3162C189.72 66.261 190.916 66.7464 191.193 67.7552C192.538 65.804 195.987 66.22 197.134 64.1466C197.674 63.1707 197.429 61.8287 196.578 61.107C196.436 60.9869 196.274 60.8736 196.206 60.7014C196.067 60.3502 196.381 59.9901 196.432 59.6158C196.521 58.965 195.816 58.461 195.729 57.8093C195.609 56.902 196.664 56.3227 197.549 56.093C198.436 55.8634 199.518 55.5376 199.698 54.6399C199.759 54.3343 199.694 54.0129 199.756 53.7072C199.88 53.0899 200.508 52.6769 201.132 52.5963C201.757 52.5158 202.382 52.6963 202.986 52.8744C203.398 53.2249 203.215 53.9197 202.847 54.3149C202.478 54.71 201.968 54.9702 201.666 55.4176C201.496 55.6681 202.329 61.0958 201.92 60.9549C203.861 61.6244 208.005 61.7235 207.17 64.6238C206.876 65.6474 206.278 66.7143 206.658 67.7104C205.294 67.3265 203.925 66.9589 202.551 66.607C202.217 67.0476 202.766 67.65 203.302 67.7857C203.838 67.9214 204.475 67.902 204.84 68.3181C205.095 68.6096 205.13 69.0293 205.151 69.417C205.221 70.6785 205.292 71.9393 205.362 73.2008C205.439 74.5696 205.622 76.1375 206.755 76.9085C208.044 77.786 209.867 77.0874 210.95 75.9661C211.21 75.6969 211.495 75.3823 211.869 75.3808C212.208 75.3793 212.482 75.6373 212.735 75.8624C214.064 77.0509 215.924 77.7658 217.66 77.3558C219.395 76.945 220.83 75.1996 220.539 73.4401C220.426 72.7631 220.133 71.9348 220.657 71.4904C220.965 71.2295 221.491 71.1974 221.629 70.8187C221.802 70.3423 221.193 69.9986 220.786 69.6966C220.051 69.1501 219.787 68.0556 220.194 67.2347C220.402 66.8143 224.187 65.2605 224.774 65.5468C226.122 66.2036 225.885 69.8174 226.052 71.2116C226.117 71.7499 226.216 72.3501 226.651 72.6736C227.33 73.1791 228.311 72.6535 228.838 71.99C229.364 71.3272 229.75 70.4854 230.512 70.1179C230.956 69.9039 231.464 69.8852 231.956 69.8711C232.953 69.842 234.073 69.8584 234.775 70.5659C235.104 70.897 235.297 71.3428 235.625 71.6746C236.374 72.4306 237.623 72.3941 238.625 72.0354C239.628 71.6768 240.53 71.0573 241.559 70.7821C243.747 70.1976 246.249 71.2347 248.262 70.1954C249.235 69.6929 249.936 68.3046 249.166 67.5263C248.501 66.8545 247.058 66.9701 246.881 66.0419C246.712 65.1524 248.892 63.8685 249.275 63.0902C249.579 62.4736 248.915 61.3276 249.617 60.1854C250.188 59.2565 251.578 58.9724 252.199 57.9741Z" fill="#F5F5F5"/>
<path d="M123.585 207.94C122.34 207.106 120.943 206.626 120.51 204.914C119.919 202.583 121.177 201.589 123.495 202.454C123.702 202.53 123.926 202.612 124.136 202.545C124.806 202.331 124.331 201.341 123.894 200.789C122.874 199.5 122.804 197.77 123.333 196.271C123.458 195.916 116.928 195.766 116.21 196.16C113.693 197.537 115.333 202.905 112.412 202C112.214 199.959 112.322 197.846 112.317 195.782C111.322 195.743 110.328 195.705 109.333 195.667C110.075 195.696 109.634 191.889 109.382 191.473C108.402 189.857 105.377 190.544 105.646 187.491C105.987 183.626 113.47 182.841 112.575 187.275C114.855 188.147 117.52 188.342 119.958 188.271C120.014 189.056 120.063 189.848 120.111 190.633C120.678 190.984 121.424 191.043 122.041 190.778C123.224 188.794 123.043 186.077 121.61 184.259C122.466 182.95 121.424 181.265 120.425 180.058C123.163 178.053 122.375 172.963 119.16 171.879C115.937 170.794 112.233 174.376 113.203 177.629C111.632 177.81 110.127 178.5 108.965 179.568C108.794 175.459 105.698 171.637 101.712 170.624C99.708 170.11 97.3304 170.139 95.9645 168.583C95.3539 167.894 95.0527 166.984 94.4883 166.257C93.2074 164.633 90.917 164.301 88.8489 164.186C87.4643 164.114 86.0798 164.09 84.6953 164.111C90.4794 188.162 104.571 209.01 123.794 223.409C124.525 223.437 125.279 223.427 125.912 223.093C127.086 222.463 127.45 220.981 127.691 219.667C128.636 214.558 128.105 211.376 123.948 208.199C123.829 208.109 123.708 208.023 123.585 207.94Z" fill="#F5F5F5"/>
<path d="M63.0469 83.8353C63.0469 80.4922 65.7577 77.7813 69.1009 77.7813C69.7055 77.7813 70.2885 77.8722 70.8395 78.0378C70.7515 77.4309 70.7038 76.8106 70.7038 76.1791C70.7038 69.0984 76.4439 63.3591 83.5238 63.3591C84.3305 63.3591 85.1193 63.4374 85.885 63.5798C87.8555 60.3552 91.3977 58.1953 95.4536 58.1953C101.592 58.1953 106.571 63.1272 106.662 69.2446C106.725 69.2431 106.786 69.2349 106.849 69.2349C112.552 69.2349 117.176 73.8589 117.176 79.5624C117.176 85.266 112.552 89.89 106.849 89.89H68.9227L68.9301 89.8818C65.6668 89.7901 63.0469 87.1217 63.0469 83.8353Z" fill="#FAFAFA"/>
<path d="M268.055 103.248C268.055 100.381 270.379 98.0561 273.247 98.0561C273.766 98.0561 274.265 98.1344 274.738 98.2761C274.662 97.7557 274.622 97.2233 274.622 96.682C274.622 90.6094 279.545 85.6865 285.617 85.6865C286.309 85.6865 286.986 85.7536 287.643 85.8758C289.333 83.1098 292.371 81.2578 295.849 81.2578C301.114 81.2578 305.385 85.4881 305.463 90.7347C305.517 90.7339 305.569 90.7265 305.624 90.7265C310.515 90.7265 314.481 94.6921 314.481 99.5838C314.481 104.475 310.515 108.441 305.624 108.441H273.095L273.101 108.434C270.301 108.355 268.055 106.066 268.055 103.248Z" fill="#FAFAFA"/>
<path d="M150.172 150.55C150.172 147.206 152.882 144.496 156.226 144.496C156.831 144.496 157.414 144.587 157.965 144.753C157.877 144.146 157.829 143.525 157.829 142.894C157.829 135.813 163.569 130.074 170.649 130.074C171.456 130.074 172.244 130.152 173.011 130.295C174.981 127.07 178.523 124.91 182.579 124.91C188.718 124.91 193.696 129.843 193.788 135.959C193.851 135.958 193.912 135.95 193.975 135.95C199.678 135.95 204.302 140.574 204.302 146.277C204.302 151.981 199.678 156.605 193.975 156.605H156.048L156.056 156.597C152.791 156.504 150.172 153.836 150.172 150.55Z" fill="#FAFAFA"/>
<path d="M56.6953 206.789C56.6953 204.471 58.5741 202.593 60.8921 202.593C61.3111 202.593 61.7152 202.656 62.0969 202.77C62.0358 202.35 62.003 201.919 62.003 201.482C62.003 196.573 65.9821 192.594 70.8909 192.594C71.45 192.594 71.9973 192.648 72.5281 192.747C73.894 190.512 76.3499 189.014 79.1614 189.014C83.4171 189.014 86.869 192.433 86.9324 196.674C86.9757 196.673 87.0182 196.667 87.0621 196.667C91.0159 196.667 94.2218 199.872 94.2218 203.827C94.2218 207.78 91.0166 210.986 87.0621 210.986H60.7691L60.7743 210.98C58.5115 210.918 56.6953 209.068 56.6953 206.789Z" fill="#FAFAFA"/>
<path d="M282.93 209.82C282.93 207.652 284.688 205.894 286.856 205.894C287.248 205.894 287.626 205.953 287.983 206.061C287.926 205.667 287.895 205.264 287.895 204.855C287.895 200.263 291.618 196.54 296.21 196.54C296.733 196.54 297.245 196.591 297.741 196.684C299.019 194.592 301.316 193.191 303.946 193.191C307.928 193.191 311.158 196.391 311.216 200.358C311.257 200.357 311.296 200.352 311.337 200.352C315.037 200.352 318.035 203.35 318.035 207.05C318.035 210.749 315.037 213.748 311.337 213.748H286.739L286.744 213.743C284.629 213.682 282.93 211.951 282.93 209.82Z" fill="#FAFAFA"/>
<path d="M312.907 175.685C322.91 149.299 274.702 106.56 205.233 80.2242C135.763 53.8894 71.3384 53.9304 61.3359 80.3167" stroke="#E0E0E0" stroke-width="1.9163" stroke-miterlimit="10" stroke-linecap="round" stroke-linejoin="round"/>
<path d="M267.151 23.4507C244.47 6.66285 190.252 41.4621 146.052 101.177C101.852 160.893 84.4081 222.911 107.09 239.699" stroke="#E0E0E0" stroke-width="1.9163" stroke-miterlimit="10" stroke-linecap="round" stroke-linejoin="round"/>
<path d="M187.369 278.253C267.206 278.253 331.926 274.474 331.926 269.811C331.926 265.149 267.206 261.369 187.369 261.369C107.533 261.369 42.8125 265.149 42.8125 269.811C42.8125 274.474 107.533 278.253 187.369 278.253Z" fill="#F5F5F5"/>
<path d="M203.912 82.3295C203.912 82.3295 137.964 72.0504 102.953 77.1388V216.506C102.953 216.506 176.256 210.168 200.002 218.165L203.912 215.456V82.3295Z" fill="#263238"/>
<path opacity="0.6" d="M203.912 82.3295C203.912 82.3295 137.964 72.0504 102.953 77.1388V216.506C102.953 216.506 176.256 210.168 200.002 218.165L203.912 215.456V82.3295Z" fill="white"/>
<path d="M203.914 82.3295C203.914 82.3295 269.862 72.0504 304.873 77.1388V216.506C304.873 216.506 231.571 210.168 207.825 218.165L203.914 215.456V82.3295Z" fill="#263238"/>
<path opacity="0.6" d="M203.914 82.3295C203.914 82.3295 269.862 72.0504 304.873 77.1388V216.506C304.873 216.506 231.571 210.168 207.825 218.165L203.914 215.456V82.3295Z" fill="white"/>
<path d="M203.912 215.905V82.7782C203.912 82.7782 168.147 63.0088 105.984 75.125V213.504C105.984 213.504 159.566 204.547 203.912 215.905Z" fill="#407BFF"/>
<path opacity="0.8" d="M203.912 215.905V82.7782C203.912 82.7782 168.147 63.0088 105.984 75.125V213.504C105.984 213.504 159.566 204.547 203.912 215.905Z" fill="white"/>
<path d="M203.915 215.905V82.7786C203.915 82.7786 168.752 61.3354 107.641 70.5297V208.909C107.641 208.909 160.318 202.463 203.915 215.905Z" fill="#407BFF"/>
<path opacity="0.7" d="M203.915 215.905V82.7786C203.915 82.7786 168.752 61.3354 107.641 70.5297V208.909C107.641 208.909 160.318 202.463 203.915 215.905Z" fill="white"/>
<path d="M203.91 215.849V82.7235C203.91 82.7235 168.986 60.1403 109.375 67.344V205.724C109.375 205.724 161.384 200.987 203.91 215.849Z" fill="#407BFF"/>
<path opacity="0.8" d="M203.91 215.849V82.7235C203.91 82.7235 168.986 60.1403 109.375 67.344V205.724C109.375 205.724 161.384 200.987 203.91 215.849Z" fill="white"/>
<path d="M203.909 215.457V82.3304C203.909 82.3304 169.931 59.0412 111.312 65.0124V203.392C111.312 203.392 162.091 199.715 203.909 215.457Z" fill="#407BFF"/>
<path opacity="0.7" d="M203.909 215.457V82.3304C203.909 82.3304 169.931 59.0412 111.312 65.0124V203.392C111.312 203.392 162.091 199.715 203.909 215.457Z" fill="white"/>
<path d="M203.914 215.905V82.7782C203.914 82.7782 239.68 63.0088 301.842 75.125V213.504C301.842 213.504 248.26 204.547 203.914 215.905Z" fill="#407BFF"/>
<path opacity="0.7" d="M203.914 215.905V82.7782C203.914 82.7782 239.68 63.0088 301.842 75.125V213.504C301.842 213.504 248.26 204.547 203.914 215.905Z" fill="white"/>
<path d="M203.914 215.905V82.7786C203.914 82.7786 239.077 61.3354 300.188 70.5297V208.909C300.188 208.909 247.51 202.463 203.914 215.905Z" fill="#407BFF"/>
<path opacity="0.8" d="M203.914 215.905V82.7786C203.914 82.7786 239.077 61.3354 300.188 70.5297V208.909C300.188 208.909 247.51 202.463 203.914 215.905Z" fill="white"/>
<path d="M203.914 215.849V82.7235C203.914 82.7235 238.839 60.1403 298.449 67.344V205.724C298.449 205.724 246.44 200.987 203.914 215.849Z" fill="#407BFF"/>
<path opacity="0.7" d="M203.914 215.849V82.7235C203.914 82.7235 238.839 60.1403 298.449 67.344V205.724C298.449 205.724 246.44 200.987 203.914 215.849Z" fill="white"/>
<path d="M203.914 215.457V82.3304C203.914 82.3304 237.892 59.0412 296.511 65.0124V203.392C296.511 203.392 245.732 199.715 203.914 215.457Z" fill="#407BFF"/>
<path opacity="0.8" d="M203.914 215.457V82.3304C203.914 82.3304 237.892 59.0412 296.511 65.0124V203.392C296.511 203.392 245.732 199.715 203.914 215.457Z" fill="white"/>
<path d="M231.901 165.417C229.514 163.041 226.393 161.842 223.272 161.842C220.151 161.842 217.031 163.041 214.643 165.417C209.869 170.191 209.869 177.912 214.643 182.686L223.272 191.314L231.901 182.686C236.675 177.911 236.675 170.191 231.901 165.417ZM227.266 178.039C226.16 179.134 224.716 179.693 223.272 179.693C221.828 179.693 220.384 179.134 219.278 178.039C217.077 175.838 217.077 172.263 219.278 170.062C220.384 168.956 221.828 168.398 223.272 168.398C224.716 168.398 226.16 168.957 227.266 170.062C229.467 172.263 229.467 175.838 227.266 178.039Z" fill="#407BFF"/>
<path opacity="0.3" d="M219.278 170.062C217.077 172.263 217.077 175.838 219.278 178.039C220.384 179.134 221.828 179.693 223.272 179.693V191.314L214.643 182.686C209.869 177.911 209.869 170.191 214.643 165.417C217.031 163.041 220.151 161.842 223.272 161.842V168.398C221.828 168.397 220.384 168.956 219.278 170.062Z" fill="white"/>
<path d="M284.204 80.0348C281.681 77.5253 278.384 76.2578 275.087 76.2578C271.79 76.2578 268.492 77.5253 265.971 80.0348C260.926 85.0793 260.926 93.2358 265.971 98.2803L275.087 107.397L284.204 98.2803C289.247 93.2366 289.247 85.0793 284.204 80.0348ZM279.307 93.3715C278.138 94.5279 276.612 95.1184 275.087 95.1184C273.561 95.1184 272.036 94.5279 270.867 93.3715C268.542 91.0461 268.542 87.2691 270.867 84.9436C272.036 83.7753 273.561 83.1841 275.087 83.1841C276.612 83.1841 278.138 83.7746 279.307 84.9436C281.632 87.2691 281.632 91.0461 279.307 93.3715Z" fill="#407BFF"/>
<path opacity="0.3" d="M270.867 84.9444C268.542 87.2698 268.542 91.0468 270.867 93.3722C272.036 94.5286 273.561 95.1191 275.087 95.1191V107.397L265.971 98.2803C260.926 93.2365 260.926 85.0793 265.971 80.0348C268.493 77.5253 271.79 76.2578 275.087 76.2578V83.1841C273.561 83.1856 272.036 83.7761 270.867 84.9444Z" fill="white"/>
<path opacity="0.4" d="M225.938 192.831C240.055 196.105 255.901 197.803 268.948 190.006C275.319 186.2 280.263 180.215 283.321 173.453C285.968 167.6 287.254 161.035 286.316 154.68C283.887 138.217 268.24 131.417 253.715 138.368C249.125 140.563 244.642 143.211 239.637 144.126C232.169 145.493 224.095 142.69 219.433 136.636C215.614 131.678 214.07 125.18 214.555 118.94C215.311 109.24 220.028 99.1271 229.702 95.7325C235.132 93.8269 242.17 94.8617 245.494 99.9084C248.839 104.985 248.115 111.82 252.25 116.506C254.39 118.933 257.39 120.526 260.549 121.229C268.353 122.967 278.534 119.209 276.416 109.652" stroke="black" stroke-width="0.9724" stroke-miterlimit="10" stroke-linecap="round" stroke-linejoin="round" stroke-dasharray="1.94 4.86"/>
<g opacity="0.2">
<path d="M123.531 81.7671C123.531 81.7671 160.426 79.7511 194.912 94.6587" stroke="black" stroke-width="0.9724" stroke-miterlimit="10" stroke-linecap="round" stroke-linejoin="round"/>
<path d="M123.531 96.9579C123.531 96.9579 160.212 94.7003 194.912 109.02" stroke="black" stroke-width="0.9724" stroke-miterlimit="10" stroke-linecap="round" stroke-linejoin="round"/>
<path d="M123.531 112.151C123.531 112.151 159.998 109.651 194.912 123.384" stroke="black" stroke-width="0.9724" stroke-miterlimit="10" stroke-linecap="round" stroke-linejoin="round"/>
<path d="M123.531 127.343C123.531 127.343 159.784 124.602 194.912 137.747" stroke="black" stroke-width="0.9724" stroke-miterlimit="10" stroke-linecap="round" stroke-linejoin="round"/>
<path d="M123.531 142.534C123.531 142.534 159.569 139.552 194.912 152.109" stroke="black" stroke-width="0.9724" stroke-miterlimit="10" stroke-linecap="round" stroke-linejoin="round"/>
<path d="M123.531 157.727C123.531 157.727 159.355 154.503 194.912 166.473" stroke="black" stroke-width="0.9724" stroke-miterlimit="10" stroke-linecap="round" stroke-linejoin="round"/>
<path d="M123.531 172.918C123.531 172.918 159.14 169.453 194.912 180.835" stroke="black" stroke-width="0.9724" stroke-miterlimit="10" stroke-linecap="round" stroke-linejoin="round"/>
<path d="M123.531 188.11C123.531 188.11 158.926 184.404 194.912 195.198" stroke="black" stroke-width="0.9724" stroke-miterlimit="10" stroke-linecap="round" stroke-linejoin="round"/>
</g>
<path d="M142.412 122.485C142.412 120.5 140.802 118.89 138.817 118.89C138.458 118.89 138.112 118.945 137.784 119.042C137.837 118.681 137.865 118.313 137.865 117.938C137.865 113.733 134.456 110.324 130.251 110.324C129.772 110.324 129.304 110.371 128.849 110.456C127.678 108.54 125.575 107.258 123.167 107.258C119.521 107.258 116.564 110.187 116.51 113.82C116.472 113.819 116.437 113.814 116.399 113.814C113.012 113.814 110.266 116.56 110.266 119.947C110.266 123.334 113.012 126.08 116.399 126.08H138.922L138.918 126.075C140.856 126.021 142.412 124.437 142.412 122.485Z" fill="white"/>
<path d="M209.662 113.073C209.662 111.088 208.052 109.478 206.067 109.478C205.708 109.478 205.362 109.532 205.034 109.63C205.087 109.269 205.115 108.901 205.115 108.526C205.115 104.321 201.706 100.912 197.501 100.912C197.022 100.912 196.554 100.958 196.099 101.043C194.928 99.1281 192.825 97.8457 190.417 97.8457C186.771 97.8457 183.814 100.775 183.76 104.407C183.722 104.407 183.687 104.401 183.649 104.401C180.262 104.401 177.516 107.147 177.516 110.534C177.516 113.922 180.262 116.667 183.649 116.667H206.172L206.168 116.662C208.106 116.609 209.662 115.025 209.662 113.073Z" fill="white"/>
<path d="M189.342 165.911C189.342 163.926 187.732 162.316 185.747 162.316C185.387 162.316 185.041 162.37 184.714 162.468C184.766 162.107 184.795 161.739 184.795 161.364C184.795 157.159 181.386 153.75 177.181 153.75C176.702 153.75 176.233 153.796 175.779 153.881C174.608 151.966 172.505 150.684 170.096 150.684C166.451 150.684 163.493 153.613 163.439 157.245C163.402 157.245 163.366 157.239 163.328 157.239C159.941 157.239 157.195 159.985 157.195 163.372C157.195 166.759 159.941 169.505 163.328 169.505H185.852L185.847 169.5C187.787 169.447 189.342 167.862 189.342 165.911Z" fill="white"/>
<path d="M200 218.166C200 218.166 202.769 219.512 207.821 218.166C207.821 218.166 206.975 215.457 203.91 215.457C200.845 215.458 200 218.166 200 218.166Z" fill="black"/>
<path opacity="0.5" d="M200 218.166C200 218.166 202.769 219.512 207.821 218.166C207.821 218.166 206.975 215.457 203.91 215.457C200.845 215.458 200 218.166 200 218.166Z" fill="white"/>
<path d="M274.81 253.253C274.81 253.253 278.351 245.526 274.305 237.909C270.259 230.291 269.085 228.497 271.665 226.936C274.244 225.376 275.428 233.03 275.428 233.03C275.428 233.03 277.602 227.764 275.806 222.254C274.011 216.742 272.885 207.766 275.337 206.804C277.79 205.841 275.806 218.002 277.933 222.146C277.933 222.146 279.72 217.532 280.014 213.105C280.307 208.679 279.848 201.611 281.784 199.798C283.721 197.985 284.961 199.239 283.058 209.008C281.155 218.776 281.169 226.716 281.169 226.716C281.169 226.716 285.372 213.903 288.192 213.529C291.013 213.155 291.009 217.305 288.595 220.904C286.181 224.503 281.525 230.951 280.761 234.269C280.761 234.269 285.374 224.626 289.524 227.581C293.674 230.537 285.912 236.361 282.453 238.466C278.994 240.571 276.591 253.763 276.591 253.763L274.81 253.253Z" fill="#407BFF"/>
<path opacity="0.2" d="M274.81 253.253C274.81 253.253 278.351 245.526 274.305 237.909C270.259 230.291 269.085 228.497 271.665 226.936C274.244 225.376 275.428 233.03 275.428 233.03C275.428 233.03 277.602 227.764 275.806 222.254C274.011 216.742 272.885 207.766 275.337 206.804C277.79 205.841 275.806 218.002 277.933 222.146C277.933 222.146 279.72 217.532 280.014 213.105C280.307 208.679 279.848 201.611 281.784 199.798C283.721 197.985 284.961 199.239 283.058 209.008C281.155 218.776 281.169 226.716 281.169 226.716C281.169 226.716 285.372 213.903 288.192 213.529C291.013 213.155 291.009 217.305 288.595 220.904C286.181 224.503 281.525 230.951 280.761 234.269C280.761 234.269 285.374 224.626 289.524 227.581C293.674 230.537 285.912 236.361 282.453 238.466C278.994 240.571 276.591 253.763 276.591 253.763L274.81 253.253Z" fill="black"/>
<path d="M277.606 256.423C277.606 256.423 274.157 248.643 278.294 241.087C282.432 233.531 283.626 231.754 281.066 230.155C278.505 228.556 277.23 236.192 277.23 236.192C277.23 236.192 275.119 230.894 276.98 225.41C278.842 219.927 280.075 210.968 277.635 209.969C275.194 208.97 277.032 221.158 274.855 225.271C274.855 225.271 273.124 220.631 272.883 216.2C272.642 211.77 273.186 204.71 271.272 202.867C269.357 201.026 268.103 202.261 269.887 212.057C271.672 221.853 271.564 229.793 271.564 229.793C271.564 229.793 267.515 216.917 264.699 216.501C261.883 216.085 261.837 220.235 264.208 223.87C266.579 227.504 271.157 234.021 271.881 237.35C271.881 237.35 267.385 227.639 263.2 230.533C259.015 233.426 266.706 239.366 270.139 241.522C273.574 243.678 275.817 256.905 275.817 256.905L277.606 256.423Z" fill="#407BFF"/>
<path d="M261.703 250.877H290.192L287.886 271.264H264.008L261.703 250.877Z" fill="#263238"/>
<path d="M160.978 99.7469L160.604 99.9765L159.987 100.36L146.174 99.0819H146.164L151.042 95.1855L160.863 98.6554C161.346 98.8231 161.413 99.4792 160.978 99.7469Z" fill="#407BFF"/>
<path opacity="0.2" d="M160.602 99.9766L159.985 100.36L146.172 99.0819L150.431 95.6836L160.248 99.1534C160.612 99.2824 160.741 99.6753 160.602 99.9766Z" fill="black"/>
<path d="M148.967 93.3524L140.826 98.6504L140.754 98.4737L136.25 87.3074L138.404 86.2494C138.428 86.2353 138.452 86.2256 138.481 86.2159C139.472 85.7656 140.644 85.9385 141.462 86.6707L148.967 93.3524Z" fill="#407BFF"/>
<path opacity="0.2" d="M148.312 93.5536L140.754 98.4736L136.25 87.3073L138.404 86.2494C138.428 86.2352 138.452 86.2255 138.481 86.2158C139.304 86.0674 140.166 86.2971 140.811 86.8719L148.312 93.5536Z" fill="black"/>
<path d="M242.16 77.3036C242.14 77.323 242.122 77.3416 242.102 77.3566L238.752 80.0607H191.602L197.551 74.0925L202.395 69.2344L207.009 69.8853L241.38 74.7478C242.633 74.9253 243.084 76.4805 242.16 77.3036Z" fill="#407BFF"/>
<path opacity="0.9" d="M223.148 80.0607H191.602L197.551 74.0925L202.395 69.2344L207.009 69.8853C209.077 70.6509 210.795 71.4502 211.652 71.9005C213.03 72.6274 219.53 77.3849 223.148 80.0607Z" fill="white"/>
<path opacity="0.2" d="M242.162 77.3033C242.143 77.3227 242.124 77.3414 242.105 77.3563L238.754 80.0604H192.078L201.919 70.1914L240.903 75.7049C241.751 75.8241 242.229 76.5757 242.162 77.3033Z" fill="black"/>
<path d="M218.841 75.3633C219.212 74.9107 219.433 74.277 219.425 73.5404C219.406 71.9262 218.295 70.4388 216.943 70.2189C216.354 70.1227 215.817 70.2837 215.4 70.6282C212.848 72.2804 204.215 78.4141 202.845 81.6118C201.984 83.6211 205.024 82.5431 207.125 82.1181C209.182 81.7028 215.136 78.1897 218.362 75.7949C218.434 75.7487 218.504 75.698 218.569 75.6429L218.571 75.6414C218.679 75.5601 218.767 75.4662 218.841 75.3633Z" fill="#407BFF"/>
<path opacity="0.9" d="M219.42 73.5418C219.43 74.2792 219.209 74.9107 218.841 75.3654C218.764 75.4661 218.678 75.5615 218.568 75.6428C218.501 75.7002 218.429 75.7479 218.358 75.7956C217.917 76.1214 217.429 76.4659 216.907 76.8245C213.586 79.0836 208.905 81.7594 207.124 82.118C205.023 82.5437 201.984 83.6211 202.845 81.611C203.961 79.0075 209.891 74.4559 213.432 71.9664C214.241 71.3968 214.926 70.9323 215.399 70.6259C215.816 70.2814 216.352 70.1234 216.94 70.2188C218.291 70.4403 219.401 71.9291 219.42 73.5418Z" fill="white"/>
<path d="M219.424 73.5418C219.433 74.2792 219.213 74.9107 218.844 75.3654C218.768 75.4661 218.682 75.5615 218.572 75.6428C218.504 75.7002 218.433 75.7479 218.361 75.7956C217.921 76.1214 217.433 76.4659 216.911 76.8245C216.236 76.82 215.609 76.6858 215.097 76.3839C213.321 75.3408 213.101 73.421 213.436 71.9664C214.245 71.3968 214.929 70.9323 215.403 70.6259C215.82 70.2814 216.356 70.1234 216.944 70.2188C218.294 70.4403 219.405 71.9291 219.424 73.5418Z" fill="#407BFF"/>
<path opacity="0.2" d="M219.244 73.0365C219.258 74.2428 218.451 75.0875 217.441 74.9227C216.431 74.758 215.6 73.6463 215.586 72.44C215.572 71.2337 216.379 70.389 217.389 70.5537C218.399 70.7178 219.229 71.8294 219.244 73.0365Z" fill="black"/>
<path d="M216.89 72.1091C217.077 71.8578 218.225 71.8071 218.247 72.1173C218.309 73.0127 217.761 73.6285 217.326 73.5555C217.256 73.5428 216.235 72.9926 216.89 72.1091Z" fill="#407BFF"/>
<path opacity="0.2" d="M203.523 82.7902C202.191 83.0519 215.524 74 215.524 74C215.524 74 216.375 75.8408 218.253 75.2235C218.253 75.2235 211.657 81.191 203.523 82.7902Z" fill="black"/>
<path d="M231.334 76.5534C231.607 76.2194 231.771 75.752 231.764 75.2092C231.75 74.0185 230.931 72.921 229.933 72.7585C229.498 72.6877 229.102 72.8062 228.795 73.0605C226.912 74.2795 220.543 78.8043 219.532 81.1633C218.897 82.6455 221.14 81.8499 222.69 81.5368C224.208 81.2304 228.6 78.638 230.98 76.8718C231.033 76.8382 231.084 76.8002 231.133 76.7592L231.134 76.7577C231.214 76.6988 231.28 76.6295 231.334 76.5534Z" fill="#407BFF"/>
<path opacity="0.9" d="M231.761 75.2098C231.767 75.7533 231.606 76.22 231.333 76.5555C231.277 76.6294 231.213 76.7002 231.132 76.7606C231.083 76.8031 231.03 76.8381 230.977 76.8731C230.652 77.1132 230.292 77.3675 229.907 77.6321C227.456 79.2985 224.003 81.2727 222.689 81.5374C221.139 81.8513 218.897 82.6461 219.533 81.1631C220.356 79.2426 224.731 75.8838 227.344 74.0475C227.94 73.627 228.446 73.2847 228.796 73.0588C229.103 72.8046 229.499 72.6883 229.932 72.7584C230.927 72.9217 231.746 74.0199 231.761 75.2098Z" fill="white"/>
<path d="M231.764 75.2098C231.771 75.7533 231.609 76.22 231.337 76.5555C231.28 76.6294 231.217 76.7002 231.135 76.7606C231.086 76.8031 231.033 76.8381 230.98 76.8731C230.655 77.1132 230.295 77.3675 229.91 77.6321C229.412 77.6284 228.95 77.53 228.572 77.3071C227.262 76.5369 227.1 75.1211 227.347 74.0475C227.944 73.627 228.449 73.2847 228.799 73.0588C229.106 72.8046 229.502 72.6883 229.936 72.7584C230.93 72.9217 231.75 74.0199 231.764 75.2098Z" fill="#407BFF"/>
<path opacity="0.2" d="M231.637 74.8374C231.647 75.7276 231.051 76.3509 230.306 76.2286C229.561 76.1071 228.949 75.287 228.938 74.3968C228.927 73.5066 229.523 72.8833 230.268 73.0055C231.013 73.1271 231.626 73.9472 231.637 74.8374Z" fill="black"/>
<path d="M229.896 74.1524C230.033 73.9675 230.881 73.9295 230.896 74.1584C230.942 74.819 230.538 75.273 230.217 75.2193C230.166 75.2104 229.412 74.8048 229.896 74.1524Z" fill="#407BFF"/>
<path opacity="0.2" d="M220.333 81.8706C219.376 82.0593 228.958 75.5527 228.958 75.5527C228.958 75.5527 229.57 76.8761 230.92 76.4325C230.92 76.4325 226.179 80.721 220.333 81.8706Z" fill="black"/>
<path d="M227.793 54.8655C227.645 55.4016 227.368 56.0428 226.884 56.7466C226.199 57.7568 225.084 58.9005 223.294 60.083C223.026 60.2604 222.748 60.4416 222.481 60.6191H222.471C220.992 61.586 219.561 62.4807 218.695 63.0168L181.031 86.9196C174.536 91.0455 167.433 94.1232 159.976 96.0326L157.545 96.6596L144.703 99.9573C143.756 100.2 142.75 100.015 141.951 99.4503L140.07 98.1194L150.222 90.9397C152.18 89.5566 154.19 88.24 156.239 87.0008L206.744 56.4454C214.273 52.2143 216.359 52.3821 220.662 53.1045C222.921 52.6303 225.018 52.6877 226.363 52.8175C226.952 52.8749 227.435 53.2387 227.679 53.7174C227.852 54.0611 227.909 54.4629 227.793 54.8655Z" fill="#407BFF"/>
<path opacity="0.9" d="M227.792 54.8648C227.644 55.4008 227.366 56.042 226.882 56.7458C226.198 57.7561 225.083 58.8998 223.292 60.0822C223.024 60.2597 222.747 60.4409 222.479 60.6183H222.469C222.441 60.6377 222.417 60.6563 222.388 60.6757C222.384 60.6757 222.384 60.6757 222.384 60.6757C220.933 61.6188 219.541 62.4897 218.694 63.016L207.413 70.1764L181.031 86.9188C180.815 87.0575 180.6 87.1917 180.38 87.3259C174.062 91.2461 167.184 94.1851 159.976 96.0326L157.545 96.6596L144.703 99.9573C143.756 100.201 142.751 100.015 141.951 99.4503L140.07 98.1194L150.222 90.9397C152.18 89.5566 154.19 88.24 156.239 87.0008L162.169 83.4162L189.082 67.1286L206.744 56.4454C214.273 52.2143 216.359 52.3821 220.662 53.1045C220.825 53.071 220.988 53.0374 221.145 53.0091C223.218 52.6408 225.113 52.6982 226.362 52.8175C226.951 52.8749 227.434 53.2387 227.678 53.7174C227.85 54.0603 227.907 54.4622 227.792 54.8648Z" fill="white"/>
<path d="M227.792 54.8653C227.644 55.4013 227.367 56.0425 226.883 56.7463C226.198 57.7566 225.083 58.9003 223.293 60.0827C223.024 60.2602 222.747 60.4413 222.479 60.6188H222.47C222.441 60.6382 222.418 60.6568 222.388 60.6762C222.384 60.6762 222.384 60.6762 222.384 60.6762C220.8 60.1357 219.561 58.8242 219.417 56.7612C219.302 55.0956 220.154 53.861 221.145 53.0088C223.218 52.6405 225.113 52.6979 226.362 52.8172C226.951 52.8746 227.434 53.2384 227.678 53.7171C227.85 54.0608 227.908 54.4627 227.792 54.8653Z" fill="#407BFF"/>
<path d="M154.266 90.112C154.401 90.03 154.536 89.948 154.673 89.8652" stroke="#263238" stroke-width="1.9259" stroke-linecap="round" stroke-linejoin="round"/>
<path d="M156.688 88.6452C171.5 79.6761 195.795 64.9654 206.572 58.4395" stroke="#263238" stroke-width="1.9259" stroke-linecap="round" stroke-linejoin="round" stroke-dasharray="1.27 3.17"/>
<path d="M207.586 57.8269C207.725 57.7426 207.86 57.6606 207.994 57.5801" stroke="#263238" stroke-width="1.9259" stroke-linecap="round" stroke-linejoin="round"/>
<path d="M211.665 56.1988L211.648 54.5302C213.182 53.7585 215.411 52.4284 218.827 52.8355L220.662 53.1047C217.772 52.8698 214.873 54.2558 212.392 55.7581L211.665 56.1988Z" fill="#263238"/>
<path opacity="0.2" d="M227.795 54.865C227.647 55.401 227.369 56.0422 226.886 56.746C225.837 57.5259 224.506 58.4213 222.971 59.3928C218.175 62.4228 183.718 84.0516 179.166 87.3067C175.855 89.6709 168.761 93.2466 157.547 96.6591C153.732 97.8177 149.438 98.9562 144.651 100.024C143.736 100.228 142.775 100.031 142.011 99.49L141.953 99.4497C141.953 99.4497 157.078 94.362 160.486 92.4668C163.894 90.576 212.876 60.3121 217.859 57.5796C221.798 55.4256 225.536 54.0284 227.68 53.7168C227.853 54.0605 227.911 54.4624 227.795 54.865Z" fill="black"/>
<path d="M193.273 70.4634L193.053 70.6073L190.488 72.2535L179.341 79.3997C178.671 79.8307 177.891 80.0603 177.096 80.0603H124.375L126.337 77.9108C128.007 76.0872 130.296 74.948 132.76 74.7236L178.484 70.5454L192.852 69.234C193.551 69.1669 193.867 70.0854 193.273 70.4634Z" fill="#407BFF"/>
<path opacity="0.9" d="M193.272 70.4634L193.052 70.6073L190.487 72.2535L179.34 79.3997C178.67 79.8307 177.89 80.0603 177.095 80.0603H140.867C153.24 77.72 172.51 73.723 178.482 70.5454L192.851 69.234C193.55 69.1669 193.866 70.0854 193.272 70.4634Z" fill="white"/>
<path opacity="0.2" d="M193.054 70.6084L179.342 79.4008C178.672 79.8318 177.892 80.0614 177.097 80.0614H124.773L125.86 78.87C127.53 77.0464 129.818 75.9071 132.283 75.682L192.375 70.1924C192.71 70.1633 192.954 70.3549 193.054 70.6084Z" fill="black"/>
<path d="M175.74 75.3594C176.11 74.9068 176.332 74.2731 176.323 73.5365C176.304 71.9223 175.193 70.4349 173.841 70.215C173.252 70.1188 172.716 70.2798 172.298 70.6243C169.746 72.2765 161.113 78.4102 159.744 81.6079C158.882 83.6172 161.922 82.5391 164.024 82.1142C166.081 81.6989 172.034 78.185 175.26 75.791C175.333 75.7448 175.401 75.6941 175.468 75.639L175.47 75.6375C175.578 75.5562 175.666 75.4623 175.74 75.3594Z" fill="#407BFF"/>
<path opacity="0.9" d="M176.318 73.5379C176.328 74.2752 176.108 74.9067 175.739 75.3615C175.662 75.4622 175.577 75.5576 175.466 75.6389C175.399 75.6963 175.328 75.744 175.256 75.7917C174.815 76.1175 174.328 76.462 173.806 76.8206C170.484 79.0797 165.803 81.7555 164.023 82.1141C161.922 82.5398 158.882 83.6172 159.744 81.6071C160.859 79.0036 166.789 74.4512 170.331 71.9625C171.14 71.3929 171.824 70.9284 172.298 70.622C172.714 70.2775 173.25 70.1195 173.839 70.2149C175.189 70.4371 176.299 71.9252 176.318 73.5379Z" fill="white"/>
<path d="M176.322 73.5379C176.332 74.2752 176.112 74.9067 175.743 75.3615C175.666 75.4622 175.58 75.5576 175.47 75.6389C175.403 75.6963 175.331 75.744 175.26 75.7917C174.819 76.1175 174.332 76.462 173.81 76.8206C173.135 76.8161 172.508 76.6819 171.996 76.38C170.22 75.3362 170 73.4171 170.335 71.9625C171.144 71.3929 171.828 70.9284 172.301 70.622C172.718 70.2775 173.254 70.1195 173.842 70.2149C175.193 70.4371 176.303 71.9252 176.322 73.5379Z" fill="#407BFF"/>
<path opacity="0.2" d="M176.142 73.0326C176.156 74.2389 175.35 75.0836 174.34 74.9188C173.329 74.7541 172.499 73.6424 172.485 72.4361C172.47 71.2298 173.278 70.3851 174.287 70.5498C175.298 70.7146 176.128 71.8262 176.142 73.0326Z" fill="black"/>
<path d="M173.789 72.1052C173.976 71.8539 175.124 71.8032 175.145 72.1134C175.208 73.0088 174.66 73.6246 174.225 73.5516C174.154 73.5396 173.133 72.9894 173.789 72.1052Z" fill="#407BFF"/>
<path opacity="0.2" d="M160.422 82.7863C159.089 83.048 172.422 73.9961 172.422 73.9961C172.422 73.9961 173.273 75.8369 175.152 75.2196C175.152 75.2196 168.556 81.1871 160.422 82.7863Z" fill="black"/>
<path d="M154.709 76.5534C154.983 76.2194 155.146 75.752 155.139 75.2092C155.125 74.0185 154.306 72.921 153.308 72.7585C152.873 72.6877 152.477 72.8062 152.17 73.0605C150.287 74.2795 143.918 78.8043 142.907 81.1633C142.272 82.6455 144.515 81.8499 146.065 81.5368C147.583 81.2304 151.975 78.638 154.355 76.8718C154.408 76.8382 154.459 76.8002 154.508 76.7592L154.509 76.7577C154.589 76.6988 154.655 76.6295 154.709 76.5534Z" fill="#407BFF"/>
<path opacity="0.9" d="M155.136 75.2098C155.142 75.7533 154.981 76.22 154.708 76.5555C154.652 76.6294 154.588 76.7002 154.507 76.7606C154.458 76.8031 154.405 76.8381 154.352 76.8731C154.027 77.1132 153.667 77.3675 153.282 77.6321C150.832 79.2985 147.378 81.2727 146.064 81.5374C144.514 81.8513 142.272 82.6461 142.908 81.1631C143.731 79.2426 148.106 75.8838 150.719 74.0475C151.315 73.627 151.821 73.2847 152.171 73.0588C152.478 72.8046 152.874 72.6883 153.308 72.7584C154.302 72.9217 155.121 74.0199 155.136 75.2098Z" fill="white"/>
<path d="M155.139 75.2098C155.146 75.7533 154.984 76.22 154.712 76.5555C154.655 76.6294 154.592 76.7002 154.51 76.7606C154.461 76.8031 154.408 76.8381 154.355 76.8731C154.03 77.1132 153.67 77.3675 153.286 77.6321C152.787 77.6284 152.325 77.53 151.947 77.3071C150.637 76.5369 150.475 75.1211 150.722 74.0475C151.319 73.627 151.824 73.2847 152.174 73.0588C152.481 72.8046 152.877 72.6883 153.311 72.7584C154.305 72.9217 155.125 74.0199 155.139 75.2098Z" fill="#407BFF"/>
<path opacity="0.2" d="M155.012 74.8374C155.022 75.7276 154.426 76.3509 153.681 76.2286C152.936 76.1071 152.324 75.287 152.313 74.3968C152.302 73.5066 152.898 72.8833 153.643 73.0055C154.388 73.1271 155.001 73.9472 155.012 74.8374Z" fill="black"/>
<path d="M153.271 74.1524C153.408 73.9675 154.256 73.9295 154.271 74.1584C154.317 74.819 153.913 75.273 153.592 75.2193C153.541 75.2104 152.787 74.8048 153.271 74.1524Z" fill="#407BFF"/>
<path opacity="0.2" d="M143.708 81.8706C142.751 82.0593 152.333 75.5527 152.333 75.5527C152.333 75.5527 152.945 76.8761 154.295 76.4325C154.295 76.4325 149.554 80.721 143.708 81.8706Z" fill="black"/>
<path d="M125.578 100.413L142.795 99.163L151.042 95.1816L129.272 97.8306C128.513 97.9231 127.805 98.2601 127.256 98.7917L125.578 100.413Z" fill="#407BFF"/>
<path d="M148.749 96.2749C148.725 96.2987 148.697 96.3181 148.663 96.3323L142.795 99.1654L126.339 100.357L125.578 100.414L127.258 98.7919C127.808 98.2603 128.517 97.9256 129.273 97.8301L148.418 95.504C148.878 95.4466 149.079 96.0259 148.749 96.2749Z" fill="#407BFF"/>
<path opacity="0.2" d="M148.745 96.2738C148.722 96.2977 148.693 96.3171 148.66 96.3312L142.791 99.1644L126.336 100.356L127.254 99.4753C127.805 98.9437 128.514 98.6045 129.27 98.5135L148.415 96.1829C148.549 96.168 148.664 96.2067 148.745 96.2738Z" fill="black"/>
<path d="M124.44 161.68H115.312V202.827H124.44V161.68Z" stroke="#263238" stroke-width="2.9172" stroke-miterlimit="10"/>
<path d="M117.193 265.465C116.941 265.465 115.994 265.465 115.742 265.465C114.111 265.465 112.789 266.734 112.789 268.365C112.789 269.996 114.111 271.265 115.742 271.265C115.994 271.265 116.941 271.265 117.193 271.265C118.824 271.265 120.146 269.996 120.146 268.365C120.146 266.734 118.824 265.465 117.193 265.465Z" fill="#263238"/>
<path opacity="0.1" d="M120.149 268.313C120.149 269.944 118.827 271.266 117.195 271.266C115.564 271.266 114.242 269.944 114.242 268.313C114.242 266.681 115.564 265.359 117.195 265.359C118.827 265.359 120.149 266.681 120.149 268.313Z" fill="white"/>
<path d="M125.17 265.465C124.918 265.465 123.971 265.465 123.719 265.465C122.088 265.465 120.766 266.734 120.766 268.365C120.766 269.996 122.088 271.265 123.719 271.265C123.971 271.265 124.918 271.265 125.17 271.265C126.801 271.265 128.123 269.996 128.123 268.365C128.123 266.734 126.8 265.465 125.17 265.465Z" fill="#263238"/>
<path opacity="0.2" d="M128.125 268.313C128.125 269.944 126.803 271.266 125.172 271.266C123.541 271.266 122.219 269.944 122.219 268.313C122.219 266.681 123.541 265.359 125.172 265.359C126.803 265.359 128.125 266.681 128.125 268.313Z" fill="white"/>
<path d="M151.745 204.459V255.751C151.745 260.855 147.605 265.464 142.501 265.464H116.945V195.141H142.501C146.046 195.141 149.128 197.179 150.679 200.108C151.36 201.398 151.745 202.9 151.745 204.459Z" fill="#407BFF"/>
<path d="M126.432 266.439H115.117C114.039 266.439 113.164 265.564 113.164 264.486V195.781C113.164 194.702 114.039 193.828 115.117 193.828H126.432C127.511 193.828 128.385 194.703 128.385 195.781V264.486C128.385 265.564 127.511 266.439 126.432 266.439Z" fill="#263238"/>
<path opacity="0.2" d="M120.796 266.439H115.117C114.039 266.439 113.164 265.564 113.164 264.486V195.781C113.164 194.702 114.039 193.828 115.117 193.828H120.796C121.875 193.828 122.749 194.703 122.749 195.781V264.486C122.75 265.564 121.875 266.439 120.796 266.439Z" fill="white"/>
<path opacity="0.2" d="M151.745 204.459V255.751C151.745 260.855 147.605 265.464 142.501 265.464H132.236C131.844 264.74 131.445 263.436 131.445 262.559V205.292C131.445 202.45 133.932 200.215 136.774 200.215H150.679C151.36 201.666 151.745 202.9 151.745 204.459Z" fill="black"/>
<path opacity="0.2" d="M119.421 264.598H115.595C114.848 264.598 114.242 263.992 114.242 263.245V197.113C114.242 196.365 114.848 195.76 115.595 195.76H119.421C120.169 195.76 120.774 196.366 120.774 197.113V263.245C120.774 263.992 120.169 264.598 119.421 264.598Z" fill="black"/>
<path d="M124.56 163.04H115.044C114.243 163.04 113.594 162.391 113.594 161.59V160.685C113.594 159.884 114.243 159.234 115.044 159.234H124.56C125.36 159.234 126.01 159.884 126.01 160.685V161.59C126.009 162.391 125.36 163.04 124.56 163.04Z" fill="#263238"/>
<path opacity="0.2" d="M124.56 163.04H115.044C114.243 163.04 113.594 162.391 113.594 161.59V160.685C113.594 159.884 114.243 159.234 115.044 159.234H124.56C125.36 159.234 126.01 159.884 126.01 160.685V161.59C126.009 162.391 125.36 163.04 124.56 163.04Z" fill="white"/>
<path opacity="0.2" d="M124.557 163.04H123.747C122.946 163.04 122.297 162.391 122.297 161.59V160.685C122.297 159.884 122.946 159.234 123.747 159.234H124.557C125.358 159.234 126.008 159.884 126.008 160.685V161.59C126.007 162.391 125.358 163.04 124.557 163.04Z" fill="black"/>
<path d="M92.0274 118.129C84.8074 117.186 77.814 115.852 77.814 115.852L77.2071 116.547C77.2071 116.547 64.6257 119.051 62.6708 121.345C60.716 123.639 61.2893 133.63 61.2893 133.63L62.1042 134.332C62.1042 134.332 61.8634 155.54 64.5877 159.236C67.312 162.932 79.4058 163.396 88.6321 160.869C97.857 158.343 99.2475 119.072 92.0274 118.129Z" fill="#263238"/>
<path opacity="0.4" d="M88.6303 160.868C87.1221 161.281 85.5348 161.615 83.9325 161.861C75.697 163.159 66.8666 162.332 64.5829 159.236C61.8646 155.539 62.1032 134.333 62.1032 134.333L61.2912 133.63C61.2912 133.63 60.7112 123.639 62.669 121.349C64.2929 119.443 73.2464 117.391 76.2338 116.753C76.843 116.622 77.2053 116.55 77.2053 116.55L77.8144 115.854C77.8144 115.854 84.8034 117.187 92.0241 118.13C99.2442 119.072 97.8522 158.345 88.6303 160.868Z" fill="white"/>
<path opacity="0.2" d="M88.63 160.867C87.1217 161.28 85.5344 161.614 83.9322 161.86C78.3062 161.751 73.2535 160.99 72.3685 159.235C70.8028 156.103 72.666 143.336 71.4627 134.332C70.2593 125.328 72.282 118.477 76.2477 116.83L76.2328 116.751C76.8419 116.62 77.2042 116.548 77.2042 116.548L77.8134 115.852C77.8134 115.852 84.8023 117.185 92.0231 118.128C99.2439 119.071 97.8519 158.344 88.63 160.867Z" fill="black"/>
<path d="M116.129 153.961L121.35 156.183L124.376 159.797L120.413 160.869L118.279 159.515C118.279 159.515 114.559 159.395 113.594 156.444L116.129 153.961Z" fill="#CE7A63"/>
<path d="M114.062 157.415C113.148 156.958 109.263 154.414 105.543 151.739C102.23 149.36 99.0543 146.881 98.2066 145.671C97.1553 144.17 95.9736 139.69 95.0744 135.006C93.936 129.17 93.2404 123.029 93.7623 121.992C94.6979 120.129 98.2066 119.07 98.2066 119.07C102.441 121.564 104.448 138.007 105.311 141.117C105.311 141.117 116.795 152.362 117.223 153.653C117.65 154.943 114.062 157.415 114.062 157.415Z" fill="#407BFF"/>
<path opacity="0.4" d="M114.062 157.415C113.148 156.958 109.263 154.414 105.543 151.739C102.23 149.36 99.0543 146.881 98.2066 145.671C97.1553 144.17 95.9736 139.69 95.0744 135.006C93.936 129.17 93.2404 123.029 93.7623 121.992C94.6979 120.129 98.2066 119.07 98.2066 119.07C102.441 121.564 104.448 138.007 105.311 141.117C105.311 141.117 116.795 152.362 117.223 153.653C117.65 154.943 114.062 157.415 114.062 157.415Z" fill="white"/>
<path d="M122.505 271.261C118.092 271.261 117.508 271.193 115.029 271.11C112.905 271.034 112.398 271.299 110.691 271.261C109.266 271.23 109.319 269.866 109.758 268.296C109.978 267.508 110.318 265.841 110.62 264.567L117.086 264.098C117.995 265.834 120.049 268.311 122.536 268.646C124.91 268.964 124.264 271.261 122.505 271.261Z" fill="#407BFF"/>
<path d="M89.864 271.263C85.451 271.263 84.868 271.195 82.3882 271.112C80.2649 271.036 79.7571 271.301 78.0505 271.263C76.625 271.232 76.6779 269.868 77.1178 268.298C77.3378 267.51 77.677 265.843 77.9797 264.569L84.4452 264.1C85.3556 265.836 87.4081 268.313 89.8953 268.648C92.2692 268.966 91.6235 271.263 89.864 271.263Z" fill="#407BFF"/>
<path opacity="0.4" d="M122.505 271.261C118.092 271.261 117.508 271.193 115.029 271.11C112.905 271.034 112.398 271.299 110.691 271.261C109.266 271.23 109.319 269.866 109.758 268.296C109.978 267.508 110.318 265.841 110.62 264.567L117.086 264.098C117.995 265.834 120.049 268.311 122.536 268.646C124.91 268.964 124.264 271.261 122.505 271.261Z" fill="white"/>
<path opacity="0.4" d="M89.864 271.263C85.451 271.263 84.868 271.195 82.3882 271.112C80.2649 271.036 79.7571 271.301 78.0505 271.263C76.625 271.232 76.6779 269.868 77.1178 268.298C77.3378 267.51 77.677 265.843 77.9797 264.569L84.4452 264.1C85.3556 265.836 87.4081 268.313 89.8953 268.648C92.2692 268.966 91.6235 271.263 89.864 271.263Z" fill="white"/>
<path opacity="0.2" d="M105.547 151.738C102.233 149.36 99.058 146.881 98.2102 145.67C97.159 144.169 95.9773 139.689 95.0781 135.006C96.2964 132.541 97.2239 130.895 97.2239 130.895C97.2239 130.895 102.712 138.159 105.547 151.738Z" fill="black"/>
<path d="M76.6927 88.5105C74.4344 85.5417 71.315 84.2966 67.4433 86.3044C63.5716 88.3122 63.5529 92.166 65.5697 96.1182C67.5864 100.07 61.5667 101.408 62.8543 105.36C63.3628 106.919 64.4938 107.332 64.5236 109.966C64.5415 111.537 62.4629 114.24 63.8169 115.272C65.551 116.593 71.2017 113.89 70.1832 111.282C69.1648 108.675 73.1782 109.01 73.3235 106.502C73.4809 103.796 71.5491 102.897 72.2909 100.897C73.1543 98.5652 75.6027 98.6509 76.6942 95.322C77.6277 92.4702 77.4182 89.4648 76.6927 88.5105Z" fill="#407BFF"/>
<path opacity="0.5" d="M76.6927 88.5105C74.4344 85.5417 71.315 84.2966 67.4433 86.3044C63.5716 88.3122 63.5529 92.166 65.5697 96.1182C67.5864 100.07 61.5667 101.408 62.8543 105.36C63.3628 106.919 64.4938 107.332 64.5236 109.966C64.5415 111.537 62.4629 114.24 63.8169 115.272C65.551 116.593 71.2017 113.89 70.1832 111.282C69.1648 108.675 73.1782 109.01 73.3235 106.502C73.4809 103.796 71.5491 102.897 72.2909 100.897C73.1543 98.5652 75.6027 98.6509 76.6942 95.322C77.6277 92.4702 77.4182 89.4648 76.6927 88.5105Z" fill="black"/>
<path d="M100.724 152.254C100.724 152.254 106.434 186.669 107.376 204.423C108.366 223.069 114.344 252.932 117.505 264.6C116.615 265.399 112.435 265.733 110.459 264.746C110.459 264.746 93.2096 230.306 95.453 208.774C81.0308 168.164 84.5193 152.972 84.5193 152.972L100.724 152.254Z" fill="#263238"/>
<path opacity="0.2" d="M91.1842 195.852C89.1324 189.088 87.6539 183.23 86.6094 178.206C87.6465 174.277 89.1182 170.913 91.1185 168.891C91.1185 168.891 93.9972 179.837 91.1842 195.852Z" fill="black"/>
<path d="M94.55 150.449C94.55 150.449 89.8313 186.962 87.1272 204.535C84.2873 222.99 83.9265 252.601 84.6362 264.669C83.6021 265.269 79.8341 265.996 77.7979 265.359C77.7979 265.359 68.1749 228.036 74.5666 206.358C68.746 163.658 77.1694 153.201 77.1694 153.201L94.55 150.449Z" fill="#263238"/>
<path d="M101.042 148.284C101.3 142.94 101.411 139.186 101.429 135.39C101.563 129.792 101.209 128.019 101.057 125.681C100.784 121.49 97.5001 116.757 93.2787 116.317C92.1089 116.195 90.8862 116.089 89.7075 116.023C86.1504 115.822 82.8818 116.062 78.8968 116.392C77.8717 116.477 76.8741 116.59 75.9339 116.718C72.4164 117.197 70.3206 120.632 71.4315 124.097C74.8491 134.759 76.3582 141.689 76.8525 147.228C76.2456 148.925 73.0434 158.098 74.3533 159.139C75.7982 160.286 99.8688 161.146 101.733 159.139C103.179 157.58 101.753 151.105 101.042 148.284Z" fill="#407BFF"/>
<path opacity="0.4" d="M101.736 159.141C99.8651 161.142 75.7953 160.286 74.3527 159.141C73.0405 158.097 76.2449 148.926 76.854 147.229C76.6147 144.583 76.151 141.61 75.3458 138.072C74.7806 135.557 74.0477 132.744 73.1053 129.554C72.6051 127.85 72.0466 126.03 71.4308 124.095C70.3214 120.629 72.4172 117.193 75.9333 116.714C76.8757 116.591 77.8687 116.475 78.8984 116.388C82.8782 116.061 86.1482 115.822 89.7083 116.018C90.8826 116.083 92.1075 116.192 93.2751 116.315C97.5017 116.757 100.786 121.492 101.054 125.682C101.206 128.016 101.562 129.793 101.432 135.389C101.41 139.181 101.301 142.936 101.04 148.279C101.751 151.1 103.179 157.582 101.736 159.141Z" fill="white"/>
<path d="M80.3609 131.963C80.3609 131.963 78.7117 140.312 75.0547 145.674L75.8278 146.958C75.8278 146.958 79.5721 142.305 81.7953 131.963H80.3609Z" fill="#263238"/>
<path opacity="0.2" d="M80.3609 131.963C80.3609 131.963 78.7117 140.312 75.0547 145.674L75.8278 146.958C75.8278 146.958 79.5721 142.305 81.7953 131.963H80.3609Z" fill="white"/>
<path d="M73.4766 117.264C73.4766 117.264 80.455 119.787 79.67 132.112C79.6185 132.922 80.2567 133.612 81.0686 133.612C81.7165 133.612 82.2839 133.171 82.4338 132.54C83.1957 129.334 84.7741 119.8 77.812 115.852C77.812 115.852 74.1312 116.326 73.4766 117.264Z" fill="#263238"/>
<path d="M100.008 131.963C100.008 131.963 100.492 137.93 101.254 143.3L101.776 142.305C101.776 142.305 101.455 137.245 101.107 131.963H100.008Z" fill="#263238"/>
<path opacity="0.2" d="M100.008 131.963C100.008 131.963 100.492 137.93 101.254 143.3L101.776 142.305C101.776 142.305 101.455 137.245 101.107 131.963H100.008Z" fill="white"/>
<path d="M92.9766 116.285C92.9766 116.285 98.4594 119.966 99.5808 132.168C99.6263 132.66 100.033 133.043 100.527 133.043C101.054 133.043 101.479 132.618 101.478 132.091C101.475 129.583 101.089 122.648 97.2173 117.622C97.2173 117.622 94.1874 115.666 92.9766 116.285Z" fill="#263238"/>
<g opacity="0.2">
<path d="M94.0642 159.604C94.0471 159.604 94.0292 159.602 94.0121 159.597C93.9159 159.568 93.8614 159.467 93.8905 159.371C95.0946 155.353 93.0592 149.162 93.0383 149.099C93.0301 149.074 93.0272 149.047 93.0309 149.021C93.0443 148.906 94.3729 137.497 93.0316 129.147C92.0236 122.872 89.7884 119.99 89.7661 119.962C89.7034 119.883 89.7169 119.769 89.7951 119.707C89.8734 119.646 89.9875 119.657 90.0494 119.736C90.1433 119.855 92.3644 122.71 93.3895 129.09C94.6987 137.24 93.4812 148.268 93.3955 149.023C93.5856 149.605 95.4383 155.471 94.238 159.475C94.2141 159.553 94.1425 159.604 94.0642 159.604Z" fill="black"/>
</g>
<path d="M78.4241 112.316C78.4241 112.316 85.8812 114.324 90.8288 112.962C95.7763 111.6 93.9117 119.702 89.3227 119.559C84.7338 119.415 75.6998 114.539 78.4241 112.316Z" fill="#407BFF"/>
<path d="M79.2344 104.191C80.2946 107.638 81.6671 113.972 79.4856 116.37C79.4856 116.37 82.7639 115.763 89.9064 119.85C91.8329 116.876 90.2963 116.002 90.2963 116.002C86.3165 115.21 86.104 112.337 86.4857 109.618L79.2344 104.191Z" fill="#CE7A63"/>
<path opacity="0.2" d="M82.1912 106.402L86.4834 109.611C86.391 110.255 86.3351 110.906 86.3589 111.537C84.8536 111.374 82.6415 109.821 82.3157 108.279C82.1524 107.51 82.104 106.766 82.1912 106.402Z" fill="black"/>
<path d="M76.0262 97.3112C77.2735 102.892 77.6828 105.274 80.9797 107.859C85.9392 111.746 92.4897 109.377 92.9266 103.628C93.3203 98.4549 91.2148 90.1978 85.3636 88.5411C79.5997 86.9083 74.7796 91.7306 76.0262 97.3112Z" fill="#CE7A63"/>
<path d="M83.8292 85.7705C87.9783 86.2827 93.5812 90.8537 88.1647 91.3338C88.0074 93.0382 84.8879 92.7966 82.6945 91.7119C82.9144 92.9883 80.6091 95.2921 77.8282 94.299C79.3939 95.3263 79.1672 99.6081 77.1617 99.6961C75.1561 99.7833 70.8944 100.557 72.1373 93.5966C73.3794 86.6346 79.3954 85.2232 83.8292 85.7705Z" fill="#407BFF"/>
<path opacity="0.5" d="M83.8292 85.7705C87.9783 86.2827 93.5812 90.8537 88.1647 91.3338C88.0074 93.0382 84.8879 92.7966 82.6945 91.7119C82.9144 92.9883 80.6091 95.2921 77.8282 94.299C79.3939 95.3263 79.1672 99.6081 77.1617 99.6961C75.1561 99.7833 70.8944 100.557 72.1373 93.5966C73.3794 86.6346 79.3954 85.2232 83.8292 85.7705Z" fill="black"/>
<path d="M83.2318 97.9997C83.3161 98.4724 83.6307 98.8295 83.9341 98.7967C84.2376 98.7639 84.415 98.3538 84.3308 97.8811C84.2465 97.4084 83.9319 97.0513 83.6285 97.0841C83.3258 97.1169 83.1476 97.527 83.2318 97.9997Z" fill="#263238"/>
<path d="M89.1225 97.1794C89.2068 97.652 89.5214 98.0092 89.8248 97.9764C90.1283 97.9436 90.3057 97.5335 90.2215 97.0608C90.1372 96.5881 89.8226 96.231 89.5192 96.2638C89.2157 96.2966 89.0383 96.7059 89.1225 97.1794Z" fill="#263238"/>
<path d="M89.3906 96.3055L90.4478 95.8574C90.4478 95.8574 90.0333 96.8065 89.3906 96.3055Z" fill="#263238"/>
<path d="M87.5 98.4141C87.5 98.4141 88.6512 100.364 89.6942 101.253C89.185 101.902 88.095 101.749 88.095 101.749L87.5 98.4141Z" fill="#BA4D3C"/>
<path d="M85.7355 103.786C85.9838 103.803 86.2477 103.8 86.5265 103.77C86.6018 103.762 86.6518 103.693 86.6376 103.616C86.6242 103.54 86.5541 103.484 86.4766 103.493C84.4404 103.714 83.2282 102.366 83.2162 102.353C83.164 102.292 83.0761 102.283 83.0201 102.333C82.9642 102.381 82.962 102.469 83.0142 102.529C83.0611 102.581 84.0363 103.667 85.7355 103.786Z" fill="#263238"/>
<path d="M74.9075 102.135C75.7239 103.207 76.9019 103.794 77.9286 103.915C79.4719 104.097 79.9155 102.539 79.2117 101.107C78.578 99.8175 77.0115 98.1705 75.595 98.6522C74.1985 99.1271 73.9733 100.909 74.9075 102.135Z" fill="#CE7A63"/>
<path d="M81.8259 95.1306C81.8989 95.1291 81.969 95.0985 82.0182 95.0404C82.7839 94.1226 83.8001 94.2784 83.812 94.2807C83.9626 94.3045 84.0991 94.2031 84.1132 94.0503C84.1274 93.8982 84.0148 93.7543 83.862 93.7289C83.8091 93.7207 82.5334 93.5232 81.5828 94.6631C81.4881 94.7765 81.509 94.9532 81.629 95.0575C81.6864 95.1075 81.7573 95.1314 81.8259 95.1306Z" fill="#263238"/>
<path d="M90.984 93.806C91.0526 93.8134 91.1227 93.7956 91.1778 93.7508C91.2919 93.6569 91.3024 93.4817 91.201 93.3594C90.1825 92.1322 88.9151 92.2135 88.8614 92.2172C88.71 92.2291 88.6057 92.3626 88.628 92.5162C88.6504 92.6697 88.7913 92.7846 88.9426 92.7741C88.9919 92.7704 89.9767 92.7219 90.7864 93.6979C90.8394 93.7613 90.9109 93.7978 90.984 93.806Z" fill="#263238"/>
<path d="M83.5 97.1258L84.5572 96.6777C84.5572 96.6777 84.1434 97.6268 83.5 97.1258Z" fill="#263238"/>
<path d="M89.9069 119.85C89.9069 119.85 78.7831 108.803 73.1906 112.674C70.0048 114.88 71.9 117.263 73.4776 117.263C75.0806 117.263 77.2062 116.546 77.2062 116.546C77.2062 116.546 80.9534 119.139 89.9069 119.85Z" fill="#407BFF"/>
<path d="M89.9062 119.848C89.9062 119.848 91.9044 115.397 90.9717 113.604C90.0397 111.812 96.0624 112.027 96.4926 115.612C96.9228 119.198 89.9062 119.848 89.9062 119.848Z" fill="#407BFF"/>
<path opacity="0.2" d="M89.9069 119.85C89.9069 119.85 78.7831 108.803 73.1906 112.674C70.0048 114.88 71.9 117.263 73.4776 117.263C75.0806 117.263 77.2062 116.546 77.2062 116.546C77.2062 116.546 80.9534 119.139 89.9069 119.85Z" fill="white"/>
<path opacity="0.2" d="M89.9062 119.848C89.9062 119.848 91.9044 115.397 90.9717 113.604C90.0397 111.812 96.0624 112.027 96.4926 115.612C96.9228 119.198 89.9062 119.848 89.9062 119.848Z" fill="white"/>
<path d="M95.179 139.371L86.7981 155.806L76.402 151.594L76.4601 151.485L75.6266 150.521L75.0391 150.297L83.8039 133.311C83.8039 133.311 92.9095 137.066 93.8884 137.639C94.8606 138.211 95.179 139.371 95.179 139.371Z" fill="#407BFF"/>
<path opacity="0.4" d="M95.179 139.371L86.7981 155.806L76.402 151.594L76.4601 151.485L75.6266 150.521L75.0391 150.297L83.8039 133.311C83.8039 133.311 92.9095 137.066 93.8884 137.639C93.9391 137.668 93.9898 137.704 94.0331 137.74C94.889 138.327 95.179 139.371 95.179 139.371Z" fill="black"/>
<path opacity="0.2" d="M95.1774 139.373L86.7965 155.809L76.4004 151.596L76.4585 151.487L75.625 150.523L85.8474 154.359L94.0322 137.742C94.8874 138.33 95.1774 139.373 95.1774 139.373Z" fill="black"/>
<path opacity="0.6" d="M86.4275 155.547L76.4585 151.487L75.625 150.523L85.8184 154.453C86.5654 155.097 86.4275 155.547 86.4275 155.547Z" fill="white"/>
<path d="M81.2656 147.268L89.3185 134.885L93.4109 137.354L85.5407 149.648L81.2656 147.268Z" fill="white"/>
<path opacity="0.1" d="M81.2656 147.268L89.3185 134.885L93.4109 137.354L85.5407 149.648L81.2656 147.268Z" fill="black"/>
<path d="M81.3672 147.213L88.5947 134.33L92.8399 136.527L85.7891 149.308L81.3672 147.213Z" fill="white"/>
<path d="M82.2969 146.734L85.4118 137.389L92.3911 139.062L89.5221 148.445L82.2969 146.734Z" fill="#407BFF"/>
<path d="M89.3599 143.231C89.0386 144.32 87.8926 144.985 86.8004 144.717C85.7081 144.449 85.0833 143.35 85.4047 142.262C85.726 141.173 86.8719 140.508 87.9642 140.776C89.0564 141.043 89.6812 142.143 89.3599 143.231Z" stroke="white" stroke-width="0.2431" stroke-miterlimit="10"/>
<path d="M87.9614 140.775L86.7969 144.716" stroke="white" stroke-width="0.2431" stroke-miterlimit="10"/>
<path d="M88.499 143.019C88.1777 144.108 87.418 144.867 86.8014 144.716C86.1855 144.565 85.9462 143.56 86.2683 142.472C86.5896 141.383 87.3494 140.624 87.9659 140.775C88.5818 140.926 88.8204 141.931 88.499 143.019Z" stroke="white" stroke-width="0.2582" stroke-miterlimit="10"/>
<path d="M85.4062 142.262L89.3622 143.232" stroke="white" stroke-width="0.2582" stroke-miterlimit="10"/>
<path d="M91.6166 146.814L90.5527 145.39C90.1524 144.855 89.5179 144.546 88.8499 144.561L85.7267 144.631C84.4779 144.659 83.3208 145.29 82.6207 146.324L82.1875 146.965C83.7912 149.447 87.352 150.948 87.352 150.948L88.3198 151.488C89.1816 151.969 90.2135 151.703 90.6892 150.876L91.7851 148.973C92.1624 148.314 92.096 147.455 91.6166 146.814Z" fill="#CE7A63"/>
<path opacity="0.2" d="M75.342 138.071C74.7768 135.555 74.044 132.742 73.1016 129.552C73.8769 128.965 74.7977 128.935 75.8274 129.806C75.8274 129.806 76.473 134.301 75.342 138.071Z" fill="black"/>
<path d="M73.3694 118.191C71.0246 116.86 60.9244 136.609 62.215 143.334C63.5056 150.06 84.2777 149.078 84.2777 149.078C84.2777 149.078 85.5593 146.255 85.2164 144.501C85.2164 144.501 75.5524 140.612 71.1066 139.672L76.3248 129.841C76.3248 129.841 77.3537 120.452 73.3694 118.191Z" fill="#407BFF"/>
<path opacity="0.4" d="M73.3694 118.191C71.0246 116.86 60.9244 136.609 62.215 143.334C63.5056 150.06 84.2777 149.078 84.2777 149.078C84.2777 149.078 85.5593 146.255 85.2164 144.501C85.2164 144.501 75.5524 140.612 71.1066 139.672L76.3248 129.841C76.3248 129.841 77.3537 120.452 73.3694 118.191Z" fill="white"/>
<path d="M102.248 54.5422C102.248 43.6354 93.4061 34.793 82.4985 34.793C71.5916 34.793 62.75 43.6346 62.75 54.5422C62.75 64.6961 70.4144 73.0561 80.273 74.1632L82.4993 81.6211L84.7248 74.1632C94.5834 73.0568 102.248 64.6961 102.248 54.5422Z" fill="#407BFF"/>
<path opacity="0.8" d="M102.248 54.5422C102.248 43.6354 93.4061 34.793 82.4985 34.793C71.5916 34.793 62.75 43.6346 62.75 54.5422C62.75 64.6961 70.4144 73.0561 80.273 74.1632L82.4993 81.6211L84.7248 74.1632C94.5834 73.0568 102.248 64.6961 102.248 54.5422Z" fill="white"/>
<path d="M90.57 50.2461V61.3789C90.57 62.3548 86.9563 63.1466 82.5038 63.1466C78.043 63.1466 74.4375 62.3555 74.4375 61.3789V50.2461H90.57Z" fill="#407BFF"/>
<path opacity="0.2" d="M90.57 50.2461V54.2296L82.5038 56.9472L74.4375 54.2296V50.2461H90.57Z" fill="black"/>
<path d="M82.4964 45.2969L67.8281 50.2444L82.4964 55.192L97.1653 50.2444L82.4964 45.2969Z" fill="#407BFF"/>
<path d="M91.9485 58.5645V52.0043L82.5 48.8125" stroke="#263238" stroke-width="0.8434" stroke-miterlimit="10" stroke-linecap="round" stroke-linejoin="round"/>
<path d="M91.9468 57.8984C91.6486 57.8984 91.4062 58.1646 91.4062 58.4927V59.8988H92.4866V58.4927C92.4866 58.1639 92.245 57.8984 91.9468 57.8984Z" fill="#263238"/>
</svg>
