<svg width="313" height="256" viewBox="0 0 313 256" fill="none" xmlns="http://www.w3.org/2000/svg">
<path d="M33.8676 199.926C18.5141 181.685 7.97033 158.61 3.06287 136.255C-0.358333 120.671 -0.217513 103.94 5.95729 89.2275C20.7161 54.0603 55.6746 62.9705 81.8798 44.1119C90.6878 37.773 96.7014 28.363 104.2 20.5195C116.272 7.89193 132.254 5.6819 149.092 6.84055C169.654 8.25529 189.353 19.285 201.305 36.0759C209.199 47.1654 213.672 60.2585 219.72 72.4535C225.767 84.6484 234.108 96.6025 246.546 102.132C256.009 106.339 266.787 106.357 276.686 109.399C294.526 114.883 308.675 130.914 311.9 149.296C315.308 168.717 305.363 184.676 294.973 199.926H33.8676Z" fill="#DDF2FE"/>
<path d="M29.5974 156.692C30.3795 159.325 31.4039 161.899 32.6917 164.375L22.5251 174.354C22.5164 174.363 22.5164 174.377 22.5251 174.386L40.5264 192.726C40.5352 192.735 40.5498 192.735 40.5585 192.726L50.7266 182.746C53.1847 184.087 55.7289 185.149 58.3497 185.988L58.2169 200.233C58.2169 200.246 58.2271 200.256 58.2395 200.256L83.9369 200.496C83.9493 200.496 83.9595 200.486 83.9595 200.473L84.0923 186.216C86.7226 185.45 89.3062 184.408 91.7796 183.134L101.754 193.297C101.762 193.305 101.777 193.305 101.786 193.297L120.125 175.295C120.134 175.287 120.134 175.273 120.125 175.263L110.148 165.097C111.479 162.647 112.555 160.083 113.386 157.472L127.633 157.605C127.646 157.605 127.656 157.595 127.656 157.582L127.896 131.886C127.896 131.873 127.886 131.863 127.873 131.863L113.618 131.729C112.847 129.095 111.812 126.522 110.532 124.044L120.696 114.068C120.705 114.059 120.706 114.045 120.697 114.036L102.696 95.6963C102.687 95.6875 102.673 95.6875 102.664 95.6963L92.4946 105.678C90.0424 104.335 87.4916 103.273 84.8737 102.433L85.0065 88.1884C85.0065 88.176 84.9963 88.1658 84.9839 88.1658L59.2872 87.9258C59.2748 87.9258 59.2646 87.936 59.2646 87.9484L59.1318 102.197C56.5001 102.981 53.9252 104.003 51.4496 105.292L41.4706 95.125C41.4618 95.1162 41.4472 95.1162 41.4384 95.125L23.0986 113.126C23.0899 113.134 23.0899 113.149 23.0986 113.158L33.0748 123.321C31.7483 125.774 30.6677 128.329 29.844 130.948L15.5908 130.815C15.5784 130.815 15.5682 130.825 15.5682 130.838L15.3281 156.535C15.3281 156.547 15.3383 156.557 15.3507 156.557L29.5974 156.692ZM65.7225 117.264C80.9053 113.947 95.902 123.566 99.2196 138.748C102.537 153.93 92.9178 168.927 77.7358 172.245C62.5531 175.562 47.5564 165.943 44.2388 150.761C40.9212 135.579 50.5398 120.581 65.7225 117.264Z" fill="white"/>
<path d="M198.453 65.2383V199.925H205.387V164.872H288.887V199.925H294.245V65.2383H198.453ZM205.387 119.743H288.887V155.062H205.387V119.743ZM205.387 74.6132H288.887V109.933H205.387V74.6132Z" fill="#87C5F4"/>
<path d="M273.134 109.891H285.344V74.6155H273.134V109.891Z" fill="#2480EF"/>
<path d="M275.93 102.547C275.93 104.373 277.41 105.854 279.236 105.854C281.063 105.854 282.543 104.373 282.543 102.547C282.543 100.721 281.063 99.2402 279.236 99.2402C277.41 99.2402 275.93 100.721 275.93 102.547Z" fill="white"/>
<path d="M279.234 105.139C280.666 105.139 281.827 103.978 281.827 102.546C281.827 101.114 280.666 99.9531 279.234 99.9531C277.802 99.9531 276.641 101.114 276.641 102.546C276.641 103.978 277.802 105.139 279.234 105.139Z" fill="#DDF2FE"/>
<path d="M275.297 95.8906H283.055V79.1027H275.297V95.8906Z" fill="#72B1EB"/>
<path d="M275.901 94.1055H282.445V93.8326H275.901V94.1055Z" fill="#DDF2FE"/>
<path d="M275.901 91.7188H282.445V91.4459H275.901V91.7188Z" fill="#DDF2FE"/>
<path d="M275.901 89.332H282.445V89.0592H275.901V89.332Z" fill="#DDF2FE"/>
<path d="M275.901 84.5566H282.445V84.2838H275.901V84.5566Z" fill="#DDF2FE"/>
<path d="M275.901 82.1699H282.445V81.897H275.901V82.1699Z" fill="#DDF2FE"/>
<path d="M275.901 86.9434H282.445V86.6705H275.901V86.9434Z" fill="#DDF2FE"/>
<path d="M248.72 109.891H260.93V74.6155H248.72V109.891Z" fill="#ABD5F4"/>
<path d="M251.516 102.547C251.516 104.373 252.996 105.854 254.822 105.854C256.649 105.854 258.129 104.373 258.129 102.547C258.129 100.721 256.649 99.2402 254.822 99.2402C252.996 99.2402 251.516 100.721 251.516 102.547Z" fill="white"/>
<path d="M254.82 105.139C256.252 105.139 257.413 103.978 257.413 102.546C257.413 101.114 256.252 99.9531 254.82 99.9531C253.388 99.9531 252.227 101.114 252.227 102.546C252.227 103.978 253.388 105.139 254.82 105.139Z" fill="#DDF2FE"/>
<path d="M250.883 95.8906H258.641V79.1027H250.883V95.8906Z" fill="white"/>
<path d="M251.487 94.1055H258.031V93.8326H251.487V94.1055Z" fill="#72B1EB"/>
<path d="M251.487 91.7188H258.031V91.4459H251.487V91.7188Z" fill="#72B1EB"/>
<path d="M251.487 89.332H258.031V89.0592H251.487V89.332Z" fill="#72B1EB"/>
<path d="M251.487 84.5566H258.031V84.2838H251.487V84.5566Z" fill="#72B1EB"/>
<path d="M251.487 82.1699H258.031V81.897H251.487V82.1699Z" fill="#72B1EB"/>
<path d="M251.487 86.9453H258.031V86.6724H251.487V86.9453Z" fill="#72B1EB"/>
<path d="M260.923 109.891H273.133V74.6155H260.923V109.891Z" fill="#274F8E"/>
<path d="M263.719 102.547C263.719 104.373 265.199 105.854 267.025 105.854C268.852 105.854 270.332 104.373 270.332 102.547C270.332 100.721 268.852 99.2402 267.025 99.2402C265.199 99.2402 263.719 100.721 263.719 102.547Z" fill="white"/>
<path d="M267.023 105.139C268.455 105.139 269.616 103.978 269.616 102.546C269.616 101.114 268.455 99.9531 267.023 99.9531C265.591 99.9531 264.43 101.114 264.43 102.546C264.43 103.978 265.591 105.139 267.023 105.139Z" fill="#DDF2FE"/>
<path d="M263.086 95.8906H270.844V79.1027H263.086V95.8906Z" fill="#72B1EB"/>
<path d="M263.69 94.1055H270.234V93.8326H263.69V94.1055Z" fill="#DDF2FE"/>
<path d="M263.69 91.7188H270.234V91.4459H263.69V91.7188Z" fill="#DDF2FE"/>
<path d="M263.69 89.332H270.234V89.0592H263.69V89.332Z" fill="#DDF2FE"/>
<path d="M263.69 84.5566H270.234V84.2838H263.69V84.5566Z" fill="#DDF2FE"/>
<path d="M263.69 82.1699H270.234V81.897H263.69V82.1699Z" fill="#DDF2FE"/>
<path d="M263.69 86.9453H270.234V86.6724H263.69V86.9453Z" fill="#DDF2FE"/>
<path d="M262.749 119.766H250.539V155.041H262.749V119.766Z" fill="#2480EF"/>
<path d="M259.949 147.697C259.949 149.524 258.469 151.004 256.643 151.004C254.816 151.004 253.336 149.524 253.336 147.697C253.336 145.871 254.816 144.391 256.643 144.391C258.469 144.39 259.949 145.87 259.949 147.697Z" fill="white"/>
<path d="M256.648 150.292C258.08 150.292 259.241 149.131 259.241 147.699C259.241 146.266 258.08 145.105 256.648 145.105C255.216 145.105 254.055 146.266 254.055 147.699C254.055 149.131 255.216 150.292 256.648 150.292Z" fill="#DDF2FE"/>
<path d="M260.586 124.254H252.828V141.042H260.586V124.254Z" fill="#72B1EB"/>
<path d="M259.982 138.988H253.438V139.261H259.982V138.988Z" fill="#DDF2FE"/>
<path d="M259.982 136.602H253.438V136.874H259.982V136.602Z" fill="#DDF2FE"/>
<path d="M259.982 134.215H253.438V134.488H259.982V134.215Z" fill="#DDF2FE"/>
<path d="M259.982 129.439H253.438V129.712H259.982V129.439Z" fill="#DDF2FE"/>
<path d="M259.982 127.053H253.438V127.326H259.982V127.053Z" fill="#DDF2FE"/>
<path d="M259.982 131.828H253.438V132.101H259.982V131.828Z" fill="#DDF2FE"/>
<path d="M245.592 74.6367H233.383V109.913H245.592V74.6367Z" fill="#2480EF"/>
<path d="M242.793 102.568C242.793 104.395 241.313 105.875 239.486 105.875C237.66 105.875 236.18 104.395 236.18 102.568C236.18 100.742 237.66 99.2617 239.486 99.2617C241.313 99.2617 242.793 100.742 242.793 102.568Z" fill="white"/>
<path d="M239.484 105.163C240.916 105.163 242.077 104.002 242.077 102.57C242.077 101.138 240.916 99.9766 239.484 99.9766C238.052 99.9766 236.891 101.138 236.891 102.57C236.891 104.002 238.052 105.163 239.484 105.163Z" fill="#DDF2FE"/>
<path d="M243.43 79.125H235.672V95.9129H243.43V79.125Z" fill="#72B1EB"/>
<path d="M242.826 93.8594H236.281V94.1322H242.826V93.8594Z" fill="#DDF2FE"/>
<path d="M242.826 91.4727H236.281V91.7455H242.826V91.4727Z" fill="#DDF2FE"/>
<path d="M242.826 89.0859H236.281V89.3588H242.826V89.0859Z" fill="#DDF2FE"/>
<path d="M242.826 84.3105H236.281V84.5834H242.826V84.3105Z" fill="#DDF2FE"/>
<path d="M242.826 81.9238H236.281V82.1967H242.826V81.9238Z" fill="#DDF2FE"/>
<path d="M242.826 86.6992H236.281V86.9721H242.826V86.6992Z" fill="#DDF2FE"/>
<path d="M274.394 119.647L262.641 122.953L271.671 155.054L283.424 151.748L274.394 119.647Z" fill="#ABD5F4"/>
<path d="M278.756 145.443C279.251 147.202 278.226 149.027 276.469 149.522C274.71 150.017 272.885 148.992 272.39 147.235C271.895 145.476 272.92 143.651 274.677 143.156C276.435 142.661 278.261 143.685 278.756 145.443Z" fill="white"/>
<path d="M276.273 148.836C274.896 149.224 273.461 148.42 273.074 147.042C272.686 145.665 273.491 144.231 274.868 143.843C276.245 143.456 277.679 144.26 278.067 145.638C278.454 147.015 277.649 148.449 276.273 148.836Z" fill="#DDF2FE"/>
<path d="M273.319 123.813L265.852 125.914L270.227 141.467L277.695 139.366L273.319 123.813Z" fill="white"/>
<path d="M276.573 137.626L270.273 139.398L270.345 139.651L276.645 137.879L276.573 137.626Z" fill="#72B1EB"/>
<path d="M275.956 135.411L269.656 137.184L269.727 137.436L276.027 135.664L275.956 135.411Z" fill="#72B1EB"/>
<path d="M275.331 133.2L269.031 134.973L269.102 135.225L275.402 133.453L275.331 133.2Z" fill="#72B1EB"/>
<path d="M274.089 128.778L267.789 130.551L267.86 130.804L274.16 129.031L274.089 128.778Z" fill="#72B1EB"/>
<path d="M273.464 126.568L267.164 128.34L267.235 128.593L273.535 126.82L273.464 126.568Z" fill="#72B1EB"/>
<path d="M274.706 130.989L268.406 132.762L268.477 133.015L274.777 131.242L274.706 130.989Z" fill="#72B1EB"/>
<path d="M250.538 119.766H238.328V155.041H250.538V119.766Z" fill="#ABD5F4"/>
<path d="M247.738 147.697C247.738 149.524 246.258 151.004 244.432 151.004C242.605 151.004 241.125 149.524 241.125 147.697C241.125 145.871 242.605 144.391 244.432 144.391C246.257 144.39 247.738 145.87 247.738 147.697Z" fill="white"/>
<path d="M244.437 150.292C245.869 150.292 247.03 149.131 247.03 147.699C247.03 146.266 245.869 145.105 244.437 145.105C243.005 145.105 241.844 146.266 241.844 147.699C241.844 149.131 243.005 150.292 244.437 150.292Z" fill="#DDF2FE"/>
<path d="M248.375 124.254H240.617V141.042H248.375V124.254Z" fill="white"/>
<path d="M247.771 138.988H241.227V139.261H247.771V138.988Z" fill="#72B1EB"/>
<path d="M247.771 136.602H241.227V136.874H247.771V136.602Z" fill="#72B1EB"/>
<path d="M247.771 134.215H241.227V134.488H247.771V134.215Z" fill="#72B1EB"/>
<path d="M247.771 129.439H241.227V129.712H247.771V129.439Z" fill="#72B1EB"/>
<path d="M247.771 127.053H241.227V127.326H247.771V127.053Z" fill="#72B1EB"/>
<path d="M247.771 131.828H241.227V132.101H247.771V131.828Z" fill="#72B1EB"/>
<path d="M179.506 37.7794H110.73L110.053 30.4824C109.338 22.7805 115.002 16.5371 122.704 16.5371H163.589C171.291 16.5371 178.114 22.7805 178.829 30.4824L179.506 37.7794Z" fill="#EAA813"/>
<path d="M140.26 0.785156C134.308 0.785156 129.932 5.61016 130.485 11.561C131.037 17.5125 136.309 22.3368 142.261 22.3368C148.212 22.3368 152.588 17.5125 152.036 11.561C151.484 5.61016 146.211 0.785156 140.26 0.785156ZM141.724 16.5531C138.972 16.5531 136.524 14.3138 136.268 11.561C136.013 8.80883 138.044 6.56962 140.797 6.56962C143.549 6.56962 145.996 8.80883 146.252 11.561C146.507 14.3138 144.476 16.5531 141.724 16.5531Z" fill="#EAA813"/>
<path d="M214.641 199.927H103.228C98.8105 199.927 94.8968 196.346 94.4868 191.929L79.574 31.2735C79.1639 26.8564 82.4129 23.2754 86.8301 23.2754H198.243C202.66 23.2754 206.574 26.8564 206.984 31.2735L221.897 191.929C222.307 196.346 219.058 199.927 214.641 199.927Z" fill="#164767"/>
<path d="M217.328 199.927H105.915C101.498 199.927 97.5843 196.346 97.1743 191.929L82.2615 31.2735C81.8514 26.8564 85.0997 23.2754 89.5176 23.2754H200.93C205.348 23.2754 209.261 26.8564 209.671 31.2735L224.584 191.929C224.994 196.346 221.745 199.927 217.328 199.927Z" fill="#2480EF"/>
<path d="M209.988 180.342H109.618L96.0234 33.8887H196.393L209.988 180.342Z" fill="#9CE5E5"/>
<path d="M115.875 169.094L104.369 45.1386C104.166 42.9556 105.772 41.1855 107.955 41.1855H185.827C188.01 41.1855 189.944 42.9556 190.147 45.1386L201.653 169.094C201.856 171.277 200.25 173.047 198.067 173.047H120.194C118.011 173.047 116.077 171.277 115.875 169.094Z" fill="white"/>
<path d="M183.967 37.7794H115.191L114.514 30.4824C113.799 22.7805 119.463 16.5371 127.165 16.5371H168.05C175.752 16.5371 182.575 22.7805 183.29 30.4824L183.967 37.7794Z" fill="#FFC121"/>
<path d="M144.721 0.785156C138.769 0.785156 134.393 5.61016 134.945 11.561C135.498 17.5125 140.77 22.3368 146.722 22.3368C152.673 22.3368 157.049 17.5125 156.497 11.561C155.945 5.61016 150.673 0.785156 144.721 0.785156ZM146.185 16.5531C143.432 16.5531 140.985 14.3138 140.729 11.561C140.474 8.80883 142.505 6.56962 145.258 6.56962C148.01 6.56962 150.457 8.80883 150.713 11.561C150.968 14.3138 148.937 16.5531 146.185 16.5531Z" fill="#FFC121"/>
<path d="M183.969 37.7787H115.193L114.516 30.4824H183.291L183.969 37.7787Z" fill="#FFDC21"/>
<path d="M180.213 78.8142H117.934C117.212 78.8142 116.573 78.229 116.506 77.5067C116.439 76.7844 116.97 76.1992 117.692 76.1992H179.971C180.693 76.1992 181.332 76.7844 181.399 77.5067C181.466 78.229 180.935 78.8142 180.213 78.8142Z" fill="#33C7CA"/>
<path d="M180.76 84.6775H118.481C117.759 84.6775 117.12 84.0923 117.053 83.37C116.985 82.6477 117.517 82.0625 118.239 82.0625H180.517C181.24 82.0625 181.879 82.6477 181.946 83.37C182.012 84.0923 181.482 84.6775 180.76 84.6775Z" fill="#33C7CA"/>
<path d="M137.519 90.5408H119.02C118.298 90.5408 117.659 89.9556 117.592 89.2333C117.525 88.5109 118.056 87.9258 118.778 87.9258H137.277C137.999 87.9258 138.638 88.5109 138.706 89.2333C138.773 89.9556 138.241 90.5408 137.519 90.5408Z" fill="#33C7CA"/>
<path d="M182.594 104.482H142.887C142.165 104.482 141.526 103.897 141.459 103.175C141.392 102.452 141.923 101.867 142.645 101.867H182.351C183.074 101.867 183.713 102.452 183.78 103.175C183.846 103.897 183.315 104.482 182.594 104.482Z" fill="#33C7CA"/>
<path d="M183.14 110.345H143.434C142.712 110.345 142.073 109.76 142.006 109.038C141.939 108.316 142.47 107.73 143.192 107.73H182.898C183.621 107.73 184.26 108.316 184.327 109.038C184.393 109.76 183.862 110.345 183.14 110.345Z" fill="#33C7CA"/>
<path d="M162.472 116.209H143.973C143.251 116.209 142.612 115.624 142.545 114.901C142.478 114.179 143.009 113.594 143.731 113.594H162.23C162.952 113.594 163.592 114.179 163.659 114.901C163.726 115.624 163.195 116.209 162.472 116.209Z" fill="#33C7CA"/>
<path d="M134.317 100.574H119.907C119.211 100.574 118.699 101.139 118.763 101.835L120.101 116.244C120.166 116.94 120.782 117.504 121.479 117.504H135.888C136.584 117.504 137.096 116.94 137.032 116.244L135.694 101.835C135.63 101.139 135.013 100.574 134.317 100.574ZM135.264 115.704C135.269 115.75 135.235 115.787 135.188 115.787H121.86C121.815 115.787 121.773 115.75 121.769 115.704L120.531 102.376C120.527 102.33 120.561 102.292 120.608 102.292H133.935C133.981 102.292 134.023 102.33 134.027 102.376L135.264 115.704Z" fill="#9CE5E5"/>
<path d="M130.348 113.923L123.359 108.853L125.257 106.082L129.305 109.018L137.441 97.418L140.392 99.6003L130.348 113.923Z" fill="#FFC121"/>
<path d="M184.765 127.865H145.059C144.337 127.865 143.698 127.28 143.631 126.557C143.564 125.835 144.095 125.25 144.817 125.25H184.523C185.246 125.25 185.885 125.835 185.952 126.557C186.018 127.28 185.487 127.865 184.765 127.865Z" fill="#33C7CA"/>
<path d="M185.312 133.728H145.606C144.884 133.728 144.245 133.143 144.178 132.421C144.11 131.698 144.642 131.113 145.364 131.113H185.07C185.792 131.113 186.432 131.698 186.499 132.421C186.566 133.143 186.035 133.728 185.312 133.728Z" fill="#33C7CA"/>
<path d="M164.643 139.592H146.145C145.423 139.592 144.784 139.006 144.717 138.284C144.65 137.562 145.181 136.977 145.903 136.977H164.402C165.124 136.977 165.763 137.562 165.831 138.284C165.896 139.006 165.366 139.592 164.643 139.592Z" fill="#33C7CA"/>
<path d="M136.488 123.955H122.079C121.383 123.955 120.871 124.52 120.935 125.216L122.273 139.624C122.337 140.321 122.954 140.885 123.651 140.885H138.059C138.755 140.885 139.268 140.321 139.203 139.624L137.866 125.216C137.801 124.52 137.185 123.955 136.488 123.955ZM137.436 139.085C137.44 139.131 137.406 139.168 137.359 139.168H124.032C123.986 139.168 123.944 139.131 123.94 139.085L122.703 125.757C122.699 125.711 122.733 125.673 122.779 125.673H136.106C136.152 125.673 136.194 125.711 136.198 125.757L137.436 139.085Z" fill="#9CE5E5"/>
<path d="M132.52 137.306L125.531 132.236L127.429 129.465L131.477 132.401L139.613 120.801L142.564 122.983L132.52 137.306Z" fill="#FFC121"/>
<path d="M186.937 151.248H147.231C146.509 151.248 145.87 150.663 145.803 149.94C145.735 149.218 146.267 148.633 146.988 148.633H186.694C187.417 148.633 188.056 149.218 188.123 149.94C188.191 150.663 187.66 151.248 186.937 151.248Z" fill="#33C7CA"/>
<path d="M187.484 157.111H147.778C147.056 157.111 146.417 156.526 146.349 155.804C146.282 155.081 146.814 154.496 147.536 154.496H187.242C187.964 154.496 188.603 155.081 188.671 155.804C188.737 156.526 188.207 157.111 187.484 157.111Z" fill="#33C7CA"/>
<path d="M166.816 162.974H148.317C147.595 162.974 146.956 162.389 146.889 161.667C146.821 160.945 147.353 160.359 148.075 160.359H166.574C167.296 160.359 167.935 160.945 168.002 161.667C168.069 162.389 167.538 162.974 166.816 162.974Z" fill="#33C7CA"/>
<path d="M138.66 147.338H124.251C123.555 147.338 123.043 147.903 123.107 148.599L124.444 163.007C124.509 163.703 125.126 164.268 125.823 164.268H140.231C140.927 164.268 141.44 163.703 141.375 163.007L140.038 148.599C139.973 147.903 139.356 147.338 138.66 147.338ZM139.607 162.467C139.612 162.513 139.578 162.551 139.532 162.551H126.204C126.158 162.551 126.117 162.513 126.112 162.467L124.875 149.14C124.871 149.093 124.905 149.056 124.951 149.056H138.278C138.324 149.056 138.366 149.093 138.37 149.14L139.607 162.467Z" fill="#9CE5E5"/>
<path d="M134.691 160.688L127.703 155.619L129.601 152.848L133.648 155.784L141.784 144.184L144.735 146.366L134.691 160.688Z" fill="#FFC121"/>
<path d="M114.406 50.5312L115.992 68.0415H119.322L117.736 50.5312H114.406Z" fill="#33C7CA"/>
<path d="M127.426 60.5511C126.987 59.7544 126.369 58.9591 125.589 58.1901L124.073 56.6958C123.587 56.223 123.246 55.8356 123.058 55.5452C122.888 55.2847 122.78 54.9163 122.738 54.45C122.687 53.8889 122.767 53.611 122.842 53.4782C122.873 53.4234 122.955 53.2775 123.323 53.2775C123.568 53.2775 123.719 53.3695 123.824 53.5854C123.927 53.7977 124.067 54.2486 124.153 55.195L124.294 56.7476H127.423L127.291 55.2876C127.148 53.7043 126.799 52.5224 126.226 51.6767C125.622 50.7844 124.59 50.332 123.16 50.332C121.733 50.332 120.732 50.7268 120.185 51.5045C119.654 52.2612 119.461 53.3534 119.596 54.8433C119.678 55.7466 119.925 56.5557 120.331 57.2489C120.726 57.9245 121.258 58.5826 121.915 59.2086L123.266 60.4818C123.838 61.0239 124.271 61.5456 124.551 62.0323C124.823 62.5036 124.989 63.0698 125.048 63.7133C125.12 64.5137 125.059 64.8902 124.995 65.0639C124.969 65.1332 124.916 65.2762 124.532 65.2762C124.24 65.2762 124.06 65.1704 123.934 64.9223C123.818 64.6954 123.659 64.1942 123.56 63.1012L123.376 61.0648H120.179L120.353 62.9815C120.503 64.6414 120.898 65.9336 121.528 66.8186C122.194 67.7562 123.264 68.2326 124.706 68.2326C126.159 68.2326 127.165 67.7934 127.698 66.9251C128.207 66.0963 128.38 64.8829 128.229 63.2157C128.141 62.2592 127.871 61.3647 127.426 60.5511Z" fill="#33C7CA"/>
<path d="M136.566 55.2876C136.423 53.7065 136.002 52.4808 135.317 51.6439C134.605 50.7734 133.529 50.332 132.12 50.332C130.889 50.332 129.941 50.6859 129.304 51.3841C128.538 52.2232 128.231 53.5599 128.394 55.3577L129.086 63.01C129.24 64.7115 129.684 66.0131 130.404 66.8792C131.151 67.7773 132.238 68.2319 133.637 68.2319C135.057 68.2319 136.073 67.7649 136.656 66.8434C137.219 65.9555 137.416 64.6779 137.259 62.9399L136.566 55.2876ZM132.432 62.9691L131.725 55.1636C131.644 54.2647 131.724 53.824 131.806 53.6139C131.866 53.4592 131.968 53.3162 132.306 53.3162C132.594 53.3162 132.766 53.4147 132.882 53.646C133.041 53.9663 133.155 54.5033 133.223 55.2431L133.928 63.0384C134.031 64.173 133.973 64.6991 133.907 64.9384C133.854 65.1295 133.754 65.247 133.423 65.247C133.109 65.247 132.924 65.1405 132.805 64.8902C132.692 64.6553 132.537 64.1292 132.432 62.9691Z" fill="#33C7CA"/>
<path d="M148.986 55.8961C148.878 54.7025 148.707 53.7138 148.479 52.9565C148.234 52.1451 147.8 51.498 147.187 51.0332C146.572 50.5677 145.672 50.332 144.51 50.332C143.319 50.332 142.409 50.6691 141.806 51.3338C141.07 52.1415 140.81 53.6102 141.01 55.8232L141.066 56.4317C141.223 58.1733 141.586 59.4479 142.175 60.3301C142.795 61.2589 143.749 61.7295 145.009 61.7295C145.473 61.7295 145.865 61.6791 146.189 61.5784L146.365 63.5236C146.464 64.6108 146.433 64.8311 146.428 64.8574C146.39 64.9865 146.338 65.1193 146.302 65.2156C146.302 65.2156 146.224 65.2667 145.941 65.2667C145.709 65.2667 145.573 65.1799 145.47 64.9676C145.368 64.7596 145.224 64.2562 145.106 63.0348L145.042 62.3285H141.855L141.976 63.6674C142.127 65.2733 142.53 66.4056 143.208 67.1294C143.892 67.8612 144.897 68.2319 146.195 68.2319C147.525 68.2319 148.486 67.7686 149.052 66.8536C149.595 65.9766 149.77 64.5779 149.589 62.5788L148.986 55.8961ZM145.907 58.4031C145.889 58.6432 145.83 58.8591 145.295 58.8591C145.01 58.8591 144.839 58.7606 144.724 58.5323C144.615 58.3148 144.464 57.8282 144.365 56.7418L144.23 55.2497C144.143 54.2859 144.208 53.8247 144.278 53.6073C144.335 53.4329 144.428 53.3249 144.719 53.3249C144.993 53.3249 145.16 53.4234 145.275 53.6511C145.384 53.8692 145.533 54.3311 145.619 55.2898L145.907 58.4031Z" fill="#33C7CA"/>
<path d="M158.681 55.1067C158.541 53.557 158.101 52.3655 157.373 51.5665C156.628 50.7472 155.529 50.332 154.109 50.332C152.672 50.332 151.632 50.7589 151.017 51.6001C150.425 52.4136 150.196 53.6168 150.337 55.1767L151.061 63.1712C151.208 64.7924 151.648 66.0489 152.367 66.9047C153.111 67.7912 154.22 68.2414 155.659 68.2414C157.117 68.2414 158.16 67.7795 158.761 66.869C159.335 65.9985 159.552 64.7312 159.405 63.1012L158.681 55.1067ZM154.379 63.1493L153.64 54.9929C153.537 53.8444 153.705 53.5796 153.739 53.5402C153.937 53.3067 154.083 53.3067 154.131 53.3067C154.42 53.3067 154.548 53.3249 154.583 53.3315C155.09 53.4636 155.278 54.3523 155.348 55.0717L156.085 63.2194C156.2 64.486 156.059 64.8742 155.993 64.9836C155.875 65.1791 155.703 65.2667 155.438 65.2667C155.157 65.2667 154.952 65.1704 154.793 64.9632C154.686 64.8253 154.493 64.4079 154.379 63.1493Z" fill="#33C7CA"/>
<path d="M168.282 55.1067C168.142 53.557 167.702 52.3655 166.974 51.5665C166.229 50.7472 165.131 50.332 163.71 50.332C162.273 50.332 161.233 50.7589 160.619 51.6001C160.027 52.4136 159.797 53.6168 159.939 55.1767L160.663 63.1712C160.809 64.7924 161.249 66.0489 161.969 66.9047C162.713 67.7912 163.821 68.2414 165.261 68.2414C166.719 68.2414 167.762 67.7795 168.363 66.869C168.937 65.9985 169.153 64.7312 169.006 63.1012L168.282 55.1067ZM163.98 63.1493L163.242 54.9929C163.138 53.8444 163.307 53.5796 163.34 53.5402C163.538 53.3067 163.684 53.3067 163.732 53.3067C164.021 53.3067 164.149 53.3249 164.184 53.3315C164.69 53.4636 164.879 54.3523 164.949 55.0717L165.686 63.2194C165.801 64.486 165.66 64.8742 165.594 64.9836C165.475 65.1791 165.304 65.2667 165.038 65.2667C164.757 65.2667 164.552 65.1704 164.393 64.9632C164.288 64.8253 164.094 64.4079 163.98 63.1493Z" fill="#33C7CA"/>
<path d="M173.918 50.5215H171.305L171.216 50.7878C171.039 51.3146 170.761 51.7246 170.365 52.042C169.97 52.3579 169.535 52.5513 169.076 52.617L168.711 52.6695L168.947 55.2837H169.303C169.728 55.2837 170.157 55.2042 170.581 55.0452C170.725 54.9912 170.859 54.9284 170.982 54.8591L172.175 68.0419H175.504L173.918 50.5215Z" fill="#33C7CA"/>
<path d="M241.294 249.659C266.149 249.659 286.298 247.237 286.298 244.249C286.298 241.262 266.149 238.84 241.294 238.84C216.438 238.84 196.289 241.262 196.289 244.249C196.289 247.237 216.438 249.659 241.294 249.659Z" fill="#DDF2FE"/>
<path d="M223.008 156.143L227.524 159.708C229.261 158.032 240.762 152.072 241.194 147.695C241.351 146.105 241.07 144.399 239.93 143.279C237.567 140.959 234.872 141.49 232.759 143.482C230.457 145.652 223.008 156.143 223.008 156.143Z" fill="#164767"/>
<path d="M232.597 240.68H228.988L228.672 236.908H232.28L232.597 240.68Z" fill="#E7AFA7"/>
<path d="M266.457 240.678H262.849L261.438 236.906H265.046L266.457 240.678Z" fill="#E7AFA7"/>
<path d="M241.297 142.446L248.109 142.358L245.243 134.584L241.425 135.556L241.297 142.446Z" fill="#F79889"/>
<path d="M253.496 173.072L256.44 143.417C256.665 141.954 255.28 140.395 253.801 140.334L236.117 141.778C234.638 141.717 233.434 142.955 233.537 144.432L235.958 173.071H253.496V173.072Z" fill="#164767"/>
<path d="M253.488 173.072L246.738 182.007L233.673 238.13H226.938L235.847 173.072H253.488Z" fill="#1EAFAF"/>
<path d="M239.102 173.072L240.707 180.618C241.074 182.618 242.818 184.07 244.852 184.07L260.051 238.13H266.629L253.489 173.072H239.102Z" fill="#33C7CA"/>
<path d="M246.744 130.272C246.779 130.953 247.359 131.476 248.039 131.441C248.72 131.406 249.243 130.826 249.208 130.145C249.173 129.464 248.593 128.941 247.913 128.976C247.232 129.011 246.709 129.591 246.744 130.272Z" fill="#F79889"/>
<path d="M241.033 123.521C239.873 123.771 239.134 124.417 238.672 125.051C238.179 125.728 237.956 126.565 237.987 127.401L238.134 131.925C238.278 134.75 240.501 137.074 243.185 136.98C245.905 136.885 248.004 134.463 247.858 131.611L247.729 127.439C247.729 127.437 247.728 127.435 247.728 127.434C247.728 127.434 247.445 122.52 241.033 123.521Z" fill="#F79889"/>
<path d="M247.819 130.186C245.856 134.036 244.132 131.6 242.052 131.778C240.329 131.925 239.14 134.333 238.139 130.975C237.99 136.204 240.507 137.074 243.19 136.981C245.911 136.886 248.545 135.923 247.819 130.186Z" fill="#164767"/>
<path d="M228.74 238.969L230.727 239.841L232.572 238.969L234.228 244.374H218.875C218.875 241.671 224.646 241.671 224.646 241.671L228.74 238.969Z" fill="#164767"/>
<path d="M262.286 238.969L264.273 239.841L266.118 238.969L267.775 244.374H252.422C252.422 241.671 258.193 241.671 258.193 241.671L262.286 238.969Z" fill="#164767"/>
<path d="M170.241 131.604C163.886 143.521 168.393 158.333 180.31 164.689C192.226 171.045 207.039 166.537 213.394 154.621C219.75 142.705 215.242 127.892 203.326 121.536C191.41 115.181 176.597 119.688 170.241 131.604ZM207.565 151.511C202.934 160.194 192.102 163.49 183.42 158.86C174.737 154.229 171.441 143.397 176.072 134.714C180.703 126.032 191.535 122.735 200.217 127.367C208.899 131.997 212.196 142.829 207.565 151.511Z" fill="#FFC121"/>
<path d="M210.912 149.422L207.695 155.453L246.708 176.262L249.925 170.231L210.912 149.422Z" fill="#FFC121"/>
<path d="M257.589 178.162C255.813 181.492 251.672 182.752 248.341 180.976L227.031 169.61L233.465 157.547L254.775 168.913C258.106 170.69 259.366 174.831 257.589 178.162Z" fill="#2480EF"/>
<path d="M246.198 175.213C246.926 175.814 247.991 175.733 248.51 175.037L250.555 172.3L252.535 171.319L250.073 169.086L249.15 169.445C248.106 169.852 247.257 170.588 246.736 171.537L245.762 173.315C245.425 173.932 245.607 174.724 246.198 175.213Z" fill="#F79889"/>
<path d="M253.622 172.574L266.055 162.288L260.657 158.051L249.422 168.73L253.622 172.574Z" fill="#164767"/>
<path d="M260.043 159.732C260.439 161.861 262.485 163.265 264.614 162.87C266.743 162.474 268.149 160.428 267.752 158.299C267.357 156.169 265.31 154.765 263.181 155.16C261.052 155.557 259.648 157.602 260.043 159.732Z" fill="#164767"/>
<path d="M260.437 159.016L267.494 157.463C266.329 155.349 260.443 142.43 256.331 140.87C254.836 140.303 253.117 140.128 251.738 140.936C248.882 142.61 248.689 145.35 250.06 147.91C251.553 150.7 260.437 159.016 260.437 159.016Z" fill="#164767"/>
<path d="M212.703 158.023L212.812 158.369C214.011 162.168 218.115 164.225 221.876 162.91L212.703 158.023Z" fill="#164767"/>
<path d="M215.646 157.312C214.687 156.956 213.6 157.17 212.83 157.817C212.561 158.044 212.595 158.468 212.904 158.636L216.496 160.587C216.767 160.734 217.119 160.602 217.202 160.305C217.542 159.075 216.911 157.781 215.646 157.312Z" fill="#F79889"/>
<path d="M213.694 159.064L212.508 158.421C212.366 158.345 212.278 158.195 212.281 158.034L212.297 157.132C212.304 156.751 212.615 156.445 212.996 156.445C213.382 156.445 213.694 156.758 213.694 157.144V159.064Z" fill="#F79889"/>
<path d="M248.214 122.691C248.163 122.655 248.11 122.622 248.054 122.592C247.428 122.26 247.039 122.62 246.428 122.634C245.769 122.649 245.134 122.309 244.615 121.934C243.924 121.434 243.278 120.811 242.45 120.606C241.611 120.398 240.69 120.706 240.106 121.333C239.61 121.866 239.572 122.663 239.107 123.218C238.881 123.488 238.518 123.528 238.231 123.728C237.909 123.954 237.648 124.267 237.493 124.629C237.288 125.11 237.276 125.668 237.448 126.162C237.506 126.327 237.746 127.363 238.002 127.229C238.385 127.028 238.387 126.486 238.608 126.113C238.918 125.59 239.633 125.468 240.232 125.566C240.832 125.664 241.403 125.925 242.01 125.956C242.847 126 243.637 125.606 244.457 125.424C245.275 125.242 246.299 125.367 246.695 126.106C246.928 126.543 246.873 127.073 246.776 127.557C246.66 128.132 246.424 128.831 246.751 129.37C247.34 130.34 248.626 129.983 249.117 129.132C249.379 128.678 249.463 128.144 249.499 127.622C249.579 126.482 249.456 125.328 249.137 124.231C248.965 123.647 248.704 123.036 248.214 122.691Z" fill="#164767"/>
<path d="M70.1297 255.922C94.9851 255.922 115.134 253.5 115.134 250.513C115.134 247.525 94.9851 245.104 70.1297 245.104C45.2743 245.104 25.125 247.525 25.125 250.513C25.125 253.5 45.2743 255.922 70.1297 255.922Z" fill="#DDF2FE"/>
<path d="M67.1896 125.067C65.1401 124.595 62.8935 124.964 61.2782 126.294C60.2742 127.12 59.5263 128.27 58.3786 128.88C57.2229 129.493 55.7746 129.492 54.7356 130.287C53.6901 131.087 53.3223 132.517 53.3712 133.833C53.4201 135.148 53.8112 136.426 53.9826 137.731C54.3744 140.713 52.6423 142.475 50.8606 144.615C49.6706 146.045 48.6666 147.717 48.4681 149.567C48.2697 151.417 49.0387 153.456 50.6723 154.346C51.3144 154.696 52.0499 154.853 52.7809 154.873C54.5671 154.923 56.2678 154.191 57.9963 153.736C59.7248 153.282 61.7269 153.153 63.1431 154.242C63.5517 154.556 63.8902 154.958 64.32 155.244C65.8281 156.25 68.0082 155.444 69.072 153.976C70.1358 152.509 70.3532 150.607 70.4473 148.797C70.5334 147.149 70.513 145.52 70.4021 143.889C70.2912 142.265 70.8537 140.82 71.4316 139.339C71.8898 138.163 72.6267 137.195 73.0966 136.03C74.6726 132.121 72.6778 127.706 69.0282 125.754C68.4511 125.445 67.8294 125.215 67.1896 125.067Z" fill="#164767"/>
<path d="M75.7265 163.464L80.9024 160.332L73.14 145.518C72.2921 143.648 69.9836 142.961 68.2522 144.065C66.5201 145.169 65.8029 148.91 66.9425 151.738C68.0822 154.567 75.7265 163.464 75.7265 163.464Z" fill="#33C7CA"/>
<path d="M66.0407 146.681L61.8906 146.001L62.9398 138.793L67.0907 139.472L66.0407 146.681Z" fill="#F79889"/>
<path d="M68.3499 130.344C68.838 132.039 70.438 133.324 70.3855 134.674L70.2549 135.254C70.2447 135.279 70.2352 135.304 70.2235 135.329L70.241 135.315L69.8456 137.074C69.3451 139.298 67.1358 140.696 64.9111 140.196C62.6865 139.695 61.2886 137.486 61.7891 135.261L62.2341 133.283C63.2206 131.486 66.7221 132.75 68.3499 130.344Z" fill="#F79889"/>
<path d="M60.2113 167.889L55.6424 148.14C55.3928 146.542 56.5894 145.082 58.2048 145.012L69.6044 143.505C71.2206 143.435 72.5383 144.786 72.4281 146.399L74.3412 167.889H60.2113Z" fill="#9CE5E5"/>
<path d="M68.7257 167.889L61.5703 179.422L81.519 244.249H85.6435C85.6435 244.249 76.3773 177.267 74.2505 167.889H68.7257Z" fill="#EAA813"/>
<path d="M68.7293 167.889C67.6553 199.341 57.2413 244.249 57.2413 244.249H53.2875C53.2102 234.553 53.8639 187.964 54.5082 183.854C54.9853 180.809 55.8463 177.822 57.0743 174.995C58.2212 172.354 58.5072 170.196 60.2116 167.889H63.2053H68.7293Z" fill="#FFC121"/>
<path d="M83.2471 247.635H85.8226L85.0551 244.25H81.9688L83.2471 247.635Z" fill="#F79889"/>
<path d="M54.1562 247.635H56.731L56.8988 244.25H53.8125L54.1562 247.635Z" fill="#F79889"/>
<path d="M67.9682 153.85C67.7894 155.797 69.2231 157.52 71.1705 157.699C73.1179 157.878 74.8412 156.444 75.0193 154.497C75.198 152.549 73.7643 150.827 71.817 150.648C69.8703 150.47 68.1469 151.903 67.9682 153.85Z" fill="#9CE5E5"/>
<path d="M69.2731 143.568L68.1327 151.098L61.6719 144.553L69.2731 143.568Z" fill="#F79889"/>
<path d="M63.0883 134.674C63.0671 135.49 62.3886 136.135 61.5729 136.114C60.7571 136.093 60.1122 135.414 60.1333 134.598C60.1545 133.782 60.833 133.138 61.6487 133.159C62.4652 133.18 63.1095 133.858 63.0883 134.674Z" fill="#F79889"/>
<path d="M86.1872 246.26L84.8746 246.835L82.8046 246.26L81.7109 249.831H92.7034C92.7034 248.045 88.8912 248.045 88.8912 248.045L86.1872 246.26Z" fill="#164767"/>
<path d="M57.0934 246.26L55.7808 246.835L53.7109 246.26L52.6172 249.831H63.6097C63.6097 248.045 59.7967 248.045 59.7967 248.045L57.0934 246.26Z" fill="#164767"/>
<path d="M82.8792 156.09L83.0128 156.446C84.4808 160.371 82.413 164.732 78.4453 166.078L82.8792 156.09Z" fill="#33C7CA"/>
<path d="M76.4198 170.704L64.0469 169.568L71.9005 152.395L84.2735 153.53L76.4198 170.704Z" fill="#006CFF"/>
<path d="M80.4555 156.987C80.9261 156.222 81.7929 155.783 82.675 155.814C82.9837 155.825 83.1894 156.137 83.0668 156.42L81.639 159.71C81.531 159.958 81.2165 160.057 80.9991 159.896C80.0987 159.23 79.8346 157.995 80.4555 156.987Z" fill="#F79889"/>
<path d="M82.7536 157.142L83.2264 156.057C83.2826 155.927 83.2622 155.776 83.1732 155.666L82.6748 155.051C82.464 154.791 82.0846 154.748 81.8212 154.954C81.5548 155.163 81.5074 155.548 81.7161 155.814L82.7536 157.142Z" fill="#F79889"/>
<path d="M71.4922 159.601C71.5447 160.434 70.8756 161.136 70.0402 161.124L66.7525 161.075L64.0507 162.134L63.7188 159.206L65.3356 158.552C66.2462 158.041 67.2997 157.845 68.3329 157.994L70.2664 158.273C70.9384 158.37 71.4498 158.924 71.4922 159.601Z" fill="#F79889"/>
<path d="M66.3359 158.132L68.1855 158.582C68.3074 158.655 68.4591 158.653 68.5795 158.579L69.5003 158.014C69.7849 157.838 69.8761 157.466 69.7053 157.179C69.5324 156.888 69.1567 156.792 68.8655 156.965L66.3359 158.132Z" fill="#F79889"/>
<path d="M64.0467 162.404L51.5869 167.877L51.1484 160.542L63.7965 158.91L64.0467 162.404Z" fill="#33C7CA"/>
<path d="M52.9451 165.214L46.9141 163.4L55.1034 147.211C55.906 145.321 58.1977 144.579 59.9554 145.642C61.7138 146.704 62.5193 150.427 61.4474 153.282C60.3749 156.137 52.9451 165.214 52.9451 165.214Z" fill="#33C7CA"/>
<path d="M50.1704 168.177C52.1026 168.177 53.669 166.61 53.669 164.678C53.669 162.746 52.1026 161.18 50.1704 161.18C48.2382 161.18 46.6719 162.746 46.6719 164.678C46.6719 166.61 48.2382 168.177 50.1704 168.177Z" fill="#33C7CA"/>
<path d="M238.922 32.5059L241.388 38.7077L248.048 39.136L242.912 43.397L244.562 49.8636L238.922 46.295L233.282 49.8636L234.933 43.397L229.797 39.136L236.458 38.7077L238.922 32.5059Z" fill="#FFC121"/>
<path d="M262.743 32.5059L265.208 38.7077L271.869 39.136L266.732 43.397L268.383 49.8636L262.743 46.295L257.103 49.8636L258.754 43.397L253.617 39.136L260.278 38.7077L262.743 32.5059Z" fill="#FFC121"/>
<path d="M286.571 32.5059L289.036 38.7077L295.696 39.136L290.56 43.397L292.211 49.8636L286.571 46.295L280.931 49.8636L282.582 43.397L277.445 39.136L284.105 38.7077L286.571 32.5059Z" fill="#FFC121"/>
<path d="M90.4513 110.519H45.2664C44.1917 110.519 43.3125 109.64 43.3125 108.565V69.3602C43.3125 68.2854 44.1917 67.4062 45.2664 67.4062H90.4513C91.5261 67.4062 92.4053 68.2854 92.4053 69.3602V108.565C92.4045 109.64 91.5261 110.519 90.4513 110.519Z" fill="#33C7CA"/>
<path d="M58.0486 102.892H54.0481C53.0937 102.892 52.3203 102.119 52.3203 101.164V86.7375C52.3203 85.7832 53.0937 85.0098 54.0481 85.0098H58.0486C59.0029 85.0098 59.7763 85.7832 59.7763 86.7375V101.164C59.7763 102.119 59.0022 102.892 58.0486 102.892Z" fill="white"/>
<path d="M58.1968 88.0691C58.1968 88.7338 57.6576 89.273 56.9929 89.273C56.3283 89.273 55.7891 88.7338 55.7891 88.0691C55.7891 87.4044 56.3283 86.8652 56.9929 86.8652C57.6576 86.8652 58.1968 87.4037 58.1968 88.0691Z" fill="#9CE5E5"/>
<path d="M84.1272 91.5839C84.1272 90.0604 82.6322 89.5942 82.6322 89.5942C82.6322 89.5942 84.1134 88.7902 84.1134 87.1813C84.1134 85.5725 82.5184 84.3161 80.8169 84.3161H74.6611C73.9709 84.3161 73.4835 83.6368 73.7089 82.9846C74.1679 81.6559 75.0813 79.9026 75.0813 78.6681C75.0813 77.052 74.8603 75.6336 73.5192 74.5567C73.0917 74.213 72.505 74.0189 71.9848 74.1904C71.4515 74.3662 71.0954 74.8857 70.9298 75.4227C70.7642 75.9597 70.7496 76.5303 70.6679 77.0855C70.5212 78.0735 70.144 79.022 69.5902 79.8515C68.9817 80.7628 68.1565 81.2247 67.4013 81.958C66.7374 82.603 66.185 83.4938 65.7867 84.4569C65.2621 85.7272 64.0275 86.559 62.6537 86.559H61.4688V102.012H68.2499H68.908H78.6667C80.0435 102.012 81.5312 101.119 81.5312 99.8038C81.5312 98.4883 80.6309 97.9054 80.6309 97.9054C80.6309 97.9054 82.865 97.3866 82.865 96.0485C82.865 94.7096 81.896 94.1128 81.896 94.1128C81.896 94.1128 84.1272 93.1081 84.1272 91.5839Z" fill="white"/>
<path d="M61.8264 60.9277H9.34456C8.26982 60.9277 7.39062 60.0485 7.39062 58.9738V38.0496C7.39062 36.9749 8.26982 36.0957 9.34456 36.0957H61.8264C62.9012 36.0957 63.7803 36.9749 63.7803 38.0496V58.9738C63.7796 60.0485 62.9004 60.9277 61.8264 60.9277Z" fill="#9CE5E5"/>
<path d="M53.7374 43.9568H25.7059C24.9836 43.9568 24.3984 43.3716 24.3984 42.6493C24.3984 41.927 24.9836 41.3418 25.7059 41.3418H53.7374C54.4597 41.3418 55.0448 41.927 55.0448 42.6493C55.0448 43.3716 54.4589 43.9568 53.7374 43.9568Z" fill="white"/>
<path d="M53.7374 49.8201H25.7059C24.9836 49.8201 24.3984 49.2349 24.3984 48.5126C24.3984 47.7902 24.9836 47.2051 25.7059 47.2051H53.7374C54.4597 47.2051 55.0448 47.7902 55.0448 48.5126C55.0448 49.2349 54.4589 49.8201 53.7374 49.8201Z" fill="white"/>
<path d="M44.2041 55.6833H25.7059C24.9836 55.6833 24.3984 55.0982 24.3984 54.3758C24.3984 53.6535 24.9836 53.0684 25.7059 53.0684H44.2048C44.9271 53.0684 45.5123 53.6535 45.5123 54.3758C45.5116 55.0974 44.9264 55.6833 44.2041 55.6833Z" fill="white"/>
<path d="M19.6111 42.6493C19.6111 43.6117 18.8304 44.3924 17.8681 44.3924C16.9057 44.3924 16.125 43.6117 16.125 42.6493C16.125 41.6869 16.9057 40.9062 17.8681 40.9062C18.8304 40.9062 19.6111 41.6869 19.6111 42.6493Z" fill="white"/>
<path d="M19.6111 48.5126C19.6111 49.4757 18.8304 50.2557 17.8681 50.2557C16.9057 50.2557 16.125 49.475 16.125 48.5126C16.125 47.5502 16.9057 46.7695 17.8681 46.7695C18.8304 46.7688 19.6111 47.5495 19.6111 48.5126Z" fill="white"/>
<path d="M19.6111 54.3759C19.6111 55.339 18.8304 56.119 17.8681 56.119C16.9057 56.119 16.125 55.3383 16.125 54.3759C16.125 53.4135 16.9057 52.6328 17.8681 52.6328C18.8304 52.6328 19.6111 53.4128 19.6111 54.3759Z" fill="white"/>
<path d="M193.155 103.596L189.521 93.1667L179.469 97.7414L194.94 61.5703L208.627 67.4248L193.155 103.596Z" fill="#FFC121"/>
<path d="M219.034 103.596L222.668 93.1667L232.72 97.7414L217.249 61.5703L203.562 67.4248L219.034 103.596Z" fill="#FFC121"/>
<path d="M204.653 36.332L207.702 39.287L211.516 37.4192L213.502 41.1716L217.706 40.5733L218.436 44.7563L222.619 45.4866L222.021 49.69L225.773 51.6768L223.905 55.4905L226.86 58.5396L223.905 61.5887L225.773 65.4017L222.021 67.3885L222.619 71.5926L218.436 72.3222L217.706 76.5059L213.502 75.9068L211.516 79.66L207.702 77.7915L204.653 80.7472L201.604 77.7915L197.791 79.66L195.804 75.9068L191.6 76.5059L190.87 72.3222L186.687 71.5926L187.285 67.3885L183.532 65.4017L185.401 61.5887L182.445 58.5396L185.401 55.4905L183.532 51.6768L187.285 49.69L186.687 45.4866L190.87 44.7563L191.6 40.5733L195.804 41.1716L197.791 37.4192L201.604 39.287L204.653 36.332Z" fill="#164767"/>
<path d="M204.655 73.5223C212.929 73.5223 219.638 66.8143 219.638 58.5395C219.638 50.2647 212.929 43.5566 204.655 43.5566C196.38 43.5566 189.672 50.2647 189.672 58.5395C189.672 66.8143 196.38 73.5223 204.655 73.5223Z" fill="white"/>
<path d="M203.129 66.7919L196.141 61.7225L198.038 58.9514L202.086 61.8874L210.222 50.2871L213.173 52.4701L203.129 66.7919Z" fill="#2480EF"/>
</svg>
