<svg width="388" height="293" viewBox="0 0 388 293" fill="none" xmlns="http://www.w3.org/2000/svg">
<path d="M192.5 208.875C192.5 208.875 196.235 221.113 198.13 223.734C199.67 225.863 221.321 231.419 228.429 233.257L230.846 224.541C230.13 224.175 208.15 215.936 208.15 215.936L204.472 204.129L192.5 208.875Z" fill="#F9B498"/>
<path d="M236.275 226.309L236.547 226.202C237.116 226.435 238.289 226.826 239.632 227.361C239.252 228.52 238.988 229.424 239.122 229.489L239.007 229.732C238.977 229.794 238.976 229.862 238.997 229.922C238.474 231.049 237.776 232.466 237.269 233.69C236.909 234.56 236.889 235.417 236.004 235.62C235.492 235.738 233.291 234.963 232.529 234.63L227.258 232.859C227.941 231.36 230.179 224.485 230.529 224.361L236.275 226.309Z" fill="#F9B498"/>
<path d="M242.321 223.572L240.739 222.614L240.635 222.551L239.054 221.594L226.921 238.804C226.58 239.288 226.72 239.96 227.227 240.266L231.251 242.704C231.758 243.01 232.418 242.824 232.689 242.297L242.321 223.572Z" fill="#4CB7D8"/>
<path d="M242.403 224.136L238.481 221.761C238.27 221.633 238.203 221.358 238.33 221.147L239.483 219.244L244.169 222.082L243.016 223.985C242.889 224.196 242.614 224.264 242.403 224.136Z" fill="#F99247"/>
<path d="M241.347 223.602L238.796 222.057C238.346 221.784 238.201 221.196 238.474 220.746L239.411 219.199L239.566 219.294L238.63 220.84C238.409 221.205 238.526 221.681 238.89 221.901L241.441 223.446L241.347 223.602Z" fill="#21111D"/>
<path d="M254.956 218.079C258.341 213.706 257.541 207.417 253.169 204.032C248.796 200.647 242.507 201.447 239.122 205.819C235.737 210.192 236.537 216.481 240.909 219.866C245.282 223.251 251.571 222.451 254.956 218.079Z" fill="#D4EEF4"/>
<g opacity="0.6">
<path d="M254.023 213.978C253.06 214.215 251.877 212.772 251.382 210.755C250.886 208.738 251.266 206.91 252.229 206.674C253.192 206.437 254.375 207.881 254.87 209.898C255.366 211.915 254.986 213.742 254.023 213.978Z" fill="#F3FFFE"/>
</g>
<path d="M238.776 221.92L226.703 238.979L226.852 239.084L238.924 222.025L238.776 221.92Z" fill="#21111D"/>
<path d="M244.941 203.561L244.875 203.391C244.896 203.383 247.03 202.577 249.099 203.291L249.039 203.464C247.035 202.771 244.961 203.553 244.941 203.561Z" fill="#21111D"/>
<path d="M244.847 204.811L244.781 204.641C244.803 204.633 246.936 203.827 249.005 204.541L248.946 204.714C246.941 204.021 244.868 204.803 244.847 204.811Z" fill="#21111D"/>
<path d="M238.488 206.775C241.352 202.045 247.509 200.533 252.239 203.398C256.969 206.262 258.481 212.419 255.616 217.149C252.751 221.879 246.595 223.391 241.865 220.526C237.135 217.662 235.623 211.505 238.488 206.775ZM241.04 221.888C246.522 225.209 253.658 223.456 256.978 217.974C260.298 212.492 258.546 205.356 253.064 202.036C247.582 198.716 240.446 200.468 237.126 205.95C233.805 211.432 235.558 218.568 241.04 221.888Z" fill="#FEC786"/>
<path d="M240.994 221.969C235.477 218.628 233.707 211.422 237.049 205.906C240.39 200.389 247.595 198.62 253.112 201.961C255.698 203.527 257.556 205.996 258.344 208.914L258.168 208.961C257.392 206.089 255.563 203.658 253.017 202.116C247.587 198.827 240.493 200.57 237.204 206C233.915 211.43 235.658 218.524 241.088 221.813C243.609 223.339 246.583 223.84 249.463 223.223L249.501 223.401C246.575 224.028 243.554 223.52 240.994 221.969Z" fill="#21111D"/>
<path d="M239.611 230.745C239.396 231.399 238.861 231.592 238.752 231.56L235.355 230.56C234.944 230.439 234.723 229.911 234.878 229.346C235.048 228.727 235.57 228.324 236.014 228.454L239.396 229.45C239.396 229.45 239.825 230.091 239.611 230.745Z" fill="#F9B498"/>
<path d="M239.021 232.625C238.815 233.281 238.329 233.7 238.219 233.67L234.527 232.688C234.112 232.578 233.882 232.058 234.029 231.491C234.19 230.87 234.708 230.456 235.155 230.575L238.941 231.582C238.941 231.582 239.227 231.968 239.021 232.625Z" fill="#F9B498"/>
<path d="M238.991 231.819C239.063 231.819 239.137 231.754 239.168 231.659C239.203 231.55 239.167 231.443 239.087 231.42L235.422 230.361C235.078 230.259 234.906 229.826 235.03 229.374C235.096 229.132 235.23 228.923 235.407 228.784C235.583 228.646 235.777 228.598 235.952 228.65L239.3 229.635C239.38 229.658 239.474 229.589 239.51 229.481C239.545 229.372 239.509 229.264 239.429 229.241L236.081 228.255C235.829 228.181 235.538 228.253 235.283 228.452C235.025 228.654 234.829 228.961 234.732 229.314C234.55 229.976 234.797 230.609 235.294 230.755L238.958 231.815C238.969 231.818 238.98 231.819 238.991 231.819Z" fill="#F07162"/>
<path d="M240.119 228.399C239.924 229.058 239.422 229.469 239.312 229.438L235.636 228.423C235.231 228.311 234.997 227.81 235.132 227.252C235.287 226.613 235.817 226.185 236.271 226.311L239.701 227.259C240.082 227.364 240.232 228.016 240.119 228.399Z" fill="#F9B498"/>
<path d="M239.288 229.619C239.36 229.618 239.434 229.552 239.464 229.457C239.498 229.348 239.461 229.242 239.38 229.22L235.696 228.221C235.35 228.126 235.173 227.697 235.293 227.244C235.358 227.002 235.489 226.79 235.665 226.65C235.841 226.509 236.034 226.458 236.211 226.507L239.576 227.436C239.657 227.457 239.75 227.388 239.785 227.279C239.819 227.17 239.782 227.063 239.701 227.041L236.336 226.111C236.082 226.041 235.791 226.117 235.537 226.321C235.281 226.527 235.087 226.835 234.993 227.189C234.817 227.852 235.071 228.479 235.571 228.617L239.255 229.616C239.266 229.619 239.277 229.62 239.288 229.619Z" fill="#F07162"/>
<path d="M238.107 233.733C238.18 233.733 238.256 233.665 238.286 233.567C238.318 233.458 238.279 233.353 238.198 233.333L234.579 232.442C234.23 232.35 234.066 231.97 234.183 231.52C234.246 231.277 234.377 231.065 234.552 230.923C234.727 230.781 234.92 230.728 235.098 230.775L238.884 231.783C238.964 231.805 239.058 231.733 239.092 231.624C239.126 231.515 239.088 231.408 239.007 231.387L235.221 230.379C234.967 230.311 234.676 230.39 234.423 230.596C234.167 230.803 233.975 231.113 233.883 231.468C233.711 232.128 233.953 232.705 234.458 232.839L238.079 233.73C238.088 233.732 238.097 233.733 238.107 233.733Z" fill="#F07162"/>
<path d="M231.865 226.498C231.461 227.089 231.306 228.355 231.403 228.424L234.792 230.137C235.148 230.391 235.707 230.251 236.069 229.775C236.484 229.23 236.481 228.521 236.081 228.237L233.062 226.087C232.726 225.848 232.1 226.155 231.865 226.498Z" fill="#F9B498"/>
<path d="M231.078 228.546C231.032 228.487 231.037 228.384 231.094 228.297C231.16 228.197 231.27 228.158 231.341 228.209L234.904 229.962C235.209 230.179 235.672 230.04 235.959 229.646C236.113 229.434 236.197 229.189 236.195 228.954C236.193 228.72 236.108 228.53 235.952 228.42L232.989 226.311C232.92 226.259 232.914 226.138 232.98 226.039C233.045 225.939 233.156 225.899 233.227 225.95L236.19 228.059C236.413 228.218 236.543 228.503 236.545 228.841C236.547 229.184 236.425 229.543 236.2 229.852C235.78 230.43 235.107 230.637 234.667 230.323L231.103 228.57C231.093 228.563 231.085 228.555 231.078 228.546Z" fill="#F07162"/>
<path d="M238.022 234.613C237.836 235.226 237.386 235.622 237.282 235.596L233.827 234.735C233.439 234.639 233.219 234.159 233.351 233.63C233.496 233.051 233.976 232.659 234.395 232.763L237.939 233.645C237.939 233.645 238.209 234 238.022 234.613Z" fill="#F9B498"/>
<path d="M237.253 235.644C237.327 235.643 237.403 235.575 237.432 235.478C237.465 235.369 237.426 235.264 237.345 235.243L233.889 234.383C233.569 234.303 233.401 233.916 233.505 233.5C233.56 233.277 233.679 233.082 233.838 232.95C233.998 232.817 234.175 232.767 234.338 232.807L237.882 233.69C237.962 233.71 238.055 233.637 238.089 233.528C238.122 233.418 238.083 233.313 238.001 233.293L234.458 232.41C234.217 232.35 233.942 232.429 233.705 232.625C233.465 232.824 233.287 233.118 233.203 233.452C233.046 234.079 233.295 234.662 233.77 234.779L237.225 235.64C237.234 235.643 237.244 235.644 237.253 235.644Z" fill="#F07162"/>
<path d="M197.83 184.162C197.83 184.162 198.802 192.837 198.446 199.021C198.089 205.205 195.029 247.026 195.029 247.026C195.029 247.026 182.105 248.624 173.917 247.768C165.728 246.912 153.281 241.891 153.281 241.891L157.947 200.896C157.947 200.896 160.257 183.797 162.2 181.453C164.143 179.109 178.555 180.468 178.555 180.468C178.555 180.468 194.212 182.66 197.83 184.162Z" fill="#CEEAF3"/>
<path d="M182.822 162.807L193.349 166.34L192.708 175.251C192.708 175.251 192.616 178.272 189.969 178.46L190.169 182.514C190.243 184.02 189.253 185.387 187.794 185.738C187.081 185.91 186.237 186.013 185.293 185.944C182.3 185.729 180.841 183.353 180.673 182.206C180.505 181.058 181.642 175.716 181.642 175.716L181.742 173.057L182.822 162.807Z" fill="#F9B59D"/>
<path d="M188.895 169.969C187.587 168.743 185.965 170.184 185.896 170.246C185.87 170.27 185.836 170.281 185.804 170.279C185.772 170.276 185.742 170.262 185.72 170.237C185.673 170.186 185.678 170.106 185.729 170.06C185.747 170.043 187.59 168.401 189.066 169.785C189.116 169.832 189.119 169.911 189.072 169.962C189.025 170.013 188.946 170.016 188.895 169.969Z" fill="black"/>
<path d="M192.771 169.572C192.219 169.022 191.086 169.862 191.075 169.87C191.05 169.889 191.02 169.897 190.991 169.895C190.956 169.893 190.922 169.875 190.9 169.845C190.859 169.789 190.87 169.71 190.925 169.669C190.979 169.628 192.242 168.69 192.947 169.394C192.997 169.442 192.997 169.522 192.948 169.571C192.9 169.621 192.82 169.621 192.771 169.572Z" fill="black"/>
<path d="M187.54 170.915C187.555 170.707 187.735 170.55 187.941 170.565C188.148 170.58 188.303 170.761 188.288 170.969C188.273 171.177 188.094 171.333 187.887 171.319C187.681 171.303 187.525 171.123 187.54 170.915Z" fill="black"/>
<path d="M191.751 170.915C191.766 170.707 191.946 170.55 192.152 170.565C192.359 170.58 192.514 170.761 192.499 170.969C192.484 171.177 192.305 171.333 192.098 171.319C191.891 171.303 191.736 171.123 191.751 170.915Z" fill="black"/>
<path d="M184.715 166.694L182.759 164.241C182.759 164.241 182.598 163.771 182.417 163.067C182.236 162.362 184.421 160.772 186.239 159.894C188.057 159.015 189.021 161.092 190.567 160.531C193.399 159.502 195.53 161.135 195.947 161.891C196.792 163.425 198.735 165.062 195.282 167.757C191.828 170.451 184.715 166.694 184.715 166.694Z" fill="black"/>
<path d="M182.363 175.834C178.422 175.971 179.386 170.406 179.418 169.572C179.45 168.739 178.474 167.2 179.479 164.469C180.483 161.738 183.353 162.085 183.353 162.085L182.99 162.866L184.086 166.651L182.363 175.834Z" fill="black"/>
<path d="M180.717 170.295C180.807 169.047 181.885 168.108 183.124 168.197C184.364 168.287 185.297 169.37 185.207 170.618C185.117 171.866 184.039 172.805 182.799 172.715C181.559 172.626 180.627 171.542 180.717 170.295Z" fill="#F9B59D"/>
<path d="M183.059 169.589C182.635 169.312 182.073 169.451 182.068 169.452C182.034 169.461 182 169.44 181.992 169.407C181.983 169.373 182.004 169.339 182.037 169.33C182.062 169.324 182.656 169.176 183.127 169.482C183.399 169.659 183.571 169.95 183.64 170.347L183.679 170.569L183.531 170.399C183.51 170.375 183.014 169.814 182.355 170.162C181.99 170.355 181.93 170.751 181.99 171.031C182.053 171.322 182.278 171.67 182.706 171.701C182.711 171.701 182.715 171.701 182.719 171.702C182.753 171.704 182.779 171.734 182.777 171.768C182.775 171.803 182.746 171.829 182.711 171.827C182.707 171.827 182.702 171.827 182.698 171.827C182.231 171.793 181.945 171.418 181.868 171.058C181.777 170.632 181.945 170.237 182.297 170.051C182.816 169.777 183.253 170.008 183.473 170.178C183.394 169.914 183.256 169.717 183.059 169.589Z" fill="#F07162"/>
<path d="M184.079 175.465C185.849 178.989 189.966 178.461 189.966 178.461L190.114 181.451C183.891 180.519 184.079 175.465 184.079 175.465Z" fill="#F07162"/>
<path d="M190.571 170.096C190.606 170.093 190.636 170.12 190.638 170.155L190.826 173.248L189.445 173.599C189.438 173.601 189.432 173.602 189.425 173.601C189.399 173.599 189.376 173.581 189.369 173.554C189.361 173.52 189.381 173.486 189.414 173.477L190.694 173.151L190.513 170.162C190.511 170.128 190.537 170.098 190.571 170.096Z" fill="#F07162"/>
<path d="M188.367 174.754C188.406 174.749 190.841 174.867 190.841 174.867C190.841 174.867 190.463 175.857 189.558 175.815C188.653 175.774 188.367 174.754 188.367 174.754Z" fill="#FBFDFC"/>
<path d="M197.836 184.164C197.836 184.164 203.168 186.033 204.117 189.459C205.065 192.885 208.485 215.548 208.485 215.548L231.055 223.664L227.255 233.733C227.255 233.733 199.608 225.719 198.53 224.958C197.452 224.196 195.034 220.199 195.034 220.199C195.034 220.199 193.74 200.023 194.026 198.5C194.311 196.978 197.836 184.164 197.836 184.164Z" fill="#CEEAF3"/>
<path d="M179.456 248.337C176.77 248.337 174.12 248.198 171.859 247.824C171.758 247.807 171.689 247.711 171.706 247.609C171.722 247.507 171.819 247.438 171.92 247.456C180.054 248.803 193.308 247.072 194.861 246.86C195.045 244.31 197.466 210.761 197.901 204.545C198.351 198.123 198.075 187.532 198.072 187.426C198.069 187.323 198.151 187.237 198.254 187.234C198.355 187.232 198.443 187.313 198.445 187.416C198.448 187.522 198.724 198.131 198.274 204.57C197.824 211.001 195.248 246.678 195.222 247.038L195.211 247.188L195.062 247.21C194.956 247.225 187.064 248.337 179.456 248.337Z" fill="black"/>
<path d="M204.17 219.619C203.849 219.102 204.846 218.662 206.108 217.341C207.244 216.337 208.373 214.833 208.477 215.931C208.149 216.232 204.496 220.19 204.17 219.619Z" fill="#CEEAF3"/>
<path d="M180.447 180.695L180.305 182.801C180.305 182.801 180.947 184.835 181.036 184.942C181.126 185.049 182.499 186.013 182.732 186.156C182.963 186.298 185.069 186.709 185.301 186.816C185.533 186.923 187.478 186.78 187.674 186.691C187.871 186.602 188.781 186.388 189.048 186.102C189.316 185.817 189.941 184.496 190.03 184.264C190.119 184.032 190.405 182.765 190.333 182.658C190.262 182.551 189.263 181.927 188.888 181.927C188.513 181.927 186.3 181.962 185.783 181.712C185.265 181.463 180.447 180.695 180.447 180.695Z" fill="#CEEAF3"/>
<path d="M183.987 233.322L183.359 233.183C184.601 227.58 187.295 184.574 187.322 184.141L187.963 184.181C187.853 185.954 185.238 227.67 183.987 233.322Z" fill="#CEEAF3"/>
<path d="M186.664 182.176C187.086 183.318 187.706 184.255 188.275 185.216C197.692 201.12 225.422 193.941 213.716 214.583C212.932 210.96 214.128 206.095 211.214 202.972C210.805 202.532 210.312 202.18 209.769 201.923C200.977 197.758 187.303 196.258 186.664 182.176Z" fill="#33192C"/>
<path d="M185.938 184.042L187.111 185.22L188.227 185.148L189.195 183.29L187.966 181.848L186.362 181.867L185.938 184.042Z" fill="#49263E"/>
<path d="M187.289 181.235L189.944 179.705L190.964 182.488L188.8 184.613L187.225 182.392L185.807 184.51L180.016 180.681L181.181 178.051L187.289 181.235Z" fill="#9EBEE5"/>
<path d="M146.002 291.056H153.38C153.38 291.056 154.197 285.896 153.38 285.896C152.563 285.896 148.704 285.896 148.704 285.896L145.125 289.476L146.002 291.056Z" fill="#F9B498"/>
<path d="M204.082 285.512H203.938V289.055H204.082V285.512Z" fill="black"/>
<path d="M205.753 288.405L205.834 288.283L204.916 287.648L204.836 287.771L205.753 288.405Z" fill="black"/>
<path d="M153.117 282.53L145.328 285.826L143.663 290.69L136.394 289.605L135.15 290.131C134.721 290.313 134.202 290.181 133.939 289.784C133.584 289.249 133.801 288.558 134.347 288.326L152.459 280.665C152.592 280.608 152.747 280.674 152.804 280.81L153.316 282.02C153.401 282.22 153.312 282.448 153.117 282.53Z" fill="#3D1A26"/>
<path d="M153.044 282.551L154.431 285.831C154.431 285.831 153.886 288.197 151.497 288.117C151.497 288.117 147.546 287.197 146.008 290.984L138.122 290.772C138.122 290.772 136.046 290.918 135.133 290.127L153.044 282.551Z" fill="#3AA1C9"/>
<path d="M133.787 288.745C133.652 289.021 133.644 289.345 133.766 289.632C133.994 290.171 134.607 290.429 135.132 290.207L153.04 282.631C153.322 282.512 153.451 282.18 153.329 281.891L152.945 280.984L152.813 281.041L153.196 281.947C153.287 282.161 153.191 282.407 152.982 282.495L135.074 290.071C134.622 290.262 134.095 290.04 133.898 289.576C133.794 289.329 133.8 289.05 133.916 288.812L133.787 288.745Z" fill="black"/>
<path d="M204.451 291.036H152.938V281.499C158.402 278.796 170.676 275.463 171.908 275.133C171.974 275.114 172.009 275.105 172.009 275.105C172.009 275.105 166.244 270.108 160.689 263.371C157.83 259.293 156.723 255.566 156.357 252.763C156.173 250.349 156.447 248.412 156.608 247.533C156.67 247.203 156.716 247.021 156.716 247.021L168.694 244.695L181.325 253.153C181.325 253.153 201.355 277.549 202.808 282.55C204.262 287.55 204.451 291.036 204.451 291.036Z" fill="#33192C"/>
<path d="M174.244 276.672C174.227 276.729 174.176 276.767 174.119 276.767L174.086 276.761C174.053 276.752 173.607 276.611 171.907 275.133C170.408 273.83 167.932 271.484 163.904 267.269C162.64 265.946 161.58 264.642 160.688 263.371C157.828 259.293 156.722 255.566 156.355 252.763C155.946 249.644 156.449 247.669 156.46 247.627C156.476 247.561 156.542 247.522 156.607 247.533C156.61 247.533 156.616 247.533 156.619 247.535C156.689 247.553 156.73 247.625 156.711 247.695C156.687 247.786 154.376 256.92 164.093 267.087C172.525 275.912 174.093 276.49 174.158 276.51C174.224 276.532 174.264 276.604 174.244 276.672Z" fill="#20111D"/>
<path d="M152.935 291.166C152.869 291.166 152.812 291.115 152.805 291.047C152.632 289.2 152.798 281.81 152.805 281.496L152.807 281.413L152.884 281.379C152.991 281.333 163.69 276.702 171.98 274.976L172.108 274.949L172.134 275.077C172.136 275.082 172.256 275.636 172.761 276.573C172.796 276.636 172.772 276.715 172.708 276.75C172.645 276.783 172.566 276.761 172.531 276.697C172.142 275.976 171.974 275.478 171.911 275.257C164.037 276.92 154.041 281.167 153.065 281.586C153.046 282.427 152.904 289.295 153.066 291.022C153.073 291.095 153.02 291.158 152.948 291.165L152.935 291.166Z" fill="#20111D"/>
<path d="M155.268 289.415C155.202 289.415 155.145 289.365 155.138 289.298C155.132 289.245 154.557 283.914 155.308 280.435C155.323 280.365 155.393 280.319 155.464 280.335C155.534 280.35 155.579 280.42 155.564 280.491C154.821 283.928 155.392 289.217 155.398 289.27C155.406 289.341 155.354 289.406 155.282 289.414L155.268 289.415Z" fill="#20111D"/>
<path d="M203.115 288.196L191.39 288.252L191.289 278.121L202.976 276.875L203.115 288.196Z" fill="#F9B498"/>
<path d="M191.278 289.523H201.227L205.26 285.016L212.638 289.523H214.227C214.774 289.523 215.276 289.903 215.38 290.454C215.518 291.197 214.967 291.846 214.269 291.846H191.136C190.966 291.846 190.828 291.704 190.828 291.53V289.984C190.828 289.729 191.03 289.523 191.278 289.523Z" fill="#3D1A26"/>
<path d="M191.367 289.539V285.35C191.367 285.35 193.043 283.036 195.594 284.217C195.594 284.217 199.452 287.025 202.854 283.627L211.301 287.471C211.301 287.471 213.617 288.265 214.244 289.539H191.367Z" fill="#3AA1C9"/>
<path d="M215.062 291.646C215.335 291.408 215.492 291.061 215.492 290.694C215.492 290.005 214.946 289.445 214.275 289.445H191.402C191.042 289.445 190.75 289.746 190.75 290.115V291.273H190.919V290.115C190.919 289.841 191.136 289.619 191.402 289.619H214.275C214.853 289.619 215.323 290.101 215.323 290.694C215.323 291.01 215.188 291.308 214.953 291.513L215.062 291.646Z" fill="black"/>
<path d="M214.194 289.57L214.348 289.496C214.329 289.455 213.865 288.481 212.136 287.724C210.438 286.981 202.965 283.581 202.889 283.547L202.82 283.706C202.896 283.74 210.37 287.141 212.07 287.884C213.733 288.612 214.19 289.561 214.194 289.57Z" fill="black"/>
<path d="M154.165 239.862L195.177 229.541C199.552 228.44 204.011 230.992 205.288 235.32C205.766 236.943 206.072 238.608 206.241 240.008C206.574 242.762 206.307 248.512 206.257 252.183C206.141 260.788 203.815 283.347 203.815 283.347H190.906L189.388 255.058C188.868 255.199 169.382 264.586 156.395 256.063C152.498 253.505 152.84 244.192 153.073 241.066C153.118 240.462 153.567 239.966 154.165 239.862Z" fill="#49263E"/>
<path d="M190.757 283.355L189.234 255.007L191.605 252.207L191.833 252.4L189.539 255.109L191.055 283.339L190.757 283.355Z" fill="#1D1D1B"/>
<path d="M170.848 259.77C170.781 259.77 170.713 259.77 170.647 259.769C162.512 259.655 156.4 257.377 154.297 253.677L154.557 253.529C156.607 257.137 162.623 259.357 170.651 259.47C177.241 259.563 189.214 254.965 189.334 254.919L189.442 255.197C189.322 255.244 177.538 259.77 170.848 259.77Z" fill="#1D1D1B"/>
<path d="M157.276 280.102L112.859 270.886L119.054 241.035L130.033 243.313L129.91 243.905C129.876 244.069 129.981 244.229 130.145 244.263L135.248 245.322C135.412 245.356 135.572 245.25 135.606 245.087L135.728 244.496L146.456 246.722L146.334 247.313C146.299 247.476 146.405 247.637 146.569 247.671L151.671 248.73C151.835 248.764 151.996 248.658 152.029 248.495L152.152 247.903L163.47 250.252L157.276 280.102Z" fill="#F99247"/>
<g opacity="0.5">
<path d="M129.261 243.152L128.359 242.965L122.165 272.814L123.066 273.001L129.261 243.152Z" fill="#21111D"/>
</g>
<g opacity="0.5">
<path d="M154.042 248.289L153.141 248.102L146.946 277.951L147.848 278.138L154.042 248.289Z" fill="#21111D"/>
</g>
<path d="M133.9 244.117L131.961 243.715L132.544 240.663C132.88 239.045 134.469 238.003 136.086 238.338L148.692 240.954C150.309 241.289 151.352 242.878 151.016 244.496L150.381 247.537L148.449 247.136L149.085 244.095C149.2 243.542 148.844 243 148.291 242.885L135.686 240.269C135.133 240.155 134.591 240.511 134.476 241.063L133.9 244.117Z" fill="#280F22"/>
<path d="M135.242 245.321L130.14 244.262C129.976 244.228 129.871 244.068 129.905 243.904L130.028 243.312L135.723 244.495L135.6 245.086C135.567 245.249 135.406 245.355 135.242 245.321Z" fill="#FEC786"/>
<path d="M151.664 248.731L146.562 247.672C146.398 247.637 146.292 247.477 146.327 247.314L146.449 246.723L152.145 247.904L152.022 248.496C151.989 248.659 151.828 248.764 151.664 248.731Z" fill="#FEC786"/>
<path d="M145.584 241.907C145.584 241.907 145.318 244.791 144.484 244.961C143.65 245.131 142.942 244.658 142.942 244.658C142.942 244.658 141.75 245.125 140.577 244.127C140.577 244.127 139.46 244.208 138.592 243.704C138.592 243.704 137.379 243.933 136.953 243.216C136.953 243.216 136.316 241.189 136.267 239.911C136.217 238.634 138.083 232.527 138.083 232.527C138.083 232.527 143.745 233.629 144.743 234.326C144.743 234.326 145.346 235.669 145.715 236.685C146.763 239.576 148.347 240.748 145.584 241.907Z" fill="#F9B498"/>
<path d="M138.382 241.097C138.402 240.995 138.5 240.928 138.603 240.947C138.707 240.966 138.775 241.065 138.756 241.168C138.502 242.556 138.773 243.648 138.776 243.658C138.801 243.76 138.74 243.864 138.638 243.89C138.536 243.916 138.432 243.854 138.406 243.752C138.394 243.705 138.113 242.568 138.381 241.1C138.382 241.099 138.382 241.098 138.382 241.097Z" fill="#F07162"/>
<path d="M143.131 241.915C143.151 241.817 143.243 241.75 143.344 241.763C143.448 241.778 143.521 241.874 143.507 241.978C143.334 243.249 143.129 244.687 143.129 244.687C143.117 244.781 143.018 244.864 142.914 244.849C142.81 244.834 142.737 244.738 142.752 244.634C142.752 244.634 142.957 243.196 143.129 241.927C143.13 241.923 143.13 241.919 143.131 241.915Z" fill="#F07162"/>
<path d="M140.85 241.314C140.869 241.216 140.962 241.148 141.063 241.162C141.167 241.176 141.24 241.272 141.226 241.377C140.97 243.256 140.873 244.226 140.873 244.236C140.859 244.343 140.769 244.417 140.664 244.407C140.559 244.396 140.483 244.303 140.493 244.198C140.494 244.189 140.592 243.212 140.848 241.325C140.849 241.321 140.849 241.317 140.85 241.314Z" fill="#F07162"/>
<path d="M145.302 238.398C145.33 238.324 145.403 238.273 145.486 238.275C145.592 238.279 145.674 238.367 145.671 238.472L145.553 242.204C145.55 242.31 145.461 242.392 145.356 242.389C145.251 242.385 145.169 242.297 145.172 242.192L145.29 238.46C145.291 238.438 145.295 238.417 145.302 238.398Z" fill="#F07162"/>
<path d="M146.024 242.428L145.531 242.371L145.617 240.314L147.379 240.68L146.543 242.521L146.024 242.428Z" fill="#280F22"/>
<path d="M152.726 214.425C153.51 212.715 159.327 208.047 163.709 203.923C166.38 201.409 168.82 198.661 171.001 195.711L171.127 195.539C172.121 193.577 172.896 191.162 173.017 188.308C173.392 179.486 163.682 180.5 163.682 180.5C157.446 183.732 143.095 203.235 139.534 210.551C135.973 217.868 135.922 234.423 135.922 234.423C135.922 234.423 139.957 236.5 146.198 235.332C146.198 235.332 151.541 217.012 152.726 214.425Z" fill="#CEEAF3"/>
<path d="M142.572 235.908C138.591 235.908 135.865 234.631 135.83 234.615C135.726 234.565 135.681 234.439 135.732 234.335C135.781 234.23 135.907 234.186 136.012 234.236C136.055 234.256 140.357 236.265 146.031 235.154C146.561 233.329 151.792 215.366 152.555 214.305C153.333 213.223 163.148 204.156 163.565 203.771C163.651 203.692 163.783 203.697 163.862 203.783C163.941 203.868 163.936 204.001 163.851 204.079C163.749 204.174 153.649 213.502 152.896 214.55C152.278 215.41 147.996 229.887 146.399 235.393L146.363 235.515L146.239 235.54C144.937 235.805 143.704 235.908 142.572 235.908Z" fill="black"/>
<path opacity="0.5" d="M137.922 124.002C137.922 124.002 236.603 282.324 239.292 282.772C241.981 283.22 387.189 282.772 387.189 282.772L166.563 100.477L137.922 124.002Z" fill="url(#paint0_linear_853_32660)"/>
<path opacity="0.3" d="M385.995 282.972C385.995 287.774 357.935 291.734 321.712 292.3C312.309 292.445 302.681 292.363 293.411 292.038C262.357 290.949 239.531 287.303 239.531 282.972C239.531 277.783 272.319 273.574 312.763 273.574C353.208 273.574 385.995 277.783 385.995 282.972Z" fill="#F9F7C2"/>
<path d="M99.2949 64.1315C99.2949 64.1315 89.7607 69.7913 74.7344 67.8605L76.3256 60.927L90.6247 58.4277L99.2949 64.1315Z" fill="#F07162"/>
<path d="M131.947 70.6172L147.627 80.5801L166.565 100.478L152.967 113.419L120.203 78.994L131.947 70.6172Z" fill="#23101F"/>
<path d="M131.934 70.6249L77.1641 13.0742L66.8183 22.9201L121.588 80.4708L131.934 70.6249Z" fill="#381B31"/>
<path d="M77.6515 13.5719L67.3062 23.418L60.4141 16.1763L68.6902 8.29939C69.8334 7.21134 71.6405 7.25604 72.7285 8.39922L77.6515 13.5719Z" fill="#23101F"/>
<path d="M86.7568 23.1487L84.5781 20.8594L74.2324 30.7053L76.4111 32.9946L86.7568 23.1487Z" fill="#D32D45"/>
<path d="M111.672 89.913L120.848 106.066L139.786 125.964L153.383 113.023L120.619 78.5977L111.672 89.913Z" fill="#33182C"/>
<path d="M122.012 80.0703L67.2422 22.5195L56.8964 32.3654L111.667 89.9161L122.012 80.0703Z" fill="#49263E"/>
<path d="M57.3747 32.8652L67.7199 23.0191L60.8277 15.7773L52.5516 23.6542C51.4084 24.7423 51.3637 26.5493 52.4517 27.6925L57.3747 32.8652Z" fill="#33182C"/>
<path d="M76.8271 32.596L74.6484 30.3066L64.3027 40.1525L66.4814 42.4418L76.8271 32.596Z" fill="#E83C4E"/>
<path d="M155.127 114.861C162.41 107.9 167.514 101.485 166.555 100.478C165.597 99.4706 158.937 104.251 151.625 111.181L155.127 114.861Z" fill="#23101F"/>
<path d="M151.626 111.18C151.556 111.246 151.486 111.311 151.416 111.378C144.022 118.415 138.812 124.944 139.78 125.961C140.747 126.978 147.526 122.097 154.92 115.059C154.99 114.993 155.058 114.926 155.128 114.86L151.626 111.18Z" fill="#33182C"/>
<path d="M139.435 126.292L120.457 106.352L111.282 90.1988L85.7031 63.3937L86.3877 62.7402L112.047 89.6299L121.223 105.783L140.121 125.639L139.435 126.292Z" fill="black"/>
<path d="M120.059 60.7829C113.435 63.2548 100.004 66.9211 85.3632 63.2188C85.3632 63.2188 79.3818 64.6558 75.979 67.9442C75.979 67.9442 74.8196 69.1959 69.8123 64.559C64.805 59.9219 49.4375 40.1873 49.4375 40.1873L80.056 9.65039L110.276 15.4555C110.276 15.4555 117.752 16.6543 117.095 23.7379C117.095 23.7379 123.112 28.0575 120.586 34.8413C120.586 34.8413 126.828 37.7592 123.852 47.3463C123.852 47.3463 125.607 48.6058 125.893 51.7326C126.257 55.7022 123.794 59.3895 120.059 60.7829Z" fill="#FE9F73"/>
<path d="M124.658 48.2082C124.481 48.374 124.253 48.4872 123.994 48.5193L103.922 51.001C103.274 51.081 102.683 50.6205 102.603 49.9721C102.523 49.3234 102.984 48.7333 103.632 48.6528L123.703 46.1711C124.352 46.0911 124.942 46.5518 125.023 47.2002C125.071 47.5896 124.924 47.9585 124.658 48.2082Z" fill="#F07162"/>
<path d="M122.482 35.5696C122.306 35.7353 122.077 35.8486 121.818 35.8807L104.977 37.9627C104.328 38.0427 103.738 37.5822 103.657 36.9338C103.577 36.2854 104.038 35.6948 104.686 35.6144L121.528 33.5325C122.176 33.4525 122.767 33.9131 122.847 34.5614C122.895 34.9509 122.748 35.3198 122.482 35.5696Z" fill="#F07162"/>
<path d="M118.668 24.5658C118.492 24.7316 118.263 24.8448 118.004 24.8769L104.344 26.566C103.696 26.646 103.105 26.1853 103.025 25.5369C102.945 24.8884 103.405 24.2979 104.053 24.2176L117.714 22.5286C118.362 22.4486 118.953 22.9091 119.033 23.5575C119.081 23.9472 118.934 24.3161 118.668 24.5658Z" fill="#F07162"/>
<path d="M125.012 76.7461L111.344 89.5762L111.991 90.2662L125.659 77.4361L125.012 76.7461Z" fill="black"/>
<path d="M160.442 92.3799L155.289 86.9648L140.855 100.702L146.008 106.117L160.442 92.3799Z" fill="#C2E0EF"/>
<path d="M146.419 105.716L141.266 100.301L126.831 114.038L131.985 119.453L146.419 105.716Z" fill="#DDF0FC"/>
<path d="M154.966 86.6212L126.516 113.697L127.168 114.383L155.619 87.3067L154.966 86.6212Z" fill="black"/>
<path d="M153.505 98.3341L139.617 111.551L140.27 112.236L154.157 99.0196L153.505 98.3341Z" fill="black"/>
<path d="M133.457 77.9519L133.258 78.877L140.912 80.5292L141.112 79.6041L133.457 77.9519Z" fill="black"/>
<path d="M134.2 81.6921L134 82.6172L141.654 84.2702L141.854 83.3451L134.2 81.6921Z" fill="black"/>
<path d="M85.0724 6.7397L81.6494 9.95225L77.7209 13.6418L71.7746 19.2249L67.7278 23.0223L67.3925 23.3366L67.3078 23.4147L67.3088 23.4174L67.1446 23.5717L57.3182 32.7971L57.3155 32.7981L49.4578 40.1742L49.4448 40.1878L47.1694 42.323L42.2811 37.1157L41.9577 36.7717L41.6335 36.4251L39.4609 34.1127L74.5986 1.127L78.4873 -0.277344L79.5363 0.841799L79.8597 1.18583L80.184 1.53238L85.0724 6.7397Z" fill="#CEEAF3"/>
<path d="M83.2491 -1.99893L79.8572 1.18472L72.4479 8.14025L62.4756 17.5045L62.0556 17.8969L62.0529 17.8977L52.1031 27.242L42.2992 36.4474L41.9552 36.7706L41.6087 37.0949L37.6509 40.8098L0.695312 1.4474V-14.5332H42.8342H65.9503L83.2491 -1.99893Z" fill="#49263E"/>
<path d="M84.3744 -2.40625L80.1817 1.53067L72.7946 8.46704L62.8013 17.8464L62.3823 18.2422L52.3904 27.6187L42.6223 36.7915L42.2784 37.1137L41.9317 37.4387L37.6306 41.4768L0.695312 2.51166V1.13773L37.6726 40.139L41.6312 36.4231L51.8789 26.8024L61.7307 17.556L62.1497 17.1615L72.0462 7.86889L79.5345 0.84009L82.1264 -1.59433L84.3744 -2.40625Z" fill="black"/>
<path d="M47.1458 42.9915L41.6094 37.0941L42.2993 36.4462L47.1871 41.6527L71.4187 18.8477L72.0674 19.5366L47.1458 42.9915Z" fill="black"/>
<path d="M276.203 280.035H324V276.848L358.035 282.623L324 288.39V285.203H276.203V280.035Z" fill="#193747"/>
<defs>
<linearGradient id="paint0_linear_853_32660" x1="262.556" y1="100.477" x2="262.556" y2="282.971" gradientUnits="userSpaceOnUse">
<stop stop-color="#FDFFB8"/>
<stop offset="0.2292" stop-color="#FDFFBC"/>
<stop offset="0.4726" stop-color="#FDFFC9"/>
<stop offset="0.7228" stop-color="#FEFFDE"/>
<stop offset="0.976" stop-color="#FFFFFC"/>
<stop offset="1" stop-color="white"/>
</linearGradient>
</defs>
</svg>
