<svg width="566" height="269" viewBox="0 0 566 269" fill="none" xmlns="http://www.w3.org/2000/svg">
<path d="M266 58.5V7H7V262H266V212.5" stroke="#1D3071" stroke-width="14"/>
<path d="M67.2122 101.152C67.5589 94.2187 69.9855 88.88 74.4922 85.136C79.0682 81.3227 85.0655 79.416 92.4842 79.416C97.5455 79.416 101.879 80.3173 105.484 82.12C109.09 83.8533 111.794 86.2453 113.596 89.296C115.468 92.2773 116.404 95.6747 116.404 99.488C116.404 103.856 115.26 107.565 112.972 110.616C110.754 113.597 108.084 115.608 104.964 116.648V117.064C108.986 118.312 112.106 120.531 114.324 123.72C116.612 126.909 117.756 131 117.756 135.992C117.756 140.152 116.786 143.861 114.844 147.12C112.972 150.379 110.164 152.944 106.42 154.816C102.746 156.619 98.3082 157.52 93.1082 157.52C85.2735 157.52 78.8949 155.544 73.9722 151.592C69.0495 147.64 66.4495 141.816 66.1722 134.12H80.3162C80.4549 137.517 81.5989 140.256 83.7482 142.336C85.9669 144.347 88.9829 145.352 92.7962 145.352C96.3322 145.352 99.0362 144.381 100.908 142.44C102.85 140.429 103.82 137.864 103.82 134.744C103.82 130.584 102.503 127.603 99.8682 125.8C97.2335 123.997 93.1429 123.096 87.5962 123.096H84.5802V111.136H87.5962C97.4415 111.136 102.364 107.843 102.364 101.256C102.364 98.2747 101.463 95.952 99.6602 94.288C97.9269 92.624 95.3962 91.792 92.0682 91.792C88.8095 91.792 86.2789 92.6933 84.4762 94.496C82.7429 96.2293 81.7375 98.448 81.4602 101.152H67.2122ZM127.494 94.6V81.184H152.558V157H137.582V94.6H127.494ZM222.998 126.32H203.342V146.496H189.614V126.32H169.958V113.632H189.614V93.456H203.342V113.632H222.998V126.32Z" fill="#FFC700"/>
<path d="M55.5506 195.878C55.5506 196.662 55.3616 197.397 54.9836 198.083C54.6196 198.769 54.0386 199.322 53.2406 199.742C52.4566 200.162 51.4626 200.372 50.2586 200.372H47.8016V206H44.8616V191.342H50.2586C51.3926 191.342 52.3586 191.538 53.1566 191.93C53.9546 192.322 54.5496 192.861 54.9416 193.547C55.3476 194.233 55.5506 195.01 55.5506 195.878ZM50.1326 197.999C50.9446 197.999 51.5466 197.817 51.9386 197.453C52.3306 197.075 52.5266 196.55 52.5266 195.878C52.5266 194.45 51.7286 193.736 50.1326 193.736H47.8016V197.999H50.1326ZM66.626 203.207H60.788L59.822 206H56.735L62.006 191.321H65.429L70.7 206H67.592L66.626 203.207ZM65.828 200.855L63.707 194.723L61.586 200.855H65.828ZM75.5682 191.342V200.414C75.5682 201.408 75.8272 202.171 76.3452 202.703C76.8632 203.221 77.5912 203.48 78.5292 203.48C79.4812 203.48 80.2162 203.221 80.7342 202.703C81.2522 202.171 81.5112 201.408 81.5112 200.414V191.342H84.4722V200.393C84.4722 201.639 84.1992 202.696 83.6532 203.564C83.1212 204.418 82.4002 205.062 81.4902 205.496C80.5942 205.93 79.5932 206.147 78.4872 206.147C77.3952 206.147 76.4012 205.93 75.5052 205.496C74.6232 205.062 73.9232 204.418 73.4052 203.564C72.8872 202.696 72.6282 201.639 72.6282 200.393V191.342H75.5682ZM90.2528 203.669H95.0828V206H87.3128V191.342H90.2528V203.669ZM117.936 191.342V206H114.996V196.466L111.069 206H108.843L104.895 196.466V206H101.955V191.342H105.294L109.956 202.241L114.618 191.342H117.936ZM123.783 193.715V197.39H128.718V199.721H123.783V203.606H129.348V206H120.843V191.321H129.348V193.715H123.783ZM139.58 206L136.346 200.288H134.96V206H132.02V191.342H137.522C138.656 191.342 139.622 191.545 140.42 191.951C141.218 192.343 141.813 192.882 142.205 193.568C142.611 194.24 142.814 194.996 142.814 195.836C142.814 196.802 142.534 197.677 141.974 198.461C141.414 199.231 140.581 199.763 139.475 200.057L142.982 206H139.58ZM134.96 198.083H137.417C138.215 198.083 138.81 197.894 139.202 197.516C139.594 197.124 139.79 196.585 139.79 195.899C139.79 195.227 139.594 194.709 139.202 194.345C138.81 193.967 138.215 193.778 137.417 193.778H134.96V198.083ZM144.759 198.65C144.759 197.208 145.081 195.92 145.725 194.786C146.383 193.638 147.272 192.749 148.392 192.119C149.526 191.475 150.793 191.153 152.193 191.153C153.831 191.153 155.266 191.573 156.498 192.413C157.73 193.253 158.591 194.415 159.081 195.899H155.7C155.364 195.199 154.888 194.674 154.272 194.324C153.67 193.974 152.97 193.799 152.172 193.799C151.318 193.799 150.555 194.002 149.883 194.408C149.225 194.8 148.707 195.36 148.329 196.088C147.965 196.816 147.783 197.67 147.783 198.65C147.783 199.616 147.965 200.47 148.329 201.212C148.707 201.94 149.225 202.507 149.883 202.913C150.555 203.305 151.318 203.501 152.172 203.501C152.97 203.501 153.67 203.326 154.272 202.976C154.888 202.612 155.364 202.08 155.7 201.38H159.081C158.591 202.878 157.73 204.047 156.498 204.887C155.28 205.713 153.845 206.126 152.193 206.126C150.793 206.126 149.526 205.811 148.392 205.181C147.272 204.537 146.383 203.648 145.725 202.514C145.081 201.38 144.759 200.092 144.759 198.65ZM173.751 191.342V206H170.811V199.763H164.532V206H161.592V191.342H164.532V197.369H170.811V191.342H173.751ZM185.633 203.207H179.795L178.829 206H175.742L181.013 191.321H184.436L189.707 206H186.599L185.633 203.207ZM184.835 200.855L182.714 194.723L180.593 200.855H184.835ZM204.214 206H201.274L194.617 195.941V206H191.677V191.321H194.617L201.274 201.401V191.321H204.214V206ZM217.094 191.342V193.715H213.188V206H210.248V193.715H206.342V191.342H217.094ZM224.301 206.147C223.279 206.147 222.355 205.972 221.529 205.622C220.717 205.272 220.073 204.768 219.597 204.11C219.121 203.452 218.876 202.675 218.862 201.779H222.012C222.054 202.381 222.264 202.857 222.642 203.207C223.034 203.557 223.566 203.732 224.238 203.732C224.924 203.732 225.463 203.571 225.855 203.249C226.247 202.913 226.443 202.479 226.443 201.947C226.443 201.513 226.31 201.156 226.044 200.876C225.778 200.596 225.442 200.379 225.036 200.225C224.644 200.057 224.098 199.875 223.398 199.679C222.446 199.399 221.669 199.126 221.067 198.86C220.479 198.58 219.968 198.167 219.534 197.621C219.114 197.061 218.904 196.319 218.904 195.395C218.904 194.527 219.121 193.771 219.555 193.127C219.989 192.483 220.598 191.993 221.382 191.657C222.166 191.307 223.062 191.132 224.07 191.132C225.582 191.132 226.807 191.503 227.745 192.245C228.697 192.973 229.222 193.995 229.32 195.311H226.086C226.058 194.807 225.841 194.394 225.435 194.072C225.043 193.736 224.518 193.568 223.86 193.568C223.286 193.568 222.824 193.715 222.474 194.009C222.138 194.303 221.97 194.73 221.97 195.29C221.97 195.682 222.096 196.011 222.348 196.277C222.614 196.529 222.936 196.739 223.314 196.907C223.706 197.061 224.252 197.243 224.952 197.453C225.904 197.733 226.681 198.013 227.283 198.293C227.885 198.573 228.403 198.993 228.837 199.553C229.271 200.113 229.488 200.848 229.488 201.758C229.488 202.542 229.285 203.27 228.879 203.942C228.473 204.614 227.878 205.153 227.094 205.559C226.31 205.951 225.379 206.147 224.301 206.147Z" fill="#0A2540"/>
<path d="M264.12 96.92C262.04 96.92 260.29 96.46 258.87 95.54C257.45 94.6 256.45 93.33 255.87 91.73L259.41 89.66C260.23 91.8 261.84 92.87 264.24 92.87C265.4 92.87 266.25 92.66 266.79 92.24C267.33 91.82 267.6 91.29 267.6 90.65C267.6 89.91 267.27 89.34 266.61 88.94C265.95 88.52 264.77 88.07 263.07 87.59C262.13 87.31 261.33 87.03 260.67 86.75C260.03 86.47 259.38 86.1 258.72 85.64C258.08 85.16 257.59 84.56 257.25 83.84C256.91 83.12 256.74 82.28 256.74 81.32C256.74 79.42 257.41 77.91 258.75 76.79C260.11 75.65 261.74 75.08 263.64 75.08C265.34 75.08 266.83 75.5 268.11 76.34C269.41 77.16 270.42 78.31 271.14 79.79L267.66 81.8C266.82 80 265.48 79.1 263.64 79.1C262.78 79.1 262.1 79.3 261.6 79.7C261.12 80.08 260.88 80.58 260.88 81.2C260.88 81.86 261.15 82.4 261.69 82.82C262.25 83.22 263.31 83.66 264.87 84.14C265.51 84.34 265.99 84.5 266.31 84.62C266.65 84.72 267.1 84.89 267.66 85.13C268.24 85.35 268.68 85.56 268.98 85.76C269.3 85.96 269.66 86.23 270.06 86.57C270.46 86.91 270.76 87.26 270.96 87.62C271.18 87.98 271.36 88.42 271.5 88.94C271.66 89.44 271.74 89.99 271.74 90.59C271.74 92.53 271.03 94.07 269.61 95.21C268.21 96.35 266.38 96.92 264.12 96.92ZM283.454 81.5H287.594L282.134 96.5C281.354 98.66 280.314 100.22 279.014 101.18C277.734 102.16 276.134 102.6 274.214 102.5V98.9C275.254 98.92 276.074 98.7 276.674 98.24C277.294 97.78 277.784 97.04 278.144 96.02L271.994 81.5H276.224L280.124 91.58L283.454 81.5ZM292.069 85.76C292.069 86.16 292.329 86.49 292.849 86.75C293.389 86.99 294.039 87.21 294.799 87.41C295.559 87.59 296.319 87.83 297.079 88.13C297.839 88.41 298.479 88.89 298.999 89.57C299.539 90.25 299.809 91.1 299.809 92.12C299.809 93.66 299.229 94.85 298.069 95.69C296.929 96.51 295.499 96.92 293.779 96.92C290.699 96.92 288.599 95.73 287.479 93.35L290.839 91.46C291.279 92.76 292.259 93.41 293.779 93.41C295.159 93.41 295.849 92.98 295.849 92.12C295.849 91.72 295.579 91.4 295.039 91.16C294.519 90.9 293.879 90.67 293.119 90.47C292.359 90.27 291.599 90.02 290.839 89.72C290.079 89.42 289.429 88.95 288.889 88.31C288.369 87.65 288.109 86.83 288.109 85.85C288.109 84.37 288.649 83.21 289.729 82.37C290.829 81.51 292.189 81.08 293.809 81.08C295.029 81.08 296.139 81.36 297.139 81.92C298.139 82.46 298.929 83.24 299.509 84.26L296.209 86.06C295.729 85.04 294.929 84.53 293.809 84.53C293.309 84.53 292.889 84.64 292.549 84.86C292.229 85.08 292.069 85.38 292.069 85.76ZM310.438 85.22H307.048V91.46C307.048 91.98 307.178 92.36 307.438 92.6C307.698 92.84 308.078 92.98 308.578 93.02C309.078 93.04 309.698 93.03 310.438 92.99V96.5C307.778 96.8 305.898 96.55 304.798 95.75C303.718 94.95 303.178 93.52 303.178 91.46V85.22H300.568V81.5H303.178V78.47L307.048 77.3V81.5H310.438V85.22ZM315.968 90.59C316.488 92.47 317.898 93.41 320.198 93.41C321.678 93.41 322.798 92.91 323.558 91.91L326.678 93.71C325.198 95.85 323.018 96.92 320.138 96.92C317.658 96.92 315.668 96.17 314.168 94.67C312.668 93.17 311.918 91.28 311.918 89C311.918 86.74 312.658 84.86 314.138 83.36C315.618 81.84 317.518 81.08 319.838 81.08C322.038 81.08 323.848 81.84 325.268 83.36C326.708 84.88 327.428 86.76 327.428 89C327.428 89.5 327.378 90.03 327.278 90.59H315.968ZM315.908 87.59H323.558C323.338 86.57 322.878 85.81 322.178 85.31C321.498 84.81 320.718 84.56 319.838 84.56C318.798 84.56 317.938 84.83 317.258 85.37C316.578 85.89 316.128 86.63 315.908 87.59ZM346.719 81.08C348.439 81.08 349.809 81.64 350.829 82.76C351.869 83.88 352.389 85.38 352.389 87.26V96.5H348.519V87.53C348.519 86.63 348.299 85.93 347.859 85.43C347.419 84.93 346.799 84.68 345.999 84.68C345.119 84.68 344.429 84.97 343.929 85.55C343.449 86.13 343.209 86.97 343.209 88.07V96.5H339.339V87.53C339.339 86.63 339.119 85.93 338.679 85.43C338.239 84.93 337.619 84.68 336.819 84.68C335.959 84.68 335.269 84.97 334.749 85.55C334.249 86.13 333.999 86.97 333.999 88.07V96.5H330.129V81.5H333.999V83.09C334.899 81.75 336.289 81.08 338.169 81.08C340.009 81.08 341.369 81.8 342.249 83.24C343.249 81.8 344.739 81.08 346.719 81.08ZM367.076 81.5H370.946V96.5H367.076V94.73C365.916 96.19 364.286 96.92 362.186 96.92C360.186 96.92 358.466 96.16 357.026 94.64C355.606 93.1 354.896 91.22 354.896 89C354.896 86.78 355.606 84.91 357.026 83.39C358.466 81.85 360.186 81.08 362.186 81.08C364.286 81.08 365.916 81.81 367.076 83.27V81.5ZM359.936 92.06C360.716 92.84 361.706 93.23 362.906 93.23C364.106 93.23 365.096 92.84 365.876 92.06C366.676 91.26 367.076 90.24 367.076 89C367.076 87.76 366.676 86.75 365.876 85.97C365.096 85.17 364.106 84.77 362.906 84.77C361.706 84.77 360.716 85.17 359.936 85.97C359.156 86.75 358.766 87.76 358.766 89C358.766 90.24 359.156 91.26 359.936 92.06ZM383.036 85.22H379.646V91.46C379.646 91.98 379.776 92.36 380.036 92.6C380.296 92.84 380.676 92.98 381.176 93.02C381.676 93.04 382.296 93.03 383.036 92.99V96.5C380.376 96.8 378.496 96.55 377.396 95.75C376.316 94.95 375.776 93.52 375.776 91.46V85.22H373.166V81.5H375.776V78.47L379.646 77.3V81.5H383.036V85.22ZM387.684 79.7C387.044 79.7 386.484 79.47 386.004 79.01C385.544 78.53 385.314 77.97 385.314 77.33C385.314 76.69 385.544 76.13 386.004 75.65C386.484 75.17 387.044 74.93 387.684 74.93C388.344 74.93 388.904 75.17 389.364 75.65C389.844 76.13 390.084 76.69 390.084 77.33C390.084 77.97 389.844 78.53 389.364 79.01C388.904 79.47 388.344 79.7 387.684 79.7ZM385.764 96.5V81.5H389.634V96.5H385.764ZM400.316 96.92C398.056 96.92 396.166 96.16 394.646 94.64C393.146 93.12 392.396 91.24 392.396 89C392.396 86.76 393.146 84.88 394.646 83.36C396.166 81.84 398.056 81.08 400.316 81.08C401.776 81.08 403.106 81.43 404.306 82.13C405.506 82.83 406.416 83.77 407.036 84.95L403.706 86.9C403.406 86.28 402.946 85.79 402.326 85.43C401.726 85.07 401.046 84.89 400.286 84.89C399.126 84.89 398.166 85.28 397.406 86.06C396.646 86.82 396.266 87.8 396.266 89C396.266 90.18 396.646 91.16 397.406 91.94C398.166 92.7 399.126 93.08 400.286 93.08C401.066 93.08 401.756 92.91 402.356 92.57C402.976 92.21 403.436 91.72 403.736 91.1L407.096 93.02C406.436 94.2 405.506 95.15 404.306 95.87C403.106 96.57 401.776 96.92 400.316 96.92ZM437.55 85.22V86.84C437.55 89.84 436.59 92.27 434.67 94.13C432.75 95.99 430.27 96.92 427.23 96.92C423.99 96.92 421.3 95.87 419.16 93.77C417.04 91.65 415.98 89.07 415.98 86.03C415.98 82.97 417.03 80.38 419.13 78.26C421.25 76.14 423.87 75.08 426.99 75.08C428.95 75.08 430.74 75.53 432.36 76.43C433.98 77.31 435.24 78.49 436.14 79.97L432.6 82.01C432.1 81.15 431.34 80.45 430.32 79.91C429.32 79.37 428.2 79.1 426.96 79.1C424.96 79.1 423.31 79.76 422.01 81.08C420.73 82.38 420.09 84.03 420.09 86.03C420.09 88.01 420.74 89.65 422.04 90.95C423.36 92.23 425.1 92.87 427.26 92.87C428.86 92.87 430.18 92.52 431.22 91.82C432.28 91.1 433 90.12 433.38 88.88H427.02V85.22H437.55ZM444.185 84.08C444.545 83.12 445.135 82.4 445.955 81.92C446.795 81.44 447.725 81.2 448.745 81.2V85.52C447.565 85.38 446.505 85.62 445.565 86.24C444.645 86.86 444.185 87.89 444.185 89.33V96.5H440.315V81.5H444.185V84.08ZM463.232 94.64C461.692 96.16 459.812 96.92 457.592 96.92C455.372 96.92 453.492 96.16 451.952 94.64C450.432 93.1 449.672 91.22 449.672 89C449.672 86.78 450.432 84.91 451.952 83.39C453.492 81.85 455.372 81.08 457.592 81.08C459.812 81.08 461.692 81.85 463.232 83.39C464.772 84.91 465.542 86.78 465.542 89C465.542 91.22 464.772 93.1 463.232 94.64ZM454.682 91.97C455.462 92.75 456.432 93.14 457.592 93.14C458.752 93.14 459.722 92.75 460.502 91.97C461.282 91.19 461.672 90.2 461.672 89C461.672 87.8 461.282 86.81 460.502 86.03C459.722 85.25 458.752 84.86 457.592 84.86C456.432 84.86 455.462 85.25 454.682 86.03C453.922 86.81 453.542 87.8 453.542 89C453.542 90.2 453.922 91.19 454.682 91.97ZM484.568 81.5H488.678L483.908 96.5H480.218L477.458 87.41L474.698 96.5H471.008L466.238 81.5H470.348L472.898 90.71L475.628 81.5H479.288L482.018 90.74L484.568 81.5ZM499.344 85.22H495.954V91.46C495.954 91.98 496.084 92.36 496.344 92.6C496.604 92.84 496.984 92.98 497.484 93.02C497.984 93.04 498.604 93.03 499.344 92.99V96.5C496.684 96.8 494.804 96.55 493.704 95.75C492.624 94.95 492.084 93.52 492.084 91.46V85.22H489.474V81.5H492.084V78.47L495.954 77.3V81.5H499.344V85.22ZM510.413 81.08C512.053 81.08 513.403 81.63 514.463 82.73C515.543 83.83 516.083 85.35 516.083 87.29V96.5H512.213V87.77C512.213 86.77 511.943 86.01 511.403 85.49C510.863 84.95 510.143 84.68 509.243 84.68C508.243 84.68 507.443 84.99 506.843 85.61C506.243 86.23 505.943 87.16 505.943 88.4V96.5H502.073V75.5H505.943V83.18C506.883 81.78 508.373 81.08 510.413 81.08ZM277.8 132C277.8 134.72 276.94 137.08 275.22 139.08L277.38 141.33L274.44 143.94L272.16 141.57C270.54 142.47 268.78 142.92 266.88 142.92C263.86 142.92 261.29 141.87 259.17 139.77C257.05 137.65 255.99 135.06 255.99 132C255.99 128.94 257.05 126.36 259.17 124.26C261.29 122.14 263.86 121.08 266.88 121.08C269.9 121.08 272.47 122.14 274.59 124.26C276.73 126.36 277.8 128.94 277.8 132ZM266.88 138.87C267.66 138.87 268.44 138.74 269.22 138.48L265.77 134.88L268.71 132.27L272.4 136.11C273.24 134.91 273.66 133.54 273.66 132C273.66 130 273.01 128.35 271.71 127.05C270.41 125.75 268.8 125.1 266.88 125.1C264.96 125.1 263.35 125.75 262.05 127.05C260.75 128.35 260.1 130 260.1 132C260.1 133.98 260.75 135.62 262.05 136.92C263.35 138.22 264.96 138.87 266.88 138.87ZM290.723 127.5H294.593V142.5H290.723V140.82C289.783 142.22 288.293 142.92 286.253 142.92C284.613 142.92 283.253 142.37 282.173 141.27C281.113 140.17 280.583 138.65 280.583 136.71V127.5H284.453V136.23C284.453 137.23 284.723 138 285.263 138.54C285.803 139.06 286.523 139.32 287.423 139.32C288.423 139.32 289.223 139.01 289.823 138.39C290.423 137.77 290.723 136.84 290.723 135.6V127.5ZM309.537 127.5H313.407V142.5H309.537V140.73C308.377 142.19 306.747 142.92 304.647 142.92C302.647 142.92 300.927 142.16 299.487 140.64C298.067 139.1 297.357 137.22 297.357 135C297.357 132.78 298.067 130.91 299.487 129.39C300.927 127.85 302.647 127.08 304.647 127.08C306.747 127.08 308.377 127.81 309.537 129.27V127.5ZM302.397 138.06C303.177 138.84 304.167 139.23 305.367 139.23C306.567 139.23 307.557 138.84 308.337 138.06C309.137 137.26 309.537 136.24 309.537 135C309.537 133.76 309.137 132.75 308.337 131.97C307.557 131.17 306.567 130.77 305.367 130.77C304.167 130.77 303.177 131.17 302.397 131.97C301.617 132.75 301.227 133.76 301.227 135C301.227 136.24 301.617 137.26 302.397 138.06ZM316.916 142.5V120.6H320.786V142.5H316.916ZM326.249 125.7C325.609 125.7 325.049 125.47 324.569 125.01C324.109 124.53 323.879 123.97 323.879 123.33C323.879 122.69 324.109 122.13 324.569 121.65C325.049 121.17 325.609 120.93 326.249 120.93C326.909 120.93 327.469 121.17 327.929 121.65C328.409 122.13 328.649 122.69 328.649 123.33C328.649 123.97 328.409 124.53 327.929 125.01C327.469 125.47 326.909 125.7 326.249 125.7ZM324.329 142.5V127.5H328.199V142.5H324.329ZM340.321 131.22H336.931V137.46C336.931 137.98 337.061 138.36 337.321 138.6C337.581 138.84 337.961 138.98 338.461 139.02C338.961 139.04 339.581 139.03 340.321 138.99V142.5C337.661 142.8 335.781 142.55 334.681 141.75C333.601 140.95 333.061 139.52 333.061 137.46V131.22H330.451V127.5H333.061V124.47L336.931 123.3V127.5H340.321V131.22ZM353.152 127.5H357.292L351.832 142.5C351.052 144.66 350.012 146.22 348.712 147.18C347.432 148.16 345.832 148.6 343.912 148.5V144.9C344.952 144.92 345.772 144.7 346.372 144.24C346.992 143.78 347.482 143.04 347.842 142.02L341.692 127.5H345.922L349.822 137.58L353.152 127.5ZM375.363 127.08C377.383 127.08 379.103 127.85 380.523 129.39C381.963 130.91 382.683 132.78 382.683 135C382.683 137.22 381.963 139.1 380.523 140.64C379.103 142.16 377.383 142.92 375.363 142.92C373.263 142.92 371.643 142.19 370.503 140.73V142.5H366.633V121.5H370.503V129.27C371.643 127.81 373.263 127.08 375.363 127.08ZM371.673 138.06C372.453 138.84 373.443 139.23 374.643 139.23C375.843 139.23 376.833 138.84 377.613 138.06C378.413 137.26 378.813 136.24 378.813 135C378.813 133.76 378.413 132.75 377.613 131.97C376.833 131.17 375.843 130.77 374.643 130.77C373.443 130.77 372.453 131.17 371.673 131.97C370.893 132.75 370.503 133.76 370.503 135C370.503 136.24 370.893 137.26 371.673 138.06ZM395.313 127.5H399.183V142.5H395.313V140.82C394.373 142.22 392.883 142.92 390.843 142.92C389.203 142.92 387.843 142.37 386.763 141.27C385.703 140.17 385.173 138.65 385.173 136.71V127.5H389.043V136.23C389.043 137.23 389.313 138 389.853 138.54C390.393 139.06 391.113 139.32 392.013 139.32C393.013 139.32 393.813 139.01 394.413 138.39C395.013 137.77 395.313 136.84 395.313 135.6V127.5ZM406.18 131.76C406.18 132.16 406.44 132.49 406.96 132.75C407.5 132.99 408.15 133.21 408.91 133.41C409.67 133.59 410.43 133.83 411.19 134.13C411.95 134.41 412.59 134.89 413.11 135.57C413.65 136.25 413.92 137.1 413.92 138.12C413.92 139.66 413.34 140.85 412.18 141.69C411.04 142.51 409.61 142.92 407.89 142.92C404.81 142.92 402.71 141.73 401.59 139.35L404.95 137.46C405.39 138.76 406.37 139.41 407.89 139.41C409.27 139.41 409.96 138.98 409.96 138.12C409.96 137.72 409.69 137.4 409.15 137.16C408.63 136.9 407.99 136.67 407.23 136.47C406.47 136.27 405.71 136.02 404.95 135.72C404.19 135.42 403.54 134.95 403 134.31C402.48 133.65 402.22 132.83 402.22 131.85C402.22 130.37 402.76 129.21 403.84 128.37C404.94 127.51 406.3 127.08 407.92 127.08C409.14 127.08 410.25 127.36 411.25 127.92C412.25 128.46 413.04 129.24 413.62 130.26L410.32 132.06C409.84 131.04 409.04 130.53 407.92 130.53C407.42 130.53 407 130.64 406.66 130.86C406.34 131.08 406.18 131.38 406.18 131.76ZM418.329 125.7C417.689 125.7 417.129 125.47 416.649 125.01C416.189 124.53 415.959 123.97 415.959 123.33C415.959 122.69 416.189 122.13 416.649 121.65C417.129 121.17 417.689 120.93 418.329 120.93C418.989 120.93 419.549 121.17 420.009 121.65C420.489 122.13 420.729 122.69 420.729 123.33C420.729 123.97 420.489 124.53 420.009 125.01C419.549 125.47 418.989 125.7 418.329 125.7ZM416.409 142.5V127.5H420.279V142.5H416.409ZM432.161 127.08C433.801 127.08 435.151 127.63 436.211 128.73C437.291 129.83 437.831 131.35 437.831 133.29V142.5H433.961V133.77C433.961 132.77 433.691 132.01 433.151 131.49C432.611 130.95 431.891 130.68 430.991 130.68C429.991 130.68 429.191 130.99 428.591 131.61C427.991 132.23 427.691 133.16 427.691 134.4V142.5H423.821V127.5H427.691V129.18C428.631 127.78 430.121 127.08 432.161 127.08ZM444.405 136.59C444.925 138.47 446.335 139.41 448.635 139.41C450.115 139.41 451.235 138.91 451.995 137.91L455.115 139.71C453.635 141.85 451.455 142.92 448.575 142.92C446.095 142.92 444.105 142.17 442.605 140.67C441.105 139.17 440.355 137.28 440.355 135C440.355 132.74 441.095 130.86 442.575 129.36C444.055 127.84 445.955 127.08 448.275 127.08C450.475 127.08 452.285 127.84 453.705 129.36C455.145 130.88 455.865 132.76 455.865 135C455.865 135.5 455.815 136.03 455.715 136.59H444.405ZM444.345 133.59H451.995C451.775 132.57 451.315 131.81 450.615 131.31C449.935 130.81 449.155 130.56 448.275 130.56C447.235 130.56 446.375 130.83 445.695 131.37C445.015 131.89 444.565 132.63 444.345 133.59ZM461.551 131.76C461.551 132.16 461.811 132.49 462.331 132.75C462.871 132.99 463.521 133.21 464.281 133.41C465.041 133.59 465.801 133.83 466.561 134.13C467.321 134.41 467.961 134.89 468.481 135.57C469.021 136.25 469.291 137.1 469.291 138.12C469.291 139.66 468.711 140.85 467.551 141.69C466.411 142.51 464.981 142.92 463.261 142.92C460.181 142.92 458.081 141.73 456.961 139.35L460.321 137.46C460.761 138.76 461.741 139.41 463.261 139.41C464.641 139.41 465.331 138.98 465.331 138.12C465.331 137.72 465.061 137.4 464.521 137.16C464.001 136.9 463.361 136.67 462.601 136.47C461.841 136.27 461.081 136.02 460.321 135.72C459.561 135.42 458.911 134.95 458.371 134.31C457.851 133.65 457.591 132.83 457.591 131.85C457.591 130.37 458.131 129.21 459.211 128.37C460.311 127.51 461.671 127.08 463.291 127.08C464.511 127.08 465.621 127.36 466.621 127.92C467.621 128.46 468.411 129.24 468.991 130.26L465.691 132.06C465.211 131.04 464.411 130.53 463.291 130.53C462.791 130.53 462.371 130.64 462.031 130.86C461.711 131.08 461.551 131.38 461.551 131.76ZM474.559 131.76C474.559 132.16 474.819 132.49 475.339 132.75C475.879 132.99 476.529 133.21 477.289 133.41C478.049 133.59 478.809 133.83 479.569 134.13C480.329 134.41 480.969 134.89 481.489 135.57C482.029 136.25 482.299 137.1 482.299 138.12C482.299 139.66 481.719 140.85 480.559 141.69C479.419 142.51 477.989 142.92 476.269 142.92C473.189 142.92 471.089 141.73 469.969 139.35L473.329 137.46C473.769 138.76 474.749 139.41 476.269 139.41C477.649 139.41 478.339 138.98 478.339 138.12C478.339 137.72 478.069 137.4 477.529 137.16C477.009 136.9 476.369 136.67 475.609 136.47C474.849 136.27 474.089 136.02 473.329 135.72C472.569 135.42 471.919 134.95 471.379 134.31C470.859 133.65 470.599 132.83 470.599 131.85C470.599 130.37 471.139 129.21 472.219 128.37C473.319 127.51 474.679 127.08 476.299 127.08C477.519 127.08 478.629 127.36 479.629 127.92C480.629 128.46 481.419 129.24 481.999 130.26L478.699 132.06C478.219 131.04 477.419 130.53 476.299 130.53C475.799 130.53 475.379 130.64 475.039 130.86C474.719 131.08 474.559 131.38 474.559 131.76ZM264.78 167.5C266.8 167.5 268.5 168.18 269.88 169.54C271.26 170.9 271.95 172.57 271.95 174.55C271.95 176.53 271.26 178.2 269.88 179.56C268.5 180.92 266.8 181.6 264.78 181.6H261.09V188.5H256.95V167.5H264.78ZM264.78 177.73C265.66 177.73 266.39 177.43 266.97 176.83C267.55 176.21 267.84 175.45 267.84 174.55C267.84 173.63 267.55 172.87 266.97 172.27C266.39 171.67 265.66 171.37 264.78 171.37H261.09V177.73H264.78ZM278.013 176.08C278.373 175.12 278.963 174.4 279.783 173.92C280.623 173.44 281.553 173.2 282.573 173.2V177.52C281.393 177.38 280.333 177.62 279.393 178.24C278.473 178.86 278.013 179.89 278.013 181.33V188.5H274.143V173.5H278.013V176.08ZM297.06 186.64C295.52 188.16 293.64 188.92 291.42 188.92C289.2 188.92 287.32 188.16 285.78 186.64C284.26 185.1 283.5 183.22 283.5 181C283.5 178.78 284.26 176.91 285.78 175.39C287.32 173.85 289.2 173.08 291.42 173.08C293.64 173.08 295.52 173.85 297.06 175.39C298.6 176.91 299.37 178.78 299.37 181C299.37 183.22 298.6 185.1 297.06 186.64ZM288.51 183.97C289.29 184.75 290.26 185.14 291.42 185.14C292.58 185.14 293.55 184.75 294.33 183.97C295.11 183.19 295.5 182.2 295.5 181C295.5 179.8 295.11 178.81 294.33 178.03C293.55 177.25 292.58 176.86 291.42 176.86C290.26 176.86 289.29 177.25 288.51 178.03C287.75 178.81 287.37 179.8 287.37 181C287.37 182.2 287.75 183.19 288.51 183.97ZM318.004 170.5C315.884 170.34 314.824 171.19 314.824 173.05V173.5H318.004V177.22H314.824V188.5H310.954V177.22H306.514V188.5H302.644V177.22H300.484V173.5H302.644V173.35C302.644 171.23 303.234 169.62 304.414 168.52C305.594 167.42 307.354 166.94 309.694 167.08V170.8C307.574 170.64 306.514 171.49 306.514 173.35V173.5H310.954V173.05C310.954 170.93 311.544 169.32 312.724 168.22C313.924 167.12 315.684 166.64 318.004 166.78V170.5ZM322.501 182.59C323.021 184.47 324.431 185.41 326.731 185.41C328.211 185.41 329.331 184.91 330.091 183.91L333.211 185.71C331.731 187.85 329.551 188.92 326.671 188.92C324.191 188.92 322.201 188.17 320.701 186.67C319.201 185.17 318.451 183.28 318.451 181C318.451 178.74 319.191 176.86 320.671 175.36C322.151 173.84 324.051 173.08 326.371 173.08C328.571 173.08 330.381 173.84 331.801 175.36C333.241 176.88 333.961 178.76 333.961 181C333.961 181.5 333.911 182.03 333.811 182.59H322.501ZM322.441 179.59H330.091C329.871 178.57 329.411 177.81 328.711 177.31C328.031 176.81 327.251 176.56 326.371 176.56C325.331 176.56 324.471 176.83 323.791 177.37C323.111 177.89 322.661 178.63 322.441 179.59ZM343.685 188.92C341.425 188.92 339.535 188.16 338.015 186.64C336.515 185.12 335.765 183.24 335.765 181C335.765 178.76 336.515 176.88 338.015 175.36C339.535 173.84 341.425 173.08 343.685 173.08C345.145 173.08 346.475 173.43 347.675 174.13C348.875 174.83 349.785 175.77 350.405 176.95L347.075 178.9C346.775 178.28 346.315 177.79 345.695 177.43C345.095 177.07 344.415 176.89 343.655 176.89C342.495 176.89 341.535 177.28 340.775 178.06C340.015 178.82 339.635 179.8 339.635 181C339.635 182.18 340.015 183.16 340.775 183.94C341.535 184.7 342.495 185.08 343.655 185.08C344.435 185.08 345.125 184.91 345.725 184.57C346.345 184.21 346.805 183.72 347.105 183.1L350.465 185.02C349.805 186.2 348.875 187.15 347.675 187.87C346.475 188.57 345.145 188.92 343.685 188.92ZM354.432 171.7C353.792 171.7 353.232 171.47 352.752 171.01C352.292 170.53 352.062 169.97 352.062 169.33C352.062 168.69 352.292 168.13 352.752 167.65C353.232 167.17 353.792 166.93 354.432 166.93C355.092 166.93 355.652 167.17 356.112 167.65C356.592 168.13 356.832 168.69 356.832 169.33C356.832 169.97 356.592 170.53 356.112 171.01C355.652 171.47 355.092 171.7 354.432 171.7ZM352.512 188.5V173.5H356.382V188.5H352.512ZM363.194 182.59C363.714 184.47 365.124 185.41 367.424 185.41C368.904 185.41 370.024 184.91 370.784 183.91L373.904 185.71C372.424 187.85 370.244 188.92 367.364 188.92C364.884 188.92 362.894 188.17 361.394 186.67C359.894 185.17 359.144 183.28 359.144 181C359.144 178.74 359.884 176.86 361.364 175.36C362.844 173.84 364.744 173.08 367.064 173.08C369.264 173.08 371.074 173.84 372.494 175.36C373.934 176.88 374.654 178.76 374.654 181C374.654 181.5 374.604 182.03 374.504 182.59H363.194ZM363.134 179.59H370.784C370.564 178.57 370.104 177.81 369.404 177.31C368.724 176.81 367.944 176.56 367.064 176.56C366.024 176.56 365.164 176.83 364.484 177.37C363.804 177.89 363.354 178.63 363.134 179.59ZM385.696 173.08C387.336 173.08 388.686 173.63 389.746 174.73C390.826 175.83 391.366 177.35 391.366 179.29V188.5H387.496V179.77C387.496 178.77 387.226 178.01 386.686 177.49C386.146 176.95 385.426 176.68 384.526 176.68C383.526 176.68 382.726 176.99 382.126 177.61C381.526 178.23 381.226 179.16 381.226 180.4V188.5H377.356V173.5H381.226V175.18C382.166 173.78 383.656 173.08 385.696 173.08ZM403.25 177.22H399.86V183.46C399.86 183.98 399.99 184.36 400.25 184.6C400.51 184.84 400.89 184.98 401.39 185.02C401.89 185.04 402.51 185.03 403.25 184.99V188.5C400.59 188.8 398.71 188.55 397.61 187.75C396.53 186.95 395.99 185.52 395.99 183.46V177.22H393.38V173.5H395.99V170.47L399.86 169.3V173.5H403.25V177.22ZM418.033 184.54H426.043V188.5H413.893V167.5H418.033V184.54ZM431.192 182.59C431.712 184.47 433.122 185.41 435.422 185.41C436.902 185.41 438.022 184.91 438.782 183.91L441.902 185.71C440.422 187.85 438.242 188.92 435.362 188.92C432.882 188.92 430.892 188.17 429.392 186.67C427.892 185.17 427.142 183.28 427.142 181C427.142 178.74 427.882 176.86 429.362 175.36C430.842 173.84 432.742 173.08 435.062 173.08C437.262 173.08 439.072 173.84 440.492 175.36C441.932 176.88 442.652 178.76 442.652 181C442.652 181.5 442.602 182.03 442.502 182.59H431.192ZM431.132 179.59H438.782C438.562 178.57 438.102 177.81 437.402 177.31C436.722 176.81 435.942 176.56 435.062 176.56C434.022 176.56 433.162 176.83 432.482 177.37C431.802 177.89 431.352 178.63 431.132 179.59ZM456.637 173.5H460.507V188.5H456.637V186.73C455.477 188.19 453.847 188.92 451.747 188.92C449.747 188.92 448.027 188.16 446.587 186.64C445.167 185.1 444.457 183.22 444.457 181C444.457 178.78 445.167 176.91 446.587 175.39C448.027 173.85 449.747 173.08 451.747 173.08C453.847 173.08 455.477 173.81 456.637 175.27V173.5ZM449.497 184.06C450.277 184.84 451.267 185.23 452.467 185.23C453.667 185.23 454.657 184.84 455.437 184.06C456.237 183.26 456.637 182.24 456.637 181C456.637 179.76 456.237 178.75 455.437 177.97C454.657 177.17 453.667 176.77 452.467 176.77C451.267 176.77 450.277 177.17 449.497 177.97C448.717 178.75 448.327 179.76 448.327 181C448.327 182.24 448.717 183.26 449.497 184.06ZM475.386 167.5H479.256V188.5H475.386V186.73C474.246 188.19 472.626 188.92 470.526 188.92C468.506 188.92 466.776 188.16 465.336 186.64C463.916 185.1 463.206 183.22 463.206 181C463.206 178.78 463.916 176.91 465.336 175.39C466.776 173.85 468.506 173.08 470.526 173.08C472.626 173.08 474.246 173.81 475.386 175.27V167.5ZM468.246 184.06C469.046 184.84 470.046 185.23 471.246 185.23C472.446 185.23 473.436 184.84 474.216 184.06C474.996 183.26 475.386 182.24 475.386 181C475.386 179.76 474.996 178.75 474.216 177.97C473.436 177.17 472.446 176.77 471.246 176.77C470.046 176.77 469.046 177.17 468.246 177.97C467.466 178.75 467.076 179.76 467.076 181C467.076 182.24 467.466 183.26 468.246 184.06ZM486.065 182.59C486.585 184.47 487.995 185.41 490.295 185.41C491.775 185.41 492.895 184.91 493.655 183.91L496.775 185.71C495.295 187.85 493.115 188.92 490.235 188.92C487.755 188.92 485.765 188.17 484.265 186.67C482.765 185.17 482.015 183.28 482.015 181C482.015 178.74 482.755 176.86 484.235 175.36C485.715 173.84 487.615 173.08 489.935 173.08C492.135 173.08 493.945 173.84 495.365 175.36C496.805 176.88 497.525 178.76 497.525 181C497.525 181.5 497.475 182.03 497.375 182.59H486.065ZM486.005 179.59H493.655C493.435 178.57 492.975 177.81 492.275 177.31C491.595 176.81 490.815 176.56 489.935 176.56C488.895 176.56 488.035 176.83 487.355 177.37C486.675 177.89 486.225 178.63 486.005 179.59ZM504.097 176.08C504.457 175.12 505.047 174.4 505.867 173.92C506.707 173.44 507.637 173.2 508.657 173.2V177.52C507.477 177.38 506.417 177.62 505.477 178.24C504.557 178.86 504.097 179.89 504.097 181.33V188.5H500.227V173.5H504.097V176.08ZM514.022 177.76C514.022 178.16 514.282 178.49 514.802 178.75C515.342 178.99 515.992 179.21 516.752 179.41C517.512 179.59 518.272 179.83 519.032 180.13C519.792 180.41 520.432 180.89 520.952 181.57C521.492 182.25 521.762 183.1 521.762 184.12C521.762 185.66 521.182 186.85 520.022 187.69C518.882 188.51 517.452 188.92 515.732 188.92C512.652 188.92 510.552 187.73 509.432 185.35L512.792 183.46C513.232 184.76 514.212 185.41 515.732 185.41C517.112 185.41 517.802 184.98 517.802 184.12C517.802 183.72 517.532 183.4 516.992 183.16C516.472 182.9 515.832 182.67 515.072 182.47C514.312 182.27 513.552 182.02 512.792 181.72C512.032 181.42 511.382 180.95 510.842 180.31C510.322 179.65 510.062 178.83 510.062 177.85C510.062 176.37 510.602 175.21 511.682 174.37C512.782 173.51 514.142 173.08 515.762 173.08C516.982 173.08 518.092 173.36 519.092 173.92C520.092 174.46 520.882 175.24 521.462 176.26L518.162 178.06C517.682 177.04 516.882 176.53 515.762 176.53C515.262 176.53 514.842 176.64 514.502 176.86C514.182 177.08 514.022 177.38 514.022 177.76ZM532.59 173.08C534.23 173.08 535.58 173.63 536.64 174.73C537.72 175.83 538.26 177.35 538.26 179.29V188.5H534.39V179.77C534.39 178.77 534.12 178.01 533.58 177.49C533.04 176.95 532.32 176.68 531.42 176.68C530.42 176.68 529.62 176.99 529.02 177.61C528.42 178.23 528.12 179.16 528.12 180.4V188.5H524.25V167.5H528.12V175.18C529.06 173.78 530.55 173.08 532.59 173.08ZM543.485 171.7C542.845 171.7 542.285 171.47 541.805 171.01C541.345 170.53 541.115 169.97 541.115 169.33C541.115 168.69 541.345 168.13 541.805 167.65C542.285 167.17 542.845 166.93 543.485 166.93C544.145 166.93 544.705 167.17 545.165 167.65C545.645 168.13 545.885 168.69 545.885 169.33C545.885 169.97 545.645 170.53 545.165 171.01C544.705 171.47 544.145 171.7 543.485 171.7ZM541.565 188.5V173.5H545.435V188.5H541.565ZM557.707 173.08C559.727 173.08 561.447 173.85 562.867 175.39C564.307 176.91 565.027 178.78 565.027 181C565.027 183.22 564.307 185.1 562.867 186.64C561.447 188.16 559.727 188.92 557.707 188.92C555.607 188.92 553.987 188.19 552.847 186.73V194.5H548.977V173.5H552.847V175.27C553.987 173.81 555.607 173.08 557.707 173.08ZM554.017 184.06C554.797 184.84 555.787 185.23 556.987 185.23C558.187 185.23 559.177 184.84 559.957 184.06C560.757 183.26 561.157 182.24 561.157 181C561.157 179.76 560.757 178.75 559.957 177.97C559.177 177.17 558.187 176.77 556.987 176.77C555.787 176.77 554.797 177.17 554.017 177.97C553.237 178.75 552.847 179.76 552.847 181C552.847 182.24 553.237 183.26 554.017 184.06Z" fill="#1D3071"/>
</svg>
