<svg width="317" height="237" viewBox="0 0 317 237" fill="none" xmlns="http://www.w3.org/2000/svg">
<path d="M316.904 207.729H0.289062V207.887H316.904V207.729Z" fill="#EBEBEB"/>
<path d="M285.177 217.92H264.203V218.078H285.177V217.92Z" fill="#EBEBEB"/>
<path d="M210.028 219.639H204.523V219.797H210.028V219.639Z" fill="#EBEBEB"/>
<path d="M263.575 212.039H251.422V212.197H263.575V212.039Z" fill="#EBEBEB"/>
<path d="M60.8589 213.104H33.5078V213.262H60.8589V213.104Z" fill="#EBEBEB"/>
<path d="M70.5102 213.104H66.5V213.262H70.5102V213.104Z" fill="#EBEBEB"/>
<path d="M142.858 215.777H83.5391V215.936H142.858V215.777Z" fill="#EBEBEB"/>
<path d="M150.375 179.487H28.0989C26.1061 179.487 24.4844 177.865 24.4844 175.872V3.99339C24.4844 2.00061 26.1061 0.378906 28.0989 0.378906H150.375C152.367 0.378906 153.989 2.00061 153.989 3.99339V175.872C153.989 177.865 152.367 179.487 150.375 179.487ZM28.0989 0.537847C26.1928 0.537847 24.6427 2.088 24.6427 3.99402V175.873C24.6427 177.779 26.1928 179.329 28.0989 179.329H150.375C152.28 179.329 153.831 177.779 153.831 175.873V3.99339C153.831 2.088 152.28 0.537214 150.375 0.537214L28.0989 0.537847Z" fill="#EBEBEB"/>
<path d="M287.342 179.487H165.067C163.074 179.487 161.453 177.865 161.453 175.872V3.99339C161.453 2.00061 163.075 0.378906 165.067 0.378906H287.342C289.336 0.378906 290.957 2.00061 290.957 3.99339V175.872C290.958 177.865 289.336 179.487 287.342 179.487ZM165.067 0.537847C163.162 0.537847 161.611 2.088 161.611 3.99402V175.873C161.611 177.779 163.162 179.329 165.067 179.329H287.342C289.249 179.329 290.799 177.779 290.799 175.873V3.99339C290.799 2.088 289.249 0.537214 287.342 0.537214L165.067 0.537847Z" fill="#EBEBEB"/>
<path d="M277.573 207.312V177.664H275.038V163.538H271.332V114.421H265.975V108.083L254.537 102.748V96.3577H252.953V114.421H250.734V163.538H248.516V137.711H242.495V124.402H240.816V163.538H236.242V148.644H233.232V144.842H226.261V131.849H222.443V122.66H217.75V109.271H216.075V122.66H211.382V131.849H207.565V144.842H200.593V148.644H197.582V163.538H194.012V144.842H187.04V104.597H184.822V100.16H169.929V104.597H166.76V133.751H154.084V136.602H149.331V138.821H154.084V150.229H140.775V112.202H137.923V104.122H131.744V75.4434H130.001V104.122H125.565V112.202H99.5564V109.542H97.9714V127.605H95.7532V127.922H94.4209V145.984H92.2027V150.896H87.5142V137.587H85.8343V169.275H83.9637V155.966H82.2837V176.722H81.2617V161.829H78.2513V158.026H71.2795V145.033H67.4617V135.844H62.7688V122.456H61.0939V135.844H56.4011V145.033H52.5833V158.026H45.6121V161.829H42.6017V176.405H42.0609V176.722H40.5703V207.312H277.573Z" fill="#E6E6E6"/>
<path d="M115.866 113.98H114.07V115.776H115.866V113.98Z" fill="#F0F0F0"/>
<path d="M115.866 116.992H114.07V118.788H115.866V116.992Z" fill="#F0F0F0"/>
<path d="M115.866 129.033H114.07V130.829H115.866V129.033Z" fill="#F0F0F0"/>
<path d="M115.866 132.043H114.07V133.839H115.866V132.043Z" fill="#F0F0F0"/>
<path d="M115.866 135.055H114.07V136.851H115.866V135.055Z" fill="#F0F0F0"/>
<path d="M115.866 144.084H114.07V145.88H115.866V144.084Z" fill="#F0F0F0"/>
<path d="M115.866 147.094H114.07V148.89H115.866V147.094Z" fill="#F0F0F0"/>
<path d="M118.718 126.021H116.922V127.817H118.718V126.021Z" fill="#F0F0F0"/>
<path d="M118.718 129.033H116.922V130.829H118.718V129.033Z" fill="#F0F0F0"/>
<path d="M118.718 132.043H116.922V133.839H118.718V132.043Z" fill="#F0F0F0"/>
<path d="M118.718 135.055H116.922V136.851H118.718V135.055Z" fill="#F0F0F0"/>
<path d="M118.718 138.062H116.922V139.858H118.718V138.062Z" fill="#F0F0F0"/>
<path d="M118.718 144.084H116.922V145.88H118.718V144.084Z" fill="#F0F0F0"/>
<path d="M118.718 147.094H116.922V148.89H118.718V147.094Z" fill="#F0F0F0"/>
<path d="M121.569 113.98H119.773V115.776H121.569V113.98Z" fill="#F0F0F0"/>
<path d="M121.569 116.992H119.773V118.788H121.569V116.992Z" fill="#F0F0F0"/>
<path d="M121.569 120.002H119.773V121.798H121.569V120.002Z" fill="#F0F0F0"/>
<path d="M121.569 123.012H119.773V124.808H121.569V123.012Z" fill="#F0F0F0"/>
<path d="M121.569 126.023H119.773V127.819H121.569V126.023Z" fill="#F0F0F0"/>
<path d="M121.569 129.033H119.773V130.829H121.569V129.033Z" fill="#F0F0F0"/>
<path d="M121.569 132.043H119.773V133.839H121.569V132.043Z" fill="#F0F0F0"/>
<path d="M121.569 135.055H119.773V136.851H121.569V135.055Z" fill="#F0F0F0"/>
<path d="M121.569 138.062H119.773V139.858H121.569V138.062Z" fill="#F0F0F0"/>
<path d="M121.569 141.074H119.773V142.87H121.569V141.074Z" fill="#F0F0F0"/>
<path d="M121.569 147.094H119.773V148.89H121.569V147.094Z" fill="#F0F0F0"/>
<path d="M124.421 113.98H122.625V115.776H124.421V113.98Z" fill="#F0F0F0"/>
<path d="M124.421 116.99H122.625V118.786H124.421V116.99Z" fill="#F0F0F0"/>
<path d="M124.421 120.002H122.625V121.798H124.421V120.002Z" fill="#F0F0F0"/>
<path d="M124.421 123.012H122.625V124.808H124.421V123.012Z" fill="#F0F0F0"/>
<path d="M124.421 126.021H122.625V127.817H124.421V126.021Z" fill="#F0F0F0"/>
<path d="M124.421 129.033H122.625V130.829H124.421V129.033Z" fill="#F0F0F0"/>
<path d="M124.421 132.043H122.625V133.839H124.421V132.043Z" fill="#F0F0F0"/>
<path d="M124.421 159.137H122.625V160.933H124.421V159.137Z" fill="#F0F0F0"/>
<path d="M127.272 113.98H125.477V115.776H127.272V113.98Z" fill="#F0F0F0"/>
<path d="M127.272 116.992H125.477V118.788H127.272V116.992Z" fill="#F0F0F0"/>
<path d="M127.272 120.002H125.477V121.798H127.272V120.002Z" fill="#F0F0F0"/>
<path d="M127.272 123.012H125.477V124.808H127.272V123.012Z" fill="#F0F0F0"/>
<path d="M127.272 126.023H125.477V127.819H127.272V126.023Z" fill="#F0F0F0"/>
<path d="M127.272 129.033H125.477V130.829H127.272V129.033Z" fill="#F0F0F0"/>
<path d="M127.272 132.043H125.477V133.839H127.272V132.043Z" fill="#F0F0F0"/>
<path d="M127.272 135.055H125.477V136.851H127.272V135.055Z" fill="#F0F0F0"/>
<path d="M127.272 153.115H125.477V154.911H127.272V153.115Z" fill="#F0F0F0"/>
<path d="M127.272 156.125H125.477V157.921H127.272V156.125Z" fill="#F0F0F0"/>
<path d="M127.272 159.137H125.477V160.933H127.272V159.137Z" fill="#F0F0F0"/>
<path d="M127.272 162.148H125.477V163.944H127.272V162.148Z" fill="#F0F0F0"/>
<path d="M127.272 174.188H125.477V175.983H127.272V174.188Z" fill="#F0F0F0"/>
<path d="M130.124 113.98H128.328V115.776H130.124V113.98Z" fill="#F0F0F0"/>
<path d="M130.124 116.99H128.328V118.786H130.124V116.99Z" fill="#F0F0F0"/>
<path d="M130.124 120.002H128.328V121.798H130.124V120.002Z" fill="#F0F0F0"/>
<path d="M130.124 123.012H128.328V124.808H130.124V123.012Z" fill="#F0F0F0"/>
<path d="M130.124 126.021H128.328V127.817H130.124V126.021Z" fill="#F0F0F0"/>
<path d="M130.124 129.033H128.328V130.829H130.124V129.033Z" fill="#F0F0F0"/>
<path d="M130.124 132.043H128.328V133.839H130.124V132.043Z" fill="#F0F0F0"/>
<path d="M130.124 135.055H128.328V136.851H130.124V135.055Z" fill="#F0F0F0"/>
<path d="M130.124 138.062H128.328V139.858H130.124V138.062Z" fill="#F0F0F0"/>
<path d="M130.124 141.074H128.328V142.87H130.124V141.074Z" fill="#F0F0F0"/>
<path d="M130.124 150.105H128.328V151.901H130.124V150.105Z" fill="#F0F0F0"/>
<path d="M130.124 153.115H128.328V154.911H130.124V153.115Z" fill="#F0F0F0"/>
<path d="M130.124 156.125H128.328V157.921H130.124V156.125Z" fill="#F0F0F0"/>
<path d="M130.124 159.137H128.328V160.933H130.124V159.137Z" fill="#F0F0F0"/>
<path d="M130.124 162.148H128.328V163.944H130.124V162.148Z" fill="#F0F0F0"/>
<path d="M130.124 174.188H128.328V175.983H130.124V174.188Z" fill="#F0F0F0"/>
<path d="M132.976 113.98H131.18V115.776H132.976V113.98Z" fill="#F0F0F0"/>
<path d="M132.976 116.992H131.18V118.788H132.976V116.992Z" fill="#F0F0F0"/>
<path d="M132.976 120.002H131.18V121.798H132.976V120.002Z" fill="#F0F0F0"/>
<path d="M132.976 123.012H131.18V124.808H132.976V123.012Z" fill="#F0F0F0"/>
<path d="M132.976 126.023H131.18V127.819H132.976V126.023Z" fill="#F0F0F0"/>
<path d="M132.976 129.033H131.18V130.829H132.976V129.033Z" fill="#F0F0F0"/>
<path d="M132.976 132.043H131.18V133.839H132.976V132.043Z" fill="#F0F0F0"/>
<path d="M132.976 135.055H131.18V136.851H132.976V135.055Z" fill="#F0F0F0"/>
<path d="M132.976 138.062H131.18V139.858H132.976V138.062Z" fill="#F0F0F0"/>
<path d="M132.976 141.074H131.18V142.87H132.976V141.074Z" fill="#F0F0F0"/>
<path d="M132.976 144.084H131.18V145.88H132.976V144.084Z" fill="#F0F0F0"/>
<path d="M132.976 147.094H131.18V148.89H132.976V147.094Z" fill="#F0F0F0"/>
<path d="M132.976 150.105H131.18V151.901H132.976V150.105Z" fill="#F0F0F0"/>
<path d="M132.976 153.115H131.18V154.911H132.976V153.115Z" fill="#F0F0F0"/>
<path d="M132.976 156.125H131.18V157.921H132.976V156.125Z" fill="#F0F0F0"/>
<path d="M132.976 159.137H131.18V160.933H132.976V159.137Z" fill="#F0F0F0"/>
<path d="M132.976 162.148H131.18V163.944H132.976V162.148Z" fill="#F0F0F0"/>
<path d="M132.976 165.158H131.18V166.954H132.976V165.158Z" fill="#F0F0F0"/>
<path d="M135.827 113.98H134.031V115.776H135.827V113.98Z" fill="#F0F0F0"/>
<path d="M135.827 116.99H134.031V118.786H135.827V116.99Z" fill="#F0F0F0"/>
<path d="M135.827 120.002H134.031V121.798H135.827V120.002Z" fill="#F0F0F0"/>
<path d="M135.827 123.012H134.031V124.808H135.827V123.012Z" fill="#F0F0F0"/>
<path d="M135.827 126.021H134.031V127.817H135.827V126.021Z" fill="#F0F0F0"/>
<path d="M135.827 129.033H134.031V130.829H135.827V129.033Z" fill="#F0F0F0"/>
<path d="M135.827 132.043H134.031V133.839H135.827V132.043Z" fill="#F0F0F0"/>
<path d="M135.827 135.055H134.031V136.851H135.827V135.055Z" fill="#F0F0F0"/>
<path d="M135.827 138.062H134.031V139.858H135.827V138.062Z" fill="#F0F0F0"/>
<path d="M135.827 141.074H134.031V142.87H135.827V141.074Z" fill="#F0F0F0"/>
<path d="M135.827 150.105H134.031V151.901H135.827V150.105Z" fill="#F0F0F0"/>
<path d="M135.827 153.115H134.031V154.911H135.827V153.115Z" fill="#F0F0F0"/>
<path d="M135.827 156.125H134.031V157.921H135.827V156.125Z" fill="#F0F0F0"/>
<path d="M135.827 159.137H134.031V160.933H135.827V159.137Z" fill="#F0F0F0"/>
<path d="M138.679 113.98H136.883V115.776H138.679V113.98Z" fill="#F0F0F0"/>
<path d="M138.679 116.992H136.883V118.788H138.679V116.992Z" fill="#F0F0F0"/>
<path d="M138.679 120.002H136.883V121.798H138.679V120.002Z" fill="#F0F0F0"/>
<path d="M138.679 123.012H136.883V124.808H138.679V123.012Z" fill="#F0F0F0"/>
<path d="M138.679 126.023H136.883V127.819H138.679V126.023Z" fill="#F0F0F0"/>
<path d="M138.679 129.033H136.883V130.829H138.679V129.033Z" fill="#F0F0F0"/>
<path d="M138.679 132.043H136.883V133.839H138.679V132.043Z" fill="#F0F0F0"/>
<path d="M138.679 135.055H136.883V136.851H138.679V135.055Z" fill="#F0F0F0"/>
<path d="M138.679 138.062H136.883V139.858H138.679V138.062Z" fill="#F0F0F0"/>
<path d="M138.679 141.074H136.883V142.87H138.679V141.074Z" fill="#F0F0F0"/>
<path d="M138.679 150.105H136.883V151.901H138.679V150.105Z" fill="#F0F0F0"/>
<path d="M138.679 153.115H136.883V154.911H138.679V153.115Z" fill="#F0F0F0"/>
<path d="M138.679 156.125H136.883V157.921H138.679V156.125Z" fill="#F0F0F0"/>
<path d="M170.796 106.164H169V107.96H170.796V106.164Z" fill="#F0F0F0"/>
<path d="M170.796 109.176H169V110.972H170.796V109.176Z" fill="#F0F0F0"/>
<path d="M170.796 112.184H169V113.979H170.796V112.184Z" fill="#F0F0F0"/>
<path d="M170.796 115.195H169V116.991H170.796V115.195Z" fill="#F0F0F0"/>
<path d="M170.796 118.207H169V120.003H170.796V118.207Z" fill="#F0F0F0"/>
<path d="M170.796 121.215H169V123.011H170.796V121.215Z" fill="#F0F0F0"/>
<path d="M170.796 124.227H169V126.022H170.796V124.227Z" fill="#F0F0F0"/>
<path d="M170.796 127.236H169V129.032H170.796V127.236Z" fill="#F0F0F0"/>
<path d="M170.796 136.268H169V138.063H170.796V136.268Z" fill="#F0F0F0"/>
<path d="M170.796 139.277H169V141.073H170.796V139.277Z" fill="#F0F0F0"/>
<path d="M173.647 106.164H171.852V107.96H173.647V106.164Z" fill="#F0F0F0"/>
<path d="M173.647 109.176H171.852V110.972H173.647V109.176Z" fill="#F0F0F0"/>
<path d="M173.647 112.184H171.852V113.979H173.647V112.184Z" fill="#F0F0F0"/>
<path d="M173.647 115.195H171.852V116.991H173.647V115.195Z" fill="#F0F0F0"/>
<path d="M173.647 118.207H171.852V120.003H173.647V118.207Z" fill="#F0F0F0"/>
<path d="M173.647 121.215H171.852V123.011H173.647V121.215Z" fill="#F0F0F0"/>
<path d="M173.647 124.227H171.852V126.022H173.647V124.227Z" fill="#F0F0F0"/>
<path d="M173.647 127.238H171.852V129.034H173.647V127.238Z" fill="#F0F0F0"/>
<path d="M173.647 139.277H171.852V141.073H173.647V139.277Z" fill="#F0F0F0"/>
<path d="M176.499 106.164H174.703V107.96H176.499V106.164Z" fill="#F0F0F0"/>
<path d="M176.499 109.176H174.703V110.972H176.499V109.176Z" fill="#F0F0F0"/>
<path d="M176.499 112.184H174.703V113.979H176.499V112.184Z" fill="#F0F0F0"/>
<path d="M176.499 115.195H174.703V116.991H176.499V115.195Z" fill="#F0F0F0"/>
<path d="M176.499 118.207H174.703V120.003H176.499V118.207Z" fill="#F0F0F0"/>
<path d="M176.499 121.215H174.703V123.011H176.499V121.215Z" fill="#F0F0F0"/>
<path d="M176.499 124.227H174.703V126.022H176.499V124.227Z" fill="#F0F0F0"/>
<path d="M176.499 127.236H174.703V129.032H176.499V127.236Z" fill="#F0F0F0"/>
<path d="M179.351 106.164H177.555V107.96H179.351V106.164Z" fill="#F0F0F0"/>
<path d="M179.351 109.176H177.555V110.972H179.351V109.176Z" fill="#F0F0F0"/>
<path d="M179.351 112.184H177.555V113.979H179.351V112.184Z" fill="#F0F0F0"/>
<path d="M179.351 115.195H177.555V116.991H179.351V115.195Z" fill="#F0F0F0"/>
<path d="M179.351 118.207H177.555V120.003H179.351V118.207Z" fill="#F0F0F0"/>
<path d="M179.351 121.215H177.555V123.011H179.351V121.215Z" fill="#F0F0F0"/>
<path d="M179.351 127.238H177.555V129.034H179.351V127.238Z" fill="#F0F0F0"/>
<path d="M179.351 130.246H177.555V132.042H179.351V130.246Z" fill="#F0F0F0"/>
<path d="M179.351 139.277H177.555V141.073H179.351V139.277Z" fill="#F0F0F0"/>
<path d="M179.351 142.289H177.555V144.085H179.351V142.289Z" fill="#F0F0F0"/>
<path d="M179.351 145.301H177.555V147.097H179.351V145.301Z" fill="#F0F0F0"/>
<path d="M179.351 148.311H177.555V150.106H179.351V148.311Z" fill="#F0F0F0"/>
<path d="M179.351 151.32H177.555V153.116H179.351V151.32Z" fill="#F0F0F0"/>
<path d="M179.351 154.332H177.555V156.128H179.351V154.332Z" fill="#F0F0F0"/>
<path d="M179.351 157.342H177.555V159.138H179.351V157.342Z" fill="#F0F0F0"/>
<path d="M182.202 106.164H180.406V107.96H182.202V106.164Z" fill="#F0F0F0"/>
<path d="M182.202 109.176H180.406V110.972H182.202V109.176Z" fill="#F0F0F0"/>
<path d="M182.202 112.184H180.406V113.979H182.202V112.184Z" fill="#F0F0F0"/>
<path d="M182.202 115.195H180.406V116.991H182.202V115.195Z" fill="#F0F0F0"/>
<path d="M182.202 118.207H180.406V120.003H182.202V118.207Z" fill="#F0F0F0"/>
<path d="M182.202 121.215H180.406V123.011H182.202V121.215Z" fill="#F0F0F0"/>
<path d="M182.202 130.246H180.406V132.042H182.202V130.246Z" fill="#F0F0F0"/>
<path d="M182.202 133.258H180.406V135.054H182.202V133.258Z" fill="#F0F0F0"/>
<path d="M182.202 136.268H180.406V138.063H182.202V136.268Z" fill="#F0F0F0"/>
<path d="M182.202 139.277H180.406V141.073H182.202V139.277Z" fill="#F0F0F0"/>
<path d="M182.202 142.289H180.406V144.085H182.202V142.289Z" fill="#F0F0F0"/>
<path d="M182.202 145.299H180.406V147.095H182.202V145.299Z" fill="#F0F0F0"/>
<path d="M182.202 148.311H180.406V150.106H182.202V148.311Z" fill="#F0F0F0"/>
<path d="M182.202 151.32H180.406V153.116H182.202V151.32Z" fill="#F0F0F0"/>
<path d="M182.202 154.33H180.406V156.126H182.202V154.33Z" fill="#F0F0F0"/>
<path d="M182.202 157.342H180.406V159.138H182.202V157.342Z" fill="#F0F0F0"/>
<path d="M182.202 160.352H180.406V162.147H182.202V160.352Z" fill="#F0F0F0"/>
<path d="M182.202 166.373H180.406V168.169H182.202V166.373Z" fill="#F0F0F0"/>
<path d="M185.054 106.164H183.258V107.96H185.054V106.164Z" fill="#F0F0F0"/>
<path d="M185.054 109.176H183.258V110.972H185.054V109.176Z" fill="#F0F0F0"/>
<path d="M185.054 112.184H183.258V113.979H185.054V112.184Z" fill="#F0F0F0"/>
<path d="M185.054 115.195H183.258V116.991H185.054V115.195Z" fill="#F0F0F0"/>
<path d="M185.054 118.207H183.258V120.003H185.054V118.207Z" fill="#F0F0F0"/>
<path d="M185.054 121.215H183.258V123.011H185.054V121.215Z" fill="#F0F0F0"/>
<path d="M185.054 130.246H183.258V132.042H185.054V130.246Z" fill="#F0F0F0"/>
<path d="M185.054 133.258H183.258V135.054H185.054V133.258Z" fill="#F0F0F0"/>
<path d="M185.054 136.268H183.258V138.063H185.054V136.268Z" fill="#F0F0F0"/>
<path d="M185.054 139.277H183.258V141.073H185.054V139.277Z" fill="#F0F0F0"/>
<path d="M185.054 148.311H183.258V150.106H185.054V148.311Z" fill="#F0F0F0"/>
<path d="M185.054 151.32H183.258V153.116H185.054V151.32Z" fill="#F0F0F0"/>
<path d="M185.054 154.332H183.258V156.128H185.054V154.332Z" fill="#F0F0F0"/>
<path d="M185.054 157.342H183.258V159.138H185.054V157.342Z" fill="#F0F0F0"/>
<path d="M185.054 160.352H183.258V162.147H185.054V160.352Z" fill="#F0F0F0"/>
<path d="M185.054 166.373H183.258V168.169H185.054V166.373Z" fill="#F0F0F0"/>
<path d="M185.054 169.383H183.258V171.179H185.054V169.383Z" fill="#F0F0F0"/>
<path d="M210.929 134.156H209.133V135.952H210.929V134.156Z" fill="#F0F0F0"/>
<path d="M210.929 137.164H209.133V138.96H210.929V137.164Z" fill="#F0F0F0"/>
<path d="M210.929 140.176H209.133V141.972H210.929V140.176Z" fill="#F0F0F0"/>
<path d="M210.929 143.188H209.133V144.983H210.929V143.188Z" fill="#F0F0F0"/>
<path d="M210.929 146.195H209.133V147.991H210.929V146.195Z" fill="#F0F0F0"/>
<path d="M210.929 149.209H209.133V151.005H210.929V149.209Z" fill="#F0F0F0"/>
<path d="M210.929 152.219H209.133V154.015H210.929V152.219Z" fill="#F0F0F0"/>
<path d="M210.929 161.25H209.133V163.046H210.929V161.25Z" fill="#F0F0F0"/>
<path d="M210.929 164.26H209.133V166.056H210.929V164.26Z" fill="#F0F0F0"/>
<path d="M210.929 167.271H209.133V169.067H210.929V167.271Z" fill="#F0F0F0"/>
<path d="M213.78 134.156H211.984V135.952H213.78V134.156Z" fill="#F0F0F0"/>
<path d="M213.78 137.164H211.984V138.96H213.78V137.164Z" fill="#F0F0F0"/>
<path d="M213.78 140.176H211.984V141.972H213.78V140.176Z" fill="#F0F0F0"/>
<path d="M213.78 143.188H211.984V144.983H213.78V143.188Z" fill="#F0F0F0"/>
<path d="M213.78 146.195H211.984V147.991H213.78V146.195Z" fill="#F0F0F0"/>
<path d="M213.78 149.207H211.984V151.003H213.78V149.207Z" fill="#F0F0F0"/>
<path d="M213.78 152.219H211.984V154.015H213.78V152.219Z" fill="#F0F0F0"/>
<path d="M216.632 134.156H214.836V135.952H216.632V134.156Z" fill="#F0F0F0"/>
<path d="M216.632 137.164H214.836V138.96H216.632V137.164Z" fill="#F0F0F0"/>
<path d="M216.632 140.176H214.836V141.972H216.632V140.176Z" fill="#F0F0F0"/>
<path d="M216.632 143.188H214.836V144.983H216.632V143.188Z" fill="#F0F0F0"/>
<path d="M216.632 146.195H214.836V147.991H216.632V146.195Z" fill="#F0F0F0"/>
<path d="M216.632 149.207H214.836V151.003H216.632V149.207Z" fill="#F0F0F0"/>
<path d="M216.632 152.219H214.836V154.015H216.632V152.219Z" fill="#F0F0F0"/>
<path d="M219.483 134.156H217.688V135.952H219.483V134.156Z" fill="#F0F0F0"/>
<path d="M219.483 137.164H217.688V138.96H219.483V137.164Z" fill="#F0F0F0"/>
<path d="M219.483 140.176H217.688V141.972H219.483V140.176Z" fill="#F0F0F0"/>
<path d="M219.483 143.188H217.688V144.983H219.483V143.188Z" fill="#F0F0F0"/>
<path d="M219.483 146.195H217.688V147.991H219.483V146.195Z" fill="#F0F0F0"/>
<path d="M219.483 149.207H217.688V151.003H219.483V149.207Z" fill="#F0F0F0"/>
<path d="M219.483 152.219H217.688V154.015H219.483V152.219Z" fill="#F0F0F0"/>
<path d="M219.483 155.229H217.688V157.024H219.483V155.229Z" fill="#F0F0F0"/>
<path d="M219.483 158.238H217.688V160.034H219.483V158.238Z" fill="#F0F0F0"/>
<path d="M219.483 161.25H217.688V163.046H219.483V161.25Z" fill="#F0F0F0"/>
<path d="M219.483 164.26H217.688V166.056H219.483V164.26Z" fill="#F0F0F0"/>
<path d="M222.343 134.156H220.547V135.952H222.343V134.156Z" fill="#F0F0F0"/>
<path d="M222.343 137.164H220.547V138.96H222.343V137.164Z" fill="#F0F0F0"/>
<path d="M222.343 140.176H220.547V141.972H222.343V140.176Z" fill="#F0F0F0"/>
<path d="M222.343 143.188H220.547V144.983H222.343V143.188Z" fill="#F0F0F0"/>
<path d="M222.343 146.195H220.547V147.991H222.343V146.195Z" fill="#F0F0F0"/>
<path d="M222.343 149.209H220.547V151.005H222.343V149.209Z" fill="#F0F0F0"/>
<path d="M222.343 152.219H220.547V154.015H222.343V152.219Z" fill="#F0F0F0"/>
<path d="M222.343 155.229H220.547V157.024H222.343V155.229Z" fill="#F0F0F0"/>
<path d="M222.343 158.24H220.547V160.036H222.343V158.24Z" fill="#F0F0F0"/>
<path d="M222.343 161.25H220.547V163.046H222.343V161.25Z" fill="#F0F0F0"/>
<path d="M222.343 164.26H220.547V166.056H222.343V164.26Z" fill="#F0F0F0"/>
<path d="M222.343 167.271H220.547V169.067H222.343V167.271Z" fill="#F0F0F0"/>
<path d="M222.343 176.301H220.547V178.097H222.343V176.301Z" fill="#F0F0F0"/>
<path d="M222.343 179.311H220.547V181.106H222.343V179.311Z" fill="#F0F0F0"/>
<path d="M225.194 134.156H223.398V135.952H225.194V134.156Z" fill="#F0F0F0"/>
<path d="M225.194 137.164H223.398V138.96H225.194V137.164Z" fill="#F0F0F0"/>
<path d="M225.194 140.176H223.398V141.972H225.194V140.176Z" fill="#F0F0F0"/>
<path d="M225.194 149.207H223.398V151.003H225.194V149.207Z" fill="#F0F0F0"/>
<path d="M225.194 152.219H223.398V154.015H225.194V152.219Z" fill="#F0F0F0"/>
<path d="M225.194 155.229H223.398V157.024H225.194V155.229Z" fill="#F0F0F0"/>
<path d="M225.194 158.238H223.398V160.034H225.194V158.238Z" fill="#F0F0F0"/>
<path d="M225.194 161.25H223.398V163.046H225.194V161.25Z" fill="#F0F0F0"/>
<path d="M225.194 164.26H223.398V166.056H225.194V164.26Z" fill="#F0F0F0"/>
<path d="M225.194 167.27H223.398V169.065H225.194V167.27Z" fill="#F0F0F0"/>
<path d="M225.194 176.301H223.398V178.097H225.194V176.301Z" fill="#F0F0F0"/>
<path d="M225.194 179.312H223.398V181.108H225.194V179.312Z" fill="#F0F0F0"/>
<path d="M225.194 182.322H223.398V184.118H225.194V182.322Z" fill="#F0F0F0"/>
<path d="M255.085 116.094H253.289V117.89H255.085V116.094Z" fill="#F0F0F0"/>
<path d="M255.085 119.104H253.289V120.899H255.085V119.104Z" fill="#F0F0F0"/>
<path d="M255.085 122.113H253.289V123.909H255.085V122.113Z" fill="#F0F0F0"/>
<path d="M255.085 125.125H253.289V126.921H255.085V125.125Z" fill="#F0F0F0"/>
<path d="M255.085 128.135H253.289V129.931H255.085V128.135Z" fill="#F0F0F0"/>
<path d="M255.085 131.145H253.289V132.94H255.085V131.145Z" fill="#F0F0F0"/>
<path d="M255.085 134.156H253.289V135.952H255.085V134.156Z" fill="#F0F0F0"/>
<path d="M255.085 137.164H253.289V138.96H255.085V137.164Z" fill="#F0F0F0"/>
<path d="M255.085 140.176H253.289V141.972H255.085V140.176Z" fill="#F0F0F0"/>
<path d="M255.085 143.188H253.289V144.983H255.085V143.188Z" fill="#F0F0F0"/>
<path d="M255.085 146.195H253.289V147.991H255.085V146.195Z" fill="#F0F0F0"/>
<path d="M255.085 149.209H253.289V151.005H255.085V149.209Z" fill="#F0F0F0"/>
<path d="M255.085 152.219H253.289V154.015H255.085V152.219Z" fill="#F0F0F0"/>
<path d="M255.085 155.229H253.289V157.024H255.085V155.229Z" fill="#F0F0F0"/>
<path d="M255.085 158.24H253.289V160.036H255.085V158.24Z" fill="#F0F0F0"/>
<path d="M255.085 161.25H253.289V163.046H255.085V161.25Z" fill="#F0F0F0"/>
<path d="M255.085 164.26H253.289V166.056H255.085V164.26Z" fill="#F0F0F0"/>
<path d="M255.085 167.271H253.289V169.067H255.085V167.271Z" fill="#F0F0F0"/>
<path d="M255.085 170.279H253.289V172.075H255.085V170.279Z" fill="#F0F0F0"/>
<path d="M255.085 173.291H253.289V175.087H255.085V173.291Z" fill="#F0F0F0"/>
<path d="M255.085 176.301H253.289V178.097H255.085V176.301Z" fill="#F0F0F0"/>
<path d="M255.085 179.311H253.289V181.106H255.085V179.311Z" fill="#F0F0F0"/>
<path d="M255.085 182.322H253.289V184.118H255.085V182.322Z" fill="#F0F0F0"/>
<path d="M257.936 116.094H256.141V117.89H257.936V116.094Z" fill="#F0F0F0"/>
<path d="M257.936 119.104H256.141V120.899H257.936V119.104Z" fill="#F0F0F0"/>
<path d="M257.936 122.113H256.141V123.909H257.936V122.113Z" fill="#F0F0F0"/>
<path d="M257.936 125.125H256.141V126.921H257.936V125.125Z" fill="#F0F0F0"/>
<path d="M257.936 128.135H256.141V129.931H257.936V128.135Z" fill="#F0F0F0"/>
<path d="M257.936 131.145H256.141V132.94H257.936V131.145Z" fill="#F0F0F0"/>
<path d="M257.936 134.156H256.141V135.952H257.936V134.156Z" fill="#F0F0F0"/>
<path d="M257.936 137.164H256.141V138.96H257.936V137.164Z" fill="#F0F0F0"/>
<path d="M257.936 140.176H256.141V141.972H257.936V140.176Z" fill="#F0F0F0"/>
<path d="M257.936 143.188H256.141V144.983H257.936V143.188Z" fill="#F0F0F0"/>
<path d="M257.936 146.195H256.141V147.991H257.936V146.195Z" fill="#F0F0F0"/>
<path d="M257.936 149.207H256.141V151.003H257.936V149.207Z" fill="#F0F0F0"/>
<path d="M257.936 152.219H256.141V154.015H257.936V152.219Z" fill="#F0F0F0"/>
<path d="M257.936 155.229H256.141V157.024H257.936V155.229Z" fill="#F0F0F0"/>
<path d="M257.936 158.238H256.141V160.034H257.936V158.238Z" fill="#F0F0F0"/>
<path d="M257.936 161.25H256.141V163.046H257.936V161.25Z" fill="#F0F0F0"/>
<path d="M257.936 164.26H256.141V166.056H257.936V164.26Z" fill="#F0F0F0"/>
<path d="M257.936 167.27H256.141V169.065H257.936V167.27Z" fill="#F0F0F0"/>
<path d="M257.936 170.281H256.141V172.077H257.936V170.281Z" fill="#F0F0F0"/>
<path d="M260.788 116.094H258.992V117.89H260.788V116.094Z" fill="#F0F0F0"/>
<path d="M260.788 119.104H258.992V120.899H260.788V119.104Z" fill="#F0F0F0"/>
<path d="M260.788 122.113H258.992V123.909H260.788V122.113Z" fill="#F0F0F0"/>
<path d="M260.788 125.125H258.992V126.921H260.788V125.125Z" fill="#F0F0F0"/>
<path d="M260.788 128.135H258.992V129.931H260.788V128.135Z" fill="#F0F0F0"/>
<path d="M260.788 131.145H258.992V132.94H260.788V131.145Z" fill="#F0F0F0"/>
<path d="M260.788 134.156H258.992V135.952H260.788V134.156Z" fill="#F0F0F0"/>
<path d="M260.788 137.164H258.992V138.96H260.788V137.164Z" fill="#F0F0F0"/>
<path d="M260.788 140.176H258.992V141.972H260.788V140.176Z" fill="#F0F0F0"/>
<path d="M260.788 143.188H258.992V144.983H260.788V143.188Z" fill="#F0F0F0"/>
<path d="M260.788 146.195H258.992V147.991H260.788V146.195Z" fill="#F0F0F0"/>
<path d="M260.788 149.209H258.992V151.005H260.788V149.209Z" fill="#F0F0F0"/>
<path d="M260.788 152.219H258.992V154.015H260.788V152.219Z" fill="#F0F0F0"/>
<path d="M260.788 155.229H258.992V157.024H260.788V155.229Z" fill="#F0F0F0"/>
<path d="M260.788 158.24H258.992V160.036H260.788V158.24Z" fill="#F0F0F0"/>
<path d="M260.788 161.25H258.992V163.046H260.788V161.25Z" fill="#F0F0F0"/>
<path d="M260.788 164.26H258.992V166.056H260.788V164.26Z" fill="#F0F0F0"/>
<path d="M260.788 167.271H258.992V169.067H260.788V167.271Z" fill="#F0F0F0"/>
<path d="M260.788 170.279H258.992V172.075H260.788V170.279Z" fill="#F0F0F0"/>
<path d="M263.64 116.094H261.844V117.89H263.64V116.094Z" fill="#F0F0F0"/>
<path d="M263.64 119.104H261.844V120.899H263.64V119.104Z" fill="#F0F0F0"/>
<path d="M263.64 122.113H261.844V123.909H263.64V122.113Z" fill="#F0F0F0"/>
<path d="M263.64 125.125H261.844V126.921H263.64V125.125Z" fill="#F0F0F0"/>
<path d="M263.64 128.135H261.844V129.931H263.64V128.135Z" fill="#F0F0F0"/>
<path d="M263.64 131.145H261.844V132.94H263.64V131.145Z" fill="#F0F0F0"/>
<path d="M263.64 134.156H261.844V135.952H263.64V134.156Z" fill="#F0F0F0"/>
<path d="M263.64 137.164H261.844V138.96H263.64V137.164Z" fill="#F0F0F0"/>
<path d="M263.64 140.176H261.844V141.972H263.64V140.176Z" fill="#F0F0F0"/>
<path d="M263.64 143.188H261.844V144.983H263.64V143.188Z" fill="#F0F0F0"/>
<path d="M263.64 146.195H261.844V147.991H263.64V146.195Z" fill="#F0F0F0"/>
<path d="M263.64 149.207H261.844V151.003H263.64V149.207Z" fill="#F0F0F0"/>
<path d="M263.64 152.219H261.844V154.015H263.64V152.219Z" fill="#F0F0F0"/>
<path d="M263.64 155.229H261.844V157.024H263.64V155.229Z" fill="#F0F0F0"/>
<path d="M263.64 158.238H261.844V160.034H263.64V158.238Z" fill="#F0F0F0"/>
<path d="M266.491 116.094H264.695V117.89H266.491V116.094Z" fill="#F0F0F0"/>
<path d="M266.491 119.104H264.695V120.899H266.491V119.104Z" fill="#F0F0F0"/>
<path d="M266.491 122.113H264.695V123.909H266.491V122.113Z" fill="#F0F0F0"/>
<path d="M266.491 125.125H264.695V126.921H266.491V125.125Z" fill="#F0F0F0"/>
<path d="M266.491 128.135H264.695V129.931H266.491V128.135Z" fill="#F0F0F0"/>
<path d="M266.491 131.145H264.695V132.94H266.491V131.145Z" fill="#F0F0F0"/>
<path d="M266.491 134.156H264.695V135.952H266.491V134.156Z" fill="#F0F0F0"/>
<path d="M266.491 137.164H264.695V138.96H266.491V137.164Z" fill="#F0F0F0"/>
<path d="M266.491 140.176H264.695V141.972H266.491V140.176Z" fill="#F0F0F0"/>
<path d="M266.491 143.188H264.695V144.983H266.491V143.188Z" fill="#F0F0F0"/>
<path d="M266.491 146.195H264.695V147.991H266.491V146.195Z" fill="#F0F0F0"/>
<path d="M266.491 149.209H264.695V151.005H266.491V149.209Z" fill="#F0F0F0"/>
<path d="M266.491 152.219H264.695V154.015H266.491V152.219Z" fill="#F0F0F0"/>
<path d="M269.343 116.094H267.547V117.89H269.343V116.094Z" fill="#F0F0F0"/>
<path d="M269.343 119.104H267.547V120.899H269.343V119.104Z" fill="#F0F0F0"/>
<path d="M269.343 122.113H267.547V123.909H269.343V122.113Z" fill="#F0F0F0"/>
<path d="M269.343 125.125H267.547V126.921H269.343V125.125Z" fill="#F0F0F0"/>
<path d="M269.343 128.135H267.547V129.931H269.343V128.135Z" fill="#F0F0F0"/>
<path d="M269.343 131.145H267.547V132.94H269.343V131.145Z" fill="#F0F0F0"/>
<path d="M269.343 134.156H267.547V135.952H269.343V134.156Z" fill="#F0F0F0"/>
<path d="M269.343 137.164H267.547V138.96H269.343V137.164Z" fill="#F0F0F0"/>
<path d="M269.343 140.176H267.547V141.972H269.343V140.176Z" fill="#F0F0F0"/>
<path d="M269.343 143.188H267.547V144.983H269.343V143.188Z" fill="#F0F0F0"/>
<path d="M269.343 146.195H267.547V147.991H269.343V146.195Z" fill="#F0F0F0"/>
<path d="M269.343 149.207H267.547V151.003H269.343V149.207Z" fill="#F0F0F0"/>
<path d="M59.7802 138.062H57.9844V139.858H59.7802V138.062Z" fill="#F0F0F0"/>
<path d="M59.7802 141.074H57.9844V142.87H59.7802V141.074Z" fill="#F0F0F0"/>
<path d="M59.7802 144.084H57.9844V145.88H59.7802V144.084Z" fill="#F0F0F0"/>
<path d="M59.7802 147.094H57.9844V148.89H59.7802V147.094Z" fill="#F0F0F0"/>
<path d="M59.7802 150.105H57.9844V151.901H59.7802V150.105Z" fill="#F0F0F0"/>
<path d="M59.7802 153.115H57.9844V154.911H59.7802V153.115Z" fill="#F0F0F0"/>
<path d="M59.7802 156.125H57.9844V157.921H59.7802V156.125Z" fill="#F0F0F0"/>
<path d="M59.7802 159.137H57.9844V160.933H59.7802V159.137Z" fill="#F0F0F0"/>
<path d="M59.7802 162.148H57.9844V163.944H59.7802V162.148Z" fill="#F0F0F0"/>
<path d="M59.7802 165.158H57.9844V166.954H59.7802V165.158Z" fill="#F0F0F0"/>
<path d="M59.7802 168.168H57.9844V169.964H59.7802V168.168Z" fill="#F0F0F0"/>
<path d="M59.7802 171.178H57.9844V172.974H59.7802V171.178Z" fill="#F0F0F0"/>
<path d="M59.7802 174.188H57.9844V175.983H59.7802V174.188Z" fill="#F0F0F0"/>
<path d="M59.7802 177.199H57.9844V178.995H59.7802V177.199Z" fill="#F0F0F0"/>
<path d="M59.7802 180.209H57.9844V182.005H59.7802V180.209Z" fill="#F0F0F0"/>
<path d="M59.7802 183.219H57.9844V185.015H59.7802V183.219Z" fill="#F0F0F0"/>
<path d="M59.7802 186.23H57.9844V188.026H59.7802V186.23Z" fill="#F0F0F0"/>
<path d="M59.7802 189.24H57.9844V191.036H59.7802V189.24Z" fill="#F0F0F0"/>
<path d="M59.7802 192.25H57.9844V194.046H59.7802V192.25Z" fill="#F0F0F0"/>
<path d="M59.7802 195.262H57.9844V197.058H59.7802V195.262Z" fill="#F0F0F0"/>
<path d="M62.6318 138.062H60.8359V139.858H62.6318V138.062Z" fill="#F0F0F0"/>
<path d="M62.6318 141.074H60.8359V142.87H62.6318V141.074Z" fill="#F0F0F0"/>
<path d="M62.6318 144.084H60.8359V145.88H62.6318V144.084Z" fill="#F0F0F0"/>
<path d="M62.6318 147.094H60.8359V148.89H62.6318V147.094Z" fill="#F0F0F0"/>
<path d="M62.6318 150.105H60.8359V151.901H62.6318V150.105Z" fill="#F0F0F0"/>
<path d="M62.6318 153.115H60.8359V154.911H62.6318V153.115Z" fill="#F0F0F0"/>
<path d="M62.6318 156.125H60.8359V157.921H62.6318V156.125Z" fill="#F0F0F0"/>
<path d="M62.6318 159.137H60.8359V160.933H62.6318V159.137Z" fill="#F0F0F0"/>
<path d="M62.6318 162.148H60.8359V163.944H62.6318V162.148Z" fill="#F0F0F0"/>
<path d="M62.6318 165.158H60.8359V166.954H62.6318V165.158Z" fill="#F0F0F0"/>
<path d="M62.6318 168.168H60.8359V169.964H62.6318V168.168Z" fill="#F0F0F0"/>
<path d="M62.6318 171.178H60.8359V172.974H62.6318V171.178Z" fill="#F0F0F0"/>
<path d="M62.6318 174.188H60.8359V175.983H62.6318V174.188Z" fill="#F0F0F0"/>
<path d="M62.6318 177.199H60.8359V178.995H62.6318V177.199Z" fill="#F0F0F0"/>
<path d="M62.6318 180.209H60.8359V182.005H62.6318V180.209Z" fill="#F0F0F0"/>
<path d="M62.6318 183.219H60.8359V185.015H62.6318V183.219Z" fill="#F0F0F0"/>
<path d="M62.6318 186.23H60.8359V188.026H62.6318V186.23Z" fill="#F0F0F0"/>
<path d="M62.6318 189.24H60.8359V191.036H62.6318V189.24Z" fill="#F0F0F0"/>
<path d="M65.4833 138.062H63.6875V139.858H65.4833V138.062Z" fill="#F0F0F0"/>
<path d="M65.4833 141.074H63.6875V142.87H65.4833V141.074Z" fill="#F0F0F0"/>
<path d="M65.4833 144.084H63.6875V145.88H65.4833V144.084Z" fill="#F0F0F0"/>
<path d="M65.4833 147.094H63.6875V148.89H65.4833V147.094Z" fill="#F0F0F0"/>
<path d="M65.4833 150.105H63.6875V151.901H65.4833V150.105Z" fill="#F0F0F0"/>
<path d="M65.4833 153.115H63.6875V154.911H65.4833V153.115Z" fill="#F0F0F0"/>
<path d="M65.4833 156.125H63.6875V157.921H65.4833V156.125Z" fill="#F0F0F0"/>
<path d="M65.4833 159.137H63.6875V160.933H65.4833V159.137Z" fill="#F0F0F0"/>
<path d="M65.4833 162.148H63.6875V163.944H65.4833V162.148Z" fill="#F0F0F0"/>
<path d="M65.4833 165.158H63.6875V166.954H65.4833V165.158Z" fill="#F0F0F0"/>
<path d="M65.4833 168.168H63.6875V169.964H65.4833V168.168Z" fill="#F0F0F0"/>
<path d="M65.4833 171.178H63.6875V172.974H65.4833V171.178Z" fill="#F0F0F0"/>
<path d="M65.4833 174.188H63.6875V175.983H65.4833V174.188Z" fill="#F0F0F0"/>
<path d="M65.4833 177.199H63.6875V178.995H65.4833V177.199Z" fill="#F0F0F0"/>
<path d="M65.4833 180.209H63.6875V182.005H65.4833V180.209Z" fill="#F0F0F0"/>
<path d="M65.4833 183.219H63.6875V185.015H65.4833V183.219Z" fill="#F0F0F0"/>
<path d="M65.4833 186.23H63.6875V188.026H65.4833V186.23Z" fill="#F0F0F0"/>
<path d="M65.4833 189.24H63.6875V191.036H65.4833V189.24Z" fill="#F0F0F0"/>
<path d="M49.1083 160.035H47.3125V161.831H49.1083V160.035Z" fill="#F0F0F0"/>
<path d="M49.1083 163.047H47.3125V164.843H49.1083V163.047Z" fill="#F0F0F0"/>
<path d="M49.1083 166.055H47.3125V167.851H49.1083V166.055Z" fill="#F0F0F0"/>
<path d="M49.1083 169.066H47.3125V170.862H49.1083V169.066Z" fill="#F0F0F0"/>
<path d="M49.1083 172.076H47.3125V173.872H49.1083V172.076Z" fill="#F0F0F0"/>
<path d="M49.1083 175.086H47.3125V176.882H49.1083V175.086Z" fill="#F0F0F0"/>
<path d="M49.1083 178.098H47.3125V179.893H49.1083V178.098Z" fill="#F0F0F0"/>
<path d="M49.1083 181.107H47.3125V182.903H49.1083V181.107Z" fill="#F0F0F0"/>
<path d="M49.1083 184.117H47.3125V185.913H49.1083V184.117Z" fill="#F0F0F0"/>
<path d="M49.1083 187.129H47.3125V188.925H49.1083V187.129Z" fill="#F0F0F0"/>
<path d="M49.1083 190.139H47.3125V191.935H49.1083V190.139Z" fill="#F0F0F0"/>
<path d="M49.1083 193.148H47.3125V194.944H49.1083V193.148Z" fill="#F0F0F0"/>
<path d="M49.1083 196.16H47.3125V197.956H49.1083V196.16Z" fill="#F0F0F0"/>
<path d="M51.9599 160.035H50.1641V161.831H51.9599V160.035Z" fill="#F0F0F0"/>
<path d="M51.9599 163.047H50.1641V164.843H51.9599V163.047Z" fill="#F0F0F0"/>
<path d="M51.9599 166.055H50.1641V167.851H51.9599V166.055Z" fill="#F0F0F0"/>
<path d="M51.9599 169.066H50.1641V170.862H51.9599V169.066Z" fill="#F0F0F0"/>
<path d="M51.9599 172.076H50.1641V173.872H51.9599V172.076Z" fill="#F0F0F0"/>
<path d="M51.9599 175.086H50.1641V176.882H51.9599V175.086Z" fill="#F0F0F0"/>
<path d="M51.9599 178.098H50.1641V179.893H51.9599V178.098Z" fill="#F0F0F0"/>
<path d="M51.9599 181.107H50.1641V182.903H51.9599V181.107Z" fill="#F0F0F0"/>
<path d="M51.9599 184.117H50.1641V185.913H51.9599V184.117Z" fill="#F0F0F0"/>
<path d="M51.9599 187.129H50.1641V188.925H51.9599V187.129Z" fill="#F0F0F0"/>
<path d="M51.9599 190.139H50.1641V191.935H51.9599V190.139Z" fill="#F0F0F0"/>
<path d="M51.9599 193.148H50.1641V194.944H51.9599V193.148Z" fill="#F0F0F0"/>
<path d="M51.9599 196.16H50.1641V197.956H51.9599V196.16Z" fill="#F0F0F0"/>
<path d="M54.8115 160.035H53.0156V161.831H54.8115V160.035Z" fill="#F0F0F0"/>
<path d="M54.8115 163.047H53.0156V164.843H54.8115V163.047Z" fill="#F0F0F0"/>
<path d="M54.8115 166.055H53.0156V167.851H54.8115V166.055Z" fill="#F0F0F0"/>
<path d="M54.8115 169.066H53.0156V170.862H54.8115V169.066Z" fill="#F0F0F0"/>
<path d="M54.8115 172.076H53.0156V173.872H54.8115V172.076Z" fill="#F0F0F0"/>
<path d="M54.8115 175.086H53.0156V176.882H54.8115V175.086Z" fill="#F0F0F0"/>
<path d="M54.8115 178.098H53.0156V179.893H54.8115V178.098Z" fill="#F0F0F0"/>
<path d="M54.8115 181.107H53.0156V182.903H54.8115V181.107Z" fill="#F0F0F0"/>
<path d="M54.8115 184.117H53.0156V185.913H54.8115V184.117Z" fill="#F0F0F0"/>
<path d="M54.8115 187.129H53.0156V188.925H54.8115V187.129Z" fill="#F0F0F0"/>
<path d="M54.8115 190.139H53.0156V191.935H54.8115V190.139Z" fill="#F0F0F0"/>
<path d="M54.8115 193.148H53.0156V194.944H54.8115V193.148Z" fill="#F0F0F0"/>
<path d="M54.8115 196.16H53.0156V197.956H54.8115V196.16Z" fill="#F0F0F0"/>
<path d="M54.8115 199.17H53.0156V200.966H54.8115V199.17Z" fill="#F0F0F0"/>
<path d="M70.6552 160.932H68.8594V162.728H70.6552V160.932Z" fill="#F0F0F0"/>
<path d="M70.6552 163.941H68.8594V165.737H70.6552V163.941Z" fill="#F0F0F0"/>
<path d="M70.6552 166.953H68.8594V168.749H70.6552V166.953Z" fill="#F0F0F0"/>
<path d="M70.6552 169.963H68.8594V171.759H70.6552V169.963Z" fill="#F0F0F0"/>
<path d="M70.6552 172.973H68.8594V174.768H70.6552V172.973Z" fill="#F0F0F0"/>
<path d="M70.6552 175.984H68.8594V177.78H70.6552V175.984Z" fill="#F0F0F0"/>
<path d="M70.6552 178.994H68.8594V180.79H70.6552V178.994Z" fill="#F0F0F0"/>
<path d="M70.6552 182.004H68.8594V183.8H70.6552V182.004Z" fill="#F0F0F0"/>
<path d="M70.6552 185.016H68.8594V186.811H70.6552V185.016Z" fill="#F0F0F0"/>
<path d="M70.6552 188.027H68.8594V189.823H70.6552V188.027Z" fill="#F0F0F0"/>
<path d="M70.6552 197.059H68.8594V198.854H70.6552V197.059Z" fill="#F0F0F0"/>
<path d="M73.5068 160.932H71.7109V162.728H73.5068V160.932Z" fill="#F0F0F0"/>
<path d="M73.5068 163.943H71.7109V165.739H73.5068V163.943Z" fill="#F0F0F0"/>
<path d="M73.5068 166.953H71.7109V168.749H73.5068V166.953Z" fill="#F0F0F0"/>
<path d="M73.5068 169.963H71.7109V171.759H73.5068V169.963Z" fill="#F0F0F0"/>
<path d="M73.5068 172.975H71.7109V174.77H73.5068V172.975Z" fill="#F0F0F0"/>
<path d="M73.5068 175.984H71.7109V177.78H73.5068V175.984Z" fill="#F0F0F0"/>
<path d="M73.5068 178.994H71.7109V180.79H73.5068V178.994Z" fill="#F0F0F0"/>
<path d="M73.5068 182.006H71.7109V183.802H73.5068V182.006Z" fill="#F0F0F0"/>
<path d="M73.5068 185.016H71.7109V186.811H73.5068V185.016Z" fill="#F0F0F0"/>
<path d="M73.5068 194.047H71.7109V195.843H73.5068V194.047Z" fill="#F0F0F0"/>
<path d="M73.5068 197.059H71.7109V198.854H73.5068V197.059Z" fill="#F0F0F0"/>
<path d="M76.3583 160.932H74.5625V162.728H76.3583V160.932Z" fill="#F0F0F0"/>
<path d="M76.3583 163.941H74.5625V165.737H76.3583V163.941Z" fill="#F0F0F0"/>
<path d="M76.3583 166.953H74.5625V168.749H76.3583V166.953Z" fill="#F0F0F0"/>
<path d="M76.3583 169.963H74.5625V171.759H76.3583V169.963Z" fill="#F0F0F0"/>
<path d="M76.3583 172.973H74.5625V174.768H76.3583V172.973Z" fill="#F0F0F0"/>
<path d="M76.3583 175.984H74.5625V177.78H76.3583V175.984Z" fill="#F0F0F0"/>
<path d="M76.3583 178.994H74.5625V180.79H76.3583V178.994Z" fill="#F0F0F0"/>
<path d="M76.3583 182.004H74.5625V183.8H76.3583V182.004Z" fill="#F0F0F0"/>
<path d="M76.3583 191.035H74.5625V192.831H76.3583V191.035Z" fill="#F0F0F0"/>
<path d="M76.3583 194.047H74.5625V195.843H76.3583V194.047Z" fill="#F0F0F0"/>
<path d="M76.3583 197.059H74.5625V198.854H76.3583V197.059Z" fill="#F0F0F0"/>
<path d="M102.874 115.195H101.078V116.991H102.874V115.195Z" fill="#F0F0F0"/>
<path d="M102.874 118.207H101.078V120.003H102.874V118.207Z" fill="#F0F0F0"/>
<path d="M102.874 121.215H101.078V123.011H102.874V121.215Z" fill="#F0F0F0"/>
<path d="M102.874 124.227H101.078V126.022H102.874V124.227Z" fill="#F0F0F0"/>
<path d="M102.874 127.238H101.078V129.034H102.874V127.238Z" fill="#F0F0F0"/>
<path d="M102.874 130.246H101.078V132.042H102.874V130.246Z" fill="#F0F0F0"/>
<path d="M102.874 133.258H101.078V135.054H102.874V133.258Z" fill="#F0F0F0"/>
<path d="M102.874 136.268H101.078V138.063H102.874V136.268Z" fill="#F0F0F0"/>
<path d="M102.874 139.277H101.078V141.073H102.874V139.277Z" fill="#F0F0F0"/>
<path d="M102.874 142.289H101.078V144.085H102.874V142.289Z" fill="#F0F0F0"/>
<path d="M102.874 145.301H101.078V147.097H102.874V145.301Z" fill="#F0F0F0"/>
<path d="M102.874 148.311H101.078V150.106H102.874V148.311Z" fill="#F0F0F0"/>
<path d="M102.874 151.32H101.078V153.116H102.874V151.32Z" fill="#F0F0F0"/>
<path d="M102.874 154.332H101.078V156.128H102.874V154.332Z" fill="#F0F0F0"/>
<path d="M102.874 157.342H101.078V159.138H102.874V157.342Z" fill="#F0F0F0"/>
<path d="M102.874 160.352H101.078V162.147H102.874V160.352Z" fill="#F0F0F0"/>
<path d="M102.874 163.363H101.078V165.159H102.874V163.363Z" fill="#F0F0F0"/>
<path d="M102.874 169.383H101.078V171.179H102.874V169.383Z" fill="#F0F0F0"/>
<path d="M102.874 172.393H101.078V174.188H102.874V172.393Z" fill="#F0F0F0"/>
<path d="M102.874 175.402H101.078V177.198H102.874V175.402Z" fill="#F0F0F0"/>
<path d="M102.874 178.414H101.078V180.21H102.874V178.414Z" fill="#F0F0F0"/>
<path d="M102.874 181.424H101.078V183.22H102.874V181.424Z" fill="#F0F0F0"/>
<path d="M105.726 115.195H103.93V116.991H105.726V115.195Z" fill="#F0F0F0"/>
<path d="M105.726 118.207H103.93V120.003H105.726V118.207Z" fill="#F0F0F0"/>
<path d="M105.726 121.215H103.93V123.011H105.726V121.215Z" fill="#F0F0F0"/>
<path d="M105.726 124.227H103.93V126.022H105.726V124.227Z" fill="#F0F0F0"/>
<path d="M105.726 127.236H103.93V129.032H105.726V127.236Z" fill="#F0F0F0"/>
<path d="M105.726 130.246H103.93V132.042H105.726V130.246Z" fill="#F0F0F0"/>
<path d="M105.726 133.258H103.93V135.054H105.726V133.258Z" fill="#F0F0F0"/>
<path d="M105.726 136.268H103.93V138.063H105.726V136.268Z" fill="#F0F0F0"/>
<path d="M105.726 139.277H103.93V141.073H105.726V139.277Z" fill="#F0F0F0"/>
<path d="M105.726 142.289H103.93V144.085H105.726V142.289Z" fill="#F0F0F0"/>
<path d="M105.726 145.299H103.93V147.095H105.726V145.299Z" fill="#F0F0F0"/>
<path d="M105.726 148.311H103.93V150.106H105.726V148.311Z" fill="#F0F0F0"/>
<path d="M105.726 151.32H103.93V153.116H105.726V151.32Z" fill="#F0F0F0"/>
<path d="M105.726 154.33H103.93V156.126H105.726V154.33Z" fill="#F0F0F0"/>
<path d="M105.726 157.342H103.93V159.138H105.726V157.342Z" fill="#F0F0F0"/>
<path d="M105.726 160.352H103.93V162.147H105.726V160.352Z" fill="#F0F0F0"/>
<path d="M105.726 178.414H103.93V180.21H105.726V178.414Z" fill="#F0F0F0"/>
<path d="M105.726 181.424H103.93V183.22H105.726V181.424Z" fill="#F0F0F0"/>
<path d="M108.577 115.195H106.781V116.991H108.577V115.195Z" fill="#F0F0F0"/>
<path d="M108.577 118.207H106.781V120.003H108.577V118.207Z" fill="#F0F0F0"/>
<path d="M108.577 121.215H106.781V123.011H108.577V121.215Z" fill="#F0F0F0"/>
<path d="M108.577 124.227H106.781V126.022H108.577V124.227Z" fill="#F0F0F0"/>
<path d="M108.577 127.238H106.781V129.034H108.577V127.238Z" fill="#F0F0F0"/>
<path d="M108.577 130.246H106.781V132.042H108.577V130.246Z" fill="#F0F0F0"/>
<path d="M108.577 133.258H106.781V135.054H108.577V133.258Z" fill="#F0F0F0"/>
<path d="M108.577 136.268H106.781V138.063H108.577V136.268Z" fill="#F0F0F0"/>
<path d="M108.577 139.277H106.781V141.073H108.577V139.277Z" fill="#F0F0F0"/>
<path d="M108.577 142.289H106.781V144.085H108.577V142.289Z" fill="#F0F0F0"/>
<path d="M108.577 145.301H106.781V147.097H108.577V145.301Z" fill="#F0F0F0"/>
<path d="M108.577 148.311H106.781V150.106H108.577V148.311Z" fill="#F0F0F0"/>
<path d="M108.577 151.32H106.781V153.116H108.577V151.32Z" fill="#F0F0F0"/>
<path d="M108.577 154.332H106.781V156.128H108.577V154.332Z" fill="#F0F0F0"/>
<path d="M108.577 157.342H106.781V159.138H108.577V157.342Z" fill="#F0F0F0"/>
<path d="M108.577 160.352H106.781V162.147H108.577V160.352Z" fill="#F0F0F0"/>
<path d="M108.577 166.373H106.781V168.169H108.577V166.373Z" fill="#F0F0F0"/>
<path d="M108.577 169.383H106.781V171.179H108.577V169.383Z" fill="#F0F0F0"/>
<path d="M108.577 172.393H106.781V174.188H108.577V172.393Z" fill="#F0F0F0"/>
<path d="M108.577 175.402H106.781V177.198H108.577V175.402Z" fill="#F0F0F0"/>
<path d="M108.577 181.424H106.781V183.22H108.577V181.424Z" fill="#F0F0F0"/>
<path d="M92.5224 153.115H90.7266V154.911H92.5224V153.115Z" fill="#F0F0F0"/>
<path d="M92.5224 156.125H90.7266V157.921H92.5224V156.125Z" fill="#F0F0F0"/>
<path d="M92.5224 159.137H90.7266V160.933H92.5224V159.137Z" fill="#F0F0F0"/>
<path d="M92.5224 162.148H90.7266V163.944H92.5224V162.148Z" fill="#F0F0F0"/>
<path d="M92.5224 165.158H90.7266V166.954H92.5224V165.158Z" fill="#F0F0F0"/>
<path d="M92.5224 168.168H90.7266V169.964H92.5224V168.168Z" fill="#F0F0F0"/>
<path d="M92.5224 171.178H90.7266V172.974H92.5224V171.178Z" fill="#F0F0F0"/>
<path d="M92.5224 177.199H90.7266V178.995H92.5224V177.199Z" fill="#F0F0F0"/>
<path d="M92.5224 180.209H90.7266V182.005H92.5224V180.209Z" fill="#F0F0F0"/>
<path d="M92.5224 183.219H90.7266V185.015H92.5224V183.219Z" fill="#F0F0F0"/>
<path d="M92.5224 186.23H90.7266V188.026H92.5224V186.23Z" fill="#F0F0F0"/>
<path d="M92.5224 189.24H90.7266V191.036H92.5224V189.24Z" fill="#F0F0F0"/>
<path d="M92.5224 192.252H90.7266V194.048H92.5224V192.252Z" fill="#F0F0F0"/>
<path d="M92.5224 195.262H90.7266V197.058H92.5224V195.262Z" fill="#F0F0F0"/>
<path d="M92.5224 198.271H90.7266V200.067H92.5224V198.271Z" fill="#F0F0F0"/>
<path d="M95.374 153.115H93.5781V154.911H95.374V153.115Z" fill="#F0F0F0"/>
<path d="M95.374 156.125H93.5781V157.921H95.374V156.125Z" fill="#F0F0F0"/>
<path d="M95.374 159.137H93.5781V160.933H95.374V159.137Z" fill="#F0F0F0"/>
<path d="M95.374 162.148H93.5781V163.944H95.374V162.148Z" fill="#F0F0F0"/>
<path d="M95.374 165.158H93.5781V166.954H95.374V165.158Z" fill="#F0F0F0"/>
<path d="M95.374 168.168H93.5781V169.964H95.374V168.168Z" fill="#F0F0F0"/>
<path d="M95.374 177.199H93.5781V178.995H95.374V177.199Z" fill="#F0F0F0"/>
<path d="M95.374 180.209H93.5781V182.005H95.374V180.209Z" fill="#F0F0F0"/>
<path d="M95.374 183.219H93.5781V185.015H95.374V183.219Z" fill="#F0F0F0"/>
<path d="M95.374 186.23H93.5781V188.026H95.374V186.23Z" fill="#F0F0F0"/>
<path d="M95.374 189.24H93.5781V191.036H95.374V189.24Z" fill="#F0F0F0"/>
<path d="M95.374 192.25H93.5781V194.046H95.374V192.25Z" fill="#F0F0F0"/>
<path d="M95.374 195.262H93.5781V197.058H95.374V195.262Z" fill="#F0F0F0"/>
<path d="M95.374 198.271H93.5781V200.067H95.374V198.271Z" fill="#F0F0F0"/>
<path d="M98.2255 153.115H96.4297V154.911H98.2255V153.115Z" fill="#F0F0F0"/>
<path d="M98.2255 156.125H96.4297V157.921H98.2255V156.125Z" fill="#F0F0F0"/>
<path d="M98.2255 159.137H96.4297V160.933H98.2255V159.137Z" fill="#F0F0F0"/>
<path d="M98.2255 162.148H96.4297V163.944H98.2255V162.148Z" fill="#F0F0F0"/>
<path d="M98.2255 165.158H96.4297V166.954H98.2255V165.158Z" fill="#F0F0F0"/>
<path d="M98.2255 168.168H96.4297V169.964H98.2255V168.168Z" fill="#F0F0F0"/>
<path d="M98.2255 174.188H96.4297V175.983H98.2255V174.188Z" fill="#F0F0F0"/>
<path d="M98.2255 177.199H96.4297V178.995H98.2255V177.199Z" fill="#F0F0F0"/>
<path d="M98.2255 180.209H96.4297V182.005H98.2255V180.209Z" fill="#F0F0F0"/>
<path d="M98.2255 183.219H96.4297V185.015H98.2255V183.219Z" fill="#F0F0F0"/>
<path d="M98.2255 186.23H96.4297V188.026H98.2255V186.23Z" fill="#F0F0F0"/>
<path d="M98.2255 189.24H96.4297V191.036H98.2255V189.24Z" fill="#F0F0F0"/>
<path d="M98.2255 192.252H96.4297V194.048H98.2255V192.252Z" fill="#F0F0F0"/>
<path d="M98.2255 195.262H96.4297V197.058H98.2255V195.262Z" fill="#F0F0F0"/>
<path d="M98.2255 198.271H96.4297V200.067H98.2255V198.271Z" fill="#F0F0F0"/>
<path d="M158.327 136.268H156.531V138.063H158.327V136.268Z" fill="#F0F0F0"/>
<path d="M158.327 139.277H156.531V141.073H158.327V139.277Z" fill="#F0F0F0"/>
<path d="M158.327 142.289H156.531V144.085H158.327V142.289Z" fill="#F0F0F0"/>
<path d="M158.327 145.301H156.531V147.097H158.327V145.301Z" fill="#F0F0F0"/>
<path d="M158.327 148.311H156.531V150.106H158.327V148.311Z" fill="#F0F0F0"/>
<path d="M158.327 151.32H156.531V153.116H158.327V151.32Z" fill="#F0F0F0"/>
<path d="M158.327 154.332H156.531V156.128H158.327V154.332Z" fill="#F0F0F0"/>
<path d="M158.327 157.342H156.531V159.138H158.327V157.342Z" fill="#F0F0F0"/>
<path d="M158.327 160.352H156.531V162.147H158.327V160.352Z" fill="#F0F0F0"/>
<path d="M158.327 163.363H156.531V165.159H158.327V163.363Z" fill="#F0F0F0"/>
<path d="M158.327 166.373H156.531V168.169H158.327V166.373Z" fill="#F0F0F0"/>
<path d="M158.327 169.383H156.531V171.179H158.327V169.383Z" fill="#F0F0F0"/>
<path d="M158.327 172.393H156.531V174.188H158.327V172.393Z" fill="#F0F0F0"/>
<path d="M158.327 178.414H156.531V180.21H158.327V178.414Z" fill="#F0F0F0"/>
<path d="M158.327 181.424H156.531V183.22H158.327V181.424Z" fill="#F0F0F0"/>
<path d="M158.327 184.434H156.531V186.229H158.327V184.434Z" fill="#F0F0F0"/>
<path d="M158.327 187.445H156.531V189.241H158.327V187.445Z" fill="#F0F0F0"/>
<path d="M158.327 193.465H156.531V195.261H158.327V193.465Z" fill="#F0F0F0"/>
<path d="M158.327 196.477H156.531V198.272H158.327V196.477Z" fill="#F0F0F0"/>
<path d="M158.327 199.486H156.531V201.282H158.327V199.486Z" fill="#F0F0F0"/>
<path d="M161.179 136.268H159.383V138.063H161.179V136.268Z" fill="#F0F0F0"/>
<path d="M161.179 139.277H159.383V141.073H161.179V139.277Z" fill="#F0F0F0"/>
<path d="M161.179 142.289H159.383V144.085H161.179V142.289Z" fill="#F0F0F0"/>
<path d="M161.179 145.299H159.383V147.095H161.179V145.299Z" fill="#F0F0F0"/>
<path d="M161.179 148.311H159.383V150.106H161.179V148.311Z" fill="#F0F0F0"/>
<path d="M161.179 151.32H159.383V153.116H161.179V151.32Z" fill="#F0F0F0"/>
<path d="M161.179 154.33H159.383V156.126H161.179V154.33Z" fill="#F0F0F0"/>
<path d="M161.179 157.342H159.383V159.138H161.179V157.342Z" fill="#F0F0F0"/>
<path d="M161.179 160.352H159.383V162.147H161.179V160.352Z" fill="#F0F0F0"/>
<path d="M161.179 163.363H159.383V165.159H161.179V163.363Z" fill="#F0F0F0"/>
<path d="M161.179 166.373H159.383V168.169H161.179V166.373Z" fill="#F0F0F0"/>
<path d="M161.179 169.383H159.383V171.179H161.179V169.383Z" fill="#F0F0F0"/>
<path d="M161.179 172.393H159.383V174.188H161.179V172.393Z" fill="#F0F0F0"/>
<path d="M161.179 181.424H159.383V183.22H161.179V181.424Z" fill="#F0F0F0"/>
<path d="M161.179 184.434H159.383V186.229H161.179V184.434Z" fill="#F0F0F0"/>
<path d="M161.179 190.455H159.383V192.251H161.179V190.455Z" fill="#F0F0F0"/>
<path d="M161.179 193.465H159.383V195.261H161.179V193.465Z" fill="#F0F0F0"/>
<path d="M161.179 196.477H159.383V198.272H161.179V196.477Z" fill="#F0F0F0"/>
<path d="M161.179 199.486H159.383V201.282H161.179V199.486Z" fill="#F0F0F0"/>
<path d="M164.03 136.268H162.234V138.063H164.03V136.268Z" fill="#F0F0F0"/>
<path d="M164.03 139.277H162.234V141.073H164.03V139.277Z" fill="#F0F0F0"/>
<path d="M164.03 142.289H162.234V144.085H164.03V142.289Z" fill="#F0F0F0"/>
<path d="M164.03 145.301H162.234V147.097H164.03V145.301Z" fill="#F0F0F0"/>
<path d="M164.03 148.311H162.234V150.106H164.03V148.311Z" fill="#F0F0F0"/>
<path d="M164.03 151.32H162.234V153.116H164.03V151.32Z" fill="#F0F0F0"/>
<path d="M164.03 154.332H162.234V156.128H164.03V154.332Z" fill="#F0F0F0"/>
<path d="M164.03 157.342H162.234V159.138H164.03V157.342Z" fill="#F0F0F0"/>
<path d="M164.03 160.352H162.234V162.147H164.03V160.352Z" fill="#F0F0F0"/>
<path d="M164.03 163.363H162.234V165.159H164.03V163.363Z" fill="#F0F0F0"/>
<path d="M164.03 166.373H162.234V168.169H164.03V166.373Z" fill="#F0F0F0"/>
<path d="M164.03 169.383H162.234V171.179H164.03V169.383Z" fill="#F0F0F0"/>
<path d="M164.03 172.393H162.234V174.188H164.03V172.393Z" fill="#F0F0F0"/>
<path d="M164.03 175.402H162.234V177.198H164.03V175.402Z" fill="#F0F0F0"/>
<path d="M164.03 181.424H162.234V183.22H164.03V181.424Z" fill="#F0F0F0"/>
<path d="M164.03 187.445H162.234V189.241H164.03V187.445Z" fill="#F0F0F0"/>
<path d="M164.03 190.455H162.234V192.251H164.03V190.455Z" fill="#F0F0F0"/>
<path d="M164.03 193.465H162.234V195.261H164.03V193.465Z" fill="#F0F0F0"/>
<path d="M164.03 196.477H162.234V198.272H164.03V196.477Z" fill="#F0F0F0"/>
<path d="M164.03 199.486H162.234V201.282H164.03V199.486Z" fill="#F0F0F0"/>
<path d="M146.71 153.434H144.914V155.229H146.71V153.434Z" fill="#F0F0F0"/>
<path d="M146.71 156.443H144.914V158.239H146.71V156.443Z" fill="#F0F0F0"/>
<path d="M146.71 159.453H144.914V161.249H146.71V159.453Z" fill="#F0F0F0"/>
<path d="M146.71 162.465H144.914V164.261H146.71V162.465Z" fill="#F0F0F0"/>
<path d="M146.71 165.473H144.914V167.268H146.71V165.473Z" fill="#F0F0F0"/>
<path d="M146.71 168.484H144.914V170.28H146.71V168.484Z" fill="#F0F0F0"/>
<path d="M146.71 177.516H144.914V179.311H146.71V177.516Z" fill="#F0F0F0"/>
<path d="M146.71 180.527H144.914V182.323H146.71V180.527Z" fill="#F0F0F0"/>
<path d="M146.71 183.535H144.914V185.331H146.71V183.535Z" fill="#F0F0F0"/>
<path d="M146.71 186.547H144.914V188.343H146.71V186.547Z" fill="#F0F0F0"/>
<path d="M146.71 189.559H144.914V191.354H146.71V189.559Z" fill="#F0F0F0"/>
<path d="M146.71 192.568H144.914V194.364H146.71V192.568Z" fill="#F0F0F0"/>
<path d="M146.71 195.578H144.914V197.374H146.71V195.578Z" fill="#F0F0F0"/>
<path d="M149.561 153.434H147.766V155.229H149.561V153.434Z" fill="#F0F0F0"/>
<path d="M149.561 156.443H147.766V158.239H149.561V156.443Z" fill="#F0F0F0"/>
<path d="M149.561 159.453H147.766V161.249H149.561V159.453Z" fill="#F0F0F0"/>
<path d="M149.561 162.465H147.766V164.261H149.561V162.465Z" fill="#F0F0F0"/>
<path d="M149.561 165.473H147.766V167.268H149.561V165.473Z" fill="#F0F0F0"/>
<path d="M149.561 168.484H147.766V170.28H149.561V168.484Z" fill="#F0F0F0"/>
<path d="M149.561 177.516H147.766V179.311H149.561V177.516Z" fill="#F0F0F0"/>
<path d="M149.561 180.527H147.766V182.323H149.561V180.527Z" fill="#F0F0F0"/>
<path d="M149.561 183.535H147.766V185.331H149.561V183.535Z" fill="#F0F0F0"/>
<path d="M149.561 186.549H147.766V188.345H149.561V186.549Z" fill="#F0F0F0"/>
<path d="M149.561 189.559H147.766V191.354H149.561V189.559Z" fill="#F0F0F0"/>
<path d="M149.561 192.568H147.766V194.364H149.561V192.568Z" fill="#F0F0F0"/>
<path d="M149.561 198.588H147.766V200.384H149.561V198.588Z" fill="#F0F0F0"/>
<path d="M244.311 140.176H242.516V141.972H244.311V140.176Z" fill="#F0F0F0"/>
<path d="M244.311 143.188H242.516V144.983H244.311V143.188Z" fill="#F0F0F0"/>
<path d="M244.311 146.195H242.516V147.991H244.311V146.195Z" fill="#F0F0F0"/>
<path d="M244.311 149.209H242.516V151.005H244.311V149.209Z" fill="#F0F0F0"/>
<path d="M244.311 152.219H242.516V154.015H244.311V152.219Z" fill="#F0F0F0"/>
<path d="M244.311 155.229H242.516V157.024H244.311V155.229Z" fill="#F0F0F0"/>
<path d="M244.311 158.24H242.516V160.036H244.311V158.24Z" fill="#F0F0F0"/>
<path d="M244.311 161.25H242.516V163.046H244.311V161.25Z" fill="#F0F0F0"/>
<path d="M244.311 164.26H242.516V166.056H244.311V164.26Z" fill="#F0F0F0"/>
<path d="M244.311 167.271H242.516V169.067H244.311V167.271Z" fill="#F0F0F0"/>
<path d="M244.311 170.279H242.516V172.075H244.311V170.279Z" fill="#F0F0F0"/>
<path d="M244.311 176.301H242.516V178.097H244.311V176.301Z" fill="#F0F0F0"/>
<path d="M244.311 179.311H242.516V181.106H244.311V179.311Z" fill="#F0F0F0"/>
<path d="M244.311 182.322H242.516V184.118H244.311V182.322Z" fill="#F0F0F0"/>
<path d="M244.311 185.332H242.516V187.128H244.311V185.332Z" fill="#F0F0F0"/>
<path d="M244.311 188.342H242.516V190.138H244.311V188.342Z" fill="#F0F0F0"/>
<path d="M244.311 191.354H242.516V193.149H244.311V191.354Z" fill="#F0F0F0"/>
<path d="M244.311 194.363H242.516V196.159H244.311V194.363Z" fill="#F0F0F0"/>
<path d="M244.311 197.373H242.516V199.169H244.311V197.373Z" fill="#F0F0F0"/>
<path d="M247.163 140.176H245.367V141.972H247.163V140.176Z" fill="#F0F0F0"/>
<path d="M247.163 143.188H245.367V144.983H247.163V143.188Z" fill="#F0F0F0"/>
<path d="M247.163 146.195H245.367V147.991H247.163V146.195Z" fill="#F0F0F0"/>
<path d="M247.163 149.207H245.367V151.003H247.163V149.207Z" fill="#F0F0F0"/>
<path d="M247.163 152.219H245.367V154.015H247.163V152.219Z" fill="#F0F0F0"/>
<path d="M247.163 155.229H245.367V157.024H247.163V155.229Z" fill="#F0F0F0"/>
<path d="M247.163 158.238H245.367V160.034H247.163V158.238Z" fill="#F0F0F0"/>
<path d="M247.163 161.25H245.367V163.046H247.163V161.25Z" fill="#F0F0F0"/>
<path d="M247.163 164.26H245.367V166.056H247.163V164.26Z" fill="#F0F0F0"/>
<path d="M247.163 167.27H245.367V169.065H247.163V167.27Z" fill="#F0F0F0"/>
<path d="M247.163 170.281H245.367V172.077H247.163V170.281Z" fill="#F0F0F0"/>
<path d="M247.163 173.291H245.367V175.087H247.163V173.291Z" fill="#F0F0F0"/>
<path d="M247.163 176.301H245.367V178.097H247.163V176.301Z" fill="#F0F0F0"/>
<path d="M247.163 179.312H245.367V181.108H247.163V179.312Z" fill="#F0F0F0"/>
<path d="M247.163 182.322H245.367V184.118H247.163V182.322Z" fill="#F0F0F0"/>
<path d="M247.163 185.332H245.367V187.128H247.163V185.332Z" fill="#F0F0F0"/>
<path d="M247.163 188.344H245.367V190.14H247.163V188.344Z" fill="#F0F0F0"/>
<path d="M247.163 191.354H245.367V193.149H247.163V191.354Z" fill="#F0F0F0"/>
<path d="M247.163 194.363H245.367V196.159H247.163V194.363Z" fill="#F0F0F0"/>
<path d="M247.163 197.375H245.367V199.171H247.163V197.375Z" fill="#F0F0F0"/>
<path d="M230.265 151.9H228.469V153.696H230.265V151.9Z" fill="#F0F0F0"/>
<path d="M230.265 154.912H228.469V156.708H230.265V154.912Z" fill="#F0F0F0"/>
<path d="M230.265 157.922H228.469V159.718H230.265V157.922Z" fill="#F0F0F0"/>
<path d="M230.265 160.932H228.469V162.728H230.265V160.932Z" fill="#F0F0F0"/>
<path d="M230.265 163.941H228.469V165.737H230.265V163.941Z" fill="#F0F0F0"/>
<path d="M230.265 166.953H228.469V168.749H230.265V166.953Z" fill="#F0F0F0"/>
<path d="M230.265 169.963H228.469V171.759H230.265V169.963Z" fill="#F0F0F0"/>
<path d="M230.265 172.973H228.469V174.768H230.265V172.973Z" fill="#F0F0F0"/>
<path d="M230.265 175.984H228.469V177.78H230.265V175.984Z" fill="#F0F0F0"/>
<path d="M230.265 178.994H228.469V180.79H230.265V178.994Z" fill="#F0F0F0"/>
<path d="M233.116 151.9H231.32V153.696H233.116V151.9Z" fill="#F0F0F0"/>
<path d="M233.116 154.912H231.32V156.708H233.116V154.912Z" fill="#F0F0F0"/>
<path d="M233.116 157.922H231.32V159.718H233.116V157.922Z" fill="#F0F0F0"/>
<path d="M233.116 160.932H231.32V162.728H233.116V160.932Z" fill="#F0F0F0"/>
<path d="M233.116 163.943H231.32V165.739H233.116V163.943Z" fill="#F0F0F0"/>
<path d="M233.116 166.953H231.32V168.749H233.116V166.953Z" fill="#F0F0F0"/>
<path d="M233.116 169.963H231.32V171.759H233.116V169.963Z" fill="#F0F0F0"/>
<path d="M233.116 172.975H231.32V174.77H233.116V172.975Z" fill="#F0F0F0"/>
<path d="M233.116 175.984H231.32V177.78H233.116V175.984Z" fill="#F0F0F0"/>
<path d="M93.467 79.8961C93.467 76.8129 90.967 74.3129 87.8838 74.3129C87.3265 74.3129 86.7889 74.3971 86.2804 74.5491C86.3615 73.9893 86.4058 73.4175 86.4058 72.8349C86.4058 66.3051 81.1126 61.0119 74.5828 61.0119C73.8387 61.0119 73.1111 61.0841 72.4051 61.2158C70.5877 58.2415 67.3215 56.25 63.581 56.25C57.9199 56.25 53.3278 60.7985 53.2435 66.44C53.1859 66.4387 53.1296 66.4311 53.0713 66.4311C47.811 66.4311 43.5469 70.6953 43.5469 75.9555C43.5469 81.2157 47.811 85.4793 53.0713 85.4793H88.0478L88.0408 85.4717C91.0512 85.3875 93.467 82.9267 93.467 79.8961Z" fill="#F0F0F0"/>
<path d="M138.891 69.8579C138.891 67.8892 140.486 66.2928 142.455 66.2928C142.811 66.2928 143.154 66.3466 143.479 66.4435C143.427 66.0864 143.399 65.721 143.399 65.3493C143.399 61.1801 146.779 57.8005 150.948 57.8005C151.424 57.8005 151.888 57.8468 152.339 57.9304C153.499 56.0313 155.584 54.7598 157.972 54.7598C161.587 54.7598 164.519 57.6638 164.573 61.2656C164.609 61.2649 164.645 61.2599 164.682 61.2599C168.041 61.2599 170.763 63.9821 170.763 67.3408C170.763 70.6995 168.041 73.4217 164.682 73.4217H142.351L142.355 73.4166C140.433 73.3641 138.891 71.793 138.891 69.8579Z" fill="#F0F0F0"/>
<path d="M242.383 78.7303C242.383 76.7616 243.979 75.1658 245.947 75.1658C246.303 75.1658 246.646 75.2197 246.971 75.3166C246.919 74.9594 246.891 74.594 246.891 74.2223C246.891 70.0531 250.27 66.6736 254.44 66.6736C254.914 66.6736 255.379 66.7198 255.83 66.8034C256.99 64.9043 259.076 63.6328 261.464 63.6328C265.078 63.6328 268.01 66.5368 268.064 70.1386C268.101 70.138 268.137 70.1329 268.174 70.1329C271.532 70.1329 274.255 72.8552 274.255 76.2138C274.255 79.5725 271.532 82.2947 268.174 82.2947H245.842L245.847 82.2897C243.925 82.2365 242.383 80.6648 242.383 78.7303Z" fill="#F0F0F0"/>
<path d="M100.289 34.2601C100.289 33.0537 101.267 32.0767 102.472 32.0767C102.69 32.0767 102.9 32.1096 103.099 32.1691C103.068 31.95 103.051 31.7265 103.051 31.4985C103.051 28.9447 105.121 26.8741 107.675 26.8741C107.966 26.8741 108.251 26.9025 108.527 26.9538C109.237 25.7906 110.515 25.0117 111.978 25.0117C114.192 25.0117 115.988 26.7911 116.021 28.9973C116.044 28.9966 116.065 28.9941 116.088 28.9941C118.146 28.9941 119.813 30.662 119.813 32.7194C119.813 34.7768 118.146 36.4447 116.088 36.4447H102.408L102.41 36.4415C101.234 36.408 100.289 35.4455 100.289 34.2601Z" fill="#F0F0F0"/>
<path d="M193.344 35.8538C193.344 34.6475 194.321 33.6698 195.527 33.6698C195.745 33.6698 195.955 33.7027 196.154 33.7622C196.122 33.5431 196.105 33.3196 196.105 33.0916C196.105 30.5378 198.176 28.4678 200.73 28.4678C201.021 28.4678 201.305 28.4963 201.581 28.5476C202.292 27.3843 203.57 26.6055 205.033 26.6055C207.247 26.6055 209.043 28.3842 209.076 30.591C209.099 30.5904 209.12 30.5879 209.143 30.5879C211.2 30.5879 212.868 32.2558 212.868 34.3131C212.868 36.3705 211.2 38.0384 209.143 38.0384H195.463L195.465 38.0353C194.289 38.0011 193.344 37.0386 193.344 35.8538Z" fill="#F0F0F0"/>
<path d="M158.597 236.326C226.404 236.326 281.373 233.116 281.373 229.156C281.373 225.196 226.404 221.986 158.597 221.986C90.7892 221.986 35.8203 225.196 35.8203 229.156C35.8203 233.116 90.7892 236.326 158.597 236.326Z" fill="#F5F5F5"/>
<path d="M54.258 110.732H46.6953V219.832H54.258V110.732Z" fill="#407BFF"/>
<path d="M68.8049 133.85H61.2422V219.832H68.8049V133.85Z" fill="#407BFF"/>
<path d="M83.3439 151.891H75.7812V219.832H83.3439V151.891Z" fill="#407BFF"/>
<path d="M97.8908 167.871H90.3281V219.834H97.8908V167.871Z" fill="#407BFF"/>
<path d="M112.438 181.84H104.875V219.831H112.438V181.84Z" fill="#407BFF"/>
<path d="M126.985 191.951H119.422V219.834H126.985V191.951Z" fill="#407BFF"/>
<path d="M141.524 200.258H133.961V219.832H141.524V200.258Z" fill="#407BFF"/>
<g opacity="0.7">
<path d="M54.258 110.732H46.6953V219.832H54.258V110.732Z" fill="white"/>
<path d="M68.8049 133.85H61.2422V219.832H68.8049V133.85Z" fill="white"/>
<path d="M83.3439 151.891H75.7812V219.832H83.3439V151.891Z" fill="white"/>
<path d="M97.8908 167.871H90.3281V219.834H97.8908V167.871Z" fill="white"/>
<path d="M112.438 181.84H104.875V219.831H112.438V181.84Z" fill="white"/>
<path d="M126.985 191.951H119.422V219.834H126.985V191.951Z" fill="white"/>
<path d="M141.524 200.258H133.961V219.832H141.524V200.258Z" fill="white"/>
</g>
<path d="M45.6458 81.2109L44.1172 89.7526L52.65 86.3338L45.6458 81.2109Z" fill="#407BFF"/>
<path d="M48.0703 87.5352C48.0703 87.5352 76.9627 164.841 153.363 201.282" stroke="#407BFF" stroke-width="5.06584" stroke-miterlimit="10"/>
<path d="M227.207 222.28C227.207 222.28 222.173 212.454 223.439 211.492C224.704 210.529 227.205 219.701 227.207 218.988C227.21 218.274 227.067 205.781 229.393 206.276C231.719 206.771 229.393 218.275 229.393 218.275C229.393 218.275 232.523 212.397 233.749 212.841C234.975 213.285 230.132 220.275 230.132 220.275C230.132 220.275 233.023 218.526 233.749 218.661C234.474 218.796 230.132 222.281 230.132 222.281H227.207V222.28Z" fill="#407BFF"/>
<path d="M91.2594 225.038C91.2594 225.038 96.2942 215.212 95.0284 214.25C93.7626 213.287 91.262 222.459 91.2594 221.745C91.2575 221.032 91.4 208.539 89.0742 209.034C86.7483 209.529 89.0742 221.032 89.0742 221.032C89.0742 221.032 84.7201 212.728 83.565 214.846C82.5626 216.683 88.3345 223.033 88.3345 223.033C88.3345 223.033 82.5937 219.145 82.5626 220.858C82.5297 222.695 88.3345 225.039 88.3345 225.039H91.2594V225.038Z" fill="#407BFF"/>
<path d="M168.458 216.771C168.458 216.771 163.679 210.828 165.513 210.283C167.348 209.737 168.607 214.683 168.933 214.028C169.259 213.374 169.045 206.842 172.099 207.823C175.154 208.804 170.961 214.381 170.961 214.381C170.961 214.381 173.717 212.273 174.459 212.807C175.202 213.341 171.148 217.238 171.148 217.238L168.458 216.771Z" fill="#407BFF"/>
<path d="M124.685 209.471C124.685 209.471 127.918 202.564 126.006 202.469C124.094 202.374 123.474 207.722 123.474 207.722C123.474 207.722 122.393 200.556 119.53 201.547C116.498 202.597 121.721 208.248 121.721 208.248C121.721 208.248 116.711 205.075 116.377 206.828C115.967 208.98 122.86 210.266 122.86 210.266L124.685 209.471Z" fill="#407BFF"/>
<path d="M74.0781 229.585H244.641L237.627 221.987L186.819 216.639H169.047L156.212 206.242L122.88 208.956L95.5079 219.218L89.8747 224.41H81.1323L74.0781 229.585Z" fill="#263238"/>
<path opacity="0.5" d="M74.0781 229.585H244.641L237.627 221.987L186.819 216.639H169.047L156.212 206.242L122.88 208.956L95.5079 219.218L89.8747 224.41H81.1323L74.0781 229.585Z" fill="white"/>
<path opacity="0.2" d="M89.875 224.411L107.827 227.467H117.55L106.527 225.559L95.5082 219.219L89.875 224.411Z" fill="black"/>
<path opacity="0.2" d="M169.043 216.64H159.356L143.766 222.194L151.782 214.271L163.367 212.041L169.043 216.64Z" fill="black"/>
<path opacity="0.2" d="M237.628 221.986L219.256 227.466L203.305 223.342L217.506 229.584H244.641L237.628 221.986Z" fill="black"/>
<path d="M150.107 210.375L145.672 209.122L147.316 198.496L151.75 199.749L150.107 210.375Z" fill="#E4897B"/>
<path d="M145.571 205.402H151.19C151.379 205.402 151.543 205.533 151.586 205.717L152.537 209.813C152.636 210.238 152.306 210.64 151.87 210.633C150.062 210.602 148.742 210.496 146.465 210.496C145.064 210.496 140.841 210.642 138.906 210.642C137.014 210.642 136.7 208.729 137.491 208.556C141.033 207.779 143.699 206.708 144.825 205.686C145.029 205.502 145.296 205.402 145.571 205.402Z" fill="#263238"/>
<path d="M221.682 222.694L217.172 223.643L213.695 213.468L218.205 212.52L221.682 222.694Z" fill="#E4897B"/>
<path d="M182.207 122.172C182.207 122.172 161.153 145.398 155.464 154.588C149.774 163.778 144.82 202.652 144.82 202.652L153.209 204.677C153.209 204.677 162.96 166.775 165.557 162.979C168.155 159.183 195.726 133.455 195.726 133.455L182.207 122.172Z" fill="#263238"/>
<path opacity="0.1" d="M195.727 133.456C195.727 133.456 194.689 134.426 192.992 136.016C190.712 138.16 187.242 141.425 183.523 144.978C175.788 152.349 166.971 160.909 165.554 162.977C162.956 166.772 153.206 204.679 153.206 204.679L144.82 202.649C144.82 202.649 149.775 163.78 155.464 154.591C161.153 145.394 182.205 122.176 182.205 122.176L195.727 133.456Z" fill="white"/>
<path opacity="0.2" d="M192.993 136.018C190.713 138.162 187.243 141.427 183.523 144.979C185.985 138.298 191.94 133.973 191.94 133.973L192.993 136.018Z" fill="black"/>
<path d="M189.539 123.837C189.539 123.837 194.953 163.362 197.568 176.63C200.431 191.158 213.176 218.113 213.176 218.113L221.437 216.376C221.437 216.376 212.752 191.463 210.831 176.877C208.682 160.565 205.457 123.719 205.457 123.719L189.539 123.837Z" fill="#263238"/>
<g opacity="0.1">
<path d="M189.539 123.837C189.539 123.837 194.953 163.362 197.568 176.63C200.431 191.158 213.176 218.113 213.176 218.113L221.437 216.376C221.437 216.376 212.752 191.463 210.831 176.877C208.682 160.565 205.457 123.719 205.457 123.719L189.539 123.837Z" fill="white"/>
</g>
<path d="M157.433 74.4256L157.07 69.7422L161.93 71.6203C161.93 71.6203 162.001 75.8187 159.836 75.7642L157.433 74.4256Z" fill="#E4897B"/>
<path d="M158.961 67.041L163.551 67.3298L161.93 71.6218L157.07 69.7436L158.961 67.041Z" fill="#E4897B"/>
<path d="M157.266 75.25L157.395 73.9531L161.318 74.7542L161.009 76.1213L157.266 75.25Z" fill="#407BFF"/>
<path opacity="0.7" d="M157.266 75.25L157.395 73.9531L161.318 74.7542L161.009 76.1213L157.266 75.25Z" fill="white"/>
<path d="M175.997 68.293H165.837C165.478 68.293 165.188 69.068 165.188 70.0236C165.188 70.9791 165.478 71.7542 165.837 71.7542H175.997C176.356 71.7542 176.646 70.9791 176.646 70.0236C176.646 69.068 176.356 68.293 175.997 68.293Z" fill="#407BFF"/>
<path opacity="0.4" d="M175.997 68.293H165.837C165.478 68.293 165.188 69.068 165.188 70.0236C165.188 70.9791 165.478 71.7542 165.837 71.7542H175.997C176.356 71.7542 176.646 70.9791 176.646 70.0236C176.646 69.068 176.356 68.293 175.997 68.293Z" fill="white"/>
<path d="M165.686 67.8164H153.562C153.105 67.8164 152.734 68.8042 152.734 70.0232C152.734 71.2422 153.105 72.23 153.562 72.23H165.686C166.144 72.23 166.514 71.2422 166.514 70.0232C166.515 68.8049 166.144 67.8164 165.686 67.8164Z" fill="#407BFF"/>
<path opacity="0.2" d="M165.686 67.8164H153.562C153.105 67.8164 152.734 68.8042 152.734 70.0232C152.734 71.2422 153.105 72.23 153.562 72.23H165.686C166.144 72.23 166.514 71.2422 166.514 70.0232C166.515 68.8049 166.144 67.8164 165.686 67.8164Z" fill="white"/>
<path d="M153.727 67.3711H141.057C140.508 67.3711 140.062 68.5584 140.062 70.0237C140.062 71.4884 140.508 72.6763 141.057 72.6763H153.727C154.277 72.6763 154.722 71.489 154.722 70.0237C154.722 68.5584 154.277 67.3711 153.727 67.3711Z" fill="#407BFF"/>
<path opacity="0.4" d="M153.727 67.3711H141.057C140.508 67.3711 140.062 68.5584 140.062 70.0237C140.062 71.4884 140.508 72.6763 141.057 72.6763H153.727C154.277 72.6763 154.722 71.489 154.722 70.0237C154.722 68.5584 154.277 67.3711 153.727 67.3711Z" fill="white"/>
<path opacity="0.2" d="M142.052 70.0237C142.052 71.4884 141.607 72.6763 141.057 72.6763C140.508 72.6763 140.062 71.489 140.062 70.0237C140.062 68.5584 140.508 67.3711 141.057 67.3711C141.606 67.3711 142.052 68.5584 142.052 70.0237Z" fill="white"/>
<path d="M141.06 72.3736C140.816 72.3736 140.367 71.4808 140.367 70.0224C140.367 68.5647 140.816 67.6719 141.06 67.6719C141.304 67.6719 141.753 68.5647 141.753 70.0224C141.754 71.4808 141.305 72.3736 141.06 72.3736Z" fill="black"/>
<path d="M215.532 219.047H221.15C221.339 219.047 221.503 219.178 221.546 219.362L222.498 223.458C222.596 223.883 222.267 224.285 221.831 224.277C220.023 224.246 218.703 224.141 216.426 224.141C215.025 224.141 210.802 224.286 208.867 224.286C206.975 224.286 206.661 222.373 207.451 222.2C210.994 221.423 213.66 220.353 214.786 219.331C214.989 219.146 215.255 219.047 215.532 219.047Z" fill="#263238"/>
<path d="M174.204 86.1621C174.204 86.1621 171.704 86.7643 169.057 87.1652C167.731 87.3564 166.41 87.5413 165.137 87.6724C164.501 87.737 163.879 87.7775 163.312 87.8047C163.195 87.8098 163.084 87.8117 162.976 87.8136C162.828 87.4102 162.691 86.936 162.57 86.4446C162.273 85.2402 162.024 83.9319 161.811 82.611C161.387 79.9654 161.259 75.4713 161.259 75.4713L157.182 74.4746C156.8 77.3222 156.588 80.1325 156.594 83.027C156.605 84.4746 156.648 85.9323 156.833 87.4647C156.93 88.2347 157.05 89.0186 157.282 89.8963C157.403 90.3383 157.544 90.805 157.8 91.3496C157.943 91.6352 158.085 91.9182 158.343 92.2715C158.599 92.6141 158.928 93.0169 159.537 93.4164C159.702 93.5184 159.871 93.6121 160.049 93.6951C160.244 93.7799 160.461 93.8565 160.655 93.9116L161.096 94.0199C161.392 94.0877 161.619 94.1187 161.875 94.1605C162.342 94.2225 162.777 94.2624 163.188 94.2859C164.01 94.3365 164.777 94.3315 165.528 94.3125C167.028 94.2764 168.471 94.1712 169.903 94.0262C172.77 93.74 175.538 93.317 178.361 92.7509L174.204 86.1621Z" fill="#263238"/>
<path d="M200.581 84.6612C200.416 89.8055 200.758 94.2344 201.325 99.0925C201.743 102.657 202.289 106.038 202.856 109.096C204.185 116.278 205.627 121.674 205.862 123.56C202.377 124.073 188.841 126.061 181.18 127.183C171.356 100.898 174.781 86.0612 174.781 86.0612C174.781 86.0612 177.45 85.1095 180.624 84.4623C181.039 84.375 181.463 84.2996 181.895 84.2287C184.672 83.7709 189.26 83.541 192.4 83.4644C193.056 83.4492 193.721 83.4504 194.37 83.4618C197.649 83.5271 200.581 84.6612 200.581 84.6612Z" fill="#407BFF"/>
<path opacity="0.7" d="M200.581 84.6612C200.416 89.8055 200.758 94.2344 201.325 99.0925C201.743 102.657 202.289 106.038 202.856 109.096C204.185 116.278 205.627 121.674 205.862 123.56C202.377 124.073 188.841 126.061 181.18 127.183C171.356 100.898 174.781 86.0612 174.781 86.0612C174.781 86.0612 177.45 85.1095 180.624 84.4623C181.039 84.375 181.463 84.2996 181.895 84.2287C184.672 83.7709 189.26 83.541 192.4 83.4644C193.056 83.4492 193.721 83.4504 194.37 83.4618C197.649 83.5271 200.581 84.6612 200.581 84.6612Z" fill="white"/>
<path d="M184.078 90.1933C183.77 92.1082 182.794 97.0278 182.837 101.876C183.293 102.817 183.907 105.11 184.461 106.041C184.866 104.979 185.57 102.793 186.051 101.723C185.622 97.1152 184.805 92.4945 185.057 90.0762L184.078 90.1933Z" fill="#407BFF"/>
<path d="M184.373 91.651L183.164 89.4973L184.698 88.5234L186.054 89.0883L184.373 91.651Z" fill="#407BFF"/>
<path d="M189.321 72.6426C189.209 76.0677 189.55 82.2601 192.246 84.1218C190.821 86.1399 188.53 88.0218 184.771 88.5132C181.891 88.89 181.989 86.478 182.448 85.2724C185.445 83.9989 184.91 81.516 183.841 79.0312L189.321 72.6426Z" fill="#E4897B"/>
<path d="M184.695 88.5228C184.695 88.5228 185.993 89.7456 187.476 90.9253C189.217 89.6494 193.25 86.3268 192.716 83.8667C192.366 83.1777 191.343 82.877 191.343 82.877C191.343 82.877 188.933 85.9348 184.695 88.5228Z" fill="white"/>
<path d="M184.697 88.524C184.697 88.524 183.39 89.9425 182.638 91.6161C181.14 90.8625 181.672 85.9341 182.113 85.349C183.342 83.8875 184.48 83.4531 184.48 83.4531C184.48 83.4531 183.51 86.0981 184.697 88.524Z" fill="white"/>
<path opacity="0.2" d="M187.088 75.25L183.844 79.0291C184.099 79.6168 184.321 80.2183 184.462 80.8148C185.85 80.3931 187.548 78.5396 187.457 77.0332C187.412 76.2822 187.264 75.5761 187.088 75.25Z" fill="black"/>
<path d="M177.49 64.7317C176.783 66.4522 176.779 70.1091 179.349 69.139C181.919 68.1682 178.704 61.7745 177.49 64.7317Z" fill="#263238"/>
<path d="M190.023 68.2022C189.908 72.7684 190.074 75.4495 187.852 77.8501C184.511 81.462 178.797 79.5231 177.542 75.0012C176.412 70.9314 176.789 64.1476 181.194 62.215C185.533 60.3109 190.137 63.6359 190.023 68.2022Z" fill="#E4897B"/>
<path d="M187.258 60.4502C187.099 60.4578 186.968 60.5205 186.836 60.5249C186.836 60.5249 187.229 69.4535 189.282 71.4038C194.528 69.9214 197.225 59.9734 187.258 60.4502Z" fill="#263238"/>
<path d="M191.919 71.9377C191.597 73.1237 190.755 74.0457 189.867 74.5276C188.532 75.252 187.513 74.1356 187.59 72.6957C187.659 71.3995 188.437 69.4605 189.919 69.3288C191.379 69.199 192.287 70.5813 191.919 71.9377Z" fill="#E4897B"/>
<path d="M178.936 69.7699C178.949 70.141 178.763 70.4475 178.52 70.4538C178.277 70.4602 178.069 70.1644 178.055 69.7934C178.042 69.4223 178.228 69.1158 178.471 69.1095C178.714 69.1031 178.922 69.3989 178.936 69.7699Z" fill="#263238"/>
<path d="M180.28 69.9199C180.28 69.9199 179.489 72.0045 178.586 73.0304C179.256 73.5927 180.364 73.2824 180.364 73.2824L180.28 69.9199Z" fill="#DE5753"/>
<path d="M182.409 74.6497C182.257 74.6744 182.096 74.6902 181.926 74.694C181.866 74.6959 181.814 74.6484 181.813 74.5882C181.81 74.5274 181.859 74.4781 181.918 74.4762C183.551 74.4312 184.271 73.2749 184.278 73.2629C184.309 73.2116 184.376 73.1958 184.428 73.2268C184.48 73.2584 184.496 73.3256 184.465 73.3769C184.437 73.4244 183.817 74.4217 182.409 74.6497Z" fill="#263238"/>
<path d="M183.438 68.6797C183.373 68.7196 183.289 68.7247 183.217 68.6854C182.358 68.2181 181.643 68.5866 181.636 68.5904C181.529 68.6468 181.396 68.6069 181.339 68.5011C181.281 68.3954 181.322 68.2637 181.427 68.2073C181.465 68.1871 182.361 67.7248 183.427 68.3048C183.533 68.3625 183.572 68.4948 183.515 68.5999C183.495 68.6335 183.469 68.6607 183.438 68.6797Z" fill="#263238"/>
<path d="M176.841 68.1036C176.801 68.0954 176.762 68.0758 176.73 68.0441C176.644 67.9592 176.642 67.8206 176.726 67.7344C177.568 66.8732 178.552 67.074 178.597 67.0772C178.715 67.1018 178.792 67.2177 178.769 67.3355C178.745 67.4533 178.632 67.5293 178.515 67.5058C178.474 67.4957 177.715 67.3513 177.038 68.0422C176.985 68.0973 176.91 68.1169 176.841 68.1036Z" fill="#263238"/>
<path d="M182.117 69.784C182.117 69.784 182.585 69.3294 183.15 69.6036" stroke="#263238" stroke-width="0.189399" stroke-miterlimit="10" stroke-linecap="round" stroke-linejoin="round"/>
<path d="M188.484 66.3654C188.484 66.3654 186.472 66.2654 185.655 64.3176C184.838 62.3698 184.139 63.9566 184.139 63.9566C184.139 63.9566 183.87 63.3684 182.114 63.0188C180.357 62.6693 179.194 67.39 177.296 66.6282C175.398 65.8658 175.949 63.9566 175.949 63.9566C175.949 63.9566 176.781 63.5495 177.717 60.9709C178.772 58.067 183.839 56.7752 188.235 58.9731C192.63 61.1711 188.484 66.3654 188.484 66.3654Z" fill="#263238"/>
<path d="M209.308 129.613L190.877 133.454L186.051 126.467L183.173 132.97L175.143 128.417L179.415 122.174C171.499 102.94 174.203 86.1611 174.203 86.1611C177.711 84.4565 182.203 84.1766 182.203 84.1766C177.605 91.1611 184.461 106.039 184.461 106.039C188.582 94.547 193.513 83.449 193.513 83.449C197.703 83.1381 201.316 84.2595 201.316 84.2595C201.316 84.2595 203.111 110.47 205.49 117.129C207.861 123.781 209.308 129.613 209.308 129.613Z" fill="#263238"/>
<path opacity="0.1" d="M190.824 92.9489L194.672 97.797C194.672 97.797 185.68 104.236 183.036 114.925L183.983 108.683L176.589 98.2972L179.99 94.0476L175.945 91.048C175.945 91.048 179.422 85.1925 182.203 84.1768C177.604 91.1613 184.46 106.039 184.46 106.039C188.581 94.5472 193.513 83.4492 193.513 83.4492C193.513 83.4492 196.77 85.7599 198.521 90.6003L190.824 92.9489Z" fill="white"/>
<path d="M230.249 125.285C230.555 126.545 228.271 128.183 225.147 128.944C222.022 129.705 219.241 129.301 218.934 128.041C218.627 126.782 220.911 125.144 224.036 124.383C227.16 123.621 229.942 124.025 230.249 125.285Z" stroke="#263238" stroke-width="0.757534" stroke-miterlimit="10"/>
<path d="M238.969 123.734L243.845 143.754C244.004 144.409 243.606 145.075 242.943 145.237L213.738 152.35C213.083 152.51 212.414 152.103 212.255 151.448L207.379 131.429C207.218 130.766 207.626 130.105 208.281 129.946L237.486 122.833C238.149 122.671 238.808 123.072 238.969 123.734Z" fill="#263238"/>
<path opacity="0.1" d="M238.969 123.734L243.845 143.754C244.004 144.409 243.606 145.075 242.943 145.237L213.738 152.35C213.083 152.51 212.414 152.103 212.255 151.448L207.379 131.429C207.218 130.766 207.626 130.105 208.281 129.946L237.486 122.833C238.149 122.671 238.808 123.072 238.969 123.734Z" fill="white"/>
<path d="M210.249 130.73L215.125 150.75C215.285 151.404 214.878 152.073 214.224 152.233L213.738 152.351C213.083 152.511 212.414 152.104 212.255 151.449L207.379 131.43C207.218 130.767 207.626 130.106 208.281 129.947L208.766 129.828C209.422 129.668 210.088 130.067 210.249 130.73Z" fill="#263238"/>
<path d="M209.09 129.766C209.704 129.616 210.348 130.072 210.497 130.685L212.758 139.967C212.885 140.489 213.411 140.809 213.933 140.682L240.762 134.148C241.284 134.02 241.604 133.494 241.477 132.972L239.209 123.66C239.05 123.008 238.392 122.608 237.741 122.767L208.523 129.883L209.09 129.766Z" fill="#263238"/>
<path opacity="0.2" d="M209.09 129.766C209.704 129.616 210.348 130.072 210.497 130.685L212.758 139.967C212.885 140.489 213.411 140.809 213.933 140.682L240.762 134.148C241.284 134.02 241.604 133.494 241.477 132.972L239.209 123.66C239.05 123.008 238.392 122.608 237.741 122.767L208.523 129.883L209.09 129.766Z" fill="white"/>
<path d="M229.973 141.504L227.801 142.033C227.607 142.08 227.411 141.961 227.364 141.767L226.055 136.392L228.93 135.691L230.239 141.066C230.287 141.261 230.168 141.456 229.973 141.504Z" fill="#263238"/>
<path d="M229.772 139.961L227.261 140.573C226.96 140.647 226.656 140.462 226.582 140.16L226.29 138.959C226.216 138.658 226.401 138.354 226.702 138.28L229.214 137.668C229.515 137.595 229.819 137.78 229.893 138.081L230.185 139.283C230.259 139.584 230.074 139.888 229.772 139.961Z" stroke="white" stroke-width="0.378798" stroke-miterlimit="10"/>
<path d="M221.468 119.018L220.664 123.622L226.371 122.076C226.371 122.076 226.181 118.013 224.005 117.891L221.468 119.018Z" fill="#E4897B"/>
<path d="M222.466 127.001L227.124 125.504L226.371 122.074L220.664 123.621L222.466 127.001Z" fill="#E4897B"/>
<path d="M221.109 117.169L221.256 119.235L225.035 118.456L224.738 116.516L221.109 117.169Z" fill="#407BFF"/>
<path opacity="0.7" d="M221.109 117.169L221.256 119.235L225.035 118.456L224.738 116.516L221.109 117.169Z" fill="white"/>
<path d="M201.223 84.2031C204.584 85.5342 207.74 87.0039 210.904 88.7402C212.476 89.6128 214.039 90.5411 215.578 91.6214C216.35 92.1609 217.118 92.7435 217.887 93.3995C218.651 94.0714 219.416 94.7907 220.176 95.8343C220.366 96.1155 220.549 96.3605 220.732 96.7164C220.818 96.8791 220.915 97.0596 220.986 97.2109L221.131 97.5732L221.417 98.2982L221.646 98.9777C221.804 99.433 221.931 99.8781 222.052 100.314C222.18 100.755 222.3 101.192 222.407 101.624C222.866 103.357 223.222 105.076 223.565 106.79C224.23 110.227 224.742 113.654 225.102 117.134L221.033 117.891C221.033 117.891 219.506 111.367 218.419 108.15C217.887 106.538 217.321 104.941 216.754 103.39C216.614 102.997 216.467 102.618 216.316 102.245C216.171 101.864 216.016 101.495 215.863 101.149L215.638 100.621L215.41 100.162L215.298 99.9332C215.271 99.8933 215.257 99.8889 215.24 99.8635C215.229 99.8332 215.138 99.7439 215.083 99.6723C214.802 99.343 214.287 98.8928 213.725 98.4742C213.16 98.0449 212.533 97.6181 211.87 97.2084C210.537 96.3934 209.113 95.6076 207.647 94.8661C204.729 93.3862 201.627 91.9748 198.625 90.688L201.223 84.2031Z" fill="#263238"/>
<path d="M238.537 85.9796C255.125 85.9796 268.573 72.5317 268.573 55.9429C268.573 39.3541 255.125 25.9062 238.537 25.9062C221.948 25.9062 208.5 39.3541 208.5 55.9429C208.5 72.5317 221.948 85.9796 238.537 85.9796Z" fill="#407BFF"/>
<path opacity="0.7" d="M238.537 85.9796C255.125 85.9796 268.573 72.5317 268.573 55.9429C268.573 39.3541 255.125 25.9062 238.537 25.9062C221.948 25.9062 208.5 39.3541 208.5 55.9429C208.5 72.5317 221.948 85.9796 238.537 85.9796Z" fill="white"/>
<path d="M207.664 70.5429C209.416 70.5429 210.836 69.1228 210.836 67.3711C210.836 65.6193 209.416 64.1992 207.664 64.1992C205.912 64.1992 204.492 65.6193 204.492 67.3711C204.492 69.1228 205.912 70.5429 207.664 70.5429Z" fill="#407BFF"/>
<path opacity="0.7" d="M207.664 70.5429C209.416 70.5429 210.836 69.1228 210.836 67.3711C210.836 65.6193 209.416 64.1992 207.664 64.1992C205.912 64.1992 204.492 65.6193 204.492 67.3711C204.492 69.1228 205.912 70.5429 207.664 70.5429Z" fill="white"/>
<path d="M202.696 69.5488C202.627 70.5512 201.759 71.3073 200.757 71.2389C199.754 71.1699 198.998 70.3017 199.067 69.2999C199.136 68.2975 200.004 67.5408 201.006 67.6098C202.008 67.6789 202.765 68.547 202.696 69.5488Z" fill="#407BFF"/>
<path opacity="0.7" d="M202.696 69.5488C202.627 70.5512 201.759 71.3073 200.757 71.2389C199.754 71.1699 198.998 70.3017 199.067 69.2999C199.136 68.2975 200.004 67.5408 201.006 67.6098C202.008 67.6789 202.765 68.547 202.696 69.5488Z" fill="white"/>
<path d="M197.223 69.0615C197.188 69.5624 196.754 69.9411 196.253 69.9063C195.752 69.8714 195.374 69.4377 195.408 68.9368C195.443 68.4359 195.877 68.0572 196.378 68.0921C196.879 68.1269 197.258 68.5607 197.223 69.0615Z" fill="#407BFF"/>
<path opacity="0.7" d="M197.223 69.0615C197.188 69.5624 196.754 69.9411 196.253 69.9063C195.752 69.8714 195.374 69.4377 195.408 68.9368C195.443 68.4359 195.877 68.0572 196.378 68.0921C196.879 68.1269 197.258 68.5607 197.223 69.0615Z" fill="white"/>
<path d="M242.748 70.2487C248.828 68.0741 251.565 60.1861 248.863 52.6303C246.16 45.0745 239.041 40.7122 232.961 42.8868C226.882 45.0614 224.144 52.9494 226.847 60.5052C229.549 68.0609 236.669 72.4233 242.748 70.2487Z" fill="#407BFF"/>
<path d="M242.667 67.2978C247.574 65.5426 249.783 59.1759 247.602 53.0772C245.421 46.9786 239.674 43.4575 234.768 45.2127C229.861 46.9678 227.651 53.3345 229.833 59.4332C232.014 65.5318 237.76 69.0529 242.667 67.2978Z" fill="white"/>
<path d="M246.576 53.4528C248.324 58.3369 246.554 63.4357 242.624 64.8415C238.694 66.2473 234.092 63.4268 232.345 58.5427C230.598 53.6586 232.368 48.5599 236.298 47.1541C240.228 45.749 244.83 48.5687 246.576 53.4528Z" fill="#407BFF"/>
<path d="M245.238 53.93C246.58 57.6807 245.317 61.5624 242.417 62.599C239.518 63.6356 236.081 61.4357 234.739 57.6851C233.398 53.9345 234.66 50.0528 237.56 49.0162C240.458 47.9796 243.896 50.1794 245.238 53.93Z" fill="white"/>
<path d="M244.25 54.5158C245.207 57.1905 244.38 59.9318 242.404 60.6385C240.428 61.3452 238.05 59.7501 237.094 57.0753C236.137 54.4005 236.963 51.6593 238.939 50.9526C240.915 50.2459 243.293 51.841 244.25 54.5158Z" fill="#407BFF"/>
<path d="M243.558 54.7609C244.249 56.6929 243.724 58.6471 242.385 59.1258C241.047 59.6045 239.401 58.4267 238.711 56.4947C238.02 54.5633 238.545 52.6092 239.883 52.1299C241.221 51.6518 242.867 52.8296 243.558 54.7609Z" fill="white"/>
<path d="M259.508 46.0352L255.911 47.3219L255.219 50.5931L257.828 52.6834L261.426 51.3967L258.757 49.328L259.508 46.0352Z" fill="#407BFF"/>
<path d="M241.695 55.4276L259.307 49.1289" stroke="#263238" stroke-width="1.26646" stroke-miterlimit="10" stroke-linecap="round" stroke-linejoin="round"/>
</svg>
