<svg width="300" height="269" viewBox="0 0 300 269" fill="none" xmlns="http://www.w3.org/2000/svg">
<g clip-path="url(#clip0_3240_44421)">
<mask id="mask0_3240_44421" style="mask-type:luminance" maskUnits="userSpaceOnUse" x="0" y="-16" width="300" height="301">
<path d="M300 -15.3257H0V284.674H300V-15.3257Z" fill="white"/>
</mask>
<g mask="url(#mask0_3240_44421)">
<path d="M216.928 212.077H42.1367L42.9539 205.349L216.162 204.925L216.928 212.077Z" fill="#CDD7FF"/>
<path d="M211.134 210.858H47.9336V214.036H211.134V210.858Z" fill="#CDD7FF"/>
<path d="M162.377 170.529C161.997 170.529 161.69 170.221 161.69 169.841V158.411C161.758 158.373 161.744 158.38 161.813 158.342C162.659 158.777 163.614 157.85 163.577 157.031C163.54 156.194 162.953 155.699 162.16 155.614C159.896 155.369 157.615 155.389 155.356 155.675C154.623 155.767 153.902 156.26 153.939 157.092C153.971 157.809 154.62 158.679 155.457 158.491C155.461 158.494 155.462 158.495 155.466 158.498V169.841C155.466 170.221 155.158 170.529 154.778 170.529C152.4 170.529 150.473 172.457 150.473 174.835V199.511C150.473 202.528 152.919 204.974 155.936 204.974H161.219C164.236 204.974 166.682 202.528 166.682 199.511V174.835C166.683 172.457 164.755 170.529 162.377 170.529Z" fill="#CDD7FF"/>
<path d="M154.924 214.037H90.3789L121.017 228.233L114.277 305.785H139.4L129.532 227.809L154.924 214.037Z" fill="#CDD7FF"/>
<path d="M140.212 203.264C139.339 203.158 138.461 203.101 137.584 203.069C137.572 199.777 137.559 196.486 137.547 193.195C142.278 191.666 141.872 177.339 141.872 177.339L131.657 177.628C131.657 177.628 130.719 191.782 135.841 193.209C135.854 196.491 135.866 199.773 135.878 203.054C135.114 203.068 134.35 203.1 133.586 203.17C133.128 203.212 132.731 203.526 132.729 204.019C132.727 204.446 133.117 204.918 133.578 204.876C135.785 204.674 138.004 204.706 140.203 204.971C140.662 205.026 141.058 204.545 141.061 204.122C141.063 203.616 140.671 203.32 140.212 203.264Z" fill="#CDD7FF"/>
<path d="M186.169 203.264C185.296 203.158 184.418 203.101 183.541 203.069C183.529 199.777 183.516 196.486 183.504 193.195C188.235 191.666 187.829 177.339 187.829 177.339L177.614 177.628C177.614 177.628 176.676 191.782 181.798 193.209C181.811 196.491 181.823 199.773 181.835 203.054C181.071 203.068 180.307 203.1 179.544 203.17C179.086 203.212 178.689 203.526 178.687 204.019C178.684 204.446 179.074 204.918 179.536 204.876C181.742 204.674 183.961 204.706 186.161 204.971C186.619 205.026 187.016 204.545 187.018 204.122C187.02 203.616 186.628 203.32 186.169 203.264Z" fill="#CDD7FF"/>
<path d="M55.6217 203.264C54.7487 203.158 53.8715 203.101 52.9943 203.069C52.9817 199.777 52.9697 196.486 52.9571 193.195C57.6881 191.666 57.2819 177.339 57.2819 177.339L47.0675 177.628C47.0675 177.628 46.1291 191.782 51.2513 193.209C51.2639 196.491 51.2759 199.773 51.2885 203.054C50.5241 203.068 49.7597 203.1 48.9971 203.17C48.5381 203.212 48.1421 203.526 48.1397 204.019C48.1373 204.446 48.5273 204.918 48.9887 204.876C51.1949 204.674 53.4143 204.706 55.6139 204.971C56.0723 205.026 56.4689 204.545 56.4713 204.122C56.4731 203.616 56.0813 203.32 55.6217 203.264Z" fill="#CDD7FF"/>
</g>
<mask id="mask1_3240_44421" style="mask-type:luminance" maskUnits="userSpaceOnUse" x="0" y="-16" width="300" height="301">
<path d="M300 -15.3257H0V284.674H300V-15.3257Z" fill="white"/>
</mask>
<g mask="url(#mask1_3240_44421)">
<path d="M101.309 184.336L110.139 319.508C110.432 322.489 108.253 325.143 105.272 325.435C102.423 325.715 99.8699 323.719 99.3941 320.941L81.2327 187.013C80.3015 181.495 84.0197 176.266 89.5379 175.335C95.0561 174.403 100.285 178.122 101.216 183.64C101.254 183.864 101.286 184.113 101.309 184.336Z" fill="#E69B87"/>
<path d="M77.2361 185.866L65.9819 320.335C65.8235 323.458 63.1637 325.862 60.0401 325.704C57.0407 325.552 54.7055 323.075 54.6641 320.114L57.5465 185.482C57.4835 180.042 61.8425 175.581 67.2827 175.518C72.7229 175.455 77.1845 179.814 77.2475 185.254C77.2505 185.449 77.2451 185.673 77.2361 185.866Z" fill="#E69B87"/>
<path d="M102.17 171.94L112.79 315.514H91.511L78.5816 186.813L77.9336 168.459L102.17 171.94Z" fill="#162A45"/>
<path d="M54.3255 171.366L50.2461 315.961H71.0421L80.8923 166.324L54.3255 171.366Z" fill="#162A45"/>
<path d="M79.8334 189.016C79.8322 189.016 79.8304 189.016 79.8292 189.016C79.7488 189.014 79.6852 188.947 79.6876 188.866L80.2324 170.608C80.2348 170.529 80.296 170.465 80.3824 170.467C80.4628 170.469 80.5264 170.536 80.524 170.617L79.9792 188.875C79.9768 188.954 79.912 189.016 79.8334 189.016Z" fill="#162A45"/>
<path d="M79.8724 187.722C79.792 187.722 79.7266 187.656 79.7266 187.576C79.7266 187.495 79.792 187.43 79.8724 187.43C81.1576 187.43 82.5646 186.612 82.5964 185.29L83.1862 171.237C83.1898 171.157 83.2594 171.091 83.338 171.097C83.4184 171.101 83.4808 171.169 83.4778 171.25L82.888 185.3C82.8526 186.795 81.295 187.722 79.8724 187.722Z" fill="#162A45"/>
<path d="M55.8096 180.852C55.7364 180.852 55.674 180.798 55.665 180.723C55.656 180.643 55.713 180.57 55.7928 180.561C60.9732 179.953 63.549 176.989 63.8982 171.234C63.903 171.154 63.9672 171.093 64.0524 171.097C64.1328 171.103 64.194 171.172 64.1892 171.252C63.8298 177.174 61.1724 180.224 55.8264 180.851C55.821 180.852 55.8156 180.852 55.8096 180.852Z" fill="#162A45"/>
<path d="M102.569 182.204C102.538 182.204 102.507 182.194 102.48 182.173C99.6979 180.017 97.4881 176.106 96.7135 171.967C96.6985 171.887 96.7507 171.811 96.8299 171.796C96.9079 171.781 96.9853 171.834 97.0003 171.913C97.7515 175.924 99.9727 179.86 102.659 181.944C102.723 181.993 102.734 182.084 102.685 182.148C102.656 182.185 102.613 182.204 102.569 182.204Z" fill="#162A45"/>
<path d="M131.541 79.6628L96.5743 59.8628C94.5835 58.7354 93.8839 56.2082 95.0113 54.2174C96.0601 52.3652 98.3215 51.6308 100.234 52.4456L137.223 68.1476C140.492 69.5354 142.017 73.3106 140.629 76.58C139.241 79.8494 135.466 81.3746 132.196 79.9868C131.971 79.8902 131.749 79.7798 131.541 79.6628Z" fill="#E69B87"/>
<path d="M103.971 54.9337C103.971 54.9337 98.7323 44.9131 97.0997 43.3441C95.4671 41.7751 86.2739 34.6639 85.6205 35.1313C84.9671 35.5981 91.6007 41.8093 91.6007 41.8093C91.6007 41.8093 84.1439 36.0235 83.3645 36.6385C82.5845 37.2535 89.7743 43.3945 89.7743 43.3945C89.7743 43.3945 83.5199 38.2915 82.7501 38.9995C81.9803 39.7069 87.8921 44.8429 87.8921 44.8429C87.8921 44.8429 82.7153 40.9087 82.0979 41.5027C81.4805 42.0961 88.3463 48.0955 88.3463 48.0955C88.3463 48.0955 90.1499 56.7949 96.8147 59.6041C103.481 62.4133 103.971 54.9337 103.971 54.9337Z" fill="#E69B87"/>
<path d="M139.901 78.5389C139.437 79.1761 138.847 79.7383 138.141 80.1847L100.535 103.952C97.5381 105.847 93.5721 104.952 91.6779 101.955C89.7837 98.9575 90.6759 94.9915 93.6747 93.0979L131.28 69.3307C134.277 67.4359 138.243 68.3305 140.137 71.3275C141.585 73.6183 141.405 76.4737 139.901 78.5389Z" fill="#E69B87"/>
<path d="M130.298 80.3329C130.288 80.3461 130.276 80.3575 130.262 80.3671C130.196 80.4127 130.105 80.3959 130.059 80.3299L125.393 73.5319C125.347 73.4653 125.365 73.3753 125.43 73.3291C125.496 73.2835 125.588 73.3003 125.633 73.3669L130.3 80.1649C130.336 80.2171 130.333 80.2843 130.298 80.3329Z" fill="#B56757"/>
<path d="M105.799 54.2786C102.225 56.9828 100.66 63.2228 100.66 63.2228L105.461 65.9852L110.261 56.2106L105.799 54.2786Z" fill="white"/>
<path d="M94.2656 89.3083L120.229 74.6269L104.196 66.1009C105.2 63.0103 109.643 55.6309 109.643 55.6309L137.005 65.9851C143.348 68.3857 144.428 76.9009 138.885 80.8087L96.665 110.571L94.2656 89.3083Z" fill="#2F4768"/>
<path d="M99.6822 120.743C101.79 136.836 102.568 155.502 102.628 175.557C87.204 177.61 70.2432 178.941 53.2344 176.999C54.7338 157.15 56.6166 128.12 55.6002 112.009L61.5366 94.781L79.083 91.406L94.2648 89.3083L99.6822 120.743Z" fill="white"/>
<path d="M86.8555 90.3319L93.1819 129.788L94.4179 185.602C100.291 186.529 106.318 185.602 106.318 185.602L102.626 127.984L94.2631 89.3083L86.8555 90.3319Z" fill="#2F4768"/>
<path d="M68.7734 93.3889L78.5786 129.788L76.6382 186.98C62.7296 188.216 49.6016 185.679 49.6016 185.679L54.6644 141.016L55.3196 107.944L61.5362 94.7815L68.7734 93.3889Z" fill="#2F4768"/>
<path d="M73.4762 79.5541L72.6602 94.1509C72.6602 94.1509 80.4218 96.8749 85.5092 93.8287L85.232 83.5567L73.4762 79.5541Z" fill="#E69B87"/>
<path d="M85.4137 90.2467C78.6181 89.7361 76.1953 86.0521 76.1953 86.0521L85.3159 86.6071L85.4137 90.2467Z" fill="#995447"/>
<path d="M67.6154 60.8084L55.7852 52.9652H66.6032L65.9462 43.0358L73.7588 48.5048L75.5666 39.2108L80.2028 51.9218C80.2028 51.9218 76.007 59.9582 67.6154 60.8084Z" fill="#FFB552"/>
<path d="M93.3292 55.2686C91.5676 53.399 88.96 52.0814 86.4586 52.6688C85.0126 48.8054 75.9016 49.8356 69.673 57.1754C67.5808 58.4594 65.8852 60.3794 64.87 62.6138C63.8548 64.8488 63.5236 67.3886 63.9322 69.809C64.027 70.3712 64.1662 70.9394 64.4758 71.4182C64.7848 71.897 65.2924 72.2786 65.8618 72.3098C65.8222 74.5496 66.4972 76.7804 67.8526 78.5642C69.208 80.348 71.176 81.6572 73.3444 82.2188L92.6092 69.3056C94.2934 67.3652 95.461 64.934 95.6746 62.3738C95.8876 59.8142 95.0908 57.1382 93.3292 55.2686Z" fill="#162A45"/>
<path d="M86.9592 56.8639C74.3046 55.4173 67.7268 61.5607 68.9094 73.3579C69.8508 82.7491 75.3648 88.5451 84.2514 88.4881C92.4372 88.4359 93.702 81.7423 93.7451 74.7337C93.8069 64.7413 94.4736 57.7231 86.9592 56.8639Z" fill="#E69B87"/>
<path d="M69.3026 76.9718C71.5202 74.0462 72.464 70.1882 71.8466 66.5696C72.7358 67.0406 73.9586 66.7328 74.519 65.897C75.0488 65.1062 74.9709 64.067 74.8227 63.1268C79.5825 64.6046 84.5864 65.324 89.5652 65.0984C91.0838 65.0294 92.7044 64.838 93.8654 63.8564C93.5732 61.8404 93.1196 59.0408 91.6406 57.641C90.161 56.2406 87.6374 56.1986 85.6646 55.691C82.0335 54.7574 78.0422 55.3166 74.8077 57.2126C71.5731 59.1086 69.1352 62.318 68.1764 65.9426C67.217 69.566 67.4294 73.7246 69.3026 76.9718Z" fill="#162A45"/>
<path d="M93.383 69.9127C93.383 69.9127 90.2144 69.4051 88.2656 69.7723C89.3168 68.2879 92.1458 68.9743 93.383 69.9127Z" fill="#2F4768"/>
<path d="M78.0625 70.0598C78.0625 70.0598 81.2209 69.4916 83.1763 69.8216C82.0969 68.357 79.2817 69.098 78.0625 70.0598Z" fill="#2F4768"/>
<path d="M89.3008 74.612C89.3068 75.239 89.7239 75.743 90.2327 75.7382C90.7415 75.7334 91.1489 75.221 91.1429 74.5946C91.1369 73.9676 90.7192 73.4636 90.211 73.4684C89.7028 73.4726 89.2948 73.985 89.3008 74.612Z" fill="#2F4768"/>
<path d="M90.2188 74.1901C90.2206 74.3917 90.352 74.5543 90.5116 74.5531C90.6712 74.5513 90.799 74.3863 90.7972 74.1847C90.7954 73.9831 90.664 73.8205 90.5044 73.8217C90.3448 73.8235 90.217 73.9885 90.2188 74.1901Z" fill="white"/>
<path d="M80.3907 74.6972C80.3967 75.3242 80.8143 75.8282 81.3225 75.8234C81.8313 75.8186 82.2387 75.3062 82.2327 74.6798C82.2267 74.0528 81.8091 73.5488 81.3009 73.5536C80.7921 73.5584 80.3847 74.0702 80.3907 74.6972Z" fill="#2F4768"/>
<path d="M81.3086 74.2753C81.3104 74.4775 81.4418 74.6395 81.6014 74.6383C81.761 74.6365 81.8888 74.4715 81.887 74.2699C81.8852 74.0683 81.7538 73.9057 81.5942 73.9069C81.4346 73.9087 81.3062 74.0737 81.3086 74.2753Z" fill="white"/>
<path d="M86.7446 78.8149C86.621 78.8017 86.5148 78.7093 86.4896 78.5809C86.4584 78.4231 86.5616 78.2695 86.72 78.2383C87.0806 78.1675 87.3302 78.0355 87.4226 77.8669C87.4838 77.7553 87.4802 77.6155 87.4118 77.4397C87.3368 77.2465 87.152 76.9453 86.9744 76.6543C86.768 76.3177 86.573 75.9997 86.4764 75.7471C86.4188 75.5971 86.4938 75.4279 86.6438 75.3703C86.7944 75.3127 86.9624 75.3877 87.0206 75.5383C87.098 75.7399 87.2876 76.0495 87.4712 76.3489C87.6716 76.6759 87.8606 76.9849 87.9554 77.2267C88.1216 77.6527 88.0352 77.9623 87.9338 78.1471C87.7538 78.4741 87.3728 78.7033 86.8322 78.8095C86.8022 78.8167 86.7734 78.8179 86.7446 78.8149Z" fill="#995447"/>
<path d="M89.013 80.2639C86.9922 80.4277 84.873 80.3539 82.6758 80.0953C83.829 82.6057 88.3332 82.1203 89.013 80.2639Z" fill="white"/>
<path d="M71.0297 75.0878C71.7965 76.9328 71.2751 78.7244 69.9395 79.28C68.6039 79.8356 66.8999 78.791 66.1325 76.946C65.3657 75.1016 65.8265 73.1552 67.1621 72.5996C68.4977 72.044 70.2623 73.2428 71.0297 75.0878Z" fill="#E69B87"/>
<path d="M69.726 77.486C69.7044 77.4836 69.6828 77.4788 69.6618 77.4716C69.1692 77.3012 68.655 76.844 68.6154 76.205C68.5986 75.9362 68.682 75.7118 68.7564 75.5132C68.8068 75.3776 68.8548 75.2498 68.8608 75.1274C68.8734 74.9006 68.7804 74.6636 68.6124 74.4932C68.4468 74.3246 68.1582 74.1446 67.8828 74.192C67.506 74.2568 67.3068 74.6762 67.3104 75.038C67.3122 75.1994 67.1826 75.3314 67.0212 75.3332C66.861 75.3338 66.7284 75.2048 66.7266 75.044C66.7206 74.426 67.0818 73.7378 67.7838 73.6172C68.2044 73.5434 68.6706 73.7186 69.0288 74.084C69.3096 74.369 69.465 74.771 69.444 75.1592C69.4326 75.3698 69.3636 75.554 69.303 75.7166C69.2418 75.8816 69.1884 76.0238 69.198 76.1684C69.2208 76.5374 69.5532 76.8164 69.852 76.9196C70.0044 76.9718 70.0854 77.1386 70.0326 77.291C69.9876 77.4224 69.858 77.4998 69.726 77.486Z" fill="#995447"/>
<path d="M52.9572 101.969C52.8288 103.262 53.091 104.605 53.7924 105.816L76.0944 144.309C77.9424 147.499 82.116 148.503 85.2306 146.419C88.0722 144.518 88.809 140.641 87.0948 137.682L64.9026 99.3788C63.1254 96.3104 59.1972 95.2646 56.1288 97.0418C54.2712 98.1182 53.1546 99.9836 52.9572 101.969Z" fill="#E69B87"/>
<path d="M83.0294 147.427L122.08 137.956C124.303 137.416 125.668 135.177 125.129 132.954C124.627 130.886 122.653 129.561 120.591 129.82L80.717 134.797C77.1926 135.237 74.6924 138.45 75.1322 141.975C75.572 145.499 78.7856 147.999 82.31 147.559C82.553 147.529 82.7966 147.483 83.0294 147.427Z" fill="#E69B87"/>
<path d="M82.5361 134.137C82.5349 134.146 82.535 134.155 82.5356 134.164C82.5422 134.244 82.6123 134.304 82.6927 134.298L91.0447 133.626C91.1251 133.619 91.1876 133.548 91.1786 133.468C91.172 133.388 91.1017 133.328 91.0213 133.335L82.6693 134.007C82.5979 134.013 82.5427 134.068 82.5361 134.137Z" fill="#B56757"/>
<path d="M133.798 138.643C132.934 138.473 132.064 138.351 131.192 138.255C131.452 134.54 131.713 130.825 131.974 127.111C132.05 126.016 130.35 125.88 130.273 126.977C130.012 130.689 129.752 134.401 129.491 138.114C128.728 138.071 127.963 138.046 127.197 138.06C126.736 138.068 126.318 138.352 126.28 138.843C126.246 139.269 126.599 139.769 127.063 139.761C129.278 139.722 131.489 139.917 133.663 140.344C134.116 140.433 134.548 139.983 134.581 139.561C134.621 139.057 134.252 138.732 133.798 138.643Z" fill="#383D84"/>
<path d="M127.159 112.445L137.366 112.91C137.366 112.91 136.641 128.923 131.016 128.48C124.96 128.004 127.159 112.445 127.159 112.445Z" fill="#383D84"/>
<path d="M128.351 115.309L135.722 115.645C135.722 115.645 135.198 127.207 131.137 126.888C126.764 126.543 128.351 115.309 128.351 115.309Z" fill="#5FC5A9"/>
<path d="M120.364 130.073C120.364 130.073 126.428 119.942 127.575 119.989C128.723 120.036 126.53 126.939 126.53 126.939C126.53 126.939 132.831 126.04 135.888 124.264C136.951 125.129 136.584 126.819 136.584 126.819C137.896 128.462 137.079 129.888 137.079 129.888C138.213 131.425 136.825 132.935 136.825 132.935C137.376 134.531 135.633 135.571 135.633 135.571C135.633 135.571 132.014 137.583 128.62 138.269C125.226 138.955 120.832 137.979 120.188 136.589C119.545 135.199 118.834 131.552 120.364 130.073Z" fill="#E69B87"/>
<path d="M113.685 130.198L109.512 130.61L112.242 141.273L116.441 140.037C116.028 135.71 113.685 130.198 113.685 130.198Z" fill="white"/>
<path d="M61.5379 94.7809L56.5249 95.8429C52.7827 96.6355 50.1055 99.9391 50.1055 103.765C50.1055 105.438 50.5597 107.079 51.4195 108.514L73.3105 145.053C75.2515 148.293 79.0687 149.901 82.7431 149.028L112.789 141.891C112.682 137.821 110.004 130.249 110.004 130.249L85.5349 132.67L65.8051 97.1245L61.5379 94.7809Z" fill="#2F4768"/>
<path d="M70.6602 93.0259L72.8616 90.5275L81.8088 95.1013L78.8886 100.706L70.6602 93.0259Z" fill="#7B85E8"/>
<path d="M81.8086 95.1013L85.411 90.2467H87.5686L87.9034 99.6757L81.8086 95.1013Z" fill="#7B85E8"/>
<path d="M76.2996 94.6814C74.5152 96.0692 76.7544 97.2212 76.7544 97.2212C76.7544 97.2212 75.1596 100.141 77.0286 100.697C78.897 101.252 82.1592 97.9442 82.1592 97.9442L81.8436 96.4604C81.5586 96.266 78.084 93.2936 76.2996 94.6814Z" fill="#A32D2B"/>
<path d="M87.267 94.9849C87.267 94.9849 88.8432 93.0211 86.649 92.4799C84.4548 91.9387 82.4898 96.0673 82.3086 96.3607L82.6242 97.8445C82.6242 97.8445 86.9502 99.5389 88.431 98.2711C89.9118 97.0039 87.267 94.9849 87.267 94.9849Z" fill="#A32D2B"/>
<path d="M83.2142 97.0213C83.3846 97.8235 83.096 98.5639 82.5692 98.6761C82.0424 98.7883 81.4772 98.2291 81.3068 97.4269C81.1364 96.6247 81.425 95.8843 81.9518 95.7721C82.478 95.6605 83.0432 96.2197 83.2142 97.0213Z" fill="#E0E0E0"/>
<path d="M76.4889 148.298C76.4739 148.298 76.4589 148.296 76.4439 148.291C74.1777 147.586 72.8265 144.57 72.7701 144.441L55.6503 115.87C55.6077 115.798 55.6305 115.705 55.7025 115.662C55.7745 115.62 55.8675 115.642 55.9107 115.714L73.0389 144.303C73.0605 144.35 74.4003 147.338 76.5339 148.002C76.6137 148.027 76.6581 148.111 76.6335 148.191C76.6131 148.257 76.5531 148.298 76.4889 148.298Z" fill="#383D84"/>
<path d="M72.6603 109.627C72.6069 109.627 72.5559 109.599 72.5277 109.549L66.5697 98.8153C66.5295 98.7427 66.5553 98.6503 66.6291 98.6095C66.7017 98.5687 66.7941 98.5945 66.8349 98.6683L72.7929 109.402C72.8331 109.474 72.8073 109.567 72.7335 109.608C72.7107 109.621 72.6849 109.627 72.6603 109.627Z" fill="#383D84"/>
<path d="M98.2921 107.685C98.2135 107.685 98.1475 107.623 98.1415 107.545C97.7443 102.186 96.6013 96.9127 94.7437 91.8697C94.7149 91.7917 94.7551 91.7047 94.8337 91.6759C94.9135 91.6465 94.9993 91.6873 95.0275 91.7659C96.8947 96.8347 98.0437 102.136 98.4427 107.523C98.4493 107.606 98.3863 107.679 98.3035 107.685C98.2993 107.685 98.2957 107.685 98.2921 107.685Z" fill="#383D84"/>
<path d="M237.435 72.9013L245.491 64.1125L236.672 66.3031L235.958 59.0053L229.936 64.1167L226.58 56.9071L225.375 68.2075C225.375 68.2075 230.422 73.9081 237.435 72.9013Z" fill="#FFB552"/>
<path d="M247.191 99.2407C246.938 96.7477 245.924 94.4017 244.866 92.1295C243.809 89.8579 242.684 87.5821 242.184 85.1269C241.59 82.2079 241.903 79.1491 241.185 76.2577C240.113 71.9431 236.612 68.3197 232.337 67.0993C229.118 66.1807 225.553 66.6517 222.628 68.2627C219.622 68.9161 216.883 70.9249 215.597 73.7347C213.994 77.2369 214.534 81.4537 212.818 84.9013C211.297 87.9547 208.227 89.9617 206.467 92.8837C204.355 96.3931 204.462 101.117 206.731 104.528C209.001 107.938 213.318 109.861 217.371 109.266C220.321 108.833 222.999 107.208 225.954 106.805C229.213 106.36 232.459 107.436 235.701 107.995C238.942 108.554 242.657 108.455 245.024 106.172C246.827 104.432 247.443 101.734 247.191 99.2407Z" fill="#162A45"/>
<path d="M224.349 178.692L199.946 324.07C199.612 326.059 197.728 327.402 195.739 327.067C193.865 326.753 192.567 325.048 192.701 323.19L203.797 176.196C204.228 170.49 209.203 166.213 214.909 166.643C220.616 167.074 224.893 172.049 224.463 177.756C224.44 178.066 224.399 178.39 224.349 178.692Z" fill="#F5C4B7"/>
<path d="M246.753 177.234L245.427 323.83C245.408 325.847 243.758 327.467 241.741 327.449C239.841 327.432 238.293 325.952 238.134 324.098L226.063 177.994C225.592 172.29 229.833 167.284 235.537 166.813C241.241 166.342 246.246 170.584 246.717 176.287C246.744 176.599 246.755 176.927 246.753 177.234Z" fill="#F5C4B7"/>
<path d="M210.375 152.76L204.986 168.621C203.241 173.757 202.113 179.08 201.625 184.482L189.93 313.836C205.44 321.121 251.891 316.342 251.891 316.342L250.816 191.731C250.72 180.56 247.891 169.582 242.578 159.755L239.392 153.864L210.375 152.76Z" fill="#E0E0E0"/>
<path d="M221.505 204.491C221.468 204.491 221.431 204.478 221.401 204.451C221.339 204.393 221.335 204.296 221.392 204.233C226.328 198.851 230.002 192.295 232.016 185.274C232.039 185.192 232.124 185.145 232.206 185.169C232.288 185.192 232.334 185.278 232.311 185.359C230.284 192.425 226.586 199.024 221.618 204.441C221.588 204.474 221.546 204.491 221.505 204.491Z" fill="#A32D2B"/>
<path d="M220.817 218.695C220.785 218.695 220.753 218.685 220.726 218.664C220.658 218.614 220.644 218.518 220.694 218.45C226.94 210.046 231.341 200.179 233.421 189.916C233.438 189.833 233.517 189.782 233.602 189.796C233.685 189.813 233.739 189.894 233.722 189.977C231.633 200.284 227.213 210.193 220.941 218.633C220.91 218.673 220.864 218.695 220.817 218.695Z" fill="#A32D2B"/>
<path d="M194.58 142.028C193.448 142.028 192.309 141.662 191.351 140.906C189.09 139.121 188.704 135.841 190.489 133.58L210.522 108.208C212.306 105.948 215.586 105.56 217.847 107.347C220.108 109.132 220.494 112.412 218.709 114.673L198.676 140.045C197.647 141.349 196.121 142.028 194.58 142.028Z" fill="#F5C4B7"/>
<path d="M257.934 138.536L229.153 165.615C227.939 166.757 227.881 168.667 229.023 169.881C230.087 171.012 231.818 171.139 233.031 170.227L264.647 146.52C266.955 144.789 267.423 141.514 265.692 139.206C263.961 136.898 260.687 136.43 258.379 138.161C258.224 138.278 258.073 138.406 257.934 138.536Z" fill="#F5C4B7"/>
<path d="M243.04 106.076C241.603 105.601 239.972 105.752 238.596 106.629C236.167 108.178 235.453 111.402 237.002 113.831L256.935 145.099C258.484 147.528 261.708 148.24 264.137 146.694C266.566 145.145 267.28 141.92 265.731 139.492L245.798 108.224C245.127 107.17 244.14 106.44 243.04 106.076Z" fill="#F5C4B7"/>
<path d="M228.888 164.803C228.888 164.803 218.356 163.687 217.7 164.519C217.044 165.352 224 167.663 224 167.663C224 167.663 217.078 182.638 217.894 183.281C218.71 183.924 222.042 177.523 222.042 177.523C222.042 177.523 219.321 185.259 220.254 185.744C221.099 186.184 224.407 178.378 224.407 178.378C224.407 178.378 222.451 186.852 223.34 186.745C224.229 186.639 226.6 179.16 226.6 179.16C226.6 179.16 225.886 186.223 226.478 186.099C227.07 185.975 229.126 179.121 229.126 179.121C230.169 175.72 231.305 174.578 233.241 171.277C236.722 165.337 234.403 164.11 228.888 164.803Z" fill="#F5C4B7"/>
<path d="M215.293 104.018L214.302 104.145C212.437 104.384 210.773 105.436 209.756 107.018L202.285 118.642L209.336 125.874L218.859 111.253L215.293 104.018Z" fill="#F5C4B7"/>
<path d="M239.129 104.018L226.506 102.222L215.293 104.018L210.632 117.986C208.919 120.327 207.243 122.931 207.108 126.458C206.973 129.986 208.973 132.502 210.34 133.802L210.373 152.759L239.39 153.863L244.331 119.219L239.129 104.018Z" fill="#E0E0E0"/>
<path d="M239.391 152.245C229.707 153.062 219.943 152.345 210.487 150.096C209.351 149.825 208.866 151.576 210.004 151.847C219.61 154.132 229.55 154.891 239.39 154.061C240.547 153.964 240.557 152.147 239.391 152.245Z" fill="#FFB552"/>
<path d="M239.132 104.018L240.554 104.208C242.689 104.494 244.58 105.734 245.691 107.58L250.782 116.036L246.369 128.518L243.466 125.307C236.013 116.173 239.132 104.018 239.132 104.018Z" fill="#F5C4B7"/>
<path d="M230.648 137.081C230.117 137.081 229.561 137.051 228.98 136.986C228.896 136.977 228.836 136.901 228.845 136.817C228.854 136.732 228.924 136.661 229.014 136.681C234.985 137.344 238.542 134.141 239.161 131.654C239.181 131.572 239.264 131.518 239.347 131.542C239.429 131.563 239.479 131.646 239.459 131.728C238.911 133.929 236.062 137.081 230.648 137.081Z" fill="#A32D2B"/>
<path d="M192.678 141.612L157.583 127.7C156.033 127.086 155.275 125.332 155.889 123.782C156.459 122.344 158.013 121.587 159.473 121.978L195.95 131.707C198.738 132.451 200.396 135.314 199.652 138.102C198.909 140.89 196.046 142.547 193.257 141.803C193.068 141.753 192.857 141.681 192.678 141.612Z" fill="#F5C4B7"/>
<path d="M199.27 132.809C199.246 132.815 199.22 132.816 199.193 132.809L192.19 131.036C192.108 131.016 192.058 130.932 192.079 130.85C192.099 130.768 192.183 130.717 192.266 130.739L199.269 132.512C199.351 132.532 199.401 132.616 199.38 132.698C199.365 132.754 199.322 132.795 199.27 132.809Z" fill="#B56757"/>
<path d="M231.64 91.3483L231.32 103.688C231.32 103.688 225.656 106.65 221.586 103.541L222.586 94.2445L231.64 91.3483Z" fill="#F5C4B7"/>
<path d="M222.152 98.277C227.716 99.2226 231.108 95.886 231.108 95.886L222.494 95.1006L222.152 98.277Z" fill="#AD6253"/>
<path d="M217.542 103.658L225.914 102.136L236.185 103.599C229.914 121.51 212.715 115.473 217.542 103.658Z" fill="#F5C4B7"/>
<path d="M224.734 70.0171C234.515 69.4585 239.072 75.4963 237.269 86.2489C235.833 94.8085 230.023 99.0973 223.421 97.4077C218.196 96.0703 215.227 91.5571 215.262 85.1041C215.312 75.8935 218.927 70.3483 224.734 70.0171Z" fill="#F5C4B7"/>
<path d="M215.746 77.6353C217.019 76.1599 218.291 74.6845 219.563 73.2097C222.074 77.8519 226.62 81.3451 231.752 82.5757C232.545 85.5157 235.227 87.7885 238.227 88.3141C238.865 85.0309 239.072 81.6073 238.192 78.3799C237.312 75.1531 235.405 72.1453 232.616 70.2991C229.828 68.4523 226.131 67.8883 223.046 69.1807C221.305 69.9097 219.827 71.1763 218.637 72.6421C217.447 74.1067 216.585 75.9445 215.746 77.6353Z" fill="#162A45"/>
<path d="M235.847 86.7535C235.099 88.2073 235.405 89.7037 236.458 90.2455C237.51 90.7879 238.97 90.0487 239.719 88.5949C240.467 87.1411 240.22 85.5229 239.168 84.9805C238.114 84.4387 236.595 85.2997 235.847 86.7535Z" fill="#F5C4B7"/>
<path d="M236.744 88.8649C236.607 88.8649 236.483 88.7731 236.447 88.6351C236.405 88.4707 236.504 88.3039 236.668 88.2613C236.898 88.2019 237.162 88.0159 237.201 87.7477C237.216 87.6439 237.184 87.5311 237.147 87.3997C237.107 87.2581 237.062 87.0985 237.066 86.9155C237.076 86.5789 237.238 86.2435 237.501 86.0167C237.834 85.7287 238.249 85.6123 238.609 85.7047C239.21 85.8595 239.476 86.4781 239.427 87.0103C239.412 87.1795 239.265 87.2953 239.094 87.2881C238.925 87.2725 238.801 87.1231 238.816 86.9551C238.84 86.6881 238.722 86.3671 238.456 86.2987C238.296 86.2579 238.078 86.3287 237.903 86.4811C237.77 86.5957 237.686 86.7679 237.681 86.9323C237.678 87.0217 237.706 87.1195 237.738 87.2329C237.786 87.4063 237.842 87.6025 237.809 87.8353C237.74 88.3111 237.344 88.7209 236.821 88.8559C236.795 88.8619 236.769 88.8649 236.744 88.8649Z" fill="#AD6253"/>
<path d="M216.582 79.5583C216.582 79.5583 219.574 79.3261 221.363 79.8163C220.495 78.3529 217.807 78.7777 216.582 79.5583Z" fill="#162A45"/>
<path d="M230.85 80.8591C230.85 80.8591 227.949 80.0899 226.102 80.2483C227.219 78.9661 229.787 79.8697 230.85 80.8591Z" fill="#162A45"/>
<path d="M220.03 84.2485C219.976 84.8323 219.549 85.2703 219.076 85.2271C218.602 85.1839 218.261 84.6757 218.314 84.0919C218.368 83.5081 218.795 83.0695 219.268 83.1127C219.742 83.1559 220.082 83.6647 220.03 84.2485Z" fill="#162A45"/>
<path d="M219.205 83.7859C219.187 83.9737 219.053 84.1153 218.904 84.1021C218.755 84.0883 218.649 83.9251 218.666 83.7373C218.683 83.5489 218.818 83.4079 218.967 83.4211C219.115 83.4343 219.222 83.5975 219.205 83.7859Z" fill="white"/>
<path d="M228.33 85.0045C228.277 85.5883 227.85 86.0263 227.376 85.9831C226.902 85.9399 226.561 85.4317 226.615 84.8479C226.668 84.2641 227.096 83.8261 227.569 83.8687C228.042 83.9125 228.383 84.4213 228.33 85.0045Z" fill="#162A45"/>
<path d="M227.505 84.5425C227.488 84.7303 227.354 84.8719 227.205 84.8587C227.056 84.8455 226.949 84.6817 226.967 84.4939C226.984 84.3055 227.119 84.1645 227.267 84.1777C227.416 84.1909 227.523 84.3541 227.505 84.5425Z" fill="white"/>
<path d="M222.086 88.3945C222.059 88.3945 222.03 88.3909 222.003 88.3831C221.497 88.2397 221.151 87.9907 221.004 87.6631C220.921 87.4759 220.862 87.1705 221.054 86.7745C221.162 86.5537 221.363 86.2783 221.576 85.9879C221.768 85.7239 221.968 85.4509 222.054 85.2721C222.127 85.1191 222.311 85.0543 222.464 85.1287C222.616 85.2019 222.681 85.3849 222.607 85.5379C222.497 85.7677 222.29 86.0503 222.071 86.3497C221.884 86.6065 221.69 86.8711 221.607 87.0433C221.499 87.2653 221.549 87.3757 221.565 87.4123C221.633 87.5653 221.853 87.7033 222.17 87.7927C222.333 87.8389 222.428 88.0087 222.381 88.1713C222.343 88.3063 222.22 88.3945 222.086 88.3945Z" fill="#AD6253"/>
<path d="M219.867 89.5387C221.739 89.8447 223.72 89.9371 225.787 89.8627C224.521 92.1151 220.36 91.3207 219.867 89.5387Z" fill="white"/>
<path d="M159.903 121.652C159.903 121.652 152.406 114.23 151.423 114.525C150.44 114.82 153.87 120.309 153.87 120.309C153.87 120.309 148.217 120.929 145.177 120.071C144.448 121.056 145.142 122.436 145.142 122.436C144.37 124.149 145.394 125.202 145.394 125.202C144.754 126.784 146.29 127.783 146.29 127.783C146.167 129.286 147.907 129.8 147.907 129.8C147.907 129.8 151.486 130.738 154.575 130.578C157.665 130.419 161.251 128.599 161.5 127.253C161.749 125.907 161.555 122.592 159.903 121.652Z" fill="#F5C4B7"/>
<path d="M154.711 132.15C153.831 132.167 152.955 132.232 152.082 132.323C151.548 128.638 151.014 124.953 150.481 121.268C150.324 120.182 148.633 120.409 148.79 121.498C149.324 125.18 149.856 128.863 150.39 132.546C149.635 132.667 148.883 132.805 148.137 132.98C147.689 133.086 147.34 133.453 147.407 133.941C147.464 134.364 147.916 134.778 148.367 134.671C150.523 134.163 152.725 133.885 154.94 133.841C155.402 133.832 155.727 133.3 155.67 132.881C155.603 132.38 155.174 132.14 154.711 132.15Z" fill="#383D84"/>
<path d="M142.664 107.958L152.738 106.246C152.738 106.246 155.428 122.048 149.837 122.809C143.818 123.629 142.664 107.958 142.664 107.958Z" fill="#383D84"/>
<path d="M144.438 110.504L151.712 109.268C151.712 109.268 153.654 120.677 149.617 121.228C145.271 121.819 144.438 110.504 144.438 110.504Z" fill="#5FC5A9"/>
<path d="M145.662 120.306C145.83 119.505 153.412 120.771 153.686 121.914C153.96 123.057 147.836 123.076 147.836 123.076C147.836 123.076 154.377 123.204 154.552 124.332C154.728 125.46 148.356 125.613 148.4 125.628C148.444 125.643 153.356 125.7 153.626 126.357C153.896 127.015 149.57 127.506 149.57 127.506C149.57 127.506 152.745 127.872 152.935 128.287C153.125 128.703 148.983 129.814 148.227 129.325C147.469 128.836 144.958 123.655 145.662 120.306Z" fill="#F5C4B7"/>
<path d="M133.339 108.201L124.84 102.715L126.874 100.758L133.339 108.201Z" fill="#7B85E8"/>
<path d="M134.37 107.017L131.949 95.2711L136.276 94.7557L134.37 107.017Z" fill="#7B85E8"/>
<path d="M137.363 105.471L141.134 97.2031L143.486 99.7789L137.363 105.471Z" fill="#7B85E8"/>
</g>
<path d="M222.733 29.7229C221.271 29.2915 220.053 28.1083 219.579 26.6587C218.778 27.1045 218.06 27.9139 217.695 28.7551C218.213 29.9095 219.295 30.8161 220.512 31.1617C221.262 30.7129 221.982 30.1717 222.733 29.7229Z" fill="#E0E0E0"/>
<path d="M124.05 168.588C122.561 168.259 121.264 167.163 120.691 165.75C119.923 166.251 119.262 167.108 118.957 167.973C119.554 169.088 120.696 169.917 121.934 170.178C122.652 169.678 123.333 169.087 124.05 168.588Z" fill="#4D52A8"/>
<path d="M35.0743 144.013C34.1095 145.193 32.5465 145.856 31.0273 145.73C31.1275 146.642 31.5949 147.618 32.2285 148.28C33.4933 148.251 34.7485 147.606 35.5393 146.618C35.4169 145.752 35.1967 144.878 35.0743 144.013Z" fill="#E0E0E0"/>
<path d="M282.184 148.281C281.219 149.461 279.656 150.124 278.137 149.998C278.238 150.909 278.704 151.886 279.338 152.548C280.603 152.519 281.858 151.873 282.649 150.886C282.526 150.02 282.307 149.146 282.184 148.281Z" fill="#FFB552"/>
<path d="M118.492 40.5319C117.528 41.7121 115.965 42.3757 114.445 42.2497C114.546 43.1611 115.013 44.1373 115.647 44.7997C116.911 44.7703 118.167 44.1247 118.957 43.1371C118.834 42.2713 118.615 41.3977 118.492 40.5319Z" fill="#FFB552"/>
<path d="M163.16 71.5777C163.502 72.7933 163.591 74.0791 163.422 75.3301C164.567 74.9251 165.62 74.2867 166.496 73.4449C166.197 72.8389 165.717 72.3205 165.123 71.9977C164.53 71.6749 163.832 71.4991 163.16 71.5777Z" fill="#4D52A8"/>
<path d="M183.824 166.097C184.166 167.312 184.256 168.598 184.086 169.849C185.231 169.444 186.285 168.806 187.16 167.964C186.861 167.358 186.381 166.84 185.787 166.517C185.193 166.194 184.496 166.018 183.824 166.097Z" fill="#E0E0E0"/>
<path d="M276.469 170.596C276.81 171.812 276.9 173.098 276.731 174.349C277.876 173.944 278.929 173.305 279.805 172.463C279.506 171.857 279.026 171.339 278.432 171.016C277.839 170.693 277.14 170.518 276.469 170.596Z" fill="#4D52A8"/>
<path d="M45.332 164.211C45.6734 165.427 45.7628 166.713 45.5942 167.964C46.739 167.559 47.7926 166.92 48.668 166.078C48.3692 165.472 47.8892 164.954 47.2952 164.631C46.7018 164.308 46.0034 164.133 45.332 164.211Z" fill="#5FC5A9"/>
<path d="M183.825 102.873C182.596 104.339 181.751 106.218 181.546 108.12C181.167 106.099 179.736 104.324 177.852 103.502C179.319 102.539 180.3 100.871 180.429 99.1213C181.229 100.611 182.339 102.066 183.825 102.873Z" fill="#F78721"/>
<path d="M141.103 165.331C139.873 166.796 139.028 168.676 138.824 170.578C138.444 168.556 137.014 166.782 135.129 165.959C136.597 164.996 137.578 163.329 137.707 161.579C138.506 163.069 139.617 164.524 141.103 165.331Z" fill="#F78721"/>
<path d="M270.31 98.1739C269.583 99.0409 269.083 100.152 268.963 101.277C268.738 100.082 267.892 99.0319 266.777 98.5459C267.645 97.9765 268.226 96.9901 268.302 95.9551C268.775 96.8365 269.431 97.6969 270.31 98.1739Z" fill="#F78721"/>
<path d="M129.533 191.505C128.806 192.372 128.306 193.483 128.185 194.608C127.961 193.413 127.115 192.364 126 191.877C126.868 191.308 127.448 190.321 127.525 189.286C127.997 190.167 128.654 191.028 129.533 191.505Z" fill="#F78721"/>
<path d="M36.818 83.8866C36.0908 84.7536 35.591 85.8648 35.4704 86.9898C35.246 85.7946 34.4 84.7452 33.2852 84.2586C34.1528 83.6892 34.7336 82.7028 34.8098 81.6678C35.2826 82.5492 35.9396 83.4096 36.818 83.8866Z" fill="#F78721"/>
<path d="M139.881 51.3619C139.154 52.2289 138.654 53.3401 138.533 54.4651C138.308 53.2699 137.462 52.2199 136.348 51.7339C137.215 51.1645 137.796 50.1781 137.872 49.1431C138.346 50.0245 139.002 50.8849 139.881 51.3619Z" fill="#F78721"/>
<path d="M261.13 79.0819C259.9 80.5477 259.056 82.4269 258.851 84.3289C258.472 82.3075 257.041 80.5333 255.156 79.7107C256.623 78.7477 257.605 77.0803 257.734 75.3301C258.534 76.8199 259.644 78.2749 261.13 79.0819Z" fill="#F78721"/>
<path d="M43.6845 116.081C42.4551 117.547 41.6103 119.426 41.4057 121.328C41.0265 119.307 39.5955 117.533 37.7109 116.71C39.1779 115.747 40.1595 114.08 40.2885 112.33C41.0883 113.819 42.1983 115.274 43.6845 116.081Z" fill="#F78721"/>
</g>
<defs>
<clipPath id="clip0_3240_44421">
<rect width="300" height="300" fill="white" transform="translate(0 -15.3257)"/>
</clipPath>
</defs>
</svg>
