<svg width="676" height="346" viewBox="0 0 676 346" fill="none" xmlns="http://www.w3.org/2000/svg">
<path d="M659.903 326.706C659.903 343.211 520.881 345.694 344.326 345.694C167.771 345.694 20.5391 343.211 20.5391 326.706C20.5391 310.202 163.665 296.822 340.222 296.822C516.778 296.822 659.903 310.202 659.903 326.706Z" fill="#0D1E57"/>
<path d="M520.611 152.438C520.611 207.778 490.903 256.178 446.561 282.562C423.946 296.018 397.524 303.749 369.295 303.749C361.368 303.749 353.587 303.141 345.988 301.963C273.49 290.756 217.984 228.08 217.984 152.438C217.984 78.5376 270.957 17.0214 340.994 3.77429C350.161 2.0319 359.622 1.12695 369.295 1.12695C387.502 1.12695 404.958 4.34368 421.121 10.2344C479.168 31.3874 520.611 87.0718 520.611 152.438Z" fill="#E1F0FA"/>
<path d="M421.119 10.2334C420.902 10.2809 420.679 10.3209 420.457 10.3617C365.066 20.4939 398.841 4.2819 373.173 8.33513C359.271 10.53 346.275 8.21345 340.992 3.77524C350.159 2.0319 359.622 1.12695 369.295 1.12695C387.499 1.1279 404.953 4.34178 421.119 10.2334Z" fill="#87CAD4"/>
<path fill-rule="evenodd" clip-rule="evenodd" d="M520.59 152.169C519.126 151.845 517.738 151.845 516.679 152.109C512.769 153.089 517.335 156.348 514.724 159.934C512.117 163.522 517.007 167.436 515.376 170.044C514.56 171.352 515.376 179.82 516.396 187.969C516.236 188.618 516.076 189.265 515.912 189.913C515.793 190.389 515.669 190.865 515.541 191.341C515.497 191.508 515.453 191.681 515.41 191.849C515.393 191.909 515.377 191.972 515.357 192.032C515.341 192.085 515.329 192.14 515.313 192.192C515.265 192.375 515.213 192.56 515.16 192.747C515.121 192.908 515.077 193.064 515.028 193.223C514.916 193.62 514.808 194.019 514.692 194.411C514.568 194.838 514.444 195.262 514.32 195.686C514.3 195.751 514.284 195.806 514.264 195.871C514.156 196.231 514.048 196.599 513.936 196.954C513.9 197.074 513.864 197.186 513.824 197.306C513.732 197.61 513.637 197.913 513.536 198.221C513.48 198.401 513.424 198.582 513.364 198.765C513.288 199.001 513.208 199.24 513.132 199.481C512.995 199.901 512.86 200.32 512.72 200.737C512.648 200.948 512.58 201.156 512.505 201.364C512.437 201.568 512.369 201.776 512.296 201.98C512.296 201.984 512.293 201.988 512.293 201.988C512.148 202.404 512.001 202.82 511.856 203.236C511.704 203.647 511.557 204.059 511.405 204.475C511.381 204.535 511.361 204.596 511.337 204.66C511.245 204.904 511.158 205.143 511.069 205.388C511.049 205.435 511.034 205.485 511.014 205.532C510.99 205.6 510.962 205.668 510.938 205.732C510.917 205.784 510.902 205.832 510.882 205.879C510.782 206.147 510.682 206.411 510.578 206.675C510.518 206.834 510.458 206.991 510.393 207.151C510.322 207.338 510.25 207.523 510.178 207.707C510.158 207.759 510.138 207.807 510.118 207.859C510.069 207.979 510.025 208.104 509.978 208.223C509.846 208.551 509.715 208.879 509.579 209.207C509.559 209.267 509.53 209.327 509.507 209.387C509.494 209.415 509.487 209.443 509.47 209.47C509.334 209.819 509.195 210.162 509.046 210.507C509.034 210.539 509.018 210.571 509.007 210.603C508.834 211.007 508.666 211.411 508.499 211.815C508.479 211.854 508.463 211.898 508.447 211.934C508.251 212.39 508.055 212.842 507.855 213.297C507.767 213.489 507.683 213.689 507.595 213.885C507.451 214.209 507.307 214.529 507.159 214.853C507.015 215.168 506.867 215.488 506.718 215.808C506.671 215.911 506.622 216.011 506.579 216.115C506.546 216.187 506.514 216.258 506.482 216.332H506.478C506.462 216.36 506.45 216.387 506.438 216.419C506.422 216.447 506.406 216.479 506.394 216.508C506.198 216.931 505.995 217.355 505.795 217.778C505.758 217.851 505.723 217.922 505.691 217.994C505.575 218.235 505.459 218.469 505.339 218.71C505.299 218.79 505.263 218.873 505.223 218.954C505.075 219.255 504.931 219.558 504.775 219.858C504.746 219.918 504.719 219.974 504.687 220.034C504.475 220.454 504.263 220.873 504.051 221.29C503.903 221.578 503.756 221.866 503.603 222.15C503.603 222.158 503.603 222.162 503.6 222.166C503.48 222.394 503.364 222.618 503.244 222.842C503.108 223.098 502.976 223.351 502.844 223.606C502.836 223.614 502.832 223.618 502.828 223.63C502.803 223.678 502.775 223.721 502.756 223.774C502.58 224.102 502.404 224.43 502.219 224.758C502.171 224.85 502.12 224.941 502.067 225.033C501.947 225.249 501.832 225.461 501.712 225.673C501.595 225.89 501.475 226.105 501.355 226.317C501.184 226.625 501.007 226.933 500.832 227.238C500.66 227.546 500.48 227.854 500.303 228.158C500.091 228.529 499.875 228.897 499.663 229.261C499.66 229.27 499.651 229.277 499.647 229.285C499.519 229.502 499.399 229.713 499.267 229.93C499.139 230.149 499.006 230.365 498.879 230.577C498.871 230.585 498.868 230.597 498.859 230.605C498.819 230.665 498.783 230.733 498.743 230.793C498.62 231.001 498.495 231.205 498.368 231.409C498.203 231.681 498.036 231.949 497.872 232.213C497.621 232.617 497.369 233.021 497.113 233.425C497.029 233.553 496.949 233.684 496.869 233.812C496.833 233.864 496.797 233.92 496.76 233.976C496.621 234.2 496.476 234.416 496.333 234.641C496.273 234.728 496.217 234.816 496.16 234.904C496.148 234.924 496.128 234.948 496.117 234.971C495.952 235.223 495.793 235.471 495.624 235.719C495.593 235.771 495.557 235.823 495.525 235.875C495.405 236.06 495.281 236.247 495.157 236.427C494.909 236.799 494.661 237.167 494.409 237.534C494.392 237.558 494.372 237.582 494.356 237.61C494.24 237.777 494.124 237.947 494.008 238.114C493.965 238.181 493.916 238.246 493.868 238.318C493.688 238.582 493.505 238.847 493.32 239.11C493.124 239.394 492.929 239.67 492.729 239.946C492.72 239.958 492.713 239.97 492.705 239.978C492.326 240.518 491.941 241.049 491.554 241.581C491.466 241.697 491.378 241.816 491.294 241.937C491.13 242.157 490.969 242.376 490.806 242.592C490.79 242.616 490.774 242.637 490.758 242.661C490.598 242.876 490.438 243.088 490.275 243.304C490.151 243.472 490.026 243.636 489.902 243.796C489.695 244.075 489.482 244.352 489.267 244.627C489.151 244.779 489.03 244.931 488.915 245.083C488.587 245.507 488.259 245.922 487.931 246.338C487.6 246.758 487.268 247.174 486.931 247.59C486.896 247.634 486.855 247.678 486.819 247.722C486.672 247.91 486.52 248.094 486.368 248.278C486.044 248.67 485.723 249.066 485.392 249.454C485.384 249.462 485.376 249.474 485.369 249.482C485.356 249.494 485.344 249.51 485.336 249.522C485.028 249.89 484.717 250.258 484.404 250.622C484.237 250.817 484.072 251.018 483.9 251.213C483.856 251.265 483.813 251.313 483.768 251.365C483.708 251.433 483.648 251.506 483.584 251.577C483.568 251.593 483.556 251.613 483.54 251.629C483.364 251.833 483.184 252.038 483.008 252.237C482.92 252.34 482.829 252.44 482.74 252.541C482.561 252.748 482.376 252.948 482.197 253.157C482.189 253.157 482.189 253.165 482.184 253.169C482.064 253.301 481.948 253.433 481.825 253.565C481.357 254.089 480.882 254.609 480.402 255.129C480.317 255.221 480.234 255.314 480.15 255.401C480.125 255.429 480.103 255.452 480.079 255.476C479.867 255.704 479.65 255.936 479.434 256.164C479.142 256.48 478.847 256.792 478.546 257.101C478.343 257.316 478.139 257.525 477.93 257.736C477.667 258.016 477.394 258.292 477.119 258.567C477.119 258.571 477.11 258.575 477.11 258.58C477.014 258.683 476.918 258.779 476.818 258.875C476.726 258.971 476.63 259.063 476.539 259.156C476.302 259.395 476.063 259.631 475.827 259.872H475.823C474.96 260.727 474.083 261.575 473.199 262.407C473.028 262.571 472.856 262.735 472.684 262.895C472.444 263.12 472.204 263.343 471.964 263.563C471.296 264.182 470.624 264.795 469.945 265.398C469.784 265.542 469.621 265.685 469.456 265.83C469.341 265.934 469.228 266.034 469.113 266.134C468.796 266.413 468.477 266.694 468.157 266.966C467.949 267.145 467.741 267.326 467.528 267.506C467.177 267.81 466.82 268.109 466.465 268.406C465.805 268.965 465.137 269.513 464.462 270.062C463.898 270.517 463.33 270.969 462.758 271.421C460.279 267.718 460.54 259.173 462.223 255.806C466.282 247.697 476.735 252.527 475.752 242.933C475.631 241.731 473.181 235.557 473.201 234.008C473.249 229.722 477.964 216.736 476.176 213.608C474.476 210.634 473.727 211.817 474.051 201.708C474.379 191.604 464.535 194.316 462.576 192.358C460.621 190.403 451.032 194.342 449.401 191.084C447.77 187.82 447.388 184.558 442.821 182.275C438.258 179.995 441.194 177.384 436.954 171.842C432.712 166.299 434.671 160.43 437.278 154.888C439.886 149.341 433.368 147.386 437.93 144.127C442.497 140.864 440.541 137.93 446.083 135.974C451.625 134.019 463.366 136.298 467.277 138.258C471.193 140.213 472.431 138.383 478.302 138.383C484.172 138.383 485.896 144.375 489.777 141.783C493.856 139.058 494.168 148.601 497.428 143.058C500.69 137.515 504.777 140.54 509.668 142.167C509.964 142.267 510.239 142.347 510.496 142.407C514.483 143.331 513.907 139.764 513.907 137.929C513.907 137.128 512.712 136.657 511.16 136.334C508.916 135.866 505.933 135.706 504.777 135.322C502.822 134.67 493.365 138.91 490.758 134.67C488.147 130.431 487.171 130.756 485.212 130.756C483.256 130.756 479.998 129.452 478.366 128.472C476.735 127.497 478.387 137.591 474.477 134.984C470.563 132.377 463.367 121.299 463.367 121.299C458.149 120.647 452.606 129.124 450.975 129.124C449.344 129.124 445.756 132.711 444.781 134.019C443.802 135.322 441.847 133.691 438.911 138.91C435.976 144.127 432.062 147.059 426.196 147.059C420.326 147.059 417.063 140.865 417.063 140.865C415.107 140.541 413.475 134.995 414.783 133.368C416.086 131.736 415.758 130.432 415.758 130.432C415.106 125.866 420.976 122.931 421.956 122.607C422.931 122.279 420.976 120.975 424.236 120.648C427.499 120.324 430.433 117.713 431.737 116.085C433.041 114.454 431.41 112.171 430.106 111.519C428.802 110.868 429.13 109.888 424.564 108.26C419.997 106.628 417.39 102.063 420.325 96.844C423.26 91.6301 432.389 87.7147 434.996 84.7794C437.607 81.844 438.259 74.0189 439.235 72.0636C440.215 70.1083 443.474 71.0836 447.389 69.7803C451.303 68.4771 451.627 74.3469 452.931 74.671C454.235 74.999 454.235 73.6957 455.215 73.0436C456.195 72.3925 456.847 71.7366 457.17 76.3031C457.498 80.8697 454.235 82.4971 454.563 83.4771C454.891 84.4571 458.477 85.1092 458.477 85.1092C460.329 84.8012 462.328 84.7851 464.056 84.8535C465.984 84.9296 467.574 85.1092 468.258 85.1092C469.563 85.1092 470.866 82.1739 471.518 79.2385C472.17 76.3031 475.104 77.6073 475.432 75.3241C475.44 75.2803 475.445 75.2366 475.456 75.1957C475.456 75.1758 475.461 75.1558 475.465 75.1396C475.881 72.9923 478.024 72.0294 477.389 70.7613C476.968 69.9182 476.545 68.1187 476.568 65.3592C476.577 63.8602 476.72 62.0721 477.065 60.0009C477.085 59.8811 477.105 59.7575 477.121 59.6415C477.125 59.614 477.129 59.5855 477.134 59.5617C477.925 54.0636 475.718 52.8031 474.131 51.8478C472.5 50.8725 472.827 48.9134 472.172 47.9372C471.52 46.9581 468.585 49.8934 467.281 52.1758C465.978 54.459 468.585 57.3906 468.585 64.2394C468.585 71.0855 462.391 70.7613 461.411 69.4581C461.032 68.9467 460.404 69.2822 459.7 69.8222C458.598 70.6663 457.317 72.0094 456.522 71.4134C455.43 70.594 457.085 70.2299 458.805 66.479C459.137 65.7594 459.468 64.9115 459.784 63.9115C460.724 60.9362 458.048 58.1815 455.235 55.7661C453.323 54.1263 451.344 52.6396 450.392 51.3393C449.829 50.5712 449.624 49.8668 450.001 49.2404C451.96 45.9771 452.612 39.1311 449.025 34.2414C447.185 31.7337 447.401 27.767 448.537 23.5322C449.889 24.364 451.232 25.2195 452.563 26.0988C452.704 26.191 452.835 26.2784 452.972 26.3706C453.492 26.7195 454.007 27.0626 454.524 27.4153C455.195 27.8754 455.871 28.3431 456.543 28.8193C457.151 29.2432 457.751 29.6786 458.35 30.114C458.553 30.2661 458.757 30.4134 458.962 30.5664C458.969 30.5741 458.982 30.5779 458.99 30.5864C459.418 30.8982 459.838 31.2147 460.257 31.5303C460.297 31.5617 460.337 31.5902 460.377 31.6216C460.886 32.0018 461.393 32.3896 461.893 32.7775C462.31 33.1016 462.721 33.4248 463.133 33.749C463.377 33.941 463.621 34.133 463.857 34.3288C464.077 34.5009 464.297 34.6767 464.513 34.8573C464.805 35.0893 465.089 35.3212 465.372 35.5569C465.66 35.7936 465.944 36.0284 466.228 36.2689C466.416 36.421 466.6 36.5769 466.784 36.7366C467.092 36.9933 467.4 37.2528 467.704 37.5161C468.06 37.8202 468.411 38.1244 468.764 38.4315C468.912 38.5598 469.064 38.6957 469.212 38.824C469.616 39.1796 470.02 39.5398 470.423 39.8991C470.623 40.0788 470.819 40.2594 471.019 40.4391C471.514 40.8906 472.01 41.3431 472.503 41.806C472.902 42.1777 473.298 42.5503 473.69 42.9296C473.818 43.0493 473.946 43.1701 474.073 43.2936C474.477 43.6767 474.877 44.0655 475.273 44.4571C475.372 44.5531 475.468 44.6491 475.564 44.7452C475.992 45.1691 476.42 45.5969 476.844 46.0246C477.352 46.536 477.859 47.0522 478.359 47.576C478.371 47.5874 478.379 47.5997 478.395 47.6121C478.487 47.7119 478.583 47.8079 478.679 47.9086C478.907 48.1529 479.142 48.4001 479.374 48.6444C479.538 48.8164 479.699 48.9885 479.858 49.1606C480.018 49.3326 480.179 49.5047 480.338 49.6767C480.354 49.6929 480.371 49.709 480.386 49.7242C480.661 50.0237 480.938 50.324 481.214 50.6282C481.53 50.9761 481.85 51.3317 482.165 51.6834C482.465 52.0199 482.769 52.363 483.069 52.7071C483.329 53.0028 483.589 53.2984 483.849 53.5988C484.177 53.978 484.496 54.3535 484.82 54.7385C485.144 55.1178 485.465 55.5028 485.784 55.8858C486.24 56.4372 486.696 56.9895 487.143 57.5493C487.155 57.5693 487.176 57.5855 487.191 57.6016C487.526 58.0256 487.867 58.4495 488.203 58.8773C488.535 59.306 488.871 59.729 489.203 60.1615C489.443 60.4733 489.683 60.7889 489.927 61.1045C490.354 61.6729 490.782 62.2442 491.202 62.8164C491.427 63.1168 491.646 63.4163 491.858 63.7166C492.294 64.3164 492.721 64.9201 493.149 65.5199C493.361 65.8241 493.573 66.1282 493.785 66.4324C493.993 66.7404 494.205 67.0408 494.417 67.3478C494.589 67.6035 494.765 67.8554 494.933 68.1159C495.069 68.3203 495.205 68.5237 495.345 68.728C495.345 68.728 495.345 68.7318 495.349 68.7318C495.448 68.8877 495.552 69.0398 495.657 69.1957C495.857 69.5037 496.061 69.8107 496.26 70.1235C496.464 70.4343 496.663 70.7471 496.864 71.0588C497.067 71.3792 497.268 71.6995 497.471 72.0189C497.663 72.3279 497.855 72.6349 498.047 72.9429C498.243 73.2585 498.439 73.5788 498.631 73.8944C498.775 74.1263 498.915 74.3583 499.06 74.594C499.107 74.6739 499.156 74.7537 499.203 74.8383C499.343 75.0779 499.483 75.3174 499.627 75.5579C499.722 75.7138 499.814 75.8735 499.91 76.0379C500.05 76.2822 500.194 76.5218 500.338 76.7661C500.522 77.0902 500.71 77.4144 500.891 77.7337C500.91 77.7699 500.927 77.8012 500.95 77.8374C501.271 78.401 501.586 78.9657 501.902 79.537C501.922 79.5693 501.938 79.6054 501.958 79.6368C502.022 79.7528 502.086 79.8735 502.15 79.9885C502.19 80.0607 502.226 80.133 502.262 80.2052C502.282 80.2328 502.298 80.2604 502.31 80.2889C502.353 80.3687 502.398 80.4486 502.442 80.5284C502.489 80.6206 502.542 80.7119 502.59 80.805C502.706 81.0208 502.822 81.2328 502.938 81.4524C503.258 82.0522 503.574 82.6558 503.886 83.2594C503.891 83.267 503.898 83.2794 503.906 83.2908C503.998 83.4704 504.09 83.6511 504.178 83.8307C504.398 84.2585 504.613 84.691 504.829 85.1263C505.017 85.5066 505.205 85.8906 505.392 86.2737C505.477 86.4419 505.556 86.6102 505.641 86.7822C505.673 86.8497 505.708 86.9182 505.741 86.9857C505.837 87.1862 505.932 87.3858 506.025 87.5855C506.229 88.0094 506.425 88.4334 506.625 88.8573C507.208 90.1083 507.773 91.3725 508.316 92.6434C508.353 92.728 508.389 92.8079 508.424 92.8877C508.696 93.5313 508.967 94.1786 509.236 94.8269C509.256 94.8706 509.275 94.9229 509.295 94.9666C509.5 95.4619 509.703 95.9619 509.899 96.4581C509.995 96.7024 510.092 96.9457 510.188 97.19C510.188 97.1938 510.188 97.1938 510.188 97.1938C510.292 97.4495 510.388 97.7062 510.487 97.9619C510.579 98.1976 510.667 98.4296 510.755 98.6653C510.955 99.1891 511.15 99.7128 511.346 100.24C511.546 100.785 511.742 101.333 511.938 101.876C511.974 101.976 512.01 102.076 512.046 102.177C512.063 102.237 512.086 102.296 512.106 102.356C512.334 103.012 512.562 103.676 512.786 104.34C512.806 104.392 512.822 104.444 512.842 104.5C513.058 105.163 513.274 105.828 513.489 106.495C513.585 106.787 513.678 107.079 513.765 107.371C513.801 107.479 513.833 107.586 513.869 107.699C513.952 107.978 514.036 108.258 514.121 108.538C514.136 108.57 514.144 108.606 514.152 108.638L514.212 108.834C514.352 109.302 514.487 109.77 514.628 110.237C514.703 110.497 514.78 110.758 514.852 111.021C514.94 111.329 515.025 111.637 515.108 111.941C515.312 112.673 515.511 113.405 515.703 114.144C515.795 114.512 515.89 114.88 515.987 115.248C516.043 115.484 516.103 115.716 516.162 115.951C516.195 116.071 516.222 116.196 516.255 116.315C516.342 116.691 516.434 117.071 516.523 117.448C516.59 117.731 516.655 118.019 516.722 118.303C516.747 118.394 516.766 118.49 516.787 118.587C516.874 118.959 516.959 119.335 517.038 119.707C517.102 119.994 517.166 120.283 517.226 120.575C517.242 120.631 517.254 120.691 517.266 120.751C517.35 121.151 517.434 121.55 517.518 121.954C517.594 122.331 517.67 122.706 517.742 123.083C517.894 123.835 518.034 124.59 518.17 125.35C518.238 125.725 518.306 126.105 518.374 126.486C518.438 126.865 518.503 127.245 518.565 127.624C518.625 128.005 518.69 128.389 518.75 128.769C518.87 129.532 518.982 130.296 519.093 131.064C519.201 131.831 519.301 132.595 519.402 133.372C519.449 133.756 519.493 134.139 519.542 134.523C519.585 134.911 519.629 135.295 519.674 135.682C519.718 136.074 519.754 136.458 519.797 136.846C519.838 137.234 519.877 137.622 519.914 138.009C519.946 138.401 519.982 138.789 520.018 139.177C520.09 140.036 520.162 140.896 520.221 141.764C520.23 141.868 520.237 141.981 520.245 142.088C520.245 142.112 520.245 142.136 520.25 142.164C520.274 142.516 520.298 142.869 520.318 143.22C520.326 143.333 520.33 143.449 520.338 143.565V143.581C520.367 144.068 520.391 144.56 520.414 145.052C520.45 145.84 520.482 146.627 520.51 147.415C520.514 147.455 520.514 147.491 520.514 147.531C520.534 148.287 520.554 149.039 520.566 149.795C520.574 150.191 520.578 150.586 520.586 150.986C520.585 151.373 520.59 151.773 520.59 152.169Z" fill="#87CAD4"/>
<path d="M262.013 215.044C266.038 220.425 263.393 221.403 263.393 223.684C263.393 225.967 261.008 236.402 266.971 240.967C266.971 240.967 274.127 254.661 281.88 254.009C289.632 253.357 289.632 251.401 295.595 254.335C301.559 257.27 309.013 256.618 311.398 257.27C313.783 257.922 320.66 260.205 322.449 263.792C324.237 267.378 328.458 279.606 331.141 280.584C333.825 281.563 337.476 289.389 338.967 291.997C340.458 294.605 346.731 289.389 347.923 286.453C349.116 283.519 349.563 271.944 351.054 269.334C352.544 266.726 344.461 249.682 347.771 244.716C353.64 235.911 352.113 221.563 349.727 217.976C347.342 214.39 352.095 207.868 342.553 204.28C342.553 204.28 335.082 190.911 324.945 194.498C314.808 198.084 320.939 200.204 317.361 203.466C313.783 206.726 307.522 200.204 302.453 200.53C297.384 200.856 295.595 206.074 291.122 204.444C286.65 202.813 272.934 202.161 269.654 204.118C266.374 206.076 257.19 208.597 262.013 215.044Z" fill="#87CAD4"/>
<path d="M273.823 174.664C274.294 175.714 274.31 178.895 274.95 179.528C275.59 180.161 276.541 179.838 277.278 180.323C278.015 180.809 278.068 181.689 278.855 182.419C279.641 183.149 279.842 184.127 279.109 184.277C278.376 184.428 276.169 183.607 275.781 184.197C275.393 184.786 273.035 183.233 272.345 182.355C271.656 181.478 270.371 178.941 270.611 178.254C270.611 178.254 268.521 176.136 270.426 175.489C270.426 175.489 273.107 173.066 273.823 174.664Z" fill="#87CAD4"/>
<path d="M362.937 34.8859C356.74 37.8231 348.916 39.1235 348.916 42.0598C348.916 44.9971 350.548 56.7309 345.329 59.3402C340.114 61.9505 336.2 50.8659 332.94 48.5788C329.677 46.2965 333.591 42.0598 333.591 33.5807C333.591 28.9866 332.83 23.8231 330.153 20.2528C328.933 18.6244 327.306 17.3241 325.172 16.576C325.163 16.5722 325.155 16.5722 325.146 16.5684C324.194 16.2366 323.148 16.0113 321.98 15.9182C321.614 15.8839 321.236 15.8668 320.849 15.8621C320.135 15.8535 319.382 15.8878 318.592 15.9733C314.738 16.3773 312.213 17.036 310.449 17.7803C309.183 18.307 308.316 18.8849 307.636 19.4381C307.636 19.4381 307.632 19.4381 307.632 19.4419C306.2 20.6149 305.592 21.7119 303.917 22.171C301.248 22.8982 295.868 20.3725 292.081 22.537C290.78 23.2765 289.667 24.5684 288.919 26.7357C287.95 29.5275 287.836 31.9667 288.112 34.1349C288.677 38.5427 290.875 41.8279 290.875 44.6663C290.875 48.9087 291.525 57.383 288.27 60.6473C285.006 63.9068 285.334 67.4942 282.073 66.1891C278.813 64.8849 276.203 55.1054 276.203 49.8858C276.203 44.6663 268.702 49.5589 268.702 58.6919C268.702 67.8212 261.205 67.8212 261.205 71.0817C261.205 74.3459 262.179 78.2566 260.555 83.8022C258.923 89.344 264.465 91.6264 270.335 88.69C276.204 85.7575 284.029 71.7319 288.921 66.19C293.813 60.6482 308.162 60.9714 308.162 66.8402C308.162 72.7138 314.358 71.7319 315.009 75.9743C315.663 80.2157 312.726 89.6672 320.223 97.4961C327.724 105.32 309.139 110.213 304.247 110.213C299.356 110.213 294.791 114.777 288.921 114.777C283.051 114.777 288.593 121.624 283.379 128.471C278.161 135.322 267.726 142.819 271.968 151.298C276.204 159.777 278.815 165.97 274.246 165.319C269.685 164.669 265.444 149.671 261.529 150.643C257.62 151.625 250.118 155.54 250.118 162.714C250.118 169.887 252.723 178.362 257.942 176.407C263.162 174.448 262.511 178.362 259.897 180.644C257.292 182.927 253.054 187.164 255.009 193.033C256.969 198.903 254.683 201.189 257.292 203.471C259.897 205.754 260.556 209.991 255.009 209.341C254.282 209.252 252.515 206.761 249.795 206.077C248.486 205.754 245.226 205.754 243.271 199.557C241.312 193.36 238.379 192.71 235.447 191.406C232.51 190.102 228.596 179.994 226.963 178.685C225.96 177.887 222.725 176.089 220.243 174.215C219.976 174.015 219.716 173.811 219.471 173.611C218.501 166.697 218 159.624 218 152.441C218 151.922 218.004 151.408 218.009 150.894C218.012 150.291 218.026 149.691 218.034 149.092C218.056 148.196 218.086 147.303 218.119 146.411C218.136 145.931 218.158 145.451 218.183 144.969C218.2 144.587 218.221 144.204 218.241 143.826C218.267 143.38 218.293 142.938 218.322 142.5V142.474C218.331 142.317 218.343 142.164 218.356 142.011C218.369 141.803 218.382 141.595 218.398 141.387C218.411 141.187 218.428 140.983 218.44 140.784C218.445 140.716 218.453 140.652 218.458 140.584C218.496 140.112 218.534 139.64 218.573 139.168C218.603 138.836 218.637 138.506 218.663 138.174C218.701 137.765 218.743 137.361 218.781 136.958C218.816 136.656 218.845 136.354 218.878 136.061C218.921 135.624 218.972 135.194 219.023 134.757C219.027 134.701 219.035 134.642 219.039 134.586C219.069 134.349 219.099 134.115 219.125 133.876C219.18 133.413 219.243 132.946 219.307 132.483C219.35 132.146 219.392 131.811 219.443 131.476C219.49 131.11 219.541 130.744 219.596 130.384C219.809 128.931 220.038 127.489 220.293 126.053C220.373 125.599 220.453 125.152 220.535 124.706L220.688 123.903C220.756 123.546 220.824 123.184 220.896 122.827C220.964 122.474 221.037 122.118 221.113 121.76C221.185 121.408 221.262 121.051 221.338 120.698C221.483 119.989 221.64 119.282 221.805 118.572C221.869 118.292 221.933 118.011 222.001 117.731C222.027 117.599 222.06 117.463 222.095 117.327C222.163 117.038 222.231 116.749 222.303 116.46C222.427 115.937 222.558 115.418 222.69 114.9C222.749 114.683 222.809 114.462 222.864 114.245C222.941 113.935 223.026 113.625 223.106 113.315C223.294 112.618 223.481 111.925 223.68 111.233C223.765 110.927 223.85 110.621 223.939 110.318C223.956 110.259 223.972 110.2 223.99 110.144C224.151 109.579 224.318 109.022 224.491 108.466C224.538 108.296 224.589 108.134 224.644 107.965C224.768 107.552 224.895 107.14 225.027 106.732C225.094 106.515 225.163 106.298 225.235 106.077C225.451 105.406 225.668 104.734 225.897 104.066C225.91 104.028 225.923 103.99 225.935 103.955C226.038 103.642 226.144 103.335 226.255 103.021C226.37 102.685 226.484 102.345 226.607 102.009C226.722 101.673 226.841 101.337 226.964 101.003C227.083 100.666 227.21 100.331 227.334 99.9999C227.457 99.6644 227.58 99.3279 227.707 98.9971C227.958 98.3345 228.214 97.671 228.476 97.0037C228.605 96.672 228.736 96.3412 228.872 96.0132C229.071 95.5085 229.28 95.0066 229.489 94.5009C229.773 93.8165 230.058 93.1368 230.356 92.4562C230.488 92.1463 230.619 91.844 230.756 91.5379C230.768 91.5123 230.781 91.479 230.794 91.4533C230.985 91.0113 231.181 90.5741 231.38 90.1358C231.529 89.8127 231.678 89.4904 231.822 89.1663C232.12 88.5284 232.421 87.883 232.723 87.2499C233.033 86.6083 233.339 85.9752 233.654 85.3374C233.824 84.9933 233.994 84.6482 234.173 84.3041C234.394 83.8621 234.624 83.4163 234.853 82.9781C234.972 82.7442 235.091 82.5151 235.21 82.2851C235.444 81.8431 235.677 81.3972 235.915 80.959C235.919 80.9505 235.924 80.9467 235.928 80.9372C236.145 80.5246 236.366 80.1168 236.595 79.7043C236.956 79.0417 237.327 78.383 237.701 77.7243C237.917 77.3421 238.138 76.9638 238.358 76.5807C238.606 76.1596 238.852 75.7347 239.106 75.3098C239.192 75.1606 239.28 75.0208 239.37 74.8716C239.638 74.4172 239.91 73.9666 240.186 73.5199C240.262 73.3925 240.339 73.2604 240.42 73.133C240.752 72.5931 241.087 72.0579 241.428 71.5265C241.725 71.055 242.027 70.5874 242.333 70.1197C242.49 69.8773 242.647 69.6358 242.809 69.3925C243.055 69.0056 243.31 68.6273 243.569 68.249C243.71 68.036 243.85 67.8241 243.991 67.6149C244.3 67.1644 244.607 66.71 244.926 66.2594C245.257 65.7746 245.597 65.2946 245.941 64.8146C246.005 64.7252 246.073 64.6358 246.137 64.5427V64.5379C246.546 63.9647 246.957 63.3992 247.37 62.8383C247.736 62.3364 248.109 61.8431 248.479 61.3545C248.819 60.8954 249.167 60.4457 249.516 59.999C249.703 59.7528 249.891 59.5142 250.078 59.268C250.09 59.2547 250.104 59.2376 250.116 59.2205C250.779 58.3706 251.455 57.5246 252.143 56.6919C252.343 56.4448 252.551 56.1948 252.76 55.9476C252.76 55.9429 252.76 55.9429 252.763 55.94C253.044 55.5997 253.324 55.2594 253.609 54.9239C253.699 54.8222 253.783 54.7243 253.864 54.6216C254.034 54.4229 254.204 54.2224 254.378 54.0227C254.454 53.9296 254.531 53.844 254.604 53.7556C254.702 53.6406 254.803 53.5256 254.901 53.4153C255.185 53.0883 255.471 52.7604 255.759 52.4334C256.151 51.9914 256.542 51.5541 256.933 51.1159C257.027 51.0142 257.115 50.9077 257.213 50.8098C257.553 50.4277 257.901 50.0532 258.25 49.6748C258.271 49.6539 258.293 49.6283 258.314 49.6026C258.662 49.2281 259.006 48.8545 259.358 48.4885C259.431 48.4125 259.499 48.3355 259.571 48.2632C259.945 47.8725 260.315 47.4857 260.693 47.0988C260.851 46.9334 261.012 46.767 261.173 46.6064C261.582 46.1815 262.002 45.7604 262.423 45.3402C262.916 44.8469 263.413 44.3583 263.918 43.8697C263.935 43.8478 263.961 43.8269 263.982 43.806C264.462 43.3431 264.947 42.8792 265.432 42.4201C265.84 42.0294 266.252 41.6473 266.668 41.2689C266.74 41.2014 266.809 41.1368 266.88 41.0741C266.99 40.9628 267.106 40.8649 267.216 40.7594C267.649 40.364 268.083 39.9733 268.525 39.5826C269.044 39.1149 269.57 38.6473 270.097 38.1929C270.62 37.7385 271.143 37.2879 271.665 36.8459C271.675 36.8374 271.683 36.8336 271.691 36.8241C272.226 36.3735 272.766 35.9277 273.306 35.4809C273.846 35.0341 274.391 34.5921 274.939 34.1587C275.466 33.7376 275.992 33.3212 276.524 32.9049C276.591 32.8535 276.66 32.8032 276.728 32.7518C277.141 32.4239 277.561 32.1102 277.978 31.7955C278.628 31.2984 279.287 30.805 279.951 30.325C280.426 29.9762 280.907 29.6283 281.387 29.2832C281.608 29.1216 281.829 28.9638 282.054 28.8117C282.062 28.8032 282.071 28.7946 282.084 28.786C282.513 28.4838 282.942 28.1824 283.375 27.8849C283.77 27.6092 284.169 27.3364 284.566 27.0693C284.803 26.9087 285.042 26.7461 285.283 26.5855C287.472 25.1187 289.703 23.7128 291.973 22.3697C292.177 22.2423 292.376 22.1225 292.581 22.0037C292.887 21.8165 293.193 21.6378 293.503 21.4638C294.664 20.7879 295.837 20.1292 297.013 19.4876C297.404 19.2746 297.791 19.0665 298.183 18.8583C298.607 18.6282 299.032 18.4039 299.461 18.1824C299.861 17.9743 300.26 17.7661 300.66 17.5617C300.719 17.536 300.771 17.5056 300.821 17.4809C301.228 17.2727 301.642 17.0693 302.053 16.8649C302.504 16.6397 302.954 16.4144 303.414 16.1929C303.831 15.9933 304.246 15.7936 304.667 15.5931C305.109 15.3849 305.547 15.1815 305.99 14.9771C306.427 14.7737 306.869 14.5731 307.312 14.3744C307.754 14.1748 308.2 13.979 308.646 13.7832C308.749 13.7366 308.851 13.69 308.952 13.652V13.6482C309.008 13.6225 309.068 13.6016 309.122 13.576C309.173 13.5541 309.228 13.5294 309.279 13.5085C309.314 13.4914 309.352 13.4828 309.391 13.4619C309.441 13.4362 309.489 13.4191 309.535 13.3982C309.684 13.3345 309.833 13.2746 309.977 13.2109C310.241 13.0959 310.5 12.9895 310.76 12.8792C310.951 12.7993 311.138 12.7185 311.333 12.6416C311.766 12.4581 312.208 12.2756 312.646 12.1016C312.684 12.0807 312.732 12.0674 312.774 12.0503C313.199 11.8801 313.62 11.7147 314.04 11.5446C314.499 11.3668 314.949 11.1881 315.404 11.017C315.83 10.8516 316.259 10.6938 316.679 10.537C317.108 10.3792 317.533 10.2262 317.957 10.0731C318.089 10.0265 318.213 9.97521 318.34 9.93338C318.74 9.78889 319.139 9.64916 319.538 9.50847C320.988 9.00657 322.44 8.52273 323.907 8.06361C324.268 7.94384 324.625 7.83832 324.987 7.72806C325.033 7.71475 325.085 7.69859 325.131 7.68148C329.488 7.53699 333.275 7.75847 336.199 8.47615C337.342 8.75657 338.493 9.00372 339.654 9.22901C347.713 10.806 355.957 11.286 361.627 13.0028C364.849 13.9714 367.238 15.3488 368.292 17.5503C368.321 17.6092 368.347 17.6653 368.372 17.7243C368.581 18.1881 368.724 18.6938 368.805 19.2376C368.899 19.8412 368.979 20.4191 369.048 20.98C369.95 28.306 368.692 32.1568 362.937 34.8859Z" fill="#87CAD4"/>
<path d="M410.547 55.1023C412.482 53.4445 417.069 54.7763 417.069 59.3409C417.069 63.9065 419.027 69.7763 422.939 70.4274C426.852 71.0795 428.809 73.6888 428.809 76.6233C428.809 79.5586 432.07 77.2754 430.113 82.167C428.157 87.0586 426.527 86.0795 423.265 87.0586C420.005 88.0368 415.113 89.0149 413.809 86.0795C412.505 83.1451 419.027 79.2326 417.721 76.9503C416.417 74.6679 415.439 72.3847 414.461 72.3847C413.483 72.3847 412.831 74.0149 412.179 75.32C411.527 76.6233 413.483 78.9065 412.505 80.8628C411.527 82.8191 409.243 84.1233 408.591 84.4493C407.939 84.7754 401.222 83.0681 400.106 79.3029C396.707 67.8276 399.681 64.8523 402.232 64.0025C407.332 62.302 406.961 61.9493 408.591 60.3191C410.222 58.6888 408.265 57.0586 410.547 55.1023Z" fill="#87CAD4"/>
<path d="M443.586 284.269C421.645 296.664 396.298 303.736 369.299 303.736C362.97 303.736 356.729 303.348 350.602 302.588C353.53 298.235 359.885 294.465 367.016 296.562C378.102 299.823 379.734 294.606 384.298 296.562C388.864 298.519 391.094 299.713 395.006 297.756C398.919 295.8 401.907 291.67 405.493 293.953C409.081 296.236 411.689 293.301 414.949 291.018C418.21 288.736 424.332 291.806 440.71 283.193C441.56 282.746 442.585 283.888 443.586 284.269Z" fill="#87CAD4"/>
<path d="M380.053 286.78C382.918 286.143 383.639 290.693 380.053 290.366C376.467 290.04 377.118 287.432 380.053 286.78Z" fill="#87CAD4"/>
<path d="M362.939 34.8859C356.742 37.8231 348.918 39.1235 348.918 42.0598C348.918 44.9971 350.55 56.7309 345.33 59.3402C340.115 61.9505 336.201 50.8659 332.941 48.5788C329.678 46.2965 333.593 42.0598 333.593 33.5807C333.593 28.9866 332.831 23.8231 330.154 20.2528C328.935 18.6244 327.307 17.3241 325.173 16.576C325.165 16.5722 325.156 16.5722 325.148 16.5684C324.195 16.2366 323.15 16.0113 321.981 15.9182C321.615 15.8839 321.237 15.8668 320.85 15.8621C320.136 15.8535 319.383 15.8878 318.593 15.9733C314.739 16.3773 312.214 17.036 310.45 17.7803C309.184 18.307 308.317 18.8849 307.637 19.4381C307.637 19.4381 307.633 19.4381 307.633 19.4419C306.201 20.6149 305.594 21.7119 303.919 22.171C301.249 22.8982 295.869 20.3725 292.082 22.537C292.048 22.4809 292.01 22.4258 291.977 22.3716C292.18 22.2442 292.38 22.1244 292.584 22.0056C292.89 21.8184 293.196 21.6397 293.506 21.4657C294.667 20.7898 295.84 20.1311 297.016 19.4895C297.407 19.2765 297.794 19.0684 298.186 18.8602C298.611 18.6301 299.036 18.4058 299.464 18.1843C299.864 17.9762 300.264 17.768 300.663 17.5636C300.722 17.5379 300.774 17.5075 300.824 17.4828C301.231 17.2746 301.645 17.0712 302.056 16.8668C302.507 16.6416 302.958 16.4163 303.417 16.1948C303.834 15.9952 304.249 15.7955 304.67 15.595C305.112 15.3868 305.55 15.1834 305.993 14.979C306.43 14.7756 306.872 14.575 307.315 14.3763C307.757 14.1767 308.203 13.9809 308.65 13.7851C308.752 13.7385 308.854 13.6919 308.956 13.6539V13.6482C309.011 13.6225 309.071 13.6016 309.125 13.576C309.176 13.5541 309.231 13.5294 309.283 13.5085C309.317 13.4914 309.355 13.4828 309.394 13.4619C309.444 13.4362 309.492 13.4191 309.538 13.3982C309.688 13.3345 309.836 13.2746 309.98 13.2109C310.244 13.0959 310.503 12.9895 310.763 12.8792C310.954 12.7993 311.141 12.7186 311.336 12.6416C311.769 12.4581 312.211 12.2756 312.65 12.1016C312.688 12.0807 312.735 12.0674 312.777 12.0503C313.202 11.8801 313.623 11.7147 314.043 11.5446C314.502 11.3668 314.952 11.1881 315.407 11.017C315.833 10.8516 316.262 10.6938 316.682 10.537C317.112 10.3792 317.536 10.2262 317.96 10.0731C318.093 10.0265 318.216 9.97521 318.343 9.93338C318.743 9.78889 319.142 9.64916 319.541 9.50847C320.991 9.00657 322.443 8.52273 323.91 8.06361C324.271 7.94384 324.629 7.83832 324.99 7.72806C325.036 7.71475 325.088 7.69859 325.134 7.68148C329.491 7.53699 333.278 7.75847 336.202 8.47615C337.345 8.75657 338.497 9.00372 339.657 9.22901C347.716 10.806 355.96 11.286 361.631 13.0028C364.852 13.9714 367.241 15.3488 368.295 17.5503C368.324 17.6092 368.35 17.6653 368.375 17.7243C368.584 18.1881 368.728 18.6938 368.808 19.2376C368.902 19.8412 368.982 20.4191 369.051 20.98C369.951 28.306 368.693 32.1568 362.939 34.8859Z" fill="#87CAD4"/>
<path d="M288.685 185.485C290.836 183.334 292.644 184.825 293.635 185.815C294.624 186.804 298.254 187.135 297.595 188.124C296.935 189.114 294.955 187.795 293.305 188.784C291.654 189.774 286.375 187.794 288.685 185.485Z" fill="#87CAD4"/>
<path fill-rule="evenodd" clip-rule="evenodd" d="M409.827 95.796C410.177 93.5223 413.278 94.0707 413.086 95.0299C412.894 95.988 413.853 97.3302 412.703 98.2884C411.552 99.2456 409.444 98.2875 409.827 95.796Z" fill="#87CAD4"/>
<path d="M435.286 179.363L435.246 177.734C438.026 177.663 440.926 177.483 443.864 177.197L444.021 178.821C441.044 179.109 438.106 179.292 435.286 179.363ZM426.525 179.213C423.438 179.017 420.503 178.663 417.802 178.163L418.098 176.56C420.736 177.05 423.607 177.394 426.63 177.587L426.525 179.213ZM452.693 177.704L452.438 176.093C455.235 175.647 458.095 175.11 460.939 174.495L461.283 176.088C458.411 176.71 455.52 177.254 452.693 177.704ZM409.285 175.821C406.157 174.613 403.554 173.112 401.547 171.362L402.618 170.133C404.482 171.759 406.921 173.161 409.872 174.301L409.285 175.821ZM469.773 174.026L469.347 172.453C472.109 171.706 474.901 170.88 477.647 169.998L478.146 171.55C475.376 172.441 472.558 173.273 469.773 174.026ZM486.395 168.685L485.824 167.158C488.503 166.159 491.208 165.08 493.865 163.952L494.503 165.452C491.824 166.59 489.096 167.678 486.395 168.685ZM502.461 161.863L501.76 160.391C504.343 159.158 506.942 157.846 509.488 156.49L510.253 157.929C507.688 159.295 505.066 160.619 502.461 161.863ZM517.867 153.657L517.039 152.254C519.508 150.797 521.984 149.263 524.398 147.694L525.286 149.059C522.852 150.642 520.356 152.19 517.867 153.657ZM532.532 144.21L531.607 142.868C534.016 141.21 536.397 139.525 538.687 137.858L539.647 139.176C537.345 140.85 534.95 142.544 532.532 144.21ZM546.623 133.947L545.628 132.658C547.93 130.879 550.211 129.061 552.404 127.252L553.44 128.51C551.234 130.329 548.94 132.157 546.623 133.947ZM560.077 122.849L558.998 121.628C561.201 119.68 563.347 117.708 565.378 115.768L566.505 116.946C564.458 118.901 562.296 120.888 560.077 122.849ZM572.683 110.778L571.505 109.651C573.552 107.512 575.51 105.357 577.324 103.249L578.56 104.312C576.726 106.444 574.748 108.618 572.683 110.778ZM584.062 97.5178L582.763 96.532C584.556 94.1661 586.222 91.7877 587.712 89.4636L589.085 90.3448C587.571 92.7041 585.881 95.1166 584.062 97.5178ZM593.469 82.7507L592.017 82.0083C593.375 79.3514 594.531 76.705 595.447 74.1432L596.982 74.6927C596.041 77.32 594.858 80.0311 593.469 82.7507ZM599.27 66.1784L597.664 65.897C598.065 63.6024 598.267 61.3324 598.267 59.1518C598.268 58.5729 598.256 57.9997 598.227 57.4284L599.856 57.3476C599.885 57.9465 599.9 58.5482 599.899 59.1537C599.9 61.4265 599.688 63.7906 599.27 66.1784ZM596.724 49.109C595.869 46.4645 594.642 43.8989 593.076 41.4826L594.444 40.5957C596.087 43.1328 597.377 45.8276 598.274 48.6081L596.724 49.109Z" fill="#008EB0"/>
<path d="M398.874 168.393C397.295 166.095 396.297 163.237 395.906 159.899L397.525 159.709C397.884 162.783 398.79 165.394 400.216 167.471L398.874 168.393ZM397.747 151.253L396.133 151.023C396.519 148.33 397.182 145.44 398.1 142.434L399.658 142.91C398.766 145.837 398.122 148.644 397.747 151.253ZM402.631 134.836L401.131 134.198C402.228 131.621 403.499 128.961 404.905 126.291L406.346 127.051C404.962 129.681 403.712 132.3 402.631 134.836ZM410.63 119.546L409.242 118.692C410.728 116.273 412.344 113.815 414.039 111.384L415.377 112.317C413.697 114.722 412.1 117.153 410.63 119.546ZM420.516 105.356L419.228 104.355C420.994 102.087 422.856 99.8131 424.762 97.5954L425.998 98.6591C424.108 100.856 422.265 103.109 420.516 105.356ZM431.79 92.2218L430.605 91.1049C432.581 89.0079 434.641 86.9138 436.731 84.8834L437.866 86.0536C435.794 88.0669 433.75 90.1429 431.79 92.2218ZM444.204 80.1524L443.12 78.9367C445.281 77.0098 447.514 75.1021 449.757 73.2656L450.79 74.527C448.564 76.3492 446.348 78.2408 444.204 80.1524ZM457.604 69.1838L456.626 67.8796C458.938 66.1458 461.322 64.4319 463.714 62.7884L464.639 64.1306C462.265 65.7637 459.898 67.4633 457.604 69.1838ZM471.875 59.3644L470.998 57.9889C473.443 56.431 475.936 54.8863 478.405 53.3977L479.247 54.7931C476.788 56.276 474.308 57.8131 471.875 59.3644ZM486.735 50.4176L485.932 48.9994C488.48 47.5583 491.054 46.1515 493.582 44.8188L494.342 46.2599C491.829 47.5859 489.269 48.9842 486.735 50.4176ZM502.074 42.3426L501.362 40.8758C504.002 39.5926 506.664 38.3578 509.276 37.2019L509.935 38.6943C507.342 39.8397 504.697 41.0688 502.074 42.3426ZM590.481 37.988C588.642 35.834 586.523 33.9414 584.183 32.3625L585.094 31.0127C587.556 32.6734 589.786 34.6638 591.72 36.93L590.481 37.988ZM517.923 35.353L517.328 33.8359C520.087 32.7513 522.845 31.7399 525.527 30.8321L526.052 32.3749C523.392 33.276 520.659 34.2779 517.923 35.353ZM534.315 29.8273L533.88 28.257C536.776 27.4557 539.637 26.7665 542.385 26.2076L542.709 27.8055C539.997 28.3549 537.173 29.0365 534.315 29.8273ZM576.616 28.5631C574.064 27.6458 571.282 26.9595 568.345 26.5241L568.586 24.911C571.627 25.3635 574.515 26.0764 577.168 27.0289L576.616 28.5631ZM551.222 26.4443L551.037 24.8254C554.066 24.4794 557.014 24.3026 559.802 24.2988L559.805 25.93C557.075 25.9319 554.189 26.1059 551.222 26.4443Z" fill="#008EB0"/>
<path d="M570.448 31C569.583 56.4477 538.269 63.4781 526.608 40.8432C525.385 38.4686 524.786 35.8004 524.876 33.1302C525.741 7.68252 557.056 0.652096 568.716 23.2871C569.94 25.6616 570.54 28.3308 570.448 31Z" fill="#EB5654"/>
<path d="M463.207 49.5856C483.349 65.1636 470.747 94.6807 445.565 90.9088C442.924 90.5134 440.408 89.4393 438.295 87.8052C418.154 72.2273 430.755 42.7102 455.937 46.482C458.58 46.8775 461.095 47.9507 463.207 49.5856Z" fill="#008EB0"/>
<path d="M604.284 69.8313C610.567 75.8009 610.822 85.7334 604.852 92.0176C598.882 98.3009 588.95 98.5556 582.666 92.5861C576.381 86.6165 576.128 76.684 582.098 70.4007C588.067 64.1165 598 63.8617 604.284 69.8313Z" fill="#FFB157"/>
<path d="M169.367 75.4468C171.658 72.1446 174.074 68.9326 176.55 65.9031L178.271 67.309C175.833 70.2957 173.451 73.4601 171.193 76.7158L169.367 75.4468ZM184.486 56.9687C186.457 54.9288 188.507 52.9402 190.572 51.0581C191.432 50.2738 192.298 49.5058 193.169 48.7529L194.622 50.4364C193.765 51.1759 192.915 51.9307 192.069 52.7006C190.037 54.5523 188.024 56.5086 186.083 58.5153L184.486 56.9687ZM203.859 43.1892L202.573 41.3765C205.841 39.0581 209.233 36.8936 212.658 34.9459L213.758 36.8774C210.397 38.789 207.068 40.9117 203.859 43.1892ZM224.243 31.6094L223.35 29.5723C227.008 27.9696 230.779 26.5533 234.555 25.3641L235.226 27.4849C231.522 28.6503 227.828 30.0381 224.243 31.6094ZM246.587 24.5837L246.155 22.4022C250.065 21.6322 254.057 21.078 258.017 20.7539L258.201 22.9696C254.32 23.2871 250.412 23.8299 246.587 24.5837ZM269.918 22.6873L269.992 20.4668C273.986 20.6008 278 20.9706 281.928 21.5647L281.595 23.7643C277.754 23.1807 273.824 22.8204 269.918 22.6873ZM293.063 26.1959L293.652 24.0514C297.508 25.1132 301.324 26.4145 304.995 27.9193L304.153 29.9773C300.563 28.5058 296.831 27.233 293.063 26.1959ZM361.464 99.444C360.624 95.5951 359.576 91.7928 358.346 88.1408L360.455 87.4316C361.708 91.1598 362.781 95.0428 363.636 98.9706L361.464 99.444ZM314.702 35.0685L315.788 33.1274C319.273 35.0799 322.662 37.2643 325.861 39.6189L324.541 41.4098C321.418 39.1113 318.107 36.9773 314.702 35.0685ZM353.969 77.2691C352.295 73.7263 350.399 70.271 348.336 66.9972L350.216 65.8118C352.327 69.1607 354.265 72.6959 355.979 76.3176L353.969 77.2691ZM333.516 48.9212L335.047 47.3062C337.904 50.0191 340.637 52.9497 343.208 56.0856L341.491 57.4953C338.975 54.4307 336.311 51.5676 333.516 48.9212Z" fill="#008EB0"/>
<path d="M264.413 48.0666C277.473 47.9972 288.003 37.3536 287.934 24.2947C287.864 11.2348 277.221 0.704387 264.162 0.773778C251.103 0.84317 240.572 11.4867 240.641 24.5456C240.71 37.6055 251.354 48.1359 264.413 48.0666Z" fill="#00685D"/>
<path d="M601.049 172.176H481.82V320.285H601.049V172.176Z" fill="#87CAD4"/>
<path d="M541.432 114.33L601.632 153.971H481.235L541.432 114.33ZM541.432 110.536L470.664 157.14H612.203L541.432 110.536Z" fill="#008EB0"/>
<path d="M618.041 304.651V310.205H464.836V304.651H618.041ZM620.417 302.274H462.461V312.581H620.416L620.417 302.274Z" fill="#008EB0"/>
<path d="M618.041 165.852V175.419H464.836V165.852H618.041ZM620.417 163.476H462.461V177.795H620.416L620.417 163.476Z" fill="#008EB0"/>
<path d="M540.73 146.492C536.339 146.306 533.784 144.456 533.062 140.942L535.69 140.37C535.947 141.596 536.486 142.518 537.305 143.137C538.124 143.755 539.266 144.111 540.729 144.204V136.536C538.905 136.083 537.645 135.676 536.949 135.315C536.254 134.954 535.692 134.539 535.265 134.071C534.837 133.602 534.528 133.099 534.337 132.563C534.146 132.028 534.051 131.383 534.051 130.63C534.051 129.033 534.631 127.783 535.79 126.881C536.949 125.98 538.596 125.482 540.729 125.39V123.365H542.645V125.39C544.572 125.483 546.062 125.918 547.113 126.696C548.164 127.475 548.906 128.687 549.339 130.337L546.649 130.846C546.443 129.878 546.025 129.123 545.397 128.582C544.769 128.041 543.851 127.714 542.645 127.6V134.479C544.49 134.912 545.801 135.309 546.58 135.669C547.357 136.03 547.973 136.437 548.427 136.891C548.88 137.344 549.225 137.88 549.462 138.498C549.698 139.116 549.817 139.843 549.817 140.678C549.817 142.379 549.194 143.744 547.947 144.774C546.699 145.804 544.932 146.377 542.644 146.49V148.994H540.728V146.492H540.73ZM536.711 130.6C536.711 131.208 536.839 131.724 537.098 132.146C537.355 132.569 537.739 132.924 538.25 133.212C538.76 133.501 539.587 133.789 540.731 134.078V127.571C538.05 127.715 536.711 128.725 536.711 130.6ZM547.16 140.71C547.16 140.041 547.026 139.489 546.758 139.056C546.49 138.624 546.103 138.265 545.599 137.982C545.094 137.699 544.109 137.366 542.646 136.985V144.22C544.1 144.128 545.215 143.782 545.993 143.184C546.772 142.586 547.16 141.762 547.16 140.71Z" fill="#008EB0"/>
<path d="M449.985 310.108C449.987 316.084 445.161 320.948 439.184 320.951L311.012 321.071C309.894 312.124 309.316 303.007 309.313 293.722C309.289 236.592 331.384 184.652 367.53 145.977L439.01 145.914C444.986 145.911 449.851 150.738 449.853 156.749L449.985 310.108Z" fill="#265173"/>
<path d="M309.313 293.722C309.317 303.007 309.895 312.124 311.013 321.071L206.307 321.148C200.331 321.15 195.5 316.29 195.464 310.313L195.367 156.953C195.331 150.977 200.192 146.112 206.168 146.11L367.531 145.976C331.384 184.651 309.289 236.592 309.313 293.722Z" fill="#008EB0"/>
<path d="M386.745 213.433L376.789 203.924L386.28 193.987C390.07 199.865 390.244 207.408 386.745 213.433Z" fill="#B5D6EA"/>
<path d="M395.314 184.53L391.438 188.589C397.976 197.395 398.253 209.473 392.127 218.569L396.186 222.446C404.332 211.073 403.975 195.516 395.314 184.53Z" fill="#B5D6EA"/>
<path d="M403.006 176.474L399.148 180.513C409.991 193.658 410.427 212.655 400.2 226.284L404.219 230.123C416.507 214.255 416.009 191.76 403.006 176.474Z" fill="#B5D6EA"/>
<path d="M417.454 269.827L231.913 269.904C230.995 269.904 230.25 269.16 230.25 268.242L230.242 250.473C230.242 249.555 230.986 248.809 231.905 248.809L417.446 248.733C418.364 248.733 419.109 249.478 419.109 250.396L419.117 268.164C419.116 269.082 418.371 269.827 417.454 269.827Z" fill="#B5D6EA"/>
<path d="M278.268 227.045L238.111 227.061C236.337 227.062 234.899 225.625 234.899 223.851L234.883 183.694C234.882 181.92 236.319 180.482 238.093 180.481L278.25 180.465C280.024 180.464 281.462 181.901 281.463 183.675L281.479 223.832C281.478 225.606 280.042 227.044 278.268 227.045Z" fill="#ED9D22"/>
<path d="M417.739 298.941L367.961 298.962C367.167 298.962 366.522 298.319 366.522 297.525L366.516 282.569C366.516 281.775 367.159 281.13 367.953 281.13L417.731 281.11C418.525 281.11 419.17 281.753 419.17 282.548L419.175 297.504C419.177 298.297 418.534 298.941 417.739 298.941Z" fill="#B5D6EA"/>
<path d="M364.579 83.9268C364.579 83.9268 355.093 99.4705 351.618 104.205C351.618 104.205 348.827 108.79 348.569 108.212C347.828 112.509 349.818 111.855 348.569 115.958C349.311 116.468 350.086 116.821 350.895 116.982C359.037 118.596 367.508 98.075 364.579 83.9268Z" fill="#FFB157"/>
<path d="M363.205 101.256L361.818 95.5537C357.966 105.108 356.723 112.434 352.062 117.011C356.18 116.553 360.463 109.663 363.205 101.256Z" fill="#ED9D22"/>
<path d="M356.997 188.775C356.997 188.775 335.664 153.586 342.042 134.246C344.572 126.573 367.857 121.533 382.781 125.521L378.95 145.714L358.07 146.462C358.07 146.462 361.632 175.32 358.809 188.533L356.997 188.775Z" fill="#EB5654"/>
<path d="M360.023 146.392L373.599 145.905L374.365 127.587C374.365 127.587 361.172 128.195 360.023 146.392Z" fill="#C93B38"/>
<path d="M364.577 83.9269C364.577 83.9269 373.802 78.9278 382.031 83.9269C382.031 83.9269 391.753 107.321 393.749 128.013L359.023 125.255C365.281 112.376 357.653 102.588 364.577 83.9269Z" fill="#FFB157"/>
<path d="M365.93 69.4541C365.93 69.4541 359.822 75.9085 362.835 77.8429C365.849 79.7773 375.866 78.9627 376.761 75.6233C377.658 72.2849 365.93 69.4541 365.93 69.4541Z" fill="#51192B"/>
<path d="M375.649 81.9321C375.649 81.9321 373.363 79.4055 373.033 75.6441C373.033 75.6441 375.156 68.9017 373.926 65.8105C372.696 62.7192 365.698 62.3874 364.295 64.3162C362.974 66.1298 364.064 75.9122 367.108 78.1489C367.642 78.5414 368.513 78.7601 368.513 78.7601C369.373 81.4844 370.003 87.1137 371.128 87.1099C372.847 87.1032 375.649 81.9321 375.649 81.9321Z" fill="#F79885"/>
<path d="M372.973 69.52C372.973 69.52 372.545 77.7054 373.828 78.0115C375.98 78.5238 378.216 76.9431 378.638 76.4174C381.038 73.4259 379.852 68.9012 375.881 65.9212C379.019 63.1189 369.064 57.6883 366.376 63.1189C363.197 61.597 360.573 65.7501 363.987 70.5676C363.987 70.5676 366.117 68.8195 366.497 66.9107C368.269 69.4145 372.385 69.1284 372.973 69.52Z" fill="#51192B"/>
<path d="M368.516 78.7591C368.516 78.7591 370.043 79.2781 371.753 77.8428C371.753 77.8428 371.007 79.9207 368.937 80.3323L368.516 78.7591Z" fill="#F0786A"/>
<path d="M369.789 126.535L393.747 128.014C392.235 112.318 386.278 96.5771 383.488 88.1807L380.678 89.3156C380.678 89.3156 378.165 99.8432 382.154 111.934C382.154 111.934 371.665 121.005 369.789 126.535Z" fill="#ED9D22"/>
<path d="M365.582 134.744C362.04 141.449 363.764 176.004 362.766 187.97L364.797 187.616C364.797 187.616 376.78 183.549 382.551 146.292C382.551 146.292 394.251 148.456 393.753 128.013C393.753 128.013 372.562 121.532 365.582 134.744Z" fill="#EB5654"/>
<path d="M386.516 145.787C386.358 142.201 384.216 138.263 384.216 138.263C384.216 141.317 382.547 146.292 382.547 146.292C382.547 146.292 384.354 146.621 386.516 145.787Z" fill="#C93B38"/>
<path d="M383.461 126.682H354.914L366.125 129.495V130.772L383.461 127.958V126.682Z" fill="#265173"/>
<path d="M366.771 130.772H337.536C336.867 130.772 336.291 130.302 336.157 129.648L331.264 105.896C331.084 105.023 331.75 104.204 332.642 104.204H361.878C362.546 104.204 363.122 104.674 363.256 105.328L368.15 129.08C368.33 129.954 367.663 130.772 366.771 130.772Z" fill="#008EB0"/>
<path d="M351.781 117.333C352.047 118.48 351.333 119.411 350.186 119.411C349.039 119.411 347.892 118.481 347.626 117.333C347.36 116.185 348.074 115.255 349.221 115.255C350.368 115.255 351.514 116.185 351.781 117.333Z" fill="#F3E190"/>
<path d="M382.032 83.9268C387.517 89.0998 400.169 116.359 395.743 120.908C389.723 127.095 375.79 126.428 375.79 126.428C375.79 126.428 371.345 124.208 374.778 120.66C378.209 117.111 385.47 113.241 385.47 113.241C385.47 113.241 377.296 93.7119 382.032 83.9268Z" fill="#FFB157"/>
<path d="M373.83 122.528C373.83 122.528 368.635 125.49 368.503 127.068C368.416 128.09 370.426 128.571 372.162 128.679C373.113 128.738 374.175 126.922 374.175 126.922C374.175 126.922 373.481 128.447 373.977 128.595C374.689 128.807 376.088 126.298 376.573 125.084C377.058 123.87 376.092 121.566 373.83 122.528Z" fill="#F79885"/>
<path d="M365.525 192.389C365.94 192.389 366.054 194.544 366.054 194.544H366.454C366.64 190.835 366.185 187.127 366.185 187.127L362.43 186.839C362.042 191.614 359.191 193.604 359.191 193.604L359.023 194.544H364.684C364.684 194.544 365.11 192.389 365.525 192.389Z" fill="#51192B"/>
<path d="M358.971 192.389C359.385 192.389 359.499 194.544 359.499 194.544H359.899C360.086 190.835 359.63 187.127 359.63 187.127L355.876 186.839C355.488 191.614 352.636 193.604 352.636 193.604L352.469 194.544H358.129C358.129 194.544 358.556 192.389 358.971 192.389Z" fill="#51192B"/>
<path d="M507.934 313.211H441.156V326.129H507.934V313.211Z" fill="#F5AF0C"/>
<path d="M507.185 313.96V325.378H441.907V313.96H507.185ZM508.685 312.46H440.406V326.879H508.685V312.46Z" fill="#E6890E"/>
<path d="M446.966 324.009C446.377 324.009 445.898 323.531 445.898 322.941V316.399C445.898 315.809 446.377 315.331 446.966 315.331C447.555 315.331 448.033 315.809 448.033 316.399V322.941C448.034 323.531 447.556 324.009 446.966 324.009Z" fill="#E6890E"/>
<path d="M456.161 324.009C455.572 324.009 455.094 323.531 455.094 322.941V316.399C455.094 315.809 455.572 315.331 456.161 315.331C456.751 315.331 457.229 315.809 457.229 316.399V322.941C457.229 323.531 456.751 324.009 456.161 324.009Z" fill="#E6890E"/>
<path d="M465.349 324.009C464.759 324.009 464.281 323.531 464.281 322.941V316.399C464.281 315.809 464.759 315.331 465.349 315.331C465.938 315.331 466.416 315.809 466.416 316.399V322.941C466.417 323.531 465.939 324.009 465.349 324.009Z" fill="#E6890E"/>
<path d="M474.544 324.009C473.955 324.009 473.477 323.531 473.477 322.941V316.399C473.477 315.809 473.955 315.331 474.544 315.331C475.133 315.331 475.612 315.809 475.612 316.399V322.941C475.612 323.531 475.134 324.009 474.544 324.009Z" fill="#E6890E"/>
<path d="M483.739 324.009C483.15 324.009 482.672 323.531 482.672 322.941V316.399C482.672 315.809 483.15 315.331 483.739 315.331C484.329 315.331 484.807 315.809 484.807 316.399V322.941C484.807 323.531 484.329 324.009 483.739 324.009Z" fill="#E6890E"/>
<path d="M492.935 324.009C492.345 324.009 491.867 323.531 491.867 322.941V316.399C491.867 315.809 492.345 315.331 492.935 315.331C493.524 315.331 494.002 315.809 494.002 316.399V322.941C494.002 323.531 493.524 324.009 492.935 324.009Z" fill="#E6890E"/>
<path d="M502.122 324.009C501.533 324.009 501.055 323.531 501.055 322.941V316.399C501.055 315.809 501.533 315.331 502.122 315.331C502.712 315.331 503.19 315.809 503.19 316.399V322.941C503.189 323.531 502.712 324.009 502.122 324.009Z" fill="#E6890E"/>
<path d="M502.809 298.792H436.031V311.71H502.809V298.792Z" fill="#F5AF0C"/>
<path d="M502.059 299.542V310.96H436.781V299.542H502.059ZM503.56 298.042H435.281V312.46H503.56V298.042Z" fill="#E6890E"/>
<path d="M441.841 309.59C441.252 309.59 440.773 309.112 440.773 308.522V301.981C440.773 301.391 441.252 300.913 441.841 300.913C442.43 300.913 442.908 301.391 442.908 301.981V308.522C442.908 309.112 442.43 309.59 441.841 309.59Z" fill="#E6890E"/>
<path d="M451.036 309.59C450.447 309.59 449.969 309.112 449.969 308.522V301.981C449.969 301.391 450.447 300.913 451.036 300.913C451.626 300.913 452.104 301.391 452.104 301.981V308.522C452.104 309.112 451.626 309.59 451.036 309.59Z" fill="#E6890E"/>
<path d="M460.224 309.59C459.634 309.59 459.156 309.112 459.156 308.522V301.981C459.156 301.391 459.634 300.913 460.224 300.913C460.813 300.913 461.291 301.391 461.291 301.981V308.522C461.291 309.112 460.813 309.59 460.224 309.59Z" fill="#E6890E"/>
<path d="M469.419 309.59C468.83 309.59 468.352 309.112 468.352 308.522V301.981C468.352 301.391 468.83 300.913 469.419 300.913C470.008 300.913 470.487 301.391 470.487 301.981V308.522C470.487 309.112 470.008 309.59 469.419 309.59Z" fill="#E6890E"/>
<path d="M478.614 309.59C478.025 309.59 477.547 309.112 477.547 308.522V301.981C477.547 301.391 478.025 300.913 478.614 300.913C479.204 300.913 479.682 301.391 479.682 301.981V308.522C479.682 309.112 479.204 309.59 478.614 309.59Z" fill="#E6890E"/>
<path d="M487.802 309.59C487.212 309.59 486.734 309.112 486.734 308.522V301.981C486.734 301.391 487.212 300.913 487.802 300.913C488.391 300.913 488.869 301.391 488.869 301.981V308.522C488.869 309.112 488.392 309.59 487.802 309.59Z" fill="#E6890E"/>
<path d="M496.997 309.59C496.408 309.59 495.93 309.112 495.93 308.522V301.981C495.93 301.391 496.408 300.913 496.997 300.913C497.587 300.913 498.065 301.391 498.065 301.981V308.522C498.065 309.112 497.587 309.59 496.997 309.59Z" fill="#E6890E"/>
<path d="M512.77 284.374H445.992V297.292H512.77V284.374Z" fill="#F5AF0C"/>
<path d="M512.021 285.123V296.541H446.743V285.123H512.021ZM513.521 283.623H445.242V298.042H513.521V283.623Z" fill="#E6890E"/>
<path d="M451.802 295.171C451.212 295.171 450.734 294.693 450.734 294.103V287.561C450.734 286.971 451.212 286.493 451.802 286.493C452.391 286.493 452.869 286.971 452.869 287.561V294.103C452.869 294.694 452.391 295.171 451.802 295.171Z" fill="#E6890E"/>
<path d="M460.997 295.171C460.408 295.171 459.93 294.693 459.93 294.103V287.561C459.93 286.971 460.408 286.493 460.997 286.493C461.587 286.493 462.065 286.971 462.065 287.561V294.103C462.065 294.694 461.587 295.171 460.997 295.171Z" fill="#E6890E"/>
<path d="M470.185 295.171C469.595 295.171 469.117 294.693 469.117 294.103V287.561C469.117 286.971 469.595 286.493 470.185 286.493C470.774 286.493 471.252 286.971 471.252 287.561V294.103C471.252 294.694 470.774 295.171 470.185 295.171Z" fill="#E6890E"/>
<path d="M479.38 295.171C478.791 295.171 478.312 294.693 478.312 294.103V287.561C478.312 286.971 478.791 286.493 479.38 286.493C479.969 286.493 480.448 286.971 480.448 287.561V294.103C480.447 294.694 479.969 295.171 479.38 295.171Z" fill="#E6890E"/>
<path d="M488.575 295.171C487.986 295.171 487.508 294.693 487.508 294.103V287.561C487.508 286.971 487.986 286.493 488.575 286.493C489.165 286.493 489.643 286.971 489.643 287.561V294.103C489.643 294.694 489.165 295.171 488.575 295.171Z" fill="#E6890E"/>
<path d="M497.763 295.171C497.173 295.171 496.695 294.693 496.695 294.103V287.561C496.695 286.971 497.173 286.493 497.763 286.493C498.352 286.493 498.83 286.971 498.83 287.561V294.103C498.83 294.694 498.352 295.171 497.763 295.171Z" fill="#E6890E"/>
<path d="M506.958 295.171C506.369 295.171 505.891 294.693 505.891 294.103V287.561C505.891 286.971 506.369 286.493 506.958 286.493C507.547 286.493 508.026 286.971 508.026 287.561V294.103C508.025 294.694 507.547 295.171 506.958 295.171Z" fill="#E6890E"/>
<path d="M507.121 269.954H440.344V282.872H507.121V269.954Z" fill="#F5AF0C"/>
<path d="M506.372 270.704V282.122H441.095V270.704H506.372ZM507.872 269.204H439.594V283.622H507.872V269.204Z" fill="#E6890E"/>
<path d="M446.153 280.752C445.564 280.752 445.086 280.274 445.086 279.684V273.143C445.086 272.553 445.564 272.075 446.153 272.075C446.743 272.075 447.221 272.553 447.221 273.143V279.684C447.222 280.274 446.744 280.752 446.153 280.752Z" fill="#E6890E"/>
<path d="M455.349 280.752C454.759 280.752 454.281 280.274 454.281 279.684V273.143C454.281 272.553 454.759 272.075 455.349 272.075C455.938 272.075 456.416 272.553 456.416 273.143V279.684C456.417 280.274 455.939 280.752 455.349 280.752Z" fill="#E6890E"/>
<path d="M464.544 280.752C463.955 280.752 463.477 280.274 463.477 279.684V273.143C463.477 272.553 463.955 272.075 464.544 272.075C465.133 272.075 465.612 272.553 465.612 273.143V279.684C465.612 280.274 465.133 280.752 464.544 280.752Z" fill="#E6890E"/>
<path d="M473.732 280.752C473.142 280.752 472.664 280.274 472.664 279.684V273.143C472.664 272.553 473.142 272.075 473.732 272.075C474.321 272.075 474.799 272.553 474.799 273.143V279.684C474.799 280.274 474.321 280.752 473.732 280.752Z" fill="#E6890E"/>
<path d="M482.927 280.752C482.338 280.752 481.859 280.274 481.859 279.684V273.143C481.859 272.553 482.338 272.075 482.927 272.075C483.516 272.075 483.994 272.553 483.994 273.143V279.684C483.994 280.274 483.516 280.752 482.927 280.752Z" fill="#E6890E"/>
<path d="M492.122 280.752C491.533 280.752 491.055 280.274 491.055 279.684V273.143C491.055 272.553 491.533 272.075 492.122 272.075C492.712 272.075 493.19 272.553 493.19 273.143V279.684C493.19 280.274 492.712 280.752 492.122 280.752Z" fill="#E6890E"/>
<path d="M501.31 280.752C500.72 280.752 500.242 280.274 500.242 279.684V273.143C500.242 272.553 500.72 272.075 501.31 272.075C501.899 272.075 502.377 272.553 502.377 273.143V279.684C502.377 280.274 501.899 280.752 501.31 280.752Z" fill="#E6890E"/>
<path d="M510.77 255.535H443.992V268.453H510.77V255.535Z" fill="#F5AF0C"/>
<path d="M510.02 256.285V267.703H444.742V256.285H510.02ZM511.521 254.785H443.242V269.204H511.521V254.785Z" fill="#E6890E"/>
<path d="M449.802 266.333C449.212 266.333 448.734 265.855 448.734 265.266V258.723C448.734 258.133 449.212 257.655 449.802 257.655C450.391 257.655 450.869 258.133 450.869 258.723V265.266C450.869 265.856 450.391 266.333 449.802 266.333Z" fill="#E6890E"/>
<path d="M458.997 266.333C458.408 266.333 457.93 265.855 457.93 265.266V258.723C457.93 258.133 458.408 257.655 458.997 257.655C459.587 257.655 460.065 258.133 460.065 258.723V265.266C460.066 265.856 459.587 266.333 458.997 266.333Z" fill="#E6890E"/>
<path d="M468.185 266.333C467.595 266.333 467.117 265.855 467.117 265.266V258.723C467.117 258.133 467.595 257.655 468.185 257.655C468.774 257.655 469.252 258.133 469.252 258.723V265.266C469.252 265.856 468.774 266.333 468.185 266.333Z" fill="#E6890E"/>
<path d="M477.38 266.333C476.791 266.333 476.312 265.855 476.312 265.266V258.723C476.312 258.133 476.791 257.655 477.38 257.655C477.969 257.655 478.447 258.133 478.447 258.723V265.266C478.447 265.856 477.969 266.333 477.38 266.333Z" fill="#E6890E"/>
<path d="M486.575 266.333C485.986 266.333 485.508 265.855 485.508 265.266V258.723C485.508 258.133 485.986 257.655 486.575 257.655C487.165 257.655 487.643 258.133 487.643 258.723V265.266C487.643 265.856 487.165 266.333 486.575 266.333Z" fill="#E6890E"/>
<path d="M495.771 266.333C495.181 266.333 494.703 265.855 494.703 265.266V258.723C494.703 258.133 495.181 257.655 495.771 257.655C496.36 257.655 496.838 258.133 496.838 258.723V265.266C496.838 265.856 496.36 266.333 495.771 266.333Z" fill="#E6890E"/>
<path d="M504.958 266.333C504.369 266.333 503.891 265.855 503.891 265.266V258.723C503.891 258.133 504.369 257.655 504.958 257.655C505.547 257.655 506.026 258.133 506.026 258.723V265.266C506.026 265.856 505.547 266.333 504.958 266.333Z" fill="#E6890E"/>
<path d="M475.205 317.045H417.547V328.2H475.205V317.045Z" fill="#F5AF0C"/>
<path d="M474.556 317.693V327.551H418.194V317.693H474.556ZM475.852 316.397H416.898V328.847H475.852V316.397Z" fill="#E6890E"/>
<path d="M470.188 326.368C469.678 326.368 469.266 325.956 469.266 325.447V319.799C469.266 319.29 469.678 318.878 470.188 318.878C470.697 318.878 471.11 319.29 471.11 319.799V325.447C471.11 325.957 470.697 326.368 470.188 326.368Z" fill="#E6890E"/>
<path d="M462.25 326.368C461.741 326.368 461.328 325.956 461.328 325.447V319.799C461.328 319.29 461.741 318.878 462.25 318.878C462.759 318.878 463.172 319.29 463.172 319.799V325.447C463.172 325.957 462.759 326.368 462.25 326.368Z" fill="#E6890E"/>
<path d="M454.313 326.368C453.803 326.368 453.391 325.956 453.391 325.447V319.799C453.391 319.29 453.803 318.878 454.313 318.878C454.822 318.878 455.235 319.29 455.235 319.799V325.447C455.234 325.957 454.821 326.368 454.313 326.368Z" fill="#E6890E"/>
<path d="M446.375 326.368C445.867 326.368 445.453 325.956 445.453 325.447V319.799C445.453 319.29 445.866 318.878 446.375 318.878C446.885 318.878 447.297 319.29 447.297 319.799V325.447C447.297 325.957 446.885 326.368 446.375 326.368Z" fill="#E6890E"/>
<path d="M438.438 326.368C437.928 326.368 437.516 325.956 437.516 325.447V319.799C437.516 319.29 437.928 318.878 438.438 318.878C438.946 318.878 439.36 319.29 439.36 319.799V325.447C439.36 325.957 438.947 326.368 438.438 326.368Z" fill="#E6890E"/>
<path d="M430.5 326.368C429.992 326.368 429.578 325.956 429.578 325.447V319.799C429.578 319.29 429.991 318.878 430.5 318.878C431.01 318.878 431.422 319.29 431.422 319.799V325.447C431.421 325.957 431.009 326.368 430.5 326.368Z" fill="#E6890E"/>
<path d="M422.563 326.368C422.053 326.368 421.641 325.956 421.641 325.447V319.799C421.641 319.29 422.053 318.878 422.563 318.878C423.071 318.878 423.485 319.29 423.485 319.799V325.447C423.485 325.957 423.072 326.368 422.563 326.368Z" fill="#E6890E"/>
<path d="M479.627 304.596H421.969V315.751H479.627V304.596Z" fill="#F5AF0C"/>
<path d="M478.978 305.244V315.102H422.616V305.244H478.978ZM480.274 303.948H421.32V316.398H480.274V303.948Z" fill="#E6890E"/>
<path d="M474.61 313.919C474.1 313.919 473.688 313.507 473.688 312.998V307.35C473.688 306.84 474.1 306.429 474.61 306.429C475.119 306.429 475.532 306.841 475.532 307.35V312.998C475.532 313.507 475.119 313.919 474.61 313.919Z" fill="#E6890E"/>
<path d="M466.672 313.919C466.163 313.919 465.75 313.507 465.75 312.998V307.35C465.75 306.84 466.163 306.429 466.672 306.429C467.182 306.429 467.594 306.841 467.594 307.35V312.998C467.594 313.507 467.182 313.919 466.672 313.919Z" fill="#E6890E"/>
<path d="M458.735 313.919C458.225 313.919 457.812 313.507 457.812 312.998V307.35C457.812 306.84 458.225 306.429 458.735 306.429C459.244 306.429 459.657 306.841 459.657 307.35V312.998C459.657 313.507 459.243 313.919 458.735 313.919Z" fill="#E6890E"/>
<path d="M450.797 313.919C450.288 313.919 449.875 313.507 449.875 312.998V307.35C449.875 306.84 450.288 306.429 450.797 306.429C451.307 306.429 451.719 306.841 451.719 307.35V312.998C451.718 313.507 451.306 313.919 450.797 313.919Z" fill="#E6890E"/>
<path d="M442.86 313.919C442.351 313.919 441.938 313.507 441.938 312.998V307.35C441.938 306.84 442.35 306.429 442.86 306.429C443.369 306.429 443.782 306.841 443.782 307.35V312.998C443.782 313.507 443.369 313.919 442.86 313.919Z" fill="#E6890E"/>
<path d="M434.922 313.919C434.413 313.919 434 313.507 434 312.998V307.35C434 306.84 434.413 306.429 434.922 306.429C435.431 306.429 435.844 306.841 435.844 307.35V312.998C435.844 313.507 435.432 313.919 434.922 313.919Z" fill="#E6890E"/>
<path d="M426.985 313.919C426.476 313.919 426.062 313.507 426.062 312.998V307.35C426.062 306.84 426.475 306.429 426.985 306.429C427.494 306.429 427.907 306.841 427.907 307.35V312.998C427.906 313.507 427.493 313.919 426.985 313.919Z" fill="#E6890E"/>
<path d="M458.11 295.758C458.11 295.758 459.578 300.264 459.578 303.933H448.679C448.679 303.933 448.47 302.047 450.356 301.522C452.242 300.998 455.701 300.264 456.12 296.177L458.11 295.758Z" fill="#51192B"/>
<path d="M455.207 297.611C455.207 297.611 431.885 262.052 439.215 244.072C442.123 236.938 468.881 232.252 486.032 235.96L481.628 254.733L455.67 255.427C455.67 255.427 463.782 285.326 460.537 297.609H455.207V297.611Z" fill="#00685D"/>
<path d="M486.035 235.961C484.681 235.668 483.263 235.433 481.807 235.243L478.21 236.801C478.21 236.801 464.772 234.441 463.016 255.234L481.632 254.735L486.035 235.961Z" fill="#00524A"/>
<path d="M470.006 297.095C470.006 297.095 469.934 300.264 469.934 303.932H461.773C461.773 303.932 461.37 302.238 463.162 301.449C465.925 300.232 466.333 299.379 467.376 295.973L470.006 297.095Z" fill="#51192B"/>
<path d="M470.036 244.536C466.744 250.769 467.255 286.487 466.328 297.611L471.305 298.569C471.305 298.569 481.741 292.628 486.029 254.734C486.029 254.734 496.69 257.283 496.226 238.279C496.226 238.279 476.526 232.253 470.036 244.536Z" fill="#00685D"/>
<path d="M490.96 253.843C487.253 252.956 486.698 247.839 486.698 247.839C486.698 249.316 486.031 254.734 486.031 254.734C486.031 254.734 488.468 255.31 490.96 253.843Z" fill="#00524A"/>
<path d="M463.41 192.187C462.689 193.691 459.38 201.386 460.166 218.945C460.166 218.945 450.026 210.879 447.469 206.995C447.469 206.995 443.542 204.903 443.594 210.43C443.632 214.504 453.037 232.132 459.617 231.156C469.427 229.7 469.432 200.999 463.41 192.187Z" fill="#DB7D00"/>
<path d="M462.274 235.24C462.274 235.24 484.841 233.369 497.293 241.669C498.025 228.755 495.894 194.056 488.851 189.219C488.851 189.219 471.199 188.504 463.133 192.088C459.561 196.872 464.822 224.091 462.274 235.24Z" fill="#ED9D22"/>
<path d="M470.369 190.157C470.192 192.385 470.14 197.536 473.57 196.929C477.122 196.299 479.553 191.143 480.332 189.252C477.227 189.371 473.672 189.628 470.369 190.157Z" fill="#DB7D00"/>
<path d="M474.749 215.016C474.749 215.016 468.104 213.102 462.25 210.188C462.619 216.195 463.086 222.664 462.979 228.043C467.833 231.489 475.711 235.887 480.791 232.559C488.561 227.469 493.345 213.708 493.065 202.18L486.043 193.067C486.043 193.067 476.097 209.06 474.749 215.016Z" fill="#DB7D00"/>
<path d="M488.85 189.219C485.801 190.218 482.874 202.961 476.004 219.691C476.004 219.691 457.63 209.683 453 205.8C453 205.8 448.519 206.397 449.564 210.43C450.61 214.462 466.813 232.577 478.581 231.156C487.236 230.11 499.754 198.032 488.85 189.219Z" fill="#ED9D22"/>
<path d="M447.15 207.629C447.15 207.629 445.466 204.955 444.68 204.372C443.894 203.789 441.336 202.688 436.578 203.627C436.578 203.627 438.829 208.827 443.726 207.743L444.517 209.926C446.305 210.281 447.306 209.667 447.15 207.629Z" fill="#F0786A"/>
<path d="M443.002 207.425L447.059 206.934C447.437 206.888 447.503 206.545 447.206 206.167L440.438 197.535C440.142 197.157 439.596 196.887 439.218 196.934L435.161 197.425C434.783 197.471 434.717 197.814 435.014 198.192L441.782 206.825C442.078 207.201 442.625 207.471 443.002 207.425Z" fill="#008EB0"/>
<path d="M440.331 200.874C441.429 201.764 442.821 204.504 440.235 207.43C440.235 207.43 437.542 206.31 436.58 203.626C436.182 202.519 439.521 200.218 440.331 200.874Z" fill="#F79885"/>
<path d="M440.602 200.76C440.398 201.674 441.161 203.82 443.598 204.717C446.035 205.613 447.682 206.341 447.682 206.341L450.18 209.601C450.18 209.601 453.821 209.796 452.85 206.36C448.443 204.095 446.768 197.609 443.29 200.124C443.29 200.124 440.761 200.045 440.602 200.76Z" fill="#F79885"/>
<path d="M471.59 192.479C471.59 192.479 471.609 187.07 469.977 184.121C469.977 184.121 467.649 186.605 466.167 186.508C464.685 186.41 459.779 178.781 460.731 172.554C461.045 171.898 466.223 168.249 468.46 169.208C470.697 170.168 477.664 182.9 479.14 189.221C479.14 189.221 473.988 199.554 471.59 192.479Z" fill="#F79885"/>
<path d="M472.28 174.468C472.908 174.761 473.612 176.481 472.304 177.443C473.208 177.986 474.61 177.944 474.61 177.944C475.273 174.615 473.288 170.745 472.641 170.296C471.995 169.848 471.2 170.607 471.2 170.607C471.2 170.607 471.072 166.405 466.824 166.192C462.577 165.979 462.578 170.511 462.578 170.511C452.372 170.852 458.044 175.218 460.525 174.975C464.213 174.88 467.547 172.665 467.547 172.665C470.827 177.278 469.504 180.641 469.504 180.641C465.268 178.941 462.431 181.621 462.431 181.621C462.258 183.327 464.593 186.675 465.85 187.096C467.108 187.517 470.074 186.674 471.496 184.56C472.801 182.621 471.155 176.921 471.084 175.454C471.17 175.097 471.629 174.163 472.28 174.468ZM463.731 183.998C462.565 181.885 467.237 181.218 467.842 182.831C468.444 184.443 464.796 185.927 463.731 183.998Z" fill="#51192B"/>
<path d="M193.611 328.386H74.1721C69.5419 328.386 65.7891 324.633 65.7891 320.002V86.3323C65.7891 81.703 69.5419 77.9492 74.1721 77.9492H193.612C198.242 77.9492 201.995 81.7021 201.995 86.3323V320.002C201.994 324.633 198.242 328.386 193.611 328.386Z" fill="#265173"/>
<path d="M196.63 312.86V88.2499C196.63 85.5246 194.421 83.3164 191.696 83.3164H76.0907C73.3654 83.3164 71.1562 85.5255 71.1562 88.2508V312.861C71.1562 315.586 73.3654 317.796 76.0907 317.796H191.695C194.421 317.795 196.63 315.585 196.63 312.86Z" fill="#E1F0FA"/>
<path d="M80.9922 273.972V264.054C80.9922 262.088 82.5863 260.494 84.5521 260.494H183.23C185.196 260.494 186.79 262.087 186.79 264.054V273.972C186.79 275.938 185.197 277.532 183.23 277.532H84.5511C82.5863 277.532 80.9922 275.938 80.9922 273.972Z" fill="#B5D6EA"/>
<path d="M80.9922 245.993V236.075C80.9922 234.109 82.5863 232.515 84.5521 232.515H183.23C185.196 232.515 186.79 234.109 186.79 236.075V245.993C186.79 247.959 185.197 249.553 183.23 249.553H84.5511C82.5863 249.553 80.9922 247.959 80.9922 245.993Z" fill="#B5D6EA"/>
<path d="M80.9922 216.834V206.915C80.9922 204.95 82.5863 203.355 84.5521 203.355H183.23C185.196 203.355 186.79 204.949 186.79 206.915V216.834C186.79 218.799 185.197 220.393 183.23 220.393H84.5511C82.5863 220.393 80.9922 218.799 80.9922 216.834Z" fill="#B5D6EA"/>
<path d="M80.9922 298.62V292.284C80.9922 290.319 82.5863 288.725 84.5521 288.725H183.23C185.196 288.725 186.79 290.318 186.79 292.284V298.62C186.79 300.586 185.197 302.18 183.23 302.18H84.5511C82.5863 302.18 80.9922 300.586 80.9922 298.62Z" fill="#B5D6EA"/>
<path d="M167.897 151.914C164.033 151.751 161.784 150.121 161.148 147.029L163.462 146.525C163.687 147.606 164.163 148.417 164.883 148.962C165.604 149.504 166.609 149.818 167.896 149.899V143.151C166.291 142.753 165.182 142.394 164.57 142.077C163.957 141.759 163.463 141.395 163.088 140.982C162.71 140.568 162.437 140.126 162.27 139.655C162.103 139.184 162.019 138.617 162.019 137.955C162.019 136.55 162.529 135.449 163.551 134.656C164.57 133.861 166.02 133.424 167.897 133.343V131.561H169.584V133.343C171.281 133.424 172.59 133.808 173.516 134.493C174.44 135.177 175.093 136.245 175.474 137.696L173.108 138.146C172.927 137.293 172.559 136.629 172.006 136.153C171.453 135.677 170.646 135.388 169.584 135.289V141.342C171.209 141.723 172.362 142.073 173.048 142.39C173.732 142.708 174.274 143.066 174.672 143.465C175.072 143.864 175.376 144.336 175.585 144.881C175.793 145.424 175.897 146.063 175.897 146.799C175.897 148.295 175.348 149.497 174.25 150.404C173.154 151.311 171.598 151.814 169.584 151.914V154.119H167.897V151.914ZM164.359 137.927C164.359 138.464 164.474 138.917 164.701 139.288C164.928 139.66 165.265 139.972 165.715 140.227C166.163 140.482 166.891 140.735 167.897 140.989V135.261C165.54 135.388 164.359 136.276 164.359 137.927ZM173.557 146.826C173.557 146.235 173.439 145.75 173.204 145.37C172.968 144.989 172.628 144.675 172.184 144.425C171.739 144.175 170.872 143.883 169.584 143.546V149.914C170.863 149.831 171.846 149.528 172.531 149.003C173.215 148.477 173.557 147.75 173.557 146.826Z" fill="#7FB8DB"/>
<path d="M91.327 152.945H148.507C149.318 152.945 149.974 152.288 149.974 151.477V133.5C149.974 132.689 149.318 132.032 148.507 132.032H91.327C90.5162 132.032 89.8594 132.689 89.8594 133.5V151.476C89.8594 152.288 90.5162 152.945 91.327 152.945Z" fill="#B5D6EA"/>
<path d="M118.099 98.7612C109.508 112.646 124.092 127.231 137.978 118.641C139.126 117.93 140.104 116.953 140.814 115.805C149.405 101.92 134.82 87.3354 120.935 95.9257C119.786 96.6358 118.808 97.6139 118.099 98.7612Z" fill="#008EB0"/>
<path d="M79.5133 169.569H188.259C189.194 169.569 189.951 168.812 189.951 167.876V162.048C189.951 161.113 189.194 160.355 188.259 160.355H79.5133C78.5779 160.355 77.8203 161.113 77.8203 162.048V167.876C77.8203 168.812 78.5779 169.569 79.5133 169.569Z" fill="#B5D6EA"/>
<path d="M80.5266 167.126H187.25V162.8H80.5266V167.126Z" fill="#265173"/>
<path d="M55.9363 238.996H159.775C159.331 214.433 169.14 189.045 186.009 166.164H82.1702C65.3013 189.045 55.4924 214.433 55.9363 238.996Z" fill="#008EB0"/>
<path d="M66.3594 215.662C80.0675 217.004 86.8308 229.116 89.098 236.134H126.639C129.203 229.116 144.448 217.004 158.661 215.662C161.854 199.282 168.615 182.707 180.528 166.165H88.2263C76.3128 182.707 69.5523 199.281 66.3594 215.662Z" fill="#008EB0"/>
<path d="M121.432 188.35C141.103 188.35 160.284 180.654 166.216 171.016C167.249 169.334 167.796 167.701 167.909 166.165H99.5774C97.6326 167.701 96.1022 169.318 95.0717 171.016C89.1402 180.653 101.804 188.35 121.432 188.35Z" fill="#008EB0"/>
<path d="M46.9219 229.98H150.761C153.357 208.073 166.308 185.43 186.008 165.022H82.169C62.4685 185.43 49.5179 208.073 46.9219 229.98Z" fill="#008EB0"/>
<path d="M46.9219 229.98C64.228 230.321 81.534 230.452 98.8411 230.591L124.801 230.666C133.454 230.71 142.107 230.696 150.76 230.659L151.364 230.656L151.435 230.06C152.169 223.895 153.694 217.83 155.803 211.979C157.929 206.132 160.558 200.46 163.635 195.031C166.698 189.593 170.206 184.411 173.948 179.404C177.697 174.398 181.764 169.631 186.008 165.021C181.567 169.443 177.387 174.129 173.471 179.035C169.553 183.939 165.984 189.127 162.784 194.54C159.602 199.961 156.787 205.624 154.629 211.552C152.457 217.469 150.87 223.621 150.086 229.899L150.761 229.299C142.108 229.262 133.455 229.249 124.802 229.292L98.842 229.368C81.534 229.507 64.228 229.638 46.9219 229.98Z" fill="#B5D6EA"/>
<path d="M60.2344 209.169C73.7772 210.366 79.0405 221.168 80.4397 227.427H117.981C121.413 221.168 138.157 210.367 152.536 209.169C157.756 194.56 166.568 179.776 180.529 165.023H88.2277C74.2676 179.776 65.4559 194.56 60.2344 209.169Z" fill="#008EB0"/>
<path d="M118.684 184.81C138.355 184.81 158.489 177.945 165.614 169.349C166.854 167.849 167.604 166.393 167.906 165.022H99.5746C97.4396 166.392 95.7096 167.835 94.4691 169.349C87.3446 177.945 99.0547 184.81 118.684 184.81Z" fill="#008EB0"/>
<path d="M37.6641 212.882H141.502C147.221 196.335 163.4 179.233 186.009 163.818H82.1707C59.5614 179.233 43.3827 196.335 37.6641 212.882Z" fill="#008EB0"/>
<path d="M37.6641 212.882C54.9701 213.231 72.2772 213.378 89.5833 213.5L115.543 213.579C124.196 213.629 132.849 213.565 141.503 213.547L141.976 213.546L142.133 213.099C143.964 207.877 146.647 202.963 149.797 198.384C152.944 193.795 156.531 189.498 160.402 185.473C168.168 177.433 176.898 170.347 186.009 163.818C176.647 169.978 167.681 176.84 159.73 184.816C155.763 188.805 152.03 193.056 148.788 197.683C145.56 202.315 142.79 207.307 140.873 212.664L141.502 212.217C132.849 212.2 124.196 212.135 115.542 212.185L89.5823 212.264C72.2772 212.386 54.9701 212.533 37.6641 212.882Z" fill="#B5D6EA"/>
<path d="M53.9453 197.163C67.317 198.067 71.0413 206.227 71.548 210.954H109.089C113.413 206.226 131.697 198.067 146.247 197.163C153.55 186.128 164.469 174.963 180.533 163.818H88.2314C72.1677 174.963 61.2495 186.128 53.9453 197.163Z" fill="#7FB8DB"/>
<path d="M115.868 178.764C135.54 178.764 156.652 173.579 165.002 167.086C166.456 165.953 167.413 164.854 167.911 163.818H99.5795C97.2496 164.854 95.3133 165.943 93.8571 167.086C85.5082 173.579 96.2401 178.764 115.868 178.764Z" fill="#008EB0"/>
<path d="M37.444 321.755C37.444 321.755 36.7188 326.106 36.7188 328.644H45.2397C45.2397 328.644 40.9792 325.97 40.0277 321.755H37.444Z" fill="#22365B"/>
<path d="M40.9788 223.816C40.9788 223.816 44.514 273.624 40.9788 323.115H36.6281C36.6281 323.115 23.014 300.77 20.3125 218.964L40.9788 223.816Z" fill="#265173"/>
<path d="M32.5076 225.295L41.5038 232.953C42.3118 249.127 43.5285 284.495 41.1711 320.229C41.1008 320.058 41.0361 319.872 40.9772 319.664C37.0086 305.507 40.2586 268.561 40.2586 268.561C33.769 250.173 31.4297 231.253 31.4297 231.253L32.5076 225.295Z" fill="#22365B"/>
<path d="M44.3631 319.664C44.3631 319.664 42.8897 324.069 41.6406 326.278L44.0465 327.637C45.2243 328.303 46.556 328.65 47.9087 328.644L50.6948 328.633C50.0418 327.01 47.8593 327.55 47.3374 326.109C46.9572 325.059 46.4553 322.776 46.9068 321.273L44.3631 319.664Z" fill="#22365B"/>
<path d="M53.4458 223.816C53.4458 223.816 63.3364 248.013 63.3383 273.789C63.3393 282.803 48.1948 323.115 48.1948 323.115L43.3269 321.291C43.3269 321.291 37.5522 312.908 45.2414 273.247C45.2414 273.247 27.6425 233.767 31.4334 220.606L53.4458 223.816Z" fill="#265173"/>
<path d="M44.7656 174.035C46.5622 167.143 48.4995 154.626 50.9966 152.941C53.4938 151.255 61.0613 154.101 60.7048 157.186C60.3493 160.271 59.2761 171.002 57.721 171.646C56.1668 172.29 53.1506 170.625 53.1506 170.625L52.6402 175.051C52.6402 175.051 47.0242 179.989 44.7656 174.035Z" fill="#F79885"/>
<path d="M61.5484 177.177C61.5484 177.177 59.6064 195.192 56.8555 212.881C56.0674 217.95 55.6501 227.788 55.6501 227.788C55.6501 227.788 30.9648 229.174 19.6406 222.923C21.4705 204.08 31.3811 178.059 35.0741 174.124C35.0741 174.124 47.6406 171.971 61.5484 177.177Z" fill="#FFB157"/>
<path d="M57.3098 209.886C53.5332 199.388 55.574 188.168 55.574 188.168L59.6301 193.158C58.9818 198.206 58.1938 204.004 57.3098 209.886Z" fill="#ED9D22"/>
<path d="M88.6908 224.189C88.6908 224.189 94.571 224.696 94.8001 225.347C95.0292 225.998 91.7336 226.564 91.7336 226.564C91.7336 226.564 91.572 231.881 93.2269 233.685C94.8828 235.487 85.5492 231.383 87.5159 226.007L88.6908 224.189Z" fill="#F79885"/>
<path d="M61.5471 177.178C65.4283 181.502 68.9463 200.843 71.2914 204.238C71.2914 204.238 84.7885 219.406 89.6041 223.845C89.6041 223.845 89.6897 226.351 87.319 227.79C87.319 227.79 74.5832 225.705 63.3028 214.169C57.5965 208.332 50.2885 177.478 61.5471 177.178Z" fill="#FFB157"/>
<path d="M45.874 164.44C46.9206 162.093 46.3265 152.34 49.5014 150.177C52.6773 148.015 58.393 153.002 58.393 153.002C58.393 153.002 63.912 150.606 63.2856 156.579C63.0147 159.156 61.6212 162.986 56.143 159.147C56.143 159.147 56.0451 159.535 55.8484 160.139V160.14C55.8484 160.14 54.3683 165.774 59.4795 166.423C59.4795 166.423 59.4691 171.897 57.7058 172.238C55.9425 172.579 53.1525 170.625 53.1525 170.625C53.1525 170.625 55.548 169.581 54.5328 163.32C53.1896 165.931 50.9719 168.671 47.7276 167.923C44.1792 167.143 44.8274 166.786 45.874 164.44Z" fill="#22365B"/>
<path d="M584.965 170.366C580.853 171.36 575.479 184.661 567.173 191.78C565.485 193.226 547.89 185.272 540.585 182.245L538.875 184.79C538.875 184.79 577.537 244.565 584.965 170.366Z" fill="#C93B38"/>
<path d="M625.167 321.023H627.548L629.025 328.849H620.648L621.01 327.306C621.01 327.306 624.042 326.86 625.167 321.023Z" fill="#22365B"/>
<path d="M592.376 321.023H594.872L595.662 328.849H584.586L584.998 327.306C584.998 327.306 590.701 326.148 592.376 321.023Z" fill="#22365B"/>
<path d="M634.765 299.197C634.166 314.549 630.205 322.351 630.205 322.351H623.59C621.995 307.164 598.047 217.144 598.047 217.144L622.239 218.531H622.263C629.068 247.617 635.158 289.285 634.765 299.197Z" fill="#265173"/>
<path d="M582.586 217.206C582.586 217.206 588.436 297.837 590.594 322.346H597.207C597.207 322.346 600.604 315.308 603.846 297.13C605.965 285.253 605.748 251.909 604.328 218.528L582.586 217.206Z" fill="#265173"/>
<path d="M622.102 218.531C622.102 218.531 596.387 226.494 582.583 217.203C582.583 217.203 579.06 178.308 584.959 170.362C584.959 170.362 598.356 165.074 621.106 170.362C621.106 170.362 621.683 202.846 622.102 218.531Z" fill="#EB5654"/>
<path d="M659.764 192.737L541.922 173.856L532.778 230.929L650.62 249.809L659.764 192.737Z" fill="#008EB0"/>
<path d="M641.045 192.993L559.64 179.95C557.085 187.41 550.066 192.49 542.181 192.587L538.875 213.221C546.335 215.776 551.415 222.796 551.512 230.68L632.917 243.723C635.472 236.263 642.491 231.182 650.376 231.086L653.682 210.452C646.223 207.897 641.142 200.878 641.045 192.993Z" fill="#7FB8DB"/>
<path d="M611.602 214.292C609.872 225.091 601.609 232.746 593.145 231.389C584.681 230.034 579.223 220.18 580.953 209.382C582.683 198.583 590.947 190.928 599.41 192.285C607.874 193.64 613.333 203.494 611.602 214.292Z" fill="#008EB0"/>
<path d="M620.637 234.045C621.364 234.215 621.787 239.385 621.787 239.385C622.771 239.64 624.473 246.166 623.298 246.739C623.021 246.874 618.247 246.928 616.832 245.903C615.913 245.238 618.993 233.66 620.637 234.045Z" fill="#F79885"/>
<path d="M621.113 170.366C625.953 170.979 636.42 224.465 623.333 238.862L617.202 238.685C617.202 238.685 615.361 169.438 621.113 170.366Z" fill="#C93B38"/>
<path d="M596.283 163.353C596.236 169.74 597.071 173.388 597.071 173.388C601.19 175.799 606.636 168.177 606.636 168.177C606.636 168.177 604.306 164.092 604.045 158.545C603.711 151.479 596.325 157.743 596.283 163.353Z" fill="#F79885"/>
<path d="M603.979 158.587C603.467 151.813 607.44 147.832 600.728 146.02C594.016 144.209 592.098 145.145 591.253 150.566C590.409 155.987 591.8 163.311 593.618 164.188C594.49 164.609 596.324 163.935 597.177 163.648C599.828 162.754 602.954 160.257 603.979 158.587Z" fill="#F79885"/>
<path d="M605.032 149.148C605.804 147.951 607.096 144.161 600.49 145.683C601.577 141.375 597.641 142.554 592.942 145.442C589.795 142.446 585.675 147.749 590.147 150.12C594.058 152.194 597.843 151.3 597.843 151.3C597.556 156.058 596.605 158.049 596.605 158.049C594.268 157.366 591.176 157.263 591.176 157.263C590.725 159.558 591.854 163.719 593.009 164.665C593.377 164.965 595.689 164.797 597.026 164.034C599.035 161.881 599.129 154.145 599.129 154.145C599.129 154.145 600.572 152.285 601.28 153.195C601.988 154.105 601.148 155.525 599.668 155.868C600.754 159.151 603.98 158.588 603.98 158.588C604.439 153.301 607.116 149.533 605.032 149.148Z" fill="#22365B"/>
<path d="M599.619 153.408H594.382C594.266 153.408 594.172 153.314 594.172 153.199C594.172 153.084 594.265 152.99 594.382 152.99H599.619C599.735 152.99 599.829 153.083 599.829 153.199C599.829 153.314 599.736 153.408 599.619 153.408Z" fill="#265173"/>
<path d="M593.591 156.923C593.388 156.923 593.183 156.852 592.993 156.713C592.513 156.366 592.164 155.645 592.057 154.784C591.89 153.458 592.366 152.3 593.138 152.15C593.391 152.1 593.66 152.165 593.906 152.343C594.385 152.69 594.733 153.411 594.841 154.271C595.005 155.598 594.53 156.756 593.759 156.906C593.704 156.917 593.649 156.923 593.591 156.923ZM593.307 152.554C593.277 152.554 593.248 152.557 593.218 152.562C592.738 152.655 592.324 153.55 592.473 154.733C592.565 155.469 592.858 156.098 593.239 156.375C593.388 156.484 593.538 156.526 593.679 156.496C594.158 156.403 594.573 155.508 594.424 154.324C594.332 153.588 594.039 152.96 593.659 152.684C593.54 152.597 593.423 152.554 593.307 152.554Z" fill="#265173"/>
<path d="M590.741 156.735C590.602 156.735 590.462 156.686 590.331 156.59C589.904 156.281 589.564 155.496 589.447 154.545C589.305 153.397 589.53 152.105 590.231 151.969C590.406 151.93 590.586 151.982 590.753 152.102C591.177 152.41 591.518 153.193 591.637 154.147C591.779 155.295 591.554 156.589 590.852 156.724C590.815 156.731 590.777 156.735 590.741 156.735ZM590.341 152.377C590.331 152.377 590.32 152.378 590.31 152.379C590.02 152.436 589.71 153.267 589.862 154.493C589.978 155.435 590.304 156.054 590.577 156.251C590.648 156.303 590.711 156.32 590.773 156.314C591.062 156.258 591.372 155.426 591.22 154.2C591.102 153.258 590.776 152.637 590.505 152.441C590.446 152.397 590.391 152.377 590.341 152.377Z" fill="#265173"/>
<path d="M592.173 153.474C592.126 153.401 591.861 153.046 591.319 153.386L591.094 153.032C591.392 152.845 591.676 152.78 591.948 152.844C592.319 152.93 592.506 153.22 592.527 153.253L592.173 153.474Z" fill="#265173"/>
<path d="M537.629 179.007C537.428 179.701 537.992 180.231 537.992 180.231C537.077 180.753 537.82 185.597 539.264 186.168C540.398 186.617 544.418 182.409 542.195 181.383C542.195 181.383 543.08 181.133 543.101 180.839C543.198 179.516 537.935 177.955 537.629 179.007Z" fill="#F79885"/>
</svg>
