<svg width="44" height="20" viewBox="0 0 44 20" fill="none" xmlns="http://www.w3.org/2000/svg">
<g clip-path="url(#clip0_4043_25867)">
<path d="M43.5412 4.195C43.4197 4.195 43.3031 4.14232 43.2171 4.04855C43.1312 3.95479 43.0829 3.82761 43.0829 3.695V1.97C43.0829 1.71274 42.9892 1.46602 42.8224 1.28411C42.6557 1.1022 42.4295 1 42.1937 1H39.6683C39.5467 1 39.4302 0.947322 39.3442 0.853553C39.2582 0.759785 39.21 0.632608 39.21 0.5C39.21 0.367392 39.2582 0.240215 39.3442 0.146447C39.4302 0.0526784 39.5467 0 39.6683 0L42.1937 0C42.6704 0.00774417 43.1256 0.217783 43.4628 0.585565C43.7999 0.953346 43.9924 1.44994 43.9995 1.97V3.695C43.9995 3.76066 43.9877 3.82568 43.9647 3.88634C43.9416 3.947 43.9079 4.00212 43.8653 4.04855C43.8227 4.09498 43.7722 4.13181 43.7166 4.15694C43.661 4.18207 43.6014 4.195 43.5412 4.195Z" fill="black"/>
<path d="M41.1537 17.07H40.4479C40.3264 17.07 40.2098 17.0173 40.1238 16.9236C40.0379 16.8298 39.9896 16.7026 39.9896 16.57C39.9896 16.4374 40.0379 16.3102 40.1238 16.2165C40.2098 16.1227 40.3264 16.07 40.4479 16.07H41.1537C41.5105 16.0636 41.851 15.9061 42.1033 15.6309C42.3556 15.3556 42.4999 14.9842 42.5058 14.595V9.16001C42.5047 9.04558 42.4924 8.93161 42.4692 8.82001L40.9796 2.12501C40.9093 1.80375 40.7416 1.51782 40.5037 1.31361C40.2657 1.10939 39.9715 0.998886 39.6687 1.00001H2.26417C1.90679 1.00001 1.56405 1.15489 1.31134 1.43057C1.05863 1.70624 0.916666 2.08014 0.916666 2.47001V11.85C0.921209 12.1561 1.01147 12.4533 1.17532 12.7017C1.33918 12.9502 1.56879 13.138 1.83333 13.24L9.11166 16.075C9.23322 16.0797 9.34811 16.1368 9.43106 16.2338C9.514 16.3309 9.55821 16.4599 9.55396 16.5925C9.5497 16.7251 9.49733 16.8505 9.40837 16.9409C9.31941 17.0314 9.20114 17.0797 9.07958 17.075H9.02917C8.97756 17.0744 8.92642 17.0642 8.87792 17.045L1.54458 14.185C1.09787 14.017 0.709689 13.7025 0.433187 13.2845C0.156685 12.8665 0.00538294 12.3654 0 11.85L0 2.47001C0.00713727 1.81735 0.247974 1.19361 0.67105 0.732068C1.09413 0.27053 1.66589 0.0077991 2.26417 1.29875e-05H39.6687C40.1776 -0.0017884 40.6721 0.183849 41.0723 0.526865C41.4724 0.869881 41.7546 1.35019 41.8733 1.89001L43.3583 8.58001C43.4004 8.76995 43.422 8.96461 43.4225 9.16001V14.595C43.4165 15.2494 43.1756 15.8752 42.7514 16.3379C42.3272 16.8007 41.7536 17.0635 41.1537 17.07Z" fill="black"/>
<path d="M34.697 17.0703H14.8099C14.6883 17.0703 14.5718 17.0176 14.4858 16.9239C14.3999 16.8301 14.3516 16.7029 14.3516 16.5703C14.3516 16.4377 14.3999 16.3105 14.4858 16.2168C14.5718 16.123 14.6883 16.0703 14.8099 16.0703H34.697C34.8185 16.0703 34.9351 16.123 35.0211 16.2168C35.107 16.3105 35.1553 16.4377 35.1553 16.5703C35.1553 16.7029 35.107 16.8301 35.0211 16.9239C34.9351 17.0176 34.8185 17.0703 34.697 17.0703Z" fill="black"/>
<path d="M42.5104 7.39453H0.458333C0.336776 7.39453 0.220197 7.34185 0.134243 7.24808C0.0482886 7.15432 0 7.02714 0 6.89453C0 6.76192 0.0482886 6.63475 0.134243 6.54098C0.220197 6.44721 0.336776 6.39453 0.458333 6.39453H42.5104C42.632 6.39453 42.7486 6.44721 42.8345 6.54098C42.9205 6.63475 42.9688 6.76192 42.9688 6.89453C42.9688 7.02714 42.9205 7.15432 42.8345 7.24808C42.7486 7.34185 42.632 7.39453 42.5104 7.39453Z" fill="black"/>
<path d="M37.5822 19.8652C36.9178 19.8652 36.2682 19.6502 35.7158 19.2475C35.1633 18.8448 34.7327 18.2724 34.4784 17.6027C34.2241 16.933 34.1576 16.1961 34.2872 15.4852C34.4168 14.7742 34.7368 14.1212 35.2067 13.6086C35.6765 13.0961 36.2751 12.747 36.9268 12.6056C37.5785 12.4642 38.254 12.5367 38.8679 12.8141C39.4818 13.0915 40.0065 13.5613 40.3756 14.164C40.7448 14.7667 40.9418 15.4753 40.9418 16.2002C40.9418 17.1722 40.5879 18.1044 39.9578 18.7917C39.3278 19.479 38.4733 19.8652 37.5822 19.8652ZM37.5822 13.5352C37.0991 13.5352 36.6268 13.6915 36.225 13.9843C35.8233 14.2771 35.5102 14.6933 35.3253 15.1803C35.1404 15.6673 35.092 16.2031 35.1863 16.7201C35.2805 17.237 35.5132 17.7119 35.8548 18.0846C36.1965 18.4573 36.6318 18.7111 37.1057 18.814C37.5795 18.9168 38.0707 18.864 38.5171 18.6623C38.9635 18.4606 39.345 18.119 39.6135 17.6808C39.8819 17.2425 40.0252 16.7272 40.0252 16.2002C40.0252 15.4934 39.7678 14.8155 39.3096 14.3157C38.8515 13.8159 38.2301 13.5352 37.5822 13.5352Z" fill="black"/>
<path d="M37.5843 17.8898C37.2779 17.8898 36.9784 17.7907 36.7237 17.605C36.4689 17.4193 36.2703 17.1553 36.1531 16.8465C36.0358 16.5377 36.0051 16.1979 36.0649 15.8701C36.1247 15.5422 36.2722 15.2411 36.4889 15.0048C36.7056 14.7684 36.9816 14.6074 37.2821 14.5422C37.5826 14.477 37.8941 14.5105 38.1772 14.6384C38.4602 14.7663 38.7022 14.9829 38.8724 15.2609C39.0426 15.5388 39.1335 15.8655 39.1335 16.1998C39.1323 16.6476 38.9687 17.0767 38.6784 17.3933C38.3882 17.71 37.9948 17.8884 37.5843 17.8898ZM37.5843 15.4998C37.4592 15.4998 37.3369 15.5402 37.2329 15.6161C37.1289 15.6919 37.0478 15.7996 37 15.9257C36.9521 16.0518 36.9396 16.1905 36.964 16.3244C36.9884 16.4582 37.0486 16.5812 37.1371 16.6777C37.2255 16.7742 37.3382 16.8399 37.4609 16.8665C37.5836 16.8931 37.7108 16.8795 37.8264 16.8272C37.9419 16.775 38.0407 16.6866 38.1102 16.5731C38.1797 16.4596 38.2168 16.3262 38.2168 16.1898C38.2168 16.0068 38.1502 15.8313 38.0316 15.7019C37.913 15.5725 37.7521 15.4998 37.5843 15.4998Z" fill="black"/>
<path d="M11.9172 19.8652C11.2527 19.8652 10.6032 19.6502 10.0507 19.2475C9.49824 18.8448 9.06763 18.2724 8.81335 17.6027C8.55907 16.933 8.49254 16.1961 8.62217 15.4852C8.7518 14.7742 9.07177 14.1212 9.54162 13.6086C10.0115 13.0961 10.6101 12.747 11.2618 12.6056C11.9135 12.4642 12.589 12.5367 13.2029 12.8141C13.8167 13.0915 14.3414 13.5613 14.7106 14.164C15.0797 14.7667 15.2768 15.4753 15.2768 16.2002C15.2768 17.1722 14.9228 18.1044 14.2928 18.7917C13.6627 19.479 12.8082 19.8652 11.9172 19.8652ZM11.9172 13.5352C11.434 13.5352 10.9617 13.6915 10.56 13.9843C10.1583 14.2771 9.84514 14.6933 9.66024 15.1803C9.47534 15.6673 9.42696 16.2031 9.52123 16.7201C9.61549 17.237 9.84815 17.7119 10.1898 18.0846C10.5314 18.4573 10.9667 18.7111 11.4406 18.814C11.9145 18.9168 12.4057 18.864 12.8521 18.6623C13.2984 18.4606 13.68 18.119 13.9484 17.6808C14.2168 17.2425 14.3601 16.7272 14.3601 16.2002C14.3601 15.4934 14.1027 14.8155 13.6446 14.3157C13.1865 13.8159 12.5651 13.5352 11.9172 13.5352Z" fill="black"/>
<path d="M11.9173 17.8898C11.6109 17.8898 11.3114 17.7907 11.0567 17.605C10.8019 17.4193 10.6033 17.1553 10.4861 16.8465C10.3688 16.5377 10.3382 16.1979 10.3979 15.8701C10.4577 15.5422 10.6053 15.2411 10.8219 15.0048C11.0386 14.7684 11.3146 14.6074 11.6151 14.5422C11.9156 14.477 12.2271 14.5105 12.5102 14.6384C12.7932 14.7663 13.0352 14.9829 13.2054 15.2609C13.3756 15.5388 13.4665 15.8655 13.4665 16.1998C13.4665 16.648 13.3033 17.0778 13.0128 17.3948C12.7222 17.7117 12.3282 17.8898 11.9173 17.8898ZM11.9173 15.4998C11.7922 15.4998 11.6699 15.5402 11.5659 15.6161C11.4619 15.6919 11.3808 15.7996 11.333 15.9257C11.2851 16.0518 11.2726 16.1905 11.297 16.3244C11.3214 16.4582 11.3816 16.5812 11.4701 16.6777C11.5585 16.7742 11.6712 16.8399 11.7939 16.8665C11.9166 16.8931 12.0438 16.8795 12.1594 16.8272C12.275 16.775 12.3737 16.6866 12.4432 16.5731C12.5127 16.4596 12.5498 16.3262 12.5498 16.1898C12.5504 16.099 12.5345 16.0089 12.5029 15.9249C12.4714 15.8409 12.4248 15.7646 12.3659 15.7004C12.3071 15.6362 12.2371 15.5854 12.1601 15.5509C12.0831 15.5165 12.0006 15.4991 11.9173 15.4998Z" fill="black"/>
<path d="M32.2953 17.07H27.0658C26.9442 17.07 26.8276 17.0173 26.7417 16.9236C26.6557 16.8298 26.6074 16.7026 26.6074 16.57V0.5C26.6074 0.367392 26.6557 0.240215 26.7417 0.146447C26.8276 0.0526784 26.9442 0 27.0658 0L32.2953 0C32.4169 0 32.5335 0.0526784 32.6194 0.146447C32.7054 0.240215 32.7537 0.367392 32.7537 0.5V16.57C32.7537 16.7026 32.7054 16.8298 32.6194 16.9236C32.5335 17.0173 32.4169 17.07 32.2953 17.07ZM27.5241 16.07H31.837V1H27.5241V16.07Z" fill="black"/>
<path d="M4.77474 7.395C4.65318 7.395 4.5366 7.34232 4.45065 7.24855C4.36469 7.15478 4.31641 7.02761 4.31641 6.895V0.5C4.31641 0.367392 4.36469 0.240215 4.45065 0.146447C4.5366 0.0526784 4.65318 0 4.77474 0C4.8963 0 5.01288 0.0526784 5.09883 0.146447C5.18478 0.240215 5.23307 0.367392 5.23307 0.5V6.895C5.23307 7.02761 5.18478 7.15478 5.09883 7.24855C5.01288 7.34232 4.8963 7.395 4.77474 7.395Z" fill="black"/>
<path d="M9.01107 7.395C8.88951 7.395 8.77293 7.34232 8.68698 7.24855C8.60102 7.15478 8.55273 7.02761 8.55273 6.895V0.5C8.55273 0.367392 8.60102 0.240215 8.68698 0.146447C8.77293 0.0526784 8.88951 0 9.01107 0C9.13263 0 9.2492 0.0526784 9.33516 0.146447C9.42111 0.240215 9.4694 0.367392 9.4694 0.5V6.895C9.4694 7.02761 9.42111 7.15478 9.33516 7.24855C9.2492 7.34232 9.13263 7.395 9.01107 7.395Z" fill="black"/>
<path d="M13.2464 7.395C13.1249 7.395 13.0083 7.34232 12.9223 7.24855C12.8364 7.15478 12.7881 7.02761 12.7881 6.895V0.5C12.7881 0.367392 12.8364 0.240215 12.9223 0.146447C13.0083 0.0526784 13.1249 0 13.2464 0C13.368 0 13.4846 0.0526784 13.5705 0.146447C13.6565 0.240215 13.7048 0.367392 13.7048 0.5V6.895C13.7048 7.02761 13.6565 7.15478 13.5705 7.24855C13.4846 7.34232 13.368 7.395 13.2464 7.395Z" fill="black"/>
<path d="M17.4769 7.395C17.3553 7.395 17.2388 7.34232 17.1528 7.24855C17.0668 7.15478 17.0186 7.02761 17.0186 6.895V0.5C17.0186 0.367392 17.0668 0.240215 17.1528 0.146447C17.2388 0.0526784 17.3553 0 17.4769 0C17.5984 0 17.715 0.0526784 17.801 0.146447C17.8869 0.240215 17.9352 0.367392 17.9352 0.5V6.895C17.9352 7.02761 17.8869 7.15478 17.801 7.24855C17.715 7.34232 17.5984 7.395 17.4769 7.395Z" fill="black"/>
<path d="M21.7122 7.395C21.5907 7.395 21.4741 7.34232 21.3881 7.24855C21.3022 7.15478 21.2539 7.02761 21.2539 6.895V0.5C21.2539 0.367392 21.3022 0.240215 21.3881 0.146447C21.4741 0.0526784 21.5907 0 21.7122 0C21.8338 0 21.9504 0.0526784 22.0363 0.146447C22.1223 0.240215 22.1706 0.367392 22.1706 0.5V6.895C22.1706 7.02761 22.1223 7.15478 22.0363 7.24855C21.9504 7.34232 21.8338 7.395 21.7122 7.395Z" fill="black"/>
<path d="M37.1263 7.395C37.0047 7.395 36.8882 7.34232 36.8022 7.24855C36.7163 7.15478 36.668 7.02761 36.668 6.895V0.5C36.668 0.367392 36.7163 0.240215 36.8022 0.146447C36.8882 0.0526784 37.0047 0 37.1263 0C37.2479 0 37.3644 0.0526784 37.4504 0.146447C37.5363 0.240215 37.5846 0.367392 37.5846 0.5V6.895C37.5846 7.02761 37.5363 7.15478 37.4504 7.24855C37.3644 7.34232 37.2479 7.395 37.1263 7.395Z" fill="black"/>
</g>
<defs>
<clipPath id="clip0_4043_25867">
<rect width="44" height="20" fill="white"/>
</clipPath>
</defs>
</svg>
