<svg width="28" height="32" viewBox="0 0 28 32" fill="none" xmlns="http://www.w3.org/2000/svg">
<path d="M27.1944 0.183594H0.711583C0.354476 0.183594 0.0654297 0.430398 0.0654297 0.735318V31.4465C0.0654297 31.7514 0.354476 31.9982 0.711583 31.9982H27.1944C27.5515 31.9982 27.8406 31.7514 27.8406 31.4465V0.735318C27.8406 0.430398 27.5511 0.183594 27.1944 0.183594ZM18.2051 26.1018V30.8948H14.5992V26.1018H18.2051ZM13.3068 30.8948H9.70045V26.1018H13.3068V30.8948ZM26.5483 30.8948H19.4974V25.55C19.4974 25.2451 19.2084 24.9983 18.8513 24.9983H9.05429C8.69718 24.9983 8.40814 25.2451 8.40814 25.55V30.8948H1.35774V1.28704H26.5483V30.8948Z" fill="#040404"/>
<path d="M3.97428 23.6041H7.12751C7.48462 23.6041 7.77366 23.3573 7.77366 23.0524V20.1084C7.77366 19.8034 7.48462 19.5566 7.12751 19.5566H3.97428C3.61717 19.5566 3.32812 19.8034 3.32812 20.1084V23.0524C3.32812 23.3573 3.61717 23.6041 3.97428 23.6041ZM4.62043 20.6601H6.48136V22.5006H4.62043V20.6601Z" fill="#040404"/>
<path d="M9.16764 23.6041H12.3209C12.678 23.6041 12.967 23.3573 12.967 23.0524V20.1084C12.967 19.8034 12.678 19.5566 12.3209 19.5566H9.16764C8.81053 19.5566 8.52148 19.8034 8.52148 20.1084V23.0524C8.52148 23.3573 8.81053 23.6041 9.16764 23.6041ZM9.81379 20.6601H11.6747V22.5006H9.81379V20.6601Z" fill="#040404"/>
<path d="M3.97428 18.0354H7.12751C7.48462 18.0354 7.77366 17.7886 7.77366 17.4836V14.54C7.77366 14.2351 7.48462 13.9883 7.12751 13.9883H3.97428C3.61717 13.9883 3.32812 14.2351 3.32812 14.54V17.4836C3.32812 17.7886 3.61717 18.0354 3.97428 18.0354ZM4.62043 15.0917H6.48136V16.9319H4.62043V15.0917Z" fill="#040404"/>
<path d="M9.16764 18.0354H12.3209C12.678 18.0354 12.967 17.7886 12.967 17.4836V14.54C12.967 14.2351 12.678 13.9883 12.3209 13.9883H9.16764C8.81053 13.9883 8.52148 14.2351 8.52148 14.54V17.4836C8.52148 17.7886 8.81053 18.0354 9.16764 18.0354ZM9.81379 15.0917H11.6747V16.9319H9.81379V15.0917Z" fill="#040404"/>
<path d="M3.97428 12.467H7.12751C7.48462 12.467 7.77366 12.2202 7.77366 11.9153V8.97165C7.77366 8.66673 7.48462 8.41992 7.12751 8.41992H3.97428C3.61717 8.41992 3.32812 8.66673 3.32812 8.97165V11.9153C3.32812 12.2202 3.61717 12.467 3.97428 12.467ZM4.62043 9.52374H6.48136V11.3639H4.62043V9.52374Z" fill="#040404"/>
<path d="M9.16764 12.467H12.3209C12.678 12.467 12.967 12.2202 12.967 11.9153V8.97165C12.967 8.66673 12.678 8.41992 12.3209 8.41992H9.16764C8.81053 8.41992 8.52148 8.66673 8.52148 8.97165V11.9153C8.52148 12.2202 8.81053 12.467 9.16764 12.467ZM9.81379 9.52374H11.6747V11.3639H9.81379V9.52374Z" fill="#040404"/>
<path d="M3.97428 7.01583H7.12751C7.48462 7.01583 7.77366 6.76903 7.77366 6.46411V3.52047C7.77366 3.21555 7.48462 2.96875 7.12751 2.96875H3.97428C3.61717 2.96875 3.32812 3.21555 3.32812 3.52047V6.46411C3.32812 6.76903 3.61717 7.01583 3.97428 7.01583ZM4.62043 4.0722H6.48136V5.91238H4.62043V4.0722Z" fill="#040404"/>
<path d="M9.16764 7.01583H12.3209C12.678 7.01583 12.967 6.76903 12.967 6.46411V3.52047C12.967 3.21555 12.678 2.96875 12.3209 2.96875H9.16764C8.81053 2.96875 8.52148 3.21555 8.52148 3.52047V6.46411C8.52148 6.76903 8.81053 7.01583 9.16764 7.01583ZM9.81379 4.0722H11.6747V5.91238H9.81379V4.0722Z" fill="#040404"/>
<path d="M15.8102 23.6041H18.9634C19.3206 23.6041 19.6096 23.3573 19.6096 23.0524V20.1084C19.6096 19.8034 19.3206 19.5566 18.9634 19.5566H15.8102C15.4531 19.5566 15.1641 19.8034 15.1641 20.1084V23.0524C15.1641 23.3573 15.4535 23.6041 15.8102 23.6041ZM16.4564 20.6601H18.3173V22.5006H16.4564V20.6601Z" fill="#040404"/>
<path d="M21.0055 23.6041H24.1588C24.5159 23.6041 24.8049 23.3573 24.8049 23.0524V20.1084C24.8049 19.8034 24.5159 19.5566 24.1588 19.5566H21.0055C20.6484 19.5566 20.3594 19.8034 20.3594 20.1084V23.0524C20.3594 23.3573 20.6484 23.6041 21.0055 23.6041ZM21.6517 20.6601H23.5126V22.5006H21.6517V20.6601Z" fill="#040404"/>
<path d="M15.8102 18.0354H18.9634C19.3206 18.0354 19.6096 17.7886 19.6096 17.4836V14.54C19.6096 14.2351 19.3206 13.9883 18.9634 13.9883H15.8102C15.4531 13.9883 15.1641 14.2351 15.1641 14.54V17.4836C15.1641 17.7886 15.4535 18.0354 15.8102 18.0354ZM16.4564 15.0917H18.3173V16.9319H16.4564V15.0917Z" fill="#040404"/>
<path d="M21.0055 18.0354H24.1588C24.5159 18.0354 24.8049 17.7886 24.8049 17.4836V14.54C24.8049 14.2351 24.5159 13.9883 24.1588 13.9883H21.0055C20.6484 13.9883 20.3594 14.2351 20.3594 14.54V17.4836C20.3594 17.7886 20.6484 18.0354 21.0055 18.0354ZM21.6517 15.0917H23.5126V16.9319H21.6517V15.0917Z" fill="#040404"/>
<path d="M15.8102 12.467H18.9634C19.3206 12.467 19.6096 12.2202 19.6096 11.9153V8.97165C19.6096 8.66673 19.3206 8.41992 18.9634 8.41992H15.8102C15.4531 8.41992 15.1641 8.66673 15.1641 8.97165V11.9153C15.1641 12.2202 15.4535 12.467 15.8102 12.467ZM16.4564 9.52374H18.3173V11.3639H16.4564V9.52374Z" fill="#040404"/>
<path d="M21.0055 12.467H24.1588C24.5159 12.467 24.8049 12.2202 24.8049 11.9153V8.97165C24.8049 8.66673 24.5159 8.41992 24.1588 8.41992H21.0055C20.6484 8.41992 20.3594 8.66673 20.3594 8.97165V11.9153C20.3594 12.2202 20.6484 12.467 21.0055 12.467ZM21.6517 9.52374H23.5126V11.3639H21.6517V9.52374Z" fill="#040404"/>
<path d="M15.8102 7.01583H18.9634C19.3206 7.01583 19.6096 6.76903 19.6096 6.46411V3.52047C19.6096 3.21555 19.3206 2.96875 18.9634 2.96875H15.8102C15.4531 2.96875 15.1641 3.21555 15.1641 3.52047V6.46411C15.1641 6.76903 15.4535 7.01583 15.8102 7.01583ZM16.4564 4.0722H18.3173V5.91238H16.4564V4.0722Z" fill="#040404"/>
<path d="M21.0055 7.01583H24.1588C24.5159 7.01583 24.8049 6.76903 24.8049 6.46411V3.52047C24.8049 3.21555 24.5159 2.96875 24.1588 2.96875H21.0055C20.6484 2.96875 20.3594 3.21555 20.3594 3.52047V6.46411C20.3594 6.76903 20.6484 7.01583 21.0055 7.01583ZM21.6517 4.0722H23.5126V5.91238H21.6517V4.0722Z" fill="#040404"/>
</svg>
