<svg width="28" height="28" viewBox="0 0 28 28" fill="none" xmlns="http://www.w3.org/2000/svg">
<g clip-path="url(#clip0_4043_25825)">
<path d="M25.8125 4.51525H24.5V4.06363C24.4996 3.70443 24.3612 3.36005 24.1152 3.10605C23.8691 2.85206 23.5355 2.70919 23.1875 2.7088H21V2.25718C21 1.89786 20.8617 1.55325 20.6156 1.29917C20.3694 1.04509 20.0356 0.902344 19.6875 0.902344C19.3394 0.902344 19.0056 1.04509 18.7594 1.29917C18.5133 1.55325 18.375 1.89786 18.375 2.25718V2.7088H15.3125V2.25718C15.3125 1.89786 15.1742 1.55325 14.9281 1.29917C14.6819 1.04509 14.3481 0.902344 14 0.902344C13.6519 0.902344 13.3181 1.04509 13.0719 1.29917C12.8258 1.55325 12.6875 1.89786 12.6875 2.25718V2.7088H9.625V2.25718C9.625 1.89786 9.48672 1.55325 9.24058 1.29917C8.99444 1.04509 8.6606 0.902344 8.3125 0.902344C7.9644 0.902344 7.63056 1.04509 7.38442 1.29917C7.13828 1.55325 7 1.89786 7 2.25718V2.7088H4.8125C4.46452 2.70919 4.1309 2.85206 3.88484 3.10605C3.63879 3.36005 3.50038 3.70443 3.5 4.06363V4.51525H2.1875C1.83952 4.51564 1.5059 4.65851 1.25984 4.91251C1.01379 5.1665 0.875382 5.51088 0.875 5.87009V26.6443C0.875382 27.0035 1.01379 27.3479 1.25984 27.6019C1.5059 27.8559 1.83952 27.9987 2.1875 27.9991H25.8125C26.1605 27.9987 26.4941 27.8559 26.7402 27.6019C26.9862 27.3479 27.1246 27.0035 27.125 26.6443V5.87009C27.1246 5.51088 26.9862 5.1665 26.7402 4.91251C26.4941 4.65851 26.1605 4.51564 25.8125 4.51525ZM19.25 2.25718C19.25 2.13741 19.2961 2.02254 19.3781 1.93784C19.4602 1.85315 19.5715 1.80557 19.6875 1.80557C19.8035 1.80557 19.9148 1.85315 19.9969 1.93784C20.0789 2.02254 20.125 2.13741 20.125 2.25718V4.06363C20.125 4.18341 20.0789 4.29828 19.9969 4.38297C19.9148 4.46767 19.8035 4.51525 19.6875 4.51525C19.5715 4.51525 19.4602 4.46767 19.3781 4.38297C19.2961 4.29828 19.25 4.18341 19.25 4.06363V2.25718ZM13.5625 2.25718C13.5625 2.13741 13.6086 2.02254 13.6906 1.93784C13.7727 1.85315 13.884 1.80557 14 1.80557C14.116 1.80557 14.2273 1.85315 14.3094 1.93784C14.3914 2.02254 14.4375 2.13741 14.4375 2.25718V4.06363C14.4375 4.18341 14.3914 4.29828 14.3094 4.38297C14.2273 4.46767 14.116 4.51525 14 4.51525C13.884 4.51525 13.7727 4.46767 13.6906 4.38297C13.6086 4.29828 13.5625 4.18341 13.5625 4.06363V2.25718ZM7.875 2.25718C7.875 2.13741 7.92109 2.02254 8.00314 1.93784C8.08519 1.85315 8.19647 1.80557 8.3125 1.80557C8.42853 1.80557 8.53981 1.85315 8.62186 1.93784C8.70391 2.02254 8.75 2.13741 8.75 2.25718V4.06363C8.75 4.18341 8.70391 4.29828 8.62186 4.38297C8.53981 4.46767 8.42853 4.51525 8.3125 4.51525C8.19647 4.51525 8.08519 4.46767 8.00314 4.38297C7.92109 4.29828 7.875 4.18341 7.875 4.06363V2.25718ZM4.375 4.06363C4.37512 3.9439 4.42125 3.8291 4.50327 3.74443C4.58529 3.65976 4.6965 3.61214 4.8125 3.61202H7V4.06363C7 4.42296 7.13828 4.76757 7.38442 5.02165C7.63056 5.27573 7.9644 5.41847 8.3125 5.41847C8.6606 5.41847 8.99444 5.27573 9.24058 5.02165C9.48672 4.76757 9.625 4.42296 9.625 4.06363V3.61202H12.6875V4.06363C12.6875 4.42296 12.8258 4.76757 13.0719 5.02165C13.3181 5.27573 13.6519 5.41847 14 5.41847C14.3481 5.41847 14.6819 5.27573 14.9281 5.02165C15.1742 4.76757 15.3125 4.42296 15.3125 4.06363V3.61202H18.375V4.06363C18.375 4.42296 18.5133 4.76757 18.7594 5.02165C19.0056 5.27573 19.3394 5.41847 19.6875 5.41847C20.0356 5.41847 20.3694 5.27573 20.6156 5.02165C20.8617 4.76757 21 4.42296 21 4.06363V3.61202H23.1875C23.3035 3.61214 23.4147 3.65976 23.4967 3.74443C23.5788 3.8291 23.6249 3.9439 23.625 4.06363V5.87009C23.6249 5.98982 23.5788 6.10462 23.4967 6.18929C23.4147 6.27396 23.3035 6.32158 23.1875 6.3217H4.8125C4.6965 6.32158 4.58529 6.27396 4.50327 6.18929C4.42125 6.10462 4.37512 5.98982 4.375 5.87009V4.06363ZM26.25 26.6443C26.2499 26.764 26.2038 26.8788 26.1217 26.9635C26.0397 27.0482 25.9285 27.0958 25.8125 27.0959H2.1875C2.0715 27.0958 1.96029 27.0482 1.87827 26.9635C1.79625 26.8788 1.75012 26.764 1.75 26.6443V5.87009C1.75012 5.75035 1.79625 5.63555 1.87827 5.55088C1.96029 5.46621 2.0715 5.41859 2.1875 5.41847H3.5V5.87009C3.50038 6.22929 3.63879 6.57367 3.88484 6.82767C4.1309 7.08166 4.46452 7.22453 4.8125 7.22492H23.1875C23.5355 7.22453 23.8691 7.08166 24.1152 6.82767C24.3612 6.57367 24.4996 6.22929 24.5 5.87009V5.41847H25.8125C25.9285 5.41859 26.0397 5.46621 26.1217 5.55088C26.2038 5.63555 26.2499 5.75035 26.25 5.87009V26.6443ZM23.1362 14.8492L18.2682 19.8701H13.125V13.5475H18.375C18.491 13.5475 18.6023 13.4999 18.6844 13.4152C18.7664 13.3305 18.8125 13.2157 18.8125 13.0959C18.8125 10.3567 16.065 8.12815 12.6875 8.12815C9.31 8.12815 6.5625 10.3567 6.5625 13.0959C6.5625 13.2157 6.60859 13.3305 6.69064 13.4152C6.77269 13.4999 6.88397 13.5475 7 13.5475H12.25V19.8701H4.375C4.03527 19.8693 3.70854 20.0048 3.4638 20.248C3.21905 20.4912 3.07547 20.8231 3.06338 21.1735C3.05128 21.524 3.17162 21.8656 3.39897 22.1262C3.62632 22.3868 3.94289 22.5459 4.28181 22.5701L3.01306 23.8797C2.88929 24.0047 2.79074 24.1538 2.72311 24.3183C2.65548 24.4828 2.62012 24.6596 2.61907 24.8383C2.61802 25.017 2.6513 25.1942 2.71698 25.3595C2.78267 25.5249 2.87945 25.6752 3.00175 25.8017C3.12404 25.9282 3.26942 26.0285 3.42947 26.0966C3.58953 26.1648 3.76108 26.1995 3.93422 26.1988C4.10737 26.1982 4.27865 26.162 4.43819 26.0926C4.59773 26.0231 4.74235 25.9217 4.86369 25.7943L7.98188 22.5798H12.25V25.7411C12.25 25.8608 12.2961 25.9757 12.3781 26.0604C12.4602 26.1451 12.5715 26.1927 12.6875 26.1927C12.8035 26.1927 12.9148 26.1451 12.9969 26.0604C13.0789 25.9757 13.125 25.8608 13.125 25.7411V22.5798H15.2667L18.3831 25.7918C18.5044 25.9189 18.6487 26.0199 18.808 26.0892C18.9672 26.1585 19.1381 26.1946 19.3109 26.1955C19.4837 26.1964 19.655 26.162 19.8149 26.0943C19.9748 26.0266 20.1201 25.927 20.2426 25.8012C20.365 25.6753 20.4622 25.5257 20.5284 25.361C20.5947 25.1962 20.6288 25.0196 20.6287 24.8412C20.6286 24.6628 20.5943 24.4862 20.5279 24.3216C20.4615 24.1569 20.3642 24.0074 20.2416 23.8817L18.9804 22.5798H19.1756C19.2331 22.5798 19.29 22.5681 19.343 22.5454C19.3961 22.5227 19.4443 22.4894 19.4849 22.4474L24.9892 16.7616C25.1113 16.6367 25.2083 16.488 25.2746 16.3241C25.3409 16.1603 25.375 15.9845 25.3752 15.807C25.3754 15.6294 25.3415 15.4536 25.2755 15.2896C25.2096 15.1256 25.1128 14.9767 24.9909 14.8515C24.7424 14.603 24.41 14.4638 24.064 14.4634C23.718 14.4629 23.3853 14.6013 23.1362 14.8492ZM12.6875 9.06091C13.6649 9.99986 14.2787 11.2732 14.4149 12.6443H10.9601C11.0963 11.2732 11.7101 9.99986 12.6875 9.06091ZM17.9031 12.6443H15.2932C15.1724 11.3809 14.7179 10.176 13.9792 9.16099C16.0673 9.57232 17.6599 10.951 17.9031 12.6443ZM11.3958 9.16099C10.6571 10.176 10.2026 11.3809 10.0818 12.6443H7.47189C7.71505 10.951 9.30772 9.57232 11.3958 9.16099ZM4.24296 25.1573C4.20242 25.1989 4.15432 25.2318 4.10143 25.2541C4.04853 25.2764 3.99189 25.2877 3.93475 25.2873C3.87762 25.287 3.82111 25.2749 3.76849 25.2519C3.71587 25.229 3.66818 25.1955 3.62814 25.1534C3.58701 25.1122 3.55434 25.063 3.53208 25.0085C3.50982 24.9541 3.49843 24.8955 3.49859 24.8364C3.49875 24.7773 3.51045 24.7189 3.53301 24.6645C3.55556 24.6102 3.5885 24.5611 3.62985 24.5203L5.50979 22.5798H6.74354L4.24296 25.1573ZM19.623 24.5203C19.7044 24.6046 19.7502 24.7188 19.7502 24.8378C19.7502 24.9569 19.7044 25.0711 19.623 25.1554L19.6208 25.1576C19.5382 25.2408 19.4273 25.2871 19.3119 25.2867C19.1965 25.2862 19.0859 25.239 19.004 25.1552L16.5054 22.5798H17.7431L19.623 24.5203ZM24.3701 16.1233L18.9945 21.6765H4.375C4.25897 21.6765 4.14769 21.629 4.06564 21.5443C3.98359 21.4596 3.9375 21.3447 3.9375 21.2249C3.9375 21.1051 3.98359 20.9903 4.06564 20.9056C4.14769 20.8209 4.25897 20.7733 4.375 20.7733H18.4494C18.5653 20.7732 18.6766 20.7257 18.7587 20.6412L23.757 15.4861C23.8387 15.4029 23.9489 15.3564 24.0636 15.3567C24.1784 15.357 24.2883 15.4042 24.3695 15.4878C24.4107 15.5291 24.4435 15.5784 24.4659 15.633C24.4883 15.6875 24.4999 15.7462 24.4999 15.8054C24.5 15.8647 24.4885 15.9234 24.4662 15.978C24.4439 16.0326 24.4112 16.082 24.3701 16.1233Z" fill="black"/>
</g>
<defs>
<clipPath id="clip0_4043_25825">
<rect width="28" height="28" fill="white"/>
</clipPath>
</defs>
</svg>
