<svg width="17" height="18" viewBox="0 0 17 18" fill="none" xmlns="http://www.w3.org/2000/svg">
<path d="M0.292893 15.3632C-0.0976311 15.7537 -0.0976311 16.3869 0.292893 16.7774C0.683418 17.1679 1.31658 17.1679 1.70711 16.7774L0.292893 15.3632ZM16.1421 1.92818C16.1421 1.37589 15.6944 0.928177 15.1421 0.928177L6.14214 0.928177C5.58985 0.928177 5.14214 1.37589 5.14214 1.92818C5.14214 2.48046 5.58985 2.92818 6.14214 2.92818L14.1421 2.92818L14.1421 10.9282C14.1421 11.4805 14.5899 11.9282 15.1421 11.9282C15.6944 11.9282 16.1421 11.4805 16.1421 10.9282L16.1421 1.92818ZM1.70711 16.7774L15.8492 2.63528L14.435 1.22107L0.292893 15.3632L1.70711 16.7774Z" fill="#000637"/>
</svg>
