<svg width="28" height="28" viewBox="0 0 28 28" fill="none" xmlns="http://www.w3.org/2000/svg">
<g clip-path="url(#clip0_4043_25857)">
<path d="M25.9351 3.03288C25.6271 2.73385 25.2071 2.62512 24.7871 2.67948L22.9671 3.0057C21.5111 3.27754 20.1671 3.95715 19.1031 4.96298L16.1911 7.81735L8.49108 4.99016C7.45508 4.60958 6.30708 4.85424 5.52308 5.61541L4.29108 6.81152C4.06708 7.029 3.95508 7.32803 4.01108 7.62706C4.06708 7.92609 4.23508 8.17075 4.51508 8.33385L11.9911 12.3843L8.71508 16.0271C8.49108 16.2717 8.29508 16.5164 8.09908 16.7882L5.57908 15.9183C4.82308 15.6737 3.98308 15.8368 3.39508 16.4076L2.41508 17.3591C2.19108 17.5766 2.10708 17.8484 2.13508 18.1474C2.16308 18.4465 2.33108 18.6911 2.58308 18.8542L5.88708 20.8387L5.80308 21.2737C5.71908 21.6542 5.85908 22.0076 6.11108 22.2795C6.39108 22.5513 6.78308 22.6601 7.14708 22.5785L7.59508 22.497L9.63908 25.7047C9.80708 25.9494 10.0591 26.1125 10.3671 26.1397C10.3951 26.1397 10.4511 26.1397 10.4791 26.1397C10.7311 26.1397 10.9831 26.0309 11.1791 25.8678L12.1311 24.9436C12.6911 24.3999 12.8871 23.5572 12.6351 22.8232L11.7391 20.3766C12.0191 20.1863 12.2711 19.9688 12.5231 19.7785L16.2751 16.5979L20.4471 23.8562C20.5871 24.128 20.8671 24.2911 21.1751 24.3455C21.4831 24.3999 21.7911 24.2911 22.0151 24.0737L23.2471 22.8775C24.0311 22.1164 24.2831 21.0018 23.8911 19.996L21.0071 12.4931L23.9191 9.66589C24.9831 8.63288 25.6831 7.35521 25.9351 5.91444L26.2711 4.14745C26.3551 3.73968 26.2151 3.33191 25.9351 3.03288ZM24.6751 5.69696C24.4511 6.86589 23.8911 7.92609 23.0231 8.76881L19.8031 11.895C19.6351 12.0581 19.5511 12.33 19.6631 12.5746L22.7151 20.4309C22.9111 20.9474 22.7991 21.5727 22.3791 21.9533L21.4271 22.8775L17.0591 15.2659C16.9751 15.1028 16.8071 14.994 16.6111 14.9397C16.4151 14.9125 16.2191 14.9669 16.0791 15.0756L11.6831 18.7999C11.3471 19.0717 11.0111 19.3436 10.6191 19.5882C10.3671 19.7513 10.2831 20.0504 10.3671 20.3222L11.4311 23.2309C11.5431 23.5028 11.4591 23.829 11.2351 24.0193L10.5631 24.6717L8.51908 21.4368C8.40708 21.2465 8.18308 21.1377 7.95908 21.1377C7.93108 21.1377 7.87508 21.1377 7.84708 21.1377L7.14708 21.2737L7.28708 20.594C7.34308 20.3494 7.23108 20.0775 6.97908 19.9416L3.64708 17.93L4.31908 17.2775C4.54308 17.0601 4.85108 17.0057 5.13108 17.0873L8.12708 18.1203C8.40708 18.229 8.71508 18.1203 8.88308 17.8756C9.13508 17.495 9.41508 17.1688 9.69508 16.8426L13.5031 12.6018C13.6431 12.4659 13.6991 12.2756 13.6431 12.0853C13.6151 11.895 13.5031 11.7319 13.3071 11.6504L5.49508 7.40958L6.44708 6.48531C6.86708 6.07754 7.48308 5.94162 8.01508 6.1591L16.1071 9.1222C16.3311 9.20376 16.6111 9.14939 16.8071 8.98628L20.0271 5.88725C20.8951 5.04453 21.9871 4.47366 23.1911 4.28337L25.0111 3.95715L24.6751 5.69696Z" fill="black"/>
</g>
<defs>
<clipPath id="clip0_4043_25857">
<rect width="28" height="28" fill="white"/>
</clipPath>
</defs>
</svg>
