<svg width="14" height="15" viewBox="0 0 14 15" fill="none" xmlns="http://www.w3.org/2000/svg">
<g clip-path="url(#clip0_3246_11614)">
<path d="M8.77868 3.54732C9.34844 3.65849 9.87207 3.93714 10.2826 4.34762C10.693 4.7581 10.9717 5.28173 11.0828 5.85149M8.77868 1.21399C9.96242 1.34549 11.0663 1.87559 11.909 2.71724C12.7517 3.5589 13.2832 4.66208 13.4162 5.84566M12.8328 10.5007V12.2507C12.8335 12.4131 12.8002 12.5739 12.7351 12.7228C12.6701 12.8716 12.5746 13.0052 12.4549 13.1151C12.3352 13.2249 12.1938 13.3085 12.04 13.3606C11.8861 13.4126 11.723 13.4319 11.5612 13.4173C9.76617 13.2223 8.04193 12.6089 6.52701 11.6265C5.11758 10.7309 3.92263 9.53592 3.02701 8.12649C2.04117 6.60469 1.42766 4.87207 1.23618 3.06899C1.2216 2.90768 1.24077 2.7451 1.29247 2.5916C1.34417 2.43811 1.42726 2.29706 1.53646 2.17743C1.64566 2.05781 1.77857 1.96224 1.92672 1.89679C2.07488 1.83135 2.23505 1.79748 2.39701 1.79732H4.14701C4.43011 1.79454 4.70456 1.89479 4.91921 2.07938C5.13386 2.26398 5.27406 2.52033 5.31368 2.80066C5.38754 3.36069 5.52453 3.91058 5.72201 4.43982C5.8005 4.64861 5.81748 4.87552 5.77096 5.09367C5.72443 5.31182 5.61635 5.51205 5.45951 5.67066L4.71868 6.41149C5.54909 7.87189 6.75828 9.08108 8.21868 9.91149L8.95951 9.17066C9.11812 9.01382 9.31835 8.90573 9.5365 8.85921C9.75465 8.81269 9.98156 8.82967 10.1903 8.90816C10.7196 9.10564 11.2695 9.24263 11.8295 9.31649C12.1129 9.35646 12.3717 9.49919 12.5567 9.71753C12.7417 9.93586 12.8399 10.2146 12.8328 10.5007Z" stroke="#353863" stroke-width="0.96166" stroke-linecap="round" stroke-linejoin="round"/>
</g>
<defs>
<clipPath id="clip0_3246_11614">
<rect width="14" height="14" fill="white" transform="translate(0 0.630615)"/>
</clipPath>
</defs>
</svg>
