<svg width="445" height="240" viewBox="0 0 445 240" fill="none" xmlns="http://www.w3.org/2000/svg">
<path d="M445.041 78.3102C423.433 78.3102 397.684 78.3102 376.077 78.3102C367.993 90.3729 358.36 104.748 350.276 116.81C340.15 119.456 328.082 122.609 317.956 125.255C313.564 131.713 308.33 139.41 303.938 145.868C297.221 148.405 289.254 151.413 282.541 153.948C274.143 159.937 262.712 168.108 254.319 174.095L244.912 180.81L238.088 181.659C231.998 182.417 223.699 183.447 217.613 184.205C204.25 192.002 188.33 201.294 174.968 209.091C162.025 210.781 144.309 213.103 131.366 214.793C108.917 217.191 84.745 225.058 62.7573 229.935C53.4986 228.244 42.4212 226.239 33.1586 224.548C22.9557 229.496 10.7965 235.393 0.59375 240.34C0.59375 249.936 0.59375 261.37 0.59375 270.965C139.847 270.965 305.794 270.965 445.041 270.965C445.041 210.602 445.041 138.67 445.041 78.3102Z" fill="#254768"/>
<mask id="mask0_842_20160" style="mask-type:luminance" maskUnits="userSpaceOnUse" x="0" y="78" width="446" height="193">
<path d="M445.041 78.3109C423.433 78.3109 397.684 78.3109 376.077 78.3109C367.993 90.3736 358.36 104.748 350.276 116.81C340.15 119.456 328.082 122.609 317.956 125.255C313.564 131.714 308.33 139.41 303.938 145.869C297.221 148.405 289.254 151.414 282.541 153.949C274.143 159.937 262.712 168.109 254.319 174.095L244.912 180.811L238.088 181.659C231.998 182.418 223.699 183.448 217.613 184.205C204.25 192.002 188.33 201.295 174.968 209.092C162.025 210.782 144.309 213.103 131.366 214.794C108.917 217.192 84.745 225.059 62.7573 229.935C53.4986 228.244 42.4212 226.239 33.1586 224.549C22.9557 229.497 10.7965 235.393 0.59375 240.341C0.59375 249.936 0.59375 261.371 0.59375 270.965C139.847 270.965 305.794 270.965 445.041 270.965C445.041 210.603 445.041 138.67 445.041 78.3109Z" fill="white"/>
</mask>
<g mask="url(#mask0_842_20160)">
<path d="M383.141 75.8398C379.155 90.5583 374.406 108.098 370.42 122.816C355.251 124.744 337.175 127.041 322.007 128.969C319.46 134.845 316.426 141.848 313.879 147.724C316.536 149.656 319.703 151.958 322.36 153.89C319.481 154.799 316.052 155.883 313.172 156.792C305.202 156.272 295.7 155.652 287.729 155.131C276.879 166.358 263.948 179.736 253.098 190.962C242.358 190.564 229.559 190.089 218.82 189.69C213.063 198.417 206.202 208.818 200.444 217.545C209.191 219.495 219.615 221.82 228.361 223.771C234.119 231.453 240.98 240.607 246.737 248.289C245.076 248.289 243.097 248.289 241.437 248.289C234.904 242.863 227.119 236.398 220.587 230.973C203.532 231.859 183.214 232.915 166.16 233.8C154.344 229.814 140.255 225.064 128.438 221.078C108.906 228.275 85.6304 236.852 66.0996 244.048C56.486 240.726 45.0296 236.768 35.4165 233.447C23.1267 242.083 8.48091 252.374 -3.80859 261.01C-3.36575 251.156 -2.83792 239.413 -2.39507 229.56C10.6795 225.904 26.2323 221.553 39.3037 217.898C47.0404 219.737 56.243 221.932 63.9776 223.771L80.8671 219.375C95.9135 215.458 116.49 210.103 131.536 206.186C146.638 203.897 164.653 201.167 179.756 198.878C190.657 191.166 203.677 181.968 214.579 174.255C224.212 173.646 235.691 172.921 245.323 172.312C255.401 165.114 267.405 156.539 277.481 149.342C284.455 146.464 292.77 143.032 299.744 140.155C305.058 131.35 311.392 120.858 316.706 112.055C326.007 111.105 337.09 109.974 346.39 109.025C353.587 97.2845 362.163 83.2937 369.359 71.5539C373.678 72.897 378.824 74.4972 383.141 75.8398Z" fill="#2F5481"/>
</g>
<path d="M414.947 34.3464C419.484 48.1209 424.89 64.536 429.426 78.3097C428.654 78.3097 427.732 78.3097 426.96 78.3097C422.852 65.8192 417.958 50.9343 413.852 38.4444C414.195 37.1603 414.604 35.6302 414.947 34.3464Z" fill="#254768"/>
<path d="M406.928 34.3464C402.392 48.1209 396.985 64.536 392.449 78.3097C393.222 78.3097 394.143 78.3097 394.916 78.3097C399.023 65.8192 403.917 50.9343 408.024 38.4444C407.681 37.1603 407.272 35.6302 406.928 34.3464Z" fill="#254768"/>
<path d="M412.597 1.27246C394.657 1.22464 388.508 27.9071 391.312 42.3229C395.727 67.7465 417.739 69.6718 426.479 45.3798C431.731 31.6698 430.275 4.31924 412.597 1.27246Z" fill="#254768"/>
<path d="M403.453 62.2556C385.774 59.207 384.321 31.8635 389.571 18.1481C398.306 -6.13226 420.321 -4.23055 424.738 21.205C427.545 35.6154 421.392 62.3046 403.453 62.2556Z" fill="white"/>
<path d="M402.374 54.389C389.144 52.1076 388.057 31.6447 391.985 21.3805C398.522 3.21003 414.997 4.63315 418.303 23.6681C420.404 34.4524 415.799 54.4258 402.374 54.389Z" fill="#E84B4B"/>
<path d="M401.618 46.5506C392.772 44.928 392.14 31.5521 394.722 24.6411C399.007 12.5975 410.047 13.5509 412.191 26.1595C413.544 33.4101 410.61 46.4796 401.618 46.5506Z" fill="white"/>
<path d="M406.808 31.6581C405.78 41.5618 396.755 40.7738 397.452 30.8445C398.481 20.941 407.505 21.7291 406.808 31.6581Z" fill="#E84B4B"/>
<path d="M99.6172 116.324C103.596 118.621 111.053 123.464 115.286 125.265C119.413 124.334 127.076 122.316 131.467 121.21C133.197 120.766 134.351 120.469 134.373 120.462C134.724 121.531 135.54 123.815 134.903 124.897C129.7 127.268 119.995 131.498 114.48 133.048C111.302 132.355 105.747 130.301 102.676 129.286C101.718 125.224 100.576 120.385 99.6172 116.324Z" fill="#254768"/>
<path d="M173.995 105.41C168.102 104.315 161.079 103.009 155.187 101.914C155.734 103.462 156.386 105.307 156.934 106.855C117.589 119.02 70.7022 133.518 31.3594 145.682C32.2623 148.237 33.3386 151.281 34.2415 153.835C73.5863 141.67 120.473 127.173 159.816 115.008C160.363 116.557 161.015 118.402 161.563 119.95C165.458 115.394 170.099 109.966 173.995 105.41Z" fill="#F7D131"/>
<path d="M141.925 193.107C141.395 198.095 140.867 203.083 140.335 208.071C140.165 209.753 139.958 211.43 139.81 213.115C139.806 213.257 139.795 213.486 139.595 213.444C137.334 213.097 135 212.406 132.76 211.843C132.039 211.448 132.332 210.034 132.076 209.298C131.077 202.61 130.125 195.879 129.121 189.21C132.339 190.189 138.708 192.128 141.925 193.107Z" fill="#DB7777"/>
<path d="M105.299 212.621C99.8425 216.435 94.3701 220.227 88.9226 224.054C88.3543 224.612 88.1768 223.551 87.9052 223.197C87.0026 221.569 86.3054 219.829 85.2474 218.291C85.0218 217.967 84.9407 217.61 85.2751 217.347C86.4378 216.019 87.577 214.671 88.7304 213.336C92.4115 209.012 96.1891 204.712 99.8478 200.397C101.217 203.469 103.929 209.549 105.299 212.621Z" fill="#DB7777"/>
<path d="M103.759 204.874C100.408 210.193 97.1247 215.549 93.7401 220.848C93.5184 221.21 92.9115 221.796 93.4107 222.147C95.0196 223.2 96.7629 224.016 98.5115 224.808C99.2168 225.145 99.791 225.595 100.389 224.813C101.776 223.435 103.198 222.097 104.615 220.752C108.492 217.077 112.371 213.37 116.24 209.706C113.101 208.491 106.898 206.089 103.759 204.874Z" fill="#F48784"/>
<path d="M154.84 193.633C153.527 199.929 152.158 206.213 150.873 212.513C150.833 213.415 150.609 213.515 149.432 213.344C147.728 213.01 144.641 212.473 143.501 211.18C143.249 205.47 142.751 194.162 142.5 188.452C146.366 190.075 150.974 192.01 154.84 193.633Z" fill="#F48784"/>
<path d="M160.353 163.87C154.981 167.54 152.205 161.238 148.18 158.154C143.723 154.3 138.161 150.902 132.104 149.442C117.586 146.566 100.033 153.196 87.9109 161.788C71.3353 172.766 70.6594 198.02 86.0108 209.767C95.3975 216.061 107.328 213.827 118.049 210.974C129.069 207.606 140.15 204.593 149.562 198.4C157.733 192.873 169.752 183.093 170.78 173.861C170.618 172.348 170.189 170.854 169.596 169.473C168.043 165.971 164.251 160.218 160.353 163.87Z" fill="#F48784"/>
<path d="M162.679 162.642C160.177 164.658 167.533 174.514 170.335 174.005C171.605 173.071 170.166 169.985 169.447 168.343C168.115 165.708 165.819 162.854 162.679 162.642Z" fill="#DB7777"/>
<path d="M123.895 148.629C126.828 147.297 131.946 145.07 135.302 143.879C137.63 143.288 139.892 141.562 140.115 144.531C140.125 147.59 138.835 153.261 136.206 155.011C132.559 155.085 126.809 150.472 123.895 148.629Z" fill="#F48784"/>
<path d="M142.854 164.202C146.173 168.371 149.405 165.822 146.128 161.622C142.809 157.454 139.577 160.003 142.854 164.202Z" fill="#254768"/>
<path d="M163.833 186.338C159.66 186.638 154.213 186.297 150.008 184.676C152.915 186.599 157.675 189.511 161.496 188.803C162.228 188.03 163.101 187.11 163.833 186.338Z" fill="#254768"/>
<path d="M166.06 168.369C170.17 173.8 168.716 169.013 166.387 166.481C163.398 163.077 164.776 166.779 166.06 168.369Z" fill="#254768"/>
<path d="M75.2539 190.509C73.2427 189.627 66.6795 185.701 64.5826 186.654C64.453 188.327 67.1822 190.087 68.7499 191.421C70.8431 192.906 73.8657 194.967 76.2207 194.742C79.2106 194.232 76.2468 191.338 75.2539 190.509Z" fill="#F48784"/>
<path d="M132.148 153.802C134.011 151.508 137.583 146.702 139.616 144.586C139.72 147.458 138.512 151.482 136.644 153.677C135.462 154.705 133.399 154.251 132.148 153.802Z" fill="#DB7777"/>
<path d="M96.7364 158.275C89.685 161.938 82.6732 168.748 79.0664 176.66C85.9783 172.825 92.9572 166.036 96.7364 158.275Z" fill="#F4A2A2"/>
<path d="M98.3906 115.81C107.074 117.147 106.403 132.23 106.896 139.359C106.973 143.069 107.037 147.974 106.771 150.426C106.059 150.765 104.692 151.262 103.961 151.547C103.68 144.266 103.697 131.112 102.482 123.866C101.637 121.267 99.7558 118.031 98.3906 115.81Z" fill="#254768"/>
<path d="M117.856 189.494C117.761 190.125 117.433 191.35 117.521 191.987C118.23 192.507 119.833 193.664 120.813 194.452C126.834 199.122 121.236 196.863 117.573 196.221C115.83 195.735 112.986 195.227 111.98 194.477C112.379 192.95 113.415 190.249 113.935 188.767C115.163 188.995 116.628 189.266 117.856 189.494Z" fill="#254768"/>
<path d="M104.587 146.206C104.39 147.895 104.025 151.037 103.821 152.729C107.674 154.505 117.872 156.113 120.043 160.384C120.602 164.178 120.139 171.632 119.926 176.664C119.577 181.33 119.448 188.301 118.373 191.414C117.105 191.977 112.153 192.203 112.505 189.893C112.48 184.64 112.109 174.626 111.703 168.981C111.529 166.667 111.335 165.109 111.131 165.058C110.323 164.857 108.624 164.428 106.512 163.863C101.997 162.437 92.4877 160.494 89.2975 157.583C87.5313 154.154 88.8017 149.647 90.569 146.762C94.9612 146.588 100.195 146.38 104.587 146.206Z" fill="#2F5481"/>
<path d="M90.5675 146.763C89.6397 140.283 85.7303 118.737 94.4474 115.823C108.28 113.265 105.355 138.81 104.586 146.206C100.194 146.38 94.9594 146.588 90.5675 146.763Z" fill="white"/>
<path d="M95.3322 118.566C93.6566 114.724 91.9011 110.61 91.6472 106.458C91.3507 102.14 94.7004 98.1428 98.5276 101.948C101.796 105.132 103.839 112.931 97.9733 114.573C98.3196 115.562 98.7322 116.741 99.0785 117.73C97.9048 117.992 96.5059 118.304 95.3322 118.566Z" fill="white"/>
<mask id="mask1_842_20160" style="mask-type:luminance" maskUnits="userSpaceOnUse" x="91" y="100" width="11" height="19">
<path d="M95.3322 118.565C93.6566 114.723 91.9011 110.609 91.6472 106.457C91.3507 102.139 94.7004 98.1419 98.5276 101.947C101.796 105.131 103.839 112.93 97.9733 114.572C98.3196 115.561 98.7322 116.74 99.0785 117.729C97.9048 117.991 96.5059 118.303 95.3322 118.565Z" fill="white"/>
</mask>
<g mask="url(#mask1_842_20160)">
<path d="M97.9723 114.573C97.1717 114.759 96.3747 114.51 95.7266 114.037C96.2695 115.276 98.05 115.284 99.0613 114.982C99.173 114.966 98.3159 115.108 98.2572 115.12C98.1959 114.944 98.0935 114.733 97.9723 114.573Z" fill="#254768"/>
</g>
<path d="M96.2031 103.554C96.1128 106.483 96.58 111.829 93.0138 112.968C92.0614 111.642 90.5581 109.481 89.5764 107.935C88.2474 106.115 87.2806 103.914 89.9133 102.816C90.2698 98.4717 97.4247 96.267 96.3269 98.181C97.3642 97.8365 99.4686 97.1367 100.252 98.3728C100.777 99.2123 100.312 100.119 99.5539 100.451C101.359 100.771 100.947 102.615 99.3863 102.935C97.3491 100.968 97.0764 100.504 96.2031 103.554Z" fill="#254768"/>
<path d="M94.3033 108.753C95.0937 110.352 97.0962 109.307 96.2383 107.745C95.4479 106.146 93.4454 107.191 94.3033 108.753Z" fill="white"/>
<path d="M98.5558 105.929C98.9339 106.873 100.095 106.375 99.6733 105.451C99.2951 104.508 98.1341 105.005 98.5558 105.929Z" fill="#2F5481"/>
<path d="M101.284 111.071C100.953 110.943 100.589 110.616 100.17 110.584C99.9175 110.477 99.5388 110.801 99.3893 110.5C99.2869 109.593 102.264 110.637 101.284 111.071Z" fill="#2F5481"/>
<path d="M97.8211 104.667C96.805 104.228 99.9332 102.938 99.6114 103.94C99.502 104.073 99.43 104.018 99.2501 104.011C98.6905 103.938 98.2704 104.389 97.8211 104.667Z" fill="#2F5481"/>
<path d="M100.535 104.852C101.108 105.628 102.731 107.115 102.911 108.054C102.493 108.161 101.817 108.119 101.4 108.103C101.129 107.085 100.806 105.871 100.535 104.852Z" fill="white"/>
<path d="M99.1859 146.42C99.233 147.886 99.4012 150.613 97.9228 151.577C95.4353 152.508 90.972 152.534 88.3945 152.698C88.4086 153.054 88.4255 153.479 88.4397 153.836C91.2146 153.593 96.2397 153.595 98.8172 152.299C100.146 150.983 100.135 148.053 100.202 146.38C99.8835 146.393 99.5041 146.408 99.1859 146.42Z" fill="#254768"/>
<path d="M95.3412 115.612C99.8129 115.629 99.1592 117.319 99.4098 122.701C99.4232 130.431 100.071 143.7 98.5352 150.774C96.2998 152.484 89.4939 152.907 86.8057 152.558C86.4204 148.081 87.715 140.448 87.858 135.91C87.9164 129.691 86.7964 117.214 95.3412 115.612Z" fill="#2F5481"/>
<path d="M154.577 195.191C141.228 186.121 128.771 174.157 122.337 159.153C121.362 156.761 117.993 147.145 120.282 145.549C121.272 144.789 125.832 149.564 123.612 148.805C122.906 147.794 121.746 146.34 120.473 146.184C119.619 148.398 120.908 152.355 121.46 154.663C124.302 164.153 130.156 172.361 136.973 179.525C141.098 183.856 145.603 187.817 150.379 191.455C151.283 192.143 152.247 192.859 153.21 193.532C153.651 194.021 155.668 194.689 154.577 195.191Z" fill="#254768"/>
<path d="M99.3039 144.21C97.7711 143.821 94.9713 143.344 93.6045 142.465C92.0653 140.387 91.5553 136.071 91.0781 133.652C91.1907 136.377 90.9875 141.234 92.1974 143.8C93.7158 145.358 97.2743 145.426 99.2328 145.615C99.2551 145.175 99.2817 144.65 99.3039 144.21Z" fill="#254768"/>
<path d="M117.384 144.855C119.594 143.416 120.063 144.346 121.162 146.351C120.945 146.939 120.458 147.998 120.209 148.571C118.798 148.756 117.328 148.07 116.301 147.145C116.653 146.527 117.205 145.572 117.384 144.855Z" fill="white"/>
<path d="M98.9928 117.004C99.1606 121.923 98.9395 131.492 99.7485 136.352C103.46 138.236 110.783 140.925 114.848 142.763C116.47 143.471 117.544 143.989 117.541 144.128C117.344 145.124 116.868 146.863 116.041 147.521C110.151 146.604 99.1789 144.674 93.6057 142.465C92.0256 139.606 90.9001 124.63 91.7558 121.438C93.4898 119.917 97.0228 118.125 98.9928 117.004Z" fill="#2F5481"/>
<path d="M98.3909 115.81C96.4959 120.535 87.2324 118.735 83.1049 118.854C80.1799 118.932 76.6309 118.895 74.3952 121.024C73.58 122.085 73.2997 123.536 72.7578 124.738C76.627 126.368 80.1996 123.724 84.0377 123.43C89.5496 122.843 98.0319 123.041 99.6163 116.324C99.3745 115.942 98.8273 115.726 98.3909 115.81Z" fill="#F7D131"/>
<path d="M138.035 121.348C137.901 120.958 137.344 120.846 137.065 121.15C136.621 120.983 136.291 121.354 136.19 121.754C136.201 121.35 135.771 121.078 135.402 121.219C134.657 121.8 134.602 123.204 134.739 124.085C135.027 124.623 135.876 124.381 135.845 123.774C136.257 124.246 136.898 123.823 136.922 123.278C138.039 124.752 138.414 122.143 138.035 121.348Z" fill="white"/>
<mask id="mask2_842_20160" style="mask-type:luminance" maskUnits="userSpaceOnUse" x="148" y="185" width="18" height="14">
<path d="M152.902 185.709C155.245 186.748 160.478 187.916 163.004 186.449C164.767 187.694 166.403 190.102 165.912 192.538C164.599 196.156 160.77 199.055 156.411 198.285C153.437 197.863 151.204 196.803 149.905 194.49C148.226 191.282 148.664 186.121 152.902 185.709Z" fill="white"/>
</mask>
<g mask="url(#mask2_842_20160)">
<path d="M149.642 190.904C149.203 198.961 163.948 199.899 164.599 191.413C160.937 197.673 152.278 198.639 149.642 190.904Z" fill="#E5C028"/>
<path d="M164.664 190.687C164.242 198.516 150.327 198.536 149.641 190.854C149.867 182.962 164.294 182.673 164.664 190.687Z" fill="#F7D131"/>
<path d="M159.349 191.087C158.9 190.637 158.288 190.445 157.687 190.284C157.687 189.658 157.687 188.913 157.687 188.287C158.303 188.402 158.54 188.921 158.684 189.451C160.651 190.214 159.418 187.48 157.687 187.467C157.708 187.187 157.697 186.853 157.367 186.768C156.854 186.628 156.56 186.95 156.637 187.455C153.932 187.76 153.895 190.567 156.637 190.882C156.637 191.478 156.637 192.189 156.637 192.785C156.014 192.636 155.693 192.109 155.65 191.508C153.698 190.476 154.642 193.606 156.637 193.623C156.643 193.835 156.588 194.092 156.791 194.234C157.286 194.548 157.793 194.245 157.687 193.644C158.979 193.67 160.478 192.261 159.349 191.087ZM156.418 189.95C155.243 189.693 155.614 188.405 156.637 188.266C156.637 188.814 156.637 189.467 156.637 190.015C156.563 189.994 156.49 189.973 156.418 189.95ZM158.237 192.656C158.067 192.749 157.88 192.806 157.687 192.838C157.687 192.311 157.687 191.683 157.687 191.156C158.425 191.257 159.076 192.197 158.237 192.656Z" fill="white"/>
</g>
<path d="M155.45 198.404C148.881 202.262 141.206 204.164 133.926 205.412C140.007 205.271 146.544 202.976 152.225 200.44C152.563 200.204 156.639 198.524 155.45 198.404Z" fill="white"/>
<path d="M154.368 204.019C151.159 205.719 147.616 206.72 144.106 207.453C143.719 208.627 156.233 204.338 154.368 204.019Z" fill="white"/>
<path d="M104.062 213.47C98.4644 214.002 92.6002 213.271 87.1758 212.958C90.9218 214.008 95.795 213.87 99.861 213.967C100.276 213.875 105.052 214.102 104.062 213.47Z" fill="white"/>
<path d="M85.7206 215.745C82.8312 215.385 79.9657 214.843 77.1439 214.126C76.4366 214.079 74.5673 213.166 74.1367 213.467C74.4226 214.007 76.3979 214.165 77.0765 214.456C78.9725 214.936 80.8875 215.337 82.8168 215.659C83.1423 215.643 86.6228 216.489 85.7206 215.745Z" fill="white"/>
<path d="M244.619 180.798C239.579 189.052 226.551 187.355 223.683 178.187C221.028 170.334 227.193 162.405 235.483 163.055C244.13 163.202 249.393 173.681 244.619 180.798Z" fill="#F7D131"/>
<mask id="mask3_842_20160" style="mask-type:luminance" maskUnits="userSpaceOnUse" x="223" y="163" width="24" height="24">
<path d="M244.619 180.797C239.579 189.052 226.551 187.354 223.683 178.187C221.028 170.334 227.193 162.405 235.483 163.054C244.13 163.202 249.393 173.681 244.619 180.797Z" fill="white"/>
</mask>
<g mask="url(#mask3_842_20160)">
<path d="M224.226 168.674C222.351 175.217 227.406 184.264 234.732 184.826C238.181 185.19 242.156 183.197 244.33 181.253C244.186 184.767 237.505 187.163 234.17 187.034C228.467 186.859 222.499 181.351 221.828 175.876C221.35 173.17 223.068 170.838 224.226 168.674Z" fill="#E5C028"/>
</g>
<path d="M237.201 177.035C237.096 175.986 236.504 175.113 235.85 174.322C236.504 173.288 237.284 172.055 237.938 171.02C238.699 171.845 238.335 172.865 238.035 173.774C239.56 176.574 241.275 171.563 238.795 169.664C239.071 169.247 239.469 168.727 239.103 168.24C238.419 167.473 237.787 168.044 237.424 168.769C233.469 167.073 230.578 171.537 233.842 174.436C233.219 175.422 232.476 176.597 231.853 177.583C231.11 176.688 231.395 175.575 231.888 174.649C230.689 171.461 228.152 176.79 230.977 178.969C230.776 179.317 230.425 179.673 230.541 180.107C230.698 180.873 231.804 180.957 232.107 180.245C232.176 180.136 232.27 179.987 232.339 179.878C234.441 181.109 237.485 179.6 237.201 177.035ZM234.526 172.712C233.277 171.327 235.009 169.497 236.575 170.111C236.003 171.017 235.32 172.097 234.748 173.003C234.672 172.906 234.598 172.81 234.526 172.712ZM234.095 178.703C233.784 178.715 233.474 178.655 233.181 178.546C233.732 177.674 234.388 176.636 234.939 175.765C235.871 176.719 235.612 178.632 234.095 178.703Z" fill="white"/>
<path d="M304.675 146.508C299.26 154.521 286.324 152.226 283.881 142.936C281.59 134.969 288.114 127.332 296.365 128.363C304.997 128.909 309.772 139.619 304.675 146.508Z" fill="#F7D131"/>
<mask id="mask4_842_20160" style="mask-type:luminance" maskUnits="userSpaceOnUse" x="283" y="128" width="24" height="24">
<path d="M304.675 146.508C299.26 154.521 286.324 152.226 283.881 142.936C281.59 134.969 288.114 127.332 296.365 128.363C304.997 128.909 309.772 139.619 304.675 146.508Z" fill="white"/>
</mask>
<g mask="url(#mask4_842_20160)">
<path d="M284.862 133.458C282.688 139.907 287.32 149.178 294.612 150.077C298.04 150.599 302.103 148.792 304.365 146.95C304.059 150.453 297.275 152.539 293.949 152.257C288.261 151.82 282.552 146.042 282.134 140.542C281.781 137.817 283.605 135.566 284.862 133.458Z" fill="#E5C028"/>
</g>
<path d="M297.442 142.407C297.386 141.355 296.834 140.456 296.218 139.636C296.919 138.632 297.754 137.436 298.455 136.433C299.178 137.293 298.767 138.295 298.425 139.189C299.82 142.056 301.764 137.13 299.373 135.118C299.669 134.714 300.091 134.213 299.747 133.71C299.099 132.912 298.442 133.453 298.045 134.161C294.173 132.284 291.079 136.61 294.206 139.657C293.538 140.613 292.742 141.753 292.074 142.709C291.373 141.781 291.709 140.682 292.244 139.78C291.178 136.53 288.424 141.775 291.136 144.053C290.919 144.391 290.551 144.731 290.648 145.169C290.769 145.942 291.87 146.077 292.206 145.379C292.279 145.274 292.38 145.129 292.454 145.024C294.497 146.35 297.607 144.983 297.442 142.407ZM294.969 137.967C293.785 136.525 295.599 134.777 297.136 135.463C296.522 136.341 295.791 137.388 295.177 138.267C295.105 138.167 295.036 138.067 294.969 137.967ZM294.262 143.93C293.951 143.928 293.644 143.855 293.357 143.732C293.947 142.887 294.65 141.88 295.24 141.035C296.128 142.031 295.781 143.93 294.262 143.93Z" fill="white"/>
<path d="M358.98 105.388C363.148 114.115 354.618 124.108 345.37 121.51C337.34 119.452 334.059 109.959 339.125 103.366C343.967 96.1989 355.62 97.5049 358.98 105.388Z" fill="#F7D131"/>
<mask id="mask5_842_20160" style="mask-type:luminance" maskUnits="userSpaceOnUse" x="336" y="98" width="25" height="24">
<path d="M358.98 105.389C363.148 114.116 354.618 124.109 345.37 121.511C337.34 119.452 334.059 109.96 339.125 103.366C343.967 96.1996 355.62 97.5056 358.98 105.389Z" fill="white"/>
</mask>
<g mask="url(#mask5_842_20160)">
<path d="M337.695 115.864C342.156 121.005 352.496 121.705 356.964 115.872C359.15 113.18 359.649 108.761 359.205 105.878C362.071 107.916 360.435 114.822 358.507 117.547C355.25 122.231 347.377 124.228 342.423 121.803C339.895 120.728 338.877 118.016 337.695 115.864Z" fill="#E5C028"/>
</g>
<path d="M351.78 109.55C350.844 109.066 349.789 109.086 348.77 109.202C348.259 108.09 347.651 106.764 347.141 105.651C348.248 105.463 348.904 106.325 349.502 107.072C352.681 107.321 349.417 103.151 346.472 104.193C346.274 103.734 346.055 103.116 345.447 103.158C344.431 103.313 344.564 104.153 344.974 104.854C341.395 107.243 343.559 112.101 347.769 110.947C348.256 112.008 348.835 113.271 349.322 114.331C348.167 114.466 347.388 113.619 346.882 112.701C343.54 111.975 346.668 117.005 350.005 115.821C350.187 116.18 350.294 116.668 350.721 116.807C351.449 117.094 352.123 116.212 351.691 115.57C351.637 115.453 351.564 115.293 351.51 115.176C353.689 114.086 354.084 110.712 351.78 109.55ZM346.698 109.434C344.856 109.725 344.266 107.276 345.636 106.297C346.083 107.272 346.615 108.432 347.062 109.406C346.94 109.417 346.819 109.427 346.698 109.434ZM351.483 113.063C351.323 113.331 351.105 113.557 350.853 113.743C350.423 112.806 349.911 111.69 349.481 110.754C350.79 110.492 352.251 111.753 351.483 113.063Z" fill="white"/>
<path d="M300.498 82.6425C284.584 82.6425 265.62 82.6425 249.707 82.6425C250.016 80.1879 252.383 78.7987 254.66 78.5024C255.759 78.3498 257.06 78.4792 257.891 77.6021C259.726 75.007 261.321 72.1098 264.072 70.3318C269.095 66.6717 275.387 68.4639 278.404 73.7196C279.777 77.0606 283.141 74.3542 285.629 74.839C288.039 75.1672 289.834 77.0375 290.587 79.2741C291.965 81.9345 294.509 78.6462 296.565 79.3635C298.204 79.7388 300.053 80.9683 300.498 82.6425Z" fill="white"/>
<path d="M314.609 53.2744C303.518 53.2744 290.301 53.2744 279.211 53.2744C280.641 49.6922 283.434 51.3581 285.7 49.929C288.215 47.3706 289.405 44.5695 293.66 44.8909C297.967 45.0303 299.079 48.543 302.028 48.9843C303.262 48.9515 304.529 48.6955 305.737 49.0893C306.797 49.3599 307.631 50.0872 308.178 51.0193C309.561 53.3665 313.102 51.05 314.609 53.2744Z" fill="white"/>
<path d="M214.112 110.01C204.717 110.01 193.52 110.01 184.125 110.01C184.913 106.959 188.414 108.122 190.355 106.56C192.264 105.068 194.358 102.339 197.041 103.802C199.038 104.821 200.863 106.909 203.331 106.189C204.615 105.972 206.096 105.349 207.215 106.287C208.108 107.723 209.616 107.994 211.2 107.843C212.346 107.938 213.915 108.778 214.112 110.01Z" fill="white"/>
</svg>
