<svg width="391" height="182" viewBox="0 0 391 182" fill="none" xmlns="http://www.w3.org/2000/svg">
<path d="M4.71484 146.876C7.38097 159.457 12.5464 172.033 17.8798 181.091H367.003C375.917 169.689 379.551 158.371 380.664 146.876H4.71484Z" fill="#A4B5FF"/>
<path d="M315.528 0H95.3867V83.0093H315.528V0Z" fill="#E6EFFF"/>
<path d="M207.452 47.2602C205.877 48.8078 204.044 50.0861 201.985 51.0069C199.349 52.187 196.617 52.6602 193.957 52.5091C192.901 52.4486 191.857 52.2901 190.835 52.0385C190.833 52.0385 190.833 52.0385 190.831 52.0385C190.634 51.9908 190.437 51.9379 190.241 51.8825C184.584 50.277 179.665 45.7906 177.319 39.296C176.094 35.9039 175.715 32.3636 176.076 28.9688C176.453 25.3758 177.661 21.9435 179.561 19.022C181.587 15.9093 184.396 13.3752 187.836 11.8352C191.285 10.2901 194.902 9.95548 198.305 10.6501C202.909 11.5885 207.129 14.4069 210.022 18.6646C211.019 20.1266 211.857 21.7598 212.502 23.5436C215.582 32.0692 213.31 41.513 207.452 47.2602Z" fill="#A4B5FF"/>
<path d="M207.476 47.2604C205.901 48.808 204.068 50.0863 202.009 51.0071C199.373 52.1872 196.641 52.6604 193.98 52.5094C193.99 51.996 194.367 51.4249 194.683 51.173C195.244 50.7329 195.965 50.6422 196.65 50.5994C197.335 50.5568 198.047 50.5442 198.668 50.2194C198.973 50.0609 199.272 49.8268 199.608 49.847C200.137 49.8797 200.488 50.5238 201.01 50.6295C201.991 49.467 203.27 48.6215 204.655 48.2188C204.784 48.181 204.918 48.1458 205.028 48.063C205.134 47.9822 205.211 47.8667 205.297 47.7634C205.422 47.6125 205.569 47.4866 205.731 47.3935C206.26 47.0869 206.877 47.1319 207.476 47.2604Z" fill="white"/>
<path d="M210.095 18.6649C209.839 18.929 209.521 19.1003 209.17 19.128C208.601 19.1682 208.072 18.8334 207.536 18.617C207.001 18.4005 206.323 18.3302 205.927 18.7908C205.597 19.1757 205.604 19.8049 205.8 20.293C205.997 20.7813 206.343 21.1712 206.65 21.5815C208.076 23.4786 208.766 26.0428 208.513 28.5012C208.375 29.8397 207.97 31.1507 208.013 32.497C208.063 34.0345 208.689 35.4788 208.867 37.0038C209.204 39.9176 207.692 42.98 205.303 44.2256C205.095 44.3338 203.389 42.4592 202.335 38.6267C201.951 37.2378 202.539 33.9589 200.778 33.4256C200.31 33.2821 199.562 33.73 198.211 33.9414C198.102 33.959 195.966 32.8569 194.82 31.3747C193.826 30.0914 193.688 28.1941 194.09 26.5586C194.26 25.8717 194.524 25.1947 194.985 24.7016C196.215 23.393 198.244 23.8762 199.826 23.1792C200.658 22.8117 201.339 22.125 202.118 21.6441C202.557 21.3722 203.092 21.0703 203.142 20.5142C203.219 19.626 201.985 19.1706 201.969 18.2797C201.325 18.3904 200.654 18.6221 200.233 19.1781C199.815 19.7343 199.783 20.6929 200.317 21.1132C200.439 21.2088 200.593 21.2845 200.649 21.4403C200.733 21.6694 200.529 21.9286 200.308 21.9638C200.086 21.9963 199.872 21.8754 199.677 21.7524C199.11 21.3926 198.567 20.9673 197.953 20.7284C197.335 20.4917 196.608 20.4639 196.07 20.8768C195.64 21.2039 195.396 21.7549 195.01 22.14C194.623 22.5275 193.929 22.681 193.636 22.2054C193.331 21.7072 193.722 21.0704 193.954 20.5247C194.167 20.0289 194.241 19.4426 194.074 18.9244C193.907 18.4058 193.471 17.9831 192.978 17.9631C192.571 17.9453 192.196 18.1845 191.805 18.3102C191.414 18.4336 190.912 18.3983 190.711 18.0058C190.478 17.5504 190.83 16.9792 191.249 16.7402C191.667 16.5012 192.162 16.4382 192.546 16.1387C192.779 15.9551 192.955 15.6985 193.174 15.4995C194.323 14.4503 196.35 15.1096 197.265 13.8061C197.858 12.9608 197.593 11.3376 198.377 10.6509C202.982 11.5887 207.202 14.4072 210.095 18.6649Z" fill="#6980E2"/>
<path d="M209.723 32.1335C209.675 32.3679 209.626 32.6024 209.578 32.8367C209.545 32.9983 209.511 33.1648 209.536 33.3282C209.588 33.6724 209.932 33.9235 210.236 33.8385C210.54 33.7536 210.738 33.3514 210.638 33.0207C210.576 32.8165 210.419 32.6307 210.454 32.4185C210.527 31.9749 211.337 31.5085 210.642 31.2856C210.127 31.1205 209.813 31.6634 209.723 32.1335Z" fill="#6980E2"/>
<path d="M191.74 51.5026C191.609 51.8701 191.256 52.0386 190.892 52.0386C190.89 52.0386 190.89 52.0386 190.888 52.0386C190.691 51.9909 190.494 51.938 190.298 51.8826C189.816 51.6159 189.466 51.1254 189.036 50.7654C188.214 50.0734 187.124 49.8721 186.295 49.1903C184.313 47.5597 184.554 43.9311 182.687 42.1371C182.299 41.7623 181.835 41.4903 181.453 41.1055C180.696 40.3432 180.317 39.1425 180.477 38.0206C180.649 36.8126 181.392 35.5998 180.985 34.465C180.534 33.2094 178.965 32.9199 178.35 31.7574C178.154 31.3824 178.07 30.9472 177.869 30.5773C177.636 30.1522 177.265 29.8475 176.897 29.5657C176.646 29.372 176.386 29.1758 176.133 28.9693C176.51 25.3763 177.717 21.944 179.618 19.0225C179.688 19.0651 179.763 19.1256 179.84 19.2088C180.491 19.9107 180.816 20.122 181.795 20.0012C182.651 19.8955 183.508 19.7899 184.362 19.6842C184.839 19.6238 185.459 19.6614 185.61 20.1648C185.8 20.794 185.063 21.2166 184.656 21.6999C184.098 22.364 184.188 23.5645 184.841 24.1128C185.323 24.5205 186.13 24.7823 186.062 25.4541C185.999 26.0606 185.237 26.2368 184.982 26.7778C184.83 27.0972 184.882 27.5023 184.731 27.822C184.602 28.0961 184.337 28.2747 184.233 28.5616C184.107 28.919 184.268 29.3241 184.222 29.7065C184.085 30.8615 182.362 30.927 182.016 32.0291C181.754 32.8695 182.527 33.7276 183.316 33.8684C184.107 34.0094 184.898 33.6999 185.691 33.5942C186.485 33.4886 187.427 33.6771 187.809 34.4574C188.205 35.2675 187.924 36.5383 188.664 36.9537C188.89 37.0818 189.156 37.0793 189.407 37.1323C190.054 37.2707 190.603 37.8194 190.849 38.4987C191.096 39.1781 191.05 39.9681 190.781 40.6374C190.61 41.0627 190.354 41.4401 190.183 41.8654C189.717 43.0156 189.907 44.3492 190.122 45.5897C190.386 47.1296 190.684 48.6948 191.39 50.0539C191.624 50.5013 191.911 51.0197 191.74 51.5026Z" fill="#6980E2"/>
<path d="M186.216 18.3377C186.467 18.5731 186.643 18.8918 186.87 19.1555C187.098 19.4189 187.416 19.6357 187.739 19.5712C187.991 19.5211 188.197 19.3047 188.317 19.0523C188.436 18.7998 188.481 18.5131 188.516 18.2304C188.584 17.6756 188.621 17.1157 188.623 16.5557C188.625 16.2462 188.611 15.9181 188.459 15.6594C188.324 15.4295 188.098 15.288 187.878 15.1645C187.571 14.9929 187.247 14.8362 186.904 14.828C186.413 14.8165 185.959 15.1106 185.569 15.4442C185.248 15.7186 183.575 17.3311 183.917 17.8135C184.051 18.0022 184.9 17.8407 185.119 17.8696C185.516 17.9216 185.905 18.0467 186.216 18.3377Z" fill="#6980E2"/>
<path d="M259.583 8.93604H226.527V22.9892H259.583V8.93604Z" fill="#EBF3FA"/>
<path d="M232.49 13.6953H228.547V14.4277H232.49V13.6953Z" fill="#A4B5FF"/>
<path d="M237.35 13.6953H232.996V14.4277H237.35V13.6953Z" fill="#A4B5FF"/>
<path d="M240.405 13.6953H237.629V14.4277H240.405V13.6953Z" fill="#A4B5FF"/>
<path d="M242.997 13.6953H240.855V14.4277H242.997V13.6953Z" fill="#A4B5FF"/>
<path d="M234.596 11.9849H228.547V12.7174H234.596V11.9849Z" fill="#A4B5FF"/>
<path d="M238.675 11.9849H235.188V12.7174H238.675V11.9849Z" fill="#A4B5FF"/>
<path d="M243.025 11.9849H239.152V12.7174H243.025V11.9849Z" fill="#A4B5FF"/>
<path d="M232.49 18.4468H228.547V19.1793H232.49V18.4468Z" fill="#A4B5FF"/>
<path d="M237.35 18.4468H232.996V19.1793H237.35V18.4468Z" fill="#A4B5FF"/>
<path d="M240.405 18.4468H237.629V19.1793H240.405V18.4468Z" fill="#A4B5FF"/>
<path d="M242.997 18.4468H240.855V19.1793H242.997V18.4468Z" fill="#A4B5FF"/>
<path d="M234.596 16.7368H228.547V17.4694H234.596V16.7368Z" fill="#A4B5FF"/>
<path d="M238.675 16.7368H235.188V17.4694H238.675V16.7368Z" fill="#A4B5FF"/>
<path d="M243.025 16.7368H239.152V17.4694H243.025V16.7368Z" fill="#A4B5FF"/>
<path d="M247.734 19.1784L249.548 14.4278L252.407 16.7362L253.732 11.9857L255.615 12.7183L257.149 10.4116V19.1784H247.734Z" fill="#A4B5FF"/>
<path d="M259.583 25.1567H226.527V39.2099H259.583V25.1567Z" fill="#EBF3FA"/>
<path d="M232.49 29.915H228.547V30.6478H232.49V29.915Z" fill="#A4B5FF"/>
<path d="M237.35 29.915H232.996V30.6478H237.35V29.915Z" fill="#A4B5FF"/>
<path d="M240.405 29.915H237.629V30.6478H240.405V29.915Z" fill="#A4B5FF"/>
<path d="M242.997 29.915H240.855V30.6478H242.997V29.915Z" fill="#A4B5FF"/>
<path d="M234.596 28.2046H228.547V28.9373H234.596V28.2046Z" fill="#A4B5FF"/>
<path d="M238.675 28.2046H235.188V28.9373H238.675V28.2046Z" fill="#A4B5FF"/>
<path d="M243.025 28.2046H239.152V28.9373H243.025V28.2046Z" fill="#A4B5FF"/>
<path d="M232.49 34.667H228.547V35.3996H232.49V34.667Z" fill="#A4B5FF"/>
<path d="M237.35 34.667H232.996V35.3996H237.35V34.667Z" fill="#A4B5FF"/>
<path d="M240.405 34.667H237.629V35.3996H240.405V34.667Z" fill="#A4B5FF"/>
<path d="M242.997 34.667H240.855V35.3996H242.997V34.667Z" fill="#A4B5FF"/>
<path d="M234.596 32.9565H228.547V33.6889H234.596V32.9565Z" fill="#A4B5FF"/>
<path d="M238.675 32.9565H235.188V33.6889H238.675V32.9565Z" fill="#A4B5FF"/>
<path d="M243.025 32.9565H239.152V33.6889H243.025V32.9565Z" fill="#A4B5FF"/>
<path d="M247.734 35.3991L249.548 30.6486L252.407 32.957L253.732 28.2064L255.615 28.9392L257.149 26.6323V35.3991H247.734Z" fill="#A4B5FF"/>
<path d="M160.455 76.7447H104.832V33.3374H160.455V76.7447ZM105.225 76.3078H160.062V33.7743H105.225V76.3078Z" fill="white"/>
<path d="M156.358 70.7917H107.027C107.027 70.7917 114.954 64.4439 117.398 64.7767C119.843 65.1089 123.625 67.6782 125.857 67.778C128.088 67.8775 129.322 58.8689 131.846 59.2934C134.37 59.7176 136.333 67.6858 137.511 66.9073C138.689 66.1289 142.485 65.7914 144.841 66.9073C147.196 68.0233 149.814 63.3605 151.777 63.5061C153.74 63.6518 156.358 70.7917 156.358 70.7917Z" fill="#A4B5FF"/>
<path d="M117.176 57.3618H107.754V58.0376H117.176V57.3618Z" fill="#A4B5FF"/>
<path d="M117.176 58.8062H107.754V59.4819H117.176V58.8062Z" fill="#A4B5FF"/>
<path d="M107.027 49.0339H156.358C156.358 49.0339 148.431 42.6863 145.987 43.0189C143.543 43.3511 139.76 45.9204 137.529 46.0202C135.297 46.1197 134.064 37.1111 131.539 37.5355C129.015 37.9598 127.052 45.9281 125.874 45.1497C124.696 44.3711 120.901 44.0337 118.545 45.1497C116.189 46.2653 113.571 41.6027 111.608 41.7484C109.645 41.894 107.027 49.0339 107.027 49.0339Z" fill="#EBF3FA"/>
<path d="M117.176 36.8462H107.754V37.522H117.176V36.8462Z" fill="#EBF3FA"/>
<path d="M117.176 38.2891H107.754V38.9648H117.176V38.2891Z" fill="#EBF3FA"/>
<path d="M110.62 10.4138H104.832V11.4788H110.62V10.4138Z" fill="#A4B5FF"/>
<path d="M117.746 10.4138H111.355V11.4788H117.746V10.4138Z" fill="#A4B5FF"/>
<path d="M122.25 10.4138H118.176V11.4788H122.25V10.4138Z" fill="#A4B5FF"/>
<path d="M126.074 10.4138H122.93V11.4788H126.074V10.4138Z" fill="#A4B5FF"/>
<path d="M110.62 14.9573H104.832V16.0221H110.62V14.9573Z" fill="#A4B5FF"/>
<path d="M117.746 14.9573H111.355V16.0221H117.746V14.9573Z" fill="#A4B5FF"/>
<path d="M122.25 14.9573H118.176V16.0221H122.25V14.9573Z" fill="#A4B5FF"/>
<path d="M126.074 14.9573H122.93V16.0221H126.074V14.9573Z" fill="#A4B5FF"/>
<path d="M113.712 7.93115H104.832V8.99596H113.712V7.93115Z" fill="#A4B5FF"/>
<path d="M119.701 7.93115H114.582V8.99596H119.701V7.93115Z" fill="#A4B5FF"/>
<path d="M126.059 7.93115H120.375V8.99596H126.059V7.93115Z" fill="#A4B5FF"/>
<path d="M113.712 12.7621H104.832V13.8268H113.712V12.7621Z" fill="#A4B5FF"/>
<path d="M119.701 12.7621H114.582V13.8268H119.701V12.7621Z" fill="#A4B5FF"/>
<path d="M126.059 12.7621H120.375V13.8268H126.059V12.7621Z" fill="#A4B5FF"/>
<path d="M110.62 19.5013H104.832V20.5661H110.62V19.5013Z" fill="#A4B5FF"/>
<path d="M117.746 19.5013H111.355V20.5661H117.746V19.5013Z" fill="#A4B5FF"/>
<path d="M122.25 19.5013H118.176V20.5661H122.25V19.5013Z" fill="#A4B5FF"/>
<path d="M126.074 19.5013H122.93V20.5661H126.074V19.5013Z" fill="#A4B5FF"/>
<path d="M113.712 17.3041H104.832V18.3689H113.712V17.3041Z" fill="#A4B5FF"/>
<path d="M119.701 17.3041H114.582V18.3689H119.701V17.3041Z" fill="#A4B5FF"/>
<path d="M126.059 17.3041H120.375V18.3689H126.059V17.3041Z" fill="#A4B5FF"/>
<path d="M110.62 23.7597H104.832V24.8247H110.62V23.7597Z" fill="#A4B5FF"/>
<path d="M117.746 23.7597H111.355V24.8247H117.746V23.7597Z" fill="#A4B5FF"/>
<path d="M122.25 23.7597H118.176V24.8247H122.25V23.7597Z" fill="#A4B5FF"/>
<path d="M126.074 23.7597H122.93V24.8247H126.074V23.7597Z" fill="#A4B5FF"/>
<path d="M113.712 21.5631H104.832V22.6279H113.712V21.5631Z" fill="#A4B5FF"/>
<path d="M119.701 21.5631H114.582V22.6279H119.701V21.5631Z" fill="#A4B5FF"/>
<path d="M126.059 21.5631H120.375V22.6279H126.059V21.5631Z" fill="#A4B5FF"/>
<path d="M228.193 64.8247H223.953V65.5179H228.193V64.8247Z" fill="#A4B5FF"/>
<path d="M233.392 64.8247H228.711V65.5179H233.392V64.8247Z" fill="#A4B5FF"/>
<path d="M236.75 64.8247H233.766V65.5179H236.75V64.8247Z" fill="#A4B5FF"/>
<path d="M239.541 64.8247H237.238V65.5179H239.541V64.8247Z" fill="#A4B5FF"/>
<path d="M228.193 67.7812H223.953V68.4745H228.193V67.7812Z" fill="#A4B5FF"/>
<path d="M233.392 67.7812H228.711V68.4745H233.392V67.7812Z" fill="#A4B5FF"/>
<path d="M236.75 67.7812H233.766V68.4745H236.75V67.7812Z" fill="#A4B5FF"/>
<path d="M239.541 67.7812H237.238V68.4745H239.541V67.7812Z" fill="#A4B5FF"/>
<path d="M230.458 63.2065H223.953V63.8998H230.458V63.2065Z" fill="#A4B5FF"/>
<path d="M234.831 63.2065H231.082V63.8998H234.831V63.2065Z" fill="#A4B5FF"/>
<path d="M239.512 63.2065H235.348V63.8998H239.512V63.2065Z" fill="#A4B5FF"/>
<path d="M230.458 66.3511H223.953V67.0443H230.458V66.3511Z" fill="#A4B5FF"/>
<path d="M234.831 66.3511H231.082V67.0443H234.831V66.3511Z" fill="#A4B5FF"/>
<path d="M239.512 66.3511H235.348V67.0443H239.512V66.3511Z" fill="#A4B5FF"/>
<path d="M228.193 70.7393H223.953V71.4325H228.193V70.7393Z" fill="#A4B5FF"/>
<path d="M233.392 70.7393H228.711V71.4325H233.392V70.7393Z" fill="#A4B5FF"/>
<path d="M236.75 70.7393H233.766V71.4325H236.75V70.7393Z" fill="#A4B5FF"/>
<path d="M239.541 70.7393H237.238V71.4325H239.541V70.7393Z" fill="#A4B5FF"/>
<path d="M230.458 69.3086H223.953V70.0018H230.458V69.3086Z" fill="#A4B5FF"/>
<path d="M234.831 69.3086H231.082V70.0018H234.831V69.3086Z" fill="#A4B5FF"/>
<path d="M239.512 69.3086H235.348V70.0018H239.512V69.3086Z" fill="#A4B5FF"/>
<path d="M228.193 73.5117H223.953V74.2049H228.193V73.5117Z" fill="#A4B5FF"/>
<path d="M233.392 73.5117H228.711V74.2049H233.392V73.5117Z" fill="#A4B5FF"/>
<path d="M236.75 73.5117H233.766V74.2049H236.75V73.5117Z" fill="#A4B5FF"/>
<path d="M239.541 73.5117H237.238V74.2049H239.541V73.5117Z" fill="#A4B5FF"/>
<path d="M230.458 72.082H223.953V72.7754H230.458V72.082Z" fill="#A4B5FF"/>
<path d="M234.831 72.082H231.082V72.7754H234.831V72.082Z" fill="#A4B5FF"/>
<path d="M239.512 72.082H235.348V72.7754H239.512V72.082Z" fill="#A4B5FF"/>
<path d="M277.099 58.3779H272.359V74.6177H277.099V58.3779Z" fill="#A4B5FF"/>
<path d="M284.532 52.2192H279.793V74.6181H284.532V52.2192Z" fill="#A4B5FF"/>
<path d="M292.333 55.189H287.594V74.619H292.333V55.189Z" fill="#A4B5FF"/>
<path d="M300.438 60.5967H295.699V74.618H300.438V60.5967Z" fill="#A4B5FF"/>
<path d="M308.056 64.9346H303.316V74.6185H308.056V64.9346Z" fill="#A4B5FF"/>
<path opacity="0.5" d="M153.118 25.9017C152.23 26.7739 151.198 27.4943 150.037 28.0134C148.552 28.6784 147.012 28.9447 145.513 28.8597C144.918 28.8258 144.33 28.7364 143.754 28.5945C143.753 28.5945 143.753 28.5945 143.752 28.5945C143.641 28.5675 143.53 28.5379 143.419 28.5066C140.231 27.6019 137.46 25.0737 136.138 21.4137C135.447 19.5022 135.233 17.5071 135.437 15.5942C135.65 13.5693 136.33 11.6351 137.401 9.98873C138.542 8.23463 140.125 6.80661 142.064 5.93889C144.007 5.06808 146.045 4.87955 147.964 5.27115C150.558 5.79997 152.936 7.38812 154.567 9.78737C155.128 10.611 155.601 11.5314 155.964 12.5368C157.7 17.341 156.42 22.6631 153.118 25.9017Z" fill="#A4B5FF"/>
<path d="M153.144 25.902C152.256 26.7742 151.224 27.4946 150.063 28.0137C148.578 28.6787 147.038 28.945 145.539 28.86C145.544 28.5707 145.757 28.2489 145.935 28.1071C146.251 27.859 146.657 27.808 147.043 27.7839C147.429 27.7596 147.831 27.7526 148.181 27.5697C148.353 27.4802 148.521 27.3483 148.71 27.3596C149.009 27.3781 149.206 27.7413 149.5 27.8008C150.053 27.1458 150.774 26.6693 151.555 26.4424C151.627 26.4211 151.702 26.4012 151.765 26.3543C151.825 26.3088 151.868 26.2437 151.916 26.1857C151.986 26.1006 152.069 26.0296 152.161 25.9773C152.459 25.8041 152.807 25.8298 153.144 25.902Z" fill="white"/>
<path d="M154.555 9.78754C154.411 9.93639 154.231 10.0329 154.034 10.0483C153.713 10.071 153.415 9.88233 153.113 9.76052C152.811 9.63837 152.429 9.59885 152.206 9.85821C152.02 10.0753 152.024 10.4298 152.135 10.7047C152.246 10.9798 152.441 11.1997 152.614 11.4306C153.418 12.4999 153.806 13.9448 153.663 15.3302C153.586 16.0845 153.358 16.8236 153.382 17.582C153.41 18.4484 153.763 19.2622 153.863 20.1217C154.053 21.7638 153.201 23.4895 151.855 24.1914C151.738 24.2525 150.776 23.1959 150.183 21.0363C149.966 20.2536 150.297 18.406 149.305 18.1054C149.041 18.0246 148.62 18.277 147.858 18.3959C147.797 18.406 146.593 17.7848 145.947 16.9495C145.387 16.2264 145.309 15.1573 145.536 14.2357C145.632 13.8483 145.781 13.4672 146.04 13.189C146.733 12.4518 147.877 12.7238 148.768 12.3312C149.237 12.1242 149.621 11.737 150.06 11.4662C150.307 11.3133 150.609 11.1427 150.637 10.8294C150.68 10.3289 149.985 10.0722 149.976 9.57028C149.613 9.63255 149.235 9.76308 148.998 10.0763C148.762 10.3899 148.744 10.93 149.045 11.167C149.114 11.2209 149.2 11.2633 149.232 11.3512C149.279 11.4804 149.165 11.6263 149.04 11.6463C148.915 11.6646 148.794 11.5966 148.685 11.5271C148.365 11.3244 148.059 11.0849 147.713 10.9502C147.365 10.8168 146.955 10.8012 146.652 11.0337C146.41 11.218 146.272 11.5288 146.054 11.7456C145.837 11.9639 145.446 12.0503 145.28 11.7825C145.108 11.5016 145.328 11.1429 145.46 10.8353C145.579 10.5559 145.621 10.2257 145.527 9.93348C145.433 9.64127 145.187 9.40295 144.909 9.39183C144.68 9.38174 144.469 9.51655 144.248 9.58755C144.028 9.65701 143.745 9.63716 143.632 9.41596C143.5 9.15933 143.699 8.83736 143.935 8.70272C144.17 8.56807 144.449 8.53249 144.666 8.36363C144.797 8.2603 144.897 8.11556 145.02 8.00333C145.667 7.41207 146.81 7.78366 147.326 7.04904C147.659 6.57258 147.51 5.65798 147.952 5.271C150.547 5.80015 152.925 7.3883 154.555 9.78754Z" fill="#A4B5FF"/>
<path d="M154.364 17.378C154.337 17.5102 154.31 17.6423 154.282 17.7742C154.264 17.8654 154.245 17.9593 154.259 18.0512C154.288 18.2452 154.482 18.3865 154.653 18.3389C154.825 18.291 154.936 18.0645 154.88 17.8782C154.845 17.7629 154.756 17.6584 154.776 17.5388C154.817 17.2888 155.274 17.0261 154.882 16.9003C154.592 16.8074 154.415 17.1131 154.364 17.378Z" fill="#A4B5FF"/>
<path d="M144.217 28.2926C144.143 28.4996 143.944 28.5946 143.739 28.5946C143.738 28.5946 143.738 28.5946 143.736 28.5946C143.626 28.5675 143.515 28.538 143.404 28.5066C143.133 28.3563 142.935 28.0798 142.693 27.8771C142.23 27.4872 141.616 27.3737 141.148 26.9891C140.031 26.0703 140.168 24.0257 139.115 23.0146C138.896 22.8035 138.635 22.65 138.42 22.4332C137.993 22.0037 137.779 21.3274 137.87 20.6949C137.967 20.0141 138.386 19.3307 138.157 18.6913C137.902 17.9836 137.018 17.8205 136.671 17.1655C136.56 16.9542 136.513 16.7089 136.4 16.5003C136.269 16.2608 136.06 16.089 135.852 15.9304C135.711 15.8211 135.564 15.7106 135.422 15.5943C135.635 13.5693 136.315 11.6351 137.386 9.98877C137.425 10.0131 137.467 10.0469 137.511 10.0936C137.877 10.4894 138.061 10.6084 138.612 10.5403C139.095 10.4806 139.578 10.4211 140.059 10.3616C140.328 10.3277 140.677 10.3489 140.762 10.6324C140.869 10.9869 140.454 11.2252 140.225 11.4974C139.91 11.8719 139.961 12.5481 140.329 12.8573C140.601 13.0871 141.055 13.2345 141.017 13.6131C140.982 13.9548 140.552 14.054 140.408 14.3589C140.323 14.539 140.352 14.7672 140.267 14.9472C140.194 15.1019 140.045 15.2023 139.987 15.3642C139.915 15.5655 140.006 15.7941 139.98 16.0093C139.903 16.6603 138.932 16.6969 138.737 17.3181C138.59 17.7918 139.025 18.2753 139.47 18.3548C139.915 18.4342 140.361 18.2597 140.808 18.2003C141.255 18.1406 141.786 18.2471 142.002 18.6867C142.225 19.1432 142.067 19.8593 142.483 20.0934C142.611 20.1657 142.761 20.1642 142.903 20.194C143.267 20.2721 143.576 20.5813 143.715 20.9642C143.854 21.3467 143.828 21.7924 143.677 22.1694C143.58 22.409 143.436 22.6218 143.339 22.8615C143.077 23.5095 143.184 24.2611 143.305 24.9601C143.454 25.8278 143.622 26.7098 144.019 27.4757C144.152 27.7281 144.314 28.0203 144.217 28.2926Z" fill="#A4B5FF"/>
<path d="M141.13 9.60453C141.272 9.73712 141.371 9.91692 141.499 10.0654C141.627 10.2137 141.806 10.3359 141.988 10.2996C142.131 10.2712 142.247 10.1494 142.314 10.0073C142.381 9.86492 142.407 9.70324 142.426 9.54397C142.465 9.2314 142.485 8.91592 142.486 8.6001C142.488 8.42594 142.48 8.24101 142.394 8.09508C142.318 7.96557 142.191 7.88567 142.066 7.81621C141.894 7.71955 141.711 7.63127 141.518 7.62665C141.241 7.62015 140.985 7.7861 140.766 7.97377C140.585 8.1286 139.642 9.0374 139.834 9.30907C139.91 9.41549 140.388 9.32447 140.512 9.34072C140.735 9.37015 140.955 9.44063 141.13 9.60453Z" fill="#A4B5FF"/>
<path d="M260.334 57.1202C258.759 56.2107 257.497 56.7823 257.497 56.7823C252.678 56.152 251.272 62.4095 251.337 64.5625C251.402 66.7151 251.623 69.0281 249.471 71.8248C243.254 79.9045 256.274 80.2608 256.274 80.2608C256.384 73.8056 263.335 76.161 263.03 76.8151C271.94 79.1958 263.916 59.1892 260.334 57.1202Z" fill="#163560"/>
<path d="M241.735 82.9983C241.735 82.9983 240.887 81.5619 240.204 81.5338C239.521 81.5056 238.256 81.1111 238.357 81.3931C238.459 81.6745 239.243 81.7029 239.319 81.8719C239.395 82.0408 238.155 82.2943 237.801 82.3225C237.447 82.3506 236.612 82.3225 236.637 82.5196C236.662 82.7167 238.142 83.5336 239.186 83.4209C240.23 83.3083 241.52 83.7591 241.52 83.7591L241.735 82.9983Z" fill="#FFB27D"/>
<path d="M253.983 83.463C253.983 83.463 253.522 84.4786 252.686 85.6453C251.679 87.0497 250.126 88.6719 248.177 88.9922C247.245 89.1451 246.335 88.9221 245.498 88.508C245.495 88.5072 245.494 88.5072 245.494 88.5072C243.126 87.3368 241.346 84.6459 241.346 84.6459C240.929 83.3785 241.612 82.519 241.612 82.519C241.612 82.519 246.393 83.7162 246.848 83.463C247.304 83.2095 249.96 74.6899 250.592 73.6193C251.225 72.5487 253.381 71.9927 253.381 71.9927L253.983 83.463Z" fill="#23569E"/>
<path d="M252.724 85.6467C251.717 87.0511 250.164 88.6733 248.214 88.9935C247.283 89.1465 246.372 88.9234 245.535 88.5094C245.628 88.5229 247.993 88.8481 248.935 86.9708C249.897 85.0552 250.936 82.0134 252.365 83.0274C252.981 83.465 252.954 84.5524 252.724 85.6467Z" fill="#163560"/>
<path d="M271.844 140.925C271.844 140.925 273.303 142.408 273.018 143.461C272.734 144.514 271.417 145.216 271.239 146.504C271.061 147.791 270.35 148.493 269.709 148.493C269.069 148.493 266.655 148.493 266.655 148.493C266.655 148.493 266.184 147.587 267.323 147.314C268.461 147.041 268.891 145.528 268.82 144.124C268.748 142.72 268.926 140.847 268.926 140.847L271.346 140.223L271.844 140.925Z" fill="#294A7F"/>
<path d="M259.454 141.554C259.454 141.554 259.979 147.834 259.338 148.185L251.141 148.167C251.141 148.167 251.141 147.113 252.457 146.879C253.774 146.645 256.087 145.787 256.478 143.875C256.87 141.964 259.454 141.554 259.454 141.554Z" fill="#294A7F"/>
<path d="M265.767 79.2276C265.767 79.2276 265.89 81.1449 265.767 83.4457C265.686 84.9708 264.3 87.0137 264.104 87.519C263.61 88.7864 263.054 88.9926 263.054 88.9926L258.75 90.1669L257.237 90.5793L252.465 88.9926C252.465 88.9926 250.291 82.2381 251.164 78.4358C252.037 74.6333 253.37 71.993 253.37 71.993C253.37 71.993 257.034 71.1445 262.335 71.6331L265.767 79.2276Z" fill="#23569E"/>
<path d="M252.808 90.0181C252.808 90.0181 250.444 98.2076 250.293 100.996C250.141 103.784 254.81 140.607 254.998 141.892C255.175 143.103 256.526 143.875 256.526 143.875C256.526 143.875 257.147 144.283 258.034 144.004C259.264 143.617 259.653 143.154 259.653 143.154C259.653 143.154 261.492 116.893 260.354 107.512C259.216 98.1306 259.202 90.0181 259.202 90.0181H252.808Z" fill="#ED7D2B"/>
<path d="M262.817 89.7734C262.817 89.7734 266.422 95.1586 266.758 98.799C267.094 102.439 267.285 115.226 268.001 118.775C268.717 122.324 271.348 129.153 271.348 140.222C271.348 140.222 271.074 140.856 270.23 141.194C269.96 141.302 269.598 141.407 269.247 141.497C268.551 141.675 267.836 141.296 267.519 140.583C265.74 136.597 260.075 123.739 259.784 121.069C259.579 119.18 257.79 106.679 253.888 99.3439C252.951 97.5828 254.463 90.5792 254.463 90.5792L262.817 89.7734Z" fill="#F99746"/>
<path d="M252.435 88.7544C252.435 88.7544 253.384 89.59 255.268 89.6322C257.519 89.6829 263.098 88.9934 263.098 88.9934C263.098 88.9934 263.346 89.7643 263.336 90.5786C263.336 90.5786 256.523 92.492 252.575 90.858C252.575 90.858 252.066 89.7913 252.435 88.7544Z" fill="#233862"/>
<path d="M254.726 91.7922C254.16 91.7922 253.699 91.2118 253.699 90.498C253.699 89.7841 254.16 89.2036 254.726 89.2036C255.293 89.2036 255.754 89.7843 255.754 90.498C255.754 91.2118 255.293 91.7922 254.726 91.7922ZM254.726 89.5826C254.348 89.5826 254.04 89.9932 254.04 90.498C254.04 91.0029 254.348 91.4133 254.726 91.4133C255.105 91.4133 255.413 91.0029 255.413 90.498C255.413 89.9932 255.105 89.5826 254.726 89.5826Z" fill="white"/>
<path d="M262.086 79.6044L255.105 86.3716L263.426 97.0098L270.406 90.2427L262.086 79.6044Z" fill="#6385DB"/>
<path d="M261.487 90.2612C261.487 90.2612 258.93 90.5942 258.938 91.2701C258.946 91.9459 259.575 93.3345 259.891 93.3963C260.207 93.4579 261.972 91.5185 261.972 91.5185L261.487 90.2612Z" fill="#FFB27D"/>
<path d="M262.378 71.6328C262.378 71.6328 265.792 71.8994 267.101 75.4418C268.41 78.9842 270.893 84.932 270.893 85.9325C270.893 86.9332 269.506 90.0176 262.056 91.7908C262.056 91.7908 261.285 90.8886 261.332 90.1748C261.332 90.1748 265.983 85.7275 265.97 85.2078C265.947 84.2246 265.208 82.9268 261.125 78.3794C260.015 77.1432 262.378 71.6328 262.378 71.6328Z" fill="#23569E"/>
<path d="M260.144 72.0476C259.857 71.1525 259.492 68.8094 259.498 67.1533L259.282 67.2005L255.648 68.0015C255.648 68.0015 255.731 69.2744 255.734 70.4735C255.734 70.4838 255.734 70.4935 255.734 70.5036C255.738 71.545 255.73 72.3828 255.828 72.6666C256.174 73.6662 260.382 72.7908 260.144 72.0476Z" fill="#FFB27D"/>
<path d="M255.648 68.0012C255.648 68.0012 255.731 69.2741 255.734 70.4732C257.767 70.4095 258.841 68.3447 259.282 67.2002L255.648 68.0012Z" fill="#E8945B"/>
<path d="M254.997 69.137C254.997 69.137 259.807 69.2254 259.81 65.8895C259.813 62.5538 260.437 60.3184 257.366 60.121C254.294 59.9236 253.696 61.1956 253.452 62.3088C253.208 63.422 253.745 69.0284 254.997 69.137Z" fill="#FFB27D"/>
<path d="M255.164 60.0398C255.164 60.0398 256.481 63.9535 258.502 64.5323C260.524 65.111 261.401 64.508 261.401 64.508C261.401 64.508 259.85 63.1366 259.528 60.7432C259.528 60.7432 256.158 58.1771 255.164 60.0398Z" fill="#163560"/>
<path d="M255.522 60.357C255.522 60.357 254.545 60.7634 254.143 61.5564C253.75 62.3319 253.415 63.3589 253.493 64.6189C253.493 64.6189 252.5 61.9588 253.616 60.4538C254.798 58.8585 255.522 60.357 255.522 60.357Z" fill="#163560"/>
<path d="M124.132 146.992L124.173 146.991C124.508 146.985 124.766 146.684 124.734 146.339L122.504 121.868L120.559 122.058L123.76 146.661C123.785 146.853 123.945 146.996 124.132 146.992Z" fill="#A4B5FF"/>
<path d="M102.64 146.992L102.599 146.991C102.264 146.985 102.006 146.684 102.038 146.339L104.268 121.868L106.213 122.058L103.012 146.661C102.987 146.853 102.827 146.996 102.64 146.992Z" fill="#A4B5FF"/>
<path d="M103.325 118.308L99.3664 96.8285C98.8584 93.9202 101.051 91.2611 103.899 91.3325L111.532 91.5242C114.166 91.5903 116.455 93.5269 117.187 96.3075L122.978 118.308H103.325Z" fill="#A4B5FF"/>
<path d="M105.696 118.308L101.738 96.8285C101.23 93.9202 103.422 91.2611 106.27 91.3325L113.903 91.5242C116.537 91.5903 118.826 93.5269 119.558 96.3075L125.349 118.308H105.696Z" fill="#A4B5FF"/>
<path d="M104.412 122.226H134.628C135.231 122.226 135.724 121.677 135.724 121.005V119.528C135.724 118.857 135.231 118.308 134.628 118.308H103.316V121.005C103.316 121.677 103.81 122.226 104.412 122.226Z" fill="#A4B5FF"/>
<path d="M118.574 122.225H137.838C138.324 122.225 138.721 121.783 138.721 121.242V119.291C138.721 118.75 138.324 118.308 137.838 118.308H118.574C118.089 118.308 117.691 118.75 117.691 119.291V121.242C117.691 121.783 118.089 122.225 118.574 122.225Z" fill="#A4B5FF"/>
<path d="M116.215 73.0933C116.215 73.0933 113.857 72.1219 111.706 73.9716C109.555 75.8212 110.681 80.6091 110.681 80.6091C110.681 80.6091 108.684 81.3074 108.786 83.5471C108.889 85.7865 105.821 84.6846 105.868 87.5721C105.914 90.4594 110.162 90.9638 113.187 90.9638C116.212 90.9638 122.254 87.5466 121.179 85.7201C120.103 83.8937 118.469 81.1648 118.646 80.191C118.823 79.2173 119.22 75.9107 119.22 75.9107C119.22 75.9107 118.703 73.243 116.215 73.0933Z" fill="#233862"/>
<path d="M118.103 86.7385C118.119 86.7443 116.659 87.7549 115.469 87.5423C114.35 87.3433 113.165 85.7957 113.18 85.7907C113.632 85.6446 114.032 85.085 113.75 82.1992L113.963 82.2206L117.54 82.5842C117.54 82.5842 117.571 83.7622 117.672 84.864C117.758 85.7894 117.893 86.6612 118.103 86.7385Z" fill="#FFB27D"/>
<path d="M117.554 82.5843C117.554 82.5843 117.585 83.7623 117.687 84.8641C115.718 85.0138 114.501 83.227 113.977 82.2207L117.554 82.5843Z" fill="#ED975D"/>
<path d="M118.309 83.5579C118.309 83.5579 113.673 84.1318 113.38 81.0674C113.087 78.003 112.291 76.0133 115.239 75.5174C118.187 75.0214 118.875 76.1288 119.208 77.1262C119.54 78.1241 119.508 83.3296 118.309 83.5579Z" fill="#FFB27D"/>
<path d="M118.659 75.5523C118.659 75.5523 116.42 78.9479 114.519 79.6866C112.618 80.4252 111.719 79.9612 111.719 79.9612C111.719 79.9612 112.626 78.6383 112.925 76.8178C113.013 76.2811 113.365 75.8344 113.85 75.6548C115.213 75.1508 117.842 74.3785 118.659 75.5523Z" fill="#233862"/>
<path d="M116.777 75.8033C116.777 75.8033 117.974 76.5272 118.452 77.1749C118.913 77.8 119.406 79.46 119.335 80.1912C119.335 80.1912 120.089 76.7058 118.882 75.4376C117.601 74.0927 116.777 75.8033 116.777 75.8033Z" fill="#233862"/>
<path d="M121.697 94.8695C121.557 104.791 122.026 103.347 121.002 104.288C120.755 104.515 119.693 104.021 118.78 104.085C115.908 104.287 110.86 103.785 110.668 103.223C110.005 101.278 110.473 100.674 109.92 97.6951C109.863 97.3782 109.791 97.0356 109.708 96.6621C109.247 94.6165 108.799 93.9205 110.433 90.6344C111.916 87.6574 113.517 85.2792 113.655 85.3666C117.566 87.8261 117.821 85.7206 117.821 85.7206C117.821 85.7206 121.765 90.0301 121.697 94.8695Z" fill="#23569E"/>
<path d="M117.809 85.7207C117.809 85.7207 121.833 86.4437 122.306 88.2792C122.778 90.1148 126.234 100.231 126.234 100.231C126.234 100.231 123.513 101.296 122.568 100.295C121.623 99.2933 119.279 91.0049 119.279 91.0049L117.809 85.7207Z" fill="#23569E"/>
<path d="M118.75 104.085C115.878 104.287 110.83 103.786 110.638 103.224C109.976 101.278 110.443 100.674 109.891 97.6956L111.238 94.4468C111.238 94.4468 111.047 98.1649 112.328 99.3753C113.607 100.585 117.572 101.711 118.195 102.723C118.495 103.208 118.692 103.695 118.75 104.085Z" fill="#233862"/>
<path d="M119.039 101.969C119.039 101.969 119.894 102.75 120.138 102.814C120.381 102.877 120.519 102.818 120.519 102.818L119.896 102.045L119.039 101.969Z" fill="#FFB27D"/>
<path d="M118.672 101.047L120.838 101.639C120.838 101.639 120.782 101.802 120.536 101.842C120.291 101.883 119.634 101.777 119.634 101.777L118.672 101.047Z" fill="#FFB27D"/>
<path d="M115.016 102.312C115.016 102.312 118.107 100.855 118.688 101.047C119.268 101.24 120.756 102.074 120.989 102.426C121.223 102.777 119.771 102.382 119.317 102.352C119.023 102.333 118.341 102.76 118.003 102.966C116.578 103.833 115.589 103.756 115.589 103.756L115.016 102.312Z" fill="#FFB27D"/>
<path d="M113.638 85.3672C113.638 85.3672 109.264 86.2366 108.454 87.5211C106.686 90.3231 102.923 101.934 105.03 103.49C107.404 105.244 115.832 103.949 115.832 103.949C115.832 103.949 116.113 102.56 115.723 101.888C115.332 101.217 108.991 100.131 108.698 99.8212C108.405 99.511 111.589 95.0273 111.25 94.1692C110.164 91.4197 113.638 85.3672 113.638 85.3672Z" fill="#23569E"/>
<path d="M130.939 101.816C130.939 101.816 134 102.692 134.315 103.196C134.629 103.699 135.246 105.238 135.22 105.639C135.193 106.041 134.358 104.845 134.045 104.539C133.842 104.341 133.108 104.224 132.747 104.162C131.837 104.006 131.398 103.565 131.057 103.345C130.828 103.198 130.551 103.225 130.551 103.225L130.939 101.816Z" fill="#FFB27D"/>
<path d="M134.027 104.078C134.027 104.078 134.213 105.181 134.355 105.38C134.497 105.578 134.63 105.622 134.63 105.622L134.608 104.669L134.027 104.078Z" fill="#FFB27D"/>
<path d="M134.324 103.195L135.569 104.982C135.569 104.982 135.437 105.065 135.236 104.941C135.036 104.817 134.617 104.328 134.617 104.328L134.324 103.195Z" fill="#FFB27D"/>
<path d="M131.039 103.345C131.039 103.345 131.323 104.075 131.889 104.336C132.456 104.598 132.872 104.991 132.963 104.849C133.054 104.708 132.534 103.964 132.534 103.964L131.039 103.345Z" fill="#FFB27D"/>
<path d="M125.42 97.8369L131.857 102.148C131.857 102.148 131.181 103.107 130.955 103.194C129.763 103.657 124.402 103.213 122.566 100.293L125.42 97.8369Z" fill="#23569E"/>
<path d="M92.3001 145.511L92.339 145.51C92.6582 145.504 92.905 145.213 92.8747 144.879L90.7452 121.2L88.8867 121.384L91.9447 145.191C91.9687 145.377 92.1214 145.515 92.3001 145.511Z" fill="#A4B5FF"/>
<path d="M71.7921 145.511L71.753 145.51C71.4339 145.504 71.1871 145.213 71.2174 144.879L73.347 121.2L75.2053 121.384L72.1474 145.191C72.1235 145.377 71.9706 145.515 71.7921 145.511Z" fill="#A4B5FF"/>
<path d="M107.355 145.511L107.394 145.51C107.713 145.504 107.96 145.213 107.93 144.879L105.8 121.2L103.941 121.384L107 145.191C107.023 145.377 107.176 145.515 107.355 145.511Z" fill="#A4B5FF"/>
<path d="M72.4442 117.755L68.6639 96.9708C68.1787 94.1568 70.273 91.5836 72.9926 91.6527L80.2832 91.8382C82.7983 91.902 84.9851 93.7762 85.684 96.4666L91.2149 117.755L72.4442 117.755Z" fill="#A4B5FF"/>
<path d="M74.7606 117.755L70.9803 96.9708C70.4951 94.1568 72.5895 91.5836 75.3088 91.6527L82.5996 91.8382C85.1147 91.902 87.3015 93.7762 88.0004 96.4666L93.5312 117.755L74.7606 117.755Z" fill="#A4B5FF"/>
<path d="M73.4875 121.545H102.332C102.912 121.545 103.386 121.017 103.386 120.372V118.927C103.386 118.282 102.912 117.754 102.332 117.754H72.4336V120.372C72.4336 121.017 72.908 121.545 73.4875 121.545Z" fill="#A4B5FF"/>
<path d="M87.0518 121.545H105.44C105.907 121.545 106.289 121.12 106.289 120.6V118.699C106.289 118.18 105.907 117.754 105.44 117.754H87.0518C86.585 117.754 86.2031 118.18 86.2031 118.699V120.6C86.203 121.12 86.585 121.545 87.0518 121.545Z" fill="#A4B5FF"/>
<path d="M90.0558 74.1076C90.0558 74.1076 89.1983 71.1594 85.4291 71.2937C85.4291 71.2937 84.6752 69.7158 82.866 69.9844C81.0567 70.253 80.0617 77.5382 81.7805 79.3174C83.4994 81.0967 84.5657 81.15 84.5657 81.15L90.0558 74.3822V74.1076Z" fill="#233862"/>
<path d="M88.4355 86.9564C88.4519 86.966 86.7604 87.8224 85.5392 87.3733C84.3902 86.9519 83.3784 85.0263 83.3947 85.0235C83.8932 84.9431 84.4002 84.3955 84.5415 81.1504L84.7625 81.212L88.4751 82.2569C88.4751 82.2569 88.3282 83.5662 88.2675 84.8044C88.2165 85.8437 88.227 86.8329 88.4355 86.9564Z" fill="#FFB27D"/>
<path d="M88.4891 82.2564C88.4891 82.2564 88.4891 82.5257 88.3504 83.744C86.2508 83.1542 85.325 82.3791 84.6719 81.4922L88.4891 82.2564Z" fill="#ED975D"/>
<path d="M89.2456 82.4221C89.2456 82.4221 84.3361 83.3119 83.8856 79.8997C83.4345 76.4875 82.4975 74.3039 85.6129 73.5917C88.7282 72.8792 89.5107 74.0814 89.9101 75.1795C90.3092 76.2777 90.5109 82.1027 89.2456 82.4221Z" fill="#FFB27D"/>
<path d="M89.2347 73.4489C89.2347 73.4489 87.0051 77.3669 85.015 78.2948C83.0247 79.2228 82.0469 78.7518 82.0469 78.7518C82.0469 78.7518 82.9523 77.2233 83.1883 75.1709C83.2578 74.5659 83.6118 74.0474 84.1203 73.8205C85.5485 73.1838 88.3113 72.1795 89.2347 73.4489Z" fill="#233862"/>
<path d="M87.2891 73.8267C87.2891 73.8267 88.596 74.5726 89.1341 75.2717C89.6535 75.9461 90.2532 77.7768 90.2104 78.5987C90.2104 78.5987 90.8549 74.6594 89.5125 73.3053C88.0886 71.869 87.2891 73.8267 87.2891 73.8267Z" fill="#233862"/>
<path d="M92.3504 95.2923C92.2013 106.402 95.8792 103.293 94.7876 104.347C94.5245 104.601 93.4482 106.492 89.3883 106.716C86.3254 106.886 80.8032 105.277 80.5985 104.647C79.8927 102.469 80.3912 101.792 79.8022 98.4565C79.7409 98.102 79.6649 97.7179 79.5757 97.2998C79.0848 95.009 78.6067 94.2299 80.3485 90.5498C81.9282 87.2164 83.7859 84.5084 83.9334 84.6061C88.101 87.3605 88.2438 85.0516 88.2438 85.0516C88.2438 85.0516 92.4235 89.8733 92.3504 95.2923Z" fill="white"/>
<path d="M88.2656 85.0522C88.2656 85.0522 92.5311 85.8572 93.0345 87.9127C93.538 89.9684 98.4605 105.524 98.4605 105.524C98.4605 105.524 93.2111 105.684 92.2038 104.562C91.1968 103.441 89.8098 90.9652 89.8098 90.9652L88.2656 85.0522Z" fill="#F99746"/>
<path d="M89.4258 103.931C89.4258 103.931 90.0584 104.84 90.2657 104.948C90.4732 105.057 90.6072 105.03 90.6072 105.03L90.1809 104.175L89.4258 103.931Z" fill="#FFB27D"/>
<path d="M89.2461 102.996L91.085 103.99C91.085 103.99 91.0068 104.133 90.7805 104.121C90.554 104.11 89.9829 103.877 89.9829 103.877L89.2461 102.996Z" fill="#FFB27D"/>
<path d="M88.3037 84.3271L88.2656 85.0524C88.7503 86.9081 89.5701 92.6426 90.5914 97.0794L91.3052 90.7263L90.718 90.1925L90.9384 89.2938L89.0151 85.2301L88.3037 84.3271Z" fill="#ED7D2B"/>
<path d="M88.2373 114.825C81.6565 117.276 76.4453 115.629 76.4453 115.629L77.5208 108.548L78.1075 104.688L79.3658 96.3992L81.5156 88.5164L83.3955 87.249L85.0381 96.3992L88.2373 114.825Z" fill="#F99746"/>
<path d="M80.352 97.2607C80.2419 97.4541 80.237 101.219 83.4235 102.14C86.6096 103.061 78.7572 103.958 78.7572 103.958C78.7572 103.958 76.2254 101.794 76.2621 101.263C76.2988 100.732 80.352 97.2607 80.352 97.2607Z" fill="#ED7D2B"/>
<path d="M86.1309 105.458C86.1309 105.458 81.7651 108.24 77.5391 108.548L78.1258 104.688L86.1309 105.458Z" fill="#ED7D2B"/>
<path d="M85.7656 103.446C85.7656 103.446 88.7846 102.697 89.2717 102.995C89.7587 103.294 90.9491 104.38 91.0982 104.758C91.2474 105.136 90.0138 104.471 89.6125 104.351C89.3528 104.274 88.6687 104.538 88.3302 104.664C86.9055 105.193 86.0325 104.921 86.0325 104.921L85.7656 103.446Z" fill="#FFB27D"/>
<path d="M83.9436 84.6069C83.9436 84.6069 79.671 84.8849 78.2679 87.0637C76.2923 90.1312 72.3739 103.203 74.6198 104.946C77.1487 106.909 86.1298 105.46 86.1298 105.46C86.1298 105.46 86.4288 103.904 86.013 103.152C85.597 102.4 78.8393 101.185 78.5275 100.837C78.2158 100.49 82.4261 94.0662 82.4261 93.0247C82.4262 91.9831 83.9436 84.6069 83.9436 84.6069Z" fill="#F99746"/>
<path d="M84.1571 83.9961L85.023 96.4007L83.0416 91.6511L83.3811 90.8057C83.3811 90.8057 82.6562 89.4166 82.6562 89.2533C82.6562 89.0899 82.8626 84.7406 82.8626 84.7406L84.1571 83.9961Z" fill="#ED7D2B"/>
<path d="M57.7964 145.511L57.8353 145.511C58.1544 145.504 58.4011 145.214 58.3709 144.879L56.2414 121.2L54.3828 121.385L57.4408 145.192C57.4651 145.377 57.6177 145.515 57.7964 145.511Z" fill="#A4B5FF"/>
<path d="M37.2881 145.511L37.2491 145.511C36.93 145.504 36.6833 145.214 36.7134 144.879L38.8431 121.2L40.7016 121.385L37.6436 145.192C37.6196 145.377 37.4669 145.515 37.2881 145.511Z" fill="#A4B5FF"/>
<path d="M72.8545 145.511L72.8939 145.511C73.213 145.504 73.4597 145.214 73.4294 144.879L71.2997 121.2L69.4414 121.385L72.4994 145.192C72.5232 145.377 72.6761 145.515 72.8545 145.511Z" fill="#A4B5FF"/>
<path d="M37.9443 117.756L34.1639 96.9717C33.6787 94.1577 35.7731 91.5845 38.4926 91.6536L45.7833 91.8391C48.2983 91.9029 50.4853 93.7771 51.1841 96.4675L56.7151 117.756L37.9443 117.756Z" fill="#A4B5FF"/>
<path d="M40.2606 117.756L36.4803 96.9717C35.9951 94.1577 38.0895 91.5845 40.809 91.6536L48.0996 91.8391C50.6147 91.9029 52.8015 93.7771 53.5006 96.4675L59.0314 117.756L40.2606 117.756Z" fill="#A4B5FF"/>
<path d="M38.9871 121.545H67.8321C68.4115 121.545 68.8858 121.017 68.8858 120.372V118.928C68.8858 118.283 68.4115 117.755 67.8321 117.755H37.9336V120.373C37.9336 121.017 38.4078 121.545 38.9871 121.545Z" fill="#A4B5FF"/>
<path d="M52.5518 121.545H70.9397C71.4064 121.545 71.7884 121.12 71.7884 120.6V118.7C71.7884 118.18 71.4064 117.755 70.9397 117.755H52.5518C52.0848 117.755 51.7031 118.18 51.7031 118.7V120.6C51.7031 121.12 52.0848 121.545 52.5518 121.545Z" fill="#A4B5FF"/>
<path d="M53.1094 83.1173C53.1094 83.1173 58.4207 83.0672 59.6988 85.0628C60.977 87.0587 62.6769 99.7225 62.317 101.368C61.4826 105.182 58.118 99.8898 56.599 97.7015C55.0803 95.5132 53.1094 83.1173 53.1094 83.1173Z" fill="#2A4E96"/>
<path d="M62.1937 97.9023L63.6225 110.663H59.5298L58.4141 100.709L62.1937 97.9023Z" fill="#2A4E96"/>
<path d="M61.0242 110.663C61.0242 110.663 58.8151 97.7349 58.9446 93.5688C58.9446 93.5688 55.8964 105.498 56.3949 107.891C56.8933 110.283 60.4197 112.431 61.0242 110.663Z" fill="#1E3D70"/>
<path d="M43.2348 100.666L42.5061 111.994C42.4778 112.421 42.7228 112.808 43.0916 112.928C43.9073 113.191 44.8479 113.374 46.6616 113.793C48.3652 114.187 50.6571 114.536 53.4732 114.555C57.9525 114.587 59.6482 112.868 59.6482 112.868C59.8413 112.872 59.5465 111.828 59.2808 106.866C59.1907 105.185 59.104 103.054 59.0412 100.361C58.9846 97.9378 58.9465 95.0592 58.9429 91.6439C58.9382 87.5359 53.2266 83.116 53.121 83.116L53.1199 83.1181C53.1199 83.7095 52.2824 84.8012 50.993 84.8953C49.462 85.0067 47.5487 83.7767 47.5487 82.7954C47.5487 82.794 47.2819 83.0846 47.1799 83.2767C46.5765 84.4101 44.6745 88.8671 43.834 93.3676C43.7089 94.0346 43.6125 94.7385 43.5357 95.4791C43.5345 95.4904 43.5332 95.5018 43.5322 95.5129C43.5179 95.6481 43.5047 95.7843 43.4922 95.9215C43.4897 95.9454 43.4881 95.9699 43.4856 95.9939C43.4744 96.1186 43.4632 96.2445 43.4529 96.3711C43.4498 96.407 43.4759 96.4712 43.4446 96.4799C43.1377 96.5647 42.297 99.6916 43.2698 99.6629C43.5657 99.654 43.2462 100.326 43.2348 100.666C43.2343 100.675 43.2343 100.683 43.2336 100.692L43.2348 100.666Z" fill="#2A4E96"/>
<path d="M53.1905 82.2143L53.1876 82.8256C53.1876 82.8256 53.3371 84.7372 51.2228 85.0163C49.1085 85.2963 47.5067 84.2707 47.564 82.7956C47.7544 81.6533 47.9635 80.8691 47.9775 79.9242C47.9827 79.573 47.9612 79.2002 47.9025 78.7795L51.9994 78.6885L53.2062 78.9078L53.1905 82.2143Z" fill="#FFB27D"/>
<path d="M53.1709 78.908L53.155 81.2727C52.7199 81.4978 51.9215 81.5141 51.3009 81.3905C49.4477 81.0212 48.5621 80.3161 47.9259 79.2002C47.9311 78.8491 47.9259 79.2002 47.8672 78.7795L51.9641 78.6885L53.1709 78.908Z" fill="#E2915A"/>
<path d="M47.5639 78.0462C48.0392 80.8944 51.3403 80.801 52.7666 80.6219C53.1682 80.5723 53.4208 80.5151 53.4208 80.5151C53.8734 80.3805 54.1261 79.5868 54.2435 78.547C54.4763 76.4894 54.1821 73.4686 53.8698 72.6962C53.3997 71.5335 52.5149 70.2764 49.1905 71.1833C45.8657 72.0912 46.9539 74.3971 47.5639 78.0462Z" fill="#FFB27D"/>
<path d="M54.8776 69.985C54.8776 69.985 53.4143 69.8596 51.6883 69.0243C50.2877 68.3462 48.5205 69.0928 47.9467 69.4293C47.9622 69.3265 47.9989 69.186 48.0865 69.045C48.0865 69.045 47.8288 69.2483 47.791 69.5328C47.7644 69.5545 47.7526 69.5694 47.7594 69.5745C47.7594 69.5745 47.4676 69.515 47.2799 69.6091C47.2799 69.6091 47.4112 69.5882 47.458 69.6823C47.463 69.6922 47.4705 69.7003 47.4791 69.708C45.2939 70.8833 45.0923 74.728 45.7954 75.6177C46.6414 76.6879 47.7628 78.8735 47.7628 78.8735C47.7628 78.8735 48.0258 78.5288 47.872 77.5868C47.7182 76.645 48.4489 76.645 49.3717 76.2168C50.2947 75.7887 49.5255 74.59 50.3332 73.8622C51.1405 73.1344 54.1015 73.5625 54.0631 73.0059C55.1622 72.5604 54.8776 70.1102 54.8776 69.985Z" fill="#233862"/>
<path d="M44.966 91.3872C44.966 91.3872 42.3541 101.514 50.5861 102.765C50.5861 102.765 40.6172 101.936 40.6172 101.797C40.6172 101.658 44.966 91.3872 44.966 91.3872Z" fill="#1E3D70"/>
<path d="M47.5482 82.7954C47.5482 82.7954 42.0057 83.2979 41.0087 84.6157C40.0119 85.9337 37.0712 100.571 37.9869 103.414C38.5476 105.156 45.641 103.884 49.4041 104.004L49.9972 102.825C49.9972 102.825 42.9059 99.6338 42.9059 99.0788C42.9059 97.7129 47.5482 82.7954 47.5482 82.7954Z" fill="#2A4E96"/>
<path d="M49.9838 102.825C49.9838 102.825 51.7894 102.582 52.2567 102.825C52.724 103.068 53.8146 103.796 53.8146 104.005C53.8146 104.213 49.3906 104.005 49.3906 104.005L49.9838 102.825Z" fill="#FFB27D"/>
<path d="M78.8118 104.506H27.8203V146.984H78.8118V104.506Z" fill="#163560"/>
<path d="M138.409 146.977H53.2305L62.5398 104.499H146.788L138.409 146.977Z" fill="#23569E"/>
<path d="M154.469 103.786H21.543V105.417H154.469V103.786Z" fill="#163560"/>
<path d="M71.0234 115.977L74.3305 118.037L77.9382 111.909H73.4747L71.0234 115.977Z" fill="#EBF3FA"/>
<path d="M77.4568 117.741L76.1445 118.564L80.3536 118.764L81.9608 115.166L80.7352 115.887L78.6538 112.076C78.6538 112.076 76.4336 115.758 76.4104 115.835C76.4104 115.835 77.4568 117.741 77.5321 117.799L77.4568 117.741Z" fill="#EBF3FA"/>
<path d="M82.825 119.577L79.5508 121.701L82.4571 128.275L84.7258 123.996L82.825 119.577Z" fill="#EBF3FA"/>
<path d="M78.1673 124.375L78.1882 123.185L75.8945 127.119L77.8609 130.489L77.8326 128.901L81.9318 128.889C81.9318 128.889 79.928 124.437 79.88 124.375H78.1673Z" fill="#EBF3FA"/>
<path d="M74.1297 128.902L74.0941 124.537L67.9766 124.375L69.9842 128.902H74.1297Z" fill="#EBF3FA"/>
<path d="M72.5343 121.494L73.7595 122.47L72.1445 118.138L68.5362 118.036L69.6408 118.968L67.8555 123.597C67.8555 123.597 71.6188 123.668 71.6915 123.658C71.6915 123.658 72.5345 121.494 72.55 121.393L72.5343 121.494Z" fill="#EBF3FA"/>
<path d="M47.6559 162.262C47.6559 162.262 47.1139 162.214 46.3151 161.992H46.3007C44.4751 161.5 41.3514 160.07 40.5385 156.18C39.3689 150.59 44.7118 139.969 44.7118 139.969L47.6559 162.262Z" fill="#599DAD"/>
<path d="M64.052 156.852C64.052 156.852 69.1328 165.446 70.3824 165.51C71.6596 165.576 72.4837 165.252 73.5103 165.991C74.2481 166.522 76.4646 169.137 75.8134 168.886C75.1623 168.635 73.9729 168.277 73.6574 168.194C73.2231 168.079 72.5177 167.96 72.0496 167.794C71.7535 167.689 70.6624 167.486 70.2989 167.416C68.7188 167.114 61.8164 161.079 61.8164 161.079L64.052 156.852Z" fill="#F4A269"/>
<path d="M84.7841 180.969H75.4559C75.4416 180.938 75.4274 180.922 75.4131 180.906C75.2278 180.652 74.9996 180.509 74.6998 180.493C74.5574 180.477 74.2863 180.493 73.8869 180.525C73.3308 180.573 72.5605 180.636 71.6191 180.7C70.7203 180.779 69.6651 180.843 68.5239 180.906C68.1102 180.922 67.6966 180.954 67.2688 180.97C66.6696 180.986 66.0422 181.017 65.4146 181.017C64.573 181.049 63.7031 181.049 62.833 181.017L61.421 180.97C61.2925 180.97 61.1642 180.954 61.0214 180.954C60.8504 180.938 60.6649 180.922 60.4794 180.906C59.7806 180.859 59.0817 180.795 58.4257 180.7C57.0136 180.509 55.7014 180.239 54.5889 179.81C53.7758 179.525 53.0627 179.144 52.5064 178.683C52.0643 178.334 51.7075 177.937 51.4651 177.46C51.4226 177.381 51.3794 177.302 51.3511 177.222C50.6522 175.761 50.2814 174.316 50.1387 172.982C49.8392 170.203 50.4525 167.869 50.7807 166.853C50.8946 166.504 50.9803 166.313 50.9803 166.313L55.2022 165.249C55.2022 165.249 56.5144 165.376 58.5541 165.598C58.9821 165.662 59.4529 165.71 59.952 165.773C61.1786 165.916 62.5622 166.091 64.0313 166.297C65.8572 166.551 67.8112 166.853 69.7081 167.186H69.7222C71.8619 167.552 73.9301 167.964 75.6987 168.425C77.6811 168.933 79.2931 169.505 80.1487 170.108C81.532 171.077 83.1864 175.507 84.7841 180.969Z" fill="#163560"/>
<path d="M78.2015 180.969H67.2618C66.6626 180.985 66.0352 181.017 65.4076 181.017C65.3933 181.033 65.3933 181.064 65.3933 181.08C64.6373 181.112 63.7672 181.144 62.826 181.16C62.2553 181.176 61.6563 181.176 61.0287 181.176C60.2014 181.176 59.3314 181.16 58.4471 181.128C57.5484 181.096 56.6357 181.049 55.7229 180.969C55.4661 180.953 55.2095 180.938 54.9527 180.906C52.8845 180.699 50.8876 180.366 49.233 179.81C48.0065 179.397 46.9652 178.873 46.2236 178.175C46.2236 178.175 46.2236 178.175 46.2092 178.175C45.8098 177.825 45.496 177.428 45.2821 176.968C45.1681 176.729 45.0825 176.507 45.011 176.285C44.9113 175.952 44.84 175.634 44.7971 175.332C44.7115 174.649 44.7687 174.094 44.9397 173.474V173.347C45.8241 169.853 49.9889 167.313 50.7736 166.853C50.8591 166.821 50.9017 166.789 50.9017 166.789C50.9017 166.789 54.425 166.979 58.7893 167.424C59.2316 167.472 59.6737 167.519 60.1158 167.567C60.4296 167.599 60.7433 167.647 61.0571 167.678C66.3774 168.329 72.2109 169.346 74.1935 170.87C75.4631 171.838 76.875 175.888 78.2015 180.969Z" fill="#163560"/>
<path d="M45.1411 139.329C45.1482 139.318 45.157 139.308 45.1657 139.296C45.3189 139.104 45.5021 138.928 45.7045 138.771L45.7115 138.765C45.7115 138.765 45.7115 138.765 45.7132 138.765C47.2906 137.538 50.1089 137.275 50.1089 137.275V137.278C50.1092 137.277 50.1092 137.277 50.1093 137.276C50.1093 137.276 50.4173 137.244 50.9053 137.219C51.2746 136.152 51.6955 134.573 51.826 132.268L52.1052 132.351L56.8034 133.754C56.8034 133.754 56.5952 135.414 56.4978 136.985C56.4762 137.33 56.4604 137.669 56.4532 137.986C56.5892 138.042 56.715 138.096 56.8263 138.148V138.148C56.8263 138.148 59.5127 138.5 60.1481 139.261C60.7837 140.023 62.0547 145.088 62.3749 145.985L44.2872 146.314C44.2872 146.314 43.8331 141.052 45.1411 139.329Z" fill="#FFB27D"/>
<path d="M67.6061 159.738C67.5065 159.865 67.2212 160.42 66.8216 161.087C66.7076 161.278 66.5793 161.484 66.4508 161.707C65.8661 162.58 65.1531 163.501 64.3971 163.834C64.112 163.962 63.8267 163.994 63.5413 163.914C63.1278 163.803 62.4432 163.263 61.7584 162.548C61.2166 161.961 60.6602 161.262 60.2324 160.548C60.0612 160.278 59.9186 159.992 59.8046 159.722C59.7758 159.944 59.7474 160.151 59.7331 160.341C59.6334 161.389 59.6189 162.215 59.7758 162.596C59.9756 163.072 60.6032 163.549 61.3305 164.025C62.7711 164.946 64.554 165.852 63.9407 166.661C63.427 167.328 61.8439 167.551 60.1325 167.852C58.7914 168.106 57.3795 168.408 56.381 169.059C56.3384 169.091 56.3099 169.123 56.267 169.139C53.8566 170.726 46.6396 175.57 44.5001 175.347C43.6584 175.252 43.8153 173.474 44.3289 171.076C45.1276 167.328 46.8106 162.104 46.8106 159.833C46.8106 158.594 44.3146 146.32 44.3146 146.32C44.3146 146.32 43.791 141.007 45.1032 139.293C45.1032 139.293 45.3133 139.058 45.3922 138.992C45.4734 138.924 45.7411 138.761 45.7411 138.761C45.8267 138.824 48.337 141.111 51.5319 141.302C53.2293 141.397 55.5543 140.825 57.3513 140.254C58.9629 139.761 60.1755 139.269 60.1755 139.269C61.7445 140.174 62.0867 145.097 62.4005 145.986C62.4005 145.986 64.9964 157.388 65.6525 157.975C66.3225 158.562 67.9201 159.34 67.6061 159.738Z" fill="#599DAD"/>
<path d="M56.827 133.755C56.827 133.755 56.6188 135.415 56.5213 136.987C53.8623 136.705 52.6162 133.895 52.1289 132.353L56.827 133.755Z" fill="#F4A269"/>
<path d="M58.8186 134.704C58.8186 134.704 52.6075 135.994 51.9459 131.675C51.2842 127.356 50.0371 124.614 53.9748 123.608C57.9124 122.603 58.9373 124.104 59.4732 125.486C60.009 126.867 60.4173 134.258 58.8186 134.704Z" fill="#FFB27D"/>
<path d="M58.7294 121.999C58.7294 121.999 58.4728 118.373 53.7887 119.315C52.5503 119.563 51.699 117.105 49.6718 117.981C45.3069 119.867 45.0501 117.377 43.7885 120.872C43.2605 122.336 39.9024 124.039 40.928 126.567C41.9535 129.096 40.2375 130.797 41.4431 132.778C42.0669 133.803 41.8134 135.636 44.7567 135.701C46.2227 135.734 48.5059 138.758 50.1509 139.307C51.7961 139.857 56.736 139.064 56.5498 136.551C56.4047 134.591 54.9225 132.886 56.1839 130.632C57.2866 128.662 59.6619 128.541 60.714 125.356C61.4851 123.022 58.6692 123.947 58.7294 121.999Z" fill="#B5453C"/>
<path d="M75.7622 179.811H44.2545C44.2119 179.7 44.1833 179.573 44.1406 179.446V179.43C44.2832 179.224 44.5541 178.969 45.0675 178.683C46.1374 178.096 48.3053 177.445 52.6842 177.095C53.8252 177 55.1231 176.937 56.578 176.889C57.6191 176.858 58.6175 176.842 59.5447 176.842H60.586C62.7398 176.842 64.5796 176.921 66.1629 177.032C66.5051 177.064 66.8332 177.08 67.1469 177.111C69.9855 177.366 71.8822 177.763 73.1659 178.191C73.266 178.223 73.38 178.255 73.4656 178.287C73.7649 178.398 74.0217 178.493 74.2499 178.604C74.3639 178.652 74.464 178.715 74.5637 178.763C74.8918 178.922 75.1343 179.096 75.3055 179.24C75.3625 179.287 75.4052 179.319 75.4338 179.367C75.4624 179.382 75.4908 179.414 75.5195 179.446C75.5479 179.478 75.5765 179.493 75.5908 179.525C75.7336 179.7 75.7622 179.811 75.7622 179.811Z" fill="#163560"/>
<path d="M65.484 180.907C65.484 180.907 65.484 180.939 65.484 180.97V181.018C65.4697 181.034 65.4697 181.066 65.4697 181.081C64.7136 181.113 63.8436 181.145 62.9023 181.161V181.018C62.9023 181.002 62.9165 180.986 62.9165 180.97V180.907C62.9308 180.669 62.9594 180.542 62.9735 180.51C63.0877 180.335 63.8723 180.335 64.3571 180.351H64.6854C64.9704 180.367 65.4982 180.621 65.484 180.907Z" fill="#163560"/>
<path d="M74.2548 180.971H71.6875V180.907C71.6875 180.828 71.7018 180.749 71.7018 180.701C71.7161 180.59 71.7304 180.526 71.7447 180.51C71.8871 180.272 73.1566 180.352 73.4561 180.352H73.4705C73.6133 180.352 73.8127 180.431 73.9696 180.526C74.1408 180.622 74.2691 180.765 74.2548 180.907C74.2548 180.907 74.2548 180.939 74.2548 180.971Z" fill="#163560"/>
<path d="M76.4395 180.351C76.4395 180.51 76.3827 180.637 76.2969 180.748C76.2399 180.811 76.1686 180.859 76.0829 180.875C76.0401 180.907 75.9973 180.907 75.9546 180.907H46.658C46.658 180.891 46.658 180.891 46.658 180.875H44.5471C44.5471 180.875 44.5044 180.748 44.4329 180.494C44.4329 180.462 44.4188 180.43 44.4045 180.398C44.3759 180.239 44.3189 180.049 44.2617 179.811H75.9547C76.2113 179.811 76.4395 180.049 76.4395 180.351Z" fill="#163560"/>
<path d="M51.7539 179.81H75.7465C75.7465 179.81 75.0055 176.387 56.5711 176.896C55.1068 176.938 53.812 177.005 52.6658 177.096C52.7237 177.52 52.8188 178.913 51.7539 179.81Z" fill="#163560"/>
<path d="M61.5227 180.351C61.5227 180.51 61.4657 180.637 61.3658 180.748C61.3088 180.811 61.2374 180.859 61.1518 180.875C61.1091 180.907 61.066 180.907 61.0233 180.907H46.6033C46.6033 180.891 46.6033 180.891 46.6033 180.875H44.4924C44.4924 180.875 44.4497 180.748 44.3782 180.494C44.3782 180.462 44.3641 180.43 44.3498 180.398C44.3212 180.239 44.2642 180.049 44.207 179.811H61.0235C61.2947 179.811 61.5227 180.049 61.5227 180.351Z" fill="#163560"/>
<path d="M44.9807 178.685C44.9807 179.05 44.9807 179.432 44.9664 179.813V179.924C44.9664 180.114 44.8524 180.289 44.6813 180.369H44.6671C44.6242 180.384 44.5672 180.4 44.5102 180.416H44.4959C44.4816 180.416 44.4673 180.432 44.4531 180.432H44.4387C44.3961 180.432 44.3533 180.416 44.3104 180.4C44.2818 180.241 44.2248 180.051 44.1676 179.812C44.1251 179.701 44.0965 179.574 44.0538 179.447V179.431C44.0252 179.288 43.9823 179.13 43.9396 178.955V178.939C43.9396 177.43 43.8969 175.97 43.8399 174.524C43.74 172.333 43.5545 170.205 43.312 168.189C42.7414 163.33 41.8287 158.994 40.9016 155.406C40.3598 153.373 39.8176 151.563 39.3326 150.022C38.7765 148.323 38.263 146.973 37.892 146.005C37.892 145.989 37.8779 145.989 37.8779 145.973C37.835 145.655 37.8066 145.322 37.778 145.004C37.778 144.957 37.7637 144.925 37.7637 144.877V144.861C37.7067 144.385 37.664 143.925 37.6211 143.432C37.678 143.4 37.7494 143.385 37.835 143.385C38.4912 143.321 38.9048 143.48 39.0189 143.734C39.0331 143.75 39.8605 145.719 40.9729 149.244C41.0728 149.562 41.1727 149.879 41.2868 150.229C41.5007 150.975 41.7432 151.785 41.9857 152.658C42.0854 152.976 42.1712 153.309 42.2568 153.643C42.2852 153.69 42.2995 153.754 42.3138 153.818C42.4565 154.325 42.5849 154.85 42.6989 155.405C43.1267 157.152 43.4976 159.169 43.8257 161.376V161.423C44.2394 164.202 44.553 167.315 44.7671 170.634C44.9095 173.207 44.9951 175.906 44.9807 178.685Z" fill="#163560"/>
<path d="M60.0454 180.425C60.0429 180.425 60.0405 180.425 60.038 180.425C59.7527 180.421 59.5245 180.19 59.5288 179.908C59.819 159.856 52.8541 144.439 52.7837 144.285C52.6658 144.029 52.6883 143.455 53.4389 143.383C54.0951 143.319 54.502 143.478 54.6199 143.735C54.6378 143.774 56.1914 147.443 57.9169 153.82C59.5082 159.7 60.7154 169.328 60.562 179.922C60.5579 180.201 60.3274 180.425 60.0454 180.425Z" fill="#163560"/>
<path d="M39.8403 150.442C39.5932 150.442 39.3747 150.266 39.3317 150.018C39.2836 149.74 39.4725 149.477 39.7538 149.429C40.2012 149.354 50.7644 147.598 55.4928 149.063C55.7651 149.147 55.9164 149.433 55.831 149.702C55.7454 149.971 55.4556 150.121 55.1833 150.036C50.6923 148.645 40.0349 150.416 39.9279 150.434C39.8986 150.439 39.8694 150.442 39.8403 150.442Z" fill="#163560"/>
<path d="M41.1294 153.819C40.8823 153.819 40.6638 153.643 40.6208 153.395C40.5725 153.117 40.7617 152.854 41.0431 152.806C41.4904 152.731 52.0537 150.975 56.7819 152.44C57.054 152.524 57.2057 152.81 57.1201 153.079C57.0345 153.348 56.7445 153.498 56.4722 153.413C51.9796 152.021 41.3241 153.793 41.2172 153.811C41.1875 153.816 41.1582 153.819 41.1294 153.819Z" fill="#163560"/>
<path d="M44.4931 180.875C44.4931 180.875 44.4504 180.748 44.3789 180.494C44.4075 180.462 44.4361 180.446 44.4786 180.43H44.4931C44.5074 180.43 44.5215 180.414 44.5358 180.414H44.5501C44.6071 180.398 44.6641 180.382 44.707 180.367H44.7213C44.764 180.367 44.7926 180.351 44.8353 180.351C45.1207 180.351 46.3899 180.271 46.547 180.51C46.5613 180.541 46.5754 180.652 46.604 180.875H44.4931Z" fill="#163560"/>
<path d="M61.0714 181.177C60.2441 181.177 59.3742 181.161 58.4898 181.129C58.4898 181.066 58.4898 181.018 58.4755 180.97V180.907C58.4755 180.828 58.4612 180.764 58.4612 180.701V180.542C58.4469 180.256 58.9748 180.002 59.26 179.986H59.5595C59.8447 179.97 60.2584 179.97 60.572 180.002C60.7719 180.034 60.9287 180.065 60.9717 180.145C61.0001 180.192 61.0285 180.447 61.0571 180.907V180.955C61.0571 180.955 61.0571 180.955 61.0571 180.97C61.0571 181.034 61.0714 181.098 61.0714 181.177Z" fill="#163560"/>
<path d="M168.235 181.2H136.528C136.128 179.899 136.1 178.31 136.57 176.707C137.055 175.023 138.082 173.324 139.822 171.895C140.792 171.085 142.375 170.768 144.301 170.768C145.257 170.768 146.283 170.847 147.368 170.99H147.382C147.482 170.99 147.582 171.006 147.681 171.022C147.724 171.022 147.767 171.038 147.81 171.038C148.138 171.085 148.48 171.149 148.823 171.197C150.648 171.514 152.574 171.959 154.485 172.483C154.713 172.546 154.956 172.61 155.184 172.689C155.769 172.832 156.353 173.007 156.924 173.182C160.005 174.118 162.872 175.135 164.983 175.929C167.122 176.739 168.477 177.31 168.477 177.31C168.734 177.628 168.877 178.009 168.934 178.406C169.048 179.263 168.705 180.264 168.235 181.2Z" fill="#163560"/>
<path d="M163.029 181.2H155.355C156.169 179.644 157.124 178.405 158.237 177.627C159.349 176.849 160.604 176.531 162.045 176.833C162.088 176.849 162.116 176.849 162.145 176.865C162.145 176.865 163.129 177.516 163.029 181.2Z" fill="#163560"/>
<path d="M142.742 137.385C142.742 137.385 142.485 137.43 142.101 137.53C141.171 137.772 139.493 138.329 138.883 139.324C138.02 140.731 133.495 159.674 133.732 162.422C133.968 165.169 139.035 169.39 140.757 169.715L142.742 137.385Z" fill="#ED7D2B"/>
<path d="M147.829 140.397C147.847 140.413 147.814 143.287 145.583 142.669C144.118 142.263 141.291 139.553 141.829 138.208C142.084 137.568 143.517 136.082 144.463 132.166L144.717 132.307L148.996 134.677C148.996 134.677 148.505 136.23 148.137 137.722C147.826 138.975 147.604 140.185 147.829 140.397Z" fill="#F4A269"/>
<path d="M150.84 135.688C150.84 135.688 144.399 137.309 143.554 132.828C142.71 128.346 141.309 125.537 145.386 124.313C149.463 123.089 150.587 124.612 151.196 126.031C151.804 127.45 152.494 135.151 150.84 135.688Z" fill="#FFB27D"/>
<path d="M145.791 132.984C144.251 133.568 141.897 130.201 141.222 128.24C140.395 125.837 142.294 121.07 147.245 121.766C147.245 121.766 148.682 121.897 150.045 122.885C151.13 123.672 154.013 125.709 149.353 127.882C147.6 128.699 147.131 132.475 145.791 132.984Z" fill="#163560"/>
<path d="M174.122 181.201H142.572C142.358 180.566 142.258 179.851 142.258 179.105C142.258 178.819 142.272 178.549 142.301 178.263C142.315 178.041 142.343 177.834 142.386 177.612C142.415 177.485 142.429 177.374 142.458 177.247V177.231C142.557 176.818 142.686 176.405 142.843 175.992C143.399 174.547 144.369 173.118 145.852 171.895C146.266 171.562 146.794 171.292 147.393 171.117C147.478 171.085 147.578 171.054 147.678 171.038V171.022C147.735 171.022 147.778 171.006 147.821 170.99C148.12 170.927 148.434 170.863 148.776 170.831C150.559 170.593 152.813 170.784 155.195 171.197C155.209 171.197 155.209 171.197 155.223 171.197C155.466 171.229 155.708 171.276 155.965 171.324H155.979C158.29 171.768 160.729 172.388 163.025 173.023C163.068 173.039 163.097 173.039 163.139 173.054C163.154 173.054 163.154 173.054 163.154 173.054C163.824 173.229 164.466 173.42 165.108 173.595C165.25 173.642 165.407 173.69 165.564 173.722C166.363 173.96 167.133 174.182 167.861 174.388C168.331 174.515 168.788 174.674 169.201 174.817L169.301 174.849C171.797 175.754 173.395 176.85 173.395 176.85C173.395 176.85 174.222 177.692 174.122 181.201Z" fill="#163560"/>
<path d="M136.198 176.244C136.536 176.769 137.11 177.226 137.856 177.612H137.857C143.189 180.381 155.954 174.255 155.348 170.156C155.134 168.712 154.124 168.72 153.336 166.363C152.725 164.532 152.284 162.817 152.304 161.139C152.313 160.428 152.406 159.721 152.603 159.015C153.084 157.304 153.525 154.553 153.804 151.62C154.281 146.625 153.055 141.225 151.984 139.449C151.832 139.198 143.89 136.79 137.051 139.268C137.051 139.268 136.511 148.112 138.073 157.341C138.282 158.572 138.183 159.842 137.783 161.014C136.538 164.669 134.087 172.958 136.198 176.244Z" fill="#F99746"/>
<path d="M155.359 170.157C155.145 168.714 154.135 168.722 153.347 166.364C152.735 164.533 152.294 162.818 152.315 161.141C152.323 160.429 152.417 159.722 152.614 159.017C153.095 157.305 153.535 154.554 153.815 151.621C152.285 149.144 150.382 147.859 150.382 147.859C148.508 151.967 148.775 155.939 149.696 159.144C149.699 159.231 150.297 179.742 137.867 177.614C143.2 180.382 155.965 174.257 155.359 170.157Z" fill="#ED7D2B"/>
<path d="M148.215 130.26C148.215 130.26 147.572 128.803 146.976 129.084C146.378 129.366 147.205 131.717 147.595 131.691C147.986 131.666 148.215 130.26 148.215 130.26Z" fill="#FFB27D"/>
<path d="M145.574 124.256V124.24C145.26 123.24 144.903 122.446 144.518 122.002H144.504V121.986C144.375 121.843 144.247 121.747 144.119 121.684C139.968 119.747 135.974 126.289 137.344 131.688C137.929 134.022 135.033 136.722 132.294 138.945C129.984 140.819 129.527 143.248 129.756 145.392C130.07 148.282 131.524 150.791 133.778 151.665C132.722 149.934 132.68 148.203 132.68 147.901C132.765 148.822 133.336 149.775 133.935 150.553C134.377 151.125 134.891 151.617 135.49 152.014C135.49 152.03 135.504 152.03 135.504 152.03C136.046 152.395 136.645 152.681 137.273 152.872C137.33 152.903 137.401 152.919 137.458 152.935C139.284 153.475 140.667 153.761 141.708 153.872C142.236 153.935 142.678 153.935 143.049 153.919C144.147 153.872 144.604 153.554 144.804 153.332C144.918 153.173 144.932 153.062 144.932 153.062C147.97 147.504 141.138 147.06 143.877 141.676C144.076 141.295 144.304 140.898 144.604 140.469C144.932 139.818 145.174 138.993 145.36 138.199C145.545 137.357 145.674 136.563 145.731 136.071C145.674 136.928 145.617 137.627 145.517 138.199C145.388 139.009 145.231 139.58 145.089 139.993C145.46 139.532 145.759 138.945 145.987 138.23C146.23 137.516 146.415 136.69 146.529 135.785C146.629 135.039 146.686 134.244 146.701 133.419C146.715 132.974 146.715 132.514 146.701 132.069C146.701 132.053 146.701 132.053 146.701 132.037C146.643 129.195 146.201 126.289 145.574 124.256Z" fill="#163560"/>
<path d="M133.934 181.201H132.85C132.08 163.67 126.246 150.743 126.175 150.601C126.061 150.347 126.089 149.775 126.831 149.696C127.487 149.632 127.901 149.791 128.015 150.045C128.029 150.077 128.857 152.03 129.969 155.555C130.069 155.873 130.169 156.19 130.269 156.54C130.511 157.286 130.739 158.096 130.996 158.969C131.081 159.287 131.167 159.62 131.267 159.954C131.281 160.001 131.295 160.065 131.31 160.129C132.651 165.067 133.706 172.641 133.934 181.201Z" fill="#163560"/>
<path d="M149.461 181.2H148.377C148.305 179.723 148.206 178.279 148.077 176.865C148.077 176.833 148.077 176.802 148.063 176.77C147.906 175.039 147.706 173.388 147.464 171.784C147.435 171.562 147.393 171.339 147.364 171.117C147.364 171.069 147.35 171.022 147.35 170.99H147.335C146.651 166.591 145.724 162.732 144.84 159.573C144.725 159.191 144.611 158.826 144.512 158.477C144.269 157.683 144.041 156.937 143.813 156.254C143.684 155.857 143.556 155.476 143.442 155.126C143.285 154.697 143.142 154.301 143.014 153.919C142.486 152.459 142.072 151.442 141.858 150.95C141.759 150.728 141.702 150.616 141.702 150.601C141.616 150.41 141.616 150.045 141.916 149.838C142.03 149.775 142.172 149.712 142.358 149.696C143.014 149.632 143.428 149.791 143.542 150.045C143.556 150.077 144.041 151.22 144.768 153.332C145.339 155.015 146.066 157.318 146.836 160.129C147.478 162.479 148.049 165.416 148.505 168.783V168.799C148.591 169.45 148.676 170.133 148.747 170.832C148.762 170.942 148.776 171.07 148.79 171.197C148.976 172.801 149.118 174.484 149.233 176.247C149.233 176.294 149.247 176.342 149.247 176.405C149.347 177.961 149.418 179.565 149.461 181.2Z" fill="#163560"/>
<path d="M128.829 156.758C128.582 156.758 128.363 156.582 128.32 156.334C128.272 156.056 128.461 155.793 128.742 155.746C129.189 155.67 139.753 153.915 144.481 155.379C144.753 155.464 144.905 155.75 144.819 156.018C144.734 156.287 144.444 156.437 144.172 156.352C139.681 154.961 129.023 156.733 128.916 156.751C128.887 156.756 128.858 156.758 128.829 156.758Z" fill="#163560"/>
<path d="M130.048 160.135C129.801 160.135 129.582 159.96 129.539 159.711C129.491 159.434 129.68 159.17 129.961 159.123C130.408 159.047 140.972 157.291 145.7 158.756C145.972 158.841 146.124 159.127 146.038 159.396C145.952 159.664 145.663 159.814 145.39 159.729C140.898 158.337 130.242 160.11 130.135 160.128C130.106 160.133 130.076 160.135 130.048 160.135Z" fill="#163560"/>
<path d="M165.588 171.468C165.588 171.468 167.752 172.143 168.371 172.782C168.991 173.421 169.306 174.851 169.306 174.851L165.105 173.619L165.588 171.468Z" fill="#FFB27D"/>
<path d="M165.532 173.75C163.455 173.472 158.884 171.434 157.19 169.106C155.248 166.436 147.513 151.67 148.956 147.225C149.469 145.643 150.423 139.246 151.613 139.353C152.698 139.449 154.254 141.905 154.606 143.454C156.035 149.752 157.983 161.945 159.483 163.343C160.844 164.611 164.026 168.741 165.57 171.468C165.57 171.469 165.571 171.47 165.571 171.471C166.049 172.663 165.825 173.268 165.532 173.75Z" fill="#F99746"/>
<path d="M357.097 171.606C356.965 173.135 355.634 175.03 354.009 176.694C352.043 178.712 349.647 180.393 348.425 180.687C348.391 180.695 348.359 180.702 348.329 180.708L348.327 180.687L347.523 167.596L347.446 166.323L347.271 163.469L347.192 162.202L346.889 157.274V157.269L346.805 155.9L346.58 152.212L346.252 146.876L346.077 144.036L345.914 141.367L345.852 140.363C345.852 140.363 346.092 140.406 346.469 140.498C346.526 140.513 346.588 140.528 346.652 140.545C347.469 140.756 348.749 141.164 349.701 141.822C350.101 142.097 350.442 142.417 350.668 142.784C350.912 143.183 351.392 144.712 351.986 146.876C352.302 148.028 352.649 149.359 353.01 150.797V150.8C353.532 152.869 354.078 155.159 354.598 157.445C354.976 159.109 355.339 160.772 355.667 162.346C355.759 162.79 355.849 163.226 355.934 163.653C356.158 164.769 356.36 165.826 356.529 166.789C356.61 167.249 356.684 167.687 356.75 168.101C357.014 169.75 357.149 170.997 357.097 171.606Z" fill="#163560"/>
<path d="M339.508 144.121C339.486 144.142 339.526 147.727 342.311 146.956C344.139 146.45 347.666 143.069 346.995 141.39C346.676 140.591 344.888 138.737 343.708 133.85L343.391 134.025L338.051 136.983C338.051 136.983 338.663 138.922 339.123 140.784C339.51 142.347 339.789 143.857 339.508 144.121Z" fill="#F4A269"/>
<path d="M335.743 138.245C335.743 138.245 343.781 140.267 344.835 134.675C345.889 129.083 347.636 125.578 342.549 124.05C337.462 122.522 336.059 124.423 335.3 126.194C334.54 127.965 333.679 137.575 335.743 138.245Z" fill="#FFB27D"/>
<path d="M341.991 134.871C343.912 135.6 346.85 131.399 347.693 128.951C348.724 125.953 346.355 120.004 340.176 120.872C340.176 120.872 338.383 121.035 336.682 122.269C335.328 123.251 331.73 125.793 337.546 128.505C339.733 129.524 340.318 134.237 341.991 134.871Z" fill="#163560"/>
<path d="M354.776 180.686H348.43C348.396 180.694 348.364 180.701 348.334 180.707L348.332 180.686H330.25C330.314 180.491 330.395 180.321 330.487 180.16C330.489 180.158 330.489 180.158 330.491 180.156C330.711 179.773 331.003 179.453 331.323 179.035C331.323 179.033 331.324 179.031 331.326 179.029C331.328 179.029 331.328 179.027 331.328 179.027C331.732 178.5 332.176 177.816 332.579 176.659C332.596 176.614 332.611 176.569 332.626 176.523C332.655 176.434 332.685 176.348 332.712 176.262C332.741 176.174 332.769 176.086 332.798 176C332.816 175.94 332.835 175.88 332.855 175.82C332.896 175.693 332.934 175.566 332.973 175.438C332.989 175.384 333.006 175.33 333.023 175.276V175.274C333.074 175.113 333.121 174.95 333.166 174.789C333.183 174.725 333.202 174.662 333.218 174.6C333.25 174.486 333.281 174.373 333.309 174.261C333.328 174.195 333.344 174.13 333.361 174.065C333.403 173.905 333.442 173.746 333.477 173.589C333.489 173.544 333.498 173.499 333.508 173.454C333.516 173.408 333.526 173.363 333.536 173.318C333.555 173.237 333.572 173.157 333.588 173.076C333.593 173.046 333.6 173.018 333.607 172.988C333.614 172.96 333.619 172.93 333.623 172.9C333.639 172.821 333.656 172.743 333.671 172.664C333.671 172.657 333.673 172.649 333.674 172.642C333.677 172.621 333.681 172.602 333.684 172.582C333.701 172.499 333.714 172.417 333.726 172.335C333.751 172.19 333.771 172.048 333.79 171.906C333.798 171.844 333.805 171.784 333.814 171.722C333.829 171.605 333.842 171.486 333.852 171.37C333.855 171.338 333.859 171.305 333.862 171.271C333.864 171.254 333.865 171.236 333.867 171.217C333.867 171.209 333.869 171.204 333.869 171.196C333.877 171.105 333.884 171.017 333.889 170.925V170.917C333.889 170.908 333.891 170.9 333.891 170.891C333.896 170.826 333.899 170.76 333.901 170.695C333.901 170.68 333.903 170.661 333.903 170.644V170.642C333.903 170.625 333.904 170.609 333.904 170.592C333.906 170.562 333.906 170.532 333.908 170.502C333.909 170.472 333.909 170.442 333.909 170.412C333.911 170.352 333.913 170.292 333.913 170.232C333.914 170.18 333.914 170.128 333.913 170.075C333.913 169.97 333.909 169.867 333.906 169.762V169.716C333.901 169.622 333.896 169.527 333.889 169.433V169.422C333.889 169.409 333.889 169.397 333.887 169.384C333.879 169.272 333.871 169.162 333.859 169.051C333.854 168.991 333.847 168.931 333.839 168.871C333.837 168.856 333.835 168.84 333.834 168.825C333.827 168.77 333.82 168.718 333.813 168.664C333.8 168.566 333.785 168.469 333.768 168.372C333.761 168.332 333.754 168.291 333.746 168.252C333.734 168.185 333.722 168.119 333.707 168.052C333.704 168.031 333.699 168.012 333.696 167.992C333.675 167.896 333.655 167.799 333.632 167.703C333.63 167.698 333.628 167.69 333.627 167.684C333.6 167.576 333.571 167.466 333.541 167.355C332.941 165.219 332.391 161.785 332.041 158.127C331.661 154.145 332.147 149.959 332.897 146.875C333.32 145.132 333.828 143.742 334.311 142.94H334.313V142.938C334.397 142.798 336.396 142.129 339.339 141.699C340.16 141.577 341.052 141.476 341.998 141.411C343.232 141.322 344.554 141.296 345.919 141.366C346.281 141.384 346.647 141.409 347.015 141.442C347.903 141.521 348.805 141.644 349.706 141.821C350.794 142.034 351.882 142.326 352.948 142.712C352.948 142.712 353.044 144.29 353.059 146.875C353.066 148.006 353.056 149.326 353.016 150.796V150.799C352.968 152.576 352.874 154.564 352.711 156.68C352.575 158.425 352.39 160.257 352.143 162.129C352.088 162.553 352.029 162.976 351.967 163.401C351.876 164.02 351.778 164.642 351.672 165.265C351.61 165.634 351.57 166.007 351.551 166.381C351.529 166.808 351.538 167.237 351.576 167.664C351.64 168.407 351.793 169.143 352.034 169.848C352.61 171.539 353.393 174.025 354.015 176.693C354.322 178.003 354.591 179.359 354.776 180.686Z" fill="#23569E"/>
<path d="M330.066 180.688C330.189 180.519 330.324 180.343 330.463 180.162C330.465 180.16 330.465 180.16 330.467 180.158C330.731 179.813 331.016 179.443 331.299 179.036C331.299 179.034 331.301 179.033 331.302 179.031C331.304 179.031 331.304 179.029 331.304 179.029C331.775 178.351 332.231 177.576 332.555 176.661C332.572 176.616 332.587 176.571 332.602 176.524C332.631 176.436 332.661 176.35 332.688 176.264C332.717 176.175 332.745 176.088 332.774 176.001C332.792 175.942 332.811 175.882 332.831 175.822C332.872 175.695 332.91 175.567 332.949 175.44C332.966 175.386 332.982 175.331 332.999 175.277V175.275C333.048 175.112 333.095 174.951 333.142 174.79C333.159 174.727 333.178 174.663 333.194 174.601C333.226 174.487 333.257 174.375 333.285 174.262C333.304 174.197 333.32 174.131 333.337 174.066C333.378 173.907 333.417 173.748 333.453 173.591C333.465 173.546 333.474 173.501 333.484 173.456C333.492 173.409 333.502 173.364 333.512 173.319C333.531 173.239 333.548 173.158 333.564 173.078C333.569 173.048 333.576 173.02 333.583 172.99C333.59 172.962 333.595 172.931 333.6 172.901C333.615 172.823 333.632 172.744 333.647 172.666C333.647 172.658 333.649 172.651 333.65 172.643C333.653 172.623 333.657 172.604 333.66 172.583C333.675 172.501 333.689 172.418 333.702 172.336C333.727 172.192 333.748 172.05 333.766 171.907C333.774 171.846 333.781 171.786 333.79 171.724C333.803 171.608 333.817 171.49 333.828 171.372C333.831 171.34 333.835 171.306 333.838 171.273C333.84 171.256 333.841 171.237 333.843 171.218C333.843 171.211 333.845 171.205 333.845 171.198C333.854 171.106 333.86 171.018 333.865 170.926V170.919C333.865 170.909 333.867 170.902 333.867 170.893C333.87 170.844 333.872 170.795 333.875 170.747C333.875 170.73 333.877 170.713 333.877 170.696C333.877 170.681 333.879 170.662 333.879 170.645V170.644C333.879 170.627 333.881 170.61 333.881 170.593C333.882 170.563 333.882 170.533 333.884 170.503C333.886 170.473 333.886 170.443 333.886 170.413C333.887 170.353 333.889 170.294 333.889 170.234C333.891 170.181 333.891 170.129 333.889 170.076C333.889 169.972 333.886 169.869 333.882 169.764V169.717C333.877 169.623 333.872 169.528 333.865 169.434V169.423C333.865 169.41 333.865 169.399 333.864 169.386C333.855 169.273 333.847 169.163 333.835 169.053C333.83 168.992 333.823 168.933 333.815 168.873C333.813 168.858 333.812 168.841 333.81 168.826C333.803 168.772 333.796 168.719 333.79 168.665C333.776 168.568 333.761 168.47 333.744 168.373C333.737 168.334 333.73 168.293 333.722 168.253C333.71 168.186 333.699 168.12 333.683 168.053C333.68 168.032 333.675 168.014 333.672 167.993C333.651 167.897 333.631 167.8 333.608 167.705C333.606 167.699 333.605 167.691 333.603 167.686C333.578 167.575 333.547 167.467 333.517 167.356C332.917 165.22 332.367 161.787 332.017 158.129C333.927 155.038 336.302 153.433 336.302 153.433C337.001 154.967 337.46 156.485 337.731 157.968C338.367 161.439 337.692 164.634 337.158 167.516C336.443 171.372 335.897 176.255 333.62 180.688H330.066V180.688Z" fill="#163560"/>
<path d="M339.027 131.471C339.027 131.471 339.83 129.653 340.574 130.003C341.319 130.354 340.288 133.289 339.801 133.257C339.314 133.225 339.027 131.471 339.027 131.471Z" fill="#FFB27D"/>
<path d="M366.48 156.854C366.411 156.991 362.138 166.457 359.701 180.687H357.852C358.434 176.014 359.205 171.937 360.073 168.745C360.09 168.664 360.108 168.587 360.125 168.528V168.525C360.25 168.11 360.357 167.694 360.465 167.297C360.466 167.294 360.466 167.292 360.468 167.288C360.784 166.206 361.067 165.201 361.368 164.276C361.369 164.272 361.369 164.27 361.371 164.266C361.495 163.832 361.62 163.435 361.744 163.04C361.746 163.038 361.746 163.038 361.746 163.036C363.133 158.637 364.166 156.201 364.184 156.16C364.326 155.844 364.842 155.645 365.661 155.724C366.587 155.823 366.623 156.536 366.48 156.854Z" fill="#163560"/>
<path d="M347.112 156.854C347.112 156.873 347.045 157.006 346.924 157.268V157.273C346.922 157.279 346.921 157.284 346.917 157.29C346.65 157.904 346.133 159.172 345.476 160.995C345.315 161.469 345.138 161.965 344.943 162.497C344.943 162.498 344.941 162.499 344.941 162.5C344.798 162.935 344.64 163.408 344.48 163.903C344.48 163.904 344.479 163.906 344.479 163.908C344.194 164.758 343.909 165.69 343.608 166.679C343.606 166.681 343.606 166.681 343.606 166.682C343.481 167.119 343.34 167.574 343.197 168.049C343.195 168.055 343.194 168.058 343.194 168.064C342.2 171.614 341.164 175.871 340.345 180.686H338.48C338.526 180.304 338.575 179.93 338.623 179.563V179.542C338.623 179.54 338.623 179.537 338.625 179.535V179.533C339.193 175.336 339.905 171.674 340.705 168.744C341.667 165.235 342.573 162.361 343.286 160.261C344.195 157.627 344.798 156.2 344.817 156.159C344.96 155.843 345.476 155.644 346.295 155.723C346.522 155.743 346.698 155.82 346.84 155.899C346.842 155.901 346.845 155.901 346.846 155.902C347.22 156.159 347.22 156.616 347.112 156.854Z" fill="#163560"/>
<path d="M363.156 164.539C363.465 164.539 363.738 164.319 363.791 164.009C363.851 163.663 363.615 163.334 363.264 163.275C362.706 163.181 349.524 160.99 343.624 162.818C343.284 162.923 343.095 163.28 343.202 163.615C343.308 163.951 343.67 164.138 344.01 164.032C349.614 162.296 362.914 164.507 363.047 164.529C363.084 164.536 363.121 164.539 363.156 164.539Z" fill="#163560"/>
<path d="M361.637 168.753C361.945 168.753 362.218 168.534 362.272 168.224C362.332 167.877 362.096 167.548 361.745 167.489C361.186 167.395 348.004 165.203 342.104 167.032C341.764 167.137 341.575 167.494 341.682 167.83C341.789 168.165 342.151 168.352 342.49 168.246C348.097 166.509 361.394 168.721 361.527 168.743C361.564 168.75 361.601 168.753 361.637 168.753Z" fill="#163560"/>
<path d="M337.741 157.967C336.976 161.155 335.452 165.033 333.8 168.665C331.464 173.794 328.866 178.432 327.763 179.948C327.581 180.197 327.373 180.444 327.142 180.687H318.672C320.73 177.574 323.544 174.023 324.902 172.755C326.772 171.01 329.205 155.795 330.988 147.936C331.062 147.609 331.18 147.249 331.331 146.876C331.979 145.272 333.238 143.432 334.297 142.941H334.299V142.939C334.445 142.872 334.587 142.831 334.723 142.818C335.458 142.752 336.122 144.677 336.682 146.876C337.252 149.119 337.716 151.647 338.039 152.643C338.441 153.88 338.272 155.758 337.741 157.967Z" fill="#23569E"/>
<path d="M340.177 120.873C340.177 120.873 340.328 120.706 340.632 120.485C341.577 119.799 343.994 118.592 347.926 120.241C353.125 122.421 352.093 131.447 355.022 134.955C357.952 138.464 360.75 143.674 359.281 147.065C357.812 150.456 363.155 155.83 357.091 157.309C351.027 158.789 350.619 151.934 345.996 152.208C341.374 152.481 335.548 146.369 337.737 143.993C339.925 141.616 343.353 142.124 343.133 139.009C342.913 135.894 341.132 133.85 341.132 133.85C341.132 133.85 343.508 125.912 342.546 124.05C341.584 122.187 340.177 120.873 340.177 120.873Z" fill="#163560"/>
<path d="M100.488 144.724L100.274 146.185V146.201L100.117 147.392L99.4463 152.235L99.2751 153.474L98.8901 156.252L98.7332 157.475L95.5954 180.278L95.467 181.199H90.1041C90.0042 180.898 89.9186 180.596 89.833 180.278C89.0627 177.452 88.5493 174.53 88.7205 172.053C88.7918 171.084 89.0343 169.925 89.4051 168.623C90.3179 165.447 91.9869 161.477 93.7554 157.682C93.9693 157.253 94.1689 156.824 94.3685 156.412C94.8678 155.379 95.3528 154.379 95.8233 153.426C95.9375 153.204 96.0517 152.981 96.1658 152.775C96.1658 152.759 96.1658 152.743 96.1803 152.727C96.2799 152.537 96.3654 152.362 96.4653 152.187C98.3053 148.551 99.8743 145.693 100.345 144.835L100.359 144.819C100.373 144.803 100.488 144.724 100.488 144.724Z" fill="#1B4D89"/>
<path d="M102.273 145.782L105.98 148.838L111.337 147.583C111.263 147.039 110.91 144.785 110.587 142.743C110.568 142.622 110.548 142.502 110.53 142.384C110.254 140.647 110.016 139.154 110.016 139.154L105.013 136.378L103.147 135.343C103.152 135.379 103.292 137.271 103.311 137.547C103.661 142.451 102.273 145.782 102.273 145.782Z" fill="#FFB27D"/>
<path d="M110.768 144.602C110.092 144.196 103.62 141.828 102.842 142.115C102.063 142.401 101.602 144.079 101.602 144.079L112.625 147.231C112.625 147.231 112.199 145.461 110.768 144.602Z" fill="#163560"/>
<path d="M117.879 181.199H91.7344C91.7487 180.898 91.7771 180.596 91.7915 180.278C92.3335 172.878 93.3176 164.462 94.8723 157.602C94.9721 157.173 95.072 156.761 95.1718 156.348C95.4142 155.332 95.6853 154.347 95.9562 153.426C96.0132 153.204 96.0845 152.997 96.1558 152.775C96.1558 152.759 96.1558 152.743 96.1703 152.727C96.2273 152.552 96.2843 152.362 96.3413 152.187C97.4539 148.757 98.7803 146.121 100.335 144.835L100.349 144.819C100.364 144.803 100.478 144.724 100.478 144.724C100.849 144.422 101.234 144.2 101.633 144.073C101.876 143.993 102.275 143.993 102.774 144.041C104.828 144.247 108.665 145.438 111.104 146.248C112.188 146.613 112.74 147.3 112.9 147.543C113.258 148.086 114.099 149.154 114.883 152.362C115.24 153.822 115.611 155.506 115.925 157.3C116.395 159.984 116.752 162.969 116.78 165.875C116.795 167.002 116.852 168.337 116.937 169.797C116.966 170.29 117.009 170.798 117.037 171.306C117.066 171.639 117.094 171.989 117.108 172.338C117.151 172.783 117.194 173.243 117.222 173.719C117.294 174.545 117.365 175.403 117.436 176.26C117.493 176.832 117.536 177.404 117.593 177.991C117.65 178.753 117.722 179.515 117.793 180.278C117.822 180.58 117.85 180.898 117.879 181.199Z" fill="#23569E"/>
<path d="M117.903 181.199H110.857C110.743 180.898 110.643 180.596 110.544 180.278C108.604 174.149 108.675 167.289 109.117 162.446C109.446 158.666 110.002 156.125 110.002 156.125L115.95 157.301C116.42 159.984 116.777 162.97 116.805 165.876C116.854 169.737 117.45 176.35 117.818 180.278C117.847 180.58 117.875 180.898 117.903 181.199Z" fill="#1B4D89"/>
<path d="M103.635 137.633C104.734 139.974 108.828 141.998 110.536 142.742C110.516 142.622 110.497 142.501 110.479 142.383C110.203 140.646 109.965 139.154 109.965 139.154L104.961 136.377C103.855 136.358 103.182 136.67 103.635 137.633Z" fill="#FCA56B"/>
<path d="M111.634 139.281C111.634 139.281 104.227 141.854 102.859 136.694C101.492 131.534 99.6143 128.391 104.286 126.53C108.957 124.67 110.402 126.335 111.234 127.934C112.067 129.533 113.525 138.479 111.634 139.281Z" fill="#FFB27D"/>
<path d="M110.918 127.438C110.918 127.438 110.446 133.442 109.33 133.181C108.215 132.921 107.203 132.727 107.366 134.537C107.53 136.347 106.784 138.662 103.347 138.982C99.9096 139.303 97.2605 129.208 98.2047 127.34C100.929 121.948 114.856 120.86 110.918 127.438Z" fill="#163560"/>
<path d="M126.529 181.199C126.529 181.199 115.107 182.946 113.113 177.381C110.734 172.696 110.497 168.241 109.085 162.445C107.93 157.713 107.117 154.061 107.031 153.965C107.031 153.965 107.701 148.773 111.296 147.582C112.351 147.233 113.621 149.265 114.876 152.362C117.914 159.793 119.08 168.298 120.456 172.66C120.683 173.381 126.23 180.897 126.529 181.199Z" fill="#23569E"/>
<path d="M90.5725 181.2H89.2032C89.189 180.883 89.1747 180.581 89.1461 180.279C87.6342 161.049 81.4013 147.281 81.33 147.122C81.1873 146.805 81.216 146.122 82.1145 146.027C82.9131 145.947 83.3981 146.138 83.5405 146.456C83.555 146.487 84.5535 148.838 85.8939 153.093C86.0224 153.474 86.1509 153.871 86.2649 154.284C86.5501 155.189 86.8355 156.158 87.1351 157.206C87.2347 157.587 87.3489 157.984 87.4632 158.397C87.4772 158.46 87.5057 158.54 87.52 158.619C88.2475 161.351 88.918 164.749 89.4598 168.624C89.9448 172.149 90.3299 176.087 90.5296 180.279C90.5582 180.581 90.5725 180.882 90.5725 181.2Z" fill="#163560"/>
<path d="M109.35 181.2H107.967C107.952 180.883 107.938 180.581 107.91 180.279C107.211 171.403 105.514 163.701 103.873 157.953C103.745 157.492 103.616 157.047 103.488 156.618C103.203 155.666 102.917 154.761 102.632 153.935C102.49 153.458 102.333 152.998 102.19 152.569C101.249 149.822 100.493 148.028 100.208 147.392C100.136 147.218 100.094 147.138 100.094 147.123C99.9794 146.884 99.9794 146.44 100.365 146.202V146.186C100.493 146.106 100.664 146.043 100.892 146.027C101.677 145.947 102.162 146.138 102.305 146.456C102.333 146.503 104.202 150.918 106.284 158.619C107.696 163.828 108.866 171.498 109.293 180.279C109.322 180.581 109.336 180.883 109.35 181.2Z" fill="#163560"/>
<path d="M84.5053 154.541C84.2071 154.541 83.9436 154.329 83.8918 154.029C83.8339 153.695 84.0616 153.377 84.4009 153.32C84.9404 153.229 97.6795 151.111 103.382 152.878C103.71 152.979 103.893 153.325 103.789 153.649C103.686 153.973 103.337 154.154 103.008 154.051C97.5925 152.374 84.7398 154.51 84.6105 154.532C84.5753 154.538 84.5401 154.541 84.5053 154.541Z" fill="#163560"/>
<path d="M85.9701 158.614C85.6723 158.614 85.4086 158.402 85.3567 158.102C85.2987 157.768 85.5266 157.45 85.8659 157.392C86.4056 157.302 99.1446 155.184 104.847 156.951C105.175 157.053 105.358 157.398 105.255 157.722C105.151 158.046 104.802 158.227 104.473 158.124C99.0553 156.445 86.2049 158.583 86.076 158.605C86.0403 158.611 86.005 158.614 85.9701 158.614Z" fill="#163560"/>
<path d="M182.108 118.803C182.108 118.803 170.321 137.111 177.055 144.805C183.789 152.499 185.215 146.557 185.215 146.557L182.108 118.803Z" fill="#6980E2"/>
<path d="M200.086 164.43C200.12 164.738 198.967 171.562 196.742 180.688H182.477C182.58 176.41 182.514 172.069 182.366 167.828C182.228 163.648 181.979 159.484 181.68 155.431L200.086 164.43Z" fill="#F4904D"/>
<path d="M203.378 159.168C203.336 163.223 203.151 170.99 202.401 180.688H188.49C187.581 174.229 186.212 167.469 185.19 162.794V162.792C184.398 159.166 183.812 156.796 183.812 156.796L184.416 156.773H184.421L203.383 156.09C203.383 156.09 203.398 157.185 203.378 159.168Z" fill="#FFA561"/>
<path d="M186.613 113.013L190.407 115.259L193.581 113.898C194.099 112.891 194.105 111.051 193.984 109.47C193.863 107.901 193.616 106.586 193.616 106.586L188.593 104.709L186.719 104.01C186.726 104.041 186.995 105.642 187.034 105.876C187.716 110.03 186.613 113.013 186.613 113.013Z" fill="#FFB27D"/>
<path d="M203.625 158.899C199.568 164.142 182.646 165.066 181.172 159.899C179.698 154.729 178.592 114.883 185.993 111.614C187.528 110.936 196.219 113.108 196.219 113.108C196.219 113.108 197.863 116.828 199.138 121.65C199.306 122.288 199.975 127.152 200.748 133.166C201.111 135.996 201.498 139.08 201.866 142.1C201.978 143.024 202.09 143.94 202.196 144.841C202.605 148.249 202.974 151.441 203.237 153.919C203.55 156.854 203.713 158.785 203.625 158.899Z" fill="#8C9DF4"/>
<path d="M187.404 105.914C188.535 107.657 192.105 108.918 193.987 109.471C193.866 107.901 193.619 106.587 193.619 106.587L188.596 104.71C187.527 104.804 186.899 105.136 187.404 105.914Z" fill="#FCA56B"/>
<path d="M195.403 106.072C195.403 106.072 187.849 109.571 185.964 104.3C184.08 99.0287 181.835 95.9301 186.579 93.4735C191.323 91.0168 192.985 92.6104 193.998 94.1994C195.011 95.7884 197.32 105.027 195.403 106.072Z" fill="#FFB27D"/>
<path d="M193.668 93.7088C193.668 93.7088 193.694 100.065 192.5 99.9113C191.306 99.7577 189.968 99.3043 190.297 101.187C190.626 103.071 189.585 106.463 187.895 106.629C184.272 106.983 179.48 97.0389 180.31 94.9749C182.703 89.0199 197.232 86.3779 193.668 93.7088Z" fill="#163560"/>
<path d="M193.911 110.936C193.807 110.899 187.882 108.641 187.237 108.954C186.592 109.266 185.949 111.614 185.949 111.614L196.177 113.109C196.177 113.109 195.24 111.404 193.911 110.936Z" fill="#6980E2"/>
<path d="M202.172 144.841C189.461 136.64 187.227 125.57 187.227 125.57C193.792 128.849 197.261 126.483 200.724 133.166C201.087 135.996 201.474 139.08 201.842 142.1C201.955 143.024 202.067 143.94 202.172 144.841Z" fill="#6980E2"/>
<path d="M205.02 111.674C204.406 110.653 204.597 109.312 205.446 108.681C206.294 108.049 207.48 108.364 208.093 109.386C208.707 110.408 208.516 111.748 207.667 112.38C206.819 113.011 205.633 112.696 205.02 111.674Z" fill="#8C9DF4"/>
<path d="M208.449 110.017L213.843 119.799L213.995 120.072L214.791 121.517L212.655 123.107L211.75 121.743L211.578 121.485L205.449 112.25L208.449 110.017Z" fill="#163560"/>
<path d="M208.538 109.598L205.023 112.214L205.393 112.83L208.908 110.214L208.538 109.598Z" fill="#ED7D2B"/>
<path d="M213.87 119.799L214.022 120.072L211.777 121.743L211.605 121.485L213.87 119.799Z" fill="#ED7D2B"/>
<path d="M213.261 121.391L213.008 121.579L215.001 124.901L215.254 124.713L213.261 121.391Z" fill="#163560"/>
<path d="M208.613 120.771C208.613 120.771 208.686 117.547 209.597 116.338C210.509 115.13 210.987 114.518 211.811 115.259C212.636 116 211.896 118.03 211.572 118.803C211.247 119.577 210.683 121.027 210.683 121.027L208.613 120.771Z" fill="#FFB27D"/>
<path d="M187.784 114.039C187.784 114.039 175.041 127.339 203.779 139.67C210.163 142.41 211.409 120.77 211.409 120.77C211.409 120.77 210.602 119.339 208.645 119.48C208.645 119.48 203.855 128.721 203.395 129.049C202.246 129.87 196.977 118.59 193.929 116.055C190.88 113.519 187.784 114.039 187.784 114.039Z" fill="#8C9DF4"/>
<path d="M389.977 182H0.921131C0.661587 182 0.449219 181.763 0.449219 181.474V181.211C0.449219 180.923 0.661587 180.686 0.921131 180.686H389.977C390.237 180.686 390.449 180.923 390.449 181.211V181.474C390.449 181.763 390.237 182 389.977 182Z" fill="#233862"/>
<path d="M232.651 140.787C232.651 140.787 233.19 144.74 232.066 146.792H239.213C239.213 146.792 238.644 143.389 238.929 141.237C239.213 139.086 232.651 140.787 232.651 140.787Z" fill="#FFB27D"/>
<path d="M235.785 142.651C235.785 142.651 241.104 142.257 241.598 135.083C241.987 129.428 241.508 128.427 236.251 128.26C231.273 128.102 230.304 129.717 230.301 131.68C230.287 142.038 233.805 142.144 235.785 142.651Z" fill="#FFB27D"/>
<path d="M230.312 135.45C230.312 135.45 229.696 134.882 229.476 135.582C229.256 136.283 230.694 138.61 231.234 137.834C231.773 137.059 230.312 135.45 230.312 135.45Z" fill="#FFB27D"/>
<path d="M254.51 180.687H229.045C228.425 180.687 227.819 180.627 227.231 180.513C226.533 180.376 225.86 180.161 225.219 179.878C224.199 179.429 223.26 178.803 222.433 178.038C219.712 175.527 218.182 171.515 218.801 167.267C219.216 164.427 219.712 161.445 220.292 158.651V158.65L220.327 158.481C220.41 158.09 220.494 157.702 220.58 157.319C220.842 156.132 221.121 154.991 221.417 153.924C222.345 150.571 223.43 147.939 224.671 146.876C224.705 146.846 224.737 146.819 224.77 146.793C226.257 145.627 229.284 144.955 232.657 144.715C234.714 144.571 236.901 144.586 238.943 144.751C241.659 144.97 244.119 145.449 245.691 146.161C246.004 146.303 246.315 146.544 246.623 146.876C251.582 152.217 255.54 180.627 254.51 180.687Z" fill="#8C9DF4"/>
<path d="M235.62 123.739C235.62 123.739 231.787 122.947 229.435 124.874C227.083 126.802 226.683 129.762 225.883 132.18C225.082 134.598 222.295 135.172 223.447 138.277C226.307 145.984 237.457 143.867 242.167 142.119C243.075 141.783 242.205 140.149 240.911 139.576C239.391 138.904 240.15 135.852 241.591 135.083C243.688 133.965 243.79 132.017 243.465 130.161C242.89 126.876 240.155 122.343 235.62 123.739Z" fill="#163560"/>
<path d="M240.171 135.3C240.171 135.3 240.496 134.433 241.01 134.97C241.523 135.508 241.206 138.469 240.361 138.035C239.517 137.601 240.171 135.3 240.171 135.3Z" fill="#FFB27D"/>
<path d="M230.824 180.686H222.379V176.019L224.604 176.389L226.751 176.747L230.245 177.329L230.824 180.686Z" fill="#8C9DF4"/>
<path d="M227.117 180.687H225.205C225.166 180.418 225.127 180.147 225.087 179.879C224.912 178.69 224.722 177.525 224.525 176.391C223.268 169.218 221.606 163.149 220.16 158.652V158.65C218.43 153.262 217.01 150.128 216.973 150.046C216.807 149.675 216.841 148.879 217.89 148.767C218.822 148.675 219.387 148.896 219.553 149.267C219.566 149.295 220.258 150.922 221.285 153.925C221.596 154.831 221.938 155.86 222.299 157.012V157.014C222.449 157.458 222.598 157.92 222.731 158.401C222.731 158.403 222.731 158.403 222.733 158.405C223.064 159.457 223.396 160.584 223.745 161.803C223.745 161.805 223.747 161.808 223.747 161.81C223.863 162.254 223.996 162.718 224.13 163.199V163.201C224.146 163.276 224.179 163.366 224.196 163.46C225.045 166.646 225.827 170.609 226.459 175.131C226.532 175.662 226.604 176.202 226.673 176.748C226.826 177.967 226.969 179.223 227.098 180.513C227.105 180.571 227.11 180.629 227.117 180.687Z" fill="#163560"/>
<path d="M248.991 180.687H247.079C246.09 173.704 244.656 167.582 243.257 162.681C243.257 162.679 243.255 162.675 243.255 162.673C243.105 162.138 242.957 161.623 242.808 161.125C242.806 161.121 242.806 161.119 242.805 161.115C242.473 160.007 242.14 158.955 241.809 157.993C241.807 157.989 241.807 157.985 241.806 157.982C241.641 157.429 241.458 156.896 241.293 156.4C240.195 153.194 239.314 151.101 238.981 150.36C238.897 150.156 238.848 150.064 238.848 150.045C238.713 149.768 238.713 149.248 239.164 148.971V148.952C239.314 148.86 239.512 148.785 239.779 148.767C240.694 148.675 241.259 148.896 241.426 149.267C241.459 149.323 243.64 154.473 246.069 163.46C247.267 167.882 248.318 173.827 248.991 180.687Z" fill="#163560"/>
<path d="M220.793 158.701C220.445 158.701 220.137 158.454 220.077 158.105C220.009 157.714 220.275 157.344 220.671 157.277C221.301 157.171 236.163 154.7 242.816 156.761C243.199 156.88 243.412 157.283 243.292 157.661C243.172 158.039 242.763 158.25 242.38 158.13C236.062 156.173 221.067 158.666 220.916 158.691C220.874 158.698 220.833 158.701 220.793 158.701Z" fill="#163560"/>
<path d="M222.437 163.453C222.089 163.453 221.782 163.206 221.721 162.856C221.654 162.466 221.92 162.095 222.316 162.028C222.945 161.922 237.808 159.451 244.46 161.513C244.843 161.631 245.056 162.034 244.936 162.412C244.816 162.79 244.408 163.001 244.025 162.882C237.704 160.923 222.711 163.417 222.561 163.443C222.519 163.45 222.478 163.453 222.437 163.453Z" fill="#163560"/>
<path d="M297.98 140.175C297.98 140.175 297.41 144.35 298.597 146.516H291.051C291.051 146.516 291.651 142.923 291.351 140.651C291.051 138.379 297.98 140.175 297.98 140.175Z" fill="#FFB27D"/>
<path d="M276.348 180.687H301.812C302.433 180.687 303.038 180.628 303.627 180.513C304.325 180.377 304.997 180.161 305.638 179.879C306.659 179.429 307.597 178.804 308.425 178.038C311.145 175.528 312.676 171.516 312.057 167.268C311.642 164.428 311.145 161.445 310.565 158.652V158.65L310.53 158.482C310.448 158.091 310.364 157.703 310.278 157.319C310.015 156.132 309.736 154.992 309.44 153.925C308.512 150.572 307.427 147.94 306.187 146.876C306.153 146.847 306.121 146.82 306.087 146.794C304.601 145.628 301.574 144.956 298.201 144.716C296.144 144.572 293.956 144.587 291.915 144.752C289.199 144.971 286.739 145.45 285.167 146.161C284.854 146.304 284.543 146.545 284.235 146.876C279.276 152.218 275.317 180.628 276.348 180.687Z" fill="#FFA561"/>
<path d="M291.375 140.65C291.375 140.65 289.065 141.727 288.544 134.151C288.132 128.18 288.639 127.123 294.189 126.947C299.446 126.781 300.469 128.486 300.472 130.558C300.487 141.496 293.466 140.115 291.375 140.65Z" fill="#FFB27D"/>
<path d="M296.098 123.601C298.184 124.252 301.159 126.049 301.16 129.125C301.16 132.007 300.908 134.807 300.243 135.525C299.579 136.243 299.774 139.494 296.788 139.501C294.021 139.507 291.208 137.563 290.781 135.766C290.353 133.97 288.337 135.23 287.92 133.359C287.097 129.665 287.241 127.758 289.431 125.75C291.339 124.001 293.727 122.862 296.098 123.601Z" fill="#B22929"/>
<path d="M300.439 134.54C300.439 134.54 301.09 133.94 301.322 134.68C301.554 135.419 300.036 137.876 299.466 137.057C298.897 136.238 300.439 134.54 300.439 134.54Z" fill="#FFB27D"/>
<path d="M293.765 121.939C294.557 122.035 295.358 121.998 296.145 121.861C297.684 121.595 300.19 121.506 301.38 123.371C305.971 130.57 300.321 134.669 301.166 137.222C302.011 139.775 307.526 143.237 306.31 146.515C303.29 154.653 298.173 148.323 293.199 146.478C292.24 146.123 292.708 140.511 297.841 137.657C299.385 136.798 290.066 134.963 288.544 134.151C286.33 132.97 286.222 130.914 286.565 128.954C287.125 125.755 289.625 121.436 293.765 121.939Z" fill="#B22929"/>
<path d="M291.171 134.765C291.171 134.765 291.262 133.803 290.565 133.875C288.826 134.054 288.868 136.838 289.811 137.055C290.754 137.272 291.171 134.765 291.171 134.765Z" fill="#FFB27D"/>
<path d="M300.012 180.687H308.457V176.02L306.232 176.39L304.084 176.748L300.59 177.33L300.012 180.687Z" fill="#FFA561"/>
<path d="M303.668 180.687H305.58C305.618 180.417 305.657 180.146 305.698 179.878C305.873 178.689 306.063 177.525 306.259 176.39C307.517 169.218 309.179 163.148 310.625 158.651V158.649C312.355 153.261 313.774 150.127 313.811 150.045C313.978 149.674 313.944 148.879 312.895 148.766C311.963 148.675 311.398 148.896 311.232 149.266C311.218 149.294 310.527 150.921 309.5 153.924C309.189 154.83 308.847 155.86 308.486 157.011V157.013C308.336 157.457 308.186 157.919 308.053 158.4C308.053 158.402 308.053 158.402 308.052 158.404C307.721 159.456 307.389 160.583 307.039 161.802C307.039 161.804 307.038 161.808 307.038 161.81C306.922 162.253 306.789 162.718 306.654 163.199V163.201C306.639 163.276 306.606 163.365 306.589 163.459C305.74 166.645 304.958 170.609 304.325 175.13C304.253 175.662 304.181 176.201 304.112 176.748C303.959 177.966 303.816 179.223 303.686 180.513C303.68 180.571 303.675 180.629 303.668 180.687Z" fill="#163560"/>
<path d="M281.855 180.686H283.767C284.756 173.704 286.191 167.581 287.59 162.68C287.59 162.678 287.591 162.675 287.591 162.673C287.741 162.137 287.889 161.622 288.039 161.124C288.04 161.121 288.04 161.119 288.042 161.115C288.373 160.007 288.706 158.955 289.037 157.992C289.039 157.989 289.039 157.985 289.041 157.981C289.206 157.429 289.389 156.895 289.554 156.399C290.652 153.194 291.533 151.101 291.866 150.359C291.95 150.155 291.999 150.064 291.999 150.045C292.133 149.768 292.133 149.247 291.683 148.97V148.952C291.533 148.86 291.334 148.785 291.067 148.766C290.152 148.675 289.587 148.896 289.421 149.266C289.387 149.322 287.206 154.473 284.778 163.459C283.579 167.881 282.528 173.827 281.855 180.686Z" fill="#163560"/>
<path d="M310.119 158.701C310.466 158.701 310.774 158.454 310.834 158.105C310.902 157.714 310.636 157.344 310.24 157.277C309.611 157.171 294.748 154.7 288.096 156.761C287.712 156.88 287.499 157.283 287.619 157.661C287.74 158.039 288.148 158.25 288.531 158.13C294.85 156.173 309.845 158.666 309.996 158.691C310.037 158.698 310.078 158.701 310.119 158.701Z" fill="#163560"/>
<path d="M308.408 163.452C308.756 163.452 309.063 163.205 309.123 162.856C309.191 162.465 308.925 162.094 308.529 162.028C307.9 161.922 293.037 159.451 286.385 161.512C286.002 161.631 285.788 162.034 285.909 162.412C286.029 162.79 286.437 163.001 286.82 162.881C293.141 160.923 308.134 163.417 308.285 163.442C308.326 163.449 308.367 163.452 308.408 163.452Z" fill="#163560"/>
</svg>
