<svg width="770" height="454" viewBox="0 0 770 454" fill="none" xmlns="http://www.w3.org/2000/svg">
<path fill-rule="evenodd" clip-rule="evenodd" d="M219.879 447.395H236.915H723.906C741.965 447.395 756.74 432.62 756.74 414.56C756.74 396.5 741.965 381.725 723.906 381.725H710.252C651.676 381.725 603.752 333.8 603.752 275.225C603.752 216.651 555.826 168.726 497.252 168.726L497.482 168.723H409.634C402.741 168.723 397.101 163.083 397.101 156.188C397.101 149.295 402.741 143.654 409.634 143.654H465.411C475.02 143.654 482.882 135.791 482.882 126.182C482.882 116.571 475.02 108.71 465.411 108.71H395.398C375.99 108.71 360.111 92.8302 360.111 73.4217C360.111 54.0131 344.231 38.133 324.822 38.133L324.898 38.1318H236.915H134.638C114.88 38.1318 98.7144 54.2971 98.7144 74.0544C98.7144 93.8117 114.88 109.977 134.638 109.977H188.64L188.553 109.978C199.72 110.026 208.838 119.174 208.838 130.35C208.838 141.526 199.718 150.674 188.553 150.722H188.64C166.489 150.722 148.367 168.846 148.367 190.997C148.367 213.147 130.243 231.27 108.093 231.27C48.6589 231.27 0.03125 279.899 0.03125 339.332C0.03125 398.766 48.6589 447.394 108.093 447.394H219.879V447.395ZM44.1967 109.977C24.4382 109.977 8.27293 93.8117 8.27293 74.0544C8.27293 54.2971 24.4382 38.1318 44.1967 38.1318C63.9551 38.1318 80.1204 54.2971 80.1204 74.0544C80.1204 93.8117 63.9551 109.977 44.1967 109.977Z" fill="#1585D0"/>
<path fill-rule="evenodd" clip-rule="evenodd" d="M596.545 236.82C595.303 233.639 593.915 230.53 592.385 227.504H496.397C495.574 227.504 495.259 228.179 495.699 229.001L499.072 235.322C499.511 236.147 500.543 236.819 501.367 236.819L596.545 236.82Z" fill="#2CA2F0"/>
<path fill-rule="evenodd" clip-rule="evenodd" d="M600.536 249.298C599.735 246.135 598.793 243.026 597.717 239.98H496.397C495.574 239.98 495.259 240.655 495.699 241.478L499.072 247.8C499.511 248.624 500.543 249.297 501.367 249.297H600.536V249.298Z" fill="#2CA2F0"/>
<path fill-rule="evenodd" clip-rule="evenodd" d="M602.901 261.775C602.499 258.625 601.952 255.518 601.28 252.458H496.397C495.574 252.458 495.259 253.132 495.699 253.955L499.072 260.278C499.511 261.102 500.543 261.774 501.367 261.774H602.901V261.775Z" fill="#2CA2F0"/>
<path fill-rule="evenodd" clip-rule="evenodd" d="M603.743 274.255C603.713 271.115 603.549 268.008 603.252 264.938H496.397C495.574 264.938 495.259 265.611 495.699 266.434L499.072 272.757C499.511 273.581 500.543 274.254 501.367 274.254H603.743V274.255Z" fill="#2CA2F0"/>
<path fill-rule="evenodd" clip-rule="evenodd" d="M604.382 286.733C604.048 283.662 603.846 280.555 603.781 277.415H496.397C495.574 277.415 495.259 278.089 495.699 278.912L499.072 285.234C499.511 286.058 500.543 286.731 501.367 286.731H604.382V286.733Z" fill="#2CA2F0"/>
<path fill-rule="evenodd" clip-rule="evenodd" d="M513.621 230.912C513.621 230.391 513.199 229.969 512.678 229.969C512.157 229.969 511.734 230.391 511.734 230.912V312.434C511.734 312.955 512.157 313.377 512.678 313.377C513.199 313.377 513.621 312.955 513.621 312.434V230.912Z" fill="#2CA2F0"/>
<path fill-rule="evenodd" clip-rule="evenodd" d="M508.906 334.23C508.906 336.314 510.595 338.003 512.679 338.003C514.762 338.003 516.45 336.314 516.45 334.23V312.435C516.45 310.351 514.762 308.662 512.679 308.662C510.595 308.662 508.906 310.351 508.906 312.435V334.23Z" fill="#2CA2F0"/>
<path fill-rule="evenodd" clip-rule="evenodd" d="M324.487 53.3477H203.001C202.146 53.3477 201.82 54.0463 202.277 54.9006L205.775 61.4587C206.23 62.313 207.3 63.0116 208.156 63.0116H329.642C330.496 63.0116 330.822 62.313 330.367 61.4587L326.868 54.9006C326.412 54.0463 325.342 53.3477 324.487 53.3477Z" fill="#2CA2F0"/>
<path fill-rule="evenodd" clip-rule="evenodd" d="M324.487 66.2891H203.001C202.146 66.2891 201.82 66.9877 202.277 67.842L205.775 74.4001C206.23 75.2544 207.3 75.9542 208.156 75.9542H329.642C330.496 75.9542 330.822 75.2544 330.367 74.4001L326.868 67.842C326.412 66.9877 325.342 66.2891 324.487 66.2891Z" fill="#2CA2F0"/>
<path fill-rule="evenodd" clip-rule="evenodd" d="M220.87 56.8834C220.87 56.3426 220.432 55.9053 219.892 55.9053C219.351 55.9053 218.914 56.3438 218.914 56.8834V141.439C218.914 141.979 219.351 142.417 219.892 142.417C220.432 142.417 220.87 141.979 220.87 141.439V56.8834Z" fill="#2CA2F0"/>
<path fill-rule="evenodd" clip-rule="evenodd" d="M215.977 164.044C215.977 166.205 217.728 167.958 219.889 167.958C222.05 167.958 223.801 166.205 223.801 164.044V141.439C223.801 139.277 222.05 137.525 219.889 137.525C217.728 137.525 215.977 139.277 215.977 141.439V164.044Z" fill="#2CA2F0"/>
<path fill-rule="evenodd" clip-rule="evenodd" d="M117.515 230.147C114.489 230.881 111.334 231.27 108.091 231.27C93.9082 231.27 80.3443 234.045 67.9062 239.068H122.44C123.228 239.068 124.217 238.424 124.638 237.635L127.869 231.58C128.288 230.792 127.987 230.146 127.199 230.146H117.515V230.147Z" fill="#2CA2F0"/>
<path fill-rule="evenodd" clip-rule="evenodd" d="M61.0972 242.096C55.8182 244.668 50.7777 247.658 46.0156 251.019H122.443C123.232 251.019 124.22 250.375 124.642 249.586L127.872 243.529C128.292 242.741 127.991 242.095 127.202 242.095H61.0972V242.096Z" fill="#2CA2F0"/>
<path fill-rule="evenodd" clip-rule="evenodd" d="M41.9353 254.048C38.383 256.814 35.0022 259.793 31.8203 262.97H122.442C123.231 262.97 124.219 262.325 124.641 261.535L127.871 255.481C128.291 254.693 127.99 254.047 127.201 254.047H41.9353V254.048Z" fill="#2CA2F0"/>
<path fill-rule="evenodd" clip-rule="evenodd" d="M28.9162 265.996C26.283 268.835 23.7974 271.811 21.4766 274.92H122.447C123.235 274.92 124.223 274.274 124.645 273.485L127.875 267.43C128.295 266.642 127.994 265.995 127.205 265.995H28.9162V265.996Z" fill="#2CA2F0"/>
<path fill-rule="evenodd" clip-rule="evenodd" d="M19.2976 277.947C17.2994 280.825 15.4375 283.801 13.7188 286.87H122.442C123.23 286.87 124.219 286.225 124.64 285.435L127.871 279.38C128.29 278.593 127.989 277.946 127.201 277.946H19.2976V277.947Z" fill="#2CA2F0"/>
<path fill-rule="evenodd" clip-rule="evenodd" d="M110.703 234.61C110.703 233.451 111.108 232.509 111.606 232.509C112.105 232.509 112.509 233.449 112.509 234.61V416.133C112.509 417.293 112.106 418.235 111.606 418.235C111.108 418.235 110.703 417.293 110.703 416.133V234.61Z" fill="#2CA2F0"/>
<path fill-rule="evenodd" clip-rule="evenodd" d="M115.218 439.105C115.218 441.101 113.601 442.718 111.605 442.718C109.61 442.718 107.992 441.101 107.992 439.105V418.234C107.992 416.238 109.61 414.62 111.605 414.62C113.601 414.62 115.218 416.238 115.218 418.234V439.105Z" fill="#2CA2F0"/>
<path fill-rule="evenodd" clip-rule="evenodd" d="M15.0314 289.896H127.201C127.99 289.896 128.291 290.541 127.871 291.331L124.641 297.386C124.22 298.173 123.232 298.819 122.442 298.819H10.2727C9.48433 298.819 9.18329 298.175 9.60474 297.386L12.8333 291.331C13.2536 290.542 14.243 289.896 15.0314 289.896Z" fill="#2CA2F0"/>
<path fill-rule="evenodd" clip-rule="evenodd" d="M15.0314 301.847H127.201C127.99 301.847 128.291 302.492 127.871 303.28L124.641 309.336C124.22 310.125 123.232 310.771 122.442 310.771H10.2727C9.48433 310.771 9.18329 310.126 9.60474 309.336L12.8333 303.28C13.2536 302.492 14.243 301.847 15.0314 301.847Z" fill="#2CA2F0"/>
<path fill-rule="evenodd" clip-rule="evenodd" d="M15.0314 313.796H127.201C127.99 313.796 128.291 314.441 127.871 315.23L124.641 321.284C124.22 322.074 123.232 322.719 122.442 322.719H10.2727C9.48433 322.719 9.18329 322.075 9.60474 321.284L12.8333 315.23C13.2536 314.442 14.243 313.796 15.0314 313.796Z" fill="#2CA2F0"/>
<path fill-rule="evenodd" clip-rule="evenodd" d="M15.0314 325.747H127.201C127.99 325.747 128.291 326.391 127.871 327.181L124.641 333.237C124.22 334.025 123.232 334.67 122.442 334.67H10.2727C9.48433 334.67 9.18329 334.026 9.60474 333.237L12.8333 327.181C13.2536 326.391 14.243 325.747 15.0314 325.747Z" fill="#2CA2F0"/>
<path fill-rule="evenodd" clip-rule="evenodd" d="M15.0314 337.695H127.201C127.99 337.695 128.291 338.341 127.871 339.13L124.641 345.185C124.22 345.973 123.232 346.619 122.442 346.619H10.2727C9.48433 346.619 9.18329 345.974 9.60474 345.185L12.8333 339.13C13.2536 338.342 14.243 337.695 15.0314 337.695Z" fill="#2CA2F0"/>
<path fill-rule="evenodd" clip-rule="evenodd" d="M15.0314 349.646H127.201C127.99 349.646 128.291 350.291 127.871 351.08L124.641 357.135C124.22 357.922 123.232 358.569 122.442 358.569H10.2727C9.48433 358.569 9.18329 357.924 9.60474 357.135L12.8333 351.08C13.2536 350.291 14.243 349.646 15.0314 349.646Z" fill="#2CA2F0"/>
<path fill-rule="evenodd" clip-rule="evenodd" d="M15.0314 361.595H127.201C127.99 361.595 128.291 362.24 127.871 363.029L124.641 369.084C124.22 369.874 123.232 370.519 122.442 370.519H10.2727C9.48433 370.519 9.18329 369.875 9.60474 369.084L12.8333 363.029C13.2536 362.241 14.243 361.595 15.0314 361.595Z" fill="#2CA2F0"/>
<path fill-rule="evenodd" clip-rule="evenodd" d="M15.0314 373.546H127.201C127.99 373.546 128.291 374.19 127.871 374.98L124.641 381.034C124.22 381.823 123.232 382.468 122.442 382.468H10.2727C9.48433 382.468 9.18329 381.824 9.60474 381.034L12.8333 374.98C13.2536 374.19 14.243 373.546 15.0314 373.546Z" fill="#2CA2F0"/>
<path fill-rule="evenodd" clip-rule="evenodd" d="M148.612 95.978C147.631 98.7419 145.614 100.876 143.149 102.417C141.976 103.151 140.473 103.885 139.131 104.265C138.503 104.447 137.842 104.082 137.66 103.454C137.618 103.309 137.603 103.155 137.618 103.005C137.742 101.789 137.741 100.558 137.58 99.3451C137.492 98.668 137.353 97.9978 137.162 97.3423C131.782 96.6187 126.849 94.0059 123.207 89.9753C119.379 85.7415 117.281 80.2887 117.281 74.5803C117.281 68.4686 119.687 62.6591 124.009 58.3377C128.33 54.0164 134.138 51.6104 140.25 51.6104C146.362 51.6104 152.171 54.0175 156.493 58.3377C160.814 62.6591 163.221 68.4675 163.221 74.5803C163.221 79.3094 161.783 83.8853 159.066 87.7567C156.469 91.4601 152.826 94.3296 148.612 95.978Z" fill="#2CA2F0"/>
<path fill-rule="evenodd" clip-rule="evenodd" d="M557.962 336.035H597.415C598.309 336.035 599.135 336.356 599.778 336.889C599.955 336.962 600.115 337.083 600.238 337.245C600.309 337.338 600.362 337.439 600.401 337.544C600.865 338.164 601.141 338.934 601.141 339.764V362.95C601.141 363.974 600.723 364.905 600.047 365.58V365.585C599.371 366.26 598.44 366.678 597.415 366.678H557.962C556.936 366.678 556.002 366.26 555.329 365.585C554.654 364.909 554.234 363.976 554.234 362.95V339.764C554.234 338.93 554.51 338.157 554.976 337.535C555.015 337.434 555.068 337.335 555.137 337.245C555.261 337.083 555.42 336.963 555.596 336.889C556.241 336.357 557.066 336.035 557.962 336.035Z" fill="#9EB1D9"/>
<path fill-rule="evenodd" clip-rule="evenodd" d="M252.098 290.557C260.984 295.344 265.906 301.007 271.963 309.204C285.445 327.456 290.714 341.439 306.063 357.911C311.722 363.983 339.593 316.269 342.816 309.992C343.446 308.768 346.155 302.865 348.465 304.724C349.545 305.592 353.302 309.403 355.7 310.624C358.097 311.844 361.016 311.214 361.581 314.763C355.256 338.304 327.1 413.433 293.67 388.706C269.956 371.165 252.272 344.199 249.246 340.285C238.272 326.086 245.419 311.859 240.516 301.756L240.497 301.722L240.175 301.041L240.065 300.809L239.863 300.371L239.86 300.359L239.673 299.95L239.567 299.711L239.493 299.544C237.42 294.83 237.297 292.952 237.297 292.952L241.909 298.078L252.098 290.557Z" fill="#01020E"/>
<path fill-rule="evenodd" clip-rule="evenodd" d="M157.898 309.336L173.441 289.687L176.878 286.738L211.401 273.755L227.377 276.244C227.377 276.244 243.313 284 244.66 283.931C244.807 283.922 245.038 283.832 245.332 283.674L254.755 310.782C254.755 310.782 260.476 350.055 261.287 352.728C262.098 355.401 262.791 393.071 259.819 398.48C256.849 403.888 259.37 412.272 247.933 415.791C236.496 419.311 212.045 426.117 195.624 408.762C179.204 391.407 175.787 381.773 171.683 375.905C167.576 370.043 157.898 309.336 157.898 309.336Z" fill="#E2E1E7"/>
<path fill-rule="evenodd" clip-rule="evenodd" d="M223.133 298.428L224.091 300.092C224.091 300.092 237.775 341.483 237.208 374.654C236.641 407.826 219.916 379.473 220.199 376.638C220.481 373.805 223.447 319.798 220.546 300.305C220.546 300.305 220.765 297.681 223.133 298.428Z" fill="#E74D91"/>
<path fill-rule="evenodd" clip-rule="evenodd" d="M230.708 278.108C230.708 278.108 243.978 309.791 238.975 346.082C233.975 382.372 223.414 410.155 223.414 410.155L220.867 441.966H266.732C267.046 429.125 267.514 418.317 268.168 411.009C271.78 370.754 282.902 285.137 230.708 278.108Z" fill="#01020E"/>
<path fill-rule="evenodd" clip-rule="evenodd" d="M230.711 278.108C230.711 278.108 243.981 309.791 238.978 346.082C237.158 359.287 234.603 371.364 232.088 381.387V381.388L233.284 386.989C243.149 363.824 258.396 305.311 258.023 305.125C257.648 304.937 248.63 304.238 248.63 304.238C250.78 302.134 253.442 301.059 252.882 300.031C252.378 299.106 239.624 282.715 237.081 279.451C235.069 278.867 232.953 278.411 230.711 278.108Z" fill="#0E1632"/>
<path fill-rule="evenodd" clip-rule="evenodd" d="M236.954 441.966C236.498 433.577 236.075 427.514 235.837 424.776C230.709 365.962 233.275 326.589 193.761 280.1C184.518 281.873 167.871 290.556 167.871 290.556C160.546 294.381 153.567 300.521 152.35 308.994C150.627 321.018 163.709 362.671 171.757 388.769C175.224 400.012 175.656 419.273 174.519 441.966H236.954Z" fill="#01020E"/>
<path fill-rule="evenodd" clip-rule="evenodd" d="M198.704 241.163L199.106 250.59C199.106 250.59 199.106 269.904 199.106 272.836C199.106 274.254 197.784 276.298 195.453 278.077C198.929 281.85 207.502 290.612 212.879 291.445C219.756 292.507 227.694 289.458 229.677 287.757C231.063 286.568 231.197 280.412 232.012 276.969C231.37 276.793 232.102 276.978 231.454 276.765C229.776 276.213 228.185 275.418 227.154 274.293C223.93 270.773 224.078 255.083 227.302 250.979C230.531 246.874 198.704 241.163 198.704 241.163Z" fill="#E8685B"/>
<path fill-rule="evenodd" clip-rule="evenodd" d="M224.472 287.122L220.581 285.022C220.581 285.022 220.253 289.318 219.793 289.461C219.333 289.603 218.714 286.761 217.034 285.735C215.353 284.708 210.859 290.841 210.859 290.841C210.859 290.841 212.53 295.626 214.939 295.979C217.349 296.335 224.605 297.138 224.698 294.965C224.791 292.792 224.472 287.122 224.472 287.122Z" fill="#E2E1E7"/>
<path fill-rule="evenodd" clip-rule="evenodd" d="M219.477 292.298C219.477 292.298 216.039 292.051 213.168 290.207C210.298 288.364 208.172 290.668 208.172 290.668L210.937 293.805L211.149 295.133C211.149 295.133 215.275 294.406 217.891 296.311C220.504 298.215 219.477 292.298 219.477 292.298Z" fill="#E74D91"/>
<path fill-rule="evenodd" clip-rule="evenodd" d="M224.905 292.54C224.905 292.54 223.418 291.372 222.212 291.372C221.006 291.372 218.81 291.372 217.888 292.187C216.966 293.002 215.874 294.883 215.798 295.486C215.721 296.086 219.413 299.736 220.547 300.304C221.68 300.872 222.886 299.951 224.091 300.091C225.295 300.233 225.649 293.807 224.905 292.54Z" fill="#E74D91"/>
<path fill-rule="evenodd" clip-rule="evenodd" d="M167.873 290.557C158.987 295.344 154.066 301.007 148.007 309.204C134.526 327.456 129.257 341.439 113.908 357.911C108.25 363.983 80.379 316.269 77.1551 309.992C76.5246 308.768 73.8141 302.865 71.5057 304.724C70.4254 305.592 66.6687 309.403 64.2717 310.624C61.8736 311.844 58.9552 311.214 58.3906 314.763C64.7147 338.304 92.8716 413.433 126.3 388.706C150.015 371.165 167.699 344.199 170.724 340.285C181.699 326.086 174.551 311.859 179.454 301.756L179.472 301.722L179.793 301.041L179.903 300.809L180.107 300.371L180.11 300.359L180.296 299.95L180.402 299.711L180.477 299.544H180.475C182.551 294.83 182.671 292.952 182.671 292.952L178.059 298.078L167.873 290.557Z" fill="#01020E"/>
<path fill-rule="evenodd" clip-rule="evenodd" d="M253.866 226.769C253.866 227.756 254.665 228.556 255.653 228.556C256.639 228.556 257.438 227.755 257.438 226.769V178.343C257.438 172.811 255.474 165.311 248.864 159.86C244.202 156.014 237.243 153.218 227.056 152.943C215.208 152.622 202.429 153.53 192.548 157.624C182.283 161.878 175.125 169.468 175.125 182.45V223.621C175.125 224.607 175.926 225.407 176.912 225.407C177.898 225.407 178.698 224.606 178.698 223.621V182.45C178.698 171.223 184.951 164.633 193.916 160.919C203.263 157.045 215.539 156.193 226.973 156.502C236.252 156.753 242.494 159.221 246.603 162.61C252.203 167.228 253.867 173.622 253.867 178.345L253.866 226.769Z" fill="#0076BD"/>
<path fill-rule="evenodd" clip-rule="evenodd" d="M265.449 232.102H264.01C262.036 232.102 260.422 233.716 260.422 235.69C260.422 237.665 262.036 239.279 264.01 239.279H265.449C267.422 239.279 269.037 237.665 269.037 235.69C269.037 233.716 267.422 232.102 265.449 232.102Z" fill="#3A405C"/>
<path fill-rule="evenodd" clip-rule="evenodd" d="M250.461 249.983C258.322 249.983 264.754 243.552 264.754 235.69C264.754 227.829 258.322 221.396 250.461 221.396V249.983Z" fill="#0076BD"/>
<path fill-rule="evenodd" clip-rule="evenodd" d="M250.463 218.279C249.06 218.279 247.914 219.426 247.914 220.827V250.554C247.914 251.954 249.06 253.102 250.462 253.102H250.463C251.865 253.102 253.011 251.954 253.011 250.554V220.827C253.011 219.426 251.865 218.279 250.463 218.279Z" fill="#0E1632"/>
<path fill-rule="evenodd" clip-rule="evenodd" d="M219.401 172.492C200.416 171.712 184.244 186.606 183.466 205.592L182.178 236.961C181.397 255.947 196.293 272.118 215.277 272.898C234.262 273.678 250.433 258.784 251.214 239.797L252.502 208.427C253.28 189.442 238.386 173.273 219.401 172.492Z" fill="#F4AD85"/>
<path fill-rule="evenodd" clip-rule="evenodd" d="M214.529 172.64C197.724 174.333 184.177 188.255 183.466 205.592L182.178 236.961C181.397 255.947 196.293 272.118 215.277 272.898C216.592 272.952 217.891 272.927 219.175 272.836C194.887 272.569 193.988 244.669 193.988 232.898C193.988 221.124 208.005 207.668 214.079 207.388C220.154 207.107 230.694 214.902 230.694 214.902C230.694 214.902 242.862 199.445 242.675 200.567C240.008 197.9 226.126 182.199 214.529 172.64Z" fill="#ED9072"/>
<path fill-rule="evenodd" clip-rule="evenodd" d="M180.846 183.948C180.846 183.948 164.636 188.773 178.358 222.079C181.729 222.217 182.682 224.806 182.592 226.962L182.415 231.261C187.698 229.154 187.04 223.54 186.362 220.814C186.362 220.814 205.812 216.843 209.263 195.583C209.263 195.583 209.405 194.041 211.335 195.283C212.994 196.349 229.384 217.811 244.555 223.674C258.411 229.026 272.205 211.433 269.583 196.249C260.807 145.429 182.29 148.741 180.846 183.948Z" fill="#0E1632"/>
<path fill-rule="evenodd" clip-rule="evenodd" d="M180.846 183.947C180.846 183.947 164.636 188.773 178.358 222.078C181.729 222.217 182.682 224.806 182.592 226.962L182.415 231.26C187.698 229.153 187.04 223.539 186.362 220.814C186.362 220.814 205.812 216.842 209.263 195.582C209.263 195.582 209.405 194.04 211.335 195.282C212.994 196.349 229.384 217.81 244.555 223.673C257.406 228.639 270.198 213.867 269.899 199.586C269.849 200.42 268.472 219.848 248.96 213.284C229.021 206.577 214.899 189.206 205.883 192.567C196.878 195.924 176.121 197.478 182.942 175.39C181.712 177.984 180.974 180.838 180.846 183.947Z" fill="#010518"/>
<path fill-rule="evenodd" clip-rule="evenodd" d="M175.125 182.604V223.619C175.125 224.605 175.926 225.404 176.912 225.404C177.898 225.404 178.698 224.604 178.698 223.619V182.604H175.125Z" fill="#0076BD"/>
<path fill-rule="evenodd" clip-rule="evenodd" d="M167.385 232.102H168.824C170.797 232.102 172.411 233.716 172.411 235.69C172.411 237.665 170.797 239.279 168.824 239.279H167.385C165.412 239.279 163.797 237.665 163.797 235.69C163.796 233.716 165.411 232.102 167.385 232.102Z" fill="#3A405C"/>
<path fill-rule="evenodd" clip-rule="evenodd" d="M182.372 249.983C174.51 249.983 168.078 243.552 168.078 235.69C168.078 227.829 174.51 221.396 182.372 221.396V249.983Z" fill="#0076BD"/>
<path fill-rule="evenodd" clip-rule="evenodd" d="M182.369 218.279C183.771 218.279 184.919 219.426 184.919 220.827V250.554C184.919 251.954 183.771 253.102 182.369 253.102C180.968 253.102 179.82 251.954 179.82 250.554V220.827C179.821 219.426 180.969 218.279 182.369 218.279Z" fill="#0E1632"/>
<path fill-rule="evenodd" clip-rule="evenodd" d="M234.147 403.128C230.679 355.784 228.228 320.65 193.762 280.1C191.372 280.557 188.487 281.479 185.523 282.591C186.407 286.883 189.359 301.335 189.598 303.954C189.598 303.954 189.807 304.422 190.462 304.585C191.117 304.747 200.063 303.254 200.063 303.254C200.063 303.254 189.34 310.309 188.85 310.753C188.36 311.198 233.742 403.431 233.742 403.431L234.147 403.128Z" fill="#0E1632"/>
<path fill-rule="evenodd" clip-rule="evenodd" d="M77.3361 302.158C78.2108 297.561 82.5458 287.341 83.5909 286.258C84.9678 284.826 77.7019 280.456 75.1266 287.356C75.1266 287.356 71.7243 291.937 70.4042 291.171C69.0819 290.406 66.5112 272.699 66.2908 270.489C66.0681 268.278 63.052 268.108 62.367 268.731C61.6809 269.355 62.3125 272.195 62.4943 276.274C62.6738 280.356 62.8283 282.885 62.4829 283.289C61.5048 284.431 56.6257 269.415 54.8888 268.442C53.7959 267.828 50.3379 269.308 50.5208 271.375C50.7037 273.444 56.1111 285.684 56.3065 287.471C56.5019 289.259 55.4477 288.276 54.6502 287.303C53.8539 286.329 46.5653 274.155 45.5656 273.546C44.5648 272.936 41.3738 274.779 42.1156 276.874C42.8574 278.969 49.7654 291.187 49.7154 292.213C49.6654 293.239 48.9486 293.12 46.6834 291.515C44.4194 289.91 39.9322 286.592 38.6405 286.912C37.7999 286.872 36.6957 289.441 38.703 291.5C40.7115 293.561 45.5133 298.846 46.1291 299.717C49.3689 304.321 51.0207 309.385 54.0402 312.628C55.1319 313.801 56.5587 314.691 58.1627 315.29C68.0005 318.969 75.5321 311.647 77.3361 302.158Z" fill="#F4AD85"/>
<path fill-rule="evenodd" clip-rule="evenodd" d="M53.3594 311.838C53.5786 312.111 53.8058 312.376 54.041 312.627C55.0429 313.704 56.3289 314.544 57.7727 315.136C57.9022 315.19 58.0317 315.24 58.1635 315.29C64.6262 317.707 70.0938 315.376 73.5961 310.803C75.425 308.414 76.7189 305.414 77.3369 302.16C77.3585 302.049 77.3801 301.938 77.4051 301.822C73.1076 311.244 63.1562 314.899 53.3594 311.838Z" fill="#ED9072"/>
<path fill-rule="evenodd" clip-rule="evenodd" d="M351.758 233.469C351.758 233.469 356.656 231.89 357.899 226.675C359.142 221.46 369.947 224.142 370.322 225.681C370.698 227.219 371.89 229.287 371.574 232.035C371.257 234.785 372.667 235.641 372.667 235.641C365.122 240.18 364.112 235.797 355.893 242.235C353.226 244.327 352.302 236.819 351.758 233.469Z" fill="#E68392"/>
<path fill-rule="evenodd" clip-rule="evenodd" d="M391.563 282.132L385.96 273.983C385.96 273.983 351.132 285.416 333.285 279.075C315.439 272.735 356.147 244.892 359.017 241.734C361.889 238.575 356.443 236.793 355.001 234.414C353.56 232.034 353.21 229.018 351.523 229.395C349.837 229.773 307.607 258.827 305.967 285.506C304.327 312.185 371.71 315.914 378.303 312.413C384.899 308.91 391.563 282.132 391.563 282.132Z" fill="#0E1632"/>
<path fill-rule="evenodd" clip-rule="evenodd" d="M391.563 282.132L385.96 273.983C385.96 273.983 378.036 276.583 367.812 278.615C364.437 285.498 358.849 293.85 350.56 297.382C335.326 303.872 311.527 300.135 305.967 285.507C304.327 312.186 371.71 315.915 378.303 312.414C384.899 308.91 391.563 282.132 391.563 282.132ZM328.785 274.071H328.781C327.333 265.092 345.193 250.678 347.29 243.301C348.374 239.495 346.887 236.059 345.193 233.624C348.728 231.009 351.145 229.482 351.523 229.395C353.21 229.018 353.56 232.034 355.001 234.414C356.443 236.794 361.889 238.575 359.017 241.734C356.645 244.344 328.434 263.812 328.785 274.071Z" fill="#01020E"/>
<path fill-rule="evenodd" clip-rule="evenodd" d="M350.83 228.131C350.83 228.131 347.965 229.823 347.126 230.603C346.288 231.38 348.395 235.869 350.517 239.671C352.639 243.475 354.912 245.424 355.576 245.623C356.24 245.825 358.125 244.106 358.125 244.106L350.83 228.131Z" fill="#F2F0F0"/>
<path fill-rule="evenodd" clip-rule="evenodd" d="M384.943 185.311C383.736 185.79 349.432 215.046 347.378 216.685C345.323 218.324 345.743 219.803 348.165 224.261C350.586 228.719 355.605 237.736 356.784 240.421C357.701 242.512 359.866 244.731 361.634 244.79C362.14 244.807 365.654 245.41 366.056 245.021C367.87 243.272 398.742 214.58 399.307 213.807C399.87 213.034 401.262 210.835 398.59 206.477C396.042 202.326 395.038 199.836 388.73 188.065C388.396 187.443 390.865 185.832 390.147 185.489C388.744 184.817 385.943 184.915 384.943 185.311Z" fill="#0E1632"/>
<path fill-rule="evenodd" clip-rule="evenodd" d="M388.95 185.572C387.743 186.051 353.44 215.308 351.386 216.946C349.331 218.584 349.751 220.064 352.172 224.521C354.593 228.977 359.612 237.997 360.792 240.682C361.971 243.368 365.209 246.267 367.023 244.519C368.837 242.771 402.748 214.841 403.313 214.067C403.877 213.294 405.269 211.095 402.596 206.738C400.051 202.586 399.047 200.096 392.738 188.325C391.992 186.936 390.762 184.852 388.95 185.572Z" fill="#01020E"/>
<path fill-rule="evenodd" clip-rule="evenodd" d="M367.378 244.198C371.412 240.648 402.768 214.81 403.311 214.068C403.875 213.294 405.267 211.095 402.594 206.738C400.049 202.586 399.043 200.096 392.736 188.325C392.442 187.778 392.071 187.122 391.623 186.574C385.264 191.592 357.154 215.554 355.3 217.034C353.244 218.673 353.667 220.152 356.087 224.61C358.508 229.067 363.527 238.084 364.706 240.772C365.262 242.033 366.274 243.345 367.378 244.198Z" fill="#01020E"/>
<path fill-rule="evenodd" clip-rule="evenodd" d="M361.707 227.928C361.138 226.853 359.814 226.622 358.752 227.415C357.69 228.207 357.291 229.723 357.862 230.799C358.43 231.874 359.754 232.106 360.817 231.313C361.879 230.521 362.277 229.005 361.707 227.928Z" fill="#0E1632"/>
<path fill-rule="evenodd" clip-rule="evenodd" d="M397.588 206.194C397.511 206.102 394.786 200.883 394.668 200.668C394.55 200.452 394.607 200.366 394.858 200.164C395.11 199.96 395.631 199.556 395.76 199.42C395.892 199.284 396.175 199.231 396.274 199.442C396.371 199.654 399.092 204.761 399.119 204.843C399.147 204.925 399.207 205.147 398.94 205.332C398.684 205.509 398.567 205.637 397.908 206.178C397.83 206.241 397.705 206.331 397.588 206.194Z" fill="#0E1632"/>
<path fill-rule="evenodd" clip-rule="evenodd" d="M393.947 199.32C393.871 199.229 393.261 198.007 393.145 197.792C393.027 197.577 393.083 197.491 393.335 197.289C393.586 197.085 394.106 196.68 394.237 196.545C394.37 196.408 394.652 196.355 394.75 196.566C394.852 196.778 395.453 197.886 395.48 197.969C395.505 198.051 395.565 198.274 395.298 198.458C395.042 198.634 394.928 198.764 394.268 199.304C394.189 199.369 394.064 199.46 393.947 199.32Z" fill="#0E1632"/>
<path fill-rule="evenodd" clip-rule="evenodd" d="M386.459 192.601C385.528 192.974 360.768 214.069 359.18 215.336C357.593 216.602 357.917 217.747 359.788 221.191C361.659 224.634 365.537 231.602 366.448 233.678C367.361 235.753 369.864 237.992 371.265 236.642C372.667 235.29 397.12 215.22 397.556 214.622C397.993 214.024 399.068 212.326 397.003 208.957C395.036 205.749 394.26 203.824 389.385 194.729C388.811 193.657 387.859 192.047 386.459 192.601Z" fill="#3A405C"/>
<path fill-rule="evenodd" clip-rule="evenodd" d="M470.241 281.24C451.237 266.865 433.91 269.044 407.068 266.465C393.002 267.361 384.521 275.025 379.526 286.482L379.49 286.569L379.452 286.656L379.34 286.92L379.301 287.007L379.278 287.064L379.266 287.095L379.228 287.182L379.082 287.538L379.046 287.625L379.015 287.698L379.009 287.715L378.973 287.803L378.938 287.893L378.831 288.161L378.796 288.25L378.788 288.272L378.725 288.432L378.69 288.523L378.551 288.884L378.516 288.976L378.512 288.989L378.483 289.066L378.28 289.615L378.268 289.644L378.247 289.706L378.213 289.799L378.049 290.262L378.033 290.307L378.016 290.354C377.875 290.757 377.739 291.166 377.605 291.576L377.581 291.653L377.576 291.67C377.505 291.891 377.435 292.115 377.364 292.337L377.354 292.344C368.67 312.592 354.165 320.897 373.131 346.601L373.253 346.766L373.254 346.768L373.267 347.071L373.279 347.373C375.118 391.81 371.936 410.653 369.639 447.393H464.501C457.076 419.079 445.18 392.719 447.093 368.82C450.197 330.046 480.103 316.417 470.241 281.24Z" fill="#0E1632"/>
<path fill-rule="evenodd" clip-rule="evenodd" d="M422.777 267.654L422.071 273.765C422.071 273.765 459.327 273.222 459.083 295.611C458.839 318.005 442.021 329.198 430.376 339.958C417.621 347.409 368.015 338.609 367.039 336.297C367.096 336.445 367.091 336.608 367.041 336.788C368.49 339.773 370.482 343.018 373.127 346.602L373.248 346.768L373.25 346.769L373.262 347.072L373.275 347.374C373.33 348.718 373.379 350.032 373.426 351.33C373.451 351.332 373.47 351.345 373.471 351.375C401.422 349.68 426.961 355.029 433.839 386.115C437.172 401.176 430.631 427.855 422.513 447.393H464.495C457.07 419.079 445.174 392.719 447.087 368.82C450.191 330.045 480.098 316.416 470.237 281.239C455.214 269.874 441.236 268.856 422.777 267.654Z" fill="#01020E"/>
<path fill-rule="evenodd" clip-rule="evenodd" d="M470.042 280.575C479.978 294.671 510.42 340.336 518.301 323.017C529.99 303.524 545.003 285.857 548.956 277.417C549.914 275.375 554.097 281.164 555.381 281.644C557.477 282.43 561.925 282.05 561.215 284.206C556.018 298.279 529.218 348.121 525.664 352.468C515.862 364.455 501.446 359.442 493.706 352.959C483.081 344.055 469.526 333.683 457.867 320.456L470.042 280.575Z" fill="#0E1632"/>
<path fill-rule="evenodd" clip-rule="evenodd" d="M467.247 278.169C470.777 283.177 473.7 286.955 477.698 292.53C473.689 300.402 474.563 329.218 484.429 339.096C517.751 372.457 535.283 329.368 548.92 299.411C553.961 288.337 549.436 285.443 546.725 282.23C546.921 281.817 549.113 277.083 549.653 276.824C553.771 274.855 564.816 281.388 563.452 283.818C558.253 297.889 528.681 351.085 525.123 355.432C519.609 362.178 511.413 365.368 500.24 358.658C482.832 348.201 462.253 325.431 457.867 320.454L467.247 278.169Z" fill="#01020E"/>
<path fill-rule="evenodd" clip-rule="evenodd" d="M432.29 231.851L430.74 240.611C430.74 240.611 428.335 258.659 427.968 261.4C427.603 264.14 429.579 269.279 437.497 270.714C443.965 271.884 421.178 280.186 408.005 276.88C394.376 273.461 391.675 261.984 397.017 261.512C398.677 261.363 400.474 260.192 401.578 259.269C405.028 256.383 406.845 241.7 404.343 237.464C401.839 233.225 432.29 231.851 432.29 231.851Z" fill="#E37B64"/>
<path fill-rule="evenodd" clip-rule="evenodd" d="M390.457 194.685C390.457 194.685 390.614 193.513 390.842 191.803C390.951 190.988 391.076 190.051 391.206 189.059C391.447 187.245 391.713 185.249 391.948 183.484C392.582 178.728 399.407 164.378 416.729 161.476C434.052 158.572 451.084 174.614 457.082 188.255C463.08 201.895 461.386 210.416 462.63 212.256C463.875 214.098 469.249 200.299 460.678 179.428C460.678 179.428 460.032 176.947 461.025 176.033C462.019 175.117 472.644 190.314 472.189 219.914C471.735 249.514 452.17 270.635 420.926 272.055C389.68 273.474 382.835 247.777 386.378 221.193L412.404 203.748L390.457 194.685Z" fill="#010518"/>
<path fill-rule="evenodd" clip-rule="evenodd" d="M456.238 218.315L454.529 229.107C451.575 247.76 433.898 260.603 415.248 257.65C396.595 254.695 383.751 237.019 386.704 218.366L390.958 191.496L390.959 191.497C390.959 191.497 394.393 173.346 411.475 169.109C428.556 164.873 459.95 190.412 456.238 218.315Z" fill="#F4AD85"/>
<path fill-rule="evenodd" clip-rule="evenodd" d="M456.24 218.315L454.531 229.107C451.577 247.76 433.9 260.604 415.25 257.65C440.971 260.362 456.24 218.315 448.385 203.256C440.526 188.198 424.31 183.655 424.31 183.655L428.484 178.446C428.484 178.446 432.376 178.352 438.223 178.56C449.438 187.893 458.311 202.736 456.24 218.315Z" fill="#ED9072"/>
<path fill-rule="evenodd" clip-rule="evenodd" d="M392.773 185.928C395.207 180.223 400.549 171.821 411.475 169.109C424.341 165.917 445.325 179.624 453.312 198.507C414.502 171.964 397.217 183.1 392.773 185.928Z" fill="#010518"/>
<path fill-rule="evenodd" clip-rule="evenodd" d="M419.854 233.587C419.186 238.446 414.703 241.846 409.844 241.176C404.986 240.508 401.587 236.026 402.256 231.168L402.272 231.17C402.387 230.335 403.164 229.744 404 229.86L418.529 231.86C419.365 231.974 419.955 232.752 419.84 233.587H419.854Z" fill="#010518"/>
<path fill-rule="evenodd" clip-rule="evenodd" d="M415.633 239.988C413.955 241 411.934 241.465 409.843 241.176C408.135 240.943 406.608 240.237 405.375 239.21C406.3 237.497 408.459 236.417 410.853 236.656C413.136 236.883 414.974 238.244 415.633 239.988Z" fill="#D64341"/>
<path fill-rule="evenodd" clip-rule="evenodd" d="M388.078 283.796C399.102 299.089 418.385 287.884 432.27 280.683C435.828 278.838 435.765 279.315 433.611 282.713C419.378 305.175 388.991 309.704 388.078 283.796Z" fill="#E6E4EB"/>
<path fill-rule="evenodd" clip-rule="evenodd" d="M354.703 210.09C358.207 208.024 358.926 206.406 360.633 209.102C362.339 211.798 368.135 210.324 366.921 208.203C365.13 205.077 365.421 205.289 367.155 205.881C371.693 207.429 375.765 205.238 372.94 201.916C372.94 201.916 377.881 203.263 378.958 201.108C380.037 198.952 377.701 196.615 377.701 196.615C377.701 196.615 377.564 195.357 378.428 195.276C379.612 195.164 380.261 197.598 382.642 196.075C383.98 195.22 382.282 190.685 380.306 189.786C378.33 188.888 372.67 188.619 371.052 189.337C369.436 190.056 368.986 192.661 368.986 192.661C365.208 192.111 363.394 193.106 363.057 196.614C362.938 197.858 359.736 197.436 358.752 198.954C358.197 199.807 359.849 203.617 357.845 203.531C355.782 203.442 355.512 206.316 354.703 210.09Z" fill="#F4AD85"/>
<path fill-rule="evenodd" clip-rule="evenodd" d="M545.114 269.457C544.24 264.86 539.904 254.64 538.86 253.558C537.482 252.125 544.749 247.757 547.323 254.654C547.323 254.654 550.724 259.234 552.045 258.469C553.365 257.705 555.938 239.997 556.16 237.788C556.383 235.578 559.397 235.407 560.081 236.031C560.767 236.654 560.137 239.494 559.955 243.575C559.777 247.656 559.621 250.183 559.967 250.587C560.945 251.73 565.824 236.713 567.562 235.742C568.655 235.127 572.113 236.608 571.93 238.675C571.747 240.743 566.34 252.983 566.144 254.771C565.949 256.558 567.003 255.575 567.8 254.602C568.596 253.628 575.885 241.453 576.886 240.844C577.886 240.235 581.077 242.077 580.335 244.173C579.593 246.269 572.686 258.487 572.735 259.513C572.785 260.539 573.502 260.419 575.767 258.814C578.03 257.209 582.518 253.892 583.81 254.211C584.65 254.171 585.755 256.739 583.748 258.799C581.739 260.861 576.937 266.146 576.322 267.016C573.082 271.618 571.43 276.685 568.41 279.927C567.319 281.099 565.891 281.991 564.288 282.589C554.45 286.268 546.917 278.946 545.114 269.457Z" fill="#F4AD85"/>
<path fill-rule="evenodd" clip-rule="evenodd" d="M569.094 279.137C568.875 279.41 568.647 279.675 568.412 279.926C567.41 281.003 566.124 281.842 564.679 282.435C564.551 282.488 564.42 282.54 564.29 282.588C557.827 285.005 552.358 282.675 548.857 278.102C547.028 275.713 545.735 272.713 545.116 269.458C545.095 269.349 545.073 269.237 545.047 269.121C549.344 278.544 559.297 282.199 569.094 279.137Z" fill="#ED9072"/>
<path d="M184.528 389.517H174.242V402.193H184.528V389.517Z" fill="#003F6A"/>
<path fill-rule="evenodd" clip-rule="evenodd" d="M179.546 392.138C180.821 392.138 181.862 393.18 181.862 394.453V397.43H184.526V390.43H175.692C175.184 390.43 174.7 390.455 174.242 390.502V392.137H179.546V392.138Z" fill="#04263B"/>
<path d="M158.809 389.517H148.523V402.193H158.809V389.517Z" fill="#003F6A"/>
<path fill-rule="evenodd" clip-rule="evenodd" d="M142.077 428.918H166.347H190.617C191.644 428.918 192.345 428.079 192.177 427.052L187.626 399.296C187.458 398.27 186.481 397.43 185.454 397.43H166.347H147.24C146.213 397.43 145.236 398.27 145.068 399.296L140.517 427.052C140.349 428.079 141.05 428.918 142.077 428.918Z" fill="#0076BD"/>
<path fill-rule="evenodd" clip-rule="evenodd" d="M166.525 427.212H192.354C193.361 427.212 194.809 428.038 195.569 429.044L199.291 433.978H166.523H133.758L137.482 429.044C138.242 428.037 139.689 427.212 140.697 427.212H166.525Z" fill="#0E1632"/>
<path fill-rule="evenodd" clip-rule="evenodd" d="M183.616 400.445L183.903 402.193L188.006 427.212H192.203C192.198 427.16 192.193 427.108 192.182 427.052L187.631 399.296C187.463 398.27 186.486 397.43 185.459 397.43H184.528H181.864H174.243H166.352H158.81H156.146H148.525H147.244C146.472 397.43 145.729 397.907 145.336 398.578H148.526H158.811H162.337H174.244H181.445C182.471 398.578 183.448 399.418 183.616 400.445ZM167.584 400.222C174.733 400.222 180.529 406.018 180.529 413.168C180.529 420.318 174.733 426.113 167.584 426.113C160.435 426.113 154.639 420.317 154.639 413.168C154.639 406.018 160.435 400.222 167.584 400.222Z" fill="#004A82"/>
<path fill-rule="evenodd" clip-rule="evenodd" d="M135.253 433.202H197.8C198.808 433.202 199.632 434.027 199.632 435.035V440.181C199.632 441.188 198.808 442.012 197.8 442.012H135.253C134.245 442.012 133.422 441.187 133.422 440.181V435.035C133.422 434.026 134.245 433.202 135.253 433.202Z" fill="#383D5D"/>
<path fill-rule="evenodd" clip-rule="evenodd" d="M166.397 418.538C169.851 418.538 172.669 415.721 172.669 412.267C172.669 408.813 169.851 405.994 166.397 405.994C162.942 405.994 160.125 408.811 160.125 412.267C160.124 415.721 162.941 418.538 166.397 418.538Z" fill="#E74D91"/>
<path fill-rule="evenodd" clip-rule="evenodd" d="M172.652 411.85C172.66 411.986 172.665 412.126 172.665 412.267C172.665 412.987 172.544 413.679 172.32 414.323H166.392C165.709 414.323 165.156 413.769 165.156 413.087C165.156 412.403 165.711 411.85 166.392 411.85H172.652Z" fill="#B92F6D"/>
<path fill-rule="evenodd" clip-rule="evenodd" d="M166.398 409.26C168.058 409.26 169.406 410.605 169.406 412.267C169.406 413.926 168.06 415.273 166.398 415.273C164.738 415.273 163.391 413.926 163.391 412.267C163.391 410.605 164.737 409.26 166.398 409.26Z" fill="#B92F6D"/>
<path fill-rule="evenodd" clip-rule="evenodd" d="M166.395 404.014C167.159 404.014 167.783 403.39 167.783 402.627C167.783 401.861 167.159 401.237 166.395 401.237C165.631 401.237 165.008 401.861 165.008 402.627C165.008 403.39 165.631 404.014 166.395 404.014Z" fill="#C9C4D1"/>
<path fill-rule="evenodd" clip-rule="evenodd" d="M174.189 404.47C174.732 405.012 174.732 405.891 174.189 406.433C173.647 406.975 172.77 406.975 172.227 406.433C171.685 405.891 171.685 405.012 172.227 404.47C172.77 403.927 173.648 403.927 174.189 404.47Z" fill="#C9C4D1"/>
<path fill-rule="evenodd" clip-rule="evenodd" d="M174.189 420.064C173.647 420.606 172.77 420.606 172.227 420.064C171.685 419.521 171.685 418.643 172.227 418.1C172.77 417.558 173.648 417.558 174.189 418.1C174.732 418.643 174.732 419.522 174.189 420.064Z" fill="#C9C4D1"/>
<path fill-rule="evenodd" clip-rule="evenodd" d="M166.395 423.294C165.628 423.294 165.008 422.673 165.008 421.906C165.008 421.14 165.628 420.518 166.395 420.518C167.162 420.518 167.783 421.14 167.783 421.906C167.783 422.673 167.161 423.294 166.395 423.294Z" fill="#C9C4D1"/>
<path fill-rule="evenodd" clip-rule="evenodd" d="M158.594 420.064C158.052 419.521 158.052 418.643 158.594 418.1C159.136 417.558 160.015 417.558 160.556 418.1C161.098 418.643 161.098 419.521 160.556 420.064C160.015 420.606 159.136 420.606 158.594 420.064Z" fill="#C9C4D1"/>
<path fill-rule="evenodd" clip-rule="evenodd" d="M155.367 412.267C155.367 411.5 155.989 410.879 156.755 410.879C157.521 410.879 158.142 411.5 158.142 412.267C158.142 413.034 157.521 413.654 156.755 413.654C155.987 413.654 155.367 413.034 155.367 412.267Z" fill="#C9C4D1"/>
<path fill-rule="evenodd" clip-rule="evenodd" d="M158.594 404.47C159.136 403.927 160.015 403.927 160.556 404.47C161.098 405.012 161.098 405.891 160.556 406.433C160.014 406.975 159.136 406.975 158.594 406.433C158.052 405.891 158.052 405.01 158.594 404.47Z" fill="#C9C4D1"/>
<path fill-rule="evenodd" clip-rule="evenodd" d="M166.392 413.502C165.709 413.502 165.156 412.95 165.156 412.266C165.156 411.583 165.711 411.029 166.392 411.029H176.032C176.715 411.029 177.268 411.583 177.268 412.266C177.268 412.95 176.715 413.502 176.032 413.502H166.392Z" fill="#0E1632"/>
<path fill-rule="evenodd" clip-rule="evenodd" d="M182.729 390.43C189.502 390.43 191.796 394.836 191.796 398.316L192.927 400.274H207.32L208.291 399.206C208.291 399.206 208.291 396.212 208.291 394.431C208.291 392.649 208.635 382.206 192.525 382.206H166.353H140.181C124.072 382.206 124.415 392.648 124.415 394.431C124.415 396.212 124.415 399.206 124.415 399.206L125.386 400.274H139.779L140.909 398.316C140.909 394.836 143.205 390.43 149.977 390.43H166.352H182.729Z" fill="#383D5D"/>
<path fill-rule="evenodd" clip-rule="evenodd" d="M153.827 392.138C155.101 392.138 156.144 393.18 156.144 394.453V397.43H158.808V390.43H149.974C149.465 390.43 148.982 390.455 148.523 390.502V392.137H153.827V392.138Z" fill="#04263B"/>
<path fill-rule="evenodd" clip-rule="evenodd" d="M197.256 437.394C197.256 438.402 196.431 439.226 195.424 439.226H133.422V440.181C133.422 440.5 133.505 440.802 133.651 441.064H199.403C199.548 440.802 199.632 440.5 199.632 440.181V435.035C199.632 434.641 199.508 434.277 199.295 433.978C199.295 433.978 199.295 433.978 199.294 433.977L199.231 433.893C198.895 433.473 198.378 433.202 197.801 433.202H197.257V433.979L197.256 437.394Z" fill="#0E1632"/>
<path fill-rule="evenodd" clip-rule="evenodd" d="M166.353 390.429H174.244H175.693H182.728C183.367 390.429 183.967 390.468 184.528 390.544C189.913 391.255 191.795 395.165 191.795 398.317H196.375L196.313 398.212C196.313 394.249 193.701 389.234 185.992 389.234H167.352H148.71C141.002 389.234 138.389 394.249 138.389 398.212L138.328 398.317H140.909C140.909 395.098 142.873 391.088 148.526 390.503C148.985 390.456 149.468 390.431 149.977 390.431H158.81L166.353 390.429Z" fill="#0E1632"/>
<path fill-rule="evenodd" clip-rule="evenodd" d="M136.513 399.693H125.541C125.157 399.693 124.844 400.007 124.844 400.391V403.836C124.844 404.22 125.157 404.534 125.541 404.534H136.513C136.896 404.534 137.209 404.22 137.209 403.836V400.391C137.209 400.007 136.896 399.693 136.513 399.693Z" fill="#F4F4F7"/>
<path fill-rule="evenodd" clip-rule="evenodd" d="M140.375 399.24V404.712C140.375 405.454 139.864 406.062 139.24 406.062H122.367V406.323C122.367 407.066 122.878 407.673 123.502 407.673H141.363C141.987 407.673 142.497 407.066 142.497 406.323V399.665C142.497 398.924 141.987 398.315 141.363 398.315H140.908H140.375V399.24Z" fill="#F4F4F7"/>
<path fill-rule="evenodd" clip-rule="evenodd" d="M204.348 399.693H193.376C192.993 399.693 192.68 400.007 192.68 400.391V403.836C192.68 404.22 192.993 404.534 193.376 404.534H204.348C204.732 404.534 205.045 404.22 205.045 403.836V400.391C205.045 400.007 204.732 399.693 204.348 399.693Z" fill="#F4F4F7"/>
<path fill-rule="evenodd" clip-rule="evenodd" d="M208.21 399.24V404.712C208.21 405.454 207.7 406.062 207.076 406.062H190.203V406.323C190.203 407.066 190.713 407.673 191.338 407.673H209.198C209.823 407.673 210.333 407.066 210.333 406.323V399.665C210.333 398.924 209.823 398.315 209.198 398.315H208.744H208.21V399.24Z" fill="#F4F4F7"/>
<path fill-rule="evenodd" clip-rule="evenodd" d="M82.2121 147.65H144.4C148.918 147.65 152.613 151.346 152.613 155.863V189.731V192.237V213.797C152.613 214.176 152.398 214.499 152.048 214.645C151.698 214.79 151.315 214.714 151.049 214.446L137.055 200.452H82.2133C77.6965 200.452 74 196.756 74 192.238V155.864C74 151.346 77.6954 147.65 82.2121 147.65Z" fill="#E74D91"/>
<path fill-rule="evenodd" clip-rule="evenodd" d="M449.265 309.699H298.453C296.546 309.699 294.668 311.261 294.282 313.17L275.07 408.02C274.915 408.788 275.024 409.501 275.334 410.078C275.952 411.229 278.58 414.103 279.258 414.076L424.763 407.93C426.664 407.851 428.403 406.327 428.935 404.462L454.712 313.879C454.722 313.844 451.801 310.759 450.91 310.171C450.458 309.87 449.899 309.699 449.265 309.699Z" fill="#C9C4D1"/>
<path fill-rule="evenodd" clip-rule="evenodd" d="M413.843 352.548H347.44C345.979 352.548 344.563 353.743 344.291 355.203L336.085 399.361C335.813 400.821 336.785 402.016 338.245 402.016H404.648C406.108 402.016 407.524 400.821 407.798 399.361L416.004 355.203C416.274 353.742 415.304 352.548 413.843 352.548Z" fill="#EBEAEF"/>
<path fill-rule="evenodd" clip-rule="evenodd" d="M378.467 374.437H358.912C356.503 374.437 355.011 376.405 355.596 378.814L369.153 434.71C369.737 437.118 372.184 439.086 374.592 439.086H394.147C396.554 439.086 398.047 437.118 397.463 434.71L383.907 378.814C383.323 376.406 380.875 374.437 378.467 374.437Z" fill="#C5C1CD"/>
<path fill-rule="evenodd" clip-rule="evenodd" d="M355.805 446.053H323.027C320.162 446.053 317.82 443.712 317.82 440.847C317.82 437.983 320.163 435.641 323.027 435.641H355.805C358.669 435.641 361.011 437.983 361.011 440.847C361.011 443.712 358.669 446.053 355.805 446.053Z" fill="#C5C1CD"/>
<path fill-rule="evenodd" clip-rule="evenodd" d="M434.685 321.202H433.876C433.216 321.202 432.576 321.744 432.454 322.404L428.739 342.386C428.617 343.046 429.057 343.588 429.718 343.588H430.525C431.186 343.588 431.826 343.047 431.95 342.386L435.663 322.404C435.786 321.742 435.347 321.202 434.685 321.202Z" fill="#EBEAEF"/>
<path fill-rule="evenodd" clip-rule="evenodd" d="M428.34 321.202H427.531C426.873 321.202 426.23 321.744 426.108 322.404L422.396 342.386C422.273 343.046 422.711 343.588 423.373 343.588H424.18C424.84 343.588 425.483 343.047 425.605 342.386L429.317 322.404C429.441 321.742 429 321.202 428.34 321.202Z" fill="#EBEAEF"/>
<path fill-rule="evenodd" clip-rule="evenodd" d="M422.005 321.202H421.198C420.538 321.202 419.897 321.744 419.774 322.404L416.06 342.386C415.937 343.046 416.377 343.588 417.038 343.588H417.845C418.505 343.588 419.147 343.047 419.27 342.386L422.983 322.404C423.107 321.742 422.667 321.202 422.005 321.202Z" fill="#EBEAEF"/>
<path fill-rule="evenodd" clip-rule="evenodd" d="M415.663 321.202H414.854C414.193 321.202 413.552 321.744 413.429 322.404L409.716 342.386C409.594 343.046 410.033 343.588 410.693 343.588H411.501C412.161 343.588 412.802 343.047 412.925 342.386L416.639 322.404C416.762 321.742 416.323 321.202 415.663 321.202Z" fill="#EBEAEF"/>
<path fill-rule="evenodd" clip-rule="evenodd" d="M409.326 321.202H408.518C407.857 321.202 407.217 321.744 407.094 322.404L403.38 342.386C403.257 343.046 403.696 343.588 404.356 343.588H405.165C405.826 343.588 406.468 343.047 406.589 342.386L410.304 322.404C410.427 321.742 409.986 321.202 409.326 321.202Z" fill="#EBEAEF"/>
<path fill-rule="evenodd" clip-rule="evenodd" d="M402.982 321.202H402.175C401.513 321.202 400.874 321.744 400.75 322.404L397.036 342.386C396.913 343.046 397.354 343.588 398.013 343.588H398.822C399.482 343.588 400.124 343.047 400.245 342.386L403.96 322.404C404.083 321.742 403.644 321.202 402.982 321.202Z" fill="#EBEAEF"/>
<path fill-rule="evenodd" clip-rule="evenodd" d="M396.637 321.202H395.829C395.169 321.202 394.528 321.744 394.405 322.404L390.692 342.386C390.57 343.046 391.009 343.588 391.669 343.588H392.477C393.137 343.588 393.779 343.047 393.903 342.386L397.615 322.404C397.737 321.742 397.298 321.202 396.637 321.202Z" fill="#EBEAEF"/>
<path fill-rule="evenodd" clip-rule="evenodd" d="M390.302 321.202H389.493C388.833 321.202 388.193 321.744 388.07 322.404L384.356 342.386C384.234 343.046 384.675 343.588 385.335 343.588H386.142C386.802 343.588 387.443 343.047 387.566 342.386L391.279 322.404C391.403 321.742 390.963 321.202 390.302 321.202Z" fill="#EBEAEF"/>
<path fill-rule="evenodd" clip-rule="evenodd" d="M383.957 321.202H383.15C382.49 321.202 381.848 321.744 381.725 322.404L378.013 342.386C377.89 343.046 378.331 343.588 378.991 343.588H379.799C380.46 343.588 381.099 343.047 381.223 342.386L384.938 322.404C385.058 321.742 384.619 321.202 383.957 321.202Z" fill="#EBEAEF"/>
<path fill-rule="evenodd" clip-rule="evenodd" d="M377.622 321.202H376.815C376.153 321.202 375.513 321.744 375.391 322.404L371.676 342.386C371.555 343.046 371.995 343.588 372.656 343.588H373.462C374.123 343.588 374.764 343.047 374.887 342.386L378.599 322.404C378.722 321.742 378.282 321.202 377.622 321.202Z" fill="#EBEAEF"/>
<path fill-rule="evenodd" clip-rule="evenodd" d="M371.278 321.202H370.47C369.809 321.202 369.168 321.744 369.046 322.404L365.333 342.386C365.21 343.046 365.649 343.588 366.311 343.588H367.118C367.779 343.588 368.42 343.047 368.542 342.386L372.256 322.404C372.379 321.742 371.939 321.202 371.278 321.202Z" fill="#EBEAEF"/>
<path fill-rule="evenodd" clip-rule="evenodd" d="M364.942 321.202H364.134C363.474 321.202 362.832 321.744 362.711 322.404L358.997 342.386C358.874 343.046 359.314 343.588 359.975 343.588H360.783C361.443 343.588 362.084 343.047 362.206 342.386L365.921 322.404C366.041 321.742 365.602 321.202 364.942 321.202Z" fill="#EBEAEF"/>
<path fill-rule="evenodd" clip-rule="evenodd" d="M358.598 321.202H357.79C357.13 321.202 356.488 321.744 356.367 322.404L352.653 342.386C352.531 343.046 352.97 343.588 353.631 343.588H354.439C355.099 343.588 355.741 343.047 355.864 342.386L359.576 322.404C359.7 321.742 359.259 321.202 358.598 321.202Z" fill="#EBEAEF"/>
<path fill-rule="evenodd" clip-rule="evenodd" d="M352.263 321.202H351.454C350.793 321.202 350.153 321.744 350.031 322.404L346.317 342.386C346.196 343.046 346.634 343.588 347.294 343.588H348.102C348.763 343.588 349.404 343.047 349.526 342.386L353.24 322.404C353.363 321.742 352.923 321.202 352.263 321.202Z" fill="#EBEAEF"/>
<path fill-rule="evenodd" clip-rule="evenodd" d="M345.918 321.202H345.11C344.45 321.202 343.809 321.744 343.686 322.404L339.974 342.386C339.851 343.046 340.291 343.588 340.951 343.588H341.759C342.421 343.588 343.06 343.047 343.183 342.386L346.898 322.404C347.018 321.742 346.578 321.202 345.918 321.202Z" fill="#EBEAEF"/>
<path fill-rule="evenodd" clip-rule="evenodd" d="M339.575 321.202H338.768C338.107 321.202 337.466 321.744 337.345 322.404L333.63 342.386C333.507 343.046 333.947 343.588 334.608 343.588H335.416C336.077 343.588 336.718 343.047 336.839 342.386L340.553 322.404C340.674 321.742 340.236 321.202 339.575 321.202Z" fill="#EBEAEF"/>
<path fill-rule="evenodd" clip-rule="evenodd" d="M333.24 321.202H332.432C331.772 321.202 331.131 321.744 331.009 322.404L327.294 342.386C327.171 343.046 327.612 343.588 328.272 343.588H329.08C329.74 343.588 330.382 343.047 330.504 342.386L334.217 322.404C334.341 321.742 333.901 321.202 333.24 321.202Z" fill="#EBEAEF"/>
<path fill-rule="evenodd" clip-rule="evenodd" d="M326.895 321.202H326.087C325.427 321.202 324.787 321.744 324.664 322.404L320.95 342.386C320.828 343.046 321.266 343.588 321.927 343.588H322.735C323.395 343.588 324.038 343.047 324.159 342.386L327.874 322.404C327.996 321.742 327.557 321.202 326.895 321.202Z" fill="#EBEAEF"/>
<path fill-rule="evenodd" clip-rule="evenodd" d="M320.559 321.202H319.751C319.091 321.202 318.449 321.744 318.327 322.404L314.614 342.386C314.492 343.046 314.93 343.588 315.592 343.588H316.399C317.06 343.588 317.701 343.047 317.824 342.386L321.538 322.404C321.659 321.742 321.219 321.202 320.559 321.202Z" fill="#EBEAEF"/>
<path fill-rule="evenodd" clip-rule="evenodd" d="M572.62 153.645H510.432C505.914 153.645 502.219 157.34 502.219 161.857V195.727V198.233V219.792C502.219 220.17 502.435 220.495 502.786 220.639C503.135 220.783 503.516 220.708 503.784 220.44L517.779 206.445H572.62C577.137 206.445 580.832 202.749 580.832 198.233V161.858C580.833 157.34 577.137 153.645 572.62 153.645Z" fill="#2CA2F0"/>
<path fill-rule="evenodd" clip-rule="evenodd" d="M294.698 156.059C295.924 151.528 298.214 149.765 298.451 149.593C298.589 149.481 298.789 149.462 298.952 149.557C300.801 150.655 301.884 152.009 302.447 153.33C303.231 155.165 303.011 156.953 302.46 157.934L293.546 173.372C292.982 174.347 291.535 175.451 289.535 175.692C288.114 175.864 286.407 175.605 284.538 174.56C284.384 174.481 284.284 174.314 284.298 174.13C284.298 174.122 284.533 171.133 288.011 167.635C288.147 167.483 288.377 167.443 288.559 167.548C288.567 167.554 291.504 169.248 292.405 167.731L296.978 159.807C297.832 158.331 295.158 156.704 294.923 156.564C294.743 156.471 294.645 156.263 294.698 156.059Z" fill="#2CA2F0"/>
<path fill-rule="evenodd" clip-rule="evenodd" d="M332.94 98.2769C332.473 98.2769 332.094 97.8975 332.094 97.4295C332.094 96.9614 332.473 96.582 332.94 96.582H360.093C360.56 96.582 360.939 96.9603 360.939 97.4295C360.939 97.8975 360.56 98.2769 360.093 98.2769H332.94Z" fill="#2CA2F0"/>
<path fill-rule="evenodd" clip-rule="evenodd" d="M333.191 103.543C332.723 103.543 332.344 103.163 332.344 102.695C332.344 102.226 332.723 101.848 333.191 101.848H343.64C344.108 101.848 344.488 102.226 344.488 102.695C344.488 103.163 344.107 103.543 343.64 103.543H333.191Z" fill="#2CA2F0"/>
<path fill-rule="evenodd" clip-rule="evenodd" d="M332.941 109.179C332.473 109.179 332.094 108.8 332.094 108.332C332.094 107.864 332.473 107.483 332.941 107.483H343.801C344.269 107.483 344.649 107.864 344.649 108.332C344.649 108.799 344.269 109.179 343.801 109.179H332.941Z" fill="#2CA2F0"/>
<path fill-rule="evenodd" clip-rule="evenodd" d="M332.941 114.136C332.473 114.136 332.094 113.757 332.094 113.289C332.094 112.821 332.473 112.441 332.941 112.441H354.664C355.131 112.441 355.51 112.821 355.51 113.289C355.51 113.757 355.131 114.136 354.664 114.136H332.941Z" fill="#2CA2F0"/>
<path fill-rule="evenodd" clip-rule="evenodd" d="M332.33 119.404C332.199 119.404 332.094 119.023 332.094 118.556C332.094 118.088 332.199 117.709 332.33 117.709H342.061C342.193 117.709 342.297 118.088 342.297 118.556C342.297 119.023 342.192 119.404 342.061 119.404H332.33Z" fill="#2CA2F0"/>
<path fill-rule="evenodd" clip-rule="evenodd" d="M332.941 125.059C332.473 125.059 332.094 124.68 332.094 124.212C332.094 123.744 332.473 123.364 332.941 123.364H367.828C368.296 123.364 368.675 123.744 368.675 124.212C368.675 124.68 368.296 125.059 367.828 125.059H332.941Z" fill="#2CA2F0"/>
<path fill-rule="evenodd" clip-rule="evenodd" d="M332.94 150.077C332.473 150.077 332.094 149.697 332.094 149.228C332.094 148.761 332.473 148.381 332.94 148.381H360.093C360.56 148.381 360.939 148.76 360.939 149.228C360.939 149.696 360.56 150.077 360.093 150.077H332.94Z" fill="#2CA2F0"/>
<path fill-rule="evenodd" clip-rule="evenodd" d="M333.191 155.341C332.723 155.341 332.344 154.962 332.344 154.494C332.344 154.026 332.723 153.646 333.191 153.646H343.64C344.108 153.646 344.488 154.026 344.488 154.494C344.488 154.962 344.107 155.341 343.64 155.341H333.191Z" fill="#2CA2F0"/>
<path fill-rule="evenodd" clip-rule="evenodd" d="M332.941 160.978C332.473 160.978 332.094 160.599 332.094 160.131C332.094 159.664 332.473 159.283 332.941 159.283H343.801C344.269 159.283 344.649 159.663 344.649 160.131C344.649 160.6 344.269 160.978 343.801 160.978H332.941Z" fill="#2CA2F0"/>
<path fill-rule="evenodd" clip-rule="evenodd" d="M332.941 165.934C332.473 165.934 332.094 165.556 332.094 165.088C332.094 164.62 332.473 164.24 332.941 164.24H354.664C355.131 164.24 355.51 164.62 355.51 165.088C355.51 165.556 355.131 165.934 354.664 165.934H332.941Z" fill="#2CA2F0"/>
<path fill-rule="evenodd" clip-rule="evenodd" d="M332.941 171.203C332.473 171.203 332.094 170.823 332.094 170.355C332.094 169.887 332.473 169.508 332.941 169.508H367.828C368.296 169.508 368.675 169.887 368.675 170.355C368.675 170.823 368.296 171.203 367.828 171.203H332.941Z" fill="#2CA2F0"/>
<path fill-rule="evenodd" clip-rule="evenodd" d="M332.262 176.858C332.169 176.858 332.094 176.48 332.094 176.011C332.094 175.543 332.169 175.163 332.262 175.163H339.17C339.263 175.163 339.338 175.544 339.338 176.011C339.338 176.479 339.263 176.858 339.17 176.858H332.262Z" fill="#2CA2F0"/>
<path fill-rule="evenodd" clip-rule="evenodd" d="M285.345 127.393L283.485 125.578C283.485 125.578 283.283 125.697 282.922 126.02C283.693 126.533 284.503 126.994 285.345 127.393Z" fill="#9EB1D9"/>
<path fill-rule="evenodd" clip-rule="evenodd" d="M285.345 127.393L283.485 125.578C283.485 125.578 283.283 125.697 282.922 126.02C283.693 126.533 284.502 126.994 285.345 127.393Z" fill="#9EB1D9"/>
<path fill-rule="evenodd" clip-rule="evenodd" d="M301.859 127.393L303.72 125.578C303.72 125.578 303.922 125.697 304.284 126.02C303.512 126.533 302.702 126.994 301.859 127.393Z" fill="#9EB1D9"/>
<path fill-rule="evenodd" clip-rule="evenodd" d="M301.859 127.393L303.72 125.578C303.72 125.578 303.922 125.696 304.284 126.02C303.512 126.533 302.702 126.994 301.859 127.393Z" fill="#9EB1D9"/>
<path fill-rule="evenodd" clip-rule="evenodd" d="M300.067 124.113L300.218 124.157H300.22C300.943 124.369 302.297 124.822 303.72 125.579C303.85 125.66 304.037 125.801 304.258 126.038C301.206 128.065 297.544 129.247 293.604 129.247C289.667 129.247 286.006 128.066 282.953 126.038C283.174 125.801 283.362 125.66 283.492 125.578C284.915 124.82 286.27 124.369 286.992 124.156H286.994L287.145 124.112L287.155 124.122C288.577 123.834 289.801 123.797 289.801 123.797L293.561 124.339L293.607 124.333L293.651 124.339L297.411 123.797C297.411 123.797 298.634 123.836 300.057 124.122L300.067 124.113Z" fill="#E74D91"/>
<path fill-rule="evenodd" clip-rule="evenodd" d="M296.68 115.522L296.59 117.637C296.59 117.637 296.59 121.965 296.59 122.621C296.59 122.938 296.887 123.397 297.409 123.797C294.694 126.742 292.512 126.742 289.797 123.797C290.319 123.397 290.615 122.938 290.615 122.621C290.615 121.965 290.615 117.637 290.615 117.637L290.525 115.522C290.525 115.522 292.039 115.795 293.602 116.178C295.166 115.795 296.68 115.522 296.68 115.522Z" fill="#E8685B"/>
<path fill-rule="evenodd" clip-rule="evenodd" d="M283.811 103.636C283.811 103.636 283.339 104.583 283.352 105.456C283.362 106.328 285.202 106.687 285.832 106.687C286.46 106.687 303.461 107.315 303.461 107.315C303.461 107.315 303.988 107.218 303.988 106.71C303.988 106.202 301.073 99.8438 301.073 99.8438L283.811 103.636Z" fill="#0E1632"/>
<path fill-rule="evenodd" clip-rule="evenodd" d="M284.331 109.032C285.825 109.032 287.037 110.243 287.037 111.738C287.037 113.233 285.825 114.444 284.331 114.444C282.837 114.444 281.625 113.232 281.625 111.738C281.625 110.244 282.837 109.032 284.331 109.032Z" fill="#E8685B"/>
<path fill-rule="evenodd" clip-rule="evenodd" d="M302.925 109.032C304.419 109.032 305.632 110.243 305.632 111.738C305.632 113.233 304.42 114.444 302.925 114.444C301.43 114.444 300.219 113.232 300.219 111.738C300.219 110.244 301.43 109.032 302.925 109.032Z" fill="#E8685B"/>
<path fill-rule="evenodd" clip-rule="evenodd" d="M293.668 94.6826C298.767 94.6826 302.937 98.854 302.937 103.952V112.377C302.937 117.474 298.767 121.646 293.668 121.646C288.569 121.646 284.398 117.474 284.398 112.377V103.952C284.398 98.8529 288.569 94.6826 293.668 94.6826Z" fill="#F4AD85"/>
<path fill-rule="evenodd" clip-rule="evenodd" d="M301.875 103.812C301.875 103.812 301.875 105.579 301.875 106.72C301.875 107.861 302.083 108.198 302.653 108.614C302.653 108.614 302.301 109.717 302.94 109.976C302.94 109.976 302.94 109.388 303.438 109.117V102.061C303.041 102.518 302.51 102.906 301.805 103.165C301.849 103.366 301.874 103.581 301.875 103.812Z" fill="#0E1632"/>
<path fill-rule="evenodd" clip-rule="evenodd" d="M285.526 103.325C285.526 103.325 285.526 104.6 285.526 105.422C285.526 106.247 285.376 106.49 284.963 106.79C284.963 106.79 284.859 107.49 284.401 107.677L283.992 102.169C284.28 102.5 285.068 102.67 285.577 102.856C285.544 103.004 285.526 103.158 285.526 103.325Z" fill="#0E1632"/>
<path fill-rule="evenodd" clip-rule="evenodd" d="M303.982 106.71C303.416 106.026 302.696 105.455 301.868 104.981L301.87 104.98L301.829 104.96C301.744 104.912 301.659 104.864 301.571 104.818C299.941 103.88 299.384 102.663 299.384 102.663C298.611 103.194 295.445 103.112 294.252 103.062C294.118 103.056 293.982 103.049 293.847 103.043L293.825 103.041L293.794 103.04L293.793 103.041C288.496 102.831 283.37 104.113 283.345 105.457C278.756 95.8091 290.232 86.5189 300.438 97.061C305.836 97.3177 305.359 102.856 303.982 106.71Z" fill="#0E1632"/>
<path d="M648.417 430.455H553.477V439.16H648.417V430.455Z" fill="#E0DEE1"/>
<path fill-rule="evenodd" clip-rule="evenodd" d="M648.417 431.214C649.457 431.214 650.298 430.372 650.298 429.333C650.298 428.295 649.457 427.453 648.417 427.453H564.302C562.283 427.453 560.444 428.28 559.113 429.61L559.105 429.618C557.773 430.951 556.945 432.789 556.945 434.808C556.945 436.827 557.773 438.665 559.105 439.997C560.436 441.336 562.277 442.163 564.302 442.163H648.417C649.457 442.163 650.298 441.321 650.298 440.282C650.298 439.245 649.457 438.402 648.417 438.402H564.302C563.315 438.402 562.417 437.996 561.765 437.344C561.112 436.696 560.709 435.796 560.709 434.808C560.709 433.82 561.112 432.92 561.761 432.268C562.414 431.62 563.314 431.214 564.302 431.214H648.417Z" fill="#ACADBB"/>
<path d="M580.653 413.809H501.055V424.372H580.653V413.809Z" fill="#E6E4EB"/>
<path fill-rule="evenodd" clip-rule="evenodd" d="M566.462 414.729C565.202 414.729 564.18 413.708 564.18 412.448C564.18 411.188 565.201 410.166 566.462 410.166H628.272C630.721 410.166 632.951 411.17 634.567 412.784L634.576 412.794C636.192 414.41 637.196 416.641 637.196 419.09C637.196 421.541 636.192 423.771 634.576 425.386C632.962 427.011 630.728 428.015 628.272 428.015H566.462C565.202 428.015 564.18 426.991 564.18 425.731C564.18 424.472 565.201 423.449 566.462 423.449H570.189C570.814 422.986 571.435 422.461 571.983 421.892C573.031 420.801 573.781 419.553 573.661 418.291C573.521 416.841 572.593 415.647 571.51 414.728H566.462V414.729Z" fill="#E74D91"/>
<path fill-rule="evenodd" clip-rule="evenodd" d="M501.048 414.729C499.789 414.729 498.766 413.708 498.766 412.448C498.766 411.188 499.788 410.166 501.048 410.166H567.515C569.964 410.166 572.194 411.17 573.811 412.784L573.82 412.794C575.434 414.41 576.44 416.641 576.44 419.09C576.44 421.541 575.434 423.771 573.82 425.386C572.205 427.011 569.971 428.015 567.515 428.015H501.048C499.789 428.015 498.766 426.991 498.766 425.731C498.766 424.472 499.788 423.449 501.048 423.449H567.515C568.711 423.449 569.802 422.956 570.591 422.167C571.383 421.381 571.875 420.288 571.875 419.089C571.875 417.891 571.383 416.799 570.596 416.007C569.805 415.22 568.714 414.728 567.515 414.728H501.048V414.729Z" fill="#CA2871"/>
<path d="M611.896 395.628H560.242V406.437H611.896V395.628Z" fill="#E6E4EB"/>
<path fill-rule="evenodd" clip-rule="evenodd" d="M574.759 396.572C576.047 396.572 577.095 395.526 577.095 394.236C577.095 392.948 576.047 391.899 574.759 391.899H536.678C534.171 391.899 531.889 392.929 530.235 394.58L530.226 394.588C528.574 396.242 527.547 398.526 527.547 401.033C527.547 403.539 528.574 405.822 530.226 407.475C531.877 409.138 534.164 410.165 536.678 410.165H574.759C576.047 410.165 577.095 409.119 577.095 407.828C577.095 406.54 576.047 405.493 574.759 405.493H570.944C570.306 405.019 569.669 404.482 569.11 403.899C568.036 402.783 567.267 401.505 567.392 400.213C567.535 398.731 568.486 397.509 569.594 396.571H574.759V396.572Z" fill="#0E1632"/>
<path fill-rule="evenodd" clip-rule="evenodd" d="M611.895 396.572C613.185 396.572 614.233 395.526 614.233 394.236C614.233 392.948 613.185 391.899 611.895 391.899H573.68C571.172 391.899 568.89 392.929 567.236 394.58L567.227 394.588C565.574 396.242 564.547 398.526 564.547 401.033C564.547 403.539 565.574 405.822 567.227 407.475C568.881 409.138 571.165 410.165 573.68 410.165H611.895C613.185 410.165 614.233 409.119 614.233 407.828C614.233 406.54 613.185 405.493 611.895 405.493H573.68C572.456 405.493 571.339 404.99 570.531 404.181C569.72 403.375 569.219 402.259 569.219 401.033C569.219 399.805 569.72 398.689 570.526 397.879C571.337 397.073 572.452 396.572 573.68 396.572H611.895Z" fill="#383D5D"/>
<path fill-rule="evenodd" clip-rule="evenodd" d="M301.777 442.162H261.344V427.166H294.936L301.777 442.162Z" fill="#01020E"/>
<path fill-rule="evenodd" clip-rule="evenodd" d="M219.836 442.162H288.098L294.938 427.166H226.677L219.836 442.162Z" fill="#B0DDE5"/>
<path fill-rule="evenodd" clip-rule="evenodd" d="M764.395 453.12H66.9317C63.8611 453.12 61.3438 450.604 61.3438 447.529C61.3438 444.454 63.8611 441.938 66.9317 441.938H764.395C767.465 441.938 769.983 444.454 769.983 447.529C769.983 450.604 767.465 453.12 764.395 453.12Z" fill="#01020E"/>
<path fill-rule="evenodd" clip-rule="evenodd" d="M15.5434 453.12H40.2968C43.372 453.12 45.8871 450.604 45.8871 447.529C45.8871 444.454 43.3708 441.938 40.2968 441.938H15.5434C12.4682 441.938 9.95312 444.454 9.95312 447.529C9.95312 450.604 12.4682 453.12 15.5434 453.12Z" fill="#01020E"/>
<path fill-rule="evenodd" clip-rule="evenodd" d="M662.232 215.291C663.836 213.685 665.756 212.391 667.896 211.504C669.953 210.652 672.206 210.182 674.562 210.182C676.918 210.182 679.171 210.652 681.227 211.505C683.367 212.391 685.288 213.686 686.892 215.291C688.496 216.895 689.792 218.817 690.677 220.955C691.528 223.012 691.998 225.263 691.998 227.621C691.998 229.978 691.528 232.231 690.677 234.288C689.792 236.427 688.496 238.348 686.892 239.952C685.288 241.555 683.368 242.851 681.23 243.735C679.174 244.589 676.92 245.059 674.562 245.059C672.206 245.059 669.952 244.589 667.896 243.737C665.757 242.851 663.836 241.555 662.232 239.952C660.628 238.348 659.332 236.426 658.447 234.288C657.595 232.232 657.124 229.978 657.124 227.621C657.124 225.263 657.595 223.012 658.447 220.955C659.332 218.817 660.628 216.895 662.232 215.291ZM668.509 212.995C666.579 213.796 664.837 214.971 663.376 216.433C661.913 217.895 660.736 219.637 659.937 221.568C659.166 223.429 658.74 225.474 658.74 227.622C658.74 229.77 659.166 231.815 659.937 233.677C660.736 235.606 661.913 237.348 663.376 238.81C664.837 240.273 666.579 241.449 668.509 242.249C670.371 243.02 672.415 243.446 674.563 243.446C676.709 243.446 678.753 243.021 680.613 242.249C682.547 241.45 684.287 240.273 685.75 238.81C687.212 237.349 688.389 235.607 689.188 233.677C689.959 231.815 690.385 229.771 690.385 227.622C690.385 225.474 689.959 223.43 689.188 221.568C688.389 219.638 687.212 217.897 685.75 216.433C684.287 214.97 682.547 213.794 680.617 212.995C678.755 212.223 676.71 211.798 674.563 211.798C672.414 211.798 670.37 212.223 668.509 212.995ZM666.58 200.164C665.49 200.477 664.416 200.862 663.367 201.309C662.303 201.762 661.271 202.279 660.28 202.85C659.274 203.433 658.302 204.077 657.372 204.778C656.438 205.482 655.551 206.239 654.716 207.044C654.42 207.329 654.051 207.496 653.672 207.543C653.285 207.591 652.884 207.511 652.535 207.309C649.974 205.831 647.282 204.367 644.773 202.826C644.652 202.763 644.524 202.725 644.397 202.71C644.252 202.696 644.107 202.706 643.968 202.743C643.826 202.781 643.692 202.846 643.575 202.934C643.465 203.018 643.367 203.127 643.292 203.257C641.426 206.081 639.553 209.731 637.824 212.727C637.75 212.854 637.706 212.991 637.687 213.129C637.669 213.273 637.682 213.424 637.72 213.569C637.758 213.711 637.824 213.846 637.911 213.961C637.996 214.074 638.105 214.17 638.233 214.244C640.538 215.768 643.506 217.291 645.947 218.702C646.306 218.908 646.566 219.215 646.717 219.565C646.769 219.687 646.807 219.815 646.832 219.946L646.991 219.998L646.814 220.718C646.673 221.284 646.552 221.85 646.447 222.413C646.347 222.962 646.26 223.536 646.187 224.133C646.115 224.716 646.062 225.296 646.028 225.868C645.994 226.427 645.977 227.013 645.977 227.622C645.977 228.231 645.994 228.816 646.028 229.374C646.061 229.947 646.115 230.527 646.187 231.11C646.259 231.708 646.347 232.282 646.447 232.83C646.55 233.394 646.673 233.961 646.813 234.526C646.916 234.946 646.865 235.367 646.697 235.731C646.529 236.092 646.243 236.396 645.871 236.587L639.038 240.531L639.041 240.535L638.231 241.002C638.103 241.075 637.995 241.172 637.91 241.284C637.823 241.399 637.757 241.534 637.719 241.676C637.681 241.824 637.668 241.974 637.686 242.118C637.704 242.255 637.749 242.392 637.823 242.52L642.88 251.285L642.883 251.282L643.291 251.99C643.366 252.118 643.463 252.228 643.574 252.312C643.691 252.4 643.825 252.465 643.967 252.502C644.113 252.541 644.261 252.554 644.406 252.535C644.542 252.517 644.678 252.472 644.806 252.399C647.253 250.861 650.013 249.394 652.538 247.937C652.898 247.731 653.293 247.661 653.666 247.705C654.055 247.752 654.422 247.922 654.711 248.198L654.715 248.203C655.549 249.007 656.438 249.765 657.373 250.469C658.3 251.17 659.273 251.815 660.279 252.396C661.276 252.972 662.315 253.49 663.387 253.946C664.44 254.393 665.532 254.78 666.658 255.103C667.053 255.216 667.384 255.453 667.614 255.759C667.849 256.068 667.982 256.457 667.983 256.861L667.987 265.777C667.987 265.927 668.015 266.069 668.07 266.195C668.124 266.328 668.208 266.451 668.313 266.555C668.414 266.658 668.535 266.741 668.672 266.798C668.798 266.851 668.94 266.88 669.091 266.88H680.031C680.179 266.88 680.321 266.851 680.449 266.798C680.583 266.741 680.707 266.658 680.809 266.555C680.912 266.45 680.996 266.328 681.052 266.195C681.104 266.069 681.134 265.927 681.134 265.777V256.861C681.134 256.438 681.28 256.045 681.53 255.73C681.782 255.411 682.137 255.178 682.541 255.082C683.633 254.768 684.705 254.384 685.755 253.936C686.821 253.484 687.851 252.967 688.841 252.395C689.849 251.813 690.818 251.169 691.748 250.468C692.683 249.764 693.571 249.006 694.407 248.2C694.717 247.903 695.105 247.737 695.505 247.701C695.911 247.663 696.328 247.763 696.679 247.994L704.309 252.4C704.436 252.474 704.574 252.518 704.714 252.535C704.858 252.555 705.009 252.541 705.156 252.502C705.298 252.465 705.432 252.4 705.547 252.312C705.659 252.228 705.757 252.118 705.83 251.99C707.643 248.829 709.485 245.681 711.299 242.52C711.372 242.393 711.417 242.256 711.435 242.117C711.454 241.974 711.442 241.823 711.404 241.678C711.365 241.533 711.3 241.399 711.213 241.284C711.13 241.17 711.023 241.074 710.897 241.003L703.177 236.545C702.819 236.338 702.558 236.033 702.408 235.682C702.367 235.586 702.334 235.487 702.31 235.388L702.108 235.347L702.311 234.528C702.451 233.963 702.573 233.396 702.677 232.834C702.777 232.286 702.864 231.71 702.937 231.112C703.009 230.528 703.061 229.948 703.096 229.375C703.129 228.818 703.146 228.232 703.146 227.623C703.146 227.014 703.129 226.43 703.096 225.871C703.062 225.3 703.009 224.72 702.937 224.138C702.863 223.532 702.776 222.956 702.677 222.411C702.572 221.85 702.452 221.284 702.311 220.719C702.208 220.298 702.258 219.875 702.427 219.514C702.597 219.153 702.882 218.848 703.248 218.661L710.895 214.247C711.021 214.175 711.126 214.078 711.213 213.965C711.299 213.852 711.365 213.717 711.404 213.571C711.442 213.425 711.454 213.275 711.435 213.132C711.416 212.994 711.372 212.856 711.299 212.729C709.433 209.952 707.563 206.243 705.83 203.259C705.757 203.131 705.659 203.022 705.547 202.937C705.432 202.848 705.298 202.783 705.156 202.746C705.01 202.706 704.859 202.695 704.715 202.713C704.581 202.73 704.443 202.775 704.313 202.851L696.587 207.31C696.223 207.523 695.815 207.593 695.429 207.541C695.039 207.487 694.671 207.31 694.384 207.025C693.545 206.216 692.661 205.463 691.739 204.77C690.82 204.079 689.854 203.438 688.843 202.852C687.845 202.277 686.808 201.757 685.736 201.303C684.683 200.854 683.59 200.467 682.465 200.145C682.068 200.031 681.739 199.794 681.507 199.489C681.272 199.179 681.139 198.791 681.139 198.386L681.136 189.472C681.136 189.322 681.106 189.18 681.054 189.052C681 188.921 680.914 188.798 680.81 188.693C680.708 188.59 680.585 188.507 680.451 188.45C680.324 188.397 680.182 188.367 680.033 188.367H669.093C668.942 188.367 668.8 188.396 668.674 188.45C668.538 188.506 668.415 188.589 668.313 188.692C668.114 188.894 667.989 189.169 667.989 189.472V198.386C667.989 198.813 667.841 199.206 667.595 199.517C667.339 199.834 666.985 200.068 666.58 200.164ZM662.735 199.825C661.61 200.304 660.522 200.85 659.472 201.456C658.403 202.074 657.377 202.755 656.4 203.491C655.423 204.229 654.485 205.029 653.598 205.883C653.565 205.916 653.523 205.934 653.477 205.94C653.431 205.946 653.382 205.938 653.344 205.915C650.747 204.417 648.147 202.923 645.553 201.417C645.245 201.25 644.913 201.148 644.578 201.109C644.233 201.07 643.884 201.097 643.555 201.185C643.212 201.276 642.888 201.435 642.601 201.655C642.325 201.865 642.084 202.132 641.901 202.45C640.02 205.499 638.233 208.802 636.431 211.919C636.249 212.236 636.136 212.579 636.092 212.927C636.047 213.285 636.072 213.647 636.164 213.988C636.255 214.328 636.414 214.654 636.633 214.941C636.843 215.217 637.11 215.458 637.427 215.639C639.913 217.174 642.606 218.629 645.147 220.098C645.187 220.12 645.219 220.157 645.235 220.198C645.253 220.241 645.26 220.29 645.249 220.333L645.069 221.053L645.082 221.057C645.004 221.407 644.932 221.762 644.866 222.124C644.752 222.742 644.659 223.349 644.586 223.945C644.515 224.535 644.46 225.146 644.422 225.774C644.383 226.403 644.364 227.021 644.364 227.621C644.364 228.22 644.383 228.838 644.422 229.468C644.459 230.096 644.515 230.707 644.586 231.299C644.659 231.893 644.753 232.502 644.866 233.119C644.979 233.733 645.108 234.33 645.251 234.912C645.263 234.958 645.258 235.008 645.236 235.05C645.214 235.097 645.182 235.135 645.141 235.155C642.304 236.669 639.423 238.451 636.618 240.072L636.719 240.196L636.634 240.303C636.415 240.59 636.256 240.916 636.165 241.258C636.074 241.598 636.048 241.958 636.094 242.318C636.137 242.666 636.25 243.008 636.434 243.325L642.311 253.506L642.42 253.439C642.479 253.492 642.538 253.543 642.602 253.59C642.889 253.809 643.213 253.969 643.556 254.059C643.893 254.151 644.253 254.176 644.612 254.13C644.95 254.087 645.285 253.979 645.593 253.808C648.164 252.443 650.812 250.795 653.349 249.33C653.386 249.309 653.433 249.301 653.478 249.307C653.525 249.313 653.572 249.332 653.605 249.365C654.49 250.219 655.426 251.018 656.404 251.755C657.38 252.49 658.406 253.169 659.475 253.787C660.531 254.397 661.629 254.946 662.759 255.427C663.882 255.905 665.039 256.315 666.219 256.653C666.266 256.668 666.304 256.694 666.332 256.73C666.361 256.769 666.379 256.815 666.376 256.859V265.774C666.376 266.138 666.449 266.49 666.585 266.812C666.725 267.147 666.927 267.447 667.177 267.695C667.429 267.944 667.727 268.147 668.057 268.286C668.379 268.419 668.731 268.494 669.095 268.494H680.035C680.398 268.494 680.75 268.42 681.071 268.286C681.403 268.147 681.703 267.944 681.954 267.695C682.203 267.445 682.405 267.147 682.546 266.812C682.679 266.49 682.755 266.138 682.755 265.774V256.859C682.755 256.806 682.772 256.759 682.798 256.725C682.825 256.691 682.869 256.662 682.917 256.651L682.952 256.638C684.14 256.296 685.288 255.887 686.389 255.419C687.513 254.938 688.603 254.395 689.653 253.787C690.722 253.168 691.748 252.488 692.723 251.753C693.702 251.015 694.638 250.215 695.526 249.36C695.562 249.325 695.609 249.305 695.653 249.3C695.701 249.296 695.749 249.308 695.791 249.334L703.512 253.791C703.828 253.974 704.17 254.086 704.514 254.129C704.873 254.175 705.235 254.151 705.574 254.058C705.914 253.968 706.24 253.808 706.528 253.589C706.797 253.384 707.032 253.123 707.215 252.816C709.243 249.555 711.159 245.983 713.094 242.634L712.989 242.572C713.01 242.486 713.023 242.4 713.035 242.314C713.081 241.955 713.056 241.595 712.963 241.256C712.872 240.914 712.713 240.588 712.494 240.301C712.283 240.026 712.017 239.786 711.7 239.603L703.98 235.146C703.94 235.122 703.91 235.086 703.891 235.046C703.873 235.001 703.87 234.951 703.88 234.906L704.08 234.089L704.068 234.087C704.137 233.769 704.202 233.446 704.263 233.118C704.376 232.501 704.471 231.892 704.542 231.296C704.615 230.704 704.669 230.091 704.708 229.464C704.745 228.835 704.766 228.217 704.766 227.617C704.766 227.017 704.745 226.401 704.708 225.771C704.67 225.143 704.615 224.531 704.542 223.935C704.471 223.345 704.376 222.737 704.263 222.116C704.15 221.503 704.021 220.907 703.878 220.33C703.866 220.282 703.873 220.233 703.893 220.186C703.913 220.144 703.949 220.107 703.992 220.086L711.703 215.634C712.022 215.448 712.288 215.211 712.496 214.934C712.716 214.645 712.874 214.319 712.963 213.983C713.055 213.644 713.081 213.283 713.035 212.925C712.992 212.588 712.884 212.253 712.709 211.94C710.872 208.537 708.765 205.104 706.82 201.737L706.71 201.803C706.651 201.749 706.591 201.699 706.528 201.652C706.24 201.432 705.914 201.273 705.574 201.181C705.235 201.091 704.875 201.066 704.515 201.11C704.167 201.154 703.826 201.264 703.512 201.444L702.94 201.772L702.943 201.778L695.781 205.911C695.739 205.936 695.69 205.944 695.645 205.938C695.6 205.931 695.555 205.911 695.522 205.876L695.503 205.857C694.627 205.013 693.692 204.218 692.707 203.476C691.729 202.74 690.707 202.062 689.651 201.452C688.596 200.842 687.498 200.293 686.366 199.813C685.244 199.334 684.086 198.924 682.908 198.586C682.86 198.573 682.822 198.545 682.795 198.51C682.766 198.471 682.748 198.424 682.751 198.379V189.465C682.751 189.1 682.676 188.749 682.542 188.428C682.403 188.092 682.199 187.793 681.948 187.545C681.698 187.295 681.399 187.092 681.068 186.954C680.746 186.82 680.394 186.745 680.032 186.745H669.092C668.727 186.745 668.375 186.82 668.054 186.954C667.723 187.092 667.424 187.295 667.17 187.545C666.677 188.038 666.373 188.718 666.373 189.465V198.379C666.373 198.431 666.355 198.477 666.328 198.515C666.3 198.549 666.258 198.578 666.208 198.588L666.174 198.6C664.987 198.947 663.838 199.357 662.735 199.825Z" fill="#BFCCE8"/>
<path fill-rule="evenodd" clip-rule="evenodd" d="M691.205 309.827C692.544 308.486 694.393 307.658 696.437 307.658C698.482 307.658 700.331 308.486 701.669 309.827C703.011 311.165 703.838 313.016 703.838 315.06C703.838 317.105 703.01 318.955 701.669 320.294C700.33 321.633 698.481 322.46 696.437 322.46C694.392 322.46 692.543 321.633 691.205 320.294C689.864 318.954 689.036 317.104 689.036 315.06C689.036 313.017 689.864 311.165 691.205 309.827ZM692.802 302.489C691.777 302.786 690.804 303.203 689.902 303.724C688.976 304.262 688.12 304.907 687.356 305.643C687.207 305.786 686.986 305.808 686.814 305.709L683.375 303.723L683.357 303.712C683.159 303.604 682.936 303.585 682.729 303.64C682.518 303.698 682.328 303.835 682.211 304.037L682.196 304.061L679.777 308.251C679.661 308.453 679.637 308.686 679.694 308.899C679.75 309.109 679.888 309.299 680.09 309.417L680.114 309.43L683.525 311.4C683.704 311.502 683.785 311.709 683.74 311.901C683.615 312.408 683.518 312.93 683.453 313.464C683.389 313.986 683.357 314.519 683.357 315.059C683.357 315.601 683.389 316.132 683.453 316.653C683.518 317.187 683.615 317.71 683.74 318.216C683.792 318.428 683.687 318.64 683.5 318.732L680.09 320.701V320.702C679.888 320.818 679.75 321.009 679.694 321.22C679.637 321.431 679.661 321.665 679.777 321.866L682.211 326.082V326.081C682.328 326.283 682.518 326.42 682.729 326.477C682.941 326.535 683.174 326.51 683.374 326.395L683.4 326.381L686.815 324.409C686.993 324.306 687.214 324.34 687.356 324.476C688.12 325.213 688.976 325.859 689.902 326.393C690.809 326.918 691.787 327.337 692.82 327.634C693.02 327.692 693.151 327.873 693.152 328.072V332.039C693.152 332.271 693.247 332.486 693.402 332.639C693.557 332.793 693.769 332.89 694.003 332.89H698.87C699.104 332.89 699.317 332.793 699.47 332.639C699.626 332.484 699.722 332.271 699.722 332.039V328.072C699.722 327.856 699.872 327.676 700.072 327.628C701.097 327.332 702.071 326.915 702.972 326.393C703.899 325.858 704.754 325.213 705.518 324.476C705.674 324.326 705.909 324.309 706.083 324.423L709.499 326.395C709.701 326.512 709.934 326.535 710.145 326.477C710.356 326.42 710.546 326.284 710.662 326.081L710.678 326.058L713.098 321.865C713.215 321.663 713.237 321.43 713.181 321.22C713.123 321.006 712.987 320.818 712.785 320.702L709.35 318.718C709.172 318.615 709.09 318.408 709.136 318.216C709.261 317.711 709.357 317.187 709.423 316.653C709.487 316.133 709.518 315.6 709.518 315.059C709.518 314.517 709.487 313.985 709.423 313.464C709.357 312.93 709.261 312.408 709.135 311.901C709.084 311.69 709.19 311.478 709.375 311.385L712.786 309.417C712.989 309.3 713.124 309.11 713.182 308.899C713.239 308.686 713.215 308.455 713.099 308.252L713.084 308.227L710.664 304.037C710.546 303.835 710.357 303.698 710.146 303.64C709.934 303.583 709.701 303.606 709.5 303.722V303.723L706.062 305.709C705.878 305.816 705.651 305.778 705.509 305.635C704.748 304.9 703.897 304.258 702.975 303.724C702.067 303.199 701.088 302.78 700.056 302.484C699.855 302.427 699.726 302.245 699.726 302.045V298.08C699.726 297.847 699.629 297.632 699.474 297.48C699.319 297.325 699.108 297.228 698.874 297.228H694.006C693.772 297.228 693.56 297.325 693.405 297.48C693.251 297.633 693.155 297.847 693.155 298.08V302.045C693.153 302.262 693.002 302.443 692.802 302.489Z" fill="#BFCCE8"/>
<path fill-rule="evenodd" clip-rule="evenodd" d="M395.063 22.2119H434.516C435.41 22.2119 436.235 22.5334 436.88 23.0662C437.057 23.14 437.216 23.2593 437.341 23.4218C437.41 23.5149 437.464 23.6149 437.503 23.7194C437.968 24.3408 438.243 25.1099 438.243 25.9391V49.1272C438.243 50.1507 437.823 51.0822 437.149 51.757V51.7604C436.474 52.4352 435.541 52.8544 434.516 52.8544H395.063C394.037 52.8544 393.104 52.4352 392.43 51.7604C391.755 51.0856 391.336 50.1541 391.336 49.1272V25.9403C391.336 25.1064 391.612 24.3351 392.078 23.7126C392.115 23.6115 392.169 23.5138 392.239 23.424C392.363 23.2604 392.522 23.1423 392.699 23.0685C393.342 22.5345 394.167 22.2119 395.063 22.2119ZM435.025 50.4983L419.389 38.5544L415.488 41.5341L415.485 41.5353L415.473 41.5444C415.443 41.5682 415.409 41.5909 415.378 41.6103L415.371 41.6148L415.352 41.625L415.348 41.6284L415.327 41.6387L415.323 41.6409L415.301 41.6523L415.298 41.6534L415.276 41.6648L415.273 41.6659L415.251 41.6761L415.248 41.6773L415.224 41.6875L415.223 41.6886L415.199 41.6989C415.156 41.7159 415.112 41.7284 415.069 41.7409C415.025 41.7523 414.979 41.7613 414.936 41.7659H414.934L414.909 41.7682L414.907 41.7693L414.883 41.7716L414.88 41.7727L414.828 41.775H414.826H414.8H414.798H414.775H414.772H414.747H414.743L414.692 41.7727L414.69 41.7716L414.665 41.7693L414.663 41.7682L414.638 41.7659H414.636C414.592 41.7602 414.549 41.7523 414.505 41.7409H414.504C414.459 41.7295 414.416 41.7159 414.374 41.6989L414.35 41.6886L414.348 41.6875L414.325 41.6773L414.323 41.6761L414.299 41.6659L414.297 41.6648L414.275 41.6534L414.272 41.6523L414.25 41.6409L414.246 41.6387L414.225 41.6284L414.22 41.625L414.201 41.6148L414.195 41.6103C414.163 41.5909 414.13 41.5682 414.099 41.5444L414.087 41.5353L414.083 41.5341L410.182 38.5544L394.547 50.4983C394.708 50.5585 394.878 50.5903 395.057 50.5903H434.511C434.694 50.5915 434.866 50.5585 435.025 50.4983ZM420.787 37.4888L435.978 49.0942V25.9403L435.976 25.8846L420.787 37.4888ZM393.599 49.0942L408.791 37.4888L393.6 25.8846L393.599 25.9403V49.0942ZM414.789 39.2269L434.098 24.4771H395.481L414.789 39.2269Z" fill="#B1C0E2"/>
<path fill-rule="evenodd" clip-rule="evenodd" d="M37.5199 141.643C38.49 138.057 39.8885 135.557 41.0926 133.916C42.2684 132.316 43.2942 131.5 43.5555 131.307C43.802 131.108 44.1053 130.991 44.4165 130.968H44.42C44.7221 130.948 45.0357 131.016 45.3163 131.182C46.7204 132.015 47.8564 132.948 48.7663 133.929C49.7955 135.04 50.526 136.206 51.0178 137.358C51.6142 138.756 51.8619 140.147 51.8653 141.403C51.8676 142.912 51.5166 144.239 50.994 145.167L50.9883 145.174L37.3768 168.757C36.8394 169.686 35.8647 170.67 34.547 171.432C33.4541 172.064 32.1159 172.553 30.5903 172.736C29.3543 172.886 27.9843 172.836 26.5132 172.504C25.2261 172.213 23.8652 171.702 22.4543 170.917C22.1759 170.776 21.9499 170.557 21.7999 170.29V170.286C21.6534 170.026 21.5807 169.722 21.6068 169.407V169.405C21.6068 169.396 21.7817 167.173 23.5562 164.067C24.4286 162.542 25.6941 160.783 27.5322 158.932C27.773 158.681 28.0877 158.522 28.4194 158.471C28.7591 158.419 29.118 158.475 29.435 158.66C29.5054 158.698 33.1872 160.804 34.1073 159.255L41.0903 147.16C41.4766 146.492 40.9404 145.66 40.2758 144.975C39.4522 144.128 38.431 143.506 38.2651 143.409C37.9641 143.239 37.7312 142.979 37.5994 142.676C37.4608 142.364 37.4256 142.005 37.5188 141.65V141.643H37.5199ZM42.516 134.96C41.43 136.439 40.1668 138.697 39.2693 141.948C39.6306 142.17 40.6712 142.844 41.5402 143.742C42.6796 144.916 43.5339 146.455 42.6183 148.041L35.6285 160.15C33.9767 162.932 29.5281 160.713 28.6954 160.265C27.0357 161.949 25.8861 163.552 25.0921 164.942C23.7584 167.275 23.4494 168.947 23.3858 169.415C24.6172 170.093 25.7952 170.533 26.9028 170.783C28.157 171.067 29.3271 171.109 30.3847 170.981C31.657 170.827 32.7646 170.425 33.6643 169.905C34.7037 169.304 35.4535 168.559 35.85 167.874L49.4581 144.307L49.4558 144.306C49.8444 143.613 50.1079 142.594 50.1045 141.405C50.1022 140.374 49.8955 139.223 49.3968 138.051C48.9764 137.07 48.3528 136.075 47.4758 135.127C46.7101 134.299 45.7423 133.503 44.5381 132.775C44.2541 132.994 43.468 133.662 42.516 134.96Z" fill="#B1C0E2"/>
<path fill-rule="evenodd" clip-rule="evenodd" d="M702.191 415.135C702.191 414.435 701.623 413.866 700.923 413.866C700.222 413.866 699.653 414.435 699.653 415.135V418.121H696.667C695.968 418.121 695.398 418.689 695.398 419.389C695.398 420.09 695.968 420.658 696.667 420.658H699.653V423.644C699.653 424.346 700.222 424.914 700.923 424.914C701.623 424.914 702.191 424.346 702.191 423.644V420.658H705.177C705.878 420.658 706.445 420.09 706.445 419.389C706.445 418.689 705.878 418.121 705.177 418.121H702.191V415.135Z" fill="#BFCCE8"/>
<path fill-rule="evenodd" clip-rule="evenodd" d="M295.41 241.21C295.41 240.509 294.841 239.941 294.14 239.941C293.44 239.941 292.872 240.509 292.872 241.21V244.195H289.886C289.185 244.195 288.617 244.764 288.617 245.465C288.617 246.166 289.186 246.734 289.886 246.734H292.872V249.719C292.872 250.421 293.44 250.988 294.14 250.988C294.841 250.988 295.41 250.421 295.41 249.719V246.734H298.395C299.096 246.734 299.665 246.166 299.665 245.465C299.665 244.764 299.096 244.195 298.395 244.195H295.41V241.21Z" fill="#2CA2F0"/>
<path fill-rule="evenodd" clip-rule="evenodd" d="M154.542 259.896C154.542 259.194 153.975 258.627 153.273 258.627C152.572 258.627 152.004 259.194 152.004 259.896V262.881H149.019C148.318 262.881 147.75 263.448 147.75 264.15C147.75 264.851 148.318 265.42 149.019 265.42H152.004V268.404C152.004 269.105 152.572 269.675 153.273 269.675C153.975 269.675 154.542 269.105 154.542 268.404V265.42H157.528C158.23 265.42 158.796 264.851 158.796 264.15C158.796 263.448 158.23 262.881 157.528 262.881H154.542V259.896Z" fill="#2CA2F0"/>
<path fill-rule="evenodd" clip-rule="evenodd" d="M296.847 9.78763C296.847 9.08671 296.279 8.51758 295.578 8.51758C294.877 8.51758 294.309 9.08558 294.309 9.78763V12.7719H291.324C290.623 12.7719 290.055 13.341 290.055 14.0419C290.055 14.744 290.623 15.3109 291.324 15.3109H294.309V18.2963C294.309 18.9972 294.877 19.5652 295.578 19.5652C296.28 19.5652 296.847 18.9983 296.847 18.2963V15.3109H299.832C300.534 15.3109 301.102 14.7429 301.102 14.0419C301.102 13.341 300.534 12.7719 299.832 12.7719H296.847V9.78763Z" fill="#BFCCE8"/>
<path fill-rule="evenodd" clip-rule="evenodd" d="M99.9183 127.204C99.9183 126.502 99.3503 125.934 98.6482 125.934C97.9485 125.934 97.3793 126.502 97.3793 127.204V130.188H94.395C93.6941 130.188 93.125 130.756 93.125 131.458C93.125 132.159 93.6941 132.728 94.395 132.728H97.3793V135.712C97.3793 136.413 97.9485 136.982 98.6482 136.982C99.3503 136.982 99.9183 136.414 99.9183 135.712V132.728H102.904C103.605 132.728 104.174 132.159 104.174 131.458C104.174 130.756 103.605 130.188 102.904 130.188H99.9183V127.204Z" fill="#BFCCE8"/>
<path fill-rule="evenodd" clip-rule="evenodd" d="M79.8 2.14895C79.8 1.44691 79.2331 0.878906 78.531 0.878906C77.8301 0.878906 77.2621 1.44691 77.2621 2.14895V5.13322H74.2767C73.5758 5.13322 73.0078 5.70123 73.0078 6.40327C73.0078 7.10532 73.5758 7.67332 74.2767 7.67332H77.2621V10.6587C77.2621 11.3596 77.8301 11.9276 78.531 11.9276C79.2331 11.9276 79.8 11.3596 79.8 10.6587V7.67332H82.7854C83.4863 7.67332 84.0543 7.10532 84.0543 6.40327C84.0543 5.70123 83.4851 5.13322 82.7854 5.13322H79.8V2.14895Z" fill="#BFCCE8"/>
<path fill-rule="evenodd" clip-rule="evenodd" d="M12.2375 246.508C12.2375 245.806 11.6695 245.239 10.9685 245.239C10.2665 245.239 9.69964 245.806 9.69964 246.508V249.494H6.71423C6.01218 249.494 5.44531 250.062 5.44531 250.762C5.44531 251.463 6.01331 252.033 6.71423 252.033H9.69964V255.018C9.69964 255.718 10.2676 256.287 10.9685 256.287C11.6695 256.287 12.2375 255.718 12.2375 255.018V252.033H15.2229C15.9238 252.033 16.4929 251.463 16.4929 250.762C16.4929 250.062 15.9238 249.494 15.2229 249.494H12.2375V246.508Z" fill="#BFCCE8"/>
<path fill-rule="evenodd" clip-rule="evenodd" d="M626.011 140.14C626.011 139.438 625.443 138.87 624.742 138.87C624.041 138.87 623.473 139.438 623.473 140.14V143.124H620.488C619.787 143.124 619.219 143.694 619.219 144.394C619.219 145.095 619.787 145.665 620.488 145.665H623.473V148.65C623.473 149.351 624.041 149.92 624.742 149.92C625.443 149.92 626.011 149.351 626.011 148.65V145.665H628.996C629.697 145.665 630.265 145.095 630.265 144.394C630.265 143.694 629.697 143.124 628.996 143.124H626.011V140.14Z" fill="#BFCCE8"/>
<path fill-rule="evenodd" clip-rule="evenodd" d="M641.823 305.442C641.823 304.741 641.255 304.172 640.554 304.172C639.854 304.172 639.286 304.741 639.286 305.442V308.427H636.3C635.599 308.427 635.031 308.995 635.031 309.696C635.031 310.397 635.599 310.966 636.3 310.966H639.286V313.951C639.286 314.651 639.854 315.221 640.554 315.221C641.255 315.221 641.823 314.651 641.823 313.951V310.966H644.809C645.509 310.966 646.078 310.397 646.078 309.696C646.078 308.995 645.509 308.427 644.809 308.427H641.823V305.442Z" fill="#BFCCE8"/>
</svg>
