<svg width="131" height="130" viewBox="0 0 131 130" fill="none" xmlns="http://www.w3.org/2000/svg">
<path d="M5.44724 11.5432C8.45562 11.5432 10.8943 9.10446 10.8943 6.09608C10.8943 3.0877 8.45562 0.648926 5.44724 0.648926C2.43886 0.648926 0 3.0877 0 6.09608C0 9.10446 2.43886 11.5432 5.44724 11.5432Z" fill="#A5B3E1"/>
<path d="M29.2576 11.5432C32.266 11.5432 34.7048 9.10446 34.7048 6.09608C34.7048 3.0877 32.266 0.648926 29.2576 0.648926C26.2492 0.648926 23.8105 3.0877 23.8105 6.09608C23.8105 9.10446 26.2492 11.5432 29.2576 11.5432Z" fill="#A5B3E1"/>
<path d="M53.0683 11.5432C56.0767 11.5432 58.5154 9.10446 58.5154 6.09608C58.5154 3.0877 56.0767 0.648926 53.0683 0.648926C50.0599 0.648926 47.6211 3.0877 47.6211 6.09608C47.6211 9.10446 50.0599 11.5432 53.0683 11.5432Z" fill="#A5B3E1"/>
<path d="M76.9197 11.5432C79.9281 11.5432 82.3669 9.10446 82.3669 6.09608C82.3669 3.0877 79.9281 0.648926 76.9197 0.648926C73.9113 0.648926 71.4727 3.0877 71.4727 6.09608C71.4727 9.10446 73.9113 11.5432 76.9197 11.5432Z" fill="#A5B3E1"/>
<path d="M100.732 11.5432C103.741 11.5432 106.179 9.10446 106.179 6.09608C106.179 3.0877 103.741 0.648926 100.732 0.648926C97.724 0.648926 95.2852 3.0877 95.2852 6.09608C95.2852 9.10446 97.724 11.5432 100.732 11.5432Z" fill="#A5B3E1"/>
<path d="M124.584 11.5432C127.592 11.5432 130.031 9.10446 130.031 6.09608C130.031 3.0877 127.592 0.648926 124.584 0.648926C121.575 0.648926 119.137 3.0877 119.137 6.09608C119.137 9.10446 121.575 11.5432 124.584 11.5432Z" fill="#A5B3E1"/>
<path d="M5.44724 31.1868C8.45562 31.1868 10.8943 28.748 10.8943 25.7396C10.8943 22.7313 8.45562 20.2925 5.44724 20.2925C2.43886 20.2925 0 22.7313 0 25.7396C0 28.748 2.43886 31.1868 5.44724 31.1868Z" fill="#A5B3E1"/>
<path d="M29.2576 31.1868C32.266 31.1868 34.7048 28.748 34.7048 25.7396C34.7048 22.7313 32.266 20.2925 29.2576 20.2925C26.2492 20.2925 23.8105 22.7313 23.8105 25.7396C23.8105 28.748 26.2492 31.1868 29.2576 31.1868Z" fill="#A5B3E1"/>
<path d="M53.0683 31.1868C56.0767 31.1868 58.5154 28.748 58.5154 25.7396C58.5154 22.7313 56.0767 20.2925 53.0683 20.2925C50.0599 20.2925 47.6211 22.7313 47.6211 25.7396C47.6211 28.748 50.0599 31.1868 53.0683 31.1868Z" fill="#A5B3E1"/>
<path d="M76.9197 31.1868C79.9281 31.1868 82.3669 28.748 82.3669 25.7396C82.3669 22.7313 79.9281 20.2925 76.9197 20.2925C73.9113 20.2925 71.4727 22.7313 71.4727 25.7396C71.4727 28.748 73.9113 31.1868 76.9197 31.1868Z" fill="#A5B3E1"/>
<path d="M100.732 31.1868C103.741 31.1868 106.179 28.748 106.179 25.7396C106.179 22.7313 103.741 20.2925 100.732 20.2925C97.724 20.2925 95.2852 22.7313 95.2852 25.7396C95.2852 28.748 97.724 31.1868 100.732 31.1868Z" fill="#A5B3E1"/>
<path d="M124.584 31.1868C127.592 31.1868 130.031 28.748 130.031 25.7396C130.031 22.7313 127.592 20.2925 124.584 20.2925C121.575 20.2925 119.137 22.7313 119.137 25.7396C119.137 28.748 121.575 31.1868 124.584 31.1868Z" fill="#A5B3E1"/>
<path d="M5.44724 50.8313C8.45562 50.8313 10.8943 48.3925 10.8943 45.3842C10.8943 42.3758 8.45562 39.937 5.44724 39.937C2.43886 39.937 0 42.3758 0 45.3842C0 48.3925 2.43886 50.8313 5.44724 50.8313Z" fill="#A5B3E1"/>
<path d="M29.2576 50.8313C32.266 50.8313 34.7048 48.3925 34.7048 45.3842C34.7048 42.3758 32.266 39.937 29.2576 39.937C26.2492 39.937 23.8105 42.3758 23.8105 45.3842C23.8105 48.3925 26.2492 50.8313 29.2576 50.8313Z" fill="#A5B3E1"/>
<path d="M53.0683 50.8313C56.0767 50.8313 58.5154 48.3925 58.5154 45.3842C58.5154 42.3758 56.0767 39.937 53.0683 39.937C50.0599 39.937 47.6211 42.3758 47.6211 45.3842C47.6211 48.3925 50.0599 50.8313 53.0683 50.8313Z" fill="#A5B3E1"/>
<path d="M76.9197 50.8313C79.9281 50.8313 82.3669 48.3925 82.3669 45.3842C82.3669 42.3758 79.9281 39.937 76.9197 39.937C73.9113 39.937 71.4727 42.3758 71.4727 45.3842C71.4727 48.3925 73.9113 50.8313 76.9197 50.8313Z" fill="#A5B3E1"/>
<path d="M100.732 50.8313C103.741 50.8313 106.179 48.3925 106.179 45.3842C106.179 42.3758 103.741 39.937 100.732 39.937C97.724 39.937 95.2852 42.3758 95.2852 45.3842C95.2852 48.3925 97.724 50.8313 100.732 50.8313Z" fill="#A5B3E1"/>
<path d="M124.584 50.8313C127.592 50.8313 130.031 48.3925 130.031 45.3842C130.031 42.3758 127.592 39.937 124.584 39.937C121.575 39.937 119.137 42.3758 119.137 45.3842C119.137 48.3925 121.575 50.8313 124.584 50.8313Z" fill="#A5B3E1"/>
<path d="M5.44724 70.4719C8.45562 70.4719 10.8943 68.0332 10.8943 65.0248C10.8943 62.0164 8.45562 59.5776 5.44724 59.5776C2.43886 59.5776 0 62.0164 0 65.0248C0 68.0332 2.43886 70.4719 5.44724 70.4719Z" fill="#A5B3E1"/>
<path d="M29.2576 70.4719C32.266 70.4719 34.7048 68.0332 34.7048 65.0248C34.7048 62.0164 32.266 59.5776 29.2576 59.5776C26.2492 59.5776 23.8105 62.0164 23.8105 65.0248C23.8105 68.0332 26.2492 70.4719 29.2576 70.4719Z" fill="#A5B3E1"/>
<path d="M53.0683 70.4719C56.0767 70.4719 58.5154 68.0332 58.5154 65.0248C58.5154 62.0164 56.0767 59.5776 53.0683 59.5776C50.0599 59.5776 47.6211 62.0164 47.6211 65.0248C47.6211 68.0332 50.0599 70.4719 53.0683 70.4719Z" fill="#A5B3E1"/>
<path d="M76.9197 70.4719C79.9281 70.4719 82.3669 68.0332 82.3669 65.0248C82.3669 62.0164 79.9281 59.5776 76.9197 59.5776C73.9113 59.5776 71.4727 62.0164 71.4727 65.0248C71.4727 68.0332 73.9113 70.4719 76.9197 70.4719Z" fill="#A5B3E1"/>
<path d="M100.732 70.4719C103.741 70.4719 106.179 68.0332 106.179 65.0248C106.179 62.0164 103.741 59.5776 100.732 59.5776C97.724 59.5776 95.2852 62.0164 95.2852 65.0248C95.2852 68.0332 97.724 70.4719 100.732 70.4719Z" fill="#A5B3E1"/>
<path d="M124.584 70.4719C127.592 70.4719 130.031 68.0332 130.031 65.0248C130.031 62.0164 127.592 59.5776 124.584 59.5776C121.575 59.5776 119.137 62.0164 119.137 65.0248C119.137 68.0332 121.575 70.4719 124.584 70.4719Z" fill="#A5B3E1"/>
<path d="M5.44724 90.1155C8.45562 90.1155 10.8943 87.6767 10.8943 84.6684C10.8943 81.66 8.45562 79.2212 5.44724 79.2212C2.43886 79.2212 0 81.66 0 84.6684C0 87.6767 2.43886 90.1155 5.44724 90.1155Z" fill="#A5B3E1"/>
<path d="M29.2576 90.116C32.266 90.116 34.7048 87.6772 34.7048 84.6688C34.7048 81.6605 32.266 79.2217 29.2576 79.2217C26.2492 79.2217 23.8105 81.6605 23.8105 84.6688C23.8105 87.6772 26.2492 90.116 29.2576 90.116Z" fill="#A5B3E1"/>
<path d="M53.0683 90.1155C56.0767 90.1155 58.5154 87.6767 58.5154 84.6684C58.5154 81.66 56.0767 79.2212 53.0683 79.2212C50.0599 79.2212 47.6211 81.66 47.6211 84.6684C47.6211 87.6767 50.0599 90.1155 53.0683 90.1155Z" fill="#A5B3E1"/>
<path d="M76.9197 90.116C79.9281 90.116 82.3669 87.6772 82.3669 84.6688C82.3669 81.6605 79.9281 79.2217 76.9197 79.2217C73.9113 79.2217 71.4727 81.6605 71.4727 84.6688C71.4727 87.6772 73.9113 90.116 76.9197 90.116Z" fill="#A5B3E1"/>
<path d="M100.732 90.116C103.741 90.116 106.179 87.6772 106.179 84.6688C106.179 81.6605 103.741 79.2217 100.732 79.2217C97.724 79.2217 95.2852 81.6605 95.2852 84.6688C95.2852 87.6772 97.724 90.116 100.732 90.116Z" fill="#A5B3E1"/>
<path d="M124.584 90.116C127.592 90.116 130.031 87.6772 130.031 84.6688C130.031 81.6605 127.592 79.2217 124.584 79.2217C121.575 79.2217 119.137 81.6605 119.137 84.6688C119.137 87.6772 121.575 90.116 124.584 90.116Z" fill="#A5B3E1"/>
<path d="M5.44724 109.758C8.45562 109.758 10.8943 107.319 10.8943 104.311C10.8943 101.303 8.45562 98.8638 5.44724 98.8638C2.43886 98.8638 0 101.303 0 104.311C0 107.319 2.43886 109.758 5.44724 109.758Z" fill="#A5B3E1"/>
<path d="M29.2576 109.758C32.266 109.758 34.7048 107.319 34.7048 104.311C34.7048 101.303 32.266 98.8638 29.2576 98.8638C26.2492 98.8638 23.8105 101.303 23.8105 104.311C23.8105 107.319 26.2492 109.758 29.2576 109.758Z" fill="#A5B3E1"/>
<path d="M53.0683 109.758C56.0767 109.758 58.5154 107.319 58.5154 104.311C58.5154 101.303 56.0767 98.8638 53.0683 98.8638C50.0599 98.8638 47.6211 101.303 47.6211 104.311C47.6211 107.319 50.0599 109.758 53.0683 109.758Z" fill="#A5B3E1"/>
<path d="M76.9197 109.758C79.9281 109.758 82.3669 107.319 82.3669 104.311C82.3669 101.303 79.9281 98.8638 76.9197 98.8638C73.9113 98.8638 71.4727 101.303 71.4727 104.311C71.4727 107.319 73.9113 109.758 76.9197 109.758Z" fill="#A5B3E1"/>
<path d="M100.732 109.758C103.741 109.758 106.179 107.319 106.179 104.311C106.179 101.303 103.741 98.8638 100.732 98.8638C97.724 98.8638 95.2852 101.303 95.2852 104.311C95.2852 107.319 97.724 109.758 100.732 109.758Z" fill="#A5B3E1"/>
<path d="M124.584 109.758C127.592 109.758 130.031 107.319 130.031 104.311C130.031 101.303 127.592 98.8638 124.584 98.8638C121.575 98.8638 119.137 101.303 119.137 104.311C119.137 107.319 121.575 109.758 124.584 109.758Z" fill="#A5B3E1"/>
<path d="M5.44724 129.402C8.45562 129.402 10.8943 126.963 10.8943 123.954C10.8943 120.946 8.45562 118.507 5.44724 118.507C2.43886 118.507 0 120.946 0 123.954C0 126.963 2.43886 129.402 5.44724 129.402Z" fill="#A5B3E1"/>
<path d="M29.2576 129.402C32.266 129.402 34.7048 126.963 34.7048 123.954C34.7048 120.946 32.266 118.507 29.2576 118.507C26.2492 118.507 23.8105 120.946 23.8105 123.954C23.8105 126.963 26.2492 129.402 29.2576 129.402Z" fill="#A5B3E1"/>
<path d="M53.0683 129.402C56.0767 129.402 58.5154 126.963 58.5154 123.954C58.5154 120.946 56.0767 118.507 53.0683 118.507C50.0599 118.507 47.6211 120.946 47.6211 123.954C47.6211 126.963 50.0599 129.402 53.0683 129.402Z" fill="#A5B3E1"/>
<path d="M76.9197 129.402C79.9281 129.402 82.3669 126.963 82.3669 123.954C82.3669 120.946 79.9281 118.507 76.9197 118.507C73.9113 118.507 71.4727 120.946 71.4727 123.954C71.4727 126.963 73.9113 129.402 76.9197 129.402Z" fill="#A5B3E1"/>
<path d="M100.732 129.402C103.741 129.402 106.179 126.963 106.179 123.954C106.179 120.946 103.741 118.507 100.732 118.507C97.724 118.507 95.2852 120.946 95.2852 123.954C95.2852 126.963 97.724 129.402 100.732 129.402Z" fill="#A5B3E1"/>
<path d="M124.584 129.402C127.592 129.402 130.031 126.963 130.031 123.954C130.031 120.946 127.592 118.507 124.584 118.507C121.575 118.507 119.137 120.946 119.137 123.954C119.137 126.963 121.575 129.402 124.584 129.402Z" fill="#A5B3E1"/>
</svg>
