<svg width="253" height="222" viewBox="0 0 253 222" fill="none" xmlns="http://www.w3.org/2000/svg">
<path fill-rule="evenodd" clip-rule="evenodd" d="M105.167 29.4985C113.961 37.0868 133.428 50.0551 158.542 43.8012C165.15 40.2188 157.93 31.0452 155.178 27.9974C148.347 20.4321 136.865 11.7493 127.224 6.47988C107.376 -4.36733 83.1499 10.4987 105.167 29.4985Z" fill="#DFEFF5"/>
<path fill-rule="evenodd" clip-rule="evenodd" d="M233.581 214.198C233.581 214.198 257.573 179.468 229.582 149.393C229.582 149.393 254.718 115.395 238.722 76.8198C222.728 38.245 191.88 41.514 167.317 49.3601C142.754 57.2055 110.763 53.2828 86.1993 22.5534C61.6363 -8.17478 33.0741 -1.63669 22.2202 12.7474C11.3662 27.131 8.50994 56.553 20.5067 85.9738C32.503 115.396 25.6476 134.356 15.3653 148.739C5.08253 163.123 3.94025 203.161 28.5038 214.198H233.581Z" fill="#DFEFF5"/>
<path fill-rule="evenodd" clip-rule="evenodd" d="M1.94307 214.291H250.578C251.448 214.291 252.161 215.021 252.161 215.91C252.161 216.799 251.448 217.528 250.578 217.528H245.234C244.75 217.528 244.354 217.934 244.354 218.427C244.354 218.921 244.75 219.327 245.234 219.327H247.189C247.793 219.327 248.288 219.832 248.288 220.451C248.288 221.069 247.793 221.574 247.189 221.574H5.50639C4.90155 221.574 4.40679 221.069 4.40679 220.451C4.40679 219.832 4.90155 219.327 5.50639 219.327H7.04629C7.52982 219.327 7.92631 218.922 7.92631 218.427C7.92631 217.934 7.52982 217.528 7.04629 217.528H1.94251C1.07148 217.528 0.359375 216.8 0.359375 215.91C0.359937 215.021 1.07204 214.291 1.94307 214.291ZM2.76749 221.574C3.34818 221.574 3.82385 221.088 3.82385 220.496V220.405C3.82385 219.811 3.34818 219.326 2.76749 219.326C2.18681 219.326 1.71226 219.811 1.71226 220.405V220.496C1.71226 221.088 2.18681 221.574 2.76749 221.574Z" fill="#06152D"/>
<path fill-rule="evenodd" clip-rule="evenodd" d="M192.306 203.882C192.306 203.882 197.408 208.346 199.257 208.7C201.107 209.055 205.157 209.41 206.018 209.906C206.879 210.401 207.677 212.492 207.772 212.883C207.867 213.272 208.09 214.654 206.847 214.654C205.603 214.654 184.971 214.654 184.015 214.654C183.059 214.654 182.867 214.123 182.867 213.343C182.867 212.564 183.441 211.784 183.441 211.784C183.441 211.784 183.441 208.382 183.441 207.425C183.441 206.468 183.951 205.689 185.068 205.618C186.994 205.495 189.098 206.597 190.343 204.576C190.895 203.68 191.135 202.987 192.306 203.882Z" fill="#01142E"/>
<path fill-rule="evenodd" clip-rule="evenodd" d="M192.313 203.882C192.313 203.882 197.205 208.162 199.145 208.672C198.438 209.448 197.217 209.826 196.682 209.784C195.979 209.728 190.707 207.33 190.23 206.688C189.753 206.046 190.251 204.725 190.251 204.725H190.25C190.284 204.677 190.317 204.628 190.348 204.575C190.901 203.68 191.141 202.987 192.313 203.882Z" fill="#01142E"/>
<path fill-rule="evenodd" clip-rule="evenodd" d="M207.357 211.785C207.585 212.286 207.741 212.725 207.78 212.884C207.875 213.274 208.098 214.655 206.855 214.655C205.611 214.655 184.979 214.655 184.023 214.655C183.067 214.655 182.875 214.124 182.875 213.344C182.875 212.565 183.449 211.785 183.449 211.785H207.357Z" fill="#002049"/>
<path fill-rule="evenodd" clip-rule="evenodd" d="M205.613 77.9476C204.773 73.1887 198.773 58.2132 194.109 50.1133C194.109 50.1133 192.42 52.4922 189.828 51.861L193.961 76.5571C196.238 77.7387 204.737 74.8875 205.613 77.9476Z" fill="#D1D8E4"/>
<path fill-rule="evenodd" clip-rule="evenodd" d="M192.234 66.2088L193.966 76.5567C195.156 77.1745 198.046 76.6904 200.659 76.5241L194.888 54.9297L193.072 57.2637L192.234 66.2088Z" fill="#949DAE"/>
<path fill-rule="evenodd" clip-rule="evenodd" d="M194.771 99.0547L196.3 102.219L196.708 107.071C196.708 107.071 198.393 109.744 198.687 110.545C198.979 111.346 200.004 117.895 200.111 119.096C200.219 120.299 194.908 173.745 194.18 183.365C193.453 192.986 194.279 203.407 194.379 204.342C194.476 205.278 189.954 206.881 188.3 207.015C187.334 207.094 185.314 206.829 183.717 206.45L183.686 206.442L183.684 206.441C183.05 206.275 183.007 205.481 183.007 205.481L182.572 188.562H182.571C182.622 186.043 182.618 179.007 182.515 176.084C182.41 173.01 180.953 119.565 180.953 119.565L185.2 100.458L194.771 99.0547Z" fill="#949DAE"/>
<path fill-rule="evenodd" clip-rule="evenodd" d="M194.093 200.07C194.211 202.416 194.343 204.004 194.379 204.343C194.477 205.278 189.954 206.882 188.301 207.016C187.334 207.094 185.314 206.83 183.717 206.45L183.687 206.442L183.684 206.442C183.051 206.276 183.007 205.481 183.007 205.481L183 205.163L194.093 200.07Z" fill="#7A8296"/>
<path fill-rule="evenodd" clip-rule="evenodd" d="M196.313 102.372L196.709 107.071C196.709 107.071 198.393 109.743 198.687 110.545C198.944 111.247 199.762 116.363 200.033 118.426L190.924 115.101C190.924 115.101 189.6 114.306 188.539 117.168C187.805 119.152 183.987 136.783 181.715 147.405C181.331 133.405 180.953 119.565 180.953 119.565L184.055 105.607L194.95 102.332C194.951 102.332 195.478 102.336 196.313 102.372Z" fill="#7A8296"/>
<path fill-rule="evenodd" clip-rule="evenodd" d="M167.82 99.3027L167.125 101.591C167.125 101.591 164.913 103.061 164.774 103.795C164.635 104.53 163.993 106.139 163.784 107.208C163.575 108.277 164.708 110.86 164.359 111.662C164.011 112.464 162.126 151.773 162.126 156.441C162.126 161.107 161.992 160.903 161.78 164.498L160.325 204.95C160.325 204.95 160.095 206.274 161.614 206.628C163.132 206.981 168.991 206.72 170.036 206.498C170.796 206.221 171.37 205.94 171.598 205.744C172.294 205.143 172.085 195.122 172.225 193.586C172.364 192.049 175.428 161.051 176.264 155.84C177.099 150.629 184.203 122.036 185.456 116.959C186.709 111.882 189.634 102.395 189.634 102.395L167.82 99.3027Z" fill="#949DAE"/>
<path fill-rule="evenodd" clip-rule="evenodd" d="M160.371 203.877L160.333 204.951C160.333 204.951 160.103 206.275 161.622 206.629C163.14 206.981 168.999 206.721 170.044 206.498C170.804 206.222 171.378 205.941 171.606 205.745C172.034 205.375 172.12 201.447 172.155 198.117L160.371 203.877Z" fill="#7A8296"/>
<path fill-rule="evenodd" clip-rule="evenodd" d="M163.843 106.962C163.825 107.047 163.806 107.128 163.79 107.208C163.581 108.277 164.714 110.86 164.365 111.662C164.235 111.965 163.885 117.739 163.5 125.065C170.449 120.611 180.348 114.32 181.889 113.644C184.3 112.584 184.645 113.909 184.645 113.909L185.591 116.443C186.498 112.869 188.084 107.534 188.977 104.573C187.08 104.28 184.282 103.775 183.4 103.232C182.555 102.711 171.927 105.066 163.843 106.962Z" fill="#7A8296"/>
<path fill-rule="evenodd" clip-rule="evenodd" d="M197.331 106.035C197.331 106.035 188.852 108.296 179.031 107.378C169.212 106.459 186.308 100.595 190.972 102.221C195.635 103.845 197.331 106.035 197.331 106.035Z" fill="#122344"/>
<path fill-rule="evenodd" clip-rule="evenodd" d="M173.862 47.2277L162.398 51.0836C162.398 51.0836 165.488 55.7162 163.999 68.9665C163.999 68.9665 167.237 84.5811 167.237 86.6651C167.237 88.7492 165.487 97.7561 165.487 99.0966C165.487 100.345 179.776 108.931 193.974 103.939C198.24 102.439 197.145 100.21 196.879 98.9697C194.955 90.0083 195.194 79.1948 194.786 76.6047C194.338 73.776 197.013 68.7256 197.013 68.7256L194.185 50.4136L186.247 47.1367L173.862 47.2277Z" fill="#122344"/>
<path fill-rule="evenodd" clip-rule="evenodd" d="M183.457 54.446L188.155 88.2883L185.753 95.2116L180.312 87.5818L181.125 54.446L182.502 53.7227L183.457 54.446Z" fill="#CC3129"/>
<path fill-rule="evenodd" clip-rule="evenodd" d="M183.989 51.7966L183.46 54.4456H181.129L178.797 51.1255L181.199 48.582C181.199 48.582 183.107 49.5671 183.212 49.9753C183.318 50.3831 183.989 51.7966 183.989 51.7966Z" fill="#9D2529"/>
<path fill-rule="evenodd" clip-rule="evenodd" d="M174.891 38.9355H184.846V49.9743H180.89L174.891 47.6397V38.9355Z" fill="#D77F68"/>
<path fill-rule="evenodd" clip-rule="evenodd" d="M174.893 46.1289V46.622L182.083 49.9741L178.901 54.1867L173.867 47.2268L174.893 46.1289Z" fill="#06152D"/>
<path fill-rule="evenodd" clip-rule="evenodd" d="M182.078 49.9748L184.843 46.7137V46.1094L186.247 47.1365L184.918 54.1065L182.078 49.9748Z" fill="#06152D"/>
<path fill-rule="evenodd" clip-rule="evenodd" d="M190.29 29.9933C190.366 30.004 190.44 30.0169 190.513 30.0332L190.515 30.0338C191.872 30.328 192.895 31.5265 192.913 32.9737C192.933 34.6557 191.586 36.0367 189.904 36.0563C188.221 36.0765 186.841 34.7293 186.821 33.0473C186.809 32.069 187.259 31.194 187.969 30.6279C187.885 31.5271 188.02 32.6413 189.167 32.7603L189.147 31.0036C189.137 30.2927 189.803 29.9703 190.29 29.9933Z" fill="#D77F68"/>
<path fill-rule="evenodd" clip-rule="evenodd" d="M170.213 29.9908C170.137 30.0004 170.062 30.0122 169.989 30.0268L169.987 30.0273C168.627 30.3025 167.587 31.4875 167.548 32.9342C167.505 34.6161 168.833 36.0151 170.515 36.0583C172.196 36.1021 173.595 34.7739 173.639 33.0925C173.665 32.1148 173.228 31.2331 172.526 30.6575C172.597 31.5577 172.446 32.6696 171.298 32.773L171.343 31.0169C171.362 30.3059 170.7 29.974 170.213 29.9908Z" fill="#D77F68"/>
<path fill-rule="evenodd" clip-rule="evenodd" d="M180.227 45.2487C174.541 45.2487 169.797 38.2316 169.797 32.692V25.3323C169.797 19.5956 174.491 14.9023 180.226 14.9023H180.227C185.962 14.9023 190.656 19.5956 190.656 25.3323V32.5359C190.656 38.6067 186.519 45.2487 180.227 45.2487Z" fill="#E6AD83"/>
<path fill-rule="evenodd" clip-rule="evenodd" d="M176.768 27.1794C176.988 27.2793 177.085 27.5388 176.985 27.7578C176.886 27.9774 176.626 28.0751 176.407 27.9751C176.404 27.9734 175.086 27.3501 173.828 28.1408C173.623 28.2694 173.352 28.2076 173.223 28.0027C173.095 27.7977 173.157 27.5264 173.361 27.3978C175.021 26.3544 176.763 27.1771 176.768 27.1794Z" fill="#06152D"/>
<path fill-rule="evenodd" clip-rule="evenodd" d="M187.079 27.3749C187.289 27.4917 187.366 27.7585 187.249 27.9691C187.132 28.1797 186.865 28.256 186.655 28.1387C186.651 28.137 185.388 27.4086 184.071 28.0943C183.856 28.2061 183.591 28.1218 183.479 27.9073C183.368 27.6928 183.45 27.4271 183.666 27.3159C185.406 26.4106 187.074 27.3721 187.079 27.3749Z" fill="#06152D"/>
<path fill-rule="evenodd" clip-rule="evenodd" d="M180.514 33.3931C180.708 33.9205 181.048 34.8768 181.019 35.0369C180.978 35.261 179.824 35.4676 179.52 35.1734C179.318 34.9774 179.568 34.1153 179.788 33.5352C180.086 32.7439 180.253 32.6827 180.514 33.3931Z" fill="#EBBF9E"/>
<path fill-rule="evenodd" clip-rule="evenodd" d="M182.422 37.56C182.422 38.7703 181.441 39.7514 180.23 39.7514C179.021 39.7514 178.039 38.7697 178.039 37.56C178.039 37.3376 178.221 37.1562 178.443 37.1562H182.019C182.241 37.1562 182.422 37.3376 182.422 37.56Z" fill="#06152D"/>
<path fill-rule="evenodd" clip-rule="evenodd" d="M178.664 37.1562H181.799V37.5269C181.799 37.7201 181.641 37.8779 181.447 37.8779H179.015C178.822 37.8779 178.664 37.7201 178.664 37.5269V37.1562Z" fill="white"/>
<path fill-rule="evenodd" clip-rule="evenodd" d="M181.818 39.0699C181.418 39.4894 180.854 39.7511 180.228 39.7511C179.604 39.7511 179.039 39.4894 178.641 39.0699C179.039 38.6504 179.604 38.3887 180.228 38.3887C180.854 38.3887 181.418 38.6504 181.818 39.0699Z" fill="#D26070"/>
<path fill-rule="evenodd" clip-rule="evenodd" d="M175.131 33.0296C175.823 33.0296 176.388 32.4658 176.388 31.7739C176.388 31.082 175.823 30.5176 175.131 30.5176C174.439 30.5176 173.875 31.082 173.875 31.7739C173.874 32.4658 174.439 33.0296 175.131 33.0296Z" fill="#06152D"/>
<path fill-rule="evenodd" clip-rule="evenodd" d="M185.334 33.0296C186.026 33.0296 186.59 32.4658 186.59 31.7739C186.59 31.082 186.026 30.5176 185.334 30.5176C184.642 30.5176 184.078 31.082 184.078 31.7739C184.078 32.4658 184.641 33.0296 185.334 33.0296Z" fill="#06152D"/>
<path fill-rule="evenodd" clip-rule="evenodd" d="M184.441 107.782C184.441 110.326 183.027 110.89 183.027 110.89C181.402 112.162 163.033 117.884 162.539 117.601C162.045 117.318 161.797 115.835 161.797 115.835C163.195 106.21 163.399 97.476 165.438 88.0333C164.696 87.009 165.649 86.4788 165.649 86.4788C165.649 85.8437 163.848 69.5125 163.848 69.5125C165.79 58.1986 162.403 51.0849 162.403 51.0849C162.403 51.0849 170.844 47.5491 171.267 47.5142C171.692 47.4789 172.09 47.8271 172.09 47.8271C172.09 47.8271 177.941 68.5712 178.225 69.9842C178.507 71.3978 178.474 80.2507 178.615 81.8047C178.757 83.3586 184.441 107.782 184.441 107.782Z" fill="#D1D8E4"/>
<path fill-rule="evenodd" clip-rule="evenodd" d="M175.104 58.5762C176.585 63.8748 178.082 69.2847 178.222 69.9822C178.415 70.9532 178.462 75.4375 178.516 78.6526H178.169L171.555 67.6487L172.191 58.8525L173.993 58.5874L175.104 58.5762Z" fill="#A9B0C2"/>
<path fill-rule="evenodd" clip-rule="evenodd" d="M169.132 48.3126C170.274 47.8554 171.139 47.523 171.268 47.5123C171.692 47.4769 172.09 47.8251 172.09 47.8251C172.09 47.8251 174.72 57.1464 176.538 63.7182L168.75 56.6803L169.132 48.3126Z" fill="#949DAE"/>
<path fill-rule="evenodd" clip-rule="evenodd" d="M165.25 69.2916L166.815 59.9512L172.934 78.618L166.233 80.2444L165.25 69.2916Z" fill="#949DAE"/>
<path fill-rule="evenodd" clip-rule="evenodd" d="M163.852 97.6527C164.244 94.4859 164.73 91.3011 165.435 88.0304C164.693 87.006 165.647 86.4759 165.647 86.4759C165.647 86.2922 165.495 84.7933 165.281 82.7575L178.596 81.5664C178.602 81.6568 178.608 81.7371 178.613 81.8017C178.666 82.3852 179.5 86.1939 180.523 90.7221L163.852 97.6527Z" fill="#949DAE"/>
<path fill-rule="evenodd" clip-rule="evenodd" d="M186.688 47.3206C186.688 47.3206 187.049 47.2521 187.26 47.2875C187.472 47.3229 193.946 50.0253 194.106 50.114C194.264 50.2022 194.406 50.255 194.688 51.7039C194.971 53.1522 197.073 66.8405 197.144 67.3527C197.304 68.5163 197.497 69.9164 197.507 71.2524C197.538 75.228 195.757 81.4027 195.757 83.9271C195.757 87.4168 196.625 91.2907 196.91 94.4413C196.919 94.5362 196.931 94.6311 196.939 94.7249C197.22 98.3039 201.93 107.353 201.612 113.312C201.563 114.23 199.705 115.291 199.21 115.68C198.715 116.068 198.469 116.068 197.408 115.609C196.349 115.149 190.979 110.099 190.979 110.099C190.979 110.099 189.918 108.897 189.989 106.99C190.06 105.082 190.201 77.3873 190.201 75.9743C190.201 74.5614 190.978 70.3573 191.084 69.5092C191.19 68.6612 187.213 47.538 187.213 47.538L186.688 47.3206Z" fill="#D1D8E4"/>
<path fill-rule="evenodd" clip-rule="evenodd" d="M190.194 78.6533C190.201 77.1864 190.205 76.2098 190.205 75.9734C190.205 74.5604 190.981 70.3563 191.088 69.5083C191.14 69.0904 190.2 63.748 189.234 58.4359L189.889 58.4297L193.757 67.3843L190.737 78.6527L190.194 78.6533Z" fill="#A9B0C2"/>
<path fill-rule="evenodd" clip-rule="evenodd" d="M186.688 47.3206C186.688 47.3206 187.049 47.2521 187.26 47.2875C187.338 47.3004 188.261 47.6727 189.403 48.1434L191.739 53.8728L190.076 63.1402C188.928 56.6459 187.213 47.5374 187.213 47.5374L186.688 47.3206Z" fill="#949DAE"/>
<path fill-rule="evenodd" clip-rule="evenodd" d="M196.3 79.9824C196 81.5931 195.762 83.0027 195.762 83.9243C195.762 85.2434 195.886 86.6171 196.055 87.9863L190.148 87.4112C190.163 84.8587 190.175 82.4658 190.184 80.5294L196.3 79.9824Z" fill="#949DAE"/>
<path fill-rule="evenodd" clip-rule="evenodd" d="M169.239 206.126C169.239 206.126 169.044 203.465 167.466 203.465C165.886 203.465 165.425 203.465 164.38 203.465C163.337 203.465 162.316 205.095 162.025 206.289C162.025 206.289 161.005 206.56 160.785 207.593C160.567 208.624 160.081 212.48 160.009 212.86C159.935 213.241 159.668 214.654 161.248 214.654C162.826 214.654 171.524 214.654 172.519 214.654C173.515 214.654 173.393 213.918 173.393 213.498C173.393 213.077 173.175 211.516 172.641 210.702C172.106 209.887 169.239 206.126 169.239 206.126Z" fill="#01142E"/>
<path fill-rule="evenodd" clip-rule="evenodd" d="M169.237 206.126C169.237 206.126 169.043 203.465 167.465 203.465C165.885 203.465 165.423 203.465 164.379 203.465C163.335 203.465 162.314 205.095 162.023 206.289L163.292 208.971C163.292 208.971 163.855 209.573 164.959 209.573C166.062 209.573 168.527 209.573 168.527 209.573C168.527 209.573 169.465 209.39 169.419 208.524C169.372 207.659 169.237 206.126 169.237 206.126Z" fill="#01142E"/>
<path fill-rule="evenodd" clip-rule="evenodd" d="M160.065 212.487C160.038 212.674 160.019 212.805 160.009 212.861C159.935 213.242 159.668 214.655 161.248 214.655C162.826 214.655 171.524 214.655 172.519 214.655C173.515 214.655 173.393 213.92 173.393 213.499C173.393 213.32 173.354 212.934 173.267 212.486H160.065V212.487Z" fill="#002049"/>
<path fill-rule="evenodd" clip-rule="evenodd" d="M172.708 79.3771L193.595 76.6074L197.412 83.4942L169.195 90.4069C169.195 90.4069 162.518 92.4735 160.717 87.3338C158.915 82.1935 156.265 60.5744 156.265 60.5744C156.265 60.5744 155.531 53.9105 162.4 51.084C162.4 51.084 165.485 52.8378 166.333 57.289C167.181 61.7402 169.936 78.5903 169.936 78.5903C169.936 78.5903 171.579 77.4773 172.708 79.3771Z" fill="#D1D8E4"/>
<path fill-rule="evenodd" clip-rule="evenodd" d="M172.712 79.3768L179.192 78.5176L195.29 79.6599L197.415 83.4939L180.087 87.7395L170.102 79.7048L172.4 78.9388C172.507 79.0623 172.612 79.2072 172.712 79.3768Z" fill="#949DAE"/>
<path fill-rule="evenodd" clip-rule="evenodd" d="M190.661 32.24L189.653 28.16C189.653 28.16 186.407 25.7783 187.56 22.4637C188.714 19.1492 188.939 19.4777 188.939 19.4777C188.939 19.4777 193.265 21.4259 191.34 30.2109L190.661 32.24Z" fill="#06152D"/>
<path fill-rule="evenodd" clip-rule="evenodd" d="M169.797 32.24L170.805 28.16C170.805 28.16 174.051 25.7783 172.898 22.4637C171.745 19.1492 171.52 19.4777 171.52 19.4777C171.52 19.4777 167.193 21.4259 169.119 30.2109L169.797 32.24Z" fill="#06152D"/>
<path fill-rule="evenodd" clip-rule="evenodd" d="M169.804 26.5053C169.804 26.5053 166.197 27.2472 166.039 24.5897C165.88 21.9317 168.317 19.769 168.317 19.769C168.317 19.769 167.576 15.0718 168.9 12.785C170.224 10.4982 172.981 12.5997 172.981 12.5997C172.981 12.5997 173.404 10.004 175.949 10.6223C175.949 10.6223 176.425 5.86278 181.671 7.77895C186.917 9.69511 186.599 12.7232 186.599 12.7232C186.599 12.7232 189.724 11.7343 189.83 15.6901C189.83 15.6901 192.163 16.1843 193.275 19.7072C194.388 23.2301 191.859 27.3707 191.262 27.8037C190.664 28.2367 188.877 26.6912 188.347 24.9604C188.347 24.9604 187.447 24.7442 187.606 23.2604C187.606 23.2604 183.154 26.0111 181.458 22.7353C181.458 22.7353 179.551 23.9714 178.704 22.2406C178.704 22.2406 174.04 27.2466 171.444 23.7243C168.848 20.202 169.804 26.5053 169.804 26.5053Z" fill="#06152D"/>
<path fill-rule="evenodd" clip-rule="evenodd" d="M185.117 77.2219L177.676 77.3208C177.676 77.3208 172.722 76.3672 172.006 76.3672C171.291 76.3672 169.695 77.1186 169.695 77.1186L170.099 79.7053C170.099 79.7053 173.994 81.6125 174.894 82.0634C175.795 82.5138 176.748 82.7261 177.941 82.196L185.042 83.1765L185.117 77.2219Z" fill="#EBBF9E"/>
<path fill-rule="evenodd" clip-rule="evenodd" d="M185.115 77.2207L184.177 77.2336L181.297 82.6586L185.039 83.1747L185.115 77.2207Z" fill="#D7766D"/>
<path fill-rule="evenodd" clip-rule="evenodd" d="M185.158 76.8313L184.485 83.6844C184.485 83.6844 184.432 84.2859 185.104 84.4976C185.774 84.7099 201.565 84.3566 201.565 84.3566C201.565 84.3566 205.733 83.4384 205.733 79.1287C205.733 78.7716 205.692 78.3756 205.617 77.946C204.741 74.8831 201.652 75.0145 201.652 75.0145L194.46 75.9198L185.808 76.4269C185.808 76.4269 185.226 76.4449 185.158 76.8313Z" fill="#D1D8E4"/>
<path fill-rule="evenodd" clip-rule="evenodd" d="M62.5569 204.309C62.5569 204.309 57.4312 208.83 55.5684 209.19C53.7056 209.55 49.6329 209.908 48.7726 210.409C47.8987 210.911 47.1024 213.018 47.0125 213.416C46.9098 213.814 46.6913 215.214 47.9375 215.214C49.1831 215.214 69.9307 215.214 70.8938 215.214C71.8575 215.214 72.0507 214.675 72.0507 213.878C72.0507 213.095 71.4734 212.31 71.4734 212.31C71.4734 212.31 71.4734 208.868 71.4734 207.892C71.4734 206.927 70.9584 206.145 69.8408 206.068C67.9016 205.939 65.7816 207.056 64.5354 205.015C63.9834 204.102 63.7391 203.409 62.5569 204.309Z" fill="#111111"/>
<path fill-rule="evenodd" clip-rule="evenodd" d="M62.5525 204.309C62.5525 204.309 57.6324 208.637 55.6797 209.164C56.3991 209.948 57.6194 210.332 58.1591 210.281C58.8656 210.23 64.1716 207.802 64.6467 207.146C65.1347 206.503 64.6338 205.169 64.6338 205.169C64.5956 205.117 64.5563 205.066 64.531 205.015C63.9789 204.101 63.7346 203.408 62.5525 204.309Z" fill="#111111"/>
<path fill-rule="evenodd" clip-rule="evenodd" d="M47.436 212.312C47.2046 212.814 47.0507 213.263 47.0125 213.418C46.9098 213.816 46.6913 215.216 47.9375 215.216C49.1831 215.216 69.9307 215.216 70.8938 215.216C71.8575 215.216 72.0507 214.677 72.0507 213.88C72.0507 213.097 71.4734 212.312 71.4734 212.312H47.436Z" fill="#1C1C1C"/>
<path fill-rule="evenodd" clip-rule="evenodd" d="M61.4937 48.7871C61.4937 48.7871 56.1232 50.277 55.3269 52.9497C52.7705 61.4674 52.3077 64.9611 51.2929 69.9458C50.8172 72.2966 45.7943 63.5093 43.5081 58.692C43.4699 58.6279 39.1271 60.1948 34.9909 60.6705C33.1152 60.8889 42.3007 83.0877 47.3365 86.8649C52.2437 90.5518 57.9607 86.1579 63.0224 68.3784C63.0224 68.3784 66.2212 57.0987 61.4937 48.7871Z" fill="#303030"/>
<path fill-rule="evenodd" clip-rule="evenodd" d="M44.086 59.8735C43.8804 59.4624 43.6878 59.0643 43.5081 58.6914C43.4699 58.6273 39.1271 60.1942 34.9909 60.6699C33.1152 60.8883 42.3007 83.087 47.3365 86.8643C52.1027 90.4484 57.6395 86.3892 62.5984 69.8553C61.8402 67.4528 61.3005 65.8214 61.3005 65.8214C61.3005 65.8214 58.2432 75.8166 55.8666 80.2353C53.4899 84.6545 48.9292 84.5135 45.8718 80.5829C42.8145 76.6388 35.671 63.8558 38.3953 63.3037C40.836 62.8157 42.9038 61.5566 44.086 59.8735Z" fill="#232323"/>
<path fill-rule="evenodd" clip-rule="evenodd" d="M60.1673 98.2578L58.6128 101.457L58.2017 106.364C58.2017 106.364 56.4933 109.062 56.1974 109.884C55.902 110.693 57.0454 117.039 56.9297 118.26C56.8269 119.48 60.0258 173.822 60.7581 183.547C61.5033 193.285 60.6547 203.833 60.5655 204.77C60.4621 205.72 65.0357 207.34 66.7059 207.48C67.6825 207.557 69.7374 207.288 71.343 206.902H71.3823C72.0248 206.736 72.063 205.926 72.063 205.926L72.5128 188.814C72.4617 186.257 72.4617 179.14 72.5639 176.186C72.6667 173.076 74.1437 119.005 74.1437 119.005L69.8531 99.6713L60.1673 98.2578Z" fill="#1C1C1C"/>
<path fill-rule="evenodd" clip-rule="evenodd" d="M66.5938 207.469C66.6319 207.469 66.6707 207.481 66.7094 207.481C67.686 207.558 69.7409 207.289 71.3465 206.903H71.3858C72.0283 206.737 72.0665 205.927 72.0665 205.927L72.5163 188.816C72.4652 186.258 72.4652 179.142 72.5674 176.187C72.6444 173.81 73.5311 141.655 73.9422 126.638L67.7242 111.902C66.3365 114.793 69.176 119.495 68.8806 126.715C68.1612 144.418 69.1507 175.802 68.7267 195.586C68.5986 201.457 68.2516 204.925 66.5938 207.469Z" fill="#111111"/>
<path fill-rule="evenodd" clip-rule="evenodd" d="M87.4295 98.5039L88.136 100.817C88.136 100.817 90.3717 102.307 90.5126 103.052C90.6542 103.797 91.2966 105.428 91.5151 106.507C91.7212 107.586 94.1102 111.582 94.4573 112.39C94.8167 113.2 92.6462 124.942 92.6462 129.669C92.6462 133.164 93.725 164.278 93.5323 164.472L95.0093 205.388C95.0093 205.388 95.2407 206.737 93.7115 207.083C92.1705 207.444 86.2479 207.187 85.1814 206.955C84.4109 206.673 83.8325 206.39 83.6017 206.197C82.8952 205.593 83.1136 195.444 82.9721 193.89C82.8306 192.336 79.7351 160.977 78.8876 155.709C78.412 152.729 75.9067 142.221 73.594 132.701C71.8087 125.352 68.7772 117.863 68.2246 115.615C66.9526 110.489 65.3594 101.638 65.3594 101.638L87.4295 98.5039Z" fill="#1C1C1C"/>
<path fill-rule="evenodd" clip-rule="evenodd" d="M57.5703 105.312C57.5703 105.312 66.152 107.599 76.0827 106.674C86.0134 105.749 68.7219 99.8142 64.0068 101.458C59.2787 103.103 57.5703 105.312 57.5703 105.312Z" fill="#FF9F21"/>
<path fill-rule="evenodd" clip-rule="evenodd" d="M82.0584 45.8189L93.6581 49.7243C93.6581 49.7243 90.5362 54.4136 92.039 67.8127C92.039 67.8127 88.7638 83.6143 88.7638 85.7208C88.7638 87.8274 90.5356 96.9359 90.5356 98.2977C90.5356 99.6467 72.0109 108.575 56.6462 101.034C56.6462 101.034 56.3508 100.739 56.2739 99.7624C56.1964 98.7858 66.8487 82.2148 67.298 79.3501C67.7478 76.4848 58.6376 67.5678 58.6376 67.5678L61.5023 49.0431L69.5314 45.7285L82.0584 45.8189Z" fill="white"/>
<path fill-rule="evenodd" clip-rule="evenodd" d="M71.0497 45.7285H71.139V46.2682L73.9397 49.5698L81.2112 46.1784V45.7931H81.3263L82.2513 46.7821L77.2929 54.2333L73.9397 49.5698L69.8411 53.4752L69.7266 46.6922L71.0497 45.7285Z" fill="#D0D9E6"/>
<path fill-rule="evenodd" clip-rule="evenodd" d="M72.5124 52.371L67.4766 77.8461L69.4416 94.3665L76.6367 85.0788L74.8632 52.371L73.4761 51.6387L72.5124 52.371Z" fill="#FF3324"/>
<path fill-rule="evenodd" clip-rule="evenodd" d="M70.9219 49.6217L72.2326 53.2575L74.9687 53.2962L76.485 49.7632L74.0438 47.1934C72.2197 48.1312 72.1939 48.8377 70.9219 49.6217Z" fill="#BA2B27"/>
<path fill-rule="evenodd" clip-rule="evenodd" d="M82.7894 33.9609L69.5312 35.1818L69.9294 46.4867L74.9529 48.5939L80.0011 45.96L82.7894 33.9609Z" fill="#F2856E"/>
<path fill-rule="evenodd" clip-rule="evenodd" d="M73.7425 48.5938L69.9653 43.3648L69.1953 45.5618L69.7474 53.1158L73.7425 48.5938L76.9667 52.8586L82.0547 45.8184L80.8209 42.5938L73.7425 48.5938Z" fill="white"/>
<path fill-rule="evenodd" clip-rule="evenodd" d="M95.6606 105.518C96.1357 110.683 92.6032 113.059 92.6032 113.059C92.6032 113.059 90.4192 104.632 91.1004 102.396C91.7811 100.148 92.6678 100.482 92.6678 100.482L95.6606 105.518Z" fill="#FCB187"/>
<path fill-rule="evenodd" clip-rule="evenodd" d="M92.1719 102.023C91.5547 103.924 91.5547 103.924 91.5547 103.924C91.5547 103.924 92.852 107.329 94.4834 108.279C96.1148 109.23 96.2434 109.23 96.2434 109.23L97.8109 105.903L92.1719 102.023Z" fill="#D0D9E6"/>
<path fill-rule="evenodd" clip-rule="evenodd" d="M93.6557 49.7246C93.6557 49.7246 97.8958 50.6501 99.2571 54.7093C100.606 58.7815 107.595 82.3039 107.595 82.3039C105.385 93.0567 104.19 97.0261 99.6934 107.303C97.8054 110.837 92.1782 102.448 91.6649 101.998L97.2275 85.9009L92.0367 67.813C92.0367 67.813 88.9412 58.0244 93.6557 49.7246Z" fill="#303030"/>
<path fill-rule="evenodd" clip-rule="evenodd" d="M93.5307 117.016C94.0193 116.733 91.4623 104.066 92.0144 102.319C92.4125 99.7757 92.9781 98.1825 92.9781 98.1825L90.5885 87.0955C91.3472 86.0677 90.3829 85.528 90.3829 85.528C90.3829 84.8856 92.1952 68.3646 92.1952 68.3646C90.2296 56.9187 93.6593 49.7241 93.6593 49.7241C89.8051 48.1056 86.5551 46.3068 82.4308 45.8828C80.6331 50.1352 70.8686 75.0195 70.4581 79.4387C70.3683 80.4282 69.9572 91.2322 69.6494 99.2102C69.5079 103.026 69.9443 105.967 71.9491 108.408C78.1402 115.975 92.3103 117.709 93.5307 117.016Z" fill="#303030"/>
<path fill-rule="evenodd" clip-rule="evenodd" d="M90.2142 116.231C92.1023 116.77 93.4001 117.091 93.5282 117.014C94.0168 116.732 91.4598 104.065 92.0119 102.318C92.41 99.7744 92.9756 98.1812 92.9756 98.1812L90.586 87.0942C91.3447 86.0665 90.3804 85.5268 90.3804 85.5268C90.3804 85.3342 90.5478 83.7027 90.7792 81.5058C89.4813 78.6152 88.5182 76.5469 88.5182 76.5469C86.6806 86.0019 86.6172 85.9379 86.6172 85.9379C86.6172 85.9379 87.8381 89.7404 87.4264 91.5134C87.0283 93.2734 89.328 106.595 90.0856 111.838C90.3293 113.598 90.3293 115.062 90.2142 116.231Z" fill="#232323"/>
<path fill-rule="evenodd" clip-rule="evenodd" d="M90.3848 85.5272C90.3848 84.8847 92.197 68.3637 92.197 68.3637C91.8112 66.1156 91.645 64.0344 91.6057 62.1328L88.2266 76.9836L90.3848 85.5272Z" fill="#232323"/>
<path fill-rule="evenodd" clip-rule="evenodd" d="M69.4324 45.703C69.4577 45.4975 61.7498 48.6446 61.583 48.7345C61.4291 48.8243 61.2747 48.876 60.9922 50.3407C60.7097 51.8047 58.5774 65.6537 58.5128 66.181C58.4358 66.6949 58.3842 67.3879 58.7054 69.5337C59.0266 71.679 59.3479 73.6833 59.2833 74.1849C59.2322 74.4803 59.4372 83.0743 58.5768 89.1637C57.626 95.9472 55.8913 103.231 53.9903 112.674C52.9243 117.98 66.2465 111.62 68.8282 106.982C71.1402 102.794 70.0232 100.058 70.2546 97.463C70.9353 89.5366 71.8726 79.3364 71.7833 78.4367C71.4244 74.852 69.2786 46.6791 69.4324 45.703Z" fill="#303030"/>
<path fill-rule="evenodd" clip-rule="evenodd" d="M85.2929 206.583C85.2929 206.583 85.4985 203.885 87.2203 203.885C88.9281 203.885 89.4425 203.885 90.573 203.885C91.7035 203.885 92.8211 205.542 93.1294 206.749C93.1294 206.749 94.2476 207.019 94.4778 208.073C94.7227 209.114 95.2494 213.005 95.3258 213.391C95.4027 213.777 95.6987 215.215 93.9769 215.215C92.2685 215.215 82.8 215.215 81.7206 215.215C80.6418 215.215 80.7704 214.471 80.7704 214.047C80.7704 213.622 81.0147 212.043 81.5926 211.206C82.171 210.385 85.2929 206.583 85.2929 206.583Z" fill="#111111"/>
<path fill-rule="evenodd" clip-rule="evenodd" d="M85.2926 206.583C85.2926 206.583 85.4981 203.885 87.22 203.885C88.9278 203.885 89.4422 203.885 90.5727 203.885C91.7032 203.885 92.8207 205.542 93.1291 206.749L91.7543 209.459C91.7543 209.459 91.1382 210.076 89.9431 210.076C88.7481 210.076 86.0636 210.076 86.0636 210.076C86.0636 210.076 85.0483 209.884 85.087 209.011C85.1387 208.137 85.2926 206.583 85.2926 206.583Z" fill="#111111"/>
<path fill-rule="evenodd" clip-rule="evenodd" d="M95.2612 213.02C95.2865 213.213 95.3123 213.34 95.3258 213.392C95.4027 213.778 95.6987 215.216 93.9769 215.216C92.2685 215.216 82.8 215.216 81.7206 215.216C80.6418 215.216 80.7704 214.472 80.7704 214.048C80.7704 213.868 80.8215 213.47 80.9119 213.02H95.2612Z" fill="#1C1C1C"/>
<path fill-rule="evenodd" clip-rule="evenodd" d="M34.7188 58.3827C37.3779 59.0639 38.7398 59.2307 40.6413 57.4965C42.5423 55.7623 41.5915 57.227 42.7097 58.7938C44.4568 61.2221 38.6887 63.085 36.0172 62.4301L34.7188 58.3827Z" fill="#D0D9E6"/>
<path fill-rule="evenodd" clip-rule="evenodd" d="M32.3666 55.2094C29.6434 50.173 28.1406 47.7194 29.3733 47.5914C30.5937 47.4498 32.2251 50.5077 32.2251 50.5077C32.2251 50.5077 30.3241 45.4848 31.5444 45.3433C32.7648 45.2147 34.3316 50.1095 34.3316 50.1095C34.3316 50.1095 32.9574 46.0756 33.0473 44.5986C33.0854 44.1359 33.7667 43.8275 34.0233 44.11C35.1285 45.2664 36.4387 49.3514 36.4387 49.3514C36.4387 49.3514 35.1156 45.6516 35.2055 44.2386C35.2184 43.8787 35.5525 43.6349 35.7575 43.6866C36.7852 43.8921 38.2757 49.352 38.2757 49.352L41.1281 53.7071L38.2117 56.906L32.3666 55.2094Z" fill="#FCB187"/>
<path fill-rule="evenodd" clip-rule="evenodd" d="M32.0469 54.7361C34.5903 59.2581 34.8987 59.412 36.247 59.8107C37.596 60.2089 41.0133 59.3356 42.2078 56.3165C43.39 53.3102 44.1863 50.6898 44.8159 49.4953C45.4583 48.3137 44.1094 48.2357 43.1586 49.264C42.2078 50.2917 40.5376 52.8351 40.5376 52.8351C40.5376 52.8351 35.2199 50.8437 32.0469 54.7361Z" fill="#FCB187"/>
<path fill-rule="evenodd" clip-rule="evenodd" d="M33.1641 56.6867C34.7315 59.32 35.1296 59.4744 36.2472 59.8086C37.5962 60.2068 41.0135 59.3335 42.208 56.3144C43.3901 53.3081 44.1865 50.6877 44.816 49.4932C44.8801 49.3905 44.9188 49.2871 44.9446 49.1973C44.9059 49.2231 44.8671 49.236 44.8419 49.236C44.4308 49.3388 42.8763 53.4879 42.1311 55.1193C41.3729 56.7507 38.7907 58.344 37.2368 58.344C35.9383 58.344 34.4743 58.3052 33.1641 56.6867Z" fill="#F2856E"/>
<path fill-rule="evenodd" clip-rule="evenodd" d="M67.9655 46.3847L62.9297 49.8531L67.2208 52.0242L63.1352 55.6347L70.6505 76.4974L71.3952 75.8937L69.3274 45.5625L67.9655 46.3847Z" fill="#232323"/>
<path fill-rule="evenodd" clip-rule="evenodd" d="M82.5072 45.2285C87.8766 50.9326 87.8766 50.9326 87.8766 50.9326L82.4426 52.5641L85.4999 55.6349L70.5469 76.6391L82.5072 45.2285Z" fill="#232323"/>
<path fill-rule="evenodd" clip-rule="evenodd" d="M71.7542 82.5341C72.1395 82.5341 72.4349 82.0331 72.4349 81.4289C72.4349 80.8252 72.1395 80.3242 71.7542 80.3242C71.3819 80.3242 71.0859 80.8252 71.0859 81.4289C71.0854 82.0326 71.3813 82.5341 71.7542 82.5341Z" fill="#D0D9E6"/>
<path fill-rule="evenodd" clip-rule="evenodd" d="M71.3852 88.7385C71.7575 88.7638 72.0406 89.2653 72.0147 89.869C71.9889 90.4727 71.6677 90.9608 71.2953 90.9355C70.9101 90.9226 70.6399 90.4216 70.6658 89.8056C70.691 89.2013 71.0128 88.7256 71.3852 88.7385Z" fill="#D0D9E6"/>
<path fill-rule="evenodd" clip-rule="evenodd" d="M76.5874 67.0156C69.6629 79.9525 71.7183 72.6939 70.4851 90.4863L69.4062 104.233L69.6887 90.4481C70.1897 73.2465 68.9177 79.0792 75.4058 66.3989C75.5855 66.0777 75.9837 65.9491 76.3054 66.1165C76.639 66.2962 76.7547 66.6944 76.5874 67.0156Z" fill="#232323"/>
<path fill-rule="evenodd" clip-rule="evenodd" d="M64.7926 26.6127C64.7151 26.6256 64.6382 26.6379 64.5607 26.6508C63.1865 26.9462 62.1582 28.1672 62.1329 29.6318C62.12 31.3278 63.4819 32.7279 65.1779 32.7537C66.8857 32.7666 68.2739 31.4047 68.2998 29.7093C68.3121 28.7198 67.8505 27.8336 67.1435 27.2551C67.221 28.1677 67.0918 29.2982 65.9231 29.4139L65.9489 27.6409C65.9607 26.9215 65.2801 26.5874 64.7926 26.6127Z" fill="#F2856E"/>
<path fill-rule="evenodd" clip-rule="evenodd" d="M85.1023 26.6136C85.1792 26.6266 85.2561 26.6389 85.3207 26.6518C86.7079 26.922 87.762 28.1294 87.8002 29.594C87.8389 31.2895 86.49 32.703 84.7939 32.7541C83.0856 32.7929 81.672 31.4563 81.6339 29.7479C81.6086 28.7584 82.0444 27.8722 82.7643 27.2814C82.6868 28.1934 82.8413 29.3239 83.9971 29.4267L83.9589 27.6537C83.9336 26.9354 84.6008 26.6007 85.1023 26.6136Z" fill="#F2856E"/>
<path fill-rule="evenodd" clip-rule="evenodd" d="M74.9686 42.0556C80.7239 42.0556 85.5159 34.9515 85.5159 29.3501V21.8989C85.5159 16.092 80.7755 11.3516 74.9686 11.3516C69.1617 11.3516 64.4219 16.0914 64.4219 21.8989V29.1828C64.4219 35.3244 68.5973 42.0556 74.9686 42.0556Z" fill="#FCB187"/>
<path d="M78.4711 23.7745C78.2397 23.8649 78.1504 24.1345 78.2532 24.3529C78.3425 24.5714 78.6126 24.6742 78.8311 24.5714C78.8311 24.5714 80.1665 23.9418 81.4391 24.7387C81.6441 24.8668 81.9271 24.8157 82.0563 24.5978C82.1849 24.3917 82.1198 24.1221 81.9148 23.9935C80.2311 22.9394 78.4711 23.7616 78.4711 23.7745Z" fill="#111111"/>
<path d="M68.0332 23.9671C67.8277 24.0822 67.7513 24.3523 67.8659 24.5708C67.9815 24.7769 68.2522 24.8533 68.4696 24.7382C68.4696 24.7382 69.7545 23.9929 71.0782 24.6994C71.2961 24.8027 71.5656 24.7252 71.6819 24.5073C71.797 24.2889 71.7072 24.0193 71.4887 23.9031C69.7292 22.991 68.0456 23.9671 68.0332 23.9671Z" fill="#111111"/>
<path fill-rule="evenodd" clip-rule="evenodd" d="M74.6799 30.055C74.4744 30.5817 74.1396 31.5578 74.1655 31.7122C74.2042 31.9436 75.374 32.1491 75.6818 31.8532C75.8873 31.6611 75.6307 30.7873 75.4122 30.1965C75.1039 29.4001 74.9365 29.3356 74.6799 30.055Z" fill="#FFC3A1"/>
<path fill-rule="evenodd" clip-rule="evenodd" d="M72.9375 36.6845C72.9375 37.6347 73.7086 38.3934 74.6588 38.3934C75.6096 38.3934 76.3806 37.6353 76.3806 36.6845C76.3806 36.5048 76.2391 36.3633 76.0594 36.3633H73.2587C73.079 36.3633 72.9375 36.5048 72.9375 36.6845Z" fill="#111111"/>
<path fill-rule="evenodd" clip-rule="evenodd" d="M76.2003 35.207H73.7344V35.503C73.7344 35.6569 73.863 35.7726 74.0169 35.7726H75.9184C76.0723 35.7726 76.2003 35.6569 76.2003 35.503V35.207Z" fill="white"/>
<path fill-rule="evenodd" clip-rule="evenodd" d="M73.4141 37.8678C73.7353 38.1885 74.1717 38.3946 74.6602 38.3946C75.1483 38.3946 75.5975 38.1891 75.9064 37.8678C75.5975 37.5337 75.1477 37.3281 74.6602 37.3281C74.1717 37.3276 73.7353 37.5337 73.4141 37.8678Z" fill="#FA6676"/>
<path fill-rule="evenodd" clip-rule="evenodd" d="M64.4215 29.0275L65.4363 24.8913C65.4363 24.8913 68.7256 22.4888 67.5564 19.1355C66.3871 15.7823 66.1558 16.104 66.1558 16.104C66.1558 16.104 61.7753 18.0825 63.728 26.9726L64.4215 29.0275Z" fill="#232323"/>
<path fill-rule="evenodd" clip-rule="evenodd" d="M85.5114 29.0294L84.496 24.8933C84.496 24.8933 81.2079 22.4908 82.376 19.1375C83.5452 15.7842 83.7766 16.106 83.7766 16.106C83.7766 16.106 88.1447 18.0845 86.2044 26.9745L85.5114 29.0294Z" fill="#232323"/>
<path fill-rule="evenodd" clip-rule="evenodd" d="M80.1271 28.1425C79.8828 28.1425 79.652 28.2452 79.4712 28.4126C79.305 28.5794 79.2022 28.8108 79.2022 29.0551C79.2022 29.2606 79.0472 29.4274 78.8416 29.4274C78.6361 29.4274 78.4688 29.2606 78.4688 29.0551C78.4688 28.6181 78.6496 28.2071 78.9573 27.8987C79.2651 27.5904 79.6891 27.4102 80.1266 27.4102C80.5629 27.4102 80.9735 27.5899 81.2829 27.8987C81.5907 28.2071 81.7704 28.6181 81.7704 29.0551C81.7704 29.2606 81.6041 29.4274 81.398 29.4274C81.206 29.4274 81.0386 29.2606 81.0386 29.0551C81.0386 28.8108 80.9358 28.5794 80.769 28.4126C80.6023 28.2458 80.3709 28.1425 80.1271 28.1425Z" fill="#111111"/>
<path fill-rule="evenodd" clip-rule="evenodd" d="M69.8006 28.1405C69.5563 28.1405 69.3249 28.2433 69.1576 28.4107C68.9779 28.5774 68.888 28.8088 68.888 29.0531C68.888 29.2587 68.7218 29.4255 68.5286 29.4255C68.3236 29.4255 68.1562 29.2587 68.1562 29.0531C68.1562 28.6162 68.3236 28.2051 68.6448 27.8968C68.9526 27.5885 69.3631 27.4082 69.8006 27.4082C70.237 27.4082 70.661 27.5879 70.9698 27.8968C71.2776 28.2051 71.4449 28.6162 71.4449 29.0531C71.4449 29.2587 71.2905 29.4255 71.0844 29.4255C70.8794 29.4255 70.7121 29.2587 70.7121 29.0531C70.7121 28.8088 70.6228 28.5774 70.4419 28.4107C70.2757 28.2439 70.0449 28.1405 69.8006 28.1405Z" fill="#111111"/>
<path fill-rule="evenodd" clip-rule="evenodd" d="M74.7899 39.6903C76.3444 39.6903 77.0896 37.7629 77.0896 37.0952C77.102 36.4275 76.7684 36.1697 76.3573 36.1697C75.9456 36.1697 74.7893 36.1697 74.7893 36.1697C74.7893 36.1697 73.6201 36.1697 73.2096 36.1697C72.8114 36.1697 72.4643 36.4269 72.4778 37.0952C72.4901 37.7629 73.2225 39.6903 74.7899 39.6903ZM74.7899 33.7037C80.0958 33.7037 79.2989 38.9968 81.3033 37.2626C83.3205 35.5154 84.5021 32.6889 84.5021 30.6077C84.5021 28.5135 84.5021 24.8906 84.5021 24.8906L85.5175 25.8925L85.8252 28.5387C85.8252 28.5387 85.504 29.8624 85.504 31.5966C85.504 40.6535 78.1297 44.392 74.7899 44.4431C71.3086 44.3656 64.0629 40.6529 64.0629 31.5966C64.0629 29.8624 63.7422 28.5387 63.7422 28.5387L64.0505 25.8925L65.0659 24.8906C65.0659 24.8906 65.0659 28.5135 65.0659 30.6077C65.0659 32.6889 66.2604 35.5149 68.2642 37.2626C70.2674 38.9968 69.4839 33.7037 74.7899 33.7037Z" fill="#232323"/>
<path fill-rule="evenodd" clip-rule="evenodd" d="M76.9948 26.1125C76.3529 26.2922 75.6082 26.5494 74.9652 26.5494C74.3233 26.5494 73.5646 26.2922 72.9356 26.1125C71.3041 25.6503 68.1053 25.342 65.4461 25.9586C64.8548 26.0872 64.7649 27.2559 65.3434 27.3716C65.4978 27.4098 65.6775 27.5002 65.7674 27.7439C65.9213 28.2067 66.306 30.1464 67.013 30.904C68.3356 32.3557 72.4082 32.3557 73.4236 30.0302C73.8993 28.9384 74.1677 27.9877 74.4637 27.6923C74.631 27.5378 74.8242 27.5249 74.9646 27.5249C75.1061 27.5249 75.2993 27.5378 75.4532 27.6923C75.7615 27.9877 76.0311 28.9384 76.5068 30.0302C77.521 32.3557 81.5813 32.3557 82.9174 30.904C83.6239 30.1459 83.9962 28.2061 84.1636 27.7439C84.2528 27.4996 84.4337 27.4098 84.5875 27.3716C85.1654 27.2553 85.075 26.0867 84.4848 25.9586C81.8251 25.342 78.6273 25.6503 76.9948 26.1125ZM73.2051 27.1015C73.578 27.6928 73.0254 29.427 72.6531 30.0307C71.7023 31.5594 69.4284 31.6111 67.9379 30.84C67.3213 30.5317 67.0259 29.5427 66.8838 28.9519C66.73 28.3482 66.4733 27.0633 67.1927 26.6522C68.285 25.9974 72.5762 26.0872 73.2051 27.1015ZM77.2649 30.0307C76.9055 29.427 76.3529 27.6928 76.7258 27.1015C77.3419 26.0867 81.6454 25.9968 82.7377 26.6516C83.4441 27.0627 83.1875 28.3482 83.046 28.9514C82.9045 29.5422 82.5961 30.5311 81.993 30.8394C80.489 31.6111 78.2157 31.56 77.2649 30.0307Z" fill="#111111"/>
<path fill-rule="evenodd" clip-rule="evenodd" d="M83.7287 19.162C88.8167 24.5702 89.9079 14.1644 83.3816 9.92491C78.0498 6.4565 68.8526 8.92303 68.8526 8.92303C73.0915 4.2983 59.68 7.0473 62.3774 17.3762C63.4438 21.4741 67.4907 24.673 73.7721 22.2323C80.0412 19.7787 82.2898 22.335 82.8677 22.348C83.4338 22.3609 83.9348 20.9603 83.7287 19.162Z" fill="#303030"/>
<path fill-rule="evenodd" clip-rule="evenodd" d="M40.3937 52.859C40.4836 52.7045 40.0725 52.1008 39.8288 51.998C37.8756 52.5119 35.4478 53.835 34.9086 55.9421C34.8957 55.9932 34.8828 56.0196 34.8828 56.0325C35.2293 54.838 37.041 53.5144 38.5444 52.9876C39.3789 52.6793 40.3814 52.8719 40.3937 52.859Z" fill="#F2856E"/>
<path fill-rule="evenodd" clip-rule="evenodd" d="M38.1383 50.084C38.3568 49.7116 36.8534 49.4162 35.3888 49.8655C33.9247 50.3277 32.4982 51.5228 32.0102 53.4754C31.9979 53.5265 31.9844 53.5524 31.9844 53.5653C32.3696 52.2551 34.3352 50.8292 35.9796 50.2384C36.8922 49.9037 38.1254 50.0969 38.1383 50.084Z" fill="#F2856E"/>
<path fill-rule="evenodd" clip-rule="evenodd" d="M132.588 55.5417C137.783 55.5417 142.02 51.3045 142.02 46.1097C142.02 40.915 137.783 36.6777 132.588 36.6777C127.393 36.6777 123.156 40.915 123.156 46.1097C123.156 51.3045 127.393 55.5417 132.588 55.5417Z" fill="#06152D"/>
<path fill-rule="evenodd" clip-rule="evenodd" d="M123.049 59.8868C128.243 59.8868 132.481 55.6502 132.481 50.4554C132.481 45.2601 128.243 41.0234 123.049 41.0234C117.854 41.0234 113.617 45.2607 113.617 50.4554C113.617 55.6502 117.854 59.8868 123.049 59.8868Z" fill="#06152D"/>
<path fill-rule="evenodd" clip-rule="evenodd" d="M141.156 60.0163L143.794 55.8555C143.794 55.8555 146.664 56.781 147.897 58.5528C149.129 60.3241 154.983 72.3018 156.677 76.3076C158.372 80.3129 158.526 81.8534 156.986 86.3214C155.445 90.7884 151.517 97.24 150.786 98.357C150.054 99.474 149.23 100.259 148.814 100.607C148.398 100.957 145.741 100.109 145.741 100.109L146.125 96.5076C146.125 96.5076 146.762 97.1439 147.416 96.2779C148.071 95.4108 152.115 83.0294 152.269 82.4515C152.422 81.873 152.114 81.2575 151.729 80.487C151.344 79.7165 142.833 67.8933 142.833 67.8933L141.156 60.0163Z" fill="#E6AD83"/>
<path fill-rule="evenodd" clip-rule="evenodd" d="M155.016 72.627L155.068 72.7388L150.229 78.2665C149.646 77.4337 148.942 76.438 148.203 75.3974L152.721 72.0469L155.016 72.627Z" fill="#D77F68"/>
<path fill-rule="evenodd" clip-rule="evenodd" d="M147.604 57.5645C147.604 57.5645 148.554 58.6006 149.438 60.1899C150.321 61.7798 155.302 72.0592 155.302 72.0592C155.302 72.0592 155.391 72.4119 155.144 72.6596C154.896 72.9072 149.567 77.1647 149.567 77.1647C149.567 77.1647 149.067 77.5702 148.696 77.1989C148.325 76.8277 145.57 72.1654 145.57 72.1654C145.57 72.1654 143.644 59.7491 147.604 57.5645Z" fill="#E29A30"/>
<path fill-rule="evenodd" clip-rule="evenodd" d="M118.543 60.0163L115.906 55.8555C115.906 55.8555 113.036 56.781 111.803 58.5528C110.57 60.3241 104.716 72.3018 103.022 76.3076C101.327 80.3129 101.173 81.8534 102.714 86.3214C104.254 90.7884 108.181 97.24 108.914 98.357C109.645 99.474 110.469 100.259 110.885 100.607C111.302 100.957 113.959 100.109 113.959 100.109L113.575 96.5076C113.575 96.5076 112.939 97.1439 112.284 96.2779C111.63 95.4108 107.585 83.0294 107.432 82.4515C107.278 81.873 107.586 81.2575 107.971 80.487C108.356 79.7165 116.868 67.8933 116.868 67.8933L118.543 60.0163Z" fill="#E6AD83"/>
<path fill-rule="evenodd" clip-rule="evenodd" d="M109.346 78.449C109.922 77.6246 110.632 76.6199 111.383 75.5624L106.837 71.4375L104.672 72.6584L109.346 78.449Z" fill="#D77F68"/>
<path fill-rule="evenodd" clip-rule="evenodd" d="M112.206 57.5645C112.206 57.5645 111.255 58.6006 110.372 60.1899C109.488 61.7798 104.508 72.0592 104.508 72.0592C104.508 72.0592 104.419 72.4119 104.666 72.6596C104.914 72.9072 110.243 77.1647 110.243 77.1647C110.243 77.1647 110.743 77.5702 111.114 77.1989C111.485 76.8277 114.24 72.1654 114.24 72.1654C114.24 72.1654 116.166 59.7491 112.206 57.5645Z" fill="#E29A30"/>
<path fill-rule="evenodd" clip-rule="evenodd" d="M127.93 18.0805C127.93 18.0805 121.698 18.9285 117.915 25.393C115.193 30.0435 116.617 35.7909 118.087 40.3073H140.892C141.685 34.9547 143.654 27.6978 142.508 24.9684C141.172 21.7892 138.279 22.5311 138.279 22.5311C138.279 22.5311 137.5 16.5434 127.93 18.0805Z" fill="#06152D"/>
<path fill-rule="evenodd" clip-rule="evenodd" d="M144.368 101.859H115.338C119.042 93.855 118.304 89.0573 117.002 79.8724C115.309 76.5848 114.014 70.6083 114.91 66.3245C115.806 62.0412 115.907 55.8552 115.907 55.8552C115.907 55.8552 124.348 53.9969 125.095 53.6234C125.842 53.25 125.91 51.6809 125.91 51.6809L129.852 50.834L133.793 51.6809C133.793 51.6809 133.861 53.25 134.609 53.6234C135.356 53.9974 143.798 55.8552 143.798 55.8552C143.798 55.8552 143.898 62.0412 144.794 66.3245C145.691 70.6083 144.396 76.5854 142.702 79.8724C141.401 89.0584 140.665 93.8544 144.368 101.859Z" fill="#D77F68"/>
<path fill-rule="evenodd" clip-rule="evenodd" d="M122.629 140.723C124.331 130.083 125.918 126.005 126.364 122.535L115.793 107.744C116.263 111.589 111.355 138.798 111.249 139.392C107.32 161.308 109.744 188.645 108.891 198.836C108.811 199.777 107.323 207.614 107.323 207.614L106.523 210.796L106.644 212.106L110.213 212.953L113.582 210.526C113.582 210.526 114.344 202.167 114.164 200.589C113.983 199.009 113.734 198.1 113.734 198.1L113.45 197.708C116.345 178.858 120.928 151.364 122.629 140.723Z" fill="#E6AD83"/>
<path fill-rule="evenodd" clip-rule="evenodd" d="M107.323 207.614C107.323 207.614 106.586 209.633 106.244 210.099C105.903 210.564 104.501 212.118 104.286 212.618C104.07 213.119 103.657 214.654 105.328 214.654C106.999 214.654 109.713 214.654 111.312 214.654C112.911 214.654 114.259 214.153 114.276 212.67C114.294 211.186 114.403 205.922 114.618 204.784C114.835 203.644 115.391 202.35 115.122 201.228C114.853 200.106 113.938 198.139 113.793 197.966C113.728 197.887 113.601 197.79 113.45 197.707L113.624 198.703C113.675 198.904 113.715 199.14 113.739 199.415C113.883 201.056 113.273 208.458 113.273 209.079C113.273 209.7 112.627 210.097 111.441 210.425C110.255 210.753 107.811 211.046 106.895 210.167C106.895 210.167 106.751 210.033 106.827 209.713C106.905 209.395 107.323 207.614 107.323 207.614Z" fill="#283766"/>
<path fill-rule="evenodd" clip-rule="evenodd" d="M137.179 140.723C135.478 130.083 133.892 126.005 133.445 122.535L144.016 107.744C143.546 111.589 148.454 138.798 148.561 139.392C152.488 161.308 150.066 188.645 150.918 198.836C150.997 199.777 152.486 207.614 152.486 207.614L153.285 210.796L153.166 212.106L149.596 212.953L146.227 210.526C146.227 210.526 145.465 202.167 145.645 200.589C145.826 199.009 146.075 198.1 146.075 198.1L146.359 197.708C143.465 178.858 138.881 151.364 137.179 140.723Z" fill="#E6AD83"/>
<path fill-rule="evenodd" clip-rule="evenodd" d="M152.488 207.614C152.488 207.614 153.224 209.633 153.566 210.099C153.907 210.564 155.309 212.118 155.525 212.618C155.74 213.119 156.154 214.654 154.482 214.654C152.811 214.654 150.098 214.654 148.499 214.654C146.901 214.654 145.553 214.153 145.535 212.67C145.517 211.186 145.408 205.922 145.193 204.784C144.977 203.644 144.419 202.35 144.69 201.228C144.959 200.106 145.874 198.139 146.018 197.966C146.084 197.887 146.211 197.79 146.361 197.707L146.187 198.703C146.137 198.904 146.096 199.14 146.072 199.415C145.928 201.056 146.538 208.458 146.538 209.079C146.538 209.7 147.184 210.097 148.37 210.425C149.556 210.753 152 211.046 152.917 210.167C152.917 210.167 153.061 210.033 152.984 209.713C152.906 209.395 152.488 207.614 152.488 207.614Z" fill="#283766"/>
<path fill-rule="evenodd" clip-rule="evenodd" d="M122.627 140.723C123.013 138.315 123.392 136.243 123.753 134.438C118.892 135.012 114.577 135.528 111.873 135.853C111.512 137.922 111.27 139.265 111.247 139.392C111.053 140.474 110.875 141.569 110.711 142.673C113.244 143.713 117.055 145.075 121.752 146.144C122.092 144.051 122.388 142.221 122.627 140.723Z" fill="#D77F68"/>
<path fill-rule="evenodd" clip-rule="evenodd" d="M137.181 140.724C136.692 137.666 136.212 135.15 135.766 133.035C140.012 132.546 144.044 132.091 147.227 131.75C147.955 136.025 148.526 139.195 148.562 139.393C148.973 141.69 149.315 144.047 149.597 146.437C145.724 147.314 141.944 147.737 138.333 147.836C137.875 145.031 137.483 142.612 137.181 140.724Z" fill="#D77F68"/>
<path fill-rule="evenodd" clip-rule="evenodd" d="M114.752 101.973L109.106 135.156L108.398 139.465C108.398 139.465 108.54 140.596 110.377 141.02C112.213 141.443 122.239 142.857 129.909 142.857C137.578 142.857 147.603 141.443 149.44 141.02C151.276 140.596 151.418 139.465 151.418 139.465L150.71 135.156L145.064 101.973L142.634 94.5108C142.803 93.3073 142.153 91.3097 141.852 91.3187C141.553 91.3288 129.908 90.25 129.908 90.25C129.908 90.25 118.262 91.3288 117.963 91.3187C117.663 91.3097 117.012 93.3073 117.181 94.5108L114.752 101.973Z" fill="#122344"/>
<path fill-rule="evenodd" clip-rule="evenodd" d="M114.747 101.974L114.391 104.068L120.221 101.267L121.352 97.5081L123.183 96.2551L121.776 94.1166C121.776 94.1166 128.77 92.6328 138.361 94.1166L136.875 96.254L138.229 98.091L140.42 101.561L146.124 134.547C146.124 134.547 147.18 138.138 144.171 141.825C146.754 141.502 148.719 141.185 149.435 141.02C151.272 140.596 151.413 139.465 151.413 139.465L150.705 135.156L145.06 101.973L142.629 94.5108C142.798 93.3073 142.148 91.3097 141.848 91.3187C141.548 91.3288 129.904 90.25 129.904 90.25C129.904 90.25 118.258 91.3288 117.958 91.3187C117.658 91.3097 117.008 93.3073 117.177 94.5108L114.747 101.974Z" fill="#06152D"/>
<path fill-rule="evenodd" clip-rule="evenodd" d="M129.851 41.7461C132.021 41.7461 133.796 43.5219 133.796 45.6913V53.2448C133.796 55.4148 132.021 57.19 129.851 57.19C127.681 57.19 125.906 55.4148 125.906 53.2448V45.6913C125.906 43.5219 127.681 41.7461 129.851 41.7461Z" fill="#D77F68"/>
<path fill-rule="evenodd" clip-rule="evenodd" d="M146.747 97.2047C146.747 97.2047 144.249 94.3311 143.482 93.8397C142.714 93.3477 140.179 93.045 139.065 92.9703C137.952 92.8945 136.684 95.5789 136.377 95.9951C136.069 96.4107 137.568 96.505 138.431 95.1819C138.431 95.1819 137.259 100.457 137.221 100.74C137.183 101.024 137.548 101.231 137.893 101.005C138.019 100.922 138.162 100.825 138.295 100.734C138.143 101.119 138.019 101.45 137.987 101.572C137.89 101.931 138.698 102.252 139.503 101.269L139.33 101.817C139.33 101.817 139.257 102.025 139.493 102.053C139.729 102.082 140.598 101.671 141.058 100.707C141.519 99.7426 141.772 98.3392 141.772 98.3392C141.887 98.1684 142.808 97.9039 142.808 97.9039C142.808 97.9039 142.674 99.1327 143.595 100.267C144.518 101.401 146.86 102.082 148.819 100.607L146.747 97.2047Z" fill="#E6AD83"/>
<path fill-rule="evenodd" clip-rule="evenodd" d="M136.539 96.2577C136.939 96.333 137.834 96.0937 138.428 95.1828C138.428 95.1828 138.848 94.5471 139.483 94.5111C139.483 94.5111 138.848 94.3522 138.388 94.5999C138.079 94.7656 137.126 95.6804 136.539 96.2577ZM137.631 101.1L139.448 95.8713L138.292 100.735C138.16 100.826 138.016 100.923 137.89 101.005C137.803 101.063 137.714 101.093 137.631 101.1ZM138.41 101.924C138.7 101.924 139.1 101.758 139.501 101.27C139.73 100.747 140.543 97.4258 140.543 97.4258L138.41 101.924ZM142.805 97.9049C142.805 97.9049 142.671 99.1336 143.593 100.267C144.337 101.183 146.007 101.803 147.653 101.233L142.805 97.9049Z" fill="#D77F68"/>
<path fill-rule="evenodd" clip-rule="evenodd" d="M148.211 99.615L148.077 94.7695C147.772 95.5653 147.536 96.1157 147.416 96.2757C146.761 97.1417 146.125 96.5054 146.125 96.5054C147.013 97.4978 147.515 98.4733 148.211 99.615Z" fill="#D77F68"/>
<path fill-rule="evenodd" clip-rule="evenodd" d="M134.484 53.5447C134.484 53.5447 132.818 55.9348 129.907 55.9348C126.995 55.9348 125.329 53.5447 125.329 53.5447C125.016 53.1942 124.402 53.411 123.127 53.8682C121.852 54.3259 119.216 54.7229 116.375 55.3008C113.535 55.8787 112.211 57.5635 112.211 57.5635C113.511 58.8866 113.199 72.2149 115.205 77.6955C116.053 80.0138 116.951 82.2607 117.002 82.7414C117.097 83.6563 116.761 88.9757 117.05 89.7704C117.338 90.5645 117.411 91.0458 118.151 91.4299C118.892 91.814 121.166 91.4074 123.381 91.1182C125.595 90.8295 129.908 90.8279 129.908 90.8279C129.908 90.8279 134.22 90.8295 136.434 91.1182C138.649 91.4074 140.922 91.814 141.663 91.4299C142.404 91.0458 142.476 90.5645 142.765 89.7704C143.054 88.9757 142.716 83.6563 142.813 82.7414C142.862 82.2815 143.688 80.1963 144.505 77.9814C146.55 72.4328 146.388 58.8018 147.603 57.564C147.603 57.564 146.28 55.8787 143.439 55.3014C140.599 54.7235 137.963 54.3264 136.687 53.8687C135.411 53.411 134.797 53.1942 134.484 53.5447Z" fill="#E29A30"/>
<path fill-rule="evenodd" clip-rule="evenodd" d="M114.114 72.7145C114.381 74.6414 114.728 76.3913 115.205 77.6965C115.391 78.2058 115.58 78.7118 115.762 79.1965C116.103 78.7786 116.61 78.4389 117.357 78.4389C119.299 78.4389 137.49 78.4389 137.49 78.4389C137.49 78.4389 138.577 78.5119 139.397 79.3329C139.911 79.8468 141.604 81.6327 142.802 82.9008C142.804 82.839 142.808 82.7856 142.813 82.7424C142.862 82.2824 143.688 80.1967 144.505 77.9823C145.01 76.6103 145.381 74.7436 145.671 72.6926L145.57 72.1664L144.133 58.5859L143.356 69.3248C143.356 69.3248 142.861 71.6565 140.813 71.6565C138.764 71.6565 116.72 71.6565 116.72 71.6565C116.72 71.6565 115.45 71.9137 115.113 70.3367C114.777 68.7592 114.07 64.4495 114.07 64.4495L114.114 72.7145Z" fill="#D97A2D"/>
<path fill-rule="evenodd" clip-rule="evenodd" d="M123.125 53.8682C123.125 53.8682 123.473 53.8395 123.569 55.1155C124.085 61.9535 129.035 61.8597 129.906 57.7157C130.774 61.8597 135.725 61.9535 136.241 55.1155C136.338 53.8401 136.685 53.8682 136.685 53.8682C135.409 53.411 134.795 53.1942 134.483 53.5447C134.483 53.5447 132.816 55.9348 129.906 55.9348C126.993 55.9348 125.327 53.5447 125.327 53.5447C125.015 53.1942 124.402 53.411 123.125 53.8682Z" fill="white"/>
<path fill-rule="evenodd" clip-rule="evenodd" d="M139.498 37.044C139.567 37.0541 139.636 37.0659 139.704 37.0805L139.707 37.0811L139.706 37.0805C140.961 37.3529 141.907 38.4621 141.924 39.8003C141.943 41.3565 140.696 42.6325 139.14 42.6516C137.584 42.6707 136.308 41.4239 136.289 39.8683C136.278 38.9641 136.694 38.1543 137.351 37.6309C137.273 38.4621 137.398 39.4926 138.459 39.6032L138.44 37.9785C138.431 37.3209 139.047 37.0227 139.498 37.044Z" fill="#D7766D"/>
<path fill-rule="evenodd" clip-rule="evenodd" d="M120.231 36.9087C120.161 36.9177 120.093 36.9284 120.025 36.9424L120.022 36.943H120.022C118.765 37.1974 117.801 38.293 117.767 39.6319C117.727 41.1869 118.955 42.4814 120.51 42.5218C122.066 42.5623 123.361 41.3335 123.4 39.7785C123.424 38.8743 123.019 38.0588 122.37 37.5259C122.436 38.3587 122.296 39.387 121.234 39.4825L121.277 37.8578C121.294 37.2007 120.683 36.8941 120.231 36.9087Z" fill="#D7766D"/>
<path fill-rule="evenodd" clip-rule="evenodd" d="M129.85 51.1531C124.591 51.1531 120.203 44.6627 120.203 39.5382V32.7311C120.203 27.4251 124.545 23.084 129.85 23.084H129.85C135.156 23.084 139.497 27.4251 139.497 32.7311V39.3944C139.497 45.0098 135.67 51.1531 129.85 51.1531Z" fill="#E6AD83"/>
<path fill-rule="evenodd" clip-rule="evenodd" d="M135.352 41.676C134.613 41.6895 134.026 42.2994 134.039 43.0379C134.053 43.7764 134.663 44.3632 135.402 44.3498C136.14 44.3363 136.727 43.7264 136.714 42.9885C136.701 42.25 136.09 41.6625 135.352 41.676Z" fill="#D7766D"/>
<path fill-rule="evenodd" clip-rule="evenodd" d="M124.28 41.8869C123.543 41.9004 122.955 42.5103 122.969 43.2488C122.982 43.9868 123.592 44.5747 124.33 44.5607C125.069 44.5472 125.657 43.9373 125.643 43.1994C125.629 42.4615 125.018 41.8735 124.28 41.8869Z" fill="#D7766D"/>
<path fill-rule="evenodd" clip-rule="evenodd" d="M126.981 34.6733C127.185 34.7654 127.275 35.0052 127.182 35.2085C127.091 35.4113 126.851 35.5017 126.648 35.4096C126.644 35.4085 125.426 34.8317 124.262 35.5629C124.072 35.6819 123.822 35.6252 123.703 35.436C123.584 35.2461 123.641 34.9951 123.831 34.8766C125.367 33.9101 126.977 34.6716 126.981 34.6733Z" fill="#06152D"/>
<path fill-rule="evenodd" clip-rule="evenodd" d="M136.524 34.8547C136.719 34.9631 136.791 35.2091 136.682 35.4045C136.573 35.5999 136.327 35.6701 136.132 35.5618C136.129 35.5601 134.96 34.8862 133.742 35.5208C133.543 35.6241 133.298 35.5466 133.194 35.3484C133.091 35.1495 133.168 34.9041 133.367 34.8008C134.978 33.9629 136.52 34.8525 136.524 34.8547Z" fill="#06152D"/>
<path fill-rule="evenodd" clip-rule="evenodd" d="M130.98 40.5907C131.16 41.1029 131.474 42.0273 131.447 42.1722C131.41 42.3743 130.341 42.4277 130.061 42.1183C129.874 41.9127 130.105 41.1456 130.308 40.6351C130.584 39.9398 130.739 39.9028 130.98 40.5907Z" fill="#EBBF9E"/>
<path fill-rule="evenodd" clip-rule="evenodd" d="M132.047 44.3856C132.047 45.5959 131.065 46.5776 129.855 46.5776C128.645 46.5776 127.664 45.5959 127.664 44.3856C127.664 44.1633 127.845 43.9824 128.068 43.9824H131.644C131.866 43.9824 132.047 44.1633 132.047 44.3856Z" fill="white"/>
<path fill-rule="evenodd" clip-rule="evenodd" d="M139.497 39.0212L138.489 34.9412C138.489 34.9412 135.243 32.5595 136.396 29.245C137.55 25.9305 137.776 26.259 137.776 26.259C137.776 26.259 142.101 28.2077 140.176 36.9922L139.497 39.0212Z" fill="#06152D"/>
<path fill-rule="evenodd" clip-rule="evenodd" d="M120.204 39.0212L121.212 34.9412C121.212 34.9412 124.457 32.5595 123.304 29.245C122.151 25.9305 121.926 26.259 121.926 26.259C121.926 26.259 117.6 28.2077 119.525 36.9922L120.204 39.0212Z" fill="#06152D"/>
<path fill-rule="evenodd" clip-rule="evenodd" d="M121.689 31.1142L120.203 35.3003C120.203 35.3003 124.869 34.0289 128.631 30.5313C132.393 27.0342 133.347 27.9878 133.718 29.1009C134.089 30.214 135.944 34.9825 138.858 35.3003C141.771 35.6182 141.296 28.0939 136.844 24.9148C132.393 21.7356 124.286 22.3179 122.484 24.4907C120.683 26.663 121.689 31.1142 121.689 31.1142Z" fill="#06152D"/>
<path fill-rule="evenodd" clip-rule="evenodd" d="M112.978 97.2047C112.978 97.2047 115.475 94.3311 116.243 93.8397C117.011 93.3477 119.545 93.045 120.659 92.9703C121.774 92.8945 123.041 95.5789 123.348 95.9951C123.656 96.4107 122.158 96.505 121.294 95.1819C121.294 95.1819 122.465 100.457 122.503 100.74C122.541 101.024 122.177 101.231 121.832 101.005C121.706 100.922 121.563 100.825 121.431 100.734C121.582 101.119 121.706 101.45 121.739 101.572C121.835 101.931 121.028 102.252 120.221 101.269L120.394 101.817C120.394 101.817 120.466 102.025 120.232 102.053C119.996 102.082 119.127 101.671 118.667 100.707C118.206 99.7426 117.954 98.3392 117.954 98.3392C117.839 98.1684 116.918 97.9039 116.918 97.9039C116.918 97.9039 117.052 99.1327 116.13 100.267C115.208 101.401 112.865 102.082 110.906 100.607L112.978 97.2047Z" fill="#E6AD83"/>
<path fill-rule="evenodd" clip-rule="evenodd" d="M123.185 96.2577C122.785 96.333 121.889 96.0937 121.295 95.1828C121.295 95.1828 120.876 94.5471 120.24 94.5111C120.24 94.5111 120.875 94.3522 121.334 94.5999C121.644 94.7656 122.597 95.6804 123.185 96.2577ZM122.093 101.1L120.276 95.8713L121.432 100.735C121.564 100.826 121.707 100.923 121.833 101.005C121.921 101.063 122.009 101.093 122.093 101.1ZM121.314 101.924C121.023 101.924 120.623 101.758 120.222 101.27C119.993 100.747 119.18 97.4258 119.18 97.4258L121.314 101.924ZM116.918 97.9049C116.918 97.9049 117.052 99.1336 116.131 100.267C115.387 101.183 113.716 101.803 112.07 101.233L116.918 97.9049Z" fill="#D77F68"/>
<path fill-rule="evenodd" clip-rule="evenodd" d="M111.508 99.615L111.641 94.7695C111.947 95.5653 112.182 96.1157 112.303 96.2757C112.958 97.1417 113.594 96.5054 113.594 96.5054C112.705 97.4978 112.203 98.4733 111.508 99.615Z" fill="#D77F68"/>
<path fill-rule="evenodd" clip-rule="evenodd" d="M124.914 40.3137C124.305 40.3137 123.811 39.8201 123.811 39.2119C123.811 39.1288 123.821 39.0479 123.838 38.9704L123.712 38.9255C123.581 38.8772 123.447 38.7997 123.324 38.6812C123.269 38.6284 123.267 38.5408 123.32 38.4863C123.372 38.4307 123.46 38.429 123.515 38.4818C123.635 38.5975 123.769 38.661 123.895 38.6947L123.898 38.6924C123.771 38.6183 123.644 38.5054 123.555 38.3352C123.519 38.2678 123.545 38.1842 123.613 38.1488C123.68 38.1134 123.763 38.1392 123.799 38.2066C123.873 38.3476 123.984 38.4329 124.086 38.4841L124.097 38.4723C124.015 38.4054 123.934 38.3083 123.896 38.1701C123.874 38.0971 123.916 38.0207 123.99 37.9994C124.064 37.9786 124.14 38.0213 124.161 38.0949C124.189 38.1931 124.253 38.2544 124.309 38.2897C124.482 38.1757 124.691 38.1095 124.914 38.1095C125.523 38.1095 126.017 38.6031 126.017 39.2119C126.016 39.8206 125.523 40.3137 124.914 40.3137Z" fill="#06152D"/>
<path fill-rule="evenodd" clip-rule="evenodd" d="M134.79 40.3137C135.399 40.3137 135.892 39.8201 135.892 39.2119C135.892 39.1288 135.883 39.0479 135.866 38.9704L135.992 38.9255C136.123 38.8772 136.258 38.7997 136.38 38.6812C136.435 38.6284 136.437 38.5408 136.384 38.4863C136.331 38.4307 136.244 38.429 136.189 38.4818C136.069 38.5975 135.935 38.661 135.808 38.6947L135.806 38.6924C135.933 38.6183 136.06 38.5054 136.149 38.3352C136.184 38.2678 136.159 38.1842 136.09 38.1488C136.024 38.1134 135.94 38.1392 135.905 38.2066C135.83 38.3476 135.72 38.4329 135.618 38.4841L135.608 38.4723C135.689 38.4054 135.769 38.3083 135.809 38.1701C135.829 38.0971 135.786 38.0207 135.714 37.9994C135.641 37.9786 135.563 38.0213 135.543 38.0949C135.515 38.1931 135.449 38.2544 135.394 38.2897C135.22 38.1757 135.012 38.1095 134.789 38.1095C134.181 38.1095 133.688 38.6031 133.688 39.2119C133.689 39.8206 134.182 40.3137 134.79 40.3137Z" fill="#06152D"/>
</svg>
