<svg width="275" height="244" viewBox="0 0 275 244" fill="none" xmlns="http://www.w3.org/2000/svg">
<path d="M255.138 214.652C255.138 221.077 198.045 226.286 127.616 226.286C57.1869 226.286 0.09375 221.077 0.09375 214.652C0.09375 208.227 57.1869 203.02 127.616 203.02C198.045 203.02 255.138 208.227 255.138 214.652Z" fill="#C6D7FF"/>
<path d="M196.551 232.615C196.551 238.463 165.688 243.205 127.615 243.205C89.544 243.205 58.6797 238.463 58.6797 232.615C58.6797 226.767 89.544 222.027 127.615 222.027C165.688 222.027 196.551 226.767 196.551 232.615Z" fill="#C6D7FF"/>
<path d="M226.873 19.8467C227.589 21.6246 226.737 23.9644 227.491 25.5467C228.258 27.1494 230.3 27.2312 231.057 28.7135C233.629 33.7484 230.716 34.7981 231.038 38.622C231.402 42.8942 235.833 45.0875 232.071 49.5553C228.973 53.2341 222.701 52.647 221.292 47.7792C221.394 47.6394 221.397 47.6411 221.299 47.786C214.008 52.5862 208.329 39.7406 217.077 37.1791C213.873 34.9109 212.462 30.0624 216.1 27.2565C212.639 24.8666 212.856 20.1341 216.286 17.9403C216.838 17.5862 214.553 13.0219 219.13 12.6268C222.428 12.3424 225.869 17.3579 226.873 19.8467Z" fill="#0056A7"/>
<path d="M226.433 43.2604C229.984 43.1614 232.944 45.9583 233.043 49.511C233.142 53.0613 231.207 62.2236 228.502 59.9201C223.185 55.3922 220.533 52.6687 220.433 49.1171C220.333 45.5656 222.881 43.3587 226.433 43.2604Z" fill="#E59375"/>
<path d="M231.035 46.9648L224.878 49.0114L223.766 55.5831C223.766 55.5831 237.312 72.0524 241.725 74.3469C246.427 76.7914 245.165 72.5112 244.858 70.7441C244.858 70.7441 234.516 49.2093 231.035 46.9648Z" fill="#E59375"/>
<path d="M244.458 74.896C244.458 74.896 255.945 69.1746 263.35 62.7648C263.35 62.7648 264.05 60.5267 262.093 61.0257C260.22 61.5037 241.673 66.3204 240.483 67.8497C239.292 69.3792 244.458 74.896 244.458 74.896Z" fill="#E59375"/>
<path d="M271.444 61.2404L269.662 62.0612C269.662 62.0612 273.276 61.2991 273.795 59.7475C273.795 59.7475 273.978 59.452 273.383 59.2815C273.383 59.2815 270.499 60.5876 269.074 60.8462C269.074 60.8462 272.216 60.1351 274.115 58.9473C274.115 58.9473 274.644 58.046 273.57 57.9971C274.084 57.436 273.333 57.2849 273.333 57.2849C273.333 57.2849 272.603 57.2479 271.059 57.4924C271.059 57.4924 268.679 57.8522 265.836 57.9493C265.836 57.9493 267.088 55.8238 265.913 55.1895L263.801 58.1056L262.039 61.045L262.56 62.9627L266.171 63.5014C266.171 63.5014 269.302 63.2617 270.806 62.5796C270.806 62.5794 274.975 60.3317 271.444 61.2404Z" fill="#E59375"/>
<path d="M227.895 43.2583C227.895 43.2583 232.852 44.1426 233.5 48.9826C233.5 48.9826 247.902 69.2598 245.248 75.0069C244.12 75.4485 238.521 78.6971 221.151 53.8777C221.151 53.8777 216.498 41.4925 227.895 43.2583Z" fill="#4B9EBF"/>
<path d="M240.242 66.3764C240.242 66.3764 247.73 63.1624 261.363 60.2871C261.363 60.2871 263.703 62.6281 263.47 64.183C263.47 64.183 247.088 75.2845 244.684 75.0838C244.684 75.0838 239.231 71.2231 240.242 66.3764Z" fill="#4B9EBF"/>
<path d="M214.75 208.365C217.802 209.783 221.154 209.588 221.154 209.588L218.365 206.728C218.365 206.728 215.953 201.36 215.702 199.627C215.541 198.517 216.297 195.261 216.297 195.261L212.124 194.387L211.489 196.685L209.041 199.772C209.041 199.772 208.454 201.382 211.349 202.527C211.349 202.527 212.809 205.45 214.75 208.365Z" fill="#E59375"/>
<path d="M218.37 206.727C217.123 206.943 215.139 206.549 214.407 205.256C211.455 200.052 211.494 196.684 211.494 196.684C208.817 198.385 208.846 200.423 208.846 200.423L208.786 201.245L208.32 207.583L208.75 207.673L211.273 203.019L212.871 208.407C219.452 211.163 221.585 209.756 221.585 209.756L218.37 206.727Z" fill="black"/>
<path d="M233.795 149.359C233.795 149.359 216.944 196.03 215.939 197.946C215.939 197.946 210.966 197.158 211.323 196.005C212.182 193.216 213.8 172.49 214.734 168.006C216.237 160.807 217.573 156.349 223.85 147.832C223.851 147.832 233.391 143.574 233.795 149.359Z" fill="#010814"/>
<path d="M226.524 93.4219C226.524 93.4219 229.112 102.535 230.268 108.302C232.315 118.505 233.139 144.788 233.139 144.788C233.139 144.788 224.576 149.424 223.385 147.256C217.631 136.786 216.957 139.657 208.969 104.199L226.524 93.4219Z" fill="#F7A483"/>
<path d="M209.45 105.327C209.45 105.327 212.693 132.191 223.064 147.414C223.064 147.414 226.196 155.697 233.791 149.359C233.791 149.359 234.736 105.613 227.359 92.0833C227.359 92.0833 206.28 91.0414 209.45 105.327Z" fill="#010814"/>
<path d="M219.334 75.6798C220.148 75.532 223.509 77.2666 223.509 77.2666C223.509 77.2666 227.706 90.7562 227.886 92.8078C228.068 94.8567 213.96 105.476 198.203 99.4296C198.203 99.4296 205.498 80.4339 205.944 75.7554C206.391 71.0768 219.334 75.6798 219.334 75.6798Z" fill="#E79675"/>
<path d="M223.514 77.2671C223.514 77.2671 227.537 89.4324 227.891 92.8083C229.147 104.759 212.976 109.77 197.218 103.724C197.218 103.724 196.196 87.2942 205.95 75.7559C205.95 75.7559 208.542 78.1197 223.514 77.2671Z" fill="#09111C"/>
<path d="M208.616 112.592L197.219 106.336C197.219 106.336 199.068 142.392 200.512 152.519C200.512 152.519 206.887 154.294 208.862 152.983C214.774 139.117 218.197 109.012 218.197 109.012L208.616 112.592Z" fill="#09111C"/>
<path d="M201.711 95.7847C201.711 95.7847 196.241 97.363 197.373 107.496C198.478 117.393 216.679 118.333 218.379 108.185C220.208 97.267 211.35 91.4807 201.711 95.7847Z" fill="#09111C"/>
<path d="M209.39 42.5515H220.359C219.86 40.9533 218.827 36.8197 220.426 34.007L209.344 26.7305C209.344 26.7305 211.315 38.9409 209.39 42.5515Z" fill="#F7A483"/>
<path d="M219.572 37.7552C219.54 36.5334 219.742 35.2114 220.426 34.007L209.344 26.7305C209.344 26.7305 210.148 31.7068 210.229 36.2451C214.23 37.5176 215.877 38.0104 219.572 37.7552Z" fill="#E1876F"/>
<path d="M201.86 43.497C196.922 45.9108 199.667 51.7118 199.667 51.7118L206.34 75.9959C206.34 75.9959 212.574 78.5438 223.513 77.2678C225.033 75.0928 228.155 65.9833 229.202 59.0275C230.063 53.2986 232.739 47.6538 229.825 44.4592C228.707 43.2344 220.194 42.0126 220.15 41.8125H209.905L201.86 43.497Z" fill="#F7A483"/>
<path d="M222.136 35.0013L222.8 33.3838L224.466 28.6087C224.701 27.8487 224.847 26.8019 224.62 26.0363C224.35 25.1168 224.179 23.6323 224.6 22.0028C225.727 17.6373 223.886 15.2361 223.886 15.2361C221.518 11.0492 215.441 10.7598 215.441 10.7598C207.909 10.7683 206.928 18.0107 206.928 18.0107C205.473 22.7893 209.129 27.0024 209.135 27.0098C209.599 27.5423 209.609 28.3693 209.812 29.0104C210.03 29.6952 210.378 30.3414 210.821 30.9041C211.816 32.1686 213.135 33.3987 214.514 34.192C215.822 34.944 218.388 35.7777 220.236 35.8516C221.003 35.8828 221.755 35.9294 222.136 35.0013Z" fill="#F7A483"/>
<path d="M209.833 29.8568C209.968 26.4246 210.044 26.6389 210.044 26.6389C210.175 25.6409 212.031 27.9012 212.057 26.5939C212.174 20.6081 214.49 17.8728 215.364 17.4567C217.733 16.3263 220.184 16.0909 222.094 16.5315C225.091 17.222 224.77 21.2395 224.77 21.2395C228.094 6.6394 211.427 10.5122 211.427 10.5122C203.32 12.2065 203.761 19.7881 203.761 19.7881C202.37 27.8329 210.103 32.9008 210.103 32.9008L209.833 29.8568Z" fill="#0056A7"/>
<path d="M210.414 28.7151C210.134 28.9084 209.784 29.009 209.355 28.9794C208.193 28.9043 207.281 27.7653 207.322 26.4406C207.362 25.1169 208.334 24.1041 209.497 24.1798C210.048 24.2156 210.541 24.4913 210.904 24.9106C211.434 25.5238 211.395 26.6025 211.226 27.338C211.091 27.9268 210.831 28.4247 210.414 28.7151Z" fill="#F8A07D"/>
<path d="M209.904 25.4352C209.871 24.7367 208.43 25.329 208.623 25.7319C208.736 25.9632 208.973 26.1416 209.159 26.3088C209.413 26.5384 209.533 26.7429 209.551 27.0902C209.555 27.13 209.557 27.2516 209.515 27.2778C209.327 27.3943 208.763 26.6856 208.641 26.5355C208.399 26.2411 208.388 25.7585 208.529 25.4165C208.678 25.0521 208.931 24.8902 209.326 24.935C209.642 24.9691 209.963 25.0072 209.923 25.3989C209.922 25.4069 209.905 25.4704 209.904 25.4352Z" fill="#E98B6F"/>
<path d="M209.42 26.1347C209.575 25.9954 209.71 26.1251 209.852 26.2393C209.986 26.349 210.056 26.4962 210.084 26.6615C210.146 27.0276 210.073 27.5077 209.85 27.813C209.669 28.058 209.38 28.1994 209.075 28.1755C208.652 28.1421 208.545 27.7623 208.547 27.4031C208.547 27.3076 208.552 27.0802 208.647 27.0257C208.753 26.966 208.817 27.1274 208.88 27.1979C208.97 27.2918 209.109 27.3349 209.233 27.352C209.473 27.385 209.716 27.2736 209.876 27.1031C209.905 27.0724 209.932 27.036 209.946 26.9973C209.934 27.232 209.92 27.282 209.901 27.153C209.886 27.0922 209.861 27.0359 209.829 26.9825C209.74 26.8165 209.58 26.6966 209.478 26.5364C209.429 26.4626 209.344 26.2057 209.42 26.1347Z" fill="#E98B6F"/>
<path d="M210.457 28.9603C210.436 29.353 210.101 29.6571 209.708 29.6361C209.314 29.6168 209.013 29.2814 209.032 28.8887C209.053 28.4949 209.386 28.1919 209.78 28.2119C210.174 28.2322 210.476 28.5675 210.457 28.9603Z" fill="white"/>
<path d="M223.156 42.4062L227.89 43.2559C227.89 43.2559 231.339 44.0118 231.454 46.9637C231.454 46.9637 231.647 52.5579 228.602 62.6733C228.602 62.6733 223.566 47.1519 223.156 42.4062Z" fill="#4FA6C9"/>
<path d="M221.947 42.2222L224.08 42.5507C224.08 42.5507 228.218 50.5518 229.196 59.0275C228.149 65.9835 226.052 76.5153 223.508 77.2678C214.884 79.8179 205.882 75.8089 205.882 75.8089L201.758 59.3418C212.835 55.0303 207.237 42.37 207.237 42.37L209.564 41.8125L219.353 51.7091L221.947 42.2222Z" fill="#4FA6C9"/>
<path d="M226.328 47.6836C226.328 47.6836 230.657 53.6784 231.411 56.7669C231.907 58.7964 228.369 63.3675 225.511 64.174C223.95 64.6144 223.913 48.0884 226.328 47.6836Z" fill="#4FA6C9"/>
<path d="M217.888 44.5684L217.764 50.1228L215.719 48.1228L217.888 44.5684Z" fill="#4592B1"/>
<path d="M217.886 44.4446C217.886 44.4446 211.682 41.9041 210.143 39.375L207.242 42.3702L214.769 49.6699L217.885 44.569" fill="#7AD0E2"/>
<path d="M223.409 44.7245C223.409 44.7245 222.807 42.3989 219.859 40.4336L220.245 48.4517C220.245 48.4517 221.88 44.35 223.409 44.7245Z" fill="#7AD0E2"/>
<path d="M223.677 48.4537L223.408 44.7266C222.508 44.506 221.703 45.7666 221.047 46.7993L223.677 48.4537Z" fill="#4592B1"/>
<path d="M206.557 210.608C209.836 211.369 213.076 210.491 213.076 210.491L209.759 208.265C209.759 208.265 206.297 203.506 205.695 201.862C205.31 200.808 205.383 197.467 205.383 197.467H201.12L200.969 199.846L199.208 203.369C199.208 203.369 198.962 205.067 202.03 205.593C202.03 205.593 204.06 208.153 206.557 210.608Z" fill="#F7A483"/>
<path d="M209.759 208.265C208.584 208.731 206.561 208.753 205.578 207.638C201.622 203.149 200.969 199.846 200.969 199.846C198.698 202.061 199.145 204.05 199.145 204.05L199.255 204.867L200.101 211.164H200.538L202.053 206.091L204.723 211.037C211.729 212.384 213.528 210.57 213.528 210.57L209.759 208.265Z" fill="black"/>
<path d="M200.067 148.758L209.38 151.514C209.38 151.514 206.177 196.189 205.764 198.312C205.764 198.312 200.776 198.985 200.786 197.777C200.808 194.86 197.384 176.631 197.055 172.063C196.49 164.212 194.356 158.946 200.067 148.758Z" fill="#09111C"/>
<path d="M204.238 43.2604C200.688 43.1614 197.728 45.9583 197.629 49.511C197.53 53.0613 199.464 62.2236 202.17 59.9201C207.486 55.3922 210.139 52.6687 210.239 49.1171C210.339 45.5656 207.79 43.3587 204.238 43.2604Z" fill="#E59375"/>
<path d="M199.629 46.9648L205.786 49.0114L206.899 55.5831C206.899 55.5831 193.353 72.0524 188.94 74.3469C184.238 76.7914 185.499 72.5112 185.806 70.7441C185.806 70.7441 196.148 49.2093 199.629 46.9648Z" fill="#E59375"/>
<path d="M186.217 74.8941C186.217 74.8941 174.73 69.1726 167.325 62.7629C167.325 62.7629 166.625 60.5247 168.582 61.0237C170.455 61.5017 189.002 66.3185 190.192 67.8478C191.382 69.3772 186.217 74.8941 186.217 74.8941Z" fill="#E59375"/>
<path d="M159.231 61.2404L161.013 62.0612C161.013 62.0612 157.399 61.2991 156.879 59.7475C156.879 59.7475 156.696 59.452 157.292 59.2815C157.292 59.2815 160.176 60.5876 161.601 60.8462C161.601 60.8462 158.459 60.1351 156.56 58.9473C156.56 58.9473 156.031 58.046 157.105 57.9971C156.591 57.436 157.342 57.2849 157.342 57.2849C157.342 57.2849 158.072 57.2479 159.617 57.4924C159.617 57.4924 161.996 57.8522 164.84 57.9493C164.84 57.9493 163.587 55.8238 164.762 55.1895L166.874 58.1056L168.636 61.045L168.116 62.9627L164.504 63.5014C164.504 63.5014 161.373 63.2617 159.869 62.5796C159.869 62.5796 155.7 60.3317 159.231 61.2404Z" fill="#E59375"/>
<path d="M209.52 53.8764C192.15 78.6958 186.551 75.4472 185.423 75.0056C182.769 69.2585 196.666 48.4527 196.666 48.4527C198.904 43.624 202.777 43.257 202.777 43.257L207.239 42.3691L210.103 46.0184C210.103 46.0184 211.913 49.869 209.52 53.8764Z" fill="#4FA6C9"/>
<path d="M190.432 66.3744C190.432 66.3744 182.944 63.1604 169.311 60.2852C169.311 60.2852 166.971 62.6262 167.204 64.1811C167.204 64.1811 183.586 75.2825 185.99 75.0819C185.99 75.0819 191.443 71.2212 190.432 66.3744Z" fill="#4B9EBF"/>
<path d="M200.765 19.8467C200.05 21.6246 200.902 23.9644 200.147 25.5467C199.381 27.1494 197.339 27.2312 196.582 28.7135C194.009 33.7484 196.923 34.7981 196.6 38.622C196.237 42.8942 191.805 45.0875 195.568 49.5553C198.666 53.2341 204.938 52.647 206.347 47.7792C206.244 47.6394 206.242 47.6411 206.339 47.786C213.631 52.5862 219.309 39.7406 210.562 37.1791C213.766 34.9109 215.177 30.0624 211.539 27.2565C215 24.8666 214.783 20.1341 211.353 17.9403C210.801 17.5862 213.086 13.0219 208.509 12.6268C205.211 12.3424 201.769 17.3579 200.765 19.8467Z" fill="#0056A7"/>
<path d="M227.156 67.9219C227.156 67.9219 226.175 86.1105 233.499 95.6637C233.499 95.6637 213.391 104.459 194.492 95.9234C196.252 90.3827 195.853 90.3895 201.764 77.6268C201.764 77.6268 204.726 71.1621 203.913 67.9219H227.156Z" fill="#4FA6C9"/>
<path d="M44.5453 14.1514C44.5453 14.1514 38.0764 14.1577 39.2018 6.79883C39.2018 6.79883 43.0977 10.4777 47.2688 8.95507C47.2688 8.95507 47.5848 13.894 44.5453 14.1514Z" fill="#963222"/>
<path d="M32.8219 48.8457L30.765 49.2935C30.765 49.2935 25.1413 73.4923 27.2573 79.2372C29.3738 84.9825 32.7742 79.2945 33.8364 78.7751C34.8975 78.2551 44.3001 51.6254 44.3001 51.6254L32.8219 48.8457Z" fill="#E59375"/>
<path d="M25.7379 76.2084L29.435 48.1039C31.6362 40.7093 39.7622 43.4401 39.7622 43.4401C45.8566 45.7004 44.887 50.496 44.887 50.496L36.5409 79.3729C36.5409 79.3729 34.9598 83.7571 29.169 83.174C29.169 83.174 24.9536 82.1668 25.7379 76.2084Z" fill="#001940"/>
<path d="M35.6973 199.676C35.6973 199.676 34.6055 203.925 33.2636 205.078C31.9223 206.23 26.8033 207.926 26.8033 207.926L23.9673 208.333C23.9673 208.333 21.9963 209.747 27.407 211.233C32.8165 212.72 42.3117 208.233 42.3117 208.233L40.1707 199.547L35.6973 199.676Z" fill="#2C080D"/>
<path d="M64.2239 208.926C65.1788 207.438 67.1804 199.329 67.1804 199.329L71.6004 199.195L74.3671 208.123C74.3671 208.123 74.811 209.618 73.9074 210.177C73.9074 210.177 68.3956 212.091 63.6875 210.086C63.6875 210.086 63.7374 209.687 64.2239 208.926Z" fill="#2C080D"/>
<path d="M36.826 85.7983L31.1812 51.3023C31.1812 51.3023 29.237 46.1167 33.1266 43.5251L47.9507 36.5566H58.4058L76.2278 47.0898L64.5456 85.7983H36.826Z" fill="#F7A483"/>
<path d="M64.5477 85.7988C64.5477 85.7988 67.7492 93.1082 68.5216 109.912C68.5216 109.912 44.4279 117.469 36.8708 109.912L36.8281 85.7988H64.5477Z" fill="#00264E"/>
<path d="M48.7503 109.84C48.7094 115.479 53.1009 120.083 58.5593 120.123C64.0187 120.162 68.478 115.624 68.5194 109.985C68.5597 104.347 64.1688 99.7437 58.7104 99.7034C53.251 99.6631 48.7919 104.202 48.7503 109.84Z" fill="#00264E"/>
<path d="M68.5102 111.229L71.1308 159.25C71.1308 159.25 66.4914 165.336 58.2778 158.47L49.3594 114.298C49.3594 114.298 53.6884 99.4531 68.5102 111.229Z" fill="#00264E"/>
<path d="M69.0852 153.641C69.0852 153.641 73.6001 162.229 72.8657 176.268L73.6001 202.516L66.1503 202.738L58.3203 158.604C58.3203 158.604 62.4679 143.788 69.0852 153.641Z" fill="#00264E"/>
<path d="M36.9066 109.938C36.3348 115.548 38.3383 120.347 43.7699 120.901C49.2009 121.456 54.0676 117.357 54.64 111.747C55.2118 106.137 51.2731 101.141 45.842 100.587C40.411 100.033 37.479 104.329 36.9066 109.938Z" fill="#00264E"/>
<path d="M52.3239 117.324L46.7513 161.216C46.7513 161.216 36.8911 162.528 34.9702 155.816C34.9702 155.816 34.8468 124.833 36.9082 109.938C36.9082 109.938 50.2665 103.432 52.3239 117.324Z" fill="#00264E"/>
<path d="M46.1362 157.327C46.1362 157.327 47.9185 163.902 46.2789 174.496L42.2323 204.143L34.2578 203.58L34.9763 155.816C34.9763 155.816 39.3644 149.179 46.1362 157.327Z" fill="#00264E"/>
<path d="M74.6655 51.332L76.6968 51.8747C76.6968 51.8747 79.8676 76.1992 77.488 81.8399C75.1112 87.4802 72.8742 81.8854 71.8376 81.3176C70.8003 80.7487 63.0703 53.5808 63.0703 53.5808L74.6655 51.332Z" fill="#F7A483"/>
<path d="M69.2066 81.0982L62.5469 52.4505C63.9217 44.7035 71.2959 45.2485 71.2959 45.2485C77.7699 45.8368 78.0882 50.7189 78.0882 50.7189L78.5167 79.8548C78.5167 79.8548 78.9436 84.8347 75.1903 84.5703C75.1903 84.5703 69.8187 83.7308 69.2066 81.0982Z" fill="#001940"/>
<path d="M58.4582 28.9375V40.1123H46.6406C46.6406 40.1123 49.5472 35.6821 48.0932 28.9375H58.4582Z" fill="#F7A483"/>
<path d="M52.4623 38.4271C51.3962 39.112 49.1341 40.5709 47.8411 39.7178C47.4944 39.4876 47.3336 39.1865 47.2812 38.8511C48.0412 37.0813 49.0863 33.5513 48.0922 28.9375H58.457V29.9509C57.1631 33.2216 55.5041 36.4651 52.4623 38.4271Z" fill="#E1876F"/>
<path d="M58.7395 29.0923C58.7395 29.0923 60.7508 28.2193 63.0277 23.2418C63.0277 23.2418 67.9722 17.3555 64.4672 10.6729C64.4672 10.6729 62.3973 5.02188 52.3638 6.60356C52.3638 6.60356 51.4613 21.7489 58.7395 29.0923Z" fill="#F8A07D"/>
<path d="M46.3807 32.1154L45.7111 30.3644C45.7111 30.3644 43.8647 23.8449 43.8647 23.8439C43.6327 23.0243 43.6191 21.9268 43.7681 21.084C43.9306 20.1678 44.034 19.2101 43.7954 18.2429C42.6303 13.5546 45.0333 10.8931 45.0333 10.8931C47.6811 6.47073 54.1977 6.32422 54.1977 6.32422C62.2676 6.53388 63.1275 14.3179 63.1275 14.3179C64.5557 19.4749 60.5291 23.891 60.5205 23.9006C60.1988 24.2524 60.4085 25.9563 60.3204 26.4439C59.9425 28.5234 57.9908 29.8425 56.2568 30.7604C54.3501 31.7681 52.0413 32.8462 49.8886 33.0934C49.0724 33.1884 46.7637 33.1208 46.3807 32.1154Z" fill="#F7A483"/>
<path d="M66.4644 84.8616C66.4399 86.0101 68.1853 98.034 67.4522 98.1875C67.4471 98.1887 47.5051 102.785 36.8686 98.1875L36.826 85.7983L31.1812 51.3023C31.1812 51.3023 29.237 46.1167 33.1266 43.5251L47.9507 36.5566L46.9493 39.562L49.0936 45.6575L58.4058 36.5566L76.2278 47.0898C75.2315 50.3908 74.2421 53.6922 73.2458 56.9924C71.4077 63.0765 69.6209 69.1788 67.7277 75.2464C67.7277 75.2464 66.1615 81.8267 66.4644 84.8616Z" fill="white"/>
<path d="M50.375 38.7266L50.4994 44.2804L52.5449 42.2798L50.375 38.7266Z" fill="#A5C6C7"/>
<path d="M47.7734 47.6823C47.7734 48.1205 48.1282 48.4751 48.5662 48.4751C49.0027 48.4751 49.3574 48.1204 49.3574 47.6823C49.3574 47.2458 49.0027 46.8906 48.5662 46.8906C48.1282 46.8906 47.7734 47.2458 47.7734 47.6823Z" fill="#CFEAE6"/>
<path d="M47.7734 62.0741C47.7734 62.5105 48.1282 62.8653 48.5662 62.8653C49.0027 62.8653 49.3574 62.5105 49.3574 62.0741C49.3574 61.6347 49.0027 61.2812 48.5662 61.2812C48.1282 61.2812 47.7734 61.6348 47.7734 62.0741Z" fill="#CFEAE6"/>
<path d="M47.7734 76.4616C47.7734 76.9004 48.1282 77.2555 48.5662 77.2555C49.0027 77.2555 49.3574 76.9004 49.3574 76.4616C49.3574 76.0245 49.0027 75.6699 48.5662 75.6699C48.1282 75.6698 47.7734 76.0245 47.7734 76.4616Z" fill="#CFEAE6"/>
<path d="M47.7734 90.8514C47.7734 91.2879 48.1282 91.6436 48.5662 91.6436C49.0027 91.6436 49.3574 91.2879 49.3574 90.8514C49.3574 90.4132 49.0027 90.0586 48.5662 90.0586C48.1282 90.0586 47.7734 90.4132 47.7734 90.8514Z" fill="#CFEAE6"/>
<path d="M50.375 44.9141V99.527" stroke="#CFEAE6" stroke-width="0.428934" stroke-miterlimit="10"/>
<path d="M36.9852 99.3256C36.9852 99.3256 47.1721 104.098 68.0188 99.2205C68.3621 99.1385 68.2177 98.2497 68.2177 98.2497L68.0188 96.2423C67.9291 95.5989 67.5692 95.6296 67.5692 95.6296C67.5653 95.6308 47.6222 100.227 36.9852 95.6296C36.9852 95.6296 36.5561 95.5546 36.5391 96.1985V98.7009C36.5391 98.7009 36.5391 99.2007 36.9852 99.3256Z" fill="#471F08"/>
<path d="M47.3359 100.839C47.3359 101.157 47.5888 101.416 47.8997 101.416H51.9566C52.2663 101.416 52.5186 101.157 52.5186 100.839V97.9175C52.5186 97.5998 52.2663 97.3418 51.9566 97.3418H47.8997C47.5888 97.3418 47.3359 97.5998 47.3359 97.9175V100.839Z" stroke="#BCBEC0" stroke-width="0.701738" stroke-miterlimit="10"/>
<path d="M52.515 99.1953H50.3672" stroke="#BCBEC0" stroke-width="0.701738" stroke-miterlimit="10"/>
<path d="M50.3752 38.6023C50.3752 38.6023 56.9156 36.0623 58.4546 33.5332L60.3864 37.2166L53.493 43.8276L50.375 38.7272" fill="#BFE5E5"/>
<path d="M44.7811 11.2301C45.075 9.10045 52.0139 10.2378 53.8302 10.5702C54.9226 10.7709 56.2047 11.1039 56.7998 12.1787C57.0192 12.5755 57.8961 15.3495 56.8168 16.7391C57.7705 19.7251 57.995 22.0348 57.995 22.0348L58.5463 22.0655C59.6318 24.864 59.8444 28.2275 59.8444 28.2275C59.8444 28.2275 63.8921 26.4822 66.7026 19.0926C69.5484 9.68316 62.5543 5.53713 62.5543 5.53713C56.14 2.75337 49.7382 3.51503 49.7382 3.51503C49.7382 3.51503 43.2858 4.10502 41.828 0.253906C41.828 0.253906 37.7412 9.09259 44.7811 11.2301Z" fill="#963222"/>
<path d="M59.3171 24.661C59.6024 24.9025 59.9781 25.0526 60.4527 25.0674C61.7394 25.1077 62.8613 23.9551 62.9601 22.4929C63.0591 21.0334 62.0979 19.8155 60.8123 19.7744C60.2036 19.7557 59.629 20.0046 59.1863 20.4274C58.5401 21.0446 58.4645 22.2342 58.5713 23.0622C58.6583 23.7238 58.8885 24.299 59.3171 24.661Z" fill="#F7A483"/>
<path d="M60.2293 21.1101C60.3401 20.3457 61.8587 21.1516 61.6041 21.5728C61.4562 21.8167 61.1756 21.9849 60.9538 22.1497C60.6498 22.3771 60.4964 22.5874 60.4378 22.967C60.4292 23.0107 60.4157 23.1437 60.4583 23.1778C60.6527 23.3266 61.3465 22.6054 61.4989 22.456C61.7967 22.1581 61.8609 21.6274 61.7416 21.2357C61.6148 20.8203 61.3563 20.614 60.9157 20.6213C60.5668 20.6246 60.2098 20.632 60.2109 21.0664C60.2111 21.0767 60.223 21.1494 60.2293 21.1101Z" fill="#E98B6F"/>
<path d="M60.6888 21.9304C60.5364 21.7605 60.3751 21.8872 60.2034 21.9998C60.046 22.1038 59.9521 22.2595 59.9044 22.4402C59.797 22.8346 59.8266 23.3707 60.0385 23.7292C60.2108 24.0196 60.5132 24.2059 60.8524 24.2128C61.3208 24.2196 61.4776 23.8132 61.5158 23.4182C61.5254 23.313 61.5447 23.0619 61.4436 22.9925C61.3368 22.918 61.2475 23.0864 61.169 23.1579C61.0605 23.2528 60.9058 23.2829 60.7666 23.2886C60.4983 23.2999 60.2449 23.1521 60.0851 22.946C60.0578 22.9096 60.0339 22.8658 60.0204 22.822C60.0096 23.0811 60.0192 23.1408 60.0534 22.9988C60.0778 22.9329 60.1097 22.8744 60.1512 22.8202C60.2665 22.6452 60.4558 22.531 60.5837 22.3667C60.6461 22.2902 60.7656 22.018 60.6888 21.9304Z" fill="#E98B6F"/>
<path d="M61.3652 38.3086L53.4375 66.1551L54.6146 116.75C54.6146 116.75 68.2178 117.764 73.5999 112.894L68.5189 81.5729L76.2263 47.0911L61.3652 38.3086Z" fill="#001940"/>
<path d="M43.8089 38.5039L34.782 42.7465C34.782 42.7465 29.6437 44.1031 30.6933 49.4262L33.6634 78.9152L28.7422 112.893C28.7422 112.893 32.9645 117.962 41.3707 114.984L45.0723 65.4035L43.8089 38.5039Z" fill="#001940"/>
<path d="M44.8594 38.8853C44.8594 38.8853 45.4607 36.5585 48.4087 34.5938L48.0235 42.6118C48.0235 42.6118 46.3865 38.51 44.8594 38.8853Z" fill="#BFE5E5"/>
<path d="M44.5859 42.6115L44.8542 38.8849C45.7546 38.6637 46.5593 39.9245 47.2146 40.9576L44.5859 42.6115Z" fill="#A5C6C7"/>
<path d="M51.0234 40.7358L51.2651 40.2852L52.9088 42.8085L51.4953 43.3126L51.0234 40.7358Z" fill="#D83633"/>
<path d="M47.2164 40.9583L46.7554 40.252C46.7554 40.252 44.9987 41.728 46.843 43.3124C46.843 43.3124 46.843 42.0063 47.2164 40.9583Z" fill="#D83633"/>
<path d="M51.025 40.7344C51.025 40.7344 49.6308 41.9734 47.2194 40.9571C46.6926 41.6277 46.6937 42.4815 46.8461 43.3112L48.0953 45.8869H49.8406L51.4968 43.3112C51.4968 43.3112 51.6679 42.7429 51.025 40.7344Z" fill="#D83633"/>
<path d="M49.8409 45.8887L51.2493 82.7478L48.3075 88.4739L45.9062 82.7775L48.0955 45.8887H49.8409Z" fill="#A62724"/>
<path d="M59.5859 69.2468L63.2096 66.384C63.2096 66.384 68.6663 65.5838 71.3914 65.9276C71.3914 65.9276 72.2912 67.1802 65.4097 67.3724C65.4097 67.3724 70.236 68.9138 71.7864 70.0611C71.7864 70.0611 72.0342 71.4895 67.6211 69.415L65.6125 69.2672L70.2814 71.5979C70.2814 71.5979 70.0996 72.4867 65.8478 71.3319L61.5834 71.7991L59.5859 69.2468Z" fill="#F7A483"/>
<path d="M36.3763 69.7772L59.7306 66.9844C60.8991 68.4098 62.0239 70.9997 61.5237 73.7102L31.6915 83.1719C31.6915 83.1719 23.8097 84.5699 25.8881 75.0781C25.8881 75.0781 29.2181 70.2381 36.3763 69.7772Z" fill="#00153B"/>
<path d="M36.3759 69.7773C36.3759 69.7773 40.5726 72.0399 42.1462 72.2189L44.5878 68.0052L41.2522 65.8415L38.9651 65.3147C38.9651 65.3147 35.2022 64.3439 34.2109 69.5068L36.3759 69.7773Z" fill="#F7A483"/>
<path d="M78.1284 77.9515C79.5385 86.4851 73.3327 84.3294 73.3327 84.3294L41.6875 72.9405C42.5792 68.0369 44.5855 67.2695 44.5855 67.2695L71.6515 72.4334C71.6515 72.4334 76.7438 74.034 78.1284 77.9515Z" fill="#002952"/>
<path d="M94.5607 27.3103C94.5607 27.3103 98.3322 30.7873 97.928 42.0843V76.262C97.928 76.262 98.1514 79.7624 101.052 82.079C101.052 82.079 76.2715 89.3594 74.1566 78.2484V42.7971C74.1566 42.7971 73.0063 27.8809 78.7499 25.2012C78.7499 25.2012 88.9149 21.0119 94.5607 27.3103Z" fill="#370900"/>
<path d="M97.3213 56.6142C102.453 59.0695 99.7094 64.8705 99.7094 64.8705L93.0366 89.1533C93.0366 89.1533 86.8024 91.7023 75.8631 90.4264C74.3434 88.2514 71.2209 79.142 70.1745 72.1861C69.3135 66.4573 66.6371 60.8125 69.5522 57.6178C70.6696 56.3931 79.1833 55.1712 79.2259 54.9706L89.2758 54.9297L97.3213 56.6142Z" fill="#F7A483"/>
<path d="M89.9208 118.487C89.9208 118.487 86.6761 145.351 76.3062 160.574C76.3062 160.574 71.4702 168.701 65.5783 162.519C65.5783 162.519 64.6343 118.774 72.0107 105.243C72.0107 105.243 93.0892 104.202 89.9208 118.487Z" fill="#E59375"/>
<path d="M74.7 55.711C71.1485 55.6121 66.4307 59.1188 66.3318 62.6709C66.2328 66.2219 68.1686 75.3842 70.8728 73.0807C76.1902 68.5527 78.8432 65.8286 78.9421 62.2777C79.0422 58.7256 78.2516 55.8094 74.7 55.711Z" fill="#E59375"/>
<path d="M68.1946 61.1564L74.6772 60.8711L78.0605 66.6131C78.0605 66.6131 71.2825 86.8318 67.9787 90.5499C64.4585 94.5112 64.1094 90.0628 63.7656 88.3016C63.7656 88.3016 65.7429 64.4949 68.1946 61.1564Z" fill="#E59375"/>
<path d="M68.4622 222.946C65.1431 223.512 61.9609 222.443 61.9609 222.443L65.4039 220.416C65.4039 220.416 69.1424 215.871 69.8404 214.265C70.2876 213.237 70.4133 209.896 70.4133 209.896L74.6691 210.149L74.6787 212.533L76.2279 216.155C76.2279 216.155 76.3716 217.863 73.2771 218.207C73.2771 218.207 71.1005 220.643 68.4622 222.946Z" fill="#E59375"/>
<path d="M65.4055 220.417C66.5513 220.952 68.5694 221.093 69.6163 220.039C73.8327 215.793 74.6802 212.533 74.6802 212.533C76.8161 214.879 76.2511 216.838 76.2511 216.838L76.0925 217.647L74.8769 223.884L74.4387 223.858L73.2276 218.705L70.2688 223.483C63.1947 224.412 61.5078 222.494 61.5078 222.494L65.4055 220.417Z" fill="#09111C"/>
<path d="M65.5859 162.518C65.5859 162.518 69.9514 207.783 70.4168 209.896C70.4168 209.896 74.714 211.355 74.6725 210.148C74.5777 207.233 78.8146 188.581 79.0925 184.009C79.5353 176.668 78.3412 171.782 74.5225 161.914C74.5225 161.914 67.4973 157.044 65.5859 162.518Z" fill="#E59375"/>
<path d="M80.0385 88.8395C79.2234 88.6917 75.8635 90.4269 75.8635 90.4269C75.8635 90.4269 71.6652 103.916 71.4861 105.968C71.3042 108.017 85.411 118.636 101.169 112.59C101.169 112.59 93.8736 93.5937 93.4269 88.9158C92.9807 84.2371 80.0385 88.8395 80.0385 88.8395Z" fill="#E79675"/>
<path d="M75.8602 90.4273C75.8602 90.4273 71.8364 102.593 71.4829 105.968C70.2262 117.919 86.3973 122.931 102.156 116.885C102.156 116.885 103.177 100.455 93.4236 88.916C93.4236 88.916 90.8332 91.2793 75.8602 90.4273Z" fill="#101B26"/>
<path d="M90.7614 125.752L102.157 119.496C102.157 119.496 100.308 155.552 98.8642 165.68C98.8642 165.68 92.4886 167.455 90.5141 166.143C84.6033 152.278 81.1797 122.172 81.1797 122.172L90.7614 125.752Z" fill="#F7A483"/>
<path d="M97.6675 108.943C97.6675 108.943 103.137 110.521 102.005 120.654C100.9 130.551 82.6981 131.491 80.9993 121.343C79.1697 110.425 88.0285 104.639 97.6675 108.943Z" fill="#F7A483"/>
<path d="M89.9802 55.7115H79.0112C79.5103 54.1134 80.5434 49.9798 78.9453 47.1665L90.0262 39.8906C90.0262 39.8906 88.0565 52.1009 89.9802 55.7115Z" fill="#F7A483"/>
<path d="M79.7995 50.9154C79.8296 49.6929 79.6284 48.3704 78.9453 47.1666L90.0262 39.8906C90.0262 39.8906 89.2237 44.8664 89.1419 49.4053C85.1402 50.6778 83.4936 51.1706 79.7995 50.9154Z" fill="#E1876F"/>
<path d="M77.2364 48.1615L76.5715 46.5434L74.9057 41.7688C74.6705 41.0089 74.525 39.9615 74.7506 39.1965C75.0217 38.2769 75.1922 36.7919 74.7716 35.1623C73.6446 30.7975 75.4848 28.3956 75.4848 28.3956C77.8548 24.2087 83.9304 23.9199 83.9304 23.9199C91.4621 23.9285 92.4447 31.1708 92.4447 31.1708C93.8974 35.9489 90.2435 40.162 90.2361 40.1694C89.7723 40.7019 89.7627 41.5295 89.5593 42.17C89.3422 42.8548 88.9932 43.501 88.5504 44.0643C87.5564 45.3288 86.2367 46.5588 84.8573 47.3516C83.5496 48.1041 80.9835 48.9368 79.1353 49.0111C78.3697 49.0424 77.6172 49.0896 77.2364 48.1615Z" fill="#F7A483"/>
<path d="M89.5414 43.0171C89.4061 39.5848 89.3294 39.7992 89.3294 39.7992C89.1988 38.8006 87.3426 41.0615 87.3158 39.7542C87.1987 33.7678 84.8821 31.0335 84.0103 30.6164C81.6403 29.4865 79.1902 29.2506 77.2788 29.6912C74.2831 30.3811 74.6024 34.3992 74.6024 34.3992C71.2787 19.7997 87.9459 23.6723 87.9459 23.6723C96.0534 25.3666 95.6118 32.9482 95.6118 32.9482C97.0036 40.9931 89.2696 46.0604 89.2696 46.0604L89.5414 43.0171Z" fill="#370900"/>
<path d="M88.955 41.8757C89.2346 42.0684 89.5841 42.1696 90.0149 42.1395C91.1772 42.0644 92.0871 40.9255 92.0468 39.6002C92.0071 38.2776 91.0346 37.2643 89.8734 37.3399C89.3221 37.3763 88.8293 37.6514 88.4661 38.0707C87.9364 38.684 87.9745 39.7633 88.1427 40.4988C88.2782 41.0863 88.5379 41.5853 88.955 41.8757Z" fill="#F8A07D"/>
<path d="M89.461 38.5939C89.4928 37.8953 90.9347 38.4881 90.7409 38.8905C90.6294 39.1219 90.3908 39.3002 90.2066 39.4674C89.9514 39.6964 89.831 39.9016 89.8122 40.2489C89.8089 40.2881 89.8065 40.4102 89.8503 40.4358C90.0379 40.5529 90.6005 39.8442 90.7233 39.6941C90.9666 39.3992 90.9773 38.9171 90.8347 38.5745C90.6859 38.2108 90.4335 38.0488 90.0379 38.0931C89.7224 38.1271 89.4025 38.1658 89.4406 38.5573C89.4416 38.5649 89.4586 38.6291 89.461 38.5939Z" fill="#E98B6F"/>
<path d="M89.95 39.2926C89.7949 39.154 89.6608 39.283 89.5181 39.3972C89.3839 39.5063 89.3141 39.6542 89.2861 39.8194C89.2253 40.1855 89.2986 40.6662 89.5214 40.9715C89.7009 41.2165 89.9898 41.3579 90.2949 41.3335C90.7194 41.3004 90.8252 40.9203 90.8229 40.561C90.8229 40.4662 90.8183 40.2382 90.7228 40.1836C90.6165 40.124 90.5534 40.2859 90.4897 40.3565C90.3993 40.4508 90.2618 40.4934 90.1373 40.5105C89.8969 40.543 89.6542 40.4321 89.4945 40.2616C89.4667 40.2309 89.4382 40.1945 89.4241 40.1554C89.436 40.3901 89.4508 40.4407 89.469 40.3111C89.4837 40.2508 89.5093 40.1945 89.5412 40.1406C89.6298 39.974 89.7896 39.8552 89.8924 39.6945C89.9414 39.6211 90.0267 39.3636 89.95 39.2926Z" fill="#E98B6F"/>
<path d="M88.915 42.1224C88.9344 42.5151 89.2697 42.8186 89.664 42.7982C90.0567 42.7789 90.3591 42.4435 90.3381 42.0502C90.3188 41.657 89.9846 41.354 89.5907 41.374C89.1982 41.3938 88.8947 41.729 88.915 42.1224Z" fill="white"/>
<path d="M77.4216 55.3829L75.2887 55.7115C75.2887 55.7115 71.15 63.7125 70.1719 72.1882C71.2181 79.1442 73.3159 89.676 75.8604 90.4285C84.4838 92.9786 93.4863 88.9696 93.4863 88.9696L97.6102 72.5025C86.5327 68.191 92.1309 55.5302 92.1309 55.5302L89.8053 54.9727C89.8053 54.9727 81.5755 61.0062 77.4216 55.3829Z" fill="#00B9C5"/>
<path d="M73.0515 60.8438C73.0515 60.8438 68.7242 66.8386 67.9688 69.927C67.4726 71.9565 71.0123 76.5277 73.8688 77.3342C75.4301 77.7747 75.4664 61.2479 73.0515 60.8438Z" fill="#00B9C5"/>
<path d="M92.823 223.769C89.5443 224.53 86.3047 223.652 86.3047 223.652L89.6221 221.425C89.6221 221.425 93.0839 216.666 93.6852 215.023C94.0705 213.969 93.9973 210.627 93.9973 210.627H98.2616L98.4128 213.007L100.174 216.529C100.174 216.529 100.419 218.227 97.3507 218.754C97.3504 218.754 95.3209 221.314 92.823 223.769Z" fill="#F7A483"/>
<path d="M89.6203 221.425C90.7951 221.891 92.8173 221.912 93.8004 220.798C97.7561 216.31 98.4108 213.006 98.4108 213.006C100.681 215.221 100.233 217.209 100.233 217.209L100.123 218.027L99.2792 224.324H98.8398L97.3263 219.252L94.6552 224.198C87.6493 225.544 85.8516 223.729 85.8516 223.729L89.6203 221.425Z" fill="#09111C"/>
<path d="M99.3045 161.916L89.9922 164.674C89.9922 164.674 93.5768 208.504 93.99 210.628C93.99 210.628 98.265 211.836 98.2543 210.628C98.231 207.711 101.988 189.79 102.316 185.222C102.882 177.371 105.015 172.105 99.3045 161.916Z" fill="#F7A483"/>
<path d="M101.99 112.246L103.829 155.588C103.829 155.588 80.2208 161.052 63.8281 153.558C63.8281 153.558 65.3269 116.481 71.9923 104.185C71.9923 104.185 100.653 101.534 101.99 112.246Z" fill="#101B26"/>
<path d="M91.2127 59.1526C89.2098 62.0858 90.3368 64.9315 91.9583 68.0284C93.6059 71.1765 103.646 73.3538 103.169 69.8334C102.233 62.9122 101.525 58.9713 98.442 57.206C95.827 55.7096 93.2144 56.2165 91.2127 59.1526Z" fill="#F7A483"/>
<path d="M90.8984 64.967L95.9493 60.8926L102.079 63.507C102.079 63.507 108.615 83.8047 108.162 88.7584C107.678 94.0359 104.758 90.6612 103.437 89.4477C103.437 89.4477 90.9057 69.1091 90.8984 64.967Z" fill="#F7A483"/>
<path d="M108.041 88.3576C108.041 88.3576 108.838 102.644 106.655 112.192C106.655 112.192 103.891 113.834 103.67 111.827C103.3 108.419 100.437 91.6336 101.165 85.6808C101.399 83.7581 108.041 88.3576 108.041 88.3576Z" fill="#F7A483"/>
<path d="M105.373 123.881C105.373 123.881 104.629 124.245 105.132 122.501L105.721 119.778C105.721 119.778 105.129 124.314 103.579 125.176C103.579 125.176 103.301 125.429 103.001 124.828C103.001 124.828 104.316 120.963 104.308 119.392C104.308 119.392 103.967 124.118 102.219 125.477C102.219 125.477 101.333 125.853 101.345 124.921C101.345 124.921 102.687 121.577 102.811 118.916C102.811 118.916 101.766 123.535 100.8 124.815C100.8 124.815 99.816 125.02 100.027 123.923C100.027 123.923 100.778 121.156 101.349 117.969C101.349 117.969 99.5456 119.495 98.1719 118.782L102.25 112.833L103.676 111.826L106.661 112.191L107.007 115.722C107.007 115.722 107.22 119.42 106.122 122.89C106.122 122.89 105.834 123.771 105.373 123.881Z" fill="#F7A483"/>
<path d="M72.1389 76.1174L80.9926 95.6024L62.9694 93.9388L54.8438 74.8164L72.1389 76.1174Z" fill="#D2E7F2"/>
<path d="M57.6966 80.8516C58.0393 81.4824 58.4065 82.0542 58.959 82.4917C59.5875 82.9896 60.6384 82.839 61.0436 83.2022C61.7484 83.8348 61.2482 85.5449 59.7604 87.2596C58.4702 88.748 57.5189 86.8004 57.0835 85.6023C56.4419 83.8325 56.4845 83.0419 57.2165 81.6137L57.6966 80.8516Z" fill="#E59375"/>
<path d="M189.422 59.256L190.064 35.1748C190.521 29.5448 188.311 27.5028 188.311 27.5028C178.919 23.9797 174.18 28.7356 174.18 28.7356V53.3385C178.262 57.1492 184.053 59.6732 189.422 59.256Z" fill="#C4A17E"/>
<path d="M164.031 56.6578C159.094 59.0715 161.839 64.8726 161.839 64.8726L168.512 89.1554C168.512 89.1554 174.745 91.7044 185.685 90.4285C187.204 88.2535 190.327 79.1441 191.374 72.1882C192.235 66.4593 194.911 60.8146 191.995 57.6199C190.878 56.3952 182.365 55.1733 182.322 54.9727H172.077L164.031 56.6578Z" fill="#F7A483"/>
<path d="M186.657 35.1766L186.018 59.1526C187.16 59.3083 188.301 59.3446 189.424 59.2578L190.066 35.1766C190.524 29.5466 188.313 27.5046 188.313 27.5046C184.967 26.2491 182.216 26.0473 180.055 26.3049C181.502 26.4656 183.119 26.8346 184.904 27.5046C184.904 27.5046 187.113 29.5465 186.657 35.1766Z" fill="#D7B089"/>
<path d="M191.22 57.1469C194.393 58.7462 194.897 62.4381 194.373 65.7925C193.825 69.3026 187.547 76.6733 186.006 73.4713C182.978 67.1786 181.562 62.4062 182.909 59.1195C184.258 55.8312 186.137 54.5843 191.22 57.1469Z" fill="#E59375"/>
<path d="M194.491 62.3655L187.116 62.0312L183.438 67.5896C183.438 67.5896 189.153 88.1334 192.261 92.0174C195.57 96.1571 196.149 91.7332 196.583 89.9924C196.583 89.9924 195.642 67.0197 194.491 62.3655Z" fill="#E59375"/>
<path d="M196.23 122.691L196.682 125.742L194.906 129.788C194.906 129.788 195.658 130.46 196.489 129.133L198.07 125.797L197.849 122.359L196.23 122.691Z" fill="#CA8268"/>
<path d="M197.04 123.721L197.661 126.742L196.117 130.882C196.117 130.882 196.903 131.51 197.657 130.139L199.052 126.719L198.637 123.301L197.04 123.721Z" fill="#CA8268"/>
<path d="M200.453 124.397L199.9 120.85L199.292 116.447L196.538 116.066L195.591 120.708L195.362 123.144L195.085 126.473L194.938 127.549C194.938 127.549 195.8 127.826 196.471 126.116L197.173 122.976L198.367 125.444L197.356 129.776C197.356 129.776 197.615 132.037 198.293 131.184L200.572 125.104L200.453 124.397Z" fill="#E59375"/>
<path d="M189.75 87.0232C189.75 87.0232 193.319 103.898 196.542 116.066C196.542 116.066 198.909 118.876 199.296 116.447C200.07 111.598 197.504 85.313 196.263 83.3021C195.024 81.2931 189.75 87.0232 189.75 87.0232Z" fill="#E59375"/>
<path d="M183.47 223.576C186.789 224.142 189.971 223.073 189.971 223.073L186.527 221.047C186.527 221.047 182.789 216.502 182.092 214.896C181.644 213.867 181.518 210.527 181.518 210.527L177.263 210.78L177.253 213.164L175.704 216.785C175.704 216.785 175.56 218.494 178.655 218.838C178.655 218.838 180.831 221.274 183.47 223.576Z" fill="#E59375"/>
<path d="M186.53 221.047C185.385 221.582 183.366 221.724 182.32 220.668C178.103 216.424 177.256 213.164 177.256 213.164C175.12 215.509 175.685 217.468 175.685 217.468L175.843 218.277L177.059 224.514L177.497 224.489L178.708 219.335L181.667 224.114C188.741 225.042 190.428 223.124 190.428 223.124L186.53 221.047Z" fill="#C93232"/>
<path d="M186.352 163.15C186.352 163.15 181.986 208.416 181.52 210.529C181.52 210.529 177.224 211.989 177.265 210.781C177.36 207.865 173.123 189.213 172.845 184.642C172.403 177.301 173.597 172.415 177.415 162.547C177.415 162.547 184.441 157.677 186.352 163.15Z" fill="#E59375"/>
<path d="M170.221 116.704C170.221 116.704 168.59 143.713 176.061 160.551C176.061 160.551 179.359 169.414 186.265 164.389C186.265 164.389 195.046 121.525 190.216 106.889C190.216 106.889 169.666 102.082 170.221 116.704Z" fill="#E59375"/>
<path d="M181.506 88.8415C182.321 88.6937 185.681 90.4288 185.681 90.4288C185.681 90.4288 189.879 103.918 190.059 105.97C190.24 108.019 176.133 118.638 160.375 112.592C160.375 112.592 167.671 93.5957 168.118 88.9177C168.564 84.239 181.506 88.8415 181.506 88.8415Z" fill="#E79675"/>
<path d="M185.685 90.4292C185.685 90.4292 189.709 102.595 190.063 105.97C191.319 117.921 175.148 122.933 159.39 116.887C159.39 116.887 158.368 100.456 168.122 88.918C168.122 88.918 170.712 91.2812 185.685 90.4292Z" fill="#24365F"/>
<path d="M170.778 125.752L159.383 119.496C159.383 119.496 161.232 155.552 162.676 165.68C162.676 165.68 169.051 167.455 171.026 166.143C176.937 152.278 180.36 122.172 180.36 122.172L170.778 125.752Z" fill="#F7A483"/>
<path d="M163.874 108.945C163.874 108.945 158.405 110.523 159.537 120.656C160.642 130.553 178.843 131.493 180.542 121.345C182.372 110.427 173.514 104.641 163.874 108.945Z" fill="#F7A483"/>
<path d="M171.562 55.7115H182.531C182.032 54.1134 180.999 49.9798 182.597 47.1665L171.516 39.8906C171.516 39.8906 173.485 52.1009 171.562 55.7115Z" fill="#F7A483"/>
<path d="M181.743 50.9154C181.712 49.6929 181.913 48.3704 182.597 47.1666L171.516 39.8906C171.516 39.8906 172.318 44.8664 172.4 49.4053C176.402 50.6778 178.049 51.1706 181.743 50.9154Z" fill="#E1876F"/>
<path d="M184.307 48.1615L184.972 46.5434L186.638 41.7688C186.874 41.0089 187.019 39.9615 186.793 39.1965C186.523 38.2769 186.352 36.7919 186.773 35.1623C187.899 30.7975 186.059 28.3956 186.059 28.3956C183.689 24.2087 177.614 23.9199 177.614 23.9199C170.082 23.9285 169.099 31.1708 169.099 31.1708C167.646 35.9489 171.301 40.162 171.308 40.1694C171.772 40.7019 171.781 41.5295 171.985 42.17C172.202 42.8548 172.551 43.501 172.994 44.0643C173.988 45.3288 175.308 46.5588 176.687 47.3516C177.994 48.1041 180.561 48.9368 182.409 49.0111C183.175 49.0424 183.927 49.0896 184.307 48.1615Z" fill="#F7A483"/>
<path d="M172.003 43.0171C172.139 39.5848 172.216 39.7992 172.216 39.7992C172.346 38.8006 174.203 41.0615 174.23 39.7542C174.347 33.7678 176.663 31.0335 177.535 30.6164C179.905 29.4865 182.355 29.2506 184.267 29.6912C187.262 30.3811 186.942 34.3992 186.942 34.3992C190.266 19.7997 173.599 23.6723 173.599 23.6723C165.492 25.3666 165.933 32.9482 165.933 32.9482C164.542 40.9931 172.276 46.0604 172.276 46.0604L172.003 43.0171Z" fill="#C4A17E"/>
<path d="M172.593 41.8777C172.314 42.0703 171.964 42.1716 171.533 42.1415C170.371 42.0664 169.461 40.9274 169.501 39.6021C169.542 38.2796 170.513 37.2662 171.675 37.3419C172.226 37.3782 172.719 37.6534 173.083 38.0727C173.612 38.6859 173.574 39.7652 173.406 40.5007C173.27 41.0882 173.01 41.5873 172.593 41.8777Z" fill="#F8A07D"/>
<path d="M172.075 38.5958C172.043 37.8973 170.602 38.49 170.796 38.8925C170.907 39.1238 171.146 39.3022 171.33 39.4694C171.585 39.6984 171.706 39.9035 171.724 40.2508C171.727 40.2901 171.73 40.4122 171.686 40.4378C171.498 40.5549 170.936 39.8462 170.813 39.696C170.57 39.4011 170.559 38.9191 170.702 38.5765C170.85 38.2127 171.103 38.0508 171.498 38.095C171.814 38.1291 172.134 38.1678 172.096 38.5593C172.095 38.5669 172.078 38.631 172.075 38.5958Z" fill="#E98B6F"/>
<path d="M171.592 39.2946C171.747 39.1559 171.881 39.285 172.024 39.3992C172.158 39.5083 172.228 39.6561 172.256 39.8214C172.317 40.1875 172.244 40.6682 172.02 40.9734C171.841 41.2184 171.552 41.3599 171.247 41.3354C170.823 41.3024 170.717 40.9222 170.719 40.563C170.719 40.4681 170.724 40.2401 170.819 40.1856C170.925 40.1259 170.989 40.2879 171.052 40.3584C171.142 40.4527 171.28 40.4953 171.404 40.5125C171.645 40.5449 171.887 40.4341 172.047 40.2636C172.076 40.2329 172.103 40.1965 172.118 40.1573C172.106 40.392 172.091 40.4427 172.073 40.313C172.058 40.2528 172.033 40.1965 172.001 40.1425C171.912 39.9759 171.752 39.8572 171.65 39.6964C171.601 39.6231 171.516 39.3656 171.592 39.2946Z" fill="#E98B6F"/>
<path d="M172.627 42.1204C172.608 42.5131 172.273 42.8166 171.879 42.7963C171.486 42.7769 171.183 42.4416 171.204 42.0483C171.224 41.655 171.558 41.3521 171.952 41.372C172.345 41.3918 172.648 41.727 172.627 42.1204Z" fill="white"/>
<path d="M188.492 60.8457C188.492 60.8457 192.82 66.8405 193.575 69.929C194.071 71.9585 190.532 76.5296 187.675 77.3361C186.114 77.7767 186.077 61.2499 188.492 60.8457Z" fill="#4FA6C9"/>
<path d="M188.492 60.8457C188.492 60.8457 192.82 66.8405 193.575 69.929C194.071 71.9585 190.532 76.5296 187.675 77.3361C186.114 77.7767 186.077 61.2499 188.492 60.8457Z" fill="#24365F"/>
<path d="M184.118 55.3829L186.579 55.7115C186.579 55.7115 190.521 63.7626 191.499 72.2383C190.453 79.1942 188.223 89.6762 185.679 90.4285C177.056 92.9786 168.054 88.9696 168.054 88.9696L163.93 72.5025C175.007 68.191 169.408 55.5302 169.408 55.5302L171.735 54.9727C171.735 54.9727 179.338 61.8058 184.118 55.3829Z" fill="#24365F"/>
<path d="M168.723 223.771C172.002 224.532 175.241 223.654 175.241 223.654L171.924 221.427C171.924 221.427 168.462 216.668 167.861 215.024C167.475 213.971 167.549 210.629 167.549 210.629H163.284L163.133 213.008L161.372 216.531C161.372 216.531 161.127 218.229 164.196 218.756C164.196 218.756 166.226 221.316 168.723 223.771Z" fill="#F7A483"/>
<path d="M171.922 221.427C170.747 221.893 168.725 221.914 167.742 220.8C163.787 216.312 163.131 213.008 163.131 213.008C160.862 215.223 161.309 217.211 161.309 217.211L161.419 218.029L162.263 224.326H162.702L164.216 219.254L166.887 224.2C173.893 225.546 175.691 223.731 175.691 223.731L171.922 221.427Z" fill="#C93232"/>
<path d="M162.231 161.918L171.543 164.676C171.543 164.676 167.959 208.506 167.545 210.63C167.545 210.63 163.27 211.838 163.281 210.63C163.304 207.713 159.547 189.792 159.219 185.224C158.653 177.373 156.52 172.107 162.231 161.918Z" fill="#F7A483"/>
<path d="M170.552 61.8228C170.772 65.3686 168.919 68.8509 165.372 69.0691C161.826 69.2897 152.604 67.6682 154.815 64.8868C159.158 59.4176 161.789 56.6737 165.336 56.4537C168.883 56.2331 170.333 58.2763 170.552 61.8228Z" fill="#F7A483"/>
<path d="M167.849 66.9802L165.593 60.8956L158.988 60.0078C158.988 60.0078 142.99 74.1066 140.848 78.596C138.564 83.3791 142.799 81.9725 144.555 81.6042C144.555 81.6042 165.726 70.5358 167.849 66.9802Z" fill="#F7A483"/>
<path d="M140.484 81.6739C140.484 81.6739 148.455 92.8866 155.878 99.2743C155.878 99.2743 159.077 98.9559 158.064 97.2105C156.34 94.2478 149.246 80.3718 147.504 77.3976C146.523 75.7267 140.484 81.6739 140.484 81.6739Z" fill="#F7A483"/>
<path d="M158.061 97.2104L159.807 97.1728L163.93 95.3086C163.911 97.6223 164.147 99.9775 164.147 99.9775C166.24 102.203 167.501 103.945 167.501 103.945C168.322 104.701 167.408 105.121 167.408 105.121C165.87 104.664 162.967 102.403 162.967 102.403C164.419 103.903 167.187 106.046 167.187 106.046C167.749 106.789 166.812 107.012 166.812 107.012C164.601 106.956 162.043 103.674 162.043 103.674C162.97 104.943 165.606 107.141 165.606 107.141C165.72 107.803 165.347 107.764 165.347 107.764C163.587 107.99 161.136 104.823 161.136 104.823L162.084 105.985C163.525 107.459 162.198 107.614 162.198 107.614L161.324 106.959C158.693 104.919 157.693 102.322 157.693 102.322L155.875 99.2739L158.061 97.2104Z" fill="#F7A483"/>
<path d="M183.394 29.5441L177.602 23.2139C184.482 20.8768 188.597 27.8414 188.597 27.8414L187.294 29.5441C187.294 29.5441 184.815 23.9205 183.394 29.5441Z" fill="#D7B089"/>
<path d="M191.207 137.272C192.182 125.711 192.496 111.733 189.478 104.188C189.478 104.188 162.086 105.985 159.481 112.249C159.481 112.249 158.158 119.49 159.257 137.272C159.257 137.272 178.325 141.852 191.207 137.272Z" fill="#24365F"/>
<path d="M162.789 50.6498C162.789 54.5935 170.499 57.9461 175.584 59.1198C175.361 54.4777 175.355 50.9807 175.355 50.9807C174.863 42.0867 175.133 38.7898 175.941 32.6364C176.571 27.8327 180.055 25.8965 183.394 29.5458C183.259 29.3969 183.227 28.8871 183.161 28.6865C183.062 28.3785 182.942 28.0783 182.803 27.7857C181.635 25.3334 179.259 23.5914 176.681 22.8485C175.757 22.5819 174.856 22.5029 173.903 22.6064C170.727 22.9525 166.797 25.1889 165.202 27.9738C163.639 30.7042 163.289 34.1443 163.034 37.2224C162.89 38.9654 162.774 40.7461 162.806 42.4954C162.806 42.4964 162.868 45.8213 162.789 50.6498Z" fill="#DDBE90"/>
<path d="M116.404 47.0213C117.139 47.7522 117.413 48.852 117.768 49.8255C120.505 46.2149 122.519 39.1236 118.621 35.8732C112.761 30.9891 112.644 43.2772 116.404 47.0213Z" fill="#3C2415"/>
<path d="M103.833 144.12L103.381 147.171L105.156 151.217C105.156 151.217 104.405 151.89 103.574 150.563L101.992 147.226L102.214 143.789L103.833 144.12Z" fill="#CA8268"/>
<path d="M103.019 145.15L102.398 148.172L103.942 152.312C103.942 152.312 103.157 152.94 102.402 151.569L101.008 148.148L101.422 144.73L103.019 145.15Z" fill="#CA8268"/>
<path d="M99.6103 145.828L100.163 142.281L100.772 137.879L103.526 137.498L104.472 142.139L104.702 144.576L104.978 147.905L105.126 148.98C105.126 148.98 104.263 149.258 103.593 147.547L102.89 144.408L101.696 146.876L102.707 151.207C102.707 151.207 102.449 153.469 101.771 152.616L99.4922 146.536L99.6103 145.828Z" fill="#E59375"/>
<path d="M110.209 107.896C110.209 107.896 104.113 131.919 103.528 137.497C103.528 137.497 101.16 140.308 100.774 137.878C99.9991 133.028 101.099 107.635 102.34 105.625C103.579 103.615 110.209 107.896 110.209 107.896Z" fill="#E59375"/>
<path d="M105.261 78.9551L103.26 79.6075C103.26 79.6075 100.092 104.248 102.772 109.751C105.453 115.256 108.539 109.724 109.544 109.101C110.548 108.477 116.96 80.5708 116.96 80.5708L105.261 78.9551Z" fill="#E59375"/>
<path d="M100.951 106.891L102.23 76.0222C103.68 68.4451 111.437 70.7009 111.437 70.7009C117.728 72.3383 117.427 79.3886 117.427 79.3886L112.016 108.956C112.016 108.956 110.883 113.477 105.062 113.477C105.062 113.477 100.768 112.898 100.951 106.891Z" fill="#010C18"/>
<path d="M99.7842 138.101L99.6875 140.91L104.575 141.078L104.671 138.27L99.7842 138.101Z" fill="white"/>
<path d="M111.484 109.993C111.484 109.993 108.785 128.139 104.913 139.254C104.913 139.254 101.592 139.565 99.7004 139.073C99.7004 139.073 99.4128 113.055 101.554 104.637C101.554 104.637 112.253 104.86 111.484 109.993Z" fill="#010C18"/>
<path d="M107.557 224.78C107.557 224.78 106.465 229.03 105.124 230.181C103.782 231.335 98.6627 233.03 98.6627 233.03L95.8267 233.437C95.8267 233.437 93.8557 234.851 99.2664 236.338C104.676 237.825 114.171 233.337 114.171 233.337L112.031 224.65L107.557 224.78Z" fill="#2C080D"/>
<path d="M136.46 236.468C137.415 234.981 139.415 226.872 139.415 226.872L143.835 226.738L146.602 235.666C146.602 235.666 147.045 237.16 146.143 237.72C146.143 237.72 140.63 239.633 135.922 237.629C135.922 237.629 135.972 237.229 136.46 236.468Z" fill="#2C080D"/>
<path d="M109.06 113.343L103.416 78.8472C103.416 78.8472 101.471 73.661 105.36 71.0695L120.185 64.1016H130.64L148.462 74.6345L136.781 113.342L109.06 113.343Z" fill="#F7A483"/>
<path d="M136.775 113.34C136.775 113.34 139.976 120.65 140.748 137.453C140.748 137.453 116.654 145.01 109.097 137.453L109.055 113.34H136.775Z" fill="#000210"/>
<path d="M120.985 137.381C120.944 143.019 125.335 147.623 130.793 147.664C136.252 147.704 140.712 143.165 140.753 137.526C140.795 131.888 136.403 127.285 130.945 127.244C125.485 127.204 121.026 131.743 120.985 137.381Z" fill="#000210"/>
<path d="M140.743 138.77L143.364 181.709C143.364 181.709 138.724 192.877 130.511 186.011L121.594 141.839C121.594 141.839 125.922 126.994 140.743 138.77Z" fill="#000210"/>
<path d="M143.364 181.71C143.364 181.71 145.835 189.772 145.101 203.811L145.835 230.058L136.74 230.238L130.555 186.147C130.555 186.147 136.747 171.856 143.364 181.71Z" fill="#000210"/>
<path d="M109.149 137.482C108.577 143.091 110.582 147.89 116.012 148.444C121.444 148.999 126.31 144.9 126.882 139.29C127.454 133.68 123.516 128.684 118.085 128.13C112.654 127.576 109.721 131.872 109.149 137.482Z" fill="#000210"/>
<path d="M124.564 144.868L119.575 184.429C119.575 184.429 108.757 189.226 106.836 182.514C106.836 182.514 107.088 152.378 109.149 137.483C109.149 137.483 122.507 130.977 124.564 144.868Z" fill="#000210"/>
<path d="M119.574 182.811C119.574 182.811 121.093 188.614 119.453 199.207L115.699 229.192L106.117 228.684L106.836 180.921C106.836 180.921 112.801 174.663 119.574 182.811Z" fill="#000210"/>
<path d="M146.164 110.269C148.201 130.698 147.366 132.051 147.154 140.245C147.154 140.245 148.241 143.128 150.093 141.509C151.945 139.891 154.899 112.684 153.969 110.514C152.585 107.292 146.164 110.269 146.164 110.269Z" fill="#F7A483"/>
<path d="M147.456 139.43L144.583 142.302L142.141 145.879C143.35 146.693 144.616 144.69 144.616 144.69C143.826 147.844 142.293 150.627 142.293 150.627C141.922 151.757 142.99 151.673 142.99 151.673C144.181 150.449 145.707 146.839 145.707 146.839C145.134 148.99 143.675 152.417 143.675 152.417C143.539 153.4 144.524 153.12 144.524 153.12C146.551 151.921 147.225 147.541 147.225 147.541C147.022 149.203 145.713 152.614 145.713 152.614C145.949 153.29 146.278 153.06 146.278 153.06C148.029 152.356 148.665 148.139 148.665 148.139L148.386 149.712C147.813 151.83 149.126 151.284 149.126 151.284L149.599 150.221C150.985 146.961 150.566 144.026 150.566 144.026L150.558 140.214L147.456 139.43Z" fill="#F7A483"/>
<path d="M141.645 75.2678C148.525 73.7014 150.876 80.0605 150.876 80.0605C150.876 80.0605 154.331 101.229 154.288 110.301C154.26 116.422 146.791 111.492 146.3 110.416C145.219 108.041 137.368 82.5437 137.368 82.5437C137.368 82.5437 136.96 76.5528 141.645 75.2678Z" fill="#F7A483"/>
<path d="M145.134 110.771L136.211 81.8414C136.411 74.6496 143.449 73.5766 143.449 73.5766C150.066 72.9428 151.516 78.637 151.516 78.637L154.717 107.599C154.717 107.599 155.803 114.109 152.041 114.203C152.041 114.203 145.731 114.888 145.134 110.771Z" fill="#091420"/>
<path d="M151.51 138.531L150.959 141.286L146.164 140.328L146.714 137.572L151.51 138.531Z" fill="white"/>
<path d="M144.594 109.017C144.594 109.017 145.749 133.32 146.166 138.289L151.591 139.431C151.591 139.431 156.497 115.074 154.718 107.6C154.718 107.6 147.629 103.732 144.594 109.017Z" fill="#091420"/>
<path d="M130.693 56.4805V67.6552H118.875C118.875 67.6552 121.782 63.2256 120.328 56.4805H130.693Z" fill="#F7A483"/>
<path d="M124.697 65.9701C123.632 66.6549 121.368 68.1138 120.077 67.2608C119.729 67.03 119.568 66.7289 119.516 66.3935C120.276 64.6237 121.321 61.0937 120.327 56.4805H130.691V57.4933C129.398 60.7646 127.74 64.0081 124.697 65.9701Z" fill="#E1876F"/>
<path d="M130.973 56.636C130.973 56.636 132.985 55.7619 135.262 50.7844C135.262 50.7844 140.206 44.8986 136.702 38.2161C136.702 38.2161 134.631 32.5644 124.598 34.1467C124.598 34.1467 123.695 49.2914 130.973 56.636Z" fill="#F8A07D"/>
<path d="M118.615 59.6595L117.946 57.9079C117.946 57.9079 116.099 51.3879 116.099 51.3868C115.867 50.5673 115.854 49.4704 116.003 48.6281C116.165 47.7108 116.268 46.7531 116.03 45.7864C114.865 41.0976 117.268 38.436 117.268 38.436C119.916 34.0149 126.434 33.8672 126.434 33.8672C134.503 34.0768 135.362 41.8608 135.362 41.8608C136.791 47.0185 132.764 51.4346 132.755 51.4442C132.434 51.7954 132.643 53.4993 132.555 53.987C132.179 56.0671 130.227 57.3862 128.491 58.3035C126.585 59.3112 124.276 60.3894 122.123 60.6371C121.307 60.732 118.998 60.6643 118.615 59.6595Z" fill="#F7A483"/>
<path d="M138.699 112.404C138.675 113.553 140.419 125.577 139.687 125.731C139.683 125.732 119.739 130.327 109.102 125.731L109.06 113.341L103.416 78.8454C103.416 78.8454 101.471 73.6592 105.36 71.0677L120.185 64.0998L119.184 67.1045L121.327 73.2005L130.64 64.0996L148.462 74.6326C147.466 77.933 146.476 81.2344 145.48 84.5348C143.643 90.6194 141.855 96.7212 139.962 102.789C139.962 102.789 138.396 109.37 138.699 112.404Z" fill="white"/>
<path d="M122.609 66.2695L122.733 71.8228L124.778 69.8234L122.609 66.2695Z" fill="#D1D3D4"/>
<path d="M120 75.2258C120 75.6629 120.355 76.0175 120.793 76.0175C121.229 76.0175 121.586 75.6627 121.586 75.2258C121.586 74.7882 121.229 74.4336 120.793 74.4336C120.355 74.4334 120 74.7882 120 75.2258Z" fill="#E6E7E8"/>
<path d="M120 89.617C120 90.0541 120.355 90.4087 120.793 90.4087C121.229 90.4087 121.586 90.0539 121.586 89.617C121.586 89.1782 121.229 88.8242 120.793 88.8242C120.355 88.8242 120 89.1784 120 89.617Z" fill="#E6E7E8"/>
<path d="M120 104.005C120 104.443 120.355 104.798 120.793 104.798C121.229 104.798 121.586 104.443 121.586 104.005C121.586 103.567 121.229 103.213 120.793 103.213C120.355 103.213 120 103.568 120 104.005Z" fill="#E6E7E8"/>
<path d="M121.105 119.128C121.509 118.961 121.702 118.497 121.534 118.092C121.366 117.688 120.903 117.496 120.498 117.663C120.094 117.831 119.901 118.295 120.069 118.699C120.237 119.104 120.7 119.296 121.105 119.128Z" fill="#E6E7E8"/>
<path d="M122.609 72.457V127.07" stroke="#E6E7E8" stroke-width="0.428934" stroke-miterlimit="10"/>
<path d="M109.221 126.868C109.221 126.868 119.407 131.64 140.255 126.763C140.598 126.682 140.453 125.792 140.453 125.792L140.255 123.786C140.163 123.142 139.805 123.173 139.805 123.173C139.8 123.173 119.857 127.769 109.221 123.173C109.221 123.173 108.792 123.098 108.773 123.741V126.243C108.773 126.243 108.773 126.744 109.221 126.868Z" fill="#471F08"/>
<path d="M119.57 128.383C119.57 128.701 119.822 128.959 120.132 128.959H124.189C124.499 128.959 124.751 128.701 124.751 128.383V125.46C124.751 125.143 124.499 124.885 124.189 124.885H120.132C119.821 124.885 119.57 125.143 119.57 125.46V128.383Z" stroke="#BCBEC0" stroke-width="0.701738" stroke-miterlimit="10"/>
<path d="M124.749 126.738H122.602" stroke="#BCBEC0" stroke-width="0.701738" stroke-miterlimit="10"/>
<path d="M122.609 66.1439C122.609 66.1439 129.148 63.6039 130.687 61.0742L132.62 64.7576L125.726 71.369L122.609 66.2687" fill="#E6E7E8"/>
<path d="M129.031 39.7212C129.251 40.1179 130.129 42.8919 129.049 44.281C131.327 46.0314 130.227 49.5767 130.227 49.5767L130.78 49.608C133.975 48.7804 132.902 54.8259 132.902 54.8282C132.926 54.689 133.458 54.3508 133.564 54.2497C134.188 53.6513 135.506 51.5001 135.92 50.742C138.17 46.6181 137.957 46.4072 138.561 43.9731C138.973 42.3101 138.795 37.8066 136.375 35.543C136.375 35.543 133.554 35.5417 129.031 39.7212Z" fill="#3C2415"/>
<path d="M131.551 52.2041C131.838 52.4456 132.212 52.5951 132.688 52.6098C133.973 52.6501 135.095 51.4975 135.194 50.0347C135.293 48.5758 134.332 47.3573 133.048 47.3175C132.438 47.2981 131.863 47.547 131.42 47.9699C130.774 48.587 130.699 49.776 130.806 50.604C130.892 51.2663 131.123 51.8409 131.551 52.2041Z" fill="#F7A483"/>
<path d="M132.464 48.6541C132.576 47.8885 134.093 48.6956 133.84 49.1162C133.691 49.3595 133.411 49.5283 133.188 49.6925C132.885 49.9204 132.732 50.1314 132.672 50.5098C132.665 50.5542 132.651 50.6871 132.693 50.7212C132.888 50.87 133.581 50.1494 133.733 49.9988C134.031 49.7016 134.096 49.1708 133.978 48.7797C133.85 48.3631 133.591 48.1568 133.151 48.1643C132.802 48.1676 132.444 48.175 132.445 48.6099C132.445 48.6205 132.458 48.6927 132.464 48.6541Z" fill="#E98B6F"/>
<path d="M132.924 49.4736C132.77 49.3031 132.611 49.4304 132.439 49.543C132.28 49.6476 132.186 49.8021 132.138 49.9829C132.031 50.3779 132.062 50.9137 132.274 51.2724C132.445 51.5628 132.747 51.7486 133.086 51.756C133.555 51.7628 133.712 51.3565 133.75 50.9609C133.759 50.8563 133.779 50.6046 133.678 50.5352C133.571 50.4612 133.483 50.6294 133.405 50.7012C133.296 50.796 133.14 50.8256 133.002 50.8314C132.734 50.8433 132.479 50.6949 132.319 50.4887C132.292 50.4524 132.268 50.4086 132.254 50.3659C132.244 50.6245 132.253 50.6843 132.288 50.5416C132.312 50.4762 132.344 50.4176 132.385 50.363C132.501 50.1886 132.69 50.0744 132.818 49.9095C132.88 49.8333 133.001 49.5605 132.924 49.4736Z" fill="#E98B6F"/>
<path d="M133.599 65.8516L125.672 93.6974L126.848 144.293C126.848 144.293 139.165 143.539 144.548 138.669L140.752 109.116L148.459 74.6342L133.599 65.8516Z" fill="#091420"/>
<path d="M133.599 65.8516L125.672 93.6974L125.705 95.02L135.689 84.8013C135.689 84.8013 136.739 83.028 135.317 81.9784L132.959 79.7221L134.64 78.5149C134.64 78.5149 137.001 77.3709 136.714 75.2264L136.038 67.1622L133.599 65.8516Z" fill="#1F3038"/>
<path d="M116.045 66.0469L107.018 70.2895C107.018 70.2895 101.88 71.6461 102.931 76.9692L105.899 106.458L104.412 137.704C104.412 137.704 103.14 143.51 113.606 142.527L117.31 92.9469L116.045 66.0469Z" fill="#091420"/>
<path d="M117.094 66.4269C117.094 66.4269 117.695 64.1001 120.643 62.1348L120.257 70.1529C120.257 70.1529 118.622 66.0518 117.094 66.4269Z" fill="#E6E7E8"/>
<path d="M116.82 70.1538L117.089 66.4278C117.989 66.2068 118.794 67.4668 119.45 68.5L116.82 70.1538Z" fill="#D1D3D4"/>
<path d="M116.043 66.0469L113.715 67.1409L112.035 74.9049C112.035 74.9049 111.192 76.9146 112.411 77.4403L114.606 78.7196L111.514 80.6764C111.514 80.6764 109.887 81.696 110.888 83.197L117.091 95.3055L117.286 93.235L116.043 66.0469Z" fill="#1F3038"/>
<path d="M131.644 53.3751L130.781 49.6075L130.228 49.5762C130.228 49.5762 129.671 52.0723 126.685 52.5139C126.685 52.5139 125.394 52.7094 124.843 52.7822C124.771 52.7923 123.976 52.0058 123.874 51.9393C122.991 51.3642 121.928 51.2085 120.897 51.1277C119.845 51.047 118.718 50.9447 117.71 51.329C117.575 51.3802 116.285 52.0337 116.242 51.8501C116.242 51.8501 117.608 57.887 118.568 59.6132C118.568 59.6132 118.988 60.9414 122.092 60.6162C122.092 60.6162 127.419 60.1439 131.556 56.2883C132.241 55.7712 131.644 53.3751 131.644 53.3751ZM117.738 53.1165C117.861 52.489 117.886 52.0935 118.423 51.994C119.486 51.7985 120.647 51.9792 121.705 52.1145C122.561 52.223 123.621 52.3339 123.971 53.2683C124.279 54.0906 124.053 55.2903 123.621 56.0407C122.889 57.3087 120.522 57.9611 119.323 57.141C118.302 56.4412 117.509 54.3008 117.738 53.1165Z" fill="#B1775F"/>
<path d="M123.25 68.2789L123.492 67.8281L125.136 70.351L123.722 70.8546L123.25 68.2789Z" fill="#0088CE"/>
<path d="M119.451 68.4989L118.989 67.793C118.989 67.793 117.233 69.2684 119.078 70.8529C119.078 70.8529 119.077 69.5481 119.451 68.4989Z" fill="#0088CE"/>
<path d="M123.251 68.2773C123.251 68.2773 121.856 69.5152 119.446 68.4989C118.918 69.1701 118.92 70.0243 119.073 70.853L120.322 73.4287H122.066L123.722 70.853C123.722 70.853 123.893 70.2847 123.251 68.2773Z" fill="#0088CE"/>
<path d="M122.067 73.4297L123.476 110.289L120.534 116.016L118.133 110.318L120.323 73.4297H122.067Z" fill="#0071AC"/>
<path d="M128.565 39.2172L131.257 37.8788L136.372 35.5429C136.372 35.5429 136.371 32.0357 129.918 30.6824C129.918 30.6824 122.006 29.4338 115.71 32.7638C115.71 32.7638 113.993 33.7005 112.641 32.8678C112.641 32.8678 114.826 42.027 128.565 39.2172Z" fill="#3C2415"/>
</svg>
