<svg width="260" height="261" viewBox="0 0 260 261" fill="none" xmlns="http://www.w3.org/2000/svg">
<g clip-path="url(#clip0_870_14641)">
<path d="M253.452 107.679C256.56 159.311 233.001 208.741 192.168 233.929C184.927 238.395 176.914 242.256 168.063 245.211C102.705 267.031 78.3249 248.656 61.2072 225.687C44.0895 202.718 60.1698 163.671 40.4584 147.592C20.7471 131.513 -3.11394 108.544 6.74172 74.6648C16.5974 40.7852 40.9772 18.39 63.8008 20.6874C86.6244 22.9843 110.485 52.8444 126.566 33.3203C142.646 13.7963 193.999 -5.15304 227.716 27.5781C245.735 45.0698 251.753 79.4536 253.452 107.679Z" fill="#DFEFF5"/>
<path d="M116.773 31.534L92.8906 13.6465" stroke="#263238" stroke-width="0.518719" stroke-miterlimit="10"/>
<path d="M181.466 79.9839L119.125 33.293" stroke="#263238" stroke-width="0.518719" stroke-miterlimit="10"/>
<path d="M188.135 84.9807L185.141 82.7383" stroke="#263238" stroke-width="0.518719" stroke-miterlimit="10"/>
<path d="M152.517 75.4405L98.7734 55.584" stroke="#263238" stroke-width="0.518719" stroke-miterlimit="10"/>
<path d="M178.341 84.9803L155.984 76.7207" stroke="#263238" stroke-width="0.518719" stroke-miterlimit="10"/>
<path d="M93.579 86.6121L87.4062 86.5488" stroke="#263238" stroke-width="0.518719" stroke-miterlimit="10"/>
<path d="M152.497 87.2115L98.4688 86.6602" stroke="#263238" stroke-width="0.518719" stroke-miterlimit="10"/>
<path d="M164.227 87.3313L156.406 87.252" stroke="#263238" stroke-width="0.518719" stroke-miterlimit="10"/>
<path d="M184.491 60.3552L175.203 27.3652" stroke="#263238" stroke-width="0.518719" stroke-miterlimit="10"/>
<path d="M186.57 67.7349L185.375 63.4902" stroke="#263238" stroke-width="0.518719" stroke-miterlimit="10"/>
<path d="M201.945 80.9602L213.221 70.8711" stroke="#263238" stroke-width="0.518719" stroke-miterlimit="10"/>
<path d="M198.328 84.1966L200.538 82.2188" stroke="#263238" stroke-width="0.518719" stroke-miterlimit="10"/>
<path d="M230.625 53.1544L252.419 31.6758" stroke="#263238" stroke-width="0.518719" stroke-miterlimit="10"/>
<path d="M225.367 58.3281L229.014 54.7344" stroke="#263238" stroke-width="0.518719" stroke-miterlimit="10"/>
<path d="M207.938 12.6682L208.911 6.19922" stroke="#263238" stroke-width="0.518719" stroke-miterlimit="10"/>
<path d="M202.969 45.6947L207.603 14.8906" stroke="#263238" stroke-width="0.518719" stroke-miterlimit="10"/>
<path d="M202.25 50.4913L202.658 47.7773" stroke="#263238" stroke-width="0.518719" stroke-miterlimit="10"/>
<path d="M239.742 73.9915L245.361 72.0469" stroke="#263238" stroke-width="0.518719" stroke-miterlimit="10"/>
<path d="M215.492 82.3823L236.164 75.2266" stroke="#263238" stroke-width="0.518719" stroke-miterlimit="10"/>
<path d="M204.602 86.1539L213.305 83.1406" stroke="#263238" stroke-width="0.518719" stroke-miterlimit="10"/>
<path d="M154.5 37.3242L167.756 52.8407" stroke="#263238" stroke-width="0.518719" stroke-miterlimit="10"/>
<path d="M133.266 12.4688L152.933 35.4885" stroke="#263238" stroke-width="0.518719" stroke-miterlimit="10"/>
<path d="M192.792 57.5039C192.488 57.5039 192.242 57.7503 192.242 58.0543V89.8315H193.342V58.0543C193.342 57.7498 193.096 57.5039 192.792 57.5039Z" fill="#263238" stroke="#263238" stroke-width="0.518719" stroke-miterlimit="10"/>
<path d="M193.344 58.0527C193.344 58.0527 194.524 60.0674 198.315 59.6302C202.106 59.1929 204.293 57.1517 208.521 58.7551C212.75 60.359 212.312 62.1086 214.791 62.6916C217.269 63.2747 219.019 63.4204 219.019 63.4204C219.019 63.4204 215.519 64.7328 213.041 66.1904C210.563 67.6485 207.063 65.4616 205.168 66.3362C203.273 67.2112 201.377 69.5439 198.752 70.127C196.128 70.71 193.395 69.2519 193.395 69.2519L193.344 58.0527Z" fill="#4D7BF0" stroke="#263238" stroke-width="0.518719" stroke-miterlimit="10"/>
<path d="M67.3566 40.9744C67.3566 40.9744 65.1163 34.2539 56.7955 33.2938C48.4748 32.3336 49.755 37.1343 47.1946 38.7341C44.6342 40.3343 42.0738 37.7739 39.1938 38.414C36.3134 39.0541 35.6733 41.6145 34.0731 42.5747C32.4728 43.5348 29.9124 41.6145 27.3525 41.9346C24.7921 42.2546 24.152 44.1749 23.1919 44.815C22.2317 45.4551 19.0312 45.7752 19.0312 45.7752H82.0779C82.0779 45.7752 80.4776 40.3343 75.6769 39.0546C70.8772 37.7739 69.597 40.6544 67.3566 40.9744Z" stroke="#263238" stroke-width="0.518719" stroke-miterlimit="10"/>
<path d="M74.6405 53.0418C74.6405 53.0418 73.4189 49.3771 68.8817 48.8537C64.3444 48.3303 65.0426 50.9478 63.6462 51.8203C62.2499 52.6927 60.854 51.2969 59.2833 51.646C57.7126 51.9951 57.3635 53.3909 56.491 53.9148C55.6186 54.4382 54.2222 53.3915 52.8263 53.5658C51.4304 53.74 51.0813 54.7873 50.5574 55.1364C50.034 55.4855 48.2891 55.6598 48.2891 55.6598H82.6677C82.6677 55.6598 81.7952 52.6933 79.1772 51.9951C76.5603 51.2969 75.8621 52.8676 74.6405 53.0418Z" stroke="#263238" stroke-width="0.518719" stroke-miterlimit="10"/>
<path d="M182.493 13.6375C182.493 13.6375 181.271 9.9728 176.734 9.44941C172.197 8.92603 172.895 11.5435 171.498 12.416C170.102 13.2885 168.706 11.8926 167.135 12.2417C165.565 12.5908 165.216 13.9866 164.343 14.5106C163.471 15.0339 162.074 13.9872 160.678 14.1615C159.283 14.3357 158.933 15.383 158.41 15.7321C157.886 16.0812 156.141 16.2555 156.141 16.2555H190.519C190.519 16.2555 189.647 13.289 187.029 12.5908C184.412 11.8921 183.714 13.4627 182.493 13.6375Z" stroke="#263238" stroke-width="0.518719" stroke-miterlimit="10"/>
<path d="M245.125 82.909C245.125 82.909 243.904 79.2443 239.367 78.7209C234.829 78.1975 235.528 80.815 234.131 81.6875C232.735 82.5599 231.339 81.1641 229.768 81.5132C228.198 81.8623 227.848 83.2581 226.976 83.782C226.103 84.3054 224.707 83.2587 223.311 83.4329C221.915 83.6072 221.566 84.6545 221.042 85.0036C220.519 85.3527 218.773 85.527 218.773 85.527H253.152C253.152 85.527 252.28 82.5605 249.662 81.8623C247.045 81.1641 246.347 82.7347 245.125 82.909Z" stroke="#263238" stroke-width="0.518719" stroke-miterlimit="10"/>
<path d="M184.444 190.041L174.616 188.547L166.596 187.525L157.712 186.581L150.242 185.953L138.134 185.088L128.305 184.785C116.292 187.058 94.2267 194.18 76.3724 201.06C67.2715 204.567 59.2215 208.131 54.3906 210.346C55.7113 215.891 57.8012 221.109 61.2128 225.687C78.3305 248.656 102.71 267.031 168.069 245.211C171.223 244.158 174.266 242.985 177.211 241.715L179.727 235.803L185.073 225.345L198.204 202.622L203.786 193.816L195.845 192.008L184.444 190.041Z" fill="#4D7BF0"/>
<path d="M235.784 161.149L227.831 156.053L219.57 151.575L211.385 147.792L202.043 144.008L192.547 140.843L181.969 138.063L174.402 136.519L166.45 136.287L152.089 136.673L132.672 137.873C132.672 137.873 141.036 141.924 150.446 147.675C159.855 153.425 167.043 163.357 171.487 169.63C175.93 175.903 180.896 189.234 180.896 189.234L186.756 190.257L198.26 192.419L206.753 194.426L216.945 196.742L228.003 199.938C234.869 190.201 240.479 179.447 244.687 168.008L235.784 161.149Z" fill="#4D7BF0"/>
<path d="M83.0275 144.47L84.2906 141.206L86.5013 136.785L90.2906 130.996L94.8169 125.417L100.817 119.944L106.922 114.891L102.922 113.523L88.6068 110.154L85.133 110.997L79.7647 112.365L69.9755 115.628L62.2912 118.997L53.1332 124.155L41.2385 131.838C40.1709 132.495 33.854 137.442 31.125 139.587C34.2441 142.431 37.4046 145.094 40.4651 147.59C42.4782 149.232 44.1127 151.117 45.4525 153.197L48.3968 152.365L56.7124 149.944L69.1331 147.207L83.0275 144.47Z" fill="#4D7BF0"/>
<path d="M189.991 89.9785L181.702 96.5823L174.676 103.186L167.511 111.195L161.469 118.22L157.817 123.699L154.585 128.476L153.32 130.584L164.982 136.063L166.446 136.288L169.9 136.063L175.66 121.311L180.296 112.319L186.198 102.343L191.677 94.4748L195.33 89.9785H189.991Z" fill="#4D7BF0"/>
<path d="M88.9965 110.297C88.9965 110.297 58.9388 112.825 21.5781 147.939" stroke="#263238" stroke-width="0.518719" stroke-miterlimit="10"/>
<path d="M106.971 114.793C106.971 114.793 88.1497 127.715 83.0938 144.288" stroke="#263238" stroke-width="0.518719" stroke-miterlimit="10"/>
<path d="M173.922 249.298C180.437 230.806 197.399 203.703 203.878 193.676" stroke="#263238" stroke-width="0.518719" stroke-miterlimit="10"/>
<path d="M26.7031 224.638C26.7031 224.638 74.9803 196.612 128.305 184.785" stroke="#263238" stroke-width="0.518719" stroke-miterlimit="10"/>
<path d="M131.789 137.953C131.789 137.953 168.493 149.582 180.848 189.556" stroke="#263238" stroke-width="0.518719" stroke-miterlimit="10"/>
<path d="M174.305 136.5C174.305 136.5 226.998 144.858 254.616 178.291" stroke="#263238" stroke-width="0.518719" stroke-miterlimit="10"/>
<path d="M153.133 130.733C153.133 130.733 165.211 108.557 190.22 90.043" stroke="#263238" stroke-width="0.518719" stroke-miterlimit="10"/>
<path d="M195.383 89.7871C195.383 89.7871 175.87 114.169 170.023 136.255" stroke="#263238" stroke-width="0.518719" stroke-miterlimit="10"/>
<path d="M235.371 179.499C234.891 179.243 234.269 179.324 233.666 179.72C232.637 180.352 231.28 182.111 230.956 182.697C230.528 183.052 230.118 183.424 229.725 183.813C230.069 183.117 230.991 181.221 230.215 180.054C229.133 178.579 227.771 180.703 228.371 182.043C228.822 183.163 229.04 184.055 229.022 184.549C228.517 185.104 228.047 185.686 227.613 186.293C227.827 185.571 228.427 183.531 227.452 182.503C226.138 181.232 225.169 183.538 225.986 184.757C226.625 185.788 226.991 186.634 227.052 187.121C226.648 187.752 226.282 188.406 225.954 189.079C226.043 188.348 226.303 186.214 225.16 185.36C223.652 184.326 223.086 186.755 224.094 187.821C224.898 188.733 225.401 189.508 225.541 189.978C225.248 190.666 224.994 191.372 224.782 192.09C224.747 191.344 224.647 189.201 223.381 188.554C221.722 187.785 221.567 190.28 222.738 191.167C223.681 191.932 224.305 192.613 224.523 193.057C224.348 193.784 224.213 194.524 224.124 195.27C223.96 194.51 223.498 192.435 222.156 192.016C220.391 191.535 220.654 194.043 221.959 194.727C223.008 195.322 223.734 195.89 224.03 196.295C223.972 197.172 223.973 198.056 224.039 198.943C224.045 199.023 224.112 199.084 224.191 199.084C224.195 199.084 224.199 199.084 224.203 199.083C224.287 199.077 224.349 199.004 224.343 198.92C224.278 198.046 224.277 197.174 224.334 196.31C224.68 195.953 225.496 195.539 226.648 195.342C228.012 195.056 229.08 193.839 227.365 193.375C225.966 192.94 224.83 194.505 224.436 195.221C224.525 194.506 224.656 193.8 224.825 193.103C225.23 192.819 226.098 192.562 227.256 192.566C228.647 192.523 229.899 191.515 228.287 190.769C226.993 190.114 225.629 191.417 225.111 192.053C225.315 191.379 225.555 190.717 225.832 190.07C226.28 189.861 227.176 189.758 228.313 189.957C229.69 190.151 231.091 189.37 229.626 188.363C228.461 187.504 226.903 188.553 226.286 189.09C226.598 188.463 226.943 187.854 227.321 187.265C227.795 187.133 228.697 187.181 229.787 187.569C231.111 187.99 232.626 187.451 231.352 186.213C230.339 185.164 228.609 185.958 227.92 186.383C228.332 185.814 228.778 185.268 229.253 184.746C229.742 184.691 230.629 184.886 231.647 185.453C232.883 186.089 234.477 185.805 233.432 184.369C232.604 183.157 230.737 183.671 229.991 183.978C230.387 183.589 230.8 183.217 231.231 182.862C231.803 182.651 233.511 182.092 234.206 181.913C234.62 181.771 235.969 181.24 235.946 180.37C235.942 180.026 235.717 179.683 235.371 179.499Z" fill="#263238"/>
<path d="M239.893 191.023C239.674 190.718 239.263 190.578 238.769 190.639C237.938 190.717 236.561 191.392 236.181 191.657C235.808 191.746 235.44 191.852 235.078 191.973C235.503 191.646 236.653 190.753 236.528 189.793C236.308 188.549 234.816 189.449 234.779 190.463C234.717 191.295 234.58 191.914 234.417 192.214C233.936 192.404 233.466 192.622 233.012 192.865C233.365 192.484 234.36 191.402 234.069 190.468C233.643 189.279 232.339 190.412 232.473 191.417C232.553 192.251 232.522 192.886 232.412 193.207C231.969 193.475 231.542 193.769 231.134 194.085C231.412 193.659 232.225 192.417 231.777 191.538C231.158 190.438 230.066 191.77 230.365 192.738C230.585 193.549 230.661 194.182 230.604 194.516C230.212 194.853 229.84 195.213 229.489 195.593C229.695 195.12 230.287 193.762 229.7 192.974C228.906 191.992 228.049 193.491 228.504 194.398C228.855 195.16 229.034 195.772 229.034 196.113C228.703 196.51 228.394 196.927 228.111 197.363C228.241 196.842 228.588 195.415 227.885 194.746C226.938 193.91 226.336 195.544 226.935 196.366C227.403 197.055 227.68 197.629 227.74 197.97C227.437 198.496 227.168 199.044 226.938 199.613C226.917 199.665 226.94 199.723 226.989 199.747C226.991 199.748 226.993 199.749 226.996 199.75C227.05 199.772 227.111 199.746 227.133 199.692C227.359 199.131 227.625 198.59 227.924 198.072C228.248 197.956 228.879 197.949 229.653 198.179C230.585 198.418 231.618 197.99 230.697 197.179C229.963 196.482 228.782 197.105 228.32 197.429C228.592 197.013 228.89 196.615 229.207 196.235C229.545 196.183 230.161 196.288 230.877 196.644C231.752 197.042 232.836 196.8 232.064 195.845C231.463 195.045 230.22 195.436 229.704 195.672C230.037 195.317 230.387 194.98 230.757 194.663C231.097 194.671 231.684 194.88 232.328 195.351C233.122 195.891 234.229 195.835 233.628 194.764C233.168 193.876 231.883 194.05 231.337 194.195C231.721 193.902 232.121 193.629 232.535 193.379C232.869 193.443 233.413 193.748 233.971 194.32C234.663 194.986 235.766 195.114 235.353 193.958C235.046 192.999 233.732 192.963 233.175 193.016C233.604 192.789 234.047 192.587 234.501 192.408C234.82 192.524 235.31 192.915 235.768 193.578C236.34 194.349 237.415 194.66 237.205 193.45C237.062 192.447 235.748 192.196 235.192 192.158C235.556 192.038 235.926 191.933 236.301 191.845C236.72 191.889 237.949 192.063 238.434 192.165C238.734 192.203 239.732 192.285 239.984 191.74C240.086 191.524 240.051 191.243 239.893 191.023Z" fill="#263238"/>
<path d="M95.8972 170.23C95.5336 170.101 95.1046 170.224 94.7228 170.566C94.0677 171.118 93.3005 172.497 93.135 172.943C92.8726 173.237 92.6236 173.542 92.3891 173.856C92.5567 173.331 93.0033 171.902 92.3352 171.165C91.4191 170.244 90.6877 171.879 91.251 172.757C91.6863 173.495 91.9337 174.099 91.9731 174.448C91.678 174.891 91.4093 175.349 91.1686 175.821C91.2428 175.292 91.4476 173.796 90.655 173.177C89.5979 172.424 89.1611 174.145 89.8635 174.914C90.4211 175.571 90.7676 176.126 90.8625 176.462C90.6457 176.948 90.4579 177.446 90.2987 177.953C90.2836 177.43 90.2411 175.905 89.3484 175.425C88.1802 174.859 88.0397 176.624 88.8603 177.266C89.5211 177.821 89.9563 178.312 90.1047 178.627C89.9714 179.141 89.8681 179.664 89.7945 180.191C89.6913 179.671 89.3946 178.177 88.437 177.856C87.1905 177.492 87.3461 179.26 88.2622 179.759C89.005 180.197 89.5154 180.608 89.7151 180.897C89.669 181.426 89.6529 181.96 89.669 182.493C89.4734 181.977 88.9293 180.568 87.9432 180.416C86.6531 180.266 87.1029 181.999 88.0915 182.341C88.8909 182.648 89.4609 182.97 89.7115 183.223C89.7639 183.845 89.8583 184.466 89.9983 185.081C90.0108 185.136 90.0642 185.172 90.1197 185.164C90.1223 185.163 90.1249 185.163 90.1275 185.162C90.1856 185.149 90.2224 185.091 90.2089 185.033C90.071 184.426 89.9781 183.814 89.9268 183.202C90.1322 182.914 90.6613 182.538 91.4492 182.277C92.3762 181.932 92.9976 180.965 91.7438 180.82C90.7157 180.663 90.0839 181.882 89.8832 182.426C89.8702 181.915 89.8873 181.405 89.9319 180.898C90.1866 180.656 90.7686 180.383 91.582 180.264C92.5541 180.086 93.327 179.246 92.1152 178.893C91.138 178.57 90.3179 179.629 90.0217 180.131C90.0938 179.636 90.1923 179.145 90.3184 178.662C90.6104 178.468 91.2287 178.301 92.0483 178.32C93.0354 178.311 93.937 177.614 92.8015 177.062C91.8922 176.583 90.9097 177.484 90.5337 177.926C90.6856 177.454 90.8636 176.989 91.0669 176.535C91.3864 176.393 92.0245 176.331 92.8305 176.487C93.8052 176.643 94.8115 176.104 93.7855 175.37C92.9633 174.741 91.8331 175.481 91.3942 175.853C91.623 175.409 91.8787 174.979 92.1567 174.562C92.4944 174.473 93.1376 174.515 93.9121 174.806C94.8473 175.121 95.9366 174.753 95.0501 173.855C94.3405 173.092 93.0842 173.651 92.593 173.945C92.8295 173.63 93.08 173.325 93.3456 173.03C93.7253 172.821 94.8644 172.248 95.3339 172.05C95.6093 171.906 96.5 171.39 96.3921 170.782C96.3537 170.539 96.1597 170.323 95.8972 170.23Z" fill="#263238"/>
<path d="M100.291 177.843C100.105 177.652 99.8018 177.597 99.461 177.693C98.8863 177.835 97.9904 178.455 97.7518 178.681C97.4992 178.783 97.2518 178.896 97.0111 179.019C97.2751 178.746 97.9878 177.997 97.7985 177.336C97.5122 176.485 96.5598 177.275 96.6407 177.991C96.6853 178.582 96.6542 179.031 96.5723 179.259C96.2543 179.443 95.9477 179.646 95.6546 179.865C95.8621 179.559 96.4457 178.695 96.1433 178.07C95.7179 177.281 94.9222 178.214 95.123 178.905C95.2677 179.482 95.3133 179.932 95.2698 180.169C94.9871 180.404 94.7189 180.655 94.4652 180.921C94.6156 180.592 95.0545 179.634 94.6473 179.065C94.0964 178.357 93.4708 179.408 93.7831 180.056C94.0233 180.603 94.1431 181.039 94.1384 181.28C93.8988 181.558 93.6757 181.85 93.4693 182.154C93.5642 181.8 93.836 180.784 93.3406 180.293C92.6793 179.687 92.2358 180.83 92.6518 181.418C92.9786 181.916 93.1689 182.327 93.2047 182.567C93.0144 182.881 92.8416 183.207 92.6886 183.542C92.7249 183.162 92.8178 182.124 92.2534 181.729C91.4997 181.242 91.2502 182.453 91.758 182.966C92.1595 183.401 92.4147 183.774 92.4925 184.007C92.3354 184.408 92.2041 184.822 92.1035 185.246C92.0942 185.285 92.1165 185.323 92.1533 185.335C92.1554 185.335 92.1569 185.336 92.1585 185.336C92.1984 185.346 92.2389 185.321 92.2487 185.281C92.3483 184.863 92.4775 184.455 92.6326 184.06C92.8473 183.944 93.2903 183.873 93.8583 183.951C94.5378 184.021 95.2179 183.611 94.4854 183.139C93.8967 182.727 93.1331 183.29 92.8421 183.566C92.99 183.245 93.1565 182.935 93.3386 182.634C93.5704 182.562 94.0139 182.571 94.5544 182.745C95.2111 182.931 95.9462 182.647 95.3035 182.058C94.7962 181.56 93.9652 181.966 93.6285 182.186C93.8246 181.901 94.0347 181.628 94.2603 181.367C94.5005 181.336 94.9347 181.421 95.4363 181.683C96.0509 181.978 96.8218 181.822 96.287 181.133C95.8699 180.558 94.986 180.817 94.6182 180.976C94.8569 180.73 95.1089 180.496 95.373 180.277C95.6142 180.286 96.0286 180.442 96.4804 180.786C97.0365 181.179 97.825 181.153 97.4131 180.385C97.0956 179.744 96.1692 179.858 95.7838 179.954C96.0608 179.749 96.3508 179.56 96.6501 179.387C96.8866 179.434 97.272 179.657 97.6636 180.074C98.1466 180.555 98.9345 180.659 98.6591 179.832C98.4521 179.143 97.5033 179.106 97.1091 179.138C97.3519 179.015 97.6004 178.903 97.8545 178.801C98.1533 178.788 99.0346 178.78 99.3858 178.8C99.6005 178.795 100.31 178.747 100.428 178.337C100.479 178.174 100.425 177.981 100.291 177.843Z" fill="#263238"/>
<path d="M29.5066 183.163C29.7421 183.08 30.0201 183.159 30.267 183.381C30.6913 183.739 31.1882 184.631 31.2956 184.921C31.4658 185.112 31.6271 185.309 31.7791 185.512C31.6706 185.172 31.3812 184.247 31.8138 183.769C32.4072 183.173 32.8808 184.232 32.5162 184.8C32.234 185.279 32.0737 185.67 32.0483 185.895C32.2397 186.182 32.4135 186.48 32.5696 186.785C32.5219 186.442 32.3886 185.473 32.9021 185.072C33.5868 184.584 33.8695 185.699 33.4146 186.197C33.0536 186.623 32.8289 186.982 32.7677 187.199C32.9083 187.514 33.0297 187.837 33.1329 188.165C33.1428 187.827 33.1703 186.838 33.7486 186.528C34.5054 186.162 34.5962 187.305 34.0651 187.721C33.6366 188.081 33.3549 188.398 33.259 188.603C33.3451 188.936 33.4125 189.274 33.4597 189.615C33.5266 189.278 33.7191 188.311 34.3389 188.103C35.1461 187.867 35.0454 189.012 34.452 189.335C33.9707 189.619 33.6402 189.885 33.5105 190.072C33.5401 190.415 33.551 190.76 33.5406 191.106C33.6672 190.772 34.0194 189.859 34.6585 189.761C35.4941 189.663 35.2026 190.786 34.5625 191.007C34.0448 191.206 33.6755 191.415 33.5131 191.579C33.4794 191.982 33.4182 192.384 33.3274 192.782C33.3191 192.819 33.2849 192.842 33.2486 192.836C33.247 192.836 33.245 192.836 33.2434 192.835C33.2055 192.827 33.1822 192.789 33.1905 192.751C33.2802 192.358 33.3399 191.962 33.3736 191.565C33.2408 191.379 32.8979 191.135 32.3875 190.966C31.7868 190.743 31.3848 190.116 32.1966 190.022C32.8627 189.92 33.2719 190.71 33.4021 191.062C33.4104 190.731 33.3995 190.401 33.3705 190.073C33.2055 189.915 32.8284 189.739 32.3014 189.662C31.6717 189.547 31.1711 189.003 31.9559 188.773C32.5893 188.564 33.1199 189.25 33.3124 189.575C33.2657 189.255 33.2019 188.937 33.1205 188.624C32.9311 188.498 32.5307 188.39 32 188.403C31.3605 188.397 30.7769 187.945 31.5119 187.588C32.1007 187.277 32.7377 187.861 32.9809 188.147C32.8824 187.841 32.7672 187.54 32.6355 187.246C32.4285 187.154 32.0151 187.114 31.4927 187.216C30.8614 187.316 30.2094 186.968 30.8744 186.491C31.4071 186.084 32.1391 186.564 32.4233 186.804C32.275 186.517 32.1095 186.238 31.9295 185.968C31.7111 185.91 31.2941 185.937 30.7925 186.126C30.1866 186.33 29.4811 186.091 30.0554 185.51C30.5149 185.016 31.3288 185.378 31.6468 185.568C31.4932 185.364 31.3314 185.166 31.1592 184.976C30.9133 184.84 30.1752 184.469 29.8712 184.34C29.6928 184.247 29.116 183.913 29.1855 183.519C29.2104 183.364 29.3364 183.224 29.5066 183.163Z" fill="#263238"/>
<path d="M26.6645 188.096C26.7848 187.972 26.9814 187.936 27.2019 187.998C27.5743 188.091 28.1542 188.492 28.3088 188.638C28.4722 188.705 28.6325 188.777 28.7886 188.857C28.6175 188.68 28.1558 188.195 28.2782 187.766C28.4639 187.215 29.0807 187.727 29.0283 188.191C28.9992 188.573 29.0195 188.865 29.0729 189.012C29.2788 189.132 29.4775 189.263 29.6673 189.404C29.533 189.207 29.1549 188.647 29.3509 188.241C29.6264 187.73 30.142 188.335 30.0118 188.783C29.9179 189.157 29.8883 189.448 29.9168 189.601C30.1 189.753 30.2737 189.916 30.4382 190.088C30.3406 189.875 30.0564 189.255 30.3199 188.886C30.6768 188.427 31.0819 189.108 30.8796 189.528C30.724 189.882 30.6467 190.164 30.6493 190.321C30.8044 190.501 30.9491 190.69 31.0829 190.887C31.0212 190.658 30.8454 189.999 31.1664 189.681C31.5949 189.289 31.8818 190.03 31.6125 190.411C31.4009 190.733 31.2774 191 31.2541 191.155C31.377 191.358 31.4891 191.569 31.5882 191.786C31.5648 191.541 31.5046 190.868 31.8703 190.612C32.3585 190.296 32.5203 191.08 32.1914 191.413C31.9316 191.695 31.7661 191.936 31.7158 192.088C31.8174 192.348 31.9025 192.615 31.9679 192.89C31.9736 192.915 31.9596 192.94 31.9357 192.948C31.9347 192.948 31.9331 192.948 31.9321 192.949C31.9061 192.955 31.8802 192.939 31.874 192.913C31.8097 192.642 31.7256 192.378 31.6255 192.122C31.4865 192.047 31.1996 192.001 30.8313 192.052C30.391 192.097 29.9506 191.832 30.4252 191.526C30.807 191.259 31.3013 191.624 31.4896 191.802C31.3936 191.595 31.2863 191.393 31.168 191.199C31.0181 191.152 30.7302 191.158 30.3801 191.27C29.9547 191.391 29.4785 191.207 29.8951 190.825C30.2234 190.503 30.7618 190.766 30.9802 190.908C30.8531 190.724 30.7167 190.546 30.571 190.377C30.4153 190.357 30.1342 190.412 29.809 190.582C29.4106 190.773 28.9116 190.672 29.2581 190.226C29.5283 189.854 30.1005 190.021 30.3391 190.124C30.1845 189.965 30.0211 189.813 29.8499 189.672C29.6938 189.678 29.4251 189.779 29.1325 190.001C28.772 190.256 28.2616 190.239 28.5282 189.741C28.7342 189.326 29.3338 189.4 29.5833 189.462C29.4038 189.329 29.2161 189.207 29.0221 189.095C28.869 189.125 28.619 189.27 28.3654 189.539C28.0526 189.851 27.5422 189.919 27.7206 189.383C27.8544 188.936 28.4691 188.912 28.7243 188.933C28.5671 188.854 28.4063 188.78 28.2414 188.715C28.0479 188.706 27.4768 188.701 27.2496 188.714C27.1106 188.711 26.651 188.68 26.5742 188.414C26.5421 188.31 26.5773 188.184 26.6645 188.096Z" fill="#263238"/>
<path d="M250.078 207.827C236.441 202.193 220.884 197.406 203.875 193.676C180.948 188.639 155.38 185.517 128.303 184.785C124.231 184.676 120.133 184.619 115.999 184.619C75.1034 184.619 37.1747 190.071 5.92188 199.382" stroke="#263238" stroke-width="0.518719" stroke-miterlimit="10"/>
<path d="M245.727 142.004C250.109 142.665 254.534 143.391 259.001 144.187" stroke="#263238" stroke-width="0.518719" stroke-miterlimit="10"/>
<path d="M19.3906 162.022C19.3906 162.022 111.356 122.373 243.35 141.649" stroke="#263238" stroke-width="0.518719" stroke-miterlimit="10"/>
<path d="M21 102.958C37.4714 102.544 96.3999 103.711 165.843 136.419" stroke="#263238" stroke-width="0.518719" stroke-miterlimit="10"/>
<path d="M16.4141 103.159C16.4141 103.159 17.2819 103.09 18.9402 103.023" stroke="#263238" stroke-width="0.518719" stroke-miterlimit="10"/>
<path d="M99.5625 112.486C99.5625 112.486 168.629 77.5928 254.844 93.6467" stroke="#263238" stroke-width="0.518719" stroke-miterlimit="10"/>
<path d="M46.3935 157.854L48.5991 159.446L48.7215 165.205C48.7215 165.205 46.2706 165.083 45.2907 164.225C44.3103 163.367 43.9062 161.847 43.9062 161.847L46.3935 157.854Z" fill="white" stroke="#263238" stroke-width="0.518719" stroke-miterlimit="10"/>
<path d="M44.0564 120.68C44.0564 120.68 36.175 143.005 36.6709 145.385C37.1668 147.765 40.5385 157.186 41.0344 158.178C41.5303 159.17 42.8193 159.368 42.8193 159.368C42.8193 159.368 43.7115 161.054 43.9101 161.847C44.1083 162.64 45.1991 162.343 45.7941 162.145C46.3891 161.946 46.7859 161.054 46.9841 160.756C47.1822 160.459 47.1822 160.855 47.1822 159.863C47.1822 158.871 46.3891 156.194 46.3891 156.194C46.3891 156.194 46.885 154.806 46.885 153.715C46.885 152.624 45.695 144.889 45.596 144.393C45.4969 143.898 46.4887 140.625 46.4887 140.625L44.0564 120.68Z" fill="#4D7BF0" stroke="#263238" stroke-width="0.518719" stroke-miterlimit="10"/>
<path d="M71.2886 227.262C71.2886 227.262 72.073 228.537 72.3671 228.733C72.6612 228.929 74.3283 230.008 74.9166 230.302C75.5048 230.596 75.995 231.086 75.995 231.969C75.995 232.852 75.1126 233.146 73.2494 233.832C71.3862 234.519 70.3077 235.598 67.6597 235.794C65.0121 235.99 64.0312 235.499 64.0312 234.715C64.0312 233.93 64.4135 228.679 64.4135 228.679C64.4135 228.679 70.0136 228.831 71.2886 227.262Z" fill="#263238" stroke="#263238" stroke-width="0.518719" stroke-miterlimit="10"/>
<path d="M48.7894 227.697C48.7894 227.697 48.6105 232.783 48.793 233.19C48.9756 233.597 49.8875 234.247 51.7119 234.329C53.5362 234.41 54.9046 233.84 55.2692 233.515C55.6339 233.19 55.6339 232.377 55.6339 232.377L56.1978 227.9L48.7894 227.697Z" fill="#263238" stroke="#263238" stroke-width="0.518719" stroke-miterlimit="10"/>
<path d="M48.4742 155.91C48.4742 155.91 47.279 164.426 47.4777 166.905C47.6759 169.384 47.7755 172.954 47.7755 172.954L48.7231 223.409L47.375 224.145L48.233 227.698C48.233 227.698 49.8259 228.311 51.4189 228.433C53.0119 228.556 56.1979 227.943 56.1979 227.943L56.6881 225.493L55.9531 223.532C55.9531 223.532 55.9531 222.797 56.1984 221.816C56.4432 220.836 57.669 199.393 57.669 199.393L60.7325 173.906L61.8353 175.744L64.6535 222.919C64.6535 222.919 63.6731 224.757 63.7956 225.125C63.918 225.493 64.4082 226.963 64.4082 226.963V228.678C64.4082 228.678 66.1236 229.413 67.5941 229.046C69.0647 228.678 71.1474 227.943 71.1474 227.943C71.1474 227.943 71.76 226.228 71.76 225.86C71.76 225.492 71.6376 224.635 71.6376 224.145C71.6376 223.654 76.1374 169.781 76.1374 169.781L74.7006 156.629L48.4742 155.91Z" fill="#263238" stroke="#263238" stroke-width="0.518719" stroke-miterlimit="10"/>
<path d="M54.4484 114.349C54.4484 114.349 44.1871 118.6 44.0574 120.68C43.9272 122.76 48.4774 155.91 48.4774 155.91L73.0471 156.559C73.0471 156.559 76.037 119.9 75.5172 119.119C74.9974 118.339 64.8134 114.455 64.8134 114.455C64.8134 114.455 56.1296 113.869 54.4484 114.349Z" fill="#4D7BF0" stroke="#263238" stroke-width="0.518719" stroke-miterlimit="10"/>
<path d="M69.5759 101.341C69.5759 101.341 70.1045 103.351 69.7875 104.197C69.4701 105.043 69.6817 105.149 69.6817 105.995C69.6817 106.841 69.8933 108.11 69.1526 109.591C68.4124 111.071 67.5664 113.504 66.7203 113.715C65.8743 113.927 65.1341 113.504 65.1341 113.504L64.8166 114.456L56.25 113.186L56.5675 110.965C56.5675 110.965 56.3558 105.466 56.4616 104.514C56.5675 103.562 56.4616 100.495 58.9997 98.5912C61.5378 96.688 68.2013 96.4764 69.5759 101.341Z" fill="white" stroke="#263238" stroke-width="0.518719" stroke-miterlimit="10"/>
<path d="M57.8356 94.2554C57.8356 94.2554 55.1917 95.1014 54.2399 98.9088C53.288 102.716 54.3457 106.206 54.9801 106.947C55.6145 107.688 56.4605 109.062 56.4605 109.062L56.5663 110.966C56.5663 110.966 61.4314 111.6 62.489 111.389C63.5467 111.178 63.9695 110.966 64.3927 110.649C64.816 110.332 65.2388 109.168 65.5562 107.688C65.8737 106.207 67.2483 104.62 67.2483 105.466C67.2483 106.312 67.2483 107.159 67.2483 107.159C67.2483 107.159 68.4118 106.947 68.4118 106.101C68.4118 105.255 68.2001 104.515 68.4118 104.091C68.6234 103.668 69.3636 103.245 69.7869 102.399C70.2097 101.553 70.2097 98.9093 70.2097 98.9093C70.2097 98.9093 71.479 100.601 71.5848 99.121C71.6906 97.6406 70.9504 95.4194 68.7292 94.3617C66.5081 93.3041 64.9218 93.5157 64.9218 93.5157C64.9218 93.5157 61.0086 90.9766 57.8356 94.2554Z" fill="#263238" stroke="#263238" stroke-width="0.518719" stroke-miterlimit="10"/>
<path d="M67.2499 115.09C67.2499 115.09 65.2404 113.08 61.7505 112.234C58.2605 111.388 55.6161 112.129 55.0875 112.869C54.5584 113.609 54.4531 114.35 54.4531 114.35C54.4531 114.35 59.3182 114.455 61.2219 114.667C63.1256 114.879 68.6287 116.015 68.6287 116.015L67.2499 115.09Z" fill="#4D7BF0" stroke="#263238" stroke-width="0.518719" stroke-miterlimit="10"/>
<path d="M71.0938 129.78L72.3937 153.96L76.5538 168.65L79.9338 168.39L80.7139 165.14C80.7139 165.14 81.104 162.28 81.104 161.76C81.104 161.241 80.1942 131.47 78.764 126.661C77.3339 121.851 75.644 118.73 74.0842 118.73" fill="#4D7BF0"/>
<path d="M71.0938 129.78L72.3937 153.96L76.5538 168.65L79.9338 168.39L80.7139 165.14C80.7139 165.14 81.104 162.28 81.104 161.76C81.104 161.24 80.1942 131.47 78.764 126.661C77.3339 121.851 75.644 118.73 74.0842 118.73" stroke="#263238" stroke-width="0.518719" stroke-miterlimit="10"/>
<path d="M80.3625 172.904H79.0859V178.635H80.3625V172.904Z" fill="#263238" stroke="#263238" stroke-width="0.518719" stroke-miterlimit="10"/>
<path d="M79.9382 168.391L81.4959 172.657L79.6119 175.731C79.6119 175.731 77.6283 175.632 77.3311 175.334C77.0334 175.036 75.7443 173.747 76.2402 173.351C76.7361 172.954 76.7361 172.954 76.7361 172.954C76.7361 172.954 75.943 170.475 76.1412 169.78C76.3393 169.086 76.5587 168.649 76.5587 168.649L79.9382 168.391Z" fill="white" stroke="#263238" stroke-width="0.518719" stroke-miterlimit="10"/>
<path d="M52.3984 170.721L63.4264 173.907" stroke="#7D7D7D" stroke-width="0.518719" stroke-miterlimit="10"/>
<path d="M78.3 172.906H77.0234V178.637H78.3V172.906Z" fill="#263238" stroke="#263238" stroke-width="0.518719" stroke-miterlimit="10"/>
<path d="M78.8438 204.847L85.335 202.449V178.848L78.8438 178.623V204.847Z" fill="#808080" stroke="#263238" stroke-width="0.518719" stroke-miterlimit="10"/>
<path d="M78.8374 178.625H72.6797V204.849H78.8374V178.625Z" fill="#4C4C4C" stroke="#263238" stroke-width="0.518719" stroke-miterlimit="10"/>
<path d="M54.7266 125.49C54.7266 125.49 60.101 135.896 63.0738 138.297" stroke="#263238" stroke-width="0.518719" stroke-miterlimit="10"/>
<path d="M57.7031 134.98C57.7031 134.98 61.705 140.24 63.878 141.155" stroke="#263238" stroke-width="0.518719" stroke-miterlimit="10"/>
</g>
<defs>
<clipPath id="clip0_870_14641">
<rect width="259.359" height="259.359" fill="white" transform="translate(0 0.853516)"/>
</clipPath>
</defs>
</svg>
