<svg width="363" height="283" viewBox="0 0 363 283" fill="none" xmlns="http://www.w3.org/2000/svg">
<path d="M177.722 241.698C255.799 241.698 319.093 239.707 319.093 237.251C319.093 234.795 255.799 232.805 177.722 232.805C99.6454 232.805 36.3516 234.795 36.3516 237.251C36.3516 239.707 99.6454 241.698 177.722 241.698Z" fill="#2E00FF"/>
<path d="M140.238 95.9922H96.9766V164.212H140.238V95.9922Z" fill="#59BBF8"/>
<path d="M80.6797 164.211H96.9766L96.9766 95.9915H80.6797V164.211Z" fill="#2F99FF"/>
<path d="M149.986 34.1445H122.094V62.0365H149.986V34.1445Z" stroke="#EFEFEF" stroke-width="1.25053" stroke-miterlimit="10"/>
<path d="M149.986 34.1445L122.094 62.0365" stroke="#EFEFEF" stroke-width="1.25053" stroke-miterlimit="10"/>
<path d="M122.094 34.1445L149.986 62.0365" stroke="#EFEFEF" stroke-width="1.25053" stroke-miterlimit="10"/>
<path d="M149.986 62.0371H122.094V89.9291H149.986V62.0371Z" stroke="#EFEFEF" stroke-width="1.25053" stroke-miterlimit="10"/>
<path d="M149.986 62.0371L122.094 89.9291" stroke="#EFEFEF" stroke-width="1.25053" stroke-miterlimit="10"/>
<path d="M122.094 62.0371L149.986 89.9291" stroke="#EFEFEF" stroke-width="1.25053" stroke-miterlimit="10"/>
<path d="M149.986 89.9297H122.094V117.822H149.986V89.9297Z" stroke="#EFEFEF" stroke-width="1.25053" stroke-miterlimit="10"/>
<path d="M149.986 89.9297L122.094 117.821" stroke="#EFEFEF" stroke-width="1.25053" stroke-miterlimit="10"/>
<path d="M122.094 89.9297L149.986 117.821" stroke="#EFEFEF" stroke-width="1.25053" stroke-miterlimit="10"/>
<path d="M56.2734 27.5195H149.989V34.1455H62.7148" stroke="#EFEFEF" stroke-width="1.25053" stroke-miterlimit="10"/>
<path d="M60.8542 38.3726C63.337 35.8897 63.337 31.8642 60.8542 29.3813C58.3713 26.8984 54.3457 26.8984 51.8628 29.3813C49.38 31.8642 49.38 35.8897 51.8628 38.3726C54.3457 40.8555 58.3713 40.8555 60.8542 38.3726Z" stroke="#EFEFEF" stroke-width="1.25053" stroke-miterlimit="10"/>
<path d="M58.6248 33.8768C58.6248 35.1257 57.6121 36.1384 56.3632 36.1384C55.1143 36.1384 54.1016 35.1257 54.1016 33.8768C54.1016 32.6279 55.1143 31.6152 56.3632 31.6152C57.6121 31.6152 58.6248 32.6279 58.6248 33.8768Z" stroke="#EFEFEF" stroke-width="1.25053" stroke-miterlimit="10"/>
<path d="M149.99 27.5199V2.98438L133.641 27.5199H149.99Z" stroke="#EFEFEF" stroke-width="1.25053" stroke-miterlimit="10"/>
<path d="M56.3594 106.497V33.8767V27.5195" stroke="#EFEFEF" stroke-width="1.25053" stroke-miterlimit="10"/>
<path d="M44.875 124.386L56.2719 112.988L67.6696 124.386" stroke="#EFEFEF" stroke-width="1.25053" stroke-miterlimit="10" stroke-linejoin="round"/>
<path d="M59.6724 109.586C59.6724 111.466 58.1492 112.989 56.2698 112.989C54.3903 112.989 52.8672 111.466 52.8672 109.586C52.8672 107.707 54.3903 106.184 56.2698 106.184C58.1492 106.184 59.6724 107.707 59.6724 109.586Z" stroke="#EFEFEF" stroke-width="1.25053" stroke-miterlimit="10"/>
<path d="M152.804 94.291H149.234V121.056H152.804V94.291Z" fill="white"/>
<path d="M143.812 108.066H140.242V121.055H143.812V108.066Z" fill="white"/>
<path d="M175.083 116.438H121.43V121.057H175.083V116.438Z" fill="white"/>
<path d="M74.4928 123.248H37.5938V139.413H74.4928V123.248Z" fill="white"/>
<path d="M259.958 108.35H240.25V237.072H259.958V108.35Z" fill="#2E00FF"/>
<path d="M259.958 237.07H305.133V108.348H259.958V237.07Z" fill="#D8C5B6"/>
<path d="M273.399 118.621H263.18V135.291H273.399V118.621Z" fill="#F0E1D3"/>
<path d="M273.399 118.621H263.18V125.609H273.399V118.621Z" fill="#2E00FF"/>
<path d="M287.649 118.621H277.43V135.291H287.649V118.621Z" fill="#F0E1D3"/>
<path d="M287.649 118.621H277.43V125.609H287.649V118.621Z" fill="#2E00FF"/>
<path d="M273.719 139.414H263.5V156.084H273.719V139.414Z" fill="#F0E1D3"/>
<path d="M273.719 139.414H263.5V146.402H273.719V139.414Z" fill="#2E00FF"/>
<path d="M287.969 139.414H277.75V156.084H287.969V139.414Z" fill="#F0E1D3"/>
<path d="M287.969 139.414H277.75V146.402H287.969V139.414Z" fill="#2E00FF"/>
<path d="M273.719 160.205H263.5V176.875H273.719V160.205Z" fill="#F0E1D3"/>
<path d="M273.719 160.205H263.5V167.193H273.719V160.205Z" fill="#2E00FF"/>
<path d="M287.969 160.205H277.75V176.875H287.969V160.205Z" fill="#F0E1D3"/>
<path d="M287.969 160.205H277.75V167.193H287.969V160.205Z" fill="#2E00FF"/>
<path d="M273.719 180.201H263.5V196.871H273.719V180.201Z" fill="#F0E1D3"/>
<path d="M273.719 180.201H263.5V187.189H273.719V180.201Z" fill="#2E00FF"/>
<path d="M287.969 180.201H277.75V196.871H287.969V180.201Z" fill="#F0E1D3"/>
<path d="M287.969 180.201H277.75V187.189H287.969V180.201Z" fill="#2E00FF"/>
<path d="M301.712 118.621H291.492V135.291H301.712V118.621Z" fill="#F0E1D3"/>
<path d="M301.712 118.621H291.492V125.609H301.712V118.621Z" fill="#2E00FF"/>
<path d="M302.032 139.414H291.812V156.084H302.032V139.414Z" fill="#F0E1D3"/>
<path d="M302.032 139.414H291.812V146.402H302.032V139.414Z" fill="#2E00FF"/>
<path d="M302.032 160.205H291.812V176.875H302.032V160.205Z" fill="#F0E1D3"/>
<path d="M302.032 160.205H291.812V167.193H302.032V160.205Z" fill="#2E00FF"/>
<path d="M302.032 180.201H291.812V196.871H302.032V180.201Z" fill="#F0E1D3"/>
<path d="M302.032 180.201H291.812V187.189H302.032V180.201Z" fill="#2E00FF"/>
<path d="M273.813 199.803H263.594V216.472H273.813V199.803Z" fill="#F0E1D3"/>
<path d="M273.813 199.803H263.594V206.791H273.813V199.803Z" fill="#2E00FF"/>
<path d="M288.063 199.803H277.844V216.472H288.063V199.803Z" fill="#F0E1D3"/>
<path d="M288.063 199.803H277.844V206.791H288.063V199.803Z" fill="#2E00FF"/>
<path d="M302.126 199.803H291.906V216.472H302.126V199.803Z" fill="#F0E1D3"/>
<path d="M302.126 199.803H291.906V206.791H302.126V199.803Z" fill="#2E00FF"/>
<path d="M308.393 220.346H259.953V225.724H308.393V220.346Z" fill="#F0E1D3"/>
<path d="M238.576 225.723H259.953V220.344H238.576V225.723Z" fill="#D8C5B6"/>
<path d="M273.402 237.25H263.5V230.853C263.5 228.119 265.717 225.902 268.451 225.902C271.185 225.902 273.402 228.119 273.402 230.853V237.25Z" fill="#2E00FF"/>
<path d="M287.909 237.25H278.008V230.853C278.008 228.119 280.225 225.902 282.959 225.902C285.693 225.902 287.909 228.119 287.909 230.853V237.25Z" fill="#2E00FF"/>
<path d="M301.972 237.25H292.07V230.853C292.07 228.119 294.287 225.902 297.021 225.902C299.755 225.902 301.972 228.119 301.972 230.853V237.25Z" fill="#2E00FF"/>
<path d="M231.489 56.6914H179.133V99.3727H231.489V56.6914Z" fill="#59BBF8"/>
<path d="M190.066 56.6914H179.133V99.3727H190.066V56.6914Z" fill="#2896FF"/>
<path d="M225.831 94.293H184.148V237.073H225.831V94.293Z" fill="#2E00FF"/>
<path d="M193.911 86.1621H168.289V237.072H193.911V86.1621Z" fill="#2896FF"/>
<path d="M248.74 86.1621H209.539V237.072H248.74V86.1621Z" fill="#59BBF8"/>
<path d="M172.562 86.1621V237.072" stroke="#59BBF8" stroke-width="1.41038" stroke-miterlimit="10"/>
<path d="M176.906 86.1621V237.072" stroke="#59BBF8" stroke-width="1.41038" stroke-miterlimit="10"/>
<path d="M181.25 86.1621V237.072" stroke="#59BBF8" stroke-width="1.41038" stroke-miterlimit="10"/>
<path d="M185.594 86.1621V237.072" stroke="#59BBF8" stroke-width="1.41038" stroke-miterlimit="10"/>
<path d="M189.938 86.1621V237.072" stroke="#59BBF8" stroke-width="1.41038" stroke-miterlimit="10"/>
<path d="M214.109 86.2109V237.121" stroke="#2896FF" stroke-width="1.41038" stroke-miterlimit="10"/>
<path d="M218.453 86.2109V237.121" stroke="#2896FF" stroke-width="1.41038" stroke-miterlimit="10"/>
<path d="M222.797 86.2109V237.121" stroke="#2896FF" stroke-width="1.41038" stroke-miterlimit="10"/>
<path d="M227.148 86.2109V237.121" stroke="#2896FF" stroke-width="1.41038" stroke-miterlimit="10"/>
<path d="M231.492 86.2109V237.121" stroke="#2896FF" stroke-width="1.41038" stroke-miterlimit="10"/>
<path d="M235.906 86.2109V237.121" stroke="#2896FF" stroke-width="1.41038" stroke-miterlimit="10"/>
<path d="M240.25 86.2109V237.121" stroke="#2896FF" stroke-width="1.41038" stroke-miterlimit="10"/>
<path d="M244.594 86.2109V237.121" stroke="#2896FF" stroke-width="1.41038" stroke-miterlimit="10"/>
<path d="M193.914 99.373H209.543" stroke="#59BBF8" stroke-width="1.41038" stroke-miterlimit="10"/>
<path d="M193.914 105.471H209.543" stroke="#59BBF8" stroke-width="1.41038" stroke-miterlimit="10"/>
<path d="M193.914 111.568H209.543" stroke="#59BBF8" stroke-width="1.41038" stroke-miterlimit="10"/>
<path d="M193.914 117.666H209.543" stroke="#59BBF8" stroke-width="1.41038" stroke-miterlimit="10"/>
<path d="M193.914 123.764H209.543" stroke="#59BBF8" stroke-width="1.41038" stroke-miterlimit="10"/>
<path d="M193.914 129.859H209.543" stroke="#59BBF8" stroke-width="1.41038" stroke-miterlimit="10"/>
<path d="M193.914 135.957H209.543" stroke="#59BBF8" stroke-width="1.41038" stroke-miterlimit="10"/>
<path d="M193.914 142.055H209.543" stroke="#59BBF8" stroke-width="1.41038" stroke-miterlimit="10"/>
<path d="M193.914 148.152H209.543" stroke="#59BBF8" stroke-width="1.41038" stroke-miterlimit="10"/>
<path d="M193.914 154.25H209.543" stroke="#59BBF8" stroke-width="1.41038" stroke-miterlimit="10"/>
<path d="M193.914 160.346H209.543" stroke="#59BBF8" stroke-width="1.41038" stroke-miterlimit="10"/>
<path d="M193.914 166.445H209.543" stroke="#59BBF8" stroke-width="1.41038" stroke-miterlimit="10"/>
<path d="M193.914 172.541H209.543" stroke="#59BBF8" stroke-width="1.41038" stroke-miterlimit="10"/>
<path d="M193.914 178.639H209.543" stroke="#59BBF8" stroke-width="1.41038" stroke-miterlimit="10"/>
<path d="M193.914 184.736H209.543" stroke="#59BBF8" stroke-width="1.41038" stroke-miterlimit="10"/>
<path d="M193.914 190.834H209.543" stroke="#59BBF8" stroke-width="1.41038" stroke-miterlimit="10"/>
<path d="M193.914 196.932H209.543" stroke="#59BBF8" stroke-width="1.41038" stroke-miterlimit="10"/>
<path d="M193.914 203.027H209.543" stroke="#59BBF8" stroke-width="1.41038" stroke-miterlimit="10"/>
<path d="M193.914 209.127H209.543" stroke="#59BBF8" stroke-width="1.41038" stroke-miterlimit="10"/>
<path d="M193.914 215.225H209.543" stroke="#59BBF8" stroke-width="1.41038" stroke-miterlimit="10"/>
<path d="M193.914 221.32H209.543" stroke="#59BBF8" stroke-width="1.41038" stroke-miterlimit="10"/>
<path d="M193.914 227.416H209.543" stroke="#59BBF8" stroke-width="1.41038" stroke-miterlimit="10"/>
<path d="M196.329 78.0312H192.344V86.1614H196.329V78.0312Z" fill="#2E00FF"/>
<path d="M204.447 78.0312H200.461V86.1614H204.447V78.0312Z" fill="#2E00FF"/>
<path d="M212.564 78.0312H208.578V86.1614H212.564V78.0312Z" fill="#2E00FF"/>
<path d="M220.689 78.0312H216.703V86.1614H220.689V78.0312Z" fill="#2E00FF"/>
<path d="M228.806 78.0312H224.82V86.1614H228.806V78.0312Z" fill="#2E00FF"/>
<path d="M196.329 65.1602H192.344V73.2903H196.329V65.1602Z" fill="#2E00FF"/>
<path d="M187.587 65.1602H183.602V73.2903H187.587V65.1602Z" fill="#2E00FF"/>
<path d="M181.252 65.1602H179.109V73.2903H181.252V65.1602Z" fill="#2E00FF"/>
<path d="M187.587 78.0332H183.602V86.1633H187.587V78.0332Z" fill="#2E00FF"/>
<path d="M181.252 78.0332H179.109V86.1633H181.252V78.0332Z" fill="#2E00FF"/>
<path d="M204.454 65.1602H200.469V73.2903H204.454V65.1602Z" fill="#2E00FF"/>
<path d="M212.572 65.1602H208.586V73.2903H212.572V65.1602Z" fill="#2E00FF"/>
<path d="M220.689 65.1602H216.703V73.2903H220.689V65.1602Z" fill="#2E00FF"/>
<path d="M228.806 65.1602H224.82V73.2903H228.806V65.1602Z" fill="#2E00FF"/>
<path d="M177.039 125.441H121.43V237.411H177.039V125.441Z" fill="#FA735F"/>
<path d="M109.252 237.41H121.43L121.43 125.44H109.252L109.252 237.41Z" fill="#2E00FF"/>
<path d="M177.04 137.59H128.57V141.848H177.04V137.59Z" fill="#DC1428"/>
<path d="M177.04 147.668H128.57V151.926H177.04V147.668Z" fill="#DC1428"/>
<path d="M177.04 157.746H128.57V162.005H177.04V157.746Z" fill="#DC1428"/>
<path d="M177.04 167.824H128.57V172.083H177.04V167.824Z" fill="#DC1428"/>
<path d="M177.04 177.902H128.57V182.161H177.04V177.902Z" fill="#DC1428"/>
<path d="M177.04 187.98H128.57V192.239H177.04V187.98Z" fill="#DC1428"/>
<path d="M177.04 198.059H128.57V202.317H177.04V198.059Z" fill="#DC1428"/>
<path d="M177.04 208.137H128.57V212.395H177.04V208.137Z" fill="#DC1428"/>
<path d="M177.04 218.217H128.57V222.475H177.04V218.217Z" fill="#DC1428"/>
<path d="M145.906 125.441H138.141V237.411H145.906V125.441Z" fill="#FC8867"/>
<path d="M166.695 125.441H158.93V237.411H166.695V125.441Z" fill="#FC8867"/>
<path d="M182.925 121.057H121.43V125.44H182.925V121.057Z" fill="#FC8867"/>
<path d="M107.549 125.441H121.43V121.058H107.549V125.441Z" fill="#2E00FF"/>
<path d="M84.1488 164.213H56.7109V237.585H84.1488V164.213Z" fill="#2E00FF"/>
<path d="M84.1486 237.586H128.57V164.214H84.1486V237.586Z" fill="#D8C5B6"/>
<path d="M74.497 207.943H62.1328V237.583H74.497V207.943Z" fill="#F0E1D3"/>
<path d="M63.4839 232.504H47.0547V237.585H63.4839V232.504Z" fill="#2E00FF"/>
<path d="M63.4828 237.584H74.4922V232.503H63.4828V237.584Z" fill="#D8C5B6"/>
<path d="M65.8189 227.422H52.1406V232.503H65.8189V227.422Z" fill="#2E00FF"/>
<path d="M65.8136 232.504H74.4922V227.423H65.8136V232.504Z" fill="#D8C5B6"/>
<path d="M67.0431 191.855H60.4375V203.881H67.0431V191.855Z" fill="#D8C5B6"/>
<path d="M67.0431 191.855H60.4375V196.259H67.0431V191.855Z" fill="#F0E1D3"/>
<path d="M78.8947 191.855H72.2891V203.881H78.8947V191.855Z" fill="#D8C5B6"/>
<path d="M78.8947 191.855H72.2891V196.259H78.8947V191.855Z" fill="#F0E1D3"/>
<path d="M67.0431 176.664H60.4375V188.69H67.0431V176.664Z" fill="#D8C5B6"/>
<path d="M67.0431 176.664H60.4375V181.068H67.0431V176.664Z" fill="#F0E1D3"/>
<path d="M78.8947 176.664H72.2891V188.69H78.8947V176.664Z" fill="#D8C5B6"/>
<path d="M78.8947 176.664H72.2891V181.068H78.8947V176.664Z" fill="#F0E1D3"/>
<path d="M95.1369 195.816H88.5312V203.72H95.1369V195.816Z" fill="#2E00FF"/>
<path d="M95.1369 191.695H88.5312V196.099H95.1369V191.695Z" fill="#F0E1D3"/>
<path d="M106.988 195.816H100.383V203.72H106.988V195.816Z" fill="#2E00FF"/>
<path d="M106.988 191.695H100.383V196.099H106.988V191.695Z" fill="#F0E1D3"/>
<path d="M95.1369 180.031H88.5312V188.526H95.1369V180.031Z" fill="#2E00FF"/>
<path d="M95.1369 176.502H88.5312V180.906H95.1369V176.502Z" fill="#F0E1D3"/>
<path d="M106.988 180.031H100.383V188.526H106.988V180.031Z" fill="#2E00FF"/>
<path d="M106.988 176.502H100.383V180.906H106.988V176.502Z" fill="#F0E1D3"/>
<path d="M95.1369 225.678H88.5312V234.104H95.1369V225.678Z" fill="#2E00FF"/>
<path d="M95.1369 222.078H88.5312V226.482H95.1369V222.078Z" fill="#F0E1D3"/>
<path d="M106.996 225.678H100.391V234.104H106.996V225.678Z" fill="#2E00FF"/>
<path d="M106.996 222.078H100.391V226.482H106.996V222.078Z" fill="#F0E1D3"/>
<path d="M95.1369 210.27H88.5312V218.914H95.1369V210.27Z" fill="#2E00FF"/>
<path d="M95.1369 206.889H88.5312V211.292H95.1369V206.889Z" fill="#F0E1D3"/>
<path d="M106.996 210.27H100.391V218.914H106.996V210.27Z" fill="#2E00FF"/>
<path d="M106.996 206.889H100.391V211.292H106.996V206.889Z" fill="#F0E1D3"/>
<path d="M119.082 195.816H112.477V203.72H119.082V195.816Z" fill="#2E00FF"/>
<path d="M119.082 191.695H112.477V196.099H119.082V191.695Z" fill="#F0E1D3"/>
<path d="M119.082 180.031H112.477V188.526H119.082V180.031Z" fill="#2E00FF"/>
<path d="M119.082 176.502H112.477V180.906H119.082V176.502Z" fill="#F0E1D3"/>
<path d="M119.082 225.678H112.477V234.104H119.082V225.678Z" fill="#2E00FF"/>
<path d="M119.082 222.078H112.477V226.482H119.082V222.078Z" fill="#F0E1D3"/>
<path d="M119.082 210.27H112.477V218.914H119.082V210.27Z" fill="#2E00FF"/>
<path d="M119.082 206.889H112.477V211.292H119.082V206.889Z" fill="#F0E1D3"/>
<path d="M84.1481 168.338H53.4922V171.36H84.1481V168.338Z" fill="#D8C5B6"/>
<path d="M84.1484 171.361H129.836V168.339H84.1484V171.361Z" fill="#F0E1D3"/>
<path d="M191.577 185.824C189.858 185.824 188.135 185.206 186.766 183.955C183.858 181.295 183.656 176.784 186.314 173.876L208.218 149.918C210.877 147.01 215.389 146.808 218.296 149.467C221.204 152.125 221.407 156.638 218.749 159.545L196.845 183.503C195.437 185.043 193.51 185.824 191.577 185.824Z" fill="#FFB49B"/>
<path d="M199.711 251.654H146.987C144.302 251.654 142.125 249.477 142.125 246.792V148.346C142.125 145.661 144.302 143.484 146.987 143.484H199.711C202.396 143.484 204.573 145.661 204.573 148.346V246.792C204.572 249.477 202.396 251.654 199.711 251.654Z" fill="#2E00FF"/>
<path d="M198.199 246.731H148.495C147.113 246.731 145.992 245.61 145.992 244.228V150.913C145.992 149.531 147.113 148.41 148.495 148.41H198.199C199.582 148.41 200.702 149.531 200.702 150.913V244.228C200.702 245.61 199.582 246.731 198.199 246.731Z" fill="#3ABF46"/>
<path d="M200.702 190.537H145.992V197.569H200.702V190.537Z" fill="#FAC855"/>
<path d="M165.867 246.611V191.9H158.835V246.611H165.867Z" fill="#FAC855"/>
<path d="M190.021 148.408V215.322L147.258 232.206" stroke="white" stroke-width="4.71034" stroke-miterlimit="10"/>
<path d="M178.117 220.021V246.73" stroke="white" stroke-width="4.71034" stroke-miterlimit="10"/>
<path d="M190.022 172.941H145.992" stroke="#F0E1D3" stroke-width="4.71034" stroke-miterlimit="10"/>
<path d="M154.883 148.408V172.94" stroke="#F0E1D3" stroke-width="4.71034" stroke-miterlimit="10"/>
<path d="M190.023 160.674H200.299" stroke="#F0E1D3" stroke-width="4.71034" stroke-miterlimit="10"/>
<path d="M200.306 197.688C197.851 197.688 195.461 196.418 194.135 194.145C192.152 190.74 193.304 186.372 196.708 184.388L205.474 179.281C208.879 177.299 213.247 178.451 215.23 181.853C217.213 185.258 216.061 189.626 212.658 191.609L203.891 196.717C202.762 197.374 201.525 197.688 200.306 197.688Z" fill="#FFB49B"/>
<path d="M199.111 212.568C196.655 212.568 194.265 211.299 192.94 209.025C190.956 205.621 192.108 201.253 195.512 199.269L204.278 194.16C207.682 192.178 212.051 193.328 214.035 196.733C216.018 200.137 214.866 204.505 211.462 206.489L202.696 211.597C201.566 212.254 200.331 212.568 199.111 212.568Z" fill="#FFB49B"/>
<path d="M197.793 148.41H148.089C146.707 148.41 145.586 149.531 145.586 150.913V202.881L200.296 174.119L200.15 150.1C199.81 149.119 198.889 148.41 197.793 148.41Z" fill="url(#paint0_linear_859_10879)"/>
<path d="M200.29 222.093C197.176 222.093 194.482 219.766 194.1 216.596C193.688 213.173 196.128 210.065 199.551 209.651L208.317 208.594C211.743 208.181 214.848 210.623 215.261 214.045C215.674 217.468 213.234 220.576 209.811 220.989L201.045 222.046C200.791 222.078 200.539 222.093 200.29 222.093Z" fill="#FFB49B"/>
<path d="M183.175 152.242H163.524C161.733 152.242 160.281 150.79 160.281 149V146.02H186.417V149C186.417 150.791 184.965 152.242 183.175 152.242Z" fill="#2E00FF"/>
<path d="M200.083 195.667L204.594 193.419C206.088 192.675 206.695 190.861 205.951 189.368L204.199 185.854C203.455 184.36 201.641 183.754 200.148 184.497L195.637 186.745C193.173 187.973 192.172 190.965 193.399 193.429C194.627 195.893 197.62 196.895 200.083 195.667Z" fill="#FFCBBD"/>
<path d="M198.787 210.915L203.298 208.667C204.791 207.923 205.398 206.109 204.654 204.616L202.902 201.102C202.158 199.608 200.344 199.002 198.851 199.745L194.34 201.993C191.876 203.221 190.875 206.213 192.102 208.677C193.331 211.141 196.323 212.143 198.787 210.915Z" fill="#FFCBBD"/>
<path d="M197.853 220.384L202.372 219.709C203.868 219.485 204.9 218.091 204.676 216.595L204.149 213.073C203.926 211.577 202.532 210.545 201.036 210.769L196.516 211.444C194.047 211.813 192.345 214.114 192.714 216.582C193.084 219.051 195.385 220.753 197.853 220.384Z" fill="#FFCBBD"/>
<path d="M149.416 163.103L141.399 172.526L129.58 183.642C128.304 184.843 127.492 186.457 127.288 188.198L122.682 227.559L117.008 255.998L145.588 254.844V243.086C147.267 241.537 148.284 239.406 148.425 237.127C149.101 226.208 148.295 211.16 142.369 194.632C142.369 194.632 160.774 178.819 152.936 163.5C152.247 162.154 150.395 161.952 149.416 163.103Z" fill="#FFB49B"/>
<path d="M150.385 254.844H111.781V268.506H150.385V254.844Z" fill="#F0E1D3"/>
<path d="M150.385 265.916H111.781V289.458H150.385V265.916Z" fill="#2E00FF"/>
<path d="M152.568 162.823C152.568 162.823 148.236 174.141 145.589 173.521C142.943 172.902 141.953 171.876 141.953 171.876C142.413 169.382 145.599 165.435 150.353 160.652L152.568 162.823Z" fill="#FFCBBD"/>
<path d="M145.59 243.086H129.328L133.716 245.227C137.415 247.034 139.821 250.73 139.974 254.845H145.59V243.086Z" fill="#F5876E"/>
<path d="M168.633 188.008L173.603 194.351L178.572 188.008H168.633Z" fill="#DC1428"/>
<path d="M173.607 190.956C169.241 190.956 165.688 187.403 165.688 183.037C165.688 178.67 169.24 175.117 173.607 175.117C177.974 175.117 181.526 178.67 181.526 183.037C181.526 187.403 177.974 190.956 173.607 190.956ZM173.607 179.239C171.513 179.239 169.81 180.943 169.81 183.037C169.81 185.131 171.513 186.834 173.607 186.834C175.701 186.834 177.404 185.131 177.404 183.037C177.404 180.943 175.701 179.239 173.607 179.239Z" fill="#FC5954"/>
<path d="M155.312 221.488L160.282 227.831L165.251 221.488H155.312Z" fill="#DC1428"/>
<path d="M160.279 224.436C155.913 224.436 152.359 220.884 152.359 216.517C152.359 212.151 155.912 208.598 160.279 208.598C164.646 208.598 168.198 212.15 168.198 216.517C168.198 220.884 164.645 224.436 160.279 224.436ZM160.279 212.72C158.185 212.72 156.481 214.423 156.481 216.517C156.481 218.611 158.185 220.314 160.279 220.314C162.373 220.314 164.076 218.611 164.076 216.517C164.076 214.423 162.373 212.72 160.279 212.72Z" fill="#FC5954"/>
<path d="M291.456 118.947L238.46 171.942L230.867 164.349L283.863 111.354L291.456 118.947Z" fill="url(#paint1_linear_859_10879)"/>
<path d="M275.413 109.444L227.505 157.352L219.092 148.938C214.24 144.087 214.24 136.221 219.092 131.369L250.813 99.6481C254.901 95.56 261.529 95.56 265.616 99.6481L275.413 109.444Z" fill="url(#paint2_linear_859_10879)"/>
<path d="M258.805 180.108C279.857 180.108 296.922 163.042 296.922 141.99C296.922 120.939 279.857 103.873 258.805 103.873C237.753 103.873 220.688 120.939 220.688 141.99C220.688 163.042 237.753 180.108 258.805 180.108Z" fill="url(#paint3_linear_859_10879)"/>
<path d="M296.65 162.329L288.922 172.184L354.439 223.563L362.167 213.708L296.65 162.329Z" fill="#BF795A"/>
<path d="M362.158 213.713L296.596 162.393L288.914 172.188L299.053 180.14C301.174 177.436 305.086 176.963 307.79 179.083L358.27 218.671L362.158 213.713Z" fill="#AE6B48"/>
<path d="M344.104 193.907C344.104 193.907 344.106 190.194 340.616 186.961C338.499 184.999 334.82 185.851 334.82 185.851C334.82 185.851 333.132 181.095 330.907 179.33C325.917 175.373 324.462 178.716 324.462 178.716C324.462 178.716 322.112 174.306 320.102 173.468C315.946 171.735 313.791 173.786 313.303 175.398C310.882 180.788 309.731 197.897 309.731 197.897C309.731 197.897 305.559 185.24 300.8 181.183C297.82 178.644 291.826 174.133 288.172 179.56C288.172 179.56 295.765 192.475 296.74 199.807C297.714 207.139 303.929 227.779 314.196 233.122C319.638 235.953 316.491 263.687 316.491 263.687H347.881L345.104 223.449C345.656 220.122 351.684 204.092 351.85 202.576C352.524 196.468 345.526 191.699 344.104 193.907Z" fill="#FFB49B"/>
<path d="M339.093 260.946L340.207 263.686H347.883L345.106 223.449C345.658 220.121 351.686 204.091 351.853 202.576C351.975 201.466 351.838 200.403 351.533 199.416C335.391 215.559 330.49 239.8 339.093 260.946Z" fill="#F5876E"/>
<path d="M295.037 187.884C295.728 187.194 294.347 181.209 292.62 179.483C290.894 177.757 287.773 179.757 287.773 179.757C287.773 179.757 290.786 184.01 293.144 189.168C293.854 188.756 294.678 188.243 295.037 187.884Z" fill="#FFEBE1"/>
<path d="M344.101 193.906C344.101 193.906 346.556 193.063 347.285 198.318C348.014 203.574 343.398 209.687 343.398 209.687L351.827 202.71C351.836 202.661 351.846 202.611 351.85 202.576C352.521 196.467 345.523 191.698 344.101 193.906Z" fill="#F5876E"/>
<path d="M259.139 181.641C281.246 181.641 299.168 163.719 299.168 141.611C299.168 119.504 281.246 101.582 259.139 101.582C237.031 101.582 219.109 119.504 219.109 141.611C219.109 163.719 237.031 181.641 259.139 181.641Z" stroke="#FC5954" stroke-width="13.7556" stroke-miterlimit="10"/>
<path d="M259.138 109.358C276.922 109.358 291.39 123.826 291.39 141.61C291.39 159.394 276.922 173.863 259.138 173.863C241.354 173.863 226.885 159.394 226.885 141.61C226.885 123.826 241.354 109.358 259.138 109.358ZM259.138 103.73C238.217 103.73 221.258 120.69 221.258 141.61C221.258 162.531 238.217 179.49 259.138 179.49C280.058 179.49 297.018 162.531 297.018 141.61C297.018 120.69 280.058 103.73 259.138 103.73Z" fill="#DC1428"/>
<path d="M352.724 243.801H310.562V255.416H352.724V243.801Z" fill="#F0E1D3"/>
<path d="M352.724 255.412H310.562V283.507H352.724V255.412Z" fill="#2E00FF"/>
<path d="M40.5857 166.445H9.42958C4.22626 166.445 0.0078125 162.227 0.0078125 157.023C0.0078125 151.82 4.22626 147.602 9.42958 147.602H40.5857C45.789 147.602 50.0075 151.82 50.0075 157.023C50.0075 162.227 45.789 166.445 40.5857 166.445Z" fill="#FA735F"/>
<path d="M9.06923 152.613L10.4111 155.332L13.4119 155.768L11.2406 157.884L11.753 160.874L9.06923 159.463L6.38543 160.874L6.8979 157.884L4.72656 155.768L7.72733 155.332L9.06923 152.613Z" fill="#FAC855"/>
<path d="M19.702 152.613L21.0439 155.332L24.0447 155.768L21.8734 157.884L22.3858 160.874L19.702 159.463L17.0182 160.874L17.5307 157.884L15.3594 155.768L18.3601 155.332L19.702 152.613Z" fill="#FAC855"/>
<path d="M30.327 152.613L31.6689 155.332L34.6697 155.768L32.4984 157.884L33.0108 160.874L30.327 159.463L27.6432 160.874L28.1557 157.884L25.9844 155.768L28.9851 155.332L30.327 152.613Z" fill="#FAC855"/>
<path d="M40.8349 152.613L42.1767 155.332L45.1775 155.768L43.0062 157.884L43.5186 160.874L40.8349 159.463L38.1511 160.874L38.6635 157.884L36.4922 155.768L39.493 155.332L40.8349 152.613Z" fill="white"/>
<path d="M40.838 166.443L36.0625 161.668L31.287 166.443L36.0625 171.219L40.838 166.443Z" fill="#FA735F"/>
<path d="M104.101 83.0193H72.9452C67.7419 83.0193 63.5234 78.8009 63.5234 73.5975C63.5234 68.3942 67.7419 64.1758 72.9452 64.1758H104.101C109.305 64.1758 113.523 68.3942 113.523 73.5975C113.523 78.8015 109.305 83.0193 104.101 83.0193Z" fill="#FA735F"/>
<path d="M72.5848 69.1875L73.9267 71.9059L76.9275 72.3423L74.7562 74.4587L75.2686 77.4472L72.5848 76.0361L69.9011 77.4472L70.4135 74.4587L68.2422 72.3423L71.2429 71.9059L72.5848 69.1875Z" fill="#FAC855"/>
<path d="M83.2177 69.1875L84.5596 71.9059L87.5603 72.3423L85.389 74.4587L85.9021 77.4472L83.2177 76.0361L80.5339 77.4472L81.0463 74.4587L78.875 72.3423L81.8758 71.9059L83.2177 69.1875Z" fill="#FAC855"/>
<path d="M93.8427 69.1875L95.1852 71.9059L98.186 72.3423L96.014 74.4587L96.5271 77.4472L93.8427 76.0361L91.1589 77.4472L91.6713 74.4587L89.5 72.3423L92.5008 71.9059L93.8427 69.1875Z" fill="white"/>
<path d="M104.35 69.1875L105.692 71.9059L108.693 72.3423L106.522 74.4587L107.034 77.4472L104.35 76.0361L101.667 77.4472L102.179 74.4587L100.008 72.3423L103.009 71.9059L104.35 69.1875Z" fill="white"/>
<path d="M104.354 83.0177L99.5781 78.2422L94.8027 83.0177L99.5781 87.7931L104.354 83.0177Z" fill="#FA735F"/>
<path d="M207.219 47.2732H238.375C243.578 47.2732 247.797 43.0548 247.797 37.8515C247.797 32.6481 243.578 28.4297 238.375 28.4297H207.219C202.015 28.4297 197.797 32.6481 197.797 37.8515C197.797 43.0548 202.015 47.2732 207.219 47.2732Z" fill="#FA735F"/>
<path d="M238.733 33.4414L237.391 36.1605L234.391 36.5963L236.562 38.7133L236.049 41.7018L238.733 40.2907L241.417 41.7018L240.905 38.7133L243.076 36.5963L240.075 36.1605L238.733 33.4414Z" fill="#FAC855"/>
<path d="M228.108 33.4414L226.766 36.1605L223.766 36.5963L225.937 38.7133L225.424 41.7018L228.108 40.2907L230.792 41.7018L230.28 38.7133L232.451 36.5963L229.45 36.1605L228.108 33.4414Z" fill="#FAC855"/>
<path d="M217.475 33.4414L216.134 36.1605L213.133 36.5963L215.304 38.7133L214.791 41.7018L217.475 40.2907L220.159 41.7018L219.647 38.7133L221.818 36.5963L218.817 36.1605L217.475 33.4414Z" fill="#FAC855"/>
<path d="M206.968 33.4414L205.626 36.1605L202.625 36.5963L204.796 38.7133L204.284 41.7018L206.968 40.2907L209.651 41.7018L209.139 38.7133L211.31 36.5963L208.31 36.1605L206.968 33.4414Z" fill="#FAC855"/>
<path d="M211.748 52.0489L216.523 47.2734L211.748 42.498L206.973 47.2734L211.748 52.0489Z" fill="#FA735F"/>
<defs>
<linearGradient id="paint0_linear_859_10879" x1="138.822" y1="196.117" x2="192.674" y2="142.265" gradientUnits="userSpaceOnUse">
<stop stop-color="white"/>
<stop offset="1" stop-color="white" stop-opacity="0"/>
</linearGradient>
<linearGradient id="paint1_linear_859_10879" x1="234.664" y1="168.146" x2="287.66" y2="115.15" gradientUnits="userSpaceOnUse">
<stop stop-color="white"/>
<stop offset="1" stop-color="white" stop-opacity="0"/>
</linearGradient>
<linearGradient id="paint2_linear_859_10879" x1="218.906" y1="148.753" x2="266.814" y2="100.845" gradientUnits="userSpaceOnUse">
<stop stop-color="white"/>
<stop offset="1" stop-color="white" stop-opacity="0"/>
</linearGradient>
<linearGradient id="paint3_linear_859_10879" x1="220.687" y1="141.99" x2="296.922" y2="141.99" gradientUnits="userSpaceOnUse">
<stop stop-color="white"/>
<stop offset="1" stop-color="white" stop-opacity="0"/>
</linearGradient>
</defs>
</svg>
