<svg width="800" height="481" viewBox="0 0 800 481" fill="none" xmlns="http://www.w3.org/2000/svg">
<g clip-path="url(#clip0_1227_25364)">
<path opacity="0.5" d="M519.5 395.999C551.256 395.999 577 393.537 577 390.499C577 387.461 551.256 384.999 519.5 384.999C487.744 384.999 462 387.461 462 390.499C462 393.537 487.744 395.999 519.5 395.999Z" fill="#03103E"/>
<path opacity="0.5" d="M701.127 408.24C724.946 408.24 744.255 406.396 744.255 404.12C744.255 401.844 724.946 399.999 701.127 399.999C677.309 399.999 658 401.844 658 404.12C658 406.396 677.309 408.24 701.127 408.24Z" fill="#0C1B4C"/>
<g opacity="0.48">
<path d="M527.031 216.111L528.039 214.012L529.059 211.919L531.099 207.734L533.159 203.559L535.242 199.397C535.938 198.01 536.606 196.609 537.283 195.212C537.963 193.817 538.688 192.446 539.46 191.1C540.233 189.755 541.03 188.422 541.869 187.111C542.702 185.798 543.564 184.5 544.509 183.245L544.66 183.326C544.148 184.81 543.554 186.251 542.93 187.676C542.312 189.104 541.652 190.51 540.97 191.904C540.285 193.297 539.554 194.664 538.777 196.008C537.998 197.351 537.21 198.688 536.449 200.04L534.163 204.095L531.853 208.137L529.524 212.168L528.359 214.184L527.182 216.193L527.031 216.111Z" fill="#FBCE69"/>
<path d="M524.313 219.827L522.674 221.256L521.028 222.674L517.734 225.509L514.426 228.326L511.102 231.124C509.993 232.054 508.904 233.011 507.807 233.958C506.71 234.903 505.58 235.808 504.417 236.672C503.253 237.534 502.073 238.376 500.863 239.181C499.657 239.99 498.431 240.774 497.146 241.485L497.039 241.351C498.018 240.257 499.055 239.236 500.114 238.241C501.168 237.241 502.252 236.277 503.351 235.335C504.453 234.394 505.587 233.494 506.753 232.635C507.92 231.778 509.095 230.929 510.25 230.055L513.717 227.438L517.201 224.841L520.699 222.262L522.449 220.973L524.206 219.694L524.313 219.827Z" fill="#FBCE69"/>
<path d="M527.188 219.725L528.261 221.882L529.322 224.045L531.442 228.371L533.542 232.707L535.618 237.053C536.308 238.502 537.028 239.939 537.737 241.38C538.444 242.822 539.104 244.285 539.716 245.769C540.326 247.255 540.913 248.751 541.455 250.266C542.004 251.779 542.522 253.306 542.956 254.871L542.8 254.941C541.919 253.577 541.124 252.174 540.358 250.759C539.588 249.345 538.86 247.913 538.156 246.469C537.454 245.025 536.8 243.559 536.193 242.072C535.588 240.584 534.993 239.092 534.37 237.612L532.504 233.172L530.662 228.721L528.84 224.261L527.93 222.03L527.031 219.794L527.188 219.725Z" fill="#FBCE69"/>
<path d="M527.078 217.97L529.287 217.003L531.501 216.047L535.93 214.137L540.366 212.248L544.812 210.384C546.295 209.764 547.766 209.115 549.241 208.476C550.717 207.839 552.212 207.25 553.726 206.711C555.241 206.172 556.765 205.659 558.307 205.189C559.846 204.714 561.398 204.27 562.983 203.912L563.046 204.071C561.639 204.885 560.198 205.613 558.746 206.309C557.295 207.01 555.827 207.669 554.35 208.302C552.872 208.934 551.375 209.516 549.859 210.052C548.342 210.584 546.82 211.106 545.311 211.658L540.781 213.307L536.241 214.933L531.693 216.538L529.419 217.34L527.14 218.129L527.078 217.97Z" fill="#FBCE69"/>
<path d="M525.537 218.117L523.506 216.588L521.482 215.049L517.437 211.97L513.406 208.874L509.391 205.757C508.054 204.717 506.697 203.701 505.346 202.677C503.998 201.651 502.682 200.585 501.399 199.478C500.118 198.369 498.852 197.24 497.617 196.075C496.378 194.914 495.16 193.728 494 192.469L494.107 192.337C495.576 193.215 496.986 194.166 498.375 195.143C499.768 196.115 501.13 197.123 502.477 198.152C503.822 199.182 505.134 200.254 506.413 201.364C507.69 202.478 508.962 203.599 510.252 204.696L514.122 207.992L517.975 211.307L521.814 214.64L523.733 216.307L525.643 217.984L525.537 218.117Z" fill="#FBCE69"/>
<path d="M523.248 211.075C522.509 210.368 521.796 209.64 521.081 208.915L520.02 207.815L518.98 206.7C518.635 206.327 518.265 205.974 517.904 205.614C517.545 205.253 517.224 204.86 516.947 204.432C516.67 204.005 516.417 203.558 516.193 203.089C515.972 202.616 515.774 202.126 515.648 201.578L515.782 201.471C516.29 201.713 516.725 202.015 517.137 202.334C517.546 202.656 517.927 203.001 518.282 203.365C518.639 203.729 518.952 204.127 519.226 204.557C519.497 204.989 519.76 205.427 520.049 205.846L520.909 207.105L521.749 208.38C522.3 209.237 522.854 210.092 523.381 210.969L523.248 211.075Z" fill="#F9DBC1"/>
<path d="M525.508 214.812C525.595 212.692 525.715 210.576 525.833 208.459L526.025 205.286L526.243 202.115C526.317 201.058 526.36 199.999 526.413 198.94C526.469 197.881 526.576 196.828 526.737 195.78C526.898 194.733 527.09 193.689 527.319 192.648C527.552 191.608 527.813 190.571 528.168 189.544L528.338 189.562C528.471 190.64 528.51 191.709 528.521 192.774C528.529 193.839 528.499 194.901 528.438 195.959C528.378 197.017 528.263 198.07 528.097 199.116C527.928 200.163 527.75 201.209 527.603 202.258L527.155 205.404L526.683 208.548C526.357 210.642 526.034 212.737 525.678 214.829L525.508 214.812Z" fill="#F37463"/>
<path d="M532 212.852C533.615 211.523 535.249 210.221 536.882 208.917L539.34 206.974L541.814 205.052C542.639 204.413 543.446 203.748 544.26 203.091C545.075 202.437 545.919 201.824 546.796 201.256C547.672 200.686 548.567 200.144 549.483 199.63C550.402 199.12 551.337 198.633 552.327 198.223L552.428 198.362C551.724 199.17 550.965 199.902 550.189 200.611C549.412 201.317 548.613 201.993 547.795 202.643C546.978 203.294 546.128 203.9 545.249 204.465C544.368 205.027 543.481 205.581 542.613 206.161L540.005 207.896L537.382 209.61C535.627 210.744 533.873 211.88 532.1 212.99L532 212.852Z" fill="#F37463"/>
<path d="M529.459 219.671L529.79 219.843L530.136 220.012L530.83 220.347L532.219 221.017L534.996 222.359L537.768 223.712L540.529 225.084C541.449 225.542 542.384 225.973 543.314 226.412C544.243 226.853 545.148 227.34 546.027 227.874C546.905 228.408 547.77 228.969 548.616 229.563C549.461 230.16 550.292 230.782 551.079 231.487L550.997 231.637C549.977 231.364 549.002 231.008 548.04 230.626C547.08 230.241 546.138 229.824 545.211 229.378C544.284 228.933 543.383 228.439 542.506 227.9C541.63 227.359 540.76 226.808 539.875 226.286L537.223 224.71L534.586 223.11L531.96 221.486C531.084 220.935 530.222 220.405 529.352 219.805L529.459 219.671Z" fill="#F37463"/>
<path d="M532.047 217.966C533.082 217.752 534.119 217.571 535.156 217.387L536.713 217.128L538.271 216.894C538.791 216.818 539.308 216.711 539.826 216.613C540.344 216.518 540.866 216.475 541.393 216.486C541.919 216.496 542.448 216.539 542.979 216.617C543.511 216.7 544.045 216.811 544.586 217.016L544.599 217.186C544.095 217.47 543.583 217.661 543.071 217.823C542.557 217.98 542.041 218.102 541.522 218.191C541.003 218.282 540.48 218.317 539.954 218.302C539.427 218.283 538.9 218.255 538.374 218.259L536.798 218.262L535.22 218.24C534.167 218.214 533.115 218.192 532.059 218.136L532.047 217.966Z" fill="#F9DBC1"/>
<path d="M531.056 222.979C531.863 223.778 532.645 224.598 533.429 225.417L534.593 226.655L535.737 227.909C536.116 228.328 536.521 228.728 536.917 229.134C537.312 229.542 537.666 229.98 537.977 230.454C538.289 230.927 538.575 231.42 538.833 231.936C539.089 232.454 539.321 232.99 539.48 233.584L539.347 233.69C538.804 233.4 538.334 233.052 537.887 232.687C537.443 232.319 537.028 231.927 536.638 231.517C536.247 231.107 535.899 230.662 535.592 230.186C535.286 229.708 534.988 229.224 534.666 228.759L533.703 227.361L532.76 225.948C532.14 224.999 531.518 224.052 530.922 223.083L531.056 222.979Z" fill="#F9DBC1"/>
<path d="M525.669 220.386C525.047 222.351 524.395 224.305 523.744 226.259L522.755 229.184L521.741 232.101C521.401 233.073 521.09 234.056 520.771 235.035C520.448 236.013 520.079 236.972 519.657 237.912C519.237 238.852 518.787 239.781 518.303 240.695C517.815 241.609 517.3 242.512 516.698 243.382L516.539 243.32C516.684 242.272 516.917 241.26 517.177 240.257C517.441 239.255 517.738 238.267 518.065 237.291C518.391 236.314 518.769 235.358 519.194 234.42C519.622 233.483 520.059 232.549 520.467 231.605L521.696 228.772L522.948 225.949C523.793 224.071 524.636 222.191 525.51 220.324L525.669 220.386Z" fill="#F37463"/>
<path d="M523.384 217.588C523.375 217.605 523.359 217.623 523.341 217.633L523.317 217.645C523.298 217.653 523.292 217.652 523.279 217.656C523.257 217.662 523.24 217.663 523.22 217.666C523.184 217.67 523.15 217.672 523.116 217.673C523.047 217.676 522.98 217.676 522.914 217.676C522.781 217.674 522.649 217.67 522.518 217.665C522.254 217.654 521.992 217.637 521.73 217.62C521.207 217.582 520.685 217.537 520.163 217.49C519.12 217.394 518.079 217.281 517.039 217.17L513.921 216.806L510.81 216.403C509.774 216.265 508.733 216.157 507.693 216.037C506.653 215.915 505.623 215.742 504.603 215.513C503.582 215.285 502.567 215.025 501.559 214.728C500.551 214.427 499.548 214.098 498.562 213.674L498.592 213.506C499.663 213.447 500.717 213.479 501.767 213.538C502.816 213.601 503.858 213.699 504.894 213.828C505.932 213.956 506.959 214.138 507.978 214.369C508.997 214.602 510.015 214.844 511.038 215.054L514.106 215.684L517.173 216.325L520.24 216.96C520.752 217.064 521.264 217.165 521.776 217.261C522.032 217.31 522.288 217.357 522.544 217.4C522.672 217.42 522.8 217.441 522.927 217.457C522.991 217.465 523.055 217.473 523.117 217.478C523.148 217.48 523.179 217.482 523.208 217.483C523.221 217.483 523.236 217.483 523.246 217.482C523.249 217.482 523.259 217.48 523.255 217.482C523.255 217.482 523.255 217.483 523.254 217.484C523.243 217.49 523.232 217.501 523.229 217.512L523.384 217.588Z" fill="#F37463"/>
<path d="M519.896 220.441C518.806 220.642 517.713 220.81 516.621 220.98L514.982 221.22L513.341 221.434C512.794 221.504 512.248 221.605 511.703 221.696C511.156 221.784 510.608 221.821 510.055 221.803C509.503 221.786 508.949 221.737 508.392 221.652C507.836 221.563 507.278 221.445 506.713 221.233L506.703 221.063C507.238 220.785 507.778 220.601 508.32 220.446C508.862 220.294 509.406 220.179 509.952 220.097C510.499 220.013 511.048 219.984 511.601 220.006C512.154 220.031 512.706 220.066 513.258 220.069L514.913 220.085L516.569 220.127C517.674 220.165 518.779 220.201 519.886 220.27L519.896 220.441Z" fill="#F9DBC1"/>
</g>
<g opacity="0.48">
<path d="M736.227 247.994L737.234 245.895L738.254 243.802L740.294 239.616L742.354 235.442L744.437 231.28C745.133 229.893 745.801 228.492 746.478 227.095C747.158 225.7 747.883 224.329 748.655 222.983C749.429 221.638 750.225 220.305 751.064 218.994C751.897 217.68 752.76 216.382 753.704 215.128L753.855 215.209C753.343 216.693 752.749 218.134 752.126 219.559C751.507 220.987 750.848 222.393 750.165 223.787C749.48 225.179 748.749 226.547 747.973 227.891C747.193 229.233 746.405 230.57 745.645 231.923L743.358 235.977L741.049 240.019L738.719 244.05L737.554 246.066L736.378 248.075L736.227 247.994Z" fill="#FBCE69"/>
<path d="M733.507 251.71L731.869 253.138L730.222 254.556L726.929 257.391L723.621 260.208L720.297 263.005C719.188 263.936 718.099 264.892 717.003 265.84C715.905 266.784 714.775 267.69 713.612 268.553C712.449 269.415 711.268 270.257 710.059 271.062C708.853 271.872 707.626 272.655 706.341 273.366L706.234 273.232C707.213 272.138 708.251 271.117 709.309 270.121C710.363 269.122 711.447 268.159 712.547 267.216C713.648 266.275 714.782 265.375 715.948 264.516C717.116 263.659 718.29 262.809 719.445 261.936L722.913 259.319L726.397 256.722L729.894 254.143L731.643 252.854L733.401 251.575L733.507 251.71Z" fill="#FBCE69"/>
<path d="M736.383 251.608L737.456 253.766L738.517 255.929L740.638 260.255L742.737 264.591L744.813 268.937C745.503 270.386 746.223 271.822 746.932 273.264C747.639 274.705 748.299 276.169 748.911 277.653C749.521 279.139 750.108 280.635 750.651 282.15C751.199 283.663 751.718 285.19 752.151 286.754L751.995 286.824C751.115 285.46 750.319 284.058 749.554 282.642C748.783 281.229 748.055 279.796 747.351 278.353C746.649 276.909 745.995 275.443 745.388 273.956C744.784 272.468 744.188 270.976 743.565 269.496L741.699 265.056L739.857 260.604L738.035 256.144L737.125 253.914L736.227 251.678L736.383 251.608Z" fill="#FBCE69"/>
<path d="M736.273 249.854L738.483 248.886L740.697 247.931L745.125 246.02L749.561 244.132L754.007 242.267C755.49 241.648 756.962 240.998 758.437 240.358C759.913 239.722 761.408 239.133 762.921 238.593C764.437 238.055 765.96 237.542 767.502 237.072C769.042 236.597 770.593 236.153 772.179 235.795L772.241 235.954C770.834 236.768 769.394 237.495 767.941 238.192C766.491 238.894 765.023 239.551 763.546 240.185C762.067 240.817 760.57 241.399 759.054 241.935C757.537 242.467 756.016 242.989 754.507 243.54L749.977 245.191L745.437 246.817L740.889 248.421L738.614 249.223L736.335 250.013L736.273 249.854Z" fill="#FBCE69"/>
<path d="M734.732 250L732.701 248.472L730.678 246.932L726.632 243.854L722.601 240.758L718.586 237.641C717.249 236.601 715.893 235.585 714.542 234.561C713.193 233.535 711.877 232.469 710.594 231.363C709.313 230.254 708.048 229.125 706.812 227.96C705.573 226.799 704.355 225.613 703.195 224.354L703.303 224.222C704.772 225.1 706.182 226.051 707.571 227.028C708.964 228 710.326 229.008 711.673 230.037C713.018 231.067 714.329 232.139 715.609 233.249C716.886 234.363 718.158 235.484 719.449 236.581L723.319 239.877L727.172 243.192L731.01 246.525L732.929 248.192L734.84 249.869L734.732 250Z" fill="#FBCE69"/>
<path d="M732.436 242.958C731.697 242.251 730.984 241.523 730.269 240.797L729.209 239.698L728.169 238.583C727.823 238.21 727.454 237.857 727.091 237.497C726.732 237.136 726.412 236.743 726.135 236.315C725.857 235.888 725.605 235.441 725.381 234.971C725.16 234.499 724.962 234.009 724.836 233.46L724.97 233.354C725.478 233.596 725.912 233.898 726.324 234.217C726.733 234.538 727.114 234.883 727.47 235.248C727.827 235.612 728.14 236.01 728.413 236.44C728.685 236.872 728.948 237.31 729.236 237.729L730.096 238.989L730.936 240.264C731.488 241.121 732.041 241.976 732.569 242.852L732.436 242.958Z" fill="#F9DBC1"/>
<path d="M734.703 246.695C734.79 244.575 734.911 242.459 735.028 240.342L735.22 237.169L735.438 233.998C735.513 232.941 735.556 231.881 735.609 230.823C735.665 229.764 735.771 228.711 735.933 227.663C736.093 226.616 736.285 225.572 736.515 224.531C736.747 223.491 737.008 222.454 737.363 221.427L737.533 221.445C737.666 222.523 737.705 223.592 737.717 224.657C737.724 225.722 737.694 226.784 737.633 227.842C737.573 228.9 737.458 229.952 737.292 230.999C737.123 232.046 736.945 233.091 736.798 234.14L736.351 237.287L735.878 240.431C735.552 242.526 735.229 244.62 734.872 246.711L734.703 246.695Z" fill="#F37463"/>
<path d="M741.195 244.735C742.811 243.406 744.445 242.104 746.077 240.8L748.536 238.857L751.009 236.935C751.835 236.296 752.642 235.631 753.455 234.974C754.27 234.32 755.114 233.707 755.991 233.139C756.867 232.57 757.762 232.027 758.679 231.514C759.597 231.004 760.532 230.517 761.523 230.106L761.623 230.246C760.919 231.054 760.16 231.786 759.385 232.495C758.607 233.201 757.808 233.877 756.99 234.527C756.173 235.178 755.323 235.783 754.444 236.348C753.564 236.911 752.677 237.465 751.809 238.045L749.2 239.78L746.577 241.494C744.822 242.628 743.069 243.764 741.295 244.873L741.195 244.735Z" fill="#F37463"/>
<path d="M738.654 251.554L738.985 251.726L739.332 251.894L740.026 252.23L741.415 252.9L744.191 254.242L746.963 255.594L749.724 256.966C750.644 257.425 751.578 257.856 752.509 258.295C753.437 258.736 754.342 259.223 755.221 259.757C756.1 260.29 756.964 260.852 757.811 261.446C758.655 262.043 759.487 262.665 760.274 263.37L760.193 263.52C759.173 263.247 758.197 262.891 757.236 262.509C756.275 262.124 755.333 261.707 754.406 261.261C753.479 260.816 752.578 260.322 751.701 259.783C750.826 259.242 749.956 258.691 749.071 258.169L746.419 256.593L743.781 254.992L741.155 253.369C740.28 252.818 739.417 252.287 738.547 251.687L738.654 251.554Z" fill="#F37463"/>
<path d="M741.242 249.848C742.277 249.635 743.314 249.453 744.351 249.27L745.908 249.011L747.467 248.777C747.986 248.701 748.503 248.593 749.022 248.496C749.54 248.401 750.062 248.358 750.589 248.369C751.115 248.379 751.644 248.421 752.175 248.5C752.707 248.583 753.241 248.694 753.782 248.898L753.795 249.069C753.291 249.353 752.779 249.543 752.267 249.705C751.753 249.863 751.237 249.985 750.718 250.074C750.199 250.165 749.676 250.2 749.15 250.184C748.623 250.166 748.096 250.138 747.57 250.141L745.994 250.145L744.416 250.123C743.363 250.097 742.311 250.075 741.255 250.019L741.242 249.848Z" fill="#F9DBC1"/>
<path d="M740.259 254.861C741.066 255.661 741.848 256.481 742.633 257.3L743.796 258.538L744.94 259.792C745.319 260.211 745.724 260.611 746.12 261.017C746.515 261.424 746.869 261.863 747.18 262.337C747.492 262.81 747.779 263.303 748.037 263.818C748.292 264.336 748.524 264.873 748.684 265.466L748.55 265.573C748.007 265.283 747.538 264.935 747.091 264.57C746.646 264.201 746.231 263.81 745.841 263.4C745.45 262.99 745.102 262.545 744.795 262.069C744.489 261.591 744.191 261.107 743.869 260.642L742.906 259.244L741.963 257.83C741.343 256.882 740.721 255.934 740.125 254.966L740.259 254.861Z" fill="#F9DBC1"/>
<path d="M734.864 252.269C734.243 254.234 733.59 256.187 732.94 258.142L731.95 261.067L730.936 263.983C730.596 264.955 730.286 265.938 729.966 266.916C729.643 267.895 729.274 268.854 728.853 269.794C728.432 270.734 727.983 271.663 727.498 272.577C727.01 273.491 726.496 274.394 725.894 275.263L725.734 275.202C725.88 274.154 726.113 273.142 726.373 272.138C726.635 271.137 726.933 270.149 727.26 269.173C727.586 268.196 727.964 267.24 728.39 266.302C728.818 265.364 729.254 264.431 729.662 263.486L730.891 260.654L732.144 257.83C732.989 255.953 733.831 254.073 734.705 252.206L734.864 252.269Z" fill="#F37463"/>
<path d="M732.579 249.471C732.569 249.488 732.553 249.505 732.536 249.516L732.512 249.527C732.493 249.535 732.486 249.535 732.474 249.539C732.451 249.544 732.434 249.545 732.416 249.548C732.379 249.552 732.345 249.554 732.311 249.556C732.242 249.558 732.176 249.558 732.109 249.558C731.976 249.557 731.844 249.553 731.713 249.547C731.449 249.536 731.187 249.52 730.925 249.502C730.402 249.464 729.88 249.419 729.359 249.372C728.315 249.276 727.275 249.164 726.234 249.052L723.117 248.688L720.006 248.285C718.97 248.147 717.928 248.039 716.888 247.919C715.849 247.797 714.819 247.625 713.798 247.395C712.778 247.168 711.762 246.908 710.754 246.611C709.746 246.31 708.743 245.98 707.758 245.556L707.787 245.388C708.858 245.329 709.913 245.361 710.962 245.42C712.011 245.483 713.053 245.582 714.09 245.71C715.127 245.838 716.154 246.02 717.174 246.251C718.192 246.484 719.21 246.726 720.233 246.936L723.301 247.565L726.368 248.207L729.436 248.841C729.947 248.945 730.459 249.047 730.971 249.142C731.227 249.191 731.483 249.238 731.739 249.281C731.867 249.302 731.995 249.322 732.123 249.339C732.186 249.347 732.25 249.355 732.312 249.36C732.343 249.363 732.374 249.364 732.403 249.365C732.416 249.365 732.432 249.365 732.441 249.363C732.445 249.363 732.455 249.362 732.451 249.363C732.451 249.363 732.45 249.364 732.449 249.365C732.438 249.371 732.428 249.382 732.424 249.394L732.579 249.471Z" fill="#F37463"/>
<path d="M729.092 252.324C728.001 252.525 726.909 252.693 725.816 252.863L724.177 253.103L722.536 253.317C721.989 253.387 721.444 253.488 720.898 253.579C720.352 253.667 719.803 253.704 719.251 253.686C718.698 253.67 718.144 253.62 717.588 253.535C717.031 253.446 716.473 253.328 715.909 253.117L715.898 252.946C716.433 252.668 716.973 252.484 717.515 252.329C718.057 252.177 718.601 252.063 719.148 251.98C719.694 251.896 720.244 251.867 720.796 251.889C721.349 251.914 721.902 251.949 722.453 251.952L724.108 251.968L725.765 252.01C726.869 252.048 727.974 252.085 729.081 252.153L729.092 252.324Z" fill="#F9DBC1"/>
</g>
<g opacity="0.48">
<path d="M658.784 196.312L661.795 196.215L664.807 196.135L670.829 195.976L676.851 195.847L682.873 195.751C684.881 195.722 686.889 195.652 688.896 195.595C690.903 195.542 692.91 195.555 694.916 195.637C696.923 195.721 698.929 195.839 700.934 196.019C702.939 196.19 704.944 196.404 706.949 196.74L706.947 196.961C704.937 197.26 702.929 197.438 700.92 197.575C698.912 197.719 696.904 197.801 694.897 197.85C692.889 197.896 690.883 197.874 688.876 197.785C686.87 197.692 684.863 197.586 682.857 197.522L676.838 197.319L670.819 197.083L664.8 196.818L661.791 196.685L658.781 196.534L658.784 196.312Z" fill="#FBCE69"/>
<path d="M652.892 195.409L650.274 194.382L647.663 193.339L642.441 191.253L637.231 189.139L632.035 186.995C630.303 186.278 628.556 185.598 626.813 184.907C625.073 184.212 623.359 183.456 621.673 182.637C619.988 181.816 618.317 180.964 616.67 180.057C615.02 179.156 613.388 178.216 611.805 177.166L611.895 176.964C613.736 177.434 615.527 178.015 617.301 178.634C619.079 179.247 620.832 179.915 622.57 180.615C624.309 181.316 626.019 182.081 627.702 182.905C629.383 183.734 631.06 184.574 632.752 185.378L637.828 187.795L642.89 190.242L647.94 192.716L650.465 193.954L652.982 195.207L652.892 195.409Z" fill="#FBCE69"/>
<path d="M654.727 198.647L652.891 201.168L651.042 203.677L647.343 208.696L643.622 213.696L639.874 218.675C638.623 220.333 637.403 222.017 636.174 223.692C634.941 225.365 633.656 226.997 632.317 228.586C630.977 230.174 629.609 231.741 628.194 233.269C626.785 234.803 625.343 236.31 623.806 237.742L623.633 237.605C624.672 235.78 625.806 234.029 626.974 232.305C628.136 230.576 629.345 228.885 630.582 227.214C631.82 225.546 633.112 223.919 634.455 222.334C635.802 220.752 637.159 219.178 638.485 217.578L642.467 212.784L646.476 208.01L650.507 203.255L652.524 200.878L654.553 198.512L654.727 198.647Z" fill="#FBCE69"/>
<path d="M656.678 197.475L659.109 199.433L661.528 201.403L666.366 205.345L671.184 209.309L675.981 213.298C677.578 214.63 679.202 215.931 680.817 217.242C682.429 218.556 683.998 219.92 685.522 221.335C687.045 222.752 688.544 224.195 690.004 225.684C691.469 227.167 692.906 228.683 694.263 230.289L694.118 230.455C692.343 229.327 690.648 228.108 688.98 226.856C687.308 225.611 685.676 224.319 684.066 223.002C682.458 221.683 680.895 220.312 679.375 218.892C677.858 217.468 676.35 216.034 674.815 214.632L670.215 210.418L665.637 206.179L661.078 201.917L658.799 199.786L656.531 197.642L656.678 197.475Z" fill="#FBCE69"/>
<path d="M655.586 195.791L656.127 192.546L656.685 189.305L657.802 182.823L658.948 176.346L660.127 169.877C660.522 167.72 660.877 165.556 661.245 163.394C661.618 161.233 662.055 159.086 662.56 156.952C663.066 154.819 663.606 152.692 664.206 150.578C664.798 148.463 665.432 146.356 666.184 144.273L666.401 144.318C666.27 146.528 666.02 148.715 665.73 150.892C665.447 153.071 665.103 155.238 664.727 157.398C664.348 159.558 663.902 161.704 663.391 163.836C662.877 165.967 662.349 168.096 661.861 170.233L660.39 176.643L658.886 183.046L657.354 189.443L656.587 192.642L655.804 195.837L655.586 195.791Z" fill="#FBCE69"/>
<path d="M662.297 188.953C662.667 187.683 663.077 186.43 663.483 185.175L664.111 183.302L664.77 181.442C664.992 180.823 665.177 180.188 665.374 179.558C665.573 178.929 665.833 178.327 666.159 177.754C666.483 177.18 666.845 176.623 667.251 176.085C667.661 175.55 668.105 175.028 668.66 174.557L668.863 174.646C668.888 175.374 668.801 176.053 668.681 176.717C668.557 177.379 668.388 178.022 668.183 178.648C667.978 179.275 667.708 179.872 667.377 180.443C667.044 181.013 666.698 181.577 666.389 182.158L665.457 183.897L664.495 185.623C663.841 186.768 663.19 187.915 662.5 189.044L662.297 188.953Z" fill="#F9DBC1"/>
<path d="M659.359 193.781C661.845 192.615 664.345 191.488 666.845 190.359L670.602 188.684L674.371 187.04C675.629 186.494 676.871 185.91 678.118 185.339C679.366 184.771 680.639 184.264 681.938 183.823C683.236 183.382 684.549 182.979 685.88 182.62C687.213 182.266 688.559 181.946 689.95 181.739L690.031 181.945C688.873 182.742 687.67 183.425 686.453 184.075C685.235 184.72 683.999 185.32 682.749 185.882C681.498 186.445 680.222 186.942 678.921 187.377C677.619 187.809 676.312 188.229 675.02 188.687L671.142 190.053L667.251 191.388C664.652 192.266 662.054 193.146 659.441 193.987L659.359 193.781Z" fill="#F37463"/>
<path d="M665.491 200.064C667.981 201.125 670.451 202.223 672.923 203.318L676.622 204.979L680.306 206.669C681.533 207.235 682.778 207.764 684.017 208.306C685.255 208.85 686.463 209.453 687.639 210.12C688.816 210.786 689.973 211.489 691.11 212.234C692.244 212.984 693.362 213.766 694.424 214.657L694.325 214.855C692.977 214.53 691.683 214.096 690.406 213.63C689.131 213.159 687.878 212.646 686.643 212.095C685.408 211.546 684.205 210.933 683.031 210.261C681.859 209.587 680.694 208.899 679.509 208.249L675.959 206.292L672.425 204.305C670.074 202.968 667.723 201.635 665.391 200.262L665.491 200.064Z" fill="#F37463"/>
<path d="M656.142 201.218V201.7L656.155 202.199L656.185 203.195L656.245 205.19L656.364 209.18L656.467 213.169L656.542 217.158C656.565 218.488 656.629 219.818 656.681 221.149C656.729 222.479 656.712 223.808 656.623 225.136C656.536 226.464 656.407 227.791 656.231 229.117C656.051 230.443 655.834 231.769 655.495 233.092L655.274 233.089C654.978 231.755 654.804 230.422 654.668 229.091C654.536 227.759 654.453 226.428 654.411 225.098C654.367 223.767 654.396 222.438 654.49 221.11C654.589 219.782 654.701 218.455 654.772 217.126L654.996 213.141L655.257 209.157L655.552 205.173C655.662 203.84 655.755 202.532 655.924 201.175L656.142 201.218Z" fill="#F37463"/>
<path d="M659.65 203.169C660.514 204.229 661.342 205.311 662.171 206.392L663.399 208.024L664.598 209.674C664.996 210.224 665.428 210.754 665.849 211.291C666.267 211.829 666.63 212.402 666.931 213.013C667.233 213.623 667.501 214.255 667.728 214.912C667.95 215.572 668.142 216.251 668.23 216.994L668.042 217.111C667.415 216.703 666.892 216.23 666.4 215.737C665.911 215.242 665.464 214.722 665.051 214.181C664.637 213.639 664.284 213.061 663.988 212.446C663.694 211.831 663.412 211.209 663.094 210.607L662.148 208.801L661.23 206.977C660.63 205.753 660.027 204.532 659.461 203.287L659.65 203.169Z" fill="#F9DBC1"/>
<path d="M653.303 205.034C652.867 206.439 652.393 207.826 651.922 209.216L651.196 211.291L650.44 213.352C650.186 214.038 649.969 214.741 649.74 215.438C649.507 216.134 649.215 216.804 648.857 217.443C648.501 218.084 648.107 218.708 647.669 219.312C647.227 219.914 646.75 220.502 646.163 221.039L645.961 220.949C645.969 220.153 646.088 219.407 646.24 218.675C646.398 217.945 646.599 217.235 646.836 216.542C647.074 215.848 647.377 215.183 647.739 214.545C648.105 213.909 648.483 213.278 648.823 212.63L649.852 210.691L650.911 208.764C651.63 207.486 652.345 206.206 653.1 204.943L653.303 205.034Z" fill="#F9DBC1"/>
<path d="M653.058 197.3C650.431 197.76 647.8 198.179 645.168 198.6L641.218 199.211L637.266 199.79C635.948 199.98 634.634 200.211 633.319 200.429C632.003 200.643 630.681 200.792 629.351 200.87C628.02 200.95 626.686 200.987 625.347 200.978C624.007 200.964 622.663 200.913 621.305 200.741L621.281 200.521C622.57 200.062 623.872 199.725 625.178 199.424C626.484 199.127 627.797 198.879 629.112 198.671C630.428 198.462 631.752 198.324 633.082 198.252C634.413 198.183 635.746 198.127 637.074 198.031L641.059 197.749L645.048 197.501C647.709 197.349 650.369 197.193 653.034 197.08L653.058 197.3Z" fill="#F37463"/>
<path d="M654.906 193.009C654.881 193.008 654.851 193 654.829 192.987L654.801 192.966C654.781 192.948 654.777 192.941 654.766 192.929C654.746 192.906 654.734 192.888 654.719 192.867C654.693 192.828 654.67 192.79 654.648 192.752C654.604 192.675 654.564 192.598 654.524 192.522C654.446 192.369 654.373 192.215 654.3 192.06C654.156 191.751 654.018 191.441 653.881 191.13C653.613 190.506 653.353 189.88 653.095 189.253C652.581 187.999 652.089 186.737 651.596 185.476L650.151 181.68L648.755 177.869C648.294 176.597 647.796 175.337 647.312 174.072C646.832 172.806 646.415 171.52 646.068 170.212C645.719 168.904 645.412 167.583 645.15 166.248C644.894 164.912 644.673 163.564 644.57 162.18L644.781 162.113C645.489 163.307 646.082 164.536 646.64 165.776C647.195 167.018 647.704 168.273 648.176 169.54C648.649 170.807 649.054 172.096 649.398 173.403C649.739 174.712 650.068 176.024 650.439 177.324L651.549 181.222L652.644 185.125L653.749 189.025C653.935 189.674 654.125 190.322 654.321 190.967C654.418 191.29 654.516 191.612 654.62 191.932C654.673 192.092 654.726 192.25 654.783 192.407C654.812 192.485 654.841 192.563 654.872 192.637C654.888 192.674 654.905 192.71 654.922 192.744C654.93 192.758 654.939 192.777 654.946 192.787C654.948 192.791 654.955 192.802 654.952 192.798C654.952 192.798 654.95 192.798 654.948 192.798C654.936 192.789 654.917 192.784 654.901 192.787L654.906 193.009Z" fill="#F37463"/>
<path d="M649.551 190.705C648.669 189.573 647.824 188.42 646.975 187.268L645.721 185.53L644.495 183.774C644.088 183.188 643.647 182.623 643.216 182.05C642.789 181.476 642.418 180.868 642.108 180.224C641.798 179.58 641.522 178.914 641.288 178.225C641.059 177.533 640.86 176.821 640.766 176.048L640.955 175.935C641.593 176.382 642.127 176.893 642.629 177.421C643.127 177.953 643.584 178.509 644.006 179.087C644.428 179.664 644.79 180.278 645.094 180.925C645.396 181.574 645.687 182.23 646.012 182.865L646.982 184.774L647.923 186.7C648.539 187.992 649.158 189.281 649.74 190.592L649.551 190.705Z" fill="#F9DBC1"/>
</g>
<g opacity="0.48">
<path d="M703.778 113.497L709.131 116.319L714.468 119.171L725.139 124.875L735.781 130.631L746.389 136.445C749.922 138.387 753.497 140.259 757.058 142.153C760.615 144.055 764.106 146.072 767.527 148.207C770.946 150.347 774.33 152.546 777.654 154.85C780.984 157.142 784.272 159.508 787.438 162.082L787.215 162.467C783.409 160.993 779.725 159.31 776.084 157.552C772.436 155.808 768.849 153.958 765.296 152.049C761.745 150.136 758.264 148.104 754.849 145.956C751.439 143.801 748.042 141.625 744.603 139.518L734.297 133.186L724.023 126.795L713.78 120.354L708.658 117.132L703.555 113.88L703.778 113.497Z" fill="#FBCE69"/>
<path d="M694.39 106.069L690.839 101.676L687.317 97.2616L680.272 88.4323L673.277 79.5673L666.334 70.6627C664.024 67.6916 661.648 64.7688 659.293 61.8306C656.946 58.8871 654.704 55.8656 652.574 52.7614C650.448 49.6546 648.377 46.5075 646.404 43.2877C644.419 40.0768 642.503 36.8147 640.781 33.4096L641.139 33.1455C643.885 35.7948 646.436 38.5878 648.919 41.432C651.413 44.2674 653.809 47.1746 656.15 50.1229C658.488 53.0739 660.714 56.1068 662.833 59.2183C664.946 62.3352 667.038 65.4676 669.195 68.5516L675.655 77.8123L682.06 87.1127L688.419 96.4479L691.597 101.116L694.747 105.805L694.39 106.069Z" fill="#FBCE69"/>
<path d="M694.375 113.545L688.667 116.122L682.947 118.666L671.506 123.753L660.042 128.785L648.553 133.755C644.721 135.407 640.921 137.135 637.11 138.838C633.297 140.534 629.433 142.107 625.517 143.551C621.6 144.992 617.658 146.368 613.669 147.632C609.686 148.91 605.671 150.108 601.565 151.082L601.398 150.67C605.027 148.515 608.746 146.585 612.497 144.735C616.243 142.871 620.034 141.12 623.851 139.432C627.67 137.749 631.54 136.193 635.461 134.76C639.384 133.336 643.318 131.935 647.22 130.459L658.934 126.045L670.673 121.692L682.433 117.395L688.315 115.248L694.208 113.132L694.375 113.545Z" fill="#FBCE69"/>
<path d="M698.942 113.432L701.241 119.264L703.507 125.107L708.037 136.794L712.511 148.5L716.922 160.229C718.387 164.14 719.931 168.024 721.448 171.917C722.958 175.813 724.343 179.752 725.597 183.737C726.848 187.724 728.033 191.733 729.103 195.782C730.188 199.826 731.191 203.898 731.966 208.05L731.546 208.197C729.568 204.464 727.82 200.652 726.152 196.812C724.471 192.976 722.904 189.1 721.402 185.201C719.904 181.301 718.537 177.356 717.295 173.367C716.062 169.375 714.852 165.374 713.566 161.4L709.722 149.474L705.94 137.526L702.215 125.558L700.353 119.574L698.523 113.579L698.942 113.432Z" fill="#FBCE69"/>
<path d="M698.711 109.412L702.879 104.285L707.073 99.1801L715.461 88.9728L723.895 78.8043L732.378 68.6802C735.21 65.3087 737.98 61.8834 740.77 58.4755C743.567 55.073 746.462 51.7586 749.462 48.5342C752.466 45.3131 755.52 42.1378 758.667 39.0423C761.802 35.9375 765.002 32.8885 768.384 30L768.718 30.2929C766.293 34.022 763.687 37.591 761.016 41.1037C758.357 44.6264 755.606 48.0679 752.802 51.465C749.996 54.8587 747.086 58.1611 744.076 61.3767C741.06 64.5864 738.024 67.7785 735.05 71.0251L726.116 80.7541L717.132 90.4388L708.102 100.085L703.587 104.907L699.046 109.706L698.711 109.412Z" fill="#FBCE69"/>
<path d="M717.227 104.142C719.135 102.292 721.095 100.511 723.05 98.724L726.008 96.0774L729.005 93.4846C730.007 92.6246 730.961 91.6987 731.93 90.7937C732.903 89.8947 733.955 89.1012 735.092 88.4239C736.228 87.7446 737.414 87.1319 738.656 86.5957C739.904 86.0676 741.196 85.5993 742.634 85.3271L742.899 85.6846C742.219 86.98 741.394 88.0799 740.525 89.1193C739.65 90.1513 738.718 91.1061 737.737 91.9943C736.757 92.8846 735.692 93.6593 734.547 94.3278C733.399 94.991 732.235 95.6327 731.12 96.3402L727.765 98.4506L724.371 100.508C722.091 101.856 719.816 103.212 717.49 104.497L717.227 104.142Z" fill="#F9DBC1"/>
<path d="M707.298 109.651C712.794 110.084 718.279 110.601 723.764 111.112L731.987 111.92L740.2 112.793C742.937 113.089 745.685 113.304 748.43 113.546C751.174 113.794 753.899 114.173 756.604 114.694C759.309 115.213 762.002 115.813 764.682 116.509C767.36 117.215 770.028 117.994 772.661 119.014L772.598 119.454C769.784 119.695 767.005 119.693 764.236 119.618C761.469 119.534 758.716 119.354 755.974 119.093C753.232 118.834 750.51 118.432 747.806 117.9C745.104 117.361 742.405 116.796 739.696 116.312L731.568 114.844L723.449 113.311C718.041 112.262 712.632 111.219 707.234 110.091L707.298 109.651Z" fill="#F37463"/>
<path d="M711.761 126.709C715.054 131.033 718.277 135.404 721.505 139.771L726.313 146.344L731.065 152.955C732.645 155.162 734.293 157.322 735.919 159.498C737.539 161.678 739.049 163.93 740.439 166.263C741.831 168.593 743.155 170.97 744.399 173.4C745.634 175.835 746.807 178.312 747.778 180.923L747.407 181.169C745.376 179.262 743.549 177.221 741.782 175.138C740.024 173.049 738.346 170.908 736.737 168.722C735.126 166.536 733.635 164.271 732.254 161.933C730.878 159.591 729.525 157.234 728.103 154.922L723.851 147.98L719.654 141C716.879 136.331 714.099 131.667 711.391 126.955L711.761 126.709Z" fill="#F37463"/>
<path d="M694.296 119.44L693.817 120.282L693.346 121.165L692.408 122.935L690.532 126.477L686.776 133.56L682.994 140.627L679.163 147.666C677.883 150.01 676.673 152.396 675.442 154.769C674.204 157.139 672.854 159.442 671.381 161.672C669.909 163.903 668.367 166.092 666.743 168.233C665.11 170.369 663.414 172.467 661.508 174.443L661.125 174.217C661.934 171.594 662.954 169.096 664.039 166.635C665.132 164.179 666.308 161.773 667.556 159.409C668.801 157.043 670.172 154.752 671.656 152.527C673.147 150.307 674.661 148.1 676.105 145.852L680.454 139.118L684.868 132.422L689.339 125.76C690.856 123.541 692.317 121.352 693.96 119.15L694.296 119.44Z" fill="#F37463"/>
<path d="M698.477 126.325C698.932 129.033 699.301 131.745 699.677 134.455L700.199 138.523L700.655 142.594C700.802 143.951 701.031 145.305 701.233 146.659C701.428 148.015 701.492 149.375 701.411 150.74C701.333 152.106 701.173 153.475 700.916 154.848C700.65 156.22 700.309 157.596 699.725 158.981L699.28 158.998C698.592 157.662 698.148 156.316 697.777 154.967C697.417 153.618 697.152 152.266 696.97 150.91C696.785 149.555 696.745 148.194 696.836 146.827C696.934 145.461 697.059 144.093 697.102 142.729L697.246 138.635L697.456 134.539C697.624 131.807 697.786 129.076 698.032 126.341L698.477 126.325Z" fill="#F9DBC1"/>
<path d="M685.548 123.283C683.392 125.304 681.186 127.255 678.983 129.212L675.655 132.114L672.287 134.962C671.162 135.907 670.085 136.919 668.992 137.908C667.895 138.893 666.721 139.771 665.46 140.533C664.202 141.297 662.894 141.994 661.529 142.614C660.158 143.226 658.744 143.779 657.185 144.135L656.922 143.777C657.727 142.395 658.675 141.21 659.669 140.084C660.668 138.966 661.723 137.926 662.828 136.952C663.931 135.977 665.12 135.117 666.386 134.364C667.657 133.616 668.943 132.89 670.182 132.098L673.905 129.733L677.667 127.422C680.192 125.904 682.712 124.38 685.284 122.926L685.548 123.283Z" fill="#F9DBC1"/>
<path d="M692.804 109.538C687.76 107.733 682.751 105.849 677.738 103.971L670.235 101.116L662.76 98.2002C660.27 97.2232 657.748 96.3215 655.235 95.3963C652.726 94.4638 650.269 93.4109 647.87 92.2257C645.469 91.0425 643.102 89.784 640.773 88.4362C638.447 87.0803 636.152 85.6566 633.953 84.0084L634.13 83.6006C636.836 84.0803 639.444 84.7838 642.023 85.5551C644.598 86.3352 647.134 87.2039 649.638 88.1486C652.143 89.0906 654.591 90.165 656.986 91.3603C659.378 92.5623 661.759 93.7885 664.174 94.9388L671.411 98.4051L678.622 101.933C683.418 104.31 688.217 106.681 692.981 109.131L692.804 109.538Z" fill="#F37463"/>
<path d="M700.294 103.881C700.25 103.854 700.207 103.81 700.181 103.765L700.155 103.701C700.136 103.651 700.137 103.635 700.13 103.602C700.119 103.542 700.117 103.498 700.111 103.448C700.104 103.354 700.102 103.264 700.102 103.175C700.1 102.998 700.107 102.825 700.114 102.652C700.13 102.307 700.154 101.965 700.181 101.623C700.236 100.941 700.303 100.262 700.374 99.5833C700.524 98.2281 700.692 96.8762 700.865 95.5257C701.215 92.8254 701.609 90.1338 702 87.4422L703.248 79.3815L704.597 71.3409C705.056 68.6628 705.438 65.9685 705.849 63.2802C706.267 60.5933 706.817 57.934 707.51 55.3055C708.201 52.6764 708.974 50.0654 709.844 47.4753C710.724 44.8871 711.677 42.3151 712.873 39.7969L713.307 39.8909C713.357 42.6773 713.171 45.4126 712.915 48.1324C712.649 50.8502 712.292 53.5472 711.857 56.228C711.424 58.9089 710.851 61.5602 710.154 64.1853C709.449 66.8083 708.721 69.4274 708.077 72.0639L706.143 79.9727L704.179 87.8749L702.234 95.7804C701.913 97.0986 701.6 98.4182 701.302 99.7392C701.151 100.399 701.003 101.06 700.867 101.721C700.8 102.052 700.735 102.382 700.679 102.712C700.652 102.877 700.626 103.042 700.607 103.203C700.598 103.283 700.59 103.363 700.586 103.439C700.586 103.473 700.584 103.515 700.586 103.539C700.586 103.547 700.587 103.574 700.586 103.564C700.586 103.564 700.583 103.562 700.579 103.56C700.567 103.531 700.538 103.503 700.508 103.492L700.294 103.881Z" fill="#F37463"/>
<path d="M693.229 94.5369C692.813 91.6854 692.483 88.8319 692.146 85.9784L691.682 81.6971L691.285 77.4144C691.158 75.9866 690.949 74.5609 690.766 73.1344C690.591 71.708 690.546 70.2782 690.646 68.8457C690.744 67.4133 690.924 65.9781 691.201 64.5416C691.487 63.1044 691.846 61.6659 692.451 60.222L692.895 60.2119C693.564 61.6269 693.989 63.048 694.34 64.4704C694.682 65.8934 694.927 67.3179 695.089 68.745C695.254 70.1714 695.275 71.6019 695.164 73.035C695.047 74.4682 694.901 75.902 694.84 77.3338L694.637 81.6299L694.369 85.9273C694.161 88.7929 693.961 91.6585 693.675 94.5262L693.229 94.5369Z" fill="#F9DBC1"/>
</g>
<path d="M694.227 395.1C691.09 399.452 688.174 402.075 686.41 400.174C685.556 399.258 685.092 397.362 685.826 395.362C686.608 393.233 688.667 390.953 690.292 388.436C693.199 383.928 696.125 379.352 697.893 381.244C699.65 383.143 697.364 390.74 694.227 395.1Z" fill="#FADBBF"/>
<path d="M686.434 394.056C686.434 394.056 678.656 399.565 680.111 401.126C681.104 402.2 688.636 401.304 688.937 401.099C690.942 399.722 693.176 396.829 695.991 394.698C699.745 391.855 698.134 386.938 698.235 385.833C689.267 397.337 686.413 394.238 686.434 394.056Z" fill="#1C1C2B"/>
<path d="M697.62 400.896L696.378 400.826L695.75 390.971L698.232 385.834L697.62 400.896Z" fill="#1C1C2B"/>
<path d="M735.938 391.336C736.571 396.721 735.254 401.156 732.081 401.007C728.903 400.866 728.026 396.189 728 390.815C727.989 388.542 728.408 386.505 728.604 384.919C728.89 382.609 728.992 381.507 732.045 381.546C734.553 381.578 735.115 382.486 735.312 384.212C735.513 385.935 735.629 388.681 735.938 391.336Z" fill="#FADBBF"/>
<path d="M735.998 391.855C735.948 391.405 735.929 391.13 735.929 391.13C735.796 397.922 734.382 399.137 731.984 399.137C729.24 399.137 728.127 397.922 728.017 391.619C728.017 391.586 727.891 393.435 727.891 393.88C727.891 398.854 728.394 404.65 731.13 404.714C731.628 404.731 732.002 404.711 732.468 404.711C735.681 404.781 736.328 394.838 735.998 391.855Z" fill="#1C1C2B"/>
<path d="M748.038 237.189C748.038 237.189 750.007 246.342 750.007 256.213C750.007 270.867 742.966 314.224 742.966 314.224C742.966 314.224 741.56 339.886 740.752 348.402C739.9 357.396 735.586 387.338 735.586 387.338L728.372 386.623C728.372 386.623 727.163 351.259 727.925 339.856C728.284 334.492 728.661 317.342 728.661 317.342C728.661 317.342 724.867 261.52 724.867 237.188L748.038 237.189Z" fill="#FADBBF"/>
<path d="M701.088 313.093C701.088 313.093 696.822 331.36 695.794 338.746C693.961 351.916 693.133 384.188 693.133 384.188L698.419 384.722C698.419 384.722 706.921 356.647 709.364 344.609C710.948 336.801 715.28 314.222 715.28 314.222C715.28 314.222 724.759 272.922 731.925 237.188L704.798 238.032C700.04 258.548 703.577 267.253 703.31 278.114C702.818 298.049 701.088 313.093 701.088 313.093Z" fill="#FADBBF"/>
<path d="M715.089 118.726C718.634 112.211 731.605 114.015 737.519 117.311C739.79 118.576 748.754 124.378 755.459 148.296C757.996 157.347 760.803 160.664 765.244 164.604C771.182 169.874 774.666 168.529 779.922 172.759C788.033 179.284 791.015 191.551 789.708 201.57C787.464 218.761 772.896 227.004 770.682 228.206C757.769 235.222 738.907 235.33 730.998 226.032C722.525 216.068 732.424 202.117 722.3 192.328C717.008 187.209 711.288 188.11 705.993 180.911C704.219 178.501 699.231 172.406 701.1 167.321C702.834 162.601 708.533 163.877 712.516 157.535C714.534 154.32 716.084 150.659 714.267 146.852C712.927 144.044 709.439 142.098 708.246 137.888C706.224 130.764 707.575 118.759 715.089 118.726Z" fill="url(#paint0_linear_1227_25364)"/>
<path d="M718.469 159.614L718.576 150.118C718.628 145.625 721.464 142.033 724.909 142.103C728.36 142.164 731.12 145.859 731.067 150.357L730.962 159.848C730.908 164.342 727.832 165.269 724.655 165.21C721.684 165.157 718.424 164.811 718.469 159.614Z" fill="#F6C9A3"/>
<path d="M773.871 92.3029C773.237 96.5063 775.326 100.307 778.536 100.792C781.748 101.278 784.865 98.2618 785.5 94.0583C786.134 89.8549 784.045 86.0526 780.835 85.5688C777.623 85.0835 774.506 88.0994 773.871 92.3029Z" fill="#FADBBF"/>
<path d="M776.225 96.4385L780.514 99.5434L776.178 112.133L769.664 108.978C773.11 102.262 776.225 96.4385 776.225 96.4385Z" fill="#FADBBF"/>
<path d="M748.949 179.726C761.002 169.588 778.366 114.423 780.663 103.613L772.632 100.384C772.632 100.384 750.302 153.392 743.12 160.504C735.511 168.034 743.414 184.381 748.949 179.726Z" fill="#7261EB"/>
<path d="M744.854 226.2C743.793 213.334 751.627 189.966 748.658 178.334C747.153 172.443 734.172 158.8 734.172 158.8C734.218 157.142 734.332 156.791 733.318 156.145C731.171 154.776 731.153 157.566 729.519 157.731C727.836 157.899 727.097 156.254 724.76 156.294C722.911 156.323 722.935 158.394 720.528 158.308C718.073 158.213 718.036 155.318 716.206 156.441C715.43 156.925 715.261 157.653 715.368 159.459C715.368 159.459 713.422 162.565 711.241 166.424C708.806 170.736 705.987 175.972 705.443 178.907C702.774 193.313 709.359 204.5 707.426 225.032C707.312 226.237 706.691 228.553 706.015 230.952H746.178C745.508 229.07 744.945 227.294 744.854 226.2Z" fill="#7261EB"/>
<path d="M681.742 89.7853C682.376 93.9888 680.287 97.791 677.077 98.2747C673.865 98.7601 670.748 95.7443 670.113 91.5408C669.479 87.3373 671.568 83.5367 674.778 83.0513C677.988 82.5659 681.108 85.5818 681.742 89.7853Z" fill="#FADBBF"/>
<path d="M679.389 93.9209L675.102 97.0258L679.438 109.615L685.952 106.46C682.504 99.744 679.389 93.9209 679.389 93.9209Z" fill="#FADBBF"/>
<path d="M706.406 177.228C694.354 167.09 678.305 112.974 676.008 102.164L684.039 98.9346C684.039 98.9346 708.191 152.345 715.373 159.458C722.984 166.99 711.941 181.883 706.406 177.228Z" fill="#7261EB"/>
<path d="M746.185 230.951H706.022C704.953 234.255 699.456 266.996 700.686 275.295C703.236 292.507 700.811 303.494 700.811 303.494C719.935 307.837 736.357 303.494 736.357 303.494C736.357 303.494 740.533 288.03 743.899 266.466C743.899 266.466 741.967 294.468 740.291 303.494C740.184 304.067 742.96 303.494 742.96 303.494C742.964 303.447 742.965 303.42 742.965 303.42C742.965 303.42 751.82 270.221 751.82 257.468C751.822 250.684 747.494 234.152 746.185 230.951Z" fill="#373791"/>
<path d="M714.514 147.435C715.924 151.033 714.429 154.487 712.512 157.536C708.534 163.875 702.833 162.601 701.101 167.319C699.79 170.885 701.845 174.943 703.811 177.88C703.219 172.777 704.408 170.018 705.819 168.408C707.472 166.522 708.893 166.829 711.815 163.76C714.975 160.437 716.279 156.961 716.913 155.217C717.426 153.806 717.822 152.724 718.044 151.789C716.484 150.763 715.339 149.268 714.514 147.435Z" fill="#541E0F"/>
<path d="M734.938 134.508C734.818 144.463 732.655 153.294 723.518 153.281C714.234 153.268 712.409 144.068 712.529 134.115C712.649 124.161 717.619 119.731 723.808 119.838C729.996 119.946 735.059 124.554 734.938 134.508Z" fill="#F6C9A3"/>
<path d="M732.343 138.44C733.086 137.033 732.597 135.489 731.798 135.228C730.999 134.963 729.665 134.56 729.67 136.893C729.673 138.485 729.219 141.124 729.219 141.124C729.219 141.124 731.515 140.01 732.343 138.44Z" fill="#F6C9A3"/>
<path d="M714.857 148.54C714.836 148.492 714.754 148.28 714.641 147.966C714.712 148.129 714.777 148.286 714.83 148.448C714.848 148.497 714.857 148.524 714.857 148.54Z" fill="#541E0F"/>
<path d="M789.862 193.745C789.482 189.228 788.28 184.675 786.215 180.682C786.218 180.677 786.22 180.675 786.223 180.669C786.17 180.614 785.181 177.357 779.48 172.475C777.032 170.38 773.595 169.362 770.657 168.094C770.646 168.094 770.641 168.089 770.636 168.089C768.89 167.33 767.025 166.288 764.818 164.337C764.813 164.332 764.806 164.325 764.806 164.325C763.137 162.845 761.705 161.457 760.425 159.819C759.692 158.881 759.014 157.862 758.37 156.695C758.359 156.674 758.349 156.651 758.338 156.63C758.321 156.603 758.305 156.571 758.289 156.538C757.097 154.347 756.034 151.642 755.014 148.013C751.777 136.456 748.013 129.136 744.732 124.51C741.218 119.553 738.252 117.683 737.081 117.027C735.508 116.154 733.756 115.471 731.918 114.977C726.815 113.622 717.6 113.101 714.651 118.443C714.45 118.416 714.254 118.406 714.06 118.406C710.606 118.406 708.095 122.375 707.385 126.763C706.799 130.347 706.815 134.128 707.802 137.608C707.878 137.868 707.97 138.113 708.046 138.357C708.881 141.046 712.835 144.551 714.207 147.685C713.769 146.486 712.835 143.73 712.7 142.229C712.591 141.009 712.298 139.805 712.217 138.542V138.52C712.044 137.28 712.017 136.037 712.093 134.953C712.19 133.717 712.418 132.691 712.717 132.128C713.091 131.422 713.976 128.544 714.583 125.706C714.719 125.083 715.434 124.8 715.96 125.158C718.123 126.654 717.604 128.716 721.192 131.264C725.059 134.013 729.625 135.071 729.625 135.071C730.368 135.678 730.64 134.453 729.289 139.501C727.808 145.044 728.449 149.642 730.064 154.393C731.533 158.731 734.321 162.879 739.288 166.46C741.81 168.277 744.889 169.946 748.643 171.422C751.295 172.462 753.264 172.614 755.166 172.485C758.383 172.268 761.425 171.254 767.287 172.339C771.943 173.2 783.084 180.117 785.165 182.083C789.066 185.767 789.75 193.522 789.865 193.766V193.745H789.862Z" fill="#541E0F"/>
<path d="M593.012 150.253C594.654 151.641 594.187 154.895 591.967 157.523C589.748 160.15 586.616 161.154 584.973 159.766C583.331 158.377 583.798 155.123 586.018 152.496C588.239 149.87 591.369 148.865 593.012 150.253Z" fill="#FADBBF"/>
<path d="M580.375 163.72L584.348 157.5L588.999 159.857L582.852 166.1L580.375 163.72Z" fill="#FADBBF"/>
<path d="M525.445 202.06C525.445 202.06 530.067 186.681 532.398 186.233C543.3 184.136 550.14 185.743 558.391 182.129C565.176 179.156 581.297 158.345 581.297 158.345L586.834 163.594C586.834 163.594 571.355 185.853 564.786 190.74C552.547 199.842 536.638 204.957 536.638 204.957L525.445 202.06Z" fill="#E1DBFF"/>
<path d="M569.588 388.129L546.43 388.621C546.43 388.621 546.453 389.904 547.037 390.069C555.08 392.328 565.536 393.985 569.096 391.041C570.184 390.137 569.588 388.129 569.588 388.129Z" fill="#121833"/>
<path d="M547.035 381.332C546.672 382.225 545.704 385.074 546.424 388.621C546.461 388.806 546.597 388.956 546.78 389.001C549.353 389.639 568.192 394.124 569.525 388.928C570.378 385.603 564.596 386.167 558.3 381.145C558.217 381.078 558.112 381.039 558.005 381.039H547.479C547.284 381.039 547.11 381.149 547.035 381.332Z" fill="#1D2244"/>
<path d="M496.478 389.517L474.108 383.509C474.108 383.509 473.771 384.748 474.287 385.069C481.377 389.487 490.952 394.007 495.193 392.174C496.49 391.612 496.478 389.517 496.478 389.517Z" fill="#121833"/>
<path d="M476.73 376.681C476.133 377.437 474.406 379.902 474.103 383.509C474.088 383.697 474.175 383.879 474.339 383.973C476.631 385.306 493.461 394.885 496.196 390.268C497.947 387.315 492.237 386.239 487.599 379.654C487.538 379.566 487.447 379.5 487.345 379.471L477.241 376.526C477.051 376.47 476.854 376.526 476.73 376.681Z" fill="#1D2244"/>
<path d="M531.995 251.911C531.995 251.911 519.975 298.798 515.64 317.677C512.252 332.43 488.658 381.041 488.658 381.041L475.977 377.611L497.818 315.879C497.818 315.879 502.014 284.24 502.553 252.465L531.995 251.911Z" fill="#5E5EAA"/>
<path d="M543.072 250.718C543.072 250.718 561.782 287.686 563.438 312.287C564.598 329.501 559.159 381.79 559.159 381.79L547.034 381.283C547.034 381.283 547.432 332.001 546.163 316.254C545.544 308.572 526.532 273.389 526.532 273.389C501.734 273.293 501.734 251.139 501.734 251.139L543.072 250.718Z" fill="#4C4992"/>
<path d="M501.747 255.761C520.15 261.724 544.818 257.575 545.81 254.539C547.168 250.34 547.908 231.085 545.8 213.231C544.577 202.86 541.485 192.878 534.775 187.247C534.614 187.11 534.453 186.987 534.284 186.864C533.882 186.583 533.445 186.315 532.97 186.083C532.783 185.989 532.594 185.903 532.399 185.816C529.826 184.681 526.413 184.139 522.991 184.074C522.536 184.067 522.08 184.067 521.625 184.074C518.614 184.123 515.694 184.529 513.451 185.208C513.36 185.237 513.281 185.258 513.201 185.287C513.201 185.287 513.183 185.294 513.165 185.294C512.96 185.366 512.744 185.445 512.539 185.533C507.616 187.651 503.472 195.42 502.667 198.007C501.577 201.535 501.05 207.548 500.854 214.27C500.381 230.218 499.058 254.885 501.747 255.761Z" fill="#E1DBFF"/>
<path d="M528.358 182.383L528.864 174.796C529.103 171.207 526.52 168.095 523.098 167.851C519.67 167.6 516.693 170.312 516.456 173.906L515.948 181.489C515.517 187.121 515.847 188.641 522.256 188.869C528.463 189.09 528.068 186.534 528.358 182.383Z" fill="#F6C9A3"/>
<path d="M504.981 170.862C507.701 179.304 515.194 185.242 524.214 182.504C533.378 179.723 532.776 171.344 530.056 162.905C527.337 154.464 521.272 152.175 515.189 154.112C509.108 156.052 502.261 162.422 504.981 170.862Z" fill="#F6C9A3"/>
<path d="M526.12 144.135C528.665 145.108 533.348 150.441 528.005 156.104C525.752 158.491 516.355 156.529 515.034 160.696C513.737 164.784 512.581 165.711 511.044 167.538C510.6 168.065 509.567 166.966 508.651 166.611C507.293 166.084 506.099 166.277 506.697 168.402C507.475 171.171 510.485 171.175 511.548 172.868C514.236 177.148 516.35 182.166 515.652 182.524C513.448 183.658 505.541 178.765 501.15 171.899C497.065 165.512 497.146 156.893 503.086 152.218C513.816 143.776 520.044 147.876 520.883 147.906C526.912 147.373 523.682 143.203 526.12 144.135Z" fill="#262523"/>
<path d="M508.519 256.416C508.44 258.564 505.59 260.205 502.153 260.079C498.716 259.953 495.993 258.109 496.072 255.959C496.151 253.811 499.002 252.17 502.438 252.296C505.875 252.422 508.596 254.267 508.519 256.416Z" fill="#FADBBF"/>
<path d="M494.299 248.91L500.452 252.769L497.13 258.065L492.547 252.303L494.299 248.91Z" fill="#FADBBF"/>
<path d="M512.536 185.536C514.893 185.51 513.135 206.01 510.863 206.693C498.358 210.448 494.57 217.372 494.323 225.913C493.986 237.593 498.468 251.528 498.468 251.528C498.468 251.528 497.187 254.513 495.537 258.067C495.537 258.067 483.691 244.102 483.333 224.449C483.011 206.805 499.712 185.682 512.536 185.536Z" fill="#E1DBFF"/>
<path d="M513.64 191.831C509.863 190.265 506.95 188.672 505.172 187.614C506.959 186.682 508.753 186.03 510.49 185.734C511.363 186.184 512.336 186.657 513.403 187.131C513.615 188.274 513.683 189.942 513.64 191.831Z" fill="#E1DBFF"/>
<path d="M518.112 247.706L511.978 248.705L510.078 243.521C515.736 232.925 521.206 201.362 519.878 190.757L524.185 189.964C526.695 211.638 524.35 236.026 518.112 247.706Z" fill="#373791"/>
<path d="M518.112 247.706L511.978 248.705L510.078 243.521C515.736 232.925 521.206 201.362 519.878 190.757L524.185 189.964C526.695 211.638 524.35 236.026 518.112 247.706Z" fill="#4C4992"/>
<path d="M518.117 247.703L512.18 248.666C518.001 236.572 523.3 211.075 521.311 190.494L524.192 189.964C526.702 211.639 524.355 236.022 518.117 247.703Z" fill="#5E5EAA"/>
<path d="M520.14 189.637C515.629 190.081 514.679 186.037 514.679 186.037C512.607 185.704 510.72 185.222 510.72 185.222C509.882 190.317 518.68 195.936 518.68 195.936L520.14 189.637Z" fill="#4C4992"/>
<path d="M519.523 192.788L517.133 191.13L519.229 189.113L523.708 188.754L526.101 190.41L524.003 192.428L519.523 192.788Z" fill="#4C4992"/>
<path d="M520.497 192.431L518.43 190.747L520.201 188.755L524.042 188.447L526.113 190.131L524.336 192.123L520.497 192.431Z" fill="#5E5EAA"/>
<path d="M519.38 192.389L517.469 190.824L519.242 188.821L521.089 188.674L521.251 190.698L521.386 192.371L519.538 192.519L519.38 192.389Z" fill="#4C4992"/>
<path d="M524.531 188.689C528.772 188.431 529.367 185.301 529.367 185.301C531.226 184.655 532.677 185.537 532.677 185.537C534.237 190.463 526.702 195.816 526.702 195.816L524.531 188.689Z" fill="#4C4992"/>
<path d="M520.052 188.658C515.541 189.102 515.632 184.072 515.632 184.072C512.51 184.414 510.422 185.343 510.422 185.343C509.584 190.439 518.592 194.959 518.592 194.959L520.052 188.658Z" fill="#E1DBFF"/>
<path d="M524.547 188.709C528.789 188.451 528.737 184.954 528.737 184.954C530.6 184.304 533.107 185.225 533.107 185.225C534.672 190.148 526.869 194.729 526.869 194.729L524.547 188.709Z" fill="#E1DBFF"/>
<g opacity="0.48">
<path d="M312.281 177.205L312.748 176.234L313.219 175.266L314.163 173.329L315.117 171.398L316.08 169.473C316.402 168.831 316.711 168.183 317.025 167.537C317.339 166.891 317.675 166.257 318.032 165.634C318.39 165.012 318.758 164.395 319.147 163.789C319.532 163.181 319.931 162.581 320.368 162L320.438 162.037C320.202 162.724 319.926 163.39 319.638 164.05C319.352 164.71 319.047 165.361 318.731 166.006C318.414 166.65 318.076 167.283 317.717 167.905C317.356 168.525 316.991 169.144 316.64 169.77L315.582 171.646L314.513 173.516L313.436 175.381L312.897 176.313L312.352 177.243L312.281 177.205Z" fill="#FBCE69"/>
<path d="M311.025 178.925L310.267 179.586L309.505 180.242L307.981 181.553L306.451 182.857L304.913 184.151C304.4 184.581 303.896 185.024 303.388 185.462C302.88 185.9 302.358 186.318 301.819 186.718C301.281 187.117 300.735 187.506 300.175 187.879C299.617 188.253 299.05 188.616 298.455 188.945L298.406 188.883C298.859 188.377 299.34 187.905 299.829 187.444C300.316 186.981 300.818 186.535 301.326 186.099C301.836 185.664 302.36 185.248 302.9 184.85C303.44 184.454 303.984 184.061 304.518 183.656L306.122 182.446L307.734 181.244L309.353 180.051L310.162 179.454L310.975 178.862L311.025 178.925Z" fill="#FBCE69"/>
<path d="M312.352 178.877L312.849 179.875L313.339 180.876L314.32 182.877L315.292 184.883L316.253 186.894C316.572 187.565 316.905 188.229 317.233 188.896C317.56 189.563 317.865 190.239 318.149 190.927C318.431 191.614 318.703 192.306 318.954 193.007C319.208 193.707 319.448 194.413 319.648 195.137L319.576 195.17C319.169 194.539 318.801 193.89 318.447 193.235C318.09 192.581 317.753 191.918 317.428 191.25C317.103 190.582 316.8 189.903 316.52 189.216C316.24 188.527 315.965 187.837 315.676 187.153L314.813 185.098L313.96 183.039L313.118 180.975L312.696 179.943L312.281 178.909L312.352 178.877Z" fill="#FBCE69"/>
<path d="M312.305 178.066L313.327 177.618L314.351 177.176L316.4 176.293L318.452 175.419L320.51 174.556C321.196 174.27 321.876 173.969 322.559 173.674C323.242 173.379 323.934 173.107 324.634 172.857C325.335 172.609 326.04 172.371 326.753 172.153C327.465 171.933 328.183 171.728 328.917 171.562L328.945 171.636C328.294 172.013 327.628 172.349 326.956 172.672C326.285 172.996 325.605 173.301 324.922 173.594C324.238 173.887 323.545 174.156 322.844 174.403C322.142 174.649 321.438 174.891 320.74 175.146L318.644 175.91L316.544 176.662L314.439 177.404L313.387 177.775L312.333 178.14L312.305 178.066Z" fill="#FBCE69"/>
<path d="M311.591 178.134L310.651 177.426L309.715 176.714L307.843 175.289L305.978 173.857L304.12 172.415C303.501 171.934 302.874 171.464 302.249 170.99C301.625 170.515 301.016 170.022 300.423 169.51C299.83 168.997 299.244 168.474 298.673 167.936C298.1 167.399 297.536 166.85 297 166.267L297.05 166.206C297.729 166.613 298.381 167.053 299.024 167.504C299.668 167.954 300.299 168.421 300.922 168.896C301.544 169.373 302.151 169.869 302.743 170.383C303.335 170.898 303.923 171.417 304.52 171.924L306.31 173.448L308.092 174.982L309.868 176.524L310.756 177.296L311.641 178.072L311.591 178.134Z" fill="#FBCE69"/>
<path d="M310.531 174.876C310.189 174.549 309.859 174.212 309.528 173.876L309.038 173.368L308.557 172.851C308.397 172.679 308.226 172.516 308.059 172.349C307.892 172.182 307.745 172 307.616 171.802C307.488 171.604 307.371 171.398 307.268 171.18C307.165 170.961 307.073 170.734 307.016 170.48L307.077 170.431C307.313 170.543 307.513 170.683 307.704 170.83C307.894 170.978 308.07 171.138 308.234 171.307C308.399 171.475 308.544 171.66 308.67 171.858C308.796 172.058 308.918 172.261 309.051 172.454L309.449 173.037L309.838 173.627C310.093 174.023 310.349 174.419 310.593 174.824L310.531 174.876Z" fill="#F9DBC1"/>
<path d="M311.578 176.604C311.618 175.623 311.674 174.644 311.729 173.665L311.817 172.197L311.918 170.73C311.952 170.241 311.973 169.751 311.997 169.262C312.024 168.772 312.073 168.285 312.147 167.8C312.222 167.316 312.31 166.833 312.417 166.351C312.524 165.87 312.645 165.39 312.809 164.915L312.888 164.923C312.949 165.422 312.968 165.916 312.972 166.409C312.976 166.903 312.962 167.393 312.934 167.883C312.906 168.373 312.853 168.859 312.776 169.343C312.698 169.828 312.616 170.312 312.548 170.797L312.341 172.253L312.122 173.707C311.971 174.676 311.821 175.646 311.657 176.613L311.578 176.604Z" fill="#F37463"/>
<path d="M314.578 175.698C315.325 175.083 316.082 174.481 316.837 173.878L317.975 172.979L319.119 172.089C319.501 171.793 319.874 171.486 320.25 171.182C320.627 170.879 321.018 170.595 321.423 170.333C321.829 170.069 322.242 169.818 322.666 169.581C323.092 169.345 323.524 169.12 323.982 168.93L324.028 168.994C323.702 169.368 323.352 169.707 322.993 170.035C322.633 170.361 322.263 170.674 321.885 170.975C321.507 171.276 321.114 171.556 320.707 171.817C320.3 172.078 319.889 172.334 319.488 172.602L318.281 173.405L317.068 174.198C316.255 174.723 315.444 175.248 314.624 175.761L314.578 175.698Z" fill="#F37463"/>
<path d="M313.407 178.853L313.56 178.932L313.721 179.01L314.042 179.165L314.684 179.475L315.969 180.096L317.252 180.722L318.529 181.357C318.954 181.569 319.387 181.768 319.818 181.971C320.248 182.176 320.666 182.401 321.073 182.648C321.479 182.895 321.879 183.155 322.271 183.429C322.662 183.706 323.046 183.993 323.41 184.319L323.373 184.389C322.901 184.263 322.449 184.097 322.005 183.921C321.561 183.743 321.124 183.55 320.696 183.343C320.266 183.138 319.85 182.909 319.445 182.659C319.04 182.41 318.637 182.154 318.228 181.912L317.001 181.183L315.781 180.443L314.566 179.692C314.161 179.436 313.762 179.191 313.359 178.914L313.407 178.853Z" fill="#F37463"/>
<path d="M314.602 178.063C315.081 177.964 315.56 177.881 316.04 177.796L316.76 177.676L317.481 177.567C317.722 177.532 317.961 177.483 318.201 177.438C318.441 177.394 318.682 177.374 318.926 177.379C319.169 177.383 319.414 177.403 319.66 177.439C319.905 177.477 320.153 177.528 320.403 177.623L320.409 177.702C320.176 177.833 319.939 177.921 319.702 177.996C319.464 178.069 319.226 178.125 318.986 178.167C318.746 178.208 318.504 178.225 318.26 178.218C318.016 178.21 317.772 178.196 317.529 178.198L316.8 178.2L316.07 178.19C315.583 178.178 315.095 178.167 314.608 178.142L314.602 178.063Z" fill="#F9DBC1"/>
<path d="M314.148 180.383C314.522 180.753 314.884 181.132 315.247 181.511L315.785 182.083L316.314 182.663C316.489 182.857 316.677 183.042 316.86 183.23C317.042 183.418 317.207 183.621 317.351 183.84C317.495 184.059 317.627 184.287 317.747 184.526C317.865 184.766 317.973 185.014 318.046 185.288L317.984 185.337C317.733 185.204 317.516 185.042 317.309 184.873C317.103 184.703 316.911 184.522 316.731 184.332C316.55 184.143 316.39 183.936 316.247 183.716C316.105 183.495 315.967 183.271 315.818 183.056L315.373 182.41L314.937 181.756C314.65 181.317 314.362 180.879 314.086 180.431L314.148 180.383Z" fill="#F9DBC1"/>
<path d="M311.655 179.183C311.367 180.092 311.065 180.995 310.764 181.9L310.306 183.254L309.837 184.603C309.68 185.052 309.536 185.507 309.388 185.96C309.239 186.413 309.068 186.856 308.873 187.291C308.679 187.726 308.47 188.156 308.246 188.579C308.02 189.002 307.782 189.419 307.504 189.822L307.43 189.793C307.497 189.309 307.605 188.84 307.725 188.376C307.846 187.913 307.984 187.456 308.135 187.004C308.286 186.552 308.461 186.11 308.658 185.676C308.855 185.242 309.058 184.81 309.246 184.373L309.815 183.063L310.395 181.757C310.786 180.888 311.175 180.018 311.579 179.154L311.655 179.183Z" fill="#F37463"/>
<path d="M310.594 177.889C310.589 177.897 310.582 177.905 310.575 177.91L310.563 177.915C310.554 177.918 310.552 177.918 310.546 177.92C310.535 177.923 310.528 177.924 310.518 177.925C310.501 177.927 310.485 177.928 310.47 177.928C310.438 177.93 310.407 177.93 310.376 177.93C310.315 177.929 310.254 177.927 310.193 177.924C310.071 177.919 309.95 177.912 309.829 177.904C309.587 177.886 309.345 177.865 309.104 177.843C308.621 177.799 308.14 177.746 307.658 177.695L306.215 177.527L304.776 177.34C304.296 177.277 303.815 177.226 303.334 177.171C302.852 177.115 302.376 177.035 301.904 176.929C301.431 176.823 300.962 176.703 300.495 176.566C300.029 176.427 299.566 176.274 299.109 176.078L299.123 176C299.619 175.972 300.106 175.987 300.592 176.015C301.077 176.044 301.56 176.089 302.04 176.149C302.519 176.208 302.995 176.292 303.467 176.399C303.938 176.507 304.409 176.619 304.882 176.716L306.302 177.008L307.721 177.305L309.14 177.598C309.377 177.647 309.614 177.694 309.85 177.738C309.969 177.76 310.087 177.782 310.206 177.802C310.265 177.812 310.324 177.821 310.383 177.829C310.413 177.832 310.442 177.836 310.471 177.838C310.485 177.84 310.499 177.84 310.513 177.84C310.519 177.84 310.527 177.84 310.531 177.84C310.532 177.84 310.537 177.839 310.536 177.84L310.535 177.841C310.53 177.844 310.525 177.849 310.523 177.854L310.594 177.889Z" fill="#F37463"/>
<path d="M308.979 179.208C308.474 179.301 307.969 179.379 307.463 179.458L306.705 179.569L305.946 179.668C305.692 179.701 305.44 179.747 305.188 179.789C304.935 179.83 304.681 179.847 304.426 179.839C304.17 179.831 303.914 179.809 303.656 179.769C303.399 179.728 303.14 179.673 302.88 179.576L302.875 179.496C303.122 179.368 303.372 179.283 303.623 179.211C303.873 179.14 304.125 179.087 304.378 179.049C304.631 179.01 304.885 178.997 305.141 179.007C305.397 179.019 305.653 179.035 305.907 179.036L306.673 179.043L307.439 179.063C307.951 179.081 308.461 179.097 308.974 179.129L308.979 179.208Z" fill="#F9DBC1"/>
</g>
<g opacity="0.48">
<path d="M429.023 388.088L430.031 385.989L431.051 383.896L433.091 379.711L435.151 375.537L437.234 371.374C437.93 369.988 438.598 368.587 439.275 367.19C439.955 365.795 440.68 364.424 441.452 363.078C442.225 361.733 443.022 360.4 443.861 359.089C444.694 357.775 445.557 356.477 446.501 355.223L446.652 355.303C446.14 356.787 445.546 358.229 444.922 359.654C444.304 361.082 443.645 362.488 442.962 363.881C442.277 365.274 441.546 366.641 440.769 367.985C439.99 369.328 439.202 370.665 438.441 372.017L436.155 376.071L433.846 380.114L431.516 384.145L430.351 386.161L429.174 388.17L429.023 388.088Z" fill="#FBCE69"/>
<path d="M426.304 391.806L424.666 393.234L423.019 394.652L419.726 397.487L416.418 400.304L413.094 403.102C411.985 404.033 410.896 404.989 409.8 405.936C408.702 406.881 407.572 407.787 406.409 408.65C405.246 409.512 404.065 410.354 402.856 411.159C401.65 411.968 400.423 412.752 399.138 413.463L399.031 413.329C400.01 412.235 401.048 411.214 402.106 410.218C403.16 409.218 404.244 408.255 405.344 407.313C406.445 406.372 407.579 405.472 408.745 404.613C409.913 403.755 411.087 402.906 412.242 402.032L415.71 399.415L419.193 396.819L422.691 394.24L424.44 392.95L426.198 391.672L426.304 391.806Z" fill="#FBCE69"/>
<path d="M429.18 391.703L430.253 393.861L431.314 396.023L433.434 400.35L435.534 404.685L437.61 409.031C438.3 410.481 439.02 411.917 439.729 413.358C440.436 414.8 441.096 416.264 441.708 417.748C442.318 419.233 442.905 420.73 443.448 422.245C443.996 423.758 444.515 425.284 444.948 426.849L444.792 426.919C443.911 425.555 443.116 424.153 442.35 422.737C441.58 421.324 440.852 419.891 440.148 418.448C439.446 417.004 438.792 415.538 438.185 414.051C437.581 412.563 436.985 411.07 436.362 409.591L434.496 405.15L432.654 400.699L430.832 396.239L429.922 394.008L429.023 391.772L429.18 391.703Z" fill="#FBCE69"/>
<path d="M429.07 389.948L431.28 388.981L433.493 388.025L437.922 386.115L442.358 384.226L446.804 382.362C448.287 381.743 449.759 381.093 451.233 380.453C452.71 379.817 454.205 379.228 455.718 378.688C457.233 378.15 458.757 377.637 460.299 377.167C461.839 376.692 463.39 376.248 464.976 375.89L465.038 376.049C463.631 376.863 462.191 377.59 460.738 378.286C459.287 378.988 457.819 379.646 456.342 380.28C454.864 380.911 453.367 381.494 451.851 382.029C450.334 382.562 448.813 383.084 447.303 383.635L442.774 385.285L438.234 386.911L433.686 388.516L431.412 389.318L429.133 390.108L429.07 389.948Z" fill="#FBCE69"/>
<path d="M427.529 390.094L425.498 388.566L423.475 387.026L419.429 383.948L415.398 380.851L411.383 377.735C410.046 376.695 408.689 375.679 407.338 374.655C405.99 373.628 404.674 372.563 403.391 371.456C402.109 370.347 400.845 369.219 399.609 368.054C398.37 366.893 397.152 365.706 395.992 364.447L396.1 364.314C397.569 365.193 398.979 366.144 400.368 367.12C401.76 368.093 403.123 369.1 404.469 370.13C405.815 371.16 407.127 372.231 408.406 373.342C409.683 374.455 410.955 375.577 412.245 376.674L416.115 379.97L419.968 383.285L423.807 386.618L425.725 388.285L427.636 389.962L427.529 390.094Z" fill="#FBCE69"/>
<path d="M425.24 383.053C424.501 382.346 423.788 381.618 423.073 380.892L422.013 379.793L420.973 378.678C420.627 378.305 420.258 377.951 419.896 377.592C419.537 377.23 419.216 376.837 418.939 376.41C418.662 375.983 418.409 375.536 418.186 375.066C417.965 374.594 417.766 374.104 417.641 373.555L417.774 373.448C418.282 373.691 418.717 373.992 419.129 374.312C419.538 374.633 419.919 374.978 420.274 375.342C420.631 375.706 420.944 376.105 421.218 376.535C421.489 376.967 421.753 377.405 422.041 377.824L422.901 379.083L423.741 380.359C424.292 381.216 424.846 382.071 425.373 382.947L425.24 383.053Z" fill="#F9DBC1"/>
<path d="M427.5 386.789C427.587 384.67 427.708 382.553 427.825 380.437L428.017 377.263L428.234 374.093C428.309 373.036 428.352 371.976 428.405 370.917C428.461 369.858 428.568 368.805 428.729 367.758C428.889 366.711 429.082 365.666 429.311 364.626C429.543 363.586 429.805 362.549 430.159 361.521L430.329 361.54C430.462 362.618 430.501 363.687 430.513 364.753C430.52 365.818 430.491 366.879 430.429 367.937C430.37 368.996 430.254 370.048 430.089 371.095C429.92 372.141 429.742 373.187 429.595 374.236L429.147 377.382L428.674 380.526C428.349 382.621 428.025 384.715 427.669 386.807L427.5 386.789Z" fill="#F37463"/>
<path d="M433.992 384.83C435.607 383.501 437.241 382.199 438.874 380.895L441.333 378.952L443.806 377.03C444.632 376.391 445.439 375.725 446.252 375.069C447.067 374.415 447.911 373.802 448.788 373.233C449.664 372.664 450.559 372.121 451.476 371.609C452.394 371.099 453.329 370.612 454.32 370.201L454.42 370.34C453.716 371.148 452.957 371.88 452.182 372.589C451.404 373.295 450.605 373.971 449.787 374.621C448.97 375.272 448.12 375.878 447.241 376.442C446.36 377.005 445.474 377.559 444.605 378.139L441.997 379.874L439.374 381.588C437.619 382.722 435.865 383.858 434.092 384.967L433.992 384.83Z" fill="#F37463"/>
<path d="M431.451 391.648L431.782 391.82L432.129 391.989L432.823 392.324L434.211 392.994L436.988 394.337L439.76 395.689L442.521 397.061C443.441 397.519 444.375 397.951 445.306 398.39C446.235 398.831 447.139 399.317 448.018 399.852C448.897 400.385 449.761 400.947 450.608 401.541C451.452 402.138 452.284 402.76 453.071 403.464L452.989 403.615C451.97 403.341 450.994 402.985 450.032 402.604C449.072 402.219 448.13 401.801 447.203 401.355C446.276 400.911 445.375 400.417 444.498 399.878C443.623 399.337 442.752 398.786 441.868 398.263L439.216 396.688L436.578 395.087L433.952 393.464C433.077 392.913 432.214 392.382 431.344 391.782L431.451 391.648Z" fill="#F37463"/>
<path d="M434.039 389.943C435.074 389.73 436.111 389.548 437.148 389.365L438.705 389.105L440.263 388.872C440.783 388.796 441.3 388.688 441.818 388.591C442.336 388.496 442.858 388.452 443.385 388.464C443.911 388.474 444.44 388.516 444.971 388.595C445.503 388.677 446.037 388.788 446.578 388.993L446.591 389.164C446.087 389.448 445.575 389.638 445.063 389.799C444.549 389.957 444.033 390.079 443.514 390.168C442.995 390.259 442.473 390.294 441.946 390.278C441.419 390.26 440.892 390.232 440.366 390.235L438.79 390.239L437.212 390.217C436.159 390.191 435.107 390.169 434.051 390.113L434.039 389.943Z" fill="#F9DBC1"/>
<path d="M433.048 394.956C433.856 395.756 434.638 396.576 435.422 397.395L436.586 398.633L437.73 399.886C438.109 400.306 438.514 400.705 438.91 401.111C439.304 401.519 439.659 401.958 439.97 402.432C440.281 402.905 440.568 403.398 440.826 403.913C441.082 404.431 441.314 404.967 441.473 405.561L441.34 405.667C440.797 405.378 440.328 405.03 439.88 404.664C439.436 404.296 439.021 403.905 438.631 403.494C438.239 403.085 437.892 402.64 437.584 402.163C437.278 401.686 436.98 401.201 436.658 400.736L435.695 399.339L434.752 397.925C434.132 396.976 433.51 396.029 432.914 395.061L433.048 394.956Z" fill="#F9DBC1"/>
<path d="M427.661 392.364C427.039 394.329 426.387 396.283 425.737 398.237L424.748 401.162L423.734 404.079C423.394 405.05 423.084 406.033 422.764 407.012C422.441 407.99 422.071 408.95 421.65 409.89C421.23 410.83 420.78 411.758 420.295 412.674C419.807 413.587 419.293 414.49 418.69 415.359L418.531 415.297C418.676 414.25 418.91 413.237 419.17 412.234C419.432 411.233 419.73 410.245 420.057 409.268C420.384 408.291 420.761 407.335 421.187 406.397C421.614 405.46 422.051 404.527 422.459 403.582L423.688 400.749L424.94 397.926C425.786 396.048 426.628 394.169 427.502 392.302L427.661 392.364Z" fill="#F37463"/>
<path d="M425.376 389.565C425.367 389.583 425.351 389.6 425.333 389.61L425.309 389.622C425.29 389.63 425.284 389.629 425.272 389.633C425.249 389.638 425.232 389.639 425.212 389.642C425.176 389.646 425.142 389.648 425.108 389.649C425.039 389.653 424.973 389.652 424.906 389.652C424.773 389.651 424.641 389.647 424.51 389.641C424.246 389.63 423.984 389.614 423.722 389.596C423.199 389.558 422.677 389.513 422.155 389.466C421.112 389.37 420.072 389.258 419.031 389.146L415.914 388.782L412.803 388.379C411.767 388.241 410.725 388.133 409.685 388.013C408.646 387.891 407.616 387.718 406.595 387.489C405.574 387.261 404.559 387.001 403.551 386.704C402.543 386.403 401.54 386.073 400.555 385.65L400.584 385.482C401.655 385.422 402.709 385.455 403.759 385.514C404.808 385.577 405.85 385.675 406.887 385.804C407.924 385.932 408.951 386.114 409.971 386.344C410.989 386.577 412.007 386.82 413.03 387.03L416.098 387.66L419.165 388.301L422.233 388.936C422.744 389.04 423.256 389.141 423.769 389.237C424.025 389.286 424.281 389.333 424.537 389.376C424.665 389.397 424.793 389.417 424.92 389.434C424.984 389.442 425.048 389.449 425.11 389.454C425.141 389.456 425.171 389.458 425.2 389.459C425.213 389.459 425.229 389.459 425.239 389.458C425.242 389.458 425.252 389.456 425.248 389.457C425.248 389.457 425.247 389.458 425.247 389.46C425.236 389.465 425.226 389.477 425.222 389.488L425.376 389.565Z" fill="#F37463"/>
<path d="M421.889 392.418C420.798 392.619 419.706 392.787 418.613 392.958L416.974 393.198L415.333 393.412C414.786 393.481 414.24 393.583 413.695 393.673C413.149 393.761 412.6 393.799 412.047 393.781C411.495 393.764 410.941 393.716 410.384 393.63C409.828 393.54 409.27 393.423 408.705 393.211L408.695 393.04C409.23 392.763 409.77 392.579 410.312 392.424C410.854 392.272 411.398 392.157 411.945 392.074C412.491 391.99 413.04 391.962 413.593 391.983C414.146 392.008 414.699 392.043 415.25 392.047L416.905 392.063L418.561 392.104C419.666 392.143 420.771 392.179 421.878 392.248L421.889 392.418Z" fill="#F9DBC1"/>
</g>
<g opacity="0.48">
<path d="M368.68 353.125L370.134 353.078L371.588 353.039L374.496 352.963L377.404 352.9L380.312 352.854C381.281 352.84 382.25 352.805 383.219 352.778C384.189 352.752 385.158 352.759 386.126 352.798C387.095 352.839 388.063 352.895 389.031 352.982C390 353.065 390.968 353.168 391.935 353.33L391.935 353.437C390.964 353.581 389.994 353.668 389.025 353.733C388.055 353.802 387.086 353.842 386.116 353.866C385.146 353.888 384.178 353.877 383.209 353.835C382.241 353.79 381.272 353.739 380.303 353.708L377.397 353.61L374.491 353.496L371.585 353.368L370.132 353.303L368.68 353.231L368.68 353.125Z" fill="#FBCE69"/>
<path d="M365.838 352.689L364.574 352.194L363.313 351.69L360.792 350.683L358.276 349.663L355.767 348.627C354.931 348.281 354.088 347.953 353.246 347.619C352.406 347.283 351.579 346.918 350.764 346.523C349.951 346.126 349.144 345.715 348.349 345.277C347.553 344.842 346.765 344.388 346 343.882L346.044 343.784C346.933 344.011 347.797 344.291 348.654 344.59C349.512 344.886 350.359 345.209 351.198 345.547C352.037 345.885 352.863 346.254 353.676 346.653C354.487 347.053 355.297 347.459 356.115 347.846L358.565 349.014L361.009 350.195L363.448 351.39L364.667 351.987L365.882 352.593L365.838 352.689Z" fill="#FBCE69"/>
<path d="M366.724 354.253L365.838 355.47L364.945 356.681L363.159 359.104L361.362 361.518L359.553 363.922C358.949 364.723 358.36 365.535 357.766 366.344C357.171 367.152 356.551 367.94 355.904 368.707C355.257 369.474 354.597 370.23 353.914 370.968C353.233 371.709 352.537 372.436 351.795 373.128L351.711 373.061C352.213 372.18 352.76 371.334 353.324 370.502C353.885 369.667 354.469 368.85 355.066 368.044C355.664 367.238 356.287 366.453 356.936 365.688C357.587 364.924 358.242 364.164 358.882 363.391L360.805 361.077L362.74 358.772L364.687 356.476L365.66 355.328L366.64 354.186L366.724 354.253Z" fill="#FBCE69"/>
<path d="M367.664 353.687L368.837 354.632L370.005 355.583L372.341 357.487L374.668 359.401L376.984 361.327C377.755 361.97 378.54 362.599 379.319 363.231C380.098 363.866 380.855 364.524 381.591 365.208C382.326 365.892 383.051 366.589 383.755 367.308C384.463 368.024 385.156 368.756 385.812 369.531L385.742 369.612C384.886 369.067 384.067 368.478 383.262 367.874C382.454 367.273 381.666 366.649 380.889 366.013C380.112 365.376 379.358 364.714 378.624 364.028C377.892 363.341 377.164 362.649 376.422 361.972L374.201 359.937L371.991 357.891L369.79 355.833L368.689 354.805L367.594 353.769L367.664 353.687Z" fill="#FBCE69"/>
<path d="M367.141 352.873L367.402 351.307L367.671 349.742L368.211 346.612L368.764 343.485L369.333 340.362C369.524 339.321 369.695 338.275 369.873 337.232C370.053 336.188 370.264 335.152 370.507 334.122C370.752 333.092 371.013 332.065 371.302 331.044C371.589 330.023 371.894 329.006 372.258 328L372.363 328.022C372.299 329.089 372.179 330.145 372.039 331.196C371.902 332.248 371.736 333.294 371.554 334.337C371.372 335.379 371.156 336.415 370.909 337.445C370.661 338.474 370.406 339.501 370.17 340.534L369.46 343.628L368.734 346.72L367.995 349.808L367.624 351.352L367.246 352.895L367.141 352.873Z" fill="#FBCE69"/>
<path d="M370.383 349.572C370.562 348.958 370.759 348.353 370.955 347.748L371.259 346.843L371.577 345.945C371.684 345.646 371.773 345.34 371.868 345.035C371.964 344.732 372.089 344.441 372.247 344.164C372.403 343.888 372.578 343.618 372.774 343.359C372.972 343.1 373.187 342.849 373.455 342.621L373.552 342.664C373.564 343.015 373.523 343.343 373.465 343.664C373.405 343.984 373.324 344.294 373.224 344.596C373.125 344.898 372.995 345.187 372.835 345.463C372.674 345.737 372.507 346.01 372.358 346.29L371.908 347.13L371.444 347.963C371.128 348.516 370.813 349.07 370.48 349.615L370.383 349.572Z" fill="#F9DBC1"/>
<path d="M368.961 351.903C370.161 351.34 371.368 350.797 372.575 350.251L374.389 349.442L376.209 348.648C376.816 348.385 377.415 348.103 378.018 347.827C378.621 347.553 379.236 347.308 379.862 347.095C380.489 346.882 381.124 346.688 381.766 346.514C382.41 346.343 383.059 346.189 383.73 346.089L383.769 346.188C383.21 346.573 382.629 346.903 382.042 347.217C381.454 347.528 380.857 347.818 380.253 348.09C379.649 348.362 379.033 348.601 378.405 348.811C377.776 349.02 377.145 349.223 376.522 349.444L374.649 350.103L372.771 350.748C371.515 351.172 370.262 351.597 369 352.004L368.961 351.903Z" fill="#F37463"/>
<path d="M371.923 354.937C373.125 355.449 374.319 355.979 375.512 356.507L377.298 357.31L379.076 358.126C379.669 358.399 380.27 358.655 380.868 358.916C381.466 359.179 382.049 359.47 382.617 359.792C383.185 360.114 383.744 360.453 384.293 360.813C384.841 361.175 385.38 361.553 385.893 361.983L385.845 362.078C385.194 361.921 384.57 361.712 383.953 361.487C383.337 361.26 382.732 361.012 382.136 360.746C381.539 360.481 380.959 360.185 380.393 359.86C379.827 359.534 379.264 359.203 378.692 358.889L376.978 357.943L375.271 356.984C374.137 356.338 373.001 355.694 371.875 355.032L371.923 354.937Z" fill="#F37463"/>
<path d="M367.407 355.494V355.727L367.414 355.967L367.428 356.448L367.457 357.411L367.514 359.337L367.564 361.264L367.601 363.19C367.612 363.832 367.643 364.474 367.668 365.116C367.691 365.759 367.683 366.4 367.64 367.041C367.597 367.682 367.535 368.323 367.451 368.964C367.363 369.604 367.259 370.244 367.095 370.883L366.988 370.881C366.845 370.237 366.762 369.594 366.696 368.951C366.632 368.308 366.592 367.665 366.572 367.023C366.551 366.381 366.565 365.739 366.611 365.098C366.658 364.457 366.712 363.816 366.747 363.175L366.855 361.25L366.981 359.327L367.124 357.403C367.177 356.759 367.222 356.128 367.304 355.473L367.407 355.494Z" fill="#F37463"/>
<path d="M369.097 356.436C369.514 356.948 369.914 357.47 370.315 357.992L370.907 358.78L371.486 359.576C371.679 359.842 371.887 360.098 372.09 360.357C372.292 360.617 372.467 360.894 372.613 361.189C372.759 361.483 372.889 361.789 372.998 362.106C373.106 362.424 373.198 362.752 373.241 363.111L373.15 363.167C372.847 362.97 372.594 362.741 372.357 362.504C372.121 362.265 371.906 362.014 371.706 361.752C371.507 361.491 371.336 361.211 371.193 360.915C371.051 360.618 370.915 360.317 370.761 360.027L370.305 359.155L369.862 358.274C369.572 357.683 369.281 357.093 369.008 356.493L369.097 356.436Z" fill="#F9DBC1"/>
<path d="M366.036 357.336C365.826 358.015 365.597 358.685 365.37 359.355L365.019 360.357L364.654 361.352C364.531 361.683 364.427 362.023 364.316 362.359C364.204 362.695 364.063 363.019 363.89 363.328C363.718 363.637 363.528 363.938 363.317 364.23C363.103 364.521 362.873 364.804 362.59 365.064L362.492 365.02C362.496 364.636 362.553 364.275 362.627 363.922C362.703 363.57 362.8 363.227 362.915 362.892C363.029 362.557 363.176 362.236 363.351 361.928C363.528 361.621 363.71 361.316 363.874 361.004L364.371 360.067L364.882 359.137C365.229 358.52 365.575 357.901 365.939 357.292L366.036 357.336Z" fill="#F9DBC1"/>
<path d="M365.92 353.602C364.652 353.824 363.381 354.026 362.111 354.229L360.204 354.525L358.295 354.805C357.659 354.897 357.024 355.008 356.389 355.113C355.754 355.216 355.115 355.288 354.474 355.326C353.831 355.364 353.187 355.382 352.541 355.378C351.894 355.371 351.245 355.346 350.59 355.264L350.578 355.157C351.2 354.936 351.829 354.773 352.459 354.627C353.09 354.484 353.723 354.364 354.359 354.264C354.994 354.163 355.633 354.096 356.276 354.061C356.919 354.029 357.562 354.001 358.203 353.955L360.128 353.818L362.053 353.698C363.338 353.625 364.623 353.55 365.909 353.495L365.92 353.602Z" fill="#F37463"/>
<path d="M366.809 351.53C366.797 351.529 366.783 351.525 366.772 351.519L366.759 351.509C366.749 351.501 366.747 351.497 366.742 351.491C366.733 351.481 366.726 351.471 366.72 351.462C366.707 351.443 366.696 351.424 366.686 351.406C366.664 351.369 366.645 351.332 366.626 351.295C366.588 351.221 366.552 351.147 366.518 351.072C366.448 350.923 366.381 350.773 366.315 350.623C366.186 350.322 366.06 350.02 365.936 349.717C365.688 349.111 365.45 348.502 365.212 347.893L364.515 346.06L363.841 344.219C363.618 343.605 363.378 342.997 363.144 342.387C362.912 341.775 362.711 341.154 362.543 340.523C362.375 339.891 362.226 339.254 362.1 338.609C361.977 337.964 361.87 337.313 361.82 336.645L361.922 336.612C362.264 337.189 362.551 337.782 362.82 338.381C363.087 338.98 363.334 339.586 363.561 340.198C363.79 340.81 363.985 341.432 364.151 342.063C364.316 342.696 364.475 343.329 364.654 343.957L365.19 345.839L365.719 347.723L366.252 349.606C366.342 349.92 366.434 350.232 366.528 350.544C366.575 350.7 366.622 350.856 366.673 351.01C366.698 351.087 366.724 351.163 366.751 351.239C366.765 351.276 366.78 351.314 366.794 351.35C366.802 351.368 366.81 351.385 366.818 351.401C366.822 351.409 366.826 351.417 366.829 351.422C366.831 351.424 366.834 351.43 366.832 351.428C366.832 351.428 366.831 351.428 366.83 351.428C366.824 351.423 366.814 351.421 366.807 351.422L366.809 351.53Z" fill="#F37463"/>
<path d="M364.226 350.418C363.8 349.872 363.392 349.315 362.982 348.758L362.376 347.919L361.784 347.071C361.588 346.788 361.375 346.515 361.167 346.239C360.961 345.962 360.781 345.668 360.632 345.357C360.482 345.046 360.349 344.724 360.236 344.392C360.125 344.057 360.029 343.714 359.984 343.34L360.076 343.285C360.383 343.502 360.641 343.747 360.884 344.003C361.125 344.26 361.345 344.529 361.549 344.808C361.753 345.086 361.927 345.383 362.074 345.695C362.22 346.008 362.36 346.325 362.517 346.632L362.986 347.554L363.441 348.484C363.738 349.107 364.037 349.729 364.318 350.363L364.226 350.418Z" fill="#F9DBC1"/>
</g>
<path d="M430.276 155.474L429.531 154.069L433.396 151.938L434.142 153.343L430.276 155.474Z" fill="#ACACF8"/>
<path d="M475.317 131.31L471.195 129.76L471.737 128.261L475.86 129.811L475.317 131.31Z" fill="#ACACF8"/>
<path d="M609.677 140.879L605.555 139.329L606.096 137.829L610.219 139.379L609.677 140.879Z" fill="#ACACF8"/>
<path d="M401.192 83.4667L397.07 81.9167L397.612 80.417L401.735 81.967L401.192 83.4667Z" fill="#ACACF8"/>
<path d="M434.909 169.828L434.164 168.422L438.029 166.291L438.774 167.697L434.909 169.828Z" fill="#ACACF8"/>
<path d="M493.849 121.74L489.727 120.191L490.268 118.691L494.391 120.241L493.849 121.74Z" fill="#ACACF8"/>
<path d="M646.74 112.172L642.617 110.622L643.159 109.123L647.281 110.673L646.74 112.172Z" fill="#ACACF8"/>
<path d="M719.669 136.87L717.188 133.171L718.482 132.269L720.962 135.967L719.669 136.87Z" fill="#ACACF8"/>
<path d="M497.287 146.438L494.805 142.74L496.098 141.837L498.579 145.535L497.287 146.438Z" fill="#ACACF8"/>
<path d="M552.88 160.791L550.398 157.093L551.692 156.19L554.173 159.889L552.88 160.791Z" fill="#ACACF8"/>
<path d="M453.44 117.201L452.695 115.794L456.56 113.663L457.305 115.069L453.44 117.201Z" fill="#ACACF8"/>
<path d="M488.02 103.38L485.539 99.6816L486.832 98.7793L489.313 102.477L488.02 103.38Z" fill="#ACACF8"/>
<path d="M529.716 98.5953L527.234 94.8972L528.528 93.9941L531.01 97.6929L529.716 98.5953Z" fill="#ACACF8"/>
<path d="M583.159 78.9265L582.414 77.5209L586.279 75.3896L587.024 76.7952L583.159 78.9265Z" fill="#ACACF8"/>
<path d="M592.425 150.691L591.68 149.285L595.544 147.154L596.29 148.56L592.425 150.691Z" fill="#ACACF8"/>
<path d="M702.333 164.8L698.211 163.25L698.753 161.75L702.875 163.3L702.333 164.8Z" fill="#ACACF8"/>
<path d="M567.982 107.388L563.859 105.839L564.401 104.339L568.524 105.889L567.982 107.388Z" fill="#ACACF8"/>
<path d="M522.933 88.4949L522.188 87.0893L526.053 84.958L526.798 86.3636L522.933 88.4949Z" fill="#ACACF8"/>
<path d="M562.145 93.8121L559.664 90.1133L560.957 89.2109L563.438 92.909L562.145 93.8121Z" fill="#ACACF8"/>
<path d="M657.284 126.769L656.539 125.363L660.404 123.232L661.149 124.638L657.284 126.769Z" fill="#ACACF8"/>
<path d="M409.262 237.339L406.781 233.641L408.074 232.738L410.555 236.437L409.262 237.339Z" fill="#3C3996"/>
<path d="M416.378 217.671L415.633 216.265L419.498 214.134L420.243 215.539L416.378 217.671Z" fill="#3C3996"/>
<path d="M479.95 203.073L475.828 201.523L476.37 200.024L480.492 201.574L479.95 203.073Z" fill="#3C3996"/>
<path d="M396.56 183.937L392.438 182.387L392.98 180.888L397.102 182.437L396.56 183.937Z" fill="#3C3996"/>
<path d="M448.808 246.376L448.062 244.97L451.928 242.839L452.673 244.244L448.808 246.376Z" fill="#3C3996"/>
<path d="M656.006 207.858L651.883 206.308L652.424 204.809L656.547 206.359L656.006 207.858Z" fill="#3C3996"/>
<path d="M724.301 222.987L721.82 219.288L723.114 218.386L725.595 222.085L724.301 222.987Z" fill="#3C3996"/>
<path d="M462.706 198.533L461.961 197.127L465.825 194.996L466.57 196.402L462.706 198.533Z" fill="#3C3996"/>
<path d="M706.966 255.701L702.844 254.151L703.386 252.651L707.509 254.201L706.966 255.701Z" fill="#3C3996"/>
<path d="M675.816 212.885L675.07 211.48L678.935 209.349L679.68 210.754L675.816 212.885Z" fill="#3C3996"/>
<path d="M461.42 274.838L457.297 273.288L457.84 271.789L461.962 273.338L461.42 274.838Z" fill="#D94E4E"/>
<path d="M614.31 293.975L610.188 292.425L610.729 290.926L614.852 292.476L614.31 293.975Z" fill="#D94E4E"/>
<path d="M696.505 289.966L694.023 286.267L695.317 285.365L697.798 289.064L696.505 289.966Z" fill="#D94E4E"/>
<path d="M439.542 270.298L438.797 268.892L442.662 266.761L443.407 268.167L439.542 270.298Z" fill="#D94E4E"/>
<path d="M483.387 261.261L480.906 257.563L482.199 256.66L484.68 260.358L483.387 261.261Z" fill="#D94E4E"/>
<path d="M587.792 299.004L587.047 297.597L590.912 295.467L591.657 296.872L587.792 299.004Z" fill="#D94E4E"/>
<path d="M674.536 313.112L670.414 311.562L670.956 310.062L675.078 311.613L674.536 313.112Z" fill="#D94E4E"/>
<path d="M648.019 284.65L647.273 283.245L651.138 281.113L651.883 282.519L648.019 284.65Z" fill="#D94E4E"/>
<path d="M402.472 332.493L401.727 331.087L405.592 328.956L406.337 330.362L402.472 332.493Z" fill="#591D39"/>
<path d="M447.521 317.896L443.398 316.346L443.941 314.847L448.063 316.397L447.521 317.896Z" fill="#591D39"/>
<path d="M411.745 337.277L411 335.871L414.865 333.74L415.61 335.146L411.745 337.277Z" fill="#591D39"/>
<path d="M546.096 346.846L545.352 345.44L549.217 343.309L549.962 344.715L546.096 346.846Z" fill="#591D39"/>
<path d="M691.871 323.456L689.391 319.757L690.684 318.855L693.165 322.554L691.871 323.456Z" fill="#591D39"/>
<path d="M469.488 309.104L467.008 305.405L468.301 304.503L470.782 308.201L469.488 309.104Z" fill="#591D39"/>
<path d="M669.903 341.818L665.781 340.268L666.323 338.769L670.446 340.319L669.903 341.818Z" fill="#591D39"/>
<path d="M716.232 327.464L712.109 325.915L712.651 324.415L716.774 325.965L716.232 327.464Z" fill="#591D39"/>
<path d="M518.3 303.787L517.555 302.381L521.419 300.25L522.165 301.656L518.3 303.787Z" fill="#591D39"/>
<path d="M710.403 400.004L707.922 396.306L709.215 395.403L711.696 399.102L710.403 400.004Z" fill="#D94E4E"/>
<path d="M605.045 370.523L600.922 368.973L601.464 367.474L605.587 369.024L605.045 370.523Z" fill="#D94E4E"/>
<path d="M425.644 365.983L424.898 364.578L428.763 362.446L429.508 363.852L425.644 365.983Z" fill="#D94E4E"/>
<path d="M499.768 361.198L499.023 359.792L502.889 357.661L503.633 359.067L499.768 361.198Z" fill="#D94E4E"/>
<path d="M687.239 356.947L684.758 353.248L686.051 352.346L688.532 356.044L687.239 356.947Z" fill="#D94E4E"/>
<path d="M638.753 351.63L638.008 350.224L641.872 348.093L642.617 349.498L638.753 351.63Z" fill="#D94E4E"/>
<path d="M515.817 390.436L513.336 386.737L514.629 385.835L517.11 389.533L515.817 390.436Z" fill="#591D39"/>
<path d="M665.271 375.308L661.148 373.758L661.691 372.259L665.813 373.809L665.271 375.308Z" fill="#591D39"/>
<path d="M600.412 413.582L596.289 412.032L596.831 410.532L600.953 412.082L600.412 413.582Z" fill="#D94E4E"/>
<path d="M421.011 404.257L420.266 402.851L424.131 400.72L424.876 402.126L421.011 404.257Z" fill="#D94E4E"/>
<path d="M532.198 409.041L531.453 407.635L535.319 405.504L536.063 406.909L532.198 409.041Z" fill="#D94E4E"/>
<path d="M682.606 395.221L680.125 391.522L681.418 390.62L683.9 394.319L682.606 395.221Z" fill="#D94E4E"/>
<path d="M634.12 385.12L633.375 383.714L637.24 381.583L637.985 382.989L634.12 385.12Z" fill="#D94E4E"/>
<path d="M538.981 419.142L536.5 415.444L537.793 414.541L540.275 418.24L538.981 419.142Z" fill="#591D39"/>
<path d="M639.537 161.913L618.078 149.156C614.907 148.118 611.757 145.418 610.024 146.091L586.588 155.037C582.223 156.731 578.298 156.111 579.596 151.931L586.77 128.829C587.286 127.169 586.888 125.406 585.707 124.116L569.266 106.152C567.548 104.275 567.649 101.784 568.941 99.9609C565.884 101.454 564.694 105.324 567.117 107.972L583.557 125.935C584.739 127.226 585.136 128.989 584.621 130.649L577.447 153.75C576.149 157.93 580.58 161.522 584.945 159.827L609.068 150.464C610.801 149.792 612.758 149.937 614.3 150.854L635.758 163.611C638.552 165.272 643.29 162.543 644.333 159.468C642.611 160.332 639.771 162.9 639.537 161.913Z" fill="#D4821E"/>
<path d="M641.951 133.779L643.482 157.529C643.56 158.735 642.537 161.243 641.901 162.142C644.22 159.886 645.776 157.944 645.632 155.709L644.1 131.959C644.019 130.701 644.442 129.463 645.257 128.46L644.121 129.306C642.653 130.4 641.841 132.072 641.951 133.779Z" fill="#D4821E"/>
<path d="M664.381 105.443C658.315 103.522 639.312 100.128 639.312 100.128C637.51 99.7456 636.055 98.5663 635.421 96.9739C635.421 96.9739 628.693 79.338 625.31 74.7059C621.522 69.5189 619.431 73.2662 616.656 76.771C619.498 75.3816 623.216 73.5521 624.443 76.6311L633.271 98.7932C633.906 100.386 635.36 101.565 637.162 101.947L662.231 107.262C666.271 108.118 665.026 112.269 662.675 115.156L664.115 114.915C667.814 112.161 668.86 106.861 664.381 105.443Z" fill="#D4821E"/>
<path d="M624.965 74.6912L633.794 96.8533C634.428 98.4458 635.883 99.6252 637.685 100.007L662.754 105.322C667.29 106.284 668.501 111.652 664.803 114.405L644.367 129.623C642.899 130.716 642.088 132.389 642.198 134.096L643.729 157.845C644.006 162.143 638.797 165.017 634.913 162.708L613.455 149.951C611.913 149.034 609.956 148.888 608.223 149.562L584.1 158.925C579.735 160.619 575.304 157.028 576.602 152.847L583.776 129.745C584.292 128.085 583.894 126.322 582.712 125.032L566.272 107.069C563.297 103.818 565.769 98.7247 570.454 98.4492L596.346 96.9286C598.206 96.8193 599.917 95.8759 600.92 94.405L614.882 73.94C617.409 70.2372 623.367 70.6804 624.965 74.6912Z" fill="#FFC661"/>
<path d="M578.055 154.475L585.229 131.373C585.745 129.713 585.346 127.95 584.165 126.66L582.998 125.384C583.949 126.633 584.247 128.229 583.777 129.743L576.603 152.845C575.925 155.027 576.81 157.047 578.43 158.24C577.824 157.159 577.629 155.85 578.055 154.475Z" fill="#FED698"/>
<path d="M571.906 100.079L597.798 98.5583C599.659 98.4491 601.37 97.5057 602.372 96.0348L616.334 75.5698C618.271 72.7304 622.223 72.3317 624.683 74.1059C622.764 70.6479 617.279 70.4258 614.882 73.9397L600.92 94.4047C599.917 95.8751 598.206 96.819 596.346 96.9283L570.454 98.4489C565.768 98.7237 563.297 103.818 566.272 107.069L567.39 108.29C564.958 105.038 567.412 100.343 571.906 100.079Z" fill="#FED698"/>
<path d="M567.391 108.292C567.494 108.431 567.604 108.568 567.725 108.701L582.998 125.389C582.907 125.269 582.817 125.148 582.713 125.034L567.391 108.292Z" fill="#FFC661"/>
<path d="M594.2 98.7471C596.032 98.6397 597.715 97.7203 598.724 96.2889C597.996 96.6507 597.19 96.878 596.35 96.9277L570.457 98.4484C568.478 98.5646 566.896 99.5425 565.951 100.877C566.647 100.537 567.439 100.319 568.308 100.268L594.2 98.7471Z" fill="#FED698"/>
<path d="M640.207 148.638C640.552 148.474 637.829 134.701 639.515 130.451C641.31 125.926 651.872 120.927 651.759 120.35C651.412 119.647 640.947 124.177 638.062 129.006C635.665 133.019 639.696 148.814 640.207 148.638Z" fill="#FFD799"/>
<path d="M588.989 100.816C589.096 100.579 599.372 101.59 602.435 100.229C605.694 98.7813 608.923 91.501 609.354 91.5428C609.887 91.7323 607 98.9213 603.563 101.109C600.707 102.926 588.881 101.165 588.989 100.816Z" fill="#FFD799"/>
<path d="M384.231 160.941L372.312 156.523C370.657 156.309 368.803 155.231 368.056 155.757L357.935 162.784C356.054 164.108 354.09 164.187 354.185 161.889L354.704 149.187C354.742 148.274 354.328 147.402 353.597 146.854L343.428 139.225C342.365 138.428 342.099 137.128 342.488 136.051C341.209 137.136 341.128 139.263 342.627 140.388L352.795 148.016C353.526 148.564 353.94 149.437 353.903 150.35L353.383 163.051C353.289 165.35 355.872 166.758 357.753 165.435L368.151 158.121C368.898 157.596 369.856 157.471 370.713 157.789L382.632 162.208C384.183 162.783 386.113 160.886 386.225 159.185C385.507 159.808 384.468 161.429 384.231 160.941Z" fill="#D4821E"/>
<path d="M381.834 146.118L385.577 158.267C385.767 158.884 385.593 160.288 385.402 160.819C386.23 159.414 386.731 158.248 386.379 157.105L382.636 144.956C382.438 144.313 382.484 143.628 382.748 143.025L382.31 143.579C381.743 144.296 381.565 145.245 381.834 146.118Z" fill="#D4821E"/>
<path d="M389.015 129.147C385.859 128.771 376.304 128.952 376.304 128.952C375.391 128.938 374.543 128.476 374.037 127.715C374.037 127.715 368.573 119.265 366.362 117.21C363.886 114.91 363.357 117.064 362.469 119.164C363.657 118.154 365.211 116.826 366.19 118.296L373.235 128.877C373.741 129.638 374.589 130.1 375.503 130.114L388.213 130.309C390.262 130.34 390.19 132.618 389.426 134.354L390.087 134.081C391.514 132.277 391.345 129.425 389.015 129.147Z" fill="#D4821E"/>
<path d="M366.194 117.238L373.24 127.819C373.746 128.579 374.594 129.042 375.508 129.056L388.218 129.25C390.518 129.286 391.78 131.943 390.352 133.747L382.466 143.718C381.9 144.434 381.722 145.384 381.991 146.257L385.734 158.406C386.411 160.604 384.274 162.625 382.116 161.825L370.197 157.406C369.34 157.089 368.382 157.213 367.635 157.739L357.238 165.052C355.356 166.376 352.774 164.967 352.868 162.669L353.387 149.967C353.425 149.054 353.011 148.182 352.28 147.633L342.111 140.005C340.271 138.624 340.813 135.733 343.028 135.112L355.268 131.682C356.147 131.435 356.849 130.771 357.145 129.907L361.258 117.878C362.002 115.701 364.919 115.323 366.194 117.238Z" fill="#FFC661"/>
<path d="M353.771 163.365L354.291 150.663C354.328 149.75 353.914 148.878 353.183 148.33L352.461 147.788C353.076 148.338 353.421 149.135 353.387 149.967L352.867 162.669C352.818 163.868 353.499 164.825 354.428 165.277C354 164.779 353.74 164.121 353.771 163.365Z" fill="#FED698"/>
<path d="M343.931 135.808L356.171 132.378C357.051 132.131 357.753 131.467 358.049 130.603L362.161 118.574C362.732 116.906 364.579 116.295 365.985 116.964C364.626 115.368 361.964 115.812 361.258 117.878L357.145 129.907C356.849 130.771 356.147 131.434 355.268 131.681L343.028 135.112C340.813 135.733 340.271 138.624 342.111 140.005L342.802 140.523C341.223 139.087 341.807 136.404 343.931 135.808Z" fill="#FED698"/>
<path d="M342.805 140.523C342.872 140.585 342.942 140.645 343.017 140.701L352.464 147.788C352.405 147.735 352.346 147.681 352.282 147.634L342.805 140.523Z" fill="#FFC661"/>
<path d="M354.467 132.843C355.333 132.6 356.025 131.952 356.328 131.107C356.024 131.369 355.666 131.569 355.268 131.681L343.028 135.112C342.093 135.374 341.457 136.042 341.172 136.83C341.463 136.582 341.816 136.389 342.227 136.274L354.467 132.843Z" fill="#FED698"/>
<path d="M382.876 153.995C383.02 153.876 379.969 147.018 380.241 144.643C380.53 142.115 384.968 138.447 384.841 138.16C384.585 137.831 380.134 141.246 379.36 144.043C378.717 146.367 382.653 154.139 382.876 153.995Z" fill="#FFD799"/>
<path d="M352.227 134.444C352.247 134.31 357.31 133.785 358.608 132.768C359.991 131.685 360.619 127.583 360.831 127.561C361.111 127.604 360.635 131.624 359.262 133.108C358.12 134.341 352.219 134.635 352.227 134.444Z" fill="#FFD799"/>
<path d="M314.231 258.941L302.312 254.523C300.657 254.309 298.803 253.231 298.056 253.757L287.935 260.784C286.054 262.108 284.09 262.187 284.185 259.889L284.704 247.187C284.742 246.274 284.328 245.402 283.597 244.854L273.428 237.225C272.365 236.428 272.099 235.128 272.488 234.051C271.209 235.136 271.128 237.263 272.627 238.388L282.795 246.016C283.526 246.564 283.94 247.437 283.903 248.35L283.383 261.051C283.289 263.35 285.872 264.758 287.753 263.435L298.151 256.121C298.898 255.596 299.856 255.471 300.713 255.789L312.632 260.208C314.183 260.783 316.113 258.886 316.225 257.185C315.507 257.808 314.468 259.429 314.231 258.941Z" fill="#D4821E"/>
<path d="M311.834 244.118L315.577 256.267C315.767 256.884 315.593 258.288 315.402 258.819C316.23 257.414 316.731 256.248 316.379 255.105L312.636 242.956C312.438 242.313 312.484 241.628 312.748 241.025L312.31 241.579C311.743 242.296 311.565 243.245 311.834 244.118Z" fill="#D4821E"/>
<path d="M319.015 227.147C315.859 226.771 306.304 226.952 306.304 226.952C305.391 226.938 304.543 226.476 304.037 225.715C304.037 225.715 298.573 217.265 296.362 215.21C293.886 212.91 293.357 215.064 292.469 217.164C293.657 216.154 295.211 214.826 296.19 216.296L303.235 226.877C303.741 227.638 304.589 228.1 305.503 228.114L318.213 228.309C320.262 228.34 320.19 230.618 319.426 232.354L320.087 232.081C321.514 230.277 321.345 227.425 319.015 227.147Z" fill="#D4821E"/>
<path d="M296.194 215.238L303.24 225.819C303.746 226.579 304.594 227.042 305.508 227.056L318.218 227.25C320.518 227.286 321.78 229.943 320.352 231.747L312.466 241.718C311.9 242.434 311.722 243.384 311.991 244.257L315.734 256.406C316.411 258.604 314.274 260.625 312.116 259.825L300.197 255.406C299.34 255.089 298.382 255.213 297.635 255.739L287.238 263.052C285.356 264.376 282.774 262.967 282.868 260.669L283.387 247.967C283.425 247.054 283.011 246.182 282.28 245.633L272.111 238.005C270.271 236.624 270.813 233.733 273.028 233.112L285.268 229.682C286.147 229.435 286.849 228.771 287.145 227.907L291.258 215.878C292.002 213.701 294.919 213.323 296.194 215.238Z" fill="#FFC661"/>
<path d="M283.771 261.365L284.291 248.663C284.328 247.75 283.914 246.878 283.183 246.33L282.461 245.788C283.076 246.338 283.421 247.135 283.387 247.967L282.867 260.669C282.818 261.868 283.499 262.825 284.428 263.277C284 262.779 283.74 262.121 283.771 261.365Z" fill="#FED698"/>
<path d="M273.931 233.808L286.171 230.378C287.051 230.131 287.753 229.467 288.049 228.603L292.161 216.574C292.732 214.906 294.579 214.295 295.985 214.964C294.626 213.368 291.964 213.812 291.258 215.878L287.145 227.907C286.849 228.771 286.147 229.434 285.268 229.681L273.028 233.112C270.813 233.733 270.271 236.624 272.111 238.005L272.802 238.523C271.223 237.087 271.807 234.404 273.931 233.808Z" fill="#FED698"/>
<path d="M272.805 238.523C272.872 238.585 272.942 238.645 273.017 238.701L282.464 245.788C282.405 245.735 282.346 245.681 282.282 245.634L272.805 238.523Z" fill="#FFC661"/>
<path d="M284.467 230.843C285.333 230.6 286.025 229.952 286.328 229.107C286.024 229.369 285.666 229.569 285.268 229.681L273.028 233.112C272.093 233.374 271.457 234.042 271.172 234.83C271.463 234.582 271.816 234.389 272.227 234.274L284.467 230.843Z" fill="#FED698"/>
<path d="M312.876 251.995C313.02 251.876 309.969 245.018 310.241 242.643C310.53 240.115 314.968 236.447 314.841 236.16C314.585 235.831 310.134 239.246 309.36 242.043C308.717 244.367 312.653 252.139 312.876 251.995Z" fill="#FFD799"/>
<path d="M282.227 232.444C282.247 232.31 287.31 231.785 288.608 230.768C289.991 229.685 290.619 225.583 290.831 225.561C291.111 225.604 290.635 229.624 289.262 231.108C288.12 232.341 282.219 232.635 282.227 232.444Z" fill="#FFD799"/>
</g>
<defs>
<linearGradient id="paint0_linear_1227_25364" x1="790.002" y1="173.801" x2="700.685" y2="173.801" gradientUnits="userSpaceOnUse">
<stop stop-color="#441711"/>
<stop offset="1" stop-color="#12010A"/>
</linearGradient>
<clipPath id="clip0_1227_25364">
<rect width="800" height="480.845" fill="white"/>
</clipPath>
</defs>
</svg>
