<svg width="380" height="380" viewBox="0 0 380 380" fill="none" xmlns="http://www.w3.org/2000/svg">
<rect x="0.739502" y="0.636963" width="378.926" height="378.926" rx="189.463" fill="#FFB800"/>
<path d="M96.5638 168.859C97.0433 168.859 97.446 169.032 97.772 169.377L101.195 173.031C99.5076 175.179 97.4077 176.809 94.8954 177.921C92.4022 179.033 89.4296 179.589 85.9776 179.589C82.8516 179.589 80.0421 179.062 77.5489 178.007C75.0558 176.933 72.9366 175.447 71.1915 173.548C69.4463 171.65 68.1038 169.396 67.1641 166.788C66.2244 164.18 65.7545 161.332 65.7545 158.244C65.7545 156.173 65.9751 154.207 66.4162 152.347C66.8764 150.468 67.5381 148.742 68.4011 147.169C69.2641 145.597 70.2997 144.177 71.5079 142.912C72.7353 141.646 74.1161 140.572 75.6503 139.69C77.1846 138.788 78.853 138.108 80.6558 137.647C82.4777 137.168 84.4146 136.928 86.4667 136.928C88.0009 136.928 89.4488 137.062 90.8105 137.331C92.1913 137.599 93.4762 137.973 94.6652 138.453C95.8542 138.932 96.9474 139.517 97.9446 140.208C98.9611 140.879 99.872 141.617 100.677 142.423L97.772 146.392C97.5994 146.642 97.3789 146.862 97.1104 147.054C96.8419 147.246 96.4775 147.342 96.0173 147.342C95.557 147.342 95.0871 147.179 94.6077 146.853C94.1474 146.527 93.5721 146.162 92.8817 145.76C92.2104 145.357 91.357 144.992 90.3214 144.666C89.305 144.34 88.0105 144.177 86.4379 144.177C84.6927 144.177 83.0914 144.494 81.6338 145.127C80.1763 145.76 78.9202 146.68 77.8654 147.888C76.8298 149.077 76.0243 150.544 75.449 152.29C74.8736 154.035 74.5859 156.02 74.5859 158.244C74.5859 160.488 74.8928 162.492 75.5065 164.257C76.1394 166.002 76.9928 167.479 78.0667 168.687C79.1599 169.895 80.4256 170.816 81.864 171.448C83.3215 172.062 84.8749 172.369 86.5242 172.369C87.5023 172.369 88.3845 172.321 89.1707 172.225C89.9762 172.129 90.7146 171.966 91.3858 171.736C92.0762 171.506 92.7187 171.209 93.3132 170.844C93.9269 170.48 94.5406 170.02 95.1543 169.463C95.3652 169.291 95.5858 169.147 95.8159 169.032C96.046 168.917 96.2953 168.859 96.5638 168.859ZM130.615 149.471V179.129H125.724C124.708 179.129 124.056 178.669 123.768 177.748L123.25 175.677C122.656 176.252 122.042 176.78 121.409 177.259C120.777 177.739 120.096 178.151 119.367 178.496C118.657 178.841 117.881 179.11 117.037 179.302C116.212 179.494 115.311 179.589 114.333 179.589C112.722 179.589 111.283 179.311 110.018 178.755C108.771 178.199 107.726 177.422 106.882 176.425C106.038 175.428 105.396 174.239 104.955 172.858C104.514 171.477 104.293 169.962 104.293 168.313V149.471H112.233V168.313C112.233 169.962 112.607 171.247 113.355 172.168C114.122 173.069 115.253 173.52 116.749 173.52C117.861 173.52 118.907 173.28 119.885 172.8C120.863 172.302 121.793 171.631 122.675 170.787V149.471H130.615ZM155.608 155.569C155.397 155.895 155.176 156.135 154.946 156.288C154.735 156.423 154.438 156.49 154.054 156.49C153.671 156.49 153.278 156.394 152.875 156.202C152.472 156.01 152.022 155.809 151.523 155.598C151.024 155.368 150.449 155.157 149.797 154.965C149.164 154.773 148.426 154.677 147.582 154.677C146.297 154.677 145.3 154.946 144.59 155.483C143.881 156.001 143.526 156.691 143.526 157.554C143.526 158.149 143.727 158.647 144.13 159.05C144.533 159.453 145.06 159.807 145.712 160.114C146.383 160.402 147.141 160.68 147.985 160.948C148.828 161.198 149.691 161.476 150.574 161.783C151.475 162.09 152.348 162.444 153.191 162.847C154.035 163.25 154.783 163.758 155.435 164.372C156.106 164.966 156.643 165.695 157.046 166.558C157.449 167.402 157.65 168.428 157.65 169.636C157.65 171.074 157.382 172.407 156.845 173.635C156.327 174.843 155.56 175.888 154.543 176.77C153.527 177.652 152.261 178.343 150.746 178.841C149.231 179.34 147.486 179.589 145.511 179.589C144.494 179.589 143.487 179.494 142.49 179.302C141.493 179.129 140.544 178.88 139.642 178.554C138.741 178.209 137.897 177.815 137.111 177.374C136.324 176.933 135.644 176.454 135.068 175.936L136.909 172.973C137.12 172.628 137.379 172.359 137.686 172.168C138.012 171.976 138.424 171.88 138.923 171.88C139.402 171.88 139.844 172.005 140.246 172.254C140.649 172.484 141.1 172.743 141.598 173.031C142.097 173.299 142.682 173.558 143.353 173.807C144.044 174.037 144.897 174.152 145.913 174.152C146.68 174.152 147.342 174.066 147.898 173.894C148.454 173.721 148.905 173.491 149.25 173.203C149.596 172.896 149.845 172.561 149.998 172.196C150.171 171.813 150.257 171.42 150.257 171.017C150.257 170.365 150.046 169.837 149.624 169.435C149.222 169.013 148.685 168.648 148.013 168.342C147.361 168.035 146.604 167.757 145.741 167.507C144.878 167.258 143.996 166.98 143.094 166.673C142.212 166.366 141.339 166.002 140.476 165.58C139.633 165.158 138.875 164.631 138.204 163.998C137.552 163.346 137.015 162.55 136.593 161.61C136.19 160.67 135.989 159.529 135.989 158.187C135.989 156.959 136.229 155.799 136.708 154.706C137.187 153.594 137.907 152.616 138.865 151.772C139.824 150.928 141.013 150.257 142.433 149.758C143.871 149.26 145.53 149.01 147.409 149.01C149.519 149.01 151.437 149.355 153.163 150.046C154.889 150.736 156.308 151.638 157.42 152.75L155.608 155.569ZM172.861 179.589C171.519 179.589 170.33 179.398 169.294 179.014C168.258 178.611 167.386 178.046 166.676 177.317C165.967 176.588 165.43 175.706 165.065 174.67C164.701 173.635 164.519 172.465 164.519 171.161V155.166H161.728C161.306 155.166 160.942 155.032 160.635 154.764C160.348 154.495 160.204 154.092 160.204 153.555V150.449L164.95 149.586L166.561 141.905C166.772 141.042 167.357 140.61 168.316 140.61H172.458V149.643L180.11 149.643V155.166L172.458 155.166V170.643C172.458 171.468 172.65 172.12 173.034 172.599C173.437 173.079 174.002 173.318 174.731 173.318C175.115 173.318 175.441 173.28 175.709 173.203C175.978 173.107 176.208 173.011 176.4 172.916C176.591 172.8 176.764 172.705 176.917 172.628C177.09 172.532 177.263 172.484 177.435 172.484C177.665 172.484 177.857 172.542 178.01 172.657C178.164 172.752 178.317 172.925 178.471 173.174L180.858 176.972C179.765 177.835 178.528 178.487 177.147 178.928C175.767 179.369 174.338 179.589 172.861 179.589ZM197.46 149.01C199.684 149.01 201.707 149.365 203.529 150.075C205.351 150.784 206.914 151.801 208.218 153.124C209.522 154.428 210.529 156.02 211.239 157.899C211.948 159.779 212.303 161.898 212.303 164.257C212.303 166.616 211.948 168.744 211.239 170.643C210.529 172.522 209.522 174.124 208.218 175.447C206.914 176.77 205.351 177.787 203.529 178.496C201.707 179.206 199.684 179.561 197.46 179.561C195.216 179.561 193.173 179.206 191.332 178.496C189.51 177.787 187.947 176.77 186.643 175.447C185.339 174.124 184.323 172.522 183.594 170.643C182.884 168.744 182.53 166.616 182.53 164.257C182.53 161.898 182.884 159.779 183.594 157.899C184.323 156.02 185.339 154.428 186.643 153.124C187.947 151.801 189.51 150.784 191.332 150.075C193.173 149.365 195.216 149.01 197.46 149.01ZM197.46 173.606C199.723 173.606 201.401 172.829 202.494 171.276C203.587 169.703 204.133 167.373 204.133 164.285C204.133 161.217 203.587 158.906 202.494 157.353C201.401 155.78 199.723 154.994 197.46 154.994C195.139 154.994 193.432 155.78 192.339 157.353C191.246 158.906 190.699 161.217 190.699 164.285C190.699 167.373 191.246 169.703 192.339 171.276C193.432 172.829 195.139 173.606 197.46 173.606ZM217.288 179.129V149.471H222.179C223.176 149.471 223.838 149.931 224.164 150.851L224.624 152.779C225.142 152.242 225.669 151.743 226.206 151.283C226.762 150.823 227.357 150.429 227.99 150.103C228.623 149.758 229.303 149.49 230.032 149.298C230.78 149.106 231.586 149.01 232.449 149.01C234.27 149.01 235.776 149.499 236.965 150.477C238.154 151.436 239.055 152.721 239.669 154.332C240.149 153.392 240.733 152.587 241.424 151.916C242.133 151.225 242.901 150.669 243.725 150.247C244.569 149.825 245.451 149.518 246.372 149.327C247.311 149.116 248.251 149.01 249.191 149.01C250.859 149.01 252.336 149.26 253.621 149.758C254.906 150.257 255.98 150.995 256.843 151.973C257.725 152.932 258.396 154.112 258.857 155.512C259.317 156.912 259.547 158.503 259.547 160.287V179.129H251.607V160.287C251.607 156.816 250.121 155.08 247.148 155.08C246.477 155.08 245.854 155.195 245.279 155.425C244.722 155.636 244.224 155.962 243.783 156.403C243.361 156.844 243.025 157.391 242.776 158.043C242.546 158.695 242.431 159.443 242.431 160.287V179.129H234.491V160.287C234.491 158.407 234.117 157.075 233.369 156.288C232.64 155.483 231.557 155.08 230.118 155.08C229.198 155.08 228.325 155.301 227.501 155.742C226.695 156.164 225.938 156.758 225.228 157.525V179.129H217.288ZM284.646 160.805C284.646 159.98 284.531 159.194 284.301 158.446C284.09 157.698 283.745 157.036 283.265 156.461C282.786 155.886 282.182 155.435 281.453 155.109C280.724 154.764 279.852 154.591 278.835 154.591C276.937 154.591 275.45 155.128 274.376 156.202C273.302 157.276 272.602 158.81 272.276 160.805H284.646ZM272.161 165.522C272.411 168.303 273.197 170.336 274.52 171.621C275.863 172.906 277.608 173.548 279.756 173.548C280.849 173.548 281.789 173.424 282.575 173.174C283.38 172.906 284.08 172.618 284.675 172.311C285.289 171.985 285.835 171.698 286.315 171.448C286.813 171.18 287.302 171.046 287.782 171.046C288.395 171.046 288.875 171.276 289.22 171.736L291.521 174.613C290.678 175.591 289.747 176.406 288.731 177.058C287.715 177.691 286.66 178.199 285.567 178.583C284.473 178.947 283.371 179.196 282.258 179.331C281.146 179.484 280.072 179.561 279.037 179.561C276.965 179.561 275.028 179.225 273.226 178.554C271.442 177.863 269.879 176.857 268.537 175.533C267.213 174.191 266.168 172.532 265.401 170.557C264.634 168.581 264.25 166.29 264.25 163.681C264.25 161.668 264.576 159.769 265.228 157.986C265.9 156.202 266.859 154.649 268.105 153.325C269.352 152.002 270.867 150.957 272.65 150.19C274.434 149.403 276.448 149.01 278.691 149.01C280.59 149.01 282.335 149.317 283.927 149.931C285.538 150.525 286.919 151.398 288.069 152.549C289.239 153.699 290.141 155.118 290.773 156.806C291.425 158.475 291.751 160.383 291.751 162.531C291.751 163.125 291.723 163.614 291.665 163.998C291.608 164.381 291.512 164.688 291.378 164.918C291.243 165.148 291.061 165.311 290.831 165.407C290.601 165.484 290.304 165.522 289.939 165.522H272.161ZM304.129 154.361C305.069 152.673 306.152 151.34 307.38 150.362C308.607 149.384 310.045 148.895 311.695 148.895C313.037 148.895 314.13 149.212 314.974 149.844L314.456 155.713C314.36 156.096 314.207 156.365 313.996 156.518C313.804 156.653 313.536 156.72 313.19 156.72C312.884 156.72 312.442 156.681 311.867 156.605C311.292 156.509 310.755 156.461 310.256 156.461C309.527 156.461 308.875 156.566 308.3 156.777C307.744 156.988 307.245 157.286 306.804 157.669C306.363 158.053 305.96 158.522 305.596 159.079C305.251 159.635 304.925 160.268 304.618 160.977V179.129H296.678V149.471H301.367C302.173 149.471 302.729 149.614 303.036 149.902C303.343 150.19 303.563 150.688 303.697 151.398L304.129 154.361Z" fill="#1D2F71"/>
<path d="M104.626 232.943L104.626 252.983H99.2612V232.943H104.626ZM105.267 227.248C105.267 227.702 105.177 228.123 104.995 228.512C104.814 228.9 104.567 229.244 104.256 229.542C103.958 229.84 103.602 230.073 103.187 230.241C102.786 230.41 102.352 230.494 101.885 230.494C101.445 230.494 101.023 230.41 100.622 230.241C100.233 230.073 99.8896 229.84 99.5916 229.542C99.2936 229.244 99.0538 228.9 98.8724 228.512C98.704 228.123 98.6197 227.702 98.6197 227.248C98.6197 226.795 98.704 226.373 98.8724 225.985C99.0538 225.583 99.2936 225.233 99.5916 224.935C99.8896 224.637 100.233 224.404 100.622 224.235C101.023 224.067 101.445 223.983 101.885 223.983C102.352 223.983 102.786 224.067 103.187 224.235C103.602 224.404 103.958 224.637 104.256 224.935C104.567 225.233 104.814 225.583 104.995 225.985C105.177 226.373 105.267 226.795 105.267 227.248ZM121.663 237.064C121.52 237.284 121.371 237.446 121.216 237.55C121.073 237.64 120.873 237.686 120.613 237.686C120.354 237.686 120.089 237.621 119.816 237.491C119.544 237.362 119.24 237.226 118.903 237.083C118.566 236.928 118.177 236.785 117.737 236.656C117.309 236.526 116.81 236.461 116.24 236.461C115.372 236.461 114.698 236.643 114.219 237.006C113.739 237.355 113.499 237.822 113.499 238.405C113.499 238.807 113.635 239.144 113.908 239.416C114.18 239.688 114.536 239.928 114.977 240.135C115.43 240.329 115.942 240.517 116.512 240.699C117.082 240.867 117.665 241.055 118.262 241.262C118.871 241.47 119.46 241.709 120.03 241.981C120.6 242.254 121.106 242.597 121.546 243.012C122 243.413 122.363 243.906 122.635 244.489C122.907 245.059 123.043 245.752 123.043 246.569C123.043 247.54 122.862 248.441 122.499 249.27C122.149 250.087 121.631 250.793 120.944 251.389C120.257 251.985 119.402 252.452 118.378 252.788C117.354 253.125 116.175 253.294 114.841 253.294C114.154 253.294 113.474 253.229 112.8 253.099C112.126 252.983 111.484 252.814 110.875 252.594C110.266 252.361 109.696 252.095 109.165 251.797C108.634 251.499 108.174 251.175 107.785 250.825L109.029 248.823C109.171 248.59 109.346 248.409 109.554 248.279C109.774 248.149 110.053 248.085 110.389 248.085C110.713 248.085 111.011 248.169 111.284 248.337C111.556 248.493 111.86 248.668 112.197 248.862C112.534 249.044 112.929 249.218 113.383 249.387C113.849 249.542 114.426 249.62 115.113 249.62C115.631 249.62 116.078 249.562 116.454 249.445C116.83 249.329 117.134 249.173 117.367 248.979C117.601 248.771 117.769 248.545 117.873 248.298C117.989 248.039 118.048 247.774 118.048 247.502C118.048 247.061 117.905 246.705 117.62 246.432C117.348 246.147 116.985 245.901 116.532 245.694C116.091 245.487 115.579 245.299 114.996 245.13C114.413 244.962 113.817 244.774 113.208 244.567C112.612 244.359 112.022 244.113 111.439 243.828C110.869 243.543 110.357 243.187 109.904 242.759C109.463 242.318 109.1 241.781 108.815 241.146C108.543 240.511 108.407 239.74 108.407 238.833C108.407 238.003 108.569 237.219 108.893 236.481C109.217 235.729 109.703 235.068 110.351 234.498C110.999 233.928 111.802 233.474 112.761 233.138C113.733 232.801 114.854 232.632 116.123 232.632C117.549 232.632 118.845 232.865 120.011 233.332C121.177 233.798 122.136 234.407 122.888 235.159L121.663 237.064ZM148.085 237.064C147.943 237.284 147.794 237.446 147.638 237.55C147.496 237.64 147.295 237.686 147.036 237.686C146.776 237.686 146.511 237.621 146.239 237.491C145.967 237.362 145.662 237.226 145.325 237.083C144.988 236.928 144.6 236.785 144.159 236.656C143.731 236.526 143.232 236.461 142.662 236.461C141.794 236.461 141.12 236.643 140.641 237.006C140.161 237.355 139.922 237.822 139.922 238.405C139.922 238.807 140.058 239.144 140.33 239.416C140.602 239.688 140.958 239.928 141.399 240.135C141.852 240.329 142.364 240.517 142.934 240.699C143.505 240.867 144.088 241.055 144.684 241.262C145.293 241.47 145.882 241.709 146.453 241.981C147.023 242.254 147.528 242.597 147.969 243.012C148.422 243.413 148.785 243.906 149.057 244.489C149.329 245.059 149.465 245.752 149.465 246.569C149.465 247.54 149.284 248.441 148.921 249.27C148.571 250.087 148.053 250.793 147.366 251.389C146.679 251.985 145.824 252.452 144.8 252.788C143.777 253.125 142.598 253.294 141.263 253.294C140.576 253.294 139.896 253.229 139.222 253.099C138.548 252.983 137.907 252.814 137.298 252.594C136.689 252.361 136.119 252.095 135.587 251.797C135.056 251.499 134.596 251.175 134.207 250.825L135.451 248.823C135.594 248.59 135.769 248.409 135.976 248.279C136.196 248.149 136.475 248.085 136.812 248.085C137.136 248.085 137.434 248.169 137.706 248.337C137.978 248.493 138.282 248.668 138.619 248.862C138.956 249.044 139.352 249.218 139.805 249.387C140.272 249.542 140.848 249.62 141.535 249.62C142.053 249.62 142.5 249.562 142.876 249.445C143.252 249.329 143.556 249.173 143.79 248.979C144.023 248.771 144.191 248.545 144.295 248.298C144.412 248.039 144.47 247.774 144.47 247.502C144.47 247.061 144.327 246.705 144.042 246.432C143.77 246.147 143.407 245.901 142.954 245.694C142.513 245.487 142.001 245.299 141.418 245.13C140.835 244.962 140.239 244.774 139.63 244.567C139.034 244.359 138.444 244.113 137.861 243.828C137.291 243.543 136.779 243.187 136.326 242.759C135.885 242.318 135.522 241.781 135.237 241.146C134.965 240.511 134.829 239.74 134.829 238.833C134.829 238.003 134.991 237.219 135.315 236.481C135.639 235.729 136.125 235.068 136.773 234.498C137.421 233.928 138.224 233.474 139.183 233.138C140.155 232.801 141.276 232.632 142.546 232.632C143.971 232.632 145.267 232.865 146.433 233.332C147.599 233.798 148.558 234.407 149.31 235.159L148.085 237.064ZM170.414 232.943V252.983H167.11C166.423 252.983 165.982 252.672 165.788 252.05L165.438 250.65C165.036 251.039 164.622 251.395 164.194 251.719C163.766 252.043 163.306 252.322 162.814 252.555C162.335 252.788 161.81 252.97 161.24 253.099C160.682 253.229 160.073 253.294 159.413 253.294C158.324 253.294 157.352 253.106 156.497 252.73C155.655 252.354 154.948 251.83 154.378 251.156C153.808 250.482 153.374 249.678 153.076 248.746C152.778 247.813 152.629 246.789 152.629 245.674V232.943H157.994V245.674C157.994 246.789 158.246 247.657 158.752 248.279C159.27 248.888 160.034 249.193 161.045 249.193C161.797 249.193 162.503 249.031 163.164 248.707C163.825 248.37 164.453 247.916 165.049 247.346V232.943H170.414ZM180.207 247.696C180.712 248.279 181.256 248.687 181.839 248.92C182.435 249.154 183.07 249.27 183.744 249.27C184.392 249.27 184.982 249.147 185.513 248.901C186.044 248.655 186.498 248.273 186.873 247.754C187.262 247.223 187.56 246.549 187.768 245.733C187.975 244.916 188.079 243.945 188.079 242.817C188.079 241.703 187.988 240.757 187.806 239.979C187.638 239.202 187.392 238.573 187.068 238.094C186.757 237.615 186.375 237.271 185.921 237.064C185.467 236.844 184.962 236.733 184.405 236.733C183.459 236.733 182.662 236.921 182.014 237.297C181.379 237.66 180.777 238.198 180.207 238.91V247.696ZM179.896 235.567C180.297 235.127 180.725 234.725 181.178 234.362C181.632 233.986 182.118 233.669 182.636 233.41C183.154 233.138 183.712 232.93 184.308 232.788C184.904 232.632 185.552 232.554 186.251 232.554C187.327 232.554 188.312 232.788 189.206 233.254C190.113 233.708 190.89 234.375 191.538 235.256C192.186 236.124 192.692 237.193 193.054 238.463C193.417 239.733 193.599 241.184 193.599 242.817C193.599 244.32 193.391 245.713 192.977 246.996C192.575 248.266 191.998 249.367 191.247 250.3C190.495 251.233 189.588 251.966 188.526 252.497C187.476 253.015 186.303 253.274 185.007 253.274C183.919 253.274 182.993 253.112 182.228 252.788C181.476 252.464 180.803 252.024 180.207 251.467V259.455H174.842V232.943H178.146C178.82 232.943 179.267 233.254 179.487 233.876L179.896 235.567ZM202.084 236.247C202.719 235.107 203.452 234.207 204.281 233.546C205.11 232.885 206.082 232.554 207.196 232.554C208.103 232.554 208.842 232.768 209.412 233.196L209.062 237.161C208.998 237.42 208.894 237.602 208.751 237.705C208.622 237.796 208.44 237.841 208.207 237.841C208 237.841 207.702 237.815 207.313 237.764C206.924 237.699 206.561 237.666 206.225 237.666C205.732 237.666 205.292 237.738 204.903 237.88C204.527 238.023 204.19 238.224 203.892 238.483C203.594 238.742 203.322 239.059 203.076 239.435C202.843 239.811 202.622 240.239 202.415 240.718V252.983H197.05V232.943H200.219C200.763 232.943 201.139 233.04 201.346 233.235C201.553 233.429 201.702 233.766 201.793 234.245L202.084 236.247ZM223.96 240.601C223.96 240.044 223.883 239.513 223.727 239.008C223.585 238.502 223.351 238.055 223.027 237.666C222.703 237.278 222.295 236.973 221.803 236.753C221.31 236.52 220.721 236.403 220.034 236.403C218.751 236.403 217.747 236.766 217.021 237.491C216.296 238.217 215.823 239.254 215.602 240.601H223.96ZM215.525 243.789C215.693 245.668 216.224 247.042 217.118 247.91C218.026 248.778 219.205 249.212 220.656 249.212C221.395 249.212 222.03 249.128 222.561 248.959C223.105 248.778 223.578 248.584 223.98 248.376C224.394 248.156 224.764 247.962 225.088 247.793C225.425 247.612 225.755 247.521 226.079 247.521C226.494 247.521 226.818 247.676 227.051 247.987L228.606 249.931C228.036 250.592 227.407 251.143 226.72 251.583C226.034 252.011 225.321 252.354 224.582 252.613C223.844 252.86 223.099 253.028 222.347 253.119C221.595 253.223 220.87 253.274 220.17 253.274C218.771 253.274 217.462 253.048 216.244 252.594C215.039 252.128 213.983 251.447 213.076 250.553C212.181 249.646 211.475 248.525 210.957 247.191C210.439 245.856 210.179 244.307 210.179 242.545C210.179 241.184 210.4 239.902 210.84 238.697C211.294 237.491 211.942 236.442 212.784 235.548C213.626 234.654 214.65 233.947 215.855 233.429C217.06 232.898 218.421 232.632 219.937 232.632C221.22 232.632 222.399 232.84 223.474 233.254C224.563 233.656 225.496 234.245 226.273 235.023C227.064 235.8 227.673 236.759 228.1 237.9C228.541 239.027 228.761 240.316 228.761 241.768C228.761 242.169 228.742 242.5 228.703 242.759C228.664 243.018 228.599 243.225 228.509 243.381C228.418 243.536 228.295 243.647 228.139 243.711C227.984 243.763 227.783 243.789 227.537 243.789H215.525ZM232.09 252.983V232.943H235.394C236.068 232.943 236.515 233.254 236.736 233.876L237.047 235.178C237.396 234.816 237.753 234.479 238.116 234.168C238.491 233.857 238.893 233.591 239.321 233.371C239.748 233.138 240.208 232.956 240.701 232.827C241.206 232.697 241.75 232.632 242.333 232.632C243.565 232.632 244.582 232.963 245.385 233.623C246.189 234.271 246.798 235.14 247.212 236.228C247.536 235.593 247.931 235.049 248.398 234.595C248.877 234.129 249.396 233.753 249.953 233.468C250.523 233.183 251.119 232.976 251.741 232.846C252.376 232.703 253.011 232.632 253.646 232.632C254.773 232.632 255.771 232.801 256.639 233.138C257.507 233.474 258.233 233.973 258.816 234.634C259.412 235.282 259.866 236.079 260.177 237.025C260.488 237.971 260.643 239.046 260.643 240.252V252.983H255.279V240.252C255.279 237.906 254.274 236.733 252.266 236.733C251.812 236.733 251.391 236.811 251.002 236.967C250.627 237.109 250.29 237.329 249.992 237.628C249.707 237.926 249.48 238.295 249.311 238.735C249.156 239.176 249.078 239.681 249.078 240.252V252.983H243.714V240.252C243.714 238.982 243.461 238.081 242.955 237.55C242.463 237.006 241.731 236.733 240.759 236.733C240.137 236.733 239.548 236.882 238.99 237.18C238.446 237.466 237.934 237.867 237.455 238.386V252.983H232.09ZM277.602 240.601C277.602 240.044 277.524 239.513 277.369 239.008C277.226 238.502 276.993 238.055 276.669 237.666C276.345 237.278 275.937 236.973 275.445 236.753C274.952 236.52 274.363 236.403 273.676 236.403C272.393 236.403 271.389 236.766 270.663 237.491C269.937 238.217 269.464 239.254 269.244 240.601H277.602ZM269.166 243.789C269.335 245.668 269.866 247.042 270.76 247.91C271.667 248.778 272.846 249.212 274.298 249.212C275.036 249.212 275.671 249.128 276.203 248.959C276.747 248.778 277.22 248.584 277.621 248.376C278.036 248.156 278.405 247.962 278.729 247.793C279.066 247.612 279.397 247.521 279.721 247.521C280.135 247.521 280.459 247.676 280.693 247.987L282.248 249.931C281.677 250.592 281.049 251.143 280.362 251.583C279.675 252.011 278.963 252.354 278.224 252.613C277.485 252.86 276.74 253.028 275.989 253.119C275.237 253.223 274.512 253.274 273.812 253.274C272.412 253.274 271.104 253.048 269.886 252.594C268.68 252.128 267.624 251.447 266.717 250.553C265.823 249.646 265.117 248.525 264.599 247.191C264.08 245.856 263.821 244.307 263.821 242.545C263.821 241.184 264.041 239.902 264.482 238.697C264.936 237.491 265.583 236.442 266.426 235.548C267.268 234.654 268.292 233.947 269.497 233.429C270.702 232.898 272.062 232.632 273.579 232.632C274.861 232.632 276.041 232.84 277.116 233.254C278.205 233.656 279.138 234.245 279.915 235.023C280.705 235.8 281.315 236.759 281.742 237.9C282.183 239.027 282.403 240.316 282.403 241.768C282.403 242.169 282.384 242.5 282.345 242.759C282.306 243.018 282.241 243.225 282.15 243.381C282.06 243.536 281.937 243.647 281.781 243.711C281.626 243.763 281.425 243.789 281.178 243.789H269.166Z" fill="#F5FAFF"/>
</svg>
