<svg width="310" height="180" viewBox="0 0 310 180" fill="none" xmlns="http://www.w3.org/2000/svg">
<g clip-path="url(#clip0_4043_19618)">
<path d="M136.469 0.2447C86.1462 -2.68556 68.2964 20.3474 42.7203 44.1712C17.1446 67.9933 5.32208 93.1412 20.1844 128.938C35.0472 164.734 70.1377 173.837 125.214 173.837C180.291 173.837 237.01 178.824 265.734 159.353C294.458 139.883 304.244 95.3882 262.625 72.1069C238.113 58.3945 206.034 4.29569 136.469 0.2447Z" fill="#7D91D2"/>
<path d="M155.703 86.1784C155.703 88.4606 153.709 90.3113 151.25 90.3113C148.791 90.3113 146.797 88.4606 146.797 86.1784V83.3108C146.797 81.029 148.791 79.1787 151.25 79.1787C153.709 79.1787 155.703 81.029 155.703 83.3108V86.1784Z" fill="#E0E0E0"/>
<path d="M201.07 131.296C199.843 125.729 194.527 110.677 181.578 105.237C168.627 99.7974 156.495 104.225 151.997 106.754C147.499 109.284 142.32 119.152 140.002 128.386C137.685 137.62 129.779 137.495 123.645 139.518L126.507 149.132L189.756 149.512C189.756 149.512 189.756 149.512 189.892 147.994C206.386 147.108 202.298 136.861 201.07 131.296ZM136.39 146.033C138.912 146.033 150.157 138.19 152.475 138.442C153.633 144.198 153.77 147.234 153.906 147.614C154.043 147.994 137.071 150.776 136.39 146.033Z" fill="#E0E0E0"/>
<path d="M158.858 109.413C158.04 113.038 154.678 135.219 160.404 149.808C164.855 150.145 171.489 149.808 171.489 149.808C170.218 142.133 167.673 120.881 172.943 108.738C167.673 108.821 158.858 109.413 158.858 109.413Z" fill="#6695FF"/>
<path d="M161.766 102.834C157.268 103.088 156.223 107.599 158.268 110.382C160.312 113.165 164.174 110.887 164.856 109.497C169.718 113.755 176.034 109.918 177.397 103.593C177.396 103.088 169.673 101.696 161.766 102.834Z" fill="#6695FF"/>
<path d="M174.582 79.9698C174.377 75.7605 169.72 67.7285 158.679 68.1822C150.818 68.7437 149.864 75.6533 149.864 75.6533C149.591 76.4292 148.182 78.0702 148.182 78.0702C147.774 74.8324 149.98 66.253 159.906 66.0231C171.083 65.7641 176.421 73.8819 176.627 79.7116C175.74 81.0712 174.582 79.9698 174.582 79.9698Z" fill="#E0E0E0"/>
<path d="M152.651 72.0057C148.876 74.4059 146.615 78.4002 148.528 82.3723C150.441 86.3461 150.984 88.096 149.128 91.2043C146.518 95.5765 145.418 99.6584 147.382 103.37C159.222 101.853 164.433 100.617 164.433 100.617C164.433 100.617 159.854 71.5421 152.651 72.0057Z" fill="#31241C"/>
<path d="M170.228 92.0115C170.228 92.0115 173.157 100.2 173.434 103.66C173.686 106.832 162.374 108.949 161.572 105.624C160.735 101.667 159.492 94.94 159.492 94.94" fill="#C97440"/>
<path d="M171.168 95.4311L170.228 92.0115L159.492 94.94C159.492 94.94 159.875 97.0065 160.365 99.5971C161.162 99.7377 161.986 99.8055 162.834 99.7695C166.329 99.6266 169.346 97.9265 171.168 95.4311Z" fill="#AB5D2D"/>
<path d="M151.459 88.033C151.721 93.4865 156.698 97.7082 162.571 97.4645C168.446 97.2214 172.998 92.6042 172.735 87.1503L172.232 76.7104C171.97 71.2577 166.993 67.0348 161.119 67.2797C155.243 67.5229 150.693 72.14 150.956 77.5926L151.459 88.033Z" fill="#C97440"/>
<path d="M165.511 77.2236C164.167 76.5541 162.402 76.2432 160.997 76.9157C160.471 77.167 160.935 77.9017 161.46 77.6504C162.554 77.1263 164.012 77.4419 165.048 77.9583C165.569 78.2178 166.032 77.4831 165.511 77.2236Z" fill="#31241C"/>
<path d="M152.673 78.6018C153.308 78.0438 154.217 77.84 155.064 78.0013C155.641 78.1111 155.886 77.291 155.307 77.1808C154.132 76.9573 152.906 77.225 152.024 78C151.594 78.3783 152.244 78.9788 152.673 78.6018Z" fill="#31241C"/>
<path d="M159.019 86.2158C158.937 86.2158 158.855 86.1893 158.789 86.1356L156.715 84.4402C156.631 84.3711 156.588 84.2686 156.6 84.1648C156.611 84.061 156.677 83.9693 156.774 83.9182L158.864 82.8267C159.032 82.7396 159.243 82.7949 159.337 82.9493C159.43 83.1042 159.371 83.3002 159.205 83.3872L157.54 84.2562L159.248 85.6523C159.391 85.7698 159.405 85.9731 159.278 86.1065C159.21 86.179 159.115 86.2158 159.019 86.2158Z" fill="#31241C"/>
<path d="M159.789 88.9447C159.231 88.9447 158.681 88.8079 158.253 88.5364C158.095 88.436 158.054 88.2362 158.162 88.0895C158.269 87.9432 158.485 87.9055 158.644 88.005C159.232 88.3785 160.222 88.3966 160.897 88.0474C161.304 87.8368 161.78 87.4037 161.737 86.5338C161.727 86.3563 161.876 86.2057 162.067 86.198C162.255 86.1881 162.42 86.3271 162.429 86.5047C162.475 87.4397 162.051 88.1873 161.235 88.6097C160.801 88.8336 160.292 88.9447 159.789 88.9447Z" fill="#31241C"/>
<path d="M161.345 82.6557C161.598 83.2759 162.346 83.5894 163.014 83.3544C163.681 83.1206 164.02 82.4279 163.766 81.8073C163.513 81.1858 162.767 80.8723 162.099 81.1069C161.429 81.3411 161.093 82.0346 161.345 82.6557Z" fill="#1A191F"/>
<path d="M153.607 83.0853C153.86 83.7047 154.607 84.0203 155.276 83.7853C155.943 83.5516 156.283 82.8567 156.03 82.2361C155.777 81.6159 155.03 81.3037 154.362 81.5387C153.693 81.772 153.355 82.4647 153.607 83.0853Z" fill="#1A191F"/>
<path d="M153.941 82.8015C153.887 82.8015 153.833 82.7882 153.783 82.7599L152.52 82.042C152.377 81.9605 152.332 81.7863 152.42 81.6534C152.508 81.5204 152.696 81.4792 152.839 81.5603L154.101 82.2783C154.244 82.3598 154.289 82.5339 154.202 82.6669C154.144 82.7535 154.044 82.8015 153.941 82.8015Z" fill="#1A191F"/>
<path d="M163.109 82.3799C163.013 82.3799 162.918 82.3374 162.859 82.258C162.763 82.1298 162.797 81.954 162.936 81.8652L164.256 81.0159C164.394 80.9267 164.583 80.9593 164.679 81.0876C164.775 81.2158 164.74 81.3917 164.602 81.4809L163.282 82.3297C163.23 82.3636 163.169 82.3799 163.109 82.3799Z" fill="#1A191F"/>
<path d="M182.866 88.0958C181.1 84.5646 183.28 82.3721 182.34 79.0078C181.516 76.0651 177.742 76.1564 175.795 71.9879C172.812 65.5964 157.465 59.8422 151.742 72.8123C158.104 68.8093 164.625 70.8899 167.099 73.8493C172.091 79.8171 166.969 82.3455 168.896 85.8942C170.299 88.4796 171.219 90.2218 169.405 94.1352C167.591 98.048 170.131 101.77 170.131 101.77C176.07 101.159 182.785 100.618 188.885 99.6586C188.886 90.1078 184.631 91.6274 182.866 88.0958Z" fill="#31241C"/>
<path d="M155.858 136.989C150.679 137.41 148.68 138.844 144.045 141.121C139.41 143.398 138.411 143.904 139.5 144.326C136.774 144.495 138.364 145.843 140.273 145.253C139.001 145.759 140.773 146.308 143.317 145.422C143.953 146.35 147.225 145.929 149.315 144.832C151.405 143.736 156.404 142.807 160.947 144.242C161.493 141.628 159.766 137.073 159.766 137.073L155.858 136.989Z" fill="#C97440"/>
<path d="M159.156 137.052C161.951 136.483 169.767 135.891 174.401 136.145C174.674 139.518 172.675 146.349 172.675 146.349L160.315 143.819C160.315 143.819 160.93 140.214 159.156 137.052Z" fill="#E0E0E0"/>
<path d="M158.919 137.112C164.438 136.371 170.019 136.386 175.58 136.241C178.259 136.17 180.829 135.882 183.484 135.6C186.007 135.332 188.996 135.84 191.422 136.521C191.708 136.602 191.829 136.188 191.545 136.108C189.305 135.479 186.683 135.065 184.337 135.113C183.175 135.136 182.01 135.357 180.864 135.515C179.269 135.736 177.644 135.75 176.035 135.798C170.278 135.971 164.511 135.931 158.797 136.698C158.503 136.737 158.628 137.15 158.919 137.112Z" fill="#1F0E03"/>
<path d="M183.534 123.973C184.06 127.535 184.333 131.116 184.344 134.711C184.345 134.988 184.807 134.988 184.806 134.711C184.796 131.077 184.511 127.46 183.98 123.859C183.939 123.586 183.494 123.703 183.534 123.973Z" fill="#1F0E03"/>
<path d="M159.95 144.033C161.621 144.014 163.169 144.702 164.754 145.101C166.638 145.574 168.482 146.168 170.364 146.648C174.169 147.616 178.125 148.23 182.064 148.442C188.331 148.778 195.913 148.493 200.645 144.139C200.857 143.944 200.53 143.641 200.318 143.836C195.372 148.386 187.243 148.392 180.753 147.932C176.871 147.656 172.979 146.922 169.246 145.908C167.568 145.453 165.895 144.977 164.22 144.513C162.811 144.122 161.446 143.587 159.95 143.604C159.652 143.607 159.652 144.036 159.95 144.033Z" fill="#1F0E03"/>
<path d="M150.729 119.56C150.315 120.71 150.439 121.948 150.457 123.143C150.482 124.788 150.612 126.43 150.705 128.072C150.796 129.693 150.848 131.316 150.989 132.935C151.118 134.429 151.727 135.846 151.811 137.326C151.827 137.602 152.289 137.603 152.273 137.326C152.197 135.973 151.637 134.692 151.49 133.339C151.329 131.858 151.279 130.366 151.208 128.879C151.136 127.38 151.026 125.883 150.959 124.384C150.892 122.884 150.657 121.116 151.175 119.673C151.268 119.41 150.822 119.299 150.729 119.56Z" fill="#1F0E03"/>
<path d="M157.726 104.885C157.001 107.259 156.49 110.289 159.359 111.624C160.393 112.105 161.572 111.866 162.57 111.447C163.271 111.152 163.882 110.654 164.462 110.193C165.048 109.727 165.305 110.434 165.823 110.777C170.038 113.575 175.587 109.701 176.983 105.842C177.077 105.579 176.631 105.467 176.537 105.728C175.047 109.846 168.682 113.628 165.018 109.429C164.935 109.334 164.777 109.357 164.691 109.429C163.171 110.696 161.196 112.198 159.123 111.01C156.863 109.715 157.586 106.912 158.171 104.998C158.253 104.732 157.807 104.619 157.726 104.885Z" fill="#1F0E03"/>
<path d="M143.11 145.798C144.567 145.558 145.734 144.713 146.96 144C148.649 143.016 150.547 142.451 152.379 141.75C152.651 141.646 152.532 141.231 152.257 141.336C150.744 141.916 149.195 142.404 147.733 143.093C146.144 143.841 144.788 145.088 142.987 145.385C142.694 145.433 142.819 145.846 143.11 145.798Z" fill="#1F0E03"/>
<path d="M139.8 145.776C143.481 144.334 146.871 142.307 150.649 141.075C150.928 140.983 150.808 140.569 150.526 140.661C146.71 141.906 143.284 143.949 139.567 145.406C139.293 145.513 139.529 145.883 139.8 145.776Z" fill="#1F0E03"/>
<path d="M138.98 144.764C140.434 143.945 142.092 143.565 143.586 142.828C145.066 142.099 146.537 141.351 148.068 140.716C148.34 140.603 148.104 140.234 147.835 140.346C146.304 140.981 144.831 141.727 143.353 142.458C141.859 143.197 140.202 143.574 138.747 144.394C138.493 144.537 138.725 144.908 138.98 144.764Z" fill="#1F0E03"/>
<path d="M162.95 113.074C163.105 113.836 164.266 113.81 164.642 113.221C164.85 112.894 164.624 112.509 164.302 112.339C163.908 112.131 163.312 112.167 163.043 112.529C162.873 112.757 163.274 112.971 163.441 112.745C163.645 112.472 164.495 112.757 164.196 113.064C163.969 113.297 163.468 113.315 163.396 112.96C163.34 112.689 162.895 112.804 162.95 113.074Z" fill="#1F0E03"/>
<path d="M162.338 116.248C162.22 117.007 163.168 117.22 163.718 116.798C163.998 116.583 164.145 116.167 163.909 115.874C163.663 115.57 163.185 115.619 162.84 115.72C162.557 115.803 162.678 116.217 162.963 116.134C163.135 116.083 163.361 116.023 163.528 116.116C163.672 116.194 163.48 116.433 163.403 116.485C163.234 116.6 162.734 116.684 162.784 116.362C162.826 116.092 162.381 115.975 162.338 116.248Z" fill="#1F0E03"/>
<path d="M162.055 120.353C162.096 121.213 163.463 120.87 163.6 120.22C163.767 119.427 162.277 118.992 162.131 119.853C162.085 120.124 162.531 120.24 162.577 119.967C162.633 119.636 163.143 119.863 163.149 120.121C163.154 120.323 162.529 120.599 162.517 120.353C162.504 120.078 162.042 120.077 162.055 120.353Z" fill="#1F0E03"/>
<path d="M153.061 143.818C152.992 144.451 153.088 145.182 153.342 145.774C153.45 146.028 153.898 145.917 153.788 145.66C153.546 145.096 153.457 144.421 153.523 143.818C153.553 143.543 153.091 143.546 153.061 143.818Z" fill="#1F0E03"/>
<path d="M158.833 137.173C159.695 137.736 159.764 138.851 160.007 139.72C160.33 140.869 160.57 142.294 160.022 143.416C159.9 143.666 160.298 143.884 160.421 143.632C161.04 142.366 160.781 140.916 160.453 139.605C160.198 138.589 160.047 137.443 159.065 136.803C158.822 136.644 158.591 137.016 158.833 137.173Z" fill="#1F0E03"/>
<path d="M147.687 88.6514C146.961 93.6536 154.924 93.6699 158.362 93.5181C158.658 93.5052 158.66 93.0763 158.362 93.0892C155.327 93.2235 147.466 93.3586 148.133 88.7654C148.172 88.4952 147.726 88.3786 147.687 88.6514Z" fill="#1F0E03"/>
<path d="M161.04 93.2412C161.04 93.9511 160.277 94.5271 159.336 94.5271C158.395 94.5271 157.633 93.9511 157.633 93.2412C157.633 92.531 158.395 91.9541 159.336 91.9541C160.277 91.9545 161.04 92.531 161.04 93.2412Z" fill="#E0E0E0"/>
<path d="M159.902 66.0231C154.24 66.1552 151.093 69.0014 149.508 72.0248C150.048 72.0801 150.631 72.2272 151.117 72.4404C152.291 70.5541 154.516 68.4799 158.675 68.1822C169.717 67.7285 174.374 75.7605 174.578 79.9698C174.578 79.9698 175.737 81.0712 176.623 79.7111C176.417 73.8819 171.079 65.7641 159.902 66.0231Z" fill="#E0E0E0"/>
<path d="M180.215 86.1784C180.215 88.4606 178.22 90.3113 175.762 90.3113C173.302 90.3113 171.309 88.4606 171.309 86.1784V83.3108C171.309 81.029 173.302 79.1787 175.762 79.1787C178.22 79.1787 180.215 81.029 180.215 83.3108V86.1784Z" fill="#E0E0E0"/>
<path d="M179.17 85.7374C179.008 88.527 174.974 89.1657 173.867 86.5468C173.536 85.7653 173.724 84.6579 173.724 83.8353C173.724 80.9809 177.954 80.4881 179.027 83.0263C179.358 83.8074 179.17 84.9148 179.17 85.7374C179.17 86.0141 179.632 86.0141 179.632 85.7374C179.632 84.0163 179.814 82.356 178.055 81.2841C175.924 79.9854 173.385 81.7285 173.263 83.8353C173.164 85.5281 173.149 87.2588 174.84 88.2894C176.971 89.5881 179.509 87.8442 179.632 85.7374C179.648 85.4608 179.185 85.4625 179.17 85.7374Z" fill="#1F0E03"/>
<path d="M127.053 145.759C129.598 145.759 160.949 145.759 162.585 145.759C164.221 145.759 164.585 148.795 161.859 148.795C159.133 148.795 80.3436 148.795 80.3436 148.795C77.8895 144.241 66.8938 116.411 65.8035 113.797C64.7132 111.183 65.7129 108.146 70.1655 108.146C74.6182 108.146 98.1547 108.146 101.426 108.146C104.698 108.146 108.333 108.651 110.604 113.29C112.877 117.929 127.053 145.759 127.053 145.759Z" fill="#5F7E91"/>
<path d="M162.699 148.675C162.806 148.64 162.903 148.597 162.993 148.553C163.002 148.549 163.011 148.546 163.018 148.542C164.414 147.816 163.935 145.759 162.587 145.759C162.321 145.759 161.266 145.759 159.678 145.759C151.512 145.759 129.186 145.759 127.055 145.759C127.055 145.759 127.043 145.737 127.027 145.704C127.011 145.672 126.988 145.629 126.958 145.569C126.832 145.322 126.585 144.837 126.237 144.153C123.188 138.165 112.548 117.255 110.606 113.291C108.335 108.652 104.699 108.147 101.428 108.147C100.912 108.147 99.8899 108.147 98.5195 108.147C101.791 108.147 105.426 108.652 107.698 113.291C109.97 117.93 124.146 145.759 124.146 145.759L125.374 148.713C125.374 148.713 126.905 148.747 129.351 148.796C142.079 148.796 153.686 148.796 158.952 148.796C160.563 148.796 161.59 148.796 161.86 148.796C162.023 148.796 162.174 148.783 162.316 148.763C162.406 148.75 162.487 148.727 162.568 148.705C162.611 148.694 162.659 148.687 162.699 148.675Z" fill="#49687A"/>
<path d="M97.518 128.893C98.4151 130.952 97.3521 132.621 95.1438 132.621C92.9355 132.621 90.4176 130.952 89.5214 128.893C88.6248 126.834 89.6873 125.165 91.8956 125.165C94.1039 125.165 96.6214 126.834 97.518 128.893Z" stroke="#1F0E03" stroke-width="0.46218" stroke-miterlimit="10"/>
<path d="M204.273 151.15H76.0859V170.007C90.1579 172.787 109.124 174.796 127.802 175.015C153.37 175.315 179.883 175.046 204.273 173.945V151.15Z" fill="#E8EDFF"/>
<path d="M209.592 150.68C209.592 151.804 208.608 152.717 207.396 152.717H72.961C71.7487 152.717 70.7656 151.804 70.7656 150.68C70.7656 149.554 71.7487 148.641 72.961 148.641H207.396C208.608 148.641 209.592 149.554 209.592 150.68Z" fill="#C97440"/>
<path d="M60.6321 78.439C63.6793 81.1184 66.1676 81.1184 66.1621 78.4386C66.1556 75.7601 66.1459 71.3758 66.1404 68.6969C66.1339 66.0176 63.6409 63.8254 60.5993 63.8254C57.5577 63.8254 52.5805 63.8254 49.5393 63.8254C46.4982 63.8254 46.5033 66.0176 49.55 68.6969C52.5976 71.3763 57.585 75.7601 60.6321 78.439Z" fill="#3F57AB"/>
<path d="M133.312 52.5115C133.312 61.6034 125.37 68.9741 115.572 68.9741H50.4503C40.653 68.9741 32.7109 61.6034 32.7109 52.5115V30.824C32.7109 21.733 40.653 14.3623 50.4503 14.3623H115.572C125.37 14.3623 133.312 21.733 133.312 30.824V52.5115Z" fill="#3F57AB"/>
<path d="M78.2287 32.0198V24.6476H79.1214V27.9305H83.0523V24.6476H83.945V32.0198H83.0523V28.7224H79.1214V32.0198H78.2287ZM85.7322 32.0198V24.6476H90.1815V25.4395H86.625V27.9305H89.9511V28.7224H86.625V31.2278H90.2391V32.0198H85.7322ZM91.7905 32.0198V24.6476H92.6833V31.2278H96.1102V32.0198H91.7905ZM97.4925 32.0198V24.6476H99.9835C100.562 24.6476 101.035 24.752 101.402 24.9608C101.771 25.1671 102.045 25.4467 102.222 25.7995C102.4 26.1523 102.489 26.5458 102.489 26.9802C102.489 27.4146 102.4 27.8093 102.222 28.1645C102.047 28.5197 101.776 28.8028 101.409 29.014C101.042 29.2228 100.571 29.3272 99.9979 29.3272H98.2124V28.5353H99.9691C100.365 28.5353 100.683 28.4669 100.923 28.3301C101.163 28.1933 101.337 28.0085 101.445 27.7757C101.555 27.5405 101.611 27.2754 101.611 26.9802C101.611 26.685 101.555 26.421 101.445 26.1883C101.337 25.9555 101.162 25.7731 100.919 25.6411C100.677 25.5067 100.355 25.4395 99.9547 25.4395H98.3852V32.0198H97.4925ZM104.935 24.6476L104.863 29.9463H104.028L103.956 24.6476H104.935ZM104.445 32.0774C104.268 32.0774 104.115 32.0138 103.988 31.8866C103.861 31.7594 103.797 31.607 103.797 31.4294C103.797 31.2518 103.861 31.0995 103.988 30.9723C104.115 30.8451 104.268 30.7815 104.445 30.7815C104.623 30.7815 104.775 30.8451 104.902 30.9723C105.03 31.0995 105.093 31.2518 105.093 31.4294C105.093 31.547 105.063 31.655 105.003 31.7534C104.946 31.8518 104.868 31.931 104.769 31.991C104.673 32.0486 104.565 32.0774 104.445 32.0774Z" fill="#C97440"/>
<path d="M123.801 35.7976H78.3828V38.5387H123.801V35.7976Z" fill="#FFF2DB"/>
<path d="M117.604 42.4558H78.3828V45.1961H117.604V42.4558Z" fill="#FFF2DB"/>
<path d="M104.398 49.115H78.3828V51.8552H104.398V49.115Z" fill="#FFF2DB"/>
<path d="M120.459 55.772H78.3828V58.5135H120.459V55.772Z" fill="#FFF2DB"/>
<path d="M69.3666 57.4978C68.0138 54.3792 63.3305 52.1502 60.9383 52.1802H52.8585C50.2018 52.4123 45.7829 54.3792 44.4297 57.4978C47.5938 60.4044 52.0094 62.211 56.8984 62.211C61.7869 62.211 66.202 60.4044 69.3666 57.4978Z" fill="#31241C"/>
<path d="M53.601 45.7781C53.601 45.7781 52.8273 51.6776 52.293 55.0128C51.903 57.4494 61.3254 58.1339 61.6115 55.5073C61.8615 52.3922 62.149 47.1124 62.149 47.1124" fill="#C97440"/>
<path d="M53.2148 48.4887L53.598 45.7781L62.146 47.1124C62.146 47.1124 62.0568 48.7345 61.9376 50.7688C61.3381 50.9451 60.7114 51.0682 60.0565 51.1136C57.3532 51.3011 54.8639 50.252 53.2148 48.4887Z" fill="#AB5D2D"/>
<path d="M67.6367 41.1127C67.9769 45.3293 64.5692 49.0015 60.0264 49.3176C55.4837 49.632 51.5251 46.4701 51.1859 42.2532L50.5351 34.1804C50.195 29.9655 53.6035 26.2911 58.1458 25.9776C62.6891 25.6615 66.6472 28.8238 66.9869 33.039L67.6367 41.1127Z" fill="#C97440"/>
<path d="M56.4061 35.0252C57.5629 34.7979 58.4914 34.3192 59.1851 33.4207C59.5304 32.9738 58.7345 32.5491 58.3934 32.9909C57.8421 33.705 57.0684 34.0263 56.162 34.2047C55.5838 34.3184 55.8293 35.1384 56.4061 35.0252Z" fill="#31241C"/>
<path d="M65.7394 33.3516C65.0919 33.2388 64.694 32.9536 64.3765 32.42C64.0908 31.9396 63.2987 32.369 63.5847 32.8498C64.0067 33.5587 64.6307 34.0215 65.4954 34.1725C66.074 34.2729 66.3204 33.4528 65.7394 33.3516Z" fill="#31241C"/>
<path d="M61.6116 40.4358C61.5294 40.4358 61.4471 40.4088 61.381 40.3539C61.2382 40.2355 61.2262 40.0322 61.3537 39.8997L62.4556 38.7558L61.1906 38.269C61.0136 38.2008 60.9299 38.0125 61.003 37.8487C61.076 37.6844 61.2789 37.6064 61.4559 37.6746L63.172 38.3351C63.276 38.375 63.3522 38.459 63.3772 38.5607C63.4021 38.6623 63.3726 38.7687 63.2977 38.8468L61.8705 40.3286C61.8016 40.3998 61.7069 40.4358 61.6116 40.4358Z" fill="#31241C"/>
<path d="M59.5266 43.6895C59.418 43.6895 59.3108 43.6423 59.2433 43.5535C59.1329 43.4086 59.1698 43.2078 59.3261 43.1053C60.6913 42.2098 61.9161 41.8495 62.9708 42.0348C63.1589 42.0678 63.2823 42.2364 63.2467 42.4109C63.2107 42.5851 63.03 42.6987 62.8414 42.667C61.9813 42.5152 60.9321 42.8394 59.7268 43.6307C59.6658 43.6706 59.596 43.6895 59.5266 43.6895Z" fill="#31241C"/>
<path d="M59.4995 37.8226C59.3669 38.321 58.8234 38.626 58.2854 38.5033C57.7493 38.3802 57.4193 37.8758 57.5533 37.3766C57.6855 36.8773 58.2281 36.5724 58.7661 36.6963C59.3031 36.8186 59.6322 37.3238 59.4995 37.8226Z" fill="#1A191F"/>
<path d="M65.4961 37.4905C65.3634 37.9876 64.8208 38.2952 64.2824 38.1712C63.7453 38.0494 63.4163 37.5429 63.5489 37.0445C63.6811 36.5461 64.2251 36.2416 64.7626 36.366C65.3001 36.4882 65.6292 36.9921 65.4961 37.4905Z" fill="#1A191F"/>
<path d="M52.7669 40.2271C53.1575 41.7183 52.1717 43.2221 50.5633 43.5836C48.9553 43.9465 47.3359 43.0317 46.9453 41.5391L46.7221 40.6864C46.3316 39.1943 47.3178 37.6918 48.9258 37.329C50.5328 36.9665 52.1532 37.8822 52.5437 39.374L52.7669 40.2271Z" fill="#C97440"/>
<path d="M48.2503 37.6069C47.5464 35.7459 44.1143 28.1753 49.2181 27.9463C49.5347 24.974 53.9874 23.4063 59.5483 22.3941C65.1097 21.3823 68.5765 23.7988 68.1541 26.2156C67.7317 28.6329 64.3171 29.5143 61.6073 28.7959C60.8332 31.4088 57.102 30.5278 56.2927 30.0046C55.6678 32.536 52.5699 33.1484 52.9225 34.9121C53.2747 36.6762 53.4327 38.472 53.503 38.8318C53.5732 39.1917 51.9547 39.8938 51.6025 39.1745C51.2503 38.4565 49.8606 37.1664 48.2503 37.6069Z" fill="#31241C"/>
<path d="M63.6201 78.9446C66.995 79.5661 65.0612 68.9404 65.0386 67.3385C64.9618 67.4097 64.8846 67.4813 64.8075 67.5529C72.0706 67.613 79.3356 67.6306 86.5992 67.5714C91.7914 67.5294 96.9793 67.4058 102.172 67.4063C105.366 67.4063 108.542 67.2969 111.731 67.1828C115.151 67.0601 118.56 67.0709 121.892 66.2491C128.266 64.6776 130.586 58.4233 131.244 52.9346C131.277 52.6597 130.815 52.6632 130.782 52.9346C130.293 57.0084 128.963 61.4724 125.432 64.1861C122.772 66.2302 118.852 66.4897 115.551 66.6381C112.264 66.7865 108.962 66.9156 105.672 66.9593C95.2623 67.0979 84.8448 67.1922 74.4337 67.1704C71.2253 67.1635 68.0159 67.1502 64.8075 67.124C64.6827 67.1232 64.575 67.2223 64.5764 67.3385C64.5953 68.6895 66.1006 78.9652 63.7426 78.5311C63.4519 78.4775 63.3276 78.891 63.6201 78.9446Z" fill="#1F0E03"/>
<path d="M131.032 34.5766C131.036 39.904 131.283 45.2615 130.891 50.5811C130.871 50.8573 131.334 50.8556 131.353 50.5811C131.745 45.261 131.499 39.904 131.494 34.5766C131.494 34.3 131.032 34.3 131.032 34.5766Z" fill="#1F0E03"/>
<path d="M310.478 104.173C310.478 113.599 302.244 121.24 292.086 121.24H224.571C214.414 121.24 206.18 113.599 206.18 104.173V81.6889C206.18 72.2629 214.414 64.6216 224.571 64.6216H292.086C302.244 64.6216 310.478 72.2629 310.478 81.6889V104.173Z" fill="#3F57AB"/>
<path d="M226.999 131.053C223.84 133.831 221.259 133.831 221.266 131.053C221.273 128.276 221.283 123.731 221.289 120.954C221.295 118.176 223.88 115.903 227.033 115.903C230.186 115.903 235.346 115.903 238.499 115.903C241.652 115.903 241.647 118.176 238.488 120.954C235.328 123.731 230.158 128.276 226.999 131.053Z" fill="#3F57AB"/>
<path d="M220.176 76.9287V76.1076H225.908V76.9287H223.504V83.7507H222.579V76.9287H220.176ZM227.336 83.7507V76.1076H228.262V79.5112H232.337V76.1076H233.263V83.7507H232.337V80.3322H228.262V83.7507H227.336ZM235.429 83.7507H234.459L237.265 76.1076H238.221L241.027 83.7507H240.057L237.773 77.3168H237.713L235.429 83.7507ZM235.787 80.7651H239.698V81.5862H235.787V80.7651ZM248.278 76.1076V83.7507H247.383L243.218 77.7497H243.143V83.7507H242.218V76.1076H243.113L247.293 82.1236H247.368V76.1076H248.278ZM250.13 83.7507V76.1076H251.056V79.8993H251.145L254.579 76.1076H255.788L252.578 79.556L255.788 83.7507H254.668L252.011 80.1979L251.056 81.2727V83.7507H250.13ZM261.166 78.0184C261.121 77.6402 260.939 77.3466 260.621 77.1377C260.302 76.9287 259.912 76.8242 259.449 76.8242C259.111 76.8242 258.815 76.8789 258.561 76.9884C258.31 77.0978 258.113 77.2484 257.971 77.4399C257.832 77.6315 257.762 77.8492 257.762 78.093C257.762 78.2971 257.811 78.4725 257.908 78.6193C258.007 78.7636 258.134 78.8842 258.288 78.9813C258.443 79.0758 258.604 79.1542 258.774 79.2164C258.943 79.2761 259.098 79.3246 259.24 79.3619L260.016 79.5709C260.215 79.6232 260.437 79.6953 260.681 79.7874C260.927 79.8794 261.162 80.0051 261.386 80.1643C261.612 80.321 261.799 80.5226 261.946 80.7689C262.093 81.0152 262.166 81.3175 262.166 81.6757C262.166 82.0888 262.058 82.462 261.841 82.7953C261.627 83.1287 261.314 83.3937 260.901 83.5903C260.49 83.7868 259.991 83.8851 259.404 83.8851C258.857 83.8851 258.383 83.7968 257.982 83.6201C257.584 83.4435 257.271 83.1972 257.042 82.8812C256.816 82.5652 256.687 82.1982 256.658 81.7802H257.613C257.638 82.0689 257.735 82.3077 257.904 82.4968C258.076 82.6834 258.292 82.8227 258.553 82.9148C258.817 83.0043 259.101 83.0491 259.404 83.0491C259.758 83.0491 260.075 82.9919 260.356 82.8774C260.637 82.7605 260.86 82.5988 261.024 82.3923C261.188 82.1833 261.27 81.9395 261.27 81.6608C261.27 81.407 261.199 81.2005 261.058 81.0413C260.916 80.8821 260.729 80.7527 260.498 80.6532C260.266 80.5537 260.016 80.4666 259.748 80.3919L258.807 80.1232C258.21 79.9516 257.737 79.7065 257.389 79.388C257.041 79.0696 256.867 78.6528 256.867 78.1378C256.867 77.7099 256.982 77.3367 257.214 77.0182C257.447 76.6973 257.761 76.4485 258.154 76.2718C258.55 76.0927 258.991 76.0031 259.479 76.0031C259.972 76.0031 260.409 76.0915 260.793 76.2681C261.176 76.4423 261.479 76.6811 261.703 76.9846C261.93 77.2882 262.049 77.6328 262.061 78.0184H261.166ZM264.733 76.1076L264.658 81.6011H263.792L263.718 76.1076H264.733ZM264.225 83.8104C264.041 83.8104 263.883 83.7445 263.751 83.6126C263.619 83.4808 263.553 83.3228 263.553 83.1387C263.553 82.9546 263.619 82.7966 263.751 82.6647C263.883 82.5329 264.041 82.4669 264.225 82.4669C264.409 82.4669 264.567 82.5329 264.699 82.6647C264.831 82.7966 264.897 82.9546 264.897 83.1387C264.897 83.2606 264.866 83.3726 264.804 83.4746C264.744 83.5766 264.663 83.6587 264.561 83.7209C264.461 83.7806 264.349 83.8104 264.225 83.8104Z" fill="#C97440"/>
<path d="M265.51 88.0354H218.422V90.8764H265.51V88.0354Z" fill="#FFF2DB"/>
<path d="M259.084 94.9377H218.422V97.7805H259.084V94.9377Z" fill="#FFF2DB"/>
<path d="M245.392 101.841H218.422V104.682H245.392V101.841Z" fill="#FFF2DB"/>
<path d="M276.312 110.397C277.716 107.164 282.57 104.853 285.05 104.883H293.427C296.181 105.124 300.763 107.164 302.165 110.397C298.885 113.41 294.308 115.283 289.239 115.283C284.171 115.283 279.593 113.411 276.312 110.397Z" fill="#31241C"/>
<path d="M292.663 98.2468C292.663 98.2468 293.465 104.363 294.019 107.821C294.424 110.347 284.654 111.056 284.358 108.333C284.098 105.104 283.801 99.6305 283.801 99.6305" fill="#C97440"/>
<path d="M293.06 101.057L292.663 98.2468L283.801 99.6309C283.801 99.6309 283.893 101.313 284.017 103.422C284.639 103.605 285.288 103.732 285.967 103.779C288.769 103.973 291.35 102.885 293.06 101.057Z" fill="#AB5D2D"/>
<path d="M278.106 93.4109C277.754 97.7818 281.288 101.589 285.996 101.917C290.706 102.243 294.81 98.9652 295.162 94.5938L295.837 86.2238C296.189 81.8528 292.655 78.0446 287.947 77.7191C283.236 77.3918 279.132 80.6699 278.781 85.0404L278.106 93.4109Z" fill="#C97440"/>
<path d="M289.814 86.3235C289.35 85.4944 288.32 84.9201 287.301 85.0295C286.721 85.0921 286.714 85.9439 287.301 85.8804C288.023 85.8023 288.69 86.1601 289.023 86.7528C289.295 87.24 290.087 86.8094 289.814 86.3235Z" fill="#31241C"/>
<path d="M280.524 86.089C280.925 85.6991 281.661 85.4306 282.235 85.5597C282.809 85.6888 283.053 84.8679 282.478 84.7392C281.59 84.5398 280.505 84.8752 279.876 85.4872C279.468 85.884 280.115 86.487 280.524 86.089Z" fill="#31241C"/>
<path d="M284.351 92.6973C284.256 92.6973 284.161 92.6612 284.092 92.59L282.612 91.0533C282.537 90.9752 282.507 90.8689 282.532 90.7672C282.557 90.666 282.634 90.5815 282.737 90.542L284.517 89.8571C284.693 89.7893 284.896 89.8665 284.969 90.0312C285.043 90.195 284.959 90.3833 284.782 90.4515L283.454 90.9628L284.609 92.1616C284.736 92.2941 284.724 92.4974 284.581 92.6162C284.516 92.6702 284.433 92.6973 284.351 92.6973Z" fill="#31241C"/>
<path d="M284.221 97.103C283.271 97.103 282.629 96.1693 282.256 94.2483C282.236 94.1466 282.27 94.042 282.348 93.9678C282.426 93.8931 282.538 93.8597 282.647 93.873C283.232 93.9527 283.973 94.0351 285.045 94.0351C285.597 94.0351 286.197 94.0141 286.879 93.9712C287.004 93.9613 287.129 94.0214 287.197 94.1235C287.265 94.2247 287.266 94.3529 287.2 94.4554C286.068 96.2367 285.093 97.103 284.221 97.103ZM283.032 94.5699C283.322 95.7773 283.747 96.4593 284.221 96.4593C284.526 96.4593 285.177 96.2101 286.258 94.6484C285.009 94.7059 284.057 94.6849 283.032 94.5699Z" fill="#31241C"/>
<path d="M286.546 89.9988C286.684 90.5165 287.247 90.8322 287.805 90.7043C288.361 90.5765 288.703 90.0533 288.565 89.536C288.427 89.0192 287.864 88.7031 287.306 88.83C286.749 88.9583 286.409 89.482 286.546 89.9988Z" fill="#1A191F"/>
<path d="M280.328 89.6558C280.465 90.1713 281.029 90.4887 281.586 90.3613C282.142 90.234 282.485 89.7098 282.347 89.193C282.209 88.6762 281.645 88.3614 281.089 88.4883C280.532 88.6161 280.189 89.1381 280.328 89.6558Z" fill="#1A191F"/>
<path d="M293.522 92.4918C293.117 94.038 294.14 95.5962 295.806 95.9723C297.473 96.3481 299.153 95.3998 299.556 93.8523L299.788 92.9683C300.194 91.4221 299.171 89.8635 297.504 89.4873C295.838 89.1116 294.158 90.0616 293.753 91.6078L293.522 92.4918Z" fill="#C97440"/>
<path d="M298.204 89.7761C298.933 87.8456 302.49 79.9962 297.2 79.7599C296.871 76.6778 292.255 75.0527 286.49 74.0032C280.725 72.9541 277.129 75.4597 277.567 77.9654C278.005 80.4715 281.545 81.3846 284.354 80.64C285.157 83.349 289.025 82.4345 289.865 81.8933C290.512 84.5173 293.724 85.1525 293.359 86.9809C292.994 88.8098 292.83 90.6716 292.756 91.0452C292.684 91.4183 294.362 92.1449 294.728 91.3999C295.092 90.6558 296.534 89.3184 298.204 89.7761Z" fill="#31241C"/>
<path d="M291.871 119.975C298.66 119.726 305.936 115.717 307.382 109.206C307.442 108.937 306.996 108.822 306.936 109.092C305.532 115.415 298.465 119.304 291.871 119.546C291.575 119.557 291.573 119.986 291.871 119.975Z" fill="#1F0E03"/>
<path d="M286.255 120.01C287.493 120.051 288.732 120.073 289.971 120.099C290.27 120.105 290.269 119.676 289.971 119.67C288.732 119.644 287.493 119.622 286.255 119.581C285.956 119.57 285.957 120 286.255 120.01Z" fill="#1F0E03"/>
<path d="M226.897 129.483C229.225 127.54 231.561 125.607 233.748 123.526C234.76 122.564 235.663 121.307 236.886 120.546C237.609 120.094 238.507 120.022 239.353 119.977C241.018 119.888 242.694 119.928 244.361 119.907C247.385 119.868 250.404 119.719 253.428 119.724C256.668 119.73 259.906 119.865 263.142 120.002C269.444 120.269 275.763 120.546 282.054 119.944C282.347 119.916 282.35 119.487 282.054 119.515C275.617 120.13 269.153 119.828 262.705 119.555C259.316 119.412 255.925 119.289 252.531 119.295C249.504 119.3 246.478 119.457 243.451 119.488C241.386 119.509 238.512 119.085 236.652 120.175C235.501 120.851 234.636 122.039 233.72 122.935C231.468 125.14 229.002 127.15 226.57 129.18C226.348 129.365 226.676 129.667 226.897 129.483Z" fill="#1F0E03"/>
<path d="M272.388 42.712C272.388 47.6456 268.077 51.6456 262.761 51.6456H173.127C167.81 51.6456 163.5 47.6456 163.5 42.712V34.396C163.5 29.4623 167.81 25.4619 173.127 25.4619H262.761C268.077 25.4619 272.388 29.4623 272.388 34.396V42.712Z" fill="#E8EDFF"/>
<path d="M178.476 31.714C178.813 31.0797 179.366 31.0797 179.703 31.714L180.78 33.7406C181.117 34.375 182.011 34.978 182.766 35.0796L185.176 35.4047C185.931 35.5064 186.101 35.9941 185.555 36.4877L183.812 38.0644C183.266 38.558 182.925 39.5329 183.053 40.2308L183.466 42.4576C183.594 43.155 183.147 43.4565 182.473 43.1276L180.317 42.0755C179.642 41.7461 178.537 41.7461 177.862 42.0759L175.707 43.1271C175.032 43.4565 174.585 43.155 174.715 42.4576L175.126 40.2308C175.255 39.5329 174.914 38.5585 174.368 38.0644L172.625 36.4877C172.078 35.9941 172.249 35.5064 173.004 35.4047L175.413 35.0788C176.168 34.9771 177.062 34.3741 177.399 33.7397L178.476 31.714Z" fill="#C97440"/>
<path d="M197.735 31.714C198.072 31.0797 198.624 31.0797 198.962 31.714L200.038 33.7406C200.376 34.375 201.269 34.978 202.024 35.0796L204.433 35.4047C205.188 35.5064 205.359 35.9941 204.812 36.4877L203.07 38.0644C202.523 38.558 202.182 39.5329 202.311 40.2308L202.723 42.4576C202.852 43.155 202.405 43.4565 201.731 43.1271L199.575 42.0759C198.901 41.7461 197.796 41.7461 197.121 42.0755L194.964 43.1276C194.29 43.457 193.843 43.155 193.972 42.4576L194.384 40.2308C194.513 39.5329 194.172 38.5585 193.625 38.0644L191.883 36.4877C191.336 35.9941 191.507 35.5064 192.261 35.4047L194.671 35.0788C195.426 34.9771 196.319 34.3741 196.657 33.7397L197.735 31.714Z" fill="#C97440"/>
<path d="M216.992 31.714C217.329 31.0797 217.882 31.0797 218.219 31.714L219.296 33.7406C219.633 34.375 220.527 34.978 221.281 35.0796L223.691 35.4047C224.446 35.5064 224.617 35.9941 224.07 36.4877L222.327 38.0644C221.781 38.558 221.44 39.5329 221.568 40.2308L221.981 42.4576C222.109 43.155 221.663 43.4565 220.988 43.1271L218.832 42.0759C218.158 41.7461 217.053 41.7461 216.378 42.0759L214.223 43.1271C213.548 43.4565 213.101 43.155 213.23 42.4576L213.642 40.2308C213.771 39.5329 213.429 38.5585 212.883 38.0644L211.14 36.4877C210.594 35.9941 210.765 35.5064 211.519 35.4043L213.927 35.0792C214.682 34.9771 215.575 34.3741 215.913 33.7397L216.992 31.714Z" fill="#C97440"/>
<path d="M236.25 31.714C236.588 31.0797 237.14 31.0797 237.477 31.714L238.554 33.7406C238.891 34.375 239.785 34.978 240.54 35.0796L242.95 35.4047C243.704 35.5064 243.875 35.9941 243.329 36.4877L241.586 38.0644C241.039 38.558 240.698 39.5329 240.827 40.2308L241.239 42.4576C241.368 43.155 240.921 43.4565 240.246 43.1271L238.091 42.0759C237.416 41.7461 236.311 41.7461 235.636 42.0759L233.481 43.1271C232.806 43.4565 232.359 43.155 232.488 42.4576L232.9 40.2308C233.028 39.5334 232.687 38.5585 232.141 38.0644L230.398 36.4877C229.852 35.9941 230.022 35.5064 230.777 35.4047L233.186 35.0788C233.941 34.9771 234.835 34.3741 235.172 33.7397L236.25 31.714Z" fill="#C97440"/>
<path d="M255.502 31.7143C255.84 31.0799 256.392 31.0799 256.73 31.7143L257.808 33.7409C258.145 34.3752 259.039 34.9782 259.794 35.0799L262.203 35.405C262.958 35.5066 263.129 35.9943 262.582 36.488L260.839 38.0646C260.292 38.5583 259.951 39.5332 260.08 40.231L260.492 42.4579C260.621 43.1553 260.174 43.4568 259.499 43.1278L257.343 42.0757C256.668 41.7463 255.564 41.7463 254.889 42.0761L252.734 43.1274C252.06 43.4568 251.613 43.1553 251.742 42.4579L252.154 40.231C252.282 39.5332 251.941 38.5587 251.395 38.0646L249.652 36.488C249.106 35.9943 249.276 35.5066 250.031 35.4046L252.439 35.0795C253.194 34.9774 254.088 34.3743 254.425 33.74L255.502 31.7143Z" fill="#C97440"/>
<path d="M211.669 50.333C213.19 50.3167 214.708 50.1928 216.228 50.1765C216.527 50.1735 216.527 49.7446 216.228 49.7476C214.708 49.7639 213.19 49.8878 211.669 49.9041C211.371 49.9071 211.37 50.336 211.669 50.333Z" fill="#1F0E03"/>
<path d="M218.349 50.1767C223.783 50.063 229.217 50.2882 234.651 50.2058C237.362 50.1646 240.052 49.9296 242.757 49.8061C245.601 49.6766 248.451 49.7212 251.296 49.7894C254.013 49.8541 256.729 49.9523 259.447 49.9896C261.321 50.0154 263.227 50.099 265.071 49.7293C268.09 49.1237 269.374 46.8557 269.574 44.1609C269.595 43.8846 269.132 43.8864 269.112 44.1609C269.001 45.6564 268.627 47.1267 267.427 48.1973C266.336 49.1717 264.692 49.4342 263.245 49.5397C261.09 49.6971 258.882 49.5603 256.725 49.5088C254.163 49.4475 251.602 49.3566 249.04 49.315C243.925 49.2322 238.855 49.7284 233.745 49.7894C228.612 49.8507 223.481 49.6405 218.348 49.7478C218.051 49.7542 218.05 50.1831 218.349 50.1767Z" fill="#1F0E03"/>
<path d="M57.0875 106.916C57.0875 111.849 52.7772 115.849 47.4608 115.849H9.42752C4.11107 115.849 -0.199219 111.849 -0.199219 106.916V96.5225C-0.199219 91.5889 4.11061 87.5894 9.42752 87.5894H47.4612C52.7777 87.5894 57.088 91.5889 57.088 96.5225L57.0875 106.916Z" fill="#E8EDFF"/>
<path d="M11.7266 105.991V105.042L15.2889 101.143C15.707 100.686 16.0513 100.289 16.3218 99.9516C16.5923 99.6108 16.7925 99.2911 16.9225 98.9925C17.056 98.6904 17.1228 98.3742 17.1228 98.044C17.1228 97.6645 17.0314 97.3361 16.8487 97.0585C16.6696 96.781 16.4236 96.5667 16.111 96.4156C15.7983 96.2645 15.447 96.189 15.057 96.189C14.6425 96.189 14.2806 96.2751 13.9715 96.4472C13.6658 96.6159 13.4287 96.853 13.2601 97.1586C13.0949 97.4643 13.0124 97.8226 13.0124 98.2337H11.7687C11.7687 97.6013 11.9145 97.0462 12.2061 96.5684C12.4977 96.0906 12.8947 95.7183 13.3971 95.4513C13.903 95.1843 14.4703 95.0508 15.0992 95.0508C15.7316 95.0508 16.2919 95.1843 16.7802 95.4513C17.2686 95.7183 17.6515 96.0784 17.929 96.5315C18.2066 96.9847 18.3453 97.4889 18.3453 98.044C18.3453 98.4409 18.2733 98.8292 18.1293 99.2086C17.9888 99.5845 17.7428 100.004 17.3915 100.468C17.0437 100.928 16.5607 101.49 15.9423 102.154L13.5183 104.747V104.831H18.5351V105.991H11.7266ZM20.2266 103.777V102.702L24.9694 95.1983H25.7493V96.8635H25.2223L21.6389 102.534V102.618H28.0258V103.777H20.2266ZM25.3067 105.991V103.451V102.95V95.1983H26.5503V105.991H25.3067ZM33.837 94.6924L30.359 107.614H29.2208L32.6988 94.6924H33.837ZM35.6274 105.991L40.4545 96.442V96.3576H34.8897V95.1983H41.8036V96.4209L36.9976 105.991H35.6274Z" fill="#C97440"/>
<path d="M32.8114 114.312C39.4016 112.814 46.7484 115.823 52.7535 112.057C52.999 111.903 52.7679 111.531 52.5201 111.687C46.5881 115.407 39.2195 112.414 32.6885 113.898C32.3992 113.964 32.5221 114.378 32.8114 114.312Z" fill="#1F0E03"/>
<path d="M54.9365 98.4711C55.0387 99.3932 54.9887 100.315 55.1237 101.236C55.2804 102.302 55.45 103.332 55.4384 104.41C55.4172 106.451 55.2314 108.622 53.9548 110.353C53.7857 110.581 54.1869 110.796 54.3537 110.569C55.4759 109.048 55.7587 107.219 55.8683 105.416C55.9251 104.485 55.9478 103.534 55.81 102.608C55.6039 101.223 55.5517 99.8543 55.3987 98.4706C55.3691 98.1987 54.906 98.1957 54.9365 98.4711Z" fill="#1F0E03"/>
</g>
<defs>
<clipPath id="clip0_4043_19618">
<rect width="310" height="180" fill="white"/>
</clipPath>
</defs>
</svg>
