<svg width="185" height="204" viewBox="0 0 185 204" fill="none" xmlns="http://www.w3.org/2000/svg">
<g opacity="0.2">
<path d="M133.068 12.5385V149.265C133.068 150.88 131.755 152.188 130.145 152.188H58.3435C56.729 152.188 55.416 150.88 55.416 149.265V12.5385C55.416 10.9284 56.729 9.61548 58.3435 9.61548H130.145C131.755 9.61548 133.068 10.9284 133.068 12.5385Z" fill="white"/>
</g>
<path d="M142.132 12.5413V149.266C142.132 156.064 136.6 161.596 129.802 161.596H58.0004C51.1979 161.596 45.666 156.064 45.666 149.266V12.5413C45.666 5.73938 51.1979 0.20694 58.0004 0.20694H129.802C136.6 0.20694 142.132 5.73883 142.132 12.5413Z" fill="black"/>
<path opacity="0.15" d="M58.0007 159.943C52.1084 159.943 47.3145 155.154 47.3145 149.268V12.5413C47.3145 6.64899 52.1084 1.85501 58.0007 1.85501H129.8C135.69 1.85501 140.481 6.64899 140.481 12.5413V149.267C140.481 155.154 135.69 159.942 129.8 159.942H58.0007V159.943ZM58.0007 5.15664C53.9287 5.15664 50.6161 8.46929 50.6161 12.5413V149.267C50.6161 153.333 53.9287 156.641 58.0007 156.641H129.8C133.87 156.641 137.179 153.333 137.179 149.267V12.5413C137.179 8.46929 133.869 5.15664 129.8 5.15664H104.603C103.782 5.15664 103.079 5.77075 102.967 6.5846C102.539 9.72005 99.8242 12.0846 96.6519 12.0846C93.4823 12.0846 90.7695 9.72005 90.3413 6.58405C90.2302 5.7702 89.5269 5.15664 88.7059 5.15664H58.0007Z" fill="white"/>
<path d="M135.529 12.5413V149.267C135.529 152.421 132.96 154.99 129.801 154.99H58.0014C54.8373 154.99 52.2676 152.421 52.2676 149.267V12.5413C52.2676 9.37724 54.8373 6.80746 58.0014 6.80746H88.7066C89.2404 10.7199 92.6025 13.7354 96.6525 13.7354C100.708 13.7354 104.07 10.7144 104.604 6.80746H129.801C132.96 6.80746 135.529 9.37724 135.529 12.5413Z" fill="white"/>
<path d="M84.9127 27.0366H84.3624V26.4863C84.3624 26.0307 83.9932 25.6609 83.537 25.6609C83.0809 25.6609 82.7116 26.0307 82.7116 26.4863V27.0366H82.1613C81.7052 27.0366 81.3359 27.4064 81.3359 27.862C81.3359 28.3176 81.7052 28.6874 82.1613 28.6874H82.7116V29.2377C82.7116 29.6933 83.0809 30.0631 83.537 30.0631C83.9932 30.0631 84.3624 29.6933 84.3624 29.2377V28.6874H84.9127C85.3689 28.6874 85.7381 28.3176 85.7381 27.862C85.7381 27.4064 85.3689 27.0366 84.9127 27.0366Z" fill="#00D88E"/>
<path d="M64.1471 40.0813H63.5968V39.531C63.5968 39.0754 63.2276 38.7056 62.7714 38.7056C62.3152 38.7056 61.946 39.0754 61.946 39.531V40.0813H61.3957C60.9395 40.0813 60.5703 40.4511 60.5703 40.9067C60.5703 41.3623 60.9395 41.7321 61.3957 41.7321H61.946V42.2824C61.946 42.738 62.3152 43.1078 62.7714 43.1078C63.2276 43.1078 63.5968 42.738 63.5968 42.2824V41.7321H64.1471C64.6033 41.7321 64.9725 41.3623 64.9725 40.9067C64.9725 40.4511 64.6033 40.0813 64.1471 40.0813Z" fill="#2697CF"/>
<path d="M62.7174 84.4801H62.1671V83.9298C62.1671 83.4742 61.7979 83.1044 61.3417 83.1044C60.8855 83.1044 60.5163 83.4742 60.5163 83.9298V84.4801H59.966C59.5099 84.4801 59.1406 84.8498 59.1406 85.3055C59.1406 85.7611 59.5099 86.1309 59.966 86.1309H60.5163V86.6811C60.5163 87.1368 60.8855 87.5065 61.3417 87.5065C61.7979 87.5065 62.1671 87.1368 62.1671 86.6811V86.1309H62.7174C63.1736 86.1309 63.5428 85.7611 63.5428 85.3055C63.5428 84.8498 63.1736 84.4801 62.7174 84.4801Z" fill="#00D88E"/>
<path d="M101.227 128.83H100.677V128.28C100.677 127.824 100.308 127.455 99.8515 127.455C99.3953 127.455 99.0261 127.824 99.0261 128.28V128.83H98.4758C98.0196 128.83 97.6504 129.2 97.6504 129.656C97.6504 130.111 98.0196 130.481 98.4758 130.481H99.0261V131.031C99.0261 131.487 99.3953 131.857 99.8515 131.857C100.308 131.857 100.677 131.487 100.677 131.031V130.481H101.227C101.683 130.481 102.053 130.111 102.053 129.656C102.053 129.2 101.683 128.83 101.227 128.83Z" fill="#00D88E"/>
<path d="M129.02 45.9054H128.47V45.3551C128.47 44.8995 128.101 44.5297 127.644 44.5297C127.188 44.5297 126.819 44.8995 126.819 45.3551V45.9054H126.269C125.813 45.9054 125.443 46.2752 125.443 46.7308C125.443 47.1864 125.813 47.5562 126.269 47.5562H126.819V48.1065C126.819 48.5621 127.188 48.9319 127.644 48.9319C128.101 48.9319 128.47 48.5621 128.47 48.1065V47.5562H129.02C129.476 47.5562 129.846 47.1864 129.846 46.7308C129.846 46.2752 129.476 45.9054 129.02 45.9054Z" fill="#2697CF"/>
<path d="M64.7213 18.5156H64.171V17.9653C64.171 17.5097 63.8018 17.1399 63.3456 17.1399C62.8894 17.1399 62.5202 17.5097 62.5202 17.9653V18.5156H61.9699C61.5138 18.5156 61.1445 18.8854 61.1445 19.341C61.1445 19.7966 61.5138 20.1664 61.9699 20.1664H62.5202V20.7167C62.5202 21.1723 62.8894 21.5421 63.3456 21.5421C63.8018 21.5421 64.171 21.1723 64.171 20.7167V20.1664H64.7213C65.1775 20.1664 65.5467 19.7966 65.5467 19.341C65.5467 18.8854 65.1775 18.5156 64.7213 18.5156Z" fill="#2697CF"/>
<path d="M99.026 114.755H98.4757V114.205C98.4757 113.749 98.1065 113.379 97.6503 113.379C97.1941 113.379 96.8249 113.749 96.8249 114.205V114.755H96.2746C95.8184 114.755 95.4492 115.125 95.4492 115.58C95.4492 116.036 95.8184 116.406 96.2746 116.406H96.8249V116.956C96.8249 117.412 97.1941 117.781 97.6503 117.781C98.1065 117.781 98.4757 117.412 98.4757 116.956V116.406H99.026C99.4822 116.406 99.8514 116.036 99.8514 115.58C99.8514 115.125 99.4816 114.755 99.026 114.755Z" fill="#2697CF"/>
<path d="M125.633 80.0779H125.083V79.5276C125.083 79.072 124.714 78.7022 124.258 78.7022C123.802 78.7022 123.432 79.072 123.432 79.5276V80.0779H122.882C122.426 80.0779 122.057 80.4476 122.057 80.9033C122.057 81.3589 122.426 81.7287 122.882 81.7287H123.432V82.279C123.432 82.7346 123.802 83.1044 124.258 83.1044C124.714 83.1044 125.083 82.7346 125.083 82.279V81.7287H125.633C126.09 81.7287 126.459 81.3589 126.459 80.9033C126.459 80.4476 126.089 80.0779 125.633 80.0779Z" fill="#00D88E"/>
<path d="M135.529 138.933V149.267C135.529 152.421 132.96 154.99 129.801 154.99H58.0014C54.8373 154.99 52.2676 152.421 52.2676 149.267V138.933H135.529Z" fill="#2697CF"/>
<path d="M74.8563 144.423H74.1293C74.0864 144.214 74.0111 144.031 73.9036 143.872C73.7981 143.714 73.6692 143.581 73.5167 143.474C73.3663 143.364 73.1992 143.282 73.0155 143.228C72.8318 143.173 72.6403 143.145 72.441 143.145C72.0775 143.145 71.7483 143.237 71.4532 143.421C71.1601 143.605 70.9266 143.875 70.7527 144.233C70.5807 144.59 70.4947 145.029 70.4947 145.549C70.4947 146.069 70.5807 146.507 70.7527 146.865C70.9266 147.223 71.1601 147.493 71.4532 147.677C71.7483 147.861 72.0775 147.953 72.441 147.953C72.6403 147.953 72.8318 147.925 73.0155 147.87C73.1992 147.816 73.3663 147.735 73.5167 147.627C73.6692 147.518 73.7981 147.384 73.9036 147.226C74.0111 147.065 74.0864 146.882 74.1293 146.675H74.8563C74.8016 146.981 74.7019 147.256 74.5573 147.498C74.4127 147.74 74.2329 147.947 74.018 148.117C73.803 148.285 73.5617 148.413 73.294 148.501C73.0282 148.589 72.7439 148.633 72.441 148.633C71.929 148.633 71.4737 148.507 71.0751 148.257C70.6765 148.007 70.3628 147.652 70.1342 147.19C69.9056 146.729 69.7913 146.182 69.7913 145.549C69.7913 144.916 69.9056 144.369 70.1342 143.908C70.3628 143.446 70.6765 143.091 71.0751 142.841C71.4737 142.59 71.929 142.465 72.441 142.465C72.7439 142.465 73.0282 142.509 73.294 142.597C73.5617 142.685 73.803 142.814 74.018 142.984C74.2329 143.152 74.4127 143.357 74.5573 143.6C74.7019 143.84 74.8016 144.115 74.8563 144.423ZM76.2771 148.55H75.515L77.7193 142.547H78.4696L80.6738 148.55H79.9117L78.1179 143.497H78.071L76.2771 148.55ZM76.5585 146.206H79.6304V146.85H76.5585V146.206ZM84.8917 144.048C84.8566 143.751 84.7139 143.521 84.4638 143.356C84.2137 143.192 83.9069 143.11 83.5434 143.11C83.2777 143.11 83.0451 143.153 82.8458 143.239C82.6485 143.325 82.4941 143.443 82.3827 143.594C82.2733 143.744 82.2186 143.915 82.2186 144.107C82.2186 144.267 82.2567 144.405 82.3329 144.52C82.411 144.633 82.5107 144.728 82.6318 144.804C82.753 144.879 82.88 144.94 83.0129 144.989C83.1458 145.036 83.2679 145.074 83.3793 145.103L83.989 145.268C84.1453 145.309 84.3192 145.365 84.5107 145.438C84.7042 145.51 84.8888 145.609 85.0647 145.734C85.2425 145.857 85.3891 146.015 85.5044 146.208C85.6196 146.402 85.6773 146.639 85.6773 146.921C85.6773 147.245 85.5923 147.538 85.4223 147.8C85.2542 148.062 85.008 148.27 84.6836 148.424C84.3612 148.579 83.9694 148.656 83.5083 148.656C83.0784 148.656 82.7061 148.587 82.3915 148.448C82.0788 148.309 81.8326 148.116 81.6528 147.868C81.475 147.619 81.3744 147.331 81.3509 147.003H82.1013C82.1208 147.229 82.1971 147.417 82.3299 147.566C82.4648 147.712 82.6348 147.822 82.84 147.894C83.0471 147.964 83.2699 147.999 83.5083 147.999C83.7857 147.999 84.0349 147.954 84.2557 147.865C84.4765 147.773 84.6514 147.646 84.7804 147.484C84.9093 147.319 84.9738 147.128 84.9738 146.909C84.9738 146.71 84.9181 146.548 84.8067 146.422C84.6954 146.297 84.5488 146.196 84.3671 146.118C84.1853 146.039 83.989 145.971 83.7779 145.912L83.0393 145.701C82.5703 145.567 82.199 145.374 81.9254 145.124C81.6519 144.874 81.5151 144.547 81.5151 144.142C81.5151 143.806 81.6059 143.513 81.7877 143.263C81.9714 143.011 82.2176 142.815 82.5263 142.676C82.837 142.536 83.1839 142.465 83.5669 142.465C83.9538 142.465 84.2977 142.535 84.5986 142.674C84.8996 142.81 85.138 142.998 85.3138 143.236C85.4917 143.475 85.5855 143.745 85.5952 144.048H84.8917ZM86.8725 148.55V142.547H87.5994V145.221H90.8002V142.547H91.5271V148.55H90.8002V145.866H87.5994V148.55H86.8725ZM92.9824 148.55V142.547H95.0811C95.4993 142.547 95.8442 142.62 96.1158 142.764C96.3874 142.907 96.5897 143.1 96.7226 143.342C96.8554 143.582 96.9219 143.849 96.9219 144.142C96.9219 144.4 96.876 144.613 96.7841 144.781C96.6942 144.949 96.575 145.082 96.4265 145.18C96.28 145.277 96.1207 145.35 95.9487 145.397V145.455C96.1324 145.467 96.3171 145.531 96.5027 145.649C96.6884 145.766 96.8437 145.934 96.9688 146.153C97.0938 146.372 97.1564 146.639 97.1564 146.956C97.1564 147.257 97.088 147.527 96.9512 147.768C96.8144 148.008 96.5985 148.199 96.3034 148.339C96.0083 148.48 95.6244 148.55 95.1515 148.55H92.9824ZM93.7093 147.906H95.1515C95.6263 147.906 95.9634 147.814 96.1627 147.63C96.364 147.444 96.4646 147.22 96.4646 146.956C96.4646 146.753 96.4128 146.565 96.3093 146.393C96.2057 146.219 96.0582 146.08 95.8667 145.977C95.6752 145.871 95.4485 145.819 95.1866 145.819H93.7093V147.906ZM93.7093 145.186H95.0577C95.2765 145.186 95.4739 145.143 95.6498 145.057C95.8276 144.971 95.9683 144.849 96.0718 144.693C96.1774 144.537 96.2301 144.353 96.2301 144.142C96.2301 143.878 96.1383 143.654 95.9546 143.471C95.7709 143.285 95.4798 143.192 95.0811 143.192H93.7093V145.186ZM98.597 148.55H97.8349L100.039 142.547H100.79L102.994 148.55H102.232L100.438 143.497H100.391L98.597 148.55ZM98.8784 146.206H101.95V146.85H98.8784V146.206ZM108.477 144.423H107.75C107.707 144.214 107.632 144.031 107.525 143.872C107.419 143.714 107.29 143.581 107.138 143.474C106.987 143.364 106.82 143.282 106.636 143.228C106.453 143.173 106.261 143.145 106.062 143.145C105.698 143.145 105.369 143.237 105.074 143.421C104.781 143.605 104.547 143.875 104.374 144.233C104.202 144.59 104.116 145.029 104.116 145.549C104.116 146.069 104.202 146.507 104.374 146.865C104.547 147.223 104.781 147.493 105.074 147.677C105.369 147.861 105.698 147.953 106.062 147.953C106.261 147.953 106.453 147.925 106.636 147.87C106.82 147.816 106.987 147.735 107.138 147.627C107.29 147.518 107.419 147.384 107.525 147.226C107.632 147.065 107.707 146.882 107.75 146.675H108.477C108.422 146.981 108.323 147.256 108.178 147.498C108.034 147.74 107.854 147.947 107.639 148.117C107.424 148.285 107.183 148.413 106.915 148.501C106.649 148.589 106.365 148.633 106.062 148.633C105.55 148.633 105.095 148.507 104.696 148.257C104.297 148.007 103.984 147.652 103.755 147.19C103.526 146.729 103.412 146.182 103.412 145.549C103.412 144.916 103.526 144.369 103.755 143.908C103.984 143.446 104.297 143.091 104.696 142.841C105.095 142.59 105.55 142.465 106.062 142.465C106.365 142.465 106.649 142.509 106.915 142.597C107.183 142.685 107.424 142.814 107.639 142.984C107.854 143.152 108.034 143.357 108.178 143.6C108.323 143.84 108.422 144.115 108.477 144.423ZM109.652 148.55V142.547H110.379V145.526H110.449L113.146 142.547H114.095L111.575 145.256L114.095 148.55H113.216L111.129 145.76L110.379 146.604V148.55H109.652Z" fill="white"/>
<path opacity="0.2" d="M129.801 6.80746H104.604C104.07 10.7144 100.708 13.7354 96.6525 13.7354C92.6025 13.7354 89.2404 10.7199 88.7066 6.80746H58.0014C54.8373 6.80746 52.2676 9.37724 52.2676 12.5413V149.267C52.2676 152.421 54.8373 154.99 58.0014 154.99H129.801C132.96 154.99 135.529 152.421 135.529 149.267V12.5413C135.529 9.37724 132.96 6.80746 129.801 6.80746ZM134.429 149.267C134.429 151.815 132.354 153.89 129.801 153.89H58.0014C55.4482 153.89 53.3681 151.815 53.3681 149.267V12.5413C53.3681 9.98804 55.4482 7.90801 58.0014 7.90801H87.7987C88.7891 11.9195 92.443 14.8359 96.6525 14.8359C100.868 14.8359 104.516 11.9195 105.512 7.90801H129.801C132.354 7.90801 134.429 9.98804 134.429 12.5413V149.267Z" fill="black"/>
<path d="M123.43 68.2294C122.974 68.2294 122.604 67.8602 122.604 67.404C122.604 51.5754 109.727 38.6979 93.8977 38.6979C93.442 38.6979 93.0723 38.3287 93.0723 37.8725C93.0723 37.4164 93.442 37.0471 93.8977 37.0471C110.637 37.0471 124.255 50.6653 124.255 67.404C124.255 67.8602 123.885 68.2294 123.43 68.2294Z" fill="#00D88E"/>
<path d="M93.8998 97.7614C77.1611 97.7614 63.543 84.1433 63.543 67.404C63.543 66.9478 63.9122 66.5786 64.3684 66.5786C64.8246 66.5786 65.1938 66.9478 65.1938 67.404C65.1938 83.2326 78.0713 96.1106 93.8998 96.1106C94.3555 96.1106 94.7253 96.4804 94.7253 96.936C94.7253 97.3916 94.3555 97.7614 93.8998 97.7614Z" fill="#2697CF"/>
<path d="M135.528 62.0009H93.9004V72.8137H135.528V62.0009Z" fill="#2697CF"/>
<path d="M93.9012 62.0009H52.2676V72.8137H93.9012V62.0009Z" fill="#00D88E"/>
<path opacity="0.2" d="M96.6509 9.6133C98.8032 9.6133 100.548 7.86854 100.548 5.71627C100.548 3.564 98.8032 1.81924 96.6509 1.81924C94.4987 1.81924 92.7539 3.564 92.7539 5.71627C92.7539 7.86854 94.4987 9.6133 96.6509 9.6133Z" fill="#FCFBFC"/>
<path opacity="0.6" d="M99.7669 5.71626C99.7669 3.99446 98.3709 2.59842 96.6491 2.59842C94.9273 2.59842 93.5312 3.99446 93.5312 5.71626C93.5312 7.43806 94.9273 8.83411 96.6491 8.83411C98.3714 8.83411 99.7669 7.43806 99.7669 5.71626Z" fill="#FCFBFC"/>
<path opacity="0.1" d="M98.8411 5.71627C98.8411 4.50677 97.8605 3.52618 96.651 3.52618C95.4415 3.52618 94.4609 4.50677 94.4609 5.71627C94.4609 6.92576 95.4415 7.9069 96.651 7.9069C97.8605 7.90635 98.8411 6.92576 98.8411 5.71627Z" fill="black"/>
<path d="M98.2096 5.71627C98.2096 4.85564 97.5119 4.15735 96.6507 4.15735C95.7895 4.15735 95.0918 4.85509 95.0918 5.71627C95.0918 6.57745 95.7895 7.27519 96.6507 7.27519C97.5119 7.27519 98.2096 6.5769 98.2096 5.71627Z" fill="black"/>
<path opacity="0.6" d="M95.8705 6.10532C96.5163 6.10532 97.0398 5.58179 97.0398 4.93599C97.0398 4.29019 96.5163 3.76666 95.8705 3.76666C95.2247 3.76666 94.7012 4.29019 94.7012 4.93599C94.7012 5.58179 95.2247 6.10532 95.8705 6.10532Z" fill="#FCFBFC"/>
<path d="M85.0759 108.539L70.0442 93.5051C67.8959 91.3563 64.411 91.3562 62.2622 93.5045C60.1128 95.6528 60.1128 99.1371 62.2617 101.286L67.9014 106.927H28.0501C18.6515 106.927 11.0054 99.2807 11.0054 89.8821C11.0054 80.4834 18.652 72.8374 28.0501 72.8374H45.6655V61.8319H28.0501C12.5831 61.8319 0 74.415 0 89.8821C0 105.349 12.5831 117.933 28.0501 117.933H67.9008L62.2617 123.573C60.1128 125.722 60.1128 129.206 62.2617 131.355C63.3363 132.43 64.7445 132.967 66.1526 132.967C67.5608 132.967 68.9695 132.429 70.0436 131.354L85.0754 116.321C87.2242 114.172 87.2242 110.688 85.0759 108.539Z" fill="#00D88E"/>
<path d="M99.2596 26.1072L114.291 41.1412C116.44 43.29 119.924 43.29 122.073 41.1417C124.223 38.9934 124.223 35.5091 122.074 33.3597L116.434 27.7189H156.285C165.684 27.7189 173.33 35.3655 173.33 44.7641C173.33 54.1628 165.684 61.8088 156.285 61.8088H142.132V72.8143H156.285C171.752 72.8143 184.336 60.2312 184.336 44.7641C184.336 29.2971 171.752 16.7135 156.285 16.7135H116.435L122.074 11.0732C124.223 8.92436 124.223 5.44059 122.074 3.29122C120.999 2.21654 119.591 1.67947 118.183 1.67947C116.775 1.67947 115.366 2.21709 114.292 3.29177L99.2601 18.3252C97.1113 20.474 97.1113 23.9578 99.2596 26.1072Z" fill="#2697CF"/>
<path fill-rule="evenodd" clip-rule="evenodd" d="M129.999 100.123V96.8638H114.803H111.282H109.258V97.1298V100.123H111.88H113.674H114.205C116.524 100.123 118.502 101.651 119.19 103.748H109.258V107.007H119.45V107.544C119.45 110.43 117.09 112.791 114.205 112.791H113.674H111.88H110.968L110.961 112.784L110.955 112.791H109.258V114.487V115.69V115.785C109.299 115.795 109.341 115.803 109.381 115.813L118.055 124.488L121.023 127.455H125.623L125.628 127.449L114.228 116.051H114.804C119.174 116.051 122.749 112.475 122.749 108.105V107.008H130V103.748H122.675C122.494 102.406 121.976 101.169 121.207 100.123H122.55L129.999 100.123Z" fill="#3AA0D2"/>
<path d="M119.185 67.4073C119.185 81.3732 107.86 92.6923 93.8999 92.6923C86.8234 92.6923 80.4292 89.7869 75.8345 85.1041C73.87 83.0956 72.2302 80.7569 71.0141 78.1761C70.6784 77.4718 70.3757 76.7454 70.1116 76.0026C69.5944 74.5773 69.2037 73.0916 68.9505 71.5619C68.7249 70.2137 68.6094 68.8215 68.6094 67.4073C68.6094 53.4469 79.934 42.1223 93.8999 42.1223C95.3141 42.1223 96.7063 42.2378 98.0545 42.4635C99.5842 42.7166 101.064 43.1018 102.49 43.619C103.233 43.8887 103.953 44.1858 104.663 44.5215C107.238 45.7376 109.577 47.3719 111.591 49.3474C116.279 53.9366 119.185 60.3308 119.185 67.4073Z" fill="#FFD524"/>
<g opacity="0.4">
<path d="M116.84 67.4073C116.84 80.0784 106.566 90.3471 93.8998 90.3471C81.2287 90.3471 70.9551 80.0779 70.9551 67.4073C70.9551 54.7411 81.2292 44.4676 93.8998 44.4676C106.565 44.4676 116.84 54.7411 116.84 67.4073Z" fill="#FFB727"/>
</g>
<path d="M115.32 67.4073C115.32 79.2382 105.727 88.8266 93.9003 88.8266C82.0695 88.8266 72.4766 79.2382 72.4766 67.4073C72.4766 55.5808 82.0695 45.9879 93.9003 45.9879C105.727 45.9879 115.32 55.5808 115.32 67.4073Z" fill="#FFB727"/>
<path opacity="0.2" d="M111.593 49.3556L75.836 85.1123C73.8715 83.1038 72.2317 80.7652 71.0156 78.1844L104.665 44.5297C107.24 45.7458 109.579 47.3801 111.593 49.3556Z" fill="white"/>
<path opacity="0.2" d="M102.49 43.6273L70.1122 76.0108C69.595 74.5856 69.2043 73.0999 68.9512 71.5701L98.0551 42.4717C99.5848 42.7248 101.065 43.11 102.49 43.6273Z" fill="white"/>
<path d="M177.316 207.88C177.316 212.413 173.642 216.087 169.11 216.087H112.045C107.512 216.087 103.838 212.413 103.838 207.88V199.854C103.838 195.321 107.512 191.647 112.045 191.647H169.109C173.642 191.647 177.316 195.321 177.316 199.854V207.88H177.316Z" fill="#F2F2F2"/>
<path d="M116.767 209.587C119.381 209.587 121.5 207.468 121.5 204.854C121.5 202.24 119.381 200.12 116.767 200.12C114.152 200.12 112.033 202.24 112.033 204.854C112.033 207.468 114.152 209.587 116.767 209.587Z" fill="#2697CF"/>
<path d="M175.523 157.461C174.455 184.765 166.168 191.649 166.168 191.649H115.708C115.708 191.649 109.82 184.006 107.691 161.616V161.594L125.112 161.616L107.823 125.017C104.791 118.832 107.338 111.365 113.523 108.327C119.703 105.295 127.176 107.843 130.213 114.028L142.132 138.306V72.0642C142.132 72.0642 177.685 102.043 175.523 157.461Z" fill="#EDBDA9"/>
<path d="M142.131 138.229L145.441 144.185C145.441 144.185 148.732 116.188 142.131 107.498V138.229Z" fill="#EDA282"/>
<path d="M145.44 191.647H115.709C115.709 191.647 109.822 184.004 107.693 161.615H125.113C125.113 161.615 130.562 182.097 145.44 191.647Z" fill="#EDBDA9"/>
<path d="M107.693 161.615C107.693 161.615 115.36 171.623 125.749 175.778C125.749 175.778 124.477 170.307 125.113 161.615H107.693Z" fill="#EDA282"/>
<path d="M113.833 125.579L127.41 119.263C127.41 119.263 123.768 107.616 115.273 111.573C107.28 115.296 113.833 125.579 113.833 125.579Z" fill="#EDA282"/>
<path d="M122.398 137.449L130.979 133.385" stroke="#EDA282" stroke-width="1.65082" stroke-miterlimit="10" stroke-linecap="round"/>
<path d="M124.646 141.939L133.227 137.875" stroke="#EDA282" stroke-width="1.65082" stroke-miterlimit="10" stroke-linecap="round"/>
</svg>
