<svg width="614" height="556" viewBox="0 0 614 556" fill="none" xmlns="http://www.w3.org/2000/svg">
<path d="M82.4869 263.385C91.7762 262.033 100.676 250.645 102.59 238.469C103.388 233.396 103.031 228.028 100.733 224.499C98.1716 220.566 93.7753 219.593 89.6576 218.808C84.6026 217.845 76.0643 220.272 72.8591 226.429L72.8849 226.406C69.0224 230.711 66.1835 236.793 65.7861 242.961C65.0047 255.104 73.1997 264.736 82.4869 263.385Z" fill="#FAE8DC"/>
<path d="M101.826 190.118C107.233 189.331 112.414 182.702 113.528 175.614C113.993 172.661 113.785 169.536 112.447 167.482C110.956 165.193 108.397 164.626 106 164.169C103.057 163.609 98.0873 165.021 96.2215 168.606L96.2366 168.592C93.9882 171.098 92.3357 174.638 92.1043 178.229C91.6494 185.298 96.4198 190.904 101.826 190.118Z" fill="#FAE8DC"/>
<path d="M557.018 554.791C557.017 554.791 391.505 554.309 83.5429 553.413C71.0814 541.499 45.0081 513.309 32.3387 468.02C29.0271 456.182 14.1828 398.678 39.9277 341.854C66.4412 283.332 102.565 299.34 128.347 240.762C147.438 197.384 136.625 168.168 168.555 123.518C181.443 105.496 194.48 94.4891 199.245 90.6345C253.717 46.5672 318.969 53.8761 339.728 56.2015C352.661 57.6501 372.012 59.9869 394.872 70.8355C421.698 83.5668 438.409 100.927 448.045 111.122C453.115 116.485 469.746 134.634 485.748 165.311C509.448 210.746 502.362 227.291 529.124 277.951C538.356 295.428 547.286 308.766 550.454 313.416C568.093 339.304 577.827 346.384 586.888 358.867C609.836 390.484 614.336 437.298 605.597 471.463C594.353 515.423 557.01 554.785 557.018 554.791Z" fill="#FAE8DC"/>
<path d="M268.317 72.5913C257.278 78.5577 249.567 90.0228 248.355 102.273C247.249 113.447 250.992 125.768 244.965 135.333C243.047 138.378 240.289 140.816 237.889 143.516C230.36 151.984 226.348 163.342 226.933 174.534C227.293 181.42 229.299 188.43 227.483 195.094C225.418 202.678 218.795 208.237 211.933 212.335C205.07 216.433 197.536 219.648 191.645 224.993C185.753 230.337 182.919 238.312 184.413 246.07C187.29 261.008 204.897 271.142 211.168 273.257C219.517 276.073 216.426 261.401 225.251 260.978C244.738 260.045 264.833 254.972 279.3 242.208C282.143 239.699 284.794 236.832 286.17 233.342C288.063 228.537 287.331 223.19 286.884 218.062C286.035 208.314 286.329 198.472 287.757 188.789C290.127 172.725 295.576 157.262 301.25 142.004C304.954 132.042 308.798 121.993 309.97 111.458C311.17 100.671 309.521 89.7975 307.877 79.0663L268.317 72.5913Z" fill="#D75C3D"/>
<path d="M284.424 85.5307C291.18 105.04 288.748 127.797 278.042 145.253C275.29 149.74 272.03 153.889 269.602 158.577C266.152 165.237 264.483 173.082 265.879 180.519C267.275 187.956 271.991 194.845 278.667 197.743C276.027 203.977 269.453 209.451 263.038 210.563C253.722 212.177 244.108 206.195 239.571 197.508C235.034 188.822 235.079 178.06 238.106 168.678C241.132 159.296 246.881 151.127 253.305 143.868C260.173 136.108 268.117 128.869 271.88 119.043C273.516 114.771 274.277 110.188 274.806 105.618C276.377 92.0319 275.401 76.7112 266.165 67.046L284.424 85.5307Z" fill="#C64C34"/>
<path d="M358.022 126.47L379.254 135.13L388.897 156.602L379.489 176.066L365.142 190.13L355.263 201.974L354.792 215.051L296.279 212.337L266.59 211.103L272.047 145.792L298.578 135.13L358.022 126.47Z" fill="#C64C34"/>
<path d="M397.223 438.607C391.149 416.803 381.038 396.387 375.429 374.445C374.79 371.942 374.226 369.395 373.728 366.824C373.248 353.587 374.307 340.816 375.633 331.064C377.027 320.811 378.718 313.895 379.23 313.326C385.583 306.274 389.69 298.958 392.309 292.933C395.462 285.668 395.685 277.387 393.072 269.89C385.701 248.76 372.334 207.292 372.334 207.292C365.098 205.459 352.975 203.709 344.353 202.594C344.353 202.593 344.353 202.593 344.353 202.593C338.502 201.836 334.263 201.371 334.263 201.371L335.502 175.065C335.5 175.065 330.551 176.289 322.697 176.704C320.682 176.811 318.473 176.861 316.109 176.827C312.013 176.768 307.448 176.445 302.587 175.68C300.532 175.356 298.425 174.958 296.279 174.462L295.247 196.355C295.021 201.156 292.35 205.392 288.335 207.552C287.926 207.772 248.409 216.554 248.409 216.554C250.111 221.977 259.558 268.672 266.711 300.31C273.259 329.269 279.191 355.931 279.2 355.972C279.192 357.046 279.174 358.107 279.143 359.151C275.156 370.431 270.659 381.513 265.653 392.336C264.234 395.403 262.776 398.484 261.306 401.577C248.308 428.926 234.276 457.316 236.192 487.397C237.456 487.559 238.714 487.715 239.976 487.878C278.26 492.784 316.147 497.251 354.327 501.073C367.538 502.396 380.784 503.644 394.094 504.802C404.913 485.127 403.296 460.41 397.223 438.607ZM318.949 250.255C322.766 254.434 326.738 258.457 330.858 262.306C326.738 258.456 322.766 254.434 318.949 250.255Z" fill="#FFA384"/>
<path d="M296.281 152.785V180.38C298.428 180.875 300.534 181.274 302.59 181.597C307.45 182.362 312.016 182.686 316.112 182.744C318.475 182.779 320.685 182.728 322.7 182.621C330.553 182.205 335.503 180.982 335.504 180.982L335.5 180.952C331.489 180.645 301.431 158.812 296.281 152.785Z" fill="#F17C63"/>
<path d="M285.576 210.089C293.911 215.472 305.09 218.158 314.873 218.517C324.655 218.876 333.052 216.973 342.372 213.835C344.72 213.045 350.164 207.998 352.422 209.037C354.757 210.111 353.058 217.033 353.835 219.582C358.177 233.815 357.318 249.721 351.471 263.35C349.999 266.782 348.186 270.124 345.594 272.726C343.001 275.328 339.539 277.139 335.951 277.058C331.904 276.967 328.267 274.566 324.968 272.105C307.729 259.247 293.173 242.45 282.609 223.225L285.576 210.089Z" fill="white"/>
<path d="M370.749 143.697C371.418 141.951 371.841 140.117 371.932 138.238C371.933 138.228 371.933 138.218 371.933 138.208C371.938 138.1 371.951 137.991 371.954 137.881C371.989 136.988 371.981 136.094 371.953 135.201C371.948 135.023 371.956 134.845 371.948 134.666C371.9 133.616 371.81 132.567 371.666 131.522C371.532 130.542 371.348 129.574 371.142 128.611C371.096 128.395 371.047 128.18 370.999 127.966C370.796 127.069 370.578 126.176 370.342 125.287C370.338 125.284 370.334 125.283 370.33 125.281C369.293 121.368 368.041 117.503 367.469 113.484C367.097 110.873 367.029 108.245 367.111 105.61C367.156 104.191 367.247 102.77 367.36 101.348C367.377 101.141 367.393 100.934 367.41 100.726C367.528 99.3184 369.039 91.3766 368.67 90.0139C365.803 86.2386 361.164 84.063 359.094 79.7563C357.236 75.8912 282.924 85.671 282.761 84.8901C282.041 90.6802 281.69 114.969 281.506 121.397C281.442 123.629 281.401 125.917 281.418 128.221L282.64 128.284C284.211 133.695 284.569 139.356 284.538 145.039C284.526 147.325 285.143 149.567 286.344 151.474C293.929 163.515 311.497 174.274 320.75 179.359C324.461 181.4 328.578 182.461 332.768 182.462H332.917C337.809 182.463 342.622 181.037 346.742 178.27C359.98 169.381 366.654 154.386 370.749 143.697Z" fill="#FFA384"/>
<path d="M286.442 113.8C286.442 113.8 279.928 100.182 268.29 106.211C256.651 112.241 267.125 147.634 286.222 136.774L286.442 113.8Z" fill="#FFA384"/>
<path d="M281.262 127.772C281.258 127.772 281.255 127.772 281.251 127.772C280.581 127.765 280.043 127.19 280.049 126.488C280.152 114.807 269.836 113.182 269.397 113.119C268.734 113.023 268.27 112.382 268.359 111.687C268.449 110.992 269.057 110.51 269.719 110.597C269.848 110.614 282.598 112.555 282.475 126.511C282.469 127.21 281.926 127.772 281.262 127.772Z" fill="#F47867"/>
<path d="M273.832 126.158C273.365 126.158 272.92 125.875 272.72 125.398C272.413 124.663 272.175 123.831 272.015 122.924C271.45 119.724 273.109 116.744 276.345 115.147C276.951 114.847 277.672 115.121 277.959 115.757C278.243 116.393 277.984 117.151 277.377 117.45C275.152 118.547 274.04 120.421 274.4 122.459C274.526 123.175 274.708 123.818 274.942 124.374C275.21 125.017 274.932 125.768 274.319 126.051C274.16 126.123 273.994 126.158 273.832 126.158Z" fill="#F47867"/>
<path d="M323.035 103.533C323.035 103.533 321.769 103.031 320.32 103.066C319.817 103.078 312.423 102.271 304.887 103.613C306.077 104.691 305.69 105.412 302.812 104.027C302.734 104.045 302.655 104.059 302.577 104.076C299.77 104.723 297.283 106.255 295.398 108.36C296.142 108.636 297.044 109.043 297.772 109.335C296.956 109.271 295.805 109.224 294.699 109.194C293.417 110.872 292.489 112.845 292.078 115.027C291.979 115.558 291.961 115.874 292.073 115.835C305.502 111.256 311.603 112.118 320.653 113.605C322.816 113.96 324.731 112.089 324.506 109.827C324.304 107.793 323.724 105.778 323.035 103.533Z" fill="#D75C3D"/>
<path d="M310.354 128.109C312.224 128.354 313.844 126.916 313.971 124.895L314.234 120.691C314.36 118.67 312.945 116.833 311.075 116.588C309.205 116.342 307.585 117.78 307.458 119.801L307.195 124.005C307.069 126.026 308.484 127.863 310.354 128.109Z" fill="#3B3B4F"/>
<path d="M303.208 120.667C303.537 120.869 303.942 120.891 304.275 120.686C307.543 118.688 310.308 118.363 311.353 119.002C311.871 119.368 312.534 119.207 312.827 118.671C313.121 118.135 312.938 117.414 312.418 117.06C312.373 117.028 312.326 116.999 312.278 116.969C309.91 115.52 305.884 116.95 303.114 118.645C302.611 118.951 302.462 119.66 302.782 120.224C302.891 120.415 303.04 120.564 303.208 120.667Z" fill="#3B3B4F"/>
<path d="M360.403 124.23C362.138 124.457 363.641 123.123 363.758 121.248L364.002 117.348C364.119 115.473 362.807 113.769 361.072 113.541C359.336 113.313 357.834 114.648 357.716 116.523L357.472 120.423C357.355 122.298 358.668 124.002 360.403 124.23Z" fill="#3B3B4F"/>
<path d="M353.771 117.325C354.076 117.512 354.452 117.533 354.761 117.343C357.792 115.489 360.358 115.187 361.327 115.781C361.807 116.12 362.423 115.971 362.694 115.473C362.967 114.976 362.797 114.307 362.315 113.979C362.273 113.949 362.23 113.922 362.185 113.895C359.989 112.55 356.254 113.876 353.683 115.449C353.216 115.733 353.078 116.391 353.375 116.914C353.477 117.091 353.615 117.23 353.771 117.325Z" fill="#3B3B4F"/>
<path d="M338.526 140.232C336.958 140.232 335.441 139.79 334.164 139.416C333.519 139.228 333.142 138.526 333.322 137.849C333.501 137.173 334.174 136.776 334.816 136.966C336.304 137.401 337.992 137.897 339.49 137.6C340.657 137.372 341.93 136.381 341.953 135.176C341.968 134.402 341.517 133.574 341.039 132.698L340.975 132.58C337.263 125.759 335.109 118.009 334.746 110.166C334.714 109.464 335.229 108.868 335.898 108.833C336.549 108.765 337.135 109.34 337.168 110.042C337.513 117.487 339.557 124.844 343.08 131.318L343.144 131.434C343.735 132.519 344.406 133.75 344.378 135.227C344.329 137.84 342.052 139.688 339.934 140.102C339.464 140.194 338.992 140.232 338.526 140.232Z" fill="#F47867"/>
<g opacity="0.55">
<path d="M311.213 155.179C316.116 152.233 317.815 145.675 315.007 140.53C312.198 135.386 305.946 133.605 301.043 136.551C296.139 139.497 294.441 146.055 297.249 151.199C300.057 156.343 306.309 158.125 311.213 155.179Z" fill="#F17C63"/>
</g>
<path d="M367.112 105.61C367.141 104.689 367.212 103.766 367.273 102.844C366.146 103.146 366.145 102.585 366.958 101.817C359.814 100.709 352.846 101.626 352.37 101.626C351.001 101.623 349.815 102.124 349.815 102.124C349.207 104.259 348.698 106.175 348.546 108.1C348.377 110.241 350.222 111.968 352.258 111.587C357.517 110.602 361.723 109.87 367.174 110.401C367.078 108.808 367.062 107.211 367.112 105.61Z" fill="#D75C3D"/>
<g opacity="0.55">
<path d="M371.93 138.238C371.931 138.228 371.931 138.219 371.932 138.208C371.936 138.1 371.949 137.991 371.952 137.881C371.968 137.481 371.952 137.081 371.952 136.681C371.755 136.557 371.558 136.434 371.352 136.323C370.726 135.986 370.06 135.709 369.354 135.508C363.901 133.954 358.279 137.331 356.798 143.052C355.316 148.772 358.536 154.669 363.989 156.223C364.252 156.298 364.516 156.352 364.779 156.404C364.892 156.426 365.004 156.435 365.117 156.454C367.451 151.968 369.271 147.551 370.748 143.697C371.416 141.951 371.839 140.117 371.93 138.238Z" fill="#F17C63"/>
</g>
<path d="M325.119 152.024C326.193 152.665 341.449 154.294 349.26 151.505C349.26 151.505 350.599 149.322 351.096 146.196C340.313 149.015 328.067 148.177 322.758 147.603V147.604C322.758 147.604 324.045 151.383 325.119 152.024Z" fill="white"/>
<path d="M328.727 158.701C331.004 160.465 333.732 161.804 336.93 162.078C341.049 162.429 344.28 160.571 346.747 157.961C344.813 157.273 342.466 156.704 339.766 156.581C335.293 156.376 331.519 157.464 328.727 158.701Z" fill="#ED7878"/>
<path d="M352.485 147.9C352.818 146.929 352.026 145.952 351.115 146.19L351.093 146.196C350.596 149.322 349.257 151.505 349.257 151.505C341.446 154.294 326.19 152.666 325.116 152.024C324.042 151.383 322.755 147.604 322.755 147.604V147.604C322.601 147.587 322.452 147.57 322.309 147.554C321.348 147.445 320.703 148.606 321.216 149.516C322.575 151.928 325.065 155.865 328.725 158.7C331.517 157.463 335.292 156.376 339.765 156.581C342.465 156.704 344.812 157.273 346.746 157.961C349.679 154.858 351.529 150.69 352.485 147.9Z" fill="#633944"/>
<path d="M480.749 334.7C474.134 319.838 458.827 325.474 445.651 312.297C427.036 293.68 418.064 242.192 409.95 228.128C401.835 214.064 390.545 214.804 390.545 214.804L330.92 262.918L287.1 214.434L274.909 206.908C274.909 206.908 242.892 213.694 237.689 217.395C237.689 217.395 215.081 208.882 204.261 255.269C193.442 301.657 170.862 402.614 178.859 437.365C186.856 472.117 264.629 465.494 292.541 465L394.073 379.504C393.347 383.654 404.118 473.217 412.232 476.995C420.347 480.774 441.827 475.452 457.392 443.978C484.778 388.602 485.318 344.966 480.749 334.7Z" fill="#4B4D6D"/>
<path d="M212.805 450.972C209.312 461.31 211.376 472.663 211.442 483.631C211.473 488.747 211.058 493.858 210.353 498.92C207.841 516.934 201.648 535.04 205.038 552.895C205.134 553.402 205.206 554.091 205.206 554.091H422.657C422.316 542.136 419.718 530.911 419.377 518.956C419.205 512.922 419.028 506.843 417.76 500.954C417.022 497.526 415.919 494.187 415.318 490.73C414.633 486.779 414.614 482.738 414.598 478.722C414.52 459.422 414.442 440.122 414.364 420.823C414.317 409.115 414.21 397.076 410.022 386.224C405.835 375.373 396.545 365.844 385.396 365.318C380.068 365.067 374.831 366.852 369.985 369.187C353.769 376.999 340.904 390.898 330.173 405.853C319.441 420.809 310.455 437.086 299.548 451.902L212.805 450.972Z" fill="#4B4D6D"/>
<path d="M386.726 166.365C390.181 183.403 384.778 200.893 379.442 217.389C379.066 218.553 378.667 219.758 377.856 220.646C376.995 221.59 375.767 222.065 374.551 222.349C370.151 223.376 365.505 222.257 361.423 220.253C358.101 218.621 354.926 216.272 353.232 212.86C351.301 208.969 351.588 204.164 353.212 200.121C354.836 196.079 357.664 192.697 360.713 189.695C364.766 185.705 369.296 182.248 374.163 179.432C377.473 177.516 380.991 175.858 383.76 173.156C383.694 172.598 382.791 172.47 382.587 172.991L386.726 166.365Z" fill="#C64C34"/>
<path d="M345.969 213.813L320.801 250.255L328.547 259.394L342.791 242.979L345.969 213.813Z" fill="#F9DACA"/>
<path d="M258.22 467.085C232.461 467.085 204.804 464.773 189.256 453.923C188.699 453.532 188.547 452.744 188.918 452.159C189.29 451.572 190.043 451.413 190.599 451.803C208.666 464.411 244.206 465.119 273.152 464.317C273.797 464.357 274.379 464.852 274.397 465.555C274.414 466.257 273.886 466.842 273.216 466.861C268.366 466.994 263.328 467.085 258.22 467.085Z" fill="#3B3E59"/>
<path d="M201.817 384.138C201.617 384.138 201.415 384.085 201.228 383.976C200.642 383.633 200.433 382.858 200.76 382.246C203.307 377.46 208.38 375.971 213.285 374.53C214.974 374.034 216.72 373.522 218.285 372.886C226.109 369.708 232.145 361.847 237.982 354.246C243.272 347.356 248.268 340.849 254.552 337.474C255.15 337.15 255.878 337.4 256.184 338.026C256.489 338.652 256.254 339.419 255.658 339.738C249.834 342.867 244.994 349.169 239.871 355.842C233.834 363.704 227.591 371.835 219.161 375.259C217.486 375.938 215.682 376.469 213.939 376.981C209.308 378.34 204.933 379.624 202.877 383.485C202.656 383.903 202.242 384.138 201.817 384.138Z" fill="#3B3E59"/>
<path d="M283.991 365.971C281.403 355.883 278.197 345.744 272.295 337.391C270.985 335.536 269.5 333.741 267.57 332.665C265.64 331.59 263.174 331.358 261.332 332.596C259.264 333.986 258.465 336.883 258.728 339.475C258.991 342.067 260.116 344.455 261.156 346.814C267.859 362.011 271.762 378.606 272.578 395.378C273.148 407.1 272.227 418.842 272.265 430.579C272.303 442.315 273.353 454.272 277.645 465.079C278.395 466.968 279.278 468.867 280.719 470.225C280.733 470.239 280.748 470.252 280.762 470.266C282.872 472.216 286.182 471.534 287.613 468.977C292.551 460.151 293.565 449.529 293.485 439.096C293.298 414.421 290.098 389.772 283.991 365.971Z" fill="#32364C"/>
<path d="M476.54 345.859C476.495 341.472 475.946 336.722 473.084 333.545C469.778 329.876 464.174 329.44 459.69 331.238C455.206 333.036 451.614 336.652 448.303 340.32L451.18 331.609C443.065 339.419 436.701 349.248 432.752 360.069C429.465 369.075 427.857 378.649 426.267 388.154C422.523 410.532 418.78 432.91 415.036 455.288C414.62 457.776 414.401 460.829 416.324 462.328C418.174 463.771 420.785 462.788 422.811 461.638C434.218 455.161 443.243 444.67 450.039 433.02C456.835 421.37 461.561 408.525 465.988 395.665C471.523 379.585 476.713 362.966 476.54 345.859Z" fill="#32364C"/>
<path d="M329.864 254.776C329.864 254.776 349.931 201.727 351.893 201.48C353.708 201.252 384.24 204.613 399.785 213.133C401.512 214.079 401.72 216.588 400.191 217.856C395.204 221.996 385.068 230.277 377.141 235.9C359.258 248.587 342.368 258.932 335.335 263.142C332.97 264.558 330.144 264.873 327.564 263.958C309.671 257.615 256.363 230.214 247.542 225.414C238.927 220.726 237.691 217.395 237.691 217.395C243.978 207.687 266.593 206.631 272.003 204.36C275.603 202.849 280.141 201.651 282.774 201.018C284.086 200.703 285.437 201.238 286.24 202.37C305.784 229.905 329.864 254.776 329.864 254.776Z" fill="#32364C"/>
<path d="M446.454 391.152C454.631 380.925 459.627 374.819 459.627 374.819L461.89 365.722L444.993 354.88L434.642 360.234C434.62 360.295 434.593 360.355 434.571 360.417C431.568 368.913 427.447 377.886 426.155 386.793C425.637 390.369 421.426 417.11 421.426 417.11C421.426 417.11 435.992 404.237 446.454 391.152Z" fill="#FFA384"/>
<path d="M443.183 387.9C392.711 388.122 342.239 390.29 291.768 390.39C289.797 390.394 288.195 388.642 288.195 386.487V268.653C288.195 266.507 289.782 264.771 291.744 264.767C343.715 264.666 395.685 262.37 447.655 262.262C449.685 262.258 451.31 264.111 451.225 266.329C449.722 305.611 448.221 344.894 446.719 384.178C446.64 386.255 445.083 387.892 443.183 387.9Z" fill="white"/>
<path d="M315.974 384.135C314.559 384.135 313.224 383.566 312.211 382.525C311.178 381.468 310.603 380.052 310.588 378.539L310.568 376.396C310.52 371.22 306.767 367.009 302.201 367.009C301.969 367.009 301.74 367.031 301.513 367.052L299.298 367.256C297.797 367.396 296.299 366.862 295.187 365.793C294.075 364.726 293.438 363.206 293.438 361.625V293.723C293.438 290.606 295.856 288.07 298.827 288.07H300.861C305.419 288.07 309.176 283.869 309.236 278.705C309.233 278.65 309.23 278.531 309.23 278.415V276.305C309.23 273.227 311.618 270.691 314.551 270.653L316.56 270.626C335.25 270.379 354.461 269.933 369.896 269.576L370.143 269.571C385.28 269.22 404.117 268.784 422.288 268.537L424.331 268.51C425.766 268.481 427.137 269.062 428.169 270.122C429.2 271.181 429.776 272.597 429.789 274.111L429.808 276.254C429.851 281.304 433.378 285.417 437.837 285.62L439.863 285.712C442.821 285.846 445.133 288.481 445.015 291.586L442.459 358.457C442.399 360.017 441.752 361.443 440.635 362.474C439.516 363.508 438.091 363.999 436.6 363.862L434.472 363.665C434.233 363.642 433.996 363.62 433.756 363.62C429.137 363.62 425.38 367.877 425.38 373.111C425.38 373.225 425.389 373.337 425.397 373.448L425.558 376.04C425.654 377.601 425.149 379.093 424.138 380.242C423.125 381.391 421.747 382.036 420.257 382.058L418.117 382.089C405.576 382.278 385.265 382.625 375.02 382.839C374.845 382.843 374.657 382.87 374.393 382.93C373.866 383.049 373.309 383.123 372.734 383.15C372.408 383.165 371.932 383.181 371.319 383.2C370.184 383.233 368.543 383.273 366.526 383.315C362.539 383.4 357.066 383.498 351.126 383.598C339.261 383.798 325.535 384.005 318.092 384.108L316.048 384.135C316.023 384.135 315.999 384.135 315.974 384.135ZM312.993 376.371L313.014 378.514C313.021 379.346 313.338 380.124 313.905 380.707C314.463 381.278 315.197 381.591 315.975 381.591C315.989 381.591 316.003 381.591 316.015 381.591L318.059 381.564C325.501 381.46 339.225 381.254 351.086 381.054C357.023 380.954 362.491 380.855 366.477 380.771C368.486 380.729 370.12 380.689 371.251 380.656C371.847 380.639 372.311 380.623 372.626 380.608C373.065 380.587 373.488 380.533 373.88 380.444C374.159 380.38 374.539 380.305 374.971 380.295C385.221 380.08 405.538 379.734 418.082 379.545L420.222 379.514C421.042 379.502 421.799 379.147 422.356 378.515C422.913 377.883 423.19 377.063 423.136 376.205L422.984 373.723C422.966 373.464 422.954 373.289 422.954 373.111C422.954 366.475 427.8 361.076 433.755 361.076C434.072 361.076 434.382 361.101 434.69 361.131L436.813 361.328C437.627 361.399 438.418 361.133 439.032 360.565C439.647 359.999 440.002 359.214 440.035 358.355L442.592 291.485C442.656 289.777 441.385 288.327 439.758 288.254L437.732 288.162C431.984 287.902 427.438 282.681 427.382 276.277L427.363 274.135C427.356 273.301 427.04 272.523 426.473 271.941C425.904 271.357 425.143 271.044 424.361 271.054L422.318 271.082C404.16 271.329 385.328 271.763 370.196 272.114L369.95 272.12C354.509 272.478 335.291 272.924 316.59 273.171L314.581 273.197C312.967 273.218 311.655 274.612 311.655 276.305L311.66 278.676C311.584 285.286 306.74 290.614 300.861 290.614H298.827C297.192 290.614 295.862 292.009 295.862 293.723V361.625C295.862 362.507 296.204 363.321 296.824 363.917C297.446 364.514 298.265 364.809 299.085 364.722L301.297 364.518C301.593 364.49 301.895 364.465 302.2 364.465C308.091 364.465 312.933 369.805 312.993 376.371Z" fill="#CCECFF"/>
<path d="M433.758 355.831C434.22 355.831 434.675 355.864 435.128 355.907L437.518 293.4C429.151 293.021 422.467 285.547 422.385 276.326C404.827 276.563 387.248 276.965 370.061 277.363C352.534 277.767 334.601 278.176 316.656 278.414C316.656 278.469 316.663 278.523 316.663 278.578C316.663 288.122 309.59 295.858 300.863 295.858V359.294C301.306 359.254 301.75 359.22 302.202 359.22C310.873 359.22 317.905 366.86 317.994 376.32C335.272 376.08 386.391 375.291 369.476 375.291C357.71 375.291 401.702 374.547 418.013 374.303C417.988 373.907 417.958 373.513 417.958 373.111C417.958 363.567 425.032 355.831 433.758 355.831Z" fill="#CCECFF"/>
<path d="M404.613 302.658H333.856C332.805 302.658 331.953 301.764 331.953 300.661C331.953 299.558 332.805 298.665 333.856 298.665H404.613C405.665 298.665 406.517 299.558 406.517 300.661C406.517 301.764 405.665 302.658 404.613 302.658Z" fill="white"/>
<path d="M402.142 349.117H336.324C334.913 349.117 333.77 347.918 333.77 346.438V318.618C333.77 317.138 334.913 315.938 336.324 315.938H402.142C403.552 315.938 404.696 317.138 404.696 318.618V346.438C404.696 347.918 403.552 349.117 402.142 349.117Z" fill="white"/>
<path d="M386.228 309.646H352.247C351.196 309.646 350.344 308.752 350.344 307.65C350.344 306.547 351.196 305.653 352.247 305.653H386.228C387.279 305.653 388.131 306.547 388.131 307.65C388.131 308.752 387.279 309.646 386.228 309.646Z" fill="white"/>
<path d="M404.613 295.67H333.856C332.805 295.67 331.953 294.776 331.953 293.673C331.953 292.571 332.805 291.677 333.856 291.677H404.613C405.665 291.677 406.517 292.571 406.517 293.673C406.517 294.776 405.665 295.67 404.613 295.67Z" fill="white"/>
<path d="M286.006 81.6298C294.671 100.29 294.523 123.19 285.617 141.725C283.327 146.489 280.499 150.974 278.552 155.902C275.786 162.905 274.907 170.89 277.038 178.133C279.168 185.376 284.545 191.709 291.474 193.858C289.47 200.348 283.479 206.513 277.209 208.323C268.105 210.951 257.948 206.057 252.569 197.916C247.19 189.775 246.161 179.068 248.236 169.405C250.31 159.742 255.213 150.987 260.877 143.063C266.934 134.591 274.112 126.521 276.873 116.335C278.074 111.907 278.374 107.266 278.444 102.662C278.652 88.9785 276.153 73.849 266.004 65.2506L286.006 81.6298Z" fill="#D75C3D"/>
<path d="M387.102 130.327C384.945 126.694 382.368 123.351 380.215 119.716C375.885 112.405 373.831 100.311 373.395 91.6949C373.361 91.9024 367.684 88.0142 366.155 87.4522C365.165 87.0888 364.838 86.5937 363.849 86.2302C362.427 99.4027 361.099 113.288 366.134 125.446C367.533 128.823 369.389 131.965 371.126 135.165C375.242 142.749 378.806 151.523 376.798 159.992C374.947 167.802 368.746 173.594 362.399 178.114C359.364 180.275 356.206 182.28 353.467 184.841C348.917 189.095 345.625 194.948 344.826 201.286C344.027 207.625 345.877 214.395 350.156 218.949C354.434 223.503 361.159 225.538 366.954 223.559L365.829 223.525C365.618 223.144 366.535 223.562 366.954 223.559C367.373 223.555 367.898 222.643 367.917 222.204C368.13 217.233 363.611 212.908 364.255 207.978C364.645 204.992 366.843 202.668 368.96 200.631C372.388 197.333 375.927 194.162 379.567 191.124C382.58 188.61 385.705 186.144 388.005 182.906C389.796 180.385 391.028 177.473 391.988 174.495C396.664 159.987 394.821 143.325 387.102 130.327Z" fill="#D75C3D"/>
<path d="M373.355 94.1571C373.362 94.2888 373.376 94.4233 373.383 94.5551C373.405 94.421 373.405 94.2835 373.355 94.1571Z" fill="#D75C3D"/>
<path d="M333.605 0.161865L225.352 47.079C225.352 47.079 224.895 54.0035 225.352 54.7376L412.185 60.2042V52.5456L333.605 0.161865Z" fill="#424560"/>
<path d="M361.294 64.7494C356.386 44.2789 335.66 26.6985 306.082 19.749L225.352 54.7377C225.352 54.7377 280.437 84.1934 280.894 84.9277L362.108 79.6374C362.867 72.1141 361.815 66.9234 361.294 64.7494Z" fill="#4D547A"/>
<path d="M412.186 60.2045L333.605 7.82092L306.082 19.7492C335.66 26.6986 356.386 44.279 361.294 64.7496C361.816 66.9235 362.867 72.1143 362.109 79.6374L363.565 79.5422L412.186 60.2045Z" fill="#575C84"/>
<path d="M347.55 79.8779C328.318 62.6254 295.826 56.4414 261.539 62.4562L249.465 95.6625C250.65 94.9161 306.41 85.7831 338.69 103.254C338.69 103.254 345.225 96.4811 358.95 94.0558C355.203 87.4122 350.827 82.8178 347.55 79.8779Z" fill="#424560"/>
<path d="M375.798 93.5579L375.689 62.3231C375.68 60.5427 374.479 58.9257 372.583 58.1708C360.307 53.2846 313.295 37.3769 264.518 57.7979C262.671 58.5713 261.531 60.1991 261.539 61.9471L261.541 62.4562C295.829 56.4414 328.321 62.6254 347.552 79.8778C350.829 82.8176 355.205 87.4121 358.953 94.056C363.7 93.2172 369.301 92.8949 375.798 93.5579Z" fill="#363A54"/>
<path d="M314.385 540.838C314.376 540.838 314.367 540.838 314.358 540.838C313.688 540.821 313.158 540.24 313.172 539.537C313.522 522.998 312.669 506.165 311.845 489.887C310.975 472.711 310.075 454.949 310.579 437.447C310.599 436.745 311.191 436.211 311.828 436.214C312.497 436.236 313.024 436.822 313.004 437.524C312.503 454.92 313.399 472.628 314.266 489.753C315.093 506.078 315.948 522.958 315.597 539.594C315.582 540.286 315.042 540.838 314.385 540.838Z" fill="#3B3E59"/>
<path d="M346.274 513.677C345.695 513.677 345.183 513.241 345.08 512.622C342.711 498.331 341.205 483.73 340.605 469.228L340.54 467.606C340.315 461.872 340.083 455.942 338.422 450.506C338.217 449.837 338.568 449.121 339.206 448.906C339.846 448.695 340.527 449.061 340.731 449.728C342.493 455.494 342.732 461.599 342.964 467.502L343.028 469.118C343.624 483.512 345.119 498.002 347.47 512.188C347.585 512.88 347.144 513.538 346.483 513.659C346.413 513.671 346.343 513.677 346.274 513.677Z" fill="#3B3E59"/>
<path d="M350.713 541.767C350.151 541.767 349.648 541.357 349.527 540.757C348.124 533.779 347.119 526.634 346.54 519.525C346.483 518.825 346.977 518.209 347.644 518.149C348.305 518.071 348.898 518.608 348.955 519.308C349.526 526.315 350.517 533.354 351.901 540.233C352.039 540.919 351.62 541.594 350.964 541.739C350.88 541.758 350.796 541.767 350.713 541.767Z" fill="#3B3E59"/>
<path d="M351.582 493.674C350.954 493.674 350.424 493.167 350.374 492.5C348.343 465.125 346.531 437.341 344.991 409.922C344.95 409.221 345.461 408.619 346.13 408.578C346.793 408.533 347.372 409.072 347.411 409.773C348.952 437.175 350.762 464.942 352.792 492.304C352.844 493.003 352.344 493.615 351.677 493.67C351.645 493.673 351.614 493.674 351.582 493.674Z" fill="#3B3E59"/>
<path d="M252.014 271.199C251.383 271.199 250.85 270.686 250.805 270.015C249.789 254.769 246.326 239.933 240.513 225.921C239.757 224.1 238.981 222.357 237.777 221.035C237.314 220.528 237.332 219.722 237.816 219.238C238.301 218.751 239.068 218.769 239.53 219.279C241.008 220.9 241.924 222.947 242.737 224.905C248.66 239.184 252.189 254.302 253.226 269.839C253.272 270.54 252.768 271.147 252.099 271.197C252.071 271.198 252.042 271.199 252.014 271.199Z" fill="#3B3E59"/>
<path d="M207.714 288.26C207.632 288.26 207.549 288.251 207.465 288.232C206.809 288.09 206.389 287.416 206.526 286.728C207.355 282.553 208.023 278.251 208.67 274.09C209.867 266.378 211.106 258.403 213.429 250.8C217.658 236.958 225.232 226.698 234.757 221.911C235.358 221.603 236.084 221.874 236.373 222.509C236.663 223.142 236.407 223.901 235.803 224.204C223.773 230.252 218.068 243.949 215.738 251.577C213.47 258.999 212.247 266.879 211.063 274.499C210.413 278.687 209.74 283.017 208.899 287.247C208.781 287.847 208.276 288.26 207.714 288.26Z" fill="#3B3E59"/>
<path d="M204.105 310.794C204.032 310.794 203.957 310.788 203.882 310.773C203.224 310.644 202.789 309.98 202.911 309.289L205.596 294.157C205.719 293.466 206.354 293.018 207.01 293.138C207.668 293.267 208.103 293.931 207.981 294.621L205.296 309.754C205.187 310.367 204.678 310.794 204.105 310.794Z" fill="#3B3E59"/>
<path d="M207.079 391.885C206.427 391.885 205.888 391.34 205.868 390.651C205.848 389.949 206.373 389.363 207.044 389.34C208.532 389.293 209.832 387.84 211.016 386.276C212.793 383.928 214.53 381.497 216.18 379.048C216.566 378.475 217.322 378.339 217.87 378.744C218.417 379.149 218.547 379.942 218.16 380.516C216.484 383.004 214.72 385.473 212.915 387.858C211.369 389.902 209.596 391.804 207.117 391.885C207.105 391.885 207.092 391.885 207.079 391.885Z" fill="#3B3E59"/>
<path d="M227.818 459.523C227.5 459.523 227.184 459.394 226.946 459.135C226.481 458.63 226.494 457.825 226.975 457.337C249.032 434.958 258.426 400.334 250.905 369.126C250.742 368.445 251.135 367.753 251.784 367.58C252.437 367.413 253.093 367.823 253.257 368.502C260.987 400.577 251.332 436.165 228.661 459.165C228.425 459.404 228.121 459.523 227.818 459.523Z" fill="#3B3E59"/>
<path d="M235.638 460.99C235.087 460.99 234.588 460.594 234.458 460.007C234.305 459.323 234.71 458.638 235.363 458.479C249.186 455.094 261.12 443.813 265.763 429.739C265.982 429.075 266.672 428.723 267.306 428.952C267.938 429.182 268.275 429.908 268.056 430.571C263.146 445.45 250.529 457.377 235.915 460.957C235.821 460.979 235.729 460.99 235.638 460.99Z" fill="#3B3E59"/>
<path d="M228.819 402.222C228.732 402.222 228.643 402.212 228.554 402.191C227.9 402.038 227.488 401.359 227.635 400.673C228.963 394.437 230.469 387.368 228.637 380.916C228.445 380.242 228.811 379.534 229.453 379.334C230.099 379.133 230.77 379.517 230.961 380.19C232.974 387.276 231.325 395.012 230.001 401.227C229.876 401.82 229.375 402.222 228.819 402.222Z" fill="#3B3E59"/>
<path d="M373.045 53.3688C374.894 53.2738 376.315 51.5177 376.218 49.4464C376.121 47.3752 374.544 45.773 372.695 45.868C370.846 45.9629 369.426 47.719 369.523 49.7903C369.619 51.8616 371.197 53.4638 373.045 53.3688Z" fill="#FFBB53"/>
<path d="M372.617 49.2593C372.095 49.2593 371.646 48.8459 371.588 48.2881L370.692 39.5862C370.249 35.2869 369.791 30.839 368.194 26.8398C366.464 22.5136 363.526 19.3894 360.131 18.2653C359.586 18.0856 359.282 17.4754 359.455 16.9021C359.626 16.3302 360.204 16.0032 360.754 16.1928C364.731 17.5079 368.14 21.0824 370.105 25.9989C371.82 30.2912 372.295 34.8976 372.754 39.3541L373.65 48.056C373.71 48.652 373.299 49.1885 372.729 49.2536C372.692 49.2579 372.655 49.2593 372.617 49.2593Z" fill="#FFBB53"/>
<path d="M382.593 75.5183L382.453 75.4534L371.512 82.0409C373.477 93.9282 380.302 122.179 401.658 132.392L405.719 126.47C405.719 126.47 398.174 123.156 391.48 113.34C391.48 113.34 400.78 121.681 408.071 122.348L410.423 117.476C410.423 117.476 407.946 117.092 401.658 113.516C401.658 113.516 409.012 116.189 411.835 115.408L413.246 110.104C413.246 110.104 395.055 106.961 382.593 75.5183Z" fill="#FFBB53"/>
<path d="M382.59 75.5187C382.538 75.3867 382.484 75.2643 382.432 75.1312L371.61 72.5914L370.789 76.6593C370.789 76.6593 370.958 78.7071 371.509 82.0412L382.451 75.4537L382.59 75.5187Z" fill="#F49A22"/>
<path d="M373.735 52.155L372.913 52.249C365.58 53.0881 367.207 69.5479 368.006 75.3171C368.16 76.4269 369.067 77.2077 370.062 77.0939L382.449 75.4537C383.444 75.3399 384.169 74.3723 384.091 73.2539C383.687 67.4394 381.068 51.316 373.735 52.155Z" fill="#FFBB53"/>
<path d="M318.71 230.594C315.277 230.594 311.851 230.286 308.456 229.671C307.795 229.552 307.353 228.894 307.467 228.202C307.581 227.509 308.208 227.049 308.868 227.164C315.302 228.33 321.855 228.345 328.347 227.208C329.009 227.08 329.633 227.562 329.743 228.253C329.854 228.946 329.407 229.602 328.748 229.717C325.41 230.301 322.057 230.594 318.71 230.594Z" fill="#FFDFCF"/>
<path d="M273.811 204.15C269.645 204.15 265.254 202.289 262.011 198.912C261.535 198.417 261.533 197.612 262.004 197.114C262.477 196.614 263.246 196.613 263.719 197.106C267.65 201.198 273.483 202.716 277.909 200.79C278.525 200.523 279.237 200.828 279.494 201.478C279.751 202.126 279.457 202.871 278.838 203.14C277.27 203.822 275.56 204.15 273.811 204.15Z" fill="#F46C51"/>
<path d="M258.486 192.478C258.022 192.478 257.578 192.197 257.378 191.724C256.178 188.9 255.355 185.708 254.931 182.237C253.78 172.786 257.492 158.842 263.566 149.804C263.95 149.23 264.709 149.092 265.255 149.497C265.803 149.902 265.934 150.695 265.548 151.269C259.784 159.849 256.254 173.023 257.338 181.914C257.731 185.139 258.49 188.091 259.592 190.688C259.866 191.33 259.59 192.081 258.979 192.367C258.818 192.443 258.651 192.478 258.486 192.478Z" fill="#F46C51"/>
<path d="M358.15 216.658C357.705 216.658 357.277 216.4 357.064 215.954C355.172 211.985 355.435 206.932 357.788 202.087C358.09 201.461 358.82 201.211 359.419 201.531C360.015 201.849 360.252 202.616 359.948 203.242C357.949 207.359 357.688 211.578 359.234 214.816C359.534 215.445 359.291 216.209 358.691 216.523C358.517 216.614 358.333 216.658 358.15 216.658Z" fill="#F46C51"/>
<path d="M361.215 200.177C360.944 200.177 360.672 200.083 360.445 199.888C359.929 199.441 359.854 198.639 360.281 198.097C362.97 194.67 366.383 192.026 369.685 189.466C370.92 188.51 372.196 187.52 373.404 186.512C378.776 182.029 381.74 177.636 382.467 173.08C382.578 172.387 383.201 171.911 383.863 172.036C384.524 172.151 384.969 172.807 384.859 173.5C384.029 178.704 380.776 183.611 374.914 188.502C373.672 189.539 372.378 190.543 371.126 191.513C367.796 194.094 364.652 196.53 362.152 199.714C361.913 200.019 361.566 200.177 361.215 200.177Z" fill="#F46C51"/>
<path d="M392.379 104.835C392.025 104.835 391.675 104.673 391.435 104.363C387.632 99.4259 384.701 93.9199 382.724 87.9968C382.504 87.3334 382.837 86.6079 383.469 86.3755C384.105 86.1469 384.793 86.4948 385.015 87.1569C386.899 92.8031 389.693 98.0543 393.321 102.763C393.742 103.309 393.662 104.111 393.141 104.552C392.915 104.743 392.647 104.835 392.379 104.835Z" fill="#F49A22"/>
<path d="M399.58 112.471C399.309 112.471 399.037 112.376 398.81 112.181C397.655 111.183 396.524 110.114 395.448 109.006C394.971 108.514 394.964 107.708 395.434 107.207C395.902 106.705 396.669 106.698 397.149 107.192C398.172 108.248 399.251 109.266 400.352 110.216C400.868 110.663 400.943 111.465 400.518 112.007C400.278 112.313 399.931 112.471 399.58 112.471Z" fill="#F49A22"/>
<path d="M225.144 538.76C224.583 538.76 224.079 538.349 223.959 537.75C222.184 528.909 224.121 519.927 225.994 511.242L226.431 509.21C227.045 506.325 227.803 502.531 228.204 498.762C228.28 498.065 228.872 497.564 229.545 497.639C230.21 497.717 230.69 498.347 230.615 499.045C230.199 502.936 229.425 506.817 228.797 509.763L228.359 511.803C226.544 520.222 224.666 528.927 226.332 537.226C226.47 537.913 226.05 538.587 225.395 538.733C225.311 538.751 225.227 538.76 225.144 538.76Z" fill="#3B3E59"/>
<path d="M229.722 493.674C229.063 493.674 228.523 493.122 228.509 492.429C228.431 488.544 227.816 485.149 226.631 482.051C226.381 481.399 226.683 480.657 227.303 480.396C227.929 480.135 228.632 480.451 228.881 481.102C230.177 484.491 230.85 488.178 230.934 492.374C230.948 493.077 230.417 493.659 229.748 493.674C229.738 493.674 229.73 493.674 229.722 493.674Z" fill="#3B3E59"/>
<path d="M465.715 335.5L457.745 323.895C455.196 320.183 451.065 318.031 446.706 318.142L425.644 318.681C423.207 318.743 421.375 321.033 421.737 323.562C422.01 325.461 423.462 326.932 425.28 327.151L444.255 329.44C445.498 329.59 446.587 330.383 447.155 331.552L448.326 333.963L435.061 332.187C428.624 331.324 422.117 331.19 415.653 331.787C413.459 331.989 411.801 333.958 411.88 336.267C411.951 338.329 413.396 340.054 415.337 340.393L424.564 342L439.277 343.849L445.116 348.766L411.841 343.469C409.91 343.019 407.968 344.183 407.357 346.157C406.702 348.275 407.81 350.549 409.83 351.232L432.651 358.953L441.569 363.314L423.597 362.25L410.387 361.376C408.682 361.263 407.154 362.469 406.783 364.217C406.376 366.135 407.493 368.044 409.307 368.532L420.971 371.67L444.147 377.783C444.147 377.783 458.48 379.773 461.144 372.476C461.539 371.393 462.293 370.505 463.164 369.792C464.717 368.519 466.811 366.076 466.855 362.131C466.874 360.384 467.37 358.699 468.419 357.341C469.936 355.375 471.394 351.945 468.57 347.5C467.768 346.237 467.418 344.714 467.517 343.2C467.654 341.111 467.462 338.042 465.715 335.5Z" fill="#FFA384"/>
<g opacity="0.62">
<path d="M451.233 326.515C450.844 326.515 450.461 326.319 450.228 325.955C449.853 325.374 449.998 324.582 450.553 324.19C451.444 323.559 451.884 322.268 451.579 321.188C451.388 320.515 451.755 319.807 452.397 319.607C453.043 319.404 453.714 319.793 453.905 320.465C454.508 322.598 453.669 325.051 451.911 326.297C451.703 326.445 451.467 326.515 451.233 326.515Z" fill="#F47867"/>
</g>
<g opacity="0.62">
<path d="M434.767 371.503C434.597 371.503 434.424 371.466 434.261 371.386C433.652 371.093 433.386 370.337 433.666 369.699C434.161 368.57 434.445 367.318 434.485 366.079C434.507 365.376 435.07 364.826 435.736 364.851C436.406 364.873 436.93 365.462 436.908 366.164C436.858 367.738 436.499 369.328 435.869 370.763C435.664 371.229 435.226 371.503 434.767 371.503Z" fill="#F47867"/>
</g>
<g opacity="0.62">
<path d="M437.598 356.129C437.417 356.129 437.232 356.087 437.058 355.995C436.459 355.682 436.215 354.918 436.515 354.289C437.019 353.228 437.108 351.924 436.753 350.801C436.542 350.135 436.887 349.414 437.523 349.193C438.158 348.972 438.844 349.334 439.055 350.001C439.615 351.774 439.48 353.75 438.684 355.425C438.472 355.871 438.044 356.129 437.598 356.129Z" fill="#F47867"/>
</g>
<g opacity="0.62">
<path d="M437.847 338.644C437.776 338.644 437.703 338.638 437.629 338.624C436.971 338.499 436.533 337.836 436.652 337.145C436.875 335.862 436.913 334.557 436.765 333.261C436.686 332.564 437.161 331.931 437.826 331.847C438.496 331.75 439.094 332.262 439.174 332.96C439.349 334.507 439.304 336.067 439.04 337.599C438.933 338.213 438.423 338.644 437.847 338.644Z" fill="#F47867"/>
</g>
<g opacity="0.62">
<path d="M448.167 379.593C443.496 379.593 439.322 377.845 439.097 377.75C438.476 377.485 438.178 376.745 438.429 376.094C438.68 375.443 439.393 375.127 440.007 375.392C440.073 375.418 446.496 378.094 451.736 376.586C452.38 376.398 453.049 376.796 453.226 377.475C453.403 378.152 453.023 378.853 452.378 379.038C450.991 379.438 449.557 379.593 448.167 379.593Z" fill="#F47867"/>
</g>
<path d="M412.411 476.132C412.237 476.132 412.061 476.092 411.893 476.009C407.249 473.696 403.893 468.455 402.916 461.989C402.063 456.346 402.997 450.499 403.821 445.341L410.011 406.597C410.121 405.904 410.741 405.429 411.407 405.552C412.068 405.669 412.514 406.324 412.403 407.017L406.213 445.761C405.381 450.971 404.52 456.357 405.311 461.591C406.164 467.227 409.013 471.758 412.932 473.711C413.538 474.013 413.796 474.771 413.508 475.405C413.301 475.864 412.865 476.132 412.411 476.132Z" fill="#3B3E59"/>
<path d="M399.366 462.403C398.821 462.403 398.326 462.016 398.19 461.436L384.719 404.191C384.558 403.509 384.956 402.819 385.606 402.652C386.26 402.484 386.914 402.9 387.074 403.582L400.544 460.827C400.705 461.509 400.307 462.199 399.657 462.366C399.56 462.392 399.462 462.403 399.366 462.403Z" fill="#3B3E59"/>
<path d="M328.48 318.171C322.661 320.442 311.606 323.172 307.497 324.181C303.387 325.189 293.877 327.285 293.877 327.285L307.202 319.408C315.084 318.333 320.103 317.261 323.289 316.361C326.507 315.452 328.809 312.493 328.988 309.002C329.029 308.2 328.405 307.537 327.641 307.579C323.55 307.803 311.769 308.517 307.188 309.519C301.602 310.74 289.469 314.205 289.469 314.205L301.163 305.231C301.163 305.231 304.487 304.38 315.239 301.565C321.292 299.98 322.766 297.219 322.897 295.108C322.994 293.556 321.752 292.278 320.275 292.413C314.823 292.912 300.873 294.289 293.655 297.609C285.151 301.52 277.342 308.058 271.047 312.952C264.753 317.847 268.459 324.123 268.459 324.123L269.55 334.167L270.616 343.987C270.616 343.987 270.749 345.331 261.988 348.77C266.92 360.454 270.218 372.919 271.748 385.628C276.219 381.52 279.064 378.729 279.064 378.729C282.287 379.567 284.855 379.384 286.918 378.529C297.061 374.324 294.724 353.493 294.724 353.493C297.337 352.065 308.432 345.767 308.432 345.767C308.432 345.767 320.936 340.773 323.676 338.503C326.417 336.233 324.466 332.614 324.466 332.614C321.112 332.008 295.754 339.729 295.754 339.729L307.716 334.169C307.716 334.169 319.827 330.845 326.394 327.378C332.961 323.91 328.48 318.171 328.48 318.171Z" fill="#FFA384"/>
<g opacity="0.74">
<path d="M271.9 325.196C271.682 325.196 271.462 325.135 271.263 325.006C269.477 323.847 268.321 321.676 268.316 319.472C268.315 318.77 268.856 318.198 269.527 318.197C269.528 318.197 269.528 318.197 269.529 318.197C270.198 318.197 270.741 318.765 270.742 319.467C270.744 320.811 271.45 322.136 272.539 322.842C273.109 323.212 273.284 323.996 272.933 324.594C272.703 324.982 272.306 325.196 271.9 325.196Z" fill="#F47867"/>
<path d="M297.523 302.59C297.057 302.59 296.613 302.307 296.413 301.832L295.311 299.217C295.04 298.575 295.316 297.824 295.928 297.539C296.543 297.251 297.257 297.544 297.528 298.186L298.632 300.804C298.902 301.447 298.625 302.198 298.012 302.482C297.853 302.555 297.687 302.59 297.523 302.59Z" fill="#F47867"/>
<path d="M310.168 330.064C309.634 330.064 309.143 329.69 308.998 329.123L308.604 327.586C308.43 326.908 308.814 326.21 309.461 326.027C310.108 325.846 310.772 326.246 310.947 326.925L311.34 328.462C311.514 329.14 311.131 329.838 310.484 330.021C310.378 330.051 310.273 330.064 310.168 330.064Z" fill="#F47867"/>
<path d="M308.731 342.672C308.216 342.672 307.739 342.326 307.575 341.785L307.144 340.371C306.939 339.703 307.291 338.986 307.928 338.771C308.57 338.56 309.25 338.926 309.454 339.593L309.887 341.015C310.09 341.684 309.737 342.4 309.098 342.612C308.976 342.653 308.852 342.672 308.731 342.672Z" fill="#F47867"/>
<path d="M305.833 316.903C305.747 316.903 305.658 316.893 305.569 316.873C304.916 316.72 304.503 316.042 304.648 315.355C304.709 315.068 304.488 314.676 304.217 314.594C303.574 314.399 303.202 313.695 303.388 313.019C303.573 312.347 304.24 311.956 304.889 312.15C306.377 312.599 307.351 314.32 307.016 315.906C306.891 316.499 306.39 316.903 305.833 316.903Z" fill="#F47867"/>
<path d="M281.209 344.554C281.153 344.554 281.098 344.55 281.041 344.542C278.734 344.205 276.858 342.115 276.676 339.679C276.623 338.979 277.122 338.366 277.79 338.311C278.442 338.26 279.042 338.779 279.094 339.48C279.185 340.712 280.208 341.852 281.375 342.022C282.038 342.119 282.501 342.761 282.408 343.457C282.324 344.093 281.804 344.554 281.209 344.554Z" fill="#F47867"/>
<path d="M289.321 352.259C287.043 352.259 284.86 350.708 284.044 348.464C283.806 347.806 284.12 347.071 284.746 346.821C285.37 346.568 286.072 346.901 286.311 347.557C286.789 348.875 288.168 349.815 289.505 349.709C290.182 349.669 290.751 350.196 290.795 350.895C290.838 351.597 290.332 352.202 289.664 352.248C289.55 352.255 289.435 352.259 289.321 352.259Z" fill="#F47867"/>
<path d="M272.068 361.258C271.488 361.258 270.976 360.822 270.874 360.204L268.682 346.915C268.568 346.221 269.01 345.563 269.67 345.444C270.333 345.323 270.958 345.788 271.072 346.48L273.264 359.769C273.377 360.462 272.935 361.12 272.276 361.24C272.206 361.252 272.136 361.258 272.068 361.258Z" fill="#F47867"/>
<path d="M274.81 335.391C274.641 335.391 274.468 335.354 274.305 335.274C272.397 334.352 271.264 332.027 271.667 329.864C271.796 329.174 272.432 328.718 273.091 328.86C273.748 328.996 274.177 329.664 274.047 330.354C273.858 331.362 274.429 332.534 275.318 332.964C275.927 333.258 276.193 334.013 275.912 334.651C275.708 335.116 275.27 335.391 274.81 335.391Z" fill="#F47867"/>
</g>
<path d="M450.016 315.734C450.001 315.734 449.986 315.734 449.971 315.733C449.323 315.708 448.817 315.136 448.842 314.456L450.523 267.736C450.575 266.29 450.065 264.933 449.086 263.913C448.108 262.893 446.81 262.367 445.432 262.432L422.707 263.493C422.061 263.526 421.511 262.997 421.482 262.317C421.453 261.637 421.955 261.061 422.603 261.031L445.327 259.97C447.337 259.876 449.313 260.676 450.742 262.164C452.171 263.653 452.947 265.718 452.871 267.829L451.189 314.548C451.166 315.213 450.645 315.734 450.016 315.734Z" fill="#CCECFF"/>
<path d="M612.655 555.392H1.64955C1.12914 555.392 0.707031 554.949 0.707031 554.403C0.707031 553.857 1.12914 553.414 1.64955 553.414H612.655C613.175 553.414 613.597 553.857 613.597 554.403C613.597 554.949 613.175 555.392 612.655 555.392Z" fill="#3B3E59"/>
</svg>
