<svg width="242" height="207" viewBox="0 0 242 207" fill="none" xmlns="http://www.w3.org/2000/svg">
<path d="M208.316 201.164C228.219 179.877 240.428 151.167 240.428 119.567C240.428 53.9306 187.783 0.721893 122.841 0.721893C57.8993 0.721893 5.25391 53.9306 5.25391 119.567C5.25391 151.166 17.4625 179.877 37.3654 201.164H208.316Z" fill="#7E21C7"/>
<path d="M178.121 67.7757L180.341 52.0579L178.121 67.7757Z" fill="#61129F"/>
<path d="M182.042 52.167C181.629 51.9171 181.192 51.7155 180.753 51.5181C180.777 51.3461 180.801 51.1749 180.825 51.0037C180.842 50.8884 180.775 50.7655 180.681 50.702C179.546 49.9288 178.207 49.4366 176.9 49.0555C175.647 48.6917 174.344 48.5487 173.046 48.5115C172.381 48.4921 171.713 48.5598 171.053 48.6274C170.699 48.6633 168.597 49.3261 168.487 49.2467C164.739 46.5342 159.7 45.819 155.281 46.9236C155.126 46.9623 155.039 47.0686 155.012 47.2232C154.872 48.0089 154.78 47.8556 153.998 48.0434C153.841 48.0814 153.759 48.1897 153.729 48.343C152.653 53.8929 151.577 59.4436 150.501 64.9942C150.459 65.211 150.7 65.3843 150.894 65.3477C152.382 65.0722 153.917 65.0487 155.423 65.0943C156.919 65.1392 158.404 65.3656 159.86 65.7005C161.635 66.1099 163.066 67.0729 164.744 67.6701C165.416 67.909 167.053 67.2794 167.767 67.2214C171.602 66.9121 175.444 67.8786 178.966 69.3187C179.179 69.4064 179.375 69.2338 179.408 69.0322C180.334 63.5106 181.261 57.9896 182.186 52.468C182.205 52.3596 182.136 52.2236 182.042 52.167ZM178.768 68.8458C178.926 67.9035 173.677 66.9666 172.543 66.7795C170.792 66.4896 169.003 66.4585 167.237 66.6014C166.293 66.6773 165.227 67.1868 164.44 66.7409C161.084 64.8375 156.928 64.2258 153.117 64.4481C152.582 64.4792 152.049 64.522 151.517 64.5841C151.407 64.5972 151.32 64.6069 151.248 64.6152C151.358 64.0484 151.468 63.4809 151.578 62.9141C152.169 59.8654 152.76 56.8167 153.352 53.7673C153.597 52.5005 153.842 51.2343 154.088 49.9675C154.167 49.5608 154.246 49.1549 154.325 48.7483C154.422 48.2484 154.614 48.5191 155.128 48.4652L152.456 63.5272C152.456 63.5272 159.127 62.0007 165.368 66.074C165.368 66.074 172.157 64.6283 178.122 67.7764L180.341 52.0579C180.735 52.2215 181.118 52.4079 181.49 52.6157C181.439 52.9188 181.388 53.2212 181.338 53.5236C181.138 54.7159 180.938 55.9095 180.738 57.1018C180.214 60.2251 179.69 63.3483 179.167 66.4723C179.034 67.2635 178.9 68.0546 178.768 68.8458ZM167.044 60.9438L167.318 60.0332C173.478 58.622 177.663 61.4684 177.663 61.4684L177.462 62.4005C172.589 59.3745 167.044 60.9438 167.044 60.9438ZM177.291 63.6935L177.09 64.6255C172.217 61.5982 166.672 63.1689 166.672 63.1689L166.946 62.2582C173.106 60.8471 177.291 63.6935 177.291 63.6935ZM178.744 52.448L177.893 57.01C174.47 54.0165 168.357 55.3103 168.357 55.3103L169.073 51.1232C174.472 49.6851 178.744 52.448 178.744 52.448ZM167.491 58.4363L167.765 57.5257C173.925 56.1146 178.111 58.961 178.111 58.961L177.91 59.893C173.037 56.8671 167.491 58.4363 167.491 58.4363ZM155.415 54.408L155.689 53.4974C161.849 52.0862 166.034 54.9327 166.034 54.9327L165.834 55.8647C160.96 52.8381 155.415 54.408 155.415 54.408ZM165.249 58.0352L164.398 62.5972C160.975 59.6037 154.861 60.8975 154.861 60.8975L155.578 56.7111C160.976 55.2723 165.249 58.0352 165.249 58.0352ZM155.786 52.1836L156.06 51.273C162.22 49.8618 166.406 52.7083 166.406 52.7083L166.205 53.6403C161.332 50.6137 155.786 52.1836 155.786 52.1836ZM156.234 49.6761L156.508 48.7655C162.668 47.3544 166.853 50.2008 166.853 50.2008L166.652 51.1328C161.78 48.1055 156.234 49.6761 156.234 49.6761Z" fill="#61129F"/>
<path d="M43.8694 57.8843L41.7969 65.8464L43.3067 66.2392L44.5439 61.4867L45.3399 61.6938L44.1027 66.4464L45.2225 66.7377L46.1097 63.3293L46.9057 63.5364L46.0185 66.9448L46.9885 67.1975L47.8763 63.7891L48.6723 63.9962L47.7852 67.4046L48.7552 67.6573L49.643 64.2489L50.439 64.456L49.5512 67.8644L50.5219 68.1171L51.409 64.7087L52.2057 64.9158L51.3179 68.3249L52.3879 68.6031L53.6251 63.8506L54.4211 64.0584L53.1839 68.8102L54.3037 69.1015L55.1909 65.6932L55.9876 65.9003L55.0997 69.3094L56.0704 69.5613L56.9575 66.153L57.7535 66.3601L56.8664 69.7691L57.8371 70.0211L58.7242 66.6127L59.5202 66.8199L58.6331 70.2289L59.6031 70.4816L60.4909 67.0725L61.2869 67.2796L60.3998 70.6887L61.4692 70.967L62.7063 66.2151L63.503 66.4222L62.2659 71.1741L63.385 71.4661L64.2728 68.057L65.0688 68.2641L64.1816 71.6732L65.1516 71.9259L66.0395 68.5168L66.8355 68.7239L65.9476 72.133L66.9183 72.3857L67.8054 68.9766L68.6021 69.1844L67.7143 72.5928L68.685 72.8455L69.5721 69.4364L70.3681 69.6442L69.481 73.0526L70.5511 73.3308L71.7882 68.5789L72.5842 68.786L71.3471 73.5386L72.5828 73.8603L74.6553 65.8982L43.8694 57.8843Z" fill="#61129F"/>
<path d="M62.5178 134.86L64.7954 120.793L42.0979 117.118L39.8203 131.185L54.5405 133.568L57.4601 138.742L58.2016 134.161L62.5178 134.86ZM45.451 122.747L59.6769 125.05L59.5216 126.009L45.2957 123.706L45.451 122.747ZM44.8041 126.743L44.9595 125.784L59.1854 128.087L59.03 129.046L44.8041 126.743Z" fill="#61129F"/>
<path d="M89.9259 109.937C89.4827 109.581 88.9132 109.661 88.3795 109.807C88.3975 108.946 87.6788 108.763 86.8082 108.844C86.7143 108.57 86.6197 108.296 86.5258 108.022C86.1793 107.012 86.1606 107.284 86.7661 106.563C87.6981 105.453 88.0205 103.96 88.1703 102.546C92.8959 102 92.2926 94.6305 87.3412 94.6836C87.3122 94.6836 87.2908 94.6954 87.2652 94.6995C87.2521 94.7009 87.2418 94.696 87.2286 94.6981C87.2066 94.7016 87.1845 94.7057 87.1624 94.7092C86.9912 94.132 86.8144 93.5562 86.6018 92.9922C86.5355 92.8175 86.3933 92.6739 86.1924 92.6801C81.7477 92.8175 76.9482 94.0678 73.3693 96.8341C73.2554 96.9225 73.2216 97.1165 73.2603 97.247C73.3086 97.4106 73.6931 98.4952 73.6558 98.5124C73.176 98.7341 72.6541 99.2132 72.3814 99.6523C71.6606 100.813 71.5198 101.969 71.9023 103.274C72.5512 105.49 75.3038 106.484 77.2907 105.53C77.8064 106.185 78.3732 106.8 79.0187 107.346C79.7815 107.99 80.8026 108.534 81.8106 108.642C81.8582 108.388 81.9031 108.386 81.9452 108.64C82.0129 108.839 82.0805 109.039 82.1475 109.238C82.2421 109.518 82.3366 109.797 82.4312 110.077C81.6552 110.442 81.2769 111.057 81.6331 111.843C80.5803 112.515 79.7726 114.22 81.4605 114.729C82.9055 115.164 84.8696 114.152 86.2407 113.757C87.3992 113.423 89.792 113.22 90.4852 112.037C90.9449 111.254 90.5528 110.441 89.9259 109.937ZM82.2918 107.845C82.2869 107.845 82.2842 107.847 82.2793 107.847C82.2745 107.846 82.2711 107.845 82.2662 107.844C80.405 107.645 78.9621 106.464 77.8209 104.955C77.8167 104.894 77.7988 104.836 77.7608 104.782C77.4087 104.295 77.0836 103.802 76.7715 103.288C76.7467 103.248 76.7121 103.21 76.6728 103.178C76.0873 102.136 75.6041 101.059 75.1926 100.107C75.0739 99.8311 74.7149 99.8697 74.5257 100.02C73.3176 100.984 73.3155 102.211 74.1591 103.404C74.456 103.824 74.8454 104.058 75.3341 104.16C75.5012 104.196 75.698 104.18 75.8616 104.133C76.0673 104.074 76.2282 104.126 76.3649 104.237C76.496 104.443 76.6362 104.644 76.7757 104.844C73.3431 106.415 70.6962 100.813 74.4132 99.0958C74.5747 99.0212 74.6665 98.7817 74.6086 98.6167C74.4905 98.2929 74.378 97.9677 74.2703 97.6405C74.215 97.4762 74.1888 97.3664 74.1757 97.2967C74.2827 97.2221 74.3876 97.1455 74.496 97.0737C75.388 96.4779 76.3462 95.9857 77.3176 95.5342C78.9862 94.7596 80.766 94.2508 82.5658 93.8925C82.7654 93.8524 85.9004 93.5307 85.8085 93.2863C86.0578 93.9477 86.2573 94.6256 86.454 95.3029C86.5182 95.5224 86.6943 95.6101 86.8683 95.6011C86.7109 95.6833 86.6004 95.8503 86.6584 96.072C86.6605 96.0789 86.6618 96.0858 86.6639 96.092C86.6853 96.1721 86.7233 96.2335 86.7702 96.2805C86.7502 96.346 86.7454 96.4199 86.764 96.5021C86.7654 96.5069 86.7661 96.5124 86.7675 96.5173C86.7875 96.6036 86.8268 96.6685 86.8765 96.7168C86.8545 96.7893 86.8482 96.8687 86.8662 96.9508C87.1085 98.0775 87.2839 99.2104 87.3591 100.361C87.3646 100.45 87.3964 100.519 87.4364 100.579C87.4005 100.639 87.3757 100.708 87.3785 100.797C87.3785 100.804 87.3791 100.811 87.3791 100.818C87.3978 101.364 88.247 101.366 88.2283 100.818C88.2283 100.811 88.2276 100.804 88.2276 100.797C88.2255 100.747 88.2104 100.705 88.1959 100.664C89.092 100.299 89.6512 99.4672 89.6187 98.4634C89.618 98.4358 89.6063 98.4151 89.6015 98.3902C89.6008 98.3764 89.6056 98.3654 89.6035 98.3509C89.4537 97.2822 88.6246 96.5428 87.5945 96.4337C87.598 96.3889 87.5973 96.3426 87.5856 96.2922C87.5842 96.2867 87.5835 96.2818 87.5821 96.277C87.5635 96.1962 87.5276 96.1348 87.482 96.0871C87.5 96.0216 87.5034 95.9484 87.482 95.8669C87.4799 95.86 87.4786 95.8531 87.4765 95.8469C87.4337 95.684 87.326 95.5929 87.2017 95.5597C87.2535 95.5507 87.3053 95.5424 87.3577 95.5335C91.1817 95.51 91.7596 101.125 88.229 101.683C88.2407 101.139 87.3957 101.141 87.3805 101.687C87.3805 101.702 87.3798 101.717 87.3791 101.732C87.3771 101.816 87.3992 101.883 87.4309 101.941C87.3943 102.004 87.3667 102.073 87.3598 102.153C87.2059 103.917 86.7488 105.482 85.4385 106.738C85.3991 106.776 85.3695 106.827 85.3474 106.88C85.2887 106.886 85.2314 106.904 85.181 106.939C85.1637 106.952 85.1458 106.963 85.1285 106.976C85.0616 107.023 85.0132 107.086 84.9766 107.153C84.9083 107.153 84.8358 107.168 84.7612 107.21C84.7592 107.212 84.7578 107.213 84.7557 107.213C84.6805 107.257 84.6294 107.312 84.5962 107.373C84.5175 107.371 84.4374 107.382 84.3601 107.417C84.3297 107.431 84.2994 107.445 84.2683 107.458C84.2096 107.485 84.1668 107.529 84.133 107.58C84.0702 107.567 84.0046 107.567 83.9411 107.589C83.8492 107.621 83.7567 107.65 83.6635 107.678C83.6497 107.682 83.6387 107.688 83.6256 107.693C83.6104 107.696 83.5959 107.697 83.5807 107.701C83.5137 107.719 83.4474 107.735 83.3798 107.751C83.3618 107.755 83.3467 107.762 83.3301 107.768C83.319 107.77 83.308 107.767 83.2969 107.77C83.2113 107.787 83.1264 107.804 83.0408 107.817C83.0381 107.817 83.036 107.818 83.0339 107.819C83.0312 107.819 83.0284 107.819 83.0256 107.819C82.9759 107.826 82.9255 107.83 82.8758 107.834C82.8634 107.835 82.853 107.841 82.8406 107.843C82.8247 107.842 82.8089 107.839 82.793 107.84C82.7308 107.844 82.6687 107.847 82.6059 107.849C82.5893 107.85 82.5783 107.857 82.5631 107.859C82.5486 107.858 82.5375 107.851 82.5217 107.851C82.4464 107.849 82.3691 107.848 82.2918 107.845ZM75.7601 103.213C74.6334 103.291 74.2068 102.027 74.717 101.111C75.0373 101.823 75.3804 102.528 75.7601 103.213ZM87.8072 97.3354C88.3215 97.4941 88.6639 97.9139 88.7696 98.5C88.7765 99.0371 88.559 99.4728 88.1558 99.7386C88.0792 98.9322 87.9604 98.1314 87.8072 97.3354ZM89.2894 111.998C89.1147 112.048 88.9394 112.098 88.7647 112.149C87.9673 112.379 87.1706 112.609 86.3733 112.838C85.4661 113.099 84.5597 113.36 83.6532 113.621C83.3411 113.711 83.0291 113.801 82.7177 113.891C81.9217 114.12 81.5924 112.652 82.3449 112.436C82.5893 112.366 82.7626 112.04 82.599 111.813C82.4512 111.166 82.61 110.807 83.0767 110.737C83.288 110.671 83.4488 110.439 83.3729 110.215C83.1996 109.703 83.027 109.193 82.8544 108.681C82.8627 108.681 82.871 108.683 82.88 108.682C83.0056 108.67 83.1306 108.653 83.2555 108.636C83.2583 108.636 83.2604 108.635 83.2624 108.634C83.2652 108.633 83.2673 108.634 83.27 108.634C83.3556 108.62 83.4412 108.604 83.5262 108.587C83.5337 108.586 83.5393 108.58 83.5469 108.577C83.5676 108.575 83.5876 108.574 83.609 108.569C83.676 108.553 83.7429 108.537 83.8092 108.519C83.823 108.515 83.8334 108.509 83.8458 108.505C83.8617 108.502 83.8762 108.501 83.8921 108.496C83.9853 108.468 84.0778 108.439 84.1696 108.407C84.2669 108.374 84.3443 108.31 84.4002 108.232C84.4975 108.249 84.6018 108.236 84.6998 108.191C84.7302 108.177 84.7605 108.163 84.7916 108.149C84.8586 108.119 84.9035 108.064 84.938 108.003C85.016 108.011 85.1009 107.995 85.1872 107.946C85.1893 107.945 85.1906 107.944 85.192 107.944C85.2742 107.897 85.328 107.835 85.3605 107.768C85.4185 107.768 85.4758 107.755 85.5282 107.726C85.6691 108.136 85.8099 108.546 85.9508 108.957C85.7671 109.014 85.5835 109.071 85.3998 109.128C84.8855 109.271 84.4271 109.43 84.1468 109.517C83.6256 109.679 83.8479 110.498 84.3726 110.336C84.9117 110.168 85.4516 110.001 85.9915 109.834C86.84 109.635 87.6532 109.596 87.4213 110.303C87.3198 110.612 87.6429 110.912 87.9439 110.825C88.0937 110.781 88.2435 110.738 88.3933 110.695C89.0423 110.395 89.3405 110.83 89.2894 111.998Z" fill="#61129F"/>
<path d="M203.194 93.1669C202.12 94.284 198.765 91.2926 197.982 90.7948C195.42 89.1676 192.86 87.5404 190.298 85.9138C189.525 85.4223 186.354 84.114 187.214 82.7609C188.355 80.9652 189.496 79.1689 190.637 77.3732C192.247 74.8381 193.858 72.3024 195.469 69.7666C195.911 69.0707 197.294 65.817 198.575 66.6302C202.872 69.3607 207.171 72.0911 211.468 74.8223C212.386 75.4056 214.072 76.0387 213.216 77.387C212.114 79.1212 211.013 80.8548 209.911 82.589C207.658 86.1355 205.405 89.6812 203.153 93.2277C202.953 93.5418 203.465 93.8062 203.663 93.4942C206.168 89.5507 208.674 85.608 211.179 81.6646C212.109 80.2017 213.038 78.7381 213.968 77.2752C214.854 75.8799 212.836 75.0121 211.95 74.4488C207.607 71.6893 203.264 68.9299 198.921 66.1705C197.698 65.3931 197.009 66.2768 196.398 67.2378C195.045 69.3662 193.693 71.4953 192.341 73.6238C190.552 76.4384 188.764 79.2531 186.976 82.0678C185.874 83.8013 186.956 84.4696 188.396 85.3857C191.502 87.3588 194.609 89.3326 197.715 91.3057C199.003 92.1238 202.112 95.1248 203.621 93.5549C203.877 93.2864 203.451 92.8991 203.194 93.1669Z" fill="#61129F"/>
<path d="M210.835 79.1871C210.513 79.6946 209.839 79.8451 209.331 79.5227L196.915 71.6344C196.408 71.312 196.257 70.6382 196.58 70.1308L197.515 68.6596C197.838 68.1515 198.511 68.0017 199.019 68.3241L211.435 76.2123C211.943 76.5347 212.092 77.2085 211.769 77.7159L210.835 79.1871Z" fill="#61129F"/>
<path d="M197.299 78.3688C197.159 78.589 196.866 78.6546 196.646 78.5144L193.801 76.707C193.581 76.5669 193.516 76.2749 193.655 76.0539L194.734 74.357C194.874 74.1368 195.166 74.0712 195.386 74.2113L198.231 76.0187C198.452 76.1589 198.517 76.4509 198.377 76.6718L197.299 78.3688Z" fill="#61129F"/>
<path d="M202.041 81.3808C201.901 81.601 201.609 81.6666 201.388 81.5264L198.544 79.719C198.323 79.5789 198.258 79.2862 198.398 79.0659L199.476 77.369C199.616 77.1481 199.908 77.0832 200.129 77.2233L202.973 79.03C203.194 79.1702 203.259 79.4622 203.119 79.6831L202.041 81.3808Z" fill="#61129F"/>
<path d="M206.829 84.4246C206.689 84.6455 206.397 84.7104 206.177 84.5703L203.333 82.7636C203.112 82.6234 203.047 82.3307 203.187 82.1105L204.265 80.4135C204.405 80.1926 204.698 80.1277 204.918 80.2679L207.762 82.0753C207.983 82.2147 208.048 82.5074 207.908 82.7284L206.829 84.4246Z" fill="#61129F"/>
<path d="M195.08 81.862C194.94 82.0822 194.647 82.1478 194.427 82.0077L191.583 80.2003C191.362 80.0601 191.297 79.7681 191.437 79.5472L192.516 77.8509C192.656 77.6307 192.948 77.5651 193.168 77.7052L196.013 79.5126C196.233 79.6528 196.298 79.9448 196.159 80.1657L195.08 81.862Z" fill="#61129F"/>
<path d="M199.822 84.8742C199.682 85.0951 199.39 85.16 199.169 85.0199L196.325 83.2125C196.105 83.0723 196.039 82.7796 196.179 82.5594L197.258 80.8624C197.398 80.6415 197.69 80.5766 197.911 80.7168L200.755 82.5235C200.976 82.6636 201.041 82.9557 200.901 83.1766L199.822 84.8742Z" fill="#61129F"/>
<path d="M192.893 85.3054C192.753 85.5263 192.46 85.5905 192.24 85.4511L189.395 83.6444C189.175 83.5042 189.109 83.2115 189.25 82.9913L190.327 81.2943C190.467 81.0741 190.759 81.0085 190.98 81.1487L193.825 82.9561C194.045 83.0962 194.11 83.3882 193.97 83.6091L192.893 85.3054Z" fill="#61129F"/>
<path d="M197.635 88.3167C197.495 88.5369 197.203 88.6025 196.982 88.4624L194.138 86.6557C193.917 86.5155 193.852 86.2235 193.992 86.0026L195.07 84.3063C195.21 84.0854 195.502 84.0205 195.723 84.1606L198.567 85.9674C198.787 86.1075 198.853 86.4002 198.713 86.6205L197.635 88.3167Z" fill="#61129F"/>
<path d="M205.543 85.5676L202.699 83.7609C202.478 83.6207 202.186 83.6856 202.046 83.9065L201.696 84.4574L200.967 85.6035L199.129 88.4955C198.796 89.0201 198.704 89.5586 198.925 89.6995L201.769 91.5062C201.99 91.6463 202.439 91.3343 202.773 90.8096L204.61 87.9169L205.338 86.7716L205.688 86.2207C205.829 85.9997 205.763 85.7077 205.543 85.5676Z" fill="#61129F"/>
<path d="M208.638 81.5802C208.603 81.6347 208.53 81.6513 208.474 81.6161L195.5 73.373C195.445 73.3378 195.429 73.2646 195.464 73.2094L195.971 72.4106C196.006 72.3554 196.079 72.3395 196.134 72.3747L209.109 80.6178C209.164 80.653 209.181 80.7255 209.145 80.7807L208.638 81.5802Z" fill="#61129F"/>
<path d="M191.648 127.259L169.141 116.914C168.065 116.419 166.779 116.895 166.285 117.971L141.247 172.443C140.752 173.52 141.228 174.805 142.304 175.3L164.811 185.644L191.648 127.259Z" fill="#F95F1E"/>
<path d="M191.649 127.259L214.156 137.604C215.233 138.099 215.708 139.385 215.213 140.461L190.175 194.933C189.681 196.009 188.394 196.485 187.319 195.99L164.812 185.646L191.649 127.259Z" fill="#DC3F18"/>
<path d="M191.648 127.259L169.141 116.914C168.065 116.419 166.779 116.895 166.285 117.971L141.247 172.443C140.752 173.52 141.228 174.805 142.304 175.3L164.811 185.644L191.648 127.259Z" fill="#A3318A"/>
<path d="M191.649 127.259L214.156 137.604C215.233 138.099 215.708 139.385 215.213 140.461L190.175 194.933C189.681 196.009 188.394 196.485 187.319 195.99L164.812 185.646L191.649 127.259Z" fill="#76075E"/>
<path d="M211.712 140.121L168.82 120.407L144.76 172.758L187.651 192.471L211.712 140.121Z" fill="#F4F4F4"/>
<path d="M188.846 189.862L145.957 170.149L144.758 172.759L187.647 192.471L188.846 189.862Z" fill="#BFBFBF"/>
<path d="M207.114 143.244L169.441 125.929L168.633 127.687L206.306 145.002L207.114 143.244Z" fill="#DDDDDD"/>
<path d="M204.868 148.135L167.195 130.821L166.387 132.579L204.06 149.894L204.868 148.135Z" fill="#DDDDDD"/>
<path d="M202.603 153.052L164.93 135.733L164.121 137.491L201.794 154.81L202.603 153.052Z" fill="#DDDDDD"/>
<path d="M200.368 157.922L162.695 140.607L161.887 142.365L199.56 159.68L200.368 157.922Z" fill="#DDDDDD"/>
<path d="M198.118 162.814L160.445 145.499L159.637 147.258L197.31 164.573L198.118 162.814Z" fill="#DDDDDD"/>
<path d="M195.873 167.707L158.199 150.392L157.391 152.15L195.065 169.465L195.873 167.707Z" fill="#DDDDDD"/>
<path d="M193.603 172.622L155.93 155.303L155.121 157.061L192.794 174.38L193.603 172.622Z" fill="#DDDDDD"/>
<path d="M191.376 177.492L153.703 160.177L152.895 161.935L190.568 179.25L191.376 177.492Z" fill="#DDDDDD"/>
<path d="M189.107 182.407L151.434 165.088L150.626 166.846L188.299 184.165L189.107 182.407Z" fill="#DDDDDD"/>
<path d="M193.705 122.754L185.223 118.855L182.249 125.324L190.731 129.223L193.705 122.754Z" fill="#EFEFEF"/>
<path d="M190.737 129.212L199.219 133.111L202.193 126.641L193.711 122.742L190.737 129.212Z" fill="#C9C9C9"/>
<path d="M193.705 122.754L185.223 118.855L182.249 125.324L190.731 129.223L193.705 122.754Z" fill="#EFEFEF"/>
<path d="M190.737 129.212L199.219 133.111L202.193 126.641L193.711 122.742L190.737 129.212Z" fill="#C9C9C9"/>
<path d="M186.423 120.481C186.306 120.736 186.004 120.848 185.749 120.731C185.494 120.613 185.382 120.311 185.5 120.056C185.617 119.801 185.92 119.69 186.174 119.807C186.429 119.924 186.541 120.227 186.423 120.481Z" fill="#B7B7B7"/>
<path d="M201.1 127.228C200.983 127.483 200.681 127.594 200.426 127.478C200.171 127.36 200.058 127.059 200.176 126.803C200.294 126.548 200.595 126.437 200.85 126.554C201.106 126.671 201.218 126.973 201.1 127.228Z" fill="#A8A8A8"/>
<path d="M174.146 194.577L173.522 193.851C173.125 193.39 172.394 193.363 171.896 193.79L169.482 195.864C168.984 196.292 168.901 197.019 169.297 197.48L169.921 198.207L174.146 194.577Z" fill="#E5E5E5"/>
<path d="M174.147 194.577L174.77 195.304C175.167 195.765 175.082 196.491 174.585 196.919L172.171 198.993C171.673 199.42 170.942 199.393 170.546 198.932L169.922 198.206L174.147 194.577Z" fill="#C9C9C9"/>
<path d="M174.146 194.577L173.522 193.851C173.125 193.39 172.394 193.363 171.896 193.79L169.482 195.864C168.984 196.292 168.901 197.019 169.297 197.48L169.921 198.207L174.146 194.577Z" fill="#E5E5E5"/>
<path d="M174.147 194.577L174.77 195.304C175.167 195.765 175.082 196.491 174.585 196.919L172.171 198.993C171.673 199.42 170.942 199.393 170.546 198.932L169.922 198.206L174.147 194.577Z" fill="#C9C9C9"/>
<path d="M198.038 171.296L171.082 194.45L172.452 196.045L199.408 172.89L198.038 171.296Z" fill="#16AEBA"/>
<path d="M199.406 172.891L172.449 196.045L173.819 197.639L200.775 174.485L199.406 172.891Z" fill="#139BA4"/>
<path d="M198.038 171.296L171.082 194.45L172.452 196.045L199.408 172.89L198.038 171.296Z" fill="#BA16AA"/>
<path d="M199.406 172.891L172.449 196.045L173.819 197.639L200.775 174.485L199.406 172.891Z" fill="#76075E"/>
<path d="M198.113 171.215L197.816 171.47L200.556 174.659L200.852 174.404L203.538 169.549L203.428 169.421L203.319 169.293L198.113 171.215Z" fill="#E8B58B"/>
<path d="M203.027 169.401L203.902 169.016L203.389 169.823L203.027 169.401Z" fill="#333231"/>
<path d="M171.487 194.109L170.742 194.749L172.112 196.344L172.857 195.703L171.487 194.109Z" fill="#F8611B"/>
<path d="M172.855 195.704L172.109 196.344L173.479 197.939L174.225 197.298L172.855 195.704Z" fill="#DD3E1A"/>
<path d="M171.487 194.109L170.742 194.749L172.112 196.344L172.857 195.703L171.487 194.109Z" fill="#F8611B"/>
<path d="M172.855 195.704L172.109 196.344L173.479 197.939L174.225 197.298L172.855 195.704Z" fill="#DD3E1A"/>
<path d="M30.9197 103.969C31.0261 104.335 31.1738 104.688 31.3623 105.019L30.8279 105.693C30.654 105.913 30.674 106.228 30.87 106.426L31.7896 107.345C31.9878 107.544 32.3019 107.561 32.5214 107.387L33.1911 106.857C33.5356 107.056 33.9022 107.211 34.2839 107.32L34.3841 108.181C34.4165 108.46 34.6526 108.669 34.9315 108.669H36.2322C36.5118 108.669 36.7465 108.46 36.7797 108.181L36.8749 107.351C37.285 107.244 37.6772 107.085 38.0458 106.877L38.692 107.389C38.9129 107.564 39.227 107.545 39.4259 107.348L40.3448 106.428C40.5443 106.23 40.5615 105.916 40.3869 105.696L39.8843 105.057C40.0928 104.695 40.2557 104.31 40.3662 103.906L41.1415 103.817C41.4211 103.784 41.6303 103.549 41.6303 103.27V101.968C41.6303 101.689 41.4197 101.454 41.1415 101.421L40.3765 101.332C40.2709 100.933 40.1156 100.552 39.914 100.194L40.3855 99.5993C40.5602 99.379 40.5401 99.0656 40.3448 98.8675L39.4266 97.9493C39.2277 97.7504 38.9136 97.7339 38.6927 97.9078L38.1169 98.3656C37.7414 98.146 37.3402 97.9769 36.9191 97.8637L36.8321 97.1174C36.7997 96.8371 36.5636 96.6279 36.2854 96.6279H34.9833C34.7037 96.6279 34.4676 96.8371 34.4358 97.1174L34.3482 97.8637C33.9174 97.979 33.5052 98.1536 33.122 98.3835L32.5214 97.9078C32.3019 97.7339 31.9878 97.7532 31.7896 97.9493L30.87 98.8695C30.6705 99.0677 30.654 99.3818 30.8279 99.6013L31.3305 100.236C31.1289 100.598 30.9764 100.983 30.8776 101.385L30.0747 101.476C29.7958 101.51 29.5859 101.745 29.5859 102.023V103.325C29.5859 103.603 29.7958 103.839 30.0747 103.871L30.9197 103.969ZM35.6343 100.448C36.8197 100.448 37.7855 101.414 37.7855 102.599C37.7855 103.785 36.8197 104.752 35.6343 104.752C34.449 104.752 33.4831 103.785 33.4831 102.599C33.4831 101.414 34.449 100.448 35.6343 100.448Z" fill="#61129F"/>
<path d="M41.5976 98.0065C41.7046 98.3724 41.853 98.7259 42.0401 99.0572L41.5065 99.7311C41.3325 99.9513 41.3525 100.265 41.5479 100.464L42.4675 101.383C42.667 101.581 42.9811 101.599 43.2007 101.425L43.8689 100.894C44.2134 101.093 44.58 101.248 44.9618 101.358L45.0619 102.218C45.0944 102.497 45.3291 102.706 45.608 102.706H46.9094C47.1883 102.706 47.4244 102.497 47.4561 102.218L47.5521 101.387C47.9622 101.28 48.3543 101.121 48.7223 100.914L49.3705 101.427C49.5894 101.601 49.9042 101.581 50.1023 101.384L51.0226 100.465C51.2207 100.266 51.2387 99.952 51.0633 99.7324L50.5601 99.0938C50.7692 98.7314 50.9322 98.3462 51.0419 97.9423L51.8179 97.8539C52.0975 97.8201 52.306 97.5847 52.306 97.3058V96.0044C52.306 95.7248 52.0975 95.4901 51.8179 95.4576L51.0523 95.3679C50.9467 94.9688 50.7913 94.5884 50.5904 94.2301L51.0613 93.6343C51.2359 93.4155 51.2159 93.1007 51.0205 92.9032L50.1023 91.985C49.9042 91.7862 49.5894 91.7689 49.3705 91.9429L48.7927 92.4006C48.4171 92.1811 48.016 92.0119 47.5956 91.9001L47.5086 91.1524C47.4761 90.8735 47.24 90.6636 46.9618 90.6636H45.6598C45.3809 90.6636 45.1454 90.8735 45.1116 91.1524L45.0246 91.9001C44.5931 92.0147 44.181 92.1894 43.7985 92.4193L43.1986 91.9429C42.9783 91.7689 42.6649 91.7889 42.4654 91.985L41.5458 92.9046C41.3477 93.1027 41.3304 93.4176 41.5044 93.6371L42.0063 94.2715C41.8054 94.634 41.6521 95.0192 41.5534 95.4203L40.7512 95.5115C40.4723 95.5446 40.2617 95.7807 40.2617 96.0589V97.361C40.2617 97.6399 40.4723 97.876 40.7512 97.9084L41.5976 98.0065ZM46.3129 94.4863C47.4989 94.4863 48.4648 95.4507 48.4648 96.6368C48.4648 97.8221 47.4989 98.7887 46.3129 98.7887C45.1275 98.7887 44.1623 97.8221 44.1623 96.6368C44.1623 95.4507 45.1275 94.4863 46.3129 94.4863Z" fill="#61129F"/>
<path d="M35.1143 93.5597C35.1682 93.7468 35.2434 93.9263 35.3401 94.0955L35.0674 94.4386C34.9783 94.5518 34.988 94.7113 35.0888 94.8121L35.5582 95.2815C35.6597 95.383 35.8192 95.392 35.9331 95.3029L36.2734 95.0323C36.4495 95.1331 36.6359 95.2118 36.8313 95.2684L36.8824 95.7082C36.8989 95.8511 37.0191 95.9567 37.162 95.9567H37.8247C37.9676 95.9567 38.0884 95.8504 38.1036 95.7082L38.154 95.2836C38.3625 95.2298 38.5627 95.1483 38.7512 95.042L39.0812 95.3036C39.1937 95.392 39.3539 95.3823 39.4554 95.2822L39.9248 94.8128C40.0256 94.712 40.0353 94.5511 39.9463 94.4393L39.6901 94.1134C39.7964 93.9284 39.88 93.7323 39.9345 93.5266L40.3315 93.481C40.4737 93.4638 40.5807 93.3437 40.5807 93.2014V92.5373C40.5807 92.3944 40.4737 92.2749 40.3315 92.2584L39.9407 92.2121C39.8876 92.0085 39.8075 91.8138 39.7046 91.6315L39.9449 91.3284C40.0332 91.2159 40.0243 91.055 39.9235 90.9549L39.4554 90.4862C39.3539 90.3847 39.1937 90.3757 39.0812 90.4641L38.7864 90.6981C38.5952 90.5863 38.3908 90.5007 38.1761 90.4434L38.1313 90.0616C38.1161 89.9187 37.9952 89.8131 37.8523 89.8131H37.1882C37.0474 89.8131 36.9259 89.9194 36.9093 90.0616L36.8651 90.4434C36.6442 90.5021 36.4343 90.5904 36.2375 90.7078L35.9331 90.4648C35.8192 90.3764 35.6597 90.3861 35.5582 90.4869L35.0888 90.9563C34.988 91.0571 34.9783 91.2173 35.0674 91.3291L35.3221 91.6529C35.2213 91.8386 35.1426 92.034 35.0915 92.2397L34.6814 92.286C34.5392 92.3033 34.4336 92.4234 34.4336 92.5656V93.229C34.4336 93.3713 34.5399 93.4914 34.6814 93.5086L35.1143 93.5597ZM37.521 91.7627C38.125 91.7627 38.6187 92.2556 38.6187 92.8604C38.6187 93.4652 38.125 93.9581 37.521 93.9581C36.9162 93.9581 36.4226 93.4652 36.4226 92.8604C36.4226 92.2556 36.9162 91.7627 37.521 91.7627Z" fill="#61129F"/>
<path d="M190.341 104.239C190.503 104.221 191.866 104.04 191.866 104.04C191.866 104.04 192.003 103.912 192.001 103.712C191.999 103.513 191.996 103.25 191.996 103.25C191.996 103.25 191.993 102.986 191.99 102.787C191.988 102.587 191.848 102.462 191.848 102.462C191.848 102.462 190.481 102.313 190.319 102.299C190.242 102.293 190.139 102.225 190.052 102.156C189.96 101.788 189.826 101.436 189.655 101.104C189.674 100.994 189.707 100.875 189.76 100.819C189.873 100.702 190.801 99.6868 190.801 99.6868C190.801 99.6868 190.823 99.5004 190.693 99.3492C190.563 99.198 190.391 98.9978 190.391 98.9978C190.391 98.9978 190.219 98.7983 190.089 98.6464C189.96 98.4952 189.773 98.489 189.773 98.489C189.773 98.489 188.629 99.2539 188.496 99.3471C188.433 99.3913 188.31 99.4058 188.199 99.4086C187.898 99.1897 187.57 99.004 187.219 98.8577C187.164 98.761 187.112 98.6492 187.117 98.5725C187.127 98.4103 187.186 97.0364 187.186 97.0364C187.186 97.0364 187.084 96.8797 186.886 96.8473C186.689 96.8148 186.429 96.772 186.429 96.772C186.429 96.772 186.169 96.7292 185.972 96.6968C185.775 96.6643 185.628 96.7803 185.628 96.7803C185.628 96.7803 185.244 98.101 185.202 98.2577C185.182 98.3323 185.097 98.4213 185.014 98.4952C184.633 98.5214 184.263 98.5926 183.909 98.7037C183.804 98.6657 183.692 98.6126 183.647 98.5504C183.551 98.4193 182.713 97.3292 182.713 97.3292C182.713 97.3292 182.533 97.2746 182.362 97.3768C182.19 97.4783 181.964 97.6129 181.964 97.6129C181.964 97.6129 181.737 97.7475 181.565 97.849C181.394 97.9512 181.355 98.1341 181.355 98.1341C181.355 98.1341 181.91 99.3927 181.979 99.5397C182.011 99.6102 182.004 99.7331 181.988 99.8435C181.719 100.103 181.479 100.394 181.275 100.713C181.17 100.751 181.051 100.782 180.976 100.764C180.818 100.725 179.476 100.429 179.476 100.429C179.476 100.429 179.304 100.503 179.237 100.691C179.171 100.879 179.084 101.128 179.084 101.128C179.084 101.128 178.997 101.376 178.931 101.565C178.865 101.752 178.953 101.918 178.953 101.918C178.953 101.918 180.187 102.526 180.334 102.594C180.405 102.626 180.478 102.727 180.537 102.822C180.496 103.203 180.502 103.579 180.548 103.946C180.493 104.042 180.421 104.142 180.352 104.177C180.207 104.249 178.988 104.885 178.988 104.885C178.988 104.885 178.903 105.052 178.974 105.239C179.044 105.425 179.137 105.672 179.137 105.672C179.137 105.672 179.231 105.918 179.301 106.105C179.371 106.292 179.545 106.361 179.545 106.361C179.545 106.361 180.881 106.033 181.037 105.992C181.112 105.972 181.233 106.001 181.339 106.036C181.548 106.347 181.794 106.633 182.07 106.888C182.089 106.998 182.1 107.121 182.069 107.192C182.004 107.341 181.478 108.612 181.478 108.612C181.478 108.612 181.521 108.794 181.695 108.892C181.869 108.99 182.099 109.119 182.099 109.119C182.099 109.119 182.329 109.249 182.503 109.346C182.677 109.444 182.855 109.385 182.855 109.385C182.855 109.385 183.668 108.276 183.761 108.143C183.805 108.079 183.916 108.024 184.02 107.983C184.198 108.034 184.381 108.076 184.569 108.106C184.756 108.137 184.943 108.156 185.128 108.165C185.213 108.236 185.3 108.325 185.322 108.399C185.368 108.555 185.783 109.866 185.783 109.866C185.783 109.866 185.933 109.979 186.129 109.942C186.325 109.905 186.584 109.856 186.584 109.856C186.584 109.856 186.843 109.807 187.039 109.77C187.235 109.734 187.334 109.574 187.334 109.574C187.334 109.574 187.243 108.202 187.229 108.04C187.222 107.963 187.271 107.849 187.325 107.751C187.668 107.598 187.992 107.405 188.29 107.178C188.402 107.178 188.526 107.19 188.59 107.233C188.725 107.322 189.886 108.061 189.886 108.061C189.886 108.061 190.073 108.05 190.199 107.896C190.326 107.742 190.493 107.538 190.493 107.538C190.493 107.538 190.66 107.335 190.786 107.18C190.912 107.026 190.886 106.84 190.886 106.84C190.886 106.84 189.934 105.848 189.82 105.732C189.765 105.678 189.73 105.561 189.708 105.451C189.869 105.119 189.995 104.764 190.079 104.39C190.163 104.319 190.264 104.247 190.341 104.239ZM188.584 103.858C188.29 105.643 186.606 106.852 184.821 106.558C183.036 106.265 181.827 104.58 182.12 102.795C182.414 101.01 184.098 99.8014 185.883 100.095C187.668 100.389 188.877 102.073 188.584 103.858Z" fill="#61129F"/>
<path d="M20.9102 190.45V196.026C20.9102 198.127 22.6126 199.828 24.7121 199.828H124.077C126.177 199.828 127.878 198.126 127.878 196.026V190.45H20.9102Z" fill="#A6A6A6"/>
<path d="M124.079 190.45V135.444C124.079 134.604 123.398 133.923 122.558 133.923H25.7279C24.8884 133.923 24.207 134.604 24.207 135.444V190.45H124.079Z" fill="#3D2B2F"/>
<path d="M118.713 190.45V141.089C118.713 140.335 118.102 139.724 117.348 139.724H30.4547C29.7008 139.724 29.0898 140.335 29.0898 141.089V190.45H118.713Z" fill="white"/>
<path d="M127.879 190.45H20.9102V193.554H127.879V190.45Z" fill="#EDEDED"/>
<path d="M86.0679 192.002H67.0156V195.139H86.0679V192.002Z" fill="#3D2B2F"/>
<path d="M93.5925 144.549H54.5586V148.877H93.5925V144.549Z" fill="#7E9C9B"/>
<path d="M99.8944 150.615H48.2266V152.408H99.8944V150.615Z" fill="#A8D0CE"/>
<path d="M116.004 154.019H32.1328V166.033H116.004V154.019Z" fill="#7E9C9B"/>
<path d="M58.218 168.435H37.1719V178.155H58.218V168.435Z" fill="#7E9C9B"/>
<path d="M58.2318 179.468H37.1602V181.313H58.2318V179.468Z" fill="#7E9C9B"/>
<path d="M58.2318 182.605H37.1602V184.451H58.2318V182.605Z" fill="#7E9C9B"/>
<path d="M58.2357 185.823H37.1641V187.669H58.2357V185.823Z" fill="#7E9C9B"/>
<path d="M84.6243 168.416H63.5781V178.136H84.6243V168.416Z" fill="#A8D0CE"/>
<path d="M84.6342 179.448H63.5625V181.293H84.6342V179.448Z" fill="#A8D0CE"/>
<path d="M84.6381 182.586H63.5664V184.431H84.6381V182.586Z" fill="#A8D0CE"/>
<path d="M84.642 185.804H63.5703V187.649H84.642V185.804Z" fill="#A8D0CE"/>
<path d="M110.445 168.397H89.3984V178.117H110.445V168.397Z" fill="#7E9C9B"/>
<path d="M110.454 179.43H89.3828V181.275H110.454V179.43Z" fill="#7E9C9B"/>
<path d="M110.454 182.568H89.3828V184.413H110.454V182.568Z" fill="#7E9C9B"/>
<path d="M110.458 185.786H89.3867V187.631H110.458V185.786Z" fill="#7E9C9B"/>
<path d="M135.398 148.387C131.36 156.674 120.575 158.525 118.981 158.807C117.387 158.525 106.65 156.674 102.614 148.387C102.614 148.387 70.452 153.211 69.9922 168.144L70.452 199.387L119.006 198.929L167.56 199.387L168.02 168.144C167.56 153.211 135.398 148.387 135.398 148.387Z" fill="#231F20"/>
<path d="M98.6568 149.136C95.3968 149.835 90.547 151.058 85.7578 152.942C87.2587 161.58 93.285 172.971 114.213 175.233L119.237 161.254C116.664 160.769 104.682 158.075 98.6568 149.136Z" fill="#171717"/>
<path d="M125.272 175.232C145.796 173.014 151.574 161.901 153.177 153.316C148.475 151.376 143.612 150.087 140.161 149.314C134.08 157.965 122.509 159.786 119.965 160.265L125.272 175.232Z" fill="#171717"/>
<path d="M131.407 135.608C128.107 138.033 124.122 139.931 119.313 140.735V140.805C119.249 140.795 119.189 140.78 119.125 140.77C119.06 140.78 119 140.795 118.936 140.805V140.735C114.039 139.916 109.994 137.963 106.66 135.473C106.436 138.437 105.452 148.001 102.609 148.386C106.244 155.846 115.326 158.367 118.267 159.002L118.968 159.01V159.011L119.002 159.01L119.036 159.011V159.01L119.736 159.002C122.677 158.366 131.76 155.846 135.394 148.386C132.425 147.984 131.572 138.061 131.407 135.608Z" fill="#EFBA92"/>
<path d="M135.396 148.387C132.427 147.985 131.574 138.061 131.409 135.608C128.109 138.034 124.123 139.932 119.315 140.735V140.806C119.25 140.796 119.19 140.781 119.126 140.77C119.062 140.781 119.002 140.796 118.938 140.806V140.735C115.762 140.204 112.949 139.191 110.452 137.869L110.445 137.874L125.704 157.031C129.25 155.437 133.261 152.769 135.396 148.387Z" fill="#DFA17A"/>
<path d="M143.093 52.7044C142.681 52.373 142.261 52.0582 141.837 51.7516C141.771 51.7047 141.706 51.6564 141.641 51.6094C141.234 51.3209 140.823 51.044 140.406 50.7775C140.328 50.7271 140.249 50.6774 140.169 50.6277C139.748 50.3626 139.322 50.1072 138.892 49.8642C138.837 49.8338 138.783 49.8048 138.727 49.7744C138.292 49.5321 137.852 49.2987 137.408 49.0785C137.382 49.0654 137.357 49.0516 137.331 49.0392C136.877 48.8148 136.419 48.6042 135.958 48.4019C135.886 48.3709 135.815 48.3391 135.744 48.3081C135.293 48.1141 134.839 47.9297 134.382 47.7564C134.313 47.7302 134.243 47.7047 134.174 47.6784C133.701 47.5024 133.227 47.3346 132.75 47.18C132.731 47.1738 132.712 47.1682 132.693 47.162C132.201 47.0032 131.708 46.8562 131.213 46.7195C131.188 46.7126 131.162 46.705 131.137 46.6981C130.647 46.5642 130.156 46.442 129.664 46.3287C129.609 46.3163 129.554 46.3032 129.499 46.2908C129.009 46.1803 128.518 46.0795 128.027 45.9891C127.991 45.9822 127.955 45.976 127.918 45.9697C126.886 45.7826 125.854 45.6384 124.827 45.5355C124.816 45.5341 124.807 45.5334 124.796 45.532C124.284 45.481 123.773 45.4409 123.264 45.4098C123.239 45.4085 123.214 45.4071 123.189 45.405C110.609 44.6629 99.2184 49.8994 99.3303 56.1514C99.3303 56.1514 80.55 57.8746 86.5804 85.0975L90.5432 103.189L93.6443 87.6823C93.6443 87.6823 102.604 82.5134 104.499 71.4861C104.499 71.4861 109.14 79.9991 119.689 84.6992C119.733 84.7185 119.776 84.7378 119.82 84.7579C120.198 84.9242 120.584 85.0865 120.977 85.2425C121.013 85.257 121.05 85.2701 121.085 85.2846C121.459 85.4317 121.839 85.5732 122.227 85.7099C122.267 85.7237 122.305 85.7382 122.345 85.7527C122.749 85.8935 123.161 86.0275 123.58 86.1559C123.643 86.1752 123.707 86.1938 123.771 86.2125C124.177 86.334 124.588 86.4507 125.007 86.5597C125.03 86.5653 125.052 86.5722 125.074 86.5777C125.507 86.6888 125.948 86.7924 126.395 86.889C126.479 86.907 126.563 86.9249 126.648 86.9429C127.546 87.1307 128.473 87.2888 129.431 87.4124C129.527 87.4248 129.625 87.4372 129.722 87.4489C130.198 87.5062 130.68 87.5573 131.17 87.5974C131.218 87.6015 131.268 87.6036 131.317 87.6077C131.77 87.6429 132.232 87.6699 132.698 87.6892C132.798 87.6933 132.899 87.6982 133.001 87.7023C133.502 87.7196 134.01 87.7285 134.526 87.7265C134.615 87.7265 134.707 87.7237 134.797 87.723C135.261 87.7182 135.731 87.7058 136.207 87.685C136.302 87.6809 136.397 87.6781 136.493 87.6733C137.023 87.6464 137.561 87.6091 138.106 87.5615C138.224 87.5511 138.343 87.5394 138.461 87.5276C138.967 87.4793 139.478 87.4234 139.996 87.3564C140.064 87.3481 140.13 87.3412 140.198 87.3323C140.763 87.257 141.338 87.168 141.918 87.0692C142.054 87.0465 142.19 87.0223 142.327 86.9974C142.92 86.8918 143.517 86.7786 144.125 86.6481L147.227 103.878L149.466 89.0603C149.468 89.0589 159.806 66.1439 143.093 52.7044Z" fill="#DA921E"/>
<path d="M149.49 94.6302L148.84 93.1866L147.224 103.876L144.123 86.6467C143.515 86.7771 142.917 86.8904 142.324 86.996C142.188 87.0202 142.051 87.0443 141.915 87.0678C141.335 87.1665 140.761 87.2556 140.195 87.3308C140.128 87.3398 140.061 87.3467 139.994 87.355C139.475 87.422 138.964 87.4779 138.458 87.5262C138.34 87.5373 138.221 87.5497 138.103 87.56C137.559 87.6077 137.02 87.6449 136.49 87.6719C136.394 87.6767 136.3 87.6795 136.204 87.6836C135.729 87.7043 135.258 87.7168 134.794 87.7216C134.704 87.7223 134.613 87.725 134.523 87.725C134.007 87.7264 133.499 87.7181 132.998 87.7009C132.897 87.6974 132.796 87.6926 132.695 87.6878C132.229 87.6677 131.768 87.6415 131.314 87.6063C131.265 87.6028 131.216 87.6001 131.167 87.5959C130.676 87.5559 130.195 87.5048 129.72 87.4475C129.622 87.4358 129.525 87.4233 129.428 87.4109C128.471 87.2873 127.543 87.1299 126.645 86.9415C126.561 86.9235 126.477 86.9062 126.393 86.8876C125.945 86.7903 125.503 86.6874 125.071 86.5763C125.049 86.5707 125.027 86.5638 125.005 86.5583C124.585 86.4492 124.174 86.3325 123.768 86.211C123.705 86.1924 123.641 86.1738 123.578 86.1544C123.159 86.026 122.747 85.8921 122.343 85.7512C122.303 85.7374 122.264 85.7229 122.224 85.7084C121.837 85.5718 121.456 85.4302 121.083 85.2832C121.047 85.2694 121.01 85.2556 120.975 85.2411C120.581 85.085 120.196 84.9228 119.817 84.7564C119.774 84.7371 119.73 84.7171 119.687 84.6977C119.31 84.5293 118.939 84.3574 118.576 84.1806C108.811 79.4012 104.497 71.4853 104.497 71.4853C102.602 82.5127 93.6418 87.6815 93.6418 87.6815L90.5407 103.188L88.6663 94.6309C87.9214 94.6454 82.8713 95.0396 83.9358 103.131C85.0846 111.861 88.5303 116.225 92.6656 113.928C92.6656 113.928 98.3454 137.292 118.938 140.736V140.807C119.002 140.797 119.062 140.782 119.126 140.771C119.191 140.782 119.251 140.797 119.315 140.807V140.736C139.907 137.292 145.587 113.928 145.587 113.928C149.723 116.226 153.168 111.861 154.317 103.131C155.463 94.4003 149.49 94.6302 149.49 94.6302Z" fill="#EEB991"/>
<path d="M145.584 113.928C149.719 116.225 153.165 111.86 154.314 103.13C155.463 94.4005 149.489 94.6304 149.489 94.6304L148.84 93.1868L147.224 103.877L144.122 86.6468C143.514 86.7773 142.916 86.8905 142.324 86.9962C142.187 87.0203 142.051 87.0445 141.915 87.068C141.335 87.1667 140.76 87.2558 140.195 87.331C140.127 87.34 140.061 87.3469 139.993 87.3552C139.475 87.4221 138.963 87.4781 138.458 87.5264C138.34 87.5374 138.22 87.5499 138.103 87.5602C137.558 87.6078 137.02 87.6451 136.49 87.672C136.394 87.6769 136.299 87.6796 136.204 87.6838C135.728 87.7045 135.258 87.7169 134.794 87.7218C134.704 87.7225 134.612 87.7252 134.523 87.7252C134.007 87.7266 133.499 87.7183 132.998 87.7011C132.896 87.6976 132.795 87.6928 132.695 87.6879C132.229 87.6679 131.767 87.6417 131.314 87.6065C131.265 87.603 131.215 87.6003 131.167 87.5961C130.676 87.5554 130.195 87.505 129.719 87.4477C129.622 87.4359 129.524 87.4235 129.428 87.4111C128.47 87.2875 127.542 87.1301 126.645 86.9416C126.561 86.9237 126.476 86.9064 126.392 86.8885C125.945 86.7911 125.503 86.6883 125.071 86.5771C125.049 86.5716 125.027 86.5647 125.005 86.5592C124.585 86.4501 124.173 86.3334 123.768 86.2119C123.705 86.1933 123.641 86.1746 123.578 86.1553C123.158 86.0269 122.746 85.893 122.342 85.7521C122.302 85.7383 122.264 85.7238 122.224 85.7093C121.836 85.5726 121.456 85.4311 121.082 85.284C121.047 85.2702 121.01 85.2564 120.974 85.2419C120.581 85.0859 120.195 84.9237 119.817 84.7573C119.774 84.7379 119.73 84.7179 119.687 84.6986C119.432 84.5854 119.185 84.4673 118.938 84.35V140.736V140.807C119.002 140.797 119.062 140.782 119.126 140.772C119.19 140.782 119.25 140.797 119.314 140.807V140.736C139.904 137.291 145.584 113.928 145.584 113.928Z" fill="#E5AD88"/>
<path d="M100.15 148.829C97.5982 149.332 93.3572 150.288 88.8477 151.816C89.9681 159.53 95.0417 170.183 114.135 172.247L118.58 159.879C116.272 159.444 105.403 157.004 100.15 148.829Z" fill="#F54730"/>
<path d="M102.613 148.387C102.613 148.387 98.8299 148.955 93.8398 150.303C94.1636 156.707 97.3953 167.515 115.132 169.432L118.838 159.119C116.778 158.731 106.53 156.428 102.613 148.387Z" fill="white"/>
<path d="M148.811 151.622C144.258 150.097 140.006 149.154 137.525 148.671C132.283 156.882 121.535 158.569 119.223 159.004L123.917 172.246C143.075 170.175 147.713 159.342 148.811 151.622Z" fill="#F54730"/>
<path d="M135.448 148.272C135.448 148.272 139.231 148.839 144.221 150.187C143.897 156.591 140.666 167.399 122.929 169.316L119.223 159.003C121.283 158.615 131.531 156.313 135.448 148.272Z" fill="white"/>
<path d="M71.4662 41.4456H68.7578V58.8549H71.4662V41.4456Z" fill="#333333"/>
<path d="M67.3403 86.1931C67.3403 86.1931 58.8294 78.7135 66.0507 66.4628H73.9169C73.9169 66.4628 80.2359 78.7135 72.8854 86.4506C72.8854 86.4506 73.7884 84.387 72.7563 82.4533C72.7563 82.4533 72.4981 86.5797 70.048 88.9007C70.048 88.9007 67.7269 84.9034 68.5009 81.6794C68.5009 81.6794 67.2112 84.1302 67.3403 86.1931Z" fill="#F58830"/>
<path d="M73.9175 57.0023C71.2954 57.0023 68.6733 57.0023 66.0513 57.0023C65.1117 57.0023 64.3281 57.7859 64.3281 58.7255C64.3281 61.3047 64.3281 63.8833 64.3281 66.4625C64.3281 67.4021 65.1117 68.1857 66.0513 68.1857C68.6733 68.1857 71.2954 68.1857 73.9175 68.1857C74.4249 68.1857 74.8101 68.0014 75.0856 67.7238C75.1021 67.71 75.1173 67.6935 75.1332 67.679C75.1477 67.6631 75.1643 67.6479 75.1781 67.6313C75.4549 67.3559 75.6399 66.9699 75.6399 66.4632C75.6399 63.884 75.6399 61.3054 75.6399 58.7262C75.6406 57.7859 74.8564 57.0023 73.9175 57.0023Z" fill="#333333"/>
<path d="M152.968 47.589C130.272 47.589 107.576 47.589 84.8794 47.589C83.9398 47.589 83.1562 48.3726 83.1562 49.3122C83.1562 60.1442 83.1562 70.9769 83.1562 81.8089C83.1562 82.7485 83.9398 83.5321 84.8794 83.5321C107.576 83.5321 130.272 83.5321 152.968 83.5321C153.475 83.5321 153.86 83.3477 154.137 83.0702C154.153 83.0564 154.168 83.0405 154.184 83.0253C154.199 83.0088 154.215 82.9943 154.23 82.977C154.507 82.7015 154.692 82.3156 154.692 81.8089C154.692 70.9769 154.692 60.1442 154.692 49.3122C154.691 48.3726 153.907 47.589 152.968 47.589Z" fill="#202020"/>
<path d="M154.691 49.3117C154.691 48.3728 153.907 47.5885 152.968 47.5885C130.272 47.5885 107.576 47.5885 84.8794 47.5885C83.9405 47.5885 83.1562 48.3721 83.1562 49.3117C83.1562 51.6224 83.1562 53.9338 83.1562 56.2445C90.9188 58.4813 98.6821 60.7174 106.445 62.9542C113.428 64.966 120.411 66.9778 127.394 68.9902C129.021 69.459 130.286 68.8811 131.53 68.5573C134.652 67.7434 137.775 66.9294 140.897 66.1162C145.495 64.9177 150.093 63.7192 154.691 62.5214C154.691 58.1175 154.691 53.7149 154.691 49.3117Z" fill="#141414"/>
<path d="M188.425 47.376C170.001 43.1792 151.577 38.9817 133.154 34.7849C128.916 33.8197 124.677 32.8539 120.439 31.8881C120.286 31.8535 120.117 31.8107 119.937 31.7631C119.909 31.7562 119.879 31.7479 119.851 31.7403C119.426 31.6285 118.943 31.4952 118.447 31.3696C118.434 31.3661 118.421 31.3634 118.407 31.3599C118.227 31.3143 118.048 31.2715 117.868 31.2308C117.859 31.2287 117.852 31.2274 117.844 31.226C117.026 31.0416 116.229 30.9181 115.672 31.0113C109.394 32.0565 103.116 33.1024 96.8374 34.1477C82.1026 36.6013 67.3686 39.0549 52.6339 41.5091C52.016 41.612 51.7364 41.8833 51.695 42.203C51.4879 42.6338 51.753 43.1709 52.6954 43.5023C52.9563 43.6314 53.2518 43.7287 53.5728 43.7674C71.1961 48.8451 88.82 53.9228 106.443 58.9998C113.426 61.0116 120.41 63.0233 127.393 65.0358C129.019 65.5046 130.285 64.9267 131.528 64.6029C134.651 63.789 137.773 62.975 140.896 62.1618C157.116 57.9339 173.337 53.706 189.558 49.4789C190.953 49.1143 189.881 47.7073 188.425 47.376Z" fill="#231F20"/>
<path d="M144.225 94.4886C144.225 94.4886 142.23 92.742 135.244 92.742C132.28 92.742 128.348 93.0382 125.603 94.2498C124.875 94.5708 124.239 94.9802 123.626 95.3896L122.131 96.6523C122.131 96.6523 121.577 97.1597 119.279 97.1811C119.263 97.1811 119.25 97.1832 119.234 97.1832H119.125H119.015C119 97.1832 118.986 97.1811 118.971 97.1811C116.673 97.1597 116.119 96.6523 116.119 96.6523L114.623 95.3896C114.01 94.9795 113.375 94.5708 112.647 94.2498C109.902 93.0382 105.97 92.742 103.006 92.742C96.0199 92.742 94.024 94.4886 94.024 94.4886H89.832V96.8339L91.6284 98.5301C91.9094 100.512 92.3153 102.488 92.8124 104.427C93.5621 107.349 94.4583 111.145 97.6713 112.221C99.741 112.914 101.794 113.002 103.954 113.002C106.809 113.002 111.042 113.038 112.83 110.338C114.512 107.797 115.158 104.48 115.75 101.539C115.905 100.79 116.679 100.477 116.679 100.477H119.124H121.569C121.569 100.477 122.343 100.79 122.498 101.539C123.089 104.48 123.736 107.797 125.418 110.338C127.206 113.038 131.438 113.002 134.294 113.002C136.453 113.002 138.506 112.913 140.576 112.221C143.789 111.145 144.685 107.349 145.435 104.427C145.932 102.488 146.339 100.513 146.619 98.5301L148.415 96.8339V94.4886H144.225ZM113.756 100.617C113.633 102.071 113.292 103.751 112.806 105.274C112.365 106.906 111.883 108.753 110.521 109.876C108.957 111.166 106.217 111.457 104.277 111.51C104.038 111.522 103.889 111.523 103.889 111.523C103.889 111.523 103.744 111.522 103.51 111.51C101.458 111.457 99.1197 111.217 97.3841 110.02C96.4396 109.368 96.0309 108.518 95.6492 107.466C95.5967 107.323 94.8794 105.181 94.9367 105.162C94.5017 103.773 94.1876 102.261 94.0399 100.911C93.9336 100.222 93.8832 99.5098 93.9025 98.8125C94.0109 94.7931 101.045 94.6378 103.88 94.6378C106.226 94.6378 109 94.8414 111.224 95.625C112.142 95.9481 113.101 96.4845 113.607 97.3503C114.21 98.3838 113.851 99.5022 113.756 100.617ZM144.212 100.912C144.063 102.262 143.75 103.774 143.315 105.163C143.372 105.182 142.654 107.323 142.602 107.467C142.221 108.518 141.812 109.37 140.867 110.021C139.132 111.218 136.793 111.457 134.742 111.511C134.507 111.522 134.362 111.524 134.362 111.524C134.362 111.524 134.214 111.522 133.975 111.511C132.034 111.458 129.295 111.167 127.731 109.877C126.369 108.754 125.886 106.907 125.446 105.275C124.959 103.752 124.619 102.072 124.495 100.618C124.401 99.5029 124.042 98.3845 124.646 97.3503C125.152 96.4845 126.111 95.9488 127.029 95.625C129.253 94.8421 132.027 94.6378 134.373 94.6378C137.208 94.6378 144.241 94.7931 144.35 98.8125C144.368 99.5104 144.318 100.222 144.212 100.912Z" fill="#231F20"/>
<path d="M150.416 187.681L190.959 192.836L190.88 192.771L150.309 187.574L150.416 187.681Z" fill="#808082"/>
<path d="M150.255 187.991C150.362 187.776 150.333 187.67 150.529 187.695C150.654 187.711 150.779 187.727 150.905 187.743C151.394 187.805 151.884 187.868 152.374 187.93C154.131 188.153 155.887 188.376 157.644 188.6C160.096 188.912 162.548 189.223 165 189.535C167.737 189.883 170.474 190.231 173.211 190.579C175.823 190.911 178.435 191.243 181.047 191.576C183.123 191.84 185.201 192.104 187.277 192.367C188.408 192.512 189.54 192.656 190.671 192.8C190.768 192.811 190.865 192.824 190.963 192.836C189.139 195.503 191.859 199.544 194.883 199.559C189.864 198.95 183.806 198.929 178.246 198.882C172.686 198.834 158.743 199.253 157.352 199.241C156.335 199.232 155.272 199.331 154.297 198.981C152.519 198.323 151.262 196.744 150.464 195.081C149.418 192.898 149.178 190.207 150.255 187.991C150.307 187.888 150.254 187.995 150.255 187.991Z" fill="#B9BBBD"/>
<path d="M154.832 186.7C155.523 185.903 156.522 185.331 157.604 185.4C158.188 185.436 158.774 185.573 159.351 185.667C160.037 185.779 160.723 185.89 161.408 186.002C162.807 186.229 170.919 188.296 179.028 189.619C186.834 190.89 194.641 191.417 196.309 191.689C194.846 191.458 193.51 192.517 193.24 193.948C192.996 195.209 193.75 196.551 195.1 196.671C189.554 196.317 184.007 195.962 178.46 195.608C172.914 195.255 167.368 194.9 161.821 194.546C160.435 194.457 159.048 194.369 157.662 194.281C157.079 194.243 156.469 194.254 155.891 194.158C155.557 194.109 155.209 193.976 154.937 193.774C153.659 192.827 153.293 191.159 153.52 189.653C153.683 188.577 154.116 187.524 154.832 186.7C154.843 186.687 154.771 186.769 154.832 186.7Z" fill="#B9BBBD"/>
<path d="M155.897 189.147C156.189 188.813 156.605 188.594 157.057 188.641C157.724 188.729 158.391 188.809 159.058 188.893C160.437 189.067 161.816 189.241 163.196 189.414C165.954 189.761 168.712 190.109 171.471 190.456C176.987 191.15 182.505 191.845 188.022 192.538C190.587 192.861 193.153 193.183 195.717 193.507C195.11 193.464 194.602 193.922 194.542 194.523C194.499 194.972 194.801 195.45 195.277 195.488C189.735 195.007 184.193 194.526 178.651 194.045C173.109 193.565 167.568 193.085 162.026 192.604C160.835 192.5 159.643 192.397 158.452 192.294C157.869 192.242 157.288 192.192 156.706 192.142C156.46 192.12 156.224 192.119 156.003 191.997C155.006 191.447 155.282 189.852 155.897 189.147C155.905 189.139 155.888 189.158 155.897 189.147Z" fill="#A4A6A9"/>
<path d="M156.765 192.242C157.018 192.131 157.207 191.918 157.34 191.68C157.367 191.633 157.602 191.006 157.546 191.001C157.559 191.002 157.573 191.003 157.586 191.005C157.683 191.015 157.78 191.024 157.878 191.034C158.331 191.079 158.786 191.124 159.239 191.17C160.98 191.345 162.723 191.52 164.464 191.694C166.937 191.942 169.41 192.19 171.883 192.438C174.631 192.713 177.379 192.989 180.126 193.265C182.691 193.522 185.256 193.779 187.821 194.036C189.746 194.229 191.67 194.422 193.594 194.615C194.421 194.698 195.249 194.781 196.076 194.864C196.121 194.869 196.074 194.974 196.067 195.001C195.989 195.33 195.686 195.598 195.343 195.604C195.017 195.61 194.68 195.552 194.354 195.523C193.995 195.493 193.634 195.463 193.274 195.431C192.582 195.373 191.888 195.314 191.195 195.256C188.423 195.022 185.652 194.787 182.88 194.553C177.337 194.084 171.793 193.616 166.25 193.147C162.951 192.868 159.653 192.589 156.355 192.31C156.495 192.323 156.636 192.297 156.765 192.242C156.83 192.212 156.699 192.269 156.765 192.242Z" fill="#EEEFEF"/>
<path d="M158.812 190.678C158.801 189.719 158.111 188.573 157.1 188.447C159.81 188.756 162.515 189.141 165.221 189.488C167.979 189.841 170.737 190.193 173.494 190.547C179.009 191.253 184.523 191.959 190.039 192.666C191.417 192.842 192.796 193.018 194.175 193.195C194.734 193.267 195.325 193.293 195.875 193.42C196.173 193.488 196.439 193.661 196.633 193.896C197.548 195.03 196.528 196.871 195.094 196.782C194.351 196.737 193.608 196.69 192.866 196.645C191.001 196.53 189.136 196.415 187.27 196.3C184.733 196.142 182.197 195.987 179.659 195.831C176.9 195.661 174.142 195.49 171.384 195.32C168.853 195.164 166.322 195.007 163.792 194.852C161.941 194.737 160.089 194.624 158.237 194.51C157.515 194.465 156.792 194.421 156.07 194.376C157.914 194.488 158.942 192.237 158.812 190.678C158.82 190.78 158.812 190.677 158.812 190.678Z" fill="#E3E4E5"/>
<path d="M160.513 186.763C159.711 185.802 158.507 185.114 157.225 185.205C156.007 185.29 154.98 186.11 154.326 187.099C153.645 188.126 153.284 189.403 153.309 190.635C153.335 191.823 153.768 193.109 154.74 193.857C155.215 194.224 155.835 194.444 156.439 194.363C157.029 194.284 157.546 193.935 157.926 193.489C158.709 192.572 159.037 191.177 158.688 190.016C158.517 189.445 158.164 188.893 157.623 188.612C157.099 188.34 156.499 188.398 156.04 188.769C155.175 189.468 154.856 191.045 155.63 191.923C155.969 192.307 156.521 192.446 156.954 192.133C157.313 191.874 157.506 191.43 157.547 191C157.519 190.997 157.418 190.97 157.398 190.985C157.385 191.118 157.356 191.249 157.311 191.375C157.207 191.661 157.006 191.934 156.718 192.057C156.192 192.279 155.69 191.854 155.491 191.392C155.055 190.387 155.663 188.603 156.941 188.634C158.203 188.663 158.74 190.162 158.66 191.221C158.571 192.387 157.93 193.725 156.737 194.097C155.588 194.457 154.495 193.638 153.969 192.668C153.367 191.558 153.339 190.231 153.643 189.027C153.943 187.836 154.604 186.677 155.633 185.973C156.627 185.294 157.85 185.23 158.933 185.747C161.304 186.879 162.067 189.896 161.779 192.302C161.483 194.791 160.233 197.424 157.943 198.648C156.871 199.222 155.592 199.402 154.424 199.025C153.223 198.637 152.224 197.757 151.472 196.766C149.955 194.766 149.181 192.02 149.718 189.539C149.804 189.143 149.924 188.753 150.079 188.378C150.158 188.186 150.245 187.999 150.341 187.816C150.42 187.669 150.417 187.682 150.308 187.573C149.064 189.801 149.22 192.527 150.183 194.826C151.121 197.062 153.088 199.418 155.715 199.423C158.365 199.426 160.386 197.183 161.295 194.885C162.222 192.543 162.343 189.694 161.015 187.475C160.867 187.227 160.699 186.988 160.513 186.763C160.778 187.082 160.321 186.534 160.513 186.763Z" fill="#CED0D1"/>
<path d="M196.337 191.579C197.467 191.763 198.406 192.57 198.862 193.606C199.205 194.386 199.255 195.247 199.081 196.076C198.667 198.057 196.952 199.685 194.876 199.672C194.529 199.67 187.921 198.91 180.115 198.861C169.198 198.791 156.078 199.427 155.695 199.425C158.353 199.441 160.38 197.195 161.295 194.893C162.064 192.958 162.277 190.708 161.59 188.718C161.026 187.086 159.784 185.542 157.996 185.246C158.397 185.313 170.121 188.026 180.555 189.75C188.653 191.086 196.038 191.529 196.337 191.579Z" fill="#EEEFEF"/>
<path d="M179.68 197.96C179.969 197.285 180.11 196.556 180.183 195.827C180.253 195.096 180.246 194.359 180.175 193.628C180.085 192.9 179.933 192.175 179.657 191.492C179.388 190.812 178.985 190.165 178.402 189.713C178.971 190.181 179.358 190.828 179.626 191.505C179.893 192.185 180.039 192.908 180.124 193.633C180.2 194.359 180.214 195.095 180.149 195.823C180.116 196.188 180.065 196.55 179.99 196.908C179.914 197.266 179.817 197.619 179.68 197.96Z" fill="#FF9196"/>
<path d="M182.321 190.029C186.348 190.596 185.778 199.095 183.701 198.932C182.534 198.952 178.88 198.893 178.69 198.893C180.521 198.962 181.23 189.838 177.07 189.148C177.07 189.148 181.737 189.94 182.321 190.029Z" fill="#C14FD4"/>
<path d="M237.162 198.878H4.68189C2.43885 198.878 0.621094 200.697 0.621094 202.939C0.621094 205.182 2.43954 207 4.68189 207H237.162C239.405 207 241.223 205.181 241.223 202.939C241.223 200.696 239.405 198.878 237.162 198.878Z" fill="#FEFEFE"/>
</svg>
