<svg width="250" height="250" viewBox="0 0 250 250" fill="none" xmlns="http://www.w3.org/2000/svg">
<g clip-path="url(#clip0_4043_19506)">
<path d="M46.5554 136.594H19.3906V238.873H46.5554V136.594Z" fill="#7D91D2"/>
<path d="M193.743 170.606H166.578V238.308H193.743V170.606Z" fill="#7D91D2"/>
<path d="M235.227 117.392H208.062V238.308H235.227V117.392Z" fill="#7D91D2"/>
<path d="M147.719 121.781H120.555V238.307H147.719V121.781Z" fill="#7D91D2"/>
<path d="M93.2234 88.79H66.0586V238.308H93.2234V88.79Z" fill="#7D91D2"/>
<path d="M208.059 21.9812C208.059 21.9812 207.928 22.1202 207.663 22.3837C207.393 22.6499 206.997 23.0396 206.479 23.5514C205.429 24.5785 203.886 26.0902 201.891 28.0435C197.885 31.9504 192.071 37.622 184.82 44.6949C170.295 58.8317 150.018 78.5666 126.993 100.976L126.891 101.075L126.799 100.965C122.253 95.5191 117.502 89.8265 112.658 84.0232C99.6495 68.4296 87.3117 53.6396 76.3614 40.5126L76.5553 40.5018C63.679 59.8567 52.7949 76.2175 45.1266 87.7441C41.2878 93.4981 38.2551 98.0451 36.1788 101.157C35.1399 102.706 34.3415 103.898 33.799 104.707C33.5292 105.105 33.3241 105.408 33.1831 105.616C33.0441 105.82 32.9688 105.921 32.9688 105.921C32.9688 105.921 33.0323 105.813 33.1662 105.606C33.3031 105.395 33.5031 105.088 33.7656 104.685C34.3005 103.872 35.0892 102.674 36.1137 101.115C38.1767 97.9938 41.1904 93.4345 45.0046 87.6641C52.6534 76.1241 63.5093 59.7449 76.3527 40.368L76.4425 40.2326L76.5466 40.3577C87.5024 53.4796 99.8469 68.2645 112.862 83.8525C117.705 89.6568 122.455 95.3498 127 100.797L126.808 100.786C149.857 78.4025 170.156 58.6906 184.697 44.5698C191.972 37.5209 197.805 31.8689 201.823 27.9753C203.832 26.0359 205.387 24.5354 206.443 23.516C206.969 23.0119 207.37 22.6278 207.644 22.3658C207.916 22.1084 208.059 21.9812 208.059 21.9812Z" fill="#EBEBEB"/>
<path d="M76.4548 45.4768C79.2388 45.4768 81.4956 43.22 81.4956 40.436C81.4956 37.6521 79.2388 35.3953 76.4548 35.3953C73.6709 35.3953 71.4141 37.6521 71.4141 40.436C71.4141 43.22 73.6709 45.4768 76.4548 45.4768Z" fill="#EBEBEB"/>
<path d="M34.8869 110.581C37.4612 109.522 38.6896 106.577 37.6306 104.002C36.5716 101.428 33.6262 100.199 31.0519 101.258C28.4775 102.317 27.2491 105.262 28.3081 107.837C29.3671 110.412 32.3125 111.64 34.8869 110.581Z" fill="#EBEBEB"/>
<path d="M131.882 101.683C132.326 98.9346 130.459 96.3463 127.711 95.9017C124.963 95.4572 122.375 97.3248 121.93 100.073C121.485 102.821 123.353 105.41 126.101 105.854C128.849 106.299 131.437 104.431 131.882 101.683Z" fill="#EBEBEB"/>
<path d="M215.559 21.1701C216.17 18.4541 214.464 15.757 211.748 15.1459C209.032 14.5348 206.335 16.2412 205.724 18.9572C205.113 21.6732 206.819 24.3704 209.535 24.9814C212.251 25.5925 214.948 23.8861 215.559 21.1701Z" fill="#EBEBEB"/>
<path d="M26.1261 30.0738C27.3594 29.3287 28.6716 28.7636 30.0259 28.379L30.8295 24.5186L37.3512 24.4043L38.2896 28.2333C39.6562 28.5702 40.9884 29.0887 42.2468 29.7902L45.5431 27.6298L50.2357 32.1608L48.1927 35.5299C48.9383 36.7632 49.5029 38.0764 49.8875 39.4307L53.7473 40.2338L53.8616 46.7555L50.0326 47.6944C49.6957 49.061 49.1773 50.3922 48.4758 51.6511L50.6362 54.9474L46.1056 59.64L42.736 57.597C41.5028 58.3421 40.19 58.9072 38.8357 59.2918L38.0322 63.1521L31.5105 63.2664L30.5715 59.4369C29.2049 59.1 27.8732 58.5816 26.6148 57.8801L23.3186 60.0405L18.626 55.5099L20.6689 52.1403C19.9239 50.9071 19.3582 49.5943 18.9742 48.24L15.1144 47.437L15 40.9153L18.8296 39.9763C19.1665 38.6097 19.6854 37.278 20.3864 36.0196L18.226 32.7234L22.7565 28.0308L26.1261 30.0738ZM29.6029 38.7615C26.9184 41.5419 26.9963 45.9714 29.7767 48.6559C32.5571 51.3404 36.9866 51.2624 39.6706 48.4821C42.3545 45.7017 42.2771 41.2722 39.4967 38.5882C36.7163 35.9037 32.2868 35.9811 29.6029 38.7615Z" fill="#EBEBEB"/>
<path d="M133.762 18.2909C135.294 17.3648 136.926 16.6623 138.609 16.1844L139.607 11.3867L147.713 11.2446L148.879 16.0039C150.578 16.4223 152.234 17.0669 153.798 17.9386L157.894 15.2531L163.727 20.8847L161.187 25.0721C162.114 26.6054 162.816 28.2376 163.293 29.9201L168.091 30.9185L168.233 39.0243L163.474 40.1914C163.056 41.8898 162.411 43.5445 161.539 45.1091L164.224 49.2063L158.594 55.0388L154.406 52.4995C152.873 53.4256 151.241 54.1276 149.558 54.6055L148.56 59.4032L140.454 59.5453L139.288 54.7855C137.589 54.3671 135.934 53.7225 134.369 52.8507L130.273 55.5362L124.44 49.9052L126.979 45.7173C126.053 44.1845 125.351 42.5528 124.873 40.8698L120.076 39.8714L119.934 31.7656L124.693 30.5985C125.111 28.9002 125.756 27.2448 126.628 25.6808L123.943 21.5841L129.574 15.7516L133.762 18.2909ZM138.082 29.0894C134.746 32.5451 134.843 38.0505 138.298 41.3867C141.754 44.7229 147.259 44.626 150.596 41.1703C153.931 37.7146 153.835 32.2092 150.38 28.873C146.924 25.5372 141.419 25.6342 138.082 29.0894Z" fill="#F5F5F5"/>
<path d="M57.3121 13.9675C57.9577 13.5773 58.6443 13.2819 59.353 13.0804L59.7735 11.06L63.1872 11L63.6784 13.004C64.3938 13.1804 65.0912 13.4517 65.7496 13.8188L67.4747 12.6881L69.9309 15.0598L68.8618 16.8233C69.252 17.4689 69.5479 18.156 69.7489 18.8647L71.7693 19.2852L71.8293 22.6989L69.8248 23.1902C69.6484 23.9055 69.3771 24.6024 69.01 25.2613L70.1407 26.9869L67.7695 29.4432L66.006 28.374C65.3604 28.7642 64.6733 29.0596 63.9646 29.2611L63.5441 31.2815L60.1304 31.3415L59.6392 29.337C58.9238 29.1606 58.2269 28.8894 57.568 28.5222L55.8429 29.6529L53.3866 27.2812L54.4558 25.5177C54.0656 24.8721 53.7697 24.185 53.5687 23.4763L51.5483 23.0558L51.4883 19.6421L53.4928 19.1509C53.6692 18.4355 53.9405 17.7386 54.3076 17.0797L53.1769 15.3547L55.5481 12.8984L57.3121 13.9675ZM59.1315 18.515C57.7264 19.9703 57.7675 22.2887 59.2223 23.6937C60.6776 25.0988 62.9959 25.0578 64.401 23.6024C65.806 22.1471 65.7655 19.8288 64.3097 18.4237C62.8549 17.0192 60.5365 17.0597 59.1315 18.515Z" fill="#F5F5F5"/>
<path d="M216.318 49.8044C217.191 49.2767 218.12 48.8773 219.078 48.6045L219.647 45.8723L224.264 45.7913L224.928 48.5019C225.896 48.7403 226.838 49.1075 227.729 49.6039L230.062 48.0747L233.384 51.2818L231.938 53.6668C232.465 54.5401 232.865 55.4692 233.137 56.4277L235.869 56.9963L235.95 61.613L233.24 62.2776C233.001 63.2447 232.634 64.1873 232.138 65.0785L233.667 67.4117L230.46 70.7336L228.075 69.2875C227.201 69.8152 226.272 70.2146 225.314 70.4869L224.745 73.2191L220.129 73.3001L219.464 70.5895C218.497 70.3511 217.554 69.9839 216.664 69.4875L214.33 71.0167L211.008 67.8096L212.455 65.4246C211.927 64.5513 211.527 63.6222 211.255 62.6637L208.522 62.0951L208.441 57.4789L211.152 56.8143C211.39 55.8472 211.758 54.9046 212.254 54.0134L210.725 51.6802L213.932 48.3583L216.318 49.8044ZM218.779 55.9543C216.879 57.9224 216.934 61.0582 218.902 62.9581C220.87 64.858 224.006 64.8031 225.906 62.835C227.806 60.8669 227.751 57.7312 225.783 55.8313C223.814 53.9314 220.679 53.9867 218.779 55.9543Z" fill="#F5F5F5"/>
<path d="M213.099 53.8921H200.045L161.95 76.8191C162.093 77.0335 166.589 80.2851 172.462 84.4844L117.297 186.058L71.1295 165.668L30.25 239.141H52.5873L80.7546 187.688L123.122 207.315L141.081 209.458L189.698 96.7443C195.807 101.075 200.499 104.391 200.499 104.391H213.554C213.554 104.391 209.747 72.4383 209.747 72.1845C209.747 71.9307 213.099 53.8921 213.099 53.8921Z" fill="#071431"/>
<path d="M43.4688 239.141L84.5118 165.038L130.516 186.058L189.844 76.8191L207.508 86.0991L141.084 209.458L93.9734 187.688L65.8061 239.141H43.4688Z" fill="#6695FF"/>
<path d="M175.004 76.8191C175.424 77.4499 213.554 104.391 213.554 104.391L213.099 53.8921L175.004 76.8191Z" fill="#6695FF"/>
<path d="M175.003 76.8191C175.003 76.893 172.081 76.9524 168.477 76.9524C164.871 76.9524 161.949 76.8925 161.949 76.8191C161.949 76.7458 164.871 76.6858 168.477 76.6858C172.081 76.6858 175.003 76.7458 175.003 76.8191Z" fill="#263238"/>
<path d="M185.203 84.6975C185.203 84.7714 182.28 84.8309 178.676 84.8309C175.07 84.8309 172.148 84.7709 172.148 84.6975C172.148 84.6237 175.07 84.5642 178.676 84.5642C182.28 84.5637 185.203 84.6237 185.203 84.6975Z" fill="#263238"/>
<path d="M87.1592 130.434C87.1592 130.434 86.3669 130.779 86.2433 129.721C86.1192 128.663 88.3237 126.462 89.0288 125.762C89.7339 125.063 90.7416 125.213 91.6359 125.412C92.5302 125.612 96.19 125.981 97.4043 126.76C98.6186 127.539 100.477 131.45 100.865 131.635C101.253 131.821 112.671 132.416 112.671 132.416L112.179 141.774C112.179 141.774 100.973 139.638 98.7535 138.25C96.5341 136.862 96.8254 136.309 96.1946 135.014C95.5639 133.72 94.8865 132.345 94.8865 132.345L93.8373 132.171L92.1553 133.099C92.1553 133.099 91.9569 135.474 90.2923 135.414L89.4765 134.984C89.4765 134.984 88.9324 135.613 88.3124 134.641C87.6925 133.668 87.8099 133.486 87.8099 133.486C87.8099 133.486 87.1571 134.293 86.452 133.293C85.7469 132.292 87.1592 130.434 87.1592 130.434Z" fill="#AE7461"/>
<path d="M99.4612 134.407C99.4627 134.414 99.4207 134.427 99.3376 134.446C99.255 134.466 99.1289 134.482 98.9653 134.482C98.6402 134.485 98.1474 134.405 97.6218 134.1C97.0987 133.803 96.5506 133.269 96.1988 132.522C95.8362 131.781 95.6588 130.868 95.6086 129.9L95.7896 130.01C95.0389 130.358 94.1548 130.581 93.2287 130.614C92.579 130.638 91.9416 130.566 91.3472 130.416C91.0631 130.331 90.7344 130.288 90.4868 130.016C90.3545 129.886 90.3237 129.617 90.4575 129.464C90.5796 129.313 90.7339 129.259 90.8611 129.205C91.8887 128.788 92.8338 128.464 93.6348 128.22C94.4363 127.975 95.0937 127.81 95.5501 127.705C96.007 127.603 96.2629 127.561 96.267 127.579C96.2716 127.598 96.0239 127.673 95.5768 127.806C95.1296 127.94 94.4825 128.133 93.6928 128.4C92.9031 128.666 91.9708 129.006 90.9549 129.433C90.8309 129.483 90.7129 129.541 90.658 129.616C90.6063 129.689 90.6093 129.769 90.6811 129.85C90.8303 130.025 91.1272 130.087 91.4113 130.162C91.9831 130.303 92.5954 130.371 93.22 130.347C94.1102 130.316 94.9599 130.105 95.6839 129.778L95.8568 129.699L95.865 129.888C95.9065 130.836 96.067 131.717 96.3983 132.429C96.7198 133.147 97.2187 133.659 97.7064 133.963C98.1946 134.271 98.6571 134.373 98.9699 134.396C99.2838 134.419 99.4581 134.386 99.4612 134.407Z" fill="#6F4439"/>
<path d="M93.6804 127.99C93.7019 128.017 93.2947 128.238 92.6025 128.2C92.2625 128.196 91.862 128.138 91.4384 128.167C91.0067 128.186 90.6031 128.369 90.2698 128.754C89.576 129.529 88.7463 130.041 88.1212 130.302C87.4914 130.568 87.0694 130.622 87.0628 130.592C87.051 130.551 87.4504 130.432 88.0412 130.131C88.6319 129.83 89.398 129.326 90.0775 128.569C90.257 128.383 90.4569 128.194 90.7021 128.086C90.941 127.972 91.1933 127.931 91.4246 127.921C91.8897 127.905 92.284 127.984 92.6143 128.011C93.2753 128.095 93.665 127.952 93.6804 127.99Z" fill="#6F4439"/>
<path d="M91.3249 130.484C91.3874 130.505 90.9254 131.557 89.8696 132.455C88.8209 133.363 87.7112 133.66 87.6999 133.595C87.6681 133.518 88.6932 133.123 89.6957 132.253C90.7075 131.394 91.2541 130.441 91.3249 130.484Z" fill="#6F4439"/>
<path d="M91.7352 131.919C91.8018 131.926 91.6516 132.847 90.9834 133.752C90.3229 134.663 89.4902 135.085 89.463 135.023C89.4173 134.957 90.1445 134.457 90.7675 133.595C91.4008 132.74 91.6577 131.895 91.7352 131.919Z" fill="#6F4439"/>
<path d="M126.22 112.196L116.003 130.633L100.145 130.36L98.9531 139.884L115.317 143.896L122.056 136.498L126.22 112.196Z" fill="#E0E0E0"/>
<path d="M117.281 133.761C117.202 133.768 117.103 133.01 116.749 132.154C116.404 131.294 115.944 130.683 116.006 130.633C116.053 130.584 116.631 131.147 116.996 132.053C117.369 132.957 117.349 133.763 117.281 133.761Z" fill="#263238"/>
<path d="M130.098 79.5647C128.805 79.7365 127.458 78.8089 127.158 77.5402C126.857 76.271 127.645 74.8383 128.877 74.4116C128.056 73.6004 127.829 72.2502 128.34 71.2154C128.851 70.1811 130.062 69.5406 131.205 69.6996C131.232 68.5607 131.892 67.4566 132.883 66.8946C133.874 66.3326 135.16 66.332 136.151 66.8936C137.389 65.7916 139.417 65.7141 140.736 66.7177C141.839 66.4931 143.056 67.0597 143.594 68.0484C144.131 69.037 143.945 70.3667 143.157 71.1698" fill="#263238"/>
<path d="M141.367 69.3333L140.783 69.3445C134.899 69.4584 130.089 74.0705 129.729 79.9445C129.395 85.4078 129.096 91.448 129.189 94.3735C129.381 100.431 135.46 101.256 135.46 101.256L135.089 108.546L135.808 114.102L149.786 107.805L150.575 81.3783C150.996 75.0771 147.678 69.5794 141.367 69.3333Z" fill="#AE7461"/>
<path d="M135.407 101.249C135.407 101.249 139.281 101.406 143.302 98.7712C143.302 98.7712 141.424 103.463 135.367 103.035L135.407 101.249Z" fill="#6F4439"/>
<path d="M131.695 86.1207C131.688 86.5781 132.069 86.9612 132.547 86.9776C133.023 86.994 133.416 86.6376 133.424 86.1802C133.431 85.7228 133.05 85.3392 132.573 85.3228C132.096 85.3064 131.703 85.6638 131.695 86.1207Z" fill="#263238"/>
<path d="M131.085 82.8834C131.194 82.9941 131.84 82.4962 132.771 82.4808C133.701 82.4516 134.394 82.9177 134.493 82.8018C134.542 82.75 134.428 82.5485 134.127 82.3377C133.83 82.1275 133.326 81.9275 132.746 81.9414C132.166 81.9557 131.682 82.1788 131.406 82.4029C131.124 82.628 131.031 82.8341 131.085 82.8834Z" fill="#263238"/>
<path d="M139.59 85.9276C139.583 86.3845 139.964 86.7681 140.441 86.784C140.918 86.8004 141.311 86.444 141.318 85.9866C141.325 85.5297 140.944 85.1456 140.467 85.1292C139.99 85.1133 139.597 85.4702 139.59 85.9276Z" fill="#263238"/>
<path d="M140.256 82.8811C140.366 82.9919 141.013 82.494 141.944 82.4786C142.873 82.4499 143.566 82.9155 143.665 82.7996C143.714 82.7483 143.601 82.5468 143.298 82.336C143.001 82.1258 142.498 81.9258 141.918 81.9396C141.338 81.954 140.854 82.1771 140.578 82.4012C140.297 82.6258 140.203 82.8319 140.256 82.8811Z" fill="#263238"/>
<path d="M136.991 89.8517C136.994 89.7984 136.413 89.7096 135.473 89.6081C135.235 89.5886 135.009 89.5456 134.966 89.384C134.906 89.2133 135.001 88.9553 135.111 88.6764C135.323 88.0969 135.546 87.4892 135.779 86.8523C136.706 84.2556 137.371 82.1223 137.267 82.0859C137.162 82.0495 136.326 84.1248 135.399 86.7216C135.177 87.3616 134.963 87.9723 134.761 88.5559C134.676 88.8281 134.527 89.1374 134.656 89.4912C134.723 89.6676 134.9 89.7932 135.053 89.8312C135.206 89.8748 135.34 89.8748 135.458 89.8794C136.403 89.9112 136.988 89.904 136.991 89.8517Z" fill="#263238"/>
<path d="M139.368 79.3132C139.495 79.547 140.288 79.2753 141.27 79.2245C142.251 79.1517 143.083 79.3209 143.168 79.0737C143.204 78.9563 143.026 78.7476 142.668 78.565C142.313 78.383 141.776 78.2471 141.187 78.2835C140.599 78.321 140.092 78.5225 139.773 78.7476C139.451 78.9732 139.311 79.2019 139.368 79.3132Z" fill="#263238"/>
<path d="M130.968 79.045C131.168 79.2527 131.933 79.0184 132.857 78.9902C133.78 78.9348 134.566 79.0994 134.742 78.8748C134.819 78.7661 134.691 78.5563 134.346 78.363C134.005 78.1702 133.438 78.0179 132.803 78.0461C132.169 78.0753 131.622 78.2774 131.305 78.5004C130.982 78.7235 130.879 78.9435 130.968 79.045Z" fill="#263238"/>
<path d="M130.262 77.1541C130.262 77.1541 131.787 73.3286 133.599 72.4077C135.794 71.2929 136.795 73.7056 138.894 73.0748C140.993 72.4441 143.088 71.3744 145.277 72.9646C147.673 74.705 146.591 75.9793 146.789 78.6653C147.592 89.554 149.642 92.5974 150.109 87.4526C150.16 86.889 151.712 86.4111 151.898 84.0302C152.138 80.9426 152.184 77.1987 151.453 75.025C150.838 73.1928 149.762 71.94 147.851 70.5724C144.833 68.4135 140.745 68.4453 137.976 68.7781C135.206 69.1109 129.917 72.4082 130.262 77.1541Z" fill="#263238"/>
<path d="M149.716 87.2952C149.736 86.3593 150.528 85.605 151.461 85.6757C152.593 85.7614 153.863 86.3788 153.834 88.7151C153.781 92.86 149.631 91.9529 149.625 91.8339C149.622 91.7534 149.679 89.0294 149.716 87.2952Z" fill="#AE7461"/>
<path d="M150.547 90.2863C150.565 90.2735 150.619 90.3381 150.74 90.395C150.858 90.4509 151.062 90.4914 151.279 90.413C151.719 90.2576 152.097 89.5674 152.126 88.8202C152.141 88.4433 152.066 88.0828 151.937 87.7839C151.814 87.4788 151.621 87.2649 151.401 87.2229C151.182 87.1696 151.024 87.2993 150.972 87.4152C150.915 87.5306 150.94 87.6136 150.918 87.6203C150.906 87.6306 150.83 87.5495 150.865 87.3788C150.883 87.2967 150.934 87.1993 151.032 87.1214C151.132 87.0419 151.279 87.0024 151.432 87.0208C151.751 87.047 152.036 87.3444 152.178 87.6726C152.339 88.0028 152.431 88.4074 152.414 88.831C152.377 89.6664 151.94 90.4422 151.338 90.6078C151.046 90.6801 150.804 90.5894 150.679 90.4899C150.553 90.3868 150.533 90.294 150.547 90.2863Z" fill="#6F4439"/>
<path d="M149.482 79.2712C148.951 79.6486 148.39 80.0388 147.743 80.1152C147.096 80.1922 146.348 79.8342 146.226 79.1938C146.171 78.9061 146.235 78.5702 146.041 78.3512C145.81 78.0897 145.394 78.181 145.047 78.2246C143.845 78.3758 142.413 77.0728 142.083 75.9067C141.785 76.3729 141.115 76.5247 140.644 76.2339C140.173 75.9431 140 75.7755 139.629 75.3663C139.257 74.9565 138.739 74.594 138.193 74.6822C137.887 74.7314 137.604 74.9196 137.296 74.8981C136.751 74.8601 136.473 74.2284 136.38 73.6899C136.287 73.1515 136.211 72.5228 135.745 72.2382C135.312 71.9746 134.762 72.1423 134.263 72.2259C133.763 72.3095 133.115 72.2044 132.977 71.7172C132.904 71.4618 133.009 71.189 133.147 70.9624C133.772 69.9342 135.17 69.4558 136.295 69.8855C136.673 68.5086 137.933 67.4184 139.35 67.2415C140.767 67.0641 142.256 67.8102 142.963 69.0512C143.823 68.2399 145.089 67.882 146.246 68.1225C147.404 68.363 148.422 69.1958 148.888 70.2824C149.891 69.9978 151.047 70.3655 151.701 71.1762C152.356 71.9874 152.47 73.1951 151.98 74.1145C152.733 74.5253 153.384 75.2529 153.417 76.1103C153.449 76.9672 152.63 77.8379 151.798 77.6282C152.145 78.2892 151.891 79.2004 151.252 79.586C150.612 79.9717 149.687 79.7712 149.265 79.1553" fill="#263238"/>
<path d="M136.01 71.1103C136.006 71.1108 136.007 71.1364 136.013 71.1862C136.019 71.2359 136.023 71.3113 136.043 71.4067C136.085 71.5974 136.167 71.879 136.36 72.1989C136.553 72.5143 136.85 72.8769 137.297 73.1604C137.735 73.4481 138.333 73.6609 139.003 73.6117L138.931 73.5214C138.81 73.8783 138.853 74.3029 139.036 74.6634C139.211 75.0306 139.481 75.3537 139.765 75.6685C139.911 75.8193 140.038 75.9977 140.238 76.1352C140.432 76.2669 140.664 76.3408 140.899 76.3659C141.367 76.4167 141.892 76.2618 142.223 75.8624L142.067 75.8208C142.189 76.6423 142.673 77.4571 143.426 77.9453C143.826 78.2222 144.317 78.3868 144.796 78.3648C145.275 78.3509 145.718 78.2017 146.13 78.0443L146.019 77.9976C146.251 78.5084 146.602 78.9407 147.024 79.2571C147.438 79.5729 147.985 79.7524 148.474 79.6222C149.448 79.3965 150.081 78.5704 150.197 77.8023L150.104 77.8479C150.594 78.1028 151.115 78.1181 151.532 78.0294C151.954 77.9438 152.282 77.7535 152.516 77.5674C152.75 77.3777 152.887 77.1854 152.969 77.052C153.043 76.9141 153.074 76.8377 153.07 76.8356C153.049 76.8187 152.938 77.1531 152.473 77.512C152.24 77.6838 151.918 77.8582 151.512 77.9305C151.111 78.0069 150.617 77.9807 150.165 77.7361L150.086 77.6935L150.071 77.7817C149.954 78.4986 149.344 79.2694 148.441 79.4683C147.997 79.5817 147.516 79.4206 147.123 79.1222C146.729 78.8237 146.395 78.4068 146.179 77.9269L146.144 77.851L146.067 77.8802C145.661 78.0335 145.233 78.1735 144.79 78.1853C144.347 78.2033 143.906 78.0571 143.526 77.7946C142.814 77.3331 142.359 76.5705 142.24 75.7931L142.211 75.5978L142.084 75.7521C141.805 76.0941 141.336 76.2413 140.915 76.1967C140.704 76.1752 140.499 76.1105 140.329 75.9967C140.164 75.888 140.031 75.7116 139.884 75.5598C139.599 75.2506 139.337 74.9398 139.171 74.5983C138.997 74.2609 138.957 73.8881 139.061 73.565L139.093 73.4656L138.989 73.4748C138.358 73.5297 137.782 73.3374 137.354 73.0681C136.917 72.803 136.621 72.4594 136.423 72.1589C136.036 71.539 136.039 71.1 136.01 71.1103Z" fill="#455A64"/>
<path d="M137.263 93.0334C137.283 92.8785 138.306 93.0713 139.199 92.335C140.095 91.6001 140.188 90.4874 140.332 90.5068C140.399 90.5048 140.484 90.7879 140.409 91.2504C140.338 91.7047 140.067 92.3365 139.521 92.7872C138.974 93.2365 138.336 93.3523 137.91 93.3072C137.475 93.2647 137.243 93.1021 137.263 93.0334Z" fill="#263238"/>
<path d="M107.734 151.691L115.624 142.989L122.222 123.049C123.569 119.589 124.726 115.197 126.358 111.917C127.161 110.304 128.513 109.031 130.16 108.3L132.961 107.056L134.637 104.382C133.672 110.429 142.147 111.174 151.155 103.666C151.155 103.666 154.131 105.679 158.325 109.158C160.161 110.681 161.826 112.345 162.52 114.858C163.78 119.422 158.365 132.929 152.468 145.635C150.704 149.436 142.303 166.466 142.303 166.466L139.279 168.67C139.279 168.67 112.544 160.57 110.139 156.131C107.734 151.691 107.734 151.691 107.734 151.691Z" fill="#E0E0E0"/>
<path d="M112.11 146.502C112.104 146.496 112.18 146.407 112.333 146.241C112.507 146.059 112.732 145.822 113.013 145.527C113.633 144.892 114.496 144.009 115.557 142.923L115.534 142.96C116.028 141.44 116.619 139.624 117.276 137.601C117.955 135.577 118.644 133.329 119.34 130.953C120.687 126.294 121.963 122.08 123.14 119.119C123.712 117.633 124.248 116.46 124.624 115.654C124.814 115.275 124.967 114.971 125.084 114.738C125.192 114.53 125.252 114.423 125.26 114.427C125.269 114.431 125.224 114.546 125.133 114.761C125.027 114.999 124.89 115.31 124.719 115.697C124.373 116.515 123.865 117.695 123.317 119.186C122.188 122.155 120.945 126.366 119.596 131.028C118.9 133.404 118.201 135.66 117.508 137.678C116.83 139.694 116.22 141.504 115.71 143.018L115.703 143.04L115.687 143.054C114.602 144.115 113.719 144.978 113.084 145.599C112.789 145.879 112.552 146.105 112.37 146.278C112.206 146.432 112.116 146.509 112.11 146.502Z" fill="#263238"/>
<path d="M136.659 113.294L127.413 151.2L117.809 155.976V146.703L134.428 112.47L136.659 113.294Z" fill="#6695FF"/>
<g opacity="0.3">
<path d="M118.969 147.788C121.59 148.774 123.951 150.335 126.267 151.911C128.582 153.487 130.897 155.103 133.466 156.219C136.035 157.336 138.914 157.931 141.657 157.365C144.4 156.799 146.962 154.926 147.866 152.275L118.969 147.788Z" fill="black"/>
</g>
<path d="M132.961 106.938L135.324 103.319L136.252 108.277L138.607 105.612L150.293 100.146L152.321 104.49L139.41 112.125L135.829 111.858L133.218 108.76L132.961 106.938Z" fill="#E0E0E0"/>
<path d="M132.962 106.938C132.992 106.935 133.043 107.214 133.139 107.686C133.256 108.252 133.388 108.89 133.535 109.597L133.301 109.562C133.502 109.195 133.715 108.804 133.938 108.398C134.29 107.774 134.621 107.188 134.922 106.655L135.048 106.432L135.132 106.67C135.339 107.26 135.449 107.759 135.543 108.105C135.63 108.452 135.685 108.649 135.662 108.659C135.639 108.668 135.54 108.484 135.413 108.146C135.282 107.811 135.137 107.315 134.916 106.753L135.126 106.768C134.834 107.305 134.513 107.897 134.172 108.527C133.945 108.932 133.727 109.32 133.523 109.684L133.355 109.983L133.289 109.649C132.978 108.085 132.898 106.943 132.962 106.938Z" fill="#263238"/>
<path d="M136.897 108.766L135.409 108.584C135.006 109.037 134.02 109.97 133.617 110.423L133.62 110.465C133.796 111.457 133.973 112.449 134.148 113.441C134.98 113.4 135.817 113.468 136.631 113.64C137.127 112.769 137.502 112.112 137.999 111.241L136.897 108.766Z" fill="#6695FF"/>
<path d="M139.435 164.679C139.404 164.706 138.967 164.24 138.235 163.517C137.503 162.793 136.463 161.824 135.239 160.842C134.014 159.862 132.841 159.058 131.975 158.502C131.109 157.945 130.559 157.621 130.579 157.585C130.587 157.569 130.735 157.631 130.996 157.758C131.257 157.883 131.626 158.081 132.073 158.341C132.97 158.859 134.17 159.645 135.406 160.634C136.64 161.624 137.67 162.624 138.371 163.385C138.722 163.766 138.996 164.083 139.175 164.31C139.356 164.537 139.449 164.667 139.435 164.679Z" fill="#263238"/>
<path d="M137.012 109.071L138.663 108.258L139.223 111.149L137.847 111.271L137.012 109.071Z" fill="#FF725E"/>
<path opacity="0.3" d="M138.438 107.094V113.641L150.61 105.601L139.282 112.196L138.438 107.094Z" fill="black"/>
<path d="M152.32 104.489C152.33 104.505 152.079 104.694 151.613 105.024C151.142 105.347 150.454 105.803 149.579 106.329C147.84 107.398 145.345 108.707 142.655 110.252C141.518 110.912 140.445 111.575 139.48 112.229L139.32 112.337L139.285 112.149C138.916 110.15 138.595 108.415 138.354 107.109L138.491 107.152C137.964 107.643 137.536 108.043 137.207 108.35C136.905 108.624 136.738 108.766 136.727 108.755C136.716 108.744 136.863 108.581 137.145 108.287C137.46 107.966 137.872 107.548 138.377 107.035L138.483 106.927L138.514 107.078C138.778 108.38 139.128 110.109 139.532 112.101L139.337 112.021C140.303 111.355 141.379 110.684 142.52 110.022C145.22 108.471 147.725 107.191 149.483 106.167C150.367 105.663 151.068 105.233 151.555 104.937C152.038 104.635 152.31 104.475 152.32 104.489Z" fill="#263238"/>
<path d="M135.426 109.138L134.744 107.467L133.617 109.537L134.1 110.287L135.426 109.138Z" fill="#6695FF"/>
<path d="M137.294 108.896C137.351 108.949 136.537 109.891 135.661 111.146C134.78 112.397 134.172 113.484 134.103 113.448C134.04 113.419 134.548 112.262 135.442 110.992C136.331 109.72 137.245 108.847 137.294 108.896Z" fill="#263238"/>
<path d="M136.468 113.69C136.449 113.763 135.891 113.679 135.208 113.565C134.526 113.449 133.97 113.346 133.977 113.271C133.982 113.198 134.557 113.184 135.252 113.302C135.948 113.418 136.487 113.62 136.468 113.69Z" fill="#263238"/>
<path d="M75.1051 137.268L67.4019 115.495C67.2548 115.026 67.5419 114.531 68.0224 114.427L85.8164 109.779C86.2605 109.681 86.7066 109.935 86.8492 110.366L94.9452 134.893L120.055 151.386L118.849 152.618L112.425 151.053L75.1051 137.268Z" fill="#455A64"/>
<path d="M118.849 152.618C118.847 152.622 118.803 152.598 118.72 152.547C118.624 152.487 118.504 152.411 118.353 152.315C118.019 152.096 117.552 151.791 116.96 151.403C115.74 150.591 114.003 149.434 111.863 148.01C107.56 145.113 101.642 141.13 95.1049 136.729C94.6495 136.422 94.1967 136.116 93.7752 135.83L93.7377 135.805L93.7234 135.762C91.3584 128.627 89.24 122.235 87.7052 117.605C86.9571 115.308 86.3514 113.45 85.9263 112.145C85.7269 111.515 85.5699 111.019 85.4566 110.662C85.4094 110.503 85.371 110.376 85.3407 110.275C85.3161 110.187 85.3053 110.141 85.3094 110.14C85.3135 110.139 85.3325 110.182 85.3653 110.267C85.4023 110.366 85.4479 110.491 85.5053 110.646C85.6294 110.999 85.8017 111.49 86.0207 112.113C86.4648 113.412 87.0971 115.261 87.8786 117.547C89.4333 122.17 91.5794 128.553 93.9752 135.678L93.9234 135.61C94.3454 135.895 94.7977 136.201 95.2536 136.509C101.774 140.934 107.677 144.941 111.969 147.854C114.088 149.308 115.809 150.489 117.018 151.318C117.599 151.723 118.055 152.042 118.383 152.271C118.527 152.375 118.643 152.459 118.734 152.524C118.813 152.582 118.852 152.614 118.849 152.618Z" fill="#263238"/>
<path d="M78.1758 136.804C78.1722 136.73 81.6715 136.505 85.9908 136.3C90.3116 136.096 93.816 135.991 93.8191 136.064C93.8227 136.138 90.3239 136.363 86.0031 136.567C81.6843 136.771 78.1794 136.877 78.1758 136.804Z" fill="#263238"/>
<path d="M81.0122 124.375C81.3224 125.363 81.148 126.297 80.6229 126.462C80.0978 126.627 79.4209 125.96 79.1107 124.972C78.8005 123.985 78.9748 123.051 79.4999 122.886C80.025 122.721 80.7019 123.388 81.0122 124.375Z" fill="#E0E0E0"/>
<path d="M102.938 132.14C102.938 132.14 102.273 132.47 102.17 131.41C102.078 130.469 104.335 129.077 105.179 128.555C106.024 128.033 107.805 128.392 108.714 128.51C109.942 128.67 112.802 129.95 113.711 131.041C114.634 132.149 115.268 134.983 115.603 135.251C115.939 135.519 127.309 139.993 127.309 139.993L124.721 148.999C124.721 148.999 114.284 144.392 112.435 142.54C110.586 140.687 110.994 140.214 110.671 138.81C110.349 137.407 109.999 135.914 109.999 135.914L109.016 135.508L107.168 136.033C107.168 136.033 106.942 136.735 106.466 137.283C105.897 137.938 104.867 137.91 104.295 137.258C104.295 137.258 103.357 137.584 102.899 136.525C102.712 136.091 102.847 135.431 102.847 135.431C102.847 135.431 102.007 135.596 102 134.549C101.993 133.425 102.938 132.14 102.938 132.14Z" fill="#AE7461"/>
<path d="M108.859 133.331C108.858 133.376 108.478 133.362 107.893 133.49C107.312 133.614 106.522 133.918 105.841 134.516C105.161 135.116 104.761 135.862 104.565 136.423C104.364 136.987 104.33 137.366 104.286 137.362C104.257 137.362 104.223 136.971 104.385 136.366C104.542 135.767 104.939 134.956 105.665 134.316C106.391 133.677 107.245 133.384 107.859 133.304C108.48 133.219 108.864 133.303 108.859 133.331Z" fill="#6F4439"/>
<path d="M108.006 131.4C108.002 131.447 107.593 131.379 106.967 131.524C106.344 131.661 105.524 132.063 104.825 132.749C104.125 133.44 103.649 134.213 103.303 134.767C102.961 135.325 102.745 135.671 102.711 135.653C102.68 135.636 102.835 135.259 103.139 134.673C103.446 134.092 103.905 133.282 104.638 132.558C105.374 131.835 106.263 131.434 106.931 131.339C107.604 131.235 108.016 131.376 108.006 131.4Z" fill="#6F4439"/>
<path d="M107.841 129.288C107.836 129.332 107.483 129.284 106.937 129.385C106.391 129.479 105.662 129.761 104.977 130.264C104.291 130.768 103.763 131.348 103.376 131.761C102.992 132.178 102.747 132.434 102.717 132.409C102.69 132.386 102.882 132.09 103.233 131.638C103.586 131.191 104.103 130.576 104.82 130.049C105.538 129.52 106.328 129.248 106.91 129.198C107.496 129.141 107.849 129.26 107.841 129.288Z" fill="#6F4439"/>
<path d="M156.359 108.833C159.555 109.457 161.636 112.266 162.287 115.778C163.209 120.759 151.789 144.303 149.661 149.443C147.419 154.858 142.459 156.041 139.571 155.974C136.683 155.907 116.445 146.415 116.445 146.415L119.412 136.145L137.395 141.483L144.521 121.433" fill="#E0E0E0"/>
<path d="M144.521 121.434C144.521 121.434 144.488 121.557 144.409 121.792C144.326 122.035 144.208 122.381 144.054 122.833C143.732 123.756 143.264 125.1 142.661 126.83C141.437 130.305 139.67 135.32 137.487 141.516L137.457 141.603L137.368 141.577C132.2 140.05 126.092 138.245 119.378 136.262L119.53 136.179C118.584 139.463 117.594 142.898 116.57 146.451L116.501 146.298C121.224 148.491 126.28 150.793 131.55 153.011C133.69 153.898 135.811 154.783 137.954 155.465L138.76 155.697C139.028 155.766 139.294 155.789 139.561 155.84C140.112 155.849 140.666 155.822 141.211 155.748C142.303 155.613 143.362 155.302 144.346 154.859C146.316 153.971 147.947 152.454 148.938 150.622C149.441 149.717 149.81 148.736 150.237 147.797C150.659 146.858 151.077 145.929 151.489 145.012C154.811 137.69 157.757 131.071 159.869 125.371C160.908 122.521 161.809 119.905 162.175 117.526C162.252 116.933 162.3 116.351 162.219 115.807C162.113 115.26 161.991 114.736 161.825 114.249C161.505 113.271 161.078 112.423 160.596 111.73C159.627 110.329 158.456 109.613 157.649 109.261C157.239 109.087 156.914 108.98 156.691 108.928C156.47 108.87 156.357 108.833 156.357 108.833C156.357 108.833 156.473 108.851 156.698 108.901C156.923 108.946 157.253 109.044 157.67 109.212C158.491 109.55 159.686 110.26 160.68 111.67C161.175 112.367 161.614 113.222 161.945 114.209C162.117 114.701 162.243 115.229 162.354 115.783C162.443 116.353 162.396 116.944 162.322 117.547C161.966 119.954 161.075 122.576 160.045 125.436C157.952 131.153 155.022 137.785 151.712 145.113C151.301 146.03 150.885 146.959 150.465 147.898C150.041 148.833 149.677 149.81 149.159 150.747C148.148 152.622 146.472 154.186 144.453 155.097C143.444 155.552 142.361 155.87 141.244 156.009C140.686 156.086 140.12 156.113 139.552 156.104C139.267 156.054 138.97 156.026 138.695 155.953L137.874 155.719C135.709 155.029 133.59 154.146 131.445 153.256C126.169 151.036 121.114 148.731 116.389 146.532L116.289 146.485L116.32 146.379C117.348 142.827 118.343 139.393 119.294 136.11L119.328 135.992L119.446 136.027C126.154 138.029 132.257 139.849 137.421 141.39L137.302 141.451C139.519 135.267 141.314 130.261 142.557 126.793C143.182 125.071 143.667 123.733 143.999 122.814C144.165 122.366 144.292 122.023 144.381 121.782C144.47 121.55 144.521 121.434 144.521 121.434Z" fill="#263238"/>
<path d="M140.269 149.017C140.186 149.032 139.91 147.228 139.109 145.146C138.321 143.057 137.327 141.528 137.398 141.484C137.426 141.465 137.71 141.824 138.096 142.455C138.481 143.085 138.955 143.995 139.358 145.051C139.76 146.107 140.011 147.102 140.143 147.828C140.275 148.555 140.302 149.012 140.269 149.017Z" fill="#263238"/>
<path d="M155.117 108.877C155.133 108.923 154.455 109.141 153.439 109.655C152.929 109.909 152.345 110.255 151.725 110.678C151.111 111.111 150.465 111.628 149.842 112.231C149.225 112.84 148.693 113.474 148.246 114.077C147.808 114.688 147.449 115.263 147.184 115.767C146.647 116.772 146.413 117.444 146.367 117.427C146.349 117.421 146.396 117.25 146.495 116.943C146.589 116.635 146.765 116.201 147.016 115.681C147.263 115.159 147.611 114.563 148.045 113.933C148.49 113.311 149.026 112.66 149.655 112.039C150.29 111.425 150.954 110.904 151.586 110.474C152.225 110.055 152.829 109.72 153.356 109.485C153.882 109.247 154.319 109.081 154.63 108.994C154.939 108.901 155.112 108.859 155.117 108.877Z" fill="#263238"/>
<path d="M42.9177 182.739L33.1992 170.594C33.1992 170.594 70.7937 139.622 74.3479 137.41C77.0396 135.735 82.5106 133.51 87.6903 135.251C92.8696 136.991 101.637 143.049 104.869 145.014C108.102 146.979 136.239 164.406 139.28 168.67C139.28 168.67 133.158 179.745 129.149 181.602C126.009 183.056 116.957 180.885 111.669 177.669C106.38 174.454 82.1152 153.674 82.1152 153.674L42.9177 182.739Z" fill="#263238"/>
<path d="M46.5391 196.978L59.6687 206.409L84.9356 165.233L110.447 176.857L93.2926 148.195C93.2926 148.195 79.4574 148.358 77.2826 148.113C74.493 147.8 69.4 152.203 66.6196 157.579C64.2033 162.251 46.5391 196.978 46.5391 196.978Z" fill="#263238"/>
<path d="M102.187 173.463C102.134 173.514 96.3726 167.636 89.3207 160.336C82.2661 153.034 76.5921 147.074 76.6449 147.023C76.6977 146.971 82.4579 152.848 89.5124 160.151C96.5649 167.451 102.241 173.412 102.187 173.463Z" fill="#455A64"/>
<path opacity="0.3" d="M53.9141 174.584C53.9141 174.584 65.2191 153.455 70.544 152.048C70.544 152.048 62.8408 162.487 60.2625 169.877L53.9141 174.584Z" fill="black"/>
<path d="M79.055 149.524C79.0452 149.56 78.5422 149.322 77.5704 149.241C76.6079 149.147 75.1613 149.314 73.6004 150.085C72.0297 150.84 70.4836 152.291 69.1231 154.146C67.7699 156.013 66.411 158.172 65.1116 160.498C62.5471 165.182 60.5692 169.606 58.9913 172.735C58.216 174.307 57.553 175.561 57.0894 176.425C56.8597 176.834 56.6761 177.162 56.5376 177.409C56.4089 177.633 56.3371 177.748 56.3289 177.744C56.3207 177.739 56.3766 177.615 56.4899 177.384C56.6171 177.131 56.7858 176.795 56.9971 176.376C57.4319 175.499 58.0683 174.234 58.8211 172.653C60.3538 169.505 62.304 165.069 64.8772 160.369C66.1838 158.03 67.5494 155.874 68.9252 153.999C70.3082 152.134 71.901 150.665 73.5168 149.916C75.1198 149.151 76.6033 149.01 77.5791 149.138C78.5658 149.253 79.055 149.524 79.055 149.524Z" fill="#455A64"/>
<path d="M52.9743 189.33L45.7823 202.583C45.7823 202.583 29.7488 200.689 28.3242 203.1L54.3778 216.42L65.1911 195.534L52.9743 189.33Z" fill="#263238"/>
<path d="M54.4422 205.573C55.5032 206.531 54.0884 208.222 52.9818 207.291C51.8003 206.224 53.4874 204.504 54.5222 205.655" fill="#E0E0E0"/>
<path d="M54.3778 216.418L55.3854 214.27L30.0287 202.302C30.0287 202.302 28.6109 202.214 28.3242 203.098L54.3778 216.418Z" fill="#455A64"/>
<path d="M45.4457 202.233C45.3847 202.362 45.9913 202.745 46.4082 203.475C46.8441 204.193 46.8851 204.909 47.0276 204.919C47.7553 204.477 46.181 201.81 45.4457 202.233Z" fill="white"/>
<path d="M42.1376 201.965C42.0453 202.074 42.4858 202.572 42.6427 203.331C42.8217 204.085 42.6335 204.722 42.7632 204.781C43.5985 204.611 42.9637 201.765 42.1376 201.965Z" fill="white"/>
<path d="M38.8906 204.445C39.5932 204.535 39.6978 201.715 38.9922 201.756C39.026 201.842 38.9286 204.364 38.8906 204.445Z" fill="white"/>
<path d="M47.2305 199.282C47.3223 199.278 49.8144 200.743 49.8529 200.82C50.2539 200.223 47.553 198.641 47.2305 199.282Z" fill="white"/>
<path d="M43.2001 165.704L30.8761 174.393C30.8761 174.393 17.346 165.584 15 167.113L32.4432 190.607L50.9285 176.054L43.2001 165.704Z" fill="#263238"/>
<path d="M37.2877 180.901C37.8138 182.231 35.7954 183.119 35.217 181.793C34.6309 180.314 36.9061 179.52 37.323 181.011" fill="#E0E0E0"/>
<path d="M32.4432 190.607L34.299 189.128L16.8804 167.155C16.8804 167.155 15.6487 166.447 15 167.113L32.4432 190.607Z" fill="#455A64"/>
<path d="M30.7122 173.922C30.6004 174.011 30.9742 174.623 31.0245 175.461C31.0968 176.299 30.8157 176.958 30.9393 177.03C31.7875 176.957 31.5593 173.868 30.7122 173.922Z" fill="white"/>
<path d="M27.8797 172.213C27.7489 172.269 27.9227 172.911 27.7268 173.661C27.553 174.416 27.1012 174.904 27.1915 175.015C28.0155 175.231 28.7088 172.399 27.8797 172.213Z" fill="white"/>
<path d="M23.875 173.008C24.4642 173.401 25.8087 170.919 25.1585 170.642C25.1503 170.734 23.9447 172.951 23.875 173.008Z" fill="white"/>
<path opacity="0.3" d="M100.258 171.465C100.258 171.465 85.889 160.528 82.463 156.311C79.0832 152.152 77.2812 148.113 77.2812 148.113L100.258 171.465Z" fill="black"/>
</g>
<defs>
<clipPath id="clip0_4043_19506">
<rect width="250" height="250" fill="white"/>
</clipPath>
</defs>
</svg>
