<svg width="48" height="48" viewBox="0 0 48 48" fill="none" xmlns="http://www.w3.org/2000/svg">
<rect x="0.667969" y="0.621094" width="46.6826" height="46.6826" rx="23.3413" fill="white"/>
<path d="M14.0527 32.5043C13.6621 32.8948 13.6621 33.5279 14.0527 33.9185C14.4432 34.309 15.0763 34.309 15.4669 33.9185L14.0527 32.5043ZM34.258 14.7131C34.258 14.1608 33.8103 13.7131 33.258 13.7131L24.258 13.7131C23.7057 13.7131 23.258 14.1608 23.258 14.7131C23.258 15.2654 23.7057 15.7131 24.258 15.7131L32.258 15.7131L32.258 23.7131C32.258 24.2654 32.7057 24.7131 33.258 24.7131C33.8103 24.7131 34.258 24.2654 34.258 23.7131L34.258 14.7131ZM15.4669 33.9185L33.9651 15.4202L32.5509 14.006L14.0527 32.5043L15.4669 33.9185Z" fill="#1D3071"/>
</svg>
