<svg width="24" height="18" viewBox="0 0 24 18" fill="none" xmlns="http://www.w3.org/2000/svg">
<g clip-path="url(#clip0_674_13115)">
<path fill-rule="evenodd" clip-rule="evenodd" d="M0 0.43457H24V1.74279H0V0.43457ZM0 3.05098H24V4.3592H0V3.05098ZM0 5.66405H24V6.97557H0V5.66405ZM0 8.28046H24V9.58868H0V8.28046ZM0 10.8969H24V12.2051H0V10.8969ZM0 13.5099H24V14.8182H0V13.5099ZM0 16.1263H24V17.4346H0V16.1263Z" fill="#BD3D44"/>
<path fill-rule="evenodd" clip-rule="evenodd" d="M0 1.7428H24V3.05098H0V1.7428ZM0 4.35917H24V5.66406H0V4.35917ZM0 6.97228H24V8.28047H0V6.97228ZM0 9.58869H24V10.8969H0V9.58869ZM0 12.2051H24V13.5133H0V12.2051ZM0 14.8182H24V16.1264H0V14.8182Z" fill="white"/>
<path fill-rule="evenodd" clip-rule="evenodd" d="M0 0.43457H9.5995V9.58868H0V0.43457Z" fill="#192F5D"/>
<path fill-rule="evenodd" clip-rule="evenodd" d="M0.79974 0.826416L0.888556 1.18827H1.16982L0.942819 1.41076L1.02919 1.77597L0.79974 1.55019L0.572766 1.77264L0.659109 1.41076L0.429688 1.18827H0.715872L0.79974 0.826416ZM2.4009 0.826416L2.48724 1.18827H2.77095L2.5415 1.41076L2.62787 1.77597L2.4009 1.55019L2.17145 1.77264L2.25779 1.41076L2.03082 1.18827H2.31208L2.4009 0.826416ZM3.99958 0.826416L4.0884 1.1883H4.36719L4.14021 1.41079L4.22653 1.77601L3.99711 1.55023L3.77013 1.77268L3.85648 1.41079L3.62703 1.1883H3.91077L3.99958 0.826416ZM5.60074 0.826416L5.68706 1.1883H5.97079L5.74134 1.41079L5.83016 1.77601L5.60071 1.55023L5.37129 1.77268L5.46011 1.41079L5.23066 1.1883H5.51192L5.60074 0.826416ZM7.19942 0.826416L7.28824 1.1883H7.56948L7.3425 1.41079L7.42885 1.77601L7.1994 1.55023L6.97242 1.77268L7.05879 1.41079L6.83182 1.1883H7.11306L7.19942 0.826416ZM8.80056 0.826416L8.8869 1.1883H9.17063L8.94119 1.41079L9.03 1.77601L8.80056 1.55023L8.57111 1.77268L8.65992 1.41079L8.4305 1.1883H8.71421L8.80056 0.826416ZM1.60156 1.74275L1.6879 2.10471H1.97161L1.74216 2.32713L1.82606 2.68908L1.604 2.4666L1.37458 2.68905L1.45598 2.32716L1.23395 2.10467H1.51521L1.60156 1.74275ZM3.20024 1.74275L3.28906 2.10471H3.57029L3.34085 2.32713L3.42969 2.68908L3.20021 2.4666L2.97079 2.68905L3.05961 2.32716L2.83016 2.10467H3.11387L3.20024 1.74275ZM4.8014 1.74275L4.88771 2.10471H5.17145L4.942 2.32713L5.02835 2.68908L4.80137 2.4666L4.57195 2.68905L4.65829 2.3272L4.43132 2.10471H4.71258L4.8014 1.74275ZM6.40008 1.74275L6.4889 2.10471H6.77013L6.54069 2.32713L6.6295 2.68908L6.40006 2.4666L6.17308 2.68905L6.25945 2.32716L6.03 2.10467H6.31619L6.40008 1.74275ZM8.00121 1.74275L8.08756 2.10471H8.37129L8.14185 2.32713L8.22819 2.68908L8.00121 2.4666L7.77177 2.68905L7.85813 2.32716L7.63116 2.10467H7.9124L8.00121 1.74275ZM0.79974 2.65593L0.888556 3.02448H1.16982L0.942819 3.24693L1.02919 3.60886L0.79974 3.38307L0.572766 3.60886L0.659109 3.2436L0.429688 3.02119H0.715872L0.79974 2.65593ZM2.4009 2.65593L2.48724 3.02108H2.77095L2.5415 3.24353L2.62787 3.60549L2.4009 3.37967L2.17145 3.60546L2.25779 3.24024L2.03082 3.01779H2.31208L2.4009 2.65593ZM3.99958 2.65593L4.0884 3.02115H4.36719L4.14021 3.2436L4.22653 3.60556L3.99711 3.37975L3.77013 3.60553L3.85648 3.24031L3.62703 3.01786H3.91077L3.99958 2.65593ZM5.60074 2.65593L5.68706 3.02115H5.97079L5.74134 3.2436L5.83016 3.60556L5.60071 3.37975L5.37129 3.60553L5.46011 3.24031L5.23066 3.01786H5.51192L5.60074 2.65593ZM7.19942 2.65593L7.28824 3.02115H7.56948L7.3425 3.24357L7.42885 3.60553L7.1994 3.37971L6.97242 3.60549L7.05879 3.24027L6.83182 3.01782H7.11306L7.19942 2.65593ZM8.80056 2.65593L8.8869 3.02115H9.17063L8.94119 3.2436L9.03 3.60556L8.80056 3.37975L8.57111 3.60553L8.65992 3.24031L8.4305 3.01786H8.71421L8.80056 2.65593ZM1.60156 3.57231L1.6879 3.93423H1.97161L1.74216 4.15665L1.82853 4.5219L1.60156 4.29612L1.37211 4.51857L1.45845 4.15668L1.23148 3.93423H1.51277L1.60156 3.57231ZM3.20024 3.57231L3.28906 3.93423H3.57029L3.34085 4.15665L3.42969 4.5219L3.20021 4.29612L2.97079 4.51857L3.05961 4.15668L2.83016 3.93423H3.11387L3.20024 3.57231ZM4.8014 3.57231L4.88771 3.93423H5.17145L4.942 4.15665L5.02835 4.5219L4.80137 4.29612L4.57195 4.51857L4.65829 4.15668L4.43132 3.93423H4.71258L4.8014 3.57231ZM6.40008 3.57231L6.4889 3.93423H6.77013L6.54316 4.15665L6.6295 4.5219L6.40006 4.29612L6.17308 4.51857L6.25945 4.15668L6.03 3.93423H6.31619L6.40008 3.57231ZM8.00121 3.57231L8.08756 3.93423H8.37129L8.14185 4.15665L8.22819 4.5219L8.00121 4.29612L7.77177 4.51857L7.85813 4.15668L7.63116 3.93423H7.9124L8.00121 3.57231ZM0.79974 4.48871L0.888556 4.85063H1.16982L0.942819 5.07305L1.02919 5.4383L0.79974 5.21252L0.572766 5.43497L0.659109 5.07309L0.429688 4.85063H0.715872L0.79974 4.48871ZM2.4009 4.48871L2.48724 4.85063H2.77095L2.5415 5.07305L2.62787 5.43501L2.4009 5.21252L2.17145 5.43497L2.25779 5.07309L2.03082 4.85063H2.31208L2.4009 4.48871ZM3.99958 4.48871L4.0884 4.85063H4.36719L4.14021 5.07305L4.22653 5.4383L3.99711 5.21252L3.77013 5.43497L3.85648 5.07309L3.62703 4.85063H3.91077L3.99958 4.48871ZM5.60074 4.48871L5.68706 4.85063H5.97079L5.74134 5.07305L5.83016 5.4383L5.60071 5.21252L5.37129 5.43497L5.46011 5.07309L5.23066 4.85063H5.51192L5.60074 4.48871ZM7.19942 4.48871L7.28824 4.85063H7.56948L7.3425 5.07305L7.42885 5.4383L7.1994 5.21252L6.97242 5.43497L7.05879 5.07309L6.83182 4.85063H7.11306L7.19942 4.48871ZM8.80056 4.48871L8.8869 4.85063H9.17063L8.94119 5.07305L9.03 5.4383L8.80056 5.21252L8.57111 5.43497L8.65992 5.07309L8.4305 4.85063H8.71421L8.80056 4.48871ZM1.60156 5.40512L1.6879 5.76704H1.97161L1.74216 5.98946L1.82853 6.35142L1.60156 6.12563L1.37211 6.35142L1.45845 5.98616L1.23148 5.76371H1.51277L1.60156 5.40512ZM3.20024 5.40512L3.28906 5.76704H3.57029L3.34085 5.98946L3.42969 6.35142L3.20021 6.12563L2.97079 6.35142L3.05961 5.98616L2.83016 5.76371H3.11387L3.20024 5.40512ZM4.8014 5.40512L4.88771 5.76704H5.17145L4.942 5.98946L5.02835 6.35142L4.80137 6.12563L4.57195 6.35142L4.65829 5.98616L4.43132 5.76371H4.71258L4.8014 5.40512ZM6.40008 5.40512L6.4889 5.76704H6.77013L6.54316 5.98946L6.6295 6.35142L6.40006 6.12563L6.17308 6.35142L6.25945 5.98616L6.03 5.76371H6.31619L6.40008 5.40512ZM8.00121 5.40512L8.08756 5.76704H8.37129L8.14185 5.98946L8.22819 6.35142L8.00121 6.12563L7.77177 6.35142L7.85813 5.98616L7.63116 5.76371H7.9124L8.00121 5.40512ZM0.79974 6.31819L0.888556 6.68345H1.16982L0.942819 6.90586L1.02919 7.26449L0.79974 7.04204L0.572766 7.26446L0.659109 6.90257L0.429688 6.68012H0.715872L0.79974 6.31819ZM2.4009 6.31819L2.48724 6.68345H2.77095L2.5415 6.90586L2.63035 7.26449L2.40087 7.04204L2.17145 7.26446L2.26027 6.90257L2.03082 6.68012H2.31208L2.4009 6.31819ZM3.99958 6.31819L4.0884 6.68345H4.36719L4.14021 6.90586L4.22653 7.26449L3.99711 7.04204L3.77013 7.26446L3.85648 6.90257L3.62703 6.68012H3.91077L3.99958 6.31819ZM5.60074 6.31819L5.68706 6.68345H5.97079L5.74134 6.90586L5.83016 7.26449L5.60071 7.04204L5.37129 7.26446L5.46011 6.90257L5.23066 6.68012H5.51192L5.60074 6.31819ZM7.19942 6.31819L7.28824 6.68345H7.56948L7.3425 6.90586L7.42885 7.26449L7.1994 7.04204L6.97242 7.26446L7.05879 6.90257L6.83182 6.68012H7.11306L7.19942 6.31819ZM8.80056 6.31819L8.8869 6.68345H9.17063L8.94119 6.90586L9.03 7.26449L8.80056 7.04204L8.57111 7.26446L8.65992 6.90257L8.4305 6.68012H8.71421L8.80056 6.31819ZM1.60156 7.2346L1.6879 7.59652H1.97161L1.74216 7.81898L1.82853 8.18423L1.60156 7.95845L1.37211 8.18086L1.45845 7.81898L1.23148 7.59652H1.51277L1.60156 7.2346ZM3.20024 7.2346L3.28906 7.59652H3.57029L3.34085 7.81898L3.42969 8.18423L3.20021 7.95845L2.97079 8.18086L3.05961 7.81898L2.83016 7.59652H3.11387L3.20024 7.2346ZM4.8014 7.2346L4.88771 7.59652H5.17145L4.942 7.81898L5.02835 8.18423L4.80137 7.95845L4.57195 8.18086L4.65829 7.81898L4.43132 7.59652H4.71258L4.8014 7.2346ZM6.40008 7.2346L6.4889 7.59652H6.77013L6.54316 7.81898L6.6295 8.18423L6.40006 7.95845L6.17308 8.18086L6.25945 7.81898L6.03 7.59652H6.31619L6.40008 7.2346ZM8.00121 7.2346L8.08756 7.59652H8.37129L8.14185 7.81898L8.22819 8.18423L8.00121 7.95845L7.77177 8.18086L7.85813 7.81898L7.63116 7.59652H7.9124L8.00121 7.2346ZM0.79974 8.15101L0.888556 8.51293H1.16982L0.942819 8.73538L1.02919 9.09731L0.79974 8.87485L0.572766 9.09727L0.659109 8.73205L0.429688 8.5096H0.715872L0.79974 8.15101ZM2.4009 8.15101L2.48724 8.51293H2.77095L2.5415 8.73538L2.63035 9.09731L2.40087 8.87485L2.17145 9.09727L2.26027 8.73205L2.03082 8.5096H2.31208L2.4009 8.15101ZM3.99958 8.15101L4.0884 8.51293H4.36719L4.14513 8.73538L4.23148 9.09731L4.00203 8.87485L3.77506 9.09727L3.86142 8.73205L3.63198 8.5096H3.91569L3.99958 8.15101ZM5.60074 8.15101L5.68706 8.51293H5.97079L5.74134 8.73538L5.83016 9.09731L5.60071 8.87485L5.37129 9.09727L5.46011 8.73205L5.23066 8.5096H5.51192L5.60074 8.15101ZM7.19942 8.15101L7.28824 8.51293H7.56948L7.3425 8.73538L7.42885 9.09731L7.1994 8.87485L6.97242 9.09727L7.05879 8.73205L6.83182 8.5096H7.11306L7.19942 8.15101ZM8.80056 8.15101L8.8869 8.51293H9.17063L8.94119 8.73538L9.03 9.09731L8.80056 8.87485L8.57111 9.09727L8.65992 8.73205L8.4305 8.5096H8.71421L8.80056 8.15101Z" fill="white"/>
</g>
<defs>
<clipPath id="clip0_674_13115">
<rect y="0.43457" width="24" height="17" rx="2" fill="white"/>
</clipPath>
</defs>
</svg>
