<svg width="25" height="18" viewBox="0 0 25 18" fill="none" xmlns="http://www.w3.org/2000/svg">
<g clip-path="url(#clip0_674_12525)">
<path d="M0 0.43457H24.1124V6.2548H0V0.43457Z" fill="#FF9933"/>
<path d="M0 6.25488H24.1124V12.0751H0V6.25488Z" fill="white"/>
<path d="M0 12.0748H24.1124V17.8951H0V12.0748Z" fill="#128807"/>
<path d="M12.0558 11.4927C13.3875 11.4927 14.467 10.4504 14.467 9.16464C14.467 7.87887 13.3875 6.83655 12.0558 6.83655C10.7241 6.83655 9.64453 7.87887 9.64453 9.16464C9.64453 10.4504 10.7241 11.4927 12.0558 11.4927Z" fill="#000088"/>
<path d="M12.0551 11.2016C13.2204 11.2016 14.165 10.2896 14.165 9.16452C14.165 8.03947 13.2204 7.12744 12.0551 7.12744C10.8899 7.12744 9.94531 8.03947 9.94531 9.16452C9.94531 10.2896 10.8899 11.2016 12.0551 11.2016Z" fill="white"/>
<path d="M12.0567 9.57191C12.2898 9.57191 12.4787 9.38951 12.4787 9.1645C12.4787 8.93949 12.2898 8.75708 12.0567 8.75708C11.8237 8.75708 11.6348 8.93949 11.6348 9.1645C11.6348 9.38951 11.8237 9.57191 12.0567 9.57191Z" fill="#000088"/>
<path d="M14.1339 9.53586C14.1934 9.54342 14.2479 9.50303 14.2557 9.44567C14.2635 9.38831 14.2217 9.33568 14.1623 9.32813C14.1029 9.32058 14.0483 9.36096 14.0405 9.41832C14.0327 9.47569 14.0745 9.52831 14.1339 9.53586Z" fill="#000088"/>
<path d="M12.0567 11.2025L12.129 9.98022L12.0567 9.39819L11.9844 9.98022L12.0567 11.2025Z" fill="#000088"/>
<path d="M13.9605 10.0432C14.0154 10.065 14.0789 10.0391 14.1022 9.98538C14.1255 9.93161 14.0999 9.87033 14.0449 9.84849C13.9899 9.82666 13.9264 9.85254 13.9031 9.90631C13.8798 9.96007 13.9055 10.0214 13.9605 10.0432Z" fill="#000088"/>
<path d="M11.507 11.1335L11.9051 9.96971L11.994 9.38963L11.7687 9.9346L11.507 11.1335Z" fill="#000088"/>
<path d="M13.6609 10.4899C13.7081 10.5248 13.7762 10.5156 13.813 10.4693C13.8499 10.4231 13.8415 10.3573 13.7944 10.3224C13.7472 10.2876 13.6791 10.2968 13.6422 10.343C13.6054 10.3893 13.6137 10.455 13.6609 10.4899Z" fill="#000088"/>
<path d="M11 10.9303L11.696 9.90515L11.9366 9.36642L11.5729 9.83662L11 10.9303Z" fill="#000088"/>
<path d="M13.2514 10.8461C13.2876 10.8917 13.3557 10.8999 13.4036 10.8644C13.4514 10.8288 13.461 10.7631 13.4248 10.7175C13.3887 10.6719 13.3206 10.6637 13.2727 10.6992C13.2248 10.7347 13.2153 10.8005 13.2514 10.8461Z" fill="#000088"/>
<path d="M10.5635 10.6064L11.51 9.78994L11.8863 9.32924L11.4092 9.6925L10.5635 10.6064Z" fill="#000088"/>
<path d="M12.7592 11.0873C12.7826 11.1411 12.8461 11.1671 12.901 11.1454C12.956 11.1236 12.9816 11.0623 12.9583 11.0085C12.9349 10.9547 12.8715 10.9286 12.8165 10.9504C12.7615 10.9722 12.7359 11.0335 12.7592 11.0873Z" fill="#000088"/>
<path d="M10.2266 10.183L11.3588 9.63488L11.8435 9.283L11.285 9.51175L10.2266 10.183Z" fill="#000088"/>
<path d="M12.2211 11.198C12.2293 11.2558 12.2838 11.2968 12.3428 11.2896C12.4018 11.2825 12.443 11.2299 12.4348 11.1721C12.4266 11.1143 12.3721 11.0733 12.3131 11.0805C12.254 11.0876 12.2129 11.1402 12.2211 11.198Z" fill="#000088"/>
<path d="M10.016 9.69094L11.2573 9.44608L11.82 9.22737L11.2189 9.30774L10.016 9.69094Z" fill="#000088"/>
<path d="M11.6663 11.1709C11.659 11.2279 11.7015 11.2806 11.7614 11.2884C11.8213 11.2963 11.8758 11.2565 11.8832 11.1995C11.8905 11.1424 11.8479 11.0898 11.7881 11.0819C11.7282 11.074 11.6737 11.1139 11.6663 11.1709Z" fill="#000088"/>
<path d="M9.9441 9.16236L11.2097 9.2333L11.8113 9.16855L11.2082 9.09981L9.9441 9.16236Z" fill="#000088"/>
<path d="M11.1443 11.007C11.1216 11.0604 11.1482 11.1216 11.2038 11.1439C11.2594 11.1662 11.3229 11.141 11.3456 11.0877C11.3683 11.0343 11.3417 10.973 11.2861 10.9508C11.2305 10.9285 11.167 10.9537 11.1443 11.007Z" fill="#000088"/>
<path d="M10.0138 8.63763L11.2187 9.02163L11.8195 9.10572L11.2554 8.88782L10.0138 8.63763Z" fill="#000088"/>
<path d="M10.6883 10.7172C10.6514 10.7635 10.6597 10.8292 10.7069 10.8641C10.754 10.899 10.8222 10.8898 10.859 10.8435C10.8959 10.7973 10.8876 10.7315 10.8404 10.6966C10.7932 10.6617 10.7251 10.671 10.6883 10.7172Z" fill="#000088"/>
<path d="M10.231 8.14756L11.2894 8.81878L11.8479 9.04753L11.3632 8.69565L10.231 8.14756Z" fill="#000088"/>
<path d="M10.3196 10.3214C10.2717 10.357 10.2621 10.4227 10.2982 10.4683C10.3343 10.5139 10.4024 10.522 10.4503 10.4864C10.4983 10.4508 10.5079 10.3851 10.4718 10.3395C10.4357 10.2939 10.3676 10.2858 10.3196 10.3214Z" fill="#000088"/>
<path d="M10.5678 7.72499L11.4097 8.63836L11.8874 8.99926L11.5138 8.53804L10.5678 7.72499Z" fill="#000088"/>
<path d="M10.0692 9.84749C10.0135 9.86988 9.98675 9.93116 10.0094 9.98437C10.032 10.0376 10.0955 10.0626 10.1511 10.0402C10.2068 10.0178 10.2336 9.9565 10.211 9.90329C10.1884 9.85008 10.1249 9.8251 10.0692 9.84749Z" fill="#000088"/>
<path d="M11.0039 7.40104L11.5721 8.4943L11.9365 8.96272L11.6992 8.4236L11.0039 7.40104Z" fill="#000088"/>
<path d="M9.95258 9.32649C9.89284 9.33428 9.85049 9.38691 9.85798 9.44404C9.86548 9.50117 9.91999 9.54117 9.97972 9.53338C10.0395 9.5256 10.0818 9.47297 10.0743 9.41584C10.0668 9.35871 10.0123 9.31871 9.95258 9.32649Z" fill="#000088"/>
<path d="M11.5123 7.19749L11.7668 8.39605L11.9932 8.93965L11.9093 8.35928L11.5123 7.19749Z" fill="#000088"/>
<path d="M9.97793 8.79421C9.91898 8.787 9.86447 8.82793 9.85619 8.88563C9.84791 8.94334 9.88899 8.99596 9.94794 9.00318C10.0069 9.01039 10.0614 8.96946 10.0697 8.91175C10.078 8.85405 10.0369 8.80142 9.97793 8.79421Z" fill="#000088"/>
<path d="M12.0592 7.12858L11.9852 8.35061L12.0496 8.93164L12.1203 8.3494L12.0592 7.12858Z" fill="#000088"/>
<path d="M10.1509 8.28751C10.0959 8.26567 10.0325 8.29155 10.0092 8.3453C9.98583 8.39906 10.0115 8.46034 10.0665 8.48218C10.1214 8.50402 10.1849 8.47815 10.2082 8.42439C10.2316 8.37064 10.2059 8.30935 10.1509 8.28751Z" fill="#000088"/>
<path d="M12.6064 7.19688L12.2083 8.3606L12.1193 8.94068L12.3446 8.39573L12.6064 7.19688Z" fill="#000088"/>
<path d="M10.4466 7.84092C10.3995 7.80603 10.3314 7.81523 10.2945 7.86147C10.2576 7.90771 10.2659 7.97348 10.3131 8.00836C10.3602 8.04325 10.4283 8.03405 10.4652 7.98781C10.5021 7.94157 10.4938 7.87581 10.4466 7.84092Z" fill="#000088"/>
<path d="M13.1096 7.40055L12.4136 8.42564L12.1729 8.96438L12.5365 8.4942L13.1096 7.40055Z" fill="#000088"/>
<path d="M10.8583 7.48431C10.8222 7.43872 10.7541 7.43059 10.7062 7.46613C10.6582 7.50168 10.6486 7.56745 10.6847 7.61303C10.7208 7.65861 10.7889 7.66674 10.8368 7.6312C10.8848 7.59565 10.8944 7.52989 10.8583 7.48431Z" fill="#000088"/>
<path d="M13.5483 7.7245L12.6017 8.54107L12.2251 9.00175L12.7022 8.6384L13.5483 7.7245Z" fill="#000088"/>
<path d="M11.3501 7.24303C11.3268 7.18919 11.2633 7.16319 11.2084 7.18495C11.1534 7.2067 11.1278 7.26799 11.1511 7.32183C11.1744 7.37567 11.2379 7.40167 11.2929 7.37991C11.3478 7.35816 11.3735 7.29687 11.3501 7.24303Z" fill="#000088"/>
<path d="M13.8828 8.14735L12.7506 8.69544L12.2659 9.04732L12.8243 8.81857L13.8828 8.14735Z" fill="#000088"/>
<path d="M11.8883 7.13123C11.8801 7.07346 11.8256 7.03243 11.7666 7.03958C11.7076 7.04673 11.6664 7.09936 11.6746 7.15712C11.6828 7.21489 11.7373 7.25592 11.7963 7.24877C11.8553 7.24162 11.8965 7.18899 11.8883 7.13123Z" fill="#000088"/>
<path d="M14.0914 8.63865L12.8501 8.88351L12.2874 9.10222L12.8886 9.02185L14.0914 8.63865Z" fill="#000088"/>
<path d="M12.4412 7.15887C12.4485 7.1019 12.4058 7.04927 12.3459 7.04133C12.286 7.03339 12.2315 7.07314 12.2242 7.13011C12.2169 7.18709 12.2595 7.23971 12.3194 7.24766C12.3794 7.2556 12.4339 7.21585 12.4412 7.15887Z" fill="#000088"/>
<path d="M14.163 9.16749L12.8974 9.09652L12.296 9.16112L12.8991 9.22984L14.163 9.16749Z" fill="#000088"/>
<path d="M12.9652 7.32292C12.9878 7.26965 12.9611 7.20837 12.9054 7.18604C12.8498 7.16371 12.7863 7.18879 12.7637 7.24205C12.741 7.29532 12.7678 7.3566 12.8234 7.37893C12.8791 7.40126 12.9425 7.37619 12.9652 7.32292Z" fill="#000088"/>
<path d="M14.0938 9.69209L12.8886 9.30798L12.2878 9.22342L12.8521 9.44122L14.0938 9.69209Z" fill="#000088"/>
<path d="M13.428 7.61282C13.4643 7.56708 13.455 7.50132 13.4073 7.46593C13.3595 7.43055 13.2914 7.43894 13.2551 7.48468C13.2189 7.53042 13.2282 7.59619 13.2759 7.63157C13.3237 7.66696 13.3918 7.65856 13.428 7.61282Z" fill="#000088"/>
<path d="M13.8834 10.1839L12.8224 9.51212L12.2643 9.28081L12.7508 9.63214L13.8834 10.1839Z" fill="#000088"/>
<path d="M13.7986 8.00948C13.846 7.97443 13.8546 7.90866 13.8179 7.86259C13.7812 7.81652 13.7131 7.8076 13.6658 7.84265C13.6185 7.87771 13.6098 7.94347 13.6465 7.98954C13.6832 8.03561 13.7513 8.04454 13.7986 8.00948Z" fill="#000088"/>
<path d="M13.5488 10.6062L12.7037 9.69241L12.2265 9.32964L12.6023 9.79045L13.5488 10.6062Z" fill="#000088"/>
<path d="M14.0469 8.48285C14.1021 8.46087 14.1281 8.39959 14.1049 8.34597C14.0818 8.29236 14.0183 8.26671 13.9632 8.28869C13.908 8.31067 13.882 8.37196 13.9052 8.42557C13.9283 8.47919 13.9918 8.50483 14.0469 8.48285Z" fill="#000088"/>
<path d="M13.1089 10.9292L12.5373 9.8357L12.1734 9.36612L12.4131 9.90498L13.1089 10.9292Z" fill="#000088"/>
<path d="M14.1636 9.00366C14.2228 8.99627 14.2643 8.94365 14.2563 8.88612C14.2483 8.82859 14.1938 8.78795 14.1346 8.79534C14.0753 8.80273 14.0338 8.85535 14.0419 8.91288C14.0499 8.97041 14.1044 9.01105 14.1636 9.00366Z" fill="#000088"/>
<path d="M12.6031 11.1326L12.3435 9.93386L12.1179 9.38938L12.2053 9.96956L12.6031 11.1326Z" fill="#000088"/>
</g>
<defs>
<clipPath id="clip0_674_12525">
<rect y="0.43457" width="24.1124" height="17.4607" rx="1.66292" fill="white"/>
</clipPath>
</defs>
</svg>
