<svg width="1924" height="585" viewBox="0 0 1924 585" fill="none" xmlns="http://www.w3.org/2000/svg">
<rect x="3" width="1920" height="585" fill="#1D3071"/>
<g opacity="0.7">
<g opacity="0.33">
<g opacity="0.47">
<path d="M1101.66 293.49C1101.66 249.011 1137.72 212.954 1182.2 212.954C1226.67 212.954 1262.73 249.011 1262.73 293.49V584.919H1101.66V293.49Z" fill="url(#paint0_linear_3742_73825)"/>
<path d="M1101.74 308.626C1101.74 353.13 1137.82 389.208 1182.33 389.208C1226.83 389.208 1262.91 353.13 1262.91 308.626V293.62H1101.74V308.626Z" fill="#3155D5"/>
<path d="M1182.33 374.286C1226.88 374.286 1262.99 338.171 1262.99 293.62C1262.99 249.069 1226.88 212.954 1182.33 212.954C1137.78 212.954 1101.66 249.069 1101.66 293.62C1101.66 338.171 1137.78 374.286 1182.33 374.286Z" fill="#8DA3F1"/>
<path d="M1182.33 359.264C1218.58 359.264 1247.97 329.874 1247.97 293.62C1247.97 257.366 1218.58 227.976 1182.33 227.976C1146.07 227.976 1116.68 257.366 1116.68 293.62C1116.68 329.874 1146.07 359.264 1182.33 359.264Z" stroke="#B1F0C7" stroke-miterlimit="10"/>
<path d="M1113.88 267.466C1117.59 257.756 1123.31 249.037 1130.53 241.819" stroke="white" stroke-width="6.78393" stroke-miterlimit="10" stroke-linecap="round" stroke-linejoin="round"/>
<path d="M1178.35 337.681V329.22C1169.82 328.89 1163.22 326.608 1158.56 322.378C1153.9 318.147 1151.54 312.3 1151.47 304.835H1169.78C1169.98 308.616 1170.73 311.338 1172.02 312.997C1173.32 314.656 1175.31 315.535 1178 315.634L1178.05 299.21C1169.02 297.219 1162.5 294.491 1158.49 291.024C1154.47 287.556 1152.47 282.952 1152.47 277.212C1152.47 270.842 1154.86 265.707 1159.66 261.809C1164.45 257.911 1170.91 255.878 1179.04 255.713V249.292H1187V255.614C1194.77 255.813 1200.82 257.811 1205.17 261.61C1209.52 265.41 1211.82 270.711 1212.09 277.512H1194.67C1194.5 274.591 1193.77 272.368 1192.45 270.842C1191.14 269.316 1189.26 268.522 1186.81 268.454V283.533C1196.39 285.822 1203.19 288.75 1207.19 292.317C1211.18 295.883 1213.18 300.704 1213.18 306.776C1213.18 313.81 1210.92 319.193 1206.39 322.926C1201.86 326.658 1195.05 328.79 1185.96 329.32V337.681H1178.35ZM1179.54 281.792V268.255H1179.14C1176.25 268.255 1174.09 268.802 1172.65 269.896C1171.2 270.991 1170.48 272.65 1170.48 274.874C1170.48 276.567 1171.15 277.934 1172.5 278.979C1173.84 280.024 1176.19 280.961 1179.54 281.792ZM1185.46 315.634C1188.65 315.634 1191.06 315.069 1192.7 313.941C1194.35 312.815 1195.17 311.14 1195.17 308.916C1195.17 306.991 1194.47 305.457 1193.08 304.312C1191.68 303.168 1189.15 302.081 1185.46 301.052V315.634Z" fill="#1E3174"/>
</g>
<g opacity="0.47">
<path d="M0 293.49C0 249.011 36.057 212.954 80.5355 212.954C125.014 212.954 161.071 249.011 161.071 293.49V584.919H0V293.49Z" fill="url(#paint1_linear_3742_73825)"/>
<path d="M0.0839844 308.626C0.0839844 353.13 36.1616 389.208 80.6653 389.208C125.169 389.208 161.247 353.13 161.247 308.626V293.62H0.0839844V308.626Z" fill="#3155D5"/>
<path d="M80.6659 374.286C125.216 374.286 161.332 338.171 161.332 293.62C161.332 249.069 125.216 212.954 80.6659 212.954C36.1154 212.954 0 249.069 0 293.62C0 338.171 36.1154 374.286 80.6659 374.286Z" fill="#8DA3F1"/>
<path d="M80.6674 359.264C116.922 359.264 146.311 329.874 146.311 293.62C146.311 257.366 116.922 227.976 80.6674 227.976C44.4132 227.976 15.0234 257.366 15.0234 293.62C15.0234 329.874 44.4132 359.264 80.6674 359.264Z" stroke="#B1F0C7" stroke-miterlimit="10"/>
<path d="M12.2148 267.466C15.9271 257.756 21.6463 249.037 28.8653 241.819" stroke="white" stroke-width="6.78393" stroke-miterlimit="10" stroke-linecap="round" stroke-linejoin="round"/>
<path d="M76.6849 337.681V329.22C68.1559 328.89 61.5642 326.608 56.9023 322.378C52.2382 318.147 49.8764 312.3 49.8086 304.835H68.1239C68.3234 308.616 69.07 311.338 70.3639 312.997C71.6578 314.656 73.6489 315.535 76.3364 315.634L76.3867 299.21C67.3621 297.219 60.8411 294.491 56.8268 291.024C52.8136 287.556 50.805 282.952 50.805 277.212C50.805 270.842 53.2027 265.707 57.9971 261.809C62.7923 257.911 69.2513 255.878 77.3821 255.713V249.292H85.3442V255.614C93.1091 255.813 99.1629 257.811 103.51 261.61C107.856 265.41 110.163 270.711 110.429 277.512H93.0103C92.8429 274.591 92.1066 272.368 90.7946 270.842C89.4823 269.316 87.6012 268.522 85.1461 268.454V283.533C94.7347 285.822 101.528 288.75 105.525 292.317C109.524 295.883 111.524 300.704 111.524 306.776C111.524 313.81 109.259 319.193 104.731 322.926C100.201 326.658 93.3908 328.79 84.2988 329.32V337.681H76.6849ZM77.8781 281.792V268.255H77.4815C74.594 268.255 72.4296 268.802 70.985 269.896C69.5433 270.991 68.8222 272.65 68.8222 274.874C68.8222 276.567 69.494 277.934 70.8366 278.979C72.1795 280.024 74.5285 280.961 77.8781 281.792ZM83.8028 315.634C86.9875 315.634 89.402 315.069 91.0431 313.941C92.6854 312.815 93.5056 311.14 93.5056 308.916C93.5056 306.991 92.8106 305.457 91.4164 304.312C90.0238 303.168 87.486 302.081 83.8028 301.052V315.634Z" fill="#1E3174"/>
</g>
<g opacity="0.47">
<path d="M1321.99 149.474C1321.99 105.029 1358.02 68.999 1402.47 68.999C1446.91 68.999 1482.94 105.029 1482.94 149.474V584.838H1321.99V149.474Z" fill="url(#paint2_linear_3742_73825)"/>
<path d="M1322.08 161.672C1322.08 206.176 1358.15 242.254 1402.66 242.254C1447.16 242.254 1483.24 206.176 1483.24 161.672V146.666H1322.08V161.672Z" fill="#3155D5"/>
<path d="M1402.66 227.332C1447.21 227.332 1483.32 191.216 1483.32 146.666C1483.32 102.115 1447.21 66 1402.66 66C1358.11 66 1321.99 102.115 1321.99 146.666C1321.99 191.216 1358.11 227.332 1402.66 227.332Z" fill="#8DA3F1"/>
<path d="M1402.66 212.31C1438.91 212.31 1468.3 182.92 1468.3 146.666C1468.3 110.412 1438.91 81.022 1402.66 81.022C1366.41 81.022 1337.02 110.412 1337.02 146.666C1337.02 182.92 1366.41 212.31 1402.66 212.31Z" stroke="#B1F0C7" stroke-miterlimit="10"/>
<path d="M1334.21 120.512C1337.92 110.802 1343.64 102.083 1350.86 94.8647" stroke="white" stroke-width="6.78393" stroke-miterlimit="10" stroke-linecap="round" stroke-linejoin="round"/>
<path d="M1374.98 173.495L1376.33 172.765C1377.86 171.942 1379.21 171.016 1380.33 170.01C1381.43 169.029 1382.37 167.917 1383.14 166.706C1384.65 164.302 1385.42 160.813 1385.42 156.337C1385.42 155.18 1385.31 153.981 1385.1 152.751H1374.98V140.434H1381.78C1380.63 136.172 1380.06 132.756 1380.06 130.054C1380.06 126.533 1380.68 123.308 1381.9 120.47C1383.14 117.605 1384.9 115.131 1387.16 113.117C1389.39 111.126 1392.08 109.581 1395.14 108.534C1398.15 107.506 1401.5 106.987 1405.09 106.987C1408.35 106.987 1411.42 107.439 1414.23 108.331C1417.11 109.242 1419.66 110.592 1421.83 112.344C1424.03 114.126 1425.83 116.366 1427.17 118.995C1428.49 121.595 1429.3 124.603 1429.58 127.931L1429.81 130.719H1414.97L1414.77 128.359C1414.24 122.169 1411.2 119.41 1404.93 119.41C1403.39 119.41 1401.98 119.671 1400.75 120.191C1399.49 120.715 1398.46 121.402 1397.59 122.287C1396.71 123.188 1396.05 124.209 1395.56 125.41C1395.08 126.603 1394.84 127.879 1394.84 129.205C1394.84 132.18 1395.52 135.953 1396.88 140.435H1413.04V152.751H1399.91C1399.99 153.36 1400.03 153.954 1400.03 154.532C1400.03 159.116 1399.26 163.014 1397.74 166.117C1397.22 167.169 1396.6 168.204 1395.85 169.214C1396.75 169.224 1397.8 169.309 1399.04 169.476C1400.27 169.64 1401.59 169.848 1403.01 170.104L1407.25 170.875C1408.71 171.144 1410.07 171.404 1411.35 171.652C1412.58 171.892 1413.68 172.09 1414.64 172.245C1415.74 172.427 1416.24 172.451 1416.44 172.451C1419.71 172.451 1422.98 171.621 1426.17 169.98L1429.96 168.026V183.317L1428.44 184.005C1424.83 185.637 1420.94 186.465 1416.87 186.465C1414.12 186.465 1410.28 185.7 1405.13 184.123C1400.58 182.716 1397.2 182.007 1395.08 182.007C1390.14 182.007 1384.62 183.421 1378.69 186.219L1374.98 187.962V173.495H1374.98Z" fill="#8BFFB2"/>
</g>
<g opacity="0.47">
<path d="M220.332 149.474C220.332 105.029 256.362 68.999 300.807 68.999C345.252 68.999 381.282 105.029 381.282 149.474V584.838H220.332V149.474Z" fill="url(#paint3_linear_3742_73825)"/>
<path d="M220.416 161.672C220.416 206.176 256.494 242.254 300.997 242.254C345.501 242.254 381.579 206.176 381.579 161.672V146.666H220.416V161.672Z" fill="#3155D5"/>
<path d="M300.998 227.332C345.548 227.332 381.664 191.216 381.664 146.666C381.664 102.115 345.548 66 300.998 66C256.447 66 220.332 102.115 220.332 146.666C220.332 191.216 256.447 227.332 300.998 227.332Z" fill="#8DA3F1"/>
<path d="M300.999 212.31C337.254 212.31 366.643 182.92 366.643 146.666C366.643 110.412 337.254 81.022 300.999 81.022C264.745 81.022 235.355 110.412 235.355 146.666C235.355 182.92 264.745 212.31 300.999 212.31Z" stroke="#B1F0C7" stroke-miterlimit="10"/>
<path d="M232.547 120.512C236.259 110.802 241.978 102.083 249.197 94.8647" stroke="white" stroke-width="6.78393" stroke-miterlimit="10" stroke-linecap="round" stroke-linejoin="round"/>
<path d="M273.316 173.495L274.674 172.765C276.205 171.942 277.547 171.016 278.669 170.01C279.767 169.029 280.711 167.917 281.476 166.706C282.989 164.302 283.758 160.813 283.758 156.337C283.758 155.18 283.651 153.981 283.444 152.751H273.316V140.434H280.12C278.966 136.172 278.403 132.756 278.403 130.054C278.403 126.533 279.024 123.308 280.245 120.47C281.476 117.605 283.244 115.131 285.5 113.117C287.726 111.126 290.416 109.581 293.484 108.534C296.495 107.506 299.84 106.987 303.431 106.987C306.687 106.987 309.763 107.439 312.573 108.331C315.449 109.242 318.003 110.592 320.169 112.344C322.371 114.126 324.168 116.366 325.505 118.995C326.826 121.595 327.639 124.603 327.915 127.931L328.149 130.719H313.308L313.106 128.359C312.578 122.169 309.545 119.41 303.271 119.41C301.734 119.41 300.325 119.671 299.086 120.191C297.826 120.715 296.796 121.402 295.926 122.287C295.05 123.188 294.386 124.209 293.901 125.41C293.423 126.603 293.178 127.879 293.178 129.205C293.178 132.18 293.864 135.953 295.221 140.435H311.382V152.751H298.25C298.331 153.36 298.371 153.954 298.371 154.532C298.371 159.116 297.599 163.014 296.076 166.117C295.563 167.169 294.935 168.204 294.191 169.214C295.093 169.224 296.138 169.309 297.379 169.476C298.612 169.64 299.932 169.848 301.35 170.104L305.589 170.875C307.047 171.144 308.41 171.404 309.687 171.652C310.922 171.892 312.019 172.09 312.979 172.245C314.081 172.427 314.58 172.451 314.782 172.451C318.051 172.451 321.323 171.621 324.506 169.98L328.299 168.026V183.317L326.783 184.005C323.172 185.637 319.28 186.465 315.21 186.465C312.458 186.465 308.619 185.7 303.469 184.123C298.916 182.716 295.537 182.007 293.42 182.007C288.479 182.007 282.964 183.421 277.026 186.219L273.317 187.962V173.495H273.316Z" fill="#1E3174"/>
</g>
<g opacity="0.47">
<path d="M1542.32 209.455C1542.32 165.01 1578.35 128.98 1622.8 128.98C1667.24 128.98 1703.27 165.01 1703.27 209.455V584.839H1542.32V209.455Z" fill="url(#paint4_linear_3742_73825)"/>
<path d="M1542.41 224.653C1542.41 269.157 1578.49 305.234 1622.99 305.234C1667.49 305.234 1703.57 269.156 1703.57 224.653V209.646H1542.41V224.653Z" fill="#C5EBD2"/>
<path d="M1622.99 290.312C1667.54 290.312 1703.66 254.197 1703.66 209.646C1703.66 165.096 1667.54 128.98 1622.99 128.98C1578.44 128.98 1542.32 165.096 1542.32 209.646C1542.32 254.197 1578.44 290.312 1622.99 290.312Z" fill="#C7FFDA"/>
<path d="M1622.99 275.29C1659.25 275.29 1688.64 245.901 1688.64 209.646C1688.64 173.392 1659.25 144.002 1622.99 144.002C1586.74 144.002 1557.35 173.392 1557.35 209.646C1557.35 245.901 1586.74 275.29 1622.99 275.29Z" stroke="#B1F0C7" stroke-miterlimit="10"/>
<path d="M1554.54 183.493C1558.25 173.782 1563.97 165.064 1571.19 157.845" stroke="white" stroke-width="6.78393" stroke-miterlimit="10" stroke-linecap="round" stroke-linejoin="round"/>
<path d="M1658.29 170.967H1639.99L1623.3 200.981L1606.63 170.967H1588.31L1610.3 210.884H1593.5V217.707H1613.27V223.49H1593.5V230.314H1613.27V248.943H1633.33V230.314H1653.1V223.49H1633.33V217.707H1653.1V210.884H1636.63L1658.29 170.967Z" fill="#8BFFB2"/>
</g>
<g opacity="0.47">
<path d="M440.664 209.455C440.664 165.01 476.694 128.98 521.139 128.98C565.584 128.98 601.614 165.01 601.614 209.455V584.839H440.664V209.455Z" fill="url(#paint5_linear_3742_73825)"/>
<path d="M440.748 224.653C440.748 269.157 476.826 305.234 521.329 305.234C565.833 305.234 601.911 269.156 601.911 224.653V209.646H440.748V224.653Z" fill="#3155D5"/>
<path d="M521.33 290.312C565.881 290.312 601.996 254.197 601.996 209.646C601.996 165.096 565.881 128.98 521.33 128.98C476.779 128.98 440.664 165.096 440.664 209.646C440.664 254.197 476.779 290.312 521.33 290.312Z" fill="#8DA3F1"/>
<path d="M521.331 275.29C557.586 275.29 586.975 245.901 586.975 209.646C586.975 173.392 557.586 144.002 521.331 144.002C485.077 144.002 455.688 173.392 455.688 209.646C455.688 245.901 485.077 275.29 521.331 275.29Z" stroke="#B1F0C7" stroke-miterlimit="10"/>
<path d="M452.879 183.493C456.591 173.782 462.31 165.064 469.529 157.845" stroke="white" stroke-width="6.78393" stroke-miterlimit="10" stroke-linecap="round" stroke-linejoin="round"/>
<path d="M556.629 170.967H538.329L521.639 200.981L504.967 170.967H486.65L508.639 210.884H491.836V217.707H511.611V223.49H491.836V230.314H511.611V248.943H531.667V230.314H551.443V223.49H531.667V217.707H551.443V210.884H534.971L556.629 170.967Z" fill="#1E3174"/>
</g>
<g opacity="0.47">
<path d="M1762.66 264.438C1762.66 219.993 1798.69 183.963 1843.13 183.963C1887.58 183.963 1923.61 219.993 1923.61 264.438V584.839H1762.66V264.438Z" fill="url(#paint6_linear_3742_73825)"/>
<path d="M1762.74 279.636C1762.74 324.14 1798.82 360.217 1843.32 360.217C1887.83 360.217 1923.9 324.139 1923.9 279.636V264.629H1762.74V279.636Z" fill="#3155D5"/>
<path d="M1843.32 345.295C1887.87 345.295 1923.99 309.18 1923.99 264.629C1923.99 220.079 1887.87 183.963 1843.32 183.963C1798.77 183.963 1762.66 220.079 1762.66 264.629C1762.66 309.18 1798.77 345.295 1843.32 345.295Z" fill="#8DA3F1"/>
<path d="M1843.32 330.273C1879.58 330.273 1908.97 300.883 1908.97 264.629C1908.97 228.375 1879.58 198.985 1843.32 198.985C1807.07 198.985 1777.68 228.375 1777.68 264.629C1777.68 300.883 1807.07 330.273 1843.32 330.273Z" stroke="#B1F0C7" stroke-miterlimit="10"/>
<path d="M1774.87 238.476C1778.58 228.765 1784.3 220.047 1791.52 212.828" stroke="white" stroke-width="6.78393" stroke-miterlimit="10" stroke-linecap="round" stroke-linejoin="round"/>
<path d="M1860.85 290.218C1857.02 291.928 1852.79 292.781 1848.17 292.781C1842.74 292.781 1837.82 291.562 1833.38 289.12C1828.95 286.677 1825.51 283.316 1823.09 279.033C1822.09 277.268 1821.31 275.39 1820.72 273.414H1856.68L1861.29 265.755H1819.49C1819.47 265.282 1819.45 264.809 1819.45 264.326C1819.45 262.818 1819.55 261.356 1819.75 259.939H1856.68L1861.29 252.279H1821.99C1823.34 249.378 1825.23 246.724 1827.67 244.321C1833.14 238.911 1839.88 236.206 1847.88 236.206C1857.36 236.206 1865.89 240.17 1873.47 248.095L1884.62 237.586C1879.99 232.268 1874.48 228.164 1868.08 225.277C1861.69 222.394 1855.04 220.952 1848.13 220.952C1840.01 220.952 1832.43 222.903 1825.4 226.805C1818.36 230.71 1812.95 235.869 1809.17 242.286C1807.34 245.399 1805.97 248.734 1805.02 252.28H1798.26L1793.65 259.939H1803.72C1803.6 261.365 1803.51 262.811 1803.51 264.297C1803.51 264.789 1803.53 265.271 1803.54 265.756H1798.26L1793.65 273.414H1804.29C1805.84 282.132 1809.73 289.555 1815.95 295.68C1824.24 303.845 1834.89 307.925 1847.91 307.925C1854.96 307.925 1861.24 306.77 1866.74 304.463C1872.24 302.153 1878.09 298.015 1884.27 292.044L1873.47 280.893C1868.88 285.4 1864.67 288.51 1860.85 290.218Z" fill="#1E3174"/>
</g>
<g opacity="0.47">
<path d="M660.996 264.438C660.996 219.993 697.026 183.963 741.471 183.963C785.916 183.963 821.946 219.993 821.946 264.438V584.839H660.996V264.438Z" fill="url(#paint7_linear_3742_73825)"/>
<path d="M661.08 279.636C661.08 324.14 697.158 360.217 741.661 360.217C786.165 360.217 822.243 324.139 822.243 279.636V264.629H661.08V279.636Z" fill="#3155D5"/>
<path d="M741.662 345.295C786.213 345.295 822.328 309.18 822.328 264.629C822.328 220.079 786.213 183.963 741.662 183.963C697.111 183.963 660.996 220.079 660.996 264.629C660.996 309.18 697.111 345.295 741.662 345.295Z" fill="#8DA3F1"/>
<path d="M741.663 330.273C777.918 330.273 807.307 300.883 807.307 264.629C807.307 228.375 777.918 198.985 741.663 198.985C705.409 198.985 676.02 228.375 676.02 264.629C676.02 300.883 705.409 330.273 741.663 330.273Z" stroke="#B1F0C7" stroke-miterlimit="10"/>
<path d="M673.211 238.476C676.923 228.765 682.642 220.047 689.861 212.828" stroke="white" stroke-width="6.78393" stroke-miterlimit="10" stroke-linecap="round" stroke-linejoin="round"/>
<path d="M759.185 290.218C755.358 291.928 751.131 292.781 746.506 292.781C741.084 292.781 736.156 291.562 731.72 289.12C727.285 286.677 723.853 283.316 721.427 279.033C720.427 277.268 719.645 275.39 719.058 273.414H755.021L759.628 265.755H717.828C717.809 265.282 717.789 264.809 717.789 264.326C717.789 262.818 717.889 261.356 718.088 259.939H755.019L759.628 252.279H720.328C721.681 249.378 723.571 246.724 726.005 244.321C731.484 238.911 738.221 236.206 746.221 236.206C755.697 236.206 764.228 240.17 771.809 248.095L782.958 237.586C778.328 232.268 772.816 228.164 766.421 225.277C760.028 222.394 753.379 220.952 746.474 220.952C738.353 220.952 730.774 222.903 723.736 226.805C716.697 230.71 711.291 235.869 707.515 242.286C705.684 245.399 704.306 248.734 703.364 252.28H696.595L691.986 259.939H702.058C701.936 261.365 701.853 262.811 701.853 264.297C701.853 264.789 701.87 265.271 701.883 265.756H696.596L691.987 273.414H702.626C704.178 282.132 708.065 289.555 714.288 295.68C722.577 303.845 733.23 307.925 746.246 307.925C753.303 307.925 759.582 306.77 765.084 304.463C770.585 302.153 776.43 298.015 782.614 292.044L771.809 280.893C767.224 285.4 763.013 288.51 759.185 290.218Z" fill="#1E3174"/>
</g>
<g opacity="0.47">
<path d="M881.328 209.455C881.328 165.01 917.358 128.98 961.803 128.98C1006.25 128.98 1042.28 165.01 1042.28 209.455V584.839H881.328V209.455Z" fill="url(#paint8_linear_3742_73825)"/>
<path d="M881.412 224.653C881.412 269.157 917.49 305.234 961.993 305.234C1006.5 305.234 1042.57 269.156 1042.57 224.653V209.646H881.412V224.653Z" fill="#3155D5"/>
<path d="M961.994 290.312C1006.54 290.312 1042.66 254.197 1042.66 209.646C1042.66 165.096 1006.54 128.98 961.994 128.98C917.443 128.98 881.328 165.096 881.328 209.646C881.328 254.197 917.443 290.312 961.994 290.312Z" fill="#8DA3F1"/>
<path d="M961.996 275.29C998.25 275.29 1027.64 245.901 1027.64 209.646C1027.64 173.392 998.25 144.002 961.996 144.002C925.741 144.002 896.352 173.392 896.352 209.646C896.352 245.901 925.741 275.29 961.996 275.29Z" stroke="#B1F0C7" stroke-miterlimit="10"/>
<path d="M893.543 183.493C897.255 173.782 902.974 165.064 910.193 157.845" stroke="white" stroke-width="6.78393" stroke-miterlimit="10" stroke-linecap="round" stroke-linejoin="round"/>
<mask id="path-55-outside-1_3742_73825" maskUnits="userSpaceOnUse" x="936.312" y="168.969" width="50" height="82" fill="black">
<rect fill="white" x="936.312" y="168.969" width="50" height="82"/>
<path d="M959.375 248.969L938.879 213.184V208.413H941.265C945.097 208.413 948.314 208.051 950.916 207.328C953.591 206.605 955.688 205.412 957.206 203.75C958.724 202.087 959.628 199.81 959.917 196.918H938.879V189.978H959.808C959.302 187.303 958.29 185.134 956.772 183.471C955.254 181.736 953.193 180.471 950.591 179.676C948.061 178.881 944.952 178.483 941.265 178.483H938.879V171.543H983.774V178.483H963.278C964.941 179.857 966.315 181.483 967.399 183.363C968.484 185.242 969.17 187.447 969.459 189.978H983.774V196.918H969.676C969.17 202.195 967.146 206.316 963.604 209.28C960.134 212.172 955.507 214.015 949.723 214.811L970.435 248.969H959.375Z"/>
</mask>
<path d="M959.375 248.969L938.879 213.184V208.413H941.265C945.097 208.413 948.314 208.051 950.916 207.328C953.591 206.605 955.688 205.412 957.206 203.75C958.724 202.087 959.628 199.81 959.917 196.918H938.879V189.978H959.808C959.302 187.303 958.29 185.134 956.772 183.471C955.254 181.736 953.193 180.471 950.591 179.676C948.061 178.881 944.952 178.483 941.265 178.483H938.879V171.543H983.774V178.483H963.278C964.941 179.857 966.315 181.483 967.399 183.363C968.484 185.242 969.17 187.447 969.459 189.978H983.774V196.918H969.676C969.17 202.195 967.146 206.316 963.604 209.28C960.134 212.172 955.507 214.015 949.723 214.811L970.435 248.969H959.375Z" fill="#1E3174"/>
<path d="M959.375 248.969L957.827 249.855L958.341 250.752H959.375V248.969ZM938.879 213.184H937.096V213.658L937.332 214.07L938.879 213.184ZM938.879 208.413V206.63H937.096V208.413H938.879ZM950.916 207.328L950.451 205.607L950.439 205.61L950.916 207.328ZM957.206 203.75L955.889 202.547L957.206 203.75ZM959.917 196.918L961.691 197.095L961.887 195.135H959.917V196.918ZM938.879 196.918H937.096V198.701H938.879V196.918ZM938.879 189.978V188.195H937.096V189.978H938.879ZM959.808 189.978V191.761H961.96L961.56 189.646L959.808 189.978ZM956.772 183.471L955.43 184.645L955.443 184.66L955.455 184.673L956.772 183.471ZM950.591 179.676L950.056 181.377L950.063 181.379L950.07 181.381L950.591 179.676ZM938.879 178.483H937.096V180.266H938.879V178.483ZM938.879 171.543V169.76H937.096V171.543H938.879ZM983.774 171.543H985.557V169.76H983.774V171.543ZM983.774 178.483V180.266H985.557V178.483H983.774ZM963.278 178.483V176.7H958.32L962.143 179.858L963.278 178.483ZM967.399 183.363L965.855 184.254L965.855 184.254L967.399 183.363ZM969.459 189.978L967.688 190.18L967.869 191.761H969.459V189.978ZM983.774 189.978H985.557V188.195H983.774V189.978ZM983.774 196.918V198.701H985.557V196.918H983.774ZM969.676 196.918V195.135H968.056L967.901 196.748L969.676 196.918ZM963.604 209.28L964.745 210.65L964.748 210.648L963.604 209.28ZM949.723 214.811L949.48 213.044L946.791 213.414L948.199 215.735L949.723 214.811ZM970.435 248.969V250.752H973.602L971.96 248.045L970.435 248.969ZM960.922 248.083L940.427 212.298L937.332 214.07L957.827 249.855L960.922 248.083ZM940.662 213.184V208.413H937.096V213.184H940.662ZM938.879 210.196H941.265V206.63H938.879V210.196ZM941.265 210.196C945.196 210.196 948.586 209.826 951.393 209.046L950.439 205.61C948.042 206.276 944.997 206.63 941.265 206.63V210.196ZM951.381 209.049C954.308 208.258 956.728 206.917 958.522 204.952L955.889 202.547C954.647 203.907 952.874 204.952 950.451 205.607L951.381 209.049ZM958.522 204.952C960.366 202.933 961.375 200.258 961.691 197.095L958.143 196.74C957.88 199.362 957.082 201.241 955.889 202.547L958.522 204.952ZM959.917 195.135H938.879V198.701H959.917V195.135ZM940.662 196.918V189.978H937.096V196.918H940.662ZM938.879 191.761H959.808V188.195H938.879V191.761ZM961.56 189.646C961.006 186.715 959.872 184.223 958.089 182.269L955.455 184.673C956.708 186.045 957.599 187.891 958.056 190.309L961.56 189.646ZM958.114 182.297C956.34 180.27 953.974 178.845 951.112 177.971L950.07 181.381C952.413 182.097 954.168 183.202 955.43 184.645L958.114 182.297ZM951.125 177.975C948.369 177.109 945.068 176.7 941.265 176.7V180.266C944.836 180.266 947.752 180.653 950.056 181.377L951.125 177.975ZM941.265 176.7H938.879V180.266H941.265V176.7ZM940.662 178.483V171.543H937.096V178.483H940.662ZM938.879 173.326H983.774V169.76H938.879V173.326ZM981.991 171.543V178.483H985.557V171.543H981.991ZM983.774 176.7H963.278V180.266H983.774V176.7ZM962.143 179.858C963.64 181.095 964.876 182.557 965.855 184.254L968.944 182.472C967.753 180.409 966.242 178.618 964.414 177.108L962.143 179.858ZM965.855 184.254C966.798 185.888 967.422 187.851 967.688 190.18L971.231 189.775C970.919 187.044 970.169 184.596 968.944 182.472L965.855 184.254ZM969.459 191.761H983.774V188.195H969.459V191.761ZM981.991 189.978V196.918H985.557V189.978H981.991ZM983.774 195.135H969.676V198.701H983.774V195.135ZM967.901 196.748C967.433 201.633 965.589 205.294 962.459 207.913L964.748 210.648C968.703 207.338 970.908 202.757 971.451 197.088L967.901 196.748ZM962.462 207.91C959.314 210.534 955.028 212.281 949.48 213.044L949.966 216.577C955.985 215.749 960.954 213.809 964.745 210.65L962.462 207.91ZM948.199 215.735L968.911 249.894L971.96 248.045L951.248 213.886L948.199 215.735ZM970.435 247.186H959.375V250.752H970.435V247.186Z" fill="#1E3174" mask="url(#path-55-outside-1_3742_73825)"/>
</g>
</g>
</g>
<defs>
<linearGradient id="paint0_linear_3742_73825" x1="1182.2" y1="212.954" x2="1182.2" y2="584.919" gradientUnits="userSpaceOnUse">
<stop stop-color="white"/>
<stop offset="1" stop-color="white" stop-opacity="0"/>
</linearGradient>
<linearGradient id="paint1_linear_3742_73825" x1="80.5355" y1="212.954" x2="80.5355" y2="584.919" gradientUnits="userSpaceOnUse">
<stop stop-color="white"/>
<stop offset="1" stop-color="white" stop-opacity="0"/>
</linearGradient>
<linearGradient id="paint2_linear_3742_73825" x1="1402.47" y1="68.999" x2="1402.47" y2="584.838" gradientUnits="userSpaceOnUse">
<stop stop-color="white"/>
<stop offset="1" stop-color="white" stop-opacity="0"/>
</linearGradient>
<linearGradient id="paint3_linear_3742_73825" x1="300.807" y1="68.999" x2="300.807" y2="584.838" gradientUnits="userSpaceOnUse">
<stop stop-color="white"/>
<stop offset="1" stop-color="white" stop-opacity="0"/>
</linearGradient>
<linearGradient id="paint4_linear_3742_73825" x1="1622.8" y1="128.98" x2="1622.8" y2="584.839" gradientUnits="userSpaceOnUse">
<stop stop-color="white"/>
<stop offset="1" stop-color="white" stop-opacity="0"/>
</linearGradient>
<linearGradient id="paint5_linear_3742_73825" x1="521.139" y1="128.98" x2="521.139" y2="584.839" gradientUnits="userSpaceOnUse">
<stop stop-color="white"/>
<stop offset="1" stop-color="white" stop-opacity="0"/>
</linearGradient>
<linearGradient id="paint6_linear_3742_73825" x1="1843.13" y1="183.963" x2="1843.13" y2="584.839" gradientUnits="userSpaceOnUse">
<stop stop-color="white"/>
<stop offset="1" stop-color="white" stop-opacity="0"/>
</linearGradient>
<linearGradient id="paint7_linear_3742_73825" x1="741.471" y1="183.963" x2="741.471" y2="584.839" gradientUnits="userSpaceOnUse">
<stop stop-color="white"/>
<stop offset="1" stop-color="white" stop-opacity="0"/>
</linearGradient>
<linearGradient id="paint8_linear_3742_73825" x1="961.803" y1="128.98" x2="961.803" y2="584.839" gradientUnits="userSpaceOnUse">
<stop stop-color="white"/>
<stop offset="1" stop-color="white" stop-opacity="0"/>
</linearGradient>
</defs>
</svg>
