<svg width="120" height="121" viewBox="0 0 120 121" fill="none" xmlns="http://www.w3.org/2000/svg">
<rect y="0.43457" width="120" height="120" rx="17.8037" fill="#FFDB19"/>
<path d="M84.3767 49.3104C84.3638 49.3038 83.0462 48.6447 83.1882 47.6678C83.2035 47.5639 83.172 47.4591 83.1021 47.3801C83.0323 47.3012 82.9314 47.2556 82.8248 47.2556H82.2527L81.817 46.8273C81.7142 46.7262 81.5617 46.6943 81.4263 46.745L80.2837 47.1733C79.9475 47.0793 79.1211 46.9458 78.3606 47.8657L76.9225 48.6014C76.8479 48.6395 76.789 48.7016 76.7551 48.7768L76.3773 49.6263C76.0348 49.8373 75.283 50.243 74.7703 50.2816C74.6651 50.2896 74.568 50.3417 74.5048 50.425L73.962 51.1367C73.8936 51.226 73.8716 51.3412 73.9017 51.4488C73.9314 51.5565 74.0108 51.6444 74.1155 51.6872C74.2604 51.7464 74.4188 51.8348 74.5197 51.9086C74.3838 51.9636 74.1036 52.0444 73.545 52.1088L72.983 51.8075C72.9022 51.7643 72.8075 51.7525 72.718 51.7741L71.9949 51.9518L72.0226 51.4578C72.1733 51.186 72.5186 50.4597 72.2307 49.9638C72.1068 49.7485 71.8261 49.4885 71.1326 49.5717C71.0733 49.5788 71.0164 49.6004 70.9676 49.6343L69.7604 50.4644C69.6481 50.5415 69.5887 50.6741 69.6069 50.8081L69.7279 51.698C69.7308 51.7205 69.7361 51.7426 69.7432 51.7643L69.8044 51.9438L69.4936 52.3636L68.6762 52.6941L66.9607 52.2621L66.2968 51.8733C66.2471 51.8442 66.1911 51.8273 66.1333 51.8235L65.3786 51.7737L64.7482 51.1075C64.6937 51.0497 64.6215 51.0112 64.5426 50.9975L63.3665 50.7968C63.1135 50.3888 62.2517 49.8909 59.725 49.6352C59.6738 49.6244 59.6011 49.5868 59.5925 49.5604C59.5782 49.5181 59.6112 49.3315 59.9263 48.9832C59.9938 48.9089 60.0268 48.8106 60.0177 48.7115C60.0086 48.6123 59.9584 48.5211 59.879 48.4595C59.8489 48.4364 59.7666 48.3415 59.7747 48.2884C59.7848 48.2268 59.9244 48.0646 60.3845 47.8954C60.5357 47.8399 60.6323 47.6932 60.6222 47.5348L60.562 46.5857C60.5538 46.4644 60.4845 46.3549 60.3773 46.2947L59.1912 45.629L58.7579 44.9361C58.713 44.8637 58.6432 44.8092 58.5614 44.7824L57.4044 44.404C57.414 44.2154 57.3958 43.9724 57.2921 43.7265C57.5905 43.9127 57.8545 44.0669 57.9659 44.1031C58.0037 44.1158 58.0645 44.1252 58.1041 44.1252C58.218 44.1252 58.4844 44.1252 59.2113 43.2574C59.2907 43.1624 59.3137 43.0341 59.2754 42.917C59.2372 42.8 59.1391 42.7097 59.0186 42.6782C58.9335 42.6561 58.1941 42.4324 58.3265 41.4348C58.3371 41.3544 58.3198 41.2731 58.2778 41.2035L57.7627 40.3541L57.9458 39.8487C57.9827 39.7481 57.9717 39.6367 57.9167 39.5446C57.8617 39.4524 57.7674 39.389 57.6603 39.3711L56.3843 39.1624L55.9878 38.4807C55.9673 38.4459 55.9414 38.4144 55.9108 38.3881C55.8659 38.3496 55.6961 38.2241 55.39 38.2241C54.9251 38.2241 54.378 38.5103 53.7639 39.0749L52.6916 39.6273L51.6413 39.2146C51.5969 39.1972 51.5462 39.1948 51.5022 39.1887C50.5896 39.1962 49.0094 39.3015 48.6718 39.9206C48.6058 40.0419 48.5245 40.2901 48.7234 40.5901C48.7402 40.6154 48.7603 40.6385 48.7832 40.6592C48.8602 40.7283 49.4547 41.2576 49.9181 41.5373L49.8713 42.3421C49.8622 42.5029 49.9617 42.65 50.1161 42.7031L50.6552 42.8898V43.3458C50.6552 43.4417 50.6939 43.5333 50.7628 43.601L51.8436 44.6639L51.274 44.8407C51.209 44.8609 51.1511 44.898 51.1066 44.9488L49.9602 46.2538C49.9272 46.2909 49.9028 46.3342 49.888 46.3812L49.5991 47.28L48.5871 47.3759C48.4795 47.3858 48.382 47.4417 48.3207 47.5287C48.259 47.6161 48.2394 47.7252 48.2672 47.8277L48.4738 48.5935C48.0099 48.821 47.2226 49.3588 47.2762 50.3638C47.2786 50.4099 47.2958 50.4376 47.3154 50.4795C47.3145 50.48 47.226 50.5632 46.8477 50.5632C46.7372 50.5632 46.6124 50.5561 46.4751 50.542L46.0782 49.9074L45.6118 49.2201C45.5425 49.0762 45.3488 48.7523 45.004 48.7523C44.5415 48.7523 44.3617 49.3132 44.2866 49.5971L43.7232 50.3728C43.6615 50.4579 43.64 50.565 43.6648 50.6666L44.0068 52.0661L43.7853 52.9907C43.7566 53.1125 43.7935 53.2404 43.8834 53.3287L45.0255 54.4513C45.4325 54.8655 45.8036 55.3972 45.8428 55.6111C45.8242 55.6144 45.7979 55.6176 45.7635 55.6195L45.1312 55.2049C45.0135 55.1278 44.8624 55.1236 44.7414 55.1941L43.9188 55.6698L43.5151 55.392C43.4616 55.3539 42.9809 55.0183 42.4912 55.0183C42.263 55.0183 41.7269 55.1005 41.5633 55.8428L41.0583 56.6152C40.9631 56.7609 40.9865 56.9522 41.1138 57.0717L42.3807 58.2582C42.4491 58.3221 42.5399 58.3578 42.6342 58.3578H43.4793C43.6084 58.3578 43.728 58.2911 43.7944 58.1825L44.0493 57.7646H45.0044C45.0441 57.7763 45.1001 57.798 45.1097 57.7989C45.1097 57.7989 45.102 57.8986 44.8973 58.1101H44.4449C44.3196 58.1101 44.2024 58.1731 44.135 58.277L43.8207 58.7626H42.5089C42.4586 58.7499 42.3917 58.7381 42.3147 58.7381C42.1702 58.7381 41.6886 58.7908 41.5499 59.4687C41.5404 59.5157 41.5404 59.5636 41.5499 59.6106L41.6709 60.203C41.6948 60.3191 41.7747 60.4159 41.8847 60.4634L43.1947 61.0219L43.9795 61.9625C44.0159 62.0058 44.0618 62.0401 44.1134 62.0631L45.3273 62.5967C45.433 62.6437 45.5535 62.6385 45.6554 62.5831L46.8553 61.9306C46.9381 61.8854 46.9998 61.8112 47.028 61.7223L47.3298 60.7737C47.3499 60.7097 47.3518 60.6416 47.335 60.5767L47.0796 59.5923C47.16 59.5462 47.3145 59.4936 47.5761 59.4856L48.2547 59.7484V60.4972L47.8932 61.7538C47.8678 61.8422 47.8774 61.9367 47.9204 62.0185L48.2074 62.5624L47.4388 63.9971C47.3853 64.0972 47.3819 64.2157 47.4307 64.3182L47.7994 65.0939L47.5273 66.2169C47.5125 66.278 47.5139 66.342 47.5321 66.4026L47.8262 67.3846L48.0051 68.6741L48.26 70.1573C48.27 70.2165 48.2954 70.2729 48.3332 70.3199L48.9654 71.1116V71.8764C48.9654 71.9516 48.9894 72.025 49.0338 72.0865L49.2672 72.4072V73.2999C49.2672 73.3661 49.2859 73.4315 49.3213 73.4884L49.9143 74.4422C49.856 74.8648 49.7704 76.0763 50.6212 76.5036L51.3793 77.2985V78.8757C51.3793 78.9485 51.4017 79.02 51.4438 79.0802L52.0684 79.9734L52.2942 80.9159C52.3114 80.9874 52.3506 81.0522 52.4061 81.1016L52.9365 81.5707C53.0804 81.9835 53.4214 82.7319 54.004 82.7319C54.4091 82.7319 54.6563 82.3765 54.7831 82.1405L55.4149 81.9492C55.511 81.92 55.5904 81.8537 55.6353 81.7654L55.8879 81.2694C55.8965 81.2694 55.9056 81.2694 55.9146 81.2694C56.4661 81.2694 56.9391 81.0865 57.2476 80.7547C57.5857 80.3903 57.7258 79.8671 57.656 79.1559C57.6565 79.1093 57.7875 78.9048 58.3916 78.7558C58.4404 78.7469 58.8722 78.6557 59.0511 78.2269C59.2128 77.8396 59.0994 77.361 58.7044 76.7668L58.7943 75.9728L59.4098 75.4534C59.6346 75.4482 59.8307 75.3438 59.9507 75.1643C60.2023 74.7877 60.1086 74.1446 59.6466 73.0827L59.4672 71.8571L59.1429 70.4243L59.527 69.9514H60.0139C60.1583 69.9514 60.2889 69.8682 60.3486 69.7394L60.7002 68.9759L61.6208 68.7249C61.7251 68.6967 61.8112 68.6248 61.8561 68.5284L62.1771 67.8449C62.5367 67.5938 63.9586 66.5855 64.6923 65.8338L65.5885 65.4713C65.8779 65.4469 66.844 65.2814 67.5016 64.1772C67.7618 64.1095 68.3204 63.9727 68.7398 63.9313C68.7977 63.9257 68.8527 63.9069 68.9015 63.8763L70.4104 62.9272C70.5563 62.8355 70.617 62.6559 70.5563 62.4961L70.1942 61.5474C70.1818 61.515 70.1636 61.4826 70.1421 61.4548C70.0484 61.3335 69.869 61.0087 69.947 60.8334C70.0091 60.6928 70.2731 60.5899 70.6715 60.5504C70.6993 60.5475 70.7395 60.5372 70.7662 60.5283C70.7662 60.5283 70.8002 60.517 70.8509 60.517C71.0762 60.517 71.2842 60.7408 71.4363 61.1465C71.4965 61.3068 71.6601 61.4031 71.8332 61.3791L72.6783 61.2602C72.8591 61.2348 72.9935 61.0825 72.9935 60.9029V60.2519L73.215 59.62C73.2432 59.5397 73.2417 59.4518 73.2102 59.3723L72.6104 57.8501L72.9433 57.2888C73.0375 57.1304 72.9959 56.9283 72.8467 56.8183L71.8811 56.1065C71.8457 56.0807 71.8065 56.0609 71.7644 56.0487L71.0652 55.8466L71.1752 55.344C71.1976 55.2406 71.1723 55.1316 71.1068 55.0479C70.9934 54.9031 70.8872 54.7169 70.8447 54.5975C70.9485 54.5999 71.1364 54.6267 71.4296 54.7193L72.7142 55.2999C72.7362 55.3097 72.7587 55.3173 72.7821 55.3229L74.2906 55.6788C74.3671 55.6961 74.4474 55.69 74.5211 55.6595L75.3169 55.3243C75.4408 55.3102 75.8091 55.2961 75.9626 55.3154C75.9033 55.3812 75.8067 55.4733 75.6503 55.596L74.7492 55.8724C74.5995 55.9185 74.4962 56.0525 74.4914 56.2067L74.4312 58.2718C74.4298 58.3334 74.4436 58.394 74.4728 58.4486L75.0764 59.589C75.1347 59.7 75.2476 59.7733 75.3743 59.7827C75.5001 59.7893 75.623 59.7362 75.6986 59.636L76.3399 58.7743L76.6733 59.5185C76.7441 60.013 77.1607 60.8489 78.3166 60.8489C78.4936 60.8489 78.6844 60.8287 78.8834 60.7887C78.9948 60.7821 79.2449 60.7379 79.4142 60.4846C79.6467 60.1367 79.5998 59.5881 79.265 58.7673L79.4769 58.5083C79.529 58.4443 79.5577 58.3644 79.5577 58.2822V57.7227L80.2144 57.6433C80.2866 57.6348 80.355 57.6047 80.41 57.5577L81.3153 56.7863C81.4445 56.6763 81.4794 56.4934 81.3995 56.3449L80.9098 55.4357L81.0136 54.567L81.421 53.1369C81.6047 52.7364 81.8864 52.326 82.0146 52.2452C82.0246 52.2517 82.0347 52.2579 82.0452 52.2635L82.709 52.6194C82.8166 52.6772 82.9453 52.6781 83.0538 52.6231L83.8985 52.1939C84.0515 52.1164 84.129 51.9443 84.0845 51.7802C84.0333 51.5913 84.0132 51.2617 84.0965 51.155C84.1036 51.1456 84.1232 51.1212 84.2127 51.1212C84.4155 51.1212 84.58 50.9595 84.58 50.7601V49.6333C84.58 49.4965 84.5016 49.3715 84.3767 49.3104ZM83.8454 50.4659C83.6885 50.5288 83.5828 50.6271 83.5139 50.715C83.2896 51.0022 83.2858 51.4009 83.3193 51.6754L82.8898 51.8935L82.4264 51.6453C82.3106 51.5579 82.1767 51.5123 82.0366 51.5123C81.4129 51.5123 80.9213 52.4609 80.7386 52.869C80.7314 52.8845 80.7256 52.9005 80.7209 52.9169L80.2981 54.3996C80.2933 54.4175 80.2895 54.4363 80.2871 54.4546L80.1666 55.463C80.1579 55.5358 80.1718 55.6097 80.2067 55.6741L80.6133 56.429L80.0135 56.94L79.1455 57.0453C78.9613 57.0674 78.8231 57.2211 78.8231 57.4035V58.1552L78.5553 58.4824C78.4701 58.5868 78.4505 58.7292 78.5046 58.8519C78.8743 59.6906 78.8303 59.9952 78.8078 60.069C78.7934 60.0704 78.7791 60.0728 78.7648 60.0756C78.6031 60.1094 78.4524 60.1268 78.3166 60.1268C77.5174 60.1268 77.4103 59.5115 77.3974 59.3911C77.394 59.3521 77.384 59.3135 77.3677 59.2773L76.756 57.9108C76.7029 57.7923 76.5901 57.711 76.4595 57.6974C76.3285 57.6795 76.2012 57.7387 76.1233 57.8426L75.4552 58.7405L75.1682 58.1989L75.2184 56.485L75.9339 56.2654C75.976 56.2527 76.0152 56.2325 76.0501 56.2057C76.4595 55.8926 76.9096 55.4776 76.757 55.0399C76.5963 54.5797 75.932 54.5797 75.7134 54.5797C75.4317 54.5797 75.1821 54.6126 75.1715 54.614C75.1385 54.6182 75.1065 54.6271 75.0759 54.6398L74.3437 54.9487L72.9883 54.629L71.6979 54.048C71.3378 53.9319 71.0527 53.875 70.8265 53.875C70.3927 53.875 70.2191 54.0931 70.1545 54.2233C69.9704 54.5919 70.2263 55.0676 70.4224 55.3502L70.2755 56.0229C70.2354 56.2076 70.3468 56.3914 70.5309 56.445L71.4932 56.7233L72.1441 57.2028L71.8868 57.6367C71.8304 57.7317 71.8208 57.8468 71.8615 57.9489L72.4765 59.5096L72.279 60.0737C72.2656 60.1113 72.2589 60.1513 72.2589 60.1912V60.5899L72.0073 60.6251C71.6467 59.9101 71.1398 59.7949 70.8509 59.7949C70.7218 59.7949 70.6194 59.8175 70.5553 59.8363C69.8781 59.911 69.4462 60.1503 69.2721 60.5485C69.0349 61.09 69.3974 61.6701 69.5242 61.8474L69.7643 62.4764L68.5777 63.2229C67.9612 63.2962 67.1883 63.512 67.1544 63.5219C67.0578 63.5486 66.9765 63.6135 66.9301 63.7014C66.3853 64.7234 65.5374 64.7526 65.5053 64.7535C65.4575 64.7535 65.4097 64.7629 65.3657 64.7808L64.3398 65.1959C64.2905 65.2156 64.2465 65.2457 64.2102 65.2842C63.4617 66.0768 61.6921 67.2977 61.6744 67.3099C61.6208 67.3466 61.5787 67.3964 61.5515 67.4542L61.2607 68.0738L60.3381 68.3253C60.2329 68.354 60.1463 68.4268 60.1014 68.5242L59.7771 69.2293H59.35C59.2381 69.2293 59.1324 69.2791 59.0631 69.3652L58.4595 70.1088C58.3902 70.1944 58.3638 70.3058 58.3878 70.4125L58.745 71.9869L58.9263 73.2326C58.9306 73.2641 58.9397 73.2952 58.9526 73.3248C59.3548 74.2386 59.3634 74.6049 59.3472 74.7224C59.2415 74.7059 59.1329 74.7355 59.0506 74.8051L58.206 75.5173C58.1352 75.577 58.0903 75.6607 58.0802 75.7514L57.9592 76.819C57.9492 76.906 57.9717 76.9934 58.0228 77.0653C58.3524 77.5312 58.4198 77.8274 58.3729 77.9496C58.3442 78.0239 58.2519 78.0469 58.2352 78.0507C57.6149 78.203 57.2079 78.4465 57.0242 78.7746C56.9171 78.9664 56.9061 79.1577 56.9348 79.2908C56.9721 79.735 56.8946 80.0636 56.7052 80.2676C56.479 80.5112 56.1131 80.5473 55.9146 80.5473C55.8104 80.5473 55.7382 80.5375 55.7291 80.5361C55.5703 80.5107 55.4125 80.5887 55.3402 80.7312L55.0485 81.3047L54.4143 81.4965C54.3144 81.5266 54.2321 81.5975 54.1886 81.6911C54.1015 81.8773 54.0341 81.9595 53.9987 81.9938C53.8849 81.9008 53.7051 81.5689 53.6056 81.2586C53.586 81.197 53.5496 81.1415 53.5008 81.0983L52.9829 80.6404L52.7681 79.7421C52.7576 79.6984 52.739 79.657 52.7131 79.6203L52.1139 78.7633V77.1556C52.1139 77.0639 52.0785 76.9756 52.0144 76.9088L51.109 75.9597C51.0746 75.923 51.0325 75.8943 50.9861 75.8746C50.5236 75.68 50.5968 74.7487 50.6585 74.4375C50.6762 74.3491 50.6599 74.2565 50.6116 74.1789L50.0018 73.1983V72.2915C50.0018 72.2163 49.9779 72.143 49.9335 72.0814L49.7001 71.7608V70.9865C49.7001 70.9057 49.6723 70.8272 49.6216 70.7637L48.9688 69.9462L48.7311 68.5651L48.5503 67.2601C48.5479 67.2422 48.5441 67.2243 48.5388 67.2069L48.2643 66.2907L48.5436 65.139C48.5627 65.0595 48.5541 64.9763 48.5192 64.9025L48.1734 64.1753L48.9468 62.7321C49.0032 62.6277 49.0037 62.5027 48.9482 62.3974L48.6397 61.8126L48.9755 60.6453C48.9846 60.6134 48.9894 60.5805 48.9894 60.5471V59.5025C48.9894 59.354 48.8971 59.2209 48.7564 59.1664L47.7774 58.7875C47.7349 58.7711 47.689 58.7626 47.643 58.7626C46.5822 58.7626 46.3608 59.2891 46.3268 59.3944C46.3068 59.4583 46.3048 59.5265 46.3216 59.5918L46.5975 60.6561L46.3709 61.3688L45.4602 61.8638L44.4927 61.4389L43.7064 60.4963C43.6691 60.4521 43.6223 60.4169 43.5687 60.3938L42.3534 59.8758L42.286 59.5467C42.3022 59.4912 42.3175 59.4663 42.3161 59.4583C42.3596 59.4757 42.4065 59.4847 42.4534 59.4847H44.0221C44.1474 59.4847 44.2646 59.4217 44.332 59.3178L44.6462 58.8322H45.048C45.1412 58.8322 45.2311 58.7974 45.2991 58.7344C45.4645 58.5821 45.9686 58.1176 45.817 57.6066C45.686 57.1657 45.1738 57.0594 45.1154 57.0486C45.0934 57.0444 45.0704 57.0425 45.048 57.0425H43.8413C43.7122 57.0425 43.5926 57.1093 43.5261 57.2179L43.2712 57.6358H42.781L41.8402 56.7548L42.219 56.1752C42.2458 56.1347 42.2635 56.0891 42.2721 56.0417C42.3252 55.7403 42.429 55.7403 42.4912 55.7403C42.6806 55.7403 42.9541 55.8847 43.0876 55.9791L43.6911 56.3942C43.8083 56.4751 43.9642 56.4812 44.0876 56.4098L44.915 55.9312L45.4478 56.2805C45.5038 56.3171 45.5688 56.3378 45.6362 56.3407L45.718 56.3425C46.2369 56.3425 46.4445 56.1145 46.5268 55.9232C46.7932 55.305 45.9352 54.3366 45.5492 53.945L44.5472 52.9602L44.7419 52.1479C44.7548 52.0929 44.7548 52.0355 44.7414 51.981L44.4186 50.6581L44.9246 49.9614C44.9514 49.9248 44.971 49.8834 44.982 49.8392C44.9992 49.7715 45.0159 49.7142 45.0312 49.6662L45.4598 50.2966L45.9423 51.068C45.9997 51.1602 46.0963 51.2218 46.2049 51.2368C47.1389 51.3614 47.6885 51.2448 47.9319 50.8715C48.0634 50.6694 48.0591 50.4409 48.0084 50.2769C48.0056 49.4824 48.9807 49.1599 49.0219 49.1468C49.2084 49.088 49.3155 48.8962 49.2653 48.71L49.0884 48.0538L49.911 47.9757C50.0578 47.9621 50.1822 47.8634 50.2262 47.7252L50.5657 46.6693L51.5945 45.4983L52.6414 45.173C52.7638 45.1354 52.8571 45.0372 52.8877 44.9145C52.9183 44.7923 52.8815 44.663 52.7906 44.5737L51.3898 43.1963V42.634C51.3898 42.4808 51.2912 42.3445 51.1444 42.2937L50.6207 42.1122L50.6652 41.3497C50.6738 41.1979 50.5853 41.0569 50.4428 40.9972C50.2046 40.897 49.7058 40.4989 49.3825 40.2177C49.6604 40.0631 50.5581 39.9258 51.4366 39.9117L52.5759 40.3592C52.6758 40.3987 52.7873 40.3931 52.8824 40.3437L54.1494 39.6912C54.1795 39.6757 54.2072 39.6564 54.2321 39.6334C54.939 38.9734 55.2991 38.9377 55.4125 38.9471L55.8329 39.6696C55.8879 39.7636 55.9826 39.829 56.0916 39.8468L57.1065 40.0128L57.0127 40.2713C56.9759 40.3729 56.9869 40.4848 57.0429 40.5774L57.5838 41.4701C57.5116 42.336 57.9128 42.8653 58.3289 43.146C58.2395 43.2372 58.1577 43.3138 58.096 43.3636C57.8822 43.2433 57.4461 42.9683 57.0802 42.7276C56.9209 42.6237 56.7062 42.6557 56.5871 42.8047L56.2853 43.1817C56.2236 43.2588 56.1968 43.3575 56.2102 43.4544C56.2241 43.5517 56.2772 43.6391 56.358 43.6969C56.788 44.0044 56.6603 44.4928 56.6454 44.5445C56.5866 44.7321 56.6909 44.9314 56.8803 44.9935L58.2022 45.4259L58.6149 46.0855C58.647 46.1372 58.6919 46.18 58.7455 46.2101L59.8407 46.825L59.8723 47.3233C59.3739 47.5503 59.1037 47.8314 59.0487 48.1779C59.0129 48.4073 59.0851 48.6024 59.1759 48.7472C58.8813 49.1421 58.7905 49.4866 58.8971 49.7941C59.0502 50.2336 59.5299 50.3342 59.614 50.3483C62.2091 50.6121 62.6711 51.0958 62.7285 51.1724C62.7529 51.3219 62.871 51.4446 63.0284 51.4719L64.2948 51.6881L64.94 52.3702C65.0036 52.4374 65.0911 52.4783 65.1844 52.4844L65.9965 52.538L66.6302 52.9094C66.6603 52.9268 66.6928 52.9404 66.7273 52.9489L68.6126 53.4232C68.6887 53.443 68.7704 53.4373 68.8431 53.4072L69.869 52.9922C69.9321 52.9668 69.9862 52.9249 70.0264 52.8709L70.5094 52.2184C70.5792 52.1239 70.5984 52.0026 70.5611 51.8917L70.4515 51.5682L70.3645 50.9298L71.31 50.2797C71.4779 50.2717 71.5807 50.3008 71.5927 50.3211C71.6582 50.4344 71.5377 50.8466 71.3445 51.1701C71.3148 51.2194 71.2971 51.2758 71.2938 51.3332L71.2335 52.4008C71.2273 52.5155 71.2765 52.6264 71.3665 52.6993C71.4564 52.7726 71.5774 52.7989 71.6893 52.7712L72.7568 52.5089L73.2948 52.7971C73.3604 52.8323 73.4354 52.8474 73.5096 52.8394C74.7397 52.7106 75.2686 52.4732 75.3346 52.02C75.3848 51.6745 75.1003 51.4065 74.8105 51.2274L74.9989 50.9806C75.8392 50.8438 76.8287 50.2002 76.8732 50.1711C76.9316 50.1326 76.978 50.0785 77.0062 50.0155L77.3764 49.183L78.7695 48.4703C78.8174 48.4458 78.8595 48.4115 78.892 48.3697C79.1689 48.0138 79.4845 47.8338 79.8303 47.8338C80.0102 47.8338 80.1345 47.8846 80.1345 47.8846C80.2254 47.9259 80.3277 47.9292 80.421 47.8949L81.466 47.5033L81.841 47.8719C81.9098 47.9396 82.0031 47.9776 82.1007 47.9776H82.4498C82.5383 48.947 83.4336 49.5943 83.8454 49.843V50.4659Z" fill="#1D3071"/>
<rect x="27.8333" y="28.2658" width="64.6487" height="64.6496" rx="32.3244" stroke="#1D3071" stroke-width="0.678236"/>
<path d="M60.1523 26.8898L60.1523 21.624" stroke="#1D3071" stroke-width="0.678236"/>
<path d="M62.9739 19.5177C62.9739 21.0754 61.7112 22.3381 60.1536 22.3381C58.596 22.3381 57.3333 21.0754 57.3333 19.5177C57.3333 17.9601 58.596 16.6974 60.1536 16.6974C61.7112 16.6974 62.9739 17.9601 62.9739 19.5177Z" fill="#FFDB19" stroke="#1D3071" stroke-width="0.678236"/>
<path d="M60.1523 94.2915L60.1523 99.5573" stroke="#1D3071" stroke-width="0.678236"/>
<path d="M62.9739 101.664C62.9739 100.106 61.7112 98.8432 60.1536 98.8432C58.596 98.8432 57.3333 100.106 57.3333 101.664C57.3333 103.221 58.596 104.484 60.1536 104.484C61.7112 104.484 62.9739 103.221 62.9739 101.664Z" fill="#FFDB19" stroke="#1D3071" stroke-width="0.678236"/>
<path d="M26.4532 60.5906L21.1875 60.5906" stroke="#1D3071" stroke-width="0.678236"/>
<path d="M19.0832 57.7703C20.6408 57.7703 21.9035 59.033 21.9035 60.5906C21.9035 62.1482 20.6408 63.4109 19.0832 63.4109C17.5256 63.4109 16.2629 62.1482 16.2629 60.5906C16.2629 59.033 17.5256 57.7703 19.0832 57.7703Z" fill="#FFDB19" stroke="#1D3071" stroke-width="0.678236"/>
<path d="M93.8574 60.5906L99.123 60.5906" stroke="#1D3071" stroke-width="0.678236"/>
<path d="M101.229 57.7703C99.6717 57.7703 98.409 59.033 98.409 60.5906C98.409 62.1482 99.6717 63.4109 101.229 63.4109C102.787 63.4109 104.05 62.1482 104.05 60.5906C104.05 59.033 102.787 57.7703 101.229 57.7703Z" fill="#FFDB19" stroke="#1D3071" stroke-width="0.678236"/>
<path d="M36.325 84.4207L32.6016 88.1442" stroke="#1D3071" stroke-width="0.678236"/>
<circle cx="3.15944" cy="3.15944" r="2.82032" transform="matrix(-0.707102 -0.707111 0.707102 -0.707112 31.1133 94.1017)" fill="#FFDB19" stroke="#1D3071" stroke-width="0.678236"/>
<path d="M83.9836 36.7605L87.707 33.037" stroke="#1D3071" stroke-width="0.678236"/>
<circle cx="3.15944" cy="3.15944" r="2.82032" transform="matrix(-0.707102 -0.707111 -0.707102 0.707112 93.6641 31.5477)" fill="#FFDB19" stroke="#1D3071" stroke-width="0.678236"/>
<path d="M36.325 36.7606L32.6016 33.0371" stroke="#1D3071" stroke-width="0.678236"/>
<circle cx="3.15944" cy="3.15944" r="2.82032" transform="matrix(-0.707102 0.707111 0.707102 0.707112 31.1133 27.0796)" fill="#FFDB19" stroke="#1D3071" stroke-width="0.678236"/>
<path d="M83.9836 84.4208L87.707 88.1442" stroke="#1D3071" stroke-width="0.678236"/>
<circle cx="3.15944" cy="3.15944" r="2.82032" transform="matrix(-0.707102 0.707111 -0.707102 -0.707112 93.6641 89.6336)" fill="#FFDB19" stroke="#1D3071" stroke-width="0.678236"/>
</svg>
