<svg width="259" height="225" viewBox="0 0 259 225" fill="none" xmlns="http://www.w3.org/2000/svg">
<path d="M148.562 20.3315C148.562 31.3999 139.59 40.3724 128.521 40.3724C117.453 40.3724 108.48 31.3992 108.48 20.3315C108.48 9.26305 117.453 0.290527 128.521 0.290527C139.59 0.291235 148.562 9.26305 148.562 20.3315Z" fill="url(#paint0_linear_883_24673)"/>
<path d="M128.522 40.4325C117.439 40.4325 108.422 31.4153 108.422 20.3314C108.422 9.24807 117.439 0.230957 128.522 0.230957C139.606 0.230957 148.623 9.24807 148.623 20.3314C148.623 31.4153 139.606 40.4325 128.522 40.4325ZM128.522 0.350583C117.505 0.350583 108.542 9.3139 108.542 20.3314C108.542 31.3488 117.505 40.3128 128.522 40.3128C139.54 40.3128 148.503 31.3488 148.503 20.3314C148.503 9.3139 139.539 0.350583 128.522 0.350583Z" fill="url(#paint1_linear_883_24673)"/>
<path d="M150.535 20.3315C150.535 31.3999 141.564 40.3724 130.494 40.3724C119.427 40.3724 110.453 31.3992 110.453 20.3315C110.453 9.26305 119.427 0.290527 130.494 0.290527C141.564 0.291235 150.535 9.26305 150.535 20.3315Z" fill="#F9B233"/>
<path d="M148.723 20.332C148.723 30.3995 140.562 38.5601 130.495 38.5601C120.429 38.5601 112.27 30.3995 112.27 20.332C112.27 10.2651 120.429 2.10449 130.495 2.10449C140.562 2.10449 148.723 10.2651 148.723 20.332Z" fill="#D28C2C"/>
<path d="M145.217 20.4757C145.217 28.6052 138.626 35.1959 130.495 35.1959C122.366 35.1959 115.775 28.6052 115.775 20.4757C115.775 12.3455 122.365 5.75488 130.495 5.75488C138.627 5.75488 145.217 12.3455 145.217 20.4757Z" fill="#FAB600"/>
<path d="M138.567 26.7277C138.361 25.823 137.686 24.9269 136.619 24.8285C136.626 24.8285 136.633 24.8285 136.641 24.8299C136.057 24.7698 135.475 24.7096 134.891 24.6502C134.803 24.641 134.712 24.6374 134.616 24.6395C134.33 24.6473 134.033 24.7132 133.734 24.8349L133.641 24.8774C132.745 25.3417 131.782 25.5909 130.775 25.6171C130.756 25.6178 130.738 25.6171 130.717 25.6178C129.673 25.37 128.786 24.8774 128.1 24.1802L134.765 24.0067L134.763 20.5723L133.015 20.3925L126.562 20.561C126.552 20.4201 126.543 20.2779 126.541 20.1313L134.763 19.9169L134.758 16.4817L133.011 16.3027L127.628 16.4421C128.648 15.0611 130.332 14.2308 132.469 14.1643C132.69 14.2188 132.91 14.2839 133.127 14.3625C133.29 14.4226 133.45 14.4885 133.61 14.5621L133.679 14.5939L133.751 14.6152C133.811 14.6329 133.937 14.6654 134.108 14.6838C134.662 14.7405 135.215 14.7978 135.768 14.8537C135.796 14.8565 135.831 14.8601 135.857 14.8629C135.85 14.8629 135.845 14.8615 135.838 14.8608C135.931 14.8714 136.037 14.8778 136.154 14.8742C137.045 14.8516 138.102 14.2754 138.421 12.7288C138.524 12.4273 138.693 11.7152 138.349 10.9635C138.03 10.2641 137.391 9.76792 136.449 9.48691C135.623 9.1967 134.768 9.00841 133.896 8.92276C133.912 8.92489 133.93 8.92559 133.946 8.92772C133.365 8.86755 132.781 8.80809 132.199 8.74864C131.725 8.6998 131.245 8.68068 130.761 8.69413C130.659 8.69696 130.557 8.70192 130.455 8.70758C130.431 8.709 130.404 8.71041 130.38 8.71183C130.278 8.71749 130.179 8.72457 130.081 8.73306C130.081 8.73306 130.077 8.73306 130.075 8.73306C129.974 8.74227 129.872 8.75288 129.772 8.76421C129.748 8.76704 129.723 8.76987 129.698 8.77341C129.603 8.78544 129.506 8.79748 129.412 8.81163C129.406 8.81234 129.402 8.81305 129.402 8.81305C129.3 8.82791 129.2 8.8449 129.102 8.86189C129.079 8.86543 129.054 8.87109 129.03 8.87463C128.936 8.89162 128.844 8.91002 128.751 8.92913C128.747 8.93055 128.74 8.93126 128.734 8.93267C128.637 8.9532 128.542 8.97444 128.444 8.9985C128.42 9.00416 128.397 9.00983 128.373 9.01549C128.285 9.03743 128.196 9.06008 128.108 9.08486C128.099 9.08698 128.091 9.0884 128.084 9.09052C127.99 9.11671 127.894 9.14432 127.801 9.17263C127.779 9.179 127.756 9.18749 127.732 9.19387C127.646 9.22006 127.56 9.24766 127.475 9.27527C127.466 9.27951 127.458 9.28164 127.45 9.28517C127.356 9.31561 127.265 9.34888 127.173 9.38215C127.151 9.39064 127.129 9.39914 127.105 9.40692C127.024 9.43878 126.942 9.47063 126.86 9.50248C126.849 9.50673 126.838 9.51097 126.828 9.51522C126.737 9.55132 126.65 9.58884 126.562 9.62777C126.54 9.63697 126.517 9.64617 126.495 9.65608C126.418 9.69147 126.339 9.72686 126.26 9.76296C126.249 9.76863 126.237 9.77429 126.225 9.77924C126.138 9.8203 126.053 9.86277 125.967 9.90595C125.947 9.91727 125.925 9.92789 125.903 9.93921C125.829 9.97744 125.754 10.0164 125.681 10.0567C125.67 10.0624 125.661 10.0666 125.652 10.0716C125.648 10.073 125.645 10.0744 125.644 10.0758C125.527 10.1395 125.413 10.2047 125.3 10.2719C125.29 10.2776 125.279 10.2832 125.269 10.2889C125.157 10.3561 125.047 10.4241 124.937 10.4949C124.926 10.5027 124.915 10.5097 124.904 10.5161C124.798 10.5862 124.689 10.6577 124.585 10.7313C124.572 10.7405 124.561 10.7476 124.549 10.7561C124.444 10.829 124.341 10.9047 124.24 10.9804C124.227 10.9904 124.215 10.9988 124.202 11.008C124.101 11.0845 124.002 11.1631 123.904 11.243C123.891 11.253 123.879 11.2629 123.866 11.2735C123.769 11.3535 123.674 11.4342 123.579 11.517C123.566 11.5283 123.554 11.5389 123.541 11.5502C123.447 11.6331 123.354 11.7173 123.263 11.8029C123.25 11.815 123.238 11.8263 123.226 11.839C123.136 11.9247 123.047 12.0118 122.959 12.1002C122.953 12.1073 122.945 12.1144 122.94 12.1201C122.933 12.1264 122.927 12.1335 122.921 12.1399C122.841 12.2213 122.76 12.3055 122.684 12.3904C122.671 12.4039 122.658 12.4181 122.647 12.4322C122.567 12.5179 122.49 12.6056 122.414 12.6948C122.403 12.7061 122.395 12.7161 122.385 12.7274C122.307 12.8201 122.229 12.9142 122.153 13.0091C122.15 13.0126 122.148 13.0155 122.146 13.0183C122.07 13.1139 121.995 13.2101 121.924 13.3085C121.917 13.317 121.911 13.3248 121.905 13.3333C121.834 13.4288 121.765 13.5251 121.697 13.6228C121.687 13.6377 121.678 13.6511 121.668 13.666C121.603 13.7608 121.538 13.8571 121.477 13.9541C121.467 13.9696 121.456 13.9866 121.445 14.0036C121.384 14.1013 121.323 14.1983 121.263 14.2974C121.254 14.3143 121.246 14.3292 121.236 14.3455C121.176 14.4467 121.118 14.5486 121.062 14.6527C121.06 14.6562 121.058 14.6598 121.055 14.664C121.046 14.6796 121.038 14.6959 121.03 14.7121C121.002 14.7631 120.975 14.8155 120.947 14.8679C120.935 14.8934 120.921 14.9181 120.908 14.9429C120.883 14.9932 120.859 15.0441 120.834 15.0944C120.821 15.1184 120.809 15.1432 120.798 15.168C120.77 15.2253 120.743 15.2834 120.716 15.3414C120.709 15.3577 120.7 15.3747 120.693 15.3924C120.658 15.4667 120.625 15.5431 120.592 15.6203C120.588 15.6323 120.58 15.6465 120.575 15.6606C120.549 15.7229 120.523 15.7866 120.498 15.8489C120.488 15.8737 120.479 15.8985 120.469 15.9233C120.447 15.9756 120.428 16.0294 120.407 16.0839C120.397 16.1101 120.388 16.1363 120.378 16.1625C120.357 16.2177 120.338 16.2729 120.319 16.3281C120.31 16.3515 120.302 16.3749 120.295 16.3989C120.268 16.4775 120.241 16.5568 120.217 16.6353L118.109 16.6905L118.111 20.1264L119.709 20.2892C119.713 20.44 119.719 20.5893 119.73 20.7387L118.112 20.7804L118.115 24.2162L119.864 24.396L120.648 24.3755C122.124 27.6464 125.2 30.0233 128.895 30.5577C129.046 30.5797 129.197 30.6002 129.349 30.6151C129.931 30.6745 130.514 30.7347 131.097 30.7942C131.091 30.7942 131.084 30.7927 131.08 30.792C131.553 30.8416 132.039 30.8614 132.529 30.848C133.92 30.8119 135.279 30.5231 136.565 29.9894C136.878 29.886 137.849 29.5052 138.361 28.6013C138.678 28.0364 138.751 27.3895 138.567 26.7277ZM133.245 8.87817C133.226 8.87746 133.206 8.87746 133.188 8.87746C133.207 8.87746 133.226 8.87746 133.245 8.87817Z" fill="#402A00"/>
<path d="M138.34 26.8065C138.12 25.8247 137.36 24.838 136.153 24.838C135.868 24.838 135.572 24.896 135.277 25.01L135.182 25.0511C134.292 25.4927 133.334 25.7171 132.335 25.7171C130.503 25.7171 128.984 25.0829 127.938 23.9829H134.564V20.5421H126.429C126.407 20.3284 126.394 20.1104 126.391 19.8867H134.564V16.4459H127.315C128.316 14.941 130.075 14.0655 132.335 14.0655C133.326 14.0655 134.277 14.2856 135.16 14.7195L135.23 14.7535L135.302 14.7768C135.392 14.8066 135.631 14.8731 135.955 14.8731C136.838 14.8731 137.89 14.3245 138.21 12.7829C138.312 12.4849 138.482 11.7749 138.14 11.014C137.823 10.3047 137.188 9.79013 136.251 9.48576C134.999 9.00868 133.682 8.7666 132.335 8.7666C127.425 8.7666 123.255 11.9986 121.843 16.4466H119.748V19.8874H121.329C121.332 20.1075 121.341 20.3255 121.356 20.5429H119.748V23.9836H122.166C123.824 27.9688 127.758 30.7789 132.335 30.7789C133.719 30.7789 135.068 30.5247 136.349 30.0236C136.661 29.9287 137.625 29.5727 138.133 28.6808C138.45 28.1209 138.521 27.4747 138.34 26.8065Z" fill="#B97C26"/>
<path d="M134.162 16.8662H120.186V19.4661H134.162V16.8662Z" fill="white"/>
<path d="M134.162 20.9629H120.186V23.5628H134.162V20.9629Z" fill="white"/>
<path d="M137.952 26.9085C137.814 26.2842 137.292 25.26 136.173 25.26C135.939 25.26 135.694 25.3074 135.447 25.4037L135.39 25.4285C134.44 25.8985 133.419 26.1377 132.353 26.1377C128.546 26.1377 125.988 23.5796 125.988 19.7714C125.988 16.0482 128.486 13.643 132.353 13.643C133.411 13.643 134.424 13.878 135.367 14.3409L135.409 14.3615L135.453 14.3763C135.507 14.394 135.705 14.4514 135.974 14.4514C136.327 14.4514 137.493 14.3211 137.823 12.669C137.905 12.4397 138.067 11.8338 137.776 11.184C137.509 10.5852 136.955 10.1463 136.129 9.87944C134.925 9.41935 133.653 9.18506 132.354 9.18506C126.518 9.18506 121.77 13.9339 121.77 19.7707C121.77 25.6075 126.518 30.3557 132.354 30.3557C133.691 30.3557 134.995 30.1087 136.231 29.6238C136.46 29.5558 137.343 29.2522 137.787 28.4693C138.05 28.0099 138.107 27.4699 137.952 26.9085Z" fill="white"/>
<path d="M256.254 124.261C256.254 135.33 247.281 144.302 236.214 144.302C225.145 144.302 216.172 135.329 216.172 124.261C216.172 113.193 225.146 104.22 236.214 104.22C247.281 104.221 256.254 113.193 256.254 124.261Z" fill="url(#paint2_linear_883_24673)"/>
<path d="M236.213 144.363C225.129 144.363 216.111 135.346 216.111 124.262C216.111 113.178 225.129 104.161 236.213 104.161C247.296 104.161 256.314 113.178 256.314 124.262C256.314 135.346 247.296 144.363 236.213 144.363ZM236.213 104.281C225.195 104.281 216.231 113.244 216.231 124.262C216.231 135.279 225.195 144.243 236.213 144.243C247.231 144.243 256.194 135.279 256.194 124.262C256.194 113.244 247.231 104.281 236.213 104.281Z" fill="url(#paint3_linear_883_24673)"/>
<path d="M258.226 124.262C258.226 135.33 249.254 144.303 238.185 144.303C227.117 144.303 218.145 135.329 218.145 124.262C218.145 113.194 227.117 104.221 238.185 104.221C249.254 104.221 258.226 113.194 258.226 124.262Z" fill="#F9B233"/>
<path d="M256.412 124.262C256.412 134.329 248.252 142.49 238.186 142.49C228.118 142.49 219.959 134.329 219.959 124.262C219.959 114.194 228.118 106.034 238.186 106.034C248.252 106.034 256.412 114.195 256.412 124.262Z" fill="#D28C2C"/>
<path d="M248.593 134.814C254.341 129.066 254.341 119.745 248.593 113.996C242.844 108.247 233.523 108.247 227.774 113.996C222.026 119.745 222.026 129.066 227.774 134.814C233.523 140.563 242.844 140.563 248.593 134.814Z" fill="#FAB600"/>
<path d="M244.744 124.342C244.241 123.743 243.574 123.253 242.802 122.917C244.396 122.003 245.277 120.552 245.285 118.812C245.294 117.056 244.409 115.575 242.862 114.751C242.505 114.54 242.137 114.368 241.74 114.228L240.989 113.961C240.402 113.754 239.738 113.613 238.966 113.53L238.971 112.228L238.142 111.935L236.155 111.966L236.146 113.449C235.979 113.453 235.805 113.458 235.631 113.463H235.61C235.413 113.471 235.215 113.479 235.017 113.488L234.53 113.515L233.23 113.612L233.224 113.613C233.171 113.619 233.118 113.623 233.065 113.628L232.695 113.665C232.645 113.671 232.596 113.677 232.543 113.682C232.492 113.687 232.443 113.693 232.393 113.698L232.054 113.74C231.962 113.752 231.87 113.764 231.782 113.778L231.482 113.824C231.399 113.837 231.32 113.85 231.245 113.864L231.211 113.871C231.184 113.875 231.158 113.881 231.132 113.885L231.093 113.893C231.07 113.898 231.044 113.903 231.019 113.908L230.988 113.915C230.953 113.922 230.92 113.929 230.886 113.936L230.563 114.008L230.469 133.381V133.449L231.283 133.737L231.566 133.776C232.174 133.859 233.493 133.998 235.478 133.998C235.664 133.998 235.854 133.996 236.045 133.994L236.039 135.169L236.87 135.463L238.857 135.432L238.866 133.819C241.056 133.551 242.661 132.973 243.773 132.052C245.141 130.898 245.868 129.376 245.877 127.647C245.883 126.377 245.493 125.235 244.744 124.342ZM239.488 119.297L239.487 119.328C239.481 119.375 239.477 119.418 239.47 119.457L239.467 119.473C239.46 119.512 239.453 119.549 239.444 119.587L239.437 119.612C239.426 119.654 239.414 119.694 239.401 119.731L239.394 119.753C239.381 119.787 239.368 119.821 239.352 119.854L239.342 119.874C239.327 119.91 239.309 119.947 239.29 119.982L239.275 120.005C239.256 120.038 239.236 120.07 239.215 120.102L239.207 120.114C239.186 120.145 239.162 120.177 239.133 120.213L239.114 120.235C239.082 120.274 239.056 120.303 239.027 120.332C239.001 120.36 238.971 120.388 238.934 120.422L238.932 120.424L238.943 117.899C239.312 118.19 239.497 118.614 239.494 119.161C239.495 119.202 239.492 119.245 239.488 119.297ZM239.897 127.288C239.897 127.335 239.896 127.38 239.893 127.426C239.893 127.434 239.891 127.442 239.891 127.45L239.89 127.468C239.887 127.498 239.886 127.527 239.883 127.556C239.882 127.569 239.88 127.58 239.879 127.593L239.877 127.607C239.873 127.633 239.87 127.658 239.867 127.683C239.865 127.697 239.862 127.713 239.86 127.727L239.857 127.735C239.855 127.758 239.849 127.782 239.845 127.806C239.842 127.822 239.838 127.838 239.833 127.854C239.829 127.877 239.822 127.9 239.817 127.922C239.814 127.937 239.809 127.954 239.805 127.969C239.799 127.991 239.792 128.014 239.786 128.035L239.782 128.045C239.779 128.056 239.775 128.068 239.772 128.078C239.763 128.101 239.757 128.123 239.747 128.145L239.741 128.16C239.739 128.167 239.736 128.174 239.733 128.182C239.722 128.208 239.711 128.235 239.698 128.26L239.69 128.28C239.675 128.312 239.658 128.344 239.642 128.375L239.627 128.4C239.615 128.421 239.603 128.443 239.59 128.465C239.586 128.472 239.58 128.48 239.576 128.486L239.569 128.497C239.556 128.515 239.545 128.533 239.534 128.551C239.527 128.561 239.52 128.57 239.509 128.584C239.497 128.601 239.486 128.617 239.473 128.632C239.465 128.644 239.455 128.654 239.447 128.666C239.436 128.681 239.422 128.696 239.409 128.711C239.4 128.721 239.392 128.732 239.382 128.741C239.368 128.756 239.356 128.77 239.341 128.785L239.337 128.79C239.329 128.798 239.322 128.806 239.314 128.814C239.3 128.828 239.285 128.843 239.269 128.856L239.242 128.882C239.226 128.897 239.208 128.913 239.191 128.928L239.17 128.946C239.138 128.971 239.108 128.996 239.076 129.02L239.051 129.037C239.024 129.058 238.996 129.077 238.968 129.095L238.951 129.108C238.93 129.121 238.908 129.135 238.887 129.148L238.905 125.537C239.568 125.916 239.901 126.503 239.897 127.288Z" fill="#402A00"/>
<path d="M245.014 124.48C244.459 123.829 243.722 123.315 242.858 122.967C244.559 122.109 245.521 120.65 245.521 118.877C245.521 117.151 244.62 115.68 243.054 114.844C241.98 114.211 240.753 113.885 238.99 113.773V112.235H237.059V113.724C234.965 113.733 232.729 113.896 231.572 114.128L231.316 114.179V133.544L231.589 133.584C232.319 133.691 233.907 133.872 236.328 133.872C236.576 133.872 236.82 133.87 237.059 133.864V135.36H238.99V133.751C241.266 133.524 242.928 132.971 244.065 132.066C245.445 130.949 246.175 129.457 246.175 127.751C246.175 126.502 245.773 125.371 245.014 124.48ZM236.246 121.46V117.589C236.445 117.566 236.708 117.543 237.058 117.529V121.46H236.246ZM237.058 125.197V130.021C236.748 130.019 236.481 130.013 236.246 129.996V125.197H237.058ZM238.989 125.371C239.973 125.615 240.987 126.202 240.987 127.581C240.987 129.037 239.972 129.634 238.989 129.872V125.371ZM238.989 121.241V117.645C240.012 117.893 240.532 118.487 240.532 119.418C240.532 120.29 239.987 120.928 238.989 121.241Z" fill="url(#paint4_linear_883_24673)"/>
<path d="M242.044 123.03V122.974C244.207 122.177 245.202 120.584 245.202 118.877C245.202 117.142 244.234 115.834 242.897 115.122C241.775 114.458 240.504 114.163 238.671 114.073V112.554H237.377V114.041C237.329 114.041 237.284 114.041 237.236 114.041C235.075 114.041 232.77 114.212 231.633 114.44V133.271C232.6 133.413 234.193 133.556 236.326 133.556C236.69 133.556 237.04 133.549 237.377 133.539V135.044H238.671V133.463C241.134 133.251 242.783 132.681 243.865 131.821C245.06 130.854 245.856 129.488 245.856 127.754C245.856 125.277 244.234 123.628 242.044 123.03ZM240.85 119.417C240.85 120.533 240.096 121.351 238.672 121.652V117.261C240.073 117.469 240.85 118.204 240.85 119.417ZM235.929 117.312C236.242 117.265 236.679 117.216 237.378 117.203V121.779C237.368 121.779 237.36 121.779 237.351 121.779H235.929V117.312ZM235.929 130.283V124.878H237.378V130.341C236.758 130.34 236.31 130.334 235.929 130.283ZM238.672 130.26V124.98C240.208 125.244 241.305 126.043 241.305 127.582C241.305 129.224 240.157 130.02 238.672 130.26Z" fill="white"/>
<path d="M217.113 71.6244C228.182 71.6244 237.154 62.6517 237.154 51.5834C237.154 40.5151 228.182 31.5425 217.113 31.5425C206.045 31.5425 197.072 40.5151 197.072 51.5834C197.072 62.6517 206.045 71.6244 217.113 71.6244Z" fill="url(#paint5_linear_883_24673)"/>
<path d="M217.112 71.6842C206.029 71.6842 197.012 62.6671 197.012 51.5838C197.012 40.5005 206.029 31.4834 217.112 31.4834C228.195 31.4834 237.212 40.5005 237.212 51.5838C237.212 62.6671 228.195 71.6842 217.112 71.6842ZM217.112 31.603C206.095 31.603 197.131 40.5663 197.131 51.5838C197.131 62.6012 206.095 71.5646 217.112 71.5646C228.13 71.5646 237.093 62.6012 237.093 51.5838C237.093 40.5663 228.13 31.603 217.112 31.603Z" fill="url(#paint6_linear_883_24673)"/>
<path d="M239.127 51.5834C239.127 62.6518 230.155 71.6236 219.086 71.6236C208.019 71.6236 199.045 62.6511 199.045 51.5834C199.045 40.5157 208.019 31.5425 219.086 31.5425C230.156 31.5432 239.127 40.5157 239.127 51.5834Z" fill="#F9B233"/>
<path d="M237.312 51.5836C237.312 61.6505 229.152 69.8111 219.084 69.8111C209.018 69.8111 200.857 61.6505 200.857 51.5836C200.857 41.5161 209.018 33.3555 219.084 33.3555C229.152 33.3555 237.312 41.5168 237.312 51.5836Z" fill="#D28C2C"/>
<path d="M233.807 51.7262C233.807 59.8557 227.216 66.4464 219.085 66.4464C210.956 66.4464 204.365 59.8564 204.365 51.7262C204.365 43.5967 210.956 37.0054 219.085 37.0054C227.216 37.0061 233.807 43.5967 233.807 51.7262Z" fill="#FAB600"/>
<path d="M221.205 53.3137L221.216 52.9188L226.91 40.9988L225.856 40.5656L221.121 40.6442L218.144 46.5426L215.29 40.9557L214.566 40.4312H209.262L215.229 52.562L215.574 53.4079L213.435 53.4433L213.369 55.7657L214.424 56.1989L215.496 56.1805L215.489 56.4679L213.348 56.504L213.284 58.8257L214.338 59.2589L215.408 59.2419L215.332 61.9663L216.385 62.4009L220.951 62.2799L221.041 59.1463L223.23 59.1102L223.297 56.7878L222.242 56.3553L221.118 56.373L221.126 56.087L223.317 56.0502L223.384 53.7285L222.328 53.2939L221.205 53.3137Z" fill="#402A00"/>
<path d="M221.271 52.8937L226.935 40.9561H221.93L218.633 47.5021L215.289 40.9561H210.348L216.447 52.8937V53.7481H214.187V56.0903H216.447V56.8349H214.187V59.1779H216.447V62.3844L221.271 62.3398V59.1779H223.586V56.8349H221.271V56.0903H223.586V53.7481H221.271V52.8937Z" fill="#B97C26"/>
<path d="M222.084 41.2168L218.627 48.0793L215.123 41.2168H210.77L216.703 52.831V62.1199L221.003 62.0795V52.8345L226.515 41.2168H222.084Z" fill="white"/>
<path d="M223.318 54.0083H214.441V55.8274H223.318V54.0083Z" fill="white"/>
<path d="M223.318 57.0962H214.441V58.9153H223.318V57.0962Z" fill="white"/>
<path d="M39.9277 71.6244C50.996 71.6244 59.9686 62.6517 59.9686 51.5834C59.9686 40.5151 50.996 31.5425 39.9277 31.5425C28.8593 31.5425 19.8867 40.5151 19.8867 51.5834C19.8867 62.6517 28.8593 71.6244 39.9277 71.6244Z" fill="url(#paint7_linear_883_24673)"/>
<path d="M39.9285 71.6842C28.8452 71.6842 19.8281 62.6671 19.8281 51.5838C19.8281 40.5005 28.8452 31.4834 39.9285 31.4834C51.0118 31.4834 60.0289 40.5005 60.0289 51.5838C60.0289 62.6671 51.0125 71.6842 39.9285 71.6842ZM39.9285 31.603C28.9111 31.603 19.9477 40.5663 19.9477 51.5838C19.9477 62.6012 28.9111 71.5646 39.9285 71.5646C50.946 71.5646 59.9093 62.6012 59.9093 51.5838C59.9093 40.5663 50.946 31.603 39.9285 31.603Z" fill="url(#paint8_linear_883_24673)"/>
<path d="M61.9439 51.5837C61.9439 62.6521 52.9714 71.6239 41.9023 71.6239C30.8353 71.6239 21.8613 62.6514 21.8613 51.5837C21.8613 40.516 30.8353 31.5435 41.9023 31.5435C52.9714 31.5435 61.9439 40.516 61.9439 51.5837Z" fill="#F9B233"/>
<path d="M60.1307 51.5836C60.1307 61.6505 51.9701 69.8111 41.9025 69.8111C31.8364 69.8111 23.6758 61.6505 23.6758 51.5836C23.6758 41.5161 31.8364 33.3555 41.9025 33.3555C51.9694 33.3555 60.1307 41.5168 60.1307 51.5836Z" fill="#D28C2C"/>
<path d="M56.6219 51.7262C56.6219 59.8557 50.0313 66.4464 41.9011 66.4464C33.7723 66.4464 27.1816 59.8564 27.1816 51.7262C27.1816 43.5967 33.7723 37.0054 41.9011 37.0054C50.032 37.0061 56.6219 43.5967 56.6219 51.7262Z" fill="#FAB600"/>
<path d="M49.5749 40.9706L48.39 40.3994L33.8199 40.5339L33.7704 44.9381L35.0728 45.5079L38.1476 45.4095L38.5943 45.4052L39.0119 45.4229H39.0133L39.048 45.4258L33.7491 45.5709L33.752 49.2035L34.9369 49.774L39.5845 49.6246C39.5831 49.6253 39.5831 49.626 39.5817 49.6275C39.569 49.6381 39.5569 49.648 39.5442 49.6579C39.5138 49.6813 39.4847 49.7039 39.4543 49.7273C39.3991 49.7683 39.341 49.8073 39.2816 49.8462C39.2639 49.8575 39.2455 49.8681 39.2278 49.8795C39.1825 49.9078 39.1365 49.9347 39.0883 49.9623C39.0692 49.9729 39.0508 49.9828 39.0317 49.9941C38.997 50.0118 38.9624 50.0302 38.927 50.0479C38.905 50.0585 38.8824 50.0699 38.859 50.0812C38.8187 50.1003 38.7776 50.1187 38.7358 50.1364C38.7167 50.1449 38.6983 50.1534 38.6792 50.1626C38.6169 50.1881 38.5546 50.2128 38.4895 50.2362C38.4244 50.2603 38.3593 50.2822 38.2934 50.3042C38.2715 50.3112 38.2489 50.3176 38.2283 50.3233C38.1816 50.3381 38.1342 50.3516 38.086 50.3657C38.0599 50.3735 38.0323 50.3799 38.0046 50.3863C37.9615 50.399 37.9176 50.4096 37.8716 50.4202C37.8426 50.428 37.8121 50.4344 37.7817 50.4401C37.7385 50.4507 37.6932 50.4592 37.6486 50.4691C37.6168 50.4747 37.5849 50.4818 37.5531 50.4868C37.5077 50.4946 37.4617 50.5023 37.4164 50.5101C37.3846 50.5151 37.3513 50.5208 37.318 50.525C37.2713 50.5321 37.2239 50.5392 37.1758 50.5441C37.1425 50.5498 37.1092 50.554 37.076 50.5569C37.025 50.5639 36.9733 50.5689 36.9238 50.5731C36.8905 50.576 36.8587 50.5802 36.8254 50.583C36.7688 50.588 36.7107 50.5922 36.6527 50.5958C36.6251 50.5979 36.5975 50.6007 36.5685 50.6029C36.4814 50.6071 36.3943 50.6114 36.3044 50.6142L33.3379 50.4762V54.3105L33.5934 54.5986C36.2336 57.5793 38.5454 59.9505 40.7716 62.8201L41.2055 63.4253L42.5107 63.8783L47.5887 63.5803L46.3429 61.9452C45.4029 60.7086 44.4353 59.4487 43.4649 58.2185L43.4578 58.2085L43.4507 58.2008C43.2115 57.8978 42.9722 57.597 42.733 57.299L42.7259 57.2912L42.7217 57.2841C42.481 56.9847 42.2403 56.6874 42.0011 56.3944L41.9968 56.3887L41.994 56.3859C41.7533 56.0914 41.5127 55.8012 41.2734 55.5152L41.2706 55.5096L41.2664 55.5053C41.0271 55.2179 40.7864 54.9348 40.5486 54.658C41.4667 54.4181 42.304 54.0564 43.0317 53.5821C43.2738 53.4243 43.5045 53.2544 43.7218 53.0718C44.286 52.6004 44.7616 52.0511 45.1418 51.4374L45.1432 51.436L45.1446 51.4346C45.2387 51.2824 45.3286 51.1245 45.41 50.9646C45.5771 50.6425 45.7179 50.3049 45.8354 49.9538L45.8368 49.9524C45.8935 49.7768 45.9459 49.5984 45.9919 49.4165L49.3336 49.3096L49.4511 45.6983L48.2661 45.1285L45.8772 45.2042L45.8397 45.098L45.7887 44.9635L45.7335 44.8305L45.674 44.6995L49.4581 44.5785L49.5749 40.9706Z" fill="#402A00"/>
<path d="M46.0336 49.437H49.6046V45.7719H45.9699C45.8609 45.3698 45.7143 44.9897 45.5303 44.6329H49.5727V40.9678H34.2148V45.1072H37.5013C38.8158 45.1072 39.806 45.3295 40.4615 45.7719H34.2156V49.437H41.0447C40.8692 49.7124 40.6328 49.9502 40.3355 50.1548C39.564 50.6856 38.4399 50.9546 36.9966 50.9546H34.2148V54.3699L34.498 54.6708C37.4263 57.7852 39.7168 60.5139 42.1985 63.5031L42.5107 63.8797H48.23L46.8419 62.1788C44.7361 59.5973 42.5163 56.9167 40.3914 54.5844C41.6896 54.3006 42.8271 53.7895 43.7317 53.0774C44.906 52.1544 45.6938 50.9051 46.0336 49.437Z" fill="#B97C26"/>
<path d="M45.6042 48.8109H49.1143V46.2677H45.5589C45.3847 45.3814 45.0322 44.6064 44.5084 43.9502H49.0832V41.4062H34.707V44.4294H37.4499C39.6937 44.4294 41.1229 45.0474 41.7111 46.2684H34.707V48.8116H41.9114C41.4704 50.5593 39.7284 51.5134 36.9388 51.5134H34.7077V54.1551L34.8366 54.291C37.8116 57.4571 40.1354 60.2248 42.6532 63.2564L42.7941 63.4263H47.08L46.4521 62.6569C44.0703 59.7356 41.5596 56.7125 39.2145 54.2053C40.8808 54.0128 42.3113 53.4713 43.395 52.6191C44.5962 51.6741 45.3543 50.3639 45.6042 48.8109Z" fill="white"/>
<path d="M40.869 124.262C40.869 135.33 31.8965 144.303 20.828 144.303C9.75963 144.303 0.787109 135.329 0.787109 124.262C0.787109 113.194 9.75963 104.221 20.828 104.221C31.8965 104.221 40.869 113.194 40.869 124.262Z" fill="url(#paint9_linear_883_24673)"/>
<path d="M20.8289 144.363C9.74563 144.363 0.728516 135.346 0.728516 124.262C0.728516 113.179 9.74563 104.162 20.8289 104.162C31.9122 104.162 40.9293 113.179 40.9293 124.262C40.9293 135.346 31.9122 144.363 20.8289 144.363ZM20.8289 104.281C9.81146 104.281 0.84814 113.245 0.84814 124.262C0.84814 135.279 9.81146 144.243 20.8289 144.243C31.8464 144.243 40.8097 135.279 40.8097 124.262C40.8097 113.245 31.8464 104.281 20.8289 104.281Z" fill="url(#paint10_linear_883_24673)"/>
<path d="M42.8443 124.262C42.8443 135.33 33.8704 144.303 22.8034 144.303C11.7349 144.303 2.76172 135.329 2.76172 124.262C2.76172 113.194 11.7357 104.221 22.8034 104.221C33.8704 104.221 42.8443 113.194 42.8443 124.262Z" fill="#F9B233"/>
<path d="M41.0291 124.262C41.0291 134.329 32.8685 142.49 22.8024 142.49C12.7348 142.49 4.57422 134.329 4.57422 124.262C4.57422 114.195 12.7348 106.034 22.8024 106.034C32.8685 106.034 41.0291 114.195 41.0291 124.262Z" fill="#D28C2C"/>
<path d="M37.5237 124.405C37.5237 132.535 30.9331 139.126 22.8029 139.126C14.6727 139.126 8.08203 132.535 8.08203 124.405C8.08203 116.275 14.6727 109.685 22.8029 109.685C30.9331 109.685 37.5237 116.275 37.5237 124.405Z" fill="#FAB600"/>
<path d="M33.7053 123.441L36.1155 117.7L34.8215 117.414L30.6213 117.406L28.0292 123.545L26.9483 123.555L25.0095 117.7L24.2076 117.149L21.3253 117.164L19.2782 123.701L17.7103 123.713L14.9356 117.7L14.0657 117.172L9.75781 117.164L12.4568 123.469L10.2264 123.493V125.415L11.1657 125.816H13.4782L13.7479 126.537H10.2264V128.216L11.16 128.602L14.6093 128.606L15.9004 132.038L16.9664 132.497H20.6578L21.9984 128.396L23.9839 128.411L25.1242 132.319L26.2114 132.497H29.9021L31.6993 128.216H35.4975V126.537L34.0443 126.227L32.5459 126.252L32.8764 125.415H35.4975V123.735L34.1052 123.437L33.7053 123.441Z" fill="#402A00"/>
<path d="M36.1159 117.699H31.7125L29.0786 123.735H27.0259L25.01 117.699H21.8594L19.8343 123.735H17.7108L14.9361 117.699H10.7832L13.3059 123.735H11.1562V125.415H14.0067L14.4753 126.537H11.1562V128.216H15.1782L16.9669 132.497H20.6582L22.0576 128.216H24.8061L26.2119 132.497H29.9033L31.7004 128.216H35.498V126.537H32.4054L32.8769 125.415H35.498V123.735H33.5819L36.1159 117.699ZM18.4823 125.415H19.2871C19.1534 125.861 19.0606 126.234 19.0054 126.537H18.9983L18.4823 125.415ZM22.6062 126.537L22.8412 125.816L22.8716 125.713C22.9021 125.611 22.9325 125.512 22.9615 125.415H23.9001C23.9362 125.543 23.9744 125.672 24.0134 125.8L24.2554 126.537H22.6062ZM27.8569 126.537H27.8498C27.7989 126.224 27.7104 125.849 27.583 125.415H28.346L27.8569 126.537Z" fill="#B97C26"/>
<path d="M35.1243 118.385H32.0126L29.4743 124.039H26.5765L24.7708 118.287H22.2119L20.3319 124.039H17.2861L14.694 118.287H11.5293L14.0081 124.039H11.5293V125.111H14.4696L15.215 126.841H11.5293V127.912H15.6779L17.3456 131.783H20.2059L21.4291 127.912H25.3349L26.4781 131.783H29.4297L31.0748 127.912H34.9636V126.841H31.5292L32.2646 125.111H34.9636V124.039H32.7212L35.1243 118.385ZM23.4492 121.522L24.1918 124.04H22.6543L23.4492 121.522ZM17.7703 125.111H19.9823L19.4167 126.841H18.551L17.7703 125.111ZM19.0529 127.955L19.0338 127.912H19.067L19.0529 127.955ZM21.7681 126.841L22.3153 125.111H24.5082L25.0185 126.841H21.7681ZM28.2179 126.841H27.4563L26.9127 125.111H28.9944L28.2179 126.841Z" fill="white"/>
<path d="M211.167 136.201C211.192 181.389 174.583 218.043 129.395 218.069C84.2048 218.095 47.5552 181.483 47.5293 136.295C47.5034 91.1088 84.1125 54.4551 129.301 54.4292C174.49 54.4025 211.141 91.0149 211.167 136.201Z" fill="#1D2F71"/>
<path d="M73.5889 93.293C74.3537 92.9038 75.4066 92.7929 76.2774 92.6408C77.9421 92.3437 80.1175 93.6313 81.6673 92.7411C82.0768 92.5186 82.2589 92.135 82.6675 91.8978C83.052 91.6534 83.5877 91.5838 84.0102 91.4244C84.8065 91.1274 85.8157 90.7624 85.9703 89.8163C86.2762 88.0763 83.8953 88.7343 82.9079 88.6016C82.9977 88.3167 83.5238 88.0148 83.5715 87.7486C83.6767 87.1546 83.2672 87.1562 83.0091 86.7159C82.4733 85.8468 82.8585 85.031 83.09 84.1958C83.3069 83.3744 83.1167 82.243 82.3082 81.9435C81.155 81.5267 80.8337 82.7294 80.1466 83.2141C79.7088 83.5233 78.6462 83.7976 78.2618 83.2279C77.9413 82.7617 78.0821 81.5114 77.8515 80.9424C77.3505 79.7455 76.9038 79.6759 75.6469 79.5488C74.8676 79.4711 74.0114 79.3805 73.2401 79.4639C72.3831 79.5537 71.7041 79.9227 71.539 80.834C71.4734 81.2119 71.7308 81.5721 71.5252 81.929C71.28 82.3385 70.6261 82.3255 70.2449 82.5173C69.116 83.1024 69.9228 83.4585 70.0644 84.42C70.2174 85.4405 69.5247 86.1049 68.6943 86.5444C67.9635 86.9288 67.4642 87.2234 66.9017 87.7551C66.5546 88.082 66.2478 88.1411 66.0431 88.6137C65.8513 89.0305 65.929 89.4675 65.6214 89.8989C65.1601 90.5609 64.4917 91.5863 63.5594 91.3556C62.7905 91.1735 62.4603 90.3877 62.534 89.6439C62.5866 89.2013 62.8391 88.7885 63.0098 88.3539C56.9151 96.7827 52.3871 106.418 49.8516 116.835C49.9511 117.319 49.8653 117.902 49.9713 118.324C50.0855 118.727 50.3056 119.003 50.3825 119.418C50.4593 119.821 50.2546 120.251 50.2918 120.623C50.393 121.576 51.2015 121.758 51.9436 121.302C52.7116 120.836 52.994 119.821 53.0313 118.991C53.1114 117.792 52.4186 116.933 52.2657 115.91C52.0318 114.214 54.1214 114.356 55.0043 113.714C55.9658 113.028 56.1851 111.653 57.2307 111.057C58.1039 110.558 59.1908 110.448 59.7185 109.434C60.1919 108.497 58.9229 105.678 60.5002 105.301C61.0085 105.174 61.2035 105.717 61.6769 105.655C62.1374 105.598 62.7533 104.706 63.0471 104.358C63.7892 103.514 64.2384 103.362 65.3252 103.252C66.3652 103.149 67.325 102.882 67.8235 101.882C68.0032 101.511 67.902 101.032 68.1181 100.678C68.5397 99.9786 68.6425 100.366 69.298 100.17C70.372 99.8613 71.2436 98.9686 72.3831 98.602C72.8962 98.4345 74.4856 97.8348 74.7769 98.3325C75.2779 99.1734 73.2806 98.8966 72.9957 99.5902C72.2932 101.29 75.341 99.2745 75.6235 99.1612C76.4927 98.8132 78.6324 99.0415 78.2715 97.4431C77.7341 97.4107 77.3003 97.4763 76.8026 97.5791C76.0087 97.7458 76.2086 97.8672 75.74 97.346C75.1241 96.6637 75.0707 96.0228 75.6235 95.3956C76.3502 94.5612 76.771 94.2537 75.1994 94.1145C74.726 94.07 74.2137 94.0457 73.767 94.2043C73.5493 94.2739 72.8306 94.9205 72.6388 94.8671C71.5398 94.6001 73.2409 93.4719 73.5889 93.293Z" fill="white"/>
<path d="M76.0713 196.502C77.558 196.342 80.0676 194.679 79.2105 192.827C79.0163 192.424 77.5199 191.232 78.5437 191.045C78.6958 191.015 79.4914 191.503 79.7487 191.548C80.2869 191.658 80.7352 191.658 81.2321 191.478C82.2446 191.111 83.0102 190.015 83.3986 189.037C83.728 188.186 83.783 188.028 84.4993 187.423C86.0248 186.163 86.3048 184.357 86.1891 182.496C86.0709 180.766 85.8038 179.116 88.1095 178.886C88.5959 178.831 88.9026 178.886 89.3154 178.708C89.826 178.498 89.966 178.299 90.5188 178.199C91.6971 177.974 91.8233 177.71 92.3737 176.652C92.7832 175.866 93.2582 175.085 93.6046 174.239C94.078 173.098 93.9744 172.173 94.129 170.963C94.2448 170.028 94.5256 169.152 94.6025 168.209C94.6793 167.272 94.4495 166.37 95.0638 165.621C95.678 164.866 96.3708 164.645 96.8159 163.734C97.5467 162.281 98.2143 161.295 98.2143 159.628C98.2143 158.969 98.4442 157.855 98.2143 157.248C97.8817 156.312 97.2626 156.769 96.4986 156.555C94.9092 156.094 95.0112 153.815 93.2744 153.579C92.5517 153.476 91.8112 153.663 91.0926 153.558C90.0421 153.406 89.3906 153.523 88.3928 153.547C88.5465 152.477 87.1877 151.889 86.431 151.512C85.9843 151.285 86.202 151.223 85.6104 151.305C85.4065 151.335 85.0609 151.521 84.8586 151.606C84.2921 151.856 83.9222 152.081 83.4213 152.437C83.2942 151.787 83.8955 151.383 83.7393 150.747C81.7088 149.887 80.8736 151.426 79.4914 152.522C79.1053 151.586 79.6314 151.242 80.2707 150.666C80.7984 150.183 81.0015 149.926 81.1326 149.179C81.3373 147.878 80.6195 146.436 80.2707 145.193C79.9502 144.064 79.5051 144.146 78.4538 144.146C77.7117 144.146 76.9696 144.186 76.2388 143.999C73.535 143.32 72.5768 140.388 70.0801 139.506C68.8759 139.073 67.6716 138.954 66.4027 138.755C65.8402 138.665 65.226 138.487 64.6764 138.313C63.8558 138.046 63.6236 137.533 63.049 137.04C62.4614 136.538 61.9467 136.68 61.2305 136.91C60.7546 137.072 59.2477 137.781 60.2197 138.255C60.2933 138.621 60.4091 139.229 60.2051 139.595C59.8992 140.152 59.2073 140.011 58.9361 140.477C58.2442 139.908 58.1309 139.159 58.4142 138.326C58.6561 137.609 59.5779 137.091 59.5148 136.289C58.7217 136.137 58.1827 136.994 57.5547 137.281C56.925 137.577 56.3399 137.707 55.7087 138.177C55.4546 138.385 55.2126 138.544 55.0062 138.827C54.8047 139.113 54.7788 139.544 54.5077 139.804C54.3135 140.003 53.9177 140.081 53.6361 140.139C52.9838 140.273 53.3294 140.342 52.7653 139.954C51.9341 139.39 51.8435 139.466 50.908 139.697C50.1812 139.882 49.503 140.049 48.7852 140.31C48.2859 140.49 48.731 140.855 48.0147 140.466C47.8836 140.401 47.7493 140.256 47.623 140.097C47.653 140.739 47.691 141.377 47.7355 142.015C48.2195 142.438 48.803 142.865 49.3582 142.608C50.0404 142.295 49.8567 141.279 49.885 140.65C50.6409 140.61 51.383 140.516 51.9973 140.957C52.6366 141.432 52.5613 142.2 52.9433 142.884C53.8052 144.441 53.2792 146.041 52.253 147.399C51.3086 148.647 50.3844 149.671 49.6795 151.066C49.4464 151.541 49.2934 151.714 49.2562 152.278C49.2044 153.013 49.5257 152.776 49.7313 153.295C49.8858 153.699 49.7596 154.109 49.5767 154.507C50.2791 157.584 51.1572 160.595 52.1947 163.53C52.219 163.575 52.2417 163.614 52.2676 163.657C52.7548 164.471 52.8802 165.353 53.3164 166.132C53.7016 166.825 54.3135 167.467 54.7359 168.169C55.3121 169.152 55.3251 169.33 56.4565 169.389C57.7214 169.445 58.0419 169.881 59.0009 170.651C60.9723 172.225 62.4736 173.267 61.8318 175.801C61.2442 178.109 61.4101 180.687 62.1215 182.888C65.7463 188.104 69.9619 192.88 74.6736 197.116C74.6898 196.996 74.7181 196.888 74.7788 196.803C75.1252 196.343 75.559 196.568 76.0713 196.502Z" fill="white"/>
<path d="M55.8377 127.669C56.2714 127.754 56.5668 127.951 57.0047 127.843C57.1066 127.567 57.4117 127.244 57.3632 126.947C57.2976 126.621 56.7335 126.439 56.4551 126.315C55.798 126.03 55.0947 125.797 54.4772 125.434C53.8266 125.057 53.3369 124.578 52.6094 124.333C51.6609 124.027 50.7286 124.034 49.7688 123.777C49.2168 123.629 49.1529 123.796 48.626 123.912C48.5694 123.924 48.5095 123.93 48.4504 123.937C48.4132 124.178 48.3825 124.422 48.3477 124.665C49.3884 124.021 50.2762 124.541 51.2927 124.905C51.7523 125.073 52.2379 125.135 52.6345 125.449C52.8659 125.63 53.4421 126.045 53.5053 126.307C53.6461 126.794 52.8659 126.749 53.0828 127.285C53.2884 127.816 54.4036 127.694 54.8269 127.669C55.1724 127.656 55.4921 127.608 55.8377 127.669Z" fill="white"/>
<path d="M62.2926 128.209C61.8564 127.789 61.4995 127.844 60.8966 127.844C60.3309 127.844 59.5402 127.874 59.1153 127.505V127.37C58.629 127.277 58.9235 127.946 58.9883 128.135C59.1064 128.457 59.2594 128.676 58.7334 128.782C58.3724 128.86 57.8634 128.646 57.5283 128.821C57.1318 129.039 57.2208 129.432 57.5931 129.558C58.196 129.758 59.015 129.277 59.6147 129.346C59.8227 129.375 59.8599 129.522 59.9845 129.547C60.1925 129.599 60.4361 129.547 60.6425 129.55C61.0083 129.574 61.5748 129.714 61.9357 129.591C62.1648 129.513 62.6374 128.924 62.2036 128.866C62.8567 129.018 62.5621 128.473 62.2926 128.209Z" fill="white"/>
<path d="M52.6484 129.337C52.803 129.388 52.9827 129.367 53.1243 129.434C53.3371 129.523 53.3371 129.649 53.4683 129.759C53.711 129.988 54.0048 130.034 54.4556 129.984C54.8392 129.944 54.9922 129.784 54.594 129.473C54.301 129.248 53.9765 129.443 53.936 129.03C53.4618 128.952 53.0304 129.037 52.6484 129.337Z" fill="white"/>
<path d="M69.752 140.102C69.7513 140.143 69.7563 140.171 69.7591 140.204C69.7869 140.208 69.8146 140.208 69.8438 140.214L69.752 140.102Z" fill="white"/>
<path d="M64.1758 129.513C64.3182 129.841 64.5238 129.649 64.7641 129.726C65.0571 129.815 65.172 129.975 65.4933 129.975C66.0315 129.975 66.5065 129.835 66.4167 129.175C65.8275 129.131 65.6989 129.534 65.1518 129.17L65.3161 129.089C64.7641 128.867 64.493 129.072 64.1758 129.513Z" fill="white"/>
<path d="M81.6533 95.3307C82.2579 95.5346 82.9863 94.926 83.6669 95.0458C84.2131 95.1494 84.5102 95.5241 85.1252 95.4367C85.5728 95.3744 86.4201 94.8985 86.3392 94.3498C86.2509 93.5737 85.3915 93.9848 84.9326 93.6967C84.7028 93.5575 84.5862 93.2346 84.5506 92.9967C84.4729 92.5491 84.6631 92.6503 84.7384 92.2942C84.8055 92.0304 85.0985 91.8402 84.4972 91.7949C84.1363 91.7698 84.0375 91.9454 83.8862 92.2165C82.9911 92.4908 82.7232 93.9071 82.1656 94.485C81.8986 94.7464 80.9128 95.0733 81.6533 95.3307Z" fill="white"/>
<path d="M79.9913 72.2733C80.3612 72.6828 80.4648 73.2324 80.9002 73.5399C81.1834 73.7503 81.5792 73.8159 81.86 74.0586C82.3334 74.4431 82.6402 74.974 82.2954 75.5008C81.966 76.0236 81.5274 75.7954 81.092 75.5429C80.6582 75.3058 80.3256 75.0751 79.8254 75.0962C79.5956 75.1091 79.2711 75.1285 79.0687 75.2297C78.8389 75.3446 78.6342 75.6262 78.4432 75.8148C78.1089 76.1709 77.7366 76.65 77.2397 76.7649C76.6093 76.9154 75.4836 76.3676 74.9195 76.6986C74.6249 76.8693 74.5748 77.2351 74.8572 77.4132C75.1396 77.5864 75.8162 77.2521 76.0857 77.2165C76.6498 77.1396 77.5319 77.1574 77.9794 77.4714C78.4925 77.8113 78.6212 78.6044 79.0825 79.0641C79.6846 79.6606 80.4122 79.9212 81.2587 79.9123C81.567 79.9034 82.1789 79.977 82.0542 79.4623C81.966 79.1483 81.2716 79.2446 81.1041 79.0034C81.0167 78.8683 81.0305 78.2022 81.1324 78.1003C81.5144 77.745 81.9757 78.3333 82.2306 78.4491C82.6822 78.6554 83.7278 78.7137 83.8962 78.0444C83.986 77.6673 83.7278 77.5661 83.5878 77.2788C83.3839 76.8815 83.3321 76.7471 83.3321 76.2559C83.3183 74.4018 85.1651 75.8318 86.0877 76.0738C86.8023 76.2737 87.7889 75.5615 87.1884 74.8331C86.8177 74.4018 85.8822 74.4285 85.4468 73.9089C85.191 73.6208 84.911 73.1765 84.9345 72.7832C84.9474 72.4627 85.3181 72.2911 85.3181 72.0815C85.3456 71.6033 84.385 71.2027 83.9617 71.1193C83.3078 70.9898 82.9242 71.1881 82.5147 70.5407C82.1967 70.0478 82.1335 69.7581 81.7556 69.6885C80.8864 70.3124 80.0286 70.9526 79.1837 71.6097C79.5074 71.7934 79.7995 72.0484 79.9913 72.2733Z" fill="white"/>
<path d="M90.0967 65.3946C90.7101 66.2087 93.2756 65.5743 94.2832 65.7288C95.3069 65.8761 96.5621 66.8003 97.2565 67.5409C97.8821 68.2174 98.0359 69.5892 98.0966 70.4996C98.1904 72.0608 96.7968 73.0934 96.0377 74.2135C94.8464 75.9866 96.8697 78.3417 97.1262 80.0954C97.2646 81.0625 98.4324 81.3717 99.3955 81.1175C100.135 80.9176 100.945 80.1933 101.544 79.6851C102.518 78.8345 102.518 77.5939 103.635 76.8331C104.772 76.0327 105.836 75.9154 107.14 75.6653C110.024 75.1166 112.366 72.9048 115.338 72.9194C116.591 72.9194 117.885 73.125 119.192 73.0457C119.95 73.0028 120.587 72.6103 119.588 72.1627C118.822 71.8171 118.09 71.9199 118.09 70.812C118.104 69.8894 118.797 70.0132 119.474 70.3531C119.896 70.5692 120.995 71.5938 121.562 71.2337C122.444 70.6833 121.239 70.1452 120.871 69.9671C120.331 69.7114 119.435 69.4403 119.653 68.6811C119.896 67.7982 121.676 67.7909 122.421 67.5166C123.211 67.2196 124.096 66.6717 124.545 65.9271C125.004 65.1381 124.713 64.2721 124.966 63.4871C125.451 61.9956 127.785 62.7539 128.746 61.879C129.143 61.5246 129.194 61.5399 128.668 61.3684C127.924 61.1183 126.9 61.5157 126.145 61.5626C125.005 61.6355 125.096 61.1232 124.225 60.5979C123.277 60.0161 121.624 60.343 120.537 60.343C119.358 60.343 118.177 60.3179 117.038 60.5745C115.338 60.9581 113.824 61.8871 111.997 61.879C110.505 61.8726 109.038 61.4954 107.527 61.6354C105.565 61.8175 103.634 61.6945 101.697 61.6249C100.675 61.5853 99.2789 61.5027 98.3442 61.9422L98.4713 61.879C97.0364 62.2019 95.7553 63.0655 94.271 63.3414C93.2894 63.5219 92.2875 63.5527 91.3236 63.7906C90.9279 63.9978 90.5329 64.2074 90.1412 64.421C89.9098 64.6938 89.8215 65.0345 90.0967 65.3946Z" fill="white"/>
<path d="M128.577 86.4361C128.257 86.4555 127.961 86.6449 127.679 86.7679C127.127 87.0059 126.451 86.8578 125.901 86.7485C125.567 86.6797 125.312 86.6409 125.014 86.8505C124.734 87.0496 124.62 87.1653 124.26 87.2276C123.863 87.2997 123.747 87.3191 123.477 87.5813C123.351 87.7091 122.814 87.9859 122.996 88.215C123.098 88.3623 123.237 88.215 123.34 88.1899C123.545 88.1389 123.545 88.0677 123.785 88.1575C124.083 88.2659 124.324 88.5233 124.591 88.7013C125.13 89.0769 125.847 88.8373 126.362 88.5492C126.678 88.3614 126.861 88.4391 127.243 88.3817C127.563 88.3291 127.847 88.1567 128.14 88.0272C128.437 87.909 128.87 87.9398 129.072 87.6986C129.19 87.574 129.19 87.4121 129.306 87.2843C129.382 87.2041 129.65 87.1766 129.689 87.1078C129.702 87.0949 129.752 87.0496 129.766 87.0326C129.667 86.9436 129.499 86.7866 129.348 86.734C129.061 86.6635 128.94 86.4054 128.577 86.4361Z" fill="white"/>
<path d="M128.015 90.3326C127.961 90.6539 127.961 91.0772 128.371 91.0464C128.832 91.0149 128.884 90.4929 129.267 90.4379C129.893 90.3488 130.688 90.8724 131.214 90.3424C131.496 90.0542 131.74 89.4691 131.547 89.0847C131.369 88.7092 130.857 88.5668 130.484 88.3539C130.229 88.2018 130.075 87.7478 129.754 87.7729H129.819C129.473 87.6021 129.203 88.0998 129.014 88.3046C128.846 88.4802 128.371 88.5287 128.371 88.799C128.383 89.1875 128.872 89.0159 128.54 89.5088C128.356 89.7767 128.077 89.9976 128.015 90.3326Z" fill="white"/>
<path d="M131.79 87.543C131.828 87.0323 130.832 87.581 130.779 87.2573L130.819 87.3196C130.629 87.3196 130.37 87.2573 130.254 87.4216C130.498 87.6466 130.666 87.9129 130.947 88.0998C131.203 88.2754 131.778 88.4308 131.675 87.8732C131.303 87.8829 131.495 87.5106 131.79 87.543Z" fill="white"/>
<path d="M138.986 107.766C138.786 107.801 138.224 107.967 138.144 108.185C138.033 108.502 138.805 108.399 138.986 108.36C139.534 108.235 140.048 107.899 140.565 107.703C141.022 107.524 141.351 107.653 141.819 107.682C142.275 107.709 143.028 107.53 143.398 107.223C143.521 107.12 143.691 106.987 143.655 106.809C143.62 106.659 143.464 106.657 143.386 106.556C143.162 106.216 143.68 106.148 143.566 105.807C143.476 105.508 143.149 105.683 142.914 105.66C142.535 105.625 142.389 105.213 142.265 104.881C142.109 104.456 142.121 103.868 141.865 103.504C141.661 103.229 141.245 103.118 140.954 103.015C140.786 102.961 140.407 102.915 140.315 102.772C140.083 102.442 140.608 102.279 140.73 102.071C140.947 101.69 140.484 101.656 140.217 101.629C140.059 101.617 139.903 101.634 139.803 101.499C139.721 101.376 139.733 101.065 139.61 101.001C139.52 100.956 139.277 101.044 139.186 101.079C138.94 101.157 138.582 101.288 138.448 101.534C138.289 101.796 138.48 102.221 138.659 102.434C138.737 102.535 138.805 102.491 138.851 102.657C138.896 102.842 138.749 102.967 138.749 103.132C138.749 103.56 139.13 103.518 139.433 103.587C139.733 103.648 139.772 103.765 139.982 103.979C140.238 104.241 140.238 104.36 140.225 104.763C140.218 105.038 140.206 105.368 139.892 105.485C139.599 105.599 139.4 105.452 139.154 105.749C139.028 105.886 139.055 106.022 138.985 106.191C138.909 106.451 138.736 106.527 138.569 106.7C138.896 106.823 140.026 106.79 139.758 107.38C139.611 107.683 139.253 107.72 138.986 107.766Z" fill="white"/>
<path d="M181.874 73.519C181.173 73.6477 180.547 73.9634 179.852 74.0006C178.568 74.0532 177.239 73.4632 175.998 73.9027C175.445 74.0985 175.242 74.8091 174.78 74.9612C174.048 75.204 173.334 74.6585 172.526 75.0454C171.655 75.4597 170.989 76.4527 170.079 76.9391C167.929 78.0916 166.059 76.9359 164.422 75.3586C165.01 74.7257 171.04 75.4605 170.258 73.8873C169.619 72.5908 164.691 73.1257 163.409 72.7964C161.09 72.1951 160.195 70.6776 157.595 70.9018C154.751 71.147 149.282 72.8085 147.988 75.7883C147.759 76.3273 148.001 76.6915 147.605 77.2167C146.801 78.306 145.246 78.3748 144.033 78.6322C143.046 78.8353 142.878 79.7579 141.919 80.0468C141.868 81.0115 141.805 82.906 142.535 83.6328C143.507 84.5861 145.454 82.8445 146.606 83.1197C147.463 83.3236 147.271 83.9929 147.489 84.5991C147.695 85.1704 148.641 86.0582 149.219 86.2711C149.987 86.56 150.973 86.3229 151.41 85.6244C151.806 85.0086 151.574 84.3118 152.113 83.7874C152.599 83.3236 152.983 83.0873 153.087 82.3525C153.23 81.2656 152.588 81.612 151.998 81.0115C150.526 79.541 153.638 78.7714 154.417 78.3748C154.751 78.2154 155.186 77.8933 155.414 77.6068C155.62 77.3567 155.725 76.8339 155.979 76.6583C156.76 76.1282 156.481 77.5679 156.288 77.9742C155.775 79.0716 154.712 80.22 155.903 81.3894C156.913 82.3824 158.066 81.3449 159.168 81.2583C159.73 81.2122 160.643 81.1029 161.167 81.2696C161.524 81.3894 162.214 82.2359 162 82.6276C161.652 83.2459 160.399 82.7053 159.936 82.6025C159.656 82.5386 158.144 82.3711 157.955 82.6155C157.604 83.0566 158.309 83.0768 158.463 83.3139C158.579 83.5001 158.54 83.9217 158.529 84.1451C158.516 84.7536 158.207 85.3299 157.503 85.1C157.133 84.9786 156.654 84.3231 156.159 84.7415C155.837 84.9916 155.8 85.9643 155.837 86.3358C155.891 86.8182 156.196 87.6307 155.584 88.0078C155.249 88.2045 154.329 88.0871 153.967 87.9932C153.454 87.8581 153.084 87.5182 152.495 87.6161C152.021 87.6938 151.381 88.1146 150.894 88.2546C149.689 88.6043 148.026 88.4424 146.733 88.3809C146.487 87.837 146.04 87.1678 146.208 86.5219C146.334 86.059 147.012 85.4828 146.515 84.9843C146.18 84.6606 145.26 84.8362 144.938 85.1955C144.39 85.813 144.836 86.2015 145.043 86.7914C145.209 87.26 145.223 88.0515 144.889 88.4497C144.441 88.9976 143.646 88.6706 143.006 88.822C142.688 88.8908 142.227 88.9976 142.031 89.2825C141.841 89.5706 142.007 89.9914 141.595 90.2374C141.071 90.5352 140.394 90.4033 139.881 90.8371C138.958 91.5986 138.09 92.5528 137.102 93.1857C136.437 93.6049 135.578 93.672 134.812 93.8404C134.001 94.0063 133.477 94.1787 132.605 94.2313C132.594 94.8212 132.554 95.2024 132.914 95.6508C133.3 96.1266 133.747 96.511 134.078 97.029C134.811 98.1482 134.834 99.4035 133.311 99.8081C131.964 100.171 130.466 99.5459 129.07 99.6163C128.637 99.6357 127.675 99.558 127.423 100.057C127.099 100.659 127.945 101.312 128.303 101.664C128.559 101.926 129.01 102.145 129.227 102.432C129.713 103.128 129.125 104.489 128.764 105.134C128.596 105.455 127.907 105.953 127.856 106.28C127.609 107.599 129.303 108.388 130.262 108.602C131.094 108.773 132.657 109.24 133.503 108.985C134.439 108.703 135.333 107.298 135.681 106.39C136.22 105.013 136.011 104.323 137.383 103.491C137.871 103.194 138.522 103.177 138.957 102.702C139.378 102.229 139.329 101.383 139.789 100.993C140.48 100.417 142.16 100.821 143.029 100.409C144.453 99.7498 144.618 99.3419 146.105 100.347C147.41 101.23 148.588 102.268 149.804 103.177C150.739 103.867 150.42 103.798 150.687 104.865C150.868 105.523 151.315 106.55 151.854 106.94C152.569 106.255 153.133 105.372 152.901 104.383C153.39 104.353 153.916 104.374 154.402 104.342C155.066 101.595 147.984 101.695 148.408 98.5068C149.278 98.2704 149.445 98.7973 150.099 99.0716C150.56 99.2756 151.289 99.2562 151.723 99.5062C152.35 99.8599 152.341 100.294 152.864 100.773C153.237 101.12 153.722 101.103 154.158 101.41C155.95 102.659 154.296 106.179 158.141 105.924C156.805 106.642 158.23 107.958 158.525 108.946C158.576 107.958 159.446 107.298 159.42 106.16C159.408 104.898 158.767 104.558 160.204 104.105C161.124 103.808 162.123 103.791 163.019 103.46C164.389 102.957 164.198 102.912 163.828 101.53C163.685 101.011 163.276 101.104 163.519 100.388C163.645 100.034 164.451 99.5653 164.696 99.2003C165.234 98.3813 165.541 96.7506 166.847 96.685C168.219 96.6219 167.693 98.022 168.5 98.6241C169.202 99.155 170.677 98.9478 170.96 98.0973C168.745 97.445 171.487 96.8898 172.137 96.562C172.56 96.3629 173.161 95.4298 173.661 95.8846C174.25 96.4374 173.123 97.2799 173.059 97.5939C172.777 98.964 173.839 98.9187 174.737 99.745C175.659 100.61 176.068 102.012 176.747 103.058C175.393 103.14 173.878 103.227 172.663 102.667C171.099 101.948 170.483 101.339 168.666 101.962C168.102 102.147 167.538 102.442 167.018 102.716C166.877 102.798 166.748 103.223 166.49 103.341C166.22 103.477 165.76 103.248 165.462 103.358C164.055 103.88 163.735 104.428 162.151 104.508C162.238 105.143 162.891 104.92 163.123 105.417C163.313 105.797 163.123 106.582 163.123 106.999C163.108 108.39 163.251 108.402 164.685 108.467C166.388 108.554 166.859 108.453 168.282 109.465C169.946 110.662 169.932 109.312 171.226 108.453C172.751 109.048 171.238 110.496 170.866 111.303C170.511 112.076 170.806 113.068 170.471 113.736C169.82 115.094 167.088 114.375 165.837 114.375C164.991 114.375 163.956 114.53 163.185 114.221C162.291 113.856 161.648 113.123 160.585 112.834C159.229 112.477 156.374 111.942 155.707 113.736C155.962 113.821 156.167 114.146 156.361 114.24C155.812 115.131 154.017 114.573 153.298 114.086C152.236 113.36 152.042 113.058 150.726 112.681C149.443 112.301 148.162 111.718 147.512 110.522C146.934 109.452 147.294 108.336 146.075 107.806C145.438 107.517 145.296 107.581 144.665 107.817C143.873 108.12 144.029 108.5 143.003 108.603C141.863 108.716 140.676 108.537 139.53 108.603C138.483 108.657 137.369 108.755 136.487 109.261C135.95 109.572 135.783 110.124 134.909 110.271C134.371 110.36 133.654 110.318 133.115 110.267C131.837 110.144 129.711 109.082 128.675 110.562C128.161 111.282 128.572 111.693 127.83 112.341C127.212 112.878 126.265 113.064 125.83 113.825C124.895 115.413 126.328 116.412 124.525 117.553C122.846 118.608 122.017 119.007 121.04 120.774C120.209 122.276 118.711 123.344 117.98 124.89C117.469 125.951 117.841 127.112 117.851 128.234C117.851 130.679 115.636 131.88 117.238 134.394C117.841 135.345 118.762 136.101 119.301 137.095C119.849 138.133 119.925 139.379 120.376 140.456C121.232 142.446 124.679 145.206 126.702 146.046C128.316 146.725 129.148 146.232 130.377 145.578C131.607 144.942 132.795 145.111 134.141 145.177C136.256 145.271 137.459 142.749 139.917 143.913C141.096 144.47 140.955 145.33 142.352 145.59C143.619 145.823 144.733 145.557 145.438 146.95C146.331 148.716 145.166 150.605 145.115 152.398C145.077 154.204 146.742 154.211 147.358 155.822C147.819 157.032 147.819 158.372 148.357 159.551C149.431 161.92 149.866 163.198 148.769 165.839C147.946 167.837 147.526 170.252 148.674 172.253C149.995 174.538 150.301 176.748 150.673 179.349C150.843 180.547 150.775 181.73 151.238 182.774C151.801 184.034 153.044 185.193 153.379 186.5C153.721 187.908 153.121 189.369 153.775 190.746C154.449 192.167 155.373 191.93 156.734 191.733C158.92 191.426 161.444 191.847 163.416 190.645C164.366 190.055 164.927 189.369 165.557 188.426C166.389 187.185 166.951 186.782 168.168 185.956C169.359 185.154 170.05 184.213 170.075 182.778C170.114 181.073 169.669 180.602 171.432 179.695C172.547 179.12 173.518 178.649 173.417 177.132C173.343 176 172.522 174.917 172.919 173.669C173.879 170.722 178.196 169.928 178.961 166.985C179.628 164.455 178.452 161.028 178.069 158.525C177.257 153.274 181.845 151.021 185.2 147.902C186.98 146.242 188.029 143.529 189.223 141.424C189.721 140.564 190.399 139.585 189.976 138.598C189.634 137.767 188.529 137.081 187.659 137.216C186.341 137.426 185.544 137.92 184.075 137.855C181.23 137.74 180.911 135.503 178.809 134.006C176.836 132.597 176.417 130.41 174.951 128.515C173.957 127.216 174.33 126.6 174.187 125.025C174.072 123.617 173.189 123.405 172.138 122.591C171.307 121.957 171.087 121.415 170.729 120.528C170.331 119.552 169.346 118.227 169.181 117.226C169.001 116.131 169.921 115.878 170.716 116.562C170.961 116.76 170.691 117.392 171.268 117.553C171.641 117.651 171.896 117.122 172.24 116.956C172.598 118.211 172.778 119.573 173.331 120.762C173.776 121.739 174.548 122.684 174.969 123.75C175.429 124.895 175.673 125.305 176.661 126.152C177.659 127.016 178.564 128.11 179.169 129.297C179.961 130.858 180.345 135.127 182.409 135.682C183.38 135.944 184.637 134.763 185.621 134.551C187.07 134.244 187.619 134.118 188.683 133.015C189.798 131.881 191.256 131.273 192.694 130.575C193.526 130.173 194.562 130.123 195.19 129.29C195.689 128.63 195.584 127.819 195.907 127.098C196.391 126.003 198.481 124.673 197.558 123.226C196.687 121.869 194.818 122.585 194.317 120.685C193.331 120.486 192.614 121.273 191.82 121.695C190.721 122.276 189.964 122.368 188.756 121.823C187.081 121.067 187.403 120.312 186.892 118.865C186.558 117.924 185.531 117.418 185.75 116.318C187.619 116.215 188.029 116.526 189.08 117.995C189.798 119.02 190.335 119.896 191.641 120.023C192.781 120.126 193.907 119.395 194.981 119.636C196.083 119.89 196.751 121.003 197.952 121.305C199.157 121.612 200.478 121.343 201.654 121.809C202.102 121.989 202.499 122.438 202.959 122.565C203.588 122.733 204.241 122.276 204.726 122.361C205.922 122.552 206.202 123.943 206.919 124.874C207.904 126.159 208.507 125.896 209.991 126.051C210.206 126.072 210.386 126.103 210.539 126.142C207.949 105.072 197.345 86.488 181.874 73.519Z" fill="white"/>
<path d="M131.424 54.4556V218.043C175.652 216.943 211.167 180.743 211.167 136.248C211.167 91.7558 175.653 55.5562 131.424 54.4556Z" fill="#C6C6C6" fill-opacity="0.3"/>
<path d="M211.167 136.682C211.167 181.925 174.49 218.602 129.246 218.602C84.003 218.602 47.3242 181.925 47.3242 136.682C47.3242 91.4379 84.003 54.7607 129.246 54.7607C174.49 54.7607 211.167 91.4379 211.167 136.682Z" stroke="#88B8FF" stroke-opacity="0.33" stroke-width="1.23611" stroke-miterlimit="10"/>
<path d="M129.246 193.95C174.49 193.95 211.167 168.31 211.167 136.681C211.167 105.053 174.49 79.4126 129.246 79.4126C84.0017 79.4126 47.3242 105.053 47.3242 136.681C47.3242 168.31 84.0017 193.95 129.246 193.95Z" stroke="#88B8FF" stroke-opacity="0.33" stroke-width="1.23611" stroke-miterlimit="10"/>
<path d="M129.246 161.678C84.003 161.678 47.3242 150.486 47.3242 136.683C47.3242 122.879 84.003 111.688 129.246 111.688C174.488 111.688 211.167 122.879 211.167 136.683C211.167 150.486 174.488 161.678 129.246 161.678Z" stroke="#88B8FF" stroke-opacity="0.33" stroke-width="1.23611" stroke-miterlimit="10"/>
<path d="M186.514 136.682C186.514 181.925 160.874 218.602 129.245 218.602C97.6166 218.602 71.9766 181.925 71.9766 136.682C71.9766 91.4379 97.6166 54.7607 129.245 54.7607C160.874 54.7607 186.514 91.4379 186.514 136.682Z" stroke="#88B8FF" stroke-opacity="0.33" stroke-width="1.23611" stroke-miterlimit="10"/>
<path d="M152.557 136.682C152.557 181.925 142.12 218.602 129.246 218.602C116.373 218.602 105.936 181.925 105.936 136.682C105.936 91.4379 116.373 54.7607 129.246 54.7607C142.12 54.7607 152.557 91.4379 152.557 136.682Z" stroke="#88B8FF" stroke-opacity="0.33" stroke-width="1.23611" stroke-miterlimit="10"/>
<path d="M167.907 216.856C167.907 221.317 156.096 224.931 141.527 224.931C126.957 224.931 115.146 221.317 115.146 216.856V210.623H167.907V216.856Z" fill="#98581D"/>
<path d="M145.346 221.401C130.777 221.401 118.966 217.785 118.966 213.326V210.624H115.148V216.857C115.148 221.318 126.959 224.932 141.529 224.932C155.322 224.932 166.64 221.692 167.808 217.562C163.161 219.865 154.84 221.401 145.346 221.401Z" fill="#060606"/>
<path d="M168.013 210.548C168.013 215.101 156.162 218.791 141.544 218.791C126.926 218.791 115.074 215.101 115.074 210.548C115.074 205.997 126.926 202.307 141.544 202.307C156.163 202.307 168.013 205.997 168.013 210.548Z" fill="#F9B233"/>
<path d="M141.544 218.045C154.84 218.045 165.619 214.689 165.619 210.549C165.619 206.409 154.84 203.053 141.544 203.053C128.247 203.053 117.469 206.409 117.469 210.549C117.469 214.689 128.247 218.045 141.544 218.045Z" fill="#D28C2C"/>
<path d="M160.987 210.608C160.987 213.951 152.282 216.661 141.544 216.661C130.807 216.661 122.102 213.951 122.102 210.608C122.102 207.263 130.807 204.554 141.544 204.554C152.282 204.554 160.987 207.264 160.987 210.608Z" fill="#FAB600"/>
<path d="M150.205 210.582C149.541 210.335 148.658 210.134 147.641 209.996C149.747 209.62 150.909 209.024 150.919 208.308C150.932 207.585 149.762 206.976 147.719 206.638C147.249 206.551 146.762 206.48 146.239 206.422L145.247 206.313C144.47 206.227 143.595 206.169 142.573 206.136L142.581 205.601L141.485 205.479L138.861 205.492L138.851 206.103C138.629 206.104 138.401 206.105 138.169 206.108H138.142C137.88 206.111 137.619 206.115 137.358 206.12L136.715 206.13L134.998 206.17H134.99C134.919 206.173 134.85 206.174 134.78 206.177L134.29 206.192C134.225 206.195 134.16 206.197 134.091 206.2C134.024 206.202 133.959 206.204 133.894 206.207L133.447 206.224C133.323 206.229 133.204 206.234 133.087 206.239L132.69 206.257C132.582 206.263 132.477 206.268 132.376 206.273L132.331 206.276C132.296 206.277 132.262 206.28 132.228 206.283L132.177 206.286C132.145 206.287 132.112 206.289 132.08 206.292L132.037 206.294C131.992 206.297 131.947 206.3 131.905 206.303L131.477 206.333L131.354 214.299L131.354 214.328L132.429 214.446L132.802 214.462C133.607 214.495 135.348 214.553 137.97 214.553C138.215 214.553 138.468 214.552 138.719 214.552L138.712 215.035L139.809 215.157L142.433 215.142L142.443 214.48C145.335 214.369 147.456 214.132 148.925 213.753C150.731 213.279 151.693 212.652 151.704 211.942C151.71 211.418 151.192 210.95 150.205 210.582ZM143.264 208.506L143.261 208.519C143.255 208.54 143.248 208.557 143.24 208.573L143.235 208.58C143.227 208.595 143.216 208.61 143.205 208.627L143.196 208.637C143.181 208.654 143.165 208.67 143.149 208.685L143.138 208.695C143.122 208.709 143.104 208.722 143.084 208.736L143.072 208.745C143.051 208.76 143.027 208.775 143.001 208.79L142.983 208.799C142.958 208.814 142.932 208.827 142.904 208.84L142.893 208.845C142.865 208.858 142.832 208.87 142.795 208.886L142.769 208.896C142.728 208.911 142.692 208.923 142.655 208.935C142.619 208.946 142.581 208.958 142.531 208.972L142.529 208.974L142.544 207.934C143.031 208.054 143.276 208.228 143.271 208.453C143.271 208.468 143.269 208.486 143.264 208.506ZM143.803 211.793C143.803 211.813 143.802 211.832 143.798 211.85C143.798 211.854 143.797 211.857 143.796 211.861L143.794 211.868C143.792 211.881 143.789 211.893 143.785 211.905C143.784 211.91 143.782 211.915 143.78 211.92L143.777 211.925C143.773 211.937 143.77 211.947 143.764 211.957C143.762 211.963 143.758 211.97 143.755 211.975L143.753 211.979C143.748 211.988 143.742 211.997 143.736 212.007C143.731 212.014 143.726 212.021 143.722 212.027C143.715 212.036 143.707 212.046 143.7 212.055C143.695 212.062 143.689 212.067 143.684 212.074C143.676 212.084 143.667 212.092 143.657 212.102L143.654 212.106C143.649 212.11 143.644 212.114 143.64 212.119C143.63 212.128 143.619 212.138 143.608 212.148L143.6 212.153C143.597 212.156 143.593 212.159 143.589 212.162C143.575 212.173 143.559 212.184 143.544 212.195L143.533 212.203C143.513 212.215 143.491 212.23 143.469 212.242L143.45 212.252C143.435 212.262 143.418 212.27 143.4 212.278C143.394 212.283 143.388 212.284 143.383 212.288L143.373 212.293C143.358 212.301 143.343 212.307 143.327 212.315C143.318 212.319 143.31 212.323 143.295 212.329C143.281 212.336 143.264 212.343 143.249 212.349C143.237 212.353 143.225 212.358 143.214 212.362C143.198 212.369 143.181 212.375 143.164 212.381C143.152 212.385 143.14 212.39 143.128 212.393C143.111 212.4 143.094 212.406 143.076 212.411L143.07 212.412C143.059 212.417 143.049 212.419 143.039 212.424C143.021 212.429 143 212.435 142.98 212.44L142.945 212.451C142.923 212.458 142.9 212.463 142.876 212.47L142.848 212.477C142.806 212.489 142.766 212.498 142.723 212.508L142.691 212.516C142.656 212.523 142.619 212.531 142.582 212.54L142.558 212.545C142.53 212.551 142.502 212.557 142.474 212.561L142.496 211.076C143.368 211.229 143.809 211.471 143.803 211.793Z" fill="#402A00"/>
<path d="M150.558 210.638C149.823 210.371 148.851 210.158 147.709 210.016C149.958 209.663 151.226 209.063 151.226 208.333C151.226 207.624 150.039 207.02 147.969 206.676C146.551 206.414 144.928 206.281 142.601 206.235V205.603H140.05V206.215C137.282 206.218 134.332 206.286 132.802 206.38L132.465 206.401V214.364L132.824 214.382C133.789 214.424 135.887 214.499 139.085 214.499C139.41 214.499 139.734 214.498 140.05 214.496V215.11H142.601V214.449C145.607 214.355 147.802 214.128 149.304 213.756C151.127 213.296 152.09 212.683 152.09 211.981C152.09 211.471 151.561 211.005 150.558 210.638ZM138.978 209.397V207.805C139.241 207.795 139.588 207.786 140.051 207.781V209.397H138.978ZM140.051 210.933V212.917C139.641 212.917 139.29 212.914 138.978 212.907V210.933H140.051ZM142.602 211.005C143.901 211.105 145.24 211.347 145.24 211.914C145.24 212.513 143.899 212.757 142.602 212.856V211.005ZM142.602 209.307V207.827C143.953 207.928 144.639 208.173 144.639 208.556C144.638 208.916 143.92 209.177 142.602 209.307Z" fill="url(#paint11_linear_883_24673)"/>
<path d="M146.637 210.042V210.018C149.492 209.691 150.806 209.035 150.806 208.333C150.806 207.619 149.529 207.082 147.763 206.79C146.281 206.516 144.603 206.394 142.181 206.357V205.732H140.471V206.345C140.409 206.345 140.349 206.345 140.287 206.345C137.431 206.345 134.388 206.415 132.885 206.508V214.252C134.162 214.31 136.266 214.368 139.084 214.368C139.563 214.368 140.025 214.367 140.47 214.361V214.98H142.18V214.33C145.435 214.243 147.612 214.008 149.041 213.655C150.619 213.256 151.67 212.695 151.67 211.982C151.671 210.965 149.529 210.287 146.637 210.042ZM145.059 208.556C145.059 209.015 144.063 209.352 142.181 209.475V207.67C144.033 207.754 145.059 208.057 145.059 208.556ZM138.558 207.69C138.972 207.671 139.55 207.651 140.471 207.646V209.526C140.459 209.526 140.448 209.526 140.437 209.526H138.558V207.69ZM138.558 213.024V210.802H140.471V213.047C139.655 213.048 139.062 213.046 138.558 213.024ZM142.181 213.015V210.844C144.21 210.952 145.659 211.281 145.659 211.915C145.659 212.588 144.144 212.916 142.181 213.015Z" fill="white"/>
<path d="M114.027 216.856C114.027 221.317 102.217 224.931 87.6472 224.931C73.0778 224.931 61.2676 221.317 61.2676 216.856V210.623H114.027V216.856Z" fill="#98581D"/>
<path d="M91.4652 221.401C76.8959 221.401 65.0849 217.784 65.0849 213.326V210.623H61.2676V216.857C61.2676 221.317 73.0785 224.932 87.6472 224.932C101.44 224.932 112.758 221.691 113.926 217.562C109.279 219.865 100.959 221.401 91.4652 221.401Z" fill="#060606"/>
<path d="M114.101 210.361C114.101 214.913 102.249 218.603 87.6304 218.603C73.0114 218.603 61.1602 214.913 61.1602 210.361C61.1602 205.809 73.0107 202.119 87.6304 202.119C102.249 202.119 114.101 205.809 114.101 210.361Z" fill="#F9B233"/>
<path d="M87.6296 217.858C100.926 217.858 111.704 214.502 111.704 210.362C111.704 206.222 100.926 202.866 87.6296 202.866C74.3334 202.866 63.5547 206.222 63.5547 210.362C63.5547 214.502 74.3334 217.858 87.6296 217.858Z" fill="#D28C2C"/>
<path d="M107.074 210.42C107.074 213.764 98.3701 216.474 87.6316 216.474C76.8937 216.474 68.1895 213.764 68.1895 210.42C68.1895 207.077 76.8937 204.367 87.6316 204.367C98.3694 204.367 107.074 207.077 107.074 210.42Z" fill="#FAB600"/>
<path d="M97.7658 205.998L96.2015 205.763L76.9568 205.818L76.891 207.629L78.6117 207.863L82.6726 207.822L83.2629 207.821L83.8136 207.828C83.8136 207.828 83.8143 207.828 83.815 207.828L83.8618 207.83L76.8606 207.889L76.8648 209.382L78.4291 209.618L84.5696 209.556C84.5682 209.556 84.5668 209.557 84.5653 209.557C84.5491 209.562 84.5328 209.566 84.5158 209.57C84.4769 209.58 84.4387 209.589 84.3983 209.598C84.324 209.615 84.2475 209.632 84.1683 209.647C84.1456 209.652 84.1223 209.656 84.0982 209.661C84.038 209.673 83.9764 209.683 83.9141 209.695C83.8887 209.699 83.8639 209.705 83.8384 209.709C83.7924 209.716 83.7464 209.724 83.7004 209.731C83.6706 209.735 83.6409 209.741 83.6112 209.743C83.5588 209.751 83.5043 209.759 83.4491 209.766C83.4229 209.77 83.3981 209.773 83.3726 209.778C83.2912 209.787 83.2084 209.798 83.1228 209.808C83.0378 209.818 82.9508 209.827 82.863 209.836C82.8361 209.838 82.8057 209.841 82.7767 209.844C82.7151 209.85 82.6542 209.855 82.5905 209.86C82.5544 209.865 82.5183 209.867 82.4822 209.87C82.4242 209.875 82.3661 209.88 82.3059 209.884C82.267 209.887 82.2267 209.89 82.187 209.893C82.129 209.897 82.0702 209.901 82.0115 209.904C81.9697 209.907 81.9272 209.91 81.8855 209.913C81.826 209.916 81.7659 209.918 81.705 209.921C81.6618 209.924 81.6186 209.927 81.5755 209.928C81.5139 209.931 81.4509 209.934 81.3865 209.937C81.3433 209.938 81.3001 209.941 81.2541 209.942C81.1883 209.944 81.121 209.947 81.0538 209.95C81.0106 209.95 80.9681 209.951 80.9257 209.952C80.8506 209.955 80.7742 209.957 80.6977 209.958C80.6602 209.959 80.6241 209.961 80.5859 209.961C80.4698 209.962 80.3551 209.964 80.2362 209.967L76.3184 209.908V211.486L76.656 211.605C80.1435 212.83 83.1971 213.804 86.1367 214.985L86.7101 215.235L88.433 215.42L95.1404 215.297L93.4968 214.625C92.2532 214.117 90.9755 213.598 89.6929 213.094L89.6837 213.09L89.6752 213.087C89.3588 212.961 89.0431 212.838 88.7267 212.715L88.7182 212.712L88.7111 212.709C88.3933 212.586 88.0769 212.463 87.7598 212.343L87.7549 212.342L87.7506 212.341C87.4335 212.219 87.1171 212.1 86.8014 211.982L86.7957 211.98L86.7908 211.978C86.4737 211.859 86.1573 211.743 85.8423 211.63C87.0548 211.532 88.1612 211.382 89.1224 211.188C89.4423 211.122 89.7481 211.052 90.0348 210.977C90.7794 210.784 91.4066 210.557 91.9099 210.306L91.912 210.304C92.0366 210.24 92.154 210.177 92.2645 210.111C92.4839 209.978 92.6715 209.84 92.8251 209.696L92.8258 209.695C92.9022 209.623 92.9709 209.55 93.0311 209.475L97.4458 209.43L97.6001 207.945L96.0358 207.71L92.8838 207.74L92.8343 207.695L92.7649 207.641L92.692 207.585L92.6156 207.532L97.6115 207.483L97.7658 205.998Z" fill="#402A00"/>
<path d="M93.0877 209.479H97.8054V207.97H93.0049C92.8591 207.806 92.6658 207.65 92.4238 207.503H97.7637V205.996H77.4785V207.698H81.8197C83.5567 207.698 84.8627 207.789 85.7283 207.97H77.4785V209.479H86.4999C86.267 209.592 85.9549 209.689 85.562 209.775C84.5434 209.993 83.0591 210.102 81.1515 210.102H77.4785V211.507L77.8523 211.631C81.7192 212.912 84.7459 214.034 88.0224 215.263L88.4351 215.418H95.9891L94.1565 214.719C91.3755 213.657 88.4436 212.555 85.6363 211.596C87.3507 211.48 88.8534 211.268 90.0483 210.976C91.5984 210.596 92.6382 210.081 93.0877 209.479Z" fill="#B97C26"/>
<path d="M92.5201 209.221H97.1578V208.174H92.4592C92.2299 207.81 91.7655 207.491 91.0733 207.221H97.1153V206.176H78.127V207.417H81.7489C84.7127 207.417 86.6004 207.671 87.3762 208.173H78.127V209.22H87.6417C87.0584 209.939 84.7587 210.33 81.0737 210.33H78.127V211.417L78.2954 211.473C82.226 212.774 85.2966 213.913 88.6206 215.16L88.8075 215.231H94.4687L93.6385 214.913C90.4921 213.712 87.1773 212.469 84.0798 211.439C86.2805 211.359 88.1711 211.136 89.6017 210.787C91.19 210.397 92.1916 209.859 92.5201 209.221Z" fill="white"/>
<path d="M204.443 219.908C203.793 224.319 191.582 226.176 177.168 224.052C162.754 221.929 151.597 216.632 152.246 212.218L153.154 206.052L205.352 213.74L204.443 219.908Z" fill="#98581D"/>
<path d="M181.459 221.116C167.046 218.993 155.888 213.695 156.537 209.282L156.931 206.608L153.154 206.053L152.246 212.219C151.597 216.631 162.754 221.929 177.168 224.053C190.813 226.063 202.483 224.507 204.24 220.591C199.308 222.193 190.852 222.499 181.459 221.116Z" fill="#060606"/>
<path d="M205.43 213.835C204.766 218.337 192.504 220.26 178.041 218.13C163.579 215.999 152.392 210.621 153.055 206.118C153.719 201.616 165.98 199.693 180.444 201.823C194.906 203.954 206.092 209.332 205.43 213.835Z" fill="#F9B233"/>
<path d="M203.059 213.485C202.456 217.58 191.303 219.33 178.149 217.393C164.995 215.455 154.82 210.564 155.424 206.468C156.027 202.373 167.18 200.624 180.334 202.56C193.488 204.498 203.663 209.39 203.059 213.485Z" fill="#D28C2C"/>
<path d="M198.469 212.869C197.982 216.176 188.975 217.589 178.352 216.025C167.729 214.46 159.511 210.509 159.999 207.202C160.486 203.895 169.493 202.482 180.117 204.047C190.74 205.611 198.956 209.562 198.469 212.869Z" fill="#FAB600"/>
<path d="M193.54 211.742L197.032 209.869L195.357 209.505L189.871 208.692L186.115 210.691L184.702 210.487L182.519 207.731L181.507 207.353L177.739 206.805L174.671 209.069L172.621 208.773L169.357 205.793L168.251 205.409L162.624 204.579L165.772 207.663L162.855 207.243L162.741 208.026L163.943 208.37L166.965 208.815L167.276 209.159L162.673 208.481L162.572 209.164L163.769 209.501L168.276 210.167L169.759 211.81L171.122 212.203L175.947 212.914L177.944 211.504L180.538 211.892L181.794 213.7L183.203 213.983L188.027 214.693L190.632 213.298L195.594 214.029L195.695 213.345L193.814 212.94L191.854 212.661L192.336 212.384L195.762 212.889L195.862 212.206L194.06 211.816L193.54 211.742Z" fill="#402A00"/>
<path d="M197.032 209.869L191.277 209.021L187.476 210.97L184.793 210.574L182.519 207.73L178.403 207.125L175.395 209.191L172.619 208.781L169.357 205.792L163.93 204.993L166.865 207.934L164.056 207.52L163.955 208.203L167.68 208.752L168.227 209.299L163.888 208.659L163.787 209.342L169.042 210.116L171.122 212.202L175.947 212.913L178.031 211.441L181.623 211.97L183.203 213.982L188.027 214.693L190.632 213.297L195.594 214.029L195.695 213.344L191.653 212.75L192.336 212.384L195.762 212.888L195.863 212.205L193.358 211.837L197.032 209.869ZM173.527 209.614L174.579 209.769C174.378 209.925 174.234 210.059 174.144 210.171L174.134 210.17L173.527 209.614ZM178.848 210.864L179.2 210.616L179.245 210.58C179.292 210.544 179.337 210.509 179.38 210.477L180.606 210.657C180.647 210.716 180.688 210.775 180.733 210.836L181.004 211.182L178.848 210.864ZM185.711 211.875L185.702 211.873C185.655 211.736 185.56 211.567 185.42 211.365L186.418 211.512L185.711 211.875Z" fill="#B97C26"/>
<path d="M195.696 209.958L191.628 209.357L187.973 211.17L184.186 210.612L182.172 207.924L178.827 207.432L176.026 209.41L172.047 208.824L169.004 205.985L164.869 205.376L167.762 208.193L164.523 207.716L164.459 208.151L168.302 208.718L169.172 209.565L164.355 208.856L164.291 209.292L169.712 210.089L171.659 211.986L175.396 212.536L177.227 211.196L182.331 211.949L183.592 213.743L187.449 214.311L189.831 213.054L194.911 213.802L194.976 213.367L190.491 212.707L191.554 212.144L195.079 212.662L195.144 212.227L192.214 211.796L195.696 209.958ZM180.251 208.986L181.07 210.152L179.061 209.856L180.251 208.986ZM172.615 209.352L175.505 209.779L174.662 210.374L173.53 210.208L172.615 209.352ZM174.12 210.757L174.097 210.735L174.141 210.742L174.12 210.757ZM177.734 210.826L178.553 210.227L181.419 210.649L181.983 211.453L177.734 210.826ZM186.162 212.068L185.166 211.921L184.561 211.112L187.281 211.513L186.162 212.068Z" fill="white"/>
<path d="M135.813 207.766C135.813 212.226 124.002 215.841 109.433 215.841C94.8644 215.841 83.0527 212.226 83.0527 207.766V201.533H135.813V207.766Z" fill="#98581D"/>
<path d="M113.25 212.31C98.681 212.31 86.8708 208.695 86.8708 204.235V201.534H83.0527V207.766C83.0527 212.226 94.8637 215.841 109.433 215.841C123.226 215.841 134.544 212.601 135.712 208.471C131.065 210.774 122.744 212.31 113.25 212.31Z" fill="#060606"/>
<path d="M135.953 202.308C135.953 206.859 124.102 210.549 109.484 210.549C94.865 210.549 83.0137 206.859 83.0137 202.308C83.0137 197.755 94.865 194.065 109.484 194.065C124.102 194.065 135.953 197.755 135.953 202.308Z" fill="#F9B233"/>
<path d="M133.557 202.307C133.557 206.447 122.778 209.803 109.483 209.803C96.1857 209.803 85.4082 206.447 85.4082 202.307C85.4082 198.167 96.1864 194.812 109.483 194.812C122.778 194.812 133.557 198.167 133.557 202.307Z" fill="#D28C2C"/>
<path d="M128.927 202.366C128.927 205.71 120.222 208.42 109.484 208.42C98.746 208.42 90.041 205.71 90.041 202.366C90.041 199.023 98.746 196.313 109.484 196.313C120.222 196.313 128.927 199.023 128.927 202.366Z" fill="#FAB600"/>
<path d="M112.284 203.018L112.298 202.856L119.819 197.954L118.426 197.775L112.171 197.809L108.239 200.234L104.47 197.936L103.515 197.72H96.5078L104.39 202.71L104.846 203.057L102.02 203.072L101.933 204.026L103.328 204.204L104.742 204.198L104.732 204.315L101.906 204.33L101.819 205.284L103.213 205.464L104.628 205.455L104.526 206.577L105.918 206.755L111.949 206.705L112.065 205.416L114.959 205.402L115.046 204.447L113.652 204.269L112.169 204.276L112.18 204.159L115.074 204.143L115.161 203.188L113.766 203.01L112.284 203.018Z" fill="#402A00"/>
<path d="M112.372 202.845L119.853 197.937H113.242L108.887 200.628L104.471 197.937H97.9453L106.001 202.845V203.197H103.016V204.161H106.001V204.467H103.016V205.43H106.001V206.748L112.372 206.731V205.43H115.43V204.467H112.372V204.161H115.43V203.197H112.372V202.845Z" fill="#B97C26"/>
<path d="M113.445 198.043L108.88 200.866L104.25 198.043H98.5L106.337 202.82V206.64L112.018 206.622V202.821L119.298 198.043H113.445Z" fill="white"/>
<path d="M115.075 203.305H103.352V204.053H115.075V203.305Z" fill="white"/>
<path d="M115.075 204.574H103.352V205.323H115.075V204.574Z" fill="white"/>
<path d="M151.393 196.149C151.393 200.61 139.583 204.224 125.013 204.224C110.444 204.224 98.6328 200.61 98.6328 196.149V189.917H151.393V196.149Z" fill="#98581D"/>
<path d="M128.831 200.694C114.261 200.694 102.451 197.079 102.451 192.619V189.918H98.6328V196.15C98.6328 200.611 110.444 204.225 125.013 204.225C138.806 204.225 150.124 200.985 151.292 196.855C146.646 199.158 138.325 200.694 128.831 200.694Z" fill="#060606"/>
<path d="M151.559 189.42C151.559 193.916 139.674 197.562 125.014 197.562C110.354 197.562 98.4688 193.916 98.4688 189.42C98.4688 184.923 110.353 181.277 125.014 181.277C139.675 181.277 151.559 184.923 151.559 189.42Z" fill="#F9B233"/>
<path d="M149.157 189.42C149.157 193.509 138.348 196.825 125.015 196.825C111.68 196.825 100.871 193.509 100.871 189.42C100.871 185.33 111.68 182.014 125.015 182.014C138.348 182.014 149.157 185.329 149.157 189.42Z" fill="#D28C2C"/>
<path d="M144.512 189.479C144.512 192.781 135.783 195.458 125.014 195.458C114.245 195.458 105.516 192.781 105.516 189.479C105.516 186.176 114.245 183.498 125.014 183.498C135.783 183.497 144.512 186.176 144.512 189.479Z" fill="#FAB600"/>
<path d="M135.704 192.018C135.43 191.65 134.536 191.287 133.123 191.246C133.132 191.246 133.142 191.246 133.152 191.246C132.38 191.222 131.609 191.198 130.837 191.174C130.719 191.17 130.599 191.169 130.473 191.169C130.093 191.173 129.7 191.199 129.304 191.249L129.181 191.265C127.995 191.455 126.718 191.555 125.386 191.565C125.36 191.566 125.334 191.566 125.31 191.566C123.927 191.465 122.749 191.265 121.841 190.983L130.67 190.911L130.667 189.516L128.352 189.442L119.803 189.512C119.79 189.453 119.78 189.397 119.777 189.337L130.665 189.25L130.662 187.854L128.347 187.78L121.217 187.838C122.568 187.277 124.801 186.939 127.628 186.912C127.923 186.934 128.214 186.961 128.5 186.992C128.716 187.016 128.929 187.044 129.14 187.073L129.231 187.086L129.327 187.096C129.404 187.103 129.571 187.116 129.799 187.123C130.532 187.147 131.265 187.169 131.997 187.193C132.032 187.194 132.079 187.196 132.114 187.197C132.106 187.197 132.097 187.196 132.089 187.196C132.212 187.2 132.354 187.203 132.51 187.201C133.688 187.191 135.088 186.958 135.513 186.329C135.648 186.207 135.873 185.919 135.418 185.613C134.996 185.328 134.148 185.126 132.9 185.013C131.805 184.894 130.674 184.818 129.518 184.783C129.54 184.783 129.563 184.785 129.586 184.785C128.813 184.761 128.042 184.736 127.27 184.713C126.643 184.694 126.008 184.686 125.366 184.691C125.231 184.691 125.096 184.694 124.961 184.695C124.927 184.697 124.893 184.697 124.86 184.698C124.727 184.7 124.595 184.703 124.465 184.707C124.462 184.707 124.46 184.707 124.457 184.707C124.323 184.711 124.189 184.715 124.057 184.72C124.025 184.721 123.991 184.722 123.958 184.724C123.831 184.728 123.704 184.734 123.578 184.739C123.572 184.739 123.567 184.739 123.561 184.741C123.43 184.746 123.299 184.753 123.169 184.76C123.137 184.761 123.105 184.763 123.074 184.766C122.95 184.773 122.827 184.778 122.705 184.786C122.698 184.787 122.69 184.787 122.682 184.787C122.553 184.797 122.426 184.805 122.299 184.815C122.267 184.816 122.236 184.819 122.204 184.822C122.086 184.831 121.969 184.84 121.85 184.85C121.841 184.85 121.831 184.851 121.821 184.853C121.695 184.862 121.57 184.873 121.445 184.886C121.414 184.889 121.384 184.892 121.354 184.894C121.24 184.906 121.126 184.916 121.014 184.928C121.001 184.929 120.99 184.93 120.978 184.932C120.855 184.945 120.734 184.958 120.612 184.971C120.583 184.975 120.554 184.978 120.523 184.982C120.415 184.995 120.307 185.007 120.199 185.021C120.185 185.022 120.171 185.024 120.157 185.027C120.038 185.041 119.92 185.056 119.803 185.071C119.774 185.076 119.745 185.08 119.716 185.084C119.612 185.098 119.508 185.113 119.406 185.127C119.39 185.13 119.374 185.133 119.359 185.134C119.244 185.151 119.13 185.169 119.016 185.185C118.989 185.191 118.961 185.195 118.932 185.199C118.832 185.215 118.735 185.231 118.635 185.248C118.623 185.249 118.61 185.252 118.598 185.253C118.594 185.253 118.591 185.255 118.588 185.255C118.434 185.281 118.282 185.307 118.132 185.335C118.118 185.337 118.105 185.339 118.092 185.342C117.944 185.369 117.797 185.397 117.652 185.426C117.637 185.427 117.623 185.432 117.608 185.434C117.465 185.462 117.324 185.492 117.184 185.521C117.169 185.526 117.153 185.529 117.137 185.533C116.999 185.562 116.862 185.592 116.729 185.624C116.712 185.627 116.695 185.631 116.679 185.635C116.545 185.666 116.414 185.698 116.285 185.73C116.268 185.735 116.251 185.738 116.235 185.744C116.106 185.776 115.979 185.809 115.854 185.842C115.837 185.846 115.82 185.852 115.803 185.856C115.68 185.89 115.557 185.924 115.437 185.959C115.42 185.965 115.403 185.969 115.386 185.974C115.268 186.008 115.149 186.045 115.033 186.08C115.024 186.083 115.016 186.086 115.006 186.088C114.999 186.09 114.99 186.093 114.982 186.096C114.875 186.129 114.77 186.163 114.667 186.198C114.65 186.204 114.633 186.209 114.617 186.214C114.513 186.249 114.411 186.285 114.309 186.321C114.297 186.325 114.285 186.329 114.272 186.335C114.168 186.372 114.066 186.411 113.965 186.449C113.962 186.449 113.958 186.451 113.956 186.452C113.855 186.491 113.756 186.531 113.661 186.571C113.652 186.574 113.644 186.577 113.635 186.581C113.542 186.62 113.451 186.658 113.361 186.699C113.348 186.704 113.335 186.71 113.321 186.716C113.235 186.754 113.15 186.793 113.068 186.832C113.054 186.839 113.039 186.847 113.025 186.853C112.944 186.893 112.863 186.933 112.786 186.973C112.773 186.979 112.76 186.986 112.748 186.992C112.669 187.033 112.593 187.074 112.518 187.117C112.516 187.118 112.512 187.12 112.509 187.121C112.497 187.128 112.487 187.135 112.476 187.14C112.439 187.161 112.403 187.183 112.366 187.204C112.349 187.214 112.332 187.225 112.315 187.234C112.281 187.255 112.249 187.276 112.215 187.297C112.201 187.307 112.184 187.316 112.169 187.326C112.132 187.349 112.096 187.372 112.06 187.397C112.05 187.404 112.04 187.411 112.029 187.417C111.984 187.448 111.94 187.479 111.895 187.51C111.888 187.515 111.881 187.521 111.873 187.526C111.839 187.551 111.803 187.577 111.77 187.602C111.757 187.613 111.745 187.622 111.731 187.632C111.704 187.654 111.676 187.675 111.65 187.697C111.636 187.709 111.624 187.719 111.61 187.729C111.583 187.751 111.558 187.775 111.532 187.797C111.521 187.807 111.51 187.816 111.499 187.826C111.464 187.858 111.429 187.89 111.396 187.922L108.605 187.945L108.611 189.336L110.725 189.403C110.731 189.463 110.74 189.524 110.754 189.585L108.611 189.603L108.616 190.998L110.931 191.071L111.969 191.062C113.926 192.391 118 193.356 122.895 193.573C123.094 193.583 123.294 193.591 123.495 193.596C124.267 193.621 125.039 193.645 125.811 193.669C125.802 193.669 125.795 193.669 125.787 193.668C126.415 193.688 127.056 193.697 127.706 193.691C129.55 193.676 131.349 193.558 133.052 193.343C133.469 193.3 134.753 193.146 135.43 192.777C135.851 192.55 135.946 192.286 135.704 192.018ZM128.222 184.763C128.185 184.763 128.146 184.762 128.108 184.762C128.145 184.763 128.184 184.763 128.222 184.763Z" fill="#402A00"/>
<path d="M135.405 192.049C135.113 191.65 134.106 191.25 132.507 191.25C132.128 191.25 131.738 191.273 131.345 191.319L131.221 191.335C130.043 191.515 128.773 191.606 127.448 191.606C125.023 191.606 123.009 191.35 121.624 190.901H130.402V189.503H119.625C119.597 189.416 119.579 189.328 119.576 189.237H130.402V187.839H120.8C122.126 187.228 124.456 186.871 127.448 186.871C128.761 186.871 130.021 186.961 131.193 187.138L131.283 187.152L131.378 187.162C131.496 187.173 131.814 187.201 132.243 187.201C133.413 187.201 134.807 186.979 135.23 186.352C135.365 186.23 135.59 185.943 135.139 185.633C134.719 185.344 133.876 185.135 132.636 185.012C130.979 184.819 129.233 184.719 127.448 184.719C120.945 184.719 115.424 186.032 113.551 187.839H110.777V189.237H112.873C112.875 189.327 112.887 189.416 112.907 189.504H110.777V190.902H113.98C116.175 192.521 121.384 193.663 127.448 193.663C129.282 193.663 131.07 193.559 132.764 193.356C133.18 193.317 134.457 193.173 135.13 192.81C135.55 192.583 135.644 192.321 135.405 192.049Z" fill="#B97C26"/>
<path d="M129.872 188.011H111.359V189.067H129.872V188.011Z" fill="white"/>
<path d="M129.872 189.676H111.359V190.732H129.872V189.676Z" fill="white"/>
<path d="M134.891 192.091C134.708 191.838 134.016 191.422 132.533 191.422C132.225 191.422 131.901 191.441 131.572 191.48L131.496 191.49C130.24 191.681 128.887 191.779 127.475 191.779C122.431 191.779 119.043 190.739 119.043 189.192C119.043 187.68 122.353 186.703 127.475 186.703C128.875 186.703 130.217 186.798 131.466 186.986L131.522 186.994L131.581 187C131.653 187.009 131.913 187.032 132.271 187.032C132.739 187.032 134.283 186.978 134.719 186.308C134.828 186.214 135.042 185.967 134.657 185.703C134.303 185.46 133.569 185.283 132.477 185.174C130.881 184.987 129.197 184.892 127.476 184.892C119.744 184.892 113.455 186.822 113.455 189.193C113.455 191.564 119.744 193.492 127.476 193.492C129.247 193.492 130.975 193.392 132.61 193.195C132.913 193.167 134.083 193.044 134.673 192.726C135.02 192.539 135.096 192.319 134.891 192.091Z" fill="white"/>
<path d="M75.6282 204.998C77.0651 209.22 67.0493 216.449 53.2571 221.143C39.4656 225.839 27.1196 226.222 25.6827 222L23.6738 216.099L73.6201 199.097L75.6282 204.998Z" fill="#98581D"/>
<path d="M55.7343 216.571C41.9429 221.266 29.5968 221.649 28.1592 217.428L27.2893 214.869L23.6758 216.099L25.6846 222C27.1215 226.222 39.4676 225.839 53.259 221.143C66.3165 216.7 75.9869 209.984 75.7618 205.699C72.1045 209.376 64.7217 213.512 55.7343 216.571Z" fill="#060606"/>
<path d="M73.62 199.097C75.0576 203.319 65.041 210.548 51.2495 215.242C37.4574 219.937 25.112 220.321 23.6744 216.099C22.2368 211.877 32.2534 204.649 46.0455 199.954C59.837 195.26 72.183 194.877 73.62 199.097Z" fill="#F9B233"/>
<path d="M71.1729 199.316C72.3854 202.878 63.1991 209.228 50.6556 213.499C38.1113 217.769 26.9587 218.342 25.7462 214.779C24.5336 211.217 33.7192 204.867 46.2642 200.596C58.8077 196.327 69.9604 195.753 71.1729 199.316Z" fill="#D28C2C"/>
<path d="M66.8201 200.855C67.7998 203.732 60.381 208.86 50.2504 212.309C40.1199 215.757 31.1134 216.22 30.1337 213.343C29.1541 210.465 36.5729 205.337 46.7028 201.889C56.8347 198.439 65.8405 197.977 66.8201 200.855Z" fill="#FAB600"/>
<path d="M53.8635 205.406C52.956 205.387 51.4752 205.58 49.3362 205.993C49.2406 206.013 49.1097 206.038 48.9327 206.071C47.1822 206.41 46.1368 206.483 46.066 206.27C46.0193 206.133 46.1106 205.991 46.3541 205.823C46.5077 205.718 46.7151 205.607 46.9706 205.497C47.3061 205.448 47.6487 205.446 47.9884 205.487L48.542 205.556L50.3484 205.003L54.1006 202.978L53.7148 202.822C53.1365 202.587 52.2227 202.566 50.996 202.759C50.3816 202.858 49.695 203.009 48.9554 203.21L48.7933 202.732L46.9727 203.289L43.2006 204.6L43.362 205.076C43.3005 205.102 43.2339 205.131 43.1603 205.163L43.0888 205.195C42.9819 205.242 42.8934 205.281 42.8071 205.32C42.7236 205.359 42.6372 205.4 42.5346 205.448C42.5126 205.458 42.4907 205.469 42.4687 205.48C42.3718 205.526 42.2883 205.566 42.2132 205.605L42.2054 205.608C42.1346 205.644 42.0653 205.68 41.9966 205.714C41.9839 205.721 41.9711 205.728 41.9584 205.733L41.935 205.746C41.8883 205.771 41.8409 205.795 41.7942 205.82C41.7751 205.83 41.7552 205.841 41.7354 205.852L41.7206 205.86C41.6788 205.882 41.637 205.906 41.5967 205.928C41.5712 205.943 41.5457 205.956 41.521 205.972C41.4813 205.992 41.4424 206.015 41.402 206.038C41.378 206.052 41.3546 206.066 41.3313 206.08C41.2916 206.103 41.2527 206.127 41.2145 206.149L41.1946 206.162C41.1791 206.17 41.1635 206.18 41.1486 206.19C41.104 206.216 41.0602 206.243 41.017 206.27L40.9717 206.297C40.9136 206.333 40.8577 206.371 40.8025 206.406L40.7579 206.435C40.7176 206.461 40.6772 206.488 40.6376 206.515L40.6213 206.526C40.5838 206.553 40.547 206.577 40.5095 206.604C40.4521 206.644 40.3934 206.686 40.3254 206.737L40.2872 206.765C40.2277 206.81 40.1725 206.852 40.1209 206.892L40.0933 206.914C40.0458 206.953 39.9984 206.992 39.9531 207.03L39.9283 207.05C39.8823 207.09 39.8377 207.13 39.7896 207.173L39.7613 207.2C39.7103 207.247 39.6707 207.286 39.6325 207.325L39.6289 207.329C39.5935 207.365 39.5574 207.403 39.5185 207.447C39.5086 207.458 39.4994 207.467 39.4895 207.48C39.4583 207.515 39.4286 207.551 39.4003 207.585L39.3883 207.6C39.3599 207.636 39.3316 207.673 39.3019 207.716C39.2962 207.724 39.2906 207.732 39.2849 207.74L39.2828 207.745C39.2608 207.778 39.241 207.81 39.2219 207.84L39.2099 207.862C39.1886 207.898 39.1695 207.935 39.1518 207.973L39.1398 207.999C39.1256 208.029 39.1136 208.06 39.103 208.089L39.0938 208.115C39.0818 208.151 39.0718 208.187 39.0641 208.22L39.0598 208.242C39.0542 208.271 39.0492 208.3 39.0464 208.327L39.0435 208.355C39.0407 208.391 39.0407 208.424 39.0414 208.455L39.0428 208.469C39.0449 208.499 39.0478 208.528 39.0534 208.557C39.0541 208.566 39.0563 208.574 39.0584 208.583C39.0655 208.62 39.074 208.651 39.0839 208.68C39.2368 209.131 39.7988 209.37 40.7586 209.39C41.6576 209.409 43.253 209.205 45.6434 208.761C45.775 208.735 45.9704 208.699 46.2436 208.649C47.2948 208.449 48.5667 208.268 48.6573 208.536C48.663 208.555 48.668 208.575 48.6715 208.598C48.6715 208.604 48.6729 208.61 48.6729 208.616C48.6736 208.632 48.6729 208.649 48.6715 208.666L48.6701 208.681C48.6666 208.702 48.6602 208.724 48.6524 208.743L48.6474 208.758C48.6397 208.774 48.6312 208.792 48.6213 208.809C48.617 208.816 48.6135 208.821 48.6099 208.828C48.5972 208.847 48.583 208.867 48.5675 208.884L48.5611 208.893C48.5441 208.915 48.5229 208.937 48.4988 208.961L48.4861 208.973C48.462 208.997 48.4365 209.019 48.4103 209.041L48.3983 209.05C48.3657 209.078 48.3339 209.101 48.3013 209.124C48.2857 209.136 48.268 209.148 48.2511 209.159C48.2249 209.177 48.1973 209.195 48.1697 209.213L48.152 209.224C48.1286 209.238 48.1038 209.253 48.0783 209.269L48.055 209.283C48.0245 209.299 47.9927 209.317 47.9545 209.338L47.9439 209.344C47.9155 209.359 47.8851 209.374 47.8547 209.389L47.8249 209.405C47.8051 209.414 47.7839 209.424 47.7634 209.434L47.7308 209.45C47.7046 209.463 47.6791 209.473 47.6522 209.486L47.6317 209.496C47.5977 209.511 47.563 209.526 47.5284 209.542L47.4979 209.555C47.4717 209.566 47.4462 209.577 47.4179 209.588L47.3762 209.604C47.3514 209.615 47.3273 209.625 47.3018 209.635L47.2452 209.657C46.8297 209.802 46.6471 209.892 46.497 209.908C46.0327 209.962 45.4516 210.127 45.2137 209.991L45.1196 209.918L44.7529 209.562L43.4555 209.933L39.4067 211.917L39.7075 212.202C40.2568 212.581 41.2088 212.697 42.5402 212.546C43.4427 212.445 44.4939 212.22 45.6646 211.878L45.8168 212.329L47.6381 211.771L51.4101 210.46L51.2402 209.958C52.3791 209.459 53.3319 208.939 54.0695 208.414C55.2777 207.554 55.7775 206.786 55.5566 206.132C55.3966 205.67 54.8283 205.424 53.8635 205.406Z" fill="#402A00"/>
<path d="M54.2802 205.321C53.3012 205.327 51.6902 205.556 49.3543 206.023C49.2481 206.045 49.103 206.074 48.9084 206.113C46.9024 206.515 45.7543 206.611 45.6757 206.381C45.6262 206.235 45.7408 206.077 46.036 205.887C46.3559 205.679 46.8542 205.46 47.5182 205.234C47.979 205.077 48.3966 204.968 48.7569 204.912C49.1469 204.851 49.5426 204.838 49.9291 204.871L50.4946 204.922L54.5449 202.847L54.1683 202.713C53.5553 202.496 52.575 202.499 51.2549 202.72C50.5626 202.838 49.7854 203.013 48.9402 203.247L48.7782 202.771L44.7456 204.144L44.9056 204.612C43.6173 205.135 42.5386 205.681 41.6963 206.235C40.4434 207.059 39.9061 207.766 40.0987 208.333C40.2494 208.777 40.8476 208.999 41.8775 208.995C42.8472 208.993 44.5743 208.749 47.1572 208.251L47.1947 208.243C47.3412 208.212 47.5571 208.171 47.8459 208.117L47.8601 208.113C49.0528 207.878 50.4939 207.658 50.5909 207.944C50.6567 208.135 50.5187 208.338 50.1563 208.58C49.7847 208.829 49.2361 209.075 48.4794 209.332C47.6251 209.624 46.9144 209.807 46.3658 209.877C45.8293 209.947 45.4386 209.913 45.1724 209.776L44.7484 209.56L40.4137 211.701L40.6727 211.864C41.2517 212.227 42.2739 212.319 43.7093 212.135C44.7131 212.008 45.8859 211.748 47.2032 211.361L47.3568 211.812L51.3894 210.439L51.2209 209.946C52.5049 209.408 53.5744 208.857 54.4047 208.305C55.7319 207.42 56.2939 206.645 56.0738 206C55.9202 205.544 55.3164 205.316 54.2802 205.321Z" fill="#B97C26"/>
<path d="M53.8269 205.594C52.9095 205.599 51.3707 205.82 49.1184 206.272C49.0108 206.293 48.8622 206.323 48.6696 206.361C46.3713 206.822 45.1531 206.902 45.0476 206.594C44.9825 206.401 45.1503 206.177 45.5629 205.91C45.9827 205.637 46.6063 205.361 47.4153 205.085C47.9851 204.891 48.5061 204.755 48.9655 204.684C49.4369 204.61 49.9005 204.591 50.3436 204.633L50.5801 204.654L53.7519 203.028L53.594 202.972C53.0426 202.776 52.1585 202.779 50.9687 202.978C50.2021 203.108 49.3286 203.316 48.361 203.6L48.2081 203.151L45.3378 204.127L45.4886 204.571C44.0991 205.107 42.956 205.667 42.0839 206.241C40.9457 206.99 40.458 207.633 40.635 208.151C40.7716 208.554 41.3117 208.756 42.2404 208.754C43.1506 208.751 44.8098 208.515 47.3148 208.032L47.3304 208.028C47.4854 207.997 47.7119 207.951 48.0014 207.898L48.0113 207.895C49.9763 207.508 51.0246 207.462 51.1258 207.762C51.2065 207.998 51.0182 208.266 50.5496 208.58C50.0754 208.898 49.4008 209.204 48.4884 209.513C47.5109 209.846 46.682 210.058 46.0266 210.142C45.3697 210.226 44.8969 210.189 44.5805 210.026L44.4028 209.935L41.071 211.581L41.1807 211.649C41.7137 211.984 42.6474 212.07 43.9561 211.902C45.0052 211.769 46.258 211.477 47.6879 211.033L47.8344 211.463L50.7046 210.487L50.5468 210.024C51.9299 209.471 53.0603 208.906 53.9196 208.333C55.135 207.522 55.6482 206.81 55.4443 206.212C55.3042 205.798 54.7598 205.589 53.8269 205.594Z" fill="white"/>
<defs>
<linearGradient id="paint0_linear_883_24673" x1="108.481" y1="20.3319" x2="148.562" y2="20.3319" gradientUnits="userSpaceOnUse">
<stop/>
<stop offset="1" stop-color="#C37406"/>
</linearGradient>
<linearGradient id="paint1_linear_883_24673" x1="108.422" y1="20.3318" x2="148.622" y2="20.3318" gradientUnits="userSpaceOnUse">
<stop/>
<stop offset="1" stop-color="#C37406"/>
</linearGradient>
<linearGradient id="paint2_linear_883_24673" x1="216.172" y1="124.262" x2="256.254" y2="124.262" gradientUnits="userSpaceOnUse">
<stop/>
<stop offset="1" stop-color="#C37406"/>
</linearGradient>
<linearGradient id="paint3_linear_883_24673" x1="216.111" y1="124.262" x2="256.314" y2="124.262" gradientUnits="userSpaceOnUse">
<stop/>
<stop offset="1" stop-color="#C37406"/>
</linearGradient>
<linearGradient id="paint4_linear_883_24673" x1="241.733" y1="133.696" x2="233.913" y2="114.938" gradientUnits="userSpaceOnUse">
<stop stop-color="#BE530E"/>
<stop offset="0.4878" stop-color="#F8D53A"/>
<stop offset="0.9854" stop-color="#984D00"/>
</linearGradient>
<linearGradient id="paint5_linear_883_24673" x1="197.072" y1="51.5837" x2="237.154" y2="51.5837" gradientUnits="userSpaceOnUse">
<stop/>
<stop offset="1" stop-color="#C37406"/>
</linearGradient>
<linearGradient id="paint6_linear_883_24673" x1="197.012" y1="51.5841" x2="237.212" y2="51.5841" gradientUnits="userSpaceOnUse">
<stop/>
<stop offset="1" stop-color="#C37406"/>
</linearGradient>
<linearGradient id="paint7_linear_883_24673" x1="19.8874" y1="51.5837" x2="59.9685" y2="51.5837" gradientUnits="userSpaceOnUse">
<stop/>
<stop offset="1" stop-color="#C37406"/>
</linearGradient>
<linearGradient id="paint8_linear_883_24673" x1="19.8284" y1="51.5841" x2="60.0292" y2="51.5841" gradientUnits="userSpaceOnUse">
<stop/>
<stop offset="1" stop-color="#C37406"/>
</linearGradient>
<linearGradient id="paint9_linear_883_24673" x1="0.787463" y1="124.262" x2="40.8686" y2="124.262" gradientUnits="userSpaceOnUse">
<stop/>
<stop offset="1" stop-color="#C37406"/>
</linearGradient>
<linearGradient id="paint10_linear_883_24673" x1="0.728516" y1="124.262" x2="40.9293" y2="124.262" gradientUnits="userSpaceOnUse">
<stop/>
<stop offset="1" stop-color="#C37406"/>
</linearGradient>
<linearGradient id="paint11_linear_883_24673" x1="143.766" y1="215.89" x2="139.112" y2="204.727" gradientUnits="userSpaceOnUse">
<stop stop-color="#BE530E"/>
<stop offset="0.4878" stop-color="#F8D53A"/>
<stop offset="0.9854" stop-color="#984D00"/>
</linearGradient>
</defs>
</svg>
