<svg width="250" height="250" viewBox="0 0 250 250" fill="none" xmlns="http://www.w3.org/2000/svg">
<g clip-path="url(#clip0_4043_18944)">
<path d="M250.642 204.598C250.679 271.795 196.238 326.301 129.042 326.34C61.8428 326.378 7.34322 271.935 7.30471 204.738C7.2662 137.544 61.7056 83.0385 128.903 83C196.101 82.9603 250.603 137.405 250.642 204.598Z" fill="#1D2F71"/>
<path d="M46.0563 140.792C47.1936 140.213 48.7593 140.048 50.0542 139.822C52.5297 139.381 55.7646 141.295 58.0692 139.971C58.6781 139.64 58.9489 139.07 59.5566 138.717C60.1283 138.354 60.925 138.251 61.5532 138.013C62.7374 137.572 64.2381 137.029 64.4679 135.622C64.9229 133.035 61.3823 134.013 59.9141 133.816C60.0477 133.392 60.8299 132.943 60.9009 132.547C61.0574 131.664 60.4484 131.666 60.0645 131.012C59.2678 129.719 59.8407 128.506 60.1849 127.264C60.5074 126.043 60.2246 124.36 59.0223 123.915C57.3074 123.295 56.8296 125.084 55.8079 125.804C55.1568 126.264 53.5767 126.672 53.005 125.825C52.5285 125.132 52.7379 123.272 52.3949 122.426C51.65 120.646 50.9857 120.543 49.1167 120.354C47.9578 120.238 46.6845 120.104 45.5376 120.228C44.2632 120.361 43.2535 120.91 43.008 122.265C42.9105 122.827 43.2932 123.363 42.9875 123.893C42.6229 124.502 41.6505 124.483 41.0836 124.768C39.4048 125.638 40.6047 126.168 40.8153 127.598C41.0427 129.115 40.0126 130.103 38.7778 130.757C37.6911 131.328 36.9486 131.766 36.1122 132.557C35.5959 133.043 35.1398 133.131 34.8353 133.834C34.5501 134.454 34.6656 135.103 34.2083 135.745C33.5223 136.729 32.5283 138.254 31.1419 137.911C29.9986 137.64 29.5076 136.472 29.6171 135.366C29.6954 134.708 30.0708 134.094 30.3248 133.448C21.2616 145.981 14.5282 160.31 10.7578 175.799C10.9058 176.52 10.7783 177.387 10.9359 178.015C11.1056 178.613 11.433 179.025 11.5473 179.641C11.6616 180.24 11.3571 180.88 11.4125 181.433C11.5629 182.85 12.7652 183.121 13.8687 182.443C15.0108 181.749 15.4308 180.24 15.4862 179.007C15.6053 177.223 14.5752 175.946 14.3477 174.424C13.9999 171.903 17.1072 172.114 18.4202 171.159C19.8499 170.138 20.176 168.095 21.7309 167.208C23.0294 166.467 24.6457 166.302 25.4303 164.794C26.1343 163.401 24.2473 159.209 26.5929 158.648C27.3486 158.46 27.6387 159.268 28.3427 159.175C29.0274 159.091 29.9433 157.763 30.3801 157.246C31.4837 155.992 32.1516 155.766 33.7679 155.602C35.3143 155.449 36.7416 155.051 37.4829 153.564C37.7501 153.013 37.5996 152.301 37.921 151.774C38.548 150.734 38.7008 151.31 39.6756 151.019C41.2726 150.559 42.5687 149.232 44.2632 148.687C45.0262 148.438 47.3897 147.546 47.823 148.286C48.5679 149.537 45.5978 149.125 45.1742 150.156C44.1296 152.685 48.6618 149.687 49.0818 149.518C50.3743 149.001 53.5562 149.34 53.0195 146.964C52.2204 146.915 51.5753 147.013 50.8352 147.166C49.6546 147.414 49.9519 147.594 49.2551 146.819C48.3393 145.805 48.2598 144.851 49.0818 143.919C50.1625 142.678 50.7883 142.221 48.4512 142.014C47.7472 141.948 46.9854 141.911 46.3211 142.147C45.9974 142.251 44.9287 143.212 44.6435 143.133C43.0092 142.736 45.5388 141.058 46.0563 140.792Z" fill="white"/>
<path d="M49.7452 294.268C51.9559 294.031 55.6879 291.558 54.4134 288.804C54.1246 288.204 51.8994 286.432 53.4218 286.154C53.648 286.11 54.831 286.834 55.2137 286.902C56.014 287.065 56.6807 287.065 57.4196 286.797C58.9251 286.252 60.0636 284.622 60.6413 283.169C61.1311 281.902 61.2129 281.668 62.278 280.768C64.5465 278.894 64.9629 276.208 64.7908 273.441C64.6151 270.868 64.2179 268.414 67.6466 268.072C68.3698 267.992 68.826 268.072 69.4397 267.809C70.1991 267.496 70.4073 267.2 71.2293 267.052C72.9815 266.717 73.1692 266.324 73.9876 264.751C74.5965 263.582 75.3029 262.421 75.818 261.162C76.522 259.466 76.368 258.091 76.5979 256.291C76.77 254.901 77.1875 253.598 77.3019 252.195C77.4162 250.803 77.0744 249.461 77.9878 248.348C78.9013 247.224 79.9314 246.895 80.5933 245.541C81.68 243.381 82.6729 241.914 82.6729 239.435C82.6729 238.455 83.0147 236.799 82.6729 235.897C82.1783 234.504 81.2576 235.183 80.1216 234.866C77.758 234.18 77.9096 230.792 75.327 230.44C74.2523 230.286 73.1512 230.566 72.0825 230.409C70.5204 230.183 69.5516 230.356 68.0678 230.392C68.2964 228.801 66.2758 227.926 65.1506 227.367C64.4863 227.029 64.81 226.937 63.9303 227.059C63.627 227.103 63.1132 227.38 62.8123 227.506C61.9699 227.878 61.4199 228.213 60.675 228.742C60.486 227.775 61.3802 227.174 61.1479 226.228C58.1285 224.95 56.8865 227.239 54.831 228.869C54.2569 227.476 55.0392 226.965 55.9899 226.108C56.7746 225.391 57.0766 225.008 57.2716 223.897C57.5761 221.963 56.5086 219.818 55.9899 217.97C55.5133 216.291 54.8515 216.413 53.2882 216.413C52.1846 216.413 51.081 216.472 49.9943 216.194C45.9736 215.184 44.5487 210.825 40.836 209.512C39.0453 208.868 37.2546 208.692 35.3675 208.396C34.5311 208.262 33.6177 207.998 32.8006 207.74C31.5803 207.343 31.2349 206.58 30.3804 205.847C29.5067 205.099 28.7413 205.311 27.6763 205.653C26.9686 205.894 24.7278 206.948 26.1732 207.653C26.2827 208.197 26.4548 209.101 26.1515 209.645C25.6966 210.474 24.6676 210.263 24.2645 210.956C23.2355 210.11 23.0671 208.997 23.4883 207.758C23.8481 206.691 25.2188 205.922 25.125 204.73C23.9456 204.504 23.1441 205.778 22.2102 206.204C21.2739 206.645 20.4038 206.837 19.4651 207.536C19.0872 207.846 18.7274 208.083 18.4205 208.504C18.1209 208.929 18.0823 209.569 17.6792 209.956C17.3904 210.252 16.8019 210.368 16.3831 210.455C15.4131 210.653 15.927 210.757 15.0882 210.179C13.8522 209.34 13.7174 209.453 12.3262 209.796C11.2455 210.072 10.237 210.321 9.16957 210.709C8.42704 210.977 9.08894 211.519 8.02388 210.941C7.82892 210.845 7.62914 210.628 7.44141 210.392C7.48593 211.346 7.5425 212.296 7.60869 213.244C8.32835 213.874 9.19605 214.508 10.0216 214.126C11.0361 213.661 10.7629 212.149 10.8051 211.214C11.9291 211.155 13.0326 211.014 13.9461 211.671C14.8968 212.378 14.7849 213.519 15.3529 214.536C16.6346 216.851 15.8523 219.23 14.3264 221.251C12.9219 223.107 11.5476 224.629 10.4994 226.704C10.1528 227.41 9.92533 227.666 9.86997 228.505C9.79295 229.598 10.2707 229.247 10.5764 230.018C10.8063 230.619 10.6185 231.229 10.3465 231.82C11.3911 236.395 12.6969 240.873 14.2397 245.238C14.2758 245.304 14.3095 245.362 14.348 245.427C15.0725 246.638 15.259 247.948 15.9077 249.107C16.4805 250.137 17.3903 251.093 18.0186 252.136C18.8754 253.598 18.8947 253.862 20.5771 253.95C22.4581 254.033 22.9347 254.682 24.3608 255.827C27.2924 258.168 29.5248 259.717 28.5704 263.485C27.6967 266.917 27.9434 270.751 29.0013 274.023C34.3915 281.781 40.6603 288.883 47.6668 295.181C47.6909 295.003 47.733 294.843 47.8233 294.716C48.3384 294.032 48.9834 294.367 49.7452 294.268Z" fill="white"/>
<path d="M19.6575 191.911C20.3025 192.038 20.7418 192.33 21.3929 192.17C21.5445 191.76 21.9982 191.278 21.926 190.837C21.8285 190.353 20.9897 190.082 20.5757 189.897C19.5985 189.473 18.5527 189.127 17.6345 188.587C16.6669 188.027 15.9388 187.314 14.8569 186.951C13.4465 186.495 12.0601 186.505 10.6328 186.123C9.81204 185.904 9.71696 186.152 8.93351 186.324C8.84927 186.342 8.76022 186.351 8.67237 186.361C8.61701 186.72 8.57128 187.083 8.51953 187.444C10.0672 186.486 11.3874 187.26 12.8989 187.8C13.5825 188.051 14.3045 188.142 14.8942 188.61C15.2384 188.879 16.0953 189.496 16.1891 189.886C16.3985 190.609 15.2384 190.543 15.5609 191.34C15.8666 192.129 17.525 191.949 18.1544 191.91C18.6683 191.892 19.1436 191.82 19.6575 191.911Z" fill="white"/>
<path d="M29.2586 192.713C28.61 192.09 28.0793 192.171 27.1827 192.171C26.3415 192.171 25.1657 192.216 24.5339 191.667V191.467C23.8106 191.328 24.2487 192.322 24.3449 192.604C24.5206 193.083 24.7481 193.409 23.9658 193.565C23.4291 193.682 22.6721 193.364 22.1739 193.624C21.5842 193.948 21.7166 194.533 22.2702 194.719C23.1668 195.017 24.3846 194.302 25.2764 194.405C25.5857 194.447 25.641 194.666 25.8264 194.704C26.1357 194.781 26.4979 194.704 26.8048 194.709C27.3487 194.744 28.1912 194.952 28.7279 194.769C29.0685 194.653 29.7713 193.777 29.1262 193.69C30.0974 193.917 29.6594 193.107 29.2586 192.713Z" fill="white"/>
<path d="M14.9141 194.391C15.1439 194.467 15.4111 194.436 15.6217 194.535C15.9382 194.668 15.9382 194.856 16.1332 195.019C16.4942 195.36 16.9311 195.427 17.6014 195.354C18.1718 195.294 18.3993 195.057 17.8072 194.593C17.3715 194.259 16.8889 194.549 16.8288 193.935C16.1235 193.819 15.4821 193.946 14.9141 194.391Z" fill="white"/>
<path d="M40.3478 210.398C40.3467 210.46 40.3541 210.502 40.3583 210.551C40.3996 210.557 40.4408 210.556 40.4842 210.565L40.3478 210.398Z" fill="white"/>
<path d="M32.0547 194.654C32.2665 195.141 32.5722 194.855 32.9296 194.97C33.3653 195.102 33.5361 195.341 34.0139 195.341C34.8142 195.341 35.5206 195.133 35.387 194.151C34.5109 194.084 34.3196 194.684 33.506 194.143L33.7503 194.022C32.9296 193.692 32.5264 193.998 32.0547 194.654Z" fill="white"/>
<path d="M58.0468 143.822C58.9458 144.125 60.0289 143.22 61.041 143.399C61.8534 143.553 62.295 144.11 63.2096 143.98C63.8752 143.887 65.1352 143.18 65.0148 142.364C64.8837 141.21 63.6056 141.821 62.9232 141.392C62.5814 141.185 62.4081 140.705 62.3552 140.351C62.2397 139.686 62.5225 139.836 62.6344 139.307C62.7343 138.915 63.1699 138.632 62.2758 138.564C61.739 138.527 61.5922 138.788 61.3672 139.191C60.0361 139.599 59.6378 141.705 58.8086 142.565C58.4115 142.953 56.9457 143.44 58.0468 143.822Z" fill="white"/>
<path d="M55.5772 109.535C56.1272 110.144 56.2813 110.961 56.9287 111.418C57.3499 111.731 57.9384 111.829 58.356 112.19C59.06 112.761 59.5162 113.551 59.0035 114.334C58.5137 115.112 57.8614 114.772 57.2139 114.397C56.5689 114.044 56.0743 113.701 55.3305 113.733C54.9888 113.752 54.5062 113.781 54.2053 113.931C53.8635 114.102 53.5591 114.521 53.275 114.801C52.778 115.331 52.2244 116.043 51.4855 116.214C50.548 116.438 48.874 115.623 48.0352 116.115C47.5972 116.369 47.5225 116.913 47.9425 117.178C48.3626 117.436 49.3686 116.939 49.7694 116.886C50.6082 116.771 51.9199 116.798 52.5855 117.265C53.3484 117.77 53.5398 118.95 54.2258 119.633C55.1211 120.52 56.203 120.908 57.4618 120.894C57.9204 120.881 58.8302 120.991 58.6448 120.225C58.5137 119.758 57.4811 119.902 57.232 119.543C57.102 119.342 57.1225 118.351 57.2741 118.2C57.8422 117.672 58.5281 118.546 58.9072 118.719C59.5787 119.025 61.1336 119.112 61.3839 118.117C61.5175 117.556 61.1336 117.406 60.9254 116.978C60.6221 116.387 60.5451 116.188 60.5451 115.457C60.5247 112.7 63.2709 114.827 64.6429 115.186C65.7055 115.484 67.1725 114.425 66.2796 113.342C65.7284 112.7 64.3372 112.74 63.6897 111.967C63.3094 111.539 62.893 110.878 62.9279 110.293C62.9472 109.817 63.4984 109.561 63.4984 109.25C63.5393 108.539 62.1108 107.943 61.4814 107.819C60.509 107.626 59.9386 107.921 59.3296 106.958C58.8567 106.225 58.7628 105.795 58.2008 105.691C56.9083 106.619 55.6326 107.571 54.3762 108.548C54.8576 108.821 55.292 109.2 55.5772 109.535Z" fill="white"/>
<path d="M70.6018 99.306C71.514 100.517 75.329 99.5732 76.8273 99.8031C78.3497 100.022 80.2162 101.396 81.2488 102.498C82.179 103.504 82.4077 105.544 82.498 106.897C82.6376 109.219 80.5652 110.754 79.4364 112.42C77.6649 115.057 80.6735 118.559 81.055 121.167C81.2608 122.605 82.9974 123.065 84.4295 122.687C85.5295 122.389 86.7341 121.312 87.6247 120.557C89.0724 119.292 89.0724 117.447 90.7332 116.316C92.4253 115.125 94.0066 114.951 95.9466 114.579C100.234 113.763 103.717 110.474 108.136 110.496C109.999 110.496 111.925 110.801 113.868 110.683C114.995 110.62 115.942 110.036 114.457 109.371C113.317 108.857 112.229 109.009 112.229 107.362C112.25 105.99 113.28 106.174 114.287 106.68C114.914 107.001 116.55 108.524 117.392 107.989C118.704 107.171 116.912 106.37 116.364 106.106C115.562 105.725 114.229 105.322 114.553 104.193C114.915 102.88 117.562 102.869 118.669 102.461C119.845 102.02 121.16 101.205 121.828 100.098C122.51 98.9245 122.077 97.6368 122.454 96.4695C123.176 94.2515 126.645 95.3792 128.075 94.0782C128.665 93.5511 128.741 93.574 127.958 93.3189C126.852 92.947 125.33 93.5379 124.207 93.6077C122.512 93.716 122.648 92.9542 121.353 92.1732C119.942 91.3079 117.485 91.7941 115.867 91.7941C114.115 91.7941 112.358 91.7568 110.665 92.1383C108.136 92.7087 105.885 94.0903 103.168 94.0782C100.951 94.0686 98.7687 93.5078 96.5218 93.716C93.6034 93.9868 90.732 93.8039 87.8521 93.7004C86.3322 93.6414 84.2562 93.5186 82.8662 94.1721L83.0552 94.0782C80.9214 94.5584 79.0164 95.8425 76.8092 96.2529C75.3495 96.5213 73.8596 96.567 72.4263 96.9208C71.8378 97.2289 71.2505 97.5406 70.668 97.8583C70.3238 98.2639 70.1927 98.7705 70.6018 99.306Z" fill="white"/>
<path d="M127.823 130.596C127.347 130.625 126.907 130.906 126.487 131.089C125.667 131.443 124.662 131.223 123.843 131.06C123.346 130.958 122.967 130.9 122.524 131.212C122.108 131.508 121.938 131.68 121.404 131.773C120.813 131.88 120.641 131.909 120.239 132.299C120.051 132.489 119.253 132.9 119.524 133.241C119.676 133.46 119.883 133.241 120.036 133.204C120.34 133.128 120.34 133.022 120.698 133.156C121.141 133.317 121.499 133.7 121.896 133.964C122.697 134.523 123.763 134.166 124.529 133.738C124.999 133.459 125.271 133.574 125.839 133.489C126.315 133.411 126.738 133.154 127.173 132.962C127.615 132.786 128.259 132.832 128.56 132.473C128.734 132.288 128.734 132.047 128.906 131.857C129.021 131.738 129.418 131.697 129.477 131.595C129.496 131.575 129.571 131.508 129.591 131.483C129.443 131.35 129.194 131.117 128.969 131.039C128.543 130.934 128.362 130.55 127.823 130.596Z" fill="white"/>
<path d="M126.986 136.39C126.906 136.868 126.906 137.497 127.516 137.451C128.201 137.404 128.279 136.628 128.848 136.546C129.778 136.414 130.961 137.193 131.744 136.404C132.163 135.976 132.525 135.106 132.238 134.534C131.974 133.976 131.212 133.764 130.658 133.447C130.278 133.221 130.049 132.546 129.573 132.583H129.669C129.154 132.329 128.752 133.07 128.472 133.374C128.222 133.635 127.516 133.707 127.516 134.109C127.533 134.687 128.26 134.432 127.766 135.165C127.493 135.563 127.078 135.892 126.986 136.39Z" fill="white"/>
<path d="M132.601 132.242C132.657 131.482 131.176 132.298 131.097 131.817L131.156 131.91C130.874 131.91 130.489 131.817 130.316 132.061C130.679 132.396 130.929 132.792 131.348 133.07C131.728 133.331 132.583 133.562 132.43 132.733C131.876 132.747 132.162 132.194 132.601 132.242Z" fill="white"/>
<path d="M143.3 162.315C143.002 162.366 142.167 162.614 142.047 162.937C141.883 163.408 143.031 163.256 143.3 163.197C144.116 163.012 144.88 162.512 145.648 162.22C146.328 161.955 146.816 162.146 147.512 162.189C148.191 162.229 149.31 161.963 149.861 161.506C150.044 161.354 150.296 161.156 150.243 160.891C150.191 160.668 149.96 160.665 149.844 160.515C149.51 160.009 150.279 159.909 150.111 159.401C149.976 158.957 149.49 159.216 149.141 159.182C148.577 159.131 148.361 158.518 148.175 158.024C147.944 157.392 147.962 156.518 147.582 155.976C147.278 155.568 146.66 155.402 146.226 155.25C145.977 155.169 145.413 155.1 145.277 154.888C144.931 154.397 145.711 154.154 145.893 153.846C146.215 153.279 145.528 153.228 145.13 153.189C144.896 153.17 144.664 153.195 144.514 152.994C144.393 152.812 144.41 152.349 144.228 152.254C144.095 152.187 143.732 152.318 143.598 152.371C143.231 152.486 142.7 152.68 142.5 153.047C142.263 153.436 142.548 154.068 142.814 154.385C142.929 154.535 143.03 154.47 143.1 154.717C143.166 154.992 142.948 155.177 142.948 155.423C142.948 156.059 143.515 155.997 143.964 156.099C144.411 156.191 144.468 156.364 144.781 156.683C145.162 157.073 145.162 157.25 145.143 157.849C145.131 158.257 145.114 158.748 144.647 158.922C144.211 159.092 143.916 158.874 143.55 159.315C143.363 159.519 143.402 159.72 143.299 159.972C143.185 160.358 142.928 160.472 142.68 160.73C143.166 160.912 144.847 160.863 144.448 161.74C144.229 162.191 143.697 162.246 143.3 162.315Z" fill="white"/>
<path d="M207.08 111.387C206.036 111.579 205.106 112.048 204.072 112.103C202.164 112.182 200.188 111.304 198.341 111.958C197.519 112.249 197.217 113.306 196.53 113.532C195.441 113.893 194.38 113.082 193.179 113.657C191.884 114.273 190.893 115.75 189.539 116.473C186.342 118.187 183.562 116.468 181.127 114.123C182.002 113.182 190.969 114.275 189.807 111.935C188.856 110.007 181.527 110.803 179.622 110.313C176.173 109.419 174.842 107.162 170.975 107.495C166.746 107.86 158.614 110.331 156.69 114.762C156.348 115.563 156.709 116.105 156.119 116.886C154.924 118.506 152.613 118.608 150.809 118.991C149.34 119.293 149.09 120.665 147.665 121.095C147.588 122.529 147.496 125.346 148.581 126.427C150.026 127.845 152.922 125.255 154.634 125.664C155.909 125.967 155.624 126.963 155.947 127.864C156.253 128.714 157.661 130.034 158.52 130.35C159.662 130.78 161.128 130.427 161.778 129.389C162.367 128.473 162.022 127.437 162.823 126.657C163.546 125.967 164.118 125.616 164.272 124.523C164.485 122.907 163.529 123.422 162.653 122.529C160.463 120.342 165.091 119.198 166.25 118.608C166.746 118.371 167.393 117.892 167.732 117.466C168.038 117.094 168.195 116.317 168.572 116.056C169.734 115.267 169.319 117.408 169.031 118.012C168.268 119.644 166.688 121.352 168.46 123.091C169.962 124.568 171.677 123.025 173.314 122.896C174.15 122.827 175.508 122.665 176.287 122.913C176.818 123.091 177.844 124.35 177.526 124.932C177.008 125.852 175.145 125.048 174.456 124.895C174.04 124.8 171.792 124.551 171.51 124.914C170.989 125.57 172.038 125.6 172.266 125.953C172.438 126.23 172.381 126.857 172.364 127.189C172.346 128.094 171.885 128.951 170.839 128.609C170.289 128.428 169.576 127.454 168.84 128.076C168.361 128.448 168.307 129.894 168.361 130.447C168.442 131.164 168.895 132.372 167.986 132.933C167.487 133.225 166.119 133.051 165.58 132.911C164.818 132.71 164.268 132.205 163.391 132.35C162.687 132.466 161.735 133.092 161.01 133.3C159.218 133.82 156.745 133.579 154.823 133.488C154.458 132.679 153.792 131.684 154.042 130.723C154.23 130.035 155.237 129.178 154.498 128.437C154.001 127.955 152.633 128.217 152.154 128.751C151.339 129.669 152.002 130.247 152.311 131.124C152.557 131.821 152.578 132.998 152.081 133.59C151.415 134.405 150.232 133.919 149.281 134.144C148.807 134.246 148.123 134.405 147.831 134.828C147.548 135.257 147.795 135.883 147.183 136.248C146.403 136.691 145.397 136.495 144.634 137.14C143.262 138.273 141.97 139.691 140.501 140.633C139.512 141.256 138.235 141.356 137.096 141.606C135.889 141.853 135.111 142.109 133.815 142.187C133.798 143.065 133.739 143.632 134.273 144.298C134.847 145.006 135.513 145.578 136.005 146.348C137.095 148.012 137.129 149.879 134.864 150.48C132.86 151.021 130.633 150.091 128.558 150.195C127.914 150.224 126.483 150.109 126.108 150.85C125.626 151.745 126.885 152.716 127.417 153.24C127.797 153.63 128.468 153.956 128.791 154.382C129.514 155.417 128.639 157.441 128.102 158.4C127.853 158.878 126.829 159.618 126.753 160.104C126.385 162.066 128.905 163.239 130.331 163.557C131.568 163.811 133.892 164.505 135.149 164.128C136.542 163.708 137.87 161.618 138.388 160.268C139.189 158.221 138.879 157.194 140.92 155.957C141.644 155.516 142.613 155.49 143.259 154.784C143.885 154.08 143.813 152.822 144.497 152.242C145.524 151.385 148.023 151.987 149.315 151.375C151.432 150.394 151.678 149.787 153.889 151.282C155.829 152.595 157.582 154.139 159.389 155.49C160.78 156.516 160.306 156.413 160.703 158.001C160.972 158.978 161.637 160.506 162.439 161.086C163.501 160.067 164.34 158.754 163.995 157.284C164.723 157.239 165.505 157.27 166.227 157.222C167.214 153.138 156.683 153.286 157.315 148.545C158.607 148.194 158.856 148.977 159.829 149.385C160.513 149.689 161.599 149.66 162.244 150.032C163.177 150.557 163.162 151.203 163.94 151.915C164.496 152.431 165.216 152.406 165.865 152.862C168.529 154.72 166.07 159.954 171.787 159.575C169.8 160.642 171.92 162.599 172.359 164.069C172.435 162.599 173.727 161.618 173.689 159.926C173.672 158.049 172.718 157.543 174.855 156.87C176.223 156.428 177.709 156.403 179.042 155.91C181.079 155.163 180.794 155.096 180.244 153.041C180.032 152.269 179.423 152.407 179.784 151.342C179.972 150.816 181.171 150.119 181.535 149.577C182.336 148.359 182.792 145.934 184.734 145.836C186.774 145.742 185.992 147.824 187.191 148.72C188.236 149.509 190.429 149.201 190.85 147.936C187.556 146.966 191.633 146.141 192.6 145.653C193.229 145.357 194.122 143.97 194.866 144.646C195.742 145.468 194.066 146.721 193.97 147.188C193.552 149.225 195.131 149.158 196.466 150.387C197.837 151.673 198.446 153.757 199.455 155.313C197.441 155.435 195.19 155.565 193.382 154.731C191.057 153.662 190.14 152.757 187.438 153.684C186.599 153.958 185.762 154.396 184.988 154.804C184.779 154.927 184.586 155.558 184.202 155.735C183.801 155.937 183.118 155.595 182.674 155.759C180.582 156.536 180.105 157.351 177.75 157.469C177.88 158.414 178.85 158.081 179.196 158.822C179.479 159.386 179.196 160.553 179.196 161.174C179.174 163.242 179.386 163.26 181.518 163.356C184.05 163.486 184.751 163.336 186.868 164.84C189.342 166.621 189.322 164.613 191.246 163.336C193.513 164.22 191.263 166.373 190.71 167.574C190.182 168.724 190.62 170.199 190.123 171.192C189.154 173.211 185.093 172.143 183.231 172.143C181.973 172.143 180.434 172.372 179.288 171.913C177.959 171.37 177.002 170.28 175.422 169.85C173.406 169.319 169.16 168.524 168.167 171.192C168.548 171.318 168.852 171.801 169.14 171.942C168.324 173.267 165.654 172.436 164.586 171.712C163.007 170.632 162.718 170.183 160.761 169.623C158.854 169.058 156.949 168.19 155.981 166.413C155.122 164.821 155.657 163.161 153.845 162.373C152.898 161.943 152.686 162.04 151.749 162.39C150.57 162.841 150.801 163.406 149.277 163.558C147.581 163.727 145.816 163.461 144.113 163.558C142.555 163.639 140.898 163.785 139.586 164.537C138.789 165 138.539 165.821 137.241 166.04C136.441 166.172 135.374 166.11 134.573 166.033C132.671 165.851 129.51 164.271 127.971 166.472C127.205 167.543 127.817 168.153 126.713 169.117C125.795 169.916 124.387 170.193 123.739 171.324C122.349 173.685 124.481 175.172 121.799 176.867C119.302 178.437 118.069 179.03 116.616 181.657C115.38 183.892 113.153 185.479 112.066 187.779C111.306 189.356 111.86 191.083 111.875 192.752C111.875 196.386 108.581 198.173 110.962 201.911C111.86 203.325 113.228 204.449 114.03 205.928C114.846 207.471 114.958 209.324 115.629 210.925C116.903 213.884 122.028 217.989 125.037 219.239C127.436 220.248 128.674 219.514 130.5 218.542C132.33 217.596 134.096 217.849 136.099 217.946C139.243 218.086 141.033 214.336 144.688 216.066C146.44 216.894 146.231 218.173 148.308 218.56C150.192 218.906 151.85 218.512 152.898 220.583C154.225 223.209 152.493 226.018 152.416 228.684C152.361 231.369 154.837 231.38 155.752 233.776C156.438 235.575 156.438 237.567 157.239 239.321C158.834 242.844 159.482 244.743 157.851 248.671C156.627 251.643 156.003 255.234 157.709 258.209C159.673 261.607 160.129 264.894 160.682 268.762C160.935 270.543 160.833 272.301 161.522 273.855C162.359 275.729 164.208 277.452 164.706 279.396C165.215 281.49 164.322 283.662 165.295 285.709C166.297 287.822 167.671 287.47 169.694 287.177C172.946 286.72 176.7 287.347 179.631 285.558C181.044 284.681 181.878 283.662 182.816 282.259C184.053 280.414 184.888 279.814 186.698 278.586C188.469 277.394 189.496 275.995 189.533 273.861C189.591 271.325 188.929 270.625 191.552 269.276C193.21 268.421 194.654 267.721 194.504 265.464C194.393 263.781 193.173 262.171 193.763 260.315C195.191 255.932 201.61 254.752 202.747 250.376C203.74 246.614 201.99 241.517 201.421 237.796C200.214 229.987 207.036 226.636 212.025 221.998C214.672 219.53 216.232 215.495 218.007 212.364C218.748 211.086 219.757 209.63 219.128 208.163C218.618 206.927 216.976 205.907 215.682 206.108C213.722 206.421 212.537 207.155 210.352 207.058C206.122 206.887 205.648 203.56 202.521 201.335C199.587 199.238 198.965 195.987 196.784 193.169C195.306 191.237 195.861 190.321 195.648 187.979C195.477 185.886 194.164 185.57 192.602 184.36C191.366 183.417 191.039 182.61 190.507 181.292C189.915 179.84 188.449 177.87 188.205 176.382C187.936 174.753 189.305 174.377 190.487 175.394C190.851 175.689 190.449 176.628 191.308 176.867C191.862 177.014 192.242 176.227 192.753 175.98C193.286 177.846 193.553 179.872 194.375 181.64C195.037 183.093 196.185 184.497 196.812 186.083C197.495 187.786 197.858 188.395 199.327 189.655C200.811 190.941 202.158 192.566 203.057 194.332C204.235 196.653 204.805 203.002 207.875 203.826C209.319 204.216 211.188 202.46 212.652 202.145C214.806 201.689 215.623 201.501 217.204 199.861C218.863 198.174 221.03 197.269 223.169 196.232C224.407 195.634 225.946 195.559 226.881 194.321C227.623 193.34 227.466 192.133 227.946 191.062C228.666 189.434 231.775 187.455 230.401 185.304C229.107 183.285 226.328 184.35 225.583 181.526C224.116 181.23 223.05 182.4 221.87 183.027C220.235 183.891 219.109 184.028 217.314 183.218C214.823 182.094 215.302 180.971 214.541 178.819C214.044 177.42 212.518 176.668 212.843 175.031C215.623 174.878 216.232 175.34 217.795 177.524C218.863 179.049 219.661 180.351 221.603 180.54C223.299 180.694 224.973 179.608 226.57 179.965C228.209 180.343 229.202 181.999 230.989 182.448C232.779 182.904 234.745 182.503 236.493 183.196C237.159 183.465 237.75 184.133 238.433 184.32C239.37 184.571 240.341 183.892 241.062 184.017C242.839 184.302 243.256 186.37 244.323 187.754C245.786 189.665 246.684 189.275 248.891 189.505C249.21 189.536 249.477 189.582 249.706 189.641C245.854 158.308 230.085 130.673 207.08 111.387Z" fill="white"/>
<path d="M132.062 83.0393V326.302C197.832 324.665 250.645 270.835 250.645 204.669C250.645 138.506 197.834 84.676 132.062 83.0393Z" fill="#C6C6C6" fill-opacity="0.3"/>
<path d="M250.642 205.314C250.642 272.592 196.101 327.133 128.821 327.133C61.5429 327.133 7 272.592 7 205.314C7 138.034 61.5429 83.4934 128.821 83.4934C196.101 83.4934 250.642 138.034 250.642 205.314Z" stroke="#88B8FF" stroke-opacity="0.33" stroke-width="1.83815" stroke-miterlimit="10"/>
<path d="M128.821 290.474C196.101 290.474 250.642 252.346 250.642 205.313C250.642 158.28 196.101 120.152 128.821 120.152C61.541 120.152 7 158.28 7 205.313C7 252.346 61.541 290.474 128.821 290.474Z" stroke="#88B8FF" stroke-opacity="0.33" stroke-width="1.83815" stroke-miterlimit="10"/>
<path d="M128.821 242.484C61.5429 242.484 7 225.841 7 205.315C7 184.788 61.5429 168.147 128.821 168.147C196.099 168.147 250.642 184.788 250.642 205.315C250.642 225.841 196.099 242.484 128.821 242.484Z" stroke="#88B8FF" stroke-opacity="0.33" stroke-width="1.83815" stroke-miterlimit="10"/>
<path d="M213.979 205.314C213.979 272.592 175.851 327.133 128.817 327.133C81.7841 327.133 43.6562 272.592 43.6562 205.314C43.6562 138.034 81.7841 83.4934 128.817 83.4934C175.851 83.4934 213.979 138.034 213.979 205.314Z" stroke="#88B8FF" stroke-opacity="0.33" stroke-width="1.83815" stroke-miterlimit="10"/>
<path d="M163.485 205.314C163.485 272.592 147.964 327.133 128.821 327.133C109.677 327.133 94.1562 272.592 94.1562 205.314C94.1562 138.034 109.677 83.4934 128.821 83.4934C147.964 83.4934 163.485 138.034 163.485 205.314Z" stroke="#88B8FF" stroke-opacity="0.33" stroke-width="1.83815" stroke-miterlimit="10"/>
<path d="M120.908 36.3298C120.565 39.4016 120.672 42.0656 120.879 44.0139C121.101 46.1548 121.445 47.4299 121.445 47.4299L123.285 47.5012H123.371L146.301 48.3889L154.028 48.6823L155.518 41.5426L155.661 40.855L156.033 39.0719L156.183 38.3487L156.441 37.1024L158.045 29.4402L158.195 28.7239L158.324 28.0938C158.324 28.0938 156.527 25.3366 153.898 23.0093C153.691 22.8304 153.483 22.6439 153.268 22.4794C152.66 21.9707 152.015 21.5128 151.342 21.1117C149.802 20.202 148.213 19.5151 146.845 19.0133C146.494 18.8769 146.157 18.7624 145.85 18.6623C144.224 18.1249 143.107 17.8891 143.107 17.8891L147.225 15.3828C147.225 15.3828 144.489 13.8643 140.3 13.2487C140.056 13.2131 139.805 13.1843 139.548 13.1555H139.541C138.137 12.991 136.598 12.9409 134.943 13.0842C134.692 13.0986 134.434 13.1274 134.184 13.163C133.647 13.2206 133.095 13.3063 132.544 13.4139C130.074 13.8938 127.854 15.1469 125.949 16.6654C125.734 16.8375 125.526 17.0088 125.326 17.1809C124.567 17.8328 123.865 18.5129 123.227 19.2005C123.041 19.3938 122.862 19.5947 122.69 19.788C122.675 19.7948 122.668 19.8092 122.661 19.8168C121.537 21.0843 120.627 22.3231 119.968 23.2897C119.825 23.5042 119.688 23.7051 119.567 23.8909C119.037 24.7142 118.758 25.2297 118.758 25.2297L121.98 27.3782C121.982 27.3788 121.624 29.8851 120.908 36.3298Z" fill="#1A4559"/>
<path d="M139.459 34.8766L146.305 48.3898L154.032 48.6832L155.522 41.5434L155.665 40.8558L156.037 39.0728L156.188 38.3495L156.445 37.1032L147.007 30.3145L139.459 34.8766Z" fill="#0B212E"/>
<path d="M120.912 36.3301C120.568 39.402 120.675 42.0659 120.883 44.0142L123.289 47.5015L123.339 47.5728L123.375 47.5015L131.918 30.1L121.699 23.798L122.665 19.8164C121.541 21.0839 120.631 22.3227 119.973 23.2893C119.829 23.5039 119.693 23.7047 119.572 23.8905C119.042 24.7138 118.762 25.2293 118.762 25.2293L121.985 27.3778C121.986 27.3792 121.628 29.8855 120.912 36.3301Z" fill="#0B212E"/>
<path d="M122.693 19.7882C123.595 21.6069 124.963 23.2042 126.381 24.6575C128.773 27.0993 131.437 29.1978 134.373 30.9452C134.774 31.1817 135.132 30.5654 134.731 30.3296C132.038 28.7186 129.503 26.8203 127.304 24.5718C125.729 22.9533 124.182 21.2278 123.23 19.2007C123.044 19.394 122.865 19.5942 122.693 19.7882Z" fill="#0B212E"/>
<path d="M125.331 17.181C126.849 22.5021 131.683 27.0417 135.686 30.4577C136.037 30.7586 136.545 30.2568 136.194 29.9566C132.177 26.5262 127.343 22.0147 125.954 16.6655C125.739 16.8376 125.532 17.009 125.331 17.181Z" fill="#0B212E"/>
<path d="M133.854 21.2775C134.27 24.5502 135.53 27.6652 137.37 30.3936C137.628 30.7734 138.251 30.4149 137.993 30.0283C136.304 27.5432 135.101 24.7216 134.642 21.7429C134.391 20.0956 134.277 18.4058 134.427 16.7372C134.499 15.9351 134.542 14.1809 134.95 13.0847C134.699 13.0991 134.441 13.1279 134.191 13.1636C133.976 13.9944 133.912 14.9542 133.833 15.6054C133.604 17.5036 133.611 19.3799 133.854 21.2775Z" fill="#0B212E"/>
<path d="M138.888 30.6797C139.067 31.0739 139.619 30.773 139.525 30.3863C139.726 30.5653 140.134 30.4796 140.127 30.1354C140.113 26.7414 140.314 23.4255 143.307 21.2983C144.431 20.4962 145.613 19.6941 146.852 19.0141C146.501 18.8777 146.164 18.7632 145.856 18.6631C144.439 19.4508 143.107 20.3961 142.032 21.4128C139.562 23.7326 139.397 26.8696 139.412 30.0922C137.041 24.6567 137.421 18.3478 140.307 13.2495C140.063 13.2138 139.813 13.185 139.555 13.1562H139.548C136.632 18.513 136.331 25.0228 138.888 30.6797Z" fill="#0B212E"/>
<path d="M145.13 30.0495C147.665 29.2687 150.924 29.5909 153.573 29.5196C155.063 29.4764 156.553 29.4551 158.049 29.4407L158.199 28.7244C156.423 28.7388 154.64 28.7744 152.864 28.8244C150.344 28.9033 147.372 28.6099 144.937 29.3619C144.5 29.4976 144.687 30.1852 145.13 30.0495Z" fill="#0B212E"/>
<path d="M143.186 30.1709C144.368 27.557 147.045 26.2182 149.495 25.0007C150.941 24.2774 152.409 23.6111 153.898 23.0099C153.691 22.831 153.483 22.6445 153.268 22.48C151.664 23.1388 150.096 23.8695 148.564 24.6716C146.179 25.9248 143.722 27.2499 142.563 29.8062C142.377 30.2285 142.992 30.5939 143.186 30.1709Z" fill="#0B212E"/>
<path d="M145.246 34.2392C148.913 35.7001 152.514 37.3111 156.037 39.0729L156.188 38.3496C152.671 36.6022 149.083 34.9981 145.432 33.5448C145.002 33.3727 144.823 34.0671 145.246 34.2392Z" fill="#1A4559"/>
<path d="M144.844 37.6829C147.536 38.8072 150.257 39.8458 153.029 40.7479C153.86 41.0201 154.691 41.2847 155.521 41.5431L155.664 40.8555C155.478 40.7911 155.306 40.7267 155.141 40.6766C154.074 40.34 153.007 39.9966 151.947 39.6312C149.613 38.8223 147.314 37.9414 145.029 36.996C144.608 36.8171 144.421 37.5115 144.844 37.6829Z" fill="#1A4559"/>
<path d="M119.573 23.8908C122.531 26.4971 125.646 28.9109 128.919 31.1238C129.305 31.3884 129.663 30.7659 129.284 30.5082C126.018 28.3028 122.917 25.8966 119.975 23.2896C119.831 23.5041 119.695 23.705 119.573 23.8908Z" fill="#1A4559"/>
<path d="M91.0144 231.83L101.995 235.223L104.859 219.112L97.9966 217.15L91.0144 231.83Z" fill="#0B212E"/>
<path d="M194.895 208.422L192.02 210.036L191.359 206.079L193.417 206.587C193.417 206.587 194.402 206.646 194.895 208.422Z" fill="#0B212E"/>
<path d="M121.628 398.327L123.125 398.736L123.497 398.836L127.536 399.938L137.225 394.718L138.493 394.038L140.784 392.806L137.705 385.452L137.025 383.826V377.56L140.784 373.442L169.916 249.239L170.331 247.448L171.527 242.35L171.921 240.681L173.367 234.516L172.866 219.112V219.098L172.473 206.859L160.084 206.759L153.624 206.709L140.82 206.609H140.677L131.117 206.53L131.11 206.666L131.102 206.859L131.031 208.284L130.945 210.067L130.429 220.458L130.358 221.912L129.842 232.295L129.785 233.484L122.537 379.887L122.466 381.334L122.208 386.54L122.144 387.972L121.778 395.312L121.628 398.327Z" fill="#826B62"/>
<path d="M98.53 206.859L98.9522 230.899L98.9735 232.36L99.0311 235.425L99.0523 236.857L100.499 319.189L107.087 377.431L107.245 378.87L108.09 386.311L108.248 387.736L109.358 397.533L109.63 399.939H123.058L123.122 398.736L123.165 397.984V397.977L123.323 395.248V395.227L127.354 322.957L131.916 301.115L137.931 255.935C137.938 255.892 137.938 255.856 137.946 255.813L139.414 244.771L139.708 242.572L144.807 238.275L151.674 213.676L153.622 206.709L153.672 206.53L140.818 206.609H140.674L131.107 206.666L98.53 206.859Z" fill="#826B62"/>
<path d="M120.868 209.138C120.868 209.138 122.747 209.72 120.868 210.929C118.988 212.138 112.767 211.556 110.708 208.423C108.65 205.29 108.65 205.29 108.65 205.29L120.868 209.138Z" fill="#0B212E"/>
<path d="M87.9724 94.1276L95.1334 134.617C95.1334 134.617 95.1334 134.631 95.1402 134.667C95.1546 134.738 95.1759 134.904 95.2047 135.133C95.2191 135.197 95.2259 135.276 95.2335 135.355C95.2403 135.369 95.2403 135.376 95.2403 135.383C95.2616 135.505 95.276 135.641 95.2979 135.799C95.3048 135.834 95.3048 135.878 95.3123 135.913C95.3768 136.329 95.4412 136.844 95.52 137.439C95.52 137.474 95.5269 137.503 95.5344 137.532C95.5632 137.754 95.592 137.99 95.6277 138.234C95.6345 138.298 95.6421 138.363 95.6489 138.427C95.699 138.757 95.7421 139.107 95.7846 139.48C95.8278 139.802 95.8703 140.146 95.9135 140.497C95.9423 140.719 95.9704 140.941 95.9992 141.177C96.0061 141.227 96.0136 141.277 96.0205 141.334C96.0493 141.585 96.0849 141.843 96.1137 142.108C96.1493 142.423 96.185 142.745 96.2282 143.082C96.307 143.734 96.3858 144.414 96.4715 145.123C96.5147 145.503 96.5572 145.889 96.6004 146.283C96.6505 146.698 96.6936 147.12 96.7437 147.55C96.7725 147.822 96.8013 148.094 96.8294 148.367C96.9583 149.563 97.0872 150.816 97.2092 152.097C97.2524 152.491 97.288 152.893 97.3237 153.294C97.6171 156.359 97.8892 159.61 98.0969 162.89V162.896C98.1113 163.104 98.1257 163.304 98.1401 163.512C98.1833 164.3 98.2333 165.102 98.2765 165.889C98.2834 166.04 98.2909 166.19 98.2978 166.334C98.319 166.742 98.3334 167.15 98.3554 167.558C98.4342 169.391 98.4911 171.211 98.5199 172.979C98.5268 173.273 98.5343 173.559 98.5343 173.846C98.5411 174.433 98.5487 175.013 98.5487 175.593C98.6988 192.229 98.5343 206.859 98.5343 206.859L107.472 206.801L172.459 206.408C172.459 206.408 171.041 156.995 172.116 142.759C173.19 128.529 175.875 93.4112 175.875 93.4112C175.875 93.4112 168.012 90.5896 161.617 87.3813C160.865 87.009 160.135 86.6293 159.44 86.2426C158.094 85.5118 156.884 84.7674 155.917 84.0441C155.208 83.5211 154.628 83.0056 154.213 82.5188C153.003 81.0724 152.33 77.4562 151.979 73.2162C151.227 64.2934 151.886 52.6208 151.886 52.6208L125.031 54.9482C125.031 54.9482 124.96 58.3066 124.909 62.7036C124.874 65.4252 124.852 68.5402 124.852 71.512C124.852 72.1063 124.837 72.6794 124.809 73.2162C124.708 75.1782 124.429 76.7899 123.963 78.1287C123.656 79.024 123.261 79.7973 122.789 80.4773C121.922 81.738 120.763 82.6827 119.323 83.4923C119.086 83.6287 118.836 83.7644 118.578 83.8865C118.328 84.0153 118.07 84.1374 117.798 84.2587H117.791C117.762 84.28 117.726 84.2943 117.691 84.3087C117.204 84.5233 116.509 84.803 115.65 85.1177C113.867 85.7765 111.396 86.6286 108.661 87.5383C108.303 87.6603 107.938 87.7748 107.572 87.8961C103.662 89.1849 99.3302 90.5669 95.7421 91.6987C95.4768 91.7844 95.2191 91.8633 94.9689 91.9421C93.6801 92.35 92.4982 92.7154 91.496 93.0307C91.2738 93.102 91.0661 93.1672 90.866 93.2309C90.6226 93.3029 90.4005 93.3742 90.1859 93.4386C90.0783 93.4743 89.9782 93.5031 89.8781 93.5387C88.6812 93.913 87.9724 94.1276 87.9724 94.1276Z" fill="#F0EFE6"/>
<path d="M123.953 180.95L116.374 201.216L107.781 197.576L123.953 180.95Z" fill="#0B212E"/>
<path d="M107.303 196.313H168.531V206.766H107.303V196.313Z" fill="#0B212E"/>
<path d="M140.363 196.313H154.984V206.765H140.363V196.313Z" fill="#F5CB99"/>
<path d="M122.465 196.313H127.18V207.542H122.465V196.313Z" fill="#826B62"/>
<path d="M146.869 89.5614L140.166 81.7107L134.218 89.5614L138.39 97.0213L135.501 192.573L145.437 200.237L153.672 191.857L142.572 96.512L146.869 89.5614Z" fill="#FA9778"/>
<path d="M122.587 86.3838C125.436 88.5419 127.326 92.5207 130.296 94.5101C133.841 90.024 140.387 81.3637 140.166 81.7106C143.194 85.4446 147.129 89.8334 150.331 93.4201C152.834 91.6507 153.789 87.1742 155.791 84.9086C156.404 84.2148 157.413 85.2321 156.803 85.9211C154.648 88.3609 150.208 95.0482 150.068 94.9838C150.048 94.9762 143.224 87.4539 140.168 83.6945C137.422 87.8975 130.632 96.4638 130.287 96.2335C127.151 94.1467 124.866 89.8944 121.863 87.6205C121.138 87.0707 121.85 85.8265 122.587 86.3838Z" fill="#0B212E"/>
<path d="M124.806 73.2165L131.653 76.9979L140.168 81.7102L151.977 73.2172C151.225 64.2943 151.883 52.6218 151.883 52.6218L125.029 54.9492C125.029 54.9492 124.958 58.3076 124.907 62.7046C124.871 65.4261 124.849 68.5412 124.849 71.5129C124.849 72.1066 124.835 72.6797 124.806 73.2165Z" fill="#FA9778"/>
<path d="M123.96 78.1301C123.96 78.1301 130.069 78.1932 137.082 75.2989C144.093 72.4046 149.461 65.1537 149.461 65.1537L124.905 62.7043C124.87 65.4259 124.848 68.5409 124.848 71.5127C124.848 72.1071 124.833 72.6802 124.805 73.2169C124.705 75.1796 124.425 76.7906 123.96 78.1301Z" fill="#0B212E"/>
<path d="M152.421 46.266C152.421 46.266 153.117 42.0767 156.897 43.312C161.551 44.8339 158.955 52.8902 157.702 54.591C156.449 56.2918 150.809 56.4707 150.809 56.9184C150.809 57.366 150.72 64.0794 149.466 65.1537C148.213 66.2279 137.918 72.4936 136.665 72.4936C135.412 72.4936 129.593 72.5827 128.251 71.6881C126.908 70.7928 121.985 64.7951 121.717 63.0052C121.448 61.2146 120.776 42.8157 120.776 42.8157C120.776 42.8157 121.567 40.149 121.567 37.1059C121.567 34.0622 122.347 29.9147 124.495 29.4671C125.924 29.5987 126.465 30.8991 130.404 30.3473C133.447 30.0786 140.365 27.4502 143.408 28.3455C146.452 29.2408 148.391 31.1679 147.944 33.4061C147.496 35.6437 147.317 39.6424 147.317 39.6424L152.421 46.266Z" fill="#FA9778"/>
<path d="M143.514 69.404C145.743 68.3318 147.801 66.8168 149.163 64.7197C150.511 62.6433 150.435 59.3342 150.382 56.963C150.371 56.5009 151.087 56.5016 151.098 56.963C151.158 59.6242 151.016 62.6645 149.781 65.081C148.647 67.3001 146.038 68.981 143.875 70.0216C143.461 70.2218 143.098 69.6041 143.514 69.404Z" fill="#0B212E"/>
<path d="M89.7561 216.076C87.9655 224.669 91.0092 231.831 91.0092 231.831C91.0092 231.831 99.2089 219.442 107.43 206.859C107.444 206.838 107.451 206.824 107.465 206.802C115.271 194.878 123.077 182.797 123.95 180.95C124.63 179.51 124.588 163.391 124.272 143.934C124.258 142.982 124.244 142.015 124.222 141.048C123.965 125.702 123.549 108.679 123.191 95.3239C123.17 94.565 123.156 93.8198 123.135 93.0898C123.006 88.2341 122.884 83.9379 122.784 80.4788C121.917 81.7394 120.757 82.6841 119.317 83.4937C119.081 83.6301 118.831 83.7659 118.573 83.8879C118.322 84.0168 118.064 84.1388 117.792 84.2601H117.785C117.757 84.2814 117.721 84.2958 117.685 84.3102C117.199 84.5248 116.503 84.8044 115.644 85.1191C113.861 85.7779 111.391 86.63 108.655 87.5397C108.298 87.6617 107.932 87.7762 107.567 87.8976C103.657 89.1864 99.3247 90.5684 95.7366 91.7002C95.4713 91.7859 95.2136 91.8647 94.9634 91.9435C93.6746 92.3514 92.4927 92.7168 91.4905 93.0322C91.2684 93.1035 91.0606 93.1686 90.8605 93.2323C90.6171 93.3043 90.395 93.3756 90.1804 93.4401C90.0728 93.4757 89.9727 93.5045 89.8726 93.5402C88.6764 93.9124 87.9675 94.1276 87.9675 94.1276L95.1286 134.617C95.1286 134.617 95.1286 134.631 95.1354 134.667C95.1498 134.738 95.1711 134.904 95.1999 135.133C95.2067 135.204 95.2211 135.276 95.2287 135.355C95.2355 135.369 95.2355 135.376 95.2355 135.383C95.2568 135.505 95.2712 135.641 95.2931 135.799C95.3 135.835 95.3 135.878 95.3075 135.913C95.3651 136.329 95.4364 136.844 95.5152 137.439C95.5152 137.474 95.5221 137.503 95.5296 137.532C95.5584 137.754 95.5872 137.991 95.6228 138.234C95.6297 138.298 95.6372 138.363 95.6441 138.427C95.6873 138.757 95.7298 139.107 95.7798 139.48C95.823 139.802 95.8655 140.146 95.9087 140.497C95.9375 140.719 95.9656 140.948 95.9944 141.177C96.0013 141.227 96.0088 141.277 96.0156 141.335C96.0444 141.585 96.0732 141.843 96.1089 142.108C96.1445 142.423 96.1802 142.745 96.2234 143.082C96.3022 143.734 96.381 144.414 96.4667 145.123C96.5099 145.503 96.5524 145.889 96.5956 146.283C96.6457 146.698 96.6889 147.12 96.7389 147.55C96.7677 147.822 96.7965 148.095 96.8246 148.367C96.9535 149.563 97.0823 150.816 97.2044 152.097C97.2475 152.492 97.2832 152.893 97.3188 153.294C97.6122 156.359 97.8844 159.61 98.0921 162.89V162.896C98.1065 163.104 98.1209 163.304 98.1353 163.512C98.1785 164.3 98.2285 165.102 98.2717 165.89C98.2786 166.04 98.2861 166.19 98.293 166.334C98.3142 166.742 98.3286 167.15 98.3506 167.558C98.3506 167.558 97.8206 170.666 97.0261 175.335C96.8184 176.51 96.5963 177.785 96.3673 179.131C94.2106 191.62 90.9235 210.483 89.7561 216.076Z" fill="#826B62"/>
<path d="M95.5322 183.987L103.07 203.901L91.755 202.505L95.5322 183.987Z" fill="#0B212E"/>
<path d="M155.795 130.929C155.795 132.125 155.795 133.321 155.802 134.509C155.809 149.891 155.873 164.522 156.003 172.571C156.304 191.248 158.287 200.987 160.085 206.759C160.091 206.794 160.099 206.823 160.113 206.859C160.421 207.854 160.729 208.728 161.015 209.508C162.985 214.822 172.867 219.111 172.867 219.111V219.097L172.473 206.859C172.473 206.859 171.041 156.996 172.116 142.759C173.19 128.53 175.875 93.4113 175.875 93.4113C175.875 93.4113 168.012 90.5897 161.617 87.3889V87.3821C161.567 87.3533 161.517 87.332 161.467 87.3108C161.137 87.1463 160.823 86.9817 160.507 86.8165C160.142 86.6301 159.791 86.4367 159.441 86.2434C158.094 85.5126 156.884 84.7682 155.918 84.0449C155.897 86.9379 155.875 90.7405 155.86 95.1663C155.853 95.8107 155.853 96.477 155.853 97.1502C155.817 106.782 155.795 118.949 155.795 130.929Z" fill="#826B62"/>
<path d="M163.876 173.181L158.326 216.612L185.002 231.83L187.688 230.04V195.305L163.876 173.181Z" fill="#1A4559"/>
<path d="M163.82 220.673C164.637 221.067 165.167 221.296 165.474 221.432C165.725 221.532 165.832 221.568 165.832 221.568C165.832 221.568 165.41 221.811 165.059 222.233C164.808 222.534 164.593 222.913 164.593 223.358C164.593 224.066 165.589 224.675 166.262 224.997C166.605 225.169 166.864 225.262 166.864 225.262C166.864 225.262 166.914 225.37 167.043 225.549C167.186 225.756 167.451 226.072 167.874 226.401C168.225 226.673 168.647 226.78 169.006 226.823C169.442 226.873 169.786 226.816 169.786 226.816C169.786 226.816 169.815 226.974 169.987 227.174C170.152 227.374 170.467 227.618 171.039 227.768C172.171 228.069 181.122 227.295 181.545 226.458C181.961 225.62 189.602 209.328 189.602 209.328C189.602 209.328 182.977 204.796 179.275 205.031C175.573 205.275 168.892 210.467 167.94 211.297C166.98 212.135 165.999 216.432 165.834 216.489C165.67 216.553 162.984 216.968 162.984 216.968C162.984 216.968 162.323 219.957 163.82 220.673Z" fill="#FA9778"/>
<path d="M189.603 209.332V207.796C189.603 207.796 193.302 210.228 192.407 211.959C191.512 213.69 187.471 213.876 187.471 213.876L189.603 209.332Z" fill="#0B212E"/>
<path d="M192.478 211.77C192.478 211.77 191.602 210.436 189.596 209.331C185.916 207.307 183.089 205.6 180.704 205.393C178.318 205.186 176.747 205.705 176.747 205.705L178.644 201.45C178.644 201.45 182.895 200.682 185.939 200.682C188.983 200.682 193.414 206.586 193.414 206.586L192.478 211.77Z" fill="#F0EFE6"/>
<path d="M170.681 133.056L171.412 136.071L172.399 140.138L173.094 142.989L173.531 144.807L177.326 160.454L177.39 160.712L177.061 161.958L176.216 165.146L176.739 165.89L177.584 167.086L177.663 167.201L175.242 169.263L178.121 171.763V202.628C178.121 202.628 182.898 201.754 187.688 203.101C192.479 204.439 194.892 208.421 194.892 208.421L195.923 166.664L194.67 165.167L197.355 160.714L194.892 157.978C194.892 157.978 193.416 151.268 191.268 138.822C191.189 138.378 191.103 137.905 190.989 137.404C190.903 136.953 190.796 136.48 190.674 135.993C189.872 132.592 188.575 128.317 187.086 123.805C186.921 123.311 186.757 122.81 186.584 122.309C186.04 120.683 185.467 119.036 184.895 117.396C184.708 116.866 184.522 116.337 184.329 115.807C180.219 104.227 175.872 93.4138 175.872 93.4138L170.681 133.056Z" fill="#826B62"/>
<path d="M121.987 209.54C121.987 209.54 122.342 210.525 117.508 210.346C112.675 210.167 110.705 208.422 110.705 208.422L98.9538 224.104L86.447 210.835L96.9205 200.682C96.9205 200.682 107.304 201.744 109.721 201.927C112.137 202.11 112.659 203.793 114.554 205.025C117.987 207.258 122.879 206.529 121.987 209.54Z" fill="#FA9778"/>
<path d="M97.9961 200.082L85.5839 212.676L81.5852 208.735L94.5945 197.158L97.9961 200.082Z" fill="#F0EFE6"/>
<path d="M58.9675 170.065L80.6303 210.039L97.9961 194.592L81.5825 167.738L85.285 165.589L83.8598 163.842L83.1365 162.961L83.5876 162.159L84.7976 160.032L85.5064 158.786L97.9954 136.765L87.9695 94.1272C87.9695 94.1272 81.7682 106.659 75.8096 119.477C75.6094 119.907 75.4086 120.337 75.2077 120.766C74.8999 121.439 74.5921 122.105 74.2836 122.771C74.0903 123.208 73.8894 123.638 73.6961 124.068C70.08 131.974 66.8642 139.414 65.5898 143.474C62.0106 154.847 58.9675 170.065 58.9675 170.065Z" fill="#826B62"/>
<path d="M136.005 46.4304C136.365 47.8871 137.401 48.8839 138.319 48.657C139.237 48.4301 139.689 47.0659 139.329 45.6091C138.97 44.1524 137.934 43.1556 137.016 43.3825C136.098 43.6088 135.645 44.9736 136.005 46.4304Z" fill="#0B212E"/>
<path d="M123.339 47.5732C123.65 48.8648 124.553 49.7553 125.354 49.5619C126.155 49.3686 126.553 48.1655 126.242 46.874C125.93 45.5824 125.028 44.6919 124.227 44.8853C123.426 45.0779 123.028 46.2817 123.339 47.5732Z" fill="#0B212E"/>
<path d="M135.345 37.4282L135.489 37.4358C135.626 37.4426 135.746 37.4755 135.857 37.5201C136.675 37.7278 137.544 37.7483 138.366 37.9849C139.376 38.2755 140.327 38.7862 141.177 39.3943C142.293 40.1929 141.222 42.0576 140.093 41.2494C139.374 40.7352 138.634 40.3369 137.795 40.0558C136.901 39.7569 135.951 39.8111 135.059 39.5376C133.932 39.1928 134.098 37.3631 135.345 37.4282Z" fill="#0B212E"/>
<path d="M123.087 40.4891C123.427 40.2814 123.786 40.1052 124.159 39.9647C124.838 39.7096 125.536 39.5856 126.26 39.5499C127.646 39.482 127.639 41.6312 126.26 41.6984C125.667 41.7272 125.099 41.8629 124.563 42.12C123.929 42.4243 123.572 43.0591 122.776 42.9549C122.196 42.8788 121.702 42.5237 121.702 41.8807C121.702 41.3803 122.941 40.5782 123.087 40.4891Z" fill="#0B212E"/>
<path d="M127.184 51.3016C127.353 50.3947 128.734 50.78 128.565 51.6821C128.355 52.8036 128.907 53.8038 129.878 54.3543C130.963 54.9699 132.699 54.4119 133.862 54.3214C134.784 54.2494 134.777 55.6822 133.862 55.7535C132.055 55.894 130.213 56.3999 128.622 55.2482C127.372 54.344 126.91 52.7687 127.184 51.3016Z" fill="#0B212E"/>
<path d="M140.422 59.3801C140.422 59.3801 131.243 59.2813 129.024 59.3801C126.804 59.4788 125.278 60.0512 125.278 60.0512C125.278 60.0512 126.279 64.2583 131.918 63.4041C135.359 62.8824 140.422 59.3801 140.422 59.3801Z" fill="white"/>
<path d="M158.059 46.669C158.059 46.669 157.745 44.9634 156.089 45.1896C154.433 45.4158 153.852 49.4516 153.852 49.4516L158.059 46.669Z" fill="#0B212E"/>
<path d="M154.399 49.0886C154.399 49.0886 155.759 49.2792 155.73 50.2047C155.7 51.1294 154.238 51.9946 154.238 51.9946L154.399 49.0886Z" fill="#0B212E"/>
<path d="M104.59 416.143C104.661 415.721 104.755 415.241 104.877 414.711C105.07 413.845 105.335 412.835 105.693 411.661C107.304 406.383 108.83 402.351 108.83 402.351L109.36 397.532C109.36 397.532 111.007 396.451 113.141 395.47C112.991 392.899 112.955 390.328 113.006 387.765C111.423 387.75 109.833 387.736 108.251 387.736L108.093 386.311C109.74 386.311 111.395 386.317 113.041 386.332C113.113 384.069 113.235 381.813 113.385 379.55C111.351 379.257 109.303 379.027 107.248 378.87L107.09 377.43C109.231 377.588 111.365 377.824 113.485 378.125C113.943 371.966 114.58 365.815 114.889 359.641C115.526 347.095 115.053 334.477 115.118 321.917C115.132 318.852 115.153 315.794 115.189 312.729C113.356 314.254 111.508 315.765 109.632 317.24C108.93 317.799 107.914 316.839 108.622 316.224C108.787 316.087 108.945 315.945 109.109 315.808C109.145 315.772 109.188 315.765 109.224 315.744C111.243 314.14 113.234 312.5 115.21 310.846C115.217 310.05 115.232 309.248 115.246 308.454C111.379 311.691 106.782 315.379 106.352 314.906C106.975 315.586 105.965 316.603 105.342 315.923C105.299 315.879 105.263 315.837 105.228 315.801C104.991 315.543 104.97 315.235 105.113 314.934C105.479 314.161 106.374 313.695 107.018 313.172C108.407 312.034 109.797 310.902 111.186 309.764C112.547 308.654 113.907 307.536 115.275 306.427C115.569 285.724 116.256 265.035 117.309 244.353C117.353 243.437 118.785 243.429 118.741 244.353C117.71 264.634 117.044 284.936 116.729 305.238C117.66 304.479 118.598 303.713 119.529 302.954C120.238 302.374 121.255 303.384 120.539 303.964C120.117 304.314 118.598 305.625 116.701 307.229C116.686 308.031 116.672 308.826 116.665 309.628C119.508 307.215 122.308 304.744 125.058 302.224C125.738 301.594 126.755 302.61 126.075 303.233C122.988 306.069 119.844 308.819 116.636 311.519C116.607 314.512 116.579 317.505 116.557 320.506C116.472 333.081 116.836 345.685 116.385 358.259C116.142 364.969 115.426 371.651 114.931 378.332C117.481 378.748 120.016 379.257 122.537 379.887C122.859 379.958 123.189 380.037 123.511 380.123C124.069 373.098 124.398 366.059 124.643 359.019C125.079 346.752 124.693 334.191 126.598 322.031C127.522 316.102 129.741 310.452 130.816 304.543C132.048 297.798 132.541 290.88 133.315 284.069C134.869 270.384 138.88 242.148 139.237 242.491H139.316C140.054 241.517 140.835 240.572 141.665 239.655C142.438 238.81 143.29 238.044 144.136 237.278C144.308 237.128 144.451 236.956 144.594 236.769C143.047 236.462 141.508 236.132 139.968 235.81C139.66 235.974 139.252 235.881 139.037 235.616C136.03 234.972 133.022 234.313 130.029 233.59C129.935 233.569 129.85 233.532 129.785 233.482C129.392 233.203 129.449 232.558 129.843 232.294C129.943 232.229 130.072 232.186 130.223 232.186H131.834C132.206 232.186 132.421 232.415 132.493 232.687C134.705 233.209 136.925 233.704 139.145 234.177C139.41 233.224 139.668 232.272 139.933 231.313C137.462 230.797 134.991 230.26 132.528 229.702C131.712 229.515 131.934 228.326 132.721 228.298C133.137 228.277 133.559 228.263 133.982 228.248C134.34 228.234 134.555 228.442 134.634 228.699C136.525 229.122 138.415 229.53 140.313 229.931C140.8 228.148 141.273 226.358 141.738 224.568C137.95 223.694 134.154 222.806 130.359 221.91C128.383 221.453 126.413 220.986 124.437 220.521C123.535 220.306 123.921 218.96 124.823 219.139C125.074 219.189 125.332 219.239 125.582 219.297C125.64 219.303 125.676 219.332 125.719 219.347C127.287 219.719 128.863 220.091 130.431 220.456C134.319 221.373 138.208 222.283 142.097 223.185C142.662 220.98 143.221 218.774 143.758 216.568C139.526 214.334 135.258 212.164 130.947 210.066C130.374 209.787 129.802 209.507 129.222 209.228C128.477 208.87 129.007 207.703 129.773 207.917C130.188 208.04 130.611 208.161 131.034 208.283C131.241 208.34 131.442 208.405 131.649 208.462C131.986 208.555 132.136 208.813 132.158 209.077C136.168 211.033 140.157 213.052 144.11 215.129C144.64 212.937 145.163 210.746 145.664 208.547C145.872 207.645 147.254 208.032 147.046 208.927C146.523 211.233 145.98 213.532 145.421 215.824C147.018 216.669 148.615 217.528 150.211 218.402C150.634 216.934 151.064 215.466 151.493 213.998C151.529 213.862 151.601 213.755 151.68 213.676C152.138 213.239 153.091 213.626 152.876 214.378C152.417 215.953 151.959 217.529 151.494 219.105C152.317 219.556 153.134 219.992 153.95 220.451C154.759 220.902 154.036 222.134 153.227 221.69C152.518 221.289 151.802 220.909 151.086 220.515C150.656 221.998 150.226 223.473 149.79 224.956C150.198 225.049 150.599 225.142 151 225.235C151.903 225.442 151.523 226.824 150.621 226.617C150.212 226.523 149.804 226.423 149.389 226.33C148.894 228.042 148.393 229.753 147.899 231.457C151.072 232.073 154.244 232.66 157.431 233.205C158.34 233.362 157.954 234.744 157.051 234.587C153.871 234.042 150.692 233.455 147.527 232.839C147.29 233.806 147.09 234.809 146.775 235.732C150.133 236.384 153.506 237 156.886 237.558C157.796 237.708 157.409 239.091 156.507 238.94C153.047 238.367 149.603 237.737 146.166 237.071C145.894 237.522 145.572 237.937 145.156 238.295C142.937 240.15 141.06 242.399 139.42 244.769C139.363 244.848 139.313 244.926 139.256 245.005C139.227 245.048 139.191 245.063 139.163 245.099C138.762 248.665 138.354 252.238 137.953 255.812C137.946 255.855 137.946 255.891 137.938 255.934C136.929 264.842 135.919 273.751 134.909 282.659C134.221 288.746 133.641 294.862 132.804 300.935C131.908 307.416 129.946 313.503 128.478 319.847C126.988 326.228 126.946 332.931 126.709 339.447C126.444 346.437 126.28 353.426 126.029 360.415C125.793 367.326 125.435 374.236 124.855 381.125C126.688 379.658 128.292 378.476 130.899 378.583C131.795 378.627 132.689 378.698 133.585 378.784C133.535 373.477 135.482 368.364 136.922 363.315C140.238 351.672 141.362 339.512 143.281 327.588C143.961 323.334 144.756 319.102 145.629 314.87C143.975 316.152 142.357 317.47 140.724 318.709C139.986 319.267 139.277 318.021 140 317.47C142.012 315.951 144.003 314.29 146.073 312.751C150.183 293.365 155.905 274.21 160.86 255.089C161.097 254.201 162.479 254.573 162.242 255.469C157.423 274.066 151.994 292.656 147.87 311.469C148.987 310.71 150.133 309.993 151.321 309.385C152.138 308.962 152.868 310.201 152.044 310.617C150.44 311.447 148.915 312.443 147.433 313.517C146.595 317.441 145.808 321.373 145.106 325.318C143.072 336.798 141.969 348.42 139.305 359.792C137.894 365.837 135.367 371.666 135.037 377.91C135.016 378.254 135.008 378.598 135.008 378.941C135.682 379.027 136.355 379.12 137.028 379.235V380.717C136.369 380.617 135.71 380.523 135.052 380.438C135.109 381.39 135.224 382.343 135.381 383.295C135.918 383.352 136.469 383.467 137.028 383.624V383.824L137.708 385.45C137.042 385.228 136.369 385.063 135.703 384.97C136.368 388.064 137.443 391.107 138.496 394.036C138.675 394.53 138.854 395.017 139.026 395.504C139.341 396.377 137.951 396.742 137.644 395.883C137.5 395.497 137.365 395.103 137.228 394.716C136.089 391.486 135.036 388.257 134.35 384.927C133.791 384.97 133.247 385.091 132.724 385.328C129.838 386.638 126.952 387.948 124.074 389.252C123.851 391.249 123.601 393.233 123.329 395.224V395.245C123.215 396.012 123.107 396.777 122.992 397.544C122.992 397.544 122.992 397.544 122.999 397.551V397.572H123.006C123.056 397.708 123.121 397.837 123.171 397.973V397.98C123.285 398.259 123.393 398.538 123.5 398.832C125.426 404.11 126.55 411.93 126.55 411.93V418.962H104.351C104.347 418.965 104.239 418.134 104.59 416.143ZM149.792 219.806C148.223 218.946 146.641 218.094 145.058 217.256C144.55 219.34 144.027 221.424 143.49 223.508C145.123 223.88 146.755 224.26 148.388 224.632C148.861 223.029 149.326 221.417 149.792 219.806ZM146.483 231.185C146.985 229.46 147.486 227.733 147.988 226.007C146.369 225.642 144.75 225.263 143.139 224.89C142.674 226.673 142.202 228.449 141.722 230.218C143.303 230.547 144.893 230.877 146.483 231.185ZM145.294 235.453C145.659 234.537 145.896 233.498 146.117 232.575C144.521 232.259 142.93 231.93 141.341 231.6C141.075 232.56 140.818 233.512 140.545 234.472C142.129 234.801 143.712 235.138 145.294 235.453ZM124.642 387.406C127.514 386.01 130.442 384.391 133.428 383.453C133.629 383.389 133.837 383.346 134.044 383.31C133.886 382.387 133.75 381.455 133.664 380.51C133.657 380.432 133.65 380.353 133.643 380.281C133.177 380.224 132.712 380.167 132.239 380.124C128.845 379.802 127.126 381.184 124.677 383.089C124.562 384.299 124.469 385.516 124.34 386.727C124.563 386.883 124.663 387.155 124.642 387.406ZM114.537 394.868C116.65 394.045 118.963 393.507 120.553 394.209C120.975 394.396 121.384 394.782 121.777 395.312C121.806 395.348 121.834 395.391 121.863 395.434C122.206 392.956 122.507 390.471 122.772 387.986C122.565 387.979 122.35 387.972 122.142 387.972C119.572 387.886 117.015 387.828 114.451 387.793C114.401 390.149 114.415 392.504 114.537 394.868ZM123.238 383.159C123.138 382.923 123.145 382.629 123.309 382.393C123.338 382.114 123.367 381.842 123.388 381.562H123.38C123.073 381.483 122.772 381.404 122.464 381.333C119.929 380.695 117.387 380.18 114.83 379.765C114.68 381.963 114.558 384.162 114.486 386.36C117.065 386.396 119.635 386.453 122.206 386.539C122.443 386.546 122.686 386.553 122.923 386.56C123.038 385.429 123.138 384.291 123.238 383.159Z" fill="#0B212E"/>
<path d="M98.9581 230.899L98.9794 232.36C101.98 232.975 104.987 233.57 108.002 234.114C110.81 234.615 113.796 235.546 116.661 235.109C117.57 234.973 117.183 233.591 116.281 233.727C112.607 234.293 107.902 232.667 104.293 231.965C102.51 231.622 100.734 231.264 98.9581 230.899Z" fill="#0B212E"/>
<path d="M99.0288 235.425L99.05 236.857L111.948 237.308C112.872 237.344 112.872 235.912 111.948 235.876C107.644 235.726 103.333 235.575 99.0288 235.425Z" fill="#0B212E"/>
<path d="M156.934 246.281C161.933 245.386 166.788 244.076 171.528 242.35L171.922 240.681C167.203 242.45 162.376 243.796 157.42 244.734C157.313 244.713 157.198 244.705 157.062 244.748C156.898 244.798 156.726 244.848 156.554 244.899C155.66 245.178 156.04 246.446 156.934 246.281Z" fill="#0B212E"/>
<path d="M129.785 233.484L137.442 252.955L151.168 237.308L129.785 233.484Z" fill="#0B212E"/>
<path d="M113.007 227.492C113.064 227.47 113.12 227.448 113.177 227.425C113.391 227.341 113.729 227.432 113.873 227.61C113.875 227.612 113.876 227.613 113.878 227.615C114.965 227.525 116.181 227.078 117.187 226.866C118.665 226.553 120.144 226.241 121.623 225.928C122.524 225.737 122.907 227.118 122.004 227.309C119.891 227.756 117.778 228.203 115.666 228.649C114.686 228.856 113.276 229.556 112.579 228.545C112.293 228.129 112.609 227.649 113.007 227.492Z" fill="#0B212E"/>
<path d="M115.406 223.482C117.001 223.183 118.597 222.884 120.191 222.586C121.094 222.418 121.479 223.798 120.572 223.968C118.976 224.266 117.381 224.565 115.787 224.863C114.884 225.032 114.499 223.652 115.406 223.482Z" fill="#0B212E"/>
<path d="M155.792 138.811C155.792 140.007 155.792 141.203 155.799 142.392C159.867 132.824 164.364 115.576 169.276 106.409C169.463 106.058 169.355 105.636 169.019 105.428C166.648 103.981 164.378 102.406 162.209 100.716C164.199 99.8347 166.183 98.9469 168.174 98.066C168.517 97.9159 168.633 97.386 168.432 97.0919C166.319 93.9837 163.534 90.7754 161.614 87.3882V87.3813C161.564 87.3525 161.514 87.3313 161.464 87.31C161.134 87.1455 160.82 86.981 160.504 86.8158C160.139 86.6293 159.788 86.436 159.438 86.2427C161.235 90.0953 164.286 93.6615 166.735 97.1494L161.257 99.5769C161.149 99.6269 161.064 99.6914 161.006 99.7702C159.223 98.3238 157.504 96.784 155.857 95.1655C155.85 95.8099 155.85 96.4763 155.85 97.1494C159.488 100.594 163.441 103.63 167.716 106.294C163.426 114.351 159.444 130.454 155.792 138.811Z" fill="#0B212E"/>
<path d="M110.743 115.905C114.402 125.658 118.914 135.018 124.277 143.933C124.263 142.981 124.249 142.014 124.227 141.047C120.124 134.029 116.493 126.718 113.514 119.149C112.232 115.883 109.94 112.367 112.569 108.987L116.887 103.444L123.196 95.3237C123.174 94.5648 123.16 93.8197 123.139 93.0896C121.256 95.5102 119.372 97.9308 117.489 100.351C116.178 98.7253 114.86 97.0999 113.55 95.4739C111.703 93.1821 111.681 93.0889 113.45 90.826C115.076 88.742 116.522 86.5723 117.79 84.2593C117.761 84.2805 117.725 84.2949 117.689 84.3093C117.203 84.5239 116.508 84.8036 115.649 85.1182C114.059 87.7466 112.226 90.1884 110.113 92.4726C109.826 92.7804 109.862 93.167 110.113 93.4824L116.573 101.489C116.58 101.496 116.587 101.496 116.594 101.503C115.491 102.921 114.389 104.339 113.286 105.757C111.918 107.519 110.306 109.158 109.526 111.264C109.052 112.561 110.328 114.802 110.743 115.905Z" fill="#0B212E"/>
<path d="M96.6766 122.608C97.042 128.308 97.0777 133.987 95.7813 139.48C95.9177 140.539 96.0679 141.749 96.2255 143.081C98.6461 136.114 98.5961 128.687 98.0161 121.369C97.4142 113.806 96.362 106.338 93.068 99.4193C92.667 98.5884 91.4351 99.3117 91.8292 100.143C95.1801 107.175 96.1755 114.91 96.6766 122.608Z" fill="#0B212E"/>
<path d="M171.411 136.071L172.398 140.138C172.527 140.031 172.621 139.866 172.642 139.652C172.728 138.678 172.821 137.704 172.921 136.73C177.676 132.455 182.395 128.151 187.086 123.804C186.921 123.31 186.757 122.809 186.585 122.308C182.217 126.368 177.812 130.385 173.387 134.367C173.329 134.31 173.251 134.267 173.172 134.23C173.316 132.848 173.488 131.466 173.652 130.091C177.792 126.353 181.379 121.842 184.896 117.395C184.709 116.865 184.523 116.335 184.33 115.805C181.029 119.98 177.691 124.241 173.903 127.893C174.777 120.875 175.865 113.885 177.183 106.932C177.355 106.03 175.98 105.65 175.808 106.552C174.361 114.129 171.754 134.037 171.618 135.318C171.539 135.491 171.496 135.677 171.411 136.071Z" fill="#0B212E"/>
<path d="M68.6201 162.051C69.0711 162.194 69.2857 162.187 69.6154 162.044C74.2558 161.851 79.5837 161.843 83.8594 163.841L83.1361 162.961L83.5872 162.159C79.2615 160.44 74.0632 160.425 69.5366 160.619C69.4934 160.612 69.4434 160.619 69.4009 160.619C69.2 160.633 68.9998 160.64 68.8065 160.648C68.0045 160.683 67.8324 161.815 68.6201 162.051Z" fill="#0B212E"/>
<path d="M70.2365 157.117C75.4211 156.53 80.3624 157.511 84.7951 160.032L85.5039 158.786C80.8704 156.136 75.6501 155.069 70.2365 155.685C69.3268 155.793 69.3199 157.225 70.2365 157.117Z" fill="#0B212E"/>
<path d="M73.6982 124.069C78.5394 126.095 83.3874 128.115 88.2279 130.149C89.0801 130.507 89.4523 129.118 88.6146 128.767C83.8378 126.769 79.0617 124.771 74.285 122.773C74.0923 123.209 73.8915 123.639 73.6982 124.069Z" fill="#0B212E"/>
<path d="M75.21 120.767C79.4782 122.536 83.7387 124.305 88.0068 126.066C88.8589 126.417 89.2312 125.028 88.3866 124.684C84.1898 122.951 80.0005 121.212 75.8113 119.479C75.6111 119.908 75.4102 120.337 75.21 120.767Z" fill="#0B212E"/>
<path d="M173.093 142.988L173.529 144.807C173.565 144.736 173.587 144.664 173.594 144.578C173.658 143.948 178.506 142.28 178.693 142.201C180.39 141.499 182.087 140.797 183.798 140.131C186.183 139.193 188.575 138.284 190.988 137.403C190.903 136.952 190.795 136.479 190.673 135.992C186.519 137.503 182.394 139.107 178.313 140.826C176.938 141.406 174.453 141.871 173.093 142.988Z" fill="#0B212E"/>
<path d="M177.06 161.959C182.374 160.899 186.85 161.229 192.156 162.617C193.052 162.854 193.431 161.472 192.536 161.235C187.187 159.832 182.626 159.496 177.326 160.455L177.39 160.712L177.06 161.959Z" fill="#0B212E"/>
<path d="M176.74 165.89L177.585 167.086C181.452 165.625 185.477 164.973 189.658 165.066C190.583 165.081 190.583 163.649 189.658 163.634C185.168 163.534 180.871 164.286 176.74 165.89Z" fill="#0B212E"/>
<path d="M96.3683 179.131C97.0846 177.943 97.8079 176.768 98.5455 175.594C103.458 167.767 108.872 160.283 114.78 153.165C115.367 152.463 114.357 151.439 113.77 152.156C108.263 158.787 103.171 165.733 98.5167 172.981C98.0156 173.761 97.5145 174.549 97.027 175.337C96.8193 176.51 96.5972 177.785 96.3683 179.131Z" fill="#0B212E"/>
<path d="M98.0935 162.889V162.896C98.1079 163.104 98.1223 163.304 98.1367 163.512C98.1798 164.3 98.2299 165.102 98.2731 165.889C98.2799 166.039 98.2875 166.19 98.2943 166.334C101.03 159.244 103.766 152.147 106.508 145.057C106.837 144.198 105.455 143.826 105.126 144.678C102.784 150.751 100.442 156.816 98.0935 162.889Z" fill="#0B212E"/>
<path d="M81.8581 168.189C78.6642 169.327 75.4134 170.28 72.1044 171.067C71.9687 171.096 71.8535 171.082 71.739 171.053C71.6245 171.211 71.4456 171.318 71.1947 171.318C70.2706 171.318 70.2706 169.885 71.1947 169.885C71.2591 169.885 71.3092 169.907 71.3592 169.921C71.4449 169.813 71.5525 169.728 71.7246 169.685C76.3149 168.596 80.7763 167.178 85.1445 165.417L81.8581 168.189Z" fill="#0B212E"/>
<path d="M163.977 173.848V215.002L160.074 216.114L163.977 173.848Z" fill="#F9F8EF"/>
<path d="M163.875 173.181L158.325 216.612L160.075 216.113L163.978 173.847L164.023 173.319L163.875 173.181Z" fill="#0B212E"/>
<path d="M165.059 222.234C167.866 221.983 170.687 219.254 170.866 216.519C170.895 216.061 170.179 216.061 170.15 216.519C170.014 218.732 167.758 220.945 165.474 221.432C165.725 221.532 165.832 221.567 165.832 221.567C165.832 221.567 165.41 221.812 165.059 222.234Z" fill="#0B212E"/>
<path d="M166.26 224.998C166.603 225.171 166.862 225.263 166.862 225.263C166.862 225.263 166.912 225.371 167.041 225.55C167.764 225.349 168.466 225.027 169.168 224.783C170.357 224.361 171.539 223.938 172.72 223.522C173.156 223.365 172.971 222.67 172.533 222.828C171.345 223.25 170.163 223.673 168.982 224.089C168.122 224.397 167.191 224.855 166.26 224.998Z" fill="#0B212E"/>
<path d="M169.007 226.824C169.443 226.874 169.787 226.817 169.787 226.817C169.787 226.817 169.816 226.975 169.988 227.175C171.578 226.495 173.203 225.914 174.944 225.714C175.395 225.664 175.403 224.948 174.944 224.998C172.845 225.242 170.911 225.986 169.007 226.824Z" fill="#0B212E"/>
</g>
<defs>
<clipPath id="clip0_4043_18944">
<rect width="250" height="250" fill="white"/>
</clipPath>
</defs>
</svg>
