<svg width="1618" height="531" viewBox="0 0 1618 531" fill="none" xmlns="http://www.w3.org/2000/svg">
<g clip-path="url(#clip0_625_7765)">
<rect x="0.832031" y="0.0644531" width="1617" height="530.454" fill="url(#paint0_linear_625_7765)"/>
<g opacity="0.25">
<path d="M39.1006 370.057L170.624 313.94L300.393 266.592L424.902 322.709L558.179 220.997L680.934 280.621L812.457 257.824L938.72 182.417L1064.98 266.592L1200.01 220.997L1321.01 182.417L1454.29 108.764L1583.69 3.33691" stroke="#5050D8" stroke-linecap="round"/>
<path d="M0.832031 374.272C0.832031 369.854 4.41375 366.272 8.83203 366.272H70.6016C75.0198 366.272 78.6016 369.854 78.6016 374.272V530.519H0.832031V374.272Z" fill="#CBCBFF"/>
<path d="M642.18 287.745C642.18 283.327 645.761 279.745 650.18 279.745H711.949C716.367 279.745 719.949 283.327 719.949 287.745V530.519H642.18V287.745Z" fill="#CBCBFF"/>
<path d="M129.102 322.434C129.102 318.015 132.683 314.434 137.102 314.434H198.871C203.289 314.434 206.871 318.015 206.871 322.434V530.519H129.102V322.434Z" fill="#CBCBFF"/>
<path d="M770.449 266.536C770.449 262.118 774.031 258.536 778.449 258.536H840.219C844.637 258.536 848.219 262.118 848.219 266.536V530.519H770.449V266.536Z" fill="#CBCBFF"/>
<path d="M257.371 278.257C257.371 273.839 260.953 270.257 265.371 270.257H327.141C331.559 270.257 335.141 273.839 335.141 278.257V530.519H257.371V278.257Z" fill="#CBCBFF"/>
<path d="M898.719 187.673C898.719 183.255 902.3 179.673 906.719 179.673H968.488C972.907 179.673 976.488 183.255 976.488 187.673V530.519H898.719V187.673Z" fill="#CBCBFF"/>
<path d="M1283.53 181.004C1283.53 176.586 1287.11 173.004 1291.53 173.004H1353.3C1357.72 173.004 1361.3 176.586 1361.3 181.004V530.519H1283.53V181.004Z" fill="#CBCBFF"/>
<path d="M385.641 329.794C385.641 325.376 389.222 321.794 393.641 321.794H455.41C459.828 321.794 463.41 325.376 463.41 329.794V530.519H385.641V329.794Z" fill="#CBCBFF"/>
<path d="M1026.99 272.613C1026.99 268.195 1030.57 264.613 1034.99 264.613H1096.76C1101.18 264.613 1104.76 268.195 1104.76 272.613V530.519H1026.99V272.613Z" fill="#CBCBFF"/>
<path d="M1411.8 115.387C1411.8 110.968 1415.38 107.387 1419.8 107.387H1481.57C1485.98 107.387 1489.57 110.968 1489.57 115.387V530.518H1411.8V115.387Z" fill="#CBCBFF"/>
<path d="M513.91 226.648C513.91 222.23 517.492 218.648 521.91 218.648H583.68C588.098 218.648 591.68 222.23 591.68 226.648V530.519H513.91V226.648Z" fill="#CBCBFF"/>
<path d="M1155.26 232.232C1155.26 227.814 1158.84 224.232 1163.26 224.232H1225.03C1229.45 224.232 1233.03 227.814 1233.03 232.232V530.519H1155.26V232.232Z" fill="#CBCBFF"/>
<path d="M1540.07 11.1084C1540.07 6.69014 1543.65 3.1084 1548.07 3.1084H1609.84C1614.25 3.1084 1617.84 6.69012 1617.84 11.1084V530.519H1540.07V11.1084Z" fill="#CBCBFF"/>
<circle cx="41.2456" cy="370.479" r="5.58549" fill="#5050D8"/>
<circle cx="167.986" cy="314.433" r="5.58549" fill="#5050D8"/>
<circle cx="301.841" cy="270.256" r="5.58549" fill="#5050D8"/>
<circle cx="421.81" cy="320.019" r="5.58549" fill="#5050D8"/>
<circle cx="558.38" cy="218.648" r="5.58549" fill="#5050D8"/>
<circle cx="681.064" cy="279.745" r="5.58549" fill="#5050D8"/>
<circle cx="811.395" cy="257.887" r="5.58549" fill="#5050D8"/>
<circle cx="938.123" cy="181.111" r="5.58549" fill="#5050D8"/>
<circle cx="1065.07" cy="266.562" r="5.58549" fill="#5050D8"/>
<circle cx="1193.89" cy="223.491" r="5.58549" fill="#5050D8"/>
<circle cx="1328.78" cy="175.526" r="5.58549" fill="#5050D8"/>
<circle cx="1452.71" cy="107.21" r="5.58549" fill="#5050D8"/>
<circle cx="1578.95" cy="5.64994" r="5.58549" fill="#5050D8"/>
</g>
</g>
<defs>
<linearGradient id="paint0_linear_625_7765" x1="809.334" y1="0.0644531" x2="809.334" y2="530.519" gradientUnits="userSpaceOnUse">
<stop stop-color="white"/>
<stop offset="1" stop-color="#D7D7FF"/>
</linearGradient>
<clipPath id="clip0_625_7765">
<rect width="1617" height="530.455" fill="white" transform="translate(0.832031 0.0644531)"/>
</clipPath>
</defs>
</svg>
