<svg width="120" height="121" viewBox="0 0 120 121" fill="none" xmlns="http://www.w3.org/2000/svg">
<rect y="0.849609" width="120" height="120" rx="17.8037" fill="white"/>
<g clip-path="url(#clip0_659_12312)">
<path d="M60.1322 36.6077C47.7902 36.6077 37.8242 46.6397 37.8242 58.9157C37.8242 71.1917 47.8562 81.2897 60.1322 81.2897C72.4082 81.2897 82.4402 71.2577 82.4402 58.9817C82.4402 46.7057 72.4742 36.6077 60.1322 36.6077ZM60.1322 78.9797C49.1102 78.9797 40.1342 70.0037 40.1342 58.9817C40.1342 47.9597 49.1102 38.9837 60.1322 38.9837C71.1542 38.9837 80.1302 47.9597 80.1302 58.9817C80.1962 70.0037 71.2202 78.9797 60.1322 78.9797Z" fill="#1D3071"/>
<path d="M89.9646 63.7996C91.2186 62.4136 92.5386 60.8296 92.5386 58.9156C92.5386 57.0016 91.2186 55.4836 89.9646 54.0976C89.1726 53.1736 88.3146 52.2496 88.1166 51.3916C87.8526 50.5336 88.1166 49.2136 88.3806 48.0256C88.7106 46.2436 89.1066 44.2636 88.1826 42.6796C87.2586 41.0956 85.3446 40.4356 83.6286 39.8416C82.4406 39.4456 81.2526 39.0496 80.5926 38.3896C79.9326 37.7296 79.5366 36.5416 79.1406 35.4196C78.5466 33.7036 77.8866 31.7896 76.3026 30.8656C74.7186 29.9416 72.7386 30.3376 71.0226 30.6676C69.8346 30.9316 68.5806 31.1296 67.6566 30.9316C66.7986 30.7336 65.8746 29.8756 64.9506 29.0836C63.5646 27.8956 62.0466 26.5096 60.1326 26.5096C58.2186 26.5096 56.7006 27.8296 55.3146 29.0836C54.3906 29.8756 53.4666 30.7336 52.6086 30.9316C51.7506 31.1956 50.4306 30.9316 49.2426 30.6676C47.4606 30.3376 45.4806 29.9416 43.8966 30.8656C42.3126 31.7896 41.6526 33.7036 41.0586 35.4196C40.6626 36.6076 40.2666 37.7956 39.6066 38.4556C38.9466 39.1156 37.7586 39.5116 36.6366 39.9076C34.8546 40.5016 32.9406 41.1616 32.0166 42.7456C31.0926 44.3296 31.4886 46.3096 31.8186 48.0256C32.0826 49.2796 32.2806 50.5336 32.0826 51.3916C31.8846 52.1836 31.0266 53.1736 30.3006 54.0316C29.0466 55.4176 27.7266 57.0016 27.7266 58.9156C27.7266 60.8296 29.0466 62.3476 30.3006 63.7336C31.0926 64.6576 31.9506 65.5816 32.1486 66.4396C32.4126 67.2976 32.1486 68.6176 31.8846 69.8056C31.5546 71.5876 31.1586 73.5676 32.0826 75.1516C33.0066 76.7356 34.9206 77.3956 36.6366 77.9896C37.8246 78.3856 39.0126 78.7816 39.6726 79.4416C40.3326 80.1016 40.7286 81.2896 41.1246 82.4116C41.7186 84.1276 42.3786 86.0416 43.9626 86.9656C45.5466 87.8896 47.5266 87.4936 49.2426 87.1636C50.1006 86.9656 51.0246 86.8336 51.7506 86.8336C52.0806 86.8336 52.3446 86.8336 52.6086 86.9656C53.4666 87.1636 54.3906 88.0216 55.3146 88.8136C56.7006 90.0016 58.2186 91.3876 60.1326 91.3876C62.0466 91.3876 63.5646 90.0676 64.9506 88.8136C65.8746 88.0216 66.7986 87.1636 67.6566 86.9656C68.5146 86.7016 69.8346 86.9656 71.0226 87.2296C72.8046 87.5596 74.7846 87.9556 76.3686 87.0316C77.9526 86.1076 78.6126 84.1936 79.2066 82.4776C79.6026 81.2896 79.9986 80.1016 80.6586 79.4416C81.3186 78.7816 82.5066 78.3856 83.6286 77.9896C85.3446 77.3956 87.2586 76.7356 88.1826 75.1516C89.1066 73.5676 88.7106 71.5876 88.3806 69.8716C88.1166 68.6176 87.9186 67.3636 88.1166 66.5056C88.3806 65.6476 89.1726 64.7236 89.9646 63.7996ZM86.0046 65.9116C85.6086 67.2976 85.9386 68.8156 86.2026 70.2676C86.4666 71.7856 86.7966 73.1716 86.2686 74.0296C85.7406 74.8876 84.3546 75.3496 82.9026 75.8776C81.5166 76.3396 79.9986 76.8676 79.0086 77.8576C78.0186 78.8476 77.4906 80.2996 77.0286 81.7516C76.5006 83.2036 76.0386 84.5896 75.1806 85.1176C74.3226 85.5796 72.9366 85.3156 71.4186 85.0516C69.9666 84.7876 68.3826 84.4576 66.9966 84.8536C65.6766 85.1836 64.4886 86.2396 63.4326 87.1636C62.3106 88.1536 61.1226 89.1436 60.0666 89.1436C59.0106 89.1436 57.8886 88.1536 56.7006 87.1636C55.5786 86.1736 54.4566 85.1836 53.1366 84.8536C51.7506 84.4576 50.2326 84.7876 48.7806 85.0516C47.2626 85.3156 45.8766 85.6456 45.0186 85.1176C44.1606 84.5896 43.6986 83.2696 43.1706 81.7516C42.7086 80.3656 42.1806 78.8476 41.1906 77.8576C40.2006 76.8676 38.7486 76.3396 37.2966 75.8776C35.8446 75.3496 34.4586 74.8876 33.9306 74.0296C33.4686 73.1716 33.7326 71.7856 33.9966 70.2676C34.2606 68.7496 34.5906 67.2316 34.1946 65.8456C33.8646 64.5256 32.8086 63.3376 31.8846 62.2816C30.8946 61.1596 29.9046 59.9716 29.9046 58.9156V58.8496C29.9706 57.7936 30.8946 56.7376 31.8846 55.5496C32.8746 54.4276 33.8646 53.3056 34.1946 51.9856C34.5906 50.5996 34.2606 49.0816 33.9966 47.6296C33.7326 46.1116 33.4026 44.7256 33.9306 43.8676C34.4586 43.0096 35.8446 42.5476 37.2966 42.0196C38.6826 41.5576 40.2006 41.0296 41.1906 40.0396C42.1806 39.0496 42.7086 37.5976 43.1706 36.1456C43.6986 34.6936 44.1606 33.3076 45.0186 32.7796C45.8766 32.3176 47.2626 32.5816 48.7806 32.8456C50.2326 33.1096 51.8166 33.4396 53.2026 33.0436C54.5226 32.7136 55.7106 31.6576 56.7666 30.7336C57.8886 29.7436 59.0766 28.7536 60.1326 28.7536C61.1886 28.7536 62.3106 29.7436 63.4986 30.7336C64.6206 31.7236 65.7426 32.7136 67.0626 33.0436C68.4486 33.4396 69.9666 33.1096 71.4186 32.8456C72.9366 32.5816 74.3226 32.2516 75.1806 32.7796C76.0386 33.3076 76.5006 34.6276 77.0286 36.1456C77.4906 37.5976 78.0186 39.0496 79.0086 40.0396C79.9986 41.0296 81.4506 41.5576 82.9026 42.0196C84.3546 42.5476 85.7406 43.0096 86.2686 43.8676C86.7306 44.7256 86.4666 46.1116 86.2026 47.6296C85.9386 49.1476 85.6086 50.6656 86.0046 52.0516C86.3346 53.3716 87.3906 54.5596 88.3146 55.6156C89.3046 56.7376 90.2946 57.9256 90.2946 58.9816V59.0476C90.2286 60.1036 89.3046 61.1596 88.3146 62.3476C87.3906 63.4036 86.3346 64.5256 86.0046 65.9116Z" fill="#1D3071"/>
<path d="M68.4475 63.3376C63.6955 68.0896 56.0395 68.0896 51.2875 63.3376C50.8255 62.8756 50.0995 62.8756 49.6375 63.3376C49.1755 63.7996 49.1755 64.5256 49.6375 64.9876C52.4755 67.8256 56.1715 69.2116 59.8015 69.2116C63.4975 69.2116 67.1935 67.8256 69.9655 64.9876C70.4275 64.5256 70.4275 63.7996 69.9655 63.3376C69.6355 62.8756 68.9095 62.8756 68.4475 63.3376Z" fill="#1D3071"/>
<path d="M51.6173 53.8996C52.8053 53.8996 53.7953 54.8896 53.7953 56.0776C53.7953 56.7376 54.3233 57.1996 54.9173 57.1996C55.5773 57.1996 56.0393 56.6716 56.0393 56.0776C56.0393 53.6356 54.0593 51.6556 51.6173 51.6556C49.1753 51.6556 47.1953 53.6356 47.1953 56.0776C47.1953 56.7376 47.7233 57.1996 48.3173 57.1996C48.9773 57.1996 49.4393 56.6716 49.4393 56.0776C49.4393 54.8896 50.4293 53.8996 51.6173 53.8996Z" fill="#1D3071"/>
<path d="M68.5802 51.5896C66.1382 51.5896 64.1582 53.5696 64.1582 56.0116C64.1582 56.6716 64.6862 57.1336 65.2802 57.1336C65.9402 57.1336 66.4022 56.6056 66.4022 56.0116C66.4022 54.8236 67.3922 53.8336 68.5802 53.8336C69.7682 53.8336 70.7582 54.8236 70.7582 56.0116C70.7582 56.6716 71.2862 57.1336 71.8802 57.1336C72.4742 57.1336 73.0022 56.6056 73.0022 56.0116C73.0022 53.5696 71.0222 51.5896 68.5802 51.5896Z" fill="#1D3071"/>
</g>
<defs>
<clipPath id="clip0_659_12312">
<rect width="66" height="66" fill="white" transform="translate(27 25.8496)"/>
</clipPath>
</defs>
</svg>
