<svg width="27" height="24" viewBox="0 0 27 24" fill="none" xmlns="http://www.w3.org/2000/svg">
<path d="M24.9179 2.15372C24.2582 1.49368 23.4749 0.970095 22.6127 0.612869C21.7506 0.255642 20.8265 0.0717773 19.8933 0.0717773C18.9601 0.0717773 18.0361 0.255642 17.1739 0.612869C16.3118 0.970095 15.5285 1.49368 14.8688 2.15372L13.4996 3.52289L12.1304 2.15372C10.7978 0.821117 8.99042 0.0724681 7.10583 0.0724681C5.22125 0.0724681 3.41385 0.821117 2.08125 2.15372C0.748648 3.48632 1.40412e-08 5.29372 0 7.1783C-1.40412e-08 9.06289 0.748648 10.8703 2.08125 12.2029L3.45042 13.5721L13.4996 23.6212L23.5487 13.5721L24.9179 12.2029C25.578 11.5432 26.1015 10.7599 26.4588 9.89772C26.816 9.03558 26.9999 8.11151 26.9999 7.1783C26.9999 6.24509 26.816 5.32102 26.4588 4.45888C26.1015 3.59675 25.578 2.81345 24.9179 2.15372Z" fill="#ED6363"/>
</svg>
