<svg width="60" height="47" viewBox="0 0 60 47" fill="none" xmlns="http://www.w3.org/2000/svg">
<path d="M47.8461 11.0439C47.8342 10.9609 47.8232 10.8775 47.8133 10.7939H53.0423C55.0911 10.7923 56.7724 12.4736 56.7724 14.5239V19.7527C56.6888 19.7421 56.6054 19.7306 56.5224 19.7181M47.8461 11.0439H47.5936C48.24 15.6544 51.8934 19.2888 56.5224 19.9708V19.7181M47.8461 11.0439C48.4886 15.5143 52.0303 19.04 56.5224 19.7181M47.8461 11.0439H53.0423H53.0425C54.953 11.0424 56.5224 12.6115 56.5224 14.5239V19.7181M12.5352 42.8763C12.5474 42.9593 12.5587 43.0427 12.5689 43.1263H7.32111C5.27076 43.1279 3.60997 41.4513 3.60997 39.4341V34.1675C3.69362 34.1781 3.77696 34.1897 3.85997 34.2023M12.5352 42.8763H12.7878C12.1239 38.2661 8.47087 34.6319 3.85997 33.9495V34.2023M12.5352 42.8763C11.8752 38.4057 8.33349 34.8806 3.85997 34.2023M12.5352 42.8763H7.32111H7.32091C5.40875 42.8778 3.85997 41.3132 3.85997 39.4341V34.2023M56.5208 34.2037C56.6038 34.1912 56.6872 34.1796 56.7708 34.169V39.4357C56.7724 41.4513 55.0911 43.1279 53.0408 43.1279H47.8117C47.8217 43.0442 47.8326 42.9609 47.8446 42.8779M56.5208 34.2037V33.9509C51.8919 34.633 48.2399 38.2673 47.5921 42.8779H47.8446M56.5208 34.2037C52.0289 34.8817 48.4885 38.4074 47.8446 42.8779M56.5208 34.2037V39.4357V39.4359C56.5223 41.3113 54.955 42.8779 53.0408 42.8779H47.8446M19.3227 8.04559H7.32111C3.74949 8.04559 0.842773 10.9523 0.842773 14.5239V39.4341C0.842773 43.0077 3.75148 45.8746 7.32111 45.8746H53.0408C56.6104 45.8746 59.5191 43.0077 59.5191 39.4341V14.5239C59.5191 10.9523 56.6124 8.04559 53.0408 8.04559H41.0391V6.09541C41.0391 5.73283 40.9041 5.37809 40.6431 5.07323L40.6434 5.073L40.6341 5.06333C37.8507 2.14363 34.1317 0.509766 30.1809 0.509766C26.2298 0.509766 22.5298 2.14389 19.7467 5.06333L19.7464 5.06309L19.7377 5.07323C19.4837 5.36992 19.3227 5.72359 19.3227 6.09541V8.04559ZM3.85844 31.1542L3.85993 22.7644C10.0066 22.0681 14.8856 17.1714 15.5638 11.0423H44.8003C45.4965 17.171 50.3754 22.0681 56.5224 22.7644V31.1542C50.3754 31.8505 45.4965 36.7476 44.8003 42.8763H15.5622C14.8841 36.7473 10.005 31.8505 3.85844 31.1542ZM22.3384 8.04559V6.72502C24.5002 4.65159 27.2591 3.54589 30.1809 3.54589C33.1034 3.54589 35.8802 4.65202 38.0235 6.7244V8.04559H22.3384ZM7.32111 11.0423H12.5351C11.8737 15.513 8.33335 19.038 3.85997 19.7163V14.5223C3.85997 12.6099 5.41055 11.0423 7.32111 11.0423Z" fill="#5050D8" stroke="#5050D8" stroke-width="0.5"/>
</svg>
