<svg width="57" height="67" viewBox="0 0 57 67" fill="none" xmlns="http://www.w3.org/2000/svg">
<path d="M23.6595 30.7119C22.0718 29.1024 19.4696 29.1183 17.9017 30.747C16.3899 32.3173 16.4051 34.8063 17.9358 36.3581L25.9917 44.5247C26.3624 44.9009 26.8018 45.1985 27.2846 45.4004C27.7674 45.6023 28.2842 45.7046 28.8055 45.7014C29.3268 45.6983 29.8423 45.5897 30.3226 45.3819C30.8029 45.1741 31.2386 44.8712 31.6047 44.4905L55.2565 19.9226C55.7013 19.4604 56.0317 18.8956 56.2203 18.2755C56.4088 17.6553 56.45 16.9978 56.3402 16.3579C56.2305 15.718 55.9732 15.1143 55.5896 14.5973C55.2061 14.0802 54.7076 13.6648 54.1357 13.3859L30.261 1.31918C29.7081 1.03955 29.0995 0.895917 28.4832 0.899667C27.867 0.903418 27.2601 1.05445 26.7107 1.34079L2.98461 13.6972C2.339 14.0544 1.80052 14.5854 1.42704 15.2331C1.05356 15.8809 0.859202 16.6209 0.864865 17.3737L0.988733 37.7262C1.03473 45.2832 4.0043 52.5128 9.24417 57.8247C14.4841 63.1366 21.565 66.0956 28.9293 66.0508C36.2936 66.006 43.3381 62.961 48.5129 57.5857C53.6877 52.2104 56.5691 44.9452 56.5231 37.3882L56.481 30.4767C56.4783 30.0281 55.9319 29.8098 55.6208 30.133L48.7306 37.29C48.6402 37.3839 48.5903 37.5096 48.5899 37.64C48.5704 42.9646 46.5179 48.0721 42.868 51.8633C39.1717 55.7028 34.14 57.8778 28.8798 57.9098C23.6196 57.9418 18.5617 55.8282 14.819 52.034C11.0762 48.2398 8.95506 43.0758 8.92221 37.6779L8.81364 19.8389L28.5854 9.54194L45.7454 18.2199L28.7456 35.868L23.6595 30.7119Z" fill="#5050D8"/>
</svg>
