<svg width="101" height="75" viewBox="0 0 101 75" fill="none" xmlns="http://www.w3.org/2000/svg">
<g clip-path="url(#clip0_467_18698)">
<path d="M7.76573 31.1021L16.7968 30.2494C16.7969 30.2494 16.797 30.2494 16.7972 30.2494C16.9523 30.235 17.2065 30.3387 17.3074 30.4575C17.3076 30.4577 17.3077 30.4578 17.3078 30.458L22.7508 36.8971L23.6798 37.9961L25.1183 37.9595L32.194 37.7792L37.2095 37.6515L34.7233 33.2936L26.1312 18.2328L32.9822 17.7649L32.9822 17.7649C36.3657 17.5338 40.0465 18.9345 42.4675 21.4017L42.468 21.4022L56.9895 36.1935L57.9033 37.1242L59.2071 37.0908L72.724 36.7445C72.725 36.7444 72.7259 36.7444 72.7269 36.7444C75.3759 36.6831 78.0844 37.5572 80.2817 39.0579C82.4927 40.568 83.9793 42.5636 84.4955 44.564L84.5004 44.5832L84.5056 44.6022L7.76573 31.1021ZM7.76573 31.1021L12.099 40.5885C14.2412 45.2766 19.9387 49.0337 26.0029 49.3417L76.6493 51.9121L76.6544 51.9123C79.6579 52.0699 81.9058 51.0973 83.2106 49.7728C84.4651 48.4993 85.0455 46.7245 84.506 44.6038L7.76573 31.1021Z" stroke="#5050D8" stroke-width="6"/>
<path d="M78.8574 63.0688V65.4208C78.8574 66.7199 77.5144 67.7728 75.8574 67.7728H21.8574C20.2004 67.7728 18.8574 66.7199 18.8574 65.4208V63.0688C18.8574 61.7697 20.2004 60.7168 21.8574 60.7168H75.8574C77.5144 60.7168 78.8574 61.7697 78.8574 63.0688Z" fill="#5050D8"/>
</g>
<defs>
<clipPath id="clip0_467_18698">
<rect width="100" height="74" fill="white" transform="translate(0.855469 0.348633)"/>
</clipPath>
</defs>
</svg>
