<svg width="91" height="97" viewBox="0 0 91 97" fill="none" xmlns="http://www.w3.org/2000/svg">
<g clip-path="url(#clip0_485_1582)">
<path d="M33.0918 8.20584H35.5427V21.5107H28.8903C26.9402 21.5107 25.07 22.2854 23.6911 23.6643C22.3122 25.0432 21.5376 26.9134 21.5376 28.8634V73.6799C21.5376 75.6299 22.3122 77.5001 23.6911 78.879C25.07 80.2579 26.9402 81.0326 28.8903 81.0326H32.1722C32.0379 81.5808 32.0063 82.1507 32.0808 82.7131C32.1767 83.4381 32.446 84.1294 32.8658 84.7283C33.2855 85.3272 33.8434 85.8162 34.4923 86.1537C35.1411 86.4913 35.8617 86.6676 36.5931 86.6676C37.3245 86.6676 38.0451 86.4913 38.6939 86.1537C39.3427 85.8162 39.9007 85.3272 40.3204 84.7283C40.7402 84.1294 41.0095 83.4381 41.1054 82.7131C41.1798 82.1507 41.1483 81.5808 41.014 81.0326H50.3789C50.2446 81.5808 50.213 82.1507 50.2874 82.7131C50.3834 83.4381 50.6527 84.1294 51.0724 84.7283C51.4922 85.3272 52.0501 85.8162 52.699 86.1537C53.3478 86.4913 54.0684 86.6676 54.7998 86.6676C55.5312 86.6676 56.2518 86.4913 56.9006 86.1537C57.5494 85.8162 58.1073 85.3272 58.5271 84.7283C58.9469 84.1294 59.2161 83.4381 59.3121 82.7131C59.3865 82.1507 59.355 81.5808 59.2206 81.0326H62.5026C64.4527 81.0326 66.3228 80.2579 67.7017 78.879C69.0806 77.5001 69.8553 75.6299 69.8553 73.6799V28.8634C69.8553 26.9134 69.0806 25.0432 67.7017 23.6643C66.3228 22.2854 64.4527 21.5107 62.5026 21.5107H55.8502V8.20584H58.3011H58.6512V7.85572V5.05469V4.70456H58.3011H33.0918H32.7417V5.05469V7.85572V8.20584H33.0918ZM37.4665 82.6665L37.7482 82.8547L37.4665 82.6665C37.351 82.8392 37.187 82.9739 36.9951 83.0534C36.8031 83.1329 36.5919 83.1537 36.3882 83.1132C36.1844 83.0726 35.9973 82.9726 35.8504 82.8257L35.6028 83.0733L35.8504 82.8257C35.7035 82.6788 35.6034 82.4916 35.5629 82.2879C35.5224 82.0841 35.5432 81.8729 35.6227 81.681C35.7022 81.4891 35.8368 81.325 36.0095 81.2096C36.1823 81.0942 36.3853 81.0326 36.5931 81.0326C36.8717 81.0326 37.1388 81.1432 37.3358 81.3402C37.5328 81.5372 37.6435 81.8044 37.6435 82.0829C37.6435 82.2907 37.5819 82.4938 37.4665 82.6665ZM26.1669 76.4032L25.9227 76.6474L26.1669 76.4032C25.4446 75.6809 25.0389 74.7013 25.0389 73.6799V28.8634C25.0389 27.842 25.4446 26.8623 26.1669 26.1401C26.8892 25.4178 27.8688 25.012 28.8903 25.012H62.5026C63.5241 25.012 64.5037 25.4178 65.226 26.1401C65.9482 26.8623 66.354 27.842 66.354 28.8634V73.6799C66.354 74.7013 65.9482 75.6809 65.226 76.4032C64.5037 77.1255 63.5241 77.5313 62.5026 77.5313H28.8903C27.8688 77.5313 26.8892 77.1255 26.1669 76.4032ZM55.8502 82.0829C55.8502 82.2907 55.7886 82.4938 55.6731 82.6665C55.5577 82.8392 55.3937 82.9739 55.2017 83.0534C55.0098 83.1329 54.7986 83.1537 54.5948 83.1132C54.3911 83.0726 54.2039 82.9726 54.057 82.8257C53.9101 82.6788 53.8101 82.4916 53.7696 82.2879C53.729 82.0841 53.7498 81.8729 53.8293 81.681C53.9088 81.4891 54.0435 81.325 54.2162 81.2096C54.3889 81.0942 54.592 81.0326 54.7998 81.0326C55.0784 81.0326 55.3455 81.1432 55.5425 81.3402C55.7395 81.5372 55.8502 81.8044 55.8502 82.0829ZM39.044 8.20584H52.3489V21.5107H39.044V8.20584Z" fill="#5050D8" stroke="#5050D8" stroke-width="0.700257"/>
<path d="M36.242 35.8662V35.5161H35.8918H33.0908H32.7407V35.8662V66.6775V67.0276H33.0908H35.8918H36.242V66.6775V35.8662Z" fill="#5050D8" stroke="#5050D8" stroke-width="0.700257"/>
<path d="M58.6512 35.8662V35.5161H58.301H55.5H55.1499V35.8662V66.6775V67.0276H55.5H58.301H58.6512V66.6775V35.8662Z" fill="#5050D8" stroke="#5050D8" stroke-width="0.700257"/>
<path d="M47.4466 35.8662V35.5161H47.0964H44.2954H43.9453V35.8662V66.6775V67.0276H44.2954H47.0964H47.4466V66.6775V35.8662Z" fill="#5050D8" stroke="#5050D8" stroke-width="0.700257"/>
</g>
<defs>
<clipPath id="clip0_485_1582">
<rect width="89.6329" height="95.2349" fill="white" transform="translate(0.878906 0.853516)"/>
</clipPath>
</defs>
</svg>
