<svg width="754" height="755" viewBox="0 0 754 755" fill="none" xmlns="http://www.w3.org/2000/svg">
<path d="M146.224 140.278C146.504 140.023 146.786 139.768 147.068 139.513C224.835 69.4895 328.125 66.3332 403.373 141.711C442.593 180.997 512.231 173.478 562.055 187.69C733.845 236.684 704.143 469.768 619.285 582.44C542.709 684.114 376.788 707.085 265.311 657.059C167.354 613.099 98.3782 514.894 73.8309 412.208C71.3699 401.91 69.3446 391.508 67.7974 381.033C54.8859 293.619 79.6865 200.782 146.224 140.278Z" fill="#5050D8"/>
<path opacity="0.7" d="M146.224 140.278C146.504 140.023 146.786 139.768 147.068 139.513C224.835 69.4895 328.125 66.3332 403.373 141.711C442.593 180.997 512.231 173.478 562.055 187.69C733.845 236.684 704.143 469.768 619.285 582.44C542.709 684.114 376.788 707.085 265.311 657.059C167.354 613.099 98.3782 514.894 73.8309 412.208C71.3699 401.91 69.3446 391.508 67.7974 381.033C54.8859 293.619 79.6865 200.782 146.224 140.278Z" fill="white"/>
<path d="M420.406 604.328C412.941 641.644 376.639 665.842 339.324 658.376C312.64 653.038 292.663 632.954 286.176 608.297" stroke="#263238" stroke-miterlimit="10" stroke-linecap="round" stroke-linejoin="round"/>
<path d="M419.471 573.195C421.454 580.675 422.196 588.578 421.505 596.619" stroke="#263238" stroke-miterlimit="10" stroke-linecap="round" stroke-linejoin="round"/>
<path d="M308.514 538.076C323.99 525.084 345.001 518.974 366.355 523.246C388.925 527.761 406.697 542.828 415.565 562.285" stroke="#263238" stroke-miterlimit="10" stroke-linecap="round" stroke-linejoin="round"/>
<path d="M289.393 527.206L287.477 522.068L305.643 535.891" stroke="#263238" stroke-miterlimit="10" stroke-linecap="round" stroke-linejoin="round"/>
<path d="M285.275 577.296C287.364 566.857 291.712 557.447 297.704 549.467L291.65 533.247" stroke="#263238" stroke-miterlimit="10" stroke-linecap="round" stroke-linejoin="round"/>
<path d="M283.981 593.727C283.866 590.955 283.917 588.153 284.147 585.335" stroke="#263238" stroke-miterlimit="10" stroke-linecap="round" stroke-linejoin="round"/>
<path d="M356.105 556.479C375.129 558.706 388.743 575.933 386.516 594.957C384.288 613.98 367.061 627.594 348.038 625.367C329.014 623.14 315.4 605.912 317.627 586.889C319.361 572.086 330.177 560.559 343.853 557.222" stroke="#263238" stroke-miterlimit="10" stroke-linecap="round" stroke-linejoin="round"/>
<path d="M347.604 629.08C326.531 626.612 311.448 607.528 313.917 586.455" stroke="#263238" stroke-miterlimit="10" stroke-linecap="round" stroke-linejoin="round"/>
<path d="M388.841 602.073C384.717 615.731 373.321 625.875 359.58 628.609" stroke="#263238" stroke-miterlimit="10" stroke-linecap="round" stroke-linejoin="round"/>
<path d="M316.365 576.725C322.625 560.952 338.886 550.699 356.541 552.766C377.614 555.235 392.697 574.319 390.229 595.391" stroke="#263238" stroke-miterlimit="10" stroke-linecap="round" stroke-linejoin="round"/>
<path d="M374.375 575.901L374.79 575.403" stroke="#263238" stroke-width="2" stroke-miterlimit="10" stroke-linecap="round" stroke-linejoin="round"/>
<path d="M368.576 582.842L371.466 579.384" stroke="#263238" stroke-width="2" stroke-miterlimit="10" stroke-linecap="round" stroke-linejoin="round"/>
<path d="M331.32 589.65L347.12 608.524L366.044 585.871" stroke="#263238" stroke-width="2" stroke-miterlimit="10" stroke-linecap="round" stroke-linejoin="round"/>
<path d="M614.697 527.499H449.021C410.55 527.499 379.363 496.312 379.363 457.841V292.166C379.363 253.696 410.55 222.509 449.021 222.509H614.697C653.168 222.509 684.355 253.696 684.355 292.166V457.841C684.353 496.312 653.168 527.499 614.697 527.499Z" fill="white" stroke="#263238" stroke-miterlimit="10" stroke-linecap="round" stroke-linejoin="round"/>
<path d="M472.791 356.792C468.167 349.158 445.963 349.283 443.953 352.675C443.953 352.675 454.954 388.237 467.214 384.551C479.474 380.864 472.791 356.792 472.791 356.792Z" fill="#5050D8"/>
<mask id="mask0_3288_16040" style="mask-type:luminance" maskUnits="userSpaceOnUse" x="443" y="350" width="32" height="35">
<path d="M472.791 356.792C468.167 349.158 445.963 349.283 443.953 352.675C443.953 352.675 454.954 388.237 467.214 384.551C479.474 380.864 472.791 356.792 472.791 356.792Z" fill="white"/>
</mask>
<g mask="url(#mask0_3288_16040)">
<path opacity="0.3" d="M472.791 356.792C468.167 349.158 445.963 349.283 443.953 352.675C443.953 352.675 454.954 388.237 467.214 384.551C479.474 380.864 472.791 356.792 472.791 356.792Z" fill="black" fill-opacity="0.7"/>
</g>
<path d="M472.791 356.792C468.167 349.158 445.963 349.283 443.953 352.675C443.953 352.675 454.954 388.237 467.214 384.551C479.474 380.864 472.791 356.792 472.791 356.792Z" stroke="#263238" stroke-miterlimit="10" stroke-linecap="round" stroke-linejoin="round"/>
<path d="M446.3 374.888C446.3 374.888 443.949 377.569 443.949 381.597C443.949 384.913 450.277 451.162 469.807 474.224C473.898 479.065 478.574 482.001 483.898 482.064C500.428 482.242 508.433 469.13 518.954 438.711C520.263 434.924 521.622 430.858 523.033 426.512C533.262 395.116 545.828 329.628 545.828 329.628C545.828 329.628 523.529 334.799 510.301 347.912C504.52 353.643 498.497 369.907 494.647 381.85C492.753 387.721 491.382 392.536 490.809 394.568C490.631 395.241 490.53 395.611 490.53 395.611C490.022 393.641 489.183 391.634 488.192 389.676C488.18 389.651 488.18 389.639 488.167 389.625C488.129 389.574 488.103 389.524 488.09 389.473C484.1 381.811 477.608 375.052 477.608 375.052L472.793 356.793C472.793 356.793 471.09 360.123 463.39 361.303C455.678 362.486 443.951 352.676 443.951 352.676L446.3 374.888Z" fill="#5050D8"/>
<mask id="mask1_3288_16040" style="mask-type:luminance" maskUnits="userSpaceOnUse" x="443" y="329" width="103" height="154">
<path d="M446.3 374.888C446.3 374.888 443.949 377.569 443.949 381.597C443.949 384.913 450.277 451.162 469.807 474.224C473.898 479.065 478.574 482.001 483.898 482.064C500.428 482.242 508.433 469.13 518.954 438.711C520.263 434.924 521.622 430.858 523.033 426.512C533.262 395.116 545.828 329.628 545.828 329.628C545.828 329.628 523.529 334.799 510.301 347.912C504.52 353.643 498.497 369.907 494.647 381.85C492.753 387.721 491.382 392.536 490.809 394.568C490.631 395.241 490.53 395.611 490.53 395.611C490.022 393.641 489.183 391.634 488.192 389.676C488.18 389.651 488.18 389.639 488.167 389.625C488.129 389.574 488.103 389.524 488.09 389.473C484.1 381.811 477.608 375.052 477.608 375.052L472.793 356.793C472.793 356.793 471.09 360.123 463.39 361.303C455.678 362.486 443.951 352.676 443.951 352.676L446.3 374.888Z" fill="white"/>
</mask>
<g mask="url(#mask1_3288_16040)">
<path opacity="0.3" d="M469.807 474.224C473.898 479.064 478.574 482 483.897 482.064C500.428 482.242 508.433 469.13 518.954 438.71L518.725 368.014C518.725 368.014 506.297 370.428 494.646 381.851C492.752 387.722 491.382 392.537 490.809 394.57C495.459 404.251 503.566 426.512 494.265 450.234C488.231 465.622 478.359 471.873 469.807 474.224Z" fill="black" fill-opacity="0.7"/>
</g>
<path d="M446.3 374.888C446.3 374.888 443.949 377.569 443.949 381.597C443.949 384.913 450.277 451.162 469.807 474.224C473.898 479.065 478.574 482.001 483.898 482.064C500.428 482.242 508.433 469.13 518.954 438.711C520.263 434.924 521.622 430.858 523.033 426.512C533.262 395.116 545.828 329.628 545.828 329.628C545.828 329.628 523.529 334.799 510.301 347.912C504.52 353.643 498.497 369.907 494.647 381.85C492.753 387.721 491.382 392.536 490.809 394.568C490.631 395.241 490.53 395.611 490.53 395.611C490.022 393.641 489.183 391.634 488.192 389.676C488.18 389.651 488.18 389.639 488.167 389.625C488.129 389.574 488.103 389.524 488.09 389.473C484.1 381.811 477.608 375.052 477.608 375.052L472.793 356.793C472.793 356.793 471.09 360.123 463.39 361.303C455.678 362.486 443.951 352.676 443.951 352.676L446.3 374.888Z" stroke="#263238" stroke-miterlimit="10" stroke-linecap="round" stroke-linejoin="round"/>
<path d="M498.87 417.193C500.055 423.4 500.102 430.131 497.232 435.905" stroke="#263238" stroke-miterlimit="10" stroke-linecap="round" stroke-linejoin="round"/>
<path d="M490.531 395.609C493.796 401.12 496.339 407.188 497.993 413.369" stroke="#263238" stroke-miterlimit="10" stroke-linecap="round" stroke-linejoin="round"/>
<path d="M501.066 403.428C501.066 403.428 498.741 397.032 492.457 395.607" stroke="#263238" stroke-miterlimit="10" stroke-linecap="round" stroke-linejoin="round"/>
<path d="M468.977 380.057C470.491 379.241 471.902 378.235 473.188 377.094" stroke="#263238" stroke-miterlimit="10" stroke-linecap="round" stroke-linejoin="round"/>
<path d="M446.297 374.888C451.219 380.152 458.895 383.593 466.05 381.301" stroke="#263238" stroke-miterlimit="10" stroke-linecap="round" stroke-linejoin="round"/>
<path d="M488.08 389.487C488.08 389.487 488.106 389.538 488.169 389.627C488.131 389.576 488.106 389.526 488.092 389.475C488.08 389.475 488.08 389.487 488.08 389.487Z" fill="#5050D8" stroke="#263238" stroke-miterlimit="10" stroke-linecap="round" stroke-linejoin="round"/>
<path d="M633.72 524.543C633.72 524.543 636.532 502.348 638.247 495.1C645.966 462.472 673.159 386.873 668.773 364.503C664.268 341.514 636.706 321.397 592.221 319.186C550.964 317.128 516.951 331.752 508.818 348.754C501.055 364.98 501.372 476.965 503.341 527.498C503.341 527.498 588.341 527.498 616.674 527.498C625.622 527.498 633.72 524.543 633.72 524.543Z" fill="#5050D8"/>
<mask id="mask2_3288_16040" style="mask-type:luminance" maskUnits="userSpaceOnUse" x="502" y="318" width="168" height="210">
<path d="M633.72 524.543C633.72 524.543 636.532 502.348 638.247 495.1C645.966 462.472 673.159 386.873 668.773 364.503C664.268 341.514 636.706 321.397 592.221 319.186C550.964 317.128 516.951 331.752 508.818 348.754C501.055 364.98 501.372 476.965 503.341 527.498C503.341 527.498 588.341 527.498 616.674 527.498C625.622 527.498 633.72 524.543 633.72 524.543Z" fill="white"/>
</mask>
<g mask="url(#mask2_3288_16040)">
<path opacity="0.3" d="M624.861 389.637C603.492 418.93 580.194 462.768 580.194 462.768L516.551 383.448C516.551 383.448 531.126 484.195 539.076 495.101C547.026 506.006 546.672 511.016 546.672 511.016C546.672 511.016 566.844 532.74 581.975 529.791C594.808 527.29 640.962 475.783 655.359 416.075L624.861 389.637Z" fill="black" fill-opacity="0.7"/>
</g>
<path d="M633.72 524.543C633.72 524.543 636.532 502.348 638.247 495.1C645.966 462.472 673.159 386.873 668.773 364.503C664.268 341.514 636.706 321.397 592.221 319.186C550.964 317.128 516.951 331.752 508.818 348.754C501.055 364.98 501.372 476.965 503.341 527.498C503.341 527.498 588.341 527.498 616.674 527.498C625.622 527.498 633.72 524.543 633.72 524.543Z" stroke="#263238" stroke-miterlimit="10" stroke-linecap="round" stroke-linejoin="round"/>
<path d="M610.182 323.667C610.182 323.667 588 333.183 563.992 325.296C563.992 325.296 567.084 317.786 567.099 311.588C567.114 308.482 566.33 305.692 563.992 304.365C563.992 304.365 565.078 303.173 566.918 301.288C566.933 301.288 566.933 301.288 566.933 301.288C576.026 292.029 603.638 266.001 612.625 281.519C612.625 281.519 603.215 282.408 610.182 323.667Z" fill="white" stroke="#263238" stroke-miterlimit="10" stroke-linecap="round" stroke-linejoin="round"/>
<path d="M585.104 294.924C585.104 294.924 581.455 308.3 567.099 311.587C567.114 308.481 566.33 305.691 563.992 304.364C563.992 304.364 565.078 303.173 566.918 301.288C566.933 301.288 566.933 301.288 566.933 301.288C575.724 297.836 585.104 294.924 585.104 294.924Z" fill="#263238"/>
<path d="M618.872 259.681C628.4 221.716 607.879 208.722 594.948 203.747C574.234 195.777 548.096 204.844 541.97 225.935C535.845 247.026 541.365 251.829 541.079 260.458C540.878 266.51 536.866 269.489 541.29 284.676C544.208 294.696 549.631 306.188 555.952 306.556C573.062 307.55 589.261 297.807 588.361 293.233" fill="white"/>
<path d="M618.872 259.681C628.4 221.716 607.879 208.722 594.948 203.747C574.234 195.777 548.096 204.844 541.97 225.935C535.845 247.026 541.365 251.829 541.079 260.458C540.878 266.51 536.866 269.489 541.29 284.676C544.208 294.696 549.631 306.188 555.952 306.556C573.062 307.55 589.261 297.807 588.361 293.233" stroke="#263238" stroke-miterlimit="10" stroke-linecap="round" stroke-linejoin="round"/>
<path d="M565.107 241.078C565.107 241.078 572.767 238.431 576.858 246.786" stroke="#263238" stroke-miterlimit="10" stroke-linecap="round" stroke-linejoin="round"/>
<path d="M539.072 239.831C539.072 239.831 544.768 234.995 550.476 241.837" stroke="#263238" stroke-miterlimit="10" stroke-linecap="round" stroke-linejoin="round"/>
<path d="M568.531 260.349C569.58 260.349 570.431 258.918 570.431 257.153C570.431 255.389 569.58 253.958 568.531 253.958C567.482 253.958 566.631 255.389 566.631 257.153C566.631 258.918 567.482 260.349 568.531 260.349Z" fill="#263238"/>
<path d="M544.77 255.405C544.77 257.17 545.62 258.601 546.67 258.601C547.719 258.601 548.57 257.17 548.57 255.405C548.57 253.641 547.719 252.21 546.67 252.21C545.619 252.21 544.77 253.641 544.77 255.405Z" fill="#263238"/>
<path d="M550.477 248.09C550.477 248.09 551.656 256.88 551.131 258.601C550.606 260.321 544.657 265.69 544.424 268.075C544.19 270.461 549.397 272.871 549.397 272.871" fill="white"/>
<path d="M550.477 248.09C550.477 248.09 551.656 256.88 551.131 258.601C550.606 260.321 544.657 265.69 544.424 268.075C544.19 270.461 549.397 272.871 549.397 272.871" stroke="#263238" stroke-miterlimit="10" stroke-linecap="round" stroke-linejoin="round"/>
<path d="M546.668 277.919C546.668 277.919 558.547 280.902 568.531 277.919C568.531 277.919 563.826 292.652 554.529 291.152C548.371 290.158 549.939 280.502 549.939 280.502L546.668 277.919Z" fill="#263238"/>
<path d="M579.418 219.803C579.418 219.803 574.506 216.422 567.673 218.013C560.839 219.604 559.765 233.974 559.765 233.974C559.765 233.974 556.114 230.739 555.469 226.763L553.322 232.927L547.624 227.559L545.717 233.975L543.453 229.349L539.07 237.889C539.07 237.889 532.481 229.399 533.502 222.836C536.286 204.939 550.488 190.234 580.193 191.815C595.148 192.61 600.727 202.861 600.727 202.861C600.727 202.861 615.352 200.882 621.839 208.469C643.927 234.303 630.074 262.356 609.1 288.932L601.909 263.602L594.95 262.807C594.95 262.807 595.209 258.98 594.994 255.002C594.778 251.025 592.415 245.204 592.415 245.204L589.838 246.361L590.912 241.509L585.024 244.528C585.024 244.528 587.514 224.575 585.024 221.194C582.532 217.814 579.418 219.803 579.418 219.803Z" fill="#263238"/>
<path d="M597.533 266.325C597.533 266.325 604.494 253.353 611.77 256.517C619.048 259.68 613.985 275.183 607.658 280.245C601.33 285.307 597.533 280.245 597.533 280.245" fill="white"/>
<path d="M597.533 266.325C597.533 266.325 604.494 253.353 611.77 256.517C619.048 259.68 613.985 275.183 607.658 280.245C601.33 285.307 597.533 280.245 597.533 280.245" stroke="#263238" stroke-miterlimit="10" stroke-linecap="round" stroke-linejoin="round"/>
<g opacity="0.2">
<path d="M585.731 214.465C585.731 214.465 583.134 207.192 574.615 206.633C566.097 206.073 559.976 215.305 559.781 221.738" stroke="white" stroke-miterlimit="10" stroke-linecap="round" stroke-linejoin="round"/>
<path d="M591.492 214.173C591.492 214.173 597.33 209.697 600.717 214.173C606.443 221.738 601.701 240.005 601.701 240.005" stroke="white" stroke-miterlimit="10" stroke-linecap="round" stroke-linejoin="round"/>
<path d="M599.436 208.838C599.436 208.838 605.51 205.106 610.714 212.304C615.918 219.502 615.351 236.987 615.351 236.987" stroke="white" stroke-miterlimit="10" stroke-linecap="round" stroke-linejoin="round"/>
<path d="M616.646 207.87C616.646 207.87 627.163 212.302 627.76 233.487" stroke="white" stroke-miterlimit="10" stroke-linecap="round" stroke-linejoin="round"/>
<path d="M592.201 208.839C592.201 208.839 586.285 198.802 568.771 202.159C551.257 205.515 548.627 223.418 548.627 223.418" stroke="white" stroke-miterlimit="10" stroke-linecap="round" stroke-linejoin="round"/>
<path d="M596.559 205.792C596.559 205.792 589.506 196.003 568.068 197.96C546.631 199.917 538.008 218.66 540.187 227.612" stroke="white" stroke-miterlimit="10" stroke-linecap="round" stroke-linejoin="round"/>
</g>
<path d="M420.879 331.323C420.879 331.323 446.378 311.697 457.492 309.709C468.606 307.722 506.848 316.073 506.848 316.073V361.363C506.848 361.363 482.923 363.988 472.184 371.848C461.446 379.707 424.459 380.968 424.459 380.968L420.879 331.323Z" fill="#757575" stroke="#263238" stroke-miterlimit="10" stroke-linecap="round" stroke-linejoin="round"/>
<path d="M444.811 317.293C444.811 317.293 445.396 311.526 446.296 308.345C447.198 305.163 453.361 305.503 454.753 306.625C456.145 307.747 457.49 309.708 457.49 309.708C457.49 309.708 455.35 310.332 454.753 310.531C454.157 310.73 453.56 322.265 444.811 317.293Z" fill="white" stroke="#263238" stroke-miterlimit="10" stroke-linecap="round" stroke-linejoin="round"/>
<path d="M477.363 248.159L451.955 321.811L488.427 334.392L513.835 260.74L477.363 248.159Z" fill="#5050D8"/>
<mask id="mask3_3288_16040" style="mask-type:luminance" maskUnits="userSpaceOnUse" x="451" y="248" width="63" height="87">
<path d="M477.363 248.159L451.955 321.811L488.427 334.392L513.835 260.74L477.363 248.159Z" fill="white"/>
</mask>
<g mask="url(#mask3_3288_16040)">
<path opacity="0.5" d="M451.965 321.795L488.439 334.377L513.847 260.723L477.373 248.142L451.965 321.795ZM510.012 262.59L486.572 330.542L455.8 319.927L479.24 251.975L510.012 262.59Z" fill="black" fill-opacity="0.7"/>
</g>
<mask id="mask4_3288_16040" style="mask-type:luminance" maskUnits="userSpaceOnUse" x="451" y="248" width="63" height="87">
<path d="M477.363 248.159L451.955 321.811L488.427 334.392L513.835 260.74L477.363 248.159Z" fill="white"/>
</mask>
<g mask="url(#mask4_3288_16040)">
<path opacity="0.5" d="M482.79 257.731L479.652 266.827C479.3 267.845 478.19 268.386 477.172 268.035C476.155 267.684 475.613 266.574 475.965 265.556L479.103 256.46C479.454 255.442 480.564 254.9 481.582 255.252C482.601 255.603 483.141 256.713 482.79 257.731Z" fill="black" fill-opacity="0.7"/>
</g>
<mask id="mask5_3288_16040" style="mask-type:luminance" maskUnits="userSpaceOnUse" x="451" y="248" width="63" height="87">
<path d="M477.363 248.159L451.955 321.811L488.427 334.392L513.835 260.74L477.363 248.159Z" fill="white"/>
</mask>
<g mask="url(#mask5_3288_16040)">
<path opacity="0.5" d="M489.846 316.962L486.708 326.059C486.356 327.076 485.246 327.618 484.229 327.266C483.211 326.915 482.671 325.805 483.021 324.787L486.159 315.691C486.51 314.673 487.62 314.132 488.638 314.483C489.656 314.833 490.197 315.943 489.846 316.962Z" fill="black" fill-opacity="0.7"/>
</g>
<mask id="mask6_3288_16040" style="mask-type:luminance" maskUnits="userSpaceOnUse" x="451" y="248" width="63" height="87">
<path d="M477.363 248.159L451.955 321.811L488.427 334.392L513.835 260.74L477.363 248.159Z" fill="white"/>
</mask>
<g mask="url(#mask6_3288_16040)">
<path opacity="0.5" d="M471.479 287.316C469.301 293.627 472.653 300.507 478.963 302.684C485.274 304.86 492.153 301.51 494.331 295.2C496.508 288.889 493.156 282.01 486.847 279.832C480.537 277.655 473.656 281.007 471.479 287.316ZM489.255 292.558L490.157 292.869L489.608 294.46L488.706 294.149C487.941 295.448 486.619 295.784 484.939 295.203L484.09 294.911L484.725 293.072L485.698 293.407C486.581 293.712 487.034 293.433 487.248 292.815C487.462 292.196 487.278 291.697 486.393 291.393C485.509 291.088 484.751 291.222 483.274 292.177C481.471 293.335 480.291 293.541 478.877 293.053C477.215 292.48 476.392 291.424 476.561 289.96L475.641 289.643L476.19 288.052L477.11 288.369C477.868 287.087 479.173 286.746 480.852 287.325L481.241 287.46L480.607 289.298L480.094 289.121C479.21 288.817 478.752 289.054 478.539 289.673C478.325 290.292 478.539 290.762 479.424 291.067C480.308 291.371 481.048 291.231 482.543 290.283C484.365 289.131 485.526 288.918 486.94 289.406C488.619 289.986 489.447 291.082 489.255 292.558Z" fill="black" fill-opacity="0.7"/>
</g>
<path d="M477.363 248.159L451.955 321.811L488.427 334.392L513.835 260.74L477.363 248.159Z" stroke="#263238" stroke-width="0.999967" stroke-miterlimit="10" stroke-linecap="round" stroke-linejoin="round"/>
<path d="M479.831 206.137L459.814 130.841L422.529 140.753L442.545 216.049L479.831 206.137Z" fill="#5050D8"/>
<mask id="mask7_3288_16040" style="mask-type:luminance" maskUnits="userSpaceOnUse" x="422" y="130" width="58" height="87">
<path d="M479.831 206.137L459.814 130.841L422.529 140.753L442.545 216.049L479.831 206.137Z" fill="white"/>
</mask>
<g mask="url(#mask7_3288_16040)">
<path opacity="0.5" d="M459.788 130.854L422.5 140.764L442.513 216.063L479.801 206.152L459.788 130.854ZM444.653 212.374L426.189 142.904L457.647 134.544L476.109 204.014L444.653 212.374Z" fill="black" fill-opacity="0.7"/>
</g>
<mask id="mask8_3288_16040" style="mask-type:luminance" maskUnits="userSpaceOnUse" x="422" y="130" width="58" height="87">
<path d="M479.831 206.137L459.814 130.841L422.529 140.753L442.545 216.049L479.831 206.137Z" fill="white"/>
</mask>
<g mask="url(#mask8_3288_16040)">
<path opacity="0.5" d="M469.955 201.217L467.484 191.917C467.208 190.877 467.826 189.809 468.868 189.532C469.909 189.256 470.976 189.874 471.254 190.916L473.725 200.216C474.001 201.256 473.383 202.324 472.341 202.601C471.299 202.877 470.231 202.258 469.955 201.217Z" fill="black" fill-opacity="0.7"/>
</g>
<mask id="mask9_3288_16040" style="mask-type:luminance" maskUnits="userSpaceOnUse" x="422" y="130" width="58" height="87">
<path d="M479.831 206.137L459.814 130.841L422.529 140.753L442.545 216.049L479.831 206.137Z" fill="white"/>
</mask>
<g mask="url(#mask9_3288_16040)">
<path opacity="0.5" d="M431.049 156.002L428.577 146.702C428.301 145.661 428.92 144.594 429.962 144.316C431.002 144.039 432.07 144.659 432.347 145.699L434.819 154.999C435.095 156.039 434.477 157.107 433.435 157.385C432.394 157.662 431.327 157.044 431.049 156.002Z" fill="black" fill-opacity="0.7"/>
</g>
<mask id="mask10_3288_16040" style="mask-type:luminance" maskUnits="userSpaceOnUse" x="422" y="130" width="58" height="87">
<path d="M479.831 206.137L459.814 130.841L422.529 140.753L442.545 216.049L479.831 206.137Z" fill="white"/>
</mask>
<g mask="url(#mask10_3288_16040)">
<path opacity="0.5" d="M462.832 170.354C461.117 163.903 454.497 160.062 448.046 161.777C441.595 163.491 437.755 170.111 439.468 176.563C441.182 183.014 447.803 186.855 454.254 185.139C460.707 183.425 464.546 176.805 462.832 170.354ZM445.157 175.923L444.235 176.167L443.802 174.54L444.724 174.294C444.633 172.79 445.544 171.775 447.262 171.318L448.129 171.087L448.628 172.966L447.634 173.23C446.731 173.47 446.511 173.954 446.68 174.587C446.847 175.219 447.278 175.531 448.183 175.29C449.086 175.05 449.641 174.515 450.334 172.9C451.184 170.932 452.048 170.102 453.494 169.718C455.194 169.267 456.465 169.683 457.142 170.992L458.082 170.742L458.514 172.369L457.575 172.619C457.661 174.106 456.768 175.116 455.051 175.573L454.653 175.679L454.153 173.8L454.678 173.661C455.581 173.421 455.829 172.967 455.661 172.336C455.492 171.704 455.054 171.432 454.15 171.674C453.247 171.913 452.71 172.444 452 174.064C451.131 176.036 450.285 176.861 448.839 177.246C447.12 177.704 445.822 177.256 445.157 175.923Z" fill="black" fill-opacity="0.7"/>
</g>
<path d="M479.831 206.137L459.814 130.841L422.529 140.753L442.545 216.049L479.831 206.137Z" stroke="#263238" stroke-width="0.999963" stroke-miterlimit="10" stroke-linecap="round" stroke-linejoin="round"/>
<path d="M420.879 331.323C420.879 331.323 457.866 318.855 467.809 317.067C477.752 315.277 506.848 316.073 506.848 316.073V361.363C506.848 361.363 476.474 370.58 471.787 374.267C467.101 377.954 424.459 380.968 424.459 380.968L420.879 331.323Z" fill="#999999" stroke="#263238" stroke-miterlimit="10" stroke-linecap="round" stroke-linejoin="round"/>
<path d="M471.353 336.716C469.405 347.201 470.805 361.257 463.863 369.764" stroke="#263238" stroke-miterlimit="10" stroke-linecap="round" stroke-linejoin="round"/>
<path d="M474.575 320.844C473.823 324.265 473.111 327.698 472.428 331.134" stroke="#263238" stroke-miterlimit="10" stroke-linecap="round" stroke-linejoin="round"/>
<path d="M511.388 170.586C511.388 175.161 507.679 178.871 503.103 178.871C498.528 178.871 494.818 175.161 494.818 170.586C494.818 166.01 498.528 162.301 503.103 162.301C507.679 162.299 511.388 166.009 511.388 170.586Z" fill="#BFBFBF" stroke="#263238" stroke-miterlimit="10" stroke-linecap="round" stroke-linejoin="round"/>
<path opacity="0.5" d="M507.73 175.746C510.581 173.19 510.819 168.807 508.264 165.957C505.708 163.107 501.326 162.869 498.476 165.423C495.626 167.98 495.388 172.362 497.942 175.212C500.498 178.062 504.88 178.302 507.73 175.746ZM500.284 168.164L499.919 167.756L500.638 167.112L501.003 167.52C501.748 167.082 502.505 167.283 503.185 168.041L503.529 168.424L502.698 169.169L502.305 168.731C501.947 168.331 501.643 168.344 501.362 168.596C501.083 168.847 501.036 169.148 501.394 169.548C501.751 169.947 502.169 170.091 503.175 170.024C504.402 169.947 505.051 170.172 505.622 170.812C506.295 171.563 506.414 172.321 505.921 173.007L506.293 173.422L505.574 174.066L505.202 173.651C504.464 174.082 503.715 173.889 503.035 173.131L502.878 172.954L503.709 172.209L503.917 172.442C504.274 172.841 504.571 172.849 504.85 172.599C505.129 172.348 505.153 172.053 504.796 171.655C504.439 171.256 504.028 171.119 503.015 171.178C501.781 171.247 501.139 171.03 500.566 170.391C499.884 169.631 499.776 168.85 500.284 168.164Z" fill="black" fill-opacity="0.7"/>
<path d="M472.148 105.117C472.148 109.692 468.438 113.402 463.863 113.402C459.288 113.402 455.578 109.692 455.578 105.117C455.578 100.542 459.288 96.832 463.863 96.832C468.438 96.832 472.148 100.542 472.148 105.117Z" fill="#BFBFBF" stroke="#263238" stroke-miterlimit="10" stroke-linecap="round" stroke-linejoin="round"/>
<path opacity="0.5" d="M468.49 110.277C471.34 107.721 471.579 103.339 469.024 100.489C466.468 97.6384 462.086 97.4002 459.236 99.9547C456.386 102.511 456.147 106.893 458.702 109.743C461.258 112.595 465.64 112.833 468.49 110.277ZM461.044 102.695L460.679 102.288L461.398 101.644L461.763 102.051C462.508 101.614 463.265 101.814 463.945 102.573L464.289 102.956L463.458 103.701L463.064 103.262C462.707 102.862 462.402 102.876 462.122 103.128C461.843 103.378 461.796 103.68 462.154 104.079C462.511 104.479 462.929 104.622 463.935 104.556C465.162 104.479 465.811 104.703 466.384 105.343C467.056 106.094 467.175 106.852 466.682 107.538L467.055 107.953L466.335 108.597L465.963 108.182C465.225 108.614 464.476 108.421 463.796 107.662L463.639 107.487L464.47 106.742L464.678 106.974C465.035 107.374 465.332 107.382 465.611 107.131C465.89 106.881 465.915 106.585 465.557 106.186C465.2 105.786 464.79 105.65 463.776 105.709C462.541 105.779 461.9 105.561 461.327 104.922C460.646 104.162 460.536 103.381 461.044 102.695Z" fill="black" fill-opacity="0.7"/>
<path d="M433.684 265.2C429.24 264.109 426.522 259.621 427.614 255.177C428.706 250.733 433.194 248.017 437.638 249.108C442.082 250.2 444.798 254.688 443.706 259.131C442.616 263.575 438.128 266.292 433.684 265.2Z" fill="#BFBFBF" stroke="#263238" stroke-miterlimit="10" stroke-linecap="round" stroke-linejoin="round"/>
<path opacity="0.5" d="M429.546 260.417C431.348 263.795 435.546 265.072 438.924 263.27C442.302 261.468 443.579 257.27 441.777 253.892C439.975 250.514 435.777 249.237 432.399 251.039C429.021 252.841 427.744 257.039 429.546 260.417ZM438.686 254.995L439.168 254.737L439.622 255.589L439.14 255.847C439.387 256.674 439.012 257.362 438.113 257.842L437.659 258.084L437.134 257.1L437.654 256.822C438.128 256.57 438.187 256.27 438.01 255.94C437.834 255.608 437.552 255.492 437.078 255.744C436.605 255.996 436.365 256.367 436.19 257.361C435.973 258.57 435.599 259.146 434.842 259.55C433.952 260.025 433.188 259.959 432.639 259.316L432.147 259.579L431.693 258.727L432.185 258.464C431.942 257.646 432.309 256.964 433.207 256.484L433.415 256.373L433.94 257.358L433.666 257.504C433.192 257.756 433.114 258.041 433.29 258.372C433.467 258.704 433.747 258.798 434.221 258.544C434.694 258.292 434.923 257.926 435.109 256.928C435.337 255.712 435.7 255.142 436.457 254.738C437.356 254.257 438.14 254.337 438.686 254.995Z" fill="black" fill-opacity="0.7"/>
<path d="M533.021 338.835C530.909 335.01 524.877 336.853 517.841 347.911C510.803 358.97 507.93 371.866 509.631 376.563C511.332 381.261 534.094 386.952 534.094 386.952L538.786 375.055L533.021 338.835Z" fill="#5050D8"/>
<mask id="mask11_3288_16040" style="mask-type:luminance" maskUnits="userSpaceOnUse" x="509" y="337" width="30" height="50">
<path d="M533.021 338.835C530.909 335.01 524.877 336.853 517.841 347.911C510.803 358.97 507.93 371.866 509.631 376.563C511.332 381.261 534.094 386.952 534.094 386.952L538.786 375.055L533.021 338.835Z" fill="white"/>
</mask>
<g mask="url(#mask11_3288_16040)">
<path opacity="0.5" d="M533.021 338.835C530.909 335.01 524.877 336.853 517.841 347.911C510.803 358.97 507.93 371.866 509.631 376.563C511.332 381.261 534.094 386.952 534.094 386.952L538.786 375.055L533.021 338.835Z" fill="black" fill-opacity="0.7"/>
</g>
<path d="M533.021 338.835C530.909 335.01 524.877 336.853 517.841 347.911C510.803 358.97 507.93 371.866 509.631 376.563C511.332 381.261 534.094 386.952 534.094 386.952L538.786 375.055L533.021 338.835Z" stroke="#263238" stroke-miterlimit="10" stroke-linecap="round" stroke-linejoin="round"/>
<path d="M542.648 361.985L529.591 333.414C529.591 333.414 521.084 321.239 519.407 316.597C517.732 311.955 499.017 308.344 494.79 308.344C490.565 308.344 486.094 315.896 486.094 315.896L494.885 315.9C494.885 315.9 498.164 319.348 498.577 321.411C498.99 323.474 486.955 333.732 485.234 334.707C483.515 335.681 478.978 337.193 474.197 340.736C469.417 344.278 458.642 347.041 456.637 350.215C454.631 353.389 456.048 353.991 457.489 354.722C458.929 355.454 461.335 355.626 461.335 355.626C461.335 355.626 460.476 359.236 461.335 361.127C462.195 363.018 467.205 362.846 467.205 362.846C467.205 362.846 467.44 365.471 469.889 365.877C472.338 366.284 474.196 367.019 474.196 367.019C474.196 367.019 484.545 368.769 489.187 367.785C493.828 366.8 507.915 359.298 511.36 359.61C514.805 359.922 524.326 382.022 524.326 382.022C524.326 382.022 540.585 379.27 542.648 361.985Z" fill="white" stroke="#263238" stroke-miterlimit="10" stroke-linecap="round" stroke-linejoin="round"/>
<path d="M461.338 355.626C461.338 355.626 474.854 352.703 475.747 351.672C476.64 350.64 486.096 347.701 486.096 347.701" stroke="#263238" stroke-miterlimit="10" stroke-linecap="round" stroke-linejoin="round"/>
<path d="M467.207 362.847C467.207 362.847 474.797 361.3 477.437 360.956C480.078 360.612 490.91 355.627 490.91 355.627" stroke="#263238" stroke-miterlimit="10" stroke-linecap="round" stroke-linejoin="round"/>
<path d="M474.201 367.02C474.201 367.02 484.894 366.114 487.129 365.083C489.364 364.051 495.898 361.988 495.898 361.988" stroke="#263238" stroke-miterlimit="10" stroke-linecap="round" stroke-linejoin="round"/>
<path d="M632.188 349.394C616.322 359.851 606.739 385.108 606.739 385.108L581.973 431.175C581.973 431.175 561.147 379.9 555.246 379.244L533.021 338.834C533.021 338.834 535.65 362.517 526.386 372.569C517.124 382.623 509.631 376.563 509.631 376.563L516.548 395.664L518.27 404.74C518.27 404.74 547.485 492.383 557.035 497.807C566.585 503.233 588.315 505.666 606.739 492.173C625.162 478.681 656.684 427.66 659.668 410.969" fill="#5050D8"/>
<path d="M632.188 349.394C616.322 359.851 606.739 385.108 606.739 385.108L581.973 431.175C581.973 431.175 561.147 379.9 555.246 379.244L533.021 338.834C533.021 338.834 535.65 362.517 526.386 372.569C517.124 382.623 509.631 376.563 509.631 376.563L516.548 395.664L518.27 404.74C518.27 404.74 547.485 492.383 557.035 497.807C566.585 503.233 588.315 505.666 606.739 492.173C625.162 478.681 656.684 427.66 659.668 410.969" stroke="#263238" stroke-miterlimit="10" stroke-linecap="round" stroke-linejoin="round"/>
<path d="M546.305 385.308C547.107 384.108 547.846 382.865 548.523 381.591" stroke="#263238" stroke-miterlimit="10" stroke-linecap="round" stroke-linejoin="round"/>
<path d="M527.584 397.286C533.943 396.61 539.862 393.288 543.968 388.419" stroke="#263238" stroke-miterlimit="10" stroke-linecap="round" stroke-linejoin="round"/>
<path d="M516.549 395.665C519.014 396.704 521.656 397.292 524.33 397.396" stroke="#263238" stroke-miterlimit="10" stroke-linecap="round" stroke-linejoin="round"/>
<path d="M588.47 451.488C588.572 453.593 588.439 455.715 587.963 457.772" stroke="#263238" stroke-miterlimit="10" stroke-linecap="round" stroke-linejoin="round"/>
<path d="M581.973 431.175C584.879 436.242 587.065 441.928 588.047 447.689" stroke="#263238" stroke-miterlimit="10" stroke-linecap="round" stroke-linejoin="round"/>
<path d="M595.669 439.424C595.669 439.424 591.166 433.782 586.031 431.175" stroke="#263238" stroke-miterlimit="10" stroke-linecap="round" stroke-linejoin="round"/>
<path d="M634.82 372.565C634.82 372.565 620.886 370.701 609.828 383.448" stroke="#263238" stroke-miterlimit="10" stroke-linecap="round" stroke-linejoin="round"/>
<path d="M649.556 411.536C646.884 411.913 644.154 411.503 641.746 410.27" stroke="#263238" stroke-miterlimit="10" stroke-linecap="round" stroke-linejoin="round"/>
<path d="M666.287 392.853C664.094 403.428 658.192 408.795 653.047 410.659" stroke="#263238" stroke-miterlimit="10" stroke-linecap="round" stroke-linejoin="round"/>
<path d="M600.594 332.74C600.594 332.74 577.462 338.116 564.574 329.498" stroke="#263238" stroke-miterlimit="10" stroke-linecap="round" stroke-linejoin="round"/>
<path d="M517.637 474.292C517.637 474.292 530.241 509.881 559.395 515.913" stroke="#263238" stroke-miterlimit="10" stroke-linecap="round" stroke-linejoin="round"/>
<path d="M601.893 523.62C600.392 524.751 598.821 525.787 597.223 526.773" stroke="#263238" stroke-miterlimit="10" stroke-linecap="round" stroke-linejoin="round"/>
<path d="M441.037 92.6152V123.902" stroke="#263238" stroke-miterlimit="10" stroke-linecap="round" stroke-linejoin="round"/>
<path d="M441.037 73.8438V86.3586" stroke="#263238" stroke-miterlimit="10" stroke-linecap="round" stroke-linejoin="round"/>
<path d="M441.037 62.1494V68.8434" stroke="#263238" stroke-miterlimit="10" stroke-linecap="round" stroke-linejoin="round"/>
<path d="M435.129 120.245L441.037 127.559L446.947 120.245" stroke="#263238" stroke-miterlimit="10" stroke-linecap="round" stroke-linejoin="round"/>
<path d="M456.678 249.28V280.568" stroke="#263238" stroke-miterlimit="10" stroke-linecap="round" stroke-linejoin="round"/>
<path d="M456.678 230.509V243.024" stroke="#263238" stroke-miterlimit="10" stroke-linecap="round" stroke-linejoin="round"/>
<path d="M456.678 218.814V225.508" stroke="#263238" stroke-miterlimit="10" stroke-linecap="round" stroke-linejoin="round"/>
<path d="M450.77 276.91L456.678 284.225L462.586 276.91" stroke="#263238" stroke-miterlimit="10" stroke-linecap="round" stroke-linejoin="round"/>
<path d="M487.586 155.124V186.411" stroke="#263238" stroke-miterlimit="10" stroke-linecap="round" stroke-linejoin="round"/>
<path d="M487.586 136.351V148.865" stroke="#263238" stroke-miterlimit="10" stroke-linecap="round" stroke-linejoin="round"/>
<path d="M487.586 124.656V131.35" stroke="#263238" stroke-miterlimit="10" stroke-linecap="round" stroke-linejoin="round"/>
<path d="M481.676 182.754L487.586 190.068L493.494 182.754" stroke="#263238" stroke-miterlimit="10" stroke-linecap="round" stroke-linejoin="round"/>
<path d="M215.295 499.792C214.803 519.432 224.525 517.846 224.525 517.846C225.127 516.223 226.516 513.987 228.188 511.393C233.276 503.564 241.068 492.588 238.144 486.088C236.817 483.138 234.335 479.021 231.643 474.879C226.431 466.891 220.446 458.815 220.446 458.815L246.403 454.514C246.403 454.514 264.888 462.159 279.477 463.044C279.858 463.068 280.238 463.08 280.608 463.08C293.931 463.338 291.779 452.892 291.779 449.525C291.779 448.086 288.178 445.456 283.963 442.864C277.954 439.177 270.666 435.551 270.666 435.551L274.611 427.378C277.351 427.87 279.625 427.968 281.505 427.747C291.607 426.641 290.218 416.698 288.584 412.36C288.116 411.119 285.794 409.238 282.512 407.074C272.127 400.228 252.241 390.691 252.241 390.691H223.076L194.379 469.029C194.376 469.03 215.774 480.154 215.295 499.792Z" fill="white"/>
<path opacity="0.4" d="M215.295 499.792C214.803 519.432 224.525 517.846 224.525 517.846C225.127 516.223 226.516 513.987 228.188 511.393C233.276 503.564 241.068 492.588 238.144 486.088C236.817 483.138 234.335 479.021 231.643 474.879C226.431 466.891 220.446 458.815 220.446 458.815L246.403 454.514C246.403 454.514 264.888 462.159 279.477 463.044C279.858 463.068 280.238 463.08 280.608 463.08C293.931 463.338 291.779 452.892 291.779 449.525C291.779 448.086 288.178 445.456 283.963 442.864C277.954 439.177 270.666 435.551 270.666 435.551L274.611 427.378C277.351 427.87 279.625 427.968 281.505 427.747C291.607 426.641 290.218 416.698 288.584 412.36C288.116 411.119 285.794 409.238 282.512 407.074C272.127 400.228 252.241 390.691 252.241 390.691H223.076L194.379 469.029C194.376 469.03 215.774 480.154 215.295 499.792Z" fill="#5050D8"/>
<path opacity="0.4" d="M215.295 499.792C214.803 519.432 224.525 517.846 224.525 517.846C225.127 516.223 226.516 513.987 228.188 511.393C227.844 509.575 227.623 507.608 227.66 505.678C227.784 498.955 233.302 486.088 233.302 486.088L227.66 477.165C228.484 476.317 229.897 475.554 231.643 474.879C226.431 466.891 220.446 458.815 220.446 458.815L246.403 454.514C246.403 454.514 264.888 462.159 279.477 463.044C279.858 463.068 280.238 463.08 280.608 463.08C279.76 455.768 282.648 446.549 283.963 442.862C277.954 439.175 270.666 435.55 270.666 435.55L274.611 427.377C277.351 427.868 279.625 427.966 281.505 427.746C280.178 421.367 281.443 412.518 282.512 407.074C272.127 400.228 252.241 390.691 252.241 390.691H223.076L194.379 469.029C194.376 469.03 215.774 480.154 215.295 499.792Z" fill="#5050D8"/>
<path d="M223.068 390.691H252.24C252.24 390.691 286.636 407.195 288.58 412.355C290.525 417.516 292.109 430.527 274.605 427.383L270.662 435.55C270.662 435.55 291.775 446.047 291.775 449.522C291.775 452.997 294.054 463.918 279.469 463.041C264.882 462.163 246.407 454.511 246.407 454.511L220.449 458.812C220.449 458.812 234.253 477.435 238.142 486.088C242.031 494.74 226.959 511.309 224.528 517.854C224.528 517.854 214.804 519.431 215.29 499.792C215.775 480.154 194.383 469.029 194.383 469.029" stroke="#263238" stroke-miterlimit="10" stroke-linecap="round" stroke-linejoin="round"/>
<path d="M229.983 482.584C229.983 482.584 222.673 478.49 218.691 486.087" stroke="#263238" stroke-miterlimit="10" stroke-linecap="round" stroke-linejoin="round"/>
<path d="M319.334 490.563H174.801C167.088 490.563 160.834 484.31 160.834 476.596V205.625C160.834 197.912 167.088 191.658 174.801 191.658H319.334C327.047 191.658 333.301 197.912 333.301 205.625V476.596C333.301 484.31 327.049 490.563 319.334 490.563Z" fill="#5050D8" stroke="#263238" stroke-miterlimit="10" stroke-linecap="round" stroke-linejoin="round"/>
<path d="M327.955 203.784V479.208C327.955 482.649 325.165 485.439 321.724 485.439H172.411C168.969 485.439 166.18 482.649 166.18 479.208V203.784C166.18 200.343 168.969 197.553 172.411 197.553H205.588C207.772 197.553 209.726 198.91 210.488 200.956L211.898 204.743C212.659 206.789 214.614 208.146 216.797 208.146H277.337C279.521 208.146 281.475 206.789 282.237 204.743L283.647 200.956C284.408 198.91 286.363 197.553 288.546 197.553H321.724C325.165 197.553 327.955 200.343 327.955 203.784Z" fill="#263238"/>
<path d="M268.936 417.419H225.197C217.007 417.419 210.367 410.779 210.367 402.589C210.367 394.4 217.007 387.76 225.197 387.76H268.936C277.126 387.76 283.766 394.4 283.766 402.589C283.766 410.779 277.126 417.419 268.936 417.419Z" fill="#5050D8" stroke="#263238" stroke-miterlimit="10" stroke-linecap="round" stroke-linejoin="round"/>
<path d="M232.787 200.658C232.787 202.082 231.634 203.235 230.21 203.235C228.786 203.235 227.633 202.082 227.633 200.658C227.633 199.235 228.786 198.081 230.21 198.081C231.632 198.081 232.787 199.235 232.787 200.658Z" fill="white" stroke="#263238" stroke-miterlimit="10" stroke-linecap="round" stroke-linejoin="round"/>
<path d="M266.505 200.659C266.505 201.551 265.781 202.274 264.888 202.274C263.995 202.274 263.271 201.55 263.271 200.659C263.271 199.766 263.995 199.042 264.888 199.042C265.781 199.042 266.505 199.766 266.505 200.659Z" fill="white" stroke="#263238" stroke-miterlimit="10" stroke-linecap="round" stroke-linejoin="round"/>
<path d="M257.327 201.569H238C237.497 201.569 237.088 201.161 237.088 200.658C237.088 200.155 237.497 199.746 238 199.746H257.327C257.83 199.746 258.238 200.155 258.238 200.658C258.238 201.162 257.83 201.569 257.327 201.569Z" fill="white" stroke="#263238" stroke-miterlimit="10" stroke-linecap="round" stroke-linejoin="round"/>
<path d="M301.139 372.611H192.994C182.595 372.611 174.164 364.179 174.164 353.78V242.619C174.164 232.22 182.595 223.789 192.994 223.789H301.139C311.538 223.789 319.97 232.22 319.97 242.619V353.78C319.97 364.181 311.54 372.611 301.139 372.611Z" fill="white" stroke="#263238" stroke-miterlimit="10" stroke-linecap="round" stroke-linejoin="round"/>
<path d="M232.354 286.756V264.388" stroke="#263238" stroke-miterlimit="10" stroke-linecap="round" stroke-linejoin="round"/>
<path d="M232.354 300.177V291.229" stroke="#263238" stroke-miterlimit="10" stroke-linecap="round" stroke-linejoin="round"/>
<path d="M232.354 308.537V303.751" stroke="#263238" stroke-miterlimit="10" stroke-linecap="round" stroke-linejoin="round"/>
<path d="M236.578 267.001L232.353 261.772L228.129 267.001" stroke="#263238" stroke-miterlimit="10" stroke-linecap="round" stroke-linejoin="round"/>
<path d="M261.781 278.46V256.092" stroke="#263238" stroke-miterlimit="10" stroke-linecap="round" stroke-linejoin="round"/>
<path d="M261.781 291.882V282.935" stroke="#263238" stroke-miterlimit="10" stroke-linecap="round" stroke-linejoin="round"/>
<path d="M261.781 300.242V295.457" stroke="#263238" stroke-miterlimit="10" stroke-linecap="round" stroke-linejoin="round"/>
<path d="M266.004 258.707L261.781 253.479L257.557 258.707" stroke="#263238" stroke-miterlimit="10" stroke-linecap="round" stroke-linejoin="round"/>
<path d="M246.396 263.439V241.071" stroke="#263238" stroke-miterlimit="10" stroke-linecap="round" stroke-linejoin="round"/>
<path d="M246.396 276.86V267.913" stroke="#263238" stroke-miterlimit="10" stroke-linecap="round" stroke-linejoin="round"/>
<path d="M246.396 285.22V280.436" stroke="#263238" stroke-miterlimit="10" stroke-linecap="round" stroke-linejoin="round"/>
<path d="M250.62 243.686L246.396 238.456L242.172 243.686" stroke="#263238" stroke-miterlimit="10" stroke-linecap="round" stroke-linejoin="round"/>
<path d="M269.833 300.172C272.782 287.592 264.974 275.004 252.394 272.055C239.815 269.107 227.227 276.914 224.278 289.494C221.33 302.074 229.137 314.662 241.717 317.61C254.297 320.559 266.885 312.751 269.833 300.172Z" fill="#5050D8" stroke="#263238" stroke-miterlimit="10" stroke-linecap="round" stroke-linejoin="round"/>
<path d="M245.436 282.414V280.532H248.693V282.414C251.516 282.993 252.964 285.165 252.964 288.603V289.399H249.2V288.35C249.2 286.54 248.476 285.852 247.209 285.852C245.942 285.852 245.219 286.54 245.219 288.35C245.219 290.159 245.942 291.426 248.621 293.561C251.878 296.167 253 298.158 253 301.053C253 304.491 251.516 306.701 248.693 307.278V309.124H245.436V307.278C242.577 306.699 241.129 304.491 241.129 301.053V299.316H244.894V301.306C244.894 303.116 245.691 303.767 246.957 303.767C248.224 303.767 249.02 303.116 249.02 301.306C249.02 299.497 248.296 298.194 245.618 296.095C242.361 293.525 241.239 291.498 241.239 288.602C241.237 285.201 242.649 283.028 245.436 282.414Z" fill="#263238"/>
<path d="M228.838 332.617V331.902H230.074V332.617C231.147 332.837 231.695 333.661 231.695 334.967V335.27H230.267V334.872C230.267 334.184 229.993 333.925 229.512 333.925C229.031 333.925 228.755 334.185 228.755 334.872C228.755 335.559 229.031 336.039 230.047 336.85C231.284 337.839 231.709 338.595 231.709 339.694C231.709 341 231.147 341.837 230.074 342.057V342.758H228.838V342.057C227.754 341.839 227.203 341 227.203 339.694V339.035H228.633V339.791C228.633 340.478 228.934 340.724 229.415 340.724C229.896 340.724 230.198 340.477 230.198 339.791C230.198 339.105 229.924 338.608 228.907 337.812C227.671 336.838 227.245 336.067 227.245 334.968C227.244 333.674 227.781 332.849 228.838 332.617Z" fill="#263238"/>
<path d="M233.664 333.73C234.831 333.73 235.092 333.166 235.326 332.522H236.342V342.137H234.831V334.803H233.664V333.73Z" fill="#263238"/>
<path d="M238.051 334.828C238.051 333.29 238.862 332.409 240.344 332.409C241.827 332.409 242.638 333.288 242.638 334.828V339.829C242.638 341.367 241.827 342.246 240.344 342.246C238.862 342.246 238.051 341.367 238.051 339.829V334.828ZM239.562 339.925C239.562 340.611 239.863 340.874 240.344 340.874C240.825 340.874 241.127 340.613 241.127 339.925V334.733C241.127 334.045 240.825 333.786 240.344 333.786C239.863 333.786 239.562 334.047 239.562 334.733V339.925Z" fill="#263238"/>
<path d="M243.494 334.828C243.494 333.29 244.305 332.409 245.788 332.409C247.272 332.409 248.081 333.288 248.081 334.828V339.829C248.081 341.367 247.27 342.246 245.788 342.246C244.304 342.246 243.494 341.367 243.494 339.829V334.828ZM245.005 339.925C245.005 340.611 245.307 340.874 245.788 340.874C246.269 340.874 246.57 340.613 246.57 339.925V334.733C246.57 334.045 246.269 333.786 245.788 333.786C245.307 333.786 245.005 334.047 245.005 334.733V339.925Z" fill="#263238"/>
<path d="M248.938 334.828C248.938 333.29 249.749 332.409 251.231 332.409C252.714 332.409 253.525 333.288 253.525 334.828V339.829C253.525 341.367 252.714 342.246 251.231 342.246C249.749 342.246 248.938 341.367 248.938 339.829V334.828ZM250.45 339.925C250.45 340.611 250.752 340.874 251.233 340.874C251.714 340.874 252.015 340.613 252.015 339.925V334.733C252.015 334.045 251.714 333.786 251.233 333.786C250.752 333.786 250.45 334.047 250.45 334.733V339.925Z" fill="#263238"/>
<path d="M255.963 340.681V342.137H254.506V340.681H255.963Z" fill="#263238"/>
<path d="M256.938 334.828C256.938 333.29 257.749 332.409 259.231 332.409C260.714 332.409 261.525 333.288 261.525 334.828V339.829C261.525 341.367 260.714 342.246 259.231 342.246C257.749 342.246 256.938 341.367 256.938 339.829V334.828ZM258.45 339.925C258.45 340.611 258.752 340.874 259.233 340.874C259.714 340.874 260.015 340.613 260.015 339.925V334.733C260.015 334.045 259.714 333.786 259.233 333.786C258.752 333.786 258.45 334.047 258.45 334.733V339.925Z" fill="#263238"/>
<path d="M262.383 334.828C262.383 333.29 263.194 332.409 264.676 332.409C266.16 332.409 266.97 333.288 266.97 334.828V339.829C266.97 341.367 266.159 342.246 264.676 342.246C263.193 342.246 262.383 341.367 262.383 339.829V334.828ZM263.894 339.925C263.894 340.611 264.195 340.874 264.676 340.874C265.158 340.874 265.459 340.613 265.459 339.925V334.733C265.459 334.045 265.158 333.786 264.676 333.786C264.195 333.786 263.894 334.047 263.894 334.733V339.925Z" fill="#263238"/>
<path d="M220.521 351.036H222.032V360.651H220.521V351.036Z" fill="#263238"/>
<path d="M223.133 351.036H225.523C227.034 351.036 227.776 351.875 227.776 353.413V358.276C227.776 359.816 227.034 360.653 225.523 360.653H223.133V351.036ZM224.644 352.408V359.277H225.496C225.977 359.277 226.265 359.03 226.265 358.344V353.343C226.265 352.656 225.977 352.408 225.496 352.408H224.644Z" fill="#263238"/>
<path d="M230.06 359.194V360.651H228.604V359.194H230.06Z" fill="#263238"/>
<path d="M233.372 352.298C232.891 352.298 232.59 352.559 232.59 353.245V354.275H231.16V353.342C231.16 351.804 231.929 350.923 233.413 350.923C234.897 350.923 235.666 351.802 235.666 353.342C235.666 354.619 235.199 355.649 233.798 357.146C232.905 358.108 232.658 358.561 232.658 359.069C232.658 359.137 232.658 359.206 232.671 359.274H235.529V360.648H231.16V359.467C231.16 358.395 231.545 357.585 232.671 356.403C233.826 355.18 234.155 354.424 234.155 353.394C234.155 352.532 233.853 352.298 233.372 352.298Z" fill="#263238"/>
<path d="M237.541 352.244C238.708 352.244 238.969 351.68 239.203 351.036H240.219V360.651H238.708V353.316H237.541V352.244Z" fill="#263238"/>
<path d="M244.22 360.761C242.696 360.761 241.857 359.881 241.857 358.343V357.588C241.857 356.668 242.132 355.967 242.792 355.596V355.567C242.161 355.225 241.857 354.593 241.857 353.644V353.343C241.857 351.805 242.696 350.924 244.22 350.924C245.745 350.924 246.583 351.803 246.583 353.343V353.644C246.583 354.593 246.267 355.225 245.649 355.567V355.596C246.309 355.967 246.583 356.666 246.583 357.588V358.343C246.583 359.881 245.745 360.761 244.22 360.761ZM243.368 353.932C243.368 354.701 243.726 354.949 244.22 354.949C244.702 354.949 245.072 354.701 245.072 353.932V353.397C245.072 352.531 244.702 352.298 244.22 352.298C243.739 352.298 243.368 352.531 243.368 353.397V353.932ZM244.22 359.387C244.702 359.387 245.059 359.153 245.072 358.301V357.408C245.072 356.653 244.757 356.322 244.22 356.322C243.685 356.322 243.368 356.653 243.368 357.408V358.301C243.368 359.153 243.739 359.387 244.22 359.387Z" fill="#263238"/>
<path d="M248.428 352.244C249.595 352.244 249.856 351.68 250.09 351.036H251.106V360.651H249.595V353.316H248.428V352.244Z" fill="#263238"/>
<path d="M257.375 358.26C257.375 359.881 256.633 360.761 255.068 360.761C253.584 360.761 252.815 359.881 252.815 358.343V358.096H254.244V358.44C254.244 359.127 254.546 359.388 255.027 359.388C255.562 359.388 255.865 359.127 255.865 358.206V356.461H255.838C255.577 357.01 255.137 357.3 254.464 357.3C253.352 357.3 252.789 356.515 252.789 355.101V353.343C252.789 351.805 253.6 350.924 255.083 350.924C256.565 350.924 257.376 351.803 257.376 353.343V358.26H257.375ZM255.864 354.977V353.246C255.864 352.558 255.562 352.313 255.081 352.313C254.6 352.313 254.297 352.56 254.297 353.246V354.977C254.297 355.665 254.6 355.924 255.081 355.924C255.562 355.924 255.864 355.663 255.864 354.977Z" fill="#263238"/>
<path d="M259.743 357.546V358.438C259.743 359.126 260.046 359.373 260.527 359.373C261.008 359.373 261.309 359.126 261.309 358.438V356.323C261.309 355.635 261.008 355.376 260.527 355.376C260.046 355.376 259.743 355.637 259.743 356.323V356.611H258.314L258.589 351.034H262.573V352.408H259.936L259.812 354.702H259.841C260.115 354.248 260.54 354 261.145 354C262.258 354 262.82 354.785 262.82 356.198V358.34C262.82 359.879 262.051 360.758 260.567 360.758C259.084 360.758 258.314 359.879 258.314 358.34V357.544L259.743 357.546Z" fill="#263238"/>
<path d="M263.73 353.425C263.73 351.804 264.472 350.925 266.037 350.925C267.521 350.925 268.29 351.804 268.29 353.344V353.591H266.861V353.247C266.861 352.559 266.559 352.3 266.078 352.3C265.543 352.3 265.24 352.561 265.24 353.481V355.226H265.267C265.528 354.677 265.968 354.387 266.64 354.387C267.753 354.387 268.316 355.17 268.316 356.584V358.343C268.316 359.881 267.505 360.76 266.022 360.76C264.54 360.76 263.729 359.881 263.729 358.343L263.73 353.425ZM265.241 356.709V358.441C265.241 359.128 265.543 359.376 266.024 359.376C266.505 359.376 266.808 359.128 266.808 358.441V356.709C266.808 356.023 266.505 355.761 266.024 355.761C265.543 355.761 265.241 356.022 265.241 356.709Z" fill="#263238"/>
<path d="M273.705 351.036V352.354L271.481 360.651H269.97L272.18 352.408H269.172V351.034L273.705 351.036Z" fill="#263238"/>
<path d="M245.152 344.549H246.921V345.069H246.324V348.189H245.751V345.069H245.154V344.549H245.152Z" fill="#263238"/>
<path d="M247.125 345.423C247.125 344.841 247.433 344.508 247.994 344.508C248.555 344.508 248.862 344.841 248.862 345.423V347.316C248.862 347.898 248.555 348.231 247.994 348.231C247.433 348.231 247.125 347.898 247.125 347.316V345.423ZM247.698 347.352C247.698 347.611 247.811 347.711 247.994 347.711C248.176 347.711 248.289 347.613 248.289 347.352V345.385C248.289 345.126 248.176 345.027 247.994 345.027C247.811 345.027 247.698 345.125 247.698 345.385V347.352Z" fill="#263238"/>
<path d="M234.957 394.638C237.116 394.638 238.226 395.929 238.226 398.189V398.632H236.127V398.047C236.127 397.038 235.723 396.655 235.017 396.655C234.31 396.655 233.907 397.038 233.907 398.047C233.907 399.077 234.35 399.843 235.804 401.115C237.66 402.749 238.247 403.919 238.247 405.535C238.247 407.795 237.118 409.086 234.937 409.086C232.758 409.086 231.627 407.795 231.627 405.535V404.667H233.726V405.676C233.726 406.685 234.171 407.049 234.877 407.049C235.582 407.049 236.027 406.685 236.027 405.676C236.027 404.646 235.584 403.88 234.13 402.609C232.274 400.974 231.689 399.804 231.689 398.189C231.687 395.93 232.797 394.638 234.957 394.638Z" fill="#263238"/>
<path d="M241.733 400.753H244.779V402.772H241.733V406.909H245.566V408.926H239.512V394.801H245.566V396.819H241.733V400.753Z" fill="#263238"/>
<path d="M248.955 398.694H248.914V408.924H246.916V394.799H249.701L251.941 403.254H251.981V394.799H253.958V408.924H251.678L248.955 398.694Z" fill="#263238"/>
<path d="M255.551 394.801H259.063C261.283 394.801 262.373 396.031 262.373 398.29V405.434C262.373 407.694 261.283 408.925 259.063 408.925H255.551V394.801ZM257.771 396.817V406.907H259.022C259.728 406.907 260.153 406.544 260.153 405.535V398.189C260.153 397.18 259.729 396.817 259.022 396.817H257.771Z" fill="#263238"/>
<path d="M147.707 366.408C147.707 366.408 157.431 369.414 160.834 377.864" stroke="#263238" stroke-miterlimit="10" stroke-linecap="round" stroke-linejoin="round"/>
<path d="M103.643 634.28C104.728 615.492 105.442 596.3 106.38 580.847C108.325 548.808 109.783 527.315 112.7 505.435C115.618 483.555 115.131 450.508 116.589 438.962C118.047 427.417 122.395 424.977 125.827 411.265C129.259 397.553 132.344 370.247 137.981 366.408C143.618 362.569 160.833 355.36 160.833 355.36V432.707C171.044 448.404 183.199 452.289 183.199 452.289C190.978 429.773 190.006 420.836 197.786 412.569C205.565 404.304 211.169 393.499 223.384 398.014C229.2 400.163 232.307 402.36 229.389 422.077C226.471 441.794 220.638 447.991 220.638 447.991C219.665 454.725 221.123 474.317 223.554 484.34C225.985 494.362 216.747 520.993 212.371 538.009C207.995 555.027 184.657 589.511 184.657 589.511C184.657 589.511 183.684 608.508 185.63 628.443C185.807 630.273 186.032 632.232 186.292 634.277L187.834 687.23L103.643 685.642V634.28Z" fill="white"/>
<path opacity="0.4" d="M227.659 403.819C227.191 402.134 227.265 401.029 227.659 400.316C226.515 399.259 225.065 398.631 223.382 398.018C211.166 393.495 205.562 404.311 197.781 412.57C197.055 413.343 196.404 414.119 195.826 414.918C202.869 412.264 212.099 412.312 215.81 417.462C220.48 423.913 229.993 412.25 227.659 403.819Z" fill="#5050D8"/>
<path opacity="0.4" d="M174.898 615.308L171.051 629.724C171.051 629.724 176.471 624.415 184.57 611.535C184.176 598.963 184.656 589.511 184.656 589.511C184.656 589.511 207.995 555.024 212.37 538.014C216.745 520.992 225.987 494.359 223.555 484.343C221.121 474.313 219.672 454.722 220.641 447.988C220.641 447.988 221.858 446.685 223.467 443.379C222.41 442.358 221.181 441.523 219.804 441.217C219.804 441.217 213.561 456.001 215.072 475.457C216.583 494.9 213.254 496.523 206.813 521.804C200.372 547.086 189.681 575.709 184.653 580.847C179.628 585.983 177.454 609.115 174.898 615.308Z" fill="#5050D8"/>
<path opacity="0.4" d="M165.691 444.978C165.691 444.978 158.022 446.171 154.938 447.989C154.938 447.989 169.908 451.898 170.879 456.065C171.85 460.219 175.058 464.558 180.747 459.47C180.747 459.47 181.043 456.286 181.633 451.666C178.019 450.055 168.839 445.005 160.837 432.715V355.36C160.837 355.36 152.332 358.924 145.315 362.365C150.513 363.053 155.835 364.651 157.913 368.166C157.913 368.166 156.34 374.643 149.162 377.863C143.632 380.345 149.162 422.083 149.162 422.083C149.162 422.083 140.092 424.32 137.18 432.715C137.18 432.715 152.088 434.239 158.245 438.97C164.402 443.688 165.691 444.978 165.691 444.978Z" fill="#5050D8"/>
<path opacity="0.4" d="M106.379 580.847C105.617 593.359 105.014 608.327 104.24 623.555C106.157 594.612 111.97 544.936 111.97 544.936C111.97 544.936 117.168 563.309 117.562 561.355C118.717 555.603 115.128 523.095 115.448 511.518C115.595 506.271 115.214 492.813 114.746 479.688C114.329 488.708 113.727 497.753 112.694 505.435C109.784 527.31 108.321 548.807 106.379 580.847Z" fill="#5050D8"/>
<path d="M103.643 689.224V634.28C104.728 615.492 105.442 596.3 106.38 580.847C108.325 548.808 109.783 527.315 112.7 505.435C115.618 483.555 115.131 450.508 116.589 438.962C118.047 427.417 122.395 424.977 125.827 411.265C129.259 397.553 132.344 370.247 137.981 366.408C143.618 362.569 160.833 355.36 160.833 355.36V432.707C171.044 448.404 183.199 452.289 183.199 452.289C190.978 429.773 190.006 420.836 197.786 412.569C205.565 404.304 211.169 393.499 223.384 398.014C229.2 400.163 232.307 402.36 229.389 422.077C226.471 441.794 220.638 447.991 220.638 447.991C219.665 454.725 221.123 474.317 223.554 484.34C225.985 494.362 216.747 520.993 212.371 538.009C207.995 555.027 184.657 589.511 184.657 589.511C184.657 589.511 183.684 608.508 185.63 628.443C185.807 630.273 186.032 632.232 186.292 634.277C186.292 634.277 187.076 668.466 190.802 689.221" stroke="#263238" stroke-miterlimit="10" stroke-linecap="round" stroke-linejoin="round"/>
<path d="M183.199 452.289C183.199 452.289 180.768 463.136 175.906 465.567C171.044 467.998 164.049 465.567 164.049 465.567" stroke="#263238" stroke-miterlimit="10" stroke-linecap="round" stroke-linejoin="round"/>
<path d="M160.834 432.707C160.834 432.707 155.972 421.901 140.414 431.273" stroke="#263238" stroke-miterlimit="10" stroke-linecap="round" stroke-linejoin="round"/>
<path d="M160.833 389.042C160.833 389.042 159.86 383.31 151.838 381.852" stroke="#263238" stroke-miterlimit="10" stroke-linecap="round" stroke-linejoin="round"/>
<path d="M184.658 589.512C175.42 601.217 177.176 612.4 173.623 618.235C170.071 624.069 170.558 644.976 170.558 644.976" stroke="#263238" stroke-miterlimit="10" stroke-linecap="round" stroke-linejoin="round"/>
<path d="M117.561 477.163C117.561 477.163 117.561 500.125 117.561 517.853C117.561 535.582 120.964 552.599 120.964 552.599" stroke="#263238" stroke-miterlimit="10" stroke-linecap="round" stroke-linejoin="round"/>
<path d="M220.639 447.991C220.639 447.991 220.639 441.045 218.693 438.963" stroke="#263238" stroke-miterlimit="10" stroke-linecap="round" stroke-linejoin="round"/>
<path d="M215.288 426.149C215.288 426.149 210.981 411.649 198.34 417.971" stroke="#263238" stroke-miterlimit="10" stroke-linecap="round" stroke-linejoin="round"/>
<path d="M176.332 448.709C166.945 448.909 157.43 444.747 151.838 449.81" stroke="#263238" stroke-miterlimit="10" stroke-linecap="round" stroke-linejoin="round"/>
<path d="M102.279 673.315H99.7441V615.646H102.279C103.926 615.646 105.262 616.981 105.262 618.629V670.333C105.262 671.979 103.927 673.315 102.279 673.315Z" fill="#263238"/>
<path d="M99.7441 623.119C99.7441 623.119 144.319 611.466 187.101 624.747C188.46 625.17 189.378 626.445 189.378 627.867V655.228C189.378 656.251 188.46 657.026 187.452 656.845C178.27 655.191 137.883 648.81 101.95 657.208L99.7441 623.119Z" fill="#263238"/>
<path d="M101.683 622.606V616.442C101.683 614.41 100.036 612.764 98.0032 612.764H93.0056C91.745 612.764 90.5838 613.451 89.9776 614.558L85.5742 622.606V669.736L89.9248 675.037C90.5808 675.836 91.5595 676.299 92.5925 676.299H98.0032C100.034 676.299 101.683 674.652 101.683 672.621V622.606Z" fill="#5050D8" stroke="#263238" stroke-miterlimit="10" stroke-linecap="round" stroke-linejoin="round"/>
<path d="M98.5209 619.568L108.697 617.675C109.903 617.451 111.018 618.377 111.018 619.606V625.479L107.649 627.976V647.066H111.018V657.024C111.018 658.173 110.211 659.163 109.086 659.397L99.4227 661.398C97.9735 661.698 96.6133 660.592 96.6133 659.111V621.863C96.6118 620.74 97.414 619.773 98.5209 619.568Z" fill="#5050D8" stroke="#263238" stroke-miterlimit="10" stroke-linecap="round" stroke-linejoin="round"/>
<path d="M98.8965 658.798L107.186 656.903C107.804 656.761 108.243 656.212 108.243 655.577V649.354" stroke="#263238" stroke-miterlimit="10" stroke-linecap="round" stroke-linejoin="round"/>
<path d="M104.863 646.767V626.335L108.194 623.8V619.972" stroke="#263238" stroke-miterlimit="10" stroke-linecap="round" stroke-linejoin="round"/>
<path d="M91.3906 616.493V671.078" stroke="#263238" stroke-miterlimit="10" stroke-linecap="round" stroke-linejoin="round"/>
<path d="M131.659 637.8C130.836 637.8 130.168 637.132 130.168 636.308V633.048C130.168 632.225 130.836 631.557 131.659 631.557C132.483 631.557 133.151 632.225 133.151 633.048V636.308C133.151 637.132 132.483 637.8 131.659 637.8Z" fill="white"/>
<path d="M154.626 638.405C153.803 638.405 153.135 637.737 153.135 636.914V633.653C153.135 632.83 153.803 632.162 154.626 632.162C155.45 632.162 156.118 632.83 156.118 633.653V636.914C156.118 637.739 155.451 638.405 154.626 638.405Z" fill="white"/>
<path d="M175.06 640.921C174.236 640.921 173.568 640.253 173.568 639.43V636.168C173.568 635.345 174.236 634.677 175.06 634.677C175.883 634.677 176.551 635.345 176.551 636.168V639.43C176.551 640.255 175.883 640.921 175.06 640.921Z" fill="white"/>
</svg>
