<svg width="732" height="753" viewBox="0 0 732 753" fill="none" xmlns="http://www.w3.org/2000/svg">
<g clip-path="url(#clip0_467_22775)">
<path d="M701.014 419.458C678.814 478.923 633.45 543.283 569.615 562.338C473.162 591.138 461.639 668.886 288.881 661.675C261.945 660.553 237.05 656.766 214.178 650.721C201.883 647.472 190.17 643.553 179.055 639.038C78.132 598.159 25.4847 508.19 21.1145 414.053C15.3464 290.244 101.732 231.23 157.875 196.675C214.019 162.121 281.685 28.2302 451.573 33.9847C477.475 34.8729 503.317 38.4137 528.359 45.2012C585.523 60.6718 643.632 94.8913 677.401 144.916C679.936 148.674 682.354 152.521 684.669 156.439C729.859 233.109 731.286 338.39 701.014 419.458Z" fill="#5050D8"/>
<path opacity="0.7" d="M701.014 419.458C678.814 478.923 633.45 543.283 569.615 562.338C473.162 591.138 461.639 668.886 288.881 661.675C261.945 660.553 237.05 656.766 214.178 650.721C201.883 647.472 190.17 643.553 179.055 639.038C78.132 598.159 25.4847 508.19 21.1145 414.053C15.3464 290.244 101.732 231.23 157.875 196.675C214.019 162.121 281.685 28.2302 451.573 33.9847C477.475 34.8729 503.317 38.4137 528.359 45.2012C585.523 60.6718 643.632 94.8913 677.401 144.916C679.936 148.674 682.354 152.521 684.669 156.439C729.859 233.109 731.286 338.39 701.014 419.458Z" fill="white"/>
<path d="M544.984 354.368C544.984 354.368 547.261 331.6 538.154 321.355C529.047 311.109 515.386 323.632 518.802 337.291C522.216 350.952 544.984 354.368 544.984 354.368Z" fill="#5050D8"/>
<path d="M518.825 455.823C518.825 455.823 522.373 420.338 508.18 404.37C493.985 388.402 472.695 407.918 478.017 429.21C483.34 450.5 518.825 455.823 518.825 455.823Z" fill="#5050D8"/>
<path d="M511.14 513.327C511.14 513.327 507.237 477.879 490.034 465.209C472.831 452.538 456.06 476.054 465.692 495.774C475.324 515.496 511.14 513.327 511.14 513.327Z" fill="#5050D8"/>
<path d="M547.263 543.014C526.283 547.052 507.512 577.373 507.512 577.373C507.512 577.373 538.913 594.736 556.09 581.077C573.267 567.419 568.242 538.977 547.263 543.014Z" fill="#5050D8"/>
<path d="M554.206 596.435C524.192 602.212 497.336 645.591 497.336 645.591C497.336 645.591 542.259 670.431 566.834 650.89C591.408 631.348 584.219 590.658 554.206 596.435Z" fill="#5050D8"/>
<path d="M505.174 577.858C506.124 577.837 506.662 577.805 506.662 577.805C506.662 577.805 506.475 576.113 506.006 573.338C508.41 559.894 510.826 542.985 513.71 522.788C514.102 520.047 514.505 517.225 514.914 514.369C523.098 518.251 546.558 527.741 560.565 516.601C577.743 502.942 572.718 474.499 551.738 478.538C536.566 481.459 522.553 498.119 515.956 507.123C517.806 494.299 519.837 480.519 522.118 466.079C522.501 463.649 522.938 461.105 523.42 458.468C531.485 464.423 551.235 476.902 566.49 469.297C586.131 459.505 587.127 430.639 565.767 430.229C550.383 429.933 533.29 443.21 524.927 450.662C527.996 435.463 532.268 417.9 536.807 400.556C541.712 404.243 554.781 412.79 564.82 407.787C577.422 401.505 578.06 382.983 564.355 382.721C554.386 382.529 543.323 391.203 538.018 395.957C541.675 382.155 545.448 368.647 548.863 356.735C554.506 360.733 566.321 367.62 575.566 363.01C588.168 356.728 588.806 338.206 575.101 337.944C566.394 337.776 556.847 344.38 551.03 349.222C556.049 331.93 559.956 319.177 560.977 315.867C566.071 312.498 581.453 301.939 584.019 295.61C587.105 288.005 583.44 279.338 575.834 276.253C568.229 273.168 559.563 276.832 556.477 284.439C554.013 290.511 557.302 307.598 558.727 314.241L557.816 313.958C557.691 314.362 552.569 330.888 545.982 353.794C545.74 354.036 545.571 354.208 545.571 354.208C545.571 354.208 545.656 354.28 545.805 354.405C542.251 366.772 538.285 380.955 534.448 395.448C534.664 388.576 534.245 373.821 527.406 366.127C518.299 355.882 504.638 368.404 508.054 382.063C511.108 394.28 529.626 398.3 533.51 399.013C528.398 418.515 523.607 438.34 520.456 454.853C519.996 455.312 519.742 455.574 519.742 455.574C519.742 455.574 519.925 455.731 520.24 455.99C519.616 459.314 519.058 462.503 518.581 465.515C515.338 486.058 512.588 505.3 510.165 522.276C507.893 538.188 505.913 552.048 504.002 563.765C501.17 552.407 495.658 537.121 485.558 529.68C468.354 517.01 451.584 540.526 461.215 560.246C468.587 575.338 491.279 577.607 501.532 577.843C501.143 579.863 500.754 581.792 500.362 583.624C498.793 590.944 496.353 611.08 493.934 633.201C490.552 616.915 482.618 589.653 465.931 577.362C441.32 559.235 417.328 592.877 431.107 621.089C442.676 644.778 480.647 646.389 492.529 646.297C489.264 677.168 486.367 707.799 486.147 710.145L489.712 710.482C489.813 709.41 499.881 602.972 503.865 584.378C504.302 582.327 504.739 580.144 505.174 577.858Z" fill="#5050D8"/>
<path d="M211.327 240.191C211.327 240.191 201.822 219.578 189.393 216.889C176.963 214.2 172.205 233.605 181.755 242.864C191.305 252.123 211.327 240.191 211.327 240.191Z" fill="#5050D8"/>
<path d="M240.792 342.456C240.792 342.456 225.979 310.329 206.606 306.139C187.233 301.949 179.816 332.192 194.702 346.624C209.586 361.055 240.792 342.456 240.792 342.456Z" fill="#5050D8"/>
<path d="M263.242 395.777C263.242 395.777 242.451 368.526 222.298 369.065C202.145 369.601 200.358 400.267 217.928 410.577C235.498 420.885 263.242 395.777 263.242 395.777Z" fill="#5050D8"/>
<path d="M307.092 397.239C292.22 414.273 292.211 451.959 292.211 451.959C292.211 451.959 326.126 446.134 333.149 423.487C340.17 400.838 321.964 380.204 307.092 397.239Z" fill="#5050D8"/>
<path d="M339.277 437.617C318 461.986 317.988 515.902 317.988 515.902C317.988 515.902 366.508 507.567 376.554 475.168C386.599 442.767 360.553 413.246 339.277 437.617Z" fill="#5050D8"/>
<path d="M290.571 453.884C291.325 453.249 291.742 452.87 291.742 452.87C291.742 452.87 290.75 451.57 288.99 449.544C284.23 436.683 277.756 420.904 270.021 402.057C268.972 399.498 267.89 396.865 266.799 394.198C275.317 392.14 298.922 384.859 304.648 366.391C311.669 343.744 293.465 323.108 278.591 340.143C267.836 352.462 264.855 375.573 264.028 387.429C259.132 375.449 253.905 362.548 248.549 348.931C247.648 346.641 246.733 344.219 245.809 341.688C255.264 341.449 277.371 339.093 285.86 322.784C296.79 301.785 283.218 276.881 265.824 290.425C253.297 300.179 246.153 322.449 243.133 334.151C238.035 319.384 232.728 301.845 227.746 284.321C233.529 284.229 248.303 282.916 253.889 272.183C260.901 258.711 252.194 242.73 241.033 251.421C232.915 257.743 228.331 272.224 226.429 279.667C222.501 265.693 218.809 251.887 215.628 239.657C222.159 239.348 235.096 237.452 240.241 227.569C247.253 214.096 238.546 198.116 227.387 206.807C220.296 212.328 215.901 224.084 213.633 231.936C209.062 214.142 205.856 200.885 205.028 197.439C207.45 191.297 214.57 172.421 213.485 165.435C212.18 157.038 204.916 152.137 197.26 154.49C189.604 156.842 184.454 165.557 185.759 173.953C186.801 180.658 197.954 192.879 202.408 197.536L201.534 197.89C201.635 198.312 205.741 215.529 211.846 239.061C211.772 239.422 211.722 239.675 211.722 239.675C211.722 239.675 211.826 239.681 212.008 239.689C215.306 252.392 219.176 266.89 223.306 281.563C220.058 275.648 212.373 263.521 203.039 261.502C190.608 258.813 185.851 278.218 195.401 287.477C203.941 295.758 220.844 287.096 224.326 285.17C229.922 304.881 235.937 324.657 241.624 340.583C241.482 341.266 241.41 341.652 241.41 341.652C241.41 341.652 241.636 341.666 242.018 341.679C243.17 344.879 244.308 347.921 245.426 350.762C253.044 370.135 260.414 388.091 266.916 403.934C273.01 418.782 278.318 431.719 282.614 442.806C274.679 435.103 262.632 425.841 250.8 426.156C230.647 426.693 228.86 457.358 246.43 467.668C259.877 475.558 279.268 462.711 287.636 456.244C288.33 458.195 288.977 460.068 289.572 461.864C291.955 469.034 300.018 487.544 309.086 507.704C298.255 496.218 278.297 478.465 258.746 478.987C229.916 479.756 227.358 523.627 252.494 538.377C273.6 550.762 304.959 527.426 314.474 519.623C327.22 547.689 340.139 575.312 341.129 577.428L344.165 575.392C343.713 574.426 298.816 478.435 292.765 460.219C292.095 458.207 291.359 456.088 290.571 453.884Z" fill="#5050D8"/>
<path d="M175.01 503.735C175.01 503.735 164.667 494.098 156.867 495.483C149.068 496.867 150.908 509.175 158.597 512.256C166.288 515.34 175.01 503.735 175.01 503.735Z" fill="#5050D8"/>
<path d="M216.137 555.718C216.137 555.718 200.015 540.698 187.86 542.858C175.706 545.017 178.571 564.198 190.557 569.002C202.542 573.807 216.137 555.718 216.137 555.718Z" fill="#5050D8"/>
<path d="M241.663 581.149C241.663 581.149 223.247 570.351 211.759 575.418C200.271 580.485 206.481 598.581 219.041 600.376C231.6 602.17 241.663 581.149 241.663 581.149Z" fill="#5050D8"/>
<path d="M267.278 571.64C262.729 584.969 271.62 606.69 271.62 606.69C271.62 606.69 289.791 595.326 288.491 580.615C287.193 565.906 271.829 558.311 267.278 571.64Z" fill="#5050D8"/>
<path d="M295.362 587.312C288.852 606.38 301.574 637.456 301.574 637.456C301.574 637.456 327.57 621.198 325.711 600.152C323.851 579.108 301.871 568.245 295.362 587.312Z" fill="#5050D8"/>
<path d="M271.13 608.187C271.415 607.643 271.566 607.328 271.566 607.328C271.566 607.328 270.687 606.812 269.194 606.06C263.414 599.771 255.958 592.206 247.05 583.168C245.841 581.941 244.597 580.678 243.338 579.4C247.761 576.203 259.647 566.434 258.587 554.438C257.287 539.727 241.923 532.133 237.372 545.462C234.082 555.101 237.82 569.126 240.142 576.153C234.492 570.404 228.434 564.203 222.132 557.62C221.072 556.513 219.973 555.332 218.843 554.092C224.236 551.722 236.422 545.145 237.464 533.742C238.806 519.058 225.104 507.91 218.278 519.822C213.362 528.401 214.5 542.923 215.523 550.38C209.097 543.072 201.899 534.217 194.89 525.293C198.202 523.875 206.407 519.63 207.091 512.125C207.952 502.704 199.162 495.55 194.782 503.194C191.595 508.754 192.372 518.182 193.034 522.922C187.469 515.795 182.084 508.711 177.363 502.412C181.054 500.691 188.063 496.546 188.695 489.634C189.556 480.214 180.766 473.06 176.386 480.702C173.603 485.558 173.845 493.371 174.39 498.432C167.555 489.256 162.578 482.372 161.287 480.582C161.233 476.47 160.882 463.911 158.606 460.139C155.872 455.608 150.529 454.498 146.672 457.662C142.814 460.826 141.904 467.063 144.638 471.594C146.821 475.213 156.135 479.623 159.801 481.254L159.38 481.665C159.537 481.885 165.97 490.838 175.042 502.959C175.084 503.184 175.116 503.342 175.116 503.342C175.116 503.342 175.178 503.321 175.285 503.282C180.184 509.825 185.838 517.267 191.681 524.748C188.413 522.106 181.121 516.931 175.265 517.971C167.466 519.357 169.305 531.664 176.995 534.745C183.871 537.501 191.568 528.518 193.121 526.586C201.001 536.627 209.136 546.604 216.173 554.439C216.253 554.866 216.301 555.106 216.301 555.106C216.301 555.106 216.433 555.06 216.657 554.978C218.076 556.549 219.451 558.034 220.764 559.408C229.728 568.776 238.215 577.385 245.702 584.979C252.721 592.098 258.832 598.301 263.926 603.677C257.534 601.11 248.405 598.616 241.659 601.591C230.171 606.658 236.381 624.754 248.941 626.549C258.553 627.921 266.697 615.94 269.993 610.237C270.853 611.197 271.669 612.125 272.436 613.019C275.502 616.59 284.518 625.353 294.504 634.832C285.55 630.768 269.856 625.249 258.712 630.165C242.278 637.414 251.161 663.302 269.129 665.868C284.217 668.023 296.781 647.172 300.423 640.428C314.395 653.595 328.362 666.465 329.432 667.45L330.701 665.561C330.212 665.11 281.676 620.386 273.887 611.316C273.029 610.318 272.104 609.27 271.13 608.187Z" fill="#5050D8"/>
<path d="M487.412 190.873C487.412 190.873 490.429 177.062 485.263 171.058C480.096 165.055 470.445 172.91 471.713 181.097C472.982 189.284 487.412 190.873 487.412 190.873Z" fill="#5050D8"/>
<path d="M463.65 252.753C463.65 252.753 468.354 231.227 460.301 221.87C452.248 212.513 437.206 224.756 439.183 237.516C441.16 250.275 463.65 252.753 463.65 252.753Z" fill="#5050D8"/>
<path d="M454.782 287.676C454.782 287.676 454.684 266.329 444.468 259.029C434.253 251.728 421.85 266.294 426.709 278.014C431.567 289.734 454.782 287.676 454.782 287.676Z" fill="#5050D8"/>
<path d="M476.022 304.869C462.236 307.748 448.08 326.471 448.08 326.471C448.08 326.471 467.12 336.312 479.113 327.696C491.105 319.079 489.808 301.989 476.022 304.869Z" fill="#5050D8"/>
<path d="M476.851 337.018C457.128 341.138 436.877 367.921 436.877 367.921C436.877 367.921 464.116 382 481.272 369.674C498.429 357.347 496.574 332.898 476.851 337.018Z" fill="#5050D8"/>
<path d="M446.543 326.811C447.156 326.779 447.505 326.747 447.505 326.747C447.505 326.747 447.5 325.728 447.385 324.062C449.85 315.884 452.558 305.613 455.793 293.342C456.231 291.676 456.684 289.963 457.142 288.227C462.147 290.403 476.611 295.649 486.39 288.622C498.383 280.005 497.086 262.917 483.3 265.795C473.329 267.878 463.17 278.242 458.308 283.824C460.374 276.033 462.621 267.659 465.073 258.883C465.486 257.406 465.94 255.859 466.432 254.255C471.219 257.687 483.089 264.818 493.431 259.902C506.746 253.573 509.355 236.101 495.626 236.3C485.74 236.444 473.827 244.825 467.932 249.506C470.943 240.253 474.893 229.546 478.998 218.967C481.905 221.094 489.739 225.989 496.545 222.754C505.089 218.693 506.763 207.484 497.953 207.611C491.546 207.703 483.831 213.178 480.09 216.163C483.384 207.743 486.735 199.498 489.747 192.226C493.108 194.524 500.248 198.442 506.516 195.462C515.06 191.401 516.732 180.191 507.924 180.319C502.328 180.4 495.729 184.591 491.653 187.64C496.064 177.081 499.449 169.291 500.331 167.269C503.842 165.126 514.467 158.421 516.551 154.543C519.056 149.88 517.287 144.718 512.599 143.013C507.912 141.307 502.081 143.703 499.576 148.364C497.575 152.088 498.528 162.348 498.994 166.334L498.427 166.181C498.318 166.429 493.894 176.526 488.089 190.512C487.918 190.662 487.797 190.769 487.797 190.769C487.797 190.769 487.847 190.812 487.934 190.884C484.802 198.435 481.281 207.092 477.823 215.933C478.431 211.774 479.165 202.864 475.285 198.355C470.119 192.351 460.467 200.206 461.736 208.393C462.87 215.715 474.522 217.758 476.974 218.109C472.352 230.005 467.915 242.091 464.761 252.139C464.433 252.426 464.252 252.59 464.252 252.59C464.252 252.59 464.36 252.682 464.544 252.831C463.915 254.853 463.339 256.793 462.826 258.623C459.336 271.11 456.256 282.8 453.537 293.113C450.99 302.779 448.768 311.2 446.74 318.324C445.691 311.516 443.183 302.39 437.184 298.104C426.969 290.804 414.565 305.37 419.424 317.09C423.143 326.06 437.602 326.958 444.189 326.886C443.801 328.117 443.418 329.29 443.041 330.406C441.531 334.863 438.589 347.087 435.524 360.51C434.456 350.735 431.205 334.42 421.294 327.337C406.68 316.893 388.935 337.732 395.886 354.499C401.723 368.579 426.067 368.759 433.725 368.456C429.519 387.186 425.565 405.763 425.263 407.187L427.536 407.315C427.674 406.665 441.412 342.109 445.244 330.786C445.675 329.531 446.105 328.203 446.543 326.811Z" fill="#5050D8"/>
<path d="M489.906 693.666H364.383V711.721H489.906V693.666Z" fill="white" stroke="#B2B2B2" stroke-miterlimit="10" stroke-linejoin="round"/>
<path d="M371.285 694.007V706.804" stroke="#B2B2B2" stroke-miterlimit="10" stroke-linejoin="round"/>
<path d="M378.141 710.918V696.75" stroke="#B2B2B2" stroke-miterlimit="10" stroke-linejoin="round"/>
<path d="M386.824 694.007V709.545" stroke="#B2B2B2" stroke-miterlimit="10" stroke-linejoin="round"/>
<path d="M396.42 693.55V704.976" stroke="#B2B2B2" stroke-miterlimit="10" stroke-linejoin="round"/>
<path d="M405.105 694.464V710.461" stroke="#B2B2B2" stroke-miterlimit="10" stroke-linejoin="round"/>
<path d="M413.787 710.918V701.319" stroke="#B2B2B2" stroke-miterlimit="10" stroke-linejoin="round"/>
<path d="M421.557 694.464V703.605" stroke="#B2B2B2" stroke-miterlimit="10" stroke-linejoin="round"/>
<path d="M432.525 708.174V702.689" stroke="#B2B2B2" stroke-miterlimit="10" stroke-linejoin="round"/>
<path d="M454.245 694.328H446.818V711.138H454.245V694.328Z" fill="#B2B2B2" stroke="#B2B2B2" stroke-miterlimit="10" stroke-linejoin="round"/>
<path d="M459.327 694.328H456.982V711.138H459.327V694.328Z" fill="#B2B2B2" stroke="#B2B2B2" stroke-miterlimit="10" stroke-linejoin="round"/>
<path d="M483.874 675.569H358.352V693.625H483.874V675.569Z" fill="white" stroke="#B2B2B2" stroke-miterlimit="10" stroke-linejoin="round"/>
<path d="M365.254 675.91V688.707" stroke="#B2B2B2" stroke-miterlimit="10" stroke-linejoin="round"/>
<path d="M372.109 692.821V678.653" stroke="#B2B2B2" stroke-miterlimit="10" stroke-linejoin="round"/>
<path d="M380.793 675.91V691.449" stroke="#B2B2B2" stroke-miterlimit="10" stroke-linejoin="round"/>
<path d="M390.389 675.453V686.879" stroke="#B2B2B2" stroke-miterlimit="10" stroke-linejoin="round"/>
<path d="M399.074 676.367V692.364" stroke="#B2B2B2" stroke-miterlimit="10" stroke-linejoin="round"/>
<path d="M407.756 692.821V683.223" stroke="#B2B2B2" stroke-miterlimit="10" stroke-linejoin="round"/>
<path d="M415.525 676.367V685.509" stroke="#B2B2B2" stroke-miterlimit="10" stroke-linejoin="round"/>
<path d="M426.494 690.077V684.593" stroke="#B2B2B2" stroke-miterlimit="10" stroke-linejoin="round"/>
<path d="M448.214 676.231H440.787V693.041H448.214V676.231Z" fill="#B2B2B2" stroke="#B2B2B2" stroke-miterlimit="10" stroke-linejoin="round"/>
<path d="M453.296 676.231H450.951V693.041H453.296V676.231Z" fill="#B2B2B2" stroke="#B2B2B2" stroke-miterlimit="10" stroke-linejoin="round"/>
<path d="M488.398 657.474H362.875V675.529H488.398V657.474Z" fill="white" stroke="#B2B2B2" stroke-miterlimit="10" stroke-linejoin="round"/>
<path d="M369.777 657.814V670.611" stroke="#B2B2B2" stroke-miterlimit="10" stroke-linejoin="round"/>
<path d="M376.633 674.725V660.558" stroke="#B2B2B2" stroke-miterlimit="10" stroke-linejoin="round"/>
<path d="M385.316 657.814V673.353" stroke="#B2B2B2" stroke-miterlimit="10" stroke-linejoin="round"/>
<path d="M394.912 657.357V668.784" stroke="#B2B2B2" stroke-miterlimit="10" stroke-linejoin="round"/>
<path d="M403.598 658.271V674.268" stroke="#B2B2B2" stroke-miterlimit="10" stroke-linejoin="round"/>
<path d="M412.279 674.725V665.127" stroke="#B2B2B2" stroke-miterlimit="10" stroke-linejoin="round"/>
<path d="M420.049 658.271V667.413" stroke="#B2B2B2" stroke-miterlimit="10" stroke-linejoin="round"/>
<path d="M431.018 671.982V666.497" stroke="#B2B2B2" stroke-miterlimit="10" stroke-linejoin="round"/>
<path d="M452.737 658.136H445.311V674.945H452.737V658.136Z" fill="#B2B2B2" stroke="#B2B2B2" stroke-miterlimit="10" stroke-linejoin="round"/>
<path d="M457.82 658.136H455.475V674.945H457.82V658.136Z" fill="#B2B2B2" stroke="#B2B2B2" stroke-miterlimit="10" stroke-linejoin="round"/>
<path d="M483.874 639.378H358.352V657.433H483.874V639.378Z" fill="white" stroke="#B2B2B2" stroke-miterlimit="10" stroke-linejoin="round"/>
<path d="M365.254 639.719V652.516" stroke="#B2B2B2" stroke-miterlimit="10" stroke-linejoin="round"/>
<path d="M372.109 656.63V642.462" stroke="#B2B2B2" stroke-miterlimit="10" stroke-linejoin="round"/>
<path d="M380.793 639.719V655.257" stroke="#B2B2B2" stroke-miterlimit="10" stroke-linejoin="round"/>
<path d="M390.389 639.262V650.688" stroke="#B2B2B2" stroke-miterlimit="10" stroke-linejoin="round"/>
<path d="M399.074 640.176V656.173" stroke="#B2B2B2" stroke-miterlimit="10" stroke-linejoin="round"/>
<path d="M407.756 656.63V647.031" stroke="#B2B2B2" stroke-miterlimit="10" stroke-linejoin="round"/>
<path d="M415.525 640.176V649.317" stroke="#B2B2B2" stroke-miterlimit="10" stroke-linejoin="round"/>
<path d="M426.494 653.886V648.401" stroke="#B2B2B2" stroke-miterlimit="10" stroke-linejoin="round"/>
<path d="M448.214 640.04H440.787V656.85H448.214V640.04Z" fill="#B2B2B2" stroke="#B2B2B2" stroke-miterlimit="10" stroke-linejoin="round"/>
<path d="M453.296 640.04H450.951V656.85H453.296V640.04Z" fill="#B2B2B2" stroke="#B2B2B2" stroke-miterlimit="10" stroke-linejoin="round"/>
<path d="M488.398 621.281H362.875V639.337H488.398V621.281Z" fill="white" stroke="#B2B2B2" stroke-miterlimit="10" stroke-linejoin="round"/>
<path d="M369.777 621.622V634.419" stroke="#B2B2B2" stroke-miterlimit="10" stroke-linejoin="round"/>
<path d="M376.633 638.533V624.365" stroke="#B2B2B2" stroke-miterlimit="10" stroke-linejoin="round"/>
<path d="M385.316 621.622V637.161" stroke="#B2B2B2" stroke-miterlimit="10" stroke-linejoin="round"/>
<path d="M394.912 621.165V632.591" stroke="#B2B2B2" stroke-miterlimit="10" stroke-linejoin="round"/>
<path d="M403.598 622.079V638.076" stroke="#B2B2B2" stroke-miterlimit="10" stroke-linejoin="round"/>
<path d="M412.279 638.533V628.935" stroke="#B2B2B2" stroke-miterlimit="10" stroke-linejoin="round"/>
<path d="M420.049 622.079V631.221" stroke="#B2B2B2" stroke-miterlimit="10" stroke-linejoin="round"/>
<path d="M431.018 635.789V630.305" stroke="#B2B2B2" stroke-miterlimit="10" stroke-linejoin="round"/>
<path d="M452.737 621.943H445.311V638.753H452.737V621.943Z" fill="#B2B2B2" stroke="#B2B2B2" stroke-miterlimit="10" stroke-linejoin="round"/>
<path d="M457.82 621.943H455.475V638.753H457.82V621.943Z" fill="#B2B2B2" stroke="#B2B2B2" stroke-miterlimit="10" stroke-linejoin="round"/>
<path d="M488.398 603.186H362.875V621.241H488.398V603.186Z" fill="white" stroke="#B2B2B2" stroke-miterlimit="10" stroke-linejoin="round"/>
<path d="M369.777 603.526V616.323" stroke="#B2B2B2" stroke-miterlimit="10" stroke-linejoin="round"/>
<path d="M376.633 620.437V606.27" stroke="#B2B2B2" stroke-miterlimit="10" stroke-linejoin="round"/>
<path d="M385.316 603.526V619.065" stroke="#B2B2B2" stroke-miterlimit="10" stroke-linejoin="round"/>
<path d="M394.912 603.069V614.495" stroke="#B2B2B2" stroke-miterlimit="10" stroke-linejoin="round"/>
<path d="M403.598 603.983V619.98" stroke="#B2B2B2" stroke-miterlimit="10" stroke-linejoin="round"/>
<path d="M412.279 620.437V610.839" stroke="#B2B2B2" stroke-miterlimit="10" stroke-linejoin="round"/>
<path d="M420.049 603.983V613.125" stroke="#B2B2B2" stroke-miterlimit="10" stroke-linejoin="round"/>
<path d="M431.018 617.694V612.209" stroke="#B2B2B2" stroke-miterlimit="10" stroke-linejoin="round"/>
<path d="M452.737 603.848H445.311V620.657H452.737V603.848Z" fill="#B2B2B2" stroke="#B2B2B2" stroke-miterlimit="10" stroke-linejoin="round"/>
<path d="M457.82 603.848H455.475V620.657H457.82V603.848Z" fill="#B2B2B2" stroke="#B2B2B2" stroke-miterlimit="10" stroke-linejoin="round"/>
<path d="M486.89 585.09H361.367V603.145H486.89V585.09Z" fill="white" stroke="#B2B2B2" stroke-miterlimit="10" stroke-linejoin="round"/>
<path d="M368.27 585.431V598.228" stroke="#B2B2B2" stroke-miterlimit="10" stroke-linejoin="round"/>
<path d="M375.125 602.342V588.174" stroke="#B2B2B2" stroke-miterlimit="10" stroke-linejoin="round"/>
<path d="M383.809 585.431V600.969" stroke="#B2B2B2" stroke-miterlimit="10" stroke-linejoin="round"/>
<path d="M393.404 584.974V596.4" stroke="#B2B2B2" stroke-miterlimit="10" stroke-linejoin="round"/>
<path d="M402.09 585.888V601.885" stroke="#B2B2B2" stroke-miterlimit="10" stroke-linejoin="round"/>
<path d="M410.771 602.342V592.743" stroke="#B2B2B2" stroke-miterlimit="10" stroke-linejoin="round"/>
<path d="M418.541 585.888V595.029" stroke="#B2B2B2" stroke-miterlimit="10" stroke-linejoin="round"/>
<path d="M429.51 599.598V594.113" stroke="#B2B2B2" stroke-miterlimit="10" stroke-linejoin="round"/>
<path d="M451.23 585.752H443.803V602.562H451.23V585.752Z" fill="#B2B2B2" stroke="#B2B2B2" stroke-miterlimit="10" stroke-linejoin="round"/>
<path d="M456.312 585.752H453.967V602.562H456.312V585.752Z" fill="#B2B2B2" stroke="#B2B2B2" stroke-miterlimit="10" stroke-linejoin="round"/>
<path d="M479.349 566.993H353.826V585.048H479.349V566.993Z" fill="white" stroke="#B2B2B2" stroke-miterlimit="10" stroke-linejoin="round"/>
<path d="M360.729 567.334V580.131" stroke="#B2B2B2" stroke-miterlimit="10" stroke-linejoin="round"/>
<path d="M367.584 584.245V570.077" stroke="#B2B2B2" stroke-miterlimit="10" stroke-linejoin="round"/>
<path d="M376.268 567.334V582.872" stroke="#B2B2B2" stroke-miterlimit="10" stroke-linejoin="round"/>
<path d="M385.863 566.877V578.303" stroke="#B2B2B2" stroke-miterlimit="10" stroke-linejoin="round"/>
<path d="M394.549 567.791V583.788" stroke="#B2B2B2" stroke-miterlimit="10" stroke-linejoin="round"/>
<path d="M403.23 584.245V574.646" stroke="#B2B2B2" stroke-miterlimit="10" stroke-linejoin="round"/>
<path d="M411 567.791V576.933" stroke="#B2B2B2" stroke-miterlimit="10" stroke-linejoin="round"/>
<path d="M421.969 581.501V576.017" stroke="#B2B2B2" stroke-miterlimit="10" stroke-linejoin="round"/>
<path d="M443.689 567.655H436.262V584.465H443.689V567.655Z" fill="#B2B2B2" stroke="#B2B2B2" stroke-miterlimit="10" stroke-linejoin="round"/>
<path d="M448.771 567.655H446.426V584.465H448.771V567.655Z" fill="#B2B2B2" stroke="#B2B2B2" stroke-miterlimit="10" stroke-linejoin="round"/>
<path d="M480.857 548.897H355.334V566.953H480.857V548.897Z" fill="white" stroke="#B2B2B2" stroke-miterlimit="10" stroke-linejoin="round"/>
<path d="M362.236 549.238V562.035" stroke="#B2B2B2" stroke-miterlimit="10" stroke-linejoin="round"/>
<path d="M369.092 566.149V551.981" stroke="#B2B2B2" stroke-miterlimit="10" stroke-linejoin="round"/>
<path d="M377.775 549.238V564.777" stroke="#B2B2B2" stroke-miterlimit="10" stroke-linejoin="round"/>
<path d="M387.371 548.781V560.207" stroke="#B2B2B2" stroke-miterlimit="10" stroke-linejoin="round"/>
<path d="M396.057 549.695V565.692" stroke="#B2B2B2" stroke-miterlimit="10" stroke-linejoin="round"/>
<path d="M404.738 566.149V556.551" stroke="#B2B2B2" stroke-miterlimit="10" stroke-linejoin="round"/>
<path d="M412.508 549.695V558.837" stroke="#B2B2B2" stroke-miterlimit="10" stroke-linejoin="round"/>
<path d="M423.477 563.405V557.921" stroke="#B2B2B2" stroke-miterlimit="10" stroke-linejoin="round"/>
<path d="M445.196 549.56H437.77V566.369H445.196V549.56Z" fill="#B2B2B2" stroke="#B2B2B2" stroke-miterlimit="10" stroke-linejoin="round"/>
<path d="M450.279 549.56H447.934V566.369H450.279V549.56Z" fill="#B2B2B2" stroke="#B2B2B2" stroke-miterlimit="10" stroke-linejoin="round"/>
<path d="M479.349 530.802H353.826V548.857H479.349V530.802Z" fill="white" stroke="#B2B2B2" stroke-miterlimit="10" stroke-linejoin="round"/>
<path d="M360.729 531.143V543.94" stroke="#B2B2B2" stroke-miterlimit="10" stroke-linejoin="round"/>
<path d="M367.584 548.053V533.886" stroke="#B2B2B2" stroke-miterlimit="10" stroke-linejoin="round"/>
<path d="M376.268 531.143V546.681" stroke="#B2B2B2" stroke-miterlimit="10" stroke-linejoin="round"/>
<path d="M385.863 530.686V542.112" stroke="#B2B2B2" stroke-miterlimit="10" stroke-linejoin="round"/>
<path d="M394.549 531.6V547.596" stroke="#B2B2B2" stroke-miterlimit="10" stroke-linejoin="round"/>
<path d="M403.23 548.054V538.455" stroke="#B2B2B2" stroke-miterlimit="10" stroke-linejoin="round"/>
<path d="M411 531.6V540.741" stroke="#B2B2B2" stroke-miterlimit="10" stroke-linejoin="round"/>
<path d="M421.969 545.31V539.825" stroke="#B2B2B2" stroke-miterlimit="10" stroke-linejoin="round"/>
<path d="M443.689 531.464H436.262V548.274H443.689V531.464Z" fill="#B2B2B2" stroke="#B2B2B2" stroke-miterlimit="10" stroke-linejoin="round"/>
<path d="M448.771 531.464H446.426V548.274H448.771V531.464Z" fill="#B2B2B2" stroke="#B2B2B2" stroke-miterlimit="10" stroke-linejoin="round"/>
<path d="M488.398 512.706H362.875V530.761H488.398V512.706Z" fill="white" stroke="#B2B2B2" stroke-miterlimit="10" stroke-linejoin="round"/>
<path d="M369.777 513.047V525.844" stroke="#B2B2B2" stroke-miterlimit="10" stroke-linejoin="round"/>
<path d="M376.633 529.958V515.79" stroke="#B2B2B2" stroke-miterlimit="10" stroke-linejoin="round"/>
<path d="M385.316 513.047V528.585" stroke="#B2B2B2" stroke-miterlimit="10" stroke-linejoin="round"/>
<path d="M394.912 512.59V524.016" stroke="#B2B2B2" stroke-miterlimit="10" stroke-linejoin="round"/>
<path d="M403.598 513.504V529.501" stroke="#B2B2B2" stroke-miterlimit="10" stroke-linejoin="round"/>
<path d="M412.279 529.958V520.359" stroke="#B2B2B2" stroke-miterlimit="10" stroke-linejoin="round"/>
<path d="M420.049 513.504V522.645" stroke="#B2B2B2" stroke-miterlimit="10" stroke-linejoin="round"/>
<path d="M431.018 527.214V521.729" stroke="#B2B2B2" stroke-miterlimit="10" stroke-linejoin="round"/>
<path d="M452.737 513.368H445.311V530.178H452.737V513.368Z" fill="#B2B2B2" stroke="#B2B2B2" stroke-miterlimit="10" stroke-linejoin="round"/>
<path d="M457.82 513.368H455.475V530.178H457.82V513.368Z" fill="#B2B2B2" stroke="#B2B2B2" stroke-miterlimit="10" stroke-linejoin="round"/>
<path d="M483.874 494.944H358.352V513H483.874V494.944Z" fill="white" stroke="#B2B2B2" stroke-miterlimit="10" stroke-linejoin="round"/>
<path d="M365.254 495.285V508.082" stroke="#B2B2B2" stroke-miterlimit="10" stroke-linejoin="round"/>
<path d="M372.109 512.194V498.026" stroke="#B2B2B2" stroke-miterlimit="10" stroke-linejoin="round"/>
<path d="M380.793 495.285V510.824" stroke="#B2B2B2" stroke-miterlimit="10" stroke-linejoin="round"/>
<path d="M390.389 494.828V506.253" stroke="#B2B2B2" stroke-miterlimit="10" stroke-linejoin="round"/>
<path d="M399.074 495.742V511.738" stroke="#B2B2B2" stroke-miterlimit="10" stroke-linejoin="round"/>
<path d="M407.756 512.195V502.598" stroke="#B2B2B2" stroke-miterlimit="10" stroke-linejoin="round"/>
<path d="M415.525 495.742V504.882" stroke="#B2B2B2" stroke-miterlimit="10" stroke-linejoin="round"/>
<path d="M426.494 509.452V503.968" stroke="#B2B2B2" stroke-miterlimit="10" stroke-linejoin="round"/>
<path d="M448.214 495.604H440.787V512.414H448.214V495.604Z" fill="#B2B2B2" stroke="#B2B2B2" stroke-miterlimit="10" stroke-linejoin="round"/>
<path d="M453.296 495.604H450.951V512.414H453.296V495.604Z" fill="#B2B2B2" stroke="#B2B2B2" stroke-miterlimit="10" stroke-linejoin="round"/>
<path d="M488.398 476.849H362.875V494.904H488.398V476.849Z" fill="white" stroke="#B2B2B2" stroke-miterlimit="10" stroke-linejoin="round"/>
<path d="M369.777 477.189V489.986" stroke="#B2B2B2" stroke-miterlimit="10" stroke-linejoin="round"/>
<path d="M376.633 494.098V479.931" stroke="#B2B2B2" stroke-miterlimit="10" stroke-linejoin="round"/>
<path d="M385.316 477.189V492.728" stroke="#B2B2B2" stroke-miterlimit="10" stroke-linejoin="round"/>
<path d="M394.912 476.732V488.157" stroke="#B2B2B2" stroke-miterlimit="10" stroke-linejoin="round"/>
<path d="M403.598 477.646V493.642" stroke="#B2B2B2" stroke-miterlimit="10" stroke-linejoin="round"/>
<path d="M412.279 494.099V484.502" stroke="#B2B2B2" stroke-miterlimit="10" stroke-linejoin="round"/>
<path d="M420.049 477.646V486.786" stroke="#B2B2B2" stroke-miterlimit="10" stroke-linejoin="round"/>
<path d="M431.018 491.357V485.872" stroke="#B2B2B2" stroke-miterlimit="10" stroke-linejoin="round"/>
<path d="M452.737 477.509H445.311V494.318H452.737V477.509Z" fill="#B2B2B2" stroke="#B2B2B2" stroke-miterlimit="10" stroke-linejoin="round"/>
<path d="M457.82 477.509H455.475V494.318H457.82V477.509Z" fill="#B2B2B2" stroke="#B2B2B2" stroke-miterlimit="10" stroke-linejoin="round"/>
<path d="M483.874 458.752H358.352V476.807H483.874V458.752Z" fill="white" stroke="#B2B2B2" stroke-miterlimit="10" stroke-linejoin="round"/>
<path d="M365.254 459.093V471.89" stroke="#B2B2B2" stroke-miterlimit="10" stroke-linejoin="round"/>
<path d="M372.109 476.002V461.834" stroke="#B2B2B2" stroke-miterlimit="10" stroke-linejoin="round"/>
<path d="M380.793 459.093V474.631" stroke="#B2B2B2" stroke-miterlimit="10" stroke-linejoin="round"/>
<path d="M390.389 458.636V470.06" stroke="#B2B2B2" stroke-miterlimit="10" stroke-linejoin="round"/>
<path d="M399.074 459.55V475.545" stroke="#B2B2B2" stroke-miterlimit="10" stroke-linejoin="round"/>
<path d="M407.756 476.002V466.405" stroke="#B2B2B2" stroke-miterlimit="10" stroke-linejoin="round"/>
<path d="M415.525 459.55V468.69" stroke="#B2B2B2" stroke-miterlimit="10" stroke-linejoin="round"/>
<path d="M426.494 473.26V467.775" stroke="#B2B2B2" stroke-miterlimit="10" stroke-linejoin="round"/>
<path d="M448.214 459.412H440.787V476.222H448.214V459.412Z" fill="#B2B2B2" stroke="#B2B2B2" stroke-miterlimit="10" stroke-linejoin="round"/>
<path d="M453.296 459.412H450.951V476.222H453.296V459.412Z" fill="#B2B2B2" stroke="#B2B2B2" stroke-miterlimit="10" stroke-linejoin="round"/>
<path d="M483.874 440.656H358.352V458.712H483.874V440.656Z" fill="white" stroke="#B2B2B2" stroke-miterlimit="10" stroke-linejoin="round"/>
<path d="M365.254 440.997V453.794" stroke="#B2B2B2" stroke-miterlimit="10" stroke-linejoin="round"/>
<path d="M372.109 457.906V443.738" stroke="#B2B2B2" stroke-miterlimit="10" stroke-linejoin="round"/>
<path d="M380.793 440.997V456.535" stroke="#B2B2B2" stroke-miterlimit="10" stroke-linejoin="round"/>
<path d="M390.389 440.54V451.965" stroke="#B2B2B2" stroke-miterlimit="10" stroke-linejoin="round"/>
<path d="M399.074 441.454V457.449" stroke="#B2B2B2" stroke-miterlimit="10" stroke-linejoin="round"/>
<path d="M407.756 457.906V448.31" stroke="#B2B2B2" stroke-miterlimit="10" stroke-linejoin="round"/>
<path d="M415.525 441.454V450.594" stroke="#B2B2B2" stroke-miterlimit="10" stroke-linejoin="round"/>
<path d="M426.494 455.164V449.68" stroke="#B2B2B2" stroke-miterlimit="10" stroke-linejoin="round"/>
<path d="M448.214 441.316H440.787V458.126H448.214V441.316Z" fill="#B2B2B2" stroke="#B2B2B2" stroke-miterlimit="10" stroke-linejoin="round"/>
<path d="M453.296 441.316H450.951V458.126H453.296V441.316Z" fill="#B2B2B2" stroke="#B2B2B2" stroke-miterlimit="10" stroke-linejoin="round"/>
<path d="M483.874 422.561H358.352V440.616H483.874V422.561Z" fill="white" stroke="#B2B2B2" stroke-miterlimit="10" stroke-linejoin="round"/>
<path d="M365.254 422.901V435.698" stroke="#B2B2B2" stroke-miterlimit="10" stroke-linejoin="round"/>
<path d="M372.109 439.81V425.643" stroke="#B2B2B2" stroke-miterlimit="10" stroke-linejoin="round"/>
<path d="M380.793 422.901V438.44" stroke="#B2B2B2" stroke-miterlimit="10" stroke-linejoin="round"/>
<path d="M390.389 422.444V433.869" stroke="#B2B2B2" stroke-miterlimit="10" stroke-linejoin="round"/>
<path d="M399.074 423.358V439.354" stroke="#B2B2B2" stroke-miterlimit="10" stroke-linejoin="round"/>
<path d="M407.756 439.811V430.214" stroke="#B2B2B2" stroke-miterlimit="10" stroke-linejoin="round"/>
<path d="M415.525 423.358V432.498" stroke="#B2B2B2" stroke-miterlimit="10" stroke-linejoin="round"/>
<path d="M426.494 437.069V431.584" stroke="#B2B2B2" stroke-miterlimit="10" stroke-linejoin="round"/>
<path d="M448.214 423.221H440.787V440.03H448.214V423.221Z" fill="#B2B2B2" stroke="#B2B2B2" stroke-miterlimit="10" stroke-linejoin="round"/>
<path d="M453.296 423.221H450.951V440.03H453.296V423.221Z" fill="#B2B2B2" stroke="#B2B2B2" stroke-miterlimit="10" stroke-linejoin="round"/>
<path d="M477.841 404.465H352.318V422.52H477.841V404.465Z" fill="white" stroke="#B2B2B2" stroke-miterlimit="10" stroke-linejoin="round"/>
<path d="M359.221 404.806V417.603" stroke="#B2B2B2" stroke-miterlimit="10" stroke-linejoin="round"/>
<path d="M366.076 421.715V407.547" stroke="#B2B2B2" stroke-miterlimit="10" stroke-linejoin="round"/>
<path d="M374.76 404.806V420.344" stroke="#B2B2B2" stroke-miterlimit="10" stroke-linejoin="round"/>
<path d="M384.355 404.349V415.773" stroke="#B2B2B2" stroke-miterlimit="10" stroke-linejoin="round"/>
<path d="M393.041 405.263V421.258" stroke="#B2B2B2" stroke-miterlimit="10" stroke-linejoin="round"/>
<path d="M401.723 421.715V412.118" stroke="#B2B2B2" stroke-miterlimit="10" stroke-linejoin="round"/>
<path d="M409.492 405.263V414.403" stroke="#B2B2B2" stroke-miterlimit="10" stroke-linejoin="round"/>
<path d="M420.461 418.973V413.488" stroke="#B2B2B2" stroke-miterlimit="10" stroke-linejoin="round"/>
<path d="M442.181 405.125H434.754V421.935H442.181V405.125Z" fill="#B2B2B2" stroke="#B2B2B2" stroke-miterlimit="10" stroke-linejoin="round"/>
<path d="M447.263 405.125H444.918V421.935H447.263V405.125Z" fill="#B2B2B2" stroke="#B2B2B2" stroke-miterlimit="10" stroke-linejoin="round"/>
<path d="M483.874 386.368H358.352V404.423H483.874V386.368Z" fill="white" stroke="#B2B2B2" stroke-miterlimit="10" stroke-linejoin="round"/>
<path d="M365.254 386.709V399.506" stroke="#B2B2B2" stroke-miterlimit="10" stroke-linejoin="round"/>
<path d="M372.109 403.618V389.45" stroke="#B2B2B2" stroke-miterlimit="10" stroke-linejoin="round"/>
<path d="M380.793 386.709V402.247" stroke="#B2B2B2" stroke-miterlimit="10" stroke-linejoin="round"/>
<path d="M390.389 386.252V397.677" stroke="#B2B2B2" stroke-miterlimit="10" stroke-linejoin="round"/>
<path d="M399.074 387.166V403.161" stroke="#B2B2B2" stroke-miterlimit="10" stroke-linejoin="round"/>
<path d="M407.756 403.618V394.021" stroke="#B2B2B2" stroke-miterlimit="10" stroke-linejoin="round"/>
<path d="M415.525 387.166V396.306" stroke="#B2B2B2" stroke-miterlimit="10" stroke-linejoin="round"/>
<path d="M426.494 400.876V395.392" stroke="#B2B2B2" stroke-miterlimit="10" stroke-linejoin="round"/>
<path d="M448.214 387.028H440.787V403.838H448.214V387.028Z" fill="#B2B2B2" stroke="#B2B2B2" stroke-miterlimit="10" stroke-linejoin="round"/>
<path d="M453.296 387.028H450.951V403.838H453.296V387.028Z" fill="#B2B2B2" stroke="#B2B2B2" stroke-miterlimit="10" stroke-linejoin="round"/>
<path d="M476.333 368.272H350.811V386.328H476.333V368.272Z" fill="white" stroke="#B2B2B2" stroke-miterlimit="10" stroke-linejoin="round"/>
<path d="M357.713 368.613V381.41" stroke="#B2B2B2" stroke-miterlimit="10" stroke-linejoin="round"/>
<path d="M364.568 385.522V371.354" stroke="#B2B2B2" stroke-miterlimit="10" stroke-linejoin="round"/>
<path d="M373.252 368.613V384.152" stroke="#B2B2B2" stroke-miterlimit="10" stroke-linejoin="round"/>
<path d="M382.848 368.156V379.581" stroke="#B2B2B2" stroke-miterlimit="10" stroke-linejoin="round"/>
<path d="M391.533 369.07V385.066" stroke="#B2B2B2" stroke-miterlimit="10" stroke-linejoin="round"/>
<path d="M400.215 385.523V375.926" stroke="#B2B2B2" stroke-miterlimit="10" stroke-linejoin="round"/>
<path d="M407.984 369.07V378.21" stroke="#B2B2B2" stroke-miterlimit="10" stroke-linejoin="round"/>
<path d="M418.953 382.78V377.296" stroke="#B2B2B2" stroke-miterlimit="10" stroke-linejoin="round"/>
<path d="M440.673 368.933H433.246V385.742H440.673V368.933Z" fill="#B2B2B2" stroke="#B2B2B2" stroke-miterlimit="10" stroke-linejoin="round"/>
<path d="M445.755 368.933H443.41V385.742H445.755V368.933Z" fill="#B2B2B2" stroke="#B2B2B2" stroke-miterlimit="10" stroke-linejoin="round"/>
<path d="M483.874 350.177H358.352V368.232H483.874V350.177Z" fill="white" stroke="#B2B2B2" stroke-miterlimit="10" stroke-linejoin="round"/>
<path d="M365.254 350.518V363.314" stroke="#B2B2B2" stroke-miterlimit="10" stroke-linejoin="round"/>
<path d="M372.109 367.426V353.259" stroke="#B2B2B2" stroke-miterlimit="10" stroke-linejoin="round"/>
<path d="M380.793 350.518V366.056" stroke="#B2B2B2" stroke-miterlimit="10" stroke-linejoin="round"/>
<path d="M390.389 350.061V361.485" stroke="#B2B2B2" stroke-miterlimit="10" stroke-linejoin="round"/>
<path d="M399.074 350.975V366.97" stroke="#B2B2B2" stroke-miterlimit="10" stroke-linejoin="round"/>
<path d="M407.756 367.427V357.83" stroke="#B2B2B2" stroke-miterlimit="10" stroke-linejoin="round"/>
<path d="M415.525 350.975V360.115" stroke="#B2B2B2" stroke-miterlimit="10" stroke-linejoin="round"/>
<path d="M426.494 364.685V359.2" stroke="#B2B2B2" stroke-miterlimit="10" stroke-linejoin="round"/>
<path d="M448.214 350.837H440.787V367.647H448.214V350.837Z" fill="#B2B2B2" stroke="#B2B2B2" stroke-miterlimit="10" stroke-linejoin="round"/>
<path d="M453.296 350.837H450.951V367.647H453.296V350.837Z" fill="#B2B2B2" stroke="#B2B2B2" stroke-miterlimit="10" stroke-linejoin="round"/>
<path d="M477.841 332.08H352.318V350.135H477.841V332.08Z" fill="white" stroke="#B2B2B2" stroke-miterlimit="10" stroke-linejoin="round"/>
<path d="M359.221 332.421V345.218" stroke="#B2B2B2" stroke-miterlimit="10" stroke-linejoin="round"/>
<path d="M366.076 349.33V335.162" stroke="#B2B2B2" stroke-miterlimit="10" stroke-linejoin="round"/>
<path d="M374.76 332.421V347.959" stroke="#B2B2B2" stroke-miterlimit="10" stroke-linejoin="round"/>
<path d="M384.355 331.964V343.388" stroke="#B2B2B2" stroke-miterlimit="10" stroke-linejoin="round"/>
<path d="M393.041 332.878V348.873" stroke="#B2B2B2" stroke-miterlimit="10" stroke-linejoin="round"/>
<path d="M401.723 349.33V339.733" stroke="#B2B2B2" stroke-miterlimit="10" stroke-linejoin="round"/>
<path d="M409.492 332.878V342.018" stroke="#B2B2B2" stroke-miterlimit="10" stroke-linejoin="round"/>
<path d="M420.461 346.588V341.104" stroke="#B2B2B2" stroke-miterlimit="10" stroke-linejoin="round"/>
<path d="M442.181 332.74H434.754V349.55H442.181V332.74Z" fill="#B2B2B2" stroke="#B2B2B2" stroke-miterlimit="10" stroke-linejoin="round"/>
<path d="M447.263 332.74H444.918V349.55H447.263V332.74Z" fill="#B2B2B2" stroke="#B2B2B2" stroke-miterlimit="10" stroke-linejoin="round"/>
<path d="M483.874 313.984H358.352V332.04H483.874V313.984Z" fill="white" stroke="#B2B2B2" stroke-miterlimit="10" stroke-linejoin="round"/>
<path d="M365.254 314.325V327.122" stroke="#B2B2B2" stroke-miterlimit="10" stroke-linejoin="round"/>
<path d="M372.109 331.234V317.066" stroke="#B2B2B2" stroke-miterlimit="10" stroke-linejoin="round"/>
<path d="M380.793 314.325V329.864" stroke="#B2B2B2" stroke-miterlimit="10" stroke-linejoin="round"/>
<path d="M390.389 313.868V325.293" stroke="#B2B2B2" stroke-miterlimit="10" stroke-linejoin="round"/>
<path d="M399.074 314.782V330.778" stroke="#B2B2B2" stroke-miterlimit="10" stroke-linejoin="round"/>
<path d="M407.756 331.235V321.638" stroke="#B2B2B2" stroke-miterlimit="10" stroke-linejoin="round"/>
<path d="M415.525 314.782V323.922" stroke="#B2B2B2" stroke-miterlimit="10" stroke-linejoin="round"/>
<path d="M426.494 328.492V323.008" stroke="#B2B2B2" stroke-miterlimit="10" stroke-linejoin="round"/>
<path d="M448.214 314.645H440.787V331.454H448.214V314.645Z" fill="#B2B2B2" stroke="#B2B2B2" stroke-miterlimit="10" stroke-linejoin="round"/>
<path d="M453.296 314.645H450.951V331.454H453.296V314.645Z" fill="#B2B2B2" stroke="#B2B2B2" stroke-miterlimit="10" stroke-linejoin="round"/>
<path d="M388.486 693.666H262.963V711.721H388.486V693.666Z" fill="white" stroke="#B2B2B2" stroke-miterlimit="10" stroke-linejoin="round"/>
<path d="M269.865 694.007V706.804" stroke="#B2B2B2" stroke-miterlimit="10" stroke-linejoin="round"/>
<path d="M276.721 710.918V696.75" stroke="#B2B2B2" stroke-miterlimit="10" stroke-linejoin="round"/>
<path d="M285.404 694.007V709.545" stroke="#B2B2B2" stroke-miterlimit="10" stroke-linejoin="round"/>
<path d="M295.002 693.55V704.976" stroke="#B2B2B2" stroke-miterlimit="10" stroke-linejoin="round"/>
<path d="M303.686 694.464V710.461" stroke="#B2B2B2" stroke-miterlimit="10" stroke-linejoin="round"/>
<path d="M312.367 710.918V701.319" stroke="#B2B2B2" stroke-miterlimit="10" stroke-linejoin="round"/>
<path d="M320.137 694.464V703.605" stroke="#B2B2B2" stroke-miterlimit="10" stroke-linejoin="round"/>
<path d="M331.105 708.174V702.689" stroke="#B2B2B2" stroke-miterlimit="10" stroke-linejoin="round"/>
<path d="M352.825 694.328H345.398V711.138H352.825V694.328Z" fill="#B2B2B2" stroke="#B2B2B2" stroke-miterlimit="10" stroke-linejoin="round"/>
<path d="M357.907 694.328H355.562V711.138H357.907V694.328Z" fill="#B2B2B2" stroke="#B2B2B2" stroke-miterlimit="10" stroke-linejoin="round"/>
<path d="M388.486 675.569H262.963V693.625H388.486V675.569Z" fill="white" stroke="#B2B2B2" stroke-miterlimit="10" stroke-linejoin="round"/>
<path d="M269.865 675.91V688.707" stroke="#B2B2B2" stroke-miterlimit="10" stroke-linejoin="round"/>
<path d="M276.721 692.821V678.653" stroke="#B2B2B2" stroke-miterlimit="10" stroke-linejoin="round"/>
<path d="M285.404 675.91V691.449" stroke="#B2B2B2" stroke-miterlimit="10" stroke-linejoin="round"/>
<path d="M295.002 675.453V686.879" stroke="#B2B2B2" stroke-miterlimit="10" stroke-linejoin="round"/>
<path d="M303.686 676.367V692.364" stroke="#B2B2B2" stroke-miterlimit="10" stroke-linejoin="round"/>
<path d="M312.367 692.821V683.223" stroke="#B2B2B2" stroke-miterlimit="10" stroke-linejoin="round"/>
<path d="M320.137 676.367V685.509" stroke="#B2B2B2" stroke-miterlimit="10" stroke-linejoin="round"/>
<path d="M331.105 690.077V684.593" stroke="#B2B2B2" stroke-miterlimit="10" stroke-linejoin="round"/>
<path d="M352.825 676.231H345.398V693.041H352.825V676.231Z" fill="#B2B2B2" stroke="#B2B2B2" stroke-miterlimit="10" stroke-linejoin="round"/>
<path d="M357.907 676.231H355.562V693.041H357.907V676.231Z" fill="#B2B2B2" stroke="#B2B2B2" stroke-miterlimit="10" stroke-linejoin="round"/>
<path d="M396.027 657.474H270.504V675.529H396.027V657.474Z" fill="white" stroke="#B2B2B2" stroke-miterlimit="10" stroke-linejoin="round"/>
<path d="M277.406 657.814V670.611" stroke="#B2B2B2" stroke-miterlimit="10" stroke-linejoin="round"/>
<path d="M284.262 674.725V660.558" stroke="#B2B2B2" stroke-miterlimit="10" stroke-linejoin="round"/>
<path d="M292.945 657.814V673.353" stroke="#B2B2B2" stroke-miterlimit="10" stroke-linejoin="round"/>
<path d="M302.543 657.357V668.784" stroke="#B2B2B2" stroke-miterlimit="10" stroke-linejoin="round"/>
<path d="M311.227 658.271V674.268" stroke="#B2B2B2" stroke-miterlimit="10" stroke-linejoin="round"/>
<path d="M319.908 674.725V665.127" stroke="#B2B2B2" stroke-miterlimit="10" stroke-linejoin="round"/>
<path d="M327.678 658.271V667.413" stroke="#B2B2B2" stroke-miterlimit="10" stroke-linejoin="round"/>
<path d="M338.646 671.982V666.497" stroke="#B2B2B2" stroke-miterlimit="10" stroke-linejoin="round"/>
<path d="M360.366 658.136H352.939V674.945H360.366V658.136Z" fill="#B2B2B2" stroke="#B2B2B2" stroke-miterlimit="10" stroke-linejoin="round"/>
<path d="M365.448 658.136H363.104V674.945H365.448V658.136Z" fill="#B2B2B2" stroke="#B2B2B2" stroke-miterlimit="10" stroke-linejoin="round"/>
<path d="M389.996 639.378H264.473V657.433H389.996V639.378Z" fill="white" stroke="#B2B2B2" stroke-miterlimit="10" stroke-linejoin="round"/>
<path d="M271.375 639.719V652.516" stroke="#B2B2B2" stroke-miterlimit="10" stroke-linejoin="round"/>
<path d="M278.23 656.63V642.462" stroke="#B2B2B2" stroke-miterlimit="10" stroke-linejoin="round"/>
<path d="M286.914 639.719V655.257" stroke="#B2B2B2" stroke-miterlimit="10" stroke-linejoin="round"/>
<path d="M296.512 639.262V650.688" stroke="#B2B2B2" stroke-miterlimit="10" stroke-linejoin="round"/>
<path d="M305.195 640.176V656.173" stroke="#B2B2B2" stroke-miterlimit="10" stroke-linejoin="round"/>
<path d="M313.877 656.63V647.031" stroke="#B2B2B2" stroke-miterlimit="10" stroke-linejoin="round"/>
<path d="M321.646 640.176V649.317" stroke="#B2B2B2" stroke-miterlimit="10" stroke-linejoin="round"/>
<path d="M332.615 653.886V648.401" stroke="#B2B2B2" stroke-miterlimit="10" stroke-linejoin="round"/>
<path d="M354.335 640.04H346.908V656.85H354.335V640.04Z" fill="#B2B2B2" stroke="#B2B2B2" stroke-miterlimit="10" stroke-linejoin="round"/>
<path d="M359.417 640.04H357.072V656.85H359.417V640.04Z" fill="#B2B2B2" stroke="#B2B2B2" stroke-miterlimit="10" stroke-linejoin="round"/>
<path d="M396.027 621.281H270.504V639.337H396.027V621.281Z" fill="white" stroke="#B2B2B2" stroke-miterlimit="10" stroke-linejoin="round"/>
<path d="M277.406 621.622V634.419" stroke="#B2B2B2" stroke-miterlimit="10" stroke-linejoin="round"/>
<path d="M284.262 638.533V624.365" stroke="#B2B2B2" stroke-miterlimit="10" stroke-linejoin="round"/>
<path d="M292.945 621.622V637.161" stroke="#B2B2B2" stroke-miterlimit="10" stroke-linejoin="round"/>
<path d="M302.543 621.165V632.591" stroke="#B2B2B2" stroke-miterlimit="10" stroke-linejoin="round"/>
<path d="M311.227 622.079V638.076" stroke="#B2B2B2" stroke-miterlimit="10" stroke-linejoin="round"/>
<path d="M319.908 638.533V628.935" stroke="#B2B2B2" stroke-miterlimit="10" stroke-linejoin="round"/>
<path d="M327.678 622.079V631.221" stroke="#B2B2B2" stroke-miterlimit="10" stroke-linejoin="round"/>
<path d="M338.646 635.789V630.305" stroke="#B2B2B2" stroke-miterlimit="10" stroke-linejoin="round"/>
<path d="M360.366 621.943H352.939V638.753H360.366V621.943Z" fill="#B2B2B2" stroke="#B2B2B2" stroke-miterlimit="10" stroke-linejoin="round"/>
<path d="M365.448 621.943H363.104V638.753H365.448V621.943Z" fill="#B2B2B2" stroke="#B2B2B2" stroke-miterlimit="10" stroke-linejoin="round"/>
<path d="M388.486 603.186H262.963V621.241H388.486V603.186Z" fill="white" stroke="#B2B2B2" stroke-miterlimit="10" stroke-linejoin="round"/>
<path d="M269.865 603.526V616.323" stroke="#B2B2B2" stroke-miterlimit="10" stroke-linejoin="round"/>
<path d="M276.721 620.437V606.27" stroke="#B2B2B2" stroke-miterlimit="10" stroke-linejoin="round"/>
<path d="M285.404 603.526V619.065" stroke="#B2B2B2" stroke-miterlimit="10" stroke-linejoin="round"/>
<path d="M295.002 603.069V614.495" stroke="#B2B2B2" stroke-miterlimit="10" stroke-linejoin="round"/>
<path d="M303.686 603.983V619.98" stroke="#B2B2B2" stroke-miterlimit="10" stroke-linejoin="round"/>
<path d="M312.367 620.437V610.839" stroke="#B2B2B2" stroke-miterlimit="10" stroke-linejoin="round"/>
<path d="M320.137 603.983V613.125" stroke="#B2B2B2" stroke-miterlimit="10" stroke-linejoin="round"/>
<path d="M331.105 617.694V612.209" stroke="#B2B2B2" stroke-miterlimit="10" stroke-linejoin="round"/>
<path d="M352.825 603.848H345.398V620.657H352.825V603.848Z" fill="#B2B2B2" stroke="#B2B2B2" stroke-miterlimit="10" stroke-linejoin="round"/>
<path d="M357.907 603.848H355.562V620.657H357.907V603.848Z" fill="#B2B2B2" stroke="#B2B2B2" stroke-miterlimit="10" stroke-linejoin="round"/>
<path d="M385.47 585.09H259.947V603.145H385.47V585.09Z" fill="white" stroke="#B2B2B2" stroke-miterlimit="10" stroke-linejoin="round"/>
<path d="M266.85 585.431V598.228" stroke="#B2B2B2" stroke-miterlimit="10" stroke-linejoin="round"/>
<path d="M273.705 602.342V588.174" stroke="#B2B2B2" stroke-miterlimit="10" stroke-linejoin="round"/>
<path d="M282.389 585.431V600.969" stroke="#B2B2B2" stroke-miterlimit="10" stroke-linejoin="round"/>
<path d="M291.986 584.974V596.4" stroke="#B2B2B2" stroke-miterlimit="10" stroke-linejoin="round"/>
<path d="M300.67 585.888V601.885" stroke="#B2B2B2" stroke-miterlimit="10" stroke-linejoin="round"/>
<path d="M309.352 602.342V592.743" stroke="#B2B2B2" stroke-miterlimit="10" stroke-linejoin="round"/>
<path d="M317.121 585.888V595.029" stroke="#B2B2B2" stroke-miterlimit="10" stroke-linejoin="round"/>
<path d="M328.09 599.598V594.113" stroke="#B2B2B2" stroke-miterlimit="10" stroke-linejoin="round"/>
<path d="M349.81 585.752H342.383V602.562H349.81V585.752Z" fill="#B2B2B2" stroke="#B2B2B2" stroke-miterlimit="10" stroke-linejoin="round"/>
<path d="M354.892 585.752H352.547V602.562H354.892V585.752Z" fill="#B2B2B2" stroke="#B2B2B2" stroke-miterlimit="10" stroke-linejoin="round"/>
<path d="M386.978 566.993H261.455V585.048H386.978V566.993Z" fill="white" stroke="#B2B2B2" stroke-miterlimit="10" stroke-linejoin="round"/>
<path d="M268.357 567.334V580.131" stroke="#B2B2B2" stroke-miterlimit="10" stroke-linejoin="round"/>
<path d="M275.213 584.245V570.077" stroke="#B2B2B2" stroke-miterlimit="10" stroke-linejoin="round"/>
<path d="M283.896 567.334V582.872" stroke="#B2B2B2" stroke-miterlimit="10" stroke-linejoin="round"/>
<path d="M293.494 566.877V578.303" stroke="#B2B2B2" stroke-miterlimit="10" stroke-linejoin="round"/>
<path d="M302.178 567.791V583.788" stroke="#B2B2B2" stroke-miterlimit="10" stroke-linejoin="round"/>
<path d="M310.859 584.245V574.646" stroke="#B2B2B2" stroke-miterlimit="10" stroke-linejoin="round"/>
<path d="M318.629 567.791V576.933" stroke="#B2B2B2" stroke-miterlimit="10" stroke-linejoin="round"/>
<path d="M329.598 581.501V576.017" stroke="#B2B2B2" stroke-miterlimit="10" stroke-linejoin="round"/>
<path d="M351.318 567.655H343.891V584.465H351.318V567.655Z" fill="#B2B2B2" stroke="#B2B2B2" stroke-miterlimit="10" stroke-linejoin="round"/>
<path d="M356.4 567.655H354.055V584.465H356.4V567.655Z" fill="#B2B2B2" stroke="#B2B2B2" stroke-miterlimit="10" stroke-linejoin="round"/>
<path d="M380.947 548.897H255.424V566.953H380.947V548.897Z" fill="white" stroke="#B2B2B2" stroke-miterlimit="10" stroke-linejoin="round"/>
<path d="M262.326 549.238V562.035" stroke="#B2B2B2" stroke-miterlimit="10" stroke-linejoin="round"/>
<path d="M269.182 566.149V551.981" stroke="#B2B2B2" stroke-miterlimit="10" stroke-linejoin="round"/>
<path d="M277.865 549.238V564.777" stroke="#B2B2B2" stroke-miterlimit="10" stroke-linejoin="round"/>
<path d="M287.463 548.781V560.207" stroke="#B2B2B2" stroke-miterlimit="10" stroke-linejoin="round"/>
<path d="M296.146 549.695V565.692" stroke="#B2B2B2" stroke-miterlimit="10" stroke-linejoin="round"/>
<path d="M304.828 566.149V556.551" stroke="#B2B2B2" stroke-miterlimit="10" stroke-linejoin="round"/>
<path d="M312.598 549.695V558.837" stroke="#B2B2B2" stroke-miterlimit="10" stroke-linejoin="round"/>
<path d="M323.566 563.405V557.921" stroke="#B2B2B2" stroke-miterlimit="10" stroke-linejoin="round"/>
<path d="M345.286 549.56H337.859V566.369H345.286V549.56Z" fill="#B2B2B2" stroke="#B2B2B2" stroke-miterlimit="10" stroke-linejoin="round"/>
<path d="M350.368 549.56H348.023V566.369H350.368V549.56Z" fill="#B2B2B2" stroke="#B2B2B2" stroke-miterlimit="10" stroke-linejoin="round"/>
<path d="M393.011 530.802H267.488V548.857H393.011V530.802Z" fill="white" stroke="#B2B2B2" stroke-miterlimit="10" stroke-linejoin="round"/>
<path d="M274.391 531.143V543.94" stroke="#B2B2B2" stroke-miterlimit="10" stroke-linejoin="round"/>
<path d="M281.246 548.053V533.886" stroke="#B2B2B2" stroke-miterlimit="10" stroke-linejoin="round"/>
<path d="M289.93 531.143V546.681" stroke="#B2B2B2" stroke-miterlimit="10" stroke-linejoin="round"/>
<path d="M299.527 530.686V542.112" stroke="#B2B2B2" stroke-miterlimit="10" stroke-linejoin="round"/>
<path d="M308.211 531.6V547.596" stroke="#B2B2B2" stroke-miterlimit="10" stroke-linejoin="round"/>
<path d="M316.893 548.054V538.455" stroke="#B2B2B2" stroke-miterlimit="10" stroke-linejoin="round"/>
<path d="M324.662 531.6V540.741" stroke="#B2B2B2" stroke-miterlimit="10" stroke-linejoin="round"/>
<path d="M335.631 545.31V539.825" stroke="#B2B2B2" stroke-miterlimit="10" stroke-linejoin="round"/>
<path d="M357.351 531.464H349.924V548.274H357.351V531.464Z" fill="#B2B2B2" stroke="#B2B2B2" stroke-miterlimit="10" stroke-linejoin="round"/>
<path d="M362.433 531.464H360.088V548.274H362.433V531.464Z" fill="#B2B2B2" stroke="#B2B2B2" stroke-miterlimit="10" stroke-linejoin="round"/>
<path d="M388.486 512.706H262.963V530.761H388.486V512.706Z" fill="white" stroke="#B2B2B2" stroke-miterlimit="10" stroke-linejoin="round"/>
<path d="M269.865 513.047V525.844" stroke="#B2B2B2" stroke-miterlimit="10" stroke-linejoin="round"/>
<path d="M276.721 529.958V515.79" stroke="#B2B2B2" stroke-miterlimit="10" stroke-linejoin="round"/>
<path d="M285.404 513.047V528.585" stroke="#B2B2B2" stroke-miterlimit="10" stroke-linejoin="round"/>
<path d="M295.002 512.59V524.016" stroke="#B2B2B2" stroke-miterlimit="10" stroke-linejoin="round"/>
<path d="M303.686 513.504V529.501" stroke="#B2B2B2" stroke-miterlimit="10" stroke-linejoin="round"/>
<path d="M312.367 529.958V520.359" stroke="#B2B2B2" stroke-miterlimit="10" stroke-linejoin="round"/>
<path d="M320.137 513.504V522.645" stroke="#B2B2B2" stroke-miterlimit="10" stroke-linejoin="round"/>
<path d="M331.105 527.214V521.729" stroke="#B2B2B2" stroke-miterlimit="10" stroke-linejoin="round"/>
<path d="M352.825 513.368H345.398V530.178H352.825V513.368Z" fill="#B2B2B2" stroke="#B2B2B2" stroke-miterlimit="10" stroke-linejoin="round"/>
<path d="M357.907 513.368H355.562V530.178H357.907V513.368Z" fill="#B2B2B2" stroke="#B2B2B2" stroke-miterlimit="10" stroke-linejoin="round"/>
<path d="M582.762 693.895C616.5 686.079 637.514 652.392 629.698 618.655C621.881 584.917 588.195 563.903 554.457 571.719C520.719 579.536 499.706 613.222 507.522 646.96C515.338 680.698 549.024 701.711 582.762 693.895Z" fill="white" stroke="#263238" stroke-miterlimit="10" stroke-linejoin="round"/>
<path d="M605.576 677.123C630.064 652.636 630.064 612.933 605.576 588.445C581.088 563.957 541.386 563.957 516.898 588.445C492.41 612.933 492.41 652.636 516.898 677.123C541.386 701.611 581.088 701.611 605.576 677.123Z" fill="white" stroke="#263238" stroke-miterlimit="10" stroke-linejoin="round"/>
<path d="M596.881 668.429C616.567 648.743 616.567 616.826 596.881 597.14C577.195 577.454 545.278 577.454 525.592 597.14C505.906 616.826 505.906 648.743 525.592 668.429C545.278 688.115 577.195 688.115 596.881 668.429Z" fill="white" stroke="#263238" stroke-miterlimit="10" stroke-linejoin="round"/>
<path d="M515.19 632.784C515.19 605.674 536.593 583.571 563.423 582.429C562.701 582.399 561.975 582.375 561.245 582.375C533.405 582.375 510.836 604.944 510.836 632.784C510.836 660.625 533.405 683.194 561.245 683.194C561.975 683.194 562.701 683.17 563.423 683.14C536.593 681.998 515.19 659.895 515.19 632.784Z" fill="white" stroke="#263238" stroke-miterlimit="10" stroke-linejoin="round"/>
<path d="M607.979 584.426H603.189" stroke="#263238" stroke-miterlimit="10" stroke-linejoin="round"/>
<path d="M614.074 590.085H610.592" stroke="#263238" stroke-miterlimit="10" stroke-linejoin="round"/>
<path d="M621.91 598.794H617.992" stroke="#263238" stroke-miterlimit="10" stroke-linejoin="round"/>
<path d="M626.266 609.679H621.041" stroke="#263238" stroke-miterlimit="10" stroke-linejoin="round"/>
<path d="M630.184 621.434H625.395" stroke="#263238" stroke-miterlimit="10" stroke-linejoin="round"/>
<path d="M630.183 646.252H624.959" stroke="#263238" stroke-miterlimit="10" stroke-linejoin="round"/>
<path d="M609.719 675.858H614.072" stroke="#263238" stroke-miterlimit="10" stroke-linejoin="round"/>
<path d="M602.318 681.519H607.108" stroke="#263238" stroke-miterlimit="10" stroke-linejoin="round"/>
<path d="M594.48 687.613H599.27" stroke="#263238" stroke-miterlimit="10" stroke-linejoin="round"/>
<path d="M599.707 578.329H592.305" stroke="#263238" stroke-miterlimit="10" stroke-linejoin="round"/>
<path d="M582.254 599.891H552.77H549.737V606.138V608.93H552.499C556.024 608.93 557.559 610.917 557.559 615.437V616.191H549.736V622.438H557.513C557.28 626.87 555.095 628.362 551.592 628.362H549.734V637.401H551.14C555.659 637.401 557.648 639.569 557.648 645.444V655.387C557.648 660.538 558.009 661.532 558.552 663.159H568.675C567.681 660.808 567.591 658.549 567.591 655.475V645.714C567.591 639.117 565.963 634.326 560.992 632.248C564.688 630.514 566.725 627.244 567.306 622.437H582.251V616.189H567.5V614.441C567.5 611.081 566.962 608.326 565.853 606.137H582.251V599.891H582.254Z" fill="#263238"/>
<path d="M646.022 535.855C680.653 535.855 708.728 507.78 708.728 473.149C708.728 438.518 680.653 410.443 646.022 410.443C611.391 410.443 583.316 438.518 583.316 473.149C583.316 507.78 611.391 535.855 646.022 535.855Z" fill="white" stroke="#263238" stroke-miterlimit="10" stroke-linejoin="round"/>
<path d="M638.645 535.855C673.276 535.855 701.351 507.78 701.351 473.149C701.351 438.518 673.276 410.443 638.645 410.443C604.014 410.443 575.939 438.518 575.939 473.149C575.939 507.78 604.014 535.855 638.645 535.855Z" fill="white" stroke="#263238" stroke-miterlimit="10" stroke-linejoin="round"/>
<path d="M638.646 523.558C666.486 523.558 689.055 500.989 689.055 473.149C689.055 445.308 666.486 422.739 638.646 422.739C610.805 422.739 588.236 445.308 588.236 473.149C588.236 500.989 610.805 523.558 638.646 523.558Z" fill="white" stroke="#263238" stroke-miterlimit="10" stroke-linejoin="round"/>
<path d="M592.59 473.149C592.59 446.038 613.993 423.935 640.823 422.794C640.101 422.763 639.376 422.739 638.646 422.739C610.805 422.739 588.236 445.308 588.236 473.149C588.236 500.989 610.805 523.558 638.646 523.558C639.376 523.558 640.101 523.534 640.823 523.504C613.993 522.362 592.59 500.259 592.59 473.149Z" fill="white" stroke="#263238" stroke-miterlimit="10" stroke-linejoin="round"/>
<path d="M685.379 424.79H680.59" stroke="#263238" stroke-miterlimit="10" stroke-linejoin="round"/>
<path d="M691.476 430.45H687.992" stroke="#263238" stroke-miterlimit="10" stroke-linejoin="round"/>
<path d="M699.312 439.157H695.393" stroke="#263238" stroke-miterlimit="10" stroke-linejoin="round"/>
<path d="M703.665 450.043H698.441" stroke="#263238" stroke-miterlimit="10" stroke-linejoin="round"/>
<path d="M707.584 461.799H702.795" stroke="#263238" stroke-miterlimit="10" stroke-linejoin="round"/>
<path d="M707.585 486.615H702.359" stroke="#263238" stroke-miterlimit="10" stroke-linejoin="round"/>
<path d="M687.121 516.224H691.475" stroke="#263238" stroke-miterlimit="10" stroke-linejoin="round"/>
<path d="M679.719 521.883H684.508" stroke="#263238" stroke-miterlimit="10" stroke-linejoin="round"/>
<path d="M671.881 527.979H676.67" stroke="#263238" stroke-miterlimit="10" stroke-linejoin="round"/>
<path d="M677.106 418.693H669.705" stroke="#263238" stroke-miterlimit="10" stroke-linejoin="round"/>
<path d="M664.323 477.934V471.258H659.473L662.507 444.032H654.281L651.49 471.258H647.376L644.682 444.032H635.6L632.986 471.258H628.913L626.003 444.032H616.834L619.868 471.258H613.996V477.934H620.612L621.412 485.124H613.996V491.8H622.156L623.516 504.014H636.456L637.765 491.8H642L643.31 504.014H655.82L657.182 491.8H664.321V485.124H657.927L658.728 477.934H664.323ZM629.626 477.934H632.345L631.655 485.124H630.396L629.626 477.934ZM638.483 485.124L639.254 477.934H640.516L641.286 485.124H638.483ZM650.069 485.124H648.749L648.039 477.934H650.806L650.069 485.124Z" fill="#263238"/>
<path d="M682.269 352.303C706.757 327.815 706.757 288.113 682.269 263.625C657.782 239.137 618.079 239.137 593.591 263.625C569.103 288.113 569.103 327.815 593.591 352.303C618.079 376.791 657.782 376.791 682.269 352.303Z" fill="white" stroke="#263238" stroke-miterlimit="10" stroke-linejoin="round"/>
<path d="M645.25 368.949C678.922 360.849 699.652 326.986 691.552 293.314C683.451 259.642 649.588 238.912 615.916 247.012C582.244 255.112 561.514 288.975 569.614 322.647C577.714 356.32 611.578 377.05 645.25 368.949Z" fill="white" stroke="#263238" stroke-miterlimit="10" stroke-linejoin="round"/>
<path d="M642.342 356.988C669.417 350.499 686.105 323.289 679.615 296.215C673.126 269.14 645.916 252.452 618.842 258.942C591.767 265.432 575.079 292.641 581.569 319.716C588.058 346.79 615.268 363.478 642.342 356.988Z" fill="white" stroke="#263238" stroke-miterlimit="10" stroke-linejoin="round"/>
<path d="M584.504 307.961C584.504 280.85 605.907 258.748 632.737 257.606C632.015 257.576 631.291 257.552 630.56 257.552C602.719 257.552 580.15 280.121 580.15 307.961C580.15 335.802 602.719 358.371 630.56 358.371C631.29 358.371 632.014 358.346 632.737 358.316C605.907 357.175 584.504 335.072 584.504 307.961Z" fill="white" stroke="#263238" stroke-miterlimit="10" stroke-linejoin="round"/>
<path d="M677.291 259.602H672.502" stroke="#263238" stroke-miterlimit="10" stroke-linejoin="round"/>
<path d="M683.39 265.263H679.906" stroke="#263238" stroke-miterlimit="10" stroke-linejoin="round"/>
<path d="M691.226 273.97H687.307" stroke="#263238" stroke-miterlimit="10" stroke-linejoin="round"/>
<path d="M695.581 284.854H690.355" stroke="#263238" stroke-miterlimit="10" stroke-linejoin="round"/>
<path d="M699.498 296.61H694.709" stroke="#263238" stroke-miterlimit="10" stroke-linejoin="round"/>
<path d="M699.497 321.428H694.273" stroke="#263238" stroke-miterlimit="10" stroke-linejoin="round"/>
<path d="M679.033 351.036H683.388" stroke="#263238" stroke-miterlimit="10" stroke-linejoin="round"/>
<path d="M671.633 356.695H676.422" stroke="#263238" stroke-miterlimit="10" stroke-linejoin="round"/>
<path d="M663.795 362.791H668.584" stroke="#263238" stroke-miterlimit="10" stroke-linejoin="round"/>
<path d="M669.02 253.506H661.617" stroke="#263238" stroke-miterlimit="10" stroke-linejoin="round"/>
<path d="M636.574 277.824H621.931V307.669H613.613V316.143H621.931V324.616H613.951V331.057H621.931V341.091H631.874V331.057H639.602V324.616H631.874V317.319H636.574C646.516 317.319 651.396 311.805 651.396 301.682V293.459C651.396 283.337 646.516 277.824 636.574 277.824ZM641.454 302.317C641.454 306.837 639.736 308.283 636.574 308.283H631.874V286.862H636.574C639.738 286.862 641.454 288.308 641.454 292.827V302.317Z" fill="#263238"/>
<path d="M580.21 205.883C614.841 205.883 642.915 177.809 642.915 143.177C642.915 108.546 614.841 80.4717 580.21 80.4717C545.578 80.4717 517.504 108.546 517.504 143.177C517.504 177.809 545.578 205.883 580.21 205.883Z" fill="white" stroke="#263238" stroke-miterlimit="10" stroke-linejoin="round"/>
<path d="M572.833 205.883C607.464 205.883 635.538 177.809 635.538 143.177C635.538 108.546 607.464 80.4717 572.833 80.4717C538.201 80.4717 510.127 108.546 510.127 143.177C510.127 177.809 538.201 205.883 572.833 205.883Z" fill="white" stroke="#263238" stroke-miterlimit="10" stroke-linejoin="round"/>
<path d="M583.115 192.538C610.371 186.862 627.864 160.165 622.187 132.909C616.51 105.653 589.814 88.1601 562.558 93.8368C535.302 99.5134 517.809 126.21 523.486 153.466C529.162 180.722 555.859 198.215 583.115 192.538Z" fill="white" stroke="#263238" stroke-miterlimit="10" stroke-linejoin="round"/>
<path d="M526.777 143.177C526.777 116.066 548.18 93.9634 575.011 92.8219C574.288 92.7917 573.563 92.7676 572.833 92.7676C544.993 92.7676 522.424 115.336 522.424 143.179C522.424 171.019 544.993 193.588 572.833 193.588C573.563 193.588 574.288 193.564 575.011 193.534C548.18 192.391 526.777 170.288 526.777 143.177Z" fill="white" stroke="#263238" stroke-miterlimit="10" stroke-linejoin="round"/>
<path d="M619.567 94.8174H614.777" stroke="#263238" stroke-miterlimit="10" stroke-linejoin="round"/>
<path d="M625.663 100.479H622.18" stroke="#263238" stroke-miterlimit="10" stroke-linejoin="round"/>
<path d="M633.5 109.186H629.582" stroke="#263238" stroke-miterlimit="10" stroke-linejoin="round"/>
<path d="M637.853 120.071H632.629" stroke="#263238" stroke-miterlimit="10" stroke-linejoin="round"/>
<path d="M641.772 131.826H636.982" stroke="#263238" stroke-miterlimit="10" stroke-linejoin="round"/>
<path d="M641.772 156.644H636.547" stroke="#263238" stroke-miterlimit="10" stroke-linejoin="round"/>
<path d="M621.309 186.252H625.662" stroke="#263238" stroke-miterlimit="10" stroke-linejoin="round"/>
<path d="M613.906 191.911H618.696" stroke="#263238" stroke-miterlimit="10" stroke-linejoin="round"/>
<path d="M606.068 198.007H610.858" stroke="#263238" stroke-miterlimit="10" stroke-linejoin="round"/>
<path d="M611.294 88.7217H603.893" stroke="#263238" stroke-miterlimit="10" stroke-linejoin="round"/>
<path d="M589.653 121.925V112.886H563.351V158.011H556.221V164.043H563.351V176.155H573.293V164.043H581.355V158.011H573.293V150.034H586.129V140.995H573.293V121.925H589.653Z" fill="#263238"/>
<path d="M410.501 167.326C444.238 159.509 465.252 125.823 457.436 92.0853C449.619 58.3474 415.933 37.3338 382.195 45.1501C348.457 52.9664 327.444 86.6527 335.26 120.391C343.076 154.128 376.763 175.142 410.501 167.326Z" fill="white" stroke="#263238" stroke-miterlimit="10" stroke-linejoin="round"/>
<path d="M433.307 150.567C457.794 126.079 457.794 86.3762 433.307 61.8884C408.819 37.4005 369.116 37.4005 344.628 61.8884C320.14 86.3762 320.14 126.079 344.628 150.567C369.116 175.055 408.819 175.055 433.307 150.567Z" fill="white" stroke="#263238" stroke-miterlimit="10" stroke-linejoin="round"/>
<path d="M424.611 141.872C444.297 122.186 444.297 90.269 424.611 70.583C404.925 50.8971 373.008 50.8971 353.322 70.583C333.636 90.269 333.636 122.186 353.322 141.872C373.008 161.558 404.925 161.558 424.611 141.872Z" fill="white" stroke="#263238" stroke-miterlimit="10" stroke-linejoin="round"/>
<path d="M342.914 106.225C342.914 79.1146 364.317 57.0118 391.147 55.8702C390.425 55.8401 389.7 55.8145 388.97 55.8145C361.129 55.8145 338.561 78.3832 338.561 106.224C338.561 134.065 361.131 156.635 388.97 156.635C389.7 156.635 390.425 156.611 391.147 156.581C364.319 155.439 342.914 133.336 342.914 106.225Z" fill="white" stroke="#263238" stroke-miterlimit="10" stroke-linejoin="round"/>
<path d="M435.704 57.8652H430.914" stroke="#263238" stroke-miterlimit="10" stroke-linejoin="round"/>
<path d="M441.8 63.5264H438.316" stroke="#263238" stroke-miterlimit="10" stroke-linejoin="round"/>
<path d="M449.637 72.2334H445.719" stroke="#263238" stroke-miterlimit="10" stroke-linejoin="round"/>
<path d="M453.991 83.1201H448.766" stroke="#263238" stroke-miterlimit="10" stroke-linejoin="round"/>
<path d="M457.909 94.875H453.119" stroke="#263238" stroke-miterlimit="10" stroke-linejoin="round"/>
<path d="M457.909 119.692H452.684" stroke="#263238" stroke-miterlimit="10" stroke-linejoin="round"/>
<path d="M437.445 149.3H441.799" stroke="#263238" stroke-miterlimit="10" stroke-linejoin="round"/>
<path d="M430.045 154.96H434.834" stroke="#263238" stroke-miterlimit="10" stroke-linejoin="round"/>
<path d="M422.207 161.055H426.996" stroke="#263238" stroke-miterlimit="10" stroke-linejoin="round"/>
<path d="M427.431 51.7705H420.029" stroke="#263238" stroke-miterlimit="10" stroke-linejoin="round"/>
<path d="M402.438 93.969V89.3591C402.438 79.2359 397.647 73.4512 387.887 73.4512C378.126 73.4512 373.337 79.2359 373.337 89.3591V98.1266H370.805V103.097H373.337V108.067H370.805V113.039H373.337V122.258C373.337 132.381 378.128 138.165 387.887 138.165C397.649 138.165 402.438 132.381 402.438 122.258V117.197H393.039V122.891C393.039 127.41 391.321 129.038 388.159 129.038C384.995 129.038 383.279 127.41 383.279 122.891V113.039H397.198V108.067H383.279V103.097H397.198V98.1266H383.279V88.7272C383.279 84.2077 384.996 82.4901 388.159 82.4901C391.323 82.4901 393.039 84.2077 393.039 88.7272V93.969H402.438Z" fill="#263238"/>
<path d="M211.151 205.883C245.782 205.883 273.857 177.809 273.857 143.177C273.857 108.546 245.782 80.4717 211.151 80.4717C176.52 80.4717 148.445 108.546 148.445 143.177C148.445 177.809 176.52 205.883 211.151 205.883Z" fill="white" stroke="#263238" stroke-miterlimit="10" stroke-linejoin="round"/>
<path d="M203.774 205.883C238.405 205.883 266.48 177.809 266.48 143.177C266.48 108.546 238.405 80.4717 203.774 80.4717C169.143 80.4717 141.068 108.546 141.068 143.177C141.068 177.809 169.143 205.883 203.774 205.883Z" fill="white" stroke="#263238" stroke-miterlimit="10" stroke-linejoin="round"/>
<path d="M215.188 192.276C242.305 185.97 259.175 158.876 252.869 131.759C246.563 104.643 219.469 87.7725 192.353 94.0784C165.236 100.384 148.366 127.478 154.672 154.595C160.977 181.711 188.072 198.582 215.188 192.276Z" fill="white" stroke="#263238" stroke-miterlimit="10" stroke-linejoin="round"/>
<path d="M157.717 143.177C157.717 116.066 179.12 93.9634 205.95 92.8219C205.228 92.7917 204.504 92.7676 203.773 92.7676C175.932 92.7676 153.363 115.336 153.363 143.179C153.363 171.019 175.932 193.588 203.773 193.588C204.503 193.588 205.226 193.564 205.95 193.534C179.121 192.391 157.717 170.288 157.717 143.177Z" fill="white" stroke="#263238" stroke-miterlimit="10" stroke-linejoin="round"/>
<path d="M250.506 94.8174H245.717" stroke="#263238" stroke-miterlimit="10" stroke-linejoin="round"/>
<path d="M256.603 100.479H253.121" stroke="#263238" stroke-miterlimit="10" stroke-linejoin="round"/>
<path d="M264.439 109.186H260.521" stroke="#263238" stroke-miterlimit="10" stroke-linejoin="round"/>
<path d="M268.794 120.071H263.568" stroke="#263238" stroke-miterlimit="10" stroke-linejoin="round"/>
<path d="M272.711 131.826H267.922" stroke="#263238" stroke-miterlimit="10" stroke-linejoin="round"/>
<path d="M272.712 156.644H267.486" stroke="#263238" stroke-miterlimit="10" stroke-linejoin="round"/>
<path d="M252.248 186.252H256.602" stroke="#263238" stroke-miterlimit="10" stroke-linejoin="round"/>
<path d="M244.848 191.911H249.637" stroke="#263238" stroke-miterlimit="10" stroke-linejoin="round"/>
<path d="M237.01 198.007H241.799" stroke="#263238" stroke-miterlimit="10" stroke-linejoin="round"/>
<path d="M242.233 88.7217H234.832" stroke="#263238" stroke-miterlimit="10" stroke-linejoin="round"/>
<path d="M219.263 130.452V124.215C219.263 114.091 214.292 108.307 204.622 108.307C194.951 108.307 189.979 114.091 189.979 124.215C189.979 135.241 194.227 139.399 196.397 145.636H190.339V153.317H197.661C197.48 159.824 193.775 163.622 189.074 163.622V172.299H218.631V163.26H201.548C204.26 161.091 206.158 157.927 206.609 153.317H216.913V145.636H205.976C204.258 138.767 199.92 134.881 199.92 123.581C199.92 119.062 201.728 117.344 204.892 117.344C208.055 117.344 209.864 119.062 209.864 123.581V130.45L219.263 130.452Z" fill="#263238"/>
<path d="M161.818 352.299C186.306 327.811 186.306 288.109 161.818 263.621C137.33 239.133 97.6278 239.133 73.14 263.621C48.6521 288.109 48.6521 327.811 73.14 352.299C97.6278 376.787 137.33 376.787 161.818 352.299Z" fill="white" stroke="#263238" stroke-miterlimit="10" stroke-linejoin="round"/>
<path d="M124.692 368.958C158.375 360.903 179.15 327.068 171.095 293.385C163.039 259.703 129.204 238.928 95.5217 246.983C61.8392 255.038 41.0643 288.873 49.1195 322.556C57.1748 356.238 91.0099 377.013 124.692 368.958Z" fill="white" stroke="#263238" stroke-miterlimit="10" stroke-linejoin="round"/>
<path d="M121.818 356.983C148.895 350.513 165.601 323.317 159.131 296.24C152.661 269.162 125.465 252.456 98.3876 258.926C71.31 265.397 54.6044 292.592 61.0745 319.67C67.5446 346.747 94.7403 363.453 121.818 356.983Z" fill="white" stroke="#263238" stroke-miterlimit="10" stroke-linejoin="round"/>
<path d="M64.0489 307.961C64.0489 280.85 85.452 258.748 112.282 257.606C111.56 257.576 110.835 257.552 110.105 257.552C82.264 257.552 59.6953 280.121 59.6953 307.961C59.6953 335.802 82.264 358.371 110.105 358.371C110.835 358.371 111.56 358.346 112.282 358.316C85.452 357.175 64.0489 335.072 64.0489 307.961Z" fill="white" stroke="#263238" stroke-miterlimit="10" stroke-linejoin="round"/>
<path d="M156.838 259.602H152.049" stroke="#263238" stroke-miterlimit="10" stroke-linejoin="round"/>
<path d="M162.933 265.262H159.451" stroke="#263238" stroke-miterlimit="10" stroke-linejoin="round"/>
<path d="M170.769 273.97H166.852" stroke="#263238" stroke-miterlimit="10" stroke-linejoin="round"/>
<path d="M175.126 284.854H169.9" stroke="#263238" stroke-miterlimit="10" stroke-linejoin="round"/>
<path d="M179.043 296.61H174.254" stroke="#263238" stroke-miterlimit="10" stroke-linejoin="round"/>
<path d="M179.042 321.428H173.818" stroke="#263238" stroke-miterlimit="10" stroke-linejoin="round"/>
<path d="M158.58 351.036H162.934" stroke="#263238" stroke-miterlimit="10" stroke-linejoin="round"/>
<path d="M151.178 356.695H155.967" stroke="#263238" stroke-miterlimit="10" stroke-linejoin="round"/>
<path d="M143.342 362.791H148.131" stroke="#263238" stroke-miterlimit="10" stroke-linejoin="round"/>
<path d="M148.567 253.506H141.164" stroke="#263238" stroke-miterlimit="10" stroke-linejoin="round"/>
<path d="M107.529 290.787C107.529 286.267 109.337 284.551 112.5 284.551C115.664 284.551 117.471 286.269 117.471 290.787V293.408H126.87V291.419C126.87 282.832 123.256 277.409 116.206 275.963V271.263H108.07V275.963C101.111 277.5 97.5863 282.923 97.5863 291.419C97.5863 309.495 117.018 310.128 117.018 323.144C117.018 327.663 115.031 329.291 111.867 329.291C108.703 329.291 106.716 327.663 106.716 323.144V318.172H97.3164V322.511C97.3164 331.097 100.931 336.612 108.071 338.058V342.668H116.207V338.058C123.257 336.612 126.964 331.099 126.964 322.511C126.961 304.434 107.529 303.802 107.529 290.787Z" fill="#263238"/>
<path d="M109.713 535.855C144.345 535.855 172.419 507.78 172.419 473.149C172.419 438.518 144.345 410.443 109.713 410.443C75.0821 410.443 47.0078 438.518 47.0078 473.149C47.0078 507.78 75.0821 535.855 109.713 535.855Z" fill="white" stroke="#263238" stroke-miterlimit="10" stroke-linejoin="round"/>
<path d="M102.337 535.855C136.968 535.855 165.042 507.78 165.042 473.149C165.042 438.518 136.968 410.443 102.337 410.443C67.7051 410.443 39.6309 438.518 39.6309 473.149C39.6309 507.78 67.7051 535.855 102.337 535.855Z" fill="white" stroke="#263238" stroke-miterlimit="10" stroke-linejoin="round"/>
<path d="M102.337 523.558C130.178 523.558 152.747 500.989 152.747 473.149C152.747 445.308 130.178 422.739 102.337 422.739C74.4968 422.739 51.9277 445.308 51.9277 473.149C51.9277 500.989 74.4968 523.558 102.337 523.558Z" fill="white" stroke="#263238" stroke-miterlimit="10" stroke-linejoin="round"/>
<path d="M56.2813 473.149C56.2813 446.038 77.6844 423.935 104.515 422.794C103.792 422.763 103.067 422.739 102.337 422.739C74.4965 422.739 51.9277 445.308 51.9277 473.149C51.9277 500.989 74.4965 523.558 102.337 523.558C103.067 523.558 103.792 523.534 104.515 523.504C77.6844 522.362 56.2813 500.259 56.2813 473.149Z" fill="white" stroke="#263238" stroke-miterlimit="10" stroke-linejoin="round"/>
<path d="M149.071 424.79H144.281" stroke="#263238" stroke-miterlimit="10" stroke-linejoin="round"/>
<path d="M155.167 430.45H151.684" stroke="#263238" stroke-miterlimit="10" stroke-linejoin="round"/>
<path d="M163.004 439.157H159.086" stroke="#263238" stroke-miterlimit="10" stroke-linejoin="round"/>
<path d="M167.357 450.043H162.133" stroke="#263238" stroke-miterlimit="10" stroke-linejoin="round"/>
<path d="M171.276 461.799H166.486" stroke="#263238" stroke-miterlimit="10" stroke-linejoin="round"/>
<path d="M171.276 486.615H166.051" stroke="#263238" stroke-miterlimit="10" stroke-linejoin="round"/>
<path d="M150.812 516.224H155.166" stroke="#263238" stroke-miterlimit="10" stroke-linejoin="round"/>
<path d="M143.41 521.883H148.201" stroke="#263238" stroke-miterlimit="10" stroke-linejoin="round"/>
<path d="M135.572 527.979H140.362" stroke="#263238" stroke-miterlimit="10" stroke-linejoin="round"/>
<path d="M140.798 418.693H133.396" stroke="#263238" stroke-miterlimit="10" stroke-linejoin="round"/>
<path d="M114.127 470.893C118.556 468.815 120.543 464.656 120.543 458.149V455.89C120.543 448.037 117.671 443.409 111.185 441.896V431.352H106.103V441.347C106.003 441.346 105.913 441.338 105.812 441.338H102.111V431.351H97.0291V441.338H90.8086V504.606H97.0291V513.568H102.111V504.606H106.104V513.568H111.186V504.125C118.014 502.637 121.539 497.666 121.539 489.603V484.452C121.537 477.764 119.459 472.973 114.127 470.893ZM100.748 450.377H105.539C109.064 450.377 110.6 452.365 110.6 456.884V460.41C110.6 465.469 108.341 467.099 104.634 467.099H100.748V450.377ZM111.595 489.333C111.595 494.032 109.788 495.569 106.444 495.569H100.749V476.137H105.18C109.698 476.137 111.596 477.943 111.596 483.82L111.595 489.333Z" fill="#263238"/>
<path d="M236.535 677.121C261.023 652.634 261.023 612.931 236.535 588.443C212.047 563.955 172.345 563.955 147.857 588.443C123.369 612.931 123.369 652.634 147.857 677.121C172.345 701.609 212.047 701.609 236.535 677.121Z" fill="white" stroke="#263238" stroke-miterlimit="10" stroke-linejoin="round"/>
<path d="M194.699 694.728C228.901 689.284 252.214 657.145 246.77 622.943C241.326 588.741 209.187 565.428 174.985 570.872C140.783 576.316 117.47 608.456 122.914 642.658C128.358 676.86 160.497 700.172 194.699 694.728Z" fill="white" stroke="#263238" stroke-miterlimit="10" stroke-linejoin="round"/>
<path d="M230.906 653.32C242.243 627.891 230.818 598.086 205.388 586.749C179.958 575.412 150.152 586.836 138.816 612.266C127.479 637.695 138.904 667.5 164.334 678.837C189.765 690.174 219.57 678.75 230.906 653.32Z" fill="white" stroke="#263238" stroke-miterlimit="10" stroke-linejoin="round"/>
<path d="M138.768 632.784C138.768 605.674 160.171 583.571 187.001 582.429C186.279 582.399 185.555 582.375 184.823 582.375C156.983 582.375 134.414 604.944 134.414 632.784C134.414 660.625 156.983 683.194 184.823 683.194C185.553 683.194 186.279 683.17 187.001 683.14C160.171 681.998 138.768 659.895 138.768 632.784Z" fill="white" stroke="#263238" stroke-miterlimit="10" stroke-linejoin="round"/>
<path d="M231.559 584.426H226.77" stroke="#263238" stroke-miterlimit="10" stroke-linejoin="round"/>
<path d="M237.653 590.086H234.17" stroke="#263238" stroke-miterlimit="10" stroke-linejoin="round"/>
<path d="M245.492 598.794H241.572" stroke="#263238" stroke-miterlimit="10" stroke-linejoin="round"/>
<path d="M249.844 609.679H244.619" stroke="#263238" stroke-miterlimit="10" stroke-linejoin="round"/>
<path d="M253.764 621.434H248.975" stroke="#263238" stroke-miterlimit="10" stroke-linejoin="round"/>
<path d="M253.764 646.253H248.539" stroke="#263238" stroke-miterlimit="10" stroke-linejoin="round"/>
<path d="M233.301 675.859H237.654" stroke="#263238" stroke-miterlimit="10" stroke-linejoin="round"/>
<path d="M225.898 681.519H230.688" stroke="#263238" stroke-miterlimit="10" stroke-linejoin="round"/>
<path d="M218.061 687.614H222.85" stroke="#263238" stroke-miterlimit="10" stroke-linejoin="round"/>
<path d="M223.286 578.329H215.885" stroke="#263238" stroke-miterlimit="10" stroke-linejoin="round"/>
<path d="M203.619 603.171L192.05 641.946H199.552V646.916H191.328V650.984H199.552V655.954H191.328V666.439H181.385V655.954H173.161V650.984H181.385V646.916H173.161V641.946H180.571L169.094 603.171H179.488L186.808 631.099L194.128 603.171H203.619Z" fill="#263238"/>
<path d="M413.394 681.011L426.048 694.538C426.048 694.538 442.425 703.129 443.23 703.666C444.036 704.203 443.23 711.72 443.23 711.72H386.729C385.62 711.72 384.732 710.803 384.767 709.697L385.239 694.807C385.239 694.807 406.109 677.686 413.394 681.011Z" fill="white" stroke="#263238" stroke-miterlimit="10"/>
<path d="M443.587 706.082H384.883L384.769 709.695C384.734 710.802 385.622 711.72 386.73 711.72H443.232C443.232 711.72 443.579 708.462 443.587 706.082Z" fill="white" stroke="#263238" stroke-miterlimit="10"/>
<path d="M309.738 685.097C309.738 685.097 310.333 691.047 309.797 693.465C309.26 695.88 301.474 701.25 300.937 704.471C300.4 707.693 300.669 710.915 300.669 710.915H341.745C341.745 710.915 343.624 705.277 343.087 700.177C342.55 695.075 341.395 685.097 341.395 685.097H309.738Z" fill="white" stroke="#263238" stroke-miterlimit="10"/>
<path d="M342.772 706.619H300.689C300.514 708.984 300.669 710.915 300.669 710.915H341.745C341.745 710.915 342.347 709.109 342.772 706.619Z" fill="white" stroke="#263238" stroke-miterlimit="10"/>
<path d="M317.155 430.931L313.312 484.697V662.119L309.738 668.758V685.097H341.396C341.396 685.097 343.949 670.8 343.949 668.758C343.949 666.716 342.928 663.652 342.928 661.61C342.928 659.568 363.863 489.805 363.863 489.805L367.949 488.784L381.225 672.844L378.161 676.93L385.309 696.844L408.797 682.036L413.394 681.015V667.738C413.394 667.738 411.862 662.121 411.862 655.994C411.862 649.867 412.373 492.869 412.373 492.869L411.862 429.553L317.155 430.931Z" fill="#263238" stroke="#263238" stroke-miterlimit="10"/>
<path d="M396.701 346.483L414.797 389.838L419.321 419.998L427.992 427.161C427.992 427.161 444.58 391.723 444.957 387.953C445.334 384.183 416.682 315.946 415.174 311.045C413.666 306.144 406.88 304.259 406.88 304.259H399.717" fill="white"/>
<path d="M396.701 346.483L414.797 389.838L419.321 419.998L427.992 427.161C427.992 427.161 444.58 391.723 444.957 387.953C445.334 384.183 416.682 315.946 415.174 311.045C413.666 306.144 406.88 304.259 406.88 304.259H399.717" stroke="#263238" stroke-miterlimit="10"/>
<path d="M415.551 387.199C415.551 387.199 420.075 374.758 430.254 374.758" stroke="#263238" stroke-miterlimit="10"/>
<path d="M418.191 413.211C418.191 413.211 426.485 404.54 431.763 418.112" stroke="#263238" stroke-miterlimit="10"/>
<path d="M430.254 423.768C430.254 423.768 425.353 416.605 422.714 416.228C420.075 415.851 417.059 418.113 417.059 418.113L411.027 423.014C411.027 423.014 404.618 431.685 405.372 433.57C406.126 435.455 410.273 449.027 411.404 449.404C412.535 449.781 418.19 445.257 418.19 445.257C418.19 445.257 426.484 438.094 427.238 433.947C427.992 429.8 430.254 423.768 430.254 423.768Z" fill="white" stroke="#263238" stroke-miterlimit="10"/>
<path d="M409.143 326.125L411.405 410.573C411.405 410.573 415.929 423.768 414.421 427.915C412.913 432.062 409.897 433.947 409.897 433.947C409.897 433.947 329.596 435.455 324.695 435.078C319.794 434.701 317.155 430.931 317.155 430.931L295.289 308.406L341.66 285.409C341.66 285.409 355.232 281.639 364.28 280.885C373.328 280.131 410.274 306.898 410.274 306.898L411.028 309.914" fill="white"/>
<path d="M409.143 326.125L411.405 410.573C411.405 410.573 415.929 423.768 414.421 427.915C412.913 432.062 409.897 433.947 409.897 433.947C409.897 433.947 329.596 435.455 324.695 435.078C319.794 434.701 317.155 430.931 317.155 430.931L295.289 308.406L341.66 285.409C341.66 285.409 355.232 281.639 364.28 280.885C373.328 280.131 410.274 306.898 410.274 306.898L411.028 309.914" stroke="#263238" stroke-miterlimit="10"/>
<path d="M360.887 309.914L371.82 320.093L363.903 401.525L375.213 424.522L388.408 399.263L376.344 321.224L385.015 305.767L371.443 296.342L360.887 309.914Z" fill="#263238" stroke="#263238" stroke-miterlimit="10"/>
<path d="M352.594 270.329L344.3 275.607L338.268 289.556L354.102 321.978L365.789 305.767L374.248 310.054L381.246 305.39L395.195 317.454C395.195 317.454 386.147 290.31 383.508 283.147C380.869 275.984 375.214 272.591 372.952 271.083C370.69 269.575 357.495 268.821 352.594 270.329Z" fill="white" stroke="#263238" stroke-miterlimit="10"/>
<path d="M379.797 209.787C379.797 209.787 387.937 215.707 390.527 219.776C393.116 223.846 392.746 228.657 394.226 230.136C395.705 231.615 404.216 233.836 404.216 237.166C404.216 240.496 397.926 246.045 397.926 246.045C397.926 246.045 399.036 263.434 397.557 266.025C396.078 268.614 381.278 269.354 381.278 269.354C381.278 269.354 379.799 289.703 379.799 295.624C379.799 301.544 374.249 310.054 374.249 310.054L363.149 299.694C363.149 299.694 352.42 284.154 350.939 279.714C349.458 275.275 351.308 258.994 351.308 258.994C351.308 258.994 333.919 240.865 336.139 225.325C338.359 209.785 362.778 208.676 363.518 207.196C364.259 205.717 359.819 203.126 364.998 201.276C370.178 199.428 382.386 205.347 379.797 209.787Z" fill="white" stroke="#263238" stroke-miterlimit="10"/>
<path d="M364.998 201.277C359.818 203.127 364.257 205.716 363.518 207.197C362.778 208.676 338.359 209.786 336.139 225.326C333.919 240.866 351.308 258.995 351.308 258.995C351.308 258.995 351.269 259.345 351.207 259.944L353.528 258.255C353.528 258.255 349.088 251.965 349.458 247.526C349.827 243.086 355.007 241.976 356.117 243.086C357.227 244.196 358.337 247.156 361.667 247.897C364.996 248.637 363.517 243.457 363.517 243.457L360.557 234.207C360.557 234.207 370.917 226.067 370.546 223.477C370.176 220.888 364.996 217.557 364.996 217.557L379.796 209.788C382.386 205.347 370.178 199.426 364.998 201.277Z" fill="#263238" stroke="#263238" stroke-miterlimit="10"/>
<path d="M391.379 228.621C392.803 233.207 391.503 237.686 388.479 238.625C385.454 239.563 381.849 236.606 380.425 232.02C379.002 227.435 380.3 222.956 383.325 222.016C386.35 221.078 389.956 224.036 391.379 228.621Z" stroke="#263238" stroke-miterlimit="10"/>
<path d="M391.209 220.897C393.566 221.549 395.861 224.072 396.929 227.512C397.285 228.658 397.208 230.427 397.239 231.506" stroke="#263238" stroke-miterlimit="10"/>
<path d="M388.836 231.731C389.198 233.534 388.923 235.11 388.222 235.251C387.521 235.391 386.658 234.044 386.296 232.241C385.934 230.437 386.209 228.861 386.91 228.721C387.611 228.581 388.474 229.929 388.836 231.731Z" fill="#263238"/>
<path d="M380.425 232.021L356.117 243.086" stroke="#263238" stroke-miterlimit="10"/>
<path d="M391.379 228.622L396.569 226.37" stroke="#263238" stroke-miterlimit="10"/>
<path d="M395.571 249.97C395.571 249.97 390.545 252.986 386.271 247.206" stroke="#263238" stroke-miterlimit="10"/>
<path d="M381.277 269.356L368.428 268.82L380.492 278.999L381.277 269.356Z" fill="#263238" stroke="#263238" stroke-miterlimit="10"/>
<path d="M353.527 258.256L358.247 260.15L361.263 257.134" stroke="#263238" stroke-miterlimit="10"/>
<path d="M295.288 308.405L258.342 392.099L276.815 404.917L312.63 358.294" fill="white"/>
<path d="M295.288 308.405L258.342 392.099L276.815 404.917L312.63 358.294" stroke="#263238" stroke-miterlimit="10"/>
<path d="M279.455 377.773L311.5 424.144L297.174 434.323C297.174 434.323 256.835 399.639 256.458 396.246C256.081 392.853 263.244 381.543 263.244 381.543" fill="white"/>
<path d="M279.455 377.773L311.5 424.144L297.174 434.323C297.174 434.323 256.835 399.639 256.458 396.246C256.081 392.853 263.244 381.543 263.244 381.543" stroke="#263238" stroke-miterlimit="10"/>
<path d="M293.027 430.553L307.353 419.243" stroke="#263238" stroke-miterlimit="10"/>
<path d="M311.5 424.145C311.5 424.145 327.301 438.249 328.055 439.757C328.809 441.265 329.563 443.15 328.432 445.412C327.301 447.674 324.318 447.896 324.318 447.896C324.318 447.896 320.548 455.059 315.647 455.813C310.746 456.567 304.714 454.305 303.96 451.289C303.206 448.273 302.452 445.257 302.452 445.257L297.174 434.324L311.5 424.145Z" fill="white" stroke="#263238" stroke-miterlimit="10"/>
<path d="M302.451 445.257C302.451 445.257 307.352 450.535 309.991 451.666" stroke="#263238" stroke-miterlimit="10"/>
<path d="M684.645 711.721H731.393" stroke="#263238" stroke-miterlimit="10"/>
<path d="M31.6797 711.721H671.072" stroke="#263238" stroke-miterlimit="10"/>
</g>
<defs>
<clipPath id="clip0_467_22775">
<rect width="731" height="754" fill="white" transform="translate(0.0117188 0.972656)"/>
</clipPath>
</defs>
</svg>
