<svg width="755" height="741" viewBox="0 0 755 741" fill="none" xmlns="http://www.w3.org/2000/svg">
<path d="M494.884 67.1713C494.884 67.1713 375.236 20.167 260.809 86.5054C146.382 152.844 91.4128 289.334 43.9938 398.572C-3.42531 507.812 28.6031 621.164 118.757 674.954C208.912 728.744 267.246 654.779 391.686 654.566C516.127 654.353 550.116 673.757 651.499 603.65C752.882 533.543 766.932 361.69 681.985 231.875C597.038 102.06 494.884 67.1713 494.884 67.1713Z" fill="#5050D8"/>
<path opacity="0.7" d="M494.884 67.1713C494.884 67.1713 375.236 20.167 260.809 86.5054C146.382 152.844 91.4128 289.334 43.9938 398.572C-3.42531 507.812 28.6031 621.164 118.757 674.954C208.912 728.744 267.246 654.779 391.686 654.566C516.127 654.353 550.116 673.757 651.499 603.65C752.882 533.543 766.932 361.69 681.985 231.875C597.038 102.06 494.884 67.1713 494.884 67.1713Z" fill="white"/>
<path d="M631.785 85.7108C628.861 84.1169 627.532 85.4454 626.469 84.1169C625.406 82.7883 629.393 79.3335 621.419 75.8772C621.419 75.8772 620.888 68.4352 609.99 68.1698C599.093 67.9044 602.017 75.6118 599.093 77.4726C596.169 79.3335 595.373 76.4095 592.449 78.2704C589.525 80.1312 590.853 83.8515 588.462 84.3838C586.07 84.9146 582.88 81.9921 579.956 83.8515C577.032 85.7123 577.032 87.3063 575.704 87.3063C574.375 87.3063 571.717 86.2432 570.123 87.3063C568.529 88.3694 566.668 89.698 566.668 89.698H633.91C633.91 89.698 634.707 87.3063 631.785 85.7108Z" stroke="#92989B" stroke-miterlimit="10" stroke-linecap="round" stroke-linejoin="round"/>
<path d="M592.007 84.6191C591.692 84.8016 591.303 84.9871 590.82 85.1801" stroke="#92989B" stroke-miterlimit="10" stroke-linecap="round" stroke-linejoin="round"/>
<path d="M606.392 72.2041C606.392 72.2041 604.284 73.0154 603.797 75.4478C603.31 77.8802 602.174 79.5028 600.878 79.6657C599.579 79.8286 594.714 79.3415 593.903 81.1254C593.618 81.7528 593.553 82.2791 593.449 82.7541" stroke="#92989B" stroke-miterlimit="10" stroke-linecap="round" stroke-linejoin="round"/>
<path d="M585.273 84.0342H589.941" stroke="#92989B" stroke-miterlimit="10" stroke-linecap="round" stroke-linejoin="round"/>
<path d="M626.47 84.0337H657.898C657.898 84.0337 660.424 76.4545 651.162 71.4027C641.9 66.3509 637.689 70.5613 634.321 66.3509C630.953 62.1406 643.583 51.194 618.321 40.2459C618.321 40.2459 616.638 16.6684 582.112 15.8269C547.588 14.9854 556.85 39.4045 547.588 45.2992C538.326 51.194 535.798 41.9319 526.536 47.8251C517.273 53.7199 521.483 65.5095 513.905 67.1939C506.328 68.8783 496.222 59.6162 486.959 65.5095C477.697 71.4027 477.697 76.456 473.486 76.456C469.276 76.456 460.855 73.0887 455.802 76.456C450.75 79.8249 444.855 84.0352 444.855 84.0352H579.959" stroke="#92989B" stroke-miterlimit="10" stroke-linecap="round" stroke-linejoin="round"/>
<path d="M525.133 67.9453C524.133 68.5229 522.901 69.111 521.375 69.7217" stroke="#92989B" stroke-miterlimit="10" stroke-linecap="round" stroke-linejoin="round"/>
<path d="M529.699 62.0347C530.031 60.5267 530.236 58.8589 531.138 56.8728C533.707 51.2194 549.124 52.762 553.236 52.2478C557.347 51.7336 560.945 46.5943 562.486 38.8869C564.027 31.178 570.709 28.6084 570.709 28.6084" stroke="#92989B" stroke-miterlimit="10" stroke-linecap="round" stroke-linejoin="round"/>
<path d="M189.497 84.8695C185.276 82.5683 183.358 84.4865 181.824 82.5683C180.289 80.6502 186.045 75.6617 174.534 70.6747C174.534 70.6747 173.767 59.9317 158.037 59.5487C142.307 59.1657 146.526 70.2917 142.307 72.9775C138.086 75.6632 136.935 71.4438 132.714 74.1281C128.494 76.8138 130.412 82.1853 126.96 82.9529C123.507 83.7204 118.903 79.4996 114.683 82.1853C110.462 84.8711 110.462 87.1723 108.544 87.1723C106.626 87.1723 102.788 85.6371 100.487 87.1723C98.1857 88.7074 95.5 90.6256 95.5 90.6256H192.567C192.567 90.6256 193.718 87.1723 189.497 84.8695Z" stroke="#92989B" stroke-miterlimit="10" stroke-linecap="round" stroke-linejoin="round"/>
<path d="M132.076 83.2939C131.621 83.5563 131.06 83.8248 130.363 84.1037" stroke="#92989B" stroke-miterlimit="10" stroke-linecap="round" stroke-linejoin="round"/>
<path d="M152.842 65.3711C152.842 65.3711 149.799 66.5413 149.096 70.0534C148.394 73.5656 146.755 75.9075 144.882 76.1412C143.009 76.375 135.984 75.6722 134.814 78.2479C134.402 79.1527 134.309 79.9127 134.158 80.5989" stroke="#92989B" stroke-miterlimit="10" stroke-linecap="round" stroke-linejoin="round"/>
<path d="M622.113 312.466C618.916 310.723 617.464 312.175 616.301 310.723C615.138 309.269 619.498 305.491 610.78 301.714C610.78 301.714 610.2 293.577 598.283 293.286C586.369 292.995 589.566 301.423 586.369 303.457C583.172 305.491 582.3 302.294 579.103 304.329C575.906 306.363 577.36 310.432 574.743 311.014C572.129 311.594 568.641 308.399 565.444 310.432C562.247 312.466 562.247 314.209 560.794 314.209C559.342 314.209 556.435 313.047 554.692 314.209C552.948 315.372 550.914 316.824 550.914 316.824H624.438C624.438 316.824 625.31 314.209 622.113 312.466Z" stroke="#92989B" stroke-miterlimit="10" stroke-linecap="round" stroke-linejoin="round"/>
<path d="M578.621 311.271C578.276 311.471 577.851 311.674 577.324 311.885" stroke="#92989B" stroke-miterlimit="10" stroke-linecap="round" stroke-linejoin="round"/>
<path d="M594.35 297.696C594.35 297.696 592.044 298.583 591.512 301.243C590.979 303.903 589.738 305.677 588.319 305.855C586.9 306.033 581.58 305.5 580.693 307.452C580.381 308.136 580.31 308.712 580.197 309.233" stroke="#92989B" stroke-miterlimit="10" stroke-linecap="round" stroke-linejoin="round"/>
<path d="M20.2188 505.233L580.46 645.036" stroke="#808080" stroke-miterlimit="10" stroke-linecap="round" stroke-linejoin="round"/>
<path d="M395.5 599.599L739.433 447.848" stroke="#808080" stroke-miterlimit="10" stroke-linecap="round" stroke-linejoin="round"/>
<path d="M35.799 450.517C35.799 450.517 60.3779 452.949 72.834 468.185C72.834 468.185 85.9943 450.533 109.634 450.895C116.494 442.627 120.62 432.011 120.624 420.428C120.633 394.044 99.2511 372.647 72.8672 372.638C46.4832 372.629 25.0877 394.011 25.0772 420.395C25.0726 431.833 29.0899 442.33 35.7915 450.558L35.799 450.517Z" fill="#5050D8"/>
<path opacity="0.4" d="M35.799 450.517C35.799 450.517 60.3779 452.949 72.834 468.185C72.834 468.185 85.9943 450.533 109.634 450.895C116.494 442.627 120.62 432.011 120.624 420.428C120.633 394.044 99.2511 372.647 72.8672 372.638C46.4832 372.629 25.0877 394.011 25.0772 420.395C25.0726 431.833 29.0899 442.33 35.7915 450.558L35.799 450.517Z" fill="white"/>
<path d="M74.4486 519.003L72.0207 394.08L71.416 518.258L74.4486 519.003Z" fill="#828282"/>
<path d="M73.2643 463.541C73.2643 463.541 81.5613 448.606 96.4966 444.043C96.4966 444.043 80.7319 447.777 72.8496 460.637L73.2643 463.541Z" fill="#828282"/>
<path d="M72.6426 422.055C72.6426 422.055 81.5624 406.292 96.4976 401.728C96.4976 401.728 80.5867 406.056 72.7044 418.916L72.6426 422.055Z" fill="#828282"/>
<path d="M72.8888 442.917C72.8888 442.917 81.5628 427.449 96.4966 422.886C96.4966 422.886 80.7319 426.62 72.8496 439.48L72.8888 442.917Z" fill="#828282"/>
<path d="M72.0346 432.012C72.0346 432.012 64.0286 417.077 49.6182 412.514C49.6182 412.514 64.8294 416.247 72.4357 429.108L72.0346 432.012Z" fill="#828282"/>
<path d="M72.0346 452.755C72.0346 452.755 64.0286 437.82 49.6182 433.257C49.6182 433.257 64.8294 436.991 72.4357 449.851L72.0346 452.755Z" fill="#828282"/>
<path d="M111.482 491.315C111.482 491.315 127.174 492.868 135.128 502.596C135.128 502.596 143.531 491.327 158.625 491.558C163.004 486.278 165.638 479.5 165.641 472.105C165.647 455.259 151.995 441.598 135.15 441.592C118.304 441.586 104.643 455.238 104.637 472.084C104.634 479.387 107.199 486.09 111.477 491.342L111.482 491.315Z" fill="#5050D8"/>
<path opacity="0.2" d="M111.482 491.315C111.482 491.315 127.174 492.868 135.128 502.596C135.128 502.596 143.531 491.327 158.625 491.558C163.004 486.278 165.638 479.5 165.641 472.105C165.647 455.259 151.995 441.598 135.15 441.592C118.304 441.586 104.643 455.238 104.637 472.084C104.634 479.387 107.199 486.09 111.477 491.342L111.482 491.315Z" fill="white"/>
<path d="M136.161 535.042L134.611 455.281L134.225 534.566L136.161 535.042Z" fill="#828282"/>
<path d="M135.404 499.631C135.404 499.631 140.702 490.096 150.237 487.183C150.237 487.183 140.172 489.567 135.139 497.778L135.404 499.631Z" fill="#828282"/>
<path d="M135.006 473.143C135.006 473.143 140.702 463.079 150.237 460.164C150.237 460.164 140.077 462.928 135.045 471.139L135.006 473.143Z" fill="#828282"/>
<path d="M135.163 486.462C135.163 486.462 140.7 476.586 150.237 473.673C150.237 473.673 140.172 476.057 135.139 484.268L135.163 486.462Z" fill="#828282"/>
<path d="M134.619 479.5C134.619 479.5 129.507 469.965 120.307 467.05C120.307 467.05 130.018 469.434 134.875 477.645L134.619 479.5Z" fill="#828282"/>
<path d="M134.619 492.744C134.619 492.744 129.507 483.209 120.307 480.296C120.307 480.296 130.018 482.68 134.875 490.891L134.619 492.744Z" fill="#828282"/>
<path d="M329.653 545.177C329.653 545.177 345.346 546.731 353.3 556.459C353.3 556.459 361.703 545.189 376.796 545.42C381.176 540.141 383.81 533.362 383.813 525.967C383.819 509.121 370.167 495.46 353.321 495.454C336.476 495.448 322.815 509.1 322.809 525.946C322.806 533.249 325.371 539.952 329.649 545.205L329.653 545.177Z" fill="#5050D8"/>
<path opacity="0.4" d="M329.653 545.177C329.653 545.177 345.346 546.731 353.3 556.459C353.3 556.459 361.703 545.189 376.796 545.42C381.176 540.141 383.81 533.362 383.813 525.967C383.819 509.121 370.167 495.46 353.321 495.454C336.476 495.448 322.815 509.1 322.809 525.946C322.806 533.249 325.371 539.952 329.649 545.205L329.653 545.177Z" fill="white"/>
<path d="M354.329 588.905L352.779 509.144L352.395 588.43L354.329 588.905Z" fill="#828282"/>
<path d="M353.574 553.493C353.574 553.493 358.872 543.958 368.407 541.045C368.407 541.045 358.342 543.429 353.309 551.64L353.574 553.493Z" fill="#828282"/>
<path d="M353.176 527.006C353.176 527.006 358.871 516.941 368.407 514.026C368.407 514.026 358.247 516.791 353.215 525.002L353.176 527.006Z" fill="#828282"/>
<path d="M353.335 540.325C353.335 540.325 358.874 530.449 368.409 527.535C368.409 527.535 358.344 529.919 353.311 538.13L353.335 540.325Z" fill="#828282"/>
<path d="M352.789 533.362C352.789 533.362 347.677 523.827 338.477 520.913C338.477 520.913 348.188 523.297 353.045 531.508L352.789 533.362Z" fill="#828282"/>
<path d="M352.789 546.607C352.789 546.607 347.677 537.072 338.477 534.158C338.477 534.158 348.188 536.542 353.045 544.753L352.789 546.607Z" fill="#828282"/>
<path d="M560.341 473.36C560.341 473.36 576.033 474.913 583.988 484.641C583.988 484.641 592.39 473.372 607.484 473.603C611.863 468.323 614.498 461.545 614.501 454.15C614.507 437.304 600.855 423.643 584.009 423.637C567.163 423.631 553.502 437.283 553.496 454.128C553.493 461.432 556.058 468.135 560.336 473.387L560.341 473.36Z" fill="#5050D8"/>
<path opacity="0.2" d="M560.341 473.36C560.341 473.36 576.033 474.913 583.988 484.641C583.988 484.641 592.39 473.372 607.484 473.603C611.863 468.323 614.498 461.545 614.501 454.15C614.507 437.304 600.855 423.643 584.009 423.637C567.163 423.631 553.502 437.283 553.496 454.128C553.493 461.432 556.058 468.135 560.336 473.387L560.341 473.36Z" fill="white"/>
<path d="M585.018 515.804L583.468 437.326L583.082 516.611L585.018 515.804Z" fill="#828282"/>
<path d="M584.261 481.675C584.261 481.675 589.559 472.14 599.094 469.227C599.094 469.227 589.03 471.611 583.996 479.822L584.261 481.675Z" fill="#828282"/>
<path d="M583.863 455.188C583.863 455.188 589.559 445.124 599.094 442.209C599.094 442.209 588.935 444.973 583.902 453.184L583.863 455.188Z" fill="#828282"/>
<path d="M584.02 468.507C584.02 468.507 589.558 458.631 599.094 455.718C599.094 455.718 589.03 458.102 583.996 466.313L584.02 468.507Z" fill="#828282"/>
<path d="M583.476 461.545C583.476 461.545 578.364 452.01 569.164 449.095C569.164 449.095 578.876 451.479 583.733 459.69L583.476 461.545Z" fill="#828282"/>
<path d="M583.476 474.789C583.476 474.789 578.364 465.254 569.164 462.341C569.164 462.341 578.876 464.725 583.733 472.936L583.476 474.789Z" fill="#828282"/>
<path d="M613.077 434.849C613.077 434.849 633.366 436.856 643.65 449.434C643.65 449.434 654.514 434.864 674.029 435.163C679.691 428.338 683.098 419.573 683.101 410.012C683.109 388.232 665.459 370.569 643.677 370.562C621.897 370.554 604.234 388.205 604.227 409.985C604.224 419.427 607.54 428.093 613.071 434.885L613.077 434.849Z" fill="#5050D8"/>
<path opacity="0.4" d="M613.077 434.849C613.077 434.849 633.366 436.856 643.65 449.434C643.65 449.434 654.514 434.864 674.029 435.163C679.691 428.338 683.098 419.573 683.101 410.012C683.109 388.232 665.459 370.569 643.677 370.562C621.897 370.554 604.234 388.205 604.227 409.985C604.224 419.427 607.54 428.093 613.071 434.885L613.077 434.849Z" fill="white"/>
<path d="M644.982 489.727L642.976 388.26L642.479 490.769L644.982 489.727Z" fill="#828282"/>
<path d="M644.004 445.6C644.004 445.6 650.854 433.27 663.182 429.505C663.182 429.505 650.168 432.587 643.662 443.204L644.004 445.6Z" fill="#828282"/>
<path d="M643.49 411.353C643.49 411.353 650.854 398.341 663.182 394.572C663.182 394.572 650.047 398.146 643.54 408.763L643.49 411.353Z" fill="#828282"/>
<path d="M643.694 428.574C643.694 428.574 650.854 415.806 663.184 412.039C663.184 412.039 650.17 415.121 643.664 425.738L643.694 428.574Z" fill="#828282"/>
<path d="M642.989 419.573C642.989 419.573 636.379 407.244 624.484 403.477C624.484 403.477 637.042 406.559 643.319 417.175L642.989 419.573Z" fill="#828282"/>
<path d="M642.989 436.697C642.989 436.697 636.379 424.369 624.484 420.601C624.484 420.601 637.042 423.683 643.319 434.299L642.989 436.697Z" fill="#828282"/>
<path d="M122.393 681.001C122.393 681.001 121.339 675.029 114.314 671.517C107.288 668.005 99.9121 665.896 99.9121 665.896C99.9121 665.896 103.776 671.868 108.693 675.38C113.611 678.892 122.393 682.406 122.393 682.406" fill="#5050D8"/>
<path d="M146.632 696.807C146.632 696.807 145.578 690.836 138.552 687.323C131.526 683.811 124.15 681.703 124.15 681.703C124.15 681.703 128.014 687.675 132.931 691.187C137.849 694.699 146.632 698.213 146.632 698.213" fill="#5050D8"/>
<path d="M128.014 675.029C128.014 675.029 126.96 669.057 119.935 665.545C112.909 662.033 105.533 659.925 105.533 659.925C105.533 659.925 109.397 665.896 114.314 669.409C119.232 672.921 128.014 676.434 128.014 676.434" fill="#5050D8"/>
<path d="M151.198 689.782C151.198 689.782 150.144 683.81 143.12 680.298C136.094 676.786 128.717 674.678 128.717 674.678C128.717 674.678 132.58 680.649 137.498 684.162C142.415 687.674 151.198 691.187 151.198 691.187" fill="#5050D8"/>
<path d="M132.23 668.584C132.23 668.584 131.402 662.09 125.878 658.269C120.354 654.448 114.555 652.157 114.555 652.157C114.555 652.157 117.593 658.651 121.458 662.472C125.325 666.292 132.228 670.111 132.228 670.111" fill="#5050D8"/>
<path d="M153.151 683.25C153.151 683.25 151.34 676.959 145.296 674.029C139.254 671.099 133.172 669.721 133.172 669.721C133.172 669.721 137.167 675.674 141.573 678.858C145.978 682.041 153.385 684.761 153.385 684.761" fill="#5050D8"/>
<path d="M137.499 660.855C137.499 660.855 136.672 654.362 131.148 650.541C125.624 646.721 119.824 644.429 119.824 644.429C119.824 644.429 122.863 650.922 126.728 654.743C130.594 658.563 137.499 662.383 137.499 662.383" fill="#5050D8"/>
<path d="M160.453 671.523C160.453 671.523 157.584 665.639 151.126 663.795C144.669 661.951 138.439 661.642 138.439 661.642C138.439 661.642 143.402 666.817 148.29 669.192C153.179 671.569 160.943 672.97 160.943 672.97" fill="#5050D8"/>
<path d="M142.066 653.718C142.066 653.718 141.452 648.241 137.355 645.018C133.259 641.796 128.957 639.862 128.957 639.862C128.957 639.862 131.21 645.339 134.078 648.562C136.946 651.785 142.066 655.006 142.066 655.006" fill="#5050D8"/>
<path d="M159.939 662.683C159.939 662.683 157.354 657.815 152.36 656.324C147.365 654.832 142.654 654.615 142.654 654.615C142.654 654.615 146.764 658.881 150.614 660.824C154.465 662.766 160.411 663.88 160.411 663.88" fill="#5050D8"/>
<path d="M146.281 645.639C146.281 645.639 145.666 640.162 141.57 636.939C137.474 633.716 133.172 631.783 133.172 631.783C133.172 631.783 135.425 637.26 138.293 640.483C141.161 643.705 146.281 646.927 146.281 646.927" fill="#5050D8"/>
<path d="M165.073 654.475C165.073 654.475 162.354 649.679 157.322 648.328C152.288 646.976 147.574 646.89 147.574 646.89C147.574 646.89 151.8 651.041 155.702 652.876C159.605 654.712 165.581 655.662 165.581 655.662" fill="#5050D8"/>
<path d="M152.603 637.911C152.603 637.911 151.988 632.434 147.892 629.211C143.796 625.989 142.656 625.109 142.656 625.109C142.656 625.109 141.748 629.534 144.615 632.755C147.482 635.978 152.603 639.199 152.603 639.199" fill="#5050D8"/>
<path d="M167.335 647.086C167.335 647.086 164.639 642.279 159.613 640.903C154.587 639.528 153.193 639.16 153.193 639.16C153.193 639.16 154.077 643.589 157.971 645.443C161.866 647.296 167.836 648.273 167.836 648.273" fill="#5050D8"/>
<path d="M158.279 631.655C158.279 631.655 159.424 626.264 156.554 621.913C153.683 617.563 152.879 616.368 152.879 616.368C152.879 616.368 150.622 620.28 152.326 624.241C154.03 628.204 157.872 632.878 157.872 632.878" fill="#5050D8"/>
<path d="M173.069 639.129C173.069 639.129 169.977 634.566 164.852 633.619C159.726 632.672 158.309 632.425 158.309 632.425C158.309 632.425 159.562 636.763 163.6 638.282C167.637 639.8 173.669 640.271 173.669 640.271" fill="#5050D8"/>
<path d="M165.558 626.853C165.558 626.853 167.843 621.836 165.98 616.968C164.118 612.1 163.592 610.76 163.592 610.76C163.592 610.76 160.541 614.091 161.349 618.327C162.156 622.564 164.898 627.957 164.898 627.957" fill="#5050D8"/>
<path d="M179.441 632.725C179.441 632.725 176.128 628.32 170.962 627.628C165.797 626.936 164.367 626.758 164.367 626.758C164.367 626.758 165.833 631.03 169.941 632.346C174.049 633.664 180.096 633.836 180.096 633.836" fill="#5050D8"/>
<path d="M170.828 624.394C170.828 624.394 176.338 624.53 180.087 620.909C183.836 617.288 184.863 616.279 184.863 616.279C184.863 616.279 180.603 614.779 177.021 617.181C173.44 619.583 169.551 624.219 169.551 624.219" fill="#5050D8"/>
<path d="M120.99 684.566C120.769 684.566 120.552 684.47 120.401 684.284C120.141 683.96 120.19 683.487 120.515 683.226C120.622 683.137 131.378 674.344 139.282 658.534C147.297 642.504 159.579 628.53 169.849 623.764C170.227 623.586 170.675 623.753 170.85 624.129C171.025 624.507 170.861 624.955 170.484 625.13C160.502 629.764 148.505 643.458 140.631 659.208C132.573 675.327 121.572 684.308 121.462 684.399C121.323 684.512 121.155 684.566 120.99 684.566Z" fill="#5050D8"/>
<path d="M658.911 669.68C658.911 669.68 657.857 663.709 650.831 660.196C643.805 656.684 636.43 654.576 636.43 654.576C636.43 654.576 640.293 660.548 645.211 664.06C650.128 667.572 658.911 671.086 658.911 671.086" fill="#5050D8"/>
<path d="M683.15 685.489C683.15 685.489 682.096 679.517 675.071 676.005C668.046 672.493 660.67 670.385 660.67 670.385C660.67 670.385 664.533 676.356 669.451 679.869C674.369 683.381 683.151 686.894 683.151 686.894" fill="#5050D8"/>
<path d="M664.532 663.711C664.532 663.711 663.478 657.739 656.452 654.227C649.426 650.715 642.051 648.606 642.051 648.606C642.051 648.606 645.914 654.578 650.832 658.09C655.749 661.602 664.532 665.116 664.532 665.116" fill="#5050D8"/>
<path d="M687.716 678.464C687.716 678.464 686.662 672.492 679.638 668.98C672.612 665.468 665.236 663.359 665.236 663.359C665.236 663.359 669.1 669.331 674.017 672.843C678.935 676.355 687.718 679.869 687.718 679.869" fill="#5050D8"/>
<path d="M668.746 657.264C668.746 657.264 667.918 650.77 662.394 646.949C656.87 643.129 651.07 640.837 651.07 640.837C651.07 640.837 654.109 647.332 657.975 651.152C661.842 654.971 668.746 658.791 668.746 658.791" fill="#5050D8"/>
<path d="M689.669 671.93C689.669 671.93 687.856 665.639 681.814 662.709C675.771 659.779 669.689 658.4 669.689 658.4C669.689 658.4 673.684 664.354 678.09 667.537C682.495 670.721 689.903 673.441 689.903 673.441" fill="#5050D8"/>
<path d="M674.017 649.537C674.017 649.537 673.189 643.044 667.665 639.222C662.142 635.403 656.342 633.11 656.342 633.11C656.342 633.11 659.379 639.604 663.245 643.425C667.112 647.245 674.016 651.065 674.016 651.065" fill="#5050D8"/>
<path d="M696.971 660.203C696.971 660.203 694.101 654.319 687.644 652.475C681.187 650.63 674.957 650.321 674.957 650.321C674.957 650.321 679.92 655.497 684.807 657.872C689.696 660.248 697.461 661.649 697.461 661.649" fill="#5050D8"/>
<path d="M678.584 642.397C678.584 642.397 677.968 636.92 673.873 633.698C669.777 630.475 665.475 628.542 665.475 628.542C665.475 628.542 667.728 634.019 670.596 637.242C673.462 640.464 678.584 643.685 678.584 643.685" fill="#5050D8"/>
<path d="M696.457 651.365C696.457 651.365 693.872 646.497 688.877 645.005C683.883 643.514 679.172 643.297 679.172 643.297C679.172 643.297 683.281 647.563 687.131 649.505C690.983 651.448 696.929 652.562 696.929 652.562" fill="#5050D8"/>
<path d="M682.798 634.319C682.798 634.319 682.183 628.842 678.088 625.62C673.99 622.397 669.689 620.464 669.689 620.464C669.689 620.464 671.942 625.941 674.811 629.163C677.679 632.386 682.798 635.607 682.798 635.607" fill="#5050D8"/>
<path d="M701.591 643.155C701.591 643.155 698.872 638.36 693.839 637.007C688.806 635.654 684.092 635.568 684.092 635.568C684.092 635.568 688.317 639.72 692.22 641.555C696.123 643.39 702.099 644.34 702.099 644.34" fill="#5050D8"/>
<path d="M689.12 626.59C689.12 626.59 688.505 621.113 684.409 617.891C680.314 614.668 679.174 613.789 679.174 613.789C679.174 613.789 678.266 618.214 681.133 621.435C683.999 624.657 689.12 627.878 689.12 627.878" fill="#5050D8"/>
<path d="M703.853 635.767C703.853 635.767 701.157 630.959 696.131 629.584C691.104 628.209 689.711 627.841 689.711 627.841C689.711 627.841 690.595 632.27 694.488 634.123C698.383 635.976 704.354 636.954 704.354 636.954" fill="#5050D8"/>
<path d="M694.797 620.334C694.797 620.334 695.942 614.943 693.072 610.593C690.201 606.242 689.397 605.048 689.397 605.048C689.397 605.048 687.139 608.96 688.843 612.921C690.547 616.884 694.39 621.557 694.39 621.557" fill="#5050D8"/>
<path d="M709.585 627.811C709.585 627.811 706.493 623.248 701.367 622.301C696.242 621.354 694.824 621.106 694.824 621.106C694.824 621.106 696.079 625.445 700.116 626.964C704.153 628.482 710.185 628.953 710.185 628.953" fill="#5050D8"/>
<path d="M702.076 615.533C702.076 615.533 704.36 610.517 702.498 605.648C700.635 600.78 700.109 599.439 700.109 599.439C700.109 599.439 697.058 602.771 697.867 607.007C698.674 611.244 701.415 616.637 701.415 616.637" fill="#5050D8"/>
<path d="M715.959 621.407C715.959 621.407 712.646 617.002 707.479 616.31C702.314 615.617 700.885 615.439 700.885 615.439C700.885 615.439 702.351 619.712 706.458 621.028C710.566 622.346 716.613 622.518 716.613 622.518" fill="#5050D8"/>
<path d="M707.346 613.075C707.346 613.075 712.856 613.211 716.605 609.59C720.354 605.969 721.381 604.961 721.381 604.961C721.381 604.961 717.121 603.459 713.539 605.862C709.958 608.265 706.068 612.9 706.068 612.9" fill="#5050D8"/>
<path d="M657.507 673.245C657.287 673.245 657.068 673.15 656.919 672.965C656.658 672.641 656.708 672.167 657.032 671.906C657.139 671.817 667.896 663.024 675.799 647.214C683.814 631.184 696.097 617.213 706.366 612.444C706.743 612.266 707.193 612.434 707.368 612.809C707.543 613.188 707.378 613.636 707.001 613.811C697.02 618.445 685.022 632.139 677.149 647.888C669.09 664.007 658.089 672.991 657.979 673.08C657.84 673.191 657.673 673.245 657.507 673.245Z" fill="#5050D8"/>
<path d="M81.8011 664.352C81.8011 664.352 74.4783 661.746 66.1164 667.353C57.7546 672.959 50.7363 679.847 50.7363 679.847C50.7363 679.847 59.8371 679.32 66.8659 676.063C73.8932 672.806 83.3679 665.242 83.3679 665.242" fill="#5050D8"/>
<path d="M118.198 655.657C118.198 655.657 111.81 651.23 102.274 654.457C92.7386 657.686 84.1641 662.501 84.1641 662.501C84.1641 662.501 93.0869 664.369 100.722 663.06C108.357 661.751 119.477 656.924 119.477 656.924" fill="#5050D8"/>
<path d="M78.7035 654.307C78.7035 654.307 71.3806 651.701 63.0188 657.308C54.6569 662.915 47.6387 669.802 47.6387 669.802C47.6387 669.802 56.7395 669.275 63.7682 666.018C70.7955 662.761 80.2703 655.197 80.2703 655.197" fill="#5050D8"/>
<path d="M112.073 638.708C112.073 638.708 104.75 636.102 96.3879 641.709C88.026 647.316 81.0078 654.203 81.0078 654.203C81.0078 654.203 90.1086 653.677 97.1374 650.419C104.165 647.162 113.639 639.598 113.639 639.598" fill="#5050D8"/>
<path d="M74.1864 645.529C74.1864 645.529 66.4247 642.341 58.6706 646.079C50.9164 649.817 44.6914 654.83 44.6914 654.83C44.6914 654.83 53.8525 655.555 60.5571 653.664C67.2616 651.773 75.8904 646.497 75.8904 646.497" fill="#5050D8"/>
<path d="M103.779 631.497C103.779 631.497 95.6205 629.533 88.5299 634.413C81.4393 639.293 76.0527 645.198 76.0527 645.198C76.0527 645.198 85.2169 644.514 91.5535 641.62C97.8901 638.726 105.61 632.192 105.61 632.192" fill="#5050D8"/>
<path d="M68.91 634.765C68.91 634.765 61.1483 631.577 53.3942 635.315C45.6401 639.054 39.415 644.066 39.415 644.066C39.415 644.066 48.5761 644.792 55.2807 642.901C61.9853 641.01 70.614 635.733 70.614 635.733" fill="#5050D8"/>
<path d="M95.3297 615.933C95.3297 615.933 86.9557 615.406 80.8121 621.437C74.6685 627.467 70.3828 634.213 70.3828 634.213C70.3828 634.213 79.2921 631.958 85.0345 628.013C90.777 624.07 97.2539 616.3 97.2539 616.3" fill="#5050D8"/>
<path d="M63.8464 625.157C63.8464 625.157 57.3529 622.375 51.1686 624.901C44.9843 627.427 40.1074 630.996 40.1074 630.996C40.1074 630.996 47.6384 631.952 53.0446 630.795C58.4507 629.639 65.2835 625.971 65.2835 625.971" fill="#5050D8"/>
<path d="M85.1539 610.912C85.1539 610.912 78.0919 610.712 73.2693 615.334C68.4468 619.956 65.2227 625.07 65.2227 625.07C65.2227 625.07 72.5787 623.191 77.1811 620.128C81.7835 617.065 86.7901 611.143 86.7901 611.143" fill="#5050D8"/>
<path d="M57.5094 615.345C57.5094 615.345 51.016 612.563 44.8317 615.089C38.6474 617.615 33.7705 621.186 33.7705 621.186C33.7705 621.186 41.3015 622.142 46.7076 620.985C52.1138 619.829 58.9466 616.161 58.9466 616.161" fill="#5050D8"/>
<path d="M79.2538 599.993C79.2538 599.993 72.1888 599.987 67.4959 604.742C62.8031 609.495 59.7207 614.696 59.7207 614.696C59.7207 614.696 67.0209 612.615 71.5374 609.426C76.0538 606.238 80.8945 600.179 80.8945 600.179" fill="#5050D8"/>
<path d="M52.9 603.407C52.9 603.407 46.4066 600.625 40.2222 603.151C34.0379 605.677 32.3369 606.39 32.3369 606.39C32.3369 606.39 36.692 610.202 42.0982 609.047C47.5044 607.89 54.3371 604.223 54.3371 604.223" fill="#5050D8"/>
<path d="M72.4509 592.795C72.4509 592.795 65.3859 592.756 60.6704 597.488C55.9549 602.22 54.6641 603.539 54.6641 603.539C54.6641 603.539 60.1592 605.358 64.6908 602.191C69.2223 599.025 74.0901 592.988 74.0901 592.988" fill="#5050D8"/>
<path d="M49.519 593.121C49.519 593.121 44.2349 588.433 37.5696 588.877C30.9042 589.324 29.0645 589.464 29.0645 589.464C29.0645 589.464 31.9945 594.456 37.4896 595.065C42.9848 595.674 50.6258 594.348 50.6258 594.348" fill="#5050D8"/>
<path d="M67.2122 581.371C67.2122 581.371 60.1698 581.929 55.8705 587.043C51.5712 592.155 50.3965 593.578 50.3965 593.578C50.3965 593.578 56.0258 594.928 60.2739 591.389C64.5219 587.849 68.8634 581.425 68.8634 581.425" fill="#5050D8"/>
<path d="M48.7769 581.968C48.7769 581.968 44.6314 576.246 38.0279 575.24C31.4244 574.235 29.5967 573.974 29.5967 573.974C29.5967 573.974 31.3776 579.481 36.6104 581.263C41.8431 583.046 49.5897 583.405 49.5897 583.405" fill="#5050D8"/>
<path d="M64.1085 570.213C64.1085 570.213 57.1023 571.117 53.0594 576.436C49.0179 581.755 47.9141 583.234 47.9141 583.234C47.9141 583.234 53.6022 584.303 57.6708 580.561C61.7394 576.818 65.7582 570.186 65.7582 570.186" fill="#5050D8"/>
<path d="M49.3711 574.539C49.3711 574.539 53.0099 568.483 51.3481 562.014C49.6863 555.543 49.2113 553.761 49.2113 553.761C49.2113 553.761 44.8426 557.558 45.2528 563.071C45.6629 568.584 48.3683 575.851 48.3683 575.851" fill="#5050D8"/>
<path d="M84.043 668.45C83.6796 668.45 83.3599 668.188 83.2996 667.818C83.2709 667.643 80.2745 650.048 67.6285 631.187C54.8602 612.143 47.0774 589.663 48.2597 575.247C48.2944 574.833 48.6518 574.529 49.0725 574.558C49.4872 574.592 49.7964 574.956 49.7632 575.37C48.605 589.47 56.2883 611.565 68.8816 630.347C81.7192 649.495 84.7578 667.395 84.788 667.572C84.8543 667.983 84.5769 668.372 84.1652 668.438C84.123 668.447 84.0822 668.45 84.043 668.45Z" fill="#5050D8"/>
<path d="M625.672 665.469C625.672 665.469 619.845 660.327 609.996 662.42C600.149 664.513 591.072 668.295 591.072 668.295C591.072 668.295 599.716 671.192 607.451 670.783C615.187 670.375 626.794 666.878 626.794 666.878" fill="#5050D8"/>
<path d="M662.689 670.94C662.689 670.94 658.407 664.454 648.354 663.902C638.302 663.35 628.553 664.63 628.553 664.63C628.553 664.63 636.14 669.685 643.714 671.309C651.287 672.935 663.406 672.591 663.406 672.591" fill="#5050D8"/>
<path d="M626.533 654.995C626.533 654.995 620.706 649.852 610.858 651.945C601.01 654.038 591.934 657.821 591.934 657.821C591.934 657.821 600.577 660.717 608.312 660.309C616.048 659.9 627.655 656.403 627.655 656.403" fill="#5050D8"/>
<path d="M663.31 652.928C663.31 652.928 657.484 647.786 647.635 649.879C637.788 651.972 628.711 655.754 628.711 655.754C628.711 655.754 637.355 658.651 645.091 658.242C652.825 657.834 664.434 654.337 664.434 654.337" fill="#5050D8"/>
<path d="M625.608 645.167C625.608 645.167 619.588 639.32 611 639.905C602.412 640.491 594.768 642.828 594.768 642.828C594.768 642.828 603.001 646.909 609.929 647.647C616.857 648.386 626.828 646.697 626.828 646.697" fill="#5050D8"/>
<path d="M658.293 643.148C658.293 643.148 651.451 638.291 643.053 640.182C634.655 642.073 627.459 645.552 627.459 645.552C627.459 645.552 636.22 648.325 643.178 647.997C650.138 647.668 659.733 644.474 659.733 644.474" fill="#5050D8"/>
<path d="M624.714 633.211C624.714 633.211 618.695 627.364 610.107 627.949C601.519 628.534 593.875 630.872 593.875 630.872C593.875 630.872 602.109 634.953 609.035 635.691C615.963 636.43 625.934 634.741 625.934 634.741" fill="#5050D8"/>
<path d="M656.241 625.559C656.241 625.559 648.663 621.955 640.718 625.267C632.772 628.578 626.283 633.246 626.283 633.246C626.283 633.246 635.392 634.467 642.188 632.943C648.986 631.418 657.888 626.616 657.888 626.616" fill="#5050D8"/>
<path d="M623.587 622.409C623.587 622.409 618.594 617.41 611.915 617.455C605.234 617.499 599.379 618.998 599.379 618.998C599.379 618.998 606.014 622.688 611.463 623.626C616.911 624.564 624.617 623.702 624.617 623.702" fill="#5050D8"/>
<path d="M648.662 617.111C648.662 617.111 642.182 614.297 635.986 616.793C629.79 619.289 624.895 622.836 624.895 622.836C624.895 622.836 632.421 623.828 637.833 622.698C643.245 621.569 650.095 617.933 650.095 617.933" fill="#5050D8"/>
<path d="M621.354 610.944C621.354 610.944 616.361 605.945 609.683 605.991C603.002 606.034 597.146 607.533 597.146 607.533C597.146 607.533 603.782 611.223 609.23 612.161C614.678 613.099 622.384 612.237 622.384 612.237" fill="#5050D8"/>
<path d="M647.249 604.783C647.249 604.783 640.693 602.15 634.568 604.816C628.444 607.482 623.648 611.163 623.648 611.163C623.648 611.163 631.199 611.947 636.578 610.668C641.957 609.388 648.704 605.567 648.704 605.567" fill="#5050D8"/>
<path d="M621.515 598.147C621.515 598.147 616.522 593.148 609.843 593.194C603.163 593.237 601.318 593.268 601.318 593.268C601.318 593.268 603.942 598.426 609.391 599.364C614.839 600.302 622.545 599.44 622.545 599.44" fill="#5050D8"/>
<path d="M643.613 595.572C643.613 595.572 637.07 592.907 630.932 595.546C624.795 598.184 623.107 598.929 623.107 598.929C623.107 598.929 627.532 602.661 632.915 601.408C638.299 600.153 645.064 596.362 645.064 596.362" fill="#5050D8"/>
<path d="M622.206 587.342C622.206 587.342 619.045 581.023 612.693 578.957C606.34 576.891 604.58 576.338 604.58 576.338C604.58 576.338 605.443 582.062 610.316 584.671C615.19 587.28 622.776 588.894 622.776 588.894" fill="#5050D8"/>
<path d="M643 583.018C643 583.018 636.254 580.915 630.362 584.063C624.469 587.21 622.85 588.094 622.85 588.094C622.85 588.094 627.573 591.44 632.833 589.736C638.092 588.032 644.512 583.683 644.512 583.683" fill="#5050D8"/>
<path d="M625.664 576.712C625.664 576.712 623.945 569.86 618.189 566.468C612.433 563.077 610.834 562.155 610.834 562.155C610.834 562.155 610.439 567.931 614.633 571.532C618.828 575.133 625.884 578.348 625.884 578.348" fill="#5050D8"/>
<path d="M644.27 571.507C644.27 571.507 637.43 569.739 631.699 573.173C625.969 576.607 624.395 577.569 624.395 577.569C624.395 577.569 629.277 580.678 634.445 578.716C639.615 576.754 645.813 572.095 645.813 572.095" fill="#5050D8"/>
<path d="M628.98 570.039C628.98 570.039 634.61 565.773 635.475 559.149C636.339 552.526 636.56 550.693 636.56 550.693C636.56 550.693 631.092 552.592 629.423 557.862C627.754 563.133 627.561 570.885 627.561 570.885" fill="#5050D8"/>
<path d="M626.227 670.109C625.889 669.974 625.692 669.612 625.771 669.247C625.811 669.073 629.575 651.626 624.853 629.416C620.086 606.989 621.225 583.226 627.685 570.286C627.871 569.915 628.315 569.765 628.697 569.948C629.069 570.133 629.22 570.586 629.035 570.96C622.715 583.618 621.626 606.984 626.329 629.104C631.122 651.653 627.284 669.399 627.245 669.575C627.154 669.981 626.752 670.239 626.345 670.147C626.304 670.136 626.265 670.123 626.227 670.109Z" fill="#5050D8"/>
<path d="M714.593 698.929C712.566 696.034 701.555 680.33 700.724 679.707C699.809 679.021 689.967 673.756 689.281 673.756C688.595 673.756 674.863 667.578 671.888 667.578C668.913 667.578 658.158 675.359 658.158 675.359L649.69 686.344L636.892 690.809L630.418 698.929H714.593Z" fill="white" stroke="#263238" stroke-miterlimit="10" stroke-linecap="round" stroke-linejoin="round"/>
<path d="M710.294 692.816L702.096 695.837L696.146 695.15C696.146 695.15 687.221 693.32 686.306 693.549C685.391 693.778 681.5 695.38 679.669 695.838C677.838 696.297 668.456 694.923 667.311 694.923C666.167 694.923 654.496 686.455 654.496 686.455L661.133 673.411L660.902 673.449C659.283 674.548 658.158 675.361 658.158 675.361L649.69 686.345L636.892 690.81L630.418 698.93H714.593C713.919 697.967 712.25 695.586 710.294 692.816Z" fill="#263238" stroke="#263238" stroke-miterlimit="10" stroke-linecap="round" stroke-linejoin="round"/>
<path d="M687.669 698.929C684.528 694.44 667.462 670.099 666.174 669.134C664.755 668.07 649.503 659.911 648.439 659.911C647.374 659.911 626.093 650.334 621.482 650.334C616.87 650.334 600.199 662.393 600.199 662.393L587.075 679.419L567.239 686.341L557.203 698.929H687.669Z" fill="white" stroke="#263238" stroke-miterlimit="10" stroke-linecap="round" stroke-linejoin="round"/>
<path d="M681.007 689.453L668.302 694.134L659.079 693.069C659.079 693.069 645.246 690.231 643.827 690.587C642.408 690.941 636.378 693.425 633.541 694.134C630.703 694.844 616.16 692.715 614.387 692.715C612.613 692.715 594.523 679.591 594.523 679.591L604.809 659.373L604.45 659.43C601.941 661.133 600.198 662.394 600.198 662.394L587.074 679.419L567.237 686.341L557.203 698.929H687.669C686.624 697.436 684.038 693.746 681.007 689.453Z" fill="#263238" stroke="#263238" stroke-miterlimit="10" stroke-linecap="round" stroke-linejoin="round"/>
<path d="M42.1934 698.791C42.1934 698.791 50.6065 680.192 50.6065 678.864C50.6065 677.535 73.6321 662.923 73.6321 662.923L99.7567 666.909C99.7567 666.909 114.369 677.979 116.141 677.979C117.912 677.979 128.54 678.422 128.54 678.422L146.695 687.279L154.223 698.791H42.1934Z" fill="white" stroke="#263238" stroke-miterlimit="10" stroke-linecap="round" stroke-linejoin="round"/>
<path d="M50.6065 678.865C50.6065 680.194 42.1934 698.792 42.1934 698.792H154.221L146.693 687.28L142.708 693.479L110.825 696.136L77.6163 689.494L62.5604 677.982L73.6306 662.926C73.6306 662.926 50.6065 677.537 50.6065 678.865Z" fill="#263238"/>
<path d="M451.59 218.691C451.59 218.691 379.367 233.518 368.564 240.541C353.998 250.008 345.988 262.388 353.27 278.411C360.553 294.433 371.477 290.792 371.477 290.792C371.477 290.792 362.738 397.122 371.477 419.698C380.216 442.275 420.273 446.645 436.296 442.275C452.318 437.905 503.299 427.709 507.668 412.415C512.037 397.121 504.026 243.451 501.114 228.885C498.201 214.321 481.45 203.397 451.59 218.691Z" fill="#263238" stroke="#263238" stroke-miterlimit="10" stroke-linecap="round" stroke-linejoin="round"/>
<path d="M353.27 278.411C360.552 294.433 371.477 290.792 371.477 290.792C371.477 290.792 362.737 397.122 371.477 419.698C380.216 442.275 420.273 446.645 436.296 442.275C452.318 437.904 503.299 427.709 507.668 412.415C508.23 410.444 508.588 406.161 508.776 400.188C492.882 406.591 475.063 413.776 457.415 420.427C407.163 439.363 394.054 415.328 392.597 381.828C391.14 348.326 400.609 269.67 394.054 251.464C387.498 233.257 368.564 240.54 368.564 240.54C353.998 250.008 345.988 262.388 353.27 278.411Z" fill="white" stroke="#263238" stroke-miterlimit="10" stroke-linecap="round" stroke-linejoin="round"/>
<path d="M371.477 290.791C371.477 290.791 388.228 289.335 388.956 271.127C389.684 252.919 378.761 245.637 367.107 254.376C355.454 263.115 360.553 276.952 367.107 278.409C373.662 279.866 382.401 265.3 377.302 262.387C372.204 259.473 369.29 265.3 369.29 269.67" stroke="#263238" stroke-miterlimit="10" stroke-linecap="round" stroke-linejoin="round"/>
<path d="M615.516 166.21C615.516 166.21 618.701 158.097 625.251 149.498C631.802 140.9 639.173 131.279 643.062 131.687C646.951 132.096 645.929 133.325 642.857 136.192C639.787 139.058 633.85 148.271 633.85 148.271C633.85 148.271 641.219 153.389 641.63 156.256C642.04 159.122 639.582 161.988 635.284 165.263C630.985 168.538 628.323 169.152 627.096 169.767C625.867 170.381 622.591 175.499 622.591 175.499L616.04 167.311L615.516 166.21Z" fill="white" stroke="#263238" stroke-miterlimit="10" stroke-linecap="round" stroke-linejoin="round"/>
<path d="M644.747 151.503C644.747 151.503 646.407 153.662 646.075 155.49C645.744 157.318 643.252 162.134 642.09 161.137C640.927 160.141 642.421 156.487 642.587 155.324C642.753 154.161 642.587 150.176 642.587 150.176L644.747 151.503Z" fill="white" stroke="#263238" stroke-miterlimit="10" stroke-linecap="round" stroke-linejoin="round"/>
<path d="M639.268 145.357C639.268 145.357 644.583 149.011 644.749 151.502C644.915 153.994 640.762 158.978 639.433 159.807C638.105 160.638 637.274 159.807 637.607 158.312C637.939 156.818 639.268 150.839 639.268 150.839C639.268 150.839 636.277 146.853 636.942 145.191C637.606 143.531 639.268 145.357 639.268 145.357Z" fill="white" stroke="#263238" stroke-miterlimit="10" stroke-linecap="round" stroke-linejoin="round"/>
<path d="M637.605 143.531C637.605 143.531 642.421 147.185 642.255 149.51C642.089 151.836 638.601 158.978 637.107 160.14C635.612 161.303 634.45 158.978 634.947 157.317C635.447 155.657 636.11 150.507 636.11 150.507L633.85 148.271" fill="white"/>
<path d="M637.605 143.531C637.605 143.531 642.421 147.185 642.255 149.51C642.089 151.836 638.601 158.978 637.107 160.14C635.612 161.303 634.45 158.978 634.947 157.317C635.447 155.657 636.11 150.507 636.11 150.507L633.85 148.271" stroke="#263238" stroke-miterlimit="10" stroke-linecap="round" stroke-linejoin="round"/>
<path d="M626.275 152.16C626.275 152.16 632.621 150.728 636.512 148.885C640.401 147.042 646.748 145.61 647.362 147.656C647.976 149.704 643.676 151.342 639.992 152.569C636.307 153.798 635.488 155.026 634.055 158.096C632.623 161.166 630.166 165.057 626.891 165.466" fill="white"/>
<path d="M626.275 152.16C626.275 152.16 632.621 150.728 636.512 148.885C640.401 147.042 646.748 145.61 647.362 147.656C647.976 149.704 643.676 151.342 639.992 152.569C636.307 153.798 635.488 155.026 634.055 158.096C632.623 161.166 630.166 165.057 626.891 165.466" stroke="#263238" stroke-miterlimit="10" stroke-linecap="round" stroke-linejoin="round"/>
<path d="M409.33 382.148C409.33 382.148 405.14 411.531 407.652 432.141C410.166 452.751 424.742 506.535 421.726 524.631C418.71 542.727 419.212 565.849 422.732 583.945C426.25 602.041 431.278 648.287 431.278 648.287C431.278 648.287 425.748 653.817 426.754 658.843C427.76 663.869 433.792 677.945 433.792 677.945V686.331L462.444 681.465C462.444 681.465 464.454 671.411 464.454 668.395C464.454 665.379 460.936 668.897 464.956 661.861C468.978 654.823 471.994 647.787 469.982 642.759C467.972 637.733 461.436 633.209 462.442 623.657C463.448 614.107 467.468 545.743 468.474 534.685C469.48 523.627 474.004 444.707 474.004 444.707L480.538 441.189C480.538 441.189 489.586 558.813 489.586 573.391C489.586 587.969 491.094 619.133 490.592 625.669C490.09 632.203 484.058 645.775 485.566 647.787C487.074 649.797 491.598 660.353 491.598 660.353C491.598 660.353 491.096 667.391 491.096 672.417C491.096 677.443 493.609 683.979 493.609 683.979L526.785 678.449C526.785 678.449 525.78 666.887 524.775 664.877C523.769 662.867 530.305 657.337 530.305 653.315C530.305 649.293 528.797 645.273 528.797 643.765C528.797 642.257 535.331 628.685 535.835 618.631C536.337 608.577 527.793 537.199 527.793 534.685C527.793 532.171 542.873 470.847 542.873 440.183C542.873 409.521 531.815 372.323 531.815 372.323C531.815 372.323 483.056 386.397 451.388 381.371C419.72 376.345 414.694 374.837 414.694 374.837L409.33 382.148Z" fill="#5050D8" stroke="#263238" stroke-miterlimit="10" stroke-linecap="round" stroke-linejoin="round"/>
<path d="M531.811 372.323C531.811 372.323 483.052 386.397 451.384 381.371C419.716 376.345 414.69 374.837 414.69 374.837L409.331 382.148C409.331 382.148 408.949 384.831 408.486 389.127C415.684 394.011 439.598 407.268 480.54 401.477C514.453 396.682 528.749 387.454 534.419 382.06C532.911 376.03 531.811 372.323 531.811 372.323Z" fill="#263238" stroke="#263238" stroke-miterlimit="10" stroke-linecap="round" stroke-linejoin="round"/>
<path d="M474.006 396.954L473.502 402.986L489.588 400.975L491.598 393.938L474.006 396.954Z" fill="white" stroke="#263238" stroke-miterlimit="10" stroke-linecap="round" stroke-linejoin="round"/>
<path d="M434.797 404.996V392.932L442.337 393.937V406.001" fill="#616161"/>
<path d="M434.797 404.996V392.932L442.337 393.937V406.001" stroke="#263238" stroke-miterlimit="10" stroke-linecap="round" stroke-linejoin="round"/>
<path d="M520.25 395.445V385.391L525.78 381.873C525.78 381.873 526.282 392.429 526.282 393.937" fill="#616161"/>
<path d="M520.25 395.445V385.391L525.78 381.873C525.78 381.873 526.282 392.429 526.282 393.937" stroke="#263238" stroke-miterlimit="10" stroke-linecap="round" stroke-linejoin="round"/>
<path d="M481.545 405.499L482.047 414.547C482.047 414.547 490.089 415.553 488.079 420.077C486.069 424.601 482.047 430.633 482.047 430.633" stroke="#263238" stroke-miterlimit="10" stroke-linecap="round" stroke-linejoin="round"/>
<path d="M471.492 414.044C471.492 414.044 494.112 409.52 503.16 404.996" stroke="#263238" stroke-miterlimit="10" stroke-linecap="round" stroke-linejoin="round"/>
<path d="M491.598 402.985L490.592 410.023C490.592 410.023 495.618 414.547 494.11 418.065C492.602 421.584 491.094 425.103 491.094 425.103" stroke="#263238" stroke-miterlimit="10" stroke-linecap="round" stroke-linejoin="round"/>
<path d="M480.539 441.187L503.159 431.135L482.873 451.473L480.539 441.187Z" fill="#263238" stroke="#263238" stroke-miterlimit="10" stroke-linecap="round" stroke-linejoin="round"/>
<path d="M432.786 406.001C432.786 406.001 424.24 424.599 413.182 429.627" stroke="#263238" stroke-miterlimit="10" stroke-linecap="round" stroke-linejoin="round"/>
<path d="M523.77 395.947C523.77 395.947 524.775 407.005 535.834 415.049" stroke="#263238" stroke-miterlimit="10" stroke-linecap="round" stroke-linejoin="round"/>
<path d="M419.213 470.846H445.855V477.38L423.235 478.386" stroke="#263238" stroke-miterlimit="10" stroke-linecap="round" stroke-linejoin="round"/>
<path d="M445.856 477.38C445.856 480.898 449.878 524.128 444.348 534.182C438.818 544.236 427.258 546.748 425.246 542.224" stroke="#263238" stroke-miterlimit="10" stroke-linecap="round" stroke-linejoin="round"/>
<path d="M539.351 460.289C537.341 460.289 525.277 461.797 525.277 461.797V470.343L537.341 466.825" stroke="#263238" stroke-miterlimit="10" stroke-linecap="round" stroke-linejoin="round"/>
<path d="M525.278 470.344C525.278 470.344 516.23 526.14 518.744 529.658C521.258 533.176 524.776 532.172 524.776 532.172" stroke="#263238" stroke-miterlimit="10" stroke-linecap="round" stroke-linejoin="round"/>
<path d="M501.15 663.87C501.15 663.87 514.722 662.362 518.743 660.854C522.765 659.346 495.118 654.32 495.118 654.32C493.626 654.32 492.622 651.304 494.632 647.786C496.642 644.267 490.61 644.77 489.102 647.283C487.594 649.797 496.642 656.834 494.632 659.347C492.622 661.861 493.626 669.401 496.14 668.395C498.652 667.388 501.15 663.87 501.15 663.87Z" fill="#263238" stroke="#263238" stroke-miterlimit="10" stroke-linecap="round" stroke-linejoin="round"/>
<path d="M454.401 665.88C454.401 665.88 440.829 669.902 435.803 669.398C430.777 668.896 460.937 658.34 460.937 658.34C460.937 658.34 467.955 658.844 454.401 665.88Z" fill="#263238" stroke="#263238" stroke-miterlimit="10" stroke-linecap="round" stroke-linejoin="round"/>
<path d="M523.489 234.035C522.594 234.266 511.781 231.108 504.17 231.4C496.56 231.693 478.705 236.377 477.533 234.912C476.363 233.448 476.63 222.331 476.63 221.454C476.63 220.576 479.874 220.277 486.899 215.886C493.925 211.495 498.022 205.348 496.852 196.567C495.682 187.786 488.364 162.32 488.364 162.32C488.364 162.32 485.144 158.223 477.241 157.637C469.337 157.051 446.799 166.418 439.773 172.272C432.747 178.126 429.527 182.81 433.041 191.298C436.553 199.787 449.726 219.983 451.19 224.667C452.654 229.351 451.775 235.498 449.14 237.254C446.506 239.011 423.967 248.377 422.796 249.255C421.625 250.133 414.6 251.89 411.088 263.305C407.575 274.721 422.796 334.142 423.675 336.776C424.553 339.411 408.747 376.292 409.332 382.148C409.917 388.002 442.701 397.075 470.216 396.198C497.731 395.32 525.246 383.61 528.758 379.513C532.27 375.414 534.027 372.78 532.27 368.39C530.514 363.999 514.122 323.605 514.122 323.605C514.122 323.605 530.221 311.018 530.221 303.116C530.221 295.213 522.61 282.333 522.61 282.333C522.61 282.333 560.748 264.138 580.067 247.159C599.386 230.182 616.685 187.578 619.32 182.309C621.954 177.04 622.832 174.405 622.832 174.405L615.514 166.209C615.514 166.209 588.291 194.602 573.949 208.067C559.607 221.532 533.735 231.4 523.489 234.035Z" fill="#808080" stroke="#263238" stroke-miterlimit="10" stroke-linecap="round" stroke-linejoin="round"/>
<path d="M555.98 248.084L522.611 282.331L532.563 263.012" stroke="#263238" stroke-miterlimit="10" stroke-linecap="round" stroke-linejoin="round"/>
<path d="M611.125 171.186L620.784 178.795L609.24 191.865" stroke="#263238" stroke-miterlimit="10" stroke-linecap="round" stroke-linejoin="round"/>
<path d="M451.146 336.624L473.386 326.779" stroke="#263238" stroke-miterlimit="10" stroke-linecap="round" stroke-linejoin="round"/>
<path d="M481.406 326.414L461.719 334.8" stroke="#263238" stroke-miterlimit="10" stroke-linecap="round" stroke-linejoin="round"/>
<path d="M422.796 249.255C422.796 249.255 435.3 272.292 436.808 293.906C438.316 315.52 412.178 348.194 412.178 348.194L419.216 349.2C419.216 349.2 440.83 322.056 444.349 301.95C447.868 281.843 435.301 244.646 435.301 244.646C435.301 244.646 426.377 245.321 422.796 249.255Z" fill="#263238" stroke="#263238" stroke-miterlimit="10" stroke-linecap="round" stroke-linejoin="round"/>
<path d="M425.139 186.615C425.139 186.615 415.186 178.711 409.332 179.297C403.478 179.882 395.574 195.103 399.966 205.055C404.357 215.008 412.259 219.982 419.577 214.128C426.896 208.274 429.823 199.786 429.823 195.102C429.823 190.421 425.139 186.615 425.139 186.615Z" fill="#263238" stroke="#263238" stroke-miterlimit="10" stroke-linecap="round" stroke-linejoin="round"/>
<path d="M420.455 181.932C420.455 181.932 407.868 173.444 401.721 176.078C395.574 178.713 394.695 183.982 394.695 183.982" stroke="#263238" stroke-miterlimit="10" stroke-linecap="round" stroke-linejoin="round"/>
<path d="M483.574 271.287C486.225 262.893 483.509 245.113 483.833 234.626C480.445 235.178 477.947 235.43 477.534 234.912C476.364 233.448 476.631 222.331 476.631 221.454C476.631 220.576 479.875 220.277 486.9 215.886C493.926 211.495 498.023 205.348 496.853 196.567C495.683 187.786 488.365 162.32 488.365 162.32C488.365 162.32 485.145 158.222 477.242 157.637C469.338 157.051 446.8 166.418 439.774 172.272C432.748 178.126 429.528 182.81 433.041 191.298C436.553 199.787 449.725 219.985 451.189 224.667C452.654 229.351 451.774 235.498 449.14 237.254C448.274 237.83 445.258 239.23 441.564 240.878C442.722 245.191 447.068 259.558 456.166 270.623C466.996 283.796 480.062 282.41 483.574 271.287Z" fill="white" stroke="#263238" stroke-miterlimit="10" stroke-linecap="round" stroke-linejoin="round"/>
<path d="M447.971 167.88C447.971 167.88 464.495 174.171 471.455 173.075C478.414 171.979 489.055 167.86 489.055 167.86L488.367 162.318L447.971 167.88Z" fill="#263238" stroke="#263238" stroke-miterlimit="10" stroke-linecap="round" stroke-linejoin="round"/>
<path d="M453.531 164.075C454.512 163.686 452.361 176.37 447.384 181.052C442.408 185.736 439.188 187.199 438.018 189.833C436.848 192.468 436.261 193.638 434.506 192.175C432.749 190.711 426.017 191.59 426.017 191.59L423.383 187.491C423.383 187.491 439.481 169.637 453.531 164.075Z" fill="#263238" stroke="#263238" stroke-miterlimit="10" stroke-linecap="round" stroke-linejoin="round"/>
<path d="M464.045 180.055C464.382 181.883 464.012 183.485 463.217 183.631C462.422 183.777 461.504 182.414 461.166 180.586C460.828 178.759 461.199 177.157 461.994 177.011C462.789 176.864 463.707 178.226 464.045 180.055Z" fill="#263238"/>
<path d="M483.072 173.909C483.41 175.737 483.039 177.338 482.244 177.485C481.449 177.631 480.531 176.269 480.193 174.44C479.855 172.612 480.226 171.011 481.021 170.864C481.816 170.717 482.734 172.08 483.072 173.909Z" fill="#263238"/>
<path d="M478.412 171.979C478.412 171.979 476.363 177.541 478.705 178.419C481.047 179.296 488.072 183.688 485.144 187.2C482.217 190.712 477.533 188.957 476.363 188.664C475.191 188.371 476.363 198.909 476.363 198.909C476.363 198.909 469.337 200.374 464.947 198.324C460.556 196.275 456.166 192.763 456.166 192.763" stroke="#263238" stroke-miterlimit="10" stroke-linecap="round" stroke-linejoin="round"/>
<path d="M457.631 193.933C457.631 193.933 458.803 199.787 462.022 204.471C465.242 209.154 466.999 205.348 467.584 203.006C468.169 200.664 468.169 199.202 468.169 199.202C468.169 199.202 458.801 198.031 457.631 193.933Z" fill="#263238" stroke="#263238" stroke-miterlimit="10" stroke-linecap="round" stroke-linejoin="round"/>
<path d="M453.531 176.078C453.531 176.078 454.996 170.809 460.557 168.76L453.531 176.078Z" fill="#263238"/>
<path d="M453.531 176.078C453.531 176.078 454.996 170.809 460.557 168.76" stroke="#263238" stroke-miterlimit="10" stroke-linecap="round" stroke-linejoin="round"/>
<path d="M440.653 195.397C439.775 195.397 432.75 187.201 425.431 190.128C418.113 193.055 423.382 205.349 428.943 206.52C434.505 207.69 443.871 201.543 443.871 201.543" fill="white"/>
<path d="M440.653 195.397C439.775 195.397 432.75 187.201 425.431 190.128C418.113 193.055 423.382 205.349 428.943 206.52C434.505 207.69 443.871 201.543 443.871 201.543" stroke="#263238" stroke-miterlimit="10" stroke-linecap="round" stroke-linejoin="round"/>
<path d="M423.382 187.494C423.382 187.494 443.286 166.71 464.947 159.394C486.608 152.075 487.486 151.783 487.486 151.783C487.486 151.783 482.217 141.537 478.997 134.22C475.778 126.902 447.678 130.416 438.31 133.05C428.944 135.685 417.527 153.834 416.357 159.98C415.186 166.125 423.382 187.494 423.382 187.494Z" fill="#5050D8" stroke="#263238" stroke-miterlimit="10" stroke-linecap="round" stroke-linejoin="round"/>
<path d="M447.969 167.88C447.969 167.88 471.679 170.515 486.022 166.418C500.364 162.32 519.391 150.318 518.22 148.269C517.05 146.22 487.486 151.781 487.486 151.781C487.486 151.781 453.823 159.979 447.969 167.88Z" fill="#5050D8" stroke="#263238" stroke-miterlimit="10" stroke-linecap="round" stroke-linejoin="round"/>
<path d="M432.187 314.749C432.187 314.749 443.49 312.561 446.771 309.645C450.052 306.728 448.594 297.977 448.594 297.977C448.594 297.977 451.511 292.509 450.417 290.321C449.324 288.133 433.282 293.238 433.282 293.238C433.282 293.238 438.022 289.228 439.845 286.675C441.668 284.123 438.386 282.665 437.293 284.123C436.2 285.581 430.002 292.144 428.544 294.332C427.086 296.521 426.356 306 426.356 306L419.064 311.104L420.888 319.125L432.187 314.749Z" fill="white" stroke="#263238" stroke-miterlimit="10" stroke-linecap="round" stroke-linejoin="round"/>
<path d="M419.718 251.18C397.872 261.482 375.484 312.002 369.452 323.062C359.556 341.203 375.986 372.826 404.136 345.682C414.351 335.831 426.254 321.051 426.254 321.051L423.74 306.474L406.65 315.522L422.232 300.442" fill="#808080"/>
<path d="M419.718 251.18C397.872 261.482 375.484 312.002 369.452 323.062C359.556 341.203 375.986 372.826 404.136 345.682C414.351 335.831 426.254 321.051 426.254 321.051L423.74 306.474L406.65 315.522L422.232 300.442" stroke="#263238" stroke-miterlimit="10" stroke-linecap="round" stroke-linejoin="round"/>
<path d="M416.217 312.004L418.729 326.078" stroke="#263238" stroke-miterlimit="10" stroke-linecap="round" stroke-linejoin="round"/>
<path d="M406.649 315.521L382.537 323.564" stroke="#263238" stroke-miterlimit="10" stroke-linecap="round" stroke-linejoin="round"/>
<path d="M375.986 323.062C375.986 323.062 387.548 316.024 400.114 317.03" stroke="#263238" stroke-miterlimit="10" stroke-linecap="round" stroke-linejoin="round"/>
<path d="M391.066 313.007C391.066 313.007 400.114 312.002 403.633 316.526" stroke="#263238" stroke-miterlimit="10" stroke-linecap="round" stroke-linejoin="round"/>
<path d="M495.621 231.575L522.613 282.331C522.613 282.331 525.781 277.821 520.755 263.243C515.729 248.665 507.183 231.073 507.183 231.073C507.183 231.073 498.135 230.571 495.621 231.575Z" fill="#263238" stroke="#263238" stroke-miterlimit="10" stroke-linecap="round" stroke-linejoin="round"/>
<path d="M462.444 681.463C462.444 681.463 456.287 673.161 447.239 676.931C438.191 680.701 433.667 684.227 432.159 690.259C430.651 696.291 431.782 698.93 431.782 698.93H466.466C466.466 698.93 466.843 692.144 465.712 687.997C464.581 683.85 462.444 681.463 462.444 681.463Z" fill="#263238" stroke="#263238" stroke-miterlimit="10" stroke-linecap="round" stroke-linejoin="round"/>
<path d="M466.298 691.391H431.916C430.824 696.595 431.78 698.931 431.78 698.931H466.464C466.464 698.931 466.678 695.069 466.298 691.391Z" fill="white" stroke="#263238" stroke-miterlimit="10" stroke-linecap="round" stroke-linejoin="round"/>
<path d="M493.609 683.976V698.93H555.437C555.437 698.93 554.683 691.013 550.159 687.62C545.635 684.227 528.293 681.965 528.293 681.965L526.785 678.447L493.609 683.976Z" fill="#263238" stroke="#263238" stroke-miterlimit="10" stroke-linecap="round" stroke-linejoin="round"/>
<path d="M553.569 692.145H493.609V698.931H555.437C555.437 698.931 555.1 695.471 553.569 692.145Z" fill="white" stroke="#263238" stroke-miterlimit="10" stroke-linecap="round" stroke-linejoin="round"/>
<path d="M476.631 221.454L465.119 222.665L476.631 229.33V221.454Z" fill="#263238" stroke="#263238" stroke-miterlimit="10" stroke-linecap="round" stroke-linejoin="round"/>
<path d="M432.302 656.831C432.302 656.831 437.328 652.809 441.35 648.789C445.372 644.767 441.35 646.779 438.334 641.751C435.318 636.725 428.783 622.649 428.783 622.649C428.783 622.649 430.76 646.777 431.279 648.285C431.799 649.793 424.762 654.82 427.778 656.831C430.794 658.843 432.302 656.831 432.302 656.831Z" fill="#263238" stroke="#263238" stroke-miterlimit="10" stroke-linecap="round" stroke-linejoin="round"/>
<path d="M522.278 649.795C522.278 649.795 505.69 639.741 502.674 630.693C499.658 621.645 523.284 640.243 524.288 650.799L522.278 649.795Z" fill="#263238" stroke="#263238" stroke-miterlimit="10" stroke-linecap="round" stroke-linejoin="round"/>
<path d="M194.079 524.109C194.079 524.109 191.817 554.269 193.325 570.103C194.833 585.937 203.127 634.947 203.127 634.947L219.715 635.701C219.715 635.701 225.747 574.627 227.255 559.547C228.763 544.467 228.763 522.601 228.763 522.601L194.079 524.109Z" fill="white" stroke="#263238" stroke-miterlimit="10" stroke-linecap="round" stroke-linejoin="round"/>
<path d="M221.488 617.74L200.299 617.856C201.896 627.684 203.125 634.947 203.125 634.947L219.713 635.701C219.713 635.701 220.458 628.165 221.488 617.74Z" fill="white" stroke="#263238" stroke-miterlimit="10" stroke-linecap="round" stroke-linejoin="round"/>
<path d="M228.637 532.639C228.746 527.447 228.759 523.641 228.761 522.792L228.283 522.623L194.077 524.11C194.077 524.11 193.4 533.159 193.033 543.943L228.637 532.639Z" fill="#263238" stroke="#263238" stroke-miterlimit="10" stroke-linecap="round" stroke-linejoin="round"/>
<path d="M292.28 524.109C292.28 524.109 294.542 554.269 293.034 570.103C291.526 585.937 283.232 634.947 283.232 634.947L266.644 635.701C266.644 635.701 260.612 574.627 259.104 559.547C257.596 544.467 257.596 522.601 257.596 522.601L292.28 524.109Z" fill="white" stroke="#263238" stroke-miterlimit="10" stroke-linecap="round" stroke-linejoin="round"/>
<path d="M264.844 617.502C265.887 628.052 266.643 635.702 266.643 635.702L283.231 634.948C283.231 634.948 284.499 627.45 286.132 617.386L264.844 617.502Z" fill="white" stroke="#263238" stroke-miterlimit="10" stroke-linecap="round" stroke-linejoin="round"/>
<path d="M292.28 524.109L257.596 522.601C257.596 522.601 257.597 532.59 258.062 543.72L292.82 532.686C292.536 527.541 292.28 524.109 292.28 524.109Z" fill="#263238" stroke="#263238" stroke-miterlimit="10" stroke-linecap="round" stroke-linejoin="round"/>
<path d="M225.277 625.036L198.311 627.488C198.311 627.488 202.164 665.31 202.164 666.361C202.164 667.412 196.21 675.117 192.357 681.77C188.504 688.423 190.956 698.93 190.956 698.93H227.728C227.728 698.93 231.229 691.925 231.229 684.922C231.229 677.917 228.077 666.711 228.077 664.609C228.077 662.508 225.277 625.036 225.277 625.036Z" fill="#616161" stroke="#263238" stroke-miterlimit="10" stroke-linecap="round" stroke-linejoin="round"/>
<path d="M202.865 680.369C208.468 682.47 221.425 680.369 221.776 677.218C222.126 674.066 218.975 667.411 218.975 667.411L218.643 625.64L203.893 626.98C204.814 637.441 207.355 666.675 207.067 668.112C206.716 669.862 197.261 678.267 202.865 680.369Z" fill="white" stroke="#263238" stroke-miterlimit="10" stroke-linecap="round" stroke-linejoin="round"/>
<path d="M201.813 632.04L220.783 641.567L203.961 649.465L219.467 657.071L205.57 661.898L221.774 664.959L204.108 668.48L222.1 670.675L201.111 675.815H221.774L203.23 670.967L222.1 667.895L205.57 665.555L220.344 661.02L204.985 658.095L218.972 648.849L203.961 641.419L219.673 631.34" stroke="#263238" stroke-miterlimit="10" stroke-linecap="round" stroke-linejoin="round"/>
<path d="M230.443 691.154H190.194C190.14 695.407 190.954 698.93 190.954 698.93H227.727C227.727 698.93 229.411 695.556 230.443 691.154Z" fill="white" stroke="#263238" stroke-miterlimit="10" stroke-linecap="round" stroke-linejoin="round"/>
<path d="M227.729 698.93L228.795 682.874" stroke="#263238" stroke-miterlimit="10" stroke-linecap="round" stroke-linejoin="round"/>
<path d="M191.16 687.015C191.16 687.015 194.359 681.182 201.133 680.241" stroke="#263238" stroke-miterlimit="10" stroke-linecap="round" stroke-linejoin="round"/>
<path d="M220.326 679.864C220.326 679.864 226.725 679.111 227.853 690.59" stroke="#263238" stroke-miterlimit="10" stroke-linecap="round" stroke-linejoin="round"/>
<path d="M260.053 626.652L289.082 628.16C289.082 628.16 287.574 662.844 289.082 666.614C290.59 670.384 293.938 672.975 303.408 676.039C316.226 680.186 323.766 683.579 324.52 688.857C325.274 694.135 324.897 698.659 324.897 698.659H286.443C286.443 698.659 282.673 695.266 279.657 694.512C276.641 693.758 276.641 693.758 276.641 693.758V698.659H257.037C257.037 698.659 253.267 687.349 256.283 680.563C259.299 673.777 262.692 660.582 262.692 656.058C262.692 651.534 260.053 626.652 260.053 626.652Z" fill="#616161" stroke="#263238" stroke-miterlimit="10" stroke-linecap="round" stroke-linejoin="round"/>
<path d="M257.036 698.659H276.64V693.758C276.64 693.758 276.64 693.758 279.656 694.512C282.672 695.266 286.442 698.659 286.442 698.659H324.896C324.896 698.659 325.153 695.557 324.815 691.496H255.439C255.987 695.485 257.036 698.659 257.036 698.659Z" fill="white" stroke="#263238" stroke-miterlimit="10" stroke-linecap="round" stroke-linejoin="round"/>
<path d="M301.052 676.477C301.052 676.477 291.644 680.993 292.396 690.965" stroke="#263238" stroke-miterlimit="10" stroke-linecap="round" stroke-linejoin="round"/>
<path d="M259.654 673.653C259.654 673.653 274.332 674.97 274.896 691.342" stroke="#263238" stroke-miterlimit="10" stroke-linecap="round" stroke-linejoin="round"/>
<path d="M301.568 675.421C293.497 672.617 290.489 670.128 289.084 666.614C287.576 662.844 289.084 628.16 289.084 628.16L281.883 627.786C282.013 633.197 282.652 659.608 282.988 666.691C283.364 674.594 295.972 677.793 297.854 677.793C299.226 677.793 301.093 677.484 301.568 675.421Z" fill="white" stroke="#263238" stroke-miterlimit="10" stroke-linecap="round" stroke-linejoin="round"/>
<path d="M289.385 634.513L280.354 634.138L288.821 638.277L281.67 641.287L288.632 643.546L281.483 647.309L288.632 650.32L281.294 653.143L288.445 655.778L282.422 659.164L288.445 661.61L282.047 667.068L289.573 667.255L285.057 673.278L291.267 670.455L289.009 675.158L295.406 672.337L293.901 676.852L298.982 674.594L297.854 677.793" stroke="#263238" stroke-miterlimit="10" stroke-linecap="round" stroke-linejoin="round"/>
<path d="M221.715 217.847C221.715 217.847 149.493 232.674 138.69 239.695C124.124 249.163 116.112 261.545 123.395 277.566C130.678 293.588 141.603 289.946 141.603 289.946C141.603 289.946 132.863 396.277 141.603 418.853C150.342 441.43 190.399 445.8 206.421 441.43C222.444 437.059 273.425 426.864 277.793 411.57C282.164 396.275 274.152 242.606 271.24 228.04C268.326 213.477 251.575 202.553 221.715 217.847Z" fill="#263238" stroke="#263238" stroke-miterlimit="10" stroke-linecap="round" stroke-linejoin="round"/>
<path d="M123.398 277.567C130.68 293.59 141.605 289.948 141.605 289.948C141.605 289.948 132.865 396.278 141.605 418.855C150.344 441.431 190.401 445.801 206.424 441.431C222.446 437.061 273.427 426.865 277.796 411.571C278.358 409.6 278.716 405.317 278.904 399.344C263.01 405.747 245.191 412.933 227.543 419.583C177.29 438.519 164.181 414.484 162.725 380.984C161.268 347.483 170.737 268.827 164.181 250.621C157.626 232.413 138.692 239.697 138.692 239.697C124.124 249.164 116.114 261.545 123.398 277.567Z" fill="white" stroke="#263238" stroke-miterlimit="10" stroke-linecap="round" stroke-linejoin="round"/>
<path d="M141.604 289.948C141.604 289.948 158.355 288.491 159.083 270.283C159.811 252.076 148.887 244.794 137.234 253.532C125.581 262.271 130.68 276.109 137.234 277.565C143.789 279.022 152.528 264.456 147.429 261.543C142.331 258.63 139.417 264.456 139.417 268.825" stroke="#263238" stroke-miterlimit="10" stroke-linecap="round" stroke-linejoin="round"/>
<path d="M185.785 380.849L173.721 529.387L315.473 528.633L292.853 374.062L185.785 380.849Z" fill="white" stroke="#263238" stroke-miterlimit="10" stroke-linecap="round" stroke-linejoin="round"/>
<path d="M185.785 394.044C186.916 394.798 295.115 388.766 295.115 388.766L292.853 379.341L185.785 383.488V394.044Z" fill="#616161" stroke="#263238" stroke-miterlimit="10" stroke-linecap="round" stroke-linejoin="round"/>
<path d="M250.629 528.632V421.564" stroke="#263238" stroke-miterlimit="10" stroke-linecap="round" stroke-linejoin="round"/>
<path d="M250.629 444.184L267.971 431.366L251.303 453.211L250.629 444.184Z" fill="#263238" stroke="#263238" stroke-miterlimit="10" stroke-linecap="round" stroke-linejoin="round"/>
<path d="M183.522 459.265L223.484 460.773V472.837L182.768 470.575" stroke="#263238" stroke-miterlimit="10" stroke-linecap="round" stroke-linejoin="round"/>
<path d="M224.238 478.114L221.976 512.044H179.752L180.506 486.408" stroke="#263238" stroke-miterlimit="10" stroke-linecap="round" stroke-linejoin="round"/>
<path d="M304.163 460.772L281.543 464.542V476.606L303.409 473.59" stroke="#263238" stroke-miterlimit="10" stroke-linecap="round" stroke-linejoin="round"/>
<path d="M281.543 476.606V512.044L309.441 511.29" stroke="#263238" stroke-miterlimit="10" stroke-linecap="round" stroke-linejoin="round"/>
<path d="M247.99 381.98L248.367 391.028L264.955 389.897L264.578 380.472L247.99 381.98Z" fill="white" stroke="#263238" stroke-miterlimit="10" stroke-linecap="round" stroke-linejoin="round"/>
<path d="M281.543 246.636C281.543 246.636 258.923 238.342 243.843 242.112C228.763 245.882 219.715 252.668 219.715 252.668L221.223 383.11L292.853 379.34L281.543 246.636Z" fill="#263238" stroke="#263238" stroke-miterlimit="10" stroke-linecap="round" stroke-linejoin="round"/>
<path d="M291.188 248.534C291.188 248.534 299.969 248.241 307.287 259.657C314.605 271.072 337.436 307.661 340.948 319.663C344.461 331.664 340.948 340.446 336.851 341.617C332.754 342.787 326.606 341.617 326.606 341.617C326.606 341.617 318.995 335.763 312.263 329.616C305.53 323.469 297.336 310.297 297.336 310.297L291.188 248.534Z" fill="#5050D8" stroke="#263238" stroke-miterlimit="10" stroke-linecap="round" stroke-linejoin="round"/>
<path d="M275.888 291.122L281.795 439.408L316.479 426.842C316.479 426.842 298.885 287.1 295.367 269.004C291.849 250.908 291.849 246.384 284.309 240.352C276.769 234.32 270.234 251.914 270.234 251.914L275.888 291.122Z" fill="#5050D8" stroke="#263238" stroke-miterlimit="10" stroke-linecap="round" stroke-linejoin="round"/>
<path d="M285.806 263.729C285.806 263.729 296.73 312.525 296.73 314.71C296.73 316.895 307.654 354.037 307.654 354.037L302.555 308.883L291.188 248.533L281.543 246.638L285.806 263.729Z" fill="#263238" stroke="#263238" stroke-miterlimit="10" stroke-linecap="round" stroke-linejoin="round"/>
<path d="M243.089 292.63C243.089 292.63 238.063 402.212 235.047 421.816C232.031 441.42 231.528 443.934 231.528 443.934C231.528 443.934 204.384 435.388 191.818 429.356C179.252 423.324 176.738 421.816 176.738 421.816C176.738 421.816 182.268 376.074 183.272 364.512C184.278 352.95 184.278 328.32 184.278 306.202C184.278 284.084 184.278 259.956 193.828 252.416C203.379 244.876 214.438 244.374 218.962 244.374C223.486 244.374 242.587 263.978 243.089 292.63Z" fill="#5050D8" stroke="#263238" stroke-miterlimit="10" stroke-linecap="round" stroke-linejoin="round"/>
<path d="M194.769 244.065L226.086 300.871L170.736 378.07L180.932 375.157C180.932 375.157 233.37 307.425 234.826 300.871C236.283 294.316 203.51 241.88 203.51 241.88L194.769 244.065Z" fill="#263238" stroke="#263238" stroke-miterlimit="10" stroke-linecap="round" stroke-linejoin="round"/>
<path d="M233.287 214.214C233.287 214.214 212.929 216.853 207.274 225.147C201.619 233.441 197.472 241.358 201.619 246.259C205.766 251.16 217.453 261.716 224.239 266.24C231.025 270.764 243.089 292.63 243.089 292.63C243.089 292.63 243.089 274.911 243.089 266.617C243.089 258.323 235.926 249.275 234.418 241.735C232.91 234.195 245.351 222.131 254.022 225.901C262.693 229.671 269.479 240.981 269.102 246.259C268.725 251.537 270.61 257.946 272.495 266.994C274.38 276.042 275.888 291.122 275.888 291.122C275.888 291.122 288.706 270.764 292.853 256.815C297 242.866 295.115 228.54 279.658 219.115C264.201 209.69 233.287 214.214 233.287 214.214Z" fill="#5050D8" stroke="#263238" stroke-miterlimit="10" stroke-linecap="round" stroke-linejoin="round"/>
<path d="M286.324 224.283C284.454 222.442 282.265 220.703 279.66 219.115C264.203 209.69 233.289 214.214 233.289 214.214C233.289 214.214 212.931 216.853 207.276 225.147C206.617 226.114 205.982 227.073 205.375 228.026C204.701 232.092 205.328 236.985 208.784 242.489C217.232 255.944 234.76 262.383 243.066 266.126C242.794 257.966 235.898 249.127 234.42 241.735C232.912 234.195 245.353 222.131 254.024 225.901C262.695 229.671 269.481 240.981 269.104 246.259C268.727 251.537 270.612 257.946 272.497 266.994C272.606 267.517 272.715 268.062 272.82 268.621C273.462 268.005 274.108 267.343 274.759 266.617C284.561 255.684 287.577 243.62 287.577 233.064C287.576 229.949 287.108 227.004 286.324 224.283Z" fill="white" stroke="#263238" stroke-miterlimit="10" stroke-linecap="round" stroke-linejoin="round"/>
<path d="M229.893 199.512C229.893 199.512 232.155 226.656 232.909 234.196C233.663 241.736 237.81 260.963 250.628 264.733C263.446 268.503 270.986 253.8 269.101 242.867C267.216 231.934 263.823 221.755 263.823 217.985C263.823 214.215 263.446 213.084 263.446 213.084L229.893 199.512Z" fill="white" stroke="#263238" stroke-miterlimit="10" stroke-linecap="round" stroke-linejoin="round"/>
<path d="M263.446 213.084L229.893 199.512C229.893 199.512 231.613 220.164 232.554 230.442L263.814 217.255C263.768 214.091 263.446 213.084 263.446 213.084Z" fill="#263238" stroke="#263238" stroke-miterlimit="10" stroke-linecap="round" stroke-linejoin="round"/>
<path d="M196.226 249.893C196.226 249.893 186.862 248.288 179.138 256.903C171.414 265.518 160.719 296.711 156.56 316.913C152.401 337.114 148.242 354.938 156.263 354.938C164.284 354.938 199.636 343.649 199.636 343.649V317.507" fill="#5050D8"/>
<path d="M196.226 249.893C196.226 249.893 186.862 248.288 179.138 256.903C171.414 265.518 160.719 296.711 156.56 316.913C152.401 337.114 148.242 354.938 156.263 354.938C164.284 354.938 199.636 343.649 199.636 343.649V317.507" stroke="#263238" stroke-miterlimit="10" stroke-linecap="round" stroke-linejoin="round"/>
<path d="M214.395 307.862C216.491 305.138 218.338 302.026 219.241 299.088C220.43 295.226 223.4 293.741 226.371 293.444C229.342 293.147 239.74 290.77 240.334 292.85C240.928 294.929 241.819 296.712 240.928 297.603C240.037 298.494 239.74 299.683 239.74 299.683C239.74 299.683 243.305 310.674 242.413 314.536C241.522 318.398 236.175 321.369 233.204 322.26C230.233 323.152 222.806 322.854 221.618 323.152C220.43 323.449 207.655 329.39 207.655 329.39C207.655 329.39 206.173 315.453 206.17 315.428C206.144 315.188 210.477 312.258 210.84 311.897C212.024 310.73 213.246 309.353 214.395 307.862Z" fill="white" stroke="#263238" stroke-miterlimit="10" stroke-linecap="round" stroke-linejoin="round"/>
<path d="M191.614 317.208L167.848 319.585" stroke="#263238" stroke-miterlimit="10" stroke-linecap="round" stroke-linejoin="round"/>
<path d="M208.844 309.484L212.706 345.133L196.07 347.213L191.316 315.426L208.844 309.484Z" fill="white" stroke="#263238" stroke-miterlimit="10" stroke-linecap="round" stroke-linejoin="round"/>
<path d="M311.678 344.836L305.824 317.613L318.997 320.248L311.678 344.836Z" fill="#616161" stroke="#263238" stroke-miterlimit="10" stroke-linecap="round" stroke-linejoin="round"/>
<path d="M309.292 304.819C307.308 302.241 305.559 299.294 304.704 296.512C303.579 292.855 300.766 291.448 297.952 291.168C295.14 290.886 285.294 288.636 284.732 290.605C284.169 292.574 283.325 294.262 284.169 295.105C285.014 295.949 285.294 297.074 285.294 297.074C285.294 297.074 281.919 307.483 282.762 311.139C283.607 314.796 288.669 317.609 291.483 318.453C294.295 319.298 301.329 319.016 302.454 319.298C303.579 319.578 315.674 325.205 315.674 325.205C315.674 325.205 317.078 312.008 317.081 311.984C317.105 311.758 313.004 308.982 312.658 308.642C311.536 307.537 310.38 306.234 309.292 304.819Z" fill="white" stroke="#263238" stroke-miterlimit="10" stroke-linecap="round" stroke-linejoin="round"/>
<path d="M312.848 305.612L311.678 344.835L331.289 342.786L328.947 307.66L312.848 305.612Z" fill="white" stroke="#263238" stroke-miterlimit="10" stroke-linecap="round" stroke-linejoin="round"/>
<path d="M271.392 148.692C271.392 148.692 277.416 181.831 277.416 187.857C277.416 193.881 271.893 211.455 269.383 215.473C266.873 219.49 254.32 222.001 249.3 219.992C244.278 217.983 230.221 204.929 227.208 199.406C224.195 193.883 223.19 188.862 223.19 188.862C223.19 188.862 216.162 191.875 210.638 183.841C205.114 175.808 208.127 168.275 213.651 167.773L218.671 169.279C218.671 169.279 209.633 153.714 212.646 146.685C215.659 139.656 251.811 137.146 259.342 137.146C266.873 137.144 271.392 148.692 271.392 148.692Z" fill="white" stroke="#263238" stroke-miterlimit="10" stroke-linecap="round" stroke-linejoin="round"/>
<path d="M243.941 156.85L235.932 160.399C234.762 160.917 234.287 162.327 234.905 163.449L235.2 163.985C235.776 165.027 237.081 165.416 238.132 164.859L245.845 160.776C246.93 160.201 247.328 158.847 246.726 157.778C246.176 156.794 244.969 156.393 243.941 156.85Z" fill="#263238" stroke="#263238" stroke-miterlimit="10" stroke-linecap="round" stroke-linejoin="round"/>
<path d="M258.819 155.101L258.782 155.242C258.516 156.216 259.116 157.214 260.101 157.436L266.276 158.831C267.385 159.081 268.437 158.238 268.437 157.102C268.437 156.29 267.884 155.581 267.095 155.383L260.958 153.848C260.024 153.614 259.074 154.172 258.819 155.101Z" fill="#263238" stroke="#263238" stroke-miterlimit="10" stroke-linecap="round" stroke-linejoin="round"/>
<path d="M275.308 198.909C275.308 198.909 274.327 187.457 272.036 185.821C269.745 184.185 252.732 185.494 252.732 185.494C252.732 185.494 235.392 180.585 235.064 184.512C234.825 187.392 235.592 202.716 236.314 209.889C241.163 214.53 246.569 218.897 249.301 219.991C254.323 221.999 266.876 219.488 269.385 215.471C270.894 213.055 273.488 205.742 275.32 198.98C275.313 198.945 275.308 198.909 275.308 198.909ZM271.381 200.872C269.418 207.415 265.165 211.342 263.202 210.361C261.239 209.379 259.602 203.163 257.966 202.508C256.33 201.854 255.021 205.126 253.059 208.071C251.096 211.017 245.862 211.998 243.571 210.035C241.28 208.071 238.662 190.076 238.662 187.786C238.662 185.495 262.548 189.095 262.548 189.095C262.548 189.095 268.436 188.44 270.073 188.767C271.709 189.092 273.345 194.327 271.381 200.872Z" fill="#808080" stroke="#545454" stroke-miterlimit="10" stroke-linecap="round" stroke-linejoin="round"/>
<path d="M242.59 189.419C242.59 189.419 252.078 195.962 262.221 193.673" stroke="#263238" stroke-miterlimit="10" stroke-linecap="round" stroke-linejoin="round"/>
<path d="M256.984 161.936C256.984 161.936 261.565 181.894 261.892 183.53C262.22 185.166 258.62 190.401 254.695 187.457C250.768 184.512 250.113 181.567 250.113 181.567" fill="white"/>
<path d="M256.984 161.936C256.984 161.936 261.565 181.894 261.892 183.53C262.22 185.166 258.62 190.401 254.695 187.457C250.768 184.512 250.113 181.567 250.113 181.567" stroke="#263238" stroke-miterlimit="10" stroke-linecap="round" stroke-linejoin="round"/>
<path d="M246.778 171.647C247.306 173.375 247.105 174.969 246.327 175.206C245.549 175.444 244.49 174.236 243.962 172.508C243.435 170.78 243.635 169.186 244.413 168.949C245.191 168.711 246.25 169.92 246.778 171.647Z" fill="#263238"/>
<path d="M266.136 168.964C266.344 170.759 265.858 172.291 265.05 172.384C264.242 172.478 263.418 171.098 263.21 169.304C263.002 167.509 263.488 165.977 264.296 165.883C265.104 165.79 265.928 167.168 266.136 168.964Z" fill="#263238"/>
<path d="M210.638 127.102C210.638 127.102 197.583 140.157 202.605 151.203C207.626 162.249 220.179 182.834 220.179 182.834H222.69L222.188 174.299C222.188 174.299 230.221 171.286 228.714 164.257C227.208 157.229 223.693 152.709 223.693 152.709C223.693 152.709 232.228 159.236 242.27 157.731C252.311 156.226 256.831 144.174 260.345 148.191C263.86 152.209 269.382 154.718 279.926 149.196C290.47 143.672 304.529 116.559 292.981 109.028C281.432 101.497 263.358 116.559 257.332 118.066C251.307 119.572 246.788 109.531 233.231 113.546C219.675 117.562 210.638 127.102 210.638 127.102Z" fill="#263238" stroke="#263238" stroke-miterlimit="10" stroke-linecap="round" stroke-linejoin="round"/>
<path d="M29.1641 698.93H746.972" stroke="#263238" stroke-miterlimit="10" stroke-linecap="round" stroke-linejoin="round"/>
</svg>
