<svg width="101" height="67" viewBox="0 0 101 67" fill="none" xmlns="http://www.w3.org/2000/svg">
<g clip-path="url(#clip0_467_24630)">
<path d="M71.1983 60.4634L71.2175 60.4716L71.2372 60.4782L71.2665 60.488C71.5462 60.5814 71.913 60.7038 72.2953 60.7038C72.7329 60.7038 73.3829 60.6024 73.8238 60.1818L97.7014 41.6992L97.7014 41.6993L97.7077 41.6943C98.3171 41.2067 98.6953 40.4671 98.6953 39.7038C98.6953 38.9406 98.3171 38.201 97.7077 37.7134L97.7024 37.7093L73.8086 19.1141C73.0223 18.4639 72.0108 18.4961 71.1983 18.8443C70.2843 19.236 69.7953 20.1389 69.7953 21.1038V30.1038H29.0953C27.7192 30.1038 26.5953 31.2277 26.5953 32.6038V38.9844L9.31031 25.6025L26.5953 12.1276V18.5039C26.5953 19.88 27.7192 21.0039 29.0953 21.0039H58.8953C60.2715 21.0039 61.3953 19.88 61.3953 18.5039C61.3953 17.1277 60.2715 16.0039 58.8953 16.0039H31.5953V7.00385C31.5953 6.0482 31.1157 5.15345 30.2186 4.75576C29.3352 4.26408 28.3252 4.39907 27.582 5.0141L3.68823 23.6093L3.6882 23.6092L3.68297 23.6134C3.07353 24.101 2.69531 24.8406 2.69531 25.6038C2.69531 26.3671 3.07353 27.1067 3.68297 27.5943L3.68293 27.5943L3.68926 27.5992L27.5826 46.0941C28.3689 46.7438 29.38 46.7115 30.1923 46.3634C31.1063 45.9717 31.5953 45.0688 31.5953 44.1038V35.1038H72.2953C73.6714 35.1038 74.7953 33.98 74.7953 32.6038V26.2233L92.0803 39.6052L74.7953 53.0801V46.7038C74.7953 45.3277 73.6715 44.2038 72.2953 44.2038H42.3953C41.0192 44.2038 39.8953 45.3277 39.8953 46.7038C39.8953 48.08 41.0192 49.2038 42.3953 49.2038H69.7953V58.2038C69.7953 59.1688 70.2843 60.0717 71.1983 60.4634Z" fill="#5050D8" stroke="#5050D8"/>
</g>
<defs>
<clipPath id="clip0_467_24630">
<rect width="100" height="66" fill="white" transform="translate(0.695312 0.603516)"/>
</clipPath>
</defs>
</svg>
