<svg width="102" height="98" viewBox="0 0 102 98" fill="none" xmlns="http://www.w3.org/2000/svg">
<g clip-path="url(#clip0_485_4417)">
<path d="M91.5024 48.9365C91.5024 47.3727 90.6088 46.0323 89.2125 45.418L22.6396 16.7112C21.1875 16.041 19.4562 16.432 18.3392 17.549C17.2222 18.666 16.943 20.3973 17.6132 21.8494L30.1235 48.9924L17.6132 76.1353C16.943 77.5874 17.2781 79.2629 18.3392 80.4358C18.3392 80.4358 18.3392 80.4358 18.3951 80.4916C19.5121 81.6086 21.1875 81.9437 22.6396 81.2735L89.2125 52.4551C90.6088 51.8407 91.4465 50.4445 91.5024 48.9365ZM28.7831 70.2153L37.8308 50.5562C38.2776 49.5509 38.3334 48.378 37.8308 47.3169L28.7831 27.6578L77.9867 48.9365L28.7831 70.2153Z" fill="#5050D8"/>
</g>
<defs>
<clipPath id="clip0_485_4417">
<rect width="101.099" height="96.3598" fill="white" transform="translate(0 0.779297)"/>
</clipPath>
</defs>
</svg>
