<svg width="755" height="733" viewBox="0 0 755 733" fill="none" xmlns="http://www.w3.org/2000/svg">
<path d="M718.003 396.938C697.654 458.615 653.815 526.211 589.301 548.216C491.822 581.474 483.114 661.42 306.195 660.874C278.611 660.791 253.007 657.904 229.384 652.625C216.685 649.79 204.554 646.247 193.011 642.068C88.2062 604.262 30.8238 514.354 22.6354 418.279C11.8456 291.918 97.8378 228.167 153.875 190.62C209.912 153.072 273.808 13.502 447.735 12.6726C474.253 12.558 500.815 15.1562 526.686 21.1068C585.744 34.6652 646.509 67.3572 683.011 117.169C685.751 120.912 688.375 124.749 690.898 128.663C740.131 205.268 745.752 312.854 718.003 396.938Z" fill="#5050D8"/>
<path opacity="0.7" d="M718.003 396.938C697.654 458.615 653.815 526.211 589.301 548.216C491.822 581.474 483.114 661.42 306.195 660.874C278.611 660.791 253.007 657.904 229.384 652.625C216.685 649.79 204.554 646.247 193.011 642.068C88.2062 604.262 30.8238 514.354 22.6354 418.279C11.8456 291.918 97.8378 228.167 153.875 190.62C209.912 153.072 273.808 13.502 447.735 12.6726C474.253 12.558 500.815 15.1562 526.686 21.1068C585.744 34.6652 646.509 67.3572 683.011 117.169C685.751 120.912 688.375 124.749 690.898 128.663C740.131 205.268 745.752 312.854 718.003 396.938Z" fill="white"/>
<path d="M707.383 669.759H729.938" stroke="#263238" stroke-miterlimit="10" stroke-linecap="round" stroke-linejoin="round"/>
<path d="M24.4961 669.759H693.986" stroke="#263238" stroke-miterlimit="10" stroke-linecap="round" stroke-linejoin="round"/>
<path opacity="0.3" d="M83.8013 100.021C60.931 100.021 42.3916 118.56 42.3916 141.43C42.3916 164.301 83.8013 206.006 83.8013 206.006C83.8013 206.006 125.211 164.301 125.211 141.43C125.211 118.561 106.67 100.021 83.8013 100.021ZM83.8013 156.109C75.6958 156.109 69.1239 149.537 69.1239 141.432C69.1239 133.326 75.6958 126.754 83.8013 126.754C91.9068 126.754 98.4786 133.326 98.4786 141.432C98.4786 149.537 91.9068 156.109 83.8013 156.109Z" stroke="black" stroke-miterlimit="10" stroke-linecap="round" stroke-linejoin="round"/>
<path opacity="0.3" d="M645.454 539.4C630.83 539.4 618.975 551.255 618.975 565.879C618.975 580.502 645.454 607.17 645.454 607.17C645.454 607.17 671.933 580.502 671.933 565.879C671.933 551.255 660.077 539.4 645.454 539.4ZM645.454 575.264C640.271 575.264 636.068 571.062 636.068 565.878C636.068 560.693 640.269 556.492 645.454 556.492C650.638 556.492 654.839 560.693 654.839 565.878C654.839 571.062 650.637 575.264 645.454 575.264Z" stroke="black" stroke-miterlimit="10" stroke-linecap="round" stroke-linejoin="round"/>
<path opacity="0.3" d="M677.333 50.8037C662.709 50.8037 650.854 62.6581 650.854 77.2827C650.854 91.9058 677.333 118.573 677.333 118.573C677.333 118.573 703.811 91.9058 703.811 77.2827C703.811 62.6596 691.957 50.8037 677.333 50.8037ZM677.333 86.6685C672.15 86.6685 667.947 82.4672 667.947 77.2827C667.947 72.0997 672.148 67.8969 677.333 67.8969C682.516 67.8969 686.718 72.0982 686.718 77.2827C686.718 82.4657 682.517 86.6685 677.333 86.6685Z" stroke="black" stroke-miterlimit="10" stroke-linecap="round" stroke-linejoin="round"/>
<g opacity="0.2">
<path d="M669.465 435.659C664.147 432.76 656.065 421.847 656.059 421.839C655.976 421.726 664.869 418.695 665.452 418.569C672.201 417.101 686.105 418.235 689.986 424.925C692.78 429.744 690.298 435.558 685.427 437.761C680.451 440.011 673.997 438.126 669.465 435.659Z" fill="black"/>
<path d="M635.527 456.065C631.335 452.031 626.681 440.305 626.316 439.37C619.785 442.017 612.87 444.203 605.749 446.031C601.679 447.08 597.547 448.009 593.392 448.89C595.348 448.771 597.099 448.679 597.345 448.691C604.242 449.059 617.351 453.824 619.327 461.301C620.752 466.689 616.822 471.638 611.541 472.478C606.15 473.335 600.418 469.811 596.702 466.235C592.929 462.607 588.763 452.689 587.695 450.05C586.098 450.371 584.507 450.709 582.909 451.024C575.239 452.536 567.578 454.01 560.109 455.687C557.476 456.276 554.905 456.955 552.331 457.623C554.07 457.519 555.534 457.445 555.759 457.457C562.655 457.825 575.765 462.59 577.741 470.067C579.164 475.455 575.234 480.406 569.955 481.244C564.561 482.099 558.832 478.577 555.116 475C551.515 471.537 547.588 462.417 546.303 459.288C543.687 460.052 541.066 460.812 538.566 461.67C536.871 462.295 535.197 462.777 533.531 463.501C531.866 464.181 530.216 464.855 528.584 465.522C525.488 466.921 522.284 468.346 519.298 469.788C517.213 470.776 515.245 471.754 513.259 472.735C515.872 472.118 521.014 471.015 521.455 470.973C528.327 470.29 542.006 473.015 545.094 480.107C547.317 485.216 544.183 490.705 539.089 492.332C533.89 493.996 527.693 491.382 523.477 488.41C518.835 485.136 512.661 474.707 511.898 473.398C508.618 475.031 505.443 476.652 502.472 478.228C495.903 481.694 490.127 484.945 485.29 487.763L482.182 483.758C487.259 480.937 493.371 477.655 500.376 474.155C503.699 472.483 507.285 470.762 510.985 469.031C510.715 468.096 509.208 462.773 508.428 457.626C502.615 457.127 492.433 452.19 491.124 451.543C489.287 454.714 487.534 457.817 485.926 460.772C482.545 466.945 479.656 472.56 477.251 477.403L473.889 473.072C476.195 468.723 478.872 463.833 481.927 458.529C483.777 455.301 485.819 451.886 487.947 448.403C486.814 447.441 477.606 439.518 475.194 434.368C473.009 429.696 471.52 423.136 474.069 418.306C476.563 413.579 482.518 411.457 487.16 414.542C493.6 418.824 493.882 432.769 492.006 439.417C491.896 439.809 490.219 443.929 489.12 446.51C489.998 445.091 490.835 443.704 491.756 442.253C493.557 439.373 495.44 436.553 497.456 433.511C498.48 432.076 499.516 430.627 500.561 429.162C501.569 427.689 502.817 426.259 503.95 424.789C506.646 421.434 509.541 418.166 512.53 414.939C510.013 413.354 501.152 407.599 498.271 403.293C495.401 399.005 492.938 392.749 494.727 387.588C496.476 382.537 502.042 379.536 507.095 381.882C514.111 385.139 516.502 398.883 515.655 405.737C515.604 406.164 514.441 411.014 513.752 413.666C515.564 411.74 517.363 409.809 519.26 407.921C524.734 402.466 530.447 397.117 536.12 391.755C537.86 390.113 539.572 388.457 541.294 386.804C540.391 386.251 529.712 379.638 526.484 374.814C523.614 370.528 521.15 364.269 522.938 359.11C524.688 354.058 530.254 351.057 535.307 353.405C542.322 356.662 544.714 370.405 543.866 377.259C543.803 377.774 542.122 384.752 541.607 386.504C545.397 382.864 549.138 379.204 552.681 375.443C557.576 370.263 562.092 364.908 566.084 359.398C565.663 359.141 554.487 352.289 551.18 347.35C548.311 343.063 545.846 336.803 547.635 331.645C549.384 326.593 554.949 323.592 560.004 325.94C567.019 329.197 569.41 342.938 568.563 349.793C568.495 350.33 566.684 357.835 566.259 359.173C566.494 358.844 566.776 358.531 567.008 358.2C571.196 352.263 574.505 345.987 577.317 339.958C578.958 336.458 580.33 333.021 581.591 329.648C579.377 328.585 569.32 323.617 565.853 319.501C562.529 315.554 559.393 309.604 560.605 304.282C561.791 299.069 566.992 295.475 572.273 297.252C579.603 299.72 583.491 313.116 583.4 320.021C583.396 320.396 582.922 324.209 582.539 326.98C583.085 325.448 583.678 323.88 584.169 322.402C586.036 316.859 587.402 311.668 588.576 307.06C589.221 304.434 589.755 302.049 590.228 299.809C588.601 297.635 582.155 288.784 580.995 283.628C579.865 278.596 579.823 271.869 583.35 267.701C586.805 263.62 593.079 262.828 596.945 266.838C602.315 272.404 599.592 286.085 596.33 292.174C596.046 292.7 590.693 300.421 590.607 300.31C590.607 300.31 590.527 300.204 590.507 300.179C590.096 302.343 589.627 304.656 589.064 307.174C587.989 311.817 586.733 317.052 584.979 322.655C583.242 328.262 581.197 334.305 578.471 340.474C575.744 346.663 572.559 353.033 568.43 359.17C568.385 359.239 568.326 359.306 568.279 359.375C570.045 357.955 575.114 354.147 575.536 353.9C581.491 350.403 595.054 347.142 600.83 352.289C604.989 355.997 604.443 362.295 600.501 365.908C596.475 369.595 589.753 369.818 584.679 368.885C578.958 367.833 568.608 360.619 567.786 360.043C563.801 365.854 559.238 371.492 554.308 376.945C551.491 380.065 548.558 383.12 545.578 386.147C547.145 384.967 548.553 383.924 548.766 383.8C554.723 380.302 568.283 377.043 574.058 382.19C578.219 385.898 577.671 392.195 573.729 395.807C569.705 399.495 562.982 399.719 557.909 398.785C552.761 397.838 543.814 391.867 541.467 390.254C540.312 391.402 539.171 392.563 538.011 393.708C532.448 399.2 526.871 404.654 521.568 410.174C519.696 412.117 517.926 414.1 516.149 416.077C517.54 415.032 518.722 414.164 518.915 414.049C524.872 410.551 538.433 407.293 544.207 412.439C548.366 416.148 547.822 422.446 543.879 426.057C539.855 429.744 533.131 429.968 528.057 429.034C523.145 428.132 514.836 422.693 512.039 420.79C510.279 422.869 508.511 424.951 506.899 427.047C505.832 428.503 504.702 429.83 503.71 431.352C502.697 432.836 501.692 434.308 500.698 435.764C498.889 438.642 497.002 441.596 495.306 444.446C494.112 446.42 493.011 448.323 491.895 450.235C493.735 448.279 497.416 444.523 497.758 444.245C501.318 441.348 508.208 438.063 514.338 437.411C514.862 436.98 515.418 436.597 516.015 436.27C520.705 433.703 526.843 435.217 529.011 440.352C532.021 447.476 524.563 459.265 519.331 463.772C519.022 464.038 515.352 466.55 513.01 468.097C514.525 467.398 515.988 466.701 517.556 466.001C520.648 464.594 523.775 463.281 527.135 461.853C528.782 461.221 530.444 460.585 532.125 459.941C533.776 459.267 535.607 458.764 537.362 458.163C541.461 456.854 545.681 455.724 549.954 454.682C548.728 451.971 544.513 442.283 544.486 437.102C544.458 431.943 545.856 425.364 550.193 422.048C554.439 418.799 560.735 419.365 563.656 424.111C567.711 430.698 562.125 443.479 557.638 448.729C557.357 449.056 553.714 452.461 551.675 454.292C554.249 453.685 556.816 453.067 559.44 452.538C567.014 451.009 574.729 449.697 582.42 448.355C584.777 447.946 587.119 447.509 589.465 447.08C589.019 446.12 583.761 434.713 583.727 428.909C583.699 423.75 585.097 417.172 589.434 413.855C593.68 410.608 599.976 411.173 602.897 415.919C606.952 422.506 601.367 435.288 596.879 440.537C596.541 440.932 591.29 445.824 589.895 447.002C595.062 446.058 600.204 445.067 605.233 443.886C612.174 442.265 618.894 440.291 625.262 437.898C625.053 437.45 619.512 425.57 619.479 419.626C619.45 414.467 620.848 407.889 625.185 404.571C629.432 401.323 635.726 401.89 638.649 406.636C642.704 413.221 637.117 426.005 632.629 431.252C632.276 431.666 626.624 436.924 625.532 437.803C625.911 437.66 626.318 437.554 626.693 437.408C633.461 434.765 639.685 431.355 645.356 427.878C648.654 425.864 651.695 423.753 654.608 421.636C653.349 419.529 647.7 409.836 647.08 404.49C646.486 399.364 647.152 392.673 651.099 388.9C654.964 385.207 661.284 385.077 664.709 389.473C669.463 395.575 665.313 408.893 661.429 414.603C661.217 414.915 658.722 417.833 656.871 419.933C658.171 418.958 659.532 417.973 660.758 417.014C665.371 413.42 669.376 409.845 672.895 406.649C674.883 404.816 676.643 403.119 678.271 401.513C678.116 398.802 677.62 387.864 679.498 382.924C681.331 378.102 685.006 372.471 690.248 370.94C695.38 369.441 701.048 372.241 702.062 377.718C703.469 385.325 693.65 395.232 687.571 398.512C687.045 398.794 678.321 402.281 678.309 402.141C678.309 402.141 678.302 402.008 678.3 401.978C676.762 403.553 675.094 405.226 673.236 407.014C669.778 410.293 665.843 413.966 661.287 417.674C656.746 421.392 651.707 425.303 646.027 428.945C640.341 432.601 634.17 436.159 627.34 439.001C627.263 439.032 627.177 439.056 627.101 439.088C629.357 438.877 635.686 438.5 636.174 438.527C643.07 438.893 656.181 443.659 658.158 451.135C659.581 456.523 655.65 461.474 650.37 462.313C644.972 463.165 639.243 459.641 635.527 456.065Z" fill="black"/>
<path d="M582.918 329.007C582.786 328.958 588.533 321.524 588.949 321.097C593.77 316.151 605.991 309.427 612.92 312.867C617.91 315.344 619.047 321.563 616.197 326.087C613.289 330.708 606.864 332.698 601.725 333.137C595.69 333.654 582.929 329.01 582.918 329.007Z" fill="black"/>
</g>
<g opacity="0.2">
<path d="M51.3992 435.659C56.7179 432.76 64.7993 421.847 64.8053 421.839C64.8883 421.726 55.9956 418.695 55.412 418.569C48.6637 417.101 34.7599 418.235 30.8783 424.925C28.084 429.744 30.5662 435.558 35.437 437.761C40.4134 440.011 46.8677 438.126 51.3992 435.659Z" fill="black"/>
<path d="M85.3381 456.065C89.5303 452.031 94.184 440.305 94.5505 439.37C101.082 442.017 107.997 444.203 115.118 446.031C119.188 447.08 123.32 448.009 127.475 448.89C125.519 448.771 123.768 448.679 123.522 448.691C116.625 449.059 103.516 453.824 101.54 461.301C100.115 466.689 104.045 471.638 109.326 472.478C114.717 473.335 120.449 469.811 124.165 466.235C127.938 462.607 132.104 452.689 133.172 450.05C134.769 450.371 136.36 450.709 137.958 451.024C145.628 452.536 153.289 454.01 160.758 455.687C163.391 456.276 165.962 456.955 168.536 457.623C166.797 457.519 165.333 457.445 165.108 457.457C158.212 457.825 145.102 462.59 143.126 470.067C141.703 475.455 145.632 480.406 150.912 481.244C156.306 482.099 162.035 478.577 165.751 475C169.352 471.537 173.279 462.417 174.563 459.288C177.18 460.052 179.801 460.812 182.303 461.67C183.997 462.295 185.671 462.777 187.338 463.501C189.003 464.181 190.652 464.855 192.284 465.522C195.38 466.921 198.584 468.346 201.57 469.788C203.656 470.776 205.624 471.754 207.61 472.735C204.996 472.118 199.854 471.015 199.414 470.973C192.542 470.29 178.863 473.015 175.774 480.107C173.552 485.216 176.685 490.705 181.779 492.332C186.979 493.996 193.175 491.382 197.392 488.41C202.033 485.136 208.207 474.707 208.97 473.398C212.25 475.031 215.426 476.652 218.396 478.228C224.965 481.694 230.741 484.945 235.579 487.763L238.687 483.758C233.609 480.937 227.497 477.655 220.493 474.155C217.169 472.483 213.583 470.762 209.884 469.031C210.154 468.096 211.66 462.773 212.44 457.626C218.253 457.127 228.435 452.19 229.744 451.543C231.581 454.714 233.335 457.817 234.942 460.772C238.323 466.945 241.213 472.56 243.618 477.403L246.979 473.072C244.673 468.723 241.997 463.833 238.941 458.529C237.091 455.301 235.049 451.886 232.922 448.403C234.054 447.441 243.262 439.518 245.675 434.368C247.86 429.696 249.348 423.136 246.8 418.306C244.305 413.579 238.35 411.457 233.709 414.542C227.268 418.824 226.985 432.769 228.862 439.417C228.972 439.809 230.649 443.929 231.748 446.51C230.871 445.091 230.034 443.704 229.112 442.253C227.312 439.373 225.428 436.553 223.412 433.511C222.388 432.076 221.352 430.627 220.307 429.162C219.3 427.689 218.051 426.259 216.919 424.789C214.222 421.434 211.327 418.166 208.338 414.939C210.855 413.354 219.716 407.599 222.598 403.293C225.468 399.005 227.93 392.749 226.142 387.588C224.392 382.537 218.826 379.536 213.773 381.882C206.758 385.139 204.366 398.883 205.214 405.737C205.265 406.164 206.427 411.014 207.117 413.666C205.304 411.74 203.505 409.809 201.608 407.921C196.134 402.466 190.422 397.117 184.748 391.755C183.008 390.113 181.297 388.457 179.575 386.804C180.478 386.251 191.156 379.638 194.385 374.814C197.254 370.528 199.718 364.269 197.93 359.11C196.181 354.058 190.615 351.057 185.561 353.405C178.546 356.662 176.154 370.405 177.002 377.259C177.065 377.774 178.747 384.752 179.261 386.504C175.471 382.864 171.73 379.204 168.188 375.443C163.293 370.263 158.776 364.908 154.785 359.398C155.205 359.141 166.381 352.289 169.688 347.35C172.558 343.063 175.022 336.803 173.233 331.645C171.484 326.593 165.92 323.592 160.865 325.94C153.85 329.197 151.458 342.938 152.305 349.793C152.373 350.33 154.184 357.835 154.61 359.173C154.374 358.844 154.092 358.531 153.86 358.2C149.672 352.263 146.364 345.987 143.551 339.958C141.911 336.458 140.538 333.021 139.278 329.648C141.491 328.585 151.548 323.617 155.015 319.501C158.339 315.554 161.476 309.604 160.263 304.282C159.079 299.069 153.877 295.475 148.596 297.252C141.265 299.72 137.378 313.116 137.468 320.021C137.473 320.396 137.946 324.209 138.329 326.98C137.783 325.448 137.191 323.88 136.699 322.402C134.832 316.859 133.466 311.668 132.293 307.06C131.647 304.434 131.113 302.049 130.64 299.809C132.267 297.635 138.714 288.784 139.873 283.628C141.003 278.596 141.045 271.869 137.518 267.701C134.063 263.62 127.79 262.828 123.923 266.838C118.553 272.404 121.277 286.085 124.539 292.174C124.822 292.7 130.175 300.421 130.261 300.31C130.261 300.31 130.341 300.204 130.361 300.179C130.773 302.343 131.242 304.656 131.804 307.174C132.879 311.817 134.137 317.052 135.889 322.655C137.626 328.262 139.67 334.305 142.398 340.474C145.124 346.663 148.309 353.033 152.438 359.17C152.483 359.239 152.542 359.306 152.589 359.375C150.823 357.955 145.755 354.147 145.332 353.9C139.377 350.403 125.814 347.142 120.039 352.289C115.88 355.997 116.426 362.295 120.367 365.908C124.394 369.595 131.115 369.818 136.189 368.885C141.911 367.833 152.26 360.619 153.082 360.043C157.068 365.854 161.631 371.492 166.56 376.945C169.377 380.065 172.31 383.12 175.29 386.147C173.723 384.967 172.315 383.924 172.102 383.8C166.146 380.302 152.586 377.043 146.81 382.19C142.65 385.898 143.197 392.195 147.139 395.807C151.164 399.495 157.886 399.719 162.959 398.785C168.108 397.838 177.055 391.867 179.401 390.254C180.556 391.402 181.698 392.563 182.857 393.708C188.42 399.2 193.997 404.654 199.301 410.174C201.172 412.117 202.942 414.1 204.719 416.077C203.329 415.032 202.146 414.164 201.953 414.049C195.997 410.551 182.435 407.293 176.661 412.439C172.502 416.148 173.046 422.446 176.99 426.057C181.013 429.744 187.737 429.968 192.812 429.034C197.723 428.132 206.032 422.693 208.83 420.79C210.59 422.869 212.357 424.951 213.969 427.047C215.037 428.503 216.166 429.83 217.158 431.352C218.172 432.836 219.176 434.308 220.17 435.764C221.98 438.642 223.866 441.596 225.563 444.446C226.757 446.42 227.858 448.323 228.974 450.235C227.134 448.279 223.453 444.523 223.111 444.245C219.55 441.348 212.66 438.063 206.53 437.411C206.007 436.98 205.45 436.597 204.853 436.27C200.163 433.703 194.026 435.217 191.857 440.352C188.847 447.476 196.306 459.265 201.537 463.772C201.846 464.038 205.517 466.55 207.859 468.097C206.343 467.398 204.88 466.701 203.312 466.001C200.221 464.594 197.093 463.281 193.733 461.853C192.086 461.221 190.425 460.585 188.743 459.941C187.092 459.267 185.261 458.764 183.506 458.163C179.407 456.854 175.188 455.724 170.914 454.682C172.14 451.971 176.355 442.283 176.382 437.102C176.411 431.943 175.013 425.364 170.676 422.048C166.428 418.799 160.133 419.365 157.211 424.111C153.156 430.698 158.742 443.479 163.229 448.729C163.51 449.056 167.153 452.461 169.192 454.292C166.618 453.685 164.051 453.067 161.427 452.538C153.853 451.009 146.138 449.697 138.447 448.355C136.09 447.946 133.749 447.509 131.401 447.08C131.848 446.12 137.106 434.713 137.139 428.909C137.168 423.75 135.77 417.172 131.433 413.855C127.187 410.608 120.891 411.173 117.97 415.919C113.915 422.506 119.5 435.288 123.988 440.537C124.326 440.932 129.577 445.824 130.972 447.002C125.805 446.058 120.663 445.067 115.634 443.886C108.692 442.265 101.973 440.291 95.6046 437.898C95.8142 437.45 101.355 425.57 101.388 419.626C101.416 414.467 100.018 407.889 95.6815 404.571C91.4349 401.323 85.139 401.89 82.218 406.636C78.163 413.221 83.7502 426.005 88.238 431.252C88.5909 431.666 94.2428 436.924 95.3346 437.803C94.9561 437.66 94.549 437.554 94.1735 437.408C87.4056 434.765 81.1821 431.355 75.5105 427.878C72.2125 425.864 69.1723 423.753 66.2589 421.636C67.5181 419.529 73.167 409.836 73.7868 404.49C74.381 399.364 73.7144 392.673 69.768 388.9C65.903 385.207 59.583 385.077 56.1583 389.473C51.4036 395.575 55.5536 408.893 59.4382 414.603C59.6493 414.915 62.1451 417.833 63.9954 419.933C62.6955 418.958 61.3353 417.973 60.1093 417.014C55.4963 413.42 51.491 409.845 47.9714 406.649C45.9838 404.816 44.224 403.119 42.5953 401.513C42.7507 398.802 43.2468 387.864 41.3693 382.924C39.5356 378.102 35.8606 372.471 30.6188 370.94C25.4871 369.441 19.8185 372.241 18.8051 377.718C17.3982 385.325 27.2168 395.232 33.2955 398.512C33.8218 398.794 42.5456 402.281 42.5576 402.141C42.5576 402.141 42.5652 402.008 42.5667 401.978C44.1049 403.553 45.7727 405.226 47.6306 407.014C51.0884 410.293 55.0243 413.966 59.5784 417.674C64.1205 421.392 69.1588 425.303 74.8379 428.945C80.5246 432.601 86.6953 436.159 93.525 439.001C93.6019 439.032 93.6879 439.056 93.7648 439.088C91.5073 438.877 85.1798 438.5 84.6912 438.527C77.7951 438.893 64.6845 443.659 62.7075 451.135C61.284 456.523 65.2138 461.474 70.4949 462.313C75.892 463.165 81.6209 459.641 85.3381 456.065Z" fill="black"/>
<path d="M137.946 329.007C138.078 328.958 132.331 321.524 131.915 321.097C127.094 316.151 114.873 309.427 107.944 312.867C102.954 315.344 101.817 321.563 104.667 326.087C107.574 330.708 114 332.698 119.139 333.137C125.174 333.654 137.935 329.01 137.946 329.007Z" fill="black"/>
</g>
<path d="M548.92 608.968H156.396C147.893 608.968 140.998 602.075 140.998 593.57V64.0007C140.998 55.4971 147.893 48.6025 156.396 48.6025H548.92C557.423 48.6025 564.318 55.4971 564.318 64.0007V593.571C564.318 602.075 557.423 608.968 548.92 608.968Z" fill="#263238"/>
<path d="M537.735 83.79H167.58V573.78H537.735V83.79Z" fill="white" stroke="#263238" stroke-miterlimit="10" stroke-linecap="round" stroke-linejoin="round"/>
<path d="M525.846 387.419H181.119V403.3H525.846V387.419Z" fill="#C2C2C2"/>
<path d="M181.119 403.302H524.47" stroke="#263238" stroke-miterlimit="10" stroke-linecap="round" stroke-linejoin="round"/>
<path d="M181.877 387.291H525.104" stroke="#263238" stroke-miterlimit="10" stroke-linecap="round" stroke-linejoin="round"/>
<path d="M525.104 361.719H181.877" stroke="#263238" stroke-miterlimit="10" stroke-linecap="round" stroke-linejoin="round"/>
<path d="M525.104 427.084H181.877" stroke="#263238" stroke-miterlimit="10" stroke-linecap="round" stroke-linejoin="round"/>
<path d="M525.104 457.723H181.877" stroke="#263238" stroke-miterlimit="10" stroke-linecap="round" stroke-linejoin="round"/>
<path d="M525.846 243.949H181.119V259.83H525.846V243.949Z" fill="#C2C2C2"/>
<path d="M525.846 155.487H181.119V171.368H525.846V155.487Z" fill="#C2C2C2"/>
<path d="M525.399 155.487H181.119V490.894H525.399V155.487Z" stroke="#263238" stroke-miterlimit="10" stroke-linecap="round" stroke-linejoin="round"/>
<path d="M181.119 171.368H524.47" stroke="#263238" stroke-miterlimit="10" stroke-linecap="round" stroke-linejoin="round"/>
<path d="M181.119 259.832H524.47" stroke="#263238" stroke-miterlimit="10" stroke-linecap="round" stroke-linejoin="round"/>
<path d="M181.877 198.217H525.104" stroke="#263238" stroke-miterlimit="10" stroke-linecap="round" stroke-linejoin="round"/>
<path d="M346.195 197.582V172.027" stroke="#263238" stroke-miterlimit="10" stroke-linecap="round" stroke-linejoin="round"/>
<path d="M181.877 222.775H525.104" stroke="#263238" stroke-miterlimit="10" stroke-linecap="round" stroke-linejoin="round"/>
<path d="M181.877 243.821H525.104" stroke="#263238" stroke-miterlimit="10" stroke-linecap="round" stroke-linejoin="round"/>
<path d="M277.742 222.142V198.675" stroke="#263238" stroke-miterlimit="10" stroke-linecap="round" stroke-linejoin="round"/>
<path d="M296.031 222.142V198.675" stroke="#263238" stroke-miterlimit="10" stroke-linecap="round" stroke-linejoin="round"/>
<path d="M314.318 222.142V198.675" stroke="#263238" stroke-miterlimit="10" stroke-linecap="round" stroke-linejoin="round"/>
<path d="M495.119 222.142V198.675" stroke="#263238" stroke-miterlimit="10" stroke-linecap="round" stroke-linejoin="round"/>
<path d="M443.299 197.582V172.027" stroke="#263238" stroke-miterlimit="10" stroke-linecap="round" stroke-linejoin="round"/>
<path d="M525.104 286.264H181.877" stroke="#263238" stroke-miterlimit="10" stroke-linecap="round" stroke-linejoin="round"/>
<path d="M360.787 285.63V260.074" stroke="#263238" stroke-miterlimit="10" stroke-linecap="round" stroke-linejoin="round"/>
<path d="M388.434 386.507V360.952" stroke="#263238" stroke-miterlimit="10" stroke-linecap="round" stroke-linejoin="round"/>
<path d="M525.104 310.823H181.877" stroke="#263238" stroke-miterlimit="10" stroke-linecap="round" stroke-linejoin="round"/>
<path d="M525.104 336.271H181.877" stroke="#263238" stroke-miterlimit="10" stroke-linecap="round" stroke-linejoin="round"/>
<path d="M429.24 310.19V286.724" stroke="#263238" stroke-miterlimit="10" stroke-linecap="round" stroke-linejoin="round"/>
<path d="M410.951 310.19V286.724" stroke="#263238" stroke-miterlimit="10" stroke-linecap="round" stroke-linejoin="round"/>
<path d="M392.662 310.19V286.724" stroke="#263238" stroke-miterlimit="10" stroke-linecap="round" stroke-linejoin="round"/>
<path d="M211.863 310.19V286.724" stroke="#263238" stroke-miterlimit="10" stroke-linecap="round" stroke-linejoin="round"/>
<path d="M358.115 361.563V335.744" stroke="#263238" stroke-miterlimit="10" stroke-linecap="round" stroke-linejoin="round"/>
<path d="M339.828 361.563V335.744" stroke="#263238" stroke-miterlimit="10" stroke-linecap="round" stroke-linejoin="round"/>
<path d="M321.539 361.563V335.744" stroke="#263238" stroke-miterlimit="10" stroke-linecap="round" stroke-linejoin="round"/>
<path d="M203.07 361.563V335.744" stroke="#263238" stroke-miterlimit="10" stroke-linecap="round" stroke-linejoin="round"/>
<path d="M263.682 285.63V260.074" stroke="#263238" stroke-miterlimit="10" stroke-linecap="round" stroke-linejoin="round"/>
<path d="M537.735 83.79H167.58V138.108H537.735V83.79Z" fill="#5050D8" stroke="#263238" stroke-miterlimit="10" stroke-linecap="round" stroke-linejoin="round"/>
<path opacity="0.2" d="M140.998 134.507V291.286L383.682 48.6025H226.903L140.998 134.507Z" fill="white"/>
<path opacity="0.2" d="M564.318 67.1927V62.2797C564.318 54.7246 558.194 48.6006 550.639 48.6006H542.916L140.998 450.522V490.514L564.318 67.1927Z" fill="white"/>
<path opacity="0.2" d="M564.319 580.273V423.494L378.844 608.968H535.623L564.319 580.273Z" fill="white"/>
<path d="M582.997 678.731C580.964 675.733 576.887 674.949 573.887 676.982C570.889 679.015 570.105 683.092 572.138 686.092C574.171 689.091 578.249 689.874 581.248 687.841C584.247 685.808 585.03 681.729 582.997 678.731Z" fill="#263238" stroke="#263238" stroke-miterlimit="10" stroke-linecap="round" stroke-linejoin="round"/>
<path d="M573.076 670.86L576.629 684.717L579.404 684.504L580.829 670.609L573.076 670.86Z" fill="white" stroke="#263238" stroke-miterlimit="10" stroke-linecap="round" stroke-linejoin="round"/>
<path d="M544.409 678.731C542.377 675.733 538.299 674.949 535.3 676.982C532.302 679.015 531.517 683.092 533.55 686.092C535.583 689.091 539.661 689.874 542.66 687.841C545.658 685.808 546.442 681.729 544.409 678.731Z" fill="#263238" stroke="#263238" stroke-miterlimit="10" stroke-linecap="round" stroke-linejoin="round"/>
<path d="M534.486 670.86L538.041 684.717L540.815 684.504L542.24 670.609L534.486 670.86Z" fill="white" stroke="#263238" stroke-miterlimit="10" stroke-linecap="round" stroke-linejoin="round"/>
<path d="M583.86 517.142L583.744 676.141" stroke="#263238" stroke-width="2" stroke-miterlimit="10" stroke-linecap="round" stroke-linejoin="round"/>
<path d="M584.049 489.852L583.859 517.142" stroke="#263238" stroke-width="4" stroke-miterlimit="10" stroke-linecap="round" stroke-linejoin="round"/>
<path d="M572.749 676.486L535.563 676.109C532.677 676.079 530.362 673.716 530.391 670.831L531.305 580.831C531.333 577.945 533.696 575.63 536.583 575.658L573.769 576.035C576.655 576.066 578.97 578.427 578.941 581.313L578.027 671.314C577.998 674.2 575.635 676.517 572.749 676.486Z" fill="#263238" stroke="#263238" stroke-miterlimit="10" stroke-linecap="round" stroke-linejoin="round"/>
<path d="M524.873 671.061L535.565 671.276L536.354 593.608L523.293 593.369C519.568 593.331 516.519 596.32 516.481 600.043L515.854 661.856C515.803 666.888 519.841 671.009 524.873 671.061Z" fill="#263238" stroke="#263238" stroke-miterlimit="10" stroke-linecap="round" stroke-linejoin="round"/>
<path d="M529.707 671.11L540.399 671.326L541.188 593.658L528.127 593.418C524.402 593.381 521.353 596.369 521.315 600.093L520.688 661.906C520.635 666.938 524.674 671.059 529.707 671.11Z" fill="#5050D8" stroke="#263238" stroke-miterlimit="10" stroke-linecap="round" stroke-linejoin="round"/>
<path d="M578.271 676.544L541.085 676.167C538.199 676.138 535.884 673.775 535.912 670.889L536.826 580.889C536.855 578.002 539.218 575.687 542.104 575.716L579.29 576.093C582.176 576.122 584.491 578.485 584.462 581.371L583.549 671.372C583.52 674.258 581.157 676.573 578.271 676.544Z" fill="#5050D8" stroke="#263238" stroke-miterlimit="10" stroke-linecap="round" stroke-linejoin="round"/>
<path d="M555.578 575.852L553.893 613.113C553.834 614.411 554.839 615.51 556.137 615.569L561.887 615.83C563.185 615.889 564.285 614.885 564.344 613.586L566.045 575.959L555.578 575.852Z" fill="#263238"/>
<path d="M571.679 665.553L545.776 664.864C543.252 664.796 541.261 662.697 541.328 660.173L542.058 632.712C542.124 630.188 544.225 628.197 546.749 628.263L572.652 628.952C575.176 629.019 577.167 631.119 577.101 633.644L576.371 661.105C576.304 663.629 574.204 665.621 571.679 665.553Z" fill="#263238" stroke="#263238" stroke-miterlimit="10" stroke-linecap="round" stroke-linejoin="round"/>
<path d="M574.709 666.134L548.806 665.445C546.281 665.379 544.291 663.278 544.357 660.754L545.087 633.293C545.153 630.769 547.254 628.778 549.778 628.844L575.681 629.534C578.206 629.6 580.196 631.701 580.13 634.225L579.4 661.686C579.332 664.21 577.231 666.202 574.709 666.134Z" fill="#5050D8" stroke="#263238" stroke-miterlimit="10" stroke-linecap="round" stroke-linejoin="round"/>
<path d="M442.855 352.534C442.855 352.534 441.385 364.109 441.936 365.763C442.488 367.418 445.795 374.032 445.979 374.584C446.163 375.136 442.12 378.627 442.856 380.279C443.591 381.932 447.634 383.954 447.634 383.954C447.634 383.954 457.555 395.346 458.843 395.162C460.129 394.978 464.906 392.405 464.906 392.405L467.663 398.837L495.041 387.261L486.772 373.665C486.772 373.665 478.136 351.799 470.052 344.817C461.964 337.835 446.162 344.633 442.855 352.534Z" fill="white" stroke="#263238" stroke-miterlimit="10" stroke-linecap="round" stroke-linejoin="round"/>
<path d="M458.84 395.162L465.778 387.702L464.904 392.406L458.84 395.162Z" fill="#263238" stroke="#263238" stroke-miterlimit="10" stroke-linecap="round" stroke-linejoin="round"/>
<path d="M450.205 383.219C450.205 383.219 452.962 381.932 451.859 378.441" stroke="#263238" stroke-miterlimit="10" stroke-linecap="round" stroke-linejoin="round"/>
<path d="M443.773 366.681C443.773 366.681 443.773 364.293 446.53 365.395" stroke="#263238" stroke-miterlimit="10" stroke-linecap="round" stroke-linejoin="round"/>
<path d="M446.529 372.011L448.734 375.868" stroke="#263238" stroke-miterlimit="10" stroke-linecap="round" stroke-linejoin="round"/>
<path d="M477.765 333.058C471.334 329.015 461.78 329.935 457.186 333.058C452.888 335.98 445.538 343.402 444.607 344.348C444.612 344.336 444.615 344.318 444.618 344.304C444.579 344.35 444.547 344.407 444.506 344.449C444.506 344.449 441.932 350.85 442.853 352.533C444.69 352.349 450.57 348.674 450.204 350.879C449.836 353.084 447.447 356.943 448.917 357.677C450.387 358.412 453.957 361.684 453.957 361.684C453.957 361.684 454.613 365.211 456.819 364.843C459.024 364.475 460.678 360.984 462.331 363.189C463.985 365.394 475.377 376.603 476.111 376.603C476.845 376.603 486.768 373.664 486.768 373.664C486.768 373.664 487.502 362.272 488.054 354.738C488.606 347.206 484.197 337.099 477.765 333.058Z" fill="#263238" stroke="#263238" stroke-miterlimit="10" stroke-linecap="round" stroke-linejoin="round"/>
<path d="M457.921 368.336C457.921 368.336 456.451 357.863 460.126 359.7C463.801 361.536 466.74 371.275 465.822 373.48C464.903 375.684 462.699 374.214 462.699 374.214" fill="white"/>
<path d="M457.921 368.336C457.921 368.336 456.451 357.863 460.126 359.7C463.801 361.536 466.74 371.275 465.822 373.48C464.903 375.684 462.699 374.214 462.699 374.214" stroke="#263238" stroke-miterlimit="10" stroke-linecap="round" stroke-linejoin="round"/>
<path d="M464.211 397.999L460.182 409.413C460.182 409.413 472.491 402.698 484.353 398.67C496.215 394.642 504.049 393.521 504.049 393.521L498.007 384.568C498.007 384.568 473.164 387.031 464.211 397.999Z" fill="#5050D8" stroke="#263238" stroke-miterlimit="10" stroke-linecap="round" stroke-linejoin="round"/>
<path d="M401.138 424.711L426.515 467.292C426.705 467.61 427.08 467.767 427.441 467.68L451.261 461.829C451.807 461.695 452.071 461.075 451.79 460.589L429.779 422.395C429.621 422.12 429.321 421.957 429.004 421.974L401.818 423.438C401.183 423.473 400.812 424.166 401.138 424.711Z" fill="#263238" stroke="#263238" stroke-miterlimit="10" stroke-linecap="round" stroke-linejoin="round"/>
<path d="M403.947 426.4L426.783 464.718L448.845 459.299L429.105 425.046L403.947 426.4Z" fill="#878787" stroke="#263238" stroke-miterlimit="10" stroke-linecap="round" stroke-linejoin="round"/>
<path d="M445.634 433.36C445.634 433.36 438.919 436.942 436.458 438.061C433.995 439.18 432.653 440.075 434.22 441.418C435.787 442.761 441.158 439.628 441.158 439.628L445.411 437.838L445.634 433.36Z" fill="white" stroke="#263238" stroke-miterlimit="10" stroke-linecap="round" stroke-linejoin="round"/>
<path d="M500.234 674.053L501.753 685.69C501.753 685.69 500.234 688.22 495.428 688.726C490.621 689.232 487.08 689.991 487.08 689.991L488.401 678.673L500.234 674.053Z" fill="white" stroke="#263238" stroke-miterlimit="10" stroke-linecap="round" stroke-linejoin="round"/>
<path d="M501.752 685.69L501.532 684.004C497.005 685.764 491.528 686.331 487.487 686.482L487.078 689.991C487.078 689.991 490.62 689.232 495.426 688.725C500.232 688.219 501.752 685.69 501.752 685.69Z" fill="white" stroke="#263238" stroke-miterlimit="10" stroke-linecap="round" stroke-linejoin="round"/>
<path d="M465.825 669.245L452.669 677.342C452.669 677.342 446.85 678.86 443.561 679.112C440.272 679.364 440.272 682.908 441.791 684.171C443.309 685.437 448.341 687.581 454.693 688.979C467.342 691.763 485.559 690.749 487.077 689.991C488.596 689.232 489.86 687.967 490.113 686.955C490.366 685.943 490.113 676.076 490.113 676.076C490.113 676.076 470.886 673.799 465.825 669.245Z" fill="white" stroke="#263238" stroke-miterlimit="10" stroke-linecap="round" stroke-linejoin="round"/>
<path d="M452.924 685.69C445.507 683.439 442.461 681.603 441.24 680.365C440.469 681.582 440.808 683.353 441.792 684.171C443.31 685.437 448.342 687.581 454.694 688.979C467.343 691.761 485.56 690.749 487.078 689.991C488.499 689.281 489.686 688.131 490.042 687.156C481.582 687.881 463.511 688.905 452.924 685.69Z" fill="white" stroke="#263238" stroke-miterlimit="10" stroke-linecap="round" stroke-linejoin="round"/>
<path d="M507.11 508.874C507.11 508.874 507.11 521.35 502.951 528.048C498.792 534.748 493.018 540.755 493.018 541.679C493.018 542.603 487.473 585.805 487.473 588.115C487.473 590.425 487.243 597.125 488.628 600.591C490.014 604.056 495.328 626.003 498.562 645.639C501.796 665.276 500.41 670.127 500.41 670.127C500.41 670.127 501.796 673.593 501.796 674.517C501.796 675.442 501.103 677.983 501.103 677.983C501.103 677.983 497.406 679.138 493.941 679.138C490.476 679.138 488.396 678.676 488.396 678.676C488.396 678.676 488.165 674.98 488.858 673.131C489.55 671.283 489.088 666.201 489.088 665.045C489.088 663.89 480.31 604.056 480.31 599.435C480.31 594.815 480.08 545.838 480.08 545.838L478 511.878C478 511.878 490.014 511.415 507.11 508.874Z" fill="#5050D8" stroke="#263238" stroke-miterlimit="10" stroke-linecap="round" stroke-linejoin="round"/>
<path d="M490.71 534.979C490.71 534.979 485.165 545.144 484.703 546.067C484.242 546.992 484.242 555.077 484.242 556.925C484.242 558.772 483.087 593.887 483.317 598.74C483.548 603.591 487.244 618.608 488.399 627.618C489.554 636.629 491.634 662.964 491.865 663.658C492.095 664.352 493.02 667.585 492.558 669.664C492.097 671.744 490.942 674.054 490.942 674.054C490.942 674.054 491.635 677.981 491.172 679.136C490.71 680.291 484.472 681.446 475.694 678.905C466.916 676.364 463.219 670.819 463.219 670.819C463.219 670.819 463.68 669.664 463.68 667.354C463.68 665.044 465.99 664.582 465.99 664.582L461.601 633.626C461.601 633.626 457.442 623.924 457.211 622.306C456.98 620.689 458.135 616.761 457.904 615.144C457.674 613.528 454.902 610.062 454.67 608.444C454.439 606.827 446.815 580.953 446.353 558.081C445.89 535.21 446.754 513.936 446.754 513.936C446.754 513.936 452.59 516.96 470.609 515.805C488.628 514.649 495.79 514.419 504.339 510.723" fill="#5050D8"/>
<path d="M490.71 534.979C490.71 534.979 485.165 545.144 484.703 546.067C484.242 546.992 484.242 555.077 484.242 556.925C484.242 558.772 483.087 593.887 483.317 598.74C483.548 603.591 487.244 618.608 488.399 627.618C489.554 636.629 491.634 662.964 491.865 663.658C492.095 664.352 493.02 667.585 492.558 669.664C492.097 671.744 490.942 674.054 490.942 674.054C490.942 674.054 491.635 677.981 491.172 679.136C490.71 680.291 484.472 681.446 475.694 678.905C466.916 676.364 463.219 670.819 463.219 670.819C463.219 670.819 463.68 669.664 463.68 667.354C463.68 665.044 465.99 664.582 465.99 664.582L461.601 633.626C461.601 633.626 457.442 623.924 457.211 622.306C456.98 620.689 458.135 616.761 457.904 615.144C457.674 613.528 454.902 610.062 454.67 608.444C454.439 606.828 446.815 580.953 446.353 558.081C445.89 535.21 446.754 513.936 446.754 513.936C446.754 513.936 452.59 516.96 470.609 515.805C488.628 514.649 495.79 514.419 504.339 510.723" stroke="#263238" stroke-miterlimit="10" stroke-linecap="round" stroke-linejoin="round"/>
<path d="M471.686 650.311L473.163 665.704C473.163 665.704 471.14 666.969 471.898 669.5C472.657 672.03 473.163 673.547 473.163 673.547" stroke="#263238" stroke-miterlimit="10" stroke-linecap="round" stroke-linejoin="round"/>
<path d="M458.426 573.141C458.601 574.258 458.789 575.345 458.994 576.395C463.042 597.14 467.596 612.827 467.849 613.585C468.103 614.344 464.814 617.127 466.079 618.645C467.344 620.163 468.863 620.922 468.863 620.922L471.188 645.128" stroke="#263238" stroke-miterlimit="10" stroke-linecap="round" stroke-linejoin="round"/>
<path d="M456.971 520.229C456.971 520.229 455.499 545.979 457.574 566.427" stroke="#263238" stroke-miterlimit="10" stroke-linecap="round" stroke-linejoin="round"/>
<path d="M451.154 519.723C451.154 519.723 450.395 528.831 455.454 533.385" stroke="#263238" stroke-miterlimit="10" stroke-linecap="round" stroke-linejoin="round"/>
<path d="M489.863 520.988C484.044 523.519 471.395 523.771 471.395 523.771L472.913 527.566C472.913 527.566 481.768 527.059 485.31 525.796" stroke="#263238" stroke-miterlimit="10" stroke-linecap="round" stroke-linejoin="round"/>
<path d="M446.754 513.936C446.754 513.936 449.888 519.755 474.284 518.412C498.68 517.068 508.081 513.04 508.304 511.026C508.528 509.011 507.857 504.311 507.857 504.311C507.857 504.311 461.749 507.669 446.754 513.936Z" fill="#C2C2C2" stroke="#263238" stroke-miterlimit="10" stroke-linecap="round" stroke-linejoin="round"/>
<path d="M460.182 409.412C460.182 409.412 446.529 415.679 446.305 417.694C446.082 419.708 438.919 473.873 438.919 473.873L428.176 461.338C428.176 461.338 428.399 456.862 427.728 455.071C427.057 453.281 426.833 451.937 425.266 451.266C423.699 450.595 418.551 449.252 417.209 448.133C415.865 447.014 412.06 443.432 411.166 444.776C410.27 446.119 408.48 448.357 408.928 449.924C409.376 451.491 411.166 454.625 411.166 455.52C411.166 456.416 411.166 463.13 414.075 466.263C416.985 469.397 421.238 470.739 421.238 470.739C421.238 470.739 428.176 489.093 430.639 492.673C433.101 496.254 443.397 504.535 443.397 504.535C443.397 504.535 440.934 510.354 441.607 510.802C442.278 511.25 445.411 515.95 446.307 515.95C447.203 515.95 474.06 511.475 476.075 511.25C478.09 511.027 498.233 511.25 499.8 510.579C501.367 509.908 506.515 507.668 507.634 506.774C508.753 505.878 510.545 504.312 509.649 500.732C508.753 497.15 507.859 471.859 507.859 469.622C507.859 467.384 513.384 449.924 514.349 442.764C517.825 416.967 517.445 415.453 517.521 412.088C517.699 404.147 511.403 400.035 510.507 399.587C509.611 399.139 504.053 393.523 504.053 393.523C504.053 393.523 484.131 395.087 460.182 409.412Z" fill="#C2C2C2" stroke="#263238" stroke-miterlimit="10" stroke-linecap="round" stroke-linejoin="round"/>
<path d="M443.396 504.535C443.396 504.535 451.231 503.191 452.573 502.072C453.915 500.953 465.778 466.262 466.226 464.247C466.674 462.232 467.345 437.836 467.345 437.836" stroke="#263238" stroke-miterlimit="10" stroke-linecap="round" stroke-linejoin="round"/>
<path d="M467.121 453.056L470.927 439.404" stroke="#263238" stroke-miterlimit="10" stroke-linecap="round" stroke-linejoin="round"/>
<path d="M438.025 487.302C437.353 483.497 438.92 473.873 438.92 473.873C438.92 473.873 440.487 483.274 443.396 487.079" stroke="#263238" stroke-miterlimit="10" stroke-linecap="round" stroke-linejoin="round"/>
<path d="M428.176 461.338C428.176 461.338 428.399 456.862 427.728 455.071C427.057 453.281 426.833 451.937 425.266 451.266C423.699 450.595 418.551 449.252 417.209 448.133C415.865 447.014 412.06 443.432 411.166 444.776C410.27 446.118 408.48 448.357 408.928 449.924C409.376 451.491 411.166 454.625 411.166 455.52C411.166 456.416 411.166 463.13 414.075 466.263C416.985 469.397 421.238 470.739 421.238 470.739C421.238 470.739 421.627 471.768 422.248 473.372C423.612 470.077 426.38 466.025 431.788 465.552L428.176 461.338Z" fill="white" stroke="#263238" stroke-miterlimit="10" stroke-linecap="round" stroke-linejoin="round"/>
<path d="M424.596 477.678C424.596 477.678 426.163 472.083 432.653 469.844" stroke="#263238" stroke-miterlimit="10" stroke-linecap="round" stroke-linejoin="round"/>
<path d="M476.074 511.25L498.681 504.535" stroke="#263238" stroke-miterlimit="10" stroke-linecap="round" stroke-linejoin="round"/>
<path d="M502.928 451.872C502.928 451.872 488.621 467.341 477.02 475.848" stroke="#263238" stroke-miterlimit="10" stroke-linecap="round" stroke-linejoin="round"/>
<path d="M495.578 463.474C495.578 463.474 484.751 474.301 480.109 477.782" stroke="#263238" stroke-miterlimit="10" stroke-linecap="round" stroke-linejoin="round"/>
<path d="M504.051 393.521C504.051 393.521 514.638 407.362 515.135 411.573C515.629 415.783 516.125 418.261 516.125 418.261L522.317 413.802C522.317 413.802 519.345 403.151 515.877 399.682C512.41 396.215 504.051 393.521 504.051 393.521Z" fill="#263238" stroke="#263238" stroke-miterlimit="10" stroke-linecap="round" stroke-linejoin="round"/>
<path d="M521.582 408.976C521.582 408.976 512.745 408.535 507.002 412.953C501.258 417.371 498.607 431.951 497.282 439.904C495.956 447.857 494.631 483.643 494.631 489.387C494.631 495.131 499.933 497.782 502.142 498.666C504.351 499.55 517.165 496.457 518.931 496.015C520.698 495.573 533.512 495.573 537.045 487.62C540.58 479.667 541.021 465.529 540.58 460.227C540.138 454.925 536.161 446.972 536.161 446.972C536.161 446.972 537.045 426.207 535.277 419.137C533.512 412.069 525.558 408.093 521.582 408.976Z" fill="#263238" stroke="#263238" stroke-miterlimit="10" stroke-linecap="round" stroke-linejoin="round"/>
<path d="M536.162 446.973C536.162 446.973 503.975 454.095 504.728 457.108C505.482 460.121 504.351 466.525 504.728 467.656C505.105 468.786 540.579 460.228 540.579 460.228C540.579 460.228 539.718 448.515 536.162 446.973Z" fill="#878787" stroke="#878787" stroke-miterlimit="10" stroke-linecap="round" stroke-linejoin="round"/>
<path d="M531.477 413.785C531.477 413.785 515.278 414.916 510.004 419.813C504.731 424.711 503.518 442.755 503.223 447.313" stroke="#878787" stroke-miterlimit="10" stroke-linecap="round" stroke-linejoin="round"/>
<path d="M504.729 473.308C504.729 473.308 503.598 489.507 504.729 493.274C505.859 497.041 523.646 495.16 530.346 491.39" stroke="#878787" stroke-miterlimit="10" stroke-linecap="round" stroke-linejoin="round"/>
<path d="M215.788 628.643C215.788 628.643 211.723 666.979 211.142 668.431C210.562 669.883 199.816 669.883 199.235 674.24C198.654 678.597 200.396 680.338 202.139 681.21C203.883 682.082 210.562 685.276 212.594 685.856C214.627 686.437 220.145 687.017 221.597 684.404C223.049 681.791 221.888 672.497 221.888 672.497L232.343 629.223L215.788 628.643Z" fill="white" stroke="#263238" stroke-miterlimit="10" stroke-linecap="round" stroke-linejoin="round"/>
<path d="M266.782 621.774C266.782 621.774 264.925 668.61 263.764 673.256C262.603 677.902 262.312 681.389 263.473 684.002C264.634 686.615 268.991 686.615 270.734 686.035C272.478 685.454 284.094 679.936 285.256 678.193C286.417 676.45 282.932 674.708 281.48 674.128C280.028 673.547 275.382 669.19 275.091 668.319C274.8 667.447 281.304 628.744 281.304 628.744L266.782 621.774Z" fill="white" stroke="#263238" stroke-miterlimit="10" stroke-linecap="round" stroke-linejoin="round"/>
<path d="M270.735 686.035C272.478 685.454 284.094 679.936 285.257 678.193C286.418 676.451 282.933 674.708 281.481 674.128C280.029 673.547 275.382 669.19 275.091 668.319C275.019 668.103 275.661 665.618 276.669 662.006L264.614 661.581C263.704 667.343 264.087 671.97 263.766 673.256C262.605 677.902 262.314 681.387 263.475 684.002C264.635 686.615 268.991 686.615 270.735 686.035Z" fill="#5050D8" stroke="#263238" stroke-miterlimit="10" stroke-linecap="round" stroke-linejoin="round"/>
<path d="M212.675 656.85C211.956 663.04 211.341 667.932 211.14 668.433C210.56 669.885 199.814 669.885 199.233 674.241C198.652 678.598 200.394 680.341 202.137 681.211C203.881 682.083 210.56 685.277 212.592 685.857C214.625 686.438 220.143 687.019 221.595 684.405C223.047 681.792 221.886 672.498 221.886 672.498L225.427 657.84L212.675 656.85Z" fill="#5050D8" stroke="#263238" stroke-miterlimit="10" stroke-linecap="round" stroke-linejoin="round"/>
<path d="M222.046 683.026C219.734 683.48 216.115 683.78 212.593 682.372C208.588 680.77 202.514 677.65 199.127 675.866C199.133 679.045 200.632 680.457 202.138 681.211C203.882 682.082 210.561 685.276 212.593 685.857C214.626 686.437 220.144 687.018 221.596 684.405C221.791 684.055 221.935 683.578 222.046 683.026Z" fill="white" stroke="#263238" stroke-miterlimit="10" stroke-linecap="round" stroke-linejoin="round"/>
<path d="M285.254 678.193C285.947 677.156 284.989 676.12 283.796 675.328C280.436 677.697 275.077 681.395 272.767 682.55C270.375 683.746 265.795 683.437 263.156 683.126C263.248 683.426 263.348 683.722 263.473 684.002C264.634 686.616 268.991 686.616 270.734 686.035C272.476 685.454 284.093 679.937 285.254 678.193Z" fill="white" stroke="#263238" stroke-miterlimit="10" stroke-linecap="round" stroke-linejoin="round"/>
<path d="M233.534 493.304C233.534 493.304 230.049 501.146 228.306 524.379C226.562 547.613 225.401 575.205 222.497 586.532C219.592 597.858 213.494 628.644 213.494 628.644L234.406 632.42L244.571 587.403L268.096 511.02L262.739 635.579L282.779 637.323L296.268 550.519C296.268 550.519 305.853 515.957 306.143 504.05C306.434 492.143 302.949 488.947 302.949 488.947L268.097 481.978L233.534 493.304Z" fill="#263238" stroke="#263238" stroke-miterlimit="10" stroke-linecap="round" stroke-linejoin="round"/>
<path d="M235.55 485.667L233.535 493.304C233.535 493.304 260.545 489.238 272.163 488.367C283.78 487.495 304.401 491.271 304.401 491.271L300.231 481.863C300.231 481.863 287.555 478.492 273.324 478.201C259.093 477.91 247.475 479.944 245.153 480.525C242.829 481.106 235.55 485.667 235.55 485.667Z" fill="white" stroke="#263238" stroke-miterlimit="10" stroke-linecap="round" stroke-linejoin="round"/>
<path d="M241.045 387.166C241.045 387.166 219.485 397.312 214.834 404.921C210.183 412.531 189.892 457.342 191.582 461.569C193.273 465.796 202.996 475.097 202.996 475.097L213.988 468.334L211.029 455.652L224.98 426.059C224.98 426.059 232.167 459.457 232.589 463.261C233.011 467.066 230.475 478.48 231.743 481.862C233.011 485.245 234.28 486.089 235.548 485.667C236.816 485.245 254.571 480.172 262.181 480.172C269.79 480.172 297.691 484.823 300.228 481.862C302.764 478.904 301.074 476.367 300.228 475.099C299.382 473.831 288.813 436.206 288.813 436.206C288.813 436.206 294.309 404.077 291.772 400.694C289.236 397.312 265.562 388.434 265.562 388.434L241.045 387.166Z" fill="#5050D8" stroke="#263238" stroke-miterlimit="10" stroke-linecap="round" stroke-linejoin="round"/>
<path d="M252.561 465.993L275.463 457.521" stroke="#263238" stroke-miterlimit="10" stroke-linecap="round" stroke-linejoin="round"/>
<path d="M244.99 468.793L249.611 467.084" stroke="#263238" stroke-miterlimit="10" stroke-linecap="round" stroke-linejoin="round"/>
<path d="M239.98 466.706L254.172 460.862" stroke="#263238" stroke-miterlimit="10" stroke-linecap="round" stroke-linejoin="round"/>
<path d="M217.838 412.173L224.98 426.058L218.067 419.758" stroke="#263238" stroke-miterlimit="10" stroke-linecap="round" stroke-linejoin="round"/>
<path d="M291.774 400.693L310.376 459.879L319.253 467.066L310.376 478.481C310.376 478.481 296.001 466.644 293.889 464.53C291.774 462.416 282.051 429.442 282.051 429.442" fill="#5050D8"/>
<path d="M291.774 400.693L310.376 459.879L319.253 467.066L310.376 478.481C310.376 478.481 296.001 466.644 293.889 464.53C291.774 462.416 282.051 429.442 282.051 429.442" stroke="#263238" stroke-miterlimit="10" stroke-linecap="round" stroke-linejoin="round"/>
<path d="M358.129 494.174V485.462H329.086V493.304" stroke="#263238" stroke-width="3" stroke-miterlimit="10"/>
<path d="M329.086 493.304V573.461H358.129V494.174" stroke="#263238" stroke-width="2" stroke-miterlimit="10"/>
<path d="M319.254 467.066L342.89 476.681C342.89 476.681 347.041 478.191 347.795 478.756C348.551 479.322 350.814 481.398 350.814 481.398H348.739C348.739 481.398 354.022 488.379 353.456 489.134C352.891 489.888 353.268 490.267 351.57 490.267C349.872 490.267 348.362 489.323 348.362 489.323C348.362 489.323 345.343 489.888 342.703 489.134C340.061 488.379 333.836 482.342 333.836 482.342L310.379 478.482L319.254 467.066Z" fill="white" stroke="#263238" stroke-miterlimit="10" stroke-linecap="round" stroke-linejoin="round"/>
<path d="M323.38 677.538H321.158C320.452 677.538 319.879 676.964 319.879 676.259V668.257C319.879 667.552 320.452 666.979 321.158 666.979H323.38C324.086 666.979 324.659 667.552 324.659 668.257V676.259C324.661 676.966 324.088 677.538 323.38 677.538Z" fill="#263238" stroke="#263238" stroke-miterlimit="10" stroke-linecap="round" stroke-linejoin="round"/>
<path d="M324.771 661.314H319.834V672.932H324.771V661.314Z" fill="white" stroke="#263238" stroke-miterlimit="10" stroke-linecap="round" stroke-linejoin="round"/>
<path d="M365.224 677.538H367.447C368.153 677.538 368.726 676.964 368.726 676.259V668.257C368.726 667.552 368.153 666.979 367.447 666.979H365.224C364.518 666.979 363.945 667.552 363.945 668.257V676.259C363.945 676.966 364.518 677.538 365.224 677.538Z" fill="#263238" stroke="#263238" stroke-miterlimit="10" stroke-linecap="round" stroke-linejoin="round"/>
<path d="M363.703 672.787H368.641V661.169H363.703V672.787Z" fill="white" stroke="#263238" stroke-miterlimit="10" stroke-linecap="round" stroke-linejoin="round"/>
<path d="M364.059 665.237H324.026C318.32 665.237 313.693 660.61 313.693 654.904V582.053C313.693 576.346 318.32 571.72 324.026 571.72H364.059C369.765 571.72 374.392 576.346 374.392 582.053V654.904C374.392 660.61 369.765 665.237 364.059 665.237Z" fill="#C2C2C2" stroke="#263238" stroke-miterlimit="10" stroke-linecap="round" stroke-linejoin="round"/>
<path d="M363.037 577.994H325.05C318.778 577.994 313.693 583.079 313.693 589.351V653.88C313.693 660.151 318.778 665.236 325.05 665.236H363.037C369.308 665.236 374.393 660.151 374.393 653.88V589.351C374.393 583.079 369.308 577.994 363.037 577.994Z" fill="#878787" stroke="#263238" stroke-miterlimit="10" stroke-linecap="round" stroke-linejoin="round"/>
<path d="M321.332 590.851V652.339" stroke="#263238" stroke-miterlimit="10" stroke-linecap="round" stroke-linejoin="round"/>
<path d="M332.688 590.851V652.339" stroke="#263238" stroke-miterlimit="10" stroke-linecap="round" stroke-linejoin="round"/>
<path d="M344.043 590.851V652.339" stroke="#263238" stroke-miterlimit="10" stroke-linecap="round" stroke-linejoin="round"/>
<path d="M355.398 590.851V652.339" stroke="#263238" stroke-miterlimit="10" stroke-linecap="round" stroke-linejoin="round"/>
<path d="M366.754 590.851V652.339" stroke="#263238" stroke-miterlimit="10" stroke-linecap="round" stroke-linejoin="round"/>
<path d="M213.988 468.334L229.071 493.002L232.552 494.549L230.426 504.215C230.426 504.215 223.466 500.735 222.499 498.802C221.533 496.868 202.998 475.099 202.998 475.099L213.988 468.334Z" fill="white" stroke="#263238" stroke-miterlimit="10" stroke-linecap="round" stroke-linejoin="round"/>
<path d="M237.889 383.8L229.785 429.718C229.785 429.718 239.509 442.684 255.715 442.684C271.922 442.684 280.026 434.58 280.026 434.58L273.003 380.558L237.889 383.8Z" fill="#263238" stroke="#263238" stroke-miterlimit="10" stroke-linecap="round" stroke-linejoin="round"/>
<path d="M257.049 395.851C275.803 395.851 291.005 380.396 291.005 361.333C291.005 342.269 275.803 326.814 257.049 326.814C238.296 326.814 223.094 342.269 223.094 361.333C223.094 380.396 238.296 395.851 257.049 395.851Z" fill="white" stroke="#263238" stroke-miterlimit="10" stroke-linecap="round" stroke-linejoin="round"/>
<path d="M256.861 372.964C265.771 372.964 272.995 365.908 272.995 357.205C272.995 348.502 265.771 341.446 256.861 341.446C247.95 341.446 240.727 348.502 240.727 357.205C240.727 365.908 247.95 372.964 256.861 372.964Z" fill="#5050D8" stroke="#263238" stroke-miterlimit="10" stroke-linecap="round" stroke-linejoin="round"/>
<path d="M255.176 370.246L253.119 388.769L257.529 389.357L255.176 370.246Z" fill="#5050D8" stroke="#263238" stroke-miterlimit="10" stroke-linecap="round" stroke-linejoin="round"/>
<path d="M256.86 370.317L260.175 384.064L257.528 383.77L255.176 370.246L256.86 370.317Z" fill="#5050D8" stroke="#263238" stroke-miterlimit="10" stroke-linecap="round" stroke-linejoin="round"/>
<path d="M256.861 370.317C265.771 370.317 272.995 363.262 272.995 354.558C272.995 345.855 265.771 338.8 256.861 338.8C247.95 338.8 240.727 345.855 240.727 354.558C240.727 363.262 247.95 370.317 256.861 370.317Z" fill="white" stroke="#263238" stroke-miterlimit="10" stroke-linecap="round" stroke-linejoin="round"/>
<path d="M247.207 118.915V99.3211H243.643V95.8135H255.449V99.3211H251.941V118.915H247.207Z" fill="#263238"/>
<path d="M257.531 118.915V95.8135H263.52C265.079 95.8135 266.413 95.9899 267.526 96.3413C268.639 96.6926 269.494 97.3154 270.093 98.2097C270.692 99.1039 270.992 100.339 270.992 101.918C270.992 102.869 270.91 103.709 270.749 104.442C270.588 105.174 270.302 105.812 269.894 106.353C269.485 106.894 268.909 107.327 268.167 107.65L271.361 118.915H266.542L263.889 108.449H262.235V118.915H257.531ZM262.236 105.653H263.605C264.366 105.653 264.964 105.53 265.403 105.282C265.84 105.035 266.149 104.659 266.329 104.156C266.51 103.652 266.6 103.029 266.6 102.289C266.6 101.224 266.406 100.411 266.015 99.8504C265.626 99.2894 264.898 99.0089 263.833 99.0089H262.236V105.653Z" fill="#263238"/>
<path d="M273.018 118.915L277.495 95.8154H282.714L287.163 118.915H282.798L281.972 113.839H278.321L277.438 118.915H273.018ZM278.75 110.957H281.517L280.119 101.632L278.75 110.957Z" fill="#263238"/>
<path d="M291.924 118.915L287.531 95.8154H291.61L294.349 111.785L296.916 95.8154H301.165L296.772 118.915H291.924Z" fill="#263238"/>
<path d="M303.531 118.915V95.8135H313.599V99.0647H308.236V105.196H312.371V108.476H308.236V115.721H313.654V118.915H303.531Z" fill="#263238"/>
<path d="M316.023 118.915V95.8135H320.728V115.719H326.147V118.913L316.023 118.915Z" fill="#263238"/>
<path d="M335.389 118.915V95.8135H340.066V118.915H335.389Z" fill="#263238"/>
<path d="M343.6 118.915V95.8135H346.88L352.013 107.847V95.8135H355.891V118.915H352.755L347.621 106.137V118.915H343.6Z" fill="#263238"/>
<path d="M365.39 119.229C363.965 119.229 362.777 118.968 361.825 118.445C360.875 117.921 360.159 117.133 359.672 116.077C359.187 115.022 358.905 113.678 358.83 112.042L362.881 111.357C362.918 112.309 363.018 113.102 363.179 113.738C363.341 114.376 363.588 114.851 363.921 115.165C364.254 115.479 364.666 115.635 365.161 115.635C365.768 115.635 366.183 115.445 366.402 115.065C366.62 114.685 366.729 114.248 366.729 113.753C366.729 112.784 366.497 111.971 366.031 111.315C365.565 110.659 364.951 109.998 364.191 109.333L361.795 107.252C360.94 106.53 360.242 105.713 359.699 104.8C359.157 103.888 358.886 102.766 358.886 101.436C358.886 99.5344 359.441 98.0747 360.554 97.0583C361.665 96.0419 363.191 95.5322 365.131 95.5322C366.29 95.5322 367.24 95.7222 367.982 96.1022C368.724 96.4823 369.299 96.9905 369.709 97.6283C370.117 98.2647 370.402 98.9599 370.564 99.7094C370.725 100.462 370.825 101.207 370.862 101.949L366.842 102.547C366.804 101.845 366.743 101.226 366.657 100.694C366.571 100.162 366.4 99.7441 366.142 99.4394C365.886 99.1363 365.501 98.984 364.987 98.984C364.435 98.984 364.027 99.1876 363.761 99.5963C363.494 100.005 363.362 100.457 363.362 100.95C363.362 101.769 363.547 102.439 363.918 102.962C364.289 103.485 364.797 104.031 365.444 104.601L367.783 106.654C368.753 107.491 369.584 108.447 370.277 109.52C370.971 110.594 371.318 111.921 371.318 113.499C371.318 114.583 371.071 115.561 370.577 116.436C370.083 117.311 369.394 117.995 368.51 118.49C367.628 118.982 366.587 119.229 365.39 119.229Z" fill="#263238"/>
<path d="M380.303 119.228C378.553 119.228 377.193 118.928 376.224 118.329C375.254 117.731 374.574 116.865 374.185 115.734C373.794 114.603 373.6 113.229 373.6 111.614V95.8135H378.247V112.269C378.247 112.839 378.289 113.4 378.377 113.952C378.463 114.504 378.653 114.95 378.947 115.292C379.241 115.635 379.692 115.805 380.301 115.805C380.928 115.805 381.39 115.635 381.684 115.292C381.978 114.95 382.164 114.504 382.24 113.952C382.316 113.4 382.354 112.839 382.354 112.269V95.8135H387.003V111.613C387.003 113.229 386.807 114.602 386.418 115.733C386.027 116.864 385.347 117.729 384.379 118.328C383.412 118.928 382.05 119.228 380.303 119.228Z" fill="#263238"/>
<path d="M390.283 118.915V95.8135H396.273C397.832 95.8135 399.168 95.9899 400.28 96.3413C401.391 96.6926 402.248 97.3154 402.846 98.2097C403.447 99.1039 403.745 100.339 403.745 101.918C403.745 102.869 403.664 103.709 403.502 104.442C403.341 105.174 403.056 105.812 402.647 106.353C402.239 106.894 401.664 107.327 400.922 107.65L404.116 118.915H399.297L396.644 108.449H394.99V118.915H390.283ZM394.99 105.653H396.357C397.117 105.653 397.716 105.53 398.153 105.282C398.591 105.035 398.9 104.659 399.081 104.156C399.26 103.652 399.352 103.029 399.352 102.289C399.352 101.224 399.156 100.411 398.767 99.8504C398.377 99.2894 397.65 99.0089 396.585 99.0089H394.988V105.653H394.99Z" fill="#263238"/>
<path d="M405.771 118.915L410.249 95.8154H415.468L419.916 118.915H415.552L414.726 113.839H411.075L410.19 118.915H405.771ZM411.503 110.957H414.271L412.873 101.632L411.503 110.957Z" fill="#263238"/>
<path d="M422.082 118.915V95.8135H425.362L430.495 107.847V95.8135H434.374V118.915H431.237L426.104 106.137V118.915H422.082Z" fill="#263238"/>
<path d="M444.3 119.229C442.588 119.229 441.234 118.906 440.236 118.259C439.237 117.613 438.539 116.715 438.14 115.564C437.739 114.413 437.541 113.079 437.541 111.557V103.259C437.541 101.662 437.74 100.288 438.14 99.1389C438.539 97.9883 439.237 97.0986 440.236 96.4713C441.234 95.8439 442.59 95.5303 444.3 95.5303C445.954 95.5303 447.251 95.8062 448.192 96.3567C449.133 96.9086 449.798 97.6882 450.189 98.6956C450.578 99.7029 450.774 100.873 450.774 102.203V104.142H446.21V101.975C446.21 101.443 446.182 100.944 446.125 100.478C446.067 100.012 445.91 99.632 445.653 99.338C445.396 99.0439 444.954 98.8961 444.327 98.8961C443.7 98.8961 443.243 99.0484 442.958 99.3516C442.674 99.6562 442.492 100.05 442.416 100.535C442.341 101.019 442.303 101.558 442.303 102.146V112.64C442.303 113.287 442.355 113.852 442.462 114.338C442.564 114.822 442.765 115.193 443.059 115.449C443.353 115.706 443.777 115.834 444.329 115.834C444.936 115.834 445.369 115.686 445.625 115.392C445.882 115.098 446.043 114.703 446.109 114.208C446.176 113.714 446.209 113.192 446.209 112.64V110.387H450.772V112.298C450.772 113.649 450.581 114.842 450.201 115.876C449.821 116.914 449.163 117.73 448.233 118.33C447.302 118.928 445.992 119.229 444.3 119.229Z" fill="#263238"/>
<path d="M453.652 118.915V95.8135H463.72V99.0647H458.359V105.196H462.494V108.476H458.359V115.721H463.777V118.915H453.652Z" fill="#263238"/>
<path d="M511.328 179.715L494.957 209.183L501.868 208.82L525.152 183.717L518.967 177.896L511.328 179.715Z" fill="#263238" stroke="#263238" stroke-miterlimit="10" stroke-linecap="round" stroke-linejoin="round"/>
<path d="M730.702 131.329L714.151 130.188C711.135 129.98 708.106 130.233 705.167 130.939L533.883 172.075L498.958 159.707L489.5 162.617L519.696 185.901L561.534 183.717L718.258 148.507C723.837 147.254 729.133 144.966 733.873 141.765L738.053 138.94C739.327 138.079 739.952 136.53 739.629 135.025C739.294 133.465 738.012 132.282 736.43 132.077L730.702 131.329Z" fill="white" stroke="#263238" stroke-miterlimit="10" stroke-linecap="round" stroke-linejoin="round"/>
<path d="M553.547 184.134C561.179 177.215 572.048 167.837 582.619 160.371L533.885 172.076L498.96 159.707L489.502 162.617L519.698 185.901L553.547 184.134Z" fill="#5050D8" stroke="#263238" stroke-miterlimit="10" stroke-linecap="round" stroke-linejoin="round"/>
<path d="M511.329 179.715L503.689 151.702H510.601L528.063 178.623L511.329 179.715Z" fill="#263238" stroke="#263238" stroke-miterlimit="10" stroke-linecap="round" stroke-linejoin="round"/>
<path d="M511.328 179.715L504.561 180.359L505.078 184.363L519.696 185.899L511.328 179.715Z" fill="white" stroke="#263238" stroke-miterlimit="10" stroke-linecap="round" stroke-linejoin="round"/>
<path d="M614.466 160.518L612.443 142.058L591.961 78.083L604.857 82.8875L654.673 152.679L614.466 160.518Z" fill="#263238" stroke="#263238" stroke-miterlimit="10" stroke-linecap="round" stroke-linejoin="round"/>
<path d="M628.665 118.401C626.796 116.963 626.226 111.851 627.731 110.036C629.919 107.396 640.343 106.45 643.342 108.293C645.405 109.56 646.008 114.968 644.277 116.658C641.757 119.116 631.382 120.493 628.665 118.401Z" fill="white" stroke="#263238" stroke-miterlimit="10" stroke-linecap="round" stroke-linejoin="round"/>
<path d="M626.902 110.979L618.969 113.164L620.118 117.763H627.591C627.591 117.763 626.557 114.543 626.902 110.979Z" fill="white" stroke="#263238" stroke-miterlimit="10" stroke-linecap="round" stroke-linejoin="round"/>
<path d="M647.29 141.167C645.422 139.728 644.852 134.618 646.355 132.802C648.545 130.162 658.966 129.216 661.967 131.059C664.03 132.326 664.634 137.733 662.902 139.424C660.382 141.882 650.007 143.259 647.29 141.167Z" fill="white" stroke="#263238" stroke-miterlimit="10" stroke-linecap="round" stroke-linejoin="round"/>
<path d="M645.527 133.744L637.594 135.929L638.744 140.529H646.218C646.218 140.529 645.182 137.309 645.527 133.744Z" fill="white" stroke="#263238" stroke-miterlimit="10" stroke-linecap="round" stroke-linejoin="round"/>
<path d="M594.18 176.844L611.565 179.044L566.454 236.036L560.953 236.696L573.056 238.016L650.732 166.941L659.534 161.88L594.18 176.844Z" fill="#263238" stroke="#263238" stroke-miterlimit="10" stroke-linecap="round" stroke-linejoin="round"/>
<path d="M634.892 189.985C633.023 188.547 632.453 183.435 633.957 181.62C636.145 178.98 646.568 178.034 649.569 179.877C651.632 181.144 652.235 186.552 650.502 188.242C647.984 190.702 637.609 192.078 634.892 189.985Z" fill="white" stroke="#263238" stroke-miterlimit="10" stroke-linecap="round" stroke-linejoin="round"/>
<path d="M633.129 182.564L625.195 184.75L626.346 189.349H633.82C633.82 189.349 632.784 186.128 633.129 182.564Z" fill="white" stroke="#263238" stroke-miterlimit="10" stroke-linecap="round" stroke-linejoin="round"/>
<path d="M603.424 216.611C601.556 215.173 600.986 210.061 602.491 208.246C604.679 205.606 615.102 204.66 618.102 206.503C620.165 207.77 620.768 213.178 619.037 214.868C616.517 217.328 606.142 218.704 603.424 216.611Z" fill="white" stroke="#263238" stroke-miterlimit="10" stroke-linecap="round" stroke-linejoin="round"/>
<path d="M601.662 209.19L593.729 211.376L594.878 215.975H602.351C602.351 215.975 601.318 212.755 601.662 209.19Z" fill="white" stroke="#263238" stroke-miterlimit="10" stroke-linecap="round" stroke-linejoin="round"/>
<path d="M494.844 184.978C494.844 184.978 205.226 233.004 63.9236 311.15C-77.379 389.295 170.97 338.982 170.97 338.982" stroke="#263238" stroke-miterlimit="10" stroke-linecap="round" stroke-linejoin="round" stroke-dasharray="3 3"/>
</svg>
