<svg width="262" height="53" viewBox="0 0 262 53" fill="none" xmlns="http://www.w3.org/2000/svg">
<g clip-path="url(#clip0_685_11032)">
<path d="M13.0699 12.2309C24.5414 0.424419 38.4085 -2.62566 43.9404 5.4411C49.4705 13.506 44.6296 29.7155 33.1555 41.5197C21.6884 53.3239 7.81984 56.3726 2.28794 48.3081C-3.24219 40.2401 1.60013 24.0342 13.0699 12.2309Z" fill="#F58220"/>
<path d="M20.6611 5.93574C19.4267 6.89719 18.1137 8.02168 16.8744 9.30723C6.82026 19.585 2.64559 33.7163 7.59576 40.7811C12.6976 47.8491 25.0695 45.2793 35.2763 34.8435C40.7674 29.2997 44.4796 22.7967 46.0248 16.7763C46.4896 12.3605 45.8701 8.42363 43.9364 5.45455C39.5307 -0.80946 30.096 -0.32827 20.6611 5.93574Z" fill="#B02A30"/>
<path d="M26.3466 47.3446C20.9755 51.5305 15.4291 53.6063 10.0156 52.7368C12.2868 52.8593 14.1228 50.2431 15.6269 46.7269C17.1541 43.126 18.07 39.7859 18.8029 36.6603C19.8677 31.7119 19.9506 28.1747 19.4075 27.4172C18.4895 26.1576 16.4023 26.484 14.0399 27.893C12.9077 28.5431 11.4049 28.106 13.1816 25.8744C14.9816 23.6169 22.1267 18.1947 24.6978 17.347C27.5204 16.5021 30.7369 17.6524 29.648 20.8618C28.876 23.2045 18.9901 50.1416 26.3466 47.3446ZM34.4355 5.56517C35.7712 6.95316 34.9562 9.99228 32.6793 12.3768C30.3822 14.7427 27.3903 15.5884 26.0949 14.2214C24.7171 12.8547 25.5316 9.7733 27.83 7.36466C30.1499 4.95789 33.1383 4.21809 34.4355 5.56517Z" fill="white"/>
<path d="M45.916 52.4443L52.6259 26.9758H61.3133L54.6025 52.4443H45.916ZM82.3365 35.1851C82.4316 33.9541 82.159 33.0277 81.5106 32.4018C80.8632 31.7831 79.8483 31.4731 78.4692 31.4731C76.2628 31.4731 74.3852 32.1737 72.8219 33.5698C71.2679 34.9683 70.1501 36.9528 69.4689 39.5353C68.8135 42.0236 68.8985 43.9324 69.7178 45.2657C70.5371 46.6023 72.032 47.2679 74.2081 47.2679C75.8004 47.2679 77.172 46.8877 78.3266 46.1189C79.4721 45.36 80.3581 44.2319 80.9763 42.7497H89.9713C88.7693 46.0861 86.7242 48.5484 83.848 50.1381C80.9653 51.7255 77.0765 52.5235 72.1811 52.5235C67.4588 52.5235 64.0763 51.4141 62.0203 49.1894C59.9722 46.9692 59.4742 43.8627 60.5224 39.878C61.6736 35.5147 63.9172 32.1505 67.2612 29.7856C70.6077 27.4224 74.8074 26.2383 79.8461 26.2383C84.2228 26.2383 87.3722 26.9877 89.2922 28.49C91.2079 29.9917 91.88 32.227 91.2943 35.1851H82.3365ZM89.8016 52.4443L96.5128 26.9758H105.198L98.4868 52.4443H89.8016ZM126.222 35.1851C126.319 33.9541 126.042 33.0277 125.396 32.4018C124.749 31.7831 123.739 31.4731 122.354 31.4731C120.15 31.4731 118.272 32.1737 116.71 33.5698C115.151 34.9683 114.036 36.9528 113.355 39.5353C112.7 42.0236 112.786 43.9324 113.603 45.2657C114.423 46.6023 115.916 47.2679 118.092 47.2679C119.687 47.2679 121.057 46.8877 122.211 46.1189C123.36 45.36 124.246 44.2319 124.865 42.7497H133.854C132.656 46.0861 130.612 48.5484 127.731 50.1381C124.853 51.7255 120.961 52.5235 116.069 52.5235C111.347 52.5235 107.962 51.4141 105.907 49.1894C103.858 46.9692 103.359 43.8627 104.41 39.878C105.559 35.5147 107.802 32.1505 111.149 29.7856C114.493 27.4224 118.693 26.2383 123.734 26.2383C128.107 26.2383 131.26 26.9877 133.181 28.49C135.093 29.9917 135.765 32.227 135.179 35.1851H126.222ZM133.687 52.4443L140.398 26.9758H149.084L142.373 52.4443H133.687ZM167.662 32.1372L166.262 37.4562H170.743C171.837 37.4562 172.708 37.2305 173.365 36.7897C174.022 36.3505 174.471 35.679 174.702 34.7968C174.934 33.9241 174.838 33.2576 174.41 32.811C173.979 32.3621 173.225 32.1372 172.144 32.1372H167.662ZM165.147 41.689L163.676 47.2806H168.827C170.048 47.2806 171.035 47.0462 171.782 46.5745C172.534 46.1011 173.031 45.4069 173.273 44.48C173.516 43.5618 173.388 42.8662 172.895 42.395C172.396 41.9234 171.535 41.689 170.301 41.689H165.147ZM154.063 52.4443L160.773 26.9758H176.521C178.392 26.9758 179.743 27.0505 180.559 27.2089C181.383 27.3641 182.076 27.6159 182.633 27.9769C183.388 28.4617 183.884 29.14 184.119 30.0154C184.353 30.8904 184.316 31.9206 184.004 33.1046C183.626 34.5427 182.905 35.7222 181.832 36.6418C180.763 37.566 179.27 38.298 177.342 38.8337C179.357 39.3409 180.711 40.1307 181.401 41.2055C182.091 42.2717 182.189 43.7275 181.708 45.5557C181.112 47.8119 179.991 49.5204 178.347 50.6939C176.7 51.8616 174.57 52.4443 171.953 52.4443H154.063ZM198.185 44.7472C195.544 44.7472 193.699 44.9161 192.649 45.2657C191.6 45.6081 190.959 46.2154 190.73 47.0753C190.578 47.6571 190.693 48.1173 191.07 48.4483C191.448 48.7724 192.064 48.9367 192.911 48.9367C194.299 48.9367 195.432 48.6149 196.297 47.9648C197.163 47.312 197.769 46.3319 198.11 45.0245L198.185 44.7472ZM197.02 49.8167C195.974 50.841 194.762 51.6008 193.39 52.097C192.017 52.5936 190.448 52.8408 188.679 52.8408C186.16 52.8408 184.347 52.392 183.228 51.497C182.106 50.5938 181.764 49.326 182.198 47.6757C182.788 45.436 184.386 43.8158 186.983 42.8193C189.588 41.8219 193.634 41.3034 199.139 41.2564L199.211 41.0575L199.285 40.844C199.524 39.9327 199.427 39.2544 199.004 38.801C198.575 38.3503 197.817 38.1263 196.725 38.1263C195.736 38.1263 194.933 38.293 194.318 38.6157C193.704 38.9466 193.262 39.441 192.982 40.097H185.437C185.991 38.1263 187.304 36.6664 189.388 35.7036C191.463 34.7444 194.378 34.2595 198.124 34.2595C201.718 34.2595 204.246 34.82 205.709 35.9457C207.171 37.066 207.597 38.7778 206.992 41.068L204.61 50.1103C204.461 50.6789 204.365 51.1301 204.327 51.4783C204.289 51.8197 204.295 52.1439 204.341 52.4443H196.763C196.722 52.0191 196.73 51.5903 196.772 51.1601C196.816 50.7231 196.9 50.2838 197.02 49.8167ZM207.059 52.4443L210.953 37.6615C211.111 37.0602 211.227 36.5125 211.3 36.0068C211.38 35.4996 211.421 35.0604 211.424 34.6907H219.593C219.624 34.9683 219.6 35.3339 219.528 35.7864C219.455 36.2407 219.324 36.8317 219.133 37.5555C220.448 36.441 221.766 35.6093 223.091 35.0731C224.422 34.5313 225.8 34.2595 227.232 34.2595C229.886 34.2595 231.721 34.9438 232.738 36.3168C233.758 37.6861 233.919 39.6891 233.225 42.3254L230.556 52.4443H222.408L225.006 42.5831C225.363 41.2296 225.364 40.2345 225.006 39.6136C224.648 38.9936 223.906 38.6813 222.781 38.6813C221.458 38.6813 220.362 39.0937 219.489 39.9245C218.619 40.758 217.961 42.0013 217.52 43.6724L215.211 52.4443H207.059ZM241.489 52.4443H233.443L240.156 26.9758H248.2L244.266 41.9129L252.372 34.6907H262.005L252.979 42.5831L259.169 52.4443H248.999L243.845 43.4967L241.489 52.4443Z" fill="#004A80"/>
</g>
<defs>
<clipPath id="clip0_685_11032">
<rect width="262" height="52" fill="white" transform="translate(0 0.932129)"/>
</clipPath>
</defs>
</svg>
