<svg width="222" height="228" viewBox="0 0 222 228" fill="none" xmlns="http://www.w3.org/2000/svg">
<path d="M31.8445 126.377H4.67969V228.656H31.8445V126.377Z" fill="#7D91D2"/>
<path d="M179.032 160.389H151.867V228.091H179.032V160.389Z" fill="#7D91D2"/>
<path d="M220.516 107.175H193.352V228.091H220.516V107.175Z" fill="#7D91D2"/>
<path d="M133.009 111.564H105.844V228.091H133.009V111.564Z" fill="#7D91D2"/>
<path d="M78.5124 78.5732H51.3477V228.091H78.5124V78.5732Z" fill="#7D91D2"/>
<path d="M193.348 11.7644C193.348 11.7644 193.217 11.9034 192.952 12.1669C192.682 12.4331 192.287 12.8228 191.768 13.3346C190.718 14.3617 189.175 15.8734 187.18 17.8267C183.174 21.7336 177.36 27.4052 170.109 34.4781C155.584 48.6149 135.307 68.3498 112.282 90.7589L112.18 90.8579L112.088 90.7486C107.542 85.3023 102.791 79.6097 97.9466 73.8064C84.9386 58.2128 72.6007 43.4228 61.6505 30.2958L61.8443 30.285C48.9681 49.6399 38.084 66.0007 30.4157 77.5273C26.5769 83.2813 23.5442 87.8283 21.4679 90.9404C20.429 92.4896 19.6306 93.6813 19.088 94.49C18.8183 94.8884 18.6132 95.1915 18.4722 95.3997C18.3332 95.6033 18.2578 95.7043 18.2578 95.7043C18.2578 95.7043 18.3214 95.5961 18.4552 95.3889C18.5922 95.1782 18.7921 94.8715 19.0547 94.4685C19.5895 93.6552 20.3782 92.4568 21.4028 90.8984C23.4658 87.777 26.4794 83.2177 30.2936 77.4473C37.9425 65.9073 48.7983 49.5282 61.6418 30.1512L61.7315 30.0158L61.8356 30.1409C72.7915 43.2628 85.136 58.0477 98.1507 73.6357C102.994 79.44 107.744 85.133 112.29 90.5799L112.097 90.5697C135.146 68.1857 155.445 48.4738 169.986 34.353C177.261 27.3041 183.094 21.6521 187.112 17.7585C189.122 15.8191 190.676 14.3186 191.732 13.2992C192.258 12.7951 192.659 12.411 192.933 12.149C193.205 11.8916 193.348 11.7644 193.348 11.7644Z" fill="#EBEBEB"/>
<path d="M61.7439 35.26C64.5278 35.26 66.7847 33.0032 66.7847 30.2192C66.7847 27.4353 64.5278 25.1785 61.7439 25.1785C58.96 25.1785 56.7031 27.4353 56.7031 30.2192C56.7031 33.0032 58.96 35.26 61.7439 35.26Z" fill="#EBEBEB"/>
<path d="M20.1759 100.364C22.7503 99.3056 23.9787 96.36 22.9197 93.7855C21.8606 91.2109 18.9152 89.9822 16.3409 91.0411C13.7666 92.1 12.5382 95.0455 13.5972 97.6201C14.6562 100.195 17.6016 101.423 20.1759 100.364Z" fill="#EBEBEB"/>
<path d="M117.171 91.4662C117.615 88.7179 115.748 86.1296 113 85.6851C110.252 85.2405 107.664 87.1081 107.219 89.8564C106.774 92.6047 108.642 95.193 111.39 95.6376C114.138 96.0821 116.726 94.2146 117.171 91.4662Z" fill="#EBEBEB"/>
<path d="M200.848 10.9533C201.459 8.23732 199.753 5.54017 197.037 4.9291C194.321 4.31802 191.624 6.02442 191.013 8.74043C190.402 11.4564 192.108 14.1536 194.824 14.7647C197.54 15.3757 200.237 13.6693 200.848 10.9533Z" fill="#EBEBEB"/>
<path d="M11.4152 19.857C12.6484 19.1119 13.9607 18.5468 15.315 18.1622L16.1185 14.3019L22.6402 14.1876L23.5787 18.0166C24.9453 18.3535 26.2775 18.8719 27.5359 19.5734L30.8321 17.413L35.5247 21.9441L33.4818 25.3132C34.2274 26.5464 34.792 27.8597 35.1765 29.214L39.0363 30.017L39.1507 36.5387L35.3217 37.4777C34.9848 38.8443 34.4663 40.1755 33.7648 41.4344L35.9252 44.7306L31.3947 49.4232L28.0251 47.3803C26.7918 48.1253 25.4791 48.6904 24.1248 49.075L23.3212 52.9354L16.7995 53.0497L15.8606 49.2202C14.494 48.8833 13.1623 48.3648 11.9039 47.6633L8.60762 49.8237L3.91503 45.2932L5.95801 41.9236C5.21292 40.6903 4.64731 39.3776 4.26322 38.0233L0.403416 37.2202L0.289062 30.6985L4.11862 29.7596C4.45552 28.393 4.97447 27.0613 5.67546 25.8029L3.51505 22.5066L8.0456 17.814L11.4152 19.857ZM14.8919 28.5448C12.2074 31.3252 12.2854 35.7547 15.0658 38.4392C17.8461 41.1236 22.2757 41.0457 24.9596 38.2653C27.6436 35.485 27.5662 31.0554 24.7858 28.3715C22.0054 25.687 17.5759 25.7644 14.8919 28.5448Z" fill="#EBEBEB"/>
<path d="M119.051 8.07414C120.583 7.14804 122.215 6.44551 123.898 5.96758L124.896 1.16987L133.002 1.02783L134.168 5.78708C135.867 6.20552 137.523 6.8501 139.087 7.72185L143.183 5.03635L149.016 10.6679L146.476 14.8553C147.403 16.3886 148.105 18.0208 148.583 19.7033L153.38 20.7017L153.522 28.8075L148.763 29.9746C148.345 31.673 147.7 33.3277 146.828 34.8923L149.513 38.9895L143.883 44.822L139.695 42.2827C138.162 43.2088 136.53 43.9108 134.847 44.3887L133.849 49.1864L125.743 49.3285L124.577 44.5687C122.878 44.1503 121.223 43.5057 119.658 42.6339L115.562 45.3195L109.729 39.6884L112.268 35.5005C111.342 33.9677 110.64 32.336 110.162 30.653L105.365 29.6546L105.223 21.5489L109.982 20.3817C110.4 18.6834 111.045 17.0281 111.917 15.464L109.232 11.3673L114.863 5.53478L119.051 8.07414ZM123.371 18.8726C120.035 22.3283 120.132 27.8337 123.587 31.1699C127.043 34.5061 132.548 34.4092 135.885 30.9535C139.22 27.4978 139.125 21.9924 135.669 18.6562C132.213 15.3204 126.708 15.4174 123.371 18.8726Z" fill="#F5F5F5"/>
<path d="M42.6012 3.75075C43.2468 3.36051 43.9334 3.06514 44.6421 2.86361L45.0626 0.8432L48.4762 0.783203L48.9675 2.78721C49.6829 2.96361 50.3803 3.23487 51.0387 3.60203L52.7637 2.47132L55.22 4.843L54.1508 6.6065C54.5411 7.25211 54.837 7.93925 55.038 8.64793L57.0584 9.06843L57.1184 12.4821L55.1139 12.9734C54.9375 13.6887 54.6662 14.3856 54.299 15.0445L55.4297 16.7701L53.0586 19.2264L51.2951 18.1572C50.6495 18.5474 49.9623 18.8428 49.2536 19.0443L48.8331 21.0647L45.4195 21.1247L44.9282 19.1202C44.2129 18.9438 43.516 18.6726 42.857 18.3054L41.132 19.4361L38.6757 17.0644L39.7449 15.3009C39.3547 14.6553 39.0588 13.9682 38.8578 13.2595L36.8373 12.839L36.7773 9.42533L38.7819 8.93408C38.9583 8.21873 39.2295 7.52184 39.5967 6.8629L38.466 5.13786L40.8371 2.68157L42.6012 3.75075ZM44.4205 8.29821C43.0155 9.75352 43.0565 12.0719 44.5113 13.4769C45.9666 14.882 48.285 14.841 49.69 13.3856C51.0951 11.9303 51.0546 9.61199 49.5988 8.20693C48.144 6.80239 45.8256 6.8429 44.4205 8.29821Z" fill="#F5F5F5"/>
<path d="M201.607 39.5876C202.48 39.0599 203.409 38.6605 204.367 38.3877L204.936 35.6555L209.553 35.5745L210.217 38.2851C211.185 38.5235 212.127 38.8907 213.018 39.3871L215.351 37.8579L218.673 41.065L217.227 43.45C217.754 44.3233 218.154 45.2524 218.426 46.2109L221.158 46.7795L221.239 51.3962L218.529 52.0608C218.29 53.0279 217.923 53.9705 217.427 54.8617L218.956 57.1949L215.749 60.5168L213.364 59.0707C212.491 59.5984 211.561 59.9979 210.603 60.2701L210.034 63.0023L205.418 63.0833L204.754 60.3727C203.786 60.1343 202.843 59.7671 201.953 59.2707L199.619 60.7999L196.298 57.5928L197.744 55.2078C197.216 54.3345 196.816 53.4054 196.544 52.447L193.811 51.8783L193.73 47.2621L196.441 46.5975C196.68 45.6304 197.047 44.6879 197.543 43.7966L196.014 41.4634L199.221 38.1415L201.607 39.5876ZM204.068 45.7375C202.168 47.7056 202.223 50.8414 204.191 52.7413C206.159 54.6412 209.295 54.5863 211.195 52.6182C213.095 50.6501 213.04 47.5144 211.072 45.6145C209.103 43.7146 205.968 43.7699 204.068 45.7375Z" fill="#F5F5F5"/>
<path d="M198.388 43.6753H185.334L147.239 66.6024C147.382 66.8167 151.878 70.0683 157.751 74.2676L102.586 175.841L56.4185 155.451L15.5391 228.924H37.8764L66.0437 177.472L108.411 197.098L126.37 199.241L174.987 86.5275C181.096 90.8581 185.788 94.1738 185.788 94.1738H198.843C198.843 94.1738 195.036 62.2215 195.036 61.9677C195.036 61.7139 198.388 43.6753 198.388 43.6753Z" fill="#071431"/>
<path d="M28.7578 228.924L69.8009 154.821L115.805 175.841L175.133 66.6023L192.797 75.8823L126.373 199.241L79.2625 177.472L51.0952 228.924H28.7578Z" fill="#6695FF"/>
<path d="M160.293 66.6024C160.713 67.2331 198.843 94.1738 198.843 94.1738L198.388 43.6753L160.293 66.6024Z" fill="#6695FF"/>
<path d="M160.292 66.6023C160.292 66.6762 157.37 66.7356 153.766 66.7356C150.16 66.7356 147.238 66.6757 147.238 66.6023C147.238 66.529 150.16 66.469 153.766 66.469C157.37 66.469 160.292 66.529 160.292 66.6023Z" fill="#263238"/>
<path d="M170.492 74.4807C170.492 74.5546 167.569 74.6141 163.965 74.6141C160.359 74.6141 157.438 74.5541 157.438 74.4807C157.438 74.4069 160.359 74.3474 163.965 74.3474C167.569 74.3469 170.492 74.4069 170.492 74.4807Z" fill="#263238"/>
<path d="M72.4482 120.218C72.4482 120.218 71.656 120.562 71.5324 119.505C71.4083 118.447 73.6128 116.245 74.3179 115.545C75.023 114.846 76.0306 114.996 76.9249 115.196C77.8192 115.395 81.4791 115.764 82.6934 116.543C83.9077 117.323 85.7665 121.233 86.1542 121.419C86.5419 121.604 97.9598 122.199 97.9598 122.199L97.4685 131.557C97.4685 131.557 86.2619 129.422 84.0425 128.034C81.8231 126.645 82.1144 126.093 81.4837 124.798C80.8529 123.503 80.1755 122.128 80.1755 122.128L79.1264 121.954L77.4444 122.883C77.4444 122.883 77.2459 125.258 75.5814 125.197L74.7656 124.768C74.7656 124.768 74.2215 125.397 73.6015 124.424C72.9815 123.451 73.099 123.27 73.099 123.27C73.099 123.27 72.4462 124.077 71.7411 123.076C71.036 122.075 72.4482 120.218 72.4482 120.218Z" fill="#AE7461"/>
<path d="M84.7502 124.19C84.7518 124.197 84.7097 124.211 84.6267 124.229C84.5441 124.249 84.418 124.265 84.2544 124.265C83.9293 124.269 83.4365 124.189 82.9109 123.883C82.3878 123.586 81.8396 123.052 81.4878 122.306C81.1253 121.564 80.9479 120.651 80.8976 119.684L81.0786 119.794C80.3279 120.142 79.4439 120.365 78.5177 120.397C77.868 120.422 77.2306 120.349 76.6363 120.199C76.3522 120.115 76.0235 120.071 75.7758 119.799C75.6435 119.67 75.6128 119.401 75.7466 119.248C75.8686 119.096 76.023 119.043 76.1502 118.988C77.1778 118.572 78.1229 118.248 78.9239 118.003C79.7254 117.758 80.3828 117.593 80.8392 117.489C81.2961 117.386 81.552 117.345 81.5561 117.362C81.5607 117.381 81.313 117.457 80.8658 117.589C80.4187 117.724 79.7715 117.916 78.9818 118.183C78.1921 118.449 77.2599 118.79 76.244 119.216C76.1199 119.266 76.002 119.324 75.9471 119.399C75.8953 119.472 75.8984 119.553 75.9702 119.634C76.1194 119.808 76.4163 119.87 76.7004 119.946C77.2722 120.086 77.8844 120.154 78.509 120.13C79.3992 120.099 80.2489 119.889 80.973 119.561L81.1458 119.483L81.154 119.671C81.1956 120.619 81.3561 121.5 81.6873 122.212C82.0089 122.93 82.5078 123.442 82.9955 123.746C83.4836 124.055 83.9462 124.156 84.259 124.18C84.5728 124.202 84.7472 124.17 84.7502 124.19Z" fill="#6F4439"/>
<path d="M78.9694 117.773C78.991 117.801 78.5838 118.021 77.8915 117.983C77.5516 117.98 77.1511 117.922 76.7275 117.95C76.2957 117.969 75.8922 118.153 75.5588 118.538C74.865 119.312 74.0353 119.825 73.4102 120.086C72.7805 120.351 72.3585 120.405 72.3518 120.376C72.34 120.334 72.7395 120.215 73.3302 119.914C73.921 119.614 74.6871 119.11 75.3665 118.352C75.546 118.167 75.746 117.977 75.9911 117.869C76.2301 117.756 76.4824 117.714 76.7136 117.704C77.1788 117.688 77.5731 117.768 77.9033 117.794C78.5643 117.878 78.954 117.735 78.9694 117.773Z" fill="#6F4439"/>
<path d="M76.6139 120.267C76.6765 120.288 76.2145 121.34 75.1586 122.239C74.11 123.147 73.0003 123.443 72.989 123.378C72.9572 123.302 73.9823 122.906 74.9848 122.036C75.9965 121.178 76.5432 120.224 76.6139 120.267Z" fill="#6F4439"/>
<path d="M77.0242 121.702C77.0909 121.709 76.9407 122.631 76.2725 123.535C75.612 124.446 74.7792 124.868 74.752 124.807C74.7064 124.74 75.4335 124.24 76.0566 123.378C76.6899 122.523 76.9468 121.678 77.0242 121.702Z" fill="#6F4439"/>
<path d="M111.51 101.98L101.292 120.416L85.4339 120.143L84.2422 129.667L100.606 133.679L107.345 126.281L111.51 101.98Z" fill="#E0E0E0"/>
<path d="M102.57 123.544C102.491 123.552 102.392 122.794 102.038 121.937C101.693 121.077 101.233 120.466 101.295 120.416C101.342 120.368 101.92 120.93 102.285 121.837C102.658 122.74 102.638 123.546 102.57 123.544Z" fill="#263238"/>
<path d="M115.387 69.3479C114.094 69.5197 112.748 68.5921 112.447 67.3234C112.146 66.0542 112.934 64.6215 114.166 64.1948C113.345 63.3836 113.118 62.0334 113.63 60.9986C114.14 59.9643 115.351 59.3238 116.494 59.4828C116.521 58.3439 117.181 57.2398 118.172 56.6778C119.163 56.1158 120.449 56.1153 121.44 56.6768C122.678 55.5748 124.706 55.4973 126.025 56.5009C127.128 56.2763 128.345 56.8429 128.883 57.8316C129.42 58.8202 129.234 60.1499 128.446 60.953" fill="#263238"/>
<path d="M126.656 59.1163L126.072 59.1276C120.188 59.2415 115.378 63.8535 115.019 69.7276C114.684 75.1909 114.385 81.2311 114.478 84.1566C114.67 90.2143 120.749 91.0394 120.749 91.0394L120.378 98.3287L121.097 103.885L135.075 97.5882L135.864 71.1614C136.285 64.8602 132.967 59.3625 126.656 59.1163Z" fill="#AE7461"/>
<path d="M120.696 91.0317C120.696 91.0317 124.57 91.1896 128.591 88.5544C128.591 88.5544 126.713 93.2459 120.656 92.8178L120.696 91.0317Z" fill="#6F4439"/>
<path d="M116.984 75.9039C116.977 76.3613 117.358 76.7443 117.836 76.7607C118.312 76.7772 118.705 76.4208 118.713 75.9634C118.72 75.5059 118.339 75.1224 117.862 75.106C117.385 75.0895 116.992 75.447 116.984 75.9039Z" fill="#263238"/>
<path d="M116.374 72.6665C116.483 72.7773 117.129 72.2793 118.061 72.2639C118.99 72.2347 119.683 72.7009 119.782 72.585C119.831 72.5332 119.717 72.3316 119.416 72.1209C119.119 71.9106 118.615 71.7106 118.035 71.7245C117.455 71.7389 116.971 71.9619 116.695 72.186C116.413 72.4111 116.32 72.6173 116.374 72.6665Z" fill="#263238"/>
<path d="M124.879 75.7107C124.872 76.1676 125.253 76.5512 125.73 76.5671C126.207 76.5835 126.6 76.2271 126.607 75.7697C126.614 75.3128 126.233 74.9287 125.756 74.9123C125.279 74.8964 124.886 75.2533 124.879 75.7107Z" fill="#263238"/>
<path d="M125.546 72.6643C125.655 72.775 126.302 72.2771 127.233 72.2617C128.162 72.233 128.855 72.6986 128.954 72.5827C129.003 72.5315 128.89 72.3299 128.587 72.1192C128.291 71.9089 127.787 71.7089 127.207 71.7228C126.627 71.7371 126.143 71.9602 125.867 72.1843C125.586 72.4089 125.492 72.615 125.546 72.6643Z" fill="#263238"/>
<path d="M122.28 79.6348C122.283 79.5815 121.702 79.4928 120.762 79.3913C120.524 79.3718 120.298 79.3287 120.255 79.1672C120.195 78.9964 120.29 78.7385 120.4 78.4595C120.612 77.88 120.835 77.2724 121.068 76.6355C121.995 74.0387 122.66 71.9055 122.556 71.8691C122.451 71.8327 121.615 73.9079 120.688 76.5047C120.466 77.1447 120.252 77.7554 120.05 78.339C119.965 78.6113 119.816 78.9205 119.945 79.2743C120.012 79.4507 120.189 79.5764 120.342 79.6143C120.495 79.6579 120.629 79.6579 120.747 79.6625C121.692 79.6943 122.277 79.6871 122.28 79.6348Z" fill="#263238"/>
<path d="M124.657 69.0963C124.784 69.3302 125.577 69.0584 126.559 69.0076C127.54 68.9348 128.372 69.104 128.457 68.8569C128.493 68.7394 128.315 68.5307 127.957 68.3482C127.602 68.1661 127.065 68.0302 126.476 68.0667C125.888 68.1041 125.381 68.3056 125.062 68.5307C124.74 68.7564 124.6 68.9851 124.657 69.0963Z" fill="#263238"/>
<path d="M116.257 68.8282C116.458 69.0359 117.222 68.8016 118.146 68.7734C119.069 68.718 119.855 68.8826 120.031 68.658C120.108 68.5493 119.98 68.3395 119.635 68.1462C119.294 67.9534 118.727 67.8011 118.092 67.8293C117.458 67.8585 116.911 68.0606 116.594 68.2836C116.271 68.5067 116.168 68.7267 116.257 68.8282Z" fill="#263238"/>
<path d="M115.551 66.9372C115.551 66.9372 117.076 63.1118 118.889 62.1908C121.083 61.076 122.084 63.4887 124.183 62.858C126.283 62.2272 128.377 61.1575 130.566 62.7477C132.962 64.4881 131.88 65.7624 132.078 68.4484C132.881 79.3371 134.931 82.3806 135.398 77.2357C135.449 76.6721 137.001 76.1942 137.187 73.8133C137.427 70.7258 137.473 66.9819 136.743 64.8081C136.127 62.9759 135.051 61.7231 133.14 60.3555C130.122 58.1967 126.034 58.2284 123.265 58.5612C120.495 58.894 115.206 62.1913 115.551 66.9372Z" fill="#263238"/>
<path d="M135.005 77.0783C135.025 76.1424 135.817 75.3881 136.75 75.4589C137.882 75.5445 139.152 76.1619 139.123 78.4982C139.07 82.6431 134.92 81.736 134.914 81.617C134.911 81.5365 134.968 78.8126 135.005 77.0783Z" fill="#AE7461"/>
<path d="M135.836 80.0695C135.854 80.0566 135.908 80.1212 136.029 80.1782C136.147 80.2341 136.351 80.2746 136.568 80.1961C137.008 80.0407 137.386 79.3505 137.415 78.6034C137.43 78.2265 137.355 77.866 137.226 77.567C137.103 77.2619 136.91 77.0481 136.69 77.006C136.471 76.9527 136.313 77.0824 136.261 77.1983C136.204 77.3137 136.229 77.3968 136.207 77.4034C136.195 77.4137 136.119 77.3327 136.154 77.1619C136.172 77.0799 136.223 76.9824 136.321 76.9045C136.421 76.825 136.568 76.7855 136.721 76.804C137.041 76.8301 137.325 77.1276 137.467 77.4557C137.628 77.786 137.72 78.1906 137.703 78.6142C137.666 79.4495 137.229 80.2253 136.627 80.391C136.335 80.4633 136.093 80.3725 135.968 80.273C135.842 80.17 135.822 80.0772 135.836 80.0695Z" fill="#6F4439"/>
<path d="M134.771 69.0544C134.24 69.4318 133.679 69.822 133.032 69.8984C132.385 69.9754 131.637 69.6174 131.515 68.977C131.46 68.6893 131.524 68.3534 131.33 68.1344C131.099 67.8729 130.683 67.9642 130.336 68.0078C129.134 68.159 127.702 66.856 127.372 65.6899C127.074 66.1561 126.404 66.3079 125.933 66.0171C125.462 65.7263 125.289 65.5587 124.918 65.1495C124.546 64.7397 124.028 64.3772 123.482 64.4654C123.176 64.5146 122.893 64.7028 122.585 64.6813C122.04 64.6433 121.762 64.0116 121.669 63.4731C121.576 62.9347 121.5 62.306 121.034 62.0214C120.601 61.7578 120.051 61.9255 119.552 62.0091C119.052 62.0927 118.404 61.9876 118.266 61.5004C118.193 61.245 118.299 60.9722 118.436 60.7456C119.062 59.7174 120.459 59.239 121.584 59.6687C121.962 58.2918 123.222 57.2017 124.639 57.0247C126.056 56.8473 127.545 57.5934 128.252 58.8344C129.112 58.0231 130.378 57.6652 131.535 57.9057C132.693 58.1462 133.711 58.979 134.177 60.0656C135.18 59.781 136.336 60.1487 136.99 60.9594C137.645 61.7706 137.759 62.9783 137.269 63.8977C138.022 64.3085 138.673 65.0361 138.706 65.8935C138.738 66.7504 137.919 67.6211 137.087 67.4114C137.434 68.0724 137.18 68.9836 136.541 69.3692C135.901 69.7549 134.976 69.5544 134.554 68.9385" fill="#263238"/>
<path d="M121.299 60.8935C121.295 60.894 121.296 60.9196 121.302 60.9694C121.308 61.0191 121.312 61.0945 121.332 61.1899C121.374 61.3806 121.456 61.6622 121.649 61.9822C121.842 62.2975 122.139 62.6601 122.586 62.9436C123.025 63.2313 123.622 63.4441 124.292 63.3949L124.22 63.3046C124.099 63.6616 124.142 64.0861 124.326 64.4466C124.5 64.8138 124.77 65.1369 125.054 65.4517C125.2 65.6025 125.327 65.7809 125.527 65.9184C125.721 66.0501 125.953 66.124 126.188 66.1491C126.656 66.1999 127.181 66.045 127.512 65.6456L127.356 65.604C127.478 66.4255 127.962 67.2404 128.716 67.7285C129.115 68.0054 129.606 68.17 130.085 68.148C130.564 68.1342 131.007 67.9849 131.42 67.8275L131.308 67.7808C131.541 68.2916 131.891 68.7239 132.313 69.0403C132.727 69.3561 133.274 69.5356 133.764 69.4054C134.737 69.1797 135.37 68.3536 135.486 67.5855L135.393 67.6311C135.883 67.886 136.404 67.9013 136.821 67.8126C137.243 67.727 137.572 67.5367 137.805 67.3506C138.039 67.1609 138.176 66.9686 138.258 66.8352C138.332 66.6973 138.363 66.6209 138.359 66.6188C138.338 66.6019 138.227 66.9363 137.762 67.2952C137.529 67.467 137.207 67.6414 136.801 67.7137C136.4 67.7901 135.906 67.7639 135.454 67.5193L135.375 67.4767L135.36 67.565C135.243 68.2818 134.633 69.0526 133.73 69.2515C133.286 69.3649 132.805 69.2038 132.412 68.9054C132.018 68.607 131.684 68.19 131.468 67.7101L131.433 67.6342L131.356 67.6634C130.95 67.8167 130.522 67.9567 130.079 67.9685C129.636 67.9865 129.196 67.8403 128.815 67.5778C128.103 67.1163 127.648 66.3537 127.529 65.5763L127.5 65.381L127.374 65.5353C127.094 65.8773 126.625 66.0245 126.204 65.9799C125.993 65.9584 125.788 65.8938 125.618 65.7799C125.453 65.6712 125.32 65.4948 125.173 65.343C124.888 65.0338 124.626 64.723 124.46 64.3815C124.286 64.0441 124.247 63.6713 124.35 63.3482L124.382 63.2488L124.278 63.258C123.647 63.3129 123.071 63.1206 122.643 62.8513C122.206 62.5862 121.91 62.2426 121.712 61.9422C121.325 61.3222 121.328 60.8832 121.299 60.8935Z" fill="#455A64"/>
<path d="M122.552 82.8166C122.572 82.6617 123.595 82.8545 124.488 82.1182C125.384 81.3833 125.477 80.2706 125.621 80.29C125.688 80.288 125.773 80.5711 125.698 81.0336C125.627 81.4879 125.356 82.1197 124.81 82.5704C124.263 83.0197 123.625 83.1356 123.199 83.0904C122.764 83.0479 122.532 82.8853 122.552 82.8166Z" fill="#263238"/>
<path d="M93.0234 141.474L100.913 132.772L107.511 112.832C108.859 109.372 110.015 104.98 111.647 101.7C112.45 100.087 113.802 98.8144 115.449 98.0827L118.25 96.8386L119.926 94.1649C118.961 100.212 127.436 100.957 136.444 93.449C136.444 93.449 139.42 95.4623 143.614 98.9406C145.45 100.464 147.115 102.128 147.809 104.641C149.069 109.205 143.654 122.712 137.757 135.418C135.993 139.219 127.592 156.249 127.592 156.249L124.568 158.453C124.568 158.453 97.8335 150.353 95.4284 145.914C93.0234 141.474 93.0234 141.474 93.0234 141.474Z" fill="#E0E0E0"/>
<path d="M97.3988 136.286C97.3926 136.279 97.4695 136.19 97.6224 136.025C97.7957 135.842 98.0213 135.605 98.3018 135.31C98.9223 134.675 99.7853 133.792 100.846 132.706L100.823 132.743C101.317 131.223 101.908 129.407 102.565 127.384C103.244 125.36 103.933 123.112 104.629 120.736C105.976 116.077 107.252 111.863 108.43 108.902C109.001 107.416 109.537 106.243 109.914 105.437C110.103 105.058 110.256 104.754 110.373 104.521C110.481 104.313 110.541 104.206 110.549 104.21C110.558 104.214 110.514 104.329 110.422 104.544C110.316 104.782 110.179 105.093 110.008 105.48C109.662 106.298 109.154 107.478 108.606 108.969C107.477 111.939 106.234 116.149 104.885 120.811C104.189 123.187 103.49 125.444 102.797 127.461C102.119 129.477 101.509 131.287 100.999 132.801L100.992 132.823L100.977 132.837C99.891 133.898 99.0084 134.762 98.3731 135.382C98.0782 135.662 97.8413 135.888 97.6588 136.061C97.4947 136.215 97.4049 136.292 97.3988 136.286Z" fill="#263238"/>
<path d="M121.948 103.077L112.702 140.983L103.098 145.759V136.486L119.717 102.253L121.948 103.077Z" fill="#6695FF"/>
<g opacity="0.3">
<path d="M104.258 137.571C106.879 138.557 109.24 140.118 111.556 141.694C113.871 143.27 116.186 144.886 118.755 146.003C121.324 147.119 124.203 147.714 126.946 147.148C129.689 146.583 132.251 144.709 133.155 142.058L104.258 137.571Z" fill="black"/>
</g>
<path d="M118.25 96.7207L120.613 93.1019L121.541 98.0602L123.896 95.3952L135.582 89.9288L137.611 94.2727L124.699 101.908L121.118 101.642L118.507 98.5427L118.25 96.7207Z" fill="#E0E0E0"/>
<path d="M118.251 96.7214C118.281 96.7183 118.332 96.9972 118.428 97.469C118.545 98.0346 118.677 98.6731 118.824 99.3802L118.59 99.3453C118.791 98.9782 119.004 98.5874 119.227 98.1808C119.579 97.5567 119.91 96.9711 120.211 96.4383L120.337 96.2147L120.421 96.4527C120.628 97.0434 120.738 97.5418 120.832 97.888C120.919 98.2346 120.974 98.432 120.951 98.4418C120.928 98.451 120.829 98.2669 120.702 97.929C120.571 97.5936 120.426 97.0978 120.205 96.5362L120.415 96.5506C120.124 97.0885 119.802 97.6798 119.461 98.31C119.234 98.7146 119.016 99.1028 118.812 99.4674L118.644 99.7663L118.578 99.4325C118.267 97.868 118.187 96.7265 118.251 96.7214Z" fill="#263238"/>
<path d="M122.186 98.5488L120.698 98.3673C120.295 98.8201 119.309 99.7529 118.906 100.206L118.909 100.248C119.085 101.24 119.262 102.232 119.438 103.224C120.269 103.183 121.106 103.251 121.92 103.423C122.416 102.552 122.791 101.895 123.288 101.024L122.186 98.5488Z" fill="#6695FF"/>
<path d="M124.724 154.462C124.693 154.489 124.256 154.023 123.524 153.3C122.792 152.576 121.752 151.607 120.528 150.625C119.303 149.645 118.13 148.841 117.264 148.285C116.398 147.728 115.848 147.404 115.868 147.368C115.876 147.352 116.024 147.414 116.285 147.541C116.546 147.666 116.915 147.865 117.362 148.124C118.259 148.642 119.459 149.428 120.695 150.417C121.929 151.407 122.959 152.407 123.66 153.168C124.011 153.549 124.285 153.866 124.464 154.093C124.645 154.32 124.738 154.45 124.724 154.462Z" fill="#263238"/>
<path d="M122.301 98.8544L123.952 98.0411L124.512 100.932L123.136 101.054L122.301 98.8544Z" fill="#FF725E"/>
<path opacity="0.3" d="M123.727 96.8767V103.424L135.899 95.3839L124.571 101.979L123.727 96.8767Z" fill="black"/>
<path d="M137.609 94.2726C137.619 94.2879 137.368 94.4772 136.902 94.8069C136.431 95.13 135.743 95.5863 134.868 96.112C133.129 97.1811 130.634 98.4898 127.944 100.035C126.807 100.695 125.734 101.358 124.769 102.012L124.609 102.12L124.574 101.932C124.205 99.9328 123.884 98.198 123.643 96.8924L123.78 96.9355C123.254 97.4262 122.825 97.8262 122.496 98.1329C122.194 98.4072 122.027 98.5493 122.016 98.538C122.005 98.5272 122.152 98.3636 122.434 98.0698C122.749 97.7493 123.161 97.3314 123.666 96.8181L123.773 96.7099L123.803 96.8611C124.067 98.1626 124.417 99.8918 124.821 101.884L124.626 101.804C125.592 101.138 126.668 100.467 127.809 99.8046C130.509 98.2539 133.014 96.974 134.772 95.9499C135.656 95.4463 136.358 95.0156 136.844 94.7202C137.327 94.4177 137.599 94.2577 137.609 94.2726Z" fill="#263238"/>
<path d="M120.715 98.9213L120.033 97.2496L118.906 99.3198L119.389 100.07L120.715 98.9213Z" fill="#6695FF"/>
<path d="M122.583 98.6791C122.64 98.7324 121.826 99.6744 120.95 100.929C120.069 102.18 119.461 103.267 119.392 103.231C119.329 103.202 119.838 102.045 120.731 100.775C121.62 99.5026 122.534 98.6304 122.583 98.6791Z" fill="#263238"/>
<path d="M121.757 103.473C121.738 103.546 121.18 103.462 120.497 103.348C119.815 103.232 119.26 103.129 119.266 103.054C119.271 102.981 119.846 102.967 120.542 103.085C121.237 103.201 121.776 103.403 121.757 103.473Z" fill="#263238"/>
<path d="M60.3942 127.051L52.691 105.279C52.5438 104.809 52.831 104.315 53.3115 104.21L71.1055 99.562C71.5495 99.464 71.9957 99.7179 72.1382 100.15L80.2342 124.677L105.344 141.17L104.138 142.401L97.7139 140.836L60.3942 127.051Z" fill="#455A64"/>
<path d="M104.138 142.401C104.136 142.405 104.092 142.381 104.009 142.33C103.913 142.27 103.793 142.194 103.642 142.098C103.308 141.879 102.842 141.574 102.249 141.187C101.029 140.374 99.2919 139.218 97.1526 137.793C92.8492 134.896 86.931 130.913 80.3939 126.513C79.9386 126.205 79.4858 125.899 79.0642 125.614L79.0268 125.588L79.0124 125.545C76.6474 118.41 74.5291 112.018 72.9943 107.388C72.2461 105.092 71.6405 103.233 71.2154 101.928C71.0159 101.298 70.859 100.802 70.7457 100.445C70.6985 100.287 70.66 100.16 70.6298 100.058C70.6052 99.9703 70.5944 99.9246 70.5985 99.9236C70.6026 99.9221 70.6216 99.9652 70.6544 100.05C70.6913 100.149 70.737 100.274 70.7944 100.429C70.9185 100.782 71.0908 101.273 71.3098 101.896C71.7538 103.195 72.3861 105.044 73.1676 107.33C74.7224 111.953 76.8684 118.336 79.2642 125.461L79.2124 125.393C79.6345 125.678 80.0867 125.984 80.5426 126.292C87.0628 130.717 92.9656 134.724 97.2577 137.637C99.3771 139.091 101.098 140.272 102.307 141.101C102.888 141.506 103.345 141.825 103.672 142.054C103.816 142.158 103.932 142.242 104.023 142.308C104.102 142.366 104.141 142.397 104.138 142.401Z" fill="#263238"/>
<path d="M63.4648 126.587C63.4613 126.513 66.9606 126.288 71.2798 126.084C75.6007 125.88 79.1051 125.774 79.1082 125.847C79.1118 125.921 75.613 126.146 71.2922 126.35C66.9734 126.555 63.4684 126.66 63.4648 126.587Z" fill="#263238"/>
<path d="M66.3012 114.159C66.6115 115.146 66.4371 116.08 65.912 116.245C65.3869 116.41 64.71 115.743 64.3998 114.756C64.0895 113.768 64.2639 112.834 64.789 112.669C65.3141 112.504 65.991 113.171 66.3012 114.159Z" fill="#E0E0E0"/>
<path d="M88.227 121.923C88.227 121.923 87.5624 122.253 87.4588 121.193C87.367 120.253 89.6239 118.86 90.4684 118.338C91.313 117.816 93.0944 118.175 94.0031 118.293C95.2308 118.453 98.0906 119.733 98.9998 120.824C99.9233 121.932 100.557 124.766 100.893 125.034C101.228 125.303 112.598 129.776 112.598 129.776L110.01 138.782C110.01 138.782 99.5731 134.175 97.724 132.323C95.8748 130.47 96.283 129.997 95.9605 128.593C95.6379 127.19 95.2877 125.697 95.2877 125.697L94.3052 125.291L92.457 125.816C92.457 125.816 92.2314 126.518 91.755 127.067C91.1863 127.721 90.1561 127.693 89.5839 127.041C89.5839 127.041 88.646 127.367 88.1885 126.308C88.0014 125.874 88.1362 125.214 88.1362 125.214C88.1362 125.214 87.2958 125.379 87.2891 124.332C87.2824 123.208 88.227 121.923 88.227 121.923Z" fill="#AE7461"/>
<path d="M94.1485 123.115C94.147 123.159 93.767 123.145 93.1819 123.273C92.6014 123.397 91.8107 123.701 91.1302 124.299C90.4503 124.899 90.0498 125.645 89.8539 126.206C89.6534 126.77 89.619 127.149 89.5754 127.145C89.5462 127.145 89.5118 126.754 89.6739 126.149C89.8308 125.55 90.2282 124.739 90.9538 124.099C91.6799 123.46 92.5343 123.167 93.1481 123.087C93.7691 123.002 94.1526 123.086 94.1485 123.115Z" fill="#6F4439"/>
<path d="M93.2956 121.183C93.2909 121.23 92.8817 121.162 92.2556 121.307C91.6326 121.444 90.8131 121.846 90.1137 122.532C89.4137 123.223 88.9378 123.997 88.5922 124.55C88.2497 125.108 88.0338 125.454 87.9999 125.436C87.9692 125.419 88.1245 125.043 88.4281 124.456C88.7348 123.875 89.1942 123.065 89.9275 122.341C90.6634 121.618 91.5521 121.217 92.2202 121.122C92.8935 121.018 93.3048 121.159 93.2956 121.183Z" fill="#6F4439"/>
<path d="M93.1303 119.071C93.1252 119.115 92.7724 119.067 92.2257 119.168C91.6801 119.262 90.9509 119.544 90.2663 120.047C89.5802 120.551 89.052 121.131 88.6654 121.544C88.2808 121.961 88.0357 122.217 88.0065 122.192C87.9793 122.169 88.1711 121.873 88.5218 121.421C88.8746 120.974 89.392 120.359 90.1089 119.832C90.8273 119.303 91.617 119.031 92.1991 118.981C92.7852 118.924 93.138 119.043 93.1303 119.071Z" fill="#6F4439"/>
<path d="M141.648 98.616C144.845 99.2406 146.925 102.049 147.576 105.561C148.498 110.543 137.078 134.086 134.95 139.226C132.708 144.641 127.748 145.824 124.86 145.757C121.972 145.691 101.734 136.198 101.734 136.198L104.701 125.928L122.684 131.267L129.81 111.216" fill="#E0E0E0"/>
<path d="M129.811 111.217C129.811 111.217 129.777 111.34 129.698 111.575C129.615 111.818 129.497 112.165 129.343 112.616C129.021 113.539 128.553 114.883 127.95 116.613C126.726 120.088 124.959 125.103 122.777 131.3L122.746 131.386L122.657 131.36C117.489 129.833 111.381 128.028 104.667 126.045L104.819 125.962C103.873 129.246 102.883 132.681 101.859 136.234L101.79 136.081C106.513 138.275 111.569 140.576 116.839 142.794C118.979 143.681 121.1 144.566 123.243 145.249L124.049 145.48C124.317 145.55 124.583 145.573 124.85 145.623C125.402 145.632 125.955 145.605 126.5 145.531C127.592 145.396 128.651 145.085 129.635 144.642C131.605 143.754 133.236 142.237 134.227 140.406C134.73 139.501 135.099 138.519 135.526 137.58C135.948 136.641 136.366 135.713 136.778 134.795C140.1 127.473 143.046 120.854 145.158 115.154C146.197 112.305 147.098 109.688 147.464 107.309C147.541 106.716 147.589 106.134 147.508 105.591C147.402 105.043 147.28 104.519 147.114 104.032C146.794 103.054 146.367 102.207 145.885 101.513C144.916 100.112 143.745 99.396 142.938 99.0447C142.528 98.8704 142.203 98.7637 141.98 98.7114C141.759 98.653 141.646 98.616 141.646 98.616C141.646 98.616 141.762 98.6345 141.987 98.6847C142.212 98.7288 142.542 98.8268 142.959 98.995C143.78 99.3329 144.975 100.043 145.969 101.453C146.464 102.151 146.904 103.006 147.234 103.992C147.406 104.484 147.532 105.013 147.644 105.566C147.732 106.137 147.686 106.727 147.611 107.33C147.255 109.738 146.364 112.359 145.334 115.219C143.241 120.936 140.312 127.568 137.001 134.896C136.59 135.814 136.174 136.742 135.754 137.681C135.33 138.616 134.966 139.593 134.448 140.53C133.437 142.405 131.761 143.969 129.742 144.88C128.733 145.335 127.65 145.654 126.533 145.793C125.975 145.869 125.409 145.896 124.841 145.888C124.556 145.837 124.26 145.809 123.984 145.737L123.163 145.502C120.998 144.813 118.879 143.929 116.734 143.039C111.458 140.819 106.403 138.515 101.678 136.315L101.578 136.268L101.609 136.162C102.638 132.61 103.632 129.177 104.583 125.894L104.617 125.775L104.735 125.811C111.443 127.812 117.546 129.632 122.71 131.173L122.591 131.234C124.808 125.05 126.603 120.045 127.847 116.577C128.471 114.855 128.956 113.516 129.289 112.597C129.454 112.15 129.581 111.806 129.67 111.565C129.759 111.333 129.811 111.217 129.811 111.217Z" fill="#263238"/>
<path d="M125.558 138.8C125.475 138.815 125.199 137.011 124.398 134.929C123.61 132.84 122.616 131.311 122.687 131.267C122.715 131.249 122.999 131.608 123.385 132.238C123.77 132.868 124.244 133.778 124.647 134.834C125.049 135.89 125.3 136.885 125.432 137.611C125.565 138.338 125.591 138.795 125.558 138.8Z" fill="#263238"/>
<path d="M140.406 98.66C140.422 98.7067 139.744 98.9246 138.728 99.4385C138.218 99.6918 137.634 100.038 137.014 100.461C136.4 100.894 135.754 101.411 135.131 102.014C134.514 102.623 133.983 103.257 133.535 103.86C133.097 104.471 132.738 105.046 132.473 105.55C131.936 106.555 131.702 107.227 131.656 107.21C131.639 107.204 131.685 107.033 131.784 106.726C131.879 106.418 132.054 105.984 132.305 105.464C132.552 104.942 132.9 104.346 133.334 103.717C133.779 103.095 134.315 102.443 134.944 101.822C135.579 101.208 136.243 100.687 136.875 100.257C137.514 99.8379 138.118 99.5031 138.645 99.2682C139.171 99.0298 139.608 98.8641 139.919 98.777C140.228 98.6846 140.401 98.6421 140.406 98.66Z" fill="#263238"/>
<path d="M28.2068 172.523L18.4883 160.377C18.4883 160.377 56.0828 129.405 59.637 127.193C62.3286 125.518 67.7997 123.293 72.9794 125.034C78.1586 126.774 86.9264 132.832 90.1585 134.797C93.3907 136.762 121.528 154.19 124.569 158.453C124.569 158.453 118.447 169.528 114.438 171.385C111.298 172.839 102.246 170.668 96.9577 167.453C91.6687 164.238 67.4043 143.457 67.4043 143.457L28.2068 172.523Z" fill="#263238"/>
<path d="M31.8281 186.761L44.9577 196.192L70.2247 155.016L95.7362 166.64L78.5817 137.979C78.5817 137.979 64.7465 138.141 62.5717 137.897C59.7821 137.583 54.689 141.986 51.9087 147.362C49.4924 152.034 31.8281 186.761 31.8281 186.761Z" fill="#263238"/>
<path d="M87.4763 163.246C87.4234 163.297 81.6617 157.42 74.6097 150.12C67.5552 142.817 61.8811 136.857 61.934 136.806C61.9868 136.755 67.747 142.631 74.8015 149.934C81.854 157.234 87.5296 163.195 87.4763 163.246Z" fill="#455A64"/>
<path opacity="0.3" d="M39.2031 164.368C39.2031 164.368 50.5082 143.238 55.8331 141.831C55.8331 141.831 48.1299 152.27 45.5515 159.66L39.2031 164.368Z" fill="black"/>
<path d="M64.344 139.308C64.3343 139.344 63.8312 139.105 62.8595 139.024C61.897 138.931 60.4504 139.097 58.8894 139.869C57.3187 140.624 55.7726 142.074 54.4122 143.93C53.0589 145.797 51.7 147.955 50.4006 150.282C47.8361 154.965 45.8583 159.389 44.2804 162.519C43.5051 164.09 42.842 165.345 42.3785 166.208C42.1487 166.618 41.9651 166.946 41.8267 167.193C41.698 167.416 41.6262 167.532 41.618 167.527C41.6098 167.522 41.6657 167.399 41.779 167.167C41.9062 166.914 42.0749 166.579 42.2861 166.16C42.721 165.283 43.3574 164.017 44.1102 162.436C45.6429 159.288 47.5931 154.852 50.1663 150.153C51.4729 147.814 52.8384 145.658 54.2143 143.783C55.5973 141.917 57.19 140.448 58.8058 139.7C60.4088 138.934 61.8923 138.794 62.8682 138.921C63.8548 139.036 64.344 139.308 64.344 139.308Z" fill="#455A64"/>
<path d="M38.2633 179.113L31.0714 192.367C31.0714 192.367 15.0378 190.472 13.6133 192.883L39.6668 206.203L50.4801 185.317L38.2633 179.113Z" fill="#263238"/>
<path d="M39.7313 195.356C40.7923 196.314 39.3775 198.006 38.2709 197.074C37.0894 196.008 38.7765 194.287 39.8113 195.438" fill="#E0E0E0"/>
<path d="M39.6668 206.202L40.6745 204.053L15.3178 192.085C15.3178 192.085 13.8999 191.997 13.6133 192.881L39.6668 206.202Z" fill="#455A64"/>
<path d="M30.7347 192.016C30.6737 192.146 31.2804 192.529 31.6973 193.258C32.1331 193.976 32.1742 194.692 32.3167 194.702C33.0444 194.26 31.4701 191.593 30.7347 192.016Z" fill="white"/>
<path d="M27.4266 191.749C27.3343 191.857 27.7748 192.355 27.9318 193.114C28.1107 193.868 27.9225 194.506 28.0523 194.565C28.8876 194.394 28.2528 191.548 27.4266 191.749Z" fill="white"/>
<path d="M24.1797 194.228C24.8822 194.319 24.9868 191.498 24.2812 191.539C24.3151 191.625 24.2176 194.147 24.1797 194.228Z" fill="white"/>
<path d="M32.5195 189.066C32.6113 189.061 35.1035 190.527 35.142 190.603C35.543 190.006 32.8421 188.424 32.5195 189.066Z" fill="white"/>
<path d="M28.4892 155.487L16.1652 164.176C16.1652 164.176 2.6351 155.368 0.289062 156.896L17.7323 180.39L36.2175 165.837L28.4892 155.487Z" fill="#263238"/>
<path d="M22.5767 170.685C23.1028 172.014 21.0845 172.903 20.5061 171.577C19.9199 170.097 22.1952 169.303 22.6121 170.794" fill="#E0E0E0"/>
<path d="M17.7323 180.39L19.5881 178.912L2.16948 156.939C2.16948 156.939 0.937748 156.231 0.289062 156.896L17.7323 180.39Z" fill="#455A64"/>
<path d="M16.0012 163.705C15.8894 163.794 16.2633 164.407 16.3135 165.245C16.3858 166.082 16.1048 166.741 16.2284 166.814C17.0766 166.74 16.8484 163.651 16.0012 163.705Z" fill="white"/>
<path d="M13.1687 161.996C13.038 162.052 13.2118 162.694 13.0159 163.444C12.8421 164.199 12.3903 164.688 12.4805 164.798C13.3046 165.015 13.9979 162.183 13.1687 161.996Z" fill="white"/>
<path d="M9.16406 162.791C9.75326 163.184 11.0978 160.702 10.4476 160.425C10.4394 160.518 9.2338 162.735 9.16406 162.791Z" fill="white"/>
<path opacity="0.3" d="M85.5466 161.249C85.5466 161.249 71.1781 150.311 67.7521 146.095C64.3723 141.935 62.5703 137.897 62.5703 137.897L85.5466 161.249Z" fill="black"/>
</svg>
