<svg width="269" height="31" viewBox="0 0 269 31" fill="none" xmlns="http://www.w3.org/2000/svg">
<g clip-path="url(#clip0_685_11105)">
<path fill-rule="evenodd" clip-rule="evenodd" d="M35.1706 22.332L33.5795 30.1929H26.6253C27.1539 27.5908 27.6838 24.8006 28.2845 22.1385C28.4071 21.5608 28.5433 20.9696 28.6727 20.3251C28.6727 19.8688 28.7368 19.4151 28.809 18.9601C29.0719 15.7802 26.7547 15.1931 24.5097 16.1685C23.1734 16.6876 22.5781 17.5936 21.9256 18.7666C21.3221 19.8061 21.1328 20.7761 20.8589 22.0745L19.1357 30.1929H12.2441L16.2832 10.8444C18.4055 10.779 20.5211 10.7136 22.6476 10.6535C22.386 11.8838 22.0536 13.0541 21.8547 14.2871C24.443 11.2353 27.7423 9.67944 31.5948 10.779C35.4363 11.8184 36.2373 15.5894 35.6311 19.2176C35.5561 20.3251 35.4363 21.2952 35.1706 22.332Z" fill="#98272A"/>
<path fill-rule="evenodd" clip-rule="evenodd" d="M160.856 2.08646H167.617L161.587 30.2539H155.365C155.625 29.2144 155.886 28.1803 156.224 27.1328C154.96 28.307 153.906 29.2771 152.512 29.931V25.709C153.042 25.5836 153.579 25.3834 154.036 25.1285C156.032 23.8929 156.814 21.6858 156.814 19.4774L156.686 18.3752C156.557 17.3411 156.096 16.4257 154.896 15.912C154.242 15.5183 153.308 15.5183 152.512 15.6518V10.6505C152.906 10.6505 153.238 10.7786 153.579 10.7786C155.497 11.2336 157.146 12.4719 158.086 14.3507L160.856 2.08646ZM152.512 29.931C152.052 30.1912 151.527 30.3193 150.918 30.4447C149.075 30.8984 148.002 31.0305 146.084 30.3193C143.836 29.5373 142.713 28.0468 141.851 26.0346C139.864 21.1041 142.042 14.0932 146.946 11.69C148.534 10.908 150.586 10.4597 152.512 10.6505V15.6518C151.985 15.7172 151.395 15.912 150.99 16.1682C149.863 16.8847 149.131 17.9216 148.737 19.1519C148.28 20.3822 148.002 22.1382 148.406 23.4339C148.534 24.0851 148.805 24.5468 149.196 24.9297C150.123 25.709 151.395 25.9025 152.512 25.709" fill="#98272A"/>
<path fill-rule="evenodd" clip-rule="evenodd" d="M104.673 11.1095L103.283 15.2608C101.365 14.7457 99.966 14.4788 97.9839 14.3521C97.3818 14.3521 96.9295 14.2867 96.4677 14.4121C95.0674 14.7457 94.4693 15.9733 95.5332 16.8847C96.8533 18.1804 99.1759 18.5007 100.831 19.5428C101.236 19.807 101.695 20.1953 102.155 20.5836C103.47 22.5945 103.283 24.7376 101.895 26.8192C99.7031 29.9937 95.5332 30.3193 91.7558 30.0591C89.7015 29.9243 87.9769 29.5387 85.9199 29.1504L87.1868 24.4747C89.7015 25.1285 91.2953 25.7143 93.6656 25.4461C94.735 25.3834 96.2675 25.4461 96.2675 24.0237C95.9964 22.9829 95.0061 22.3317 93.9394 21.8807C92.3565 21.1668 90.6319 20.7131 89.3746 19.4774C88.6349 18.4406 88.4319 17.6613 88.4319 16.3643C88.4319 15.066 88.8392 14.1613 89.4345 13.3139C92.8197 8.58088 99.7793 9.94195 104.673 11.1095Z" fill="#98272A"/>
<path fill-rule="evenodd" clip-rule="evenodd" d="M65.3853 10.6506L72.4063 10.5225C71.8777 12.9258 71.3424 15.3263 70.8125 17.8536C70.491 19.4776 69.8262 21.5605 70.2921 23.1791C70.5605 24.0852 70.8765 24.4121 71.747 24.6697C72.7414 24.9979 74.0083 24.8004 74.8011 24.216C77.1796 22.532 77.843 19.7364 78.4383 17.0103L79.8959 10.5225H86.7234L82.4773 30.1927C80.4925 30.254 78.5023 30.1273 76.4481 30.1927C76.6456 29.0838 76.9167 27.4612 77.1796 26.3576C76.4481 27.0102 75.8568 27.7267 75.0599 28.3072C74.0696 29.0838 72.8722 29.6055 71.6162 29.9311C70.1559 30.254 68.1684 30.254 66.7762 29.6682C65.2491 29.0838 64.1266 27.7267 63.5286 26.2282C62.7358 24.216 63.0627 22.8576 63.3978 20.7759C63.925 17.4039 64.6592 13.9626 65.3853 10.6506Z" fill="#98272A"/>
<path fill-rule="evenodd" clip-rule="evenodd" d="M57.5617 2.08646H64.3225L58.2292 30.2539H51.9983C52.264 29.2144 52.595 28.1803 52.8552 27.1328C51.6714 28.307 50.5462 29.2771 49.218 29.931V25.709C49.7506 25.5836 50.2737 25.3834 50.7451 25.1285C52.6576 23.8929 53.4614 21.6858 53.4614 19.4774L53.3851 18.3752C53.257 17.3411 52.7271 16.4257 51.5461 15.912C50.8677 15.5183 49.9441 15.5183 49.218 15.6518V10.6505C49.5504 10.6505 49.8719 10.7786 50.2737 10.7786C52.1318 11.2336 53.7869 12.4719 54.7814 14.3507L57.5617 2.08646ZM49.218 29.931C48.6908 30.1912 48.1568 30.3193 47.6187 30.4447C45.7756 30.8984 44.6545 31.0305 42.731 30.3193C40.5337 29.5373 39.3418 28.0468 38.4767 26.0346C36.5505 21.1041 38.7587 14.0932 43.5879 11.69C45.1762 10.908 47.2945 10.4597 49.218 10.6505V15.6518C48.6227 15.7172 48.0955 15.912 47.6187 16.1682C46.5684 16.8847 45.7756 17.9216 45.371 19.1519C44.9133 20.3822 44.6545 22.1382 45.0386 23.4339C45.1762 24.0851 45.4405 24.5468 45.8955 24.9297C46.8341 25.709 48.0179 25.9025 49.218 25.709" fill="#98272A"/>
<path fill-rule="evenodd" clip-rule="evenodd" d="M7.14339 2.08668H14.2311L8.33807 30.1914H1.18359" fill="#98272A"/>
<path fill-rule="evenodd" clip-rule="evenodd" d="M138.602 22.332L136.938 30.1929H129.917C130.511 27.5908 131.106 24.8006 131.642 22.1385C131.774 21.5608 131.913 20.9696 132.109 20.3932C132.109 19.8688 132.109 19.4151 132.168 18.9601C132.508 15.7802 130.04 15.1931 127.86 16.1685C126.602 16.7517 126.006 17.5936 125.347 18.7666C124.689 19.8061 124.485 20.8442 124.287 22.0745L122.492 30.1929H115.736L119.647 10.8444C121.76 10.779 123.896 10.779 126.006 10.6535C125.745 11.8838 125.474 13.0541 125.205 14.2871C127.791 11.2353 131.106 9.67944 134.948 10.779C138.796 11.8184 139.595 15.5894 139.065 19.2856C138.928 20.3251 138.796 21.2952 138.602 22.332Z" fill="#98272A"/>
<path fill-rule="evenodd" clip-rule="evenodd" d="M110.104 2.08668H117.262L111.369 30.1914H104.203" fill="#98272A"/>
<path fill-rule="evenodd" clip-rule="evenodd" d="M242.749 22.5319L241.096 30.4448H234.073C234.602 27.7867 235.267 24.9298 235.804 22.3318C235.921 21.6846 236.06 21.1042 236.198 20.4516C236.198 19.9966 236.254 19.5429 236.326 19.0812C236.597 15.9014 234.207 15.3263 231.949 16.2924C230.69 16.8195 230.1 17.7255 229.38 18.8958C228.775 19.9339 228.579 20.9107 228.314 22.2037L226.58 30.3848H219.691L223.675 10.9082C225.782 10.8428 227.977 10.7774 230.1 10.7133C229.832 11.945 229.562 13.1833 229.302 14.3509C231.824 11.2991 235.267 9.74057 239.047 10.7774C243.017 11.8836 243.746 15.7173 243.217 19.3521C243.145 20.4516 242.948 21.4244 242.749 22.5319Z" fill="#98272A"/>
<path fill-rule="evenodd" clip-rule="evenodd" d="M250.704 2.08651H257.658L254.078 18.8317L261.107 10.7787H268.921L260.714 19.6736L265.873 30.3193H258.45L253.886 19.9966L251.697 30.3193H244.875" fill="#98272A"/>
<path fill-rule="evenodd" clip-rule="evenodd" d="M218.441 19.9967C217.844 22.7882 217.249 25.5144 216.71 28.2432L216.451 30.4449H210.686L211.092 27.4612C210.097 28.4327 209.031 29.2773 207.908 29.8644V26.4885C207.968 26.4231 208.097 26.4231 208.227 26.3537C208.967 25.9681 209.499 25.7092 209.89 25.3155C210.821 24.3468 211.289 22.8589 211.673 21.6206H210.686C209.834 21.6206 208.83 21.5606 207.908 21.6206V18.3754C209.293 18.2473 210.886 18.3074 212.47 18.3074C212.47 16.6167 211.811 15.3264 210.022 14.9407C209.229 14.8073 208.506 14.8073 207.908 14.8073V10.7788C212.215 10.2651 216.787 10.9763 218.377 14.8073C219.166 16.7515 218.712 17.9845 218.441 19.9967ZM207.908 29.8644C206.846 30.3849 205.648 30.7131 204.526 30.8359C201.937 31.0934 199.225 29.9312 198.1 27.5907C197.299 26.291 197.507 24.8672 197.828 23.3767C198.168 21.9489 198.834 21.167 200.542 19.9967C202.999 18.8318 205.396 18.4381 207.908 18.3754V21.6206C206.911 21.686 205.918 21.9489 205.256 22.4053C203.933 23.3767 203.409 25.1941 204.855 26.291C205.718 26.8741 206.911 26.8194 207.908 26.4885V29.8644ZM207.908 14.8073C206.974 14.8073 206.175 14.87 205.125 15.1329C203.933 15.3891 203.071 15.7801 201.937 16.2938L202.733 11.7556C204.332 11.3699 206.039 10.9763 207.908 10.7788" fill="#98272A"/>
<path fill-rule="evenodd" clip-rule="evenodd" d="M184.45 4.35901H188.092C191.28 4.35901 196.18 4.81269 197.095 8.44755C197.298 9.03201 197.362 9.61113 197.362 10.1943V10.265C197.362 12.3987 196.311 14.2855 194.323 15.5892C192.927 16.2323 191.743 16.5592 190.351 16.9476C193.921 17.5307 196.249 19.9339 195.515 23.7649C194.446 29.0837 189.351 29.9231 184.45 30.254V25.5837C184.713 25.5837 184.985 25.5143 185.181 25.4462C189.284 24.799 190.208 20.126 186.309 19.2854C185.703 19.1519 185.117 19.0812 184.45 19.152V14.9954C185.245 14.9954 186.107 14.93 186.831 14.8072C189.023 14.2855 191.931 12.0811 189.544 9.61113C188.55 8.58099 186.171 8.70642 184.45 8.83452V4.35901ZM177.825 4.35901H184.45V8.83452H183.852L182.457 14.93C183.056 14.93 183.793 14.9954 184.45 14.9954V19.152C183.521 19.152 182.526 19.2854 181.6 19.3521L180.209 25.8372C181.395 25.7718 182.995 25.7718 184.45 25.5837V30.254C184.048 30.3194 183.598 30.3194 183.183 30.3848H172.455" fill="#98272A"/>
</g>
<defs>
<clipPath id="clip0_685_11105">
<rect width="269" height="30" fill="white" transform="translate(0 0.932129)"/>
</clipPath>
</defs>
</svg>
