<svg width="34" height="34" viewBox="0 0 34 34" fill="none" xmlns="http://www.w3.org/2000/svg">
<path d="M10.2071 0.0532227H24.1595C29.4747 0.0532227 33.7933 4.37184 33.7933 9.68705V23.6395C33.7933 26.1945 32.7784 28.645 30.9717 30.4516C29.165 32.2583 26.7146 33.2733 24.1595 33.2733H10.2071C4.89186 33.2733 0.573242 28.9547 0.573242 23.6395V9.68705C0.573242 7.132 1.58823 4.6816 3.39493 2.87491C5.20162 1.06821 7.65202 0.0532227 10.2071 0.0532227ZM9.87487 3.37523C8.28898 3.37523 6.76804 4.00523 5.64664 5.12662C4.52525 6.24802 3.89525 7.76896 3.89525 9.35485V23.9717C3.89525 27.2771 6.56947 29.9513 9.87487 29.9513H24.4917C26.0776 29.9513 27.5986 29.3213 28.7199 28.1999C29.8413 27.0785 30.4713 25.5576 30.4713 23.9717V9.35485C30.4713 6.04945 27.7971 3.37523 24.4917 3.37523H9.87487ZM25.9036 5.86674C26.4542 5.86674 26.9823 6.08549 27.3717 6.47486C27.7611 6.86424 27.9798 7.39234 27.9798 7.943C27.9798 8.49366 27.7611 9.02176 27.3717 9.41113C26.9823 9.80051 26.4542 10.0193 25.9036 10.0193C25.3529 10.0193 24.8248 9.80051 24.4354 9.41113C24.0461 9.02176 23.8273 8.49366 23.8273 7.943C23.8273 7.39234 24.0461 6.86424 24.4354 6.47486C24.8248 6.08549 25.3529 5.86674 25.9036 5.86674ZM17.1833 8.35825C19.3859 8.35825 21.4983 9.23324 23.0558 10.7907C24.6133 12.3482 25.4883 14.4606 25.4883 16.6633C25.4883 18.8659 24.6133 20.9783 23.0558 22.5358C21.4983 24.0933 19.3859 24.9683 17.1833 24.9683C14.9807 24.9683 12.8682 24.0933 11.3108 22.5358C9.75326 20.9783 8.87827 18.8659 8.87827 16.6633C8.87827 14.4606 9.75326 12.3482 11.3108 10.7907C12.8682 9.23324 14.9807 8.35825 17.1833 8.35825ZM17.1833 11.6803C15.8617 11.6803 14.5943 12.2053 13.6598 13.1398C12.7253 14.0742 12.2003 15.3417 12.2003 16.6633C12.2003 17.9849 12.7253 19.2523 13.6598 20.1868C14.5943 21.1213 15.8617 21.6463 17.1833 21.6463C18.5049 21.6463 19.7723 21.1213 20.7068 20.1868C21.6413 19.2523 22.1663 17.9849 22.1663 16.6633C22.1663 15.3417 21.6413 14.0742 20.7068 13.1398C19.7723 12.2053 18.5049 11.6803 17.1833 11.6803Z" fill="#1D2F71"/>
</svg>
