<svg width="237" height="178" viewBox="0 0 237 178" fill="none" xmlns="http://www.w3.org/2000/svg">
<g opacity="0.25">
<path d="M60.8301 11.7581C60.8301 11.7581 62.3951 6.53332 66.3669 6.53332C70.338 6.53332 72.7879 9.28892 76.7391 9.14665C80.6897 9.00312 85.3822 3.81702 90.0741 4.55772C94.7666 5.29903 99.9521 8.09395 99.2114 11.7587C98.4688 15.4229 70.3574 21.7996 60.8301 11.7581Z" fill="#081228"/>
<path d="M145.805 102.843C142.089 63.8256 106.565 50.9842 98.2919 43.0812C91.7218 36.8056 93.9626 29.2888 95.1638 26.4584C98.5272 20.4548 106.371 19.1269 106.617 13.9402C106.864 8.75472 97.4801 6.77911 93.776 11.2245C90.0713 15.6693 85.6265 9.98962 83.6509 5.29773C81.6753 0.605214 76.9828 5.54422 75.5014 9.98963C74.02 14.435 71.0566 16.4106 68.5874 13.9402C66.1182 11.471 64.6356 10.4838 58.2152 12.4594C51.7948 14.435 53.2762 21.1025 56.4867 21.4769C59.6966 21.8513 64.142 22.3374 66.3179 28.2786C67.3725 31.8092 67.9878 37.8739 62.5371 43.0806C54.264 50.983 18.74 63.8244 15.0235 102.842C11.6626 138.123 36.4081 154.36 74.1985 156.337C74.1985 156.387 74.1985 156.442 74.1985 156.493C76.3026 156.544 78.3743 156.558 80.4136 156.535C82.4528 156.558 84.5257 156.544 86.6286 156.493C86.6286 156.442 86.6286 156.387 86.6286 156.337C124.42 154.361 149.166 138.124 145.805 102.843Z" fill="#081228"/>
<path fill-rule="evenodd" clip-rule="evenodd" d="M105.211 78.72V72.1811H74.725H67.66H63.6002V72.7146V78.72H68.8606H72.4599H73.5244C78.1776 78.72 82.1457 81.7845 83.5253 85.9916H63.5996V92.5311H84.0482V93.6088C84.0482 99.3971 79.3121 104.134 73.5244 104.134H72.4599H68.8606H67.0316L67.0173 104.12L67.0042 104.134H63.6002V107.537V109.95V110.141C63.6814 110.161 63.7656 110.177 63.8467 110.197L81.2496 127.601L87.2026 133.553H96.431L96.441 133.543L73.5718 110.674H74.7262C83.4929 110.674 90.6664 103.5 90.6664 94.7332V92.5318H105.213V85.9922H90.5167C90.1535 83.3009 89.1145 80.8179 87.5733 78.7207H90.2665L105.211 78.72Z" fill="#081228"/>
<path opacity="0.3" d="M145.804 102.843C145.379 98.3899 144.538 94.2814 143.373 90.4794L143.372 90.4775C143.372 90.4775 137.237 76.2402 117.605 79.9718C97.9726 83.7033 80.3557 114.173 60.8274 117.089C41.3079 120.003 23.4758 110.617 18.123 127.231C25.9144 145.805 46.5583 154.891 74.1974 156.337C74.1974 156.387 74.1974 156.442 74.1974 156.493C76.3015 156.544 78.3732 156.558 80.4125 156.535C82.4517 156.558 84.5247 156.544 86.6275 156.493C86.6275 156.442 86.6275 156.387 86.6275 156.337C124.419 154.361 149.165 138.124 145.804 102.843Z" fill="#081228"/>
<path opacity="0.3" d="M94.1221 29.8299C94.4054 28.4227 94.8254 27.2552 95.1636 26.459C98.527 20.4554 106.371 19.1276 106.617 13.9408C106.658 13.0772 106.427 12.3053 106.004 11.6351C106.004 11.6351 104.783 15.9164 99.2795 17.1513C93.7746 18.3869 88.6215 20.8567 86.6303 25.0544C84.6385 29.252 79.9485 26.7829 79.2059 25.0544C78.4646 23.3252 72.9178 20.6096 71.7397 22.8317C70.5622 25.0544 64.4751 22.0903 60.9744 20.8561C57.4737 19.6212 55.1543 20.8997 55.1543 20.8997C55.5437 21.213 55.9942 21.4201 56.4859 21.4776C59.6958 21.852 64.1412 22.3381 66.3171 28.2792C66.465 28.7734 66.6004 29.3226 66.7159 29.9066L78.1189 32.8407L94.1221 29.8299Z" fill="#081228"/>
<path d="M93.9919 36.7139C93.9307 36.7139 93.8702 36.7095 93.8078 36.7014C78.257 34.7844 66.2923 30.9424 66.1738 30.905C65.3956 30.6529 64.9688 29.8167 65.2209 29.0386C65.473 28.2605 66.3067 27.8349 67.0867 28.0851C67.2034 28.1244 78.9153 31.8797 94.171 33.7617C94.9822 33.8615 95.5594 34.601 95.4595 35.4128C95.3678 36.1635 94.7288 36.7139 93.9919 36.7139Z" fill="#081228"/>
<path d="M66.6298 37.7142C65.9022 37.7142 65.2676 37.1781 65.1646 36.4362C65.0523 35.625 65.6176 34.8768 66.4282 34.7645C83.3806 32.4101 93.437 29.2096 93.5369 29.1765C94.3175 28.9257 95.1512 29.3544 95.4014 30.1325C95.6516 30.9119 95.2248 31.7462 94.4454 31.997C94.0304 32.1312 84.0707 35.3055 66.8357 37.6992C66.7671 37.7098 66.6978 37.7142 66.6298 37.7142Z" fill="#081228"/>
<path d="M36.4827 105.559C35.6865 105.559 35.0288 104.927 35.0026 104.126C34.4853 88.3303 50.3419 68.394 59.8155 56.4817C69.0289 44.8977 76.3211 30.0844 76.3935 29.9359C76.7535 29.2015 77.6415 28.8976 78.3753 29.2564C79.1104 29.6164 79.4155 30.5038 79.0555 31.2382C78.9812 31.3899 71.553 46.4839 62.1343 58.3269C53.5193 69.159 37.4824 89.3225 37.9647 104.028C37.9916 104.846 37.3501 105.531 36.532 105.558C36.5158 105.559 36.499 105.559 36.4827 105.559Z" fill="#081228"/>
<path opacity="0.3" d="M66.9731 31.7187C66.9731 31.7187 69.6632 32.9979 74.6384 33.9445C79.6142 34.8918 88.1587 33.9445 88.1587 33.9445C88.1587 33.9445 93.157 33.5901 93.8066 33.0416C93.8266 32.1886 93.9033 31.2382 93.9033 31.2382C93.9033 31.2382 84.3985 33.7436 82.713 33.2107C81.0276 32.6778 66.4883 29.9933 66.4883 29.9933L66.9731 31.7187Z" fill="#081228"/>
<path opacity="0.3" d="M65.8281 38.5478C65.8281 38.5478 66.4771 39.2311 73.5209 37.7141C80.5646 36.1978 82.7131 36.1666 82.7131 36.1666C82.7131 36.1666 92.3546 37.6573 94.6559 37.7141C94.6559 37.7141 94.1829 36.5366 94.2709 35.9195C94.3583 35.3024 81.6785 34.3489 81.6785 34.3489L66.429 36.9691L65.8281 38.5478Z" fill="#081228"/>
<path opacity="0.3" d="M77.3377 36.5254C77.3377 36.5254 73.4551 47.3132 62.228 60.1821C51.0003 73.0522 40.9289 89.4454 39.8175 96.6689C38.7062 103.892 39.6328 105.188 37.2248 106.485C34.8174 107.782 34.8411 102.184 35.2273 99.9106C35.6136 97.6355 43.8923 78.3331 54.4498 65.3688C65.0067 52.4045 72.9384 39.8482 76.4741 34.3651C78.4858 32.2859 77.3377 36.5254 77.3377 36.5254Z" fill="#081228"/>
<path d="M79.0548 31.2383L79.7662 31.3294C79.7662 31.3294 77.5372 35.2687 77.0748 36.0568C76.4727 36.1667 76.4727 36.1667 76.4727 36.1667C76.4727 36.1667 78.3484 32.4838 79.0548 31.2383Z" fill="#081228"/>
<path d="M77.8483 33.9446L82.7118 34.9474L81.6011 35.1795L77.3379 34.5617L77.8483 33.9446Z" fill="#081228"/>
<path d="M72.733 36.8087L73.5199 35.391L71.7402 36.9697L72.733 36.8087Z" fill="#081228"/>
<path d="M82.7129 31.909L90.1423 33.2107L90.5498 33.1046L83.589 31.7187L82.7129 31.909Z" fill="#081228"/>
</g>
<path d="M60.8301 9.26207C60.8301 9.26207 62.3951 4.03728 66.3669 4.03728C70.338 4.03728 72.7879 6.79289 76.7391 6.65061C80.6897 6.50709 85.3822 1.32099 90.0741 2.06168C94.7666 2.803 99.9521 5.59792 99.2114 9.2627C98.4688 12.9269 70.3574 19.3036 60.8301 9.26207Z" fill="#6D0900"/>
<path d="M145.805 100.347C142.089 61.3297 106.565 48.4883 98.2919 40.5852C91.7218 34.3096 93.9626 26.7929 95.1638 23.9624C98.5272 17.9588 106.371 16.631 106.617 11.4442C106.864 6.25875 97.4801 4.28315 93.776 8.72856C90.0713 13.1733 85.6265 7.49365 83.6509 2.80176C81.6753 -1.89076 76.9828 3.04824 75.5014 7.49365C74.02 11.9391 71.0566 13.9147 68.5874 11.4442C66.1182 8.97504 64.6356 7.98786 58.2152 9.96346C51.7948 11.9391 53.2762 18.6066 56.4867 18.981C59.6966 19.3554 64.142 19.8415 66.3179 25.7826C67.3725 29.3132 67.9878 35.3779 62.5371 40.5846C54.264 48.487 18.74 61.3284 15.0235 100.346C11.6626 135.627 36.4081 151.864 74.1985 153.841C74.1985 153.891 74.1985 153.946 74.1985 153.997C76.3026 154.048 78.3743 154.062 80.4136 154.039C82.4528 154.062 84.5257 154.048 86.6286 153.997C86.6286 153.946 86.6286 153.891 86.6286 153.841C124.42 151.865 149.166 135.628 145.805 100.347Z" fill="#DEA842"/>
<path fill-rule="evenodd" clip-rule="evenodd" d="M105.211 76.224V69.6851H74.725H67.66H63.6002V70.2186V76.224H68.8606H72.4599H73.5244C78.1776 76.224 82.1457 79.2885 83.5253 83.4955H63.5996V90.0351H84.0482V91.1128C84.0482 96.901 79.3121 101.638 73.5244 101.638H72.4599H68.8606H67.0316L67.0173 101.624L67.0042 101.638H63.6002V105.041V107.454V107.645C63.6814 107.664 63.7656 107.681 63.8467 107.701L81.2496 125.105L87.2026 131.057H96.431L96.441 131.047L73.5718 108.178H74.7262C83.4929 108.178 90.6664 101.004 90.6664 92.2372V90.0357H105.213V83.4962H90.5167C90.1535 80.8048 89.1145 78.3219 87.5733 76.2246H90.2665L105.211 76.224Z" fill="#111111"/>
<path opacity="0.3" d="M145.804 100.347C145.379 95.8939 144.538 91.7855 143.373 87.9834L143.372 87.9815C143.372 87.9815 137.237 73.7442 117.605 77.4758C97.9726 81.2073 80.3557 111.677 60.8274 114.593C41.3079 117.507 23.4758 108.121 18.123 124.735C25.9144 143.309 46.5583 152.395 74.1974 153.841C74.1974 153.891 74.1974 153.946 74.1974 153.997C76.3015 154.048 78.3732 154.062 80.4125 154.039C82.4517 154.062 84.5247 154.048 86.6275 153.997C86.6275 153.946 86.6275 153.891 86.6275 153.841C124.419 151.865 149.165 135.628 145.804 100.347Z" fill="#6D0900"/>
<path opacity="0.3" d="M94.1221 27.3339C94.4054 25.9268 94.8254 24.7592 95.1636 23.963C98.527 17.9595 106.371 16.6316 106.617 11.4449C106.658 10.5812 106.427 9.80934 106.004 9.13916C106.004 9.13916 104.783 13.4205 99.2795 14.6554C93.7746 15.8909 88.6215 18.3607 86.6303 22.5584C84.6385 26.7561 79.9485 24.2869 79.2059 22.5584C78.4646 20.8293 72.9178 18.1136 71.7397 20.3357C70.5622 22.5584 64.4751 19.5944 60.9744 18.3601C57.4737 17.1252 55.1543 18.4038 55.1543 18.4038C55.5437 18.717 55.9942 18.9242 56.4859 18.9816C59.6958 19.356 64.1412 19.8421 66.3171 25.7832C66.465 26.2775 66.6004 26.8266 66.7159 27.4107L78.1189 30.3447L94.1221 27.3339Z" fill="#6D0900"/>
<path d="M93.9938 34.2179C93.9327 34.2179 93.8722 34.2135 93.8098 34.2054C78.2589 32.2885 66.2943 28.4465 66.1757 28.409C65.3976 28.1569 64.9708 27.3208 65.2228 26.5426C65.4749 25.7645 66.3086 25.3389 67.0886 25.5891C67.2053 25.6285 78.9173 29.3837 94.1729 31.2657C94.9841 31.3656 95.5613 32.105 95.4615 32.9168C95.3698 33.6675 94.7308 34.2179 93.9938 34.2179Z" fill="#6D0900"/>
<path d="M66.6298 35.2182C65.9022 35.2182 65.2676 34.6822 65.1646 33.9402C65.0523 33.129 65.6176 32.3809 66.4282 32.2685C83.3806 29.9142 93.437 26.7136 93.5369 26.6806C94.3175 26.4297 95.1512 26.8584 95.4014 27.6365C95.6516 28.4159 95.2248 29.2502 94.4454 29.5011C94.0304 29.6352 84.0707 32.8095 66.8357 35.2032C66.7671 35.2138 66.6978 35.2182 66.6298 35.2182Z" fill="#6D0900"/>
<path d="M36.4847 103.063C35.6885 103.063 35.0307 102.431 35.0045 101.63C34.4872 85.8343 50.3438 65.898 59.8175 53.9857C69.0309 42.4017 76.323 27.5885 76.3954 27.44C76.7555 26.7055 77.6434 26.4016 78.3772 26.7604C79.1123 27.1205 79.4175 28.0078 79.0574 28.7423C78.9832 28.8939 71.555 43.9879 62.1363 55.8309C53.5213 66.663 37.4843 86.8265 37.9667 101.532C37.9935 102.35 37.352 103.035 36.534 103.062C36.5178 103.063 36.5009 103.063 36.4847 103.063Z" fill="#6D0900"/>
<path opacity="0.3" d="M66.9751 29.2227C66.9751 29.2227 69.6652 30.502 74.6404 31.4486C79.6162 32.3958 88.1607 31.4486 88.1607 31.4486C88.1607 31.4486 93.1589 31.0941 93.8085 30.5456C93.8285 29.6926 93.9053 28.7423 93.9053 28.7423C93.9053 28.7423 84.4004 31.2476 82.715 30.7147C81.0296 30.1818 66.4902 27.4974 66.4902 27.4974L66.9751 29.2227Z" fill="#6D0900"/>
<path opacity="0.3" d="M65.8281 36.0518C65.8281 36.0518 66.4771 36.7351 73.5209 35.2182C80.5646 33.7018 82.7131 33.6706 82.7131 33.6706C82.7131 33.6706 92.3546 35.1614 94.6559 35.2182C94.6559 35.2182 94.1829 34.0407 94.2709 33.4235C94.3583 32.8064 81.6785 31.8529 81.6785 31.8529L66.429 34.4731L65.8281 36.0518Z" fill="#6D0900"/>
<path opacity="0.3" d="M77.3396 34.0295C77.3396 34.0295 73.4571 44.8172 62.23 57.6861C51.0023 70.5562 40.9308 86.9494 39.8195 94.1729C38.7081 101.396 39.6348 102.692 37.2267 103.989C34.8193 105.286 34.843 99.6885 35.2293 97.4146C35.6155 95.1395 43.8942 75.8372 54.4518 62.8728C65.0087 49.9085 72.9404 37.3523 76.476 31.8691C78.4878 29.79 77.3396 34.0295 77.3396 34.0295Z" fill="#6D0900"/>
<path d="M79.0567 28.7422L79.7681 28.8334C79.7681 28.8334 77.5392 32.7727 77.0768 33.5608C76.4746 33.6706 76.4746 33.6706 76.4746 33.6706C76.4746 33.6706 78.3504 29.9878 79.0567 28.7422Z" fill="#4F0703"/>
<path d="M77.8503 31.4485L82.7138 32.4513L81.603 32.6835L77.3398 32.0657L77.8503 31.4485Z" fill="#4F0703"/>
<path d="M72.735 34.3127L73.5219 32.895L71.7422 34.4737L72.735 34.3127Z" fill="#4F0703"/>
<path d="M82.7148 29.413L90.1442 30.7147L90.5517 30.6086L83.5909 29.2227L82.7148 29.413Z" fill="#4F0703"/>
<g opacity="0.25">
<path d="M236.999 76.5379C220.571 86.741 198.835 99.6124 153.365 115.457C142.662 119.186 133.531 122 133.531 122C133.531 122 149.654 170.295 150.768 173.514C151.702 173.73 192.449 166.726 236.999 145.074V76.5379Z" fill="#081228"/>
<path d="M156.634 162.328C160.776 160.811 162.299 167.397 158.806 168.229C155.013 169.131 152.537 163.829 156.634 162.328Z" fill="#081228"/>
<path d="M167.08 159.619C171.221 158.103 172.745 164.689 169.253 165.52C165.459 166.421 162.982 161.121 167.08 159.619Z" fill="#081228"/>
<path d="M137.082 142.044C137.082 142.044 128.431 136.94 114.989 139.093C101.546 141.247 93.5336 143.769 82.0644 142.044C72.471 140.601 61.9172 138.601 56.1021 142.616C50.287 146.632 52.0105 148.602 52.0105 148.602C52.0105 148.602 43.826 145.271 41.2414 143.583C38.6568 141.894 33.4881 135.43 24.6578 132.954C15.8276 130.478 8.0693 130.577 10.0075 135.745C6.77698 134.668 5.27376 133.71 1.828 133.925C-1.61775 134.14 -1.18656 141.742 11.9512 148.602C25.0884 155.463 31.55 159.985 36.7186 163.216C41.8879 166.447 55.4562 176.139 63.6407 177.216C71.8251 178.293 103.7 176.842 119.638 171.968C135.575 167.093 143.725 163.227 143.725 163.227L137.514 142.971" fill="#081228"/>
<path d="M10.0068 135.745C10.0068 135.745 12.8111 138.017 17.9803 141.032C23.1496 144.048 31.764 149.432 34.1333 151.586C36.5026 153.739 44.6865 155.677 50.9321 159.77C57.1778 163.862 63.2082 165.8 63.2082 165.8C63.2082 165.8 58.2542 165.8 53.5161 163.431C48.7781 161.061 44.6865 158.161 39.7325 156.273C34.7785 154.385 27.887 148.785 24.6559 146.847C21.4254 144.908 10.9116 138.067 7.98438 135.026C10.0068 135.745 10.0068 135.745 10.0068 135.745Z" fill="#081228"/>
<path d="M56.1035 142.616C56.1035 142.616 62.3492 140.971 68.3796 142.616C64.9057 140.269 60.9059 140.703 60.9059 140.703C60.9059 140.703 59.1961 141.126 58.6451 141.326C57.4901 141.745 56.1035 142.616 56.1035 142.616Z" fill="#081228"/>
<path d="M51.9933 146.796C51.9933 146.796 53.6275 150.615 63.8575 153.954H60.4111C62.134 154.816 66.9482 157.724 71.8641 158.262C76.78 158.8 82.1639 158.908 84.5332 159.77C86.9026 160.631 93.4709 161.923 96.0555 161.385C95.3023 162.462 88.3022 161.385 83.9954 160.847C79.6879 160.308 71.2881 160.416 64.2887 157.508C57.2892 154.6 52.0126 148.602 52.0126 148.602C52.0126 148.602 51.4261 147.782 51.9933 146.796Z" fill="#081228"/>
<path d="M106.392 165.046C106.392 165.046 105.908 169.731 98.8008 170.539C102.031 172.315 109.3 170.861 106.392 165.046Z" fill="#081228"/>
<path opacity="0.5" d="M119.638 171.967C135.575 167.092 143.725 163.227 143.725 163.227L140.43 152.479C137.152 152.61 126.737 153.259 121.738 156.273C115.761 159.877 107.647 167.701 100.801 170.17C93.9542 172.638 65.7685 167.759 55.4787 163.296C55.4787 163.296 46.7507 159.299 42.7041 157.559C38.658 155.819 29.7129 150.083 26.357 147.953C23.0011 145.822 10.5198 136.141 10.5198 136.141C10.5198 136.141 10.2277 135.953 9.7354 135.652C6.69275 134.614 5.17392 133.715 1.828 133.925C-1.61775 134.14 -1.18656 141.741 11.9512 148.602C25.0884 155.462 31.55 159.985 36.7186 163.215C41.8879 166.446 55.4562 176.138 63.6407 177.215C71.8251 178.291 103.7 176.841 119.638 171.967Z" fill="#081228"/>
<path d="M134.813 125.846L124.229 128.746L137.426 172.484L149.682 170.277L134.813 125.846Z" fill="#081228"/>
<path d="M140.965 161.971C145.105 160.455 146.629 167.04 143.137 167.871C139.343 168.773 136.867 163.472 140.965 161.971Z" fill="#081228"/>
<path d="M236.998 107.218C236.998 107.218 190.646 153.762 145.611 158.112C149.682 170.277 150.767 173.515 150.767 173.515C150.767 173.515 196.706 166.454 236.998 145.074C236.998 123.694 236.998 107.218 236.998 107.218Z" fill="#081228"/>
<path opacity="0.2" d="M134.815 125.846L133.531 126.198C133.531 126.198 140.435 160.779 136.067 167.974C137.207 171.751 137.428 172.484 137.428 172.484L149.684 170.305L134.815 125.846Z" fill="#081228"/>
</g>
<path d="M236.999 73.5209C220.571 83.724 198.835 96.5959 153.365 112.44C142.662 116.168 133.531 118.983 133.531 118.983C133.531 118.983 149.654 167.278 150.768 170.497C151.702 170.713 192.449 163.709 236.999 142.057V73.5209Z" fill="#111111"/>
<path d="M156.634 159.311C160.776 157.794 162.299 164.38 158.806 165.212C155.013 166.114 152.537 160.812 156.634 159.311Z" fill="white"/>
<path d="M167.076 156.602C171.218 155.086 172.741 161.672 169.249 162.503C165.455 163.404 162.978 158.103 167.076 156.602Z" fill="white"/>
<path d="M137.082 139.027C137.082 139.027 128.431 133.923 114.989 136.077C101.546 138.23 93.5336 140.752 82.0644 139.027C72.471 137.584 61.9172 135.584 56.1021 139.599C50.287 143.615 52.0105 145.585 52.0105 145.585C52.0105 145.585 43.826 142.254 41.2414 140.566C38.6568 138.877 33.4881 132.413 24.6578 129.937C15.8276 127.461 8.0693 127.559 10.0075 132.728C6.77698 131.651 5.27376 130.693 1.828 130.908C-1.61775 131.123 -1.18656 138.725 11.9512 145.585C25.0884 152.446 31.55 156.968 36.7186 160.199C41.8879 163.43 55.4562 173.122 63.6407 174.198C71.8251 175.275 103.7 173.824 119.638 168.95C135.575 164.076 143.725 160.209 143.725 160.209L137.514 139.954" fill="#E5A18F"/>
<path d="M10.0068 132.728C10.0068 132.728 12.8111 135 17.9803 138.015C23.1496 141.031 31.764 146.415 34.1333 148.569C36.5026 150.722 44.6865 152.66 50.9321 156.753C57.1778 160.845 63.2082 162.783 63.2082 162.783C63.2082 162.783 58.2542 162.783 53.5161 160.414C48.7781 158.044 44.6865 155.144 39.7325 153.256C34.7785 151.368 27.887 145.768 24.6559 143.83C21.4254 141.892 10.9116 135.05 7.98438 132.009C10.0068 132.728 10.0068 132.728 10.0068 132.728Z" fill="#AF5E58"/>
<path d="M56.1035 139.599C56.1035 139.599 62.3492 137.954 68.3796 139.599C64.9057 137.252 60.9059 137.686 60.9059 137.686C60.9059 137.686 59.1961 138.109 58.6451 138.309C57.4901 138.728 56.1035 139.599 56.1035 139.599Z" fill="#AF5E58"/>
<path d="M51.9933 143.779C51.9933 143.779 53.6275 147.598 63.8575 150.937H60.4111C62.134 151.799 66.9482 154.707 71.8641 155.245C76.78 155.783 82.1639 155.891 84.5332 156.752C86.9026 157.614 93.4709 158.906 96.0555 158.367C95.3023 159.445 88.3022 158.368 83.9954 157.83C79.6879 157.291 71.2881 157.399 64.2887 154.491C57.2892 151.583 52.0126 145.585 52.0126 145.585C52.0126 145.585 51.4261 144.765 51.9933 143.779Z" fill="#AF5E58"/>
<path d="M106.392 162.029C106.392 162.029 105.908 166.713 98.8008 167.522C102.031 169.297 109.3 167.844 106.392 162.029Z" fill="#CC8A83"/>
<path opacity="0.5" d="M119.638 168.95C135.575 164.076 143.725 160.209 143.725 160.209L140.43 149.462C137.152 149.593 126.737 150.242 121.738 153.256C115.761 156.86 107.647 164.684 100.801 167.153C93.9542 169.621 65.7685 164.742 55.4787 160.279C55.4787 160.279 46.7507 156.282 42.7041 154.542C38.658 152.802 29.7129 147.067 26.357 144.936C23.0011 142.806 10.5198 133.125 10.5198 133.125C10.5198 133.125 10.2277 132.936 9.7354 132.636C6.69275 131.598 5.17392 130.699 1.828 130.908C-1.61775 131.123 -1.18656 138.725 11.9512 145.585C25.0884 152.446 31.55 156.968 36.7186 160.199C41.8879 163.43 55.4562 173.122 63.6407 174.198C71.8251 175.274 103.7 173.824 119.638 168.95Z" fill="#AF5E58"/>
<path d="M134.817 122.829L124.232 125.729L137.429 169.467L149.686 167.259L134.817 122.829Z" fill="white"/>
<path d="M140.965 158.954C145.105 157.438 146.629 164.023 143.137 164.854C139.343 165.756 136.867 160.455 140.965 158.954Z" fill="#111111"/>
<path d="M236.998 104.201C236.998 104.201 190.646 150.745 145.611 155.095C149.682 167.259 150.767 170.497 150.767 170.497C150.767 170.497 196.706 163.437 236.998 142.057C236.998 120.677 236.998 104.201 236.998 104.201Z" fill="black"/>
<path opacity="0.2" d="M134.815 122.829L133.531 123.18C133.531 123.18 140.435 157.761 136.067 164.956C137.207 168.733 137.428 169.467 137.428 169.467L149.684 167.288L134.815 122.829Z" fill="#111111"/>
<g opacity="0.25">
<path fill-rule="evenodd" clip-rule="evenodd" d="M49.5968 39.6754C49.4707 39.9949 49.2586 39.998 49.1244 39.6816L47.1732 35.0889C47.039 34.7732 46.6696 34.4069 46.3526 34.2759L41.8704 32.4201C41.5534 32.289 41.5478 32.0613 41.8579 31.914L46.3052 29.808C46.6153 29.6607 46.9866 29.2857 47.1301 28.9737L49.1076 24.6731C49.2511 24.3611 49.4757 24.3654 49.6074 24.6824L51.4863 29.2177C51.6173 29.5347 51.9842 29.9022 52.3012 30.0345L56.8677 31.9402C57.1847 32.0725 57.1816 32.2815 56.8615 32.4057L52.2488 34.1898C51.9287 34.3139 51.5643 34.6765 51.4382 34.9953L49.5968 39.6754Z" fill="#081228"/>
<path fill-rule="evenodd" clip-rule="evenodd" d="M43.4058 48.5425C43.3247 48.749 43.1874 48.7509 43.1007 48.5468L41.8402 45.5797C41.7534 45.3756 41.5151 45.1391 41.3098 45.0543L38.4138 43.8556C38.2091 43.7707 38.2054 43.6234 38.4057 43.5286L41.2792 42.1676C41.4795 42.0728 41.7191 41.83 41.8121 41.6285L43.0901 38.8498C43.1824 38.6482 43.3278 38.6514 43.4127 38.856L44.6264 41.7864C44.7112 41.9917 44.9483 42.2288 45.153 42.3143L48.1033 43.5461C48.308 43.6315 48.3061 43.767 48.0996 43.8468L45.1193 44.9994C44.9128 45.0792 44.6775 45.3139 44.5958 45.5198L43.4058 48.5425Z" fill="#081228"/>
</g>
<path fill-rule="evenodd" clip-rule="evenodd" d="M49.5968 37.1794C49.4707 37.4989 49.2586 37.502 49.1244 37.1856L47.1732 32.593C47.039 32.2772 46.6696 31.9109 46.3526 31.7799L41.8704 29.9241C41.5534 29.7931 41.5478 29.5653 41.8579 29.418L46.3052 27.312C46.6153 27.1648 46.9866 26.7897 47.1301 26.4777L49.1076 22.1771C49.2511 21.8651 49.4757 21.8694 49.6074 22.1864L51.4863 26.7217C51.6173 27.0387 51.9842 27.4063 52.3012 27.5385L56.8677 29.4443C57.1847 29.5765 57.1816 29.7856 56.8615 29.9097L52.2488 31.6938C51.9287 31.818 51.5643 32.1805 51.4382 32.4994L49.5968 37.1794Z" fill="white"/>
<path fill-rule="evenodd" clip-rule="evenodd" d="M43.4078 46.0465C43.3266 46.253 43.1894 46.2549 43.1026 46.0509L41.8421 43.0837C41.7554 42.8797 41.517 42.6432 41.3117 42.5583L38.4157 41.3596C38.211 41.2747 38.2073 41.1275 38.4076 41.0326L41.2812 39.6717C41.4815 39.5768 41.7211 39.3341 41.8141 39.1325L43.092 36.3538C43.1844 36.1523 43.3298 36.1554 43.4146 36.3601L44.6283 39.2904C44.7132 39.4957 44.9503 39.7328 45.155 39.8183L48.1053 41.0501C48.3099 41.1356 48.3081 41.271 48.1015 41.3509L45.1213 42.5034C44.9147 42.5833 44.6795 42.8179 44.5977 43.0238L43.4078 46.0465Z" fill="white"/>
</svg>
