<svg width="213" height="213" viewBox="0 0 213 213" fill="none" xmlns="http://www.w3.org/2000/svg">
<path d="M39.2573 87.3402H33.9181V81.5804H28.1582V76.2411H33.9181V70.4808H39.2573V76.2411H45.0176V81.5804H39.2573V87.3402ZM34.6777 86.5806H38.4972V80.8207H44.2575V77.0012H38.4972V71.2409H34.6777V77.0012H28.9179V80.8207H34.6777V86.5806Z" fill="#EBEBEB"/>
<path d="M180.132 54.5456H176.509V50.6378H172.602V47.0152H176.509V43.1069H180.132V47.0152H184.04V50.6378H180.132V54.5456ZM177.025 54.0304H179.616V50.1226H183.525V47.5312H179.616V43.623H177.025V47.5312H173.117V50.1226H177.025V54.0304Z" fill="#EBEBEB"/>
<path d="M173.434 27.2322V32.5731H167.673V38.3347H162.336V32.5731H156.574V27.2322H162.336V21.4749H167.673V27.2322H173.434Z" fill="#EBEBEB"/>
<path d="M159.461 171.661H189.43V126.704H159.461V171.661Z" fill="#EBEBEB"/>
<path d="M155.84 126.704H193.049V114.633H155.84V126.704Z" fill="#DBDBDB"/>
<path d="M190.804 124.834H191.388C191.518 124.834 191.623 124.729 191.623 124.599V116.515C191.623 116.385 191.518 116.28 191.388 116.28H190.804C190.674 116.28 190.568 116.386 190.568 116.515V124.599C190.568 124.729 190.674 124.834 190.804 124.834Z" fill="#C7C7C7"/>
<path d="M188.843 124.834H189.427C189.557 124.834 189.662 124.729 189.662 124.599V116.515C189.662 116.385 189.557 116.28 189.427 116.28H188.843C188.713 116.28 188.607 116.386 188.607 116.515V124.599C188.607 124.729 188.713 124.834 188.843 124.834Z" fill="#C7C7C7"/>
<path d="M186.886 124.834H187.47C187.6 124.834 187.705 124.729 187.705 124.599V116.515C187.705 116.385 187.6 116.28 187.47 116.28H186.886C186.756 116.28 186.65 116.386 186.65 116.515V124.599C186.65 124.729 186.756 124.834 186.886 124.834Z" fill="#C7C7C7"/>
<path d="M184.927 124.834H185.511C185.641 124.834 185.746 124.729 185.746 124.599V116.515C185.746 116.385 185.641 116.28 185.511 116.28H184.927C184.797 116.28 184.691 116.386 184.691 116.515V124.599C184.691 124.729 184.797 124.834 184.927 124.834Z" fill="#C7C7C7"/>
<path d="M182.968 124.834H183.552C183.682 124.834 183.787 124.729 183.787 124.599V116.515C183.787 116.385 183.682 116.28 183.552 116.28H182.968C182.838 116.28 182.732 116.386 182.732 116.515V124.599C182.732 124.729 182.838 124.834 182.968 124.834Z" fill="#C7C7C7"/>
<path d="M181.007 124.834H181.591C181.721 124.834 181.827 124.729 181.827 124.599V116.515C181.827 116.385 181.721 116.28 181.591 116.28H181.007C180.877 116.28 180.771 116.386 180.771 116.515V124.599C180.771 124.729 180.877 124.834 181.007 124.834Z" fill="#C7C7C7"/>
<path d="M179.05 124.834H179.634C179.764 124.834 179.869 124.729 179.869 124.599V116.515C179.869 116.385 179.764 116.28 179.634 116.28H179.05C178.92 116.28 178.814 116.386 178.814 116.515V124.599C178.814 124.729 178.92 124.834 179.05 124.834Z" fill="#C7C7C7"/>
<path d="M177.089 124.834H177.673C177.803 124.834 177.909 124.729 177.909 124.599V116.515C177.909 116.385 177.803 116.28 177.673 116.28H177.089C176.959 116.28 176.854 116.386 176.854 116.515V124.599C176.854 124.729 176.959 124.834 177.089 124.834Z" fill="#C7C7C7"/>
<path d="M175.13 124.834H175.714C175.844 124.834 175.95 124.729 175.95 124.599V116.515C175.95 116.385 175.844 116.28 175.714 116.28H175.13C175 116.28 174.895 116.386 174.895 116.515V124.599C174.895 124.729 175 124.834 175.13 124.834Z" fill="#C7C7C7"/>
<path d="M173.173 124.834H173.757C173.887 124.834 173.993 124.729 173.993 124.599V116.515C173.993 116.385 173.887 116.28 173.757 116.28H173.173C173.043 116.28 172.938 116.386 172.938 116.515V124.599C172.938 124.729 173.043 124.834 173.173 124.834Z" fill="#C7C7C7"/>
<path d="M171.214 124.834H171.798C171.928 124.834 172.034 124.729 172.034 124.599V116.515C172.034 116.385 171.928 116.28 171.798 116.28H171.214C171.084 116.28 170.979 116.386 170.979 116.515V124.599C170.978 124.729 171.084 124.834 171.214 124.834Z" fill="#C7C7C7"/>
<path d="M169.253 124.834H169.837C169.967 124.834 170.073 124.729 170.073 124.599V116.515C170.073 116.385 169.967 116.28 169.837 116.28H169.253C169.123 116.28 169.018 116.386 169.018 116.515V124.599C169.018 124.729 169.123 124.834 169.253 124.834Z" fill="#C7C7C7"/>
<path d="M167.294 124.834H167.878C168.008 124.834 168.114 124.729 168.114 124.599V116.515C168.114 116.385 168.008 116.28 167.878 116.28H167.294C167.164 116.28 167.059 116.386 167.059 116.515V124.599C167.059 124.729 167.164 124.834 167.294 124.834Z" fill="#C7C7C7"/>
<path d="M165.335 124.834H165.919C166.049 124.834 166.155 124.729 166.155 124.599V116.515C166.155 116.385 166.049 116.28 165.919 116.28H165.335C165.205 116.28 165.1 116.386 165.1 116.515V124.599C165.1 124.729 165.205 124.834 165.335 124.834Z" fill="#C7C7C7"/>
<path d="M163.376 124.834H163.96C164.09 124.834 164.196 124.729 164.196 124.599V116.515C164.196 116.385 164.09 116.28 163.96 116.28H163.376C163.246 116.28 163.141 116.386 163.141 116.515V124.599C163.14 124.729 163.246 124.834 163.376 124.834Z" fill="#C7C7C7"/>
<path d="M161.417 124.834H162.001C162.131 124.834 162.237 124.729 162.237 124.599V116.515C162.237 116.385 162.131 116.28 162.001 116.28H161.417C161.287 116.28 161.182 116.386 161.182 116.515V124.599C161.182 124.729 161.287 124.834 161.417 124.834Z" fill="#C7C7C7"/>
<path d="M159.458 124.834H160.042C160.172 124.834 160.278 124.729 160.278 124.599V116.515C160.278 116.385 160.172 116.28 160.042 116.28H159.458C159.328 116.28 159.223 116.386 159.223 116.515V124.599C159.223 124.729 159.328 124.834 159.458 124.834Z" fill="#C7C7C7"/>
<path d="M157.499 124.834H158.083C158.213 124.834 158.319 124.729 158.319 124.599V116.515C158.319 116.385 158.213 116.28 158.083 116.28H157.499C157.369 116.28 157.264 116.386 157.264 116.515V124.599C157.264 124.729 157.369 124.834 157.499 124.834Z" fill="#C7C7C7"/>
<path d="M164.468 159.594H184.42V139.642H164.468V159.594Z" fill="white"/>
<path d="M194.153 176.659V176.649C194.153 174.567 192.459 172.885 190.378 172.885H182.904C180.822 172.885 179.129 174.567 179.129 176.649V176.659C179.129 178.741 180.822 180.434 182.904 180.434H190.378C192.459 180.434 194.153 178.741 194.153 176.659Z" fill="#DBDBDB"/>
<path d="M194.152 176.659V176.649C194.152 174.567 192.459 172.885 190.377 172.885H186.635V180.434H190.377C192.459 180.434 194.152 178.741 194.152 176.659Z" fill="#EBEBEB"/>
<path d="M147.434 170.629V170.64C147.434 172.722 149.127 174.404 151.209 174.404H158.683C160.764 174.404 162.457 172.722 162.457 170.64V170.629C162.457 168.548 160.764 166.855 158.683 166.855H151.209C149.127 166.854 147.434 168.548 147.434 170.629Z" fill="#DBDBDB"/>
<path d="M147.434 170.629V170.64C147.434 172.722 149.127 174.404 151.209 174.404H154.951V166.855H151.209C149.127 166.854 147.434 168.548 147.434 170.629Z" fill="#EBEBEB"/>
<path d="M138.952 172.166L138.959 172.174C140.431 173.646 142.818 173.638 144.29 172.166L149.575 166.881C151.047 165.41 151.054 163.022 149.583 161.551L149.575 161.543C148.103 160.071 145.708 160.071 144.236 161.543L138.952 166.828C137.48 168.3 137.48 170.695 138.952 172.166Z" fill="#DBDBDB"/>
<path d="M138.951 172.167L138.959 172.174C140.431 173.646 142.818 173.638 144.29 172.167L146.936 169.52L141.598 164.182L138.951 166.828C137.48 168.3 137.48 170.695 138.951 172.167Z" fill="#EBEBEB"/>
<path d="M173.137 178.179V178.168C173.137 176.087 171.444 174.404 169.362 174.404H161.888C159.807 174.404 158.113 176.087 158.113 178.168V178.179C158.113 180.261 159.807 181.954 161.888 181.954H169.362C171.444 181.954 173.137 180.261 173.137 178.179Z" fill="#DBDBDB"/>
<path d="M173.136 178.179V178.168C173.136 176.087 171.443 174.404 169.361 174.404H165.619V181.954H169.361C171.443 181.954 173.136 180.261 173.136 178.179Z" fill="#EBEBEB"/>
<path d="M19.3939 171.47H51.5149C52.2588 171.47 52.8619 170.867 52.8619 170.123V115.757C52.8619 113.771 51.2517 112.161 49.2652 112.161H21.6436C19.657 112.161 18.0469 113.771 18.0469 115.757V170.123C18.0469 170.867 18.6499 171.47 19.3939 171.47Z" fill="#EBEBEB"/>
<path d="M25.3763 113.87H45.5332V104.634H25.3763V113.87Z" fill="#EBEBEB"/>
<path d="M18.0448 154.953H52.8594V131.48H18.0448V154.953Z" fill="white"/>
<path d="M18.0448 152.277H52.8594V150.152H18.0448V152.277Z" fill="#DBDBDB"/>
<path d="M18.0448 136.281H52.8594V134.156H18.0448V136.281Z" fill="#DBDBDB"/>
<path d="M23.9687 106.719H46.9355V98.1661H23.9687V106.719Z" fill="#DBDBDB"/>
<path d="M22.7656 109.252H48.1426V106.719H22.7656V109.252Z" fill="#C7C7C7"/>
<path d="M44.9562 105.524H45.5402C45.6705 105.524 45.7757 105.419 45.7757 105.289V99.596C45.7757 99.4657 45.6705 99.3605 45.5402 99.3605H44.9562C44.826 99.3605 44.7207 99.4662 44.7207 99.596V105.289C44.7207 105.419 44.826 105.524 44.9562 105.524Z" fill="#C7C7C7"/>
<path d="M42.9992 105.524H43.5832C43.7135 105.524 43.8187 105.419 43.8187 105.289V99.596C43.8187 99.4657 43.7135 99.3605 43.5832 99.3605H42.9992C42.8689 99.3605 42.7637 99.4662 42.7637 99.596V105.289C42.7637 105.419 42.8689 105.524 42.9992 105.524Z" fill="#C7C7C7"/>
<path d="M41.0402 105.524H41.6242C41.7541 105.524 41.8597 105.419 41.8597 105.289V99.596C41.8597 99.4657 41.7541 99.3605 41.6242 99.3605H41.0402C40.9099 99.3605 40.8047 99.4662 40.8047 99.596V105.289C40.8047 105.419 40.9104 105.524 41.0402 105.524Z" fill="#C7C7C7"/>
<path d="M39.0812 105.524H39.6652C39.7955 105.524 39.9007 105.419 39.9007 105.289V99.596C39.9007 99.4657 39.7951 99.3605 39.6652 99.3605H39.0812C38.951 99.3605 38.8457 99.4662 38.8457 99.596V105.289C38.8457 105.419 38.951 105.524 39.0812 105.524Z" fill="#C7C7C7"/>
<path d="M37.1203 105.524H37.7043C37.8346 105.524 37.9398 105.419 37.9398 105.289V99.596C37.9398 99.4657 37.8346 99.3605 37.7043 99.3605H37.1203C36.99 99.3605 36.8848 99.4662 36.8848 99.596V105.289C36.8848 105.419 36.99 105.524 37.1203 105.524Z" fill="#C7C7C7"/>
<path d="M35.1613 105.524H35.7453C35.8756 105.524 35.9808 105.419 35.9808 105.289V99.596C35.9808 99.4657 35.8751 99.3605 35.7453 99.3605H35.1613C35.031 99.3605 34.9258 99.4662 34.9258 99.596V105.289C34.9258 105.419 35.0315 105.524 35.1613 105.524Z" fill="#C7C7C7"/>
<path d="M33.2023 105.524H33.7863C33.9166 105.524 34.0218 105.419 34.0218 105.289V99.596C34.0218 99.4657 33.9162 99.3605 33.7863 99.3605H33.2023C33.072 99.3605 32.9668 99.4662 32.9668 99.596V105.289C32.9668 105.419 33.072 105.524 33.2023 105.524Z" fill="#C7C7C7"/>
<path d="M31.2434 105.524H31.8273C31.9576 105.524 32.0629 105.419 32.0629 105.289V99.596C32.0629 99.4657 31.9572 99.3605 31.8273 99.3605H31.2434C31.1131 99.3605 31.0078 99.4662 31.0078 99.596V105.289C31.0078 105.419 31.1131 105.524 31.2434 105.524Z" fill="#C7C7C7"/>
<path d="M29.2844 105.524H29.8683C29.9986 105.524 30.1039 105.419 30.1039 105.289V99.596C30.1039 99.4657 29.9986 99.3605 29.8683 99.3605H29.2844C29.1541 99.3605 29.0488 99.4662 29.0488 99.596V105.289C29.0488 105.419 29.1545 105.524 29.2844 105.524Z" fill="#C7C7C7"/>
<path d="M27.3254 105.524H27.9093C28.0396 105.524 28.1449 105.419 28.1449 105.289V99.596C28.1449 99.4657 28.0396 99.3605 27.9093 99.3605H27.3254C27.1951 99.3605 27.0898 99.4662 27.0898 99.596V105.289C27.0898 105.419 27.1951 105.524 27.3254 105.524Z" fill="#C7C7C7"/>
<path d="M25.3664 105.524H25.9504C26.0806 105.524 26.1859 105.419 26.1859 105.289V99.596C26.1859 99.4657 26.0802 99.3605 25.9504 99.3605H25.3664C25.2365 99.3605 25.1309 99.4662 25.1309 99.596V105.289C25.1309 105.419 25.2361 105.524 25.3664 105.524Z" fill="#C7C7C7"/>
<path d="M106.095 199.029C153.676 199.029 192.247 195.289 192.247 190.675C192.247 186.062 153.676 182.322 106.095 182.322C58.5149 182.322 19.9434 186.062 19.9434 190.675C19.9434 195.289 58.5149 199.029 106.095 199.029Z" fill="#EBEBEB"/>
<path d="M15.4785 171.518L38.1334 171.415L60.7887 171.378L106.099 171.306L151.41 171.377L174.065 171.415L196.72 171.518L174.065 171.622L151.41 171.659L106.099 171.73L60.7887 171.659L38.1334 171.621L15.4785 171.518Z" fill="#263238"/>
<path d="M161.387 36.2687H47.709V187.264H161.387V36.2687Z" fill="#FFC727"/>
<g opacity="0.1">
<path d="M161.387 36.2687H47.709V187.264H161.387V36.2687Z" fill="black"/>
</g>
<path d="M164.479 36.2683H50.8008V187.264H164.479V36.2683Z" fill="#FFC727"/>
<path d="M156.946 42.3007L56.6016 43.5752L58.3292 179.599L158.674 178.325L156.946 42.3007Z" fill="#EBEBEB"/>
<path d="M57.4072 41.8596L54.4688 177.87L154.803 180.038L157.742 44.0273L57.4072 41.8596Z" fill="#DBDBDB"/>
<path d="M156.275 42.9304H55.9199V178.968H156.275V42.9304Z" fill="white"/>
<path d="M75.9038 121.29H67.3828V129.811H75.9038V121.29Z" fill="#EBEBEB"/>
<path d="M108.118 121.29H80.5098V122.539H108.118V121.29Z" fill="#455A64"/>
<path d="M144.823 123.714H80.5078V124.963H144.823V123.714Z" fill="#EBEBEB"/>
<path d="M144.823 126.138H80.5078V127.387H144.823V126.138Z" fill="#EBEBEB"/>
<path d="M144.823 128.562H80.5078V129.811H144.823V128.562Z" fill="#EBEBEB"/>
<path d="M68.0117 125.109C68.3262 125.371 68.6254 125.645 68.922 125.921C69.2208 126.195 69.5035 126.482 69.7954 126.762C70.3688 127.33 70.9222 127.913 71.4671 128.504L70.4897 128.567C71.2617 126.947 72.1589 125.404 73.143 123.913C73.637 123.168 74.1599 122.441 74.7184 121.736C75.2799 121.032 75.8685 120.345 76.5369 119.706C76.2823 120.595 75.9487 121.436 75.5871 122.26C75.223 123.083 74.8228 123.884 74.3942 124.668C73.5326 126.233 72.5841 127.746 71.5104 129.183L70.9761 129.898L70.533 129.245C70.0819 128.581 69.6393 127.909 69.2166 127.222C69.0103 126.874 68.7947 126.534 68.5957 126.18C68.3941 125.829 68.1955 125.475 68.0117 125.109Z" fill="#FFC727"/>
<path d="M75.9038 135.39H67.3828V143.911H75.9038V135.39Z" fill="#EBEBEB"/>
<path d="M108.116 135.39H80.5078V136.639H108.116V135.39Z" fill="#455A64"/>
<path d="M144.823 137.814H80.5078V139.063H144.823V137.814Z" fill="#EBEBEB"/>
<path d="M144.825 140.238H80.5098V141.487H144.825V140.238Z" fill="#EBEBEB"/>
<path d="M144.825 142.662H80.5098V143.911H144.825V142.662Z" fill="#EBEBEB"/>
<path d="M75.9038 149.489H67.3828V158.01H75.9038V149.489Z" fill="#EBEBEB"/>
<path d="M108.118 149.489H80.5098V150.738H108.118V149.489Z" fill="#455A64"/>
<path d="M144.825 151.913H80.5098V153.162H144.825V151.913Z" fill="#EBEBEB"/>
<path d="M144.823 154.337H80.5078V155.586H144.823V154.337Z" fill="#EBEBEB"/>
<path d="M144.823 156.762H80.5078V158.011H144.823V156.762Z" fill="#EBEBEB"/>
<path d="M144.82 166.262H101.725V167.511H144.82V166.262Z" fill="#EBEBEB"/>
<path d="M117.448 77.0933H94.084V78.3423H117.448V77.0933Z" fill="#455A64"/>
<path d="M144.816 79.5173H94.082V80.7663H144.816V79.5173Z" fill="#EBEBEB"/>
<path d="M144.816 81.9417H94.082V83.1906H144.816V81.9417Z" fill="#EBEBEB"/>
<path d="M144.816 86.7897H94.082V88.0387H144.816V86.7897Z" fill="#EBEBEB"/>
<path d="M116.145 89.2139H94.082V90.4629H116.145V89.2139Z" fill="#EBEBEB"/>
<path d="M144.816 55.9475H67.3789V67.8093H144.816V55.9475Z" fill="#FFC727"/>
<path d="M72.7129 65.5526V58.6223H74.0599V65.5526H72.7129Z" fill="white"/>
<path d="M78.3158 61.1114V65.5526H76.9688V58.6223H78.0132L81.6248 63.1709V58.6321H82.9718V65.5526H81.879L78.3158 61.1114Z" fill="white"/>
<path d="M90.01 60.4378C89.9645 60.3924 89.8814 60.3304 89.7613 60.2523C89.6407 60.1742 89.4943 60.0978 89.322 60.0231C89.1497 59.9485 88.9621 59.8848 88.761 59.8326C88.559 59.7804 88.354 59.7545 88.146 59.7545C87.7751 59.7545 87.4984 59.8228 87.3163 59.9595C87.1338 60.0961 87.043 60.288 87.043 60.5354C87.043 60.6784 87.077 60.7972 87.1453 60.8915C87.2136 60.9857 87.3129 61.0689 87.4428 61.1402C87.5731 61.2119 87.7369 61.2768 87.9359 61.3354C88.1341 61.3939 88.3637 61.4559 88.6239 61.5208C88.9621 61.6121 89.2694 61.7097 89.5465 61.8137C89.8228 61.9181 90.0571 62.0479 90.2489 62.2041C90.4407 62.3603 90.5892 62.5474 90.6932 62.7656C90.7972 62.9837 90.8494 63.2519 90.8494 63.5706C90.8494 63.9416 90.7794 64.259 90.6393 64.5225C90.4997 64.7861 90.3108 64.9991 90.0732 65.1617C89.8355 65.3242 89.5626 65.4431 89.2533 65.5177C88.9439 65.5924 88.6205 65.6302 88.2823 65.6302C87.7615 65.6302 87.2476 65.5521 86.7396 65.396C86.2324 65.2398 85.7771 65.0187 85.373 64.7322L85.9685 63.5706C86.027 63.6292 86.1327 63.7056 86.2855 63.8002C86.4383 63.8945 86.6191 63.9891 86.827 64.0833C87.0354 64.1775 87.2663 64.2573 87.5205 64.3222C87.7743 64.3872 88.0344 64.4199 88.3013 64.4199C89.0432 64.4199 89.4141 64.1822 89.4141 63.7073C89.4141 63.5575 89.3712 63.431 89.2868 63.3266C89.2023 63.2226 89.0822 63.1314 88.9256 63.0533C88.7695 62.9752 88.5806 62.9035 88.3595 62.8386C88.1384 62.7736 87.891 62.7019 87.6177 62.6238C87.2858 62.5326 86.998 62.4333 86.754 62.3259C86.51 62.2185 86.3063 62.0916 86.1437 61.9452C85.9808 61.7988 85.859 61.6295 85.7779 61.4376C85.6964 61.2458 85.6557 61.0162 85.6557 60.7493C85.6557 60.3979 85.7206 60.0855 85.8509 59.8122C85.9812 59.5389 86.1616 59.311 86.3924 59.129C86.6233 58.9469 86.8919 58.8085 87.1979 58.7143C87.5039 58.6201 87.8324 58.573 88.1838 58.573C88.6718 58.573 89.1209 58.6494 89.5308 58.8022C89.9408 58.955 90.2985 59.1357 90.6045 59.3437L90.01 60.4378Z" fill="white"/>
<path d="M96.2568 64.4104C96.576 64.4104 96.8442 64.3455 97.0619 64.2152C97.28 64.0849 97.4557 63.916 97.589 63.7076C97.7222 63.4997 97.8169 63.2603 97.872 62.9904C97.9276 62.7205 97.9548 62.4421 97.9548 62.156V58.6226H99.2921V62.156C99.2921 62.6309 99.2348 63.077 99.1215 63.4933C99.0077 63.9096 98.8286 64.2742 98.5846 64.5865C98.3406 64.8989 98.0265 65.1463 97.6424 65.3284C97.2584 65.5104 96.7996 65.6017 96.2661 65.6017C95.7127 65.6017 95.2429 65.5058 94.8559 65.3135C94.4684 65.1217 94.1548 64.8679 93.9137 64.5522C93.6731 64.2364 93.4987 63.8706 93.3917 63.4543C93.2844 63.0375 93.2305 62.6051 93.2305 62.156V58.6226H94.5779V62.156C94.5779 62.4489 94.6051 62.7307 94.6607 63.0002C94.7158 63.2705 94.8101 63.5094 94.9437 63.7174C95.0766 63.9258 95.2514 64.0934 95.4657 64.2203C95.6809 64.3472 95.9449 64.4104 96.2568 64.4104Z" fill="white"/>
<path d="M102.113 65.5526V58.6223H105.178C105.497 58.6223 105.791 58.6894 106.062 58.8226C106.332 58.9559 106.565 59.132 106.76 59.3497C106.955 59.5679 107.108 59.8153 107.219 60.0916C107.329 60.3683 107.385 60.6467 107.385 60.9263C107.385 61.3753 107.272 61.7836 107.048 62.1511C106.824 62.5191 106.519 62.7843 106.135 62.9464L107.717 65.5526H106.203L104.788 63.2295H103.46V65.5526H102.113ZM103.46 62.0484H105.149C105.272 62.0484 105.388 62.0192 105.495 61.9606C105.603 61.902 105.695 61.8222 105.773 61.7212C105.851 61.6202 105.913 61.5014 105.958 61.3647C106.004 61.2281 106.027 61.0817 106.027 60.9255C106.027 60.7629 106 60.6131 105.949 60.4765C105.896 60.3398 105.826 60.221 105.738 60.1204C105.651 60.0194 105.55 59.9413 105.436 59.8862C105.322 59.831 105.207 59.8034 105.09 59.8034H103.459V62.0484H103.46Z" fill="white"/>
<path d="M111.934 58.6223H113.126L115.761 65.5526H114.375L113.73 63.8249H111.31L110.675 65.5526H109.289L111.934 58.6223ZM113.486 62.8781L112.53 60.1548L111.534 62.8781H113.486Z" fill="white"/>
<path d="M119.333 61.1114V65.5526H117.986V58.6223H119.031L122.642 63.1709V58.6321H123.989V65.5526H122.897L119.333 61.1114Z" fill="white"/>
<path d="M126.477 62.0388C126.477 61.6157 126.553 61.1977 126.706 60.7843C126.859 60.371 127.082 60.0017 127.375 59.6762C127.667 59.3512 128.025 59.0876 128.448 58.8856C128.871 58.684 129.353 58.583 129.892 58.583C130.53 58.583 131.082 58.7231 131.547 59.0027C132.012 59.2828 132.359 59.647 132.587 60.096L131.552 60.8085C131.461 60.6133 131.35 60.4491 131.22 60.3158C131.09 60.1825 130.95 60.0769 130.801 59.9988C130.65 59.9207 130.494 59.8638 130.332 59.8282C130.169 59.7925 130.01 59.7743 129.854 59.7743C129.516 59.7743 129.221 59.8426 128.971 59.9793C128.72 60.1159 128.512 60.2933 128.346 60.511C128.18 60.7292 128.054 60.9762 127.97 61.2529C127.885 61.5296 127.843 61.8041 127.843 62.0774C127.843 62.3834 127.891 62.678 127.99 62.9606C128.087 63.2437 128.225 63.4928 128.404 63.7071C128.583 63.9219 128.798 64.0946 129.048 64.2245C129.299 64.3547 129.574 64.4197 129.873 64.4197C130.029 64.4197 130.192 64.4001 130.361 64.3611C130.53 64.3221 130.691 64.2605 130.844 64.1756C130.997 64.0912 131.139 63.9821 131.269 63.8484C131.399 63.7152 131.503 63.5543 131.581 63.3655L132.684 63.9999C132.573 64.2605 132.416 64.4897 132.211 64.6879C132.006 64.8865 131.775 65.0541 131.518 65.1908C131.261 65.3274 130.986 65.4314 130.693 65.5031C130.4 65.5749 130.114 65.6105 129.834 65.6105C129.34 65.6105 128.887 65.5065 128.477 65.2982C128.067 65.0902 127.714 64.8186 127.418 64.4833C127.122 64.1481 126.891 63.7674 126.725 63.3413C126.56 62.916 126.477 62.4815 126.477 62.0388Z" fill="white"/>
<path d="M139.869 64.3716V65.5526H135.057V58.6223H139.781V59.8034H136.404V61.4725H139.322V62.5658H136.404V64.3716H139.869Z" fill="white"/>
<path d="M145.028 115.085H67.166V98.4292H145.028V115.085ZM67.5904 114.661H144.603V98.8536H67.5904V114.661Z" fill="#EBEBEB"/>
<path d="M144.816 108.245H67.3789V108.669H144.816V108.245Z" fill="#EBEBEB"/>
<path d="M144.816 101.844H67.3789V102.268H144.816V101.844Z" fill="#EBEBEB"/>
<path d="M92.8658 98.6414H92.4414V114.873H92.8658V98.6414Z" fill="#EBEBEB"/>
<path d="M119.753 98.6414H119.328V114.873H119.753V98.6414Z" fill="#EBEBEB"/>
<path d="M71.7988 100.38C73.1683 100.293 74.5379 100.252 75.9069 100.218C77.2765 100.179 78.6455 100.173 80.0151 100.168C81.3846 100.173 82.7541 100.178 84.1232 100.217L86.1772 100.276C86.8618 100.311 87.5467 100.332 88.2313 100.38C87.5467 100.428 86.8618 100.448 86.1772 100.484L84.1232 100.543C82.7537 100.581 81.3841 100.587 80.0151 100.592C78.6455 100.586 77.2765 100.581 75.9069 100.542C74.5374 100.509 73.1679 100.468 71.7988 100.38Z" fill="#455A64"/>
<path d="M97.8809 100.38C99.2504 100.293 100.619 100.252 101.989 100.218C103.358 100.179 104.728 100.173 106.097 100.168C107.467 100.173 108.836 100.178 110.205 100.217L112.259 100.276C112.944 100.311 113.629 100.332 114.313 100.38C113.629 100.428 112.944 100.448 112.259 100.484L110.205 100.543C108.836 100.581 107.467 100.587 106.097 100.591C104.728 100.586 103.358 100.581 101.989 100.542C100.619 100.509 99.2499 100.468 97.8809 100.38Z" fill="#455A64"/>
<path d="M124.123 100.38C125.493 100.293 126.862 100.252 128.231 100.218C129.601 100.179 130.97 100.173 132.339 100.168C133.709 100.173 135.078 100.178 136.447 100.217L138.501 100.276C139.186 100.311 139.871 100.332 140.556 100.38C139.871 100.428 139.186 100.448 138.501 100.484L136.447 100.543C135.078 100.581 133.708 100.587 132.339 100.592C130.97 100.586 129.601 100.581 128.231 100.542C126.862 100.509 125.493 100.468 124.123 100.38Z" fill="#455A64"/>
<path d="M71.7988 104.475C73.1683 104.387 74.5379 104.346 75.9069 104.312C77.2765 104.274 78.6455 104.268 80.0151 104.263C81.3846 104.267 82.7541 104.273 84.1232 104.311L86.1772 104.37C86.8618 104.406 87.5467 104.427 88.2313 104.474C87.5467 104.522 86.8618 104.543 86.1772 104.578L84.1232 104.638C82.7537 104.676 81.3841 104.682 80.0151 104.687C78.6455 104.681 77.2765 104.676 75.9069 104.637C74.5374 104.603 73.1679 104.562 71.7988 104.475Z" fill="#EBEBEB"/>
<path d="M97.8809 104.475C99.2504 104.388 100.619 104.346 101.989 104.312C103.358 104.274 104.728 104.268 106.097 104.263C107.467 104.267 108.836 104.273 110.205 104.312L112.259 104.371C112.944 104.406 113.629 104.427 114.313 104.475C113.629 104.523 112.944 104.543 112.259 104.579L110.205 104.638C108.836 104.677 107.467 104.682 106.097 104.687C104.728 104.681 103.358 104.676 101.989 104.637C100.619 104.604 99.2499 104.562 97.8809 104.475Z" fill="#EBEBEB"/>
<path d="M124.123 104.475C125.493 104.387 126.862 104.346 128.231 104.312C129.601 104.274 130.97 104.268 132.339 104.263C133.709 104.267 135.078 104.273 136.447 104.311L138.501 104.37C139.186 104.406 139.871 104.427 140.556 104.474C139.871 104.522 139.186 104.543 138.501 104.578L136.447 104.638C135.078 104.676 133.708 104.682 132.339 104.687C130.97 104.681 129.601 104.676 128.231 104.637C126.862 104.603 125.493 104.562 124.123 104.475Z" fill="#EBEBEB"/>
<path d="M71.7988 106.121C73.1683 106.034 74.5379 105.993 75.9069 105.959C77.2765 105.92 78.6455 105.914 80.0151 105.909C81.3846 105.914 82.7541 105.92 84.1232 105.958L86.1772 106.017C86.8618 106.052 87.5467 106.073 88.2313 106.121C87.5467 106.169 86.8618 106.189 86.1772 106.225L84.1232 106.284C82.7537 106.322 81.3841 106.328 80.0151 106.332C78.6455 106.327 77.2765 106.322 75.9069 106.283C74.5374 106.25 73.1679 106.209 71.7988 106.121Z" fill="#EBEBEB"/>
<path d="M97.8809 106.121C99.2504 106.034 100.619 105.993 101.989 105.959C103.358 105.92 104.728 105.915 106.097 105.909C107.467 105.914 108.836 105.92 110.205 105.958L112.259 106.017C112.944 106.052 113.629 106.073 114.313 106.121C113.629 106.169 112.944 106.19 112.259 106.225L110.205 106.284C108.836 106.322 107.467 106.328 106.097 106.333C104.728 106.327 103.358 106.322 101.989 106.283C100.619 106.25 99.2499 106.209 97.8809 106.121Z" fill="#EBEBEB"/>
<path d="M124.123 106.121C125.493 106.034 126.862 105.993 128.231 105.959C129.601 105.92 130.97 105.914 132.339 105.909C133.709 105.914 135.078 105.92 136.447 105.958L138.501 106.017C139.186 106.052 139.871 106.073 140.556 106.121C139.871 106.169 139.186 106.189 138.501 106.225L136.447 106.284C135.078 106.322 133.708 106.328 132.339 106.332C130.97 106.327 129.601 106.322 128.231 106.283C126.862 106.25 125.493 106.209 124.123 106.121Z" fill="#EBEBEB"/>
<path d="M71.7988 110.518C73.1683 110.431 74.5379 110.39 75.9069 110.356C77.2765 110.317 78.6455 110.312 80.0151 110.306C81.3846 110.311 82.7541 110.317 84.1232 110.355L86.1772 110.414C86.8618 110.45 87.5467 110.47 88.2313 110.518C87.5467 110.566 86.8618 110.587 86.1772 110.622L84.1232 110.681C82.7537 110.72 81.3841 110.725 80.0151 110.73C78.6455 110.725 77.2765 110.72 75.9069 110.68C74.5374 110.647 73.1679 110.606 71.7988 110.518Z" fill="#EBEBEB"/>
<path d="M97.8809 110.518C99.2504 110.431 100.619 110.39 101.989 110.356C103.358 110.317 104.728 110.312 106.097 110.306C107.467 110.311 108.836 110.317 110.205 110.355L112.259 110.414C112.944 110.45 113.629 110.471 114.313 110.518C113.629 110.566 112.944 110.587 112.259 110.622L110.205 110.681C108.836 110.72 107.467 110.726 106.097 110.73C104.728 110.725 103.358 110.72 101.989 110.681C100.619 110.647 99.2499 110.606 97.8809 110.518Z" fill="#EBEBEB"/>
<path d="M124.123 110.518C125.493 110.431 126.862 110.39 128.231 110.356C129.601 110.317 130.97 110.312 132.339 110.306C133.709 110.311 135.078 110.317 136.447 110.355L138.501 110.414C139.186 110.45 139.871 110.47 140.556 110.518C139.871 110.566 139.186 110.587 138.501 110.622L136.447 110.681C135.078 110.72 133.708 110.725 132.339 110.73C130.97 110.725 129.601 110.72 128.231 110.68C126.862 110.647 125.493 110.606 124.123 110.518Z" fill="#EBEBEB"/>
<path d="M71.7988 112.165C73.1683 112.077 74.5379 112.036 75.9069 112.002C77.2765 111.963 78.6455 111.958 80.0151 111.952C81.3846 111.957 82.7541 111.963 84.1232 112.001L86.1772 112.061C86.8618 112.096 87.5467 112.117 88.2313 112.165C87.5467 112.213 86.8618 112.233 86.1772 112.269L84.1232 112.328C82.7537 112.367 81.3841 112.372 80.0151 112.377C78.6455 112.371 77.2765 112.366 75.9069 112.327C74.5374 112.293 73.1679 112.252 71.7988 112.165Z" fill="#EBEBEB"/>
<path d="M97.8809 112.165C99.2504 112.077 100.619 112.036 101.989 112.002C103.358 111.963 104.728 111.958 106.097 111.952C107.467 111.957 108.836 111.963 110.205 112.001L112.259 112.061C112.944 112.096 113.629 112.117 114.313 112.165C113.629 112.212 112.944 112.233 112.259 112.269L110.205 112.328C108.836 112.367 107.467 112.372 106.097 112.377C104.728 112.371 103.358 112.366 101.989 112.327C100.619 112.293 99.2499 112.252 97.8809 112.165Z" fill="#EBEBEB"/>
<path d="M124.123 112.165C125.493 112.077 126.862 112.036 128.231 112.002C129.601 111.963 130.97 111.958 132.339 111.952C133.709 111.957 135.078 111.963 136.447 112.001L138.501 112.061C139.186 112.096 139.871 112.117 140.556 112.165C139.871 112.213 139.186 112.233 138.501 112.269L136.447 112.328C135.078 112.367 133.708 112.372 132.339 112.377C130.97 112.371 129.601 112.366 128.231 112.327C126.862 112.293 125.493 112.252 124.123 112.165Z" fill="#EBEBEB"/>
<path d="M85.9506 85.878C82.2007 90.8399 77.7216 93.0179 77.7216 93.0179C77.7216 93.0179 73.246 90.8399 69.4961 85.878C66.5996 82.0448 66.7422 76.0431 70.8864 74.7449C75.469 73.3092 77.7216 80.2059 77.7216 80.2059C77.7216 80.2059 80.0066 73.2637 84.5603 74.7449C88.6896 76.0876 88.8471 82.0444 85.9506 85.878Z" fill="#FFC727"/>
<path d="M74.4887 89.989L73.2398 84.7877L72.4245 86.6215H67.3789V86.0341H72.043L73.4061 82.9675L74.3801 87.0225L75.7573 78.62L76.9723 85.2672L77.9335 82.4917L79.4486 87.0348L79.7843 86.0312H88.0723V86.6185H80.207L79.4482 88.8882L77.9229 84.3158L76.7966 87.57L75.7887 82.0571L74.4887 89.989Z" fill="white"/>
<path d="M130.743 33.513H81.4512V48.5411H130.743V33.513Z" fill="#C7C7C7"/>
<path d="M121.167 25.2961H90.5766L89.2207 33.5119H122.975L121.167 25.2961ZM106.095 31.2071C105.101 31.2071 104.292 30.4029 104.292 29.4038C104.292 28.4095 105.101 27.6006 106.095 27.6006C107.094 27.6006 107.899 28.4095 107.899 29.4038C107.899 30.4029 107.094 31.2071 106.095 31.2071Z" fill="#C7C7C7"/>
<path d="M122.975 33.5119H89.2207L89.5233 31.6726H122.568L122.975 33.5119Z" fill="#A6A6A6"/>
<path d="M32.99 145.428C32.6912 146.698 32.3759 147.947 32.3144 149.25C32.3487 149.314 32.3424 149.55 32.3038 149.486C32.2961 149.696 31.9765 149.657 31.9765 149.451C31.9799 149.316 31.9829 149.18 31.9897 149.05C31.2432 148.122 30.1589 147.535 29.2825 146.729C28.5738 146.077 28.067 145.3 27.7988 144.368C27.0718 141.863 27.7534 139.208 26.8787 136.709C26.125 134.554 24.7733 132.682 23.6292 130.729C22.4218 128.665 21.531 126.496 21.4414 124.078C21.3701 122.226 21.5912 119.759 23.0011 118.372C24.4958 116.901 26.3487 118.004 27.4941 119.316C30.8124 123.125 32.3479 127.937 32.9684 132.859C33.3104 135.582 33.6661 138.322 33.5841 141.071C33.5375 142.549 33.3253 143.993 32.99 145.428Z" fill="#FFC727"/>
<path d="M32.3281 150.25C32.4999 147.676 32.4889 145.098 32.2368 142.534C32.2411 142.525 32.2491 142.519 32.2495 142.506C32.2916 140.421 32.4571 138.343 32.3752 136.255C32.2865 133.987 31.9537 131.763 31.4568 129.55C31.4508 129.525 31.4114 129.531 31.4165 129.557C31.8256 131.715 32.0632 133.918 32.1422 136.114C32.1846 137.292 32.1761 138.472 32.1142 139.649C32.0938 140.032 32.0586 140.418 32.0327 140.804C32.0327 140.803 32.0323 140.802 32.0323 140.801C31.1911 134.931 29.0246 129.363 25.8268 124.379C25.7835 124.311 25.663 124.384 25.7058 124.454C28.0086 128.214 29.7066 132.344 30.7565 136.629C29.1608 133.673 26.7507 131.242 24.9623 128.401C24.9525 128.386 24.9271 128.401 24.9351 128.417C26.5415 131.58 29.1956 134.074 30.8872 137.19C31.1809 138.46 31.4211 139.742 31.5998 141.032C31.8455 142.803 31.9605 144.584 31.9847 146.368C31.0129 144.551 30.0037 142.814 29.2088 140.892C29.1876 140.841 29.1141 140.876 29.1315 140.927C29.808 142.923 30.7175 145.073 31.9902 146.775C31.997 148.038 31.9597 149.302 31.8854 150.564C31.6868 153.933 31.1117 157.256 30.8457 160.614C30.8376 160.715 30.9798 160.727 30.9997 160.63C31.6987 157.242 32.098 153.701 32.3281 150.25Z" fill="#263238"/>
<path d="M28.7516 124.271C28.7415 124.247 28.7054 124.264 28.7143 124.288C29.3297 125.989 29.6772 127.713 30.1216 129.457C30.1419 129.537 30.257 129.52 30.2485 129.437C30.0681 127.667 29.4362 125.902 28.7516 124.271Z" fill="#263238"/>
<path d="M44.3762 131.402C43.9777 132.401 43.4825 133.368 42.9613 134.309C41.8532 136.321 40.6976 138.164 40.4884 140.507C40.395 141.553 40.3615 142.604 40.0428 143.612C39.7673 144.485 39.32 145.29 38.8053 146.042C37.6042 147.792 36.1036 149.299 34.9908 151.114C33.8331 153.001 32.9792 155.076 32.4563 157.226C32.4288 157.344 32.2433 157.312 32.2709 157.195C32.2751 157.185 32.2764 157.178 32.2781 157.168C32.2739 157.162 32.2675 157.156 32.2671 157.143C32.0909 152.12 32.4916 147.057 34.0241 142.245C34.6942 140.14 35.5205 138.047 36.4584 136.047C37.2791 134.302 38.3023 132.624 39.7432 131.321C40.6781 130.479 42.7058 128.883 44.0367 129.727C44.6754 130.134 44.6279 130.775 44.3762 131.402Z" fill="#FFC727"/>
<path d="M39.3275 142.79C38.4659 144.262 37.4444 145.633 36.4081 146.986C35.9217 147.621 35.4286 148.251 34.9431 148.887C34.7135 149.187 34.4567 149.486 34.2458 149.809C34.3786 149.28 34.5081 148.752 34.6426 148.224C35.2906 145.686 35.9137 143.125 36.8791 140.685C37.823 138.299 39.0779 136.059 40.3672 133.847C40.4012 133.789 40.3074 133.747 40.273 133.803C39.2116 135.548 38.1341 137.292 37.242 139.132C36.7433 140.161 36.324 141.218 35.9552 142.295C36.3894 139.987 36.9093 137.772 37.6681 135.538C37.6749 135.518 37.6464 135.504 37.638 135.524C36.7124 137.714 36.0461 140.178 35.8606 142.552C35.8602 142.557 35.8623 142.56 35.864 142.564C35.6463 143.216 35.4464 143.875 35.2592 144.538C34.4678 147.349 33.773 150.189 33.1288 153.038C33.1398 151.156 33.2582 149.308 33.6134 147.452C33.6215 147.409 33.5579 147.399 33.5477 147.441C33.0808 149.353 32.8699 151.365 33.0626 153.33C32.819 154.413 32.5822 155.498 32.3505 156.583C31.8565 158.899 31.25 161.256 30.9614 163.607C30.9538 163.668 31.0387 163.68 31.0544 163.623C31.399 162.356 31.6069 161.042 31.8887 159.758C32.1714 158.471 32.4625 157.186 32.7621 155.903C33.1984 154.034 33.6555 152.17 34.121 150.308C34.4321 149.625 35.0339 149.019 35.4846 148.447C35.979 147.818 36.4739 147.19 36.9551 146.551C37.8514 145.362 38.6735 144.127 39.3724 142.811C39.3873 142.783 39.3432 142.763 39.3275 142.79Z" fill="#263238"/>
<path d="M39.5422 140.642C38.4527 142.04 37.4639 143.588 36.6856 145.181C36.6754 145.201 36.7072 145.223 36.7199 145.203C37.6816 143.696 38.6267 142.178 39.5863 140.67C39.6028 140.644 39.5604 140.618 39.5422 140.642Z" fill="#263238"/>
<path d="M18.1569 136.165C18.808 137.286 19.5511 138.633 19.2714 139.979C19.094 140.831 18.4706 141.523 18.3581 142.392C18.106 144.311 20.0179 145.579 21.4018 146.486C24.8513 148.749 29.582 150.767 30.2093 155.389C30.233 155.552 30.5161 155.511 30.4957 155.351C30.4957 155.341 30.4923 155.331 30.4889 155.321C30.4957 155.311 30.5059 155.307 30.5059 155.294C30.9524 152.952 30.9422 150.566 30.441 148.235C29.9262 145.852 28.8868 143.712 27.6599 141.619C25.5842 138.077 23.3859 134.451 20.2467 131.738C19.3775 130.988 17.5984 129.638 16.9063 131.332C16.2349 132.978 17.3595 134.798 18.1569 136.165Z" fill="#FFC727"/>
<path d="M21.3142 143.673C23.6012 146.149 27.237 147.537 29.2058 150.31C28.0391 146.06 26.1085 142.238 23.1408 138.918C23.0644 138.833 23.1836 138.712 23.2668 138.792C25.4397 140.88 27.049 143.322 28.2229 145.97C27.6949 144.079 26.9565 142.29 26.0886 140.512C26.0559 140.445 26.151 140.387 26.1896 140.453C27.2951 142.338 28.0298 144.454 28.4898 146.588C31.0837 152.868 31.3239 160.233 30.7802 166.852C30.7726 166.946 30.6283 166.949 30.6313 166.852C30.7802 161.636 30.6958 156.328 29.446 151.234C29.4201 151.128 29.3908 151.023 29.3641 150.917C27.2226 147.932 23.6021 146.548 21.2743 143.714C21.2522 143.686 21.2896 143.647 21.3142 143.673Z" fill="#263238"/>
<path d="M20.7838 141.547C21.9844 142.648 23.1663 143.775 24.3686 144.875C24.3809 144.886 24.3648 144.908 24.3508 144.898C23.042 144.013 21.7128 142.843 20.7121 141.618C20.6717 141.569 20.735 141.502 20.7838 141.547Z" fill="#263238"/>
<path d="M20.5938 136.775C21.6841 138.522 22.8274 140.161 24.1859 141.716C24.2037 141.736 24.1757 141.765 24.1558 141.746C22.698 140.341 21.4027 138.643 20.5297 136.813C20.509 136.77 20.5679 136.734 20.5938 136.775Z" fill="#263238"/>
<path d="M26 171.519H36.516L35.099 157.371H27.6199L26 171.519Z" fill="#455A64"/>
<path d="M27.3574 159.67H35.3317L35.1009 157.371H27.6205L27.3574 159.67Z" fill="#263238"/>
<path d="M26.3282 158.062H36.1855V155.803H26.3282V158.062Z" fill="#455A64"/>
<path d="M72.9297 159.782C72.9297 159.782 70.3876 180.137 66.2091 184.717C61.1932 190.212 57.5527 189.408 55.5275 192.241C55.5233 192.241 55.5233 192.245 55.5233 192.245C53.4981 189.408 49.8577 190.216 44.8375 184.717C40.659 180.137 38.1211 159.782 38.1211 159.782C49.1315 154.437 55.5233 148.447 55.5233 148.447C55.5233 148.447 55.5233 148.447 55.5275 148.452C55.7236 148.635 62.0899 154.522 72.9297 159.782Z" fill="#37474F"/>
<path d="M55.5256 148.451V192.241C55.5213 192.241 55.5213 192.245 55.5213 192.245C53.4961 189.408 49.8557 190.216 44.8356 184.717C40.657 180.137 38.1191 159.782 38.1191 159.782C49.1296 154.437 55.5213 148.447 55.5213 148.447C55.5213 148.447 55.5213 148.447 55.5256 148.451Z" fill="#263238"/>
<path d="M70.2281 161.422C70.2281 161.422 68.0811 178.617 64.5515 182.487C60.3105 187.136 57.2337 186.453 55.5221 188.847C53.811 186.453 50.7337 187.136 46.4927 182.487C42.9635 178.617 40.8203 161.422 40.8203 161.422C50.1209 156.905 55.5221 151.845 55.5221 151.845C55.5221 151.845 60.9276 156.905 70.2281 161.422Z" fill="#455A64"/>
<path d="M40.8262 161.423C40.8262 161.423 42.9732 178.616 46.5037 182.488C50.7408 187.132 53.8147 186.454 55.528 188.841V151.85C55.3629 152.005 49.9829 156.976 40.8262 161.423Z" fill="#37474F"/>
<path d="M55.5234 177.165C59.289 177.165 62.3416 174.112 62.3416 170.346C62.3416 166.581 59.289 163.528 55.5234 163.528C51.7577 163.528 48.7051 166.581 48.7051 170.346C48.7051 174.112 51.7577 177.165 55.5234 177.165Z" fill="#FFC727"/>
<path d="M54.7479 174.776L51.7109 171.618L52.8377 170.535L54.5119 172.276L58.1205 166.74L59.4298 167.593L54.7479 174.776Z" fill="white"/>
<path d="M50.2547 55.2442C41.6052 55.2442 34.5684 48.2074 34.5684 39.5578C34.5684 30.9083 41.6052 23.8715 50.2547 23.8715C58.9043 23.8715 65.9411 30.9083 65.9411 39.5578C65.9411 48.2074 58.9043 55.2442 50.2547 55.2442ZM50.2547 24.5692C41.9901 24.5692 35.2665 31.2928 35.2665 39.5574C35.2665 47.822 41.9901 54.5461 50.2547 54.5461C58.5194 54.5461 65.243 47.8225 65.243 39.5574C65.243 31.2932 58.5194 24.5692 50.2547 24.5692Z" fill="#37474F"/>
<path d="M49.4674 57.4638C49.2285 57.4536 48.9908 57.4388 48.754 57.4188L48.8121 56.7233C49.0396 56.7424 49.2683 56.7564 49.4975 56.7666L49.4674 57.4638ZM51.9649 57.4002L51.8996 56.705C52.1279 56.6834 52.3554 56.6575 52.5816 56.6269L52.6749 57.3187C52.4398 57.3505 52.2026 57.3777 51.9649 57.4002ZM46.2844 57.0394C46.0515 56.9868 45.8206 56.9295 45.5906 56.868L45.7718 56.1936C45.9925 56.253 46.2144 56.3078 46.4385 56.3583L46.2844 57.0394ZM55.1224 56.812L54.9327 56.1401C55.1534 56.0778 55.3728 56.0111 55.5897 55.9407L55.8057 56.6044C55.5803 56.6779 55.352 56.747 55.1224 56.812ZM43.2267 56.0502C43.0069 55.9564 42.7892 55.8583 42.5736 55.7556L42.8728 55.125C43.0799 55.2235 43.2891 55.3177 43.5004 55.4076L43.2267 56.0502ZM58.1224 55.6657L57.8164 55.038C58.0219 54.9378 58.2251 54.8334 58.4255 54.7248L58.7573 55.3389C58.5481 55.4522 58.3368 55.5613 58.1224 55.6657ZM40.396 54.5279C40.197 54.3963 40.0005 54.2614 39.8069 54.1222L40.2139 53.5552C40.3998 53.6889 40.5887 53.8187 40.7805 53.9452L40.396 54.5279ZM60.8666 54.0025L60.4536 53.4397C60.6378 53.3044 60.8194 53.1652 60.9981 53.0226L61.4335 53.5683C61.2472 53.7164 61.0584 53.8612 60.8666 54.0025ZM37.8836 52.5265C37.7113 52.3618 37.5424 52.1942 37.3765 52.0231L37.8781 51.5376C38.0372 51.7023 38.1998 51.8636 38.3653 52.0214L37.8836 52.5265ZM63.2724 51.8767L62.7661 51.3963C62.9236 51.2299 63.0776 51.0606 63.2283 50.8883L63.7537 51.3479C63.5971 51.5274 63.4367 51.704 63.2724 51.8767ZM35.7676 50.1117C35.6275 49.9194 35.4909 49.7246 35.358 49.5273L35.9373 49.1381C36.0651 49.3282 36.1962 49.5158 36.3312 49.7004L35.7676 50.1117ZM65.2645 49.3562L64.6801 48.9743C64.8058 48.7829 64.9271 48.5881 65.0451 48.3916L65.6435 48.7506C65.5213 48.9548 65.3948 49.1568 65.2645 49.3562ZM34.115 47.3603C34.0114 47.1464 33.9117 46.9304 33.8167 46.7123L34.4566 46.4339C34.5475 46.6435 34.6434 46.8506 34.7427 47.0556L34.115 47.3603ZM66.7749 46.5205L66.132 46.2484C66.2211 46.0375 66.306 45.8244 66.3866 45.6093L67.0402 45.8546C66.9562 46.0787 66.8679 46.3006 66.7749 46.5205ZM32.9814 44.3569C32.9182 44.1282 32.8588 43.8973 32.8041 43.6643L33.4835 43.5047C33.5361 43.7284 33.5926 43.9499 33.6541 44.1697L32.9814 44.3569ZM67.7519 43.4572L67.0707 43.3048C67.1204 43.0825 67.1654 42.8584 67.2061 42.6322L67.8932 42.7561C67.8508 42.9912 67.8037 43.225 67.7519 43.4572ZM32.406 41.1977C32.3848 40.9613 32.3678 40.7237 32.3555 40.4848L33.0527 40.4495C33.0642 40.6787 33.0803 40.9074 33.1011 41.1345L32.406 41.1977ZM68.1636 40.2721L67.4663 40.2445C67.4752 40.0166 67.4794 39.7879 67.4794 39.5579L67.479 39.4862H68.1771L68.1776 39.5528C68.1776 39.7972 68.1733 40.0353 68.1636 40.2721ZM33.0952 38.0475L32.4 37.9864C32.4208 37.7487 32.4459 37.5115 32.476 37.2763L33.1686 37.3642C33.1397 37.5908 33.1151 37.8183 33.0952 38.0475ZM67.3046 37.0922C67.2719 36.8651 67.235 36.6389 67.1934 36.4144L67.8796 36.2875C67.9225 36.5209 67.9615 36.756 67.9955 36.9924L67.3046 37.0922ZM33.6367 35.0092L32.9632 34.8251C33.0264 34.5946 33.0935 34.3659 33.1656 34.1392L33.8311 34.3506C33.7619 34.5683 33.6974 34.7877 33.6367 35.0092ZM66.5942 34.0892C66.5212 33.8719 66.4443 33.6563 66.3629 33.4424L67.0151 33.1945C67.0996 33.4169 67.1802 33.641 67.2558 33.8676L66.5942 34.0892ZM34.7159 32.1162L34.0861 31.8144C34.1897 31.5988 34.2971 31.3854 34.4091 31.1749L35.0253 31.5029C34.9179 31.7045 34.8148 31.9095 34.7159 32.1162ZM65.3549 31.2644C65.2446 31.0641 65.1304 30.8659 65.0124 30.6707L65.6104 30.31C65.7331 30.5132 65.8519 30.7195 65.9665 30.9279L65.3549 31.2644ZM36.296 29.4637L35.7307 29.0538C35.8707 28.8607 36.0142 28.6705 36.1614 28.4834L36.7102 28.9154C36.5688 29.0949 36.4309 29.2778 36.296 29.4637ZM63.6327 28.7066C63.488 28.5288 63.3403 28.3539 63.1888 28.182L63.713 27.7212C63.8696 27.8994 64.0236 28.081 64.1738 28.2657L63.6327 28.7066ZM38.3233 27.1346L37.8399 26.6313C38.0118 26.4662 38.1866 26.3045 38.3649 26.1467L38.8279 26.6691C38.6564 26.8206 38.4884 26.9759 38.3233 27.1346ZM61.4806 26.493C61.3071 26.3436 61.1301 26.198 60.951 26.0554L61.3847 25.5088C61.5715 25.6569 61.7552 25.8084 61.936 25.9638L61.4806 26.493ZM40.7308 25.2032L40.3442 24.6222C40.542 24.4907 40.7427 24.3629 40.9464 24.239L41.3089 24.8353C41.1136 24.9541 40.921 25.0768 40.7308 25.2032ZM58.9691 24.6965C58.7722 24.5807 58.5719 24.4686 58.3694 24.3604L58.6988 23.7446C58.9093 23.8571 59.1176 23.9742 59.323 24.0947L58.9691 24.6965ZM43.4419 23.7331L43.1652 23.0919C43.3829 22.9981 43.6027 22.9086 43.8251 22.8228L44.0759 23.4743C43.8624 23.5566 43.6507 23.6428 43.4419 23.7331ZM56.1766 23.3779C55.9614 23.2994 55.7446 23.2247 55.5252 23.1543L55.7386 22.4897C55.9665 22.5627 56.1927 22.6403 56.4164 22.7227L56.1766 23.3779ZM46.3719 22.7723L46.2153 22.092C46.4466 22.0385 46.68 21.9897 46.9151 21.9456L47.0441 22.6318C46.8188 22.6743 46.5947 22.721 46.3719 22.7723ZM53.1931 22.5822C52.9686 22.5436 52.742 22.5096 52.5141 22.4795L52.6049 21.7873C52.8422 21.8187 53.0777 21.8539 53.3111 21.8943L53.1931 22.5822ZM49.4296 22.3522L49.3969 21.6549C49.6337 21.6439 49.8718 21.6371 50.1112 21.6354L50.1167 22.3335C49.8867 22.3352 49.6579 22.3416 49.4296 22.3522Z" fill="#37474F"/>
<path d="M47.8497 49.2579H52.6843V41.9669H59.9758V37.1322H52.6843V29.8407H47.8497V37.1322H40.5586V41.9669H47.8497V49.2579Z" fill="#37474F"/>
<path d="M137.687 192.924C138.526 193.195 162.439 192.885 163.341 192.294C163.688 192.076 163.846 188.588 163.916 184.37C163.916 184.326 164.312 168.785 164.312 168.785L149.007 168.945L148.496 184.527C148.496 184.527 139.396 188.74 138.472 189.494C137.555 190.245 136.848 192.657 137.687 192.924Z" fill="#D3766A"/>
<path d="M163.858 187.031C163.765 189.972 163.612 192.124 163.345 192.294C162.441 192.884 138.526 193.194 137.69 192.926C136.85 192.659 137.555 190.244 138.471 189.493C138.959 189.098 141.722 187.736 144.222 186.543C141.476 188.372 138.526 191.063 163.858 187.031Z" fill="#263238"/>
<path d="M145.297 186.163C145.36 186.144 145.392 186.126 145.396 186.108C145.396 186.108 145.359 186.126 145.297 186.163Z" fill="#FFC727"/>
<path d="M169.217 99.9005C169.217 99.9005 165.319 140.403 164.734 143.487C164.598 144.189 164.37 183.103 164.37 183.103L148.045 182.854C148.045 182.854 148.785 149.381 149.531 143.22C150.278 137.056 154.623 99.9005 154.623 99.9005H169.217Z" fill="#37474F"/>
<path d="M163.867 179.7C163.386 179.617 162.882 179.615 162.394 179.592C161.903 179.57 161.411 179.544 160.92 179.525C159.954 179.488 158.988 179.445 158.022 179.412C156.055 179.343 154.088 179.278 152.121 179.205C151.014 179.165 149.906 179.163 148.799 179.174C148.756 179.174 148.754 179.235 148.796 179.24C152.709 179.634 156.662 179.717 160.592 179.813C161.154 179.826 161.717 179.834 162.279 179.842C162.808 179.848 163.352 179.878 163.878 179.818C163.952 179.809 163.927 179.71 163.867 179.7Z" fill="#263238"/>
<path d="M167.012 101.685C165.821 111.561 164.631 121.439 163.645 131.339C163.156 136.248 162.697 141.164 162.392 146.088C162.084 151.053 161.963 156.022 161.894 160.994C161.817 166.614 161.685 172.239 161.774 177.859C161.775 177.913 161.854 177.909 161.857 177.857C162.345 167.924 162.206 157.97 162.732 148.037C163.26 138.095 164.338 128.205 165.431 118.313C166.043 112.779 166.617 107.243 167.189 101.705C167.198 101.605 167.024 101.585 167.012 101.685Z" fill="#263238"/>
<path d="M170.855 194.686C171.734 194.75 194.891 188.774 195.627 187.986C195.913 187.692 195.238 184.267 194.305 180.152C194.295 180.109 189.435 165.416 189.435 165.416L174.605 169.204L179.363 183.964C179.363 183.964 171.523 190.216 170.804 191.168C170.091 192.115 169.977 194.626 170.855 194.686Z" fill="#D3766A"/>
<path d="M194.879 182.751C195.487 185.63 195.849 187.757 195.629 187.985C194.891 188.773 171.733 194.749 170.858 194.688C169.978 194.628 170.089 192.115 170.801 191.167C171.182 190.668 173.542 188.689 175.687 186.938C173.455 189.366 171.228 192.68 194.879 182.751Z" fill="#263238"/>
<path d="M178.381 182.694L195.009 178.071C195.009 178.071 182.538 146.488 181.839 144.326C181.332 142.755 177.228 123.595 175.787 115.225C175.787 115.225 177.941 109.115 173.115 99.8867H154.625C154.625 99.8867 155.319 109.455 157.539 115.023C157.539 115.023 158.633 115.04 161.153 115.725C161.153 115.725 166.876 146.166 167.748 148.898C169.632 154.81 178.381 182.694 178.381 182.694Z" fill="#37474F"/>
<path d="M164.524 132.24C163.858 128.71 163.199 125.179 162.538 121.648C162.351 120.651 162.142 119.659 161.935 118.666C161.73 117.681 161.551 116.671 161.266 115.707C161.248 115.645 161.149 115.659 161.152 115.725C161.206 116.626 161.372 117.525 161.491 118.42C161.607 119.29 161.74 120.161 161.888 121.026C162.192 122.805 162.523 124.58 162.86 126.353C163.534 129.893 164.205 133.444 165.028 136.952C165.491 138.927 165.923 140.909 166.414 142.878C166.424 142.92 166.484 142.899 166.477 142.859C165.859 139.313 165.192 135.776 164.524 132.24Z" fill="#263238"/>
<path d="M160.628 111.796C160.877 111.179 160.679 110.469 160.567 109.844C160.424 109.05 160.285 108.255 160.138 107.462C159.808 105.671 159.444 103.887 159.06 102.108C159.056 102.089 159.025 102.094 159.028 102.113C159.202 103.537 159.394 104.958 159.601 106.377C159.809 107.804 160.084 109.226 160.259 110.657C160.316 111.12 160.277 112.032 159.606 112.036C159.041 112.039 158.698 111.192 158.516 110.774C157.977 109.535 157.756 108.167 157.482 106.852C157.154 105.277 156.887 103.69 156.612 102.106C156.603 102.052 156.515 102.067 156.518 102.121C156.613 103.697 156.818 105.256 157.073 106.814C157.315 108.294 157.547 109.851 158.169 111.227C158.403 111.744 158.73 112.38 159.327 112.542C159.415 112.566 159.5 112.573 159.584 112.573C159.636 113.046 159.707 113.514 159.805 113.98C159.906 114.462 160.008 114.959 160.181 115.42C160.205 115.483 160.294 115.459 160.29 115.402C160.291 115.402 160.292 115.402 160.293 115.402C160.271 114.918 160.169 114.431 160.077 113.956C159.986 113.485 159.866 113.023 159.726 112.564C160.131 112.503 160.469 112.19 160.628 111.796Z" fill="#263238"/>
<path d="M163.728 116.417C162.808 115.989 161.787 115.67 160.795 115.444C159.792 115.215 158.861 115.122 157.842 115.04C157.805 115.037 157.798 115.099 157.835 115.105C158.823 115.258 162.733 116.219 163.711 116.462C163.737 116.469 163.755 116.429 163.728 116.417Z" fill="#263238"/>
<path d="M187.844 166.977C186.96 164.627 186.075 162.276 185.188 159.927C183.428 155.268 181.618 150.629 179.868 145.966C178.139 141.361 177.4 136.465 176.455 131.649C175.973 129.194 175.498 126.738 175.013 124.285C174.532 121.855 173.951 119.418 173.667 116.954C173.389 114.543 173.75 112.13 173.538 109.72C173.348 107.565 172.767 105.459 171.838 103.514C171.602 103.02 171.34 102.539 171.057 102.07C171.024 102.015 170.943 102.066 170.973 102.123C172.052 104.138 172.782 106.319 173.109 108.591C173.271 109.717 173.318 110.848 173.288 111.984C173.257 113.201 173.17 114.418 173.228 115.635C173.344 118.067 173.909 120.464 174.374 122.845C174.849 125.276 175.332 127.706 175.811 130.136C176.294 132.59 176.78 135.043 177.26 137.498C177.727 139.887 178.206 142.272 178.98 144.582C179.757 146.9 180.666 149.176 181.532 151.46C182.423 153.809 183.31 156.159 184.209 158.504C185.997 163.175 187.749 167.862 189.618 172.5C189.836 173.04 190.057 173.576 190.293 174.109C190.325 174.18 190.437 174.125 190.414 174.053C189.653 171.663 188.726 169.324 187.844 166.977Z" fill="#263238"/>
<path d="M193.021 175.245C192.536 175.306 192.053 175.449 191.58 175.57C191.103 175.691 190.626 175.809 190.15 175.934C189.215 176.179 188.278 176.418 187.344 176.666C185.442 177.172 183.541 177.68 181.638 178.183C180.567 178.465 179.506 178.786 178.45 179.117C178.409 179.13 178.424 179.19 178.466 179.181C182.325 178.422 186.132 177.354 189.92 176.304C190.462 176.154 191.003 175.998 191.543 175.842C192.051 175.695 192.58 175.565 193.066 175.355C193.133 175.326 193.081 175.238 193.021 175.245Z" fill="#263238"/>
<path d="M148.574 88.081C148.777 88.1302 149.729 88.364 151.119 88.7091C151.805 87.9269 152.729 86.478 152.977 84.1918C153.015 83.8129 153.418 86.1288 152.411 89.0291C155.098 89.6928 158.753 90.5934 161.953 91.3501C162.292 90.1104 162.664 88.9769 162.664 88.9769C162.573 89.9046 162.586 90.7623 162.648 91.5173C163.085 91.6242 163.515 91.7206 163.926 91.8169C164.264 89.8503 165.347 86.5336 165.347 86.5336C165.115 88.9561 165.451 91.0063 165.748 92.2366C167.784 92.6954 169.132 92.9606 169.067 92.8448C166.768 88.6263 169.477 87.0913 169.291 83.7836C169.066 79.8197 165.981 78.5143 166.698 75.7337C167.275 73.47 168.476 69.3967 165.792 67.8744C165.792 67.8744 164.018 64.7895 160.027 65.3862C155.089 66.12 155.332 73.5498 154.704 74.9108C153.809 76.8558 152.677 77.36 151.435 79.5286C150.171 81.7219 150.898 83.5251 150.665 85.151C150.426 86.7747 148.063 87.9626 148.574 88.081Z" fill="#263238"/>
<path d="M169.269 92.3611C168.998 91.6387 168.779 90.8922 168.722 90.1457C168.643 89.3992 168.902 88.71 169.205 88.0068C169.507 87.3074 169.84 86.5978 170.08 85.8377C170.31 85.0789 170.462 84.2611 170.376 83.4408C170.303 82.6221 170.016 81.8298 169.597 81.1465C169.186 80.4552 168.671 79.858 168.176 79.272C167.689 78.6812 167.202 78.0968 166.89 77.4135C166.566 76.7379 166.449 75.9664 166.525 75.1948C166.327 75.9426 166.355 76.7685 166.629 77.5196C166.896 78.2746 167.355 78.9358 167.817 79.5554C168.278 80.1789 168.748 80.7794 169.109 81.4279C169.466 82.0755 169.713 82.7723 169.767 83.4951C169.824 84.2165 169.723 84.9503 169.51 85.6663C169.306 86.3865 169.008 87.0897 168.742 87.8243C168.612 88.1931 168.485 88.57 168.411 88.9693C168.333 89.3691 168.344 89.7939 168.411 90.1848C168.561 90.9699 168.868 91.6977 169.269 92.3611Z" fill="#263238"/>
<path d="M156.874 67.4311C156.328 68.2166 155.988 69.1244 155.651 70.0139C155.331 70.9132 155.054 71.8252 154.789 72.7364L154.384 74.0945C154.248 74.5481 154.093 74.9683 153.883 75.3672C153.468 76.171 152.825 76.8093 152.118 77.4467C151.771 77.7731 151.417 78.1139 151.104 78.4992C150.791 78.8833 150.515 79.303 150.296 79.7486C150.088 80.2027 149.916 80.6543 149.78 81.1262C149.642 81.5969 149.56 82.0913 149.54 82.5836C149.517 83.0772 149.552 83.5563 149.566 84.0214C149.582 84.4861 149.555 84.953 149.482 85.4062C149.354 86.3081 148.688 87.0898 147.842 87.5108C148.743 87.215 149.526 86.4468 149.771 85.4686C149.89 84.9929 149.946 84.5091 149.966 84.0252C149.989 83.5419 149.971 83.0708 150.019 82.6171C150.102 81.7149 150.417 80.8245 150.818 80.0105C151.032 79.6116 151.278 79.2326 151.57 78.8854C151.859 78.5357 152.193 78.2191 152.541 77.8991C152.884 77.5753 153.241 77.2439 153.566 76.8696C153.889 76.4957 154.183 76.0832 154.405 75.6346C154.624 75.1864 154.782 74.7069 154.904 74.2473C155.034 73.7851 155.145 73.3225 155.255 72.8608C155.481 71.9386 155.692 71.0159 155.941 70.1039C156.179 69.1893 156.452 68.2837 156.874 67.4311Z" fill="#263238"/>
<path d="M161.458 84.3667C158.712 88.143 152.642 97.8229 147.987 98.1701C144.229 98.4502 136.265 90.7941 134.188 88.7333C132.833 87.3897 139.446 79.0873 140.911 80.4335C142.802 82.1701 147.452 88.3564 148.449 88.3564C149.003 88.3564 152.328 86.3508 158.779 82.0266C161.285 80.3473 163.097 82.1124 161.458 84.3667Z" fill="#D3766A"/>
<path d="M129.161 84.9733C130.489 86.8182 134.679 89.5296 135.941 89.7948C137.204 90.0601 142.05 83.0895 141.653 81.8269C141.256 80.5639 136.306 74.6984 134.072 74.0754C131.838 73.4524 127.786 83.0619 129.161 84.9733Z" fill="#D3766A"/>
<path d="M129.731 96.8481L131.209 97.293L148.577 39.6088L147.1 39.1639L129.731 96.8481Z" fill="#A6A6A6"/>
<path d="M147.688 35.9832L149.831 36.6287L151.131 30.7505L149.849 30.3643L147.688 35.9832Z" fill="#DBDBDB"/>
<path d="M123.046 103.743C127.009 104.937 130.012 102.478 130.929 99.4327L132.104 95.5279L129.95 94.8794L128.774 98.7838C128.33 100.26 126.759 102.511 123.694 101.588C120.98 100.771 120.915 97.8052 121.309 96.4968L122.42 92.8071L120.265 92.1582L119.154 95.8479C118.85 96.855 118.72 98.4978 119.261 100.088C119.886 101.922 121.194 103.186 123.046 103.743Z" fill="#263238"/>
<path d="M111.125 45.1395C111.125 45.1395 116.628 44.4113 119.607 45.3959C122.578 46.386 127.431 50.0489 127.431 50.0489C127.431 50.0489 132.976 49.6037 136.072 50.4482C139.17 51.2856 143.195 54.7953 143.195 54.7953C143.195 54.7953 148.489 54.0917 151.534 55.1038C154.582 56.1088 158.953 59.5396 158.953 59.5396C158.953 59.5396 165.021 59.1644 168.051 59.9814C171.079 60.8055 175.265 64.4511 175.265 64.4511C173.273 53.0065 164.488 39.4378 149.204 34.8357C133.92 30.2336 119.098 36.6954 111.125 45.1395Z" fill="#455A64"/>
<path d="M111.127 45.1397C112.552 44.2171 113.991 43.3161 115.452 42.4525C116.906 41.5799 118.376 40.7332 119.868 39.9299C122.851 38.3282 125.891 36.8017 129.088 35.7152C130.681 35.1639 132.313 34.72 133.987 34.5821C135.67 34.4102 137.363 34.3512 139.056 34.3101C140.749 34.2778 142.444 34.3105 144.137 34.4017C145.83 34.4798 147.522 34.6228 149.206 34.8359C145.862 34.2328 142.456 33.9841 139.054 33.9616C137.351 33.9472 135.647 34.0228 133.95 34.173C132.235 34.3016 130.556 34.7404 128.943 35.2908C127.329 35.8523 125.76 36.5267 124.224 37.2617C122.689 37.998 121.175 38.7793 119.702 39.6298C116.746 41.3142 113.876 43.1438 111.127 45.1397Z" fill="#37474F"/>
<path d="M127.438 50.051C128.048 49.0719 128.686 48.1124 129.367 47.1842C130.036 46.2484 130.736 45.3352 131.475 44.4562C132.958 42.7154 134.538 41.0051 136.402 39.7137C138.28 38.4244 140.418 37.5344 142.573 36.7535C143.653 36.3622 144.751 36.0181 145.859 35.7036C146.963 35.3776 148.08 35.0946 149.205 34.8361C146.92 35.1739 144.667 35.7206 142.462 36.428C140.263 37.1457 138.102 38.0488 136.149 39.3423C135.669 39.6725 135.196 40.0336 134.771 40.4292C134.332 40.8111 133.916 41.2173 133.505 41.6272C132.695 42.4599 131.917 43.3218 131.206 44.2373C129.783 46.0651 128.497 47.9982 127.438 50.051Z" fill="#37474F"/>
<path d="M143.197 54.7955C143.787 53.1591 144.33 51.5082 144.865 49.8552C145.401 48.2026 145.899 46.5381 146.417 44.8804C146.901 43.2122 147.403 41.5494 147.87 39.8756L148.561 37.3623C148.775 36.5199 149.005 35.6817 149.206 34.8355C148.907 35.6525 148.636 36.4779 148.349 37.2987L147.538 39.7754C147.003 41.4284 146.504 43.0921 145.986 44.7506C145.503 46.4193 144.999 48.0816 144.534 49.7554C144.068 51.4297 143.609 53.1052 143.197 54.7955Z" fill="#37474F"/>
<path d="M175.266 64.4512C174.075 61.2691 172.692 58.1591 171.158 55.123C170.4 53.6007 169.57 52.1137 168.696 50.6516C167.821 49.1909 166.885 47.7624 165.849 46.4026C164.807 45.0535 163.651 43.7608 162.291 42.7062C160.959 41.6439 159.58 40.6402 158.153 39.7121C155.303 37.852 152.327 36.179 149.205 34.8354C150.727 35.5878 152.217 36.4027 153.672 37.2727C155.133 38.1312 156.565 39.0398 157.959 40.0015C159.347 40.97 160.726 41.9541 162.034 43.0266C163.354 44.0659 164.47 45.3374 165.493 46.6764C167.559 49.3475 169.251 52.2991 170.854 55.2813C171.655 56.7752 172.413 58.2924 173.144 59.8232C173.885 61.3493 174.587 62.8945 175.266 64.4512Z" fill="#37474F"/>
<path d="M158.954 59.54C159.204 57.2436 159.199 54.9217 159.023 52.6122C158.935 51.4566 158.762 50.3082 158.547 49.167C158.43 48.5979 158.307 48.03 158.152 47.4686C158.016 46.9041 157.822 46.3422 157.603 45.802C156.688 43.6448 155.385 41.6985 153.948 39.8864C152.5 38.0793 150.923 36.3792 149.205 34.8361C150 35.6726 150.775 36.5252 151.516 37.4071C152.266 38.2805 152.991 39.1738 153.676 40.0965C155.041 41.937 156.332 43.8595 157.187 45.9722C158.028 48.078 158.401 50.3761 158.676 52.6462C158.807 53.7869 158.886 54.9349 158.927 56.0846C158.983 57.2343 158.986 58.3865 158.954 59.54Z" fill="#37474F"/>
<path d="M136.066 75.3213C136.458 76.4599 134.892 76.2707 134.892 76.2707C134.892 76.2707 137.081 77.0863 137.032 78.4164C136.981 79.6985 135.097 79.4031 134.962 79.384C135.077 79.4281 137.069 80.2302 136.882 81.5616C136.686 82.9455 134.846 82.3246 134.727 82.2839C134.823 82.3598 136.074 83.3847 135.702 84.3642C135.061 86.047 131.79 83.5138 130.353 83.7582C130.353 83.7582 130.489 86.2409 130.478 86.3139C130.478 86.3139 127.317 83.9679 127.095 82.011C126.979 80.9797 127.917 80.6669 127.917 80.6669C127.917 80.6669 126.814 80.0231 126.928 78.9702C126.988 78.43 127.906 78.045 127.906 78.045C127.906 78.045 127.044 77.4929 127.204 76.5622C127.33 75.8191 128.231 75.5492 128.231 75.5492C128.231 75.5492 127.65 74.6351 128.024 73.9178C128.777 72.4694 135.223 72.8844 136.066 75.3213Z" fill="#D3766A"/>
<path d="M128.366 75.4848C128.345 75.4853 128.34 75.4551 128.362 75.4513C130.515 75.0706 132.998 75.3121 134.977 76.2725C135.042 76.3039 135.019 76.4232 134.941 76.4019C132.712 75.8019 130.686 75.4475 128.366 75.4848Z" fill="#263238"/>
<path d="M127.875 78.0303C127.85 78.0307 127.848 77.9891 127.875 77.9844C130.096 77.6037 132.885 77.953 135.035 79.3285C135.109 79.3756 135.128 79.4919 135.039 79.4443C133.539 78.638 129.962 77.9857 127.875 78.0303Z" fill="#263238"/>
<path d="M134.844 82.4316C132.731 81.1924 130.433 80.7552 128.008 80.6453C127.977 80.644 127.982 80.5995 128.008 80.5935C129.209 80.3241 130.747 80.5549 131.929 80.8363C133.061 81.1058 134.028 81.576 134.887 82.3577C134.921 82.3879 134.889 82.4579 134.844 82.4316Z" fill="#263238"/>
<path d="M134.892 76.2706C135.298 76.4688 135.688 76.6971 136.046 76.9632C136.398 77.2293 136.736 77.5485 136.89 77.9351C136.965 78.1261 136.977 78.3311 136.908 78.5165C136.836 78.7041 136.721 78.8832 136.568 79.0075C136.265 79.2639 135.808 79.3165 135.421 79.2507L134.448 79.0852L135.305 79.5792C135.679 79.7948 136.043 80.0753 136.325 80.3991C136.607 80.7217 136.802 81.1176 136.748 81.5021C136.699 81.9049 136.439 82.2087 136.042 82.2647C135.653 82.3365 135.195 82.2465 134.802 82.103L133.702 81.7033L134.606 82.4375C134.851 82.6365 135.088 82.8801 135.275 83.1381C135.461 83.397 135.605 83.6898 135.611 83.9759C135.618 84.2564 135.47 84.5437 135.228 84.6596C134.975 84.7852 134.633 84.772 134.311 84.7275C133.654 84.6286 133.009 84.3876 132.358 84.1804C132.032 84.0739 131.705 83.9666 131.373 83.8753C131.044 83.7904 130.696 83.6975 130.354 83.7578C130.698 83.7336 131.024 83.8609 131.345 83.9657C131.665 84.0811 131.981 84.2119 132.297 84.343C132.93 84.6048 133.57 84.8616 134.263 85.0059C134.608 85.0653 134.985 85.1175 135.366 84.9592C135.758 84.7928 135.976 84.3697 135.97 83.9721C135.965 83.5663 135.784 83.2183 135.582 82.9213C135.37 82.6229 135.13 82.367 134.848 82.1298L134.653 82.4642C135.116 82.6369 135.593 82.7494 136.117 82.6696C136.374 82.6289 136.645 82.5003 136.829 82.2851C137.016 82.0699 137.109 81.8119 137.141 81.5484C137.204 81.0005 136.927 80.5061 136.606 80.1517C136.275 79.7876 135.896 79.5049 135.47 79.2673L135.353 79.5957C135.848 79.6628 136.37 79.5673 136.755 79.2202C136.943 79.0474 137.067 78.8272 137.145 78.5908C137.224 78.3472 137.192 78.073 137.091 77.8506C136.879 77.4008 136.492 77.1135 136.115 76.8643C135.73 76.6191 135.318 76.423 134.892 76.2706Z" fill="#263238"/>
<path d="M141.368 81.3819C141.368 81.3819 136.475 70.6126 133.956 73.9695C133.207 74.9668 131.324 79.9568 132.319 80.3545C133.603 80.868 134.778 78.9319 135.323 77.5993C135.323 77.5993 136.401 80.7313 138.806 80.6308C140.313 80.568 141.368 81.3819 141.368 81.3819Z" fill="#D3766A"/>
<path d="M134.185 73.7039C133.831 74.0455 133.576 74.4758 133.337 74.9036C133.098 75.3348 132.901 75.7872 132.724 76.2455C132.378 77.169 132.064 78.0925 131.88 79.0796C131.837 79.3279 131.804 79.5825 131.834 79.8622C131.849 80.0006 131.887 80.1533 131.97 80.2891C132.01 80.3575 132.052 80.4126 132.127 80.4797C132.196 80.534 132.266 80.5769 132.338 80.6036C132.628 80.7241 132.934 80.6961 133.199 80.6113C133.462 80.5166 133.688 80.3677 133.891 80.2005C134.292 79.8601 134.588 79.4412 134.839 79.0088C135.095 78.5772 135.295 78.1222 135.483 77.6647L135.163 77.6516C135.301 78.0148 135.471 78.3429 135.668 78.6642C135.864 78.9833 136.091 79.2842 136.348 79.5571C136.608 79.8278 136.906 80.0625 137.232 80.245C137.556 80.43 137.914 80.5502 138.279 80.5985C137.925 80.5009 137.591 80.3481 137.294 80.1436C136.996 79.9407 136.74 79.6857 136.509 79.4124C136.279 79.1382 136.079 78.839 135.909 78.5237C135.74 78.2105 135.591 77.8748 135.488 77.5463L135.356 77.1283L135.168 77.5331C134.965 77.9694 134.764 78.4074 134.507 78.8076C134.257 79.2082 133.98 79.5999 133.629 79.8868C133.291 80.169 132.843 80.3698 132.494 80.2259C132.177 80.1262 132.193 79.5902 132.262 79.1386C132.331 78.6701 132.45 78.1994 132.568 77.7301C132.689 77.2598 132.815 76.7913 132.965 76.3304C133.281 75.4209 133.597 74.4869 134.185 73.7039Z" fill="#263238"/>
<path d="M141.833 80.9009L135.207 90.6742C135.207 90.6742 144.487 98.6901 148.261 98.6613C152.036 98.6324 157.606 90.1174 160.449 86.4485C163.458 82.5662 162.742 79.2428 157.864 82.2067C152.98 85.1754 148.766 87.852 148.574 87.8872C148.382 87.922 141.833 80.9009 141.833 80.9009Z" fill="#FFC727"/>
<path d="M160.391 81.3787C160.391 81.5357 160.264 81.6588 160.107 81.6588C159.954 81.6588 159.827 81.5357 159.827 81.3787C159.827 81.3362 159.835 81.2938 159.856 81.2556C159.997 81.2089 160.132 81.175 160.264 81.1453C160.34 81.1962 160.391 81.2853 160.391 81.3787ZM138.339 87.4029C138.184 87.4029 138.058 87.529 138.058 87.6843C138.058 87.8396 138.184 87.9652 138.339 87.9652C138.494 87.9652 138.62 87.8392 138.62 87.6843C138.62 87.529 138.494 87.4029 138.339 87.4029ZM142.693 87.4029C142.537 87.4029 142.411 87.529 142.411 87.6843C142.411 87.8396 142.537 87.9652 142.693 87.9652C142.848 87.9652 142.974 87.8392 142.974 87.6843C142.974 87.529 142.848 87.4029 142.693 87.4029ZM147.047 87.4029C146.891 87.4029 146.765 87.529 146.765 87.6843C146.765 87.8396 146.891 87.9652 147.047 87.9652C147.202 87.9652 147.328 87.8392 147.328 87.6843C147.328 87.529 147.202 87.4029 147.047 87.4029ZM151.4 87.4029C151.245 87.4029 151.119 87.529 151.119 87.6843C151.119 87.8396 151.245 87.9652 151.4 87.9652C151.556 87.9652 151.681 87.8392 151.681 87.6843C151.681 87.529 151.556 87.4029 151.4 87.4029ZM155.754 87.4029C155.599 87.4029 155.473 87.529 155.473 87.6843C155.473 87.8396 155.599 87.9652 155.754 87.9652C155.91 87.9652 156.036 87.8392 156.036 87.6843C156.035 87.529 155.91 87.4029 155.754 87.4029ZM140.516 84.147C140.361 84.147 140.235 84.273 140.235 84.4284C140.235 84.5837 140.361 84.7093 140.516 84.7093C140.671 84.7093 140.797 84.5833 140.797 84.4284C140.797 84.2726 140.671 84.147 140.516 84.147ZM144.888 84.1457H144.871C144.714 84.1457 144.587 84.273 144.587 84.4301C144.587 84.5828 144.714 84.7102 144.871 84.7102C145.024 84.7102 145.151 84.5828 145.151 84.4301V84.4258C145.062 84.3324 144.973 84.2391 144.888 84.1457ZM157.931 84.147C157.776 84.147 157.65 84.273 157.65 84.4284C157.65 84.5837 157.776 84.7093 157.931 84.7093C158.086 84.7093 158.212 84.5833 158.212 84.4284C158.212 84.2726 158.086 84.147 157.931 84.147ZM136.162 90.4518C136.007 90.4518 135.881 90.5778 135.881 90.7327C135.881 90.888 136.007 91.0141 136.162 91.0141C136.318 91.0141 136.444 90.888 136.444 90.7327C136.443 90.5778 136.318 90.4518 136.162 90.4518ZM142.693 93.7081C142.537 93.7081 142.411 93.8342 142.411 93.9891C142.411 94.1444 142.537 94.2704 142.693 94.2704C142.848 94.2704 142.974 94.1444 142.974 93.9891C142.974 93.8342 142.848 93.7081 142.693 93.7081ZM147.047 93.7081C146.891 93.7081 146.765 93.8342 146.765 93.9891C146.765 94.1444 146.891 94.2704 147.047 94.2704C147.202 94.2704 147.328 94.1444 147.328 93.9891C147.328 93.8342 147.202 93.7081 147.047 93.7081ZM151.4 93.7081C151.245 93.7081 151.119 93.8342 151.119 93.9891C151.119 94.1444 151.245 94.2704 151.4 94.2704C151.556 94.2704 151.681 94.1444 151.681 93.9891C151.681 93.8342 151.556 93.7081 151.4 93.7081ZM140.516 90.4518C140.361 90.4518 140.235 90.5778 140.235 90.7327C140.235 90.888 140.361 91.0141 140.516 91.0141C140.671 91.0141 140.797 90.888 140.797 90.7327C140.797 90.5778 140.671 90.4518 140.516 90.4518ZM144.87 90.4518C144.715 90.4518 144.589 90.5778 144.589 90.7327C144.589 90.888 144.715 91.0141 144.87 91.0141C145.025 91.0141 145.151 90.888 145.151 90.7327C145.151 90.5778 145.025 90.4518 144.87 90.4518ZM149.223 90.4518C149.068 90.4518 148.942 90.5778 148.942 90.7327C148.942 90.888 149.068 91.0141 149.223 91.0141C149.378 91.0141 149.505 90.888 149.505 90.7327C149.505 90.5778 149.379 90.4518 149.223 90.4518ZM153.577 90.4518C153.422 90.4518 153.296 90.5778 153.296 90.7327C153.296 90.888 153.422 91.0141 153.577 91.0141C153.732 91.0141 153.858 90.888 153.858 90.7327C153.859 90.5778 153.732 90.4518 153.577 90.4518ZM144.87 96.7569C144.715 96.7569 144.589 96.883 144.589 97.0383C144.589 97.1937 144.715 97.3193 144.87 97.3193C145.025 97.3193 145.151 97.1932 145.151 97.0383C145.151 96.8826 145.025 96.7569 144.87 96.7569ZM149.223 96.7569C149.068 96.7569 148.942 96.883 148.942 97.0383C148.942 97.1937 149.068 97.3193 149.223 97.3193C149.378 97.3193 149.505 97.1932 149.505 97.0383C149.505 96.8826 149.379 96.7569 149.223 96.7569Z" fill="white"/>
<path d="M140.819 87.7422C141.324 87.0144 143.292 84.087 143.696 83.3129C143.708 83.2899 143.669 83.2713 143.654 83.2882C143.067 83.9448 141.012 86.837 140.51 87.5665C139.505 89.0239 138.472 90.4758 137.602 92.0231C137.584 92.0549 137.63 92.0918 137.655 92.063C138.801 90.6981 139.802 89.2064 140.819 87.7422Z" fill="#263238"/>
<path opacity="0.1" d="M160.451 86.4502C157.607 90.1169 152.035 98.6345 148.262 98.66C147.473 98.6642 146.446 98.3204 145.312 97.773L160.226 81.1538C162.882 80.5469 162.878 83.3139 160.451 86.4502Z" fill="black"/>
<path d="M153.674 103.721L175.586 104.487C175.586 104.487 170.151 86.1914 165.586 81.3143C163.509 79.0951 161.479 79.4342 159.759 80.8619C159.329 81.2188 154.008 87.973 153.557 90.3271C153.158 92.4075 154.85 94.7166 154.85 94.7166L153.674 103.721Z" fill="#FFC727"/>
<path d="M161.317 94.5817C160.387 94.5096 159.448 94.4684 158.516 94.5346C158.052 94.5677 157.594 94.622 157.133 94.6861C156.904 94.718 156.675 94.7421 156.444 94.7655C156.208 94.7892 155.956 94.8054 155.72 94.7702C155.699 94.7672 155.694 94.7986 155.714 94.8028C155.941 94.8508 156.159 94.8958 156.391 94.9132C156.612 94.9297 156.836 94.9225 157.057 94.9089C157.527 94.8801 157.996 94.8291 158.466 94.7952C159.415 94.7269 160.363 94.659 161.314 94.6594C161.358 94.6594 161.361 94.5851 161.317 94.5817Z" fill="#263238"/>
<path d="M163.434 95.8046C162.697 95.5915 161.938 95.4107 161.182 95.2826C160.801 95.218 160.42 95.176 160.035 95.1442C159.851 95.1289 159.667 95.117 159.483 95.1073C159.281 95.0962 159.077 95.1128 158.875 95.0992C158.853 95.0979 158.847 95.1298 158.869 95.1319C159.059 95.1506 159.247 95.2006 159.436 95.2304C159.626 95.2601 159.816 95.2885 160.006 95.3182C160.386 95.3776 160.765 95.4413 161.146 95.4973C161.908 95.6093 162.665 95.7286 163.423 95.8669C163.464 95.8746 163.472 95.8156 163.434 95.8046Z" fill="#263238"/>
<path d="M160.388 81.3788C160.388 81.5342 160.262 81.6602 160.107 81.6602C159.952 81.6602 159.826 81.5342 159.826 81.3788C159.826 81.2235 159.952 81.0979 160.107 81.0979C160.262 81.0979 160.388 81.2239 160.388 81.3788ZM164.461 81.0979C164.306 81.0979 164.18 81.2239 164.18 81.3788C164.18 81.5342 164.306 81.6602 164.461 81.6602C164.616 81.6602 164.742 81.5342 164.742 81.3788C164.742 81.2239 164.616 81.0979 164.461 81.0979ZM155.753 87.4027C155.598 87.4027 155.472 87.5287 155.472 87.684C155.472 87.8394 155.598 87.965 155.753 87.965C155.909 87.965 156.035 87.8389 156.035 87.684C156.034 87.5287 155.909 87.4027 155.753 87.4027ZM160.107 87.4027C159.952 87.4027 159.826 87.5287 159.826 87.684C159.826 87.8394 159.952 87.965 160.107 87.965C160.262 87.965 160.388 87.8389 160.388 87.684C160.388 87.5287 160.262 87.4027 160.107 87.4027ZM164.461 87.4027C164.306 87.4027 164.18 87.5287 164.18 87.684C164.18 87.8394 164.306 87.965 164.461 87.965C164.616 87.965 164.742 87.8389 164.742 87.684C164.742 87.5287 164.616 87.4027 164.461 87.4027ZM168.815 87.4027C168.659 87.4027 168.533 87.5287 168.533 87.684C168.533 87.8394 168.659 87.965 168.815 87.965C168.97 87.965 169.096 87.8389 169.096 87.684C169.096 87.5287 168.97 87.4027 168.815 87.4027ZM157.93 84.1467C157.775 84.1467 157.649 84.2728 157.649 84.4281C157.649 84.5834 157.775 84.709 157.93 84.709C158.085 84.709 158.211 84.583 158.211 84.4281C158.211 84.2724 158.085 84.1467 157.93 84.1467ZM162.284 84.1467C162.128 84.1467 162.002 84.2728 162.002 84.4281C162.002 84.5834 162.128 84.709 162.284 84.709C162.439 84.709 162.565 84.583 162.565 84.4281C162.565 84.2724 162.439 84.1467 162.284 84.1467ZM166.638 84.1467C166.482 84.1467 166.356 84.2728 166.356 84.4281C166.356 84.5834 166.482 84.709 166.638 84.709C166.793 84.709 166.919 84.583 166.919 84.4281C166.919 84.2724 166.793 84.1467 166.638 84.1467ZM155.753 93.7079C155.598 93.7079 155.472 93.8339 155.472 93.9888C155.472 94.1441 155.598 94.2702 155.753 94.2702C155.909 94.2702 156.035 94.1441 156.035 93.9888C156.034 93.8339 155.909 93.7079 155.753 93.7079ZM160.107 93.7079C159.952 93.7079 159.826 93.8339 159.826 93.9888C159.826 94.1441 159.952 94.2702 160.107 94.2702C160.262 94.2702 160.388 94.1441 160.388 93.9888C160.388 93.8339 160.262 93.7079 160.107 93.7079ZM164.461 93.7079C164.306 93.7079 164.18 93.8339 164.18 93.9888C164.18 94.1441 164.306 94.2702 164.461 94.2702C164.616 94.2702 164.742 94.1441 164.742 93.9888C164.742 93.8339 164.616 93.7079 164.461 93.7079ZM168.815 93.7079C168.659 93.7079 168.533 93.8339 168.533 93.9888C168.533 94.1441 168.659 94.2702 168.815 94.2702C168.97 94.2702 169.096 94.1441 169.096 93.9888C169.096 93.8339 168.97 93.7079 168.815 93.7079ZM153.574 90.4519C153.562 90.4519 153.549 90.4519 153.536 90.4562C153.507 90.6387 153.498 90.8211 153.498 90.9994C153.519 91.0079 153.549 91.0121 153.574 91.0121C153.731 91.0121 153.859 90.889 153.859 90.732C153.859 90.5792 153.731 90.4519 153.574 90.4519ZM157.93 90.4515C157.775 90.4515 157.649 90.5775 157.649 90.7324C157.649 90.8878 157.775 91.0138 157.93 91.0138C158.085 91.0138 158.211 90.8878 158.211 90.7324C158.211 90.5775 158.085 90.4515 157.93 90.4515ZM162.284 90.4515C162.128 90.4515 162.002 90.5775 162.002 90.7324C162.002 90.8878 162.128 91.0138 162.284 91.0138C162.439 91.0138 162.565 90.8878 162.565 90.7324C162.565 90.5775 162.439 90.4515 162.284 90.4515ZM166.638 90.4515C166.482 90.4515 166.356 90.5775 166.356 90.7324C166.356 90.8878 166.482 91.0138 166.638 91.0138C166.793 91.0138 166.919 90.8878 166.919 90.7324C166.919 90.5775 166.793 90.4515 166.638 90.4515ZM170.716 90.6853C170.711 90.6981 170.711 90.715 170.711 90.732C170.711 90.8296 170.758 90.9103 170.83 90.9612C170.788 90.8721 170.754 90.7787 170.716 90.6853ZM155.753 100.013C155.598 100.013 155.472 100.139 155.472 100.294C155.472 100.449 155.598 100.575 155.753 100.575C155.909 100.575 156.035 100.449 156.035 100.294C156.035 100.139 155.909 100.013 155.753 100.013ZM160.107 100.013C159.952 100.013 159.826 100.139 159.826 100.294C159.826 100.449 159.952 100.575 160.107 100.575C160.262 100.575 160.388 100.449 160.388 100.294C160.388 100.139 160.262 100.013 160.107 100.013ZM164.461 100.013C164.306 100.013 164.18 100.139 164.18 100.294C164.18 100.449 164.306 100.575 164.461 100.575C164.616 100.575 164.742 100.449 164.742 100.294C164.742 100.139 164.616 100.013 164.461 100.013ZM168.815 100.013C168.659 100.013 168.533 100.139 168.533 100.294C168.533 100.449 168.659 100.575 168.815 100.575C168.97 100.575 169.096 100.449 169.096 100.294C169.096 100.139 168.97 100.013 168.815 100.013ZM173.169 100.013C173.013 100.013 172.887 100.139 172.887 100.294C172.887 100.449 173.013 100.575 173.169 100.575C173.324 100.575 173.45 100.449 173.45 100.294C173.45 100.139 173.324 100.013 173.169 100.013ZM157.93 96.7567C157.775 96.7567 157.649 96.8827 157.649 97.0381C157.649 97.1934 157.775 97.319 157.93 97.319C158.085 97.319 158.211 97.193 158.211 97.0381C158.211 96.8823 158.085 96.7567 157.93 96.7567ZM162.284 96.7567C162.128 96.7567 162.002 96.8827 162.002 97.0381C162.002 97.1934 162.128 97.319 162.284 97.319C162.439 97.319 162.565 97.193 162.565 97.0381C162.565 96.8823 162.439 96.7567 162.284 96.7567ZM166.638 96.7567C166.482 96.7567 166.356 96.8827 166.356 97.0381C166.356 97.1934 166.482 97.319 166.638 97.319C166.793 97.319 166.919 97.193 166.919 97.0381C166.919 96.8823 166.793 96.7567 166.638 96.7567ZM170.991 96.7567C170.836 96.7567 170.71 96.8827 170.71 97.0381C170.71 97.1934 170.836 97.319 170.991 97.319C171.147 97.319 171.273 97.193 171.273 97.0381C171.273 96.8823 171.147 96.7567 170.991 96.7567ZM153.753 103.124L153.693 103.6C153.791 103.553 153.859 103.455 153.859 103.341C153.859 103.252 153.816 103.175 153.753 103.124ZM157.93 103.061C157.775 103.061 157.649 103.188 157.649 103.343C157.649 103.498 157.775 103.624 157.93 103.624C158.085 103.624 158.211 103.498 158.211 103.343C158.211 103.188 158.085 103.061 157.93 103.061ZM162.284 103.061C162.128 103.061 162.002 103.188 162.002 103.343C162.002 103.498 162.128 103.624 162.284 103.624C162.439 103.624 162.565 103.498 162.565 103.343C162.565 103.188 162.439 103.061 162.284 103.061ZM166.638 103.061C166.482 103.061 166.356 103.188 166.356 103.343C166.356 103.498 166.482 103.624 166.638 103.624C166.793 103.624 166.919 103.498 166.919 103.343C166.919 103.188 166.793 103.061 166.638 103.061ZM170.991 103.061C170.836 103.061 170.71 103.188 170.71 103.343C170.71 103.498 170.836 103.624 170.991 103.624C171.147 103.624 171.273 103.498 171.273 103.343C171.273 103.188 171.147 103.061 170.991 103.061ZM175.168 103.124C175.104 103.175 175.066 103.256 175.066 103.341C175.066 103.489 175.176 103.612 175.325 103.625C175.278 103.477 175.227 103.307 175.168 103.124Z" fill="white"/>
<path d="M156.332 85.3473C155.862 85.975 155.44 86.6273 155.04 87.297C155.203 86.918 155.357 86.5356 155.491 86.1431C155.496 86.127 155.471 86.1172 155.463 86.1325C155.324 86.41 155.182 86.6867 155.065 86.9749C154.96 87.2333 154.858 87.4918 154.762 87.7532C154.759 87.7579 154.756 87.7626 154.753 87.7672C154.304 88.5579 153.778 89.357 153.552 90.2482C153.351 91.0435 153.388 91.8966 153.603 92.6847C153.715 93.0955 153.881 93.4885 154.077 93.8662C154.246 94.1921 154.436 94.535 154.7 94.7969C154.554 95.6308 154.457 96.4774 154.348 97.3169C154.242 98.1305 154.095 98.9648 154.091 99.7869C154.091 99.8391 154.166 99.8441 154.18 99.7966C154.197 99.7376 154.215 99.6791 154.234 99.6205C154.238 99.609 154.233 99.5997 154.226 99.5925C154.405 98.8358 154.483 98.043 154.587 97.2757C154.695 96.4783 154.897 94.8138 154.898 94.8045C154.901 94.7663 154.518 94.1072 154.368 93.7902C154.185 93.4044 154.039 92.9987 153.928 92.5862C153.718 91.8023 153.662 90.9841 153.88 90.1956C154.113 89.3549 154.582 88.5502 155.004 87.7927C155.455 86.9859 155.919 86.1847 156.385 85.3864C156.404 85.3546 156.355 85.3168 156.332 85.3473Z" fill="#263238"/>
<path d="M159.472 93.7649L147.375 101.095L156.917 116.842L169.014 109.512L159.472 93.7649Z" fill="#263238"/>
<path d="M151.087 100.131L156.816 96.6507L155.762 94.9145L150.032 98.3953L151.087 100.131Z" fill="#A6A6A6"/>
<path d="M151.326 97.6028L152.031 97.1742L151.545 96.3733L153.26 95.3319L153.746 96.1323L154.452 95.7041L153.565 94.2454L150.43 96.1501L151.326 97.6028Z" fill="#A6A6A6"/>
<path d="M165.902 81.5377C170.808 85.5971 180.736 95.6225 179.024 98.7965C176.21 104.015 167.837 109.993 165.121 111.407C163.936 112.024 157.472 103.972 158.484 102.964C159.699 101.756 168.911 96.2357 168.673 95.3941C168.538 94.9171 166.501 91.1405 164.363 86.1755C161.883 80.4161 163.564 79.6025 165.902 81.5377Z" fill="#D3766A"/>
<path d="M148.916 107.637C149.014 108.769 150.162 109.024 150.162 109.024C150.162 109.024 149.726 109.82 149.96 110.66C150.227 111.621 151.852 111.624 151.852 111.624C151.852 111.624 151.578 112.521 151.913 113.383C152.262 114.278 153.901 114.514 153.901 114.514C153.901 114.514 154.104 115.49 154.929 116.027C156.338 116.945 158.669 115.863 160.157 115.19C161.646 114.516 165.237 111.213 165.986 110.653L161.748 101.062C161.748 101.062 154.215 102.182 152.577 103.222C151.197 104.098 148.806 106.367 148.916 107.637Z" fill="#D3766A"/>
<path d="M150.16 108.841C151.403 107.558 152.958 106.712 154.463 105.78C154.496 105.759 154.529 105.811 154.495 105.832C152.988 106.742 151.681 107.939 150.213 108.907C150.173 108.934 150.126 108.876 150.16 108.841Z" fill="#263238"/>
<path d="M151.827 111.485C152.117 111.203 152.5 111.018 152.851 110.824C153.228 110.615 153.61 110.413 153.994 110.217C154.764 109.824 155.543 109.448 156.332 109.096C156.367 109.08 156.4 109.13 156.364 109.148C155.598 109.541 154.837 109.946 154.088 110.371C153.713 110.584 153.34 110.8 152.968 111.018C152.622 111.221 152.274 111.464 151.889 111.587C151.832 111.604 151.784 111.528 151.827 111.485Z" fill="#263238"/>
<path d="M153.933 114.497C154.175 114.242 154.573 114.103 154.886 113.951C155.24 113.779 155.594 113.606 155.946 113.43C156.651 113.079 157.356 112.727 158.048 112.351C158.083 112.332 158.115 112.384 158.08 112.403C157.379 112.789 156.683 113.183 155.978 113.562C155.632 113.749 155.285 113.933 154.936 114.115C154.64 114.27 154.288 114.497 153.949 114.532C153.93 114.535 153.921 114.51 153.933 114.497Z" fill="#263238"/>
<path d="M161.443 100.619L168.383 110.05C168.383 110.05 178.482 102.279 179.48 98.2999C180.375 94.7269 169.138 83.8536 166.65 81.8076C164.162 79.7616 162.198 79.7942 163.444 83.9384C164.689 88.0826 168.313 95.2629 168.343 95.3826C168.372 95.5027 161.443 100.619 161.443 100.619Z" fill="#FFC727"/>
<path d="M164.742 81.379C164.742 81.5343 164.616 81.6603 164.461 81.6603C164.306 81.6603 164.18 81.5343 164.18 81.379C164.18 81.2236 164.306 81.098 164.461 81.098C164.616 81.098 164.742 81.2241 164.742 81.379ZM168.815 87.4028C168.66 87.4028 168.534 87.5288 168.534 87.6842C168.534 87.8395 168.66 87.9651 168.815 87.9651C168.971 87.9651 169.097 87.8391 169.097 87.6842C169.096 87.5288 168.97 87.4028 168.815 87.4028ZM166.638 84.1469C166.483 84.1469 166.357 84.2729 166.357 84.4282C166.357 84.5836 166.483 84.7092 166.638 84.7092C166.794 84.7092 166.92 84.5831 166.92 84.4282C166.92 84.2725 166.794 84.1469 166.638 84.1469ZM168.815 93.708C168.66 93.708 168.534 93.834 168.534 93.9889C168.534 94.1443 168.66 94.2703 168.815 94.2703C168.971 94.2703 169.097 94.1443 169.097 93.9889C169.096 93.834 168.97 93.708 168.815 93.708ZM173.169 93.708C173.014 93.708 172.888 93.834 172.888 93.9889C172.888 94.1443 173.014 94.2703 173.169 94.2703C173.324 94.2703 173.451 94.1443 173.451 93.9889C173.45 93.834 173.324 93.708 173.169 93.708ZM177.523 93.708C177.367 93.708 177.241 93.834 177.241 93.9889C177.241 94.1443 177.367 94.2703 177.523 94.2703C177.678 94.2703 177.804 94.1443 177.804 93.9889C177.804 93.834 177.678 93.708 177.523 93.708ZM166.638 90.4516C166.483 90.4516 166.357 90.5777 166.357 90.7326C166.357 90.8879 166.483 91.0139 166.638 91.0139C166.794 91.0139 166.92 90.8879 166.92 90.7326C166.92 90.5777 166.794 90.4516 166.638 90.4516ZM170.992 90.4516C170.837 90.4516 170.711 90.5777 170.711 90.7326C170.711 90.8879 170.837 91.0139 170.992 91.0139C171.147 91.0139 171.273 90.8879 171.273 90.7326C171.273 90.5777 171.147 90.4516 170.992 90.4516ZM175.558 90.9146C175.508 90.974 175.431 91.0122 175.346 91.0122C175.189 91.0122 175.066 90.8892 175.066 90.7321C175.066 90.6303 175.121 90.5369 175.206 90.4902L175.558 90.9146ZM164.461 100.013C164.306 100.013 164.18 100.139 164.18 100.294C164.18 100.449 164.306 100.575 164.461 100.575C164.617 100.575 164.743 100.449 164.743 100.294C164.743 100.139 164.617 100.013 164.461 100.013ZM168.815 100.013C168.66 100.013 168.534 100.139 168.534 100.294C168.534 100.449 168.66 100.575 168.815 100.575C168.971 100.575 169.097 100.449 169.097 100.294C169.097 100.139 168.97 100.013 168.815 100.013ZM173.169 100.013C173.014 100.013 172.888 100.139 172.888 100.294C172.888 100.449 173.014 100.575 173.169 100.575C173.324 100.575 173.451 100.449 173.451 100.294C173.451 100.139 173.324 100.013 173.169 100.013ZM177.523 100.013C177.367 100.013 177.241 100.139 177.241 100.294C177.241 100.449 177.367 100.575 177.523 100.575C177.678 100.575 177.804 100.449 177.804 100.294C177.804 100.139 177.678 100.013 177.523 100.013ZM166.638 96.7568C166.483 96.7568 166.357 96.8829 166.357 97.0382C166.357 97.1935 166.483 97.3191 166.638 97.3191C166.794 97.3191 166.92 97.1931 166.92 97.0382C166.92 96.8824 166.794 96.7568 166.638 96.7568ZM170.992 96.7568C170.837 96.7568 170.711 96.8829 170.711 97.0382C170.711 97.1935 170.837 97.3191 170.992 97.3191C171.147 97.3191 171.273 97.1931 171.273 97.0382C171.273 96.8824 171.147 96.7568 170.992 96.7568ZM175.346 96.7568C175.191 96.7568 175.064 96.8829 175.064 97.0382C175.064 97.1935 175.191 97.3191 175.346 97.3191C175.501 97.3191 175.627 97.1931 175.627 97.0382C175.627 96.8824 175.501 96.7568 175.346 96.7568ZM168.815 106.318C168.66 106.318 168.534 106.444 168.534 106.599C168.534 106.755 168.66 106.881 168.815 106.881C168.971 106.881 169.097 106.755 169.097 106.599C169.096 106.444 168.97 106.318 168.815 106.318ZM166.638 103.062C166.483 103.062 166.357 103.188 166.357 103.343C166.357 103.498 166.483 103.624 166.638 103.624C166.794 103.624 166.92 103.498 166.92 103.343C166.92 103.188 166.794 103.062 166.638 103.062ZM170.992 103.062C170.837 103.062 170.711 103.188 170.711 103.343C170.711 103.498 170.837 103.624 170.992 103.624C171.147 103.624 171.273 103.498 171.273 103.343C171.273 103.188 171.147 103.062 170.992 103.062ZM175.346 103.062C175.191 103.062 175.064 103.188 175.064 103.343C175.064 103.498 175.191 103.624 175.346 103.624C175.501 103.624 175.627 103.498 175.627 103.343C175.627 103.188 175.501 103.062 175.346 103.062Z" fill="white"/>
<path d="M167.166 103.395C166.653 102.672 164.568 99.8253 163.977 99.1819C163.96 99.1628 163.929 99.1934 163.94 99.2133C164.358 99.9891 166.381 102.906 166.896 103.626C167.926 105.067 168.941 106.532 170.101 107.877C170.124 107.905 170.175 107.874 170.156 107.841C169.262 106.298 168.198 104.85 167.166 103.395Z" fill="#263238"/>
<path d="M166.358 90.9282C165.66 89.4076 164.994 87.8713 164.324 86.3384C164.311 86.3095 164.262 86.3303 164.273 86.3605C164.573 87.2479 164.903 88.1217 165.253 88.9874C164.991 88.5605 164.742 88.1259 164.499 87.688C164.481 87.6553 164.437 87.6846 164.451 87.7168C164.711 88.3127 165.05 88.8673 165.422 89.3987C165.64 89.9232 165.861 90.4461 166.094 90.9655C166.432 91.7235 168.006 95.0376 168.21 95.4017C166.981 96.1949 165.936 97.0585 164.755 97.9222C164.178 98.3449 163.604 98.7718 163.035 99.2068C162.474 99.6359 161.771 100.056 161.291 100.538C161.261 100.568 161.421 100.705 161.482 100.778C161.509 100.811 161.571 100.79 161.548 100.754C161.548 100.754 161.501 100.677 161.487 100.647C161.783 100.484 162.923 99.6291 163.219 99.4139C163.797 98.9929 164.373 98.5694 164.949 98.1462C166.12 97.2873 168.55 95.5036 168.544 95.4836C168.417 95.1216 166.712 91.6989 166.358 90.9282Z" fill="#263238"/>
<path d="M163.706 80.7336C163.619 81.1248 161.785 83.6784 160.001 83.6148C159.42 83.5931 159.397 80.4161 159.397 80.4161L159.342 80.1818L158.57 76.9038L162.403 74.3838L162.957 74.0498C162.957 74.0498 163.109 74.9605 163.287 76.0966C163.295 76.1493 163.304 76.2019 163.312 76.2583C163.324 76.3224 163.336 76.3827 163.344 76.443C163.373 76.6123 163.402 76.7854 163.427 76.9582C163.446 77.0897 163.466 77.2175 163.481 77.3562C163.5 77.495 163.516 77.6304 163.535 77.7692C163.693 79.1434 163.741 80.5676 163.706 80.7336Z" fill="#D3766A"/>
<path d="M163.287 76.0966C162.375 78.7228 160.297 79.8122 159.342 80.1823L158.57 76.9043L162.403 74.3842L162.957 74.0502C162.956 74.0498 163.109 74.9605 163.287 76.0966Z" fill="#263238"/>
<path d="M153.704 70.8348C152.019 76.4996 155.221 78.1488 156.443 78.5108C157.553 78.8392 161.371 79.8175 163.633 74.3572C165.894 68.8966 163.793 66.3222 161.296 65.4365C158.799 64.5504 155.389 65.1696 153.704 70.8348Z" fill="#D3766A"/>
<path d="M154.793 70.0945C154.93 70.1157 155.062 70.1119 155.2 70.1186C155.357 70.1263 155.48 70.1484 155.62 70.0639C155.695 70.0185 155.725 69.8933 155.688 69.8165C155.601 69.637 155.412 69.5801 155.224 69.5631C155.02 69.5449 154.858 69.5831 154.689 69.6977C154.525 69.8084 154.61 70.0664 154.793 70.0945Z" fill="#263238"/>
<path d="M158.704 71.1517C158.575 71.0995 158.464 71.0299 158.341 70.965C158.203 70.892 158.085 70.8479 158.007 70.704C157.966 70.6268 158.004 70.5041 158.076 70.4566C158.241 70.3458 158.433 70.3933 158.604 70.4744C158.788 70.5627 158.908 70.6777 158.996 70.8627C159.08 71.0422 158.875 71.2205 158.704 71.1517Z" fill="#263238"/>
<path d="M157.421 72.3041C157.429 72.2901 157.446 72.3312 157.441 72.3469C157.314 72.7289 157.232 73.1877 157.542 73.4198C157.552 73.427 157.545 73.4461 157.533 73.4406C157.125 73.2534 157.239 72.6453 157.421 72.3041Z" fill="#263238"/>
<path d="M157.886 72.0043C158.52 72.1427 158.197 73.401 157.609 73.2729C157.031 73.1464 157.355 71.8881 157.886 72.0043Z" fill="#263238"/>
<path d="M158.114 72.1341C158.206 72.2334 158.282 72.387 158.411 72.4341C158.56 72.4889 158.71 72.3866 158.842 72.2856C158.856 72.275 158.864 72.289 158.86 72.3055C158.802 72.5474 158.645 72.7711 158.378 72.7405C158.134 72.7129 158.019 72.4558 158.022 72.1981C158.022 72.1502 158.078 72.0937 158.114 72.1341Z" fill="#263238"/>
<path d="M155.273 71.6649C155.273 71.6492 155.238 71.6759 155.234 71.692C155.149 72.0854 154.986 72.5221 154.601 72.5637C154.589 72.565 154.585 72.5849 154.598 72.5862C155.045 72.6329 155.256 72.0515 155.273 71.6649Z" fill="#263238"/>
<path d="M155.025 71.1705C154.409 70.9668 154.047 72.2141 154.618 72.403C155.179 72.5889 155.542 71.3411 155.025 71.1705Z" fill="#263238"/>
<path d="M154.741 71.177C154.623 71.2143 154.491 71.3064 154.37 71.2797C154.231 71.2491 154.17 71.0849 154.12 70.93C154.115 70.9139 154.102 70.9215 154.097 70.9381C154.021 71.1744 154.028 71.446 154.243 71.5581C154.44 71.6604 154.653 71.5004 154.779 71.2797C154.802 71.2385 154.788 71.1617 154.741 71.177Z" fill="#263238"/>
<path d="M156.643 75.5148C156.529 75.5874 156.409 75.6947 156.263 75.6769C156.123 75.6599 155.976 75.5644 155.86 75.4893C155.849 75.4817 155.834 75.4923 155.839 75.5059C155.91 75.6786 156.105 75.8182 156.294 75.8242C156.479 75.8301 156.6 75.6947 156.677 75.5407C156.688 75.519 156.659 75.5042 156.643 75.5148Z" fill="#263238"/>
<path d="M155.311 74.4759C155.311 74.4759 155.454 74.919 155.77 75.1685C155.886 75.261 156.023 75.3277 156.186 75.3383C156.521 75.3612 156.624 75.0815 156.649 74.8214C156.67 74.6075 156.636 74.4055 156.636 74.4055C156.636 74.4055 156.045 74.6741 155.311 74.4759Z" fill="#263238"/>
<path d="M155.77 75.1681C155.886 75.2606 156.022 75.3272 156.185 75.3378C156.52 75.3608 156.623 75.0811 156.648 74.8209C156.307 74.7437 155.906 74.8574 155.77 75.1681Z" fill="#FF97B8"/>
<path d="M155.396 73.6725C155.396 73.6725 155.159 74.2314 155.085 74.5051C155.079 74.5306 155.141 74.5607 155.233 74.5913C155.237 74.5938 155.239 74.5964 155.244 74.5947C155.707 74.8005 156.239 74.7644 156.639 74.4491C156.665 74.4275 156.638 74.3897 156.608 74.4003C156.176 74.5679 155.759 74.5289 155.328 74.4207C155.329 74.3396 155.765 73.4773 155.723 73.4624C155.577 73.4093 155.254 73.4314 155.063 73.4357C155.523 72.2576 156.166 71.1626 156.606 69.9824C156.621 69.9399 156.562 69.9102 156.539 69.9455C155.783 71.0451 155.225 72.3895 154.72 73.594C154.655 73.7434 155.274 73.6895 155.396 73.6725Z" fill="#263238"/>
<path d="M163.278 74.2198C161.919 73.9414 162.388 71.8054 162.388 71.8054C162.388 71.8054 160.879 71.3365 161.298 68.8296C161.298 68.8296 160.237 70.1694 158.087 70.0281C157.632 69.9979 159.356 69.1712 159.356 69.1712C159.356 69.1712 157.24 70.396 154.08 69.0817C153.857 68.9887 155.096 65.6246 157.931 64.9939C160.765 64.3633 162.948 65.5338 164.196 67.5038C164.196 67.5038 165.901 68.7808 165.729 70.6175C165.558 72.4547 163.806 74.328 163.278 74.2198Z" fill="#263238"/>
<path d="M163.025 76.4492C162.922 76.4657 162.829 76.4696 162.743 76.4632C162.64 76.4607 162.549 76.442 162.468 76.4144C162.341 76.3753 162.238 76.3113 162.157 76.2378C162.081 76.1733 162.02 76.097 161.973 76.0244C161.852 75.8338 161.82 75.6543 161.82 75.6543L162.459 74.1736C162.459 74.1736 164.095 72.6267 164.82 73.2459C165.549 73.8651 164.062 76.2896 163.025 76.4492Z" fill="#D3766A"/>
<path d="M164.378 73.9286C164.394 73.9303 164.393 73.9528 164.378 73.9553C163.647 74.0903 163.163 74.6428 162.781 75.2408C163.033 75.0324 163.334 74.9514 163.62 75.2595C163.635 75.2756 163.613 75.2998 163.594 75.2917C163.33 75.1754 163.121 75.1826 162.888 75.3656C162.724 75.495 162.593 75.6749 162.461 75.8362C162.417 75.8901 162.314 75.8354 162.352 75.7704C162.355 75.7658 162.358 75.7607 162.361 75.756C162.52 74.8924 163.437 73.8254 164.378 73.9286Z" fill="#263238"/>
<path d="M162.993 76.1887C162.934 76.3279 162.773 76.3928 162.634 76.3338C162.494 76.2748 162.429 76.114 162.489 75.9748C162.548 75.8356 162.709 75.7707 162.848 75.8296C162.987 75.8891 163.052 76.0495 162.993 76.1887Z" fill="white"/>
<path d="M163.628 75.8971C163.585 75.9955 163.472 76.0414 163.374 75.9998C163.275 75.9578 163.229 75.8444 163.271 75.746C163.313 75.6475 163.427 75.6017 163.525 75.6433C163.624 75.6853 163.67 75.7986 163.628 75.8971Z" fill="white"/>
<path d="M159.42 81.1149L157.494 84.3971L159.869 83.5742L161.748 85.5264L163.708 80.7338L159.896 83.4881L159.42 81.1149Z" fill="white"/>
</svg>
