<svg width="36" height="37" viewBox="0 0 36 37" fill="none" xmlns="http://www.w3.org/2000/svg">
<path fill-rule="evenodd" clip-rule="evenodd" d="M13.4992 13.1856H20.0794V16.4633C21.0273 14.5782 23.4581 12.8844 27.1097 12.8844C34.1098 12.8844 35.7717 16.637 35.7717 23.522V36.2732H28.6847V25.0899C28.6847 21.1691 27.7369 18.958 25.3237 18.958C21.9769 18.958 20.5861 21.3409 20.5861 25.0882V36.2732H13.4992V13.1856ZM1.34681 35.972H8.43376V12.8844H1.34681V35.972ZM9.44897 5.35631C9.44923 5.95033 9.33142 6.53848 9.10239 7.08657C8.87336 7.63466 8.53768 8.13177 8.11485 8.54899C7.25804 9.40053 6.09827 9.87718 4.89028 9.87425C3.68442 9.87344 2.52733 9.398 1.66926 8.55076C1.24796 8.13212 0.913413 7.63446 0.684784 7.08629C0.456155 6.53813 0.33794 5.95024 0.336914 5.35631C0.336914 4.15685 0.815284 3.00876 1.67103 2.16187C2.52835 1.31349 3.68593 0.837849 4.89205 0.838379C6.10038 0.838379 7.2591 1.31498 8.11485 2.16187C8.96883 3.00876 9.44897 4.15685 9.44897 5.35631Z" fill="#1D2F71"/>
</svg>
