<svg width="300" height="196" viewBox="0 0 300 196" fill="none" xmlns="http://www.w3.org/2000/svg">
<path d="M48.0854 31.5583C48.0854 31.5583 59.064 41.4104 70.9747 39.1914C77.2665 35.7964 94.2812 28.1739 94.2812 28.1739L96.1269 31.2198C96.1269 31.2198 79.0984 47.2795 72.0373 48.8819C64.9762 50.4843 49.2363 48.5544 41.2088 42.456C33.1827 36.3577 44.8172 29.3289 48.0854 31.5583Z" fill="#FF9669"/>
<path d="M47.3099 30.4932C47.3099 30.4932 54.1317 34.5711 61.1612 37.2159C60.2779 40.4136 59.2911 45.9409 54.7046 49.3924C50.3731 48.3878 44.8657 46.0828 41.0688 43.7212C37.8408 41.7138 32.1455 35.8519 33.015 33.6218C35.8527 26.3423 45.2243 29.0705 47.3099 30.4932Z" fill="white"/>
<path d="M93.6016 29.2439C93.6016 29.2439 95.0557 24.8788 97.2066 23.6931C99.3575 22.5075 100.435 22.5654 100.348 22.874C100.182 23.4568 99.1571 23.6638 98.5058 24.2049C98.1222 24.5233 97.9561 24.8482 97.9943 24.9133C98.0978 25.0885 100.862 24.0962 101.108 24.5982C101.467 25.33 99.6047 26.0183 100.033 26.2396C100.462 26.4617 101.901 25.696 102.158 26.4109C102.437 27.1857 100.788 27.4813 100.81 27.8206C100.833 28.1598 102.393 27.5731 102.47 28.3974C102.555 29.2953 101.029 29.2172 100.99 29.7472C100.974 29.9614 101.799 29.5961 101.878 30.4315C101.957 31.2669 100.031 31.1621 99.7319 31.1588C99.4327 31.1556 95.8902 32.5008 93.9391 29.8123L93.6016 29.2439Z" fill="#FF9669"/>
<path d="M117.258 1.93549H112.32V171.171H117.258V1.93549Z" fill="#828291"/>
<path d="M146.742 106.233H82.8357C81.6795 106.233 80.7422 105.308 80.7422 104.166V7.63266C80.7422 6.49061 81.6795 5.56473 82.8357 5.56473H146.742C147.899 5.56473 148.836 6.49061 148.836 7.63266V104.166C148.836 105.308 147.899 106.233 146.742 106.233Z" fill="white"/>
<path d="M88.1798 57.3814H87.2734V102.129H88.1798V57.3814Z" fill="#B2E9ED"/>
<path d="M95.9298 57.3814H95.0234V102.129H95.9298V57.3814Z" fill="#B2E9ED"/>
<path d="M103.676 57.3814H102.77V102.129H103.676V57.3814Z" fill="#B2E9ED"/>
<path d="M111.43 57.3814H110.523V102.129H111.43V57.3814Z" fill="#B2E9ED"/>
<path d="M119.18 57.3814H118.273V102.129H119.18V57.3814Z" fill="#B2E9ED"/>
<path d="M126.926 57.3814H126.02V102.129H126.926V57.3814Z" fill="#B2E9ED"/>
<path d="M134.68 57.3814H133.773V102.129H134.68V57.3814Z" fill="#B2E9ED"/>
<path d="M142.43 57.3814H141.523V102.129H142.43V57.3814Z" fill="#B2E9ED"/>
<path d="M88.0497 99.4598L87.3945 98.7774L97.7627 86.9493L107.662 93.9917L119.866 79.6021L122.972 82.887L140.238 63.8178L140.883 64.5125L122.986 84.2797L119.902 81.017L107.808 95.277L97.8979 88.2261L88.0497 99.4598Z" fill="#8C9DF4"/>
<path d="M141.712 62.9096L139.41 63.5822L141.095 65.4196L141.712 62.9096Z" fill="#8C9DF4"/>
<path d="M141.399 98.71L116.289 94.2896L99.5237 80.301L87.6539 82.1313L87.5273 81.1527L99.7729 79.2638L116.658 93.3519L141.544 97.734L141.399 98.71Z" fill="#0073AA"/>
<path d="M143.037 98.5336L141.159 96.9351L140.828 99.5083L143.037 98.5336Z" fill="#0073AA"/>
<path d="M96.6273 15.0409H87.2656V50.7194H96.6273V15.0409Z" fill="#177D74"/>
<path d="M108.444 29.3896H99.082V50.7188H108.444V29.3896Z" fill="#177D74"/>
<path d="M120.272 37.9518H110.91V50.7194H120.272V37.9518Z" fill="#177D74"/>
<path d="M132.088 35.282H122.727V50.7199H132.088V35.282Z" fill="#177D74"/>
<path d="M143.909 29.7378H134.547V50.7193H143.909V29.7378Z" fill="#177D74"/>
<path d="M101.914 179.651V176.376C101.914 174.045 103.827 172.155 106.187 172.155H123.391C125.751 172.155 127.665 174.045 127.665 176.376V179.651" stroke="#32285F" stroke-width="4.5558" stroke-miterlimit="10"/>
<path d="M183.658 176.064L163.532 166.124L143.406 176.064" stroke="#32285F" stroke-width="5.5116" stroke-miterlimit="10"/>
<path d="M163.527 166.123V133.782" stroke="#32285F" stroke-width="5.5116" stroke-miterlimit="10"/>
<path d="M143.863 135.983H194.417L202.146 70.8117C202.769 65.5591 198.613 60.9467 193.26 60.9467H168.252C164.074 60.9467 160.452 63.8031 159.527 67.8276L143.863 135.983Z" fill="#8396FB"/>
<path d="M150.635 140.317H175.598V135.983H150.635V140.317Z" fill="#828291"/>
<path d="M180.635 181.347C183.628 181.347 186.054 178.95 186.054 175.993C186.054 173.036 183.628 170.64 180.635 170.64C177.641 170.64 175.215 173.036 175.215 175.993C175.215 178.95 177.641 181.347 180.635 181.347Z" fill="#32285F"/>
<path d="M180.633 178.617C182.1 178.617 183.29 177.442 183.29 175.993C183.29 174.544 182.1 173.369 180.633 173.369C179.166 173.369 177.977 174.544 177.977 175.993C177.977 177.442 179.166 178.617 180.633 178.617Z" fill="#828291"/>
<path d="M146.639 181.347C149.632 181.347 152.058 178.95 152.058 175.993C152.058 173.036 149.632 170.64 146.639 170.64C143.645 170.64 141.219 173.036 141.219 175.993C141.219 178.95 143.645 181.347 146.639 181.347Z" fill="#32285F"/>
<path d="M146.637 178.617C148.104 178.617 149.293 177.442 149.293 175.993C149.293 174.544 148.104 173.369 146.637 173.369C145.17 173.369 143.98 174.544 143.98 175.993C143.98 177.442 145.17 178.617 146.637 178.617Z" fill="#828291"/>
<path d="M134.001 126.285H185.683C190.946 126.285 195.031 130.82 194.418 135.983H125.707V134.478C125.707 129.953 129.42 126.285 134.001 126.285Z" fill="#E69632"/>
<path d="M135.845 181.607H124.067C123.206 181.607 122.616 180.731 122.973 179.958C123.397 179.038 124.083 177.991 125.119 177.549C127.151 176.682 132.299 174.938 132.299 174.938L136.64 175.051C137.72 175.871 137.814 177.867 137.394 180.634C137.307 181.199 136.424 181.607 135.845 181.607Z" fill="#32285F"/>
<path d="M122.613 181.961H137.246C137.617 181.961 137.918 181.664 137.918 181.297C137.918 180.931 137.617 180.634 137.246 180.634H122.613C122.242 180.634 121.941 180.931 121.941 181.297C121.941 181.664 122.242 181.961 122.613 181.961Z" fill="white"/>
<path d="M133.13 175.99C134.068 176.559 135.007 176.559 135.945 175.99C136.187 175.843 136.34 175.583 136.34 175.303V172.156H132.734V175.303C132.734 175.583 132.887 175.843 133.13 175.99Z" fill="#FF9669"/>
<path d="M133.505 180.667L130.965 176.955L131.424 176.648L134.175 180.667H133.505Z" fill="#E69632"/>
<path d="M131.417 180.668L129.426 177.757L129.886 177.45L132.088 180.668H131.417Z" fill="#E69632"/>
<path d="M129.329 180.668L127.887 178.56L128.346 178.252L129.999 180.668H129.329Z" fill="#E69632"/>
<path d="M128.483 172.382C124.325 153.921 122.617 128.72 122.617 128.72C126.07 127.038 135.19 133.659 135.19 133.659C140.68 140.43 138.009 156.194 137.499 172.382C135.472 172.996 130.749 172.931 128.483 172.382Z" fill="#695A6E"/>
<path d="M135.725 135.1C135.725 135.1 158.65 128.771 159.235 121.011C159.82 113.251 158.786 109.99 158.786 109.99L147.804 110.426C136.511 110.875 126.477 117.953 122.704 128.476C122.675 128.557 122.646 128.638 122.617 128.72L135.725 135.1Z" fill="#695A6E"/>
<path d="M140.312 58.6769C135.89 66.0332 133.743 80.2222 124.358 86.5595C117.373 88.158 99.5352 93.6443 99.5352 93.6443L100.521 98.7601C100.521 98.7601 123.357 97.1382 130.089 94.4947C140.918 90.2423 150.207 74.4325 152.094 64.6053C153.983 54.7767 142.34 55.3035 140.312 58.6769Z" fill="#F0E1D3"/>
<path d="M153.67 181.607H141.891C141.031 181.607 140.441 180.731 140.797 179.958C141.221 179.038 141.907 177.991 142.943 177.549C144.975 176.682 150.123 174.937 150.123 174.937L154.465 175.051C155.544 175.87 155.638 177.867 155.218 180.634C155.132 181.199 154.248 181.607 153.67 181.607Z" fill="#32285F"/>
<path d="M140.441 181.961H155.074C155.445 181.961 155.746 181.664 155.746 181.297C155.746 180.93 155.445 180.634 155.074 180.634H140.441C140.07 180.634 139.77 180.93 139.77 181.297C139.77 181.664 140.07 181.961 140.441 181.961Z" fill="white"/>
<path d="M150.958 175.99C151.896 176.559 152.835 176.559 153.773 175.99C154.015 175.843 154.168 175.583 154.168 175.303V172.156H150.562V175.303C150.563 175.583 150.715 175.843 150.958 175.99Z" fill="#FF9669"/>
<path d="M151.33 180.667L148.789 176.955L149.249 176.648L151.999 180.667H151.33Z" fill="#E69632"/>
<path d="M149.241 180.668L147.25 177.757L147.709 177.45L149.911 180.668H149.241Z" fill="#E69632"/>
<path d="M147.153 180.668L145.711 178.56L146.17 178.253L147.824 180.668H147.153Z" fill="#E69632"/>
<path d="M146.307 172.382C142.149 153.921 140.441 128.72 140.441 128.72C143.894 127.038 153.014 133.659 153.014 133.659C158.504 140.43 155.833 156.194 155.323 172.382C153.296 172.996 148.574 172.931 146.307 172.382Z" fill="#695A6E"/>
<path d="M154.311 135.1C154.311 135.1 174.457 133.022 177.054 121.011C178.699 113.401 176.606 109.99 176.606 109.99L154.672 110.861C148.301 114.927 143.296 120.579 140.438 128.72L154.311 135.1Z" fill="#695A6E"/>
<path d="M170.455 116.024C170.455 116.024 169.998 119.616 174.459 121.821L170.455 116.024Z" fill="#50374B"/>
<path opacity="0.2" d="M177.238 111.285C177.238 111.285 165.293 116.492 154.564 116.024C143.834 115.557 145.726 109.077 145.726 109.077C145.726 109.077 172.66 109.181 177.238 111.285Z" fill="black"/>
<path d="M140.167 59.8646C140.277 58.0486 141.742 56.5967 143.58 56.4834C150.745 56.0406 169.841 55.4806 173.508 58.3664C177.146 61.228 180.142 111.284 180.142 111.284C180.142 111.284 158.778 114.668 145.917 109.99C145.917 109.99 139.046 78.2924 140.167 59.8646Z" fill="#C8E6EB"/>
<path d="M155 60.424C157.589 60.2326 159.529 58.0045 159.336 55.4482L158.818 48.631L149.445 49.3251L149.963 56.1423C150.157 58.6985 152.412 60.6154 155 60.424Z" fill="#FF9669"/>
<path d="M149.991 56.4737C153.973 56.4997 156.659 54.6818 159.119 52.5442L158.822 48.631L149.449 49.3251L149.991 56.4737Z" fill="#FF640A"/>
<path d="M149.964 54.304L152.49 54.1171C153.337 54.0546 154.147 53.7629 154.815 53.2798L156.974 51.7165C159.89 49.6056 161.482 46.3415 161.228 42.9961L160.431 32.4923L142.047 33.8532L143.078 47.4426C143.105 47.7955 143.208 48.136 143.386 48.4498C144.25 49.9793 147.067 54.5189 149.964 54.304Z" fill="#FF9669"/>
<path d="M152.293 42.421C152.383 43.3162 152.832 44.0058 153.298 43.9602C153.764 43.9146 154.068 43.1522 153.979 42.2569C153.889 41.3616 153.439 40.6727 152.973 40.7183C152.508 40.7632 152.203 41.5257 152.293 42.421Z" fill="#1E1632"/>
<path d="M152.48 42.7532C152.506 43.0976 152.678 43.3659 152.864 43.3522C153.051 43.3386 153.18 43.0482 153.154 42.7031C153.128 42.3586 152.956 42.0904 152.77 42.104C152.584 42.1184 152.454 42.4088 152.48 42.7532Z" fill="white"/>
<path d="M145.016 42.9599C145.105 43.8552 145.555 44.5447 146.02 44.4991C146.486 44.4535 146.79 43.6911 146.701 42.7958C146.612 41.9005 146.161 41.2116 145.696 41.2566C145.231 41.3021 144.926 42.0646 145.016 42.9599Z" fill="#1E1632"/>
<path d="M145.21 43.2915C145.237 43.636 145.409 43.9042 145.595 43.8906C145.781 43.8769 145.91 43.5865 145.885 43.2414C145.858 42.897 145.686 42.6287 145.5 42.6424C145.314 42.656 145.184 42.9471 145.21 43.2915Z" fill="white"/>
<path d="M147.914 44.4849L147.913 44.4745C147.913 44.4745 149.084 43.3585 148.819 41.8622C148.819 41.8622 149.795 43.7987 147.927 44.6562C147.91 44.7512 147.904 44.8496 147.912 44.9498C147.966 45.6504 148.584 46.1765 149.293 46.1238C149.575 46.103 149.827 45.9916 150.027 45.8243C149.852 46.2651 149.438 46.5932 148.928 46.631C148.218 46.6837 147.6 46.1577 147.547 45.4571C147.518 45.0801 147.667 44.7363 147.914 44.4849Z" fill="#FF640A"/>
<path d="M143.659 46.109C143.706 46.7256 144.38 47.1775 145.165 47.1195C145.95 47.0616 146.549 46.5146 146.502 45.8987C146.455 45.2821 145.781 44.8302 144.996 44.8882C144.211 44.9461 143.612 45.493 143.659 46.109Z" fill="#FF640A"/>
<path d="M153.686 45.3665C153.733 45.9831 154.407 46.435 155.192 46.3771C155.977 46.3191 156.576 45.7722 156.53 45.1562C156.483 44.5403 155.809 44.0877 155.024 44.1457C154.238 44.2036 153.639 44.7506 153.686 45.3665Z" fill="#FF640A"/>
<path d="M152.039 40.4444L155.452 40.1917L155.394 39.4332L150.449 39.0933C150.511 39.9 151.222 40.5049 152.039 40.4444Z" fill="#69280F"/>
<path d="M143.472 41.078L146.885 40.8254L146.828 40.0668L141.883 39.7269C141.943 40.5337 142.655 41.1385 143.472 41.078Z" fill="#69280F"/>
<path d="M148.102 47.8231C148.189 48.9704 149.2 49.8305 150.362 49.7446C151.523 49.6586 152.394 48.6592 152.307 47.5119L148.102 47.8231Z" fill="white"/>
<path d="M160.264 47.6615L161.158 47.5951C162.61 47.4877 163.698 46.2388 163.589 44.8051L162.525 30.7671C162.379 28.8456 160.684 27.4047 158.738 27.5486L160.264 47.6615Z" fill="#69280F"/>
<path d="M158.928 42.277C159.057 43.9823 160.408 45.2728 161.945 45.1595C163.482 45.0456 164.623 43.5708 164.493 41.8655C164.364 40.1596 163.014 38.8697 161.476 38.983C159.94 39.0963 158.799 40.5711 158.928 42.277Z" fill="#FF9669"/>
<path d="M160.68 42.1473C160.728 42.7795 161.229 43.2581 161.798 43.2158C161.374 42.441 161.133 41.7469 161.624 40.9252C161.055 40.9675 160.631 41.5144 160.68 42.1473Z" fill="#FF640A"/>
<path d="M158.268 45.8053L160.352 45.6511L159.18 30.1967L157.096 30.3509L158.268 45.8053Z" fill="#69280F"/>
<path d="M157.757 34.6626C157.757 34.6626 146.79 38.1266 144.558 37.8622C142.326 37.5985 144.115 36.8068 144.115 36.8068C144.115 36.8068 137.555 37.7118 137.217 33.4314C136.88 29.151 139.865 27.1364 143.38 27.1149C146.894 27.0941 148.749 28.2869 148.749 28.2869C148.749 28.2869 147.6 25.8459 149.456 26.0673C151.313 26.2887 157.546 26.8838 159.755 27.8885C161.964 28.8944 157.757 34.6626 157.757 34.6626Z" fill="#69280F"/>
<path d="M127.949 96.4069C127.949 96.4069 124.447 94.0485 122.045 94.5863C119.643 95.1248 118.347 95.9524 118.621 96.1243C119.138 96.4485 120.047 96.0006 120.892 95.8977C121.947 95.7688 121.966 96.4778 121.981 96.5514C122.023 96.75 116.885 98.2241 117.041 98.7593C117.27 99.54 121.301 97.9715 121.132 98.4195C120.963 98.8674 116.451 99.7914 116.744 100.493C117.062 101.252 121.412 99.8408 121.625 100.108C121.837 100.376 117.415 100.958 117.916 101.622C118.461 102.346 122.23 101.049 122.618 101.418C122.775 101.567 118.926 101.799 119.432 102.473C119.938 103.146 124.466 102.078 124.687 101.878C124.907 101.678 128.452 100.34 128.083 97.0515L127.949 96.4069Z" fill="#FF9669"/>
<path d="M166.326 59.7584C162.302 66.8555 161.641 80.9033 151.282 87.1188C144.305 88.7492 127.023 95.6732 127.023 95.6732L128.112 101.18C128.112 101.18 150.788 101.18 157.581 96.3836C163.475 92.2216 176.916 79.269 178.661 69.4157C181.107 55.6036 168.268 56.3355 166.326 59.7584Z" fill="#F0E1D3"/>
<path d="M155.76 101.958H148.844L147.844 87.7894H156.761L155.76 101.958Z" fill="white"/>
<path d="M157.689 87.5471H146.918V90.7089H157.689V87.5471Z" fill="#1E1632"/>
<path d="M94.1733 90.1006C94.0263 90.6215 94.8444 91.3013 96.0006 91.6203C97.1568 91.9387 98.2134 91.7753 98.3604 91.2544C98.5074 90.7342 97.6894 90.0538 96.5332 89.7347C95.3763 89.4163 94.3203 89.5804 94.1733 90.1006Z" fill="#FF9669"/>
<path d="M100.979 100.493H114.127C110.213 94.0606 107.733 87.8653 106.823 80.8625H93.6758C94.3666 87.8972 96.6335 94.4877 100.979 100.493Z" fill="#B2E9ED"/>
<path d="M95.3477 93.1242C95.3477 93.5969 96.2053 93.9804 97.2632 93.9804C98.3212 93.9804 99.1795 93.5969 99.1795 93.1242C99.1795 92.6515 98.3219 92.268 97.2632 92.268C96.2053 92.268 95.3477 92.6515 95.3477 93.1242Z" fill="#FF9669"/>
<path d="M97.7203 95.5674C98.7782 95.5674 99.6358 95.1841 99.6358 94.7112C99.6358 94.2384 98.7782 93.855 97.7203 93.855C96.6623 93.855 95.8047 94.2384 95.8047 94.7112C95.8047 95.1841 96.6623 95.5674 97.7203 95.5674Z" fill="#FF9669"/>
<path d="M96.2656 96.2983C96.2656 96.771 97.1232 97.1545 98.1818 97.1545C99.2398 97.1545 100.097 96.771 100.097 96.2983C100.097 95.8256 99.2398 95.442 98.1818 95.442C97.1239 95.442 96.2656 95.8249 96.2656 96.2983Z" fill="#FF9669"/>
<path d="M98.9039 98.6046C99.9618 98.6046 100.819 98.2213 100.819 97.7484C100.819 97.2755 99.9618 96.8922 98.9039 96.8922C97.8459 96.8922 96.9883 97.2755 96.9883 97.7484C96.9883 98.2213 97.8459 98.6046 98.9039 98.6046Z" fill="#FF9669"/>
<path d="M281.446 175.915L261.321 165.975L241.195 175.915" stroke="#32285F" stroke-width="5.5116" stroke-miterlimit="10"/>
<path d="M261.316 165.975V133.634" stroke="#32285F" stroke-width="5.5116" stroke-miterlimit="10"/>
<path d="M241.652 135.834H292.206L299.934 70.663C300.557 65.4111 296.402 60.7979 291.049 60.7979H266.041C261.863 60.7979 258.241 63.6544 257.316 67.6789L241.652 135.834Z" fill="#8C9DF4"/>
<path d="M248.424 140.168H273.387V135.834H248.424V140.168Z" fill="#828291"/>
<path d="M279.699 181.051C282.612 180.369 284.414 177.484 283.723 174.607C283.033 171.73 280.112 169.951 277.2 170.632C274.287 171.314 272.485 174.199 273.176 177.076C273.866 179.953 276.787 181.733 279.699 181.051Z" fill="#32285F"/>
<path d="M278.422 178.467C279.889 178.467 281.079 177.293 281.079 175.844C281.079 174.394 279.889 173.22 278.422 173.22C276.955 173.22 275.766 174.394 275.766 175.844C275.766 177.293 276.955 178.467 278.422 178.467Z" fill="#828291"/>
<path d="M248.251 179.629C250.367 177.539 250.367 174.149 248.251 172.059C246.134 169.968 242.703 169.968 240.586 172.059C238.47 174.149 238.47 177.539 240.586 179.629C242.703 181.72 246.134 181.72 248.251 179.629Z" fill="#32285F"/>
<path d="M244.422 178.467C245.889 178.467 247.079 177.293 247.079 175.843C247.079 174.394 245.889 173.219 244.422 173.219C242.955 173.219 241.766 174.394 241.766 175.843C241.766 177.293 242.955 178.467 244.422 178.467Z" fill="#828291"/>
<path d="M231.791 126.136H283.472C288.735 126.136 292.82 130.671 292.207 135.834H223.496V134.329C223.496 129.804 227.21 126.136 231.791 126.136Z" fill="#8396FB"/>
<path d="M282.865 46.636C282.865 50.7706 279.471 54.1226 275.286 54.1226C271.1 54.1226 262.805 49.8936 262.805 45.759C262.805 41.6244 271.099 39.1495 275.286 39.1495C279.472 39.1495 282.865 42.5015 282.865 46.636Z" fill="#1E1632"/>
<path d="M253.768 53.7958C261.609 53.7958 267.965 47.5172 267.965 39.7721C267.965 32.027 261.609 25.7484 253.768 25.7484C245.927 25.7484 239.57 32.027 239.57 39.7721C239.57 47.5172 245.927 53.7958 253.768 53.7958Z" fill="#1E1632"/>
<path d="M235.697 181.609H223.918C223.058 181.609 222.468 180.733 222.825 179.96C223.248 179.041 223.935 177.994 224.971 177.551C227.002 176.684 232.151 174.94 232.151 174.94L236.492 175.053C237.572 175.873 237.665 177.869 237.245 180.636C237.16 181.202 236.276 181.609 235.697 181.609Z" fill="#E69632"/>
<path d="M222.469 181.963H237.102C237.473 181.963 237.773 181.666 237.773 181.299C237.773 180.933 237.473 180.636 237.102 180.636H222.469C222.097 180.636 221.797 180.933 221.797 181.299C221.797 181.666 222.098 181.963 222.469 181.963Z" fill="white"/>
<path d="M232.981 175.992C233.919 176.561 234.858 176.561 235.796 175.992C236.039 175.845 236.192 175.585 236.192 175.305V172.158H232.586V175.305C232.586 175.585 232.739 175.845 232.981 175.992Z" fill="white"/>
<path d="M236.339 135.102C236.339 135.102 258.497 128.773 259.082 121.013C259.667 113.253 258.634 109.992 258.634 109.992L247.651 110.428C236.358 110.877 226.324 117.955 222.551 128.478C222.522 128.559 222.493 128.64 222.465 128.722L236.339 135.102Z" fill="#50374B"/>
<path d="M240.152 58.678C235.73 66.0343 233.582 80.2234 224.198 86.5607C217.213 88.1592 199.375 93.6455 199.375 93.6455L200.361 98.7613C200.361 98.7613 223.196 97.1393 229.929 94.4958C240.758 90.2434 250.047 74.4337 251.934 64.6064C253.822 54.7778 242.179 55.3046 240.152 58.678Z" fill="#D8C5B6"/>
<path d="M200.602 94.6686C200.602 94.6686 196.577 92.3643 194.172 92.8917C191.768 93.4192 191.002 94.1705 191.275 94.3437C191.791 94.6699 192.697 94.151 193.547 94.1276C194.048 94.1132 194.391 94.2467 194.406 94.3203C194.446 94.5189 191.714 95.5945 191.868 96.131C192.093 96.913 193.947 96.2033 193.776 96.6506C193.606 97.098 192.015 97.4717 192.305 98.1742C192.619 98.9354 194.049 98.0733 194.261 98.3416C194.472 98.6098 192.912 99.1965 193.41 99.8632C193.952 100.589 195.039 99.5279 195.424 99.8984C195.58 100.048 194.718 100.317 195.222 100.993C195.725 101.669 197.093 100.325 197.314 100.126C197.536 99.9277 201.087 98.6046 200.733 95.3152L200.602 94.6686Z" fill="#FF9669"/>
<path d="M253.51 181.609H241.731C240.87 181.609 240.28 180.733 240.637 179.96C241.061 179.041 241.747 177.994 242.783 177.551C244.815 176.684 249.963 174.94 249.963 174.94L254.304 175.053C255.384 175.873 255.478 177.869 255.058 180.636C254.972 181.202 254.088 181.609 253.51 181.609Z" fill="#E69632"/>
<path d="M240.277 181.963H254.91C255.281 181.963 255.582 181.666 255.582 181.299C255.582 180.933 255.281 180.636 254.91 180.636H240.277C239.906 180.636 239.605 180.933 239.605 181.299C239.605 181.666 239.906 181.963 240.277 181.963Z" fill="white"/>
<path d="M250.79 175.992C251.728 176.561 252.667 176.561 253.605 175.992C253.847 175.845 254 175.585 254 175.305V172.158H250.395V175.305C250.395 175.585 250.547 175.845 250.79 175.992Z" fill="white"/>
<path d="M251.165 180.67L248.625 176.958L249.084 176.651L251.835 180.67H251.165Z" fill="white"/>
<path d="M249.081 180.67L247.09 177.759L247.549 177.452L249.751 180.67H249.081Z" fill="white"/>
<path d="M246.993 180.67L245.551 178.561L246.01 178.254L247.663 180.67H246.993Z" fill="white"/>
<path d="M236.474 166.626C237.442 152.44 239.918 139.685 235.033 133.661C235.033 133.661 225.914 127.04 222.461 128.722C222.461 128.722 226.782 149.113 230.647 166.626L233.844 166.835L236.474 166.626Z" fill="#FF9669"/>
<path d="M252.846 133.661C252.846 133.661 243.727 127.04 240.273 128.722C240.273 128.722 244.68 149.505 248.55 167.035C249.023 167.101 249.435 167.091 249.842 167.244H254.303C255.293 153.068 257.678 139.62 252.846 133.661Z" fill="#FF9669"/>
<path d="M254.148 135.102C254.148 135.102 277.427 127.956 278.012 120.196C278.597 112.436 278.425 109.992 278.425 109.992L254.508 110.863C248.137 114.929 243.132 120.581 240.273 128.722L254.148 135.102Z" fill="#695A6E"/>
<path d="M270.291 116.027C270.291 116.027 269.834 119.618 274.295 121.823L270.291 116.027Z" fill="#0F1446"/>
<path d="M265.082 115.386C265.082 121.823 276.434 119.736 278.446 111.501" stroke="#50374B" stroke-width="0.4667" stroke-miterlimit="10"/>
<path opacity="0.2" d="M277.07 111.285C277.07 111.285 265.125 116.493 254.396 116.025C243.666 115.557 245.558 109.077 245.558 109.077C245.558 109.077 272.492 109.182 277.07 111.285Z" fill="black"/>
<path d="M240.005 59.866C239.748 58.0643 241.581 56.598 243.419 56.4847C250.583 56.042 269.679 55.482 273.347 58.3678C276.984 61.2294 279.981 111.286 279.981 111.286C279.981 111.286 258.616 114.67 245.755 109.991C245.755 109.991 245.739 97.2985 244.448 82.0566C244.329 80.6534 243.483 79.456 242.287 78.6916C240.8 77.7417 239.75 75.9869 240.187 73.7835C240.951 69.9329 240.477 63.186 240.005 59.866Z" fill="#F0E1D3"/>
<path d="M245.379 81.6292L260.659 81.7002C260.659 81.7002 252.212 78.401 245.379 81.6292Z" fill="#D8C5B6"/>
<path d="M254.836 60.4259C257.425 60.2345 259.365 58.0064 259.172 55.4501L258.654 48.6329L249.281 49.327L249.798 56.1442C249.993 58.7005 252.248 60.6173 254.836 60.4259Z" fill="#FF9669"/>
<path d="M249.823 56.4756C253.805 56.5016 256.491 54.6837 258.951 52.5461L258.654 48.6329L249.281 49.327L249.823 56.4756Z" fill="#FF640A"/>
<path d="M249.796 54.3056L252.322 54.1187C253.169 54.0562 253.979 53.7645 254.647 53.2814L256.806 51.7181C259.722 49.6072 261.314 46.3431 261.06 42.9977L260.263 28.5664L241.879 29.9272L242.91 47.4442C242.937 47.7971 243.04 48.1376 243.218 48.4514C244.081 49.9809 246.899 54.5205 249.796 54.3056Z" fill="#FF9669"/>
<path d="M253.814 43.2464C253.725 42.3511 253.275 41.6622 252.809 41.7078C252.344 41.7533 252.039 42.5158 252.129 43.4111" stroke="#1E1632" stroke-width="0.7593" stroke-miterlimit="10"/>
<path d="M246.533 43.7856C246.443 42.8904 245.993 42.2015 245.528 42.2464C245.063 42.292 244.758 43.0544 244.848 43.9497" stroke="#1E1632" stroke-width="0.7593" stroke-miterlimit="10"/>
<path d="M247.746 44.4868L247.746 44.4764C247.746 44.4764 248.916 43.3604 248.652 41.8641C248.652 41.8641 249.628 43.8005 247.76 44.6581C247.743 44.7531 247.737 44.8515 247.744 44.9517C247.798 45.6523 248.416 46.1784 249.125 46.1257C249.407 46.1049 249.659 45.9935 249.859 45.8262C249.684 46.267 249.27 46.5951 248.76 46.6329C248.05 46.6856 247.432 46.1595 247.379 45.4589C247.35 45.0819 247.499 44.7382 247.746 44.4868Z" fill="#FF640A"/>
<path d="M243.491 46.1105C243.538 46.7271 244.212 47.179 244.997 47.121C245.782 47.0631 246.381 46.5161 246.335 45.9002C246.288 45.2836 245.613 44.8317 244.828 44.8896C244.043 44.9476 243.444 45.4945 243.491 46.1105Z" fill="#FF640A"/>
<path d="M253.518 45.3684C253.565 45.985 254.239 46.4369 255.024 46.3789C255.809 46.321 256.408 45.7741 256.362 45.1581C256.315 44.5422 255.641 44.0896 254.856 44.1476C254.071 44.2055 253.472 44.7525 253.518 45.3684Z" fill="#FF640A"/>
<path d="M251.871 40.4458L255.284 40.1932L255.226 39.4347L250.281 39.0948C250.342 39.9015 251.054 40.5064 251.871 40.4458Z" fill="#1E1632"/>
<path d="M243.304 41.0799L246.717 40.8273L246.66 40.0687L241.715 39.7289C241.776 40.5356 242.488 41.1405 243.304 41.0799Z" fill="#1E1632"/>
<path d="M247.934 47.825C248.021 48.9723 249.032 49.8324 250.194 49.7465C251.355 49.6605 252.226 48.6611 252.139 47.5138L247.934 47.825Z" fill="white"/>
<path d="M258.764 42.2789C258.893 43.9842 260.244 45.2747 261.781 45.1614C263.317 45.0475 264.459 43.5727 264.329 41.8674C264.2 40.1615 262.849 38.8717 261.312 38.985C259.776 39.0982 258.635 40.573 258.764 42.2789Z" fill="#FF9669"/>
<path d="M260.512 42.1492C260.56 42.7814 261.061 43.26 261.63 43.2177C261.206 42.4429 260.965 41.7488 261.457 40.9271C260.887 40.9694 260.463 41.5163 260.512 42.1492Z" fill="#FF640A"/>
<path d="M257.406 27.8959C257.406 27.8959 252.137 38.6009 239.878 38.6009C239.878 38.6009 238.19 31.4581 241.148 29.4371C247.926 24.8063 257.406 27.8959 257.406 27.8959Z" fill="#1E1632"/>
<path d="M256.893 28.938C256.893 28.938 250.254 36.4037 251.582 37.4122C252.909 38.4208 256.893 30.1484 256.893 30.1484C256.893 30.1484 254.679 36.5046 255.939 36.8067C257.199 37.1095 257.914 31.4598 256.893 28.938Z" fill="#1E1632"/>
<path d="M261.307 38.9837C260.729 38.9121 260.046 39.3464 259.299 40.0854C258.715 40.6636 257.727 40.2241 257.737 39.4076C257.783 35.5374 257.226 31.9712 256.352 28.5659H261.067L261.307 38.9837Z" fill="#1E1632"/>
<path d="M189.961 81.4249L225.298 102.218L227.204 101.182L222.537 81.5369C222.073 79.48 220.225 78.017 218.092 78.017H193.331C192.064 78.017 190.931 78.7996 190.496 79.9762L189.961 81.4249Z" fill="#41378C"/>
<path d="M194.775 102.218H225.298L220.48 82.8429C220.104 81.1786 218.61 79.9949 216.883 79.9949H191.969C190.607 79.9949 189.595 81.2418 189.892 82.5551L194.775 102.218Z" fill="#1E1632"/>
<path d="M266.165 59.7595C262.141 66.8567 262.218 79.9949 253.769 86.5614C247.773 87.9625 233.508 93.3993 229.614 94.9008C229.015 95.132 228.638 95.7128 228.67 96.3476L228.806 99.0673C228.845 99.8473 229.487 100.461 230.278 100.472C235.197 100.539 251.669 100.446 257.419 96.3854C263.313 92.2234 276.754 79.2708 278.499 69.4175C280.946 55.6048 268.106 56.3366 266.165 59.7595Z" fill="#D8C5B6"/>
<path d="M230.504 96.7689C229.958 95.2928 227.096 93.6396 224.634 93.6266C222.171 93.6136 221.255 94.1787 221.483 94.4073C221.913 94.839 222.912 94.531 223.747 94.6944C224.238 94.7901 224.543 94.9959 224.541 95.0708C224.536 95.2733 221.629 95.7232 221.66 96.2799C221.703 97.0918 223.671 96.8066 223.403 97.2051C223.136 97.6036 221.501 97.6199 221.626 98.368C221.761 99.1793 223.35 98.6519 223.495 98.9599C223.641 99.2679 221.989 99.4977 222.323 100.257C222.689 101.083 223.986 100.287 224.28 100.733C224.398 100.913 223.497 100.986 223.836 101.756C224.175 102.525 225.811 101.515 226.071 101.37C226.332 101.224 231.626 99.8076 230.504 96.7689Z" fill="#FF9669"/>
<path d="M206.026 93.6269H203.612L202.527 89.3803H204.941L206.026 93.6269Z" fill="#41378C"/>
<path d="M209.518 93.6269H207.105L206.02 89.3803H208.433L209.518 93.6269Z" fill="#41378C"/>
<path d="M270.864 118.972L255.016 130.085" stroke="#50374B" stroke-width="0.4667" stroke-miterlimit="10"/>
<path d="M230.641 166.626C231.307 169.647 231.96 172.581 232.573 175.303C234.84 175.851 234.151 172.77 236.178 172.156C236.237 170.3 236.341 168.453 236.467 166.626H230.641Z" fill="white"/>
<path d="M236.338 168.813C236.359 168.442 236.378 168.069 236.402 167.699H230.879C230.962 168.074 231.044 168.442 231.125 168.813H236.338Z" fill="#FAC855"/>
<path d="M236.24 170.877C236.258 170.464 236.272 170.049 236.294 169.637H231.312C231.405 170.057 231.496 170.463 231.589 170.877H236.24Z" fill="#FAC855"/>
<path d="M248.555 167.034C249.19 169.91 249.811 172.704 250.396 175.303C252.663 175.851 251.975 173.671 254.002 173.057C254.065 171.047 254.18 169.033 254.322 167.034H248.555Z" fill="white"/>
<path d="M254.18 169.335C254.209 168.852 254.236 168.368 254.267 167.886H248.742C248.85 168.373 248.956 168.854 249.063 169.335H254.18Z" fill="#FAC855"/>
<path d="M254.079 171.331C254.097 170.941 254.11 170.549 254.131 170.159H249.246C249.334 170.556 249.42 170.94 249.507 171.331H254.079Z" fill="#FAC855"/>
<path d="M58.3043 180.93L88.7748 108.812L83.4664 107.752L56.8086 180.93H58.3043Z" fill="#A5A0AA"/>
<path d="M82.1441 180.93L112.615 108.812L107.306 107.752L80.6484 180.93H82.1441Z" fill="#A5A0AA"/>
<path d="M294.74 180.93L266.773 108.812L269.578 107.752L296.235 180.93H294.74Z" fill="#A5A0AA"/>
<path d="M270.897 180.93L242.93 108.812L245.734 107.752L272.392 180.93H270.897Z" fill="#A5A0AA"/>
<path d="M75.1364 112.566L277.07 112.566V101.819L75.1364 101.819V112.566Z" fill="white"/>
<path d="M75.1364 116.055L277.07 116.055V112.566L75.1364 112.566V116.055Z" fill="#E6DCDC"/>
<path d="M44.9224 32.124C44.8117 30.3081 43.3464 28.8561 41.5086 28.7428C34.344 28.3 15.2482 27.7401 11.5806 30.6258C7.94323 33.4875 13.6695 83.5438 13.6695 83.5438C13.6695 83.5438 35.0341 86.9277 47.8953 82.2494C47.8953 82.2494 46.0431 50.5525 44.9224 32.124Z" fill="#C8E6EB"/>
<path d="M37.6436 180.624H49.4225C50.2827 180.624 50.8727 179.748 50.516 178.975C50.0922 178.056 49.406 177.009 48.3698 176.567C46.3382 175.699 41.19 173.955 41.19 173.955L36.8486 174.068C35.7689 174.888 35.6753 176.884 36.0952 179.652C36.1816 180.217 37.0649 180.624 37.6436 180.624Z" fill="#D77D14"/>
<path d="M50.8751 180.978H36.242C35.8709 180.978 35.5703 180.681 35.5703 180.315C35.5703 179.948 35.8709 179.651 36.242 179.651H50.8751C51.2462 179.651 51.5468 179.948 51.5468 180.315C51.5468 180.681 51.2462 180.978 50.8751 180.978Z" fill="#965028"/>
<path d="M40.3547 175.007C39.4167 175.575 38.4781 175.575 37.54 175.007C37.2975 174.86 37.1445 174.6 37.1445 174.319V171.172H40.7502V174.319C40.7502 174.6 40.5973 174.86 40.3547 175.007Z" fill="#FF9669"/>
<path d="M13.5209 183.315H17.6289C19.0475 183.315 20.3691 182.561 21.0402 181.327C21.3553 180.748 21.5965 180.112 21.5965 179.523C21.5965 177.016 19.9941 174.424 19.9941 174.424L17.2657 174.478C17.2657 174.478 13.0325 177.594 12.1044 181.56C11.8934 182.457 12.5889 183.315 13.5209 183.315Z" fill="#965028"/>
<path d="M13.5214 181.751H17.6294C19.0479 181.751 20.3696 181.055 21.0406 179.917C21.3557 179.382 21.597 178.795 21.597 178.251C21.597 176.785 21.4585 175.279 21.357 174.371C21.303 173.889 20.887 173.528 20.3959 173.538L17.2655 173.595C17.2655 173.595 13.0323 176.47 12.1041 180.131C11.8939 180.96 12.5893 181.751 13.5214 181.751Z" fill="#D77D14"/>
<path d="M20.3664 174.19C19.4284 174.759 18.4898 174.759 17.5518 174.19C17.3092 174.043 17.1562 173.783 17.1562 173.503V170.355H20.7619V173.503C20.7619 173.783 20.609 174.044 20.3664 174.19Z" fill="#FF9669"/>
<path d="M42.4495 171.399C46.607 152.937 48.3149 127.737 48.3149 127.737C44.8615 126.055 38.2974 132.676 38.2974 132.676C32.8071 139.447 35.4781 155.211 35.9883 171.399C38.0152 172.012 40.1826 171.947 42.4495 171.399Z" fill="#695A6E"/>
<path d="M37.4507 135.26C37.4507 135.26 31.5966 102.578 30.6968 94.8475C29.797 87.1169 30.6968 82.9706 30.6968 82.9706L47.7655 81.1546L49.5519 96.0684C49.921 97.967 50.0199 99.9073 49.8479 101.833L48.3153 128.033L37.4507 135.26Z" fill="#695A6E"/>
<path d="M44.1229 82.9706H30.6968C30.6968 82.9706 29.797 87.1169 30.6968 94.8476C31.178 98.9828 33.3361 110.886 35.5187 120.666C34.4079 106.224 35.3862 87.8565 44.1229 82.9706Z" fill="#50374B"/>
<path d="M15.6128 171.378C15.7005 155.356 13.6709 148.025 17.5258 131.446C17.5258 131.446 26.6 125.011 29.9822 126.829C29.9822 126.829 26.5927 153.156 22.1341 171.492C19.9983 172.218 17.823 172.153 15.6128 171.378Z" fill="#695A6E"/>
<path d="M17.5235 131.446C17.5235 131.446 14.4319 101.031 13.8472 93.271C13.2625 85.511 14.2955 82.2496 14.2955 82.2496L36.2289 83.1208L29.9674 127.126L17.5235 131.446Z" fill="#695A6E"/>
<path d="M20.4498 88.2843C20.4498 88.2843 20.9066 91.8759 16.4453 94.0812L20.4498 88.2843Z" fill="#50374B"/>
<path d="M21.6916 84.7264C21.6916 84.7264 25.1483 93.8882 15.4531 99.3973" stroke="#50374B" stroke-width="0.4667" stroke-miterlimit="10"/>
<path d="M17.9031 97.6609L17.5234 131.446" stroke="#50374B" stroke-width="0.4667" stroke-miterlimit="10"/>
<path d="M44.7066 82.971H28.3398V99.1376H44.7066V82.971Z" fill="#695A6E"/>
<path opacity="0.2" d="M13.6719 83.544C13.6719 83.544 25.5035 87.3621 36.2336 86.8946C46.963 86.4271 47.7672 81.1551 47.7672 81.1551C47.7672 81.1551 18.2492 81.4403 13.6719 83.544Z" fill="black"/>
<path d="M38.0613 84.6217C38.0613 84.6217 38.8985 98.8192 35.9414 99.3968" stroke="#50374B" stroke-width="0.8421" stroke-miterlimit="10" stroke-linecap="round"/>
<path d="M34.7045 40.7535C30.1759 37.871 26.0633 34.1271 24.1523 30.4887V28.1752C24.1523 28.0633 25.1734 27.3627 25.3053 26.8691C26.2063 23.495 34.8989 26.86 34.8989 26.86C34.8989 26.86 35.7915 27.5228 35.9141 28.2456C36.5587 32.0422 36.6181 36.0817 34.7045 40.7535Z" fill="white"/>
<path d="M33.6695 37.1266C31.9042 37.1266 25.3164 31.1032 25.3164 28.5397V21.7037H34.7156V28.5397C34.7156 31.1038 34.7156 37.1266 33.6695 37.1266Z" fill="#FF9669"/>
<path d="M34.7156 28.8731C30.7467 29.1928 27.9314 27.5787 25.3164 25.6279V21.7037H34.7156V28.8731Z" fill="#FF640A"/>
<path d="M34.573 26.7071H32.0392C31.1901 26.7071 30.3602 26.4759 29.6582 26.0436L27.3867 24.6443C24.3195 22.7548 22.4844 19.6171 22.4844 16.2625V5.72946H40.9203V19.3566C40.9203 19.7108 40.8425 20.0579 40.6895 20.3834C39.944 21.9722 37.478 26.7071 34.573 26.7071Z" fill="#FF9669"/>
<path d="M31.3506 15.0288C31.3289 15.928 30.9327 16.6487 30.4647 16.6377C29.9973 16.6266 29.6354 15.8889 29.6572 14.9891C29.6789 14.0892 30.0751 13.3691 30.5431 13.3802C31.0105 13.3912 31.3724 14.1296 31.3506 15.0288Z" fill="#1E1632"/>
<path d="M30.5044 14.698C30.5044 15.0437 30.3528 15.3237 30.1663 15.3237C29.9797 15.3237 29.8281 15.0437 29.8281 14.698C29.8281 14.3523 29.9797 14.0723 30.1663 14.0723C30.3535 14.0723 30.5044 14.3523 30.5044 14.698Z" fill="white"/>
<path d="M38.6514 15.0288C38.6296 15.928 38.2335 16.6487 37.7654 16.6377C37.2981 16.6266 36.9362 15.8889 36.958 14.9891C36.9797 14.0892 37.3759 13.3691 37.8439 13.3802C38.3119 13.3912 38.6731 14.1296 38.6514 15.0288Z" fill="#1E1632"/>
<path d="M37.8091 14.698C37.8091 15.0437 37.6575 15.3237 37.471 15.3237C37.2844 15.3237 37.1328 15.0437 37.1328 14.698C37.1328 14.3523 37.2844 14.0723 37.471 14.0723C37.6575 14.0723 37.8091 14.3523 37.8091 14.698Z" fill="white"/>
<path d="M35.9037 17.074V17.0636C35.9037 17.0636 34.6519 16.0368 34.8022 14.5256C34.8022 14.5256 33.9756 16.5284 35.9037 17.2459C35.9274 17.3397 35.9406 17.4367 35.9406 17.5376C35.9406 18.2402 35.3638 18.8099 34.6525 18.8099C34.3697 18.8099 34.1107 18.7174 33.8984 18.5651C34.1067 18.9916 34.5444 19.2885 35.056 19.2885C35.7672 19.2885 36.344 18.7187 36.344 18.0162C36.344 17.6385 36.1693 17.3071 35.9037 17.074Z" fill="#FF640A"/>
<path d="M40.1485 18.4565C40.1485 19.0744 39.5104 19.5751 38.7227 19.5751C37.935 19.5751 37.2969 19.0744 37.2969 18.4565C37.2969 17.8386 37.935 17.3372 38.7227 17.3372C39.5097 17.3372 40.1485 17.8386 40.1485 18.4565Z" fill="#FF640A"/>
<path d="M30.3868 18.4565C30.3868 19.0744 29.7487 19.5751 28.961 19.5751C28.1732 19.5751 27.5352 19.0744 27.5352 18.4565C27.5352 17.8386 28.1732 17.3372 28.961 17.3372C29.7487 17.3372 30.3868 17.8386 30.3868 18.4565Z" fill="#FF640A"/>
<path d="M31.4615 13.0387H28.0391V12.2776L32.9447 11.5737C32.9447 12.3831 32.2802 13.0387 31.4615 13.0387Z" fill="#1E1632"/>
<path d="M40.0475 13.0387H36.625V12.2776L41.5306 11.5737C41.5299 12.3831 40.8662 13.0387 40.0475 13.0387Z" fill="#1E1632"/>
<path d="M35.9205 19.8023C35.9205 20.9528 34.9766 21.8852 33.8118 21.8852C32.6477 21.8852 31.7031 20.9528 31.7031 19.8023H35.9205Z" fill="white"/>
<path d="M23.8014 20.8439H22.9043C21.4488 20.8439 20.2695 19.6784 20.2695 18.2414V4.16428C20.2695 2.23764 21.8509 0.674957 23.8021 0.674957L23.8014 20.8439Z" fill="#1E1632"/>
<path d="M24.7251 15.3752C24.7251 17.0857 23.476 18.4719 21.9348 18.4719C20.3937 18.4719 19.1445 17.0857 19.1445 15.3752C19.1445 13.6647 20.3937 12.2785 21.9348 12.2785C23.476 12.2785 24.7251 13.6647 24.7251 15.3752Z" fill="#FF9669"/>
<path d="M22.9724 15.3755C22.9724 16.0097 22.509 16.5241 21.9375 16.5241C22.302 15.7199 22.4892 15.0102 21.9375 14.2276C22.509 14.2276 22.9724 14.7413 22.9724 15.3755Z" fill="#FF640A"/>
<path d="M25.6521 3.35559H23.5625V16.469H25.6521V3.35559Z" fill="#1E1632"/>
<path d="M21.8047 8.60395H40.6717C42.5424 8.60395 44.0592 7.10574 44.0592 5.25788V0.674683H24.0762C22.8218 0.674683 21.8053 1.6787 21.8053 2.91777L21.8047 8.60395Z" fill="#1E1632"/>
<path d="M33.6529 37.1268L31.3398 39.784L35.7221 43.7773L37.0582 38.7969L33.6529 37.1268Z" fill="#8C9DF4"/>
<path d="M33.4258 40.7537C36.9392 47.5435 37.0934 57.8357 35.5536 73.7216C36.7263 76.6679 38.6326 78.5782 40.9101 79.9658C40.5067 77.3457 40.9042 75.1723 42.121 73.4553C41.5521 61.0581 39.7644 51.5498 36.2326 41.5663L33.4258 40.7537Z" fill="#8C9DF4"/>
<path d="M33.6572 37.1269L30.0033 41.1853L22.4775 33.2496L21.9258 28.1741L25.3041 26.868V30.4843L33.6572 37.1269Z" fill="white"/>
<path d="M33.6523 37.1273L37.4545 40.4525L39.0649 31.9665L37.7926 28.1744L34.8923 26.8592L35.1071 33.8261L33.6523 37.1273Z" fill="white"/>
<path d="M35.1167 80.7713C35.1167 80.7713 39.3849 77.6499 42.1805 77.9455C44.976 78.2404 45.9424 78.997 45.6543 79.2269C45.1112 79.6625 44.0176 79.1878 43.0492 79.2679C42.4791 79.3154 42.1073 79.5094 42.1 79.5954C42.0803 79.8259 49.6641 81.3677 49.5863 81.9993C49.4202 83.3517 42.864 81.6737 43.1152 82.1595C43.367 82.6452 50.0517 83.7912 49.8137 84.6239C49.556 85.527 42.9893 83.8075 42.7843 84.1389C42.5793 84.4696 48.3873 85.516 47.9087 86.3344C47.388 87.2258 42.0552 85.5824 41.665 86.0512C41.5074 86.2407 45.3135 86.8748 44.8303 87.705C44.3465 88.5352 39.8272 86.7453 39.551 86.548C39.2741 86.3507 35.0752 85.2972 35.0508 81.5214L35.1167 80.7713Z" fill="#FF9669"/>
<path d="M13.6728 67.8802C13.6728 67.8802 12.2325 60.3416 12.8462 56.5547C12.3597 56.3528 10.5318 55.6197 10.0447 55.4178C6.87732 54.1078 3.67108 52.9449 0.553167 51.573C0.35805 59.2835 3.00069 70.0744 5.23399 74.2324C8.62941 80.5547 15.4572 76.9944 13.6728 67.8802Z" fill="#FF9669"/>
<path opacity="0.1" d="M17.7958 43.9993C17.7958 43.9993 15.9033 52.8011 14.3193 60.0649C10.9859 59.6853 4.14689 58.0321 0 54.0753C0.350683 49.6946 1.82592 43.9681 3.61493 39.9045C5.13631 36.4496 10.1474 29.9782 12.5053 30.5141C16.6614 31.4582 18.9046 41.7478 17.7958 43.9993Z" fill="black"/>
<path d="M17.7958 43.9992C17.7958 43.9992 14.7451 51.2761 13.1611 58.5399C9.82768 58.1603 4.14689 58.032 0 54.0752C0.350683 49.6945 1.82592 43.968 3.61493 39.9043C5.13631 36.4495 10.1421 30.0022 12.5053 30.514C20.219 32.1847 18.9046 41.7477 17.7958 43.9992Z" fill="white"/>
<path d="M37.0486 79.753C30.1457 77.7892 19.7168 69.2492 11.7711 67.3128C11.7559 67.3037 4.85696 73.3988 5.2294 74.2329C9.39474 83.5451 37.2971 85.2432 37.2971 85.2432C37.2971 85.2432 37.7546 80.9367 37.0486 79.753Z" fill="#FF9669"/>
<path d="M202.155 43.0636C204.831 38.8958 209.525 36.3753 214.518 36.54C217.238 36.6299 219.94 37.1664 221.526 38.6751C226.524 43.4288 238.161 42.598 237.538 51.1934C237.063 57.7462 229.76 61.0662 239.347 64.8381C249.502 68.8334 255.944 87.0554 241.252 94.8493C226.561 102.642 197.462 96.9283 194.457 85.2473C189.513 66.0362 202.058 66.3585 202.406 61.0525C202.755 55.7473 199.55 47.1207 199.55 47.1207L202.155 43.0636Z" fill="#1E1632"/>
<path d="M158.32 86.3785C158.32 86.3785 171.191 101.776 176.937 101.956C182.684 102.136 180.063 90.5658 180.063 90.5658L158.32 80.8968V86.3785Z" fill="white"/>
<path d="M172.426 193.954H181.174L188.948 186.51C189.839 187.99 189.562 189.883 188.283 191.053L185.799 193.326C184.174 194.776 180.813 195.975 177.807 195.533L173.578 195.275C172.916 195.177 172.426 194.616 172.426 193.954Z" fill="#373C41"/>
<path d="M193.797 73.1818C190.452 76.7525 178.211 89.6517 174.97 96.801C174.015 98.9054 175.636 101.144 176.258 101.712C178.991 104.209 199.363 86.8467 203.692 82.2245C208.022 77.6022 209.316 71.8307 206.583 69.3337C203.85 66.8367 198.126 68.5595 193.797 73.1818Z" fill="white"/>
<path d="M180.941 99.2262L163.072 95.5956C161.983 95.3742 161.095 94.5961 160.743 93.553L151.438 65.9822C151.253 65.4334 151.739 64.8923 152.313 65.0088L170.182 68.6388C171.271 68.8602 172.159 69.6383 172.511 70.6813L181.815 98.2521C182.001 98.8017 181.514 99.3427 180.941 99.2262Z" fill="#F0E1D3"/>
<path d="M195.652 108.793C187.764 108.174 160.645 105.055 160.014 112.894C159.383 120.734 188.239 136.075 199.38 136.933C214.383 138.088 220.346 126.485 220.977 118.646C221.608 110.806 203.54 109.412 195.652 108.793Z" fill="#FF9669"/>
<path d="M227.874 68.1883H202.739C198.516 68.1883 195.808 77.4432 195.808 77.4432L191.683 89.4615C190.294 93.5095 193.342 97.7085 197.669 97.7085H197.919L200.675 124.169L217.573 121.52L221.268 109.769L233.144 75.4684C234.379 71.8996 231.693 68.1883 227.874 68.1883Z" fill="#F0E1D3"/>
<path d="M218.176 75.21C214.353 80.8772 201.037 106.433 204.387 108.638C207.737 110.843 226.486 88.8612 230.308 83.1939C234.131 77.5266 234.514 71.145 231.163 68.9404C227.813 66.7357 221.998 69.5427 218.176 75.21Z" fill="white"/>
<path d="M186.702 183.432C179.968 177.616 171.257 138.109 168.694 133.841C165.177 127.985 159.518 124.881 156.056 126.91C152.594 128.938 152.638 135.331 156.156 141.188C158.84 145.658 172.513 169.824 179.596 180.308C182.644 185.011 180.396 191.108 176.725 191.292C173.053 191.477 171.461 193.756 172.42 193.953C173.058 194.085 176.978 194.297 179.532 194.423C180.98 194.495 182.396 194.075 183.562 193.226C184.919 192.238 186.55 190.597 188.113 189.204C190.218 187.329 188.224 184.747 186.702 183.432Z" fill="#FF9669"/>
<path d="M213.67 140.441C223.6 135.337 225.76 125.801 224.63 119.571C223.226 111.83 202.462 114.8 193.33 116.416C184.198 118.033 152.387 123.392 153.791 131.132C154.425 134.63 162.181 138.554 171.967 140.253C182.603 142.101 213.67 140.441 213.67 140.441Z" fill="#FF9669"/>
<path d="M168.697 133.841C166.114 129.539 162.378 126.733 159.203 126.344V146.408C160.999 149.511 163.337 153.555 165.857 157.856C167.848 152.577 169.698 147.234 171.443 141.88C170.255 137.837 169.304 134.851 168.697 133.841Z" fill="#FF640A"/>
<path d="M159.203 125.221V135.979C162.49 137.589 166.99 139.048 171.968 140.255C174.054 133.651 175.673 126.825 175.802 119.891C169.696 121.326 163.476 123.121 159.203 125.221Z" fill="#FF640A"/>
<path d="M179.944 140.441H213.669C223.598 135.337 225.758 125.801 224.628 119.571C224.259 117.537 220.473 114.484 220.473 114.484C220.473 114.484 214.53 110.386 195.942 108.094C190.586 107.434 173.622 106.151 163.824 108.478C171.218 110.979 179.618 128.095 180.013 136.812C180.069 138.036 180.029 139.243 179.944 140.441Z" fill="#50374B"/>
<path d="M161.537 172.776C161.048 170.172 161.218 167.486 162.034 164.963C166.566 150.964 173.397 125.578 173.604 121.077C173.891 114.82 168.657 108.812 164.819 108.494C160.981 108.177 157.636 112.991 157.348 119.249C157.146 123.648 159.67 161.62 154.669 172.487C153.255 175.435 144.622 184.121 148.66 184.851C148.66 184.851 158.47 179.458 160.696 177.441C162.068 176.197 161.901 174.715 161.537 172.776Z" fill="#FF9669"/>
<path d="M186.7 183.431C186.596 183.353 186.486 183.252 186.374 183.137C185.321 186.738 182.666 189.808 178.399 190.739C177.888 191.058 177.327 191.262 176.723 191.292C173.05 191.476 171.459 193.755 172.418 193.953C173.056 194.085 176.976 194.296 179.53 194.423C180.977 194.494 182.394 194.074 183.56 193.225C184.917 192.238 186.548 190.597 188.111 189.204C190.216 187.329 188.306 184.646 186.7 183.431Z" fill="#C8462D"/>
<path d="M151.046 177.548C148.54 180.863 146.148 184.396 148.66 184.85C148.66 184.85 158.47 179.458 160.696 177.441C162.552 175.757 161.73 173.481 161.274 170.383C159.835 174.218 156.334 177.409 151.046 177.548Z" fill="#C8462D"/>
<path d="M183.199 90.981C183.199 90.981 182.254 85.9928 180.076 84.3839C177.897 82.775 176.709 82.6825 176.759 83.0335C176.854 83.6957 177.945 84.0701 178.578 84.7563C178.95 85.1607 179.084 85.5403 179.033 85.6054C178.893 85.7818 172.49 81.9429 172.124 82.441C171.341 83.5075 177.107 86.582 176.604 86.7624C176.102 86.9434 170.6 83.4079 170.213 84.1534C169.794 84.9614 175.595 88.0125 175.519 88.3811C175.444 88.749 170.63 85.7135 170.423 86.6048C170.199 87.5757 175.074 89.8786 175.038 90.4646C175.024 90.7016 171.903 88.676 171.692 89.5785C171.482 90.4816 175.878 92.1517 176.206 92.1914C176.534 92.2311 180.213 94.2157 182.747 91.5553L183.199 90.981Z" fill="#FF9669"/>
<path d="M206.467 98.1082C203.993 96.4798 190.266 91.0717 182.347 87.2411C182.194 88.9165 180.945 91.9904 180.062 93.402C186.559 99.2809 197.076 107.02 199.426 108.566C203.174 111.034 207.136 109.686 208.515 107.642C209.894 105.597 210.215 100.575 206.467 98.1082Z" fill="white"/>
<path d="M148.66 184.85C149.072 185.497 149.934 185.694 150.592 185.294L160.662 179.166C162.288 178.176 162.966 176.179 162.272 174.422L161.705 172.989C161.705 172.989 162.183 176.359 160.493 177.616C158.804 178.873 148.66 184.85 148.66 184.85Z" fill="#373C41"/>
<path d="M159.719 80.0066C159.596 80.476 158.128 80.5086 156.439 80.0788C154.749 79.6491 153.48 78.9199 153.602 78.4504C153.724 77.981 155.193 77.9484 156.883 78.3781C158.571 78.8079 159.842 79.5371 159.719 80.0066Z" fill="#FF9669"/>
<path d="M160.297 83.3874C160.175 83.8569 158.706 83.8894 157.017 83.4597C155.328 83.0299 154.057 82.3007 154.18 81.8312C154.303 81.3618 155.771 81.3292 157.46 81.759C159.15 82.1887 160.42 82.9179 160.297 83.3874Z" fill="#FF9669"/>
<path d="M160.239 84.836C160.137 85.23 158.906 85.2567 157.49 84.8966C156.074 84.5365 155.01 83.9251 155.112 83.5319C155.215 83.1379 156.446 83.1112 157.862 83.4713C159.278 83.8314 160.342 84.4421 160.239 84.836Z" fill="#FF9669"/>
<path d="M160.494 81.7729C160.371 82.2423 158.73 82.2306 156.828 81.7468C154.925 81.2631 153.482 80.4895 153.605 80.0201C153.728 79.5506 155.369 79.5624 157.271 80.0461C159.174 80.5306 160.617 81.3034 160.494 81.7729Z" fill="#FF9669"/>
<path d="M213.932 73.378C216.43 73.193 218.304 71.0424 218.117 68.5747L217.618 61.9939L208.57 62.6639L209.069 69.2447C209.257 71.7124 211.433 73.5629 213.932 73.378Z" fill="#FF9669"/>
<path d="M209.094 69.5644C212.938 69.5898 215.531 67.835 217.905 65.771L217.618 61.9939L208.57 62.6639L209.094 69.5644Z" fill="#FF640A"/>
<path d="M209.068 67.4707L211.507 67.2903C212.325 67.2298 213.106 66.9478 213.75 66.4816L215.835 64.9723C218.649 62.935 220.187 59.7836 219.941 56.5547L219.172 46.4156L201.426 47.7289L202.421 60.8462C202.447 61.1868 202.547 61.5156 202.718 61.8183C203.552 63.2957 206.271 67.6777 209.068 67.4707Z" fill="#FF9669"/>
<path d="M211.32 56.0001C211.406 56.8641 211.84 57.5295 212.29 57.4859C212.739 57.4423 213.034 56.7059 212.947 55.8412C212.861 54.9772 212.427 54.3117 211.977 54.356C211.527 54.3996 211.233 55.1354 211.32 56.0001Z" fill="#1E1632"/>
<path d="M211.503 56.3209C211.528 56.6536 211.694 56.9128 211.874 56.8991C212.054 56.8861 212.18 56.6055 212.154 56.2727C212.128 55.94 211.963 55.6809 211.783 55.6945C211.603 55.7076 211.478 55.9882 211.503 56.3209Z" fill="white"/>
<path d="M204.292 56.5205C204.379 57.3845 204.813 58.05 205.263 58.0063C205.712 57.9627 206.006 57.2263 205.92 56.3616C205.834 55.4976 205.399 54.8322 204.95 54.8764C204.5 54.9201 204.206 55.6558 204.292 56.5205Z" fill="#1E1632"/>
<path d="M204.48 56.8414C204.505 57.1741 204.671 57.4332 204.851 57.4196C205.031 57.4065 205.156 57.1259 205.13 56.7932C205.105 56.4605 204.939 56.2013 204.759 56.215C204.579 56.2287 204.455 56.5087 204.48 56.8414Z" fill="white"/>
<path d="M207.089 57.9923L207.088 57.9825C207.088 57.9825 208.218 56.9049 207.963 55.4607C207.963 55.4607 208.905 57.3294 207.102 58.1576C207.086 58.2494 207.08 58.3439 207.087 58.4415C207.139 59.118 207.735 59.6253 208.42 59.5751C208.692 59.5549 208.935 59.4475 209.128 59.2854C208.959 59.7112 208.559 60.0276 208.067 60.0641C207.382 60.1149 206.785 59.6077 206.734 58.9312C206.706 58.5665 206.849 58.2351 207.089 57.9923Z" fill="#FF640A"/>
<path d="M202.987 59.5599C203.032 60.155 203.683 60.5913 204.441 60.5353C205.199 60.4793 205.777 59.9512 205.732 59.3568C205.686 58.7616 205.036 58.3254 204.278 58.3814C203.519 58.4374 202.941 58.9648 202.987 59.5599Z" fill="#FF640A"/>
<path d="M212.663 58.8434C212.708 59.4385 213.359 59.8748 214.117 59.8188C214.875 59.7628 215.453 59.2347 215.407 58.6403C215.363 58.0452 214.711 57.6089 213.953 57.6649C213.196 57.7209 212.618 58.2483 212.663 58.8434Z" fill="#FF640A"/>
<path d="M211.074 54.0918L214.368 53.8483L214.313 53.1158L209.539 52.7876C209.598 53.5663 210.286 54.1504 211.074 54.0918Z" fill="#1E1632"/>
<path d="M202.804 54.7035L206.099 54.4593L206.043 53.7268L201.27 53.3987C201.329 54.178 202.016 54.7621 202.804 54.7035Z" fill="#1E1632"/>
<path d="M207.273 61.2149C207.357 62.3224 208.334 63.1526 209.455 63.0692C210.577 62.9859 211.417 62.0216 211.333 60.9141L207.273 61.2149Z" fill="white"/>
<path d="M217.724 55.861C217.85 57.5077 219.154 58.7532 220.637 58.6432C222.121 58.5332 223.221 57.1098 223.097 55.4632C222.972 53.8165 221.668 52.5709 220.185 52.681C218.701 52.791 217.6 54.2143 217.724 55.861Z" fill="#FF9669"/>
<path d="M219.418 55.7356C219.464 56.3464 219.948 56.808 220.497 56.7677C220.088 56.0195 219.855 55.3495 220.329 54.5571C219.78 54.5968 219.371 55.1249 219.418 55.7356Z" fill="#FF640A"/>
<path d="M198.419 51.8469L212.366 50.8143C214.571 50.6509 216.247 48.7861 216.149 46.6035C215.915 43.5153 213.19 41.1993 210.064 41.4304L203.48 41.9175C200.353 42.1486 198.009 44.8403 198.243 47.9285L198.419 51.8469Z" fill="#1E1632"/>
<path d="M216.148 46.6039C216.148 46.6039 217.059 52.8051 219.08 54.0526L219.958 52.71L220.789 44.7091L216.148 46.6039Z" fill="#1E1632"/>
<path d="M187.919 132.034H226.798V141.416H179.895V139.96C179.895 135.582 183.488 132.034 187.919 132.034Z" fill="#8396FB"/>
<path d="M235.957 190.561L216.486 180.945L197.016 190.561" stroke="#32285F" stroke-width="5.3322" stroke-miterlimit="10"/>
<path d="M216.488 180.945V139.287" stroke="#32285F" stroke-width="5.3322" stroke-miterlimit="10"/>
<path d="M197.461 141.416H235.279C241.602 141.416 246.924 136.739 247.659 130.535L253.846 78.3651C254.448 73.2838 250.429 68.8211 245.249 68.8211H221.054C217.012 68.8211 213.508 71.5844 212.613 75.4781L197.461 141.416Z" fill="#8C9DF4"/>
<path d="M204.009 145.609H228.16V141.416H204.009V145.609Z" fill="#828291"/>
<path d="M233.04 195.672C235.936 195.672 238.283 193.353 238.283 190.493C238.283 187.632 235.936 185.314 233.04 185.314C230.144 185.314 227.797 187.632 227.797 190.493C227.797 193.353 230.144 195.672 233.04 195.672Z" fill="#32285F"/>
<path d="M233.039 193.031C234.458 193.031 235.609 191.895 235.609 190.492C235.609 189.09 234.458 187.954 233.039 187.954C231.619 187.954 230.469 189.09 230.469 190.492C230.469 191.895 231.619 193.031 233.039 193.031Z" fill="#828291"/>
<path d="M200.138 195.672C203.033 195.672 205.381 193.353 205.381 190.493C205.381 187.632 203.033 185.314 200.138 185.314C197.242 185.314 194.895 187.632 194.895 190.493C194.895 193.353 197.242 195.672 200.138 195.672Z" fill="#32285F"/>
<path d="M200.137 193.031C201.556 193.031 202.707 191.895 202.707 190.492C202.707 189.09 201.556 187.954 200.137 187.954C198.717 187.954 197.566 189.09 197.566 190.492C197.566 191.895 198.717 193.031 200.137 193.031Z" fill="#828291"/>
<path d="M107.272 126.285H67.0859V135.983H115.567V134.478C115.567 129.952 111.853 126.285 107.272 126.285Z" fill="#8396FB"/>
<path d="M57.6172 186.781L77.7425 176.841L97.8679 186.781" stroke="#32285F" stroke-width="5.5116" stroke-miterlimit="10"/>
<path d="M77.7461 176.841V133.782" stroke="#32285F" stroke-width="5.5116" stroke-miterlimit="10"/>
<path d="M97.4109 135.983H58.373C51.807 135.983 46.2811 131.127 45.5171 124.686L39.1283 70.8127C38.5054 65.5602 42.6609 60.9477 48.0141 60.9477H73.0226C77.2005 60.9477 80.822 63.8041 81.7475 67.8287L97.4109 135.983Z" fill="#8C9DF4"/>
<path d="M90.6428 135.983H65.6797V140.317H90.6428V135.983Z" fill="#828291"/>
<path d="M60.6385 192.065C63.6318 192.065 66.0583 189.668 66.0583 186.711C66.0583 183.755 63.6318 181.358 60.6385 181.358C57.6453 181.358 55.2188 183.755 55.2188 186.711C55.2188 189.668 57.6453 192.065 60.6385 192.065Z" fill="#32285F"/>
<path d="M60.637 189.335C62.1041 189.335 63.2934 188.16 63.2934 186.711C63.2934 185.262 62.1041 184.087 60.637 184.087C59.1698 184.087 57.9805 185.262 57.9805 186.711C57.9805 188.16 59.1698 189.335 60.637 189.335Z" fill="#828291"/>
<path d="M94.6424 192.065C97.6357 192.065 100.062 189.668 100.062 186.711C100.062 183.755 97.6357 181.358 94.6424 181.358C91.6492 181.358 89.2227 183.755 89.2227 186.711C89.2227 189.668 91.6492 192.065 94.6424 192.065Z" fill="#32285F"/>
<path d="M94.6409 189.335C96.108 189.335 97.2973 188.16 97.2973 186.711C97.2973 185.262 96.108 184.087 94.6409 184.087C93.1737 184.087 91.9844 185.262 91.9844 186.711C91.9844 188.16 93.1737 189.335 94.6409 189.335Z" fill="#828291"/>
</svg>
