<svg width="1093" height="563" viewBox="0 0 1093 563" fill="none" xmlns="http://www.w3.org/2000/svg">
<path d="M752.418 400.244L736.646 422.719L671.358 370.826C671.358 370.826 671.345 370.819 671.318 370.806C670.671 370.495 661.959 366.182 660.691 356.011C660.691 356.011 662.012 338.178 678.524 335.536C678.524 335.536 687.057 333.211 690.743 337.174C691.799 338.31 692.46 339.954 692.414 342.312C692.407 342.47 692.401 342.636 692.394 342.801C691.733 354.029 692.394 359.313 688.431 363.275L752.418 400.244Z" fill="#D98365"/>
<path d="M690.743 337.174V354.69C687.546 362.946 675.757 368.838 671.318 370.806C670.671 370.496 661.959 366.183 660.691 356.011C660.691 356.011 662.012 338.178 678.524 335.536C678.524 335.536 687.057 333.211 690.743 337.174Z" fill="#CD6D4C"/>
<path d="M673.899 354.69C673.899 354.69 680.504 346.104 683.146 336.197C683.146 336.197 681.165 335.537 673.899 338.839C673.899 338.839 667.294 343.462 669.936 348.746L673.899 354.69Z" fill="#F9C4B7"/>
<path d="M1058.25 647.864L1045.91 657.658L1045.89 657.669L972.843 721.959L944.304 744.615C944.304 744.615 827.111 550.13 795.756 536.654C793.387 535.636 788.042 533.674 782.15 531.422C769.409 526.545 757.734 519.267 747.742 509.989L704.279 469.613L789.484 346.764L843.641 372.524C843.641 372.524 848.924 372.524 850.246 354.69L846.534 316.928L846.285 314.402C846.285 314.402 845.995 313.754 845.527 312.564C842.455 304.769 831.698 273.743 844.304 249.675C844.304 249.675 849.393 244.582 855.156 246.65C856.58 247.152 858.048 248.104 859.495 249.675L864.119 276.753C864.119 276.753 866.811 281.465 869.988 286.812C875.652 296.348 879.469 306.864 881.223 317.816C883.927 334.693 888.355 358.839 892.519 365.919C892.519 365.919 904.048 409.158 908.672 433.359C909.789 439.199 910.349 445.13 910.349 451.079V467.507C910.349 474.83 911.678 482.097 914.292 488.94C920.593 505.445 1048.73 642.625 1058.25 647.864Z" fill="#CD6D4C"/>
<path d="M736.757 422.805L720.132 447.157C720.132 447.157 688.905 433.987 674.797 410.851L674.791 410.844C674.52 410.547 665.742 400.983 660.577 394.048C658.774 391.624 658.087 388.533 658.754 385.581C659.87 380.634 662.717 373.322 669.936 371.202C681.164 367.9 691.072 371.863 691.072 371.863C691.072 371.863 695.695 379.128 690.411 392.338C690.411 392.338 720.363 424.212 736.757 422.805Z" fill="#D98365"/>
<path d="M720.089 446.833L704.283 469.613L691.233 463.497L683.148 459.706C683.148 459.706 673.241 453.762 671.26 449.799C670.388 448.056 668.757 443.511 667.191 438.954C666.266 436.253 665.368 433.551 664.668 431.438C663.869 429.007 663.334 427.343 663.334 427.343C663.334 427.343 660.692 412.812 681.827 408.849H700.321C700.321 408.849 700.895 409.385 701.542 410.369C702.811 412.271 704.363 415.844 702.559 420.415C702.559 420.415 702.559 420.415 702.559 420.421C701.43 423.274 698.999 426.517 694.376 429.985L692.012 431.762C691.906 431.828 691.8 431.907 691.708 431.986L690.79 432.673C690.777 432.686 690.757 432.7 690.744 432.706L689.092 433.948C689.092 433.948 708.154 449.152 720.089 446.833Z" fill="#D98365"/>
<path d="M690.415 392.338C686.121 399.933 676.162 397.39 676.162 397.39L683.48 409.18L680.838 409.84L674.795 410.844C674.524 410.547 665.746 400.983 660.581 394.048C658.778 391.624 658.091 388.534 658.758 385.581C659.874 380.634 662.721 373.323 669.94 371.202C681.168 367.9 691.075 371.863 691.075 371.863C691.075 371.863 695.698 379.128 690.415 392.338Z" fill="#CD6D4C"/>
<path d="M675.883 386.393C675.883 386.393 674.562 374.504 684.469 371.863C684.469 371.863 676.544 369.881 669.939 374.504C669.939 374.504 667.297 376.486 667.958 383.751C667.958 383.751 671.26 388.375 675.223 389.035L675.883 386.393Z" fill="#F9C4B7"/>
<path d="M789.518 346.778L759.103 390.356L688.432 330.253C688.432 330.253 663.334 311.099 659.371 303.173C658.605 301.641 657.813 300.003 657.179 298.352C655.171 293.088 654.817 287.645 662.168 284.666C666.765 282.804 671.942 283.009 676.453 285.068L690.89 291.654L708.908 299.871L789.518 346.778Z" fill="#D98365"/>
<path d="M859.495 249.674C859.495 249.674 853.551 253.637 854.211 258.921C854.872 264.205 863.881 275.364 863.881 275.364L859.495 249.674Z" fill="#F9C4B7"/>
<path d="M680.02 399.029C679.875 399.029 679.731 399.027 679.584 399.025C675.158 398.941 671.214 397.642 671.049 397.587L671.466 396.334C671.619 396.384 686.73 401.294 689.785 392.129L691.038 392.547C689.623 396.793 685.817 399.029 680.02 399.029Z" fill="#B26E59"/>
<path d="M678.058 369.852L677.67 368.59C679.992 367.875 686.348 365.465 687.866 362.937L688.998 363.616C686.911 367.096 678.419 369.741 678.058 369.852Z" fill="#B26E59"/>
<path d="M672.723 439.917C672.22 439.917 671.922 439.894 671.863 439.889L671.972 438.573C672.048 438.58 679.806 439.131 688.734 433.392L689.448 434.503C681.774 439.436 675.052 439.917 672.723 439.917Z" fill="#B26E59"/>
<path d="M972.846 721.961L944.306 744.615C937.437 732.924 827.112 550.132 795.759 536.652C793.388 535.635 788.045 533.673 782.154 531.421C769.413 526.546 757.736 519.268 747.743 509.988L704.283 469.614L736.977 458.055C736.977 458.055 760.094 508.252 810.951 524.103L972.846 721.961Z" fill="#D98365"/>
<path d="M702.56 420.415C702.56 420.415 702.56 420.415 702.56 420.421C701.43 423.274 699 426.518 694.377 429.985L692.012 431.762C691.906 431.828 691.801 431.907 691.708 431.986C691.371 432.257 691.068 432.489 690.79 432.673C690.777 432.686 690.757 432.7 690.744 432.706C687.528 434.833 676.095 440.969 667.627 439.562C666.828 437.132 663.334 427.344 663.334 427.344C663.334 427.344 660.692 412.813 681.827 408.85H697.699L701.543 410.37C702.811 412.271 704.363 415.844 702.56 420.415Z" fill="#CD6D4C"/>
<path d="M835.098 478.85C835.098 478.85 841.758 484.582 862.324 491.079C862.324 491.079 841.758 477.869 843.313 462.429L835.098 478.85Z" fill="#D98365"/>
<path d="M690.411 420.078C690.411 420.078 686.448 423.38 681.825 422.72C681.825 422.72 677.862 414.133 682.485 410.831L686.806 408.849H695.179C695.179 408.849 687.769 414.133 690.411 420.078Z" fill="#F9C4B7"/>
<path d="M690.888 291.654L687.44 322.657L657.177 298.352C655.169 293.087 654.815 287.645 662.167 284.666C666.763 282.803 671.94 283.009 676.451 285.067L690.888 291.654Z" fill="#CD6D4C"/>
<path d="M691.231 463.497L683.147 459.706C683.147 459.706 673.239 453.762 671.258 449.799C670.386 448.055 668.755 443.511 667.189 438.954L679.203 439.027C679.203 439.027 682.816 453.174 690.742 455.281L691.231 463.497Z" fill="#CD6D4C"/>
<path d="M858.056 311.07C858.056 311.07 854.655 314.182 846.534 316.928L846.285 314.401C846.285 314.401 845.996 313.753 845.527 312.563C847.94 312.908 852.25 313.003 858.056 311.07Z" fill="#D98365"/>
<path d="M828.215 480.511C828.215 480.511 836.306 484.111 841.302 499.755C841.302 499.755 824.021 481.515 813.873 480.511H828.215Z" fill="#D98365"/>
<path d="M810.949 524.103C810.949 524.103 839.524 531.983 860.98 519.359C860.98 519.359 845.044 535.315 823.394 538.228L810.949 524.103Z" fill="#D98365"/>
<path d="M843.038 190.69V458.725C843.038 471.791 832.445 482.383 819.38 482.383H713.164C700.098 482.383 689.506 471.791 689.506 458.725V190.69C689.506 188.315 689.855 186.023 690.508 183.857C693.438 174.124 702.473 167.032 713.164 167.032H819.38C832.445 167.032 843.038 177.624 843.038 190.69Z" fill="white"/>
<path d="M838.507 193.041H694.035V453.339H838.507V193.041Z" fill="#F7D26B"/>
<path d="M779.514 181.348H753.033C752.017 181.348 751.193 180.525 751.193 179.509V179.254C751.193 178.238 752.017 177.415 753.033 177.415H779.514C780.53 177.415 781.354 178.238 781.354 179.254V179.509C781.354 180.525 780.53 181.348 779.514 181.348Z" fill="#CCCCCC"/>
<path d="M775.868 475.904H756.679C752.561 475.904 749.223 472.565 749.223 468.447V467.337C749.223 463.218 752.561 459.88 756.679 459.88H775.868C779.986 459.88 783.325 463.218 783.325 467.337V468.447C783.325 472.565 779.986 475.904 775.868 475.904Z" fill="#CCCCCC"/>
<path d="M792.155 350.599C806.454 336.301 806.454 313.119 792.155 298.821C777.857 284.523 754.675 284.523 740.377 298.821C726.079 313.119 726.079 336.301 740.377 350.599C754.675 364.897 777.857 364.897 792.155 350.599Z" fill="#46C5BD"/>
<path d="M758.81 345.992L743.117 329.282L748.678 324.061L758.667 334.697L783.805 306.531L789.496 311.61L758.81 345.992Z" fill="white"/>
<path d="M716.233 255.895C718.357 255.895 719.985 256.273 721.116 257.03C722.248 257.787 722.813 258.961 722.813 260.556C722.813 261.551 722.585 262.357 722.13 262.978C721.672 263.598 721.015 264.086 720.157 264.438C720.443 264.794 720.743 265.198 721.055 265.656C721.37 266.112 721.679 266.589 721.987 267.086C722.293 267.583 722.589 268.101 722.875 268.64C723.161 269.177 723.427 269.706 723.672 270.223H720.107C719.848 269.761 719.585 269.29 719.318 268.813C719.051 268.335 718.778 267.873 718.498 267.424C718.218 266.973 717.941 266.547 717.668 266.146C717.393 265.743 717.119 265.379 716.846 265.052H715.273V270.223H712.084V256.263C712.779 256.128 713.498 256.031 714.24 255.976C714.982 255.924 715.646 255.895 716.233 255.895ZM716.416 258.613C716.185 258.613 715.977 258.622 715.792 258.635C715.609 258.648 715.435 258.661 715.272 258.675V262.517H716.172C717.369 262.517 718.229 262.367 718.746 262.068C719.263 261.768 719.523 261.258 719.523 260.534C719.523 259.84 719.26 259.346 718.736 259.054C718.211 258.761 717.437 258.613 716.416 258.613Z" fill="#06424E"/>
<path d="M727.248 270.223V256.059H736.813V258.737H730.436V261.516H736.098V264.132H730.436V267.545H737.282V270.223L727.248 270.223Z" fill="#06424E"/>
<path d="M747.625 270.509C745.323 270.509 743.568 269.868 742.362 268.588C741.156 267.307 740.553 265.488 740.553 263.13C740.553 261.959 740.737 260.913 741.105 259.993C741.473 259.074 741.976 258.297 742.617 257.663C743.257 257.03 744.021 256.548 744.907 256.223C745.792 255.895 746.753 255.732 747.788 255.732C748.388 255.732 748.932 255.775 749.423 255.865C749.913 255.953 750.342 256.054 750.712 256.171C751.079 256.288 751.385 256.406 751.63 256.529C751.876 256.652 752.053 256.747 752.162 256.815L751.242 259.39C750.807 259.158 750.299 258.961 749.72 258.798C749.14 258.635 748.483 258.553 747.748 258.553C747.257 258.553 746.777 258.635 746.306 258.798C745.837 258.961 745.421 259.223 745.06 259.585C744.7 259.945 744.41 260.413 744.192 260.985C743.974 261.557 743.864 262.252 743.864 263.069C743.864 263.722 743.936 264.333 744.079 264.899C744.222 265.464 744.453 265.951 744.774 266.36C745.093 266.768 745.513 267.092 746.032 267.33C746.549 267.57 747.176 267.688 747.911 267.688C748.373 267.688 748.789 267.661 749.159 267.606C749.526 267.552 749.852 267.489 750.138 267.412C750.426 267.337 750.677 267.252 750.895 267.158C751.113 267.063 751.311 266.973 751.487 266.891L752.367 269.446C751.918 269.719 751.285 269.963 750.466 270.181C749.649 270.399 748.701 270.509 747.625 270.509Z" fill="#06424E"/>
<path d="M755.945 270.223V256.059H765.511V258.737H759.134V261.516H764.796V264.132H759.134V267.545H765.98V270.223L755.945 270.223Z" fill="#06424E"/>
<path d="M769.859 256.059H773.048V270.223H769.859V256.059Z" fill="#06424E"/>
<path d="M782.087 270.223C781.523 269.034 780.966 267.8 780.418 266.519C779.869 265.24 779.349 263.974 778.855 262.722C778.361 261.469 777.907 260.27 777.495 259.126C777.08 257.98 776.723 256.958 776.422 256.059H779.936C780.203 256.879 780.497 257.762 780.821 258.708C781.145 259.653 781.477 260.596 781.812 261.534C782.15 262.474 782.473 263.374 782.781 264.233C783.09 265.093 783.384 265.837 783.667 266.462C783.933 265.84 784.224 265.1 784.54 264.24C784.855 263.38 785.181 262.48 785.518 261.541C785.855 260.602 786.185 259.659 786.51 258.715C786.834 257.768 787.128 256.884 787.396 256.058H790.789C790.471 256.963 790.107 257.986 789.694 259.129C789.282 260.271 788.83 261.469 788.339 262.723C787.848 263.977 787.331 265.245 786.787 266.525C786.242 267.806 785.688 269.038 785.127 270.223H782.087Z" fill="#06424E"/>
<path d="M794.143 270.223V256.059H803.708V258.737H797.331V261.516H802.993V264.132H797.331V267.545H804.177V270.223L794.143 270.223Z" fill="#06424E"/>
<path d="M820.465 263.131C820.465 264.357 820.273 265.428 819.893 266.339C819.51 267.253 818.969 268.009 818.267 268.608C817.566 269.209 816.711 269.658 815.703 269.957C814.693 270.256 813.564 270.408 812.31 270.408C811.738 270.408 811.069 270.383 810.307 270.336C809.544 270.288 808.794 270.19 808.059 270.039V256.243C808.794 256.107 809.561 256.016 810.357 255.967C811.156 255.921 811.839 255.896 812.411 255.896C813.624 255.896 814.725 256.032 815.713 256.305C816.701 256.578 817.549 257.007 818.258 257.592C818.966 258.178 819.51 258.928 819.893 259.841C820.273 260.754 820.465 261.85 820.465 263.131ZM811.247 267.626C811.397 267.641 811.57 267.651 811.768 267.658C811.966 267.665 812.2 267.668 812.473 267.668C814.068 267.668 815.249 267.265 816.019 266.462C816.789 265.659 817.173 264.547 817.173 263.13C817.173 261.645 816.806 260.521 816.071 259.759C815.335 258.996 814.169 258.613 812.576 258.613C812.358 258.613 812.132 258.618 811.901 258.624C811.669 258.631 811.452 258.648 811.247 258.674V267.626Z" fill="#06424E"/>
<path d="M944.541 515.459L860.672 584.079L843.11 598.449L842.191 597.285L824.283 574.628L841.811 561.165L925.331 497.017L942.785 516.228L944.541 515.459Z" fill="#FCFCFC"/>
<path d="M1092.46 658.144L995.052 747.319L994.245 748.061L964.614 775.186L839.788 627.399C832.165 618.37 833.291 604.927 842.189 597.285C842.366 597.131 842.55 596.981 842.735 596.831L859.848 583.077L944.282 515.213L946.845 513.154L1092.46 658.144Z" fill="#0E2F56"/>
<path d="M316.322 401.98L332.095 424.456L397.383 372.562C397.383 372.562 397.396 372.555 397.422 372.542C398.07 372.231 406.781 367.918 408.049 357.747C408.049 357.747 406.728 339.914 390.216 337.272C390.216 337.272 381.683 334.947 377.998 338.91C376.941 340.046 376.28 341.691 376.327 344.049C376.333 344.207 376.34 344.372 376.347 344.537C377.007 355.765 376.347 361.049 380.31 365.012L316.322 401.98Z" fill="#EB7969"/>
<path d="M377.998 338.91V356.426C381.195 364.682 392.984 370.574 397.423 372.542C398.07 372.232 406.782 367.919 408.05 357.747C408.05 357.747 406.729 339.914 390.217 337.273C390.217 337.273 381.683 334.948 377.998 338.91Z" fill="#F49981"/>
<path d="M394.843 356.427C394.843 356.427 388.238 347.84 385.596 337.933C385.596 337.933 387.577 337.273 394.843 340.575C394.843 340.575 401.447 345.198 398.805 350.483L394.843 356.427Z" fill="#F9C4B7"/>
<path d="M10.4941 649.601L22.8323 659.395L22.8508 659.406L95.8978 723.695L124.437 746.351C124.437 746.351 241.63 551.867 272.985 538.39C275.354 537.373 280.699 535.41 286.59 533.159C299.332 528.282 311.007 521.003 320.999 511.726L364.461 471.349L279.257 348.5L225.1 374.26C225.1 374.26 219.817 374.26 218.495 356.426L222.208 318.664L222.457 316.138C222.457 316.138 222.746 315.49 223.215 314.3C226.286 306.505 237.043 275.48 224.438 251.411C224.438 251.411 219.348 246.318 213.586 248.387C212.161 248.888 210.693 249.84 209.247 251.411L204.623 278.489C204.623 278.489 194.057 296.982 190.095 302.269C190.095 302.269 182.827 356.426 176.223 367.655C176.223 367.655 164.693 410.894 160.07 435.095C158.953 440.935 158.393 446.866 158.393 452.815V469.243C158.393 476.566 157.064 483.834 154.45 490.676C148.148 507.182 20.0134 644.361 10.4941 649.601Z" fill="#F49981"/>
<path d="M331.984 424.541L348.608 448.893C348.608 448.893 379.836 435.723 393.943 412.587L393.95 412.58C394.221 412.283 402.999 402.719 408.163 395.784C409.967 393.36 410.654 390.269 409.987 387.317C408.87 382.37 406.024 375.059 398.804 372.938C387.576 369.636 377.669 373.599 377.669 373.599C377.669 373.599 373.046 380.864 378.329 394.074C378.329 394.074 348.377 425.948 331.984 424.541Z" fill="#EB7969"/>
<path d="M348.654 448.57L364.46 471.35L377.51 465.234L385.595 461.443C385.595 461.443 395.502 455.499 397.483 451.536C398.355 449.792 399.986 445.248 401.552 440.69C402.477 437.989 403.375 435.288 404.075 433.174C404.874 430.744 405.409 429.079 405.409 429.079C405.409 429.079 408.051 414.549 386.916 410.586H368.423C368.423 410.586 367.848 411.121 367.201 412.105C365.933 414.007 364.381 417.581 366.184 422.151C366.184 422.151 366.184 422.151 366.184 422.158C367.314 425.011 369.744 428.254 374.367 431.721L376.732 433.498C376.837 433.564 376.943 433.643 377.036 433.723L377.953 434.41C377.967 434.423 377.987 434.436 378 434.443L379.651 435.685C379.651 435.684 360.589 450.888 348.654 448.57Z" fill="#EB7969"/>
<path d="M378.328 394.074C382.621 401.669 392.581 399.126 392.581 399.126L385.263 410.916L387.905 411.576L393.948 412.58C394.219 412.283 402.996 402.719 408.161 395.784C409.964 393.36 410.651 390.269 409.984 387.317C408.868 382.37 406.022 375.059 398.802 372.938C387.574 369.636 377.667 373.599 377.667 373.599C377.667 373.599 373.044 380.864 378.328 394.074Z" fill="#F49981"/>
<path d="M392.86 388.13C392.86 388.13 394.181 376.241 384.273 373.599C384.273 373.599 392.199 371.618 398.804 376.241C398.804 376.241 401.446 378.222 400.785 385.488C400.785 385.488 397.483 390.111 393.52 390.771L392.86 388.13Z" fill="#F9C4B7"/>
<path d="M10.4961 649.599L22.8339 659.394L22.8535 659.407L157.1 507.586C162.865 500.576 166.161 491.863 166.482 482.794L167.745 447.024C167.896 442.777 168.478 438.557 169.495 434.435L186.463 365.343L192.07 318.468C193.16 309.327 196.277 300.537 201.198 292.749L202.268 291.052C207.083 283.43 210.18 274.85 211.329 265.908L213.588 248.385C212.162 248.887 210.696 249.838 209.249 251.41L204.626 278.49C204.626 278.49 194.058 296.983 190.095 302.267C190.095 302.267 182.83 356.426 176.225 367.654C176.225 367.654 164.693 410.896 160.07 435.096C158.954 440.934 158.392 446.865 158.392 452.816V469.243C158.392 476.567 157.065 483.833 154.449 490.675C148.149 507.18 20.0138 644.361 10.4961 649.599Z" fill="#F3A892"/>
<path d="M279.225 348.514L309.64 392.092L380.311 331.989C380.311 331.989 405.409 312.835 409.372 304.909C410.138 303.377 410.93 301.739 411.564 300.088C413.572 294.824 413.926 289.381 406.574 286.402C401.979 284.54 396.801 284.746 392.29 286.804L377.853 293.39L359.835 301.607L279.225 348.514Z" fill="#EB7969"/>
<path d="M209.247 251.411C209.247 251.411 215.192 255.373 214.531 260.657C213.871 265.941 204.861 277.101 204.861 277.101L209.247 251.411Z" fill="#F9C4B7"/>
<path d="M388.722 400.765C388.866 400.765 389.01 400.764 389.158 400.761C393.583 400.678 397.527 399.379 397.692 399.324L397.275 398.071C397.122 398.121 382.011 403.03 378.956 393.865L377.703 394.283C379.119 398.529 382.925 400.765 388.722 400.765Z" fill="#B26E59"/>
<path d="M390.684 371.588L391.073 370.326C388.751 369.611 382.394 367.201 380.877 364.673L379.744 365.352C381.832 368.832 390.323 371.477 390.684 371.588Z" fill="#B26E59"/>
<path d="M396.02 441.653C396.522 441.653 396.82 441.631 396.879 441.626L396.77 440.309C396.695 440.316 388.937 440.867 380.009 435.129L379.295 436.239C386.968 441.172 393.691 441.653 396.02 441.653Z" fill="#B26E59"/>
<path d="M95.8984 723.697L124.439 746.351C131.308 734.66 241.632 551.868 272.985 538.388C275.356 537.371 280.699 535.409 286.591 533.157C299.331 528.283 311.009 521.004 321.002 511.725L364.461 471.35L331.768 459.792C331.768 459.792 308.651 509.988 257.794 525.839L95.8984 723.697Z" fill="#EB7969"/>
<path d="M366.183 422.151C366.183 422.151 366.183 422.151 366.183 422.157C367.313 425.01 369.743 428.253 374.366 431.721L376.731 433.497C376.836 433.564 376.942 433.643 377.035 433.722C377.372 433.993 377.675 434.224 377.953 434.409C377.966 434.422 377.986 434.436 377.999 434.442C381.215 436.569 392.648 442.705 401.116 441.298C401.915 438.868 405.409 429.079 405.409 429.079C405.409 429.079 408.051 414.549 386.915 410.586H371.044L367.2 412.105C365.932 414.007 364.38 417.58 366.183 422.151Z" fill="#F49981"/>
<path d="M233.645 480.587C233.645 480.587 226.985 486.319 206.418 492.816C206.418 492.816 226.984 479.606 225.43 464.165L233.645 480.587Z" fill="#EB7969"/>
<path d="M378.33 421.814C378.33 421.814 382.293 425.116 386.916 424.455C386.916 424.455 390.879 415.869 386.256 412.567L381.935 410.585H373.563C373.563 410.585 380.972 415.87 378.33 421.814Z" fill="#F9C4B7"/>
<path d="M377.855 293.391L381.303 324.393L411.566 300.088C413.574 294.824 413.928 289.381 406.576 286.402C401.98 284.54 396.803 284.746 392.291 286.804L377.855 293.391Z" fill="#F49981"/>
<path d="M377.51 465.234L385.594 461.443C385.594 461.443 395.501 455.499 397.483 451.536C398.354 449.792 399.986 445.248 401.551 440.69L389.537 440.763C389.537 440.763 385.924 454.91 377.998 457.017L377.51 465.234Z" fill="#F49981"/>
<path d="M210.688 312.806C210.688 312.806 214.089 315.918 222.21 318.664L222.459 316.138C222.459 316.138 222.748 315.49 223.217 314.3C220.803 314.644 216.494 314.74 210.688 312.806Z" fill="#EB7969"/>
<path d="M240.529 482.247C240.529 482.247 232.437 485.847 227.441 501.491C227.441 501.491 244.722 483.251 254.871 482.247H240.529Z" fill="#EB7969"/>
<path d="M257.794 525.839C257.794 525.839 229.219 533.719 207.764 521.095C207.764 521.095 223.7 537.05 245.35 539.964L257.794 525.839Z" fill="#EB7969"/>
<path d="M379.514 178.334V467.151C379.514 472.029 377.2 476.366 373.605 479.123C371.06 481.085 367.87 482.247 364.413 482.247H242.039C233.704 482.247 226.943 475.486 226.943 467.151V178.334C226.943 170.002 233.704 163.238 242.039 163.238H364.413C372.749 163.238 379.514 170.002 379.514 178.334Z" fill="white"/>
<path opacity="0.6" d="M241.816 169.181C238.533 169.107 235.232 170.45 232.902 172.82C231.734 173.999 230.806 175.42 230.191 176.969C229.564 178.514 229.301 180.208 229.296 181.862L229.053 201.516L228.75 240.824C228.619 253.927 228.643 267.029 228.594 280.132L228.496 319.44L228.593 358.748C228.644 371.85 228.614 384.953 228.746 398.055L229.049 437.363L229.294 457.017C229.299 458.672 229.562 460.365 230.189 461.911C230.804 463.461 231.733 464.881 232.901 466.06C235.231 468.43 238.533 469.773 241.816 469.698C238.531 469.662 235.327 468.214 233.137 465.831C232.034 464.651 231.168 463.256 230.614 461.748C230.047 460.236 229.837 458.636 229.871 457.017L230.116 437.363L230.42 398.055C230.552 384.953 230.522 371.85 230.573 358.748L230.67 319.44L230.571 280.132C230.522 267.029 230.547 253.927 230.416 240.824L230.113 201.516L229.869 181.862C229.835 180.243 230.045 178.643 230.612 177.131C231.166 175.623 232.033 174.227 233.136 173.047C235.328 170.665 238.531 169.217 241.816 169.181Z" fill="white"/>
<path opacity="0.6" d="M364.637 469.698C367.92 469.774 371.222 468.431 373.553 466.061C374.722 464.882 375.65 463.462 376.266 461.911C376.893 460.366 377.156 458.672 377.162 457.017L377.409 437.363L377.718 398.055C377.851 384.953 377.826 371.85 377.875 358.748L377.976 319.44L377.877 280.132C377.825 267.029 377.856 253.927 377.721 240.824L377.413 201.516L377.163 181.862C377.158 180.207 376.895 178.513 376.267 176.967C375.651 175.417 374.722 173.996 373.554 172.817C371.222 170.447 367.92 169.105 364.637 169.181C367.922 169.217 371.125 170.667 373.313 173.05C374.416 174.23 375.282 175.625 375.835 177.133C376.402 178.645 376.61 180.244 376.576 181.862L376.327 201.516L376.018 240.824C375.883 253.927 375.914 267.029 375.862 280.132L375.763 319.44L375.864 358.748C375.913 371.85 375.889 384.953 376.022 398.055L376.33 437.363L376.578 457.017C376.611 458.636 376.403 460.235 375.836 461.747C375.282 463.255 374.416 464.65 373.313 465.83C371.125 468.212 367.922 469.662 364.637 469.698Z" fill="white"/>
<path d="M374.888 457.465V181.414C374.888 175.752 370.299 171.162 364.637 171.162H241.816C236.154 171.162 231.564 175.752 231.564 181.414V457.465C231.564 463.127 236.154 467.717 241.816 467.717H364.636C370.299 467.717 374.888 463.127 374.888 457.465Z" fill="#46C5BD"/>
<path d="M307.288 180.559C308.101 178.313 306.94 175.833 304.694 175.019C302.448 174.206 299.968 175.367 299.155 177.613C298.341 179.858 299.502 182.338 301.748 183.152C303.994 183.966 306.474 182.805 307.288 180.559Z" fill="#3AA39D"/>
<path opacity="0.5" d="M364.321 478.945C359.23 478.796 354.139 478.732 349.048 478.623C343.956 478.546 338.865 478.476 333.774 478.431C328.683 478.371 323.592 478.357 318.501 478.321L303.227 478.285L287.953 478.319C282.862 478.356 277.771 478.368 272.68 478.429C267.589 478.474 262.498 478.544 257.406 478.621C252.315 478.731 247.224 478.795 242.133 478.945C247.224 479.094 252.315 479.159 257.406 479.269C262.498 479.346 267.589 479.416 272.68 479.46C277.771 479.522 282.862 479.534 287.953 479.57L303.227 479.605L318.501 479.568C323.592 479.532 328.683 479.519 333.774 479.458C338.865 479.414 343.956 479.343 349.048 479.266C354.139 479.158 359.23 479.094 364.321 478.945Z" fill="white"/>
<path d="M343.263 339.158C365.376 317.045 365.376 281.194 343.263 259.081C321.151 236.969 285.299 236.969 263.187 259.081C241.074 281.194 241.074 317.045 263.187 339.158C285.299 361.27 321.151 361.27 343.263 339.158Z" fill="#3AA39D"/>
<path d="M284.64 293.721H278.652V317.673H284.64V293.721Z" fill="white"/>
<path d="M287.01 317.673H276.281V320.667H287.01V317.673Z" fill="white"/>
<path d="M287.137 290.727H276.408V293.721H287.137V290.727Z" fill="white"/>
<path d="M298.863 293.721H292.875V317.673H298.863V293.721Z" fill="white"/>
<path d="M301.234 317.673H290.506V320.667H301.234V317.673Z" fill="white"/>
<path d="M301.357 290.727H290.629V293.721H301.357V290.727Z" fill="white"/>
<path d="M313.084 293.721H307.096V317.673H313.084V293.721Z" fill="white"/>
<path d="M315.453 317.673H304.725V320.667H315.453V317.673Z" fill="white"/>
<path d="M315.578 290.727H304.85V293.721H315.578V290.727Z" fill="white"/>
<path d="M327.304 293.721H321.316V317.673H327.304V293.721Z" fill="white"/>
<path d="M329.674 317.673H318.945V320.667H329.674V317.673Z" fill="white"/>
<path d="M329.799 290.727H319.07V293.721H329.799V290.727Z" fill="white"/>
<path d="M303.228 269.34L266.553 286.112H303.228H339.904L303.228 269.34Z" fill="white"/>
<path d="M333.916 320.667H272.291V324.16H333.916V320.667Z" fill="white"/>
<path d="M338.782 325.407H267.676V328.9H338.782V325.407Z" fill="white"/>
<path d="M334.039 287.234H272.414V290.727H334.039V287.234Z" fill="white"/>
<path d="M332.071 406.005H274.389C272.582 406.005 271.117 403.501 271.117 400.413V386.192C271.117 383.104 272.582 380.6 274.389 380.6H332.071C333.878 380.6 335.343 383.104 335.343 386.192V400.413C335.343 403.501 333.879 406.005 332.071 406.005Z" fill="#06424E"/>
<path d="M335.342 386.191V400.414C335.342 403.499 333.878 406.005 332.069 406.005H274.387C273.023 406.005 271.851 404.571 271.363 402.539C271.947 403.496 272.743 404.083 273.619 404.083H331.3C333.11 404.083 334.574 401.578 334.574 398.493V384.27C334.574 383.517 334.485 382.802 334.328 382.145C334.954 383.163 335.342 384.6 335.342 386.191Z" fill="#06424E"/>
<path d="M289.252 397.143C289.937 397.143 290.47 397.018 290.852 396.768C291.233 396.518 291.423 396.113 291.423 395.553C291.423 395.231 291.362 394.961 291.239 394.745C291.116 394.529 290.953 394.346 290.75 394.197C290.547 394.049 290.314 393.923 290.052 393.817C289.789 393.712 289.515 393.6 289.227 393.482C288.863 393.34 288.536 393.193 288.249 393.041C287.961 392.89 287.716 392.719 287.513 392.529C287.31 392.338 287.155 392.121 287.05 391.875C286.943 391.629 286.891 391.342 286.891 391.011C286.891 390.258 287.141 389.687 287.64 389.297C288.14 388.909 288.833 388.714 289.721 388.714C289.959 388.714 290.191 388.731 290.42 388.764C290.649 388.798 290.862 388.843 291.062 388.898C291.26 388.953 291.443 389.014 291.607 389.082C291.772 389.15 291.91 389.222 292.021 389.298L291.716 390.022C291.47 389.852 291.171 389.717 290.82 389.616C290.469 389.513 290.091 389.463 289.685 389.463C289.405 389.463 289.149 389.491 288.916 389.545C288.684 389.6 288.482 389.689 288.314 389.812C288.144 389.935 288.011 390.089 287.913 390.276C287.816 390.462 287.767 390.686 287.767 390.948C287.767 391.219 287.818 391.447 287.92 391.633C288.021 391.82 288.163 391.98 288.345 392.116C288.526 392.251 288.741 392.374 288.986 392.485C289.231 392.594 289.498 392.709 289.786 392.827C290.133 392.971 290.461 393.115 290.77 393.258C291.078 393.403 291.347 393.571 291.576 393.767C291.805 393.961 291.987 394.199 292.122 394.477C292.257 394.756 292.326 395.099 292.326 395.505C292.326 396.301 292.048 396.898 291.494 397.296C290.939 397.693 290.188 397.892 289.24 397.892C288.901 397.892 288.593 397.871 288.314 397.829C288.034 397.787 287.784 397.734 287.565 397.67C287.344 397.607 287.158 397.541 287.006 397.474C286.853 397.406 286.735 397.346 286.65 397.296L286.929 396.547C287.014 396.598 287.129 396.657 287.272 396.725C287.416 396.792 287.586 396.858 287.78 396.921C287.975 396.986 288.195 397.038 288.44 397.08C288.685 397.122 288.956 397.143 289.252 397.143Z" fill="white"/>
<path d="M294.875 397.702V388.904H299.953V389.653H295.739V392.713H299.496V393.449H295.739V396.953H300.283V397.702L294.875 397.702Z" fill="white"/>
<path d="M308.867 397.702C308.703 397.408 308.499 397.06 308.252 396.661C308.005 396.261 307.731 395.836 307.43 395.387C307.129 394.937 306.814 394.473 306.487 393.993C306.159 393.514 305.833 393.047 305.507 392.593C305.183 392.14 304.864 391.715 304.554 391.319C304.243 390.923 303.967 390.58 303.725 390.292V397.702H302.875V388.904H303.56C303.993 389.387 304.456 389.943 304.949 390.575C305.442 391.207 305.926 391.851 306.401 392.507C306.875 393.162 307.318 393.802 307.729 394.428C308.14 395.054 308.477 395.599 308.74 396.064V388.904H309.59V397.702H308.867Z" fill="white"/>
<path d="M319.81 393.296C319.81 394.049 319.692 394.706 319.455 395.264C319.218 395.822 318.885 396.288 318.459 396.66C318.031 397.033 317.521 397.312 316.929 397.498C316.336 397.685 315.685 397.778 314.974 397.778C314.619 397.778 314.245 397.759 313.856 397.72C313.467 397.683 313.125 397.625 312.828 397.55V389.069C313.125 388.984 313.467 388.923 313.856 388.885C314.246 388.846 314.619 388.828 314.974 388.828C315.685 388.828 316.336 388.921 316.929 389.107C317.521 389.293 318.031 389.573 318.459 389.945C318.885 390.318 319.218 390.783 319.455 391.341C319.692 391.899 319.81 392.551 319.81 393.296ZM313.692 396.94C313.743 396.948 313.871 396.965 314.078 396.991C314.286 397.016 314.619 397.029 315.075 397.029C315.71 397.029 316.265 396.942 316.739 396.768C317.212 396.595 317.61 396.347 317.932 396.026C318.253 395.704 318.494 395.313 318.655 394.851C318.816 394.39 318.897 393.872 318.897 393.296C318.897 392.721 318.816 392.204 318.655 391.748C318.494 391.291 318.253 390.902 317.932 390.579C317.61 390.258 317.212 390.011 316.739 389.837C316.265 389.664 315.71 389.577 315.075 389.577C314.619 389.577 314.286 389.589 314.078 389.615C313.871 389.64 313.743 389.657 313.692 389.665V396.94Z" fill="white"/>
<path d="M166.251 485.92C166.251 485.92 167.929 504.901 177.954 510.099C177.954 510.099 165.717 502.827 162.213 499.678L166.251 485.92Z" fill="#F3A892"/>
<path d="M241.253 593.047L127.661 746.243L107.298 730.844H107.294L0.863281 650.363L127.661 501.339L134.557 506.907L219.476 575.465L236.55 589.251L241.253 593.047Z" fill="#1A1A1A"/>
<path d="M250.654 569.249L236.549 589.251L219.475 575.465L134.557 506.907L148.838 490.485L233.31 555.832L250.654 569.249Z" fill="#FCFCFC"/>
<path opacity="0.3" d="M236.551 589.251L241.254 593.047L127.662 746.243L95.5996 723.702C97.0865 724.893 186.792 621.801 219.477 575.465C226.908 564.93 231.998 557.699 233.312 555.832L250.656 569.249L236.551 589.251Z" fill="#1A1A1A"/>
<path opacity="0.3" d="M995.054 747.319L994.247 748.061L964.616 775.186L839.79 627.399C832.167 618.37 833.293 604.927 842.191 597.285L824.283 574.628L841.811 561.165L859.85 583.076L860.672 584.079L995.054 747.319Z" fill="#1A1A1A"/>
<path d="M720.728 120.373C744.275 120.373 763.364 101.133 763.364 77.4C763.364 53.6665 744.275 34.4268 720.728 34.4268C697.181 34.4268 678.092 53.6665 678.092 77.4C678.092 101.133 697.181 120.373 720.728 120.373Z" fill="#F9DE59"/>
<path d="M756.465 77.3999C756.465 97.2917 740.463 113.42 720.728 113.42C717.679 113.42 714.725 113.038 711.895 112.31C708.278 111.384 704.872 109.899 701.787 107.944C700.525 107.157 699.314 106.282 698.169 105.341C694.749 102.526 691.853 99.0929 689.658 95.2043C686.682 89.9556 684.99 83.8762 684.99 77.3999C684.99 57.5082 700.992 41.3798 720.728 41.3798C727.153 41.3798 733.185 43.0853 738.392 46.0844C742.25 48.2971 745.656 51.2156 748.45 54.6631C749.383 55.8173 750.251 57.0375 751.032 58.3093C752.971 61.4187 754.445 64.8516 755.364 68.4978C756.086 71.3498 756.465 74.327 756.465 77.3999Z" fill="#E69728"/>
<path d="M720.66 97.2612L710.335 79.2335V76.8298H711.537C713.467 76.8298 715.088 76.6477 716.399 76.2835C717.747 75.9193 718.803 75.3184 719.568 74.4808C720.332 73.6431 720.788 72.4959 720.933 71.0391H710.335V67.5428H720.879C720.624 66.1953 720.114 65.1027 719.349 64.2651C718.584 63.391 717.546 62.7537 716.235 62.353C714.961 61.9524 713.395 61.7521 711.537 61.7521H710.335V58.2558H732.952V61.7521H722.627C723.465 62.4441 724.156 63.2635 724.703 64.2104C725.249 65.1573 725.595 66.2681 725.741 67.5428H732.952V71.0391H725.85C725.595 73.6977 724.575 75.7737 722.791 77.2669C721.043 78.7237 718.712 79.6524 715.798 80.053L726.232 97.2612H720.66Z" fill="#F9DE59"/>
<g opacity="0.8">
<path d="M746.889 52.8692C740.508 46.8709 731.952 43.2174 722.551 43.2174C702.815 43.2174 686.814 59.3455 686.814 79.2376C686.814 88.7131 690.438 97.3359 696.39 103.768C689.381 97.196 684.99 87.8163 684.99 77.3999C684.99 57.5082 700.992 41.3798 720.728 41.3798C731.063 41.3798 740.369 45.8051 746.889 52.8692Z" fill="#F2AD00"/>
</g>
<path d="M350.499 128.768C364.199 128.768 375.306 117.573 375.306 103.765C375.306 89.9556 364.199 78.7612 350.499 78.7612C336.798 78.7612 325.691 89.9556 325.691 103.765C325.691 117.573 336.798 128.768 350.499 128.768Z" fill="#F9DE59"/>
<path d="M371.292 103.764C371.292 115.338 361.982 124.722 350.499 124.722C348.725 124.722 347.006 124.5 345.36 124.077C343.255 123.538 341.273 122.674 339.478 121.536C338.744 121.079 338.04 120.569 337.374 120.022C335.383 118.384 333.699 116.387 332.421 114.124C330.69 111.07 329.705 107.533 329.705 103.765C329.705 92.1909 339.016 82.8069 350.499 82.8069C354.237 82.8069 357.747 83.7993 360.777 85.5444C363.022 86.8319 365.003 88.5297 366.629 90.5357C367.172 91.2073 367.677 91.9173 368.131 92.6573C369.26 94.4665 370.117 96.4641 370.652 98.5853C371.072 100.244 371.292 101.977 371.292 103.764Z" fill="#E69728"/>
<g opacity="0.8">
<path d="M365.72 89.4917C362.007 86.0015 357.029 83.8757 351.559 83.8757C340.076 83.8757 330.766 93.2596 330.766 104.834C330.766 110.347 332.875 115.364 336.338 119.106C332.26 115.283 329.705 109.825 329.705 103.764C329.705 92.1904 339.016 82.8064 350.499 82.8064C356.512 82.8068 361.927 85.3814 365.72 89.4917Z" fill="#F2AD00"/>
</g>
<path d="M446.972 77.5376C463.9 77.5376 477.623 63.706 477.623 46.6439C477.623 29.5818 463.9 15.7502 446.972 15.7502C430.043 15.7502 416.32 29.5818 416.32 46.6439C416.32 63.706 430.043 77.5376 446.972 77.5376Z" fill="#F9DE59"/>
<path d="M472.663 46.6439C472.663 60.9442 461.159 72.5389 446.971 72.5389C444.78 72.5389 442.656 72.2642 440.622 71.7409C438.021 71.0751 435.572 70.0074 433.355 68.6019C432.448 68.0364 431.577 67.4074 430.754 66.7312C428.295 64.7072 426.213 62.2394 424.635 59.4435C422.496 55.6701 421.279 51.2997 421.279 46.6439C421.279 32.3435 432.783 20.7488 446.971 20.7488C451.59 20.7488 455.927 21.9748 459.67 24.131C462.444 25.7216 464.892 27.8198 466.901 30.2984C467.572 31.1283 468.196 32.0054 468.757 32.9194C470.151 35.1548 471.21 37.623 471.871 40.244C472.39 42.2946 472.663 44.4346 472.663 46.6439Z" fill="#E69728"/>
<g opacity="0.8">
<path d="M465.779 29.0089C461.191 24.6966 455.041 22.0701 448.282 22.0701C434.094 22.0701 422.59 33.6648 422.59 47.9652C422.59 54.7772 425.196 60.9761 429.475 65.6001C424.436 60.8754 421.279 54.1321 421.279 46.6439C421.279 32.3435 432.783 20.7488 446.971 20.7488C454.401 20.7488 461.091 23.9301 465.779 29.0089Z" fill="#F2AD00"/>
</g>
<path d="M576.941 71.7149C596.326 71.7149 612.041 55.8755 612.041 36.3367C612.041 16.7978 596.326 0.958496 576.941 0.958496C557.555 0.958496 541.84 16.7978 541.84 36.3367C541.84 55.8755 557.555 71.7149 576.941 71.7149Z" fill="#F9DE59"/>
<path d="M606.363 36.3366C606.363 52.7128 593.189 65.9908 576.941 65.9908C574.431 65.9908 571.999 65.6761 569.67 65.0767C566.691 64.3141 563.887 63.0915 561.348 61.482C560.309 60.8346 559.312 60.1143 558.37 59.3397C555.553 57.0217 553.17 54.1955 551.362 50.9942C548.913 46.6734 547.52 41.6683 547.52 36.3366C547.52 19.9603 560.693 6.68237 576.941 6.68237C582.231 6.68237 587.197 8.08628 591.484 10.5556C594.66 12.3772 597.464 14.7796 599.764 17.6182C600.532 18.5683 601.247 19.573 601.889 20.62C603.486 23.18 604.699 26.0063 605.456 29.0081C606.051 31.3557 606.363 33.8069 606.363 36.3366Z" fill="#E69728"/>
<g opacity="0.8">
<path d="M598.479 16.1414C593.225 11.2031 586.182 8.19515 578.442 8.19515C562.194 8.19515 549.021 21.4731 549.021 37.8494C549.021 45.6504 552.005 52.7491 556.904 58.0443C551.134 52.6338 547.52 44.9115 547.52 36.3363C547.52 19.9601 560.693 6.68213 576.941 6.68213C585.449 6.68251 593.111 10.3256 598.479 16.1414Z" fill="#F2AD00"/>
</g>
<path d="M575.986 49.0443L568.737 36.3872V34.6995H569.581C570.936 34.6995 572.074 34.5717 572.994 34.316C573.941 34.0603 574.682 33.6384 575.219 33.0503C575.756 32.4622 576.076 31.6567 576.178 30.6339H568.737V28.1792H576.14C575.961 27.2331 575.603 26.466 575.066 25.8779C574.529 25.2642 573.8 24.8167 572.879 24.5355C571.984 24.2542 570.885 24.1136 569.581 24.1136H568.737V21.6588H584.616V24.1136H577.367C577.955 24.5994 578.441 25.1747 578.824 25.8395C579.208 26.5044 579.451 27.2842 579.553 28.1792H584.616V30.6339H579.63C579.451 32.5005 578.735 33.958 577.482 35.0064C576.255 36.0292 574.618 36.6812 572.573 36.9625L579.898 49.0443H575.986Z" fill="#F9DE59"/>
<path d="M446.335 58.7612L439.94 47.5959V46.1072H440.685C441.88 46.1072 442.884 45.9944 443.696 45.7689C444.531 45.5433 445.185 45.1711 445.658 44.6523C446.132 44.1335 446.414 43.423 446.504 42.5208H439.94V40.3554H446.471C446.313 39.5208 445.997 38.8441 445.523 38.3253C445.049 37.784 444.407 37.3892 443.595 37.1411C442.805 36.893 441.835 36.7689 440.685 36.7689H439.94V34.6035H453.948V36.7689H447.553C448.072 37.1975 448.501 37.705 448.839 38.2915C449.177 38.8779 449.392 39.5659 449.482 40.3554H453.948V42.5208H449.549C449.392 44.1674 448.76 45.4531 447.655 46.3779C446.572 47.2801 445.128 47.8553 443.324 48.1034L449.786 58.7612H446.335Z" fill="#F9DE59"/>
<path d="M349.802 112.268L345.022 103.921V102.808H345.578C346.472 102.808 347.222 102.724 347.829 102.555C348.453 102.386 348.942 102.108 349.296 101.72C349.65 101.333 349.861 100.801 349.929 100.127H345.022V98.5081H349.903C349.785 97.8842 349.549 97.3783 349.195 96.9904C348.841 96.5857 348.36 96.2907 347.753 96.1052C347.163 95.9197 346.438 95.8269 345.578 95.8269H345.022V94.2081H355.493V95.8269H350.713C351.101 96.1473 351.421 96.5267 351.674 96.9652C351.927 97.4036 352.087 97.9179 352.155 98.5081H355.493V100.127H352.205C352.087 101.358 351.615 102.319 350.789 103.01C349.979 103.685 348.9 104.115 347.551 104.3L352.382 112.268H349.802Z" fill="#F9DE59"/>
<path d="M587.39 257.269H573.558V245.743H587.39V257.269ZM559.726 257.269H545.895V245.743H559.726V257.269ZM532.063 257.269H518.232V245.743H532.063V257.269ZM504.4 257.269H490.568V245.743H504.4V257.269Z" fill="#46C5BD"/>
<path d="M496.204 231.39L461.367 251.506L496.204 271.622V231.39Z" fill="#46C5BD"/>
<path d="M558.438 203.096H461.367V214.622H558.438V203.096Z" fill="#46C5BD"/>
<path d="M552.551 228.975L587.387 208.859L552.551 188.743V228.975Z" fill="#46C5BD"/>
</svg>
