<svg width="41" height="44" viewBox="0 0 41 44" fill="none" xmlns="http://www.w3.org/2000/svg">
<path d="M5.12072 43.1923C3.71252 43.1923 2.50745 42.7095 1.50549 41.7439C0.50183 40.7767 0 39.6146 0 38.2575V16.0505C0 15.2692 0.181785 14.529 0.545356 13.8298C0.90722 13.1307 1.4082 12.555 2.04829 12.1026L17.4104 0.999182C17.8798 0.67019 18.3706 0.423446 18.8827 0.25895C19.3947 0.0944546 19.9281 0.012207 20.4829 0.012207C21.0376 0.012207 21.571 0.0944546 22.0831 0.25895C22.5952 0.423446 23.0859 0.67019 23.5553 0.999182L38.9175 12.1026C39.5576 12.555 40.0594 13.1307 40.423 13.8298C40.7848 14.529 40.9658 15.2692 40.9658 16.0505V38.2575C40.9658 39.6146 40.4648 40.7767 39.4628 41.7439C38.4592 42.7095 37.2532 43.1923 35.845 43.1923H25.6036V25.9203H15.3622V43.1923H5.12072Z" fill="#1D2F71"/>
</svg>
