<svg width="35" height="39" viewBox="0 0 35 39" fill="none" xmlns="http://www.w3.org/2000/svg">
<path d="M32.4996 38.9101C28.0381 38.9101 23.8413 37.9575 19.9095 36.0522C15.9764 34.1469 12.5445 31.5396 9.61358 28.2302C6.68155 24.9195 4.36497 21.0444 2.66386 16.6048C0.961612 12.1639 0.110486 7.40843 0.110486 2.33846C0.0818865 1.75719 0.253484 1.24825 0.62528 0.811652C0.997076 0.376345 1.45467 0.158691 1.99806 0.158691H8.69039C9.20518 0.158691 9.64847 0.376345 10.0203 0.811652C10.3921 1.24825 10.578 1.77333 10.578 2.3869C10.578 3.80778 10.6638 5.14793 10.8354 6.40735C11.007 7.66677 11.2787 8.86161 11.6505 9.99186C11.7935 10.3471 11.822 10.7101 11.7362 11.0808C11.6505 11.4528 11.4789 11.8003 11.2215 12.1232L6.93151 16.9671C8.16129 19.8089 9.90587 22.5053 12.1652 25.0565C14.4246 27.6076 16.8556 29.642 19.4582 31.1598L23.7481 26.3159C24.0055 26.0252 24.3058 25.8315 24.649 25.7346C24.9922 25.6377 25.3354 25.67 25.6786 25.8315C26.7368 26.219 27.8304 26.5174 28.9595 26.7266C30.0898 26.9372 31.2555 27.0425 32.4567 27.0425C33.0001 27.0425 33.4651 27.2685 33.8518 27.7206C34.2373 28.1727 34.4301 28.7217 34.4301 29.3676V36.7788C34.4301 37.36 34.2442 37.8606 33.8724 38.2804C33.5006 38.7002 33.043 38.9101 32.4996 38.9101ZM30.9981 19.5344C30.9981 15.2072 29.6682 11.5419 27.0085 8.53868C24.3487 5.53545 21.1026 4.03383 17.2703 4.03383V0.158691C19.6441 0.158691 21.8748 0.66698 23.9626 1.68356C26.0504 2.70143 27.8665 4.08227 29.4108 5.82608C30.9552 7.5699 32.1776 9.62049 33.0779 11.9779C33.9794 14.3352 34.4301 16.8541 34.4301 19.5344H30.9981ZM24.1342 19.5344C24.1342 17.4031 23.4621 15.5785 22.1179 14.0608C20.7737 12.543 19.1579 11.7841 17.2703 11.7841V7.90897C20.1303 7.90897 22.5612 9.03922 24.5632 11.2997C26.5652 13.5602 27.5662 16.3051 27.5662 19.5344H24.1342Z" fill="#1D2F71"/>
</svg>
