<svg width="41" height="32" viewBox="0 0 41 32" fill="none" xmlns="http://www.w3.org/2000/svg">
<path d="M4.09658 31.8766C2.97002 31.8766 2.00596 31.4975 1.20439 30.7393C0.401465 29.9797 0 29.0671 0 28.0015V4.75063C0 3.68496 0.401465 2.77301 1.20439 2.01478C2.00596 1.25525 2.97002 0.875488 4.09658 0.875488H36.8692C37.9957 0.875488 38.9605 1.25525 39.7634 2.01478C40.565 2.77301 40.9658 3.68496 40.9658 4.75063V28.0015C40.9658 29.0671 40.565 29.9797 39.7634 30.7393C38.9605 31.4975 37.9957 31.8766 36.8692 31.8766H4.09658ZM20.4829 17.9745C20.6536 17.9745 20.8325 17.95 21.0195 17.9009C21.208 17.8531 21.3875 17.7808 21.5582 17.6839L36.0499 9.11016C36.323 8.9487 36.5278 8.74719 36.6644 8.50564C36.8009 8.2628 36.8692 7.99606 36.8692 7.70542C36.8692 7.05957 36.579 6.57517 35.9987 6.25224C35.4183 5.92932 34.8209 5.94546 34.2064 6.30068L20.4829 14.4385L6.75935 6.30068C6.14486 5.94546 5.54745 5.93707 4.9671 6.2755C4.38675 6.61522 4.09658 7.09186 4.09658 7.70542C4.09658 8.02835 4.16485 8.31059 4.3014 8.55214C4.43796 8.79498 4.64279 8.98099 4.91589 9.11016L19.4075 17.6839C19.5782 17.7808 19.7578 17.8531 19.9462 17.9009C20.1333 17.95 20.3122 17.9745 20.4829 17.9745Z" fill="#1D2F71"/>
</svg>
