<svg width="168" height="216" viewBox="0 0 168 216" fill="none" xmlns="http://www.w3.org/2000/svg">
<path d="M64.3287 62.24C64.6753 65.3502 62.4342 68.1526 59.3236 68.4987L32.5283 71.5104C29.4182 71.8566 26.6158 69.6154 26.2696 66.5058C25.9235 63.3947 28.1642 60.5933 31.2743 60.2471L58.0705 57.2354C61.1806 56.8883 63.9825 59.1294 64.3287 62.24Z" fill="#F2CEAD"/>
<path d="M70.6999 25.639L48.0835 22.5318L41.4004 0.283142L83.1375 6.01706L70.6999 25.639Z" fill="#E0AF54"/>
<path d="M80.2391 60.1443C80.2146 65.1057 75.9642 68.6412 71.0791 69.5078C63.939 70.7743 51.8403 69.5434 51.8403 69.5434C48.263 70.24 49.2813 63.9563 48.841 59.0146C47.4468 43.3598 45.0977 29.3104 45.0977 29.3104C45.1221 24.3489 47.4281 22.5836 52.39 22.6076L71.4368 23.0565C76.3982 23.0805 80.4009 27.1225 80.3764 32.084L80.2391 60.1443Z" fill="#E5C1A3"/>
<path d="M64.1778 54.1372C63.5397 58.7866 67.7325 67.1159 72.3824 67.7545L107.054 68.6043C111.704 69.2428 115.99 65.9925 116.629 61.3431L118.418 48.3226C119.056 43.6738 115.806 39.3869 111.156 38.7483L74.8266 30.5044C70.1777 29.8654 66.6062 36.4688 65.9672 41.1172L64.1778 54.1372Z" fill="#F2CEAD"/>
<g opacity="0.1">
<path d="M68.9139 54.0379C67.5653 48.1633 68.5524 39.7662 66.2637 36.4837C65.497 45.5861 58.4293 70.7009 72.4494 69.19C72.2353 67.2221 71.2487 64.3986 70.865 62.8181C70.3878 60.8487 69.5222 56.6847 68.9139 54.0379Z" fill="black"/>
</g>
<path opacity="0.1" d="M111.153 38.7479L85.1497 32.8474C87.4067 34.9382 87.3702 38.4228 87.3212 41.2809C87.1148 53.4502 85.8641 64.968 80.0332 67.9422L107.05 68.6043C111.701 69.2428 115.987 65.9925 116.625 61.3431L118.414 48.3226C119.053 43.6738 115.803 39.3864 111.153 38.7479Z" fill="black"/>
<path d="M114.728 169.107C108.911 211.449 80.1126 218.275 48.7079 213.96C17.3031 209.647 -4.3353 195.827 1.48167 153.483C5.50209 124.218 52.7955 64.3304 52.7955 64.3304L66.36 61.3139C66.36 61.3139 119.292 135.882 114.728 169.107Z" fill="#E0AF54"/>
<path d="M86.9219 69.4243L246.923 98.3018L254.034 46.5439L89.4501 30.9447L86.9219 69.4243Z" fill="#F2F2F2"/>
<path opacity="0.1" d="M90.8906 70.1229L249.165 98.61L256.275 46.8526L93.2624 31.3259L90.8906 70.1229Z" fill="black"/>
<path d="M92.2969 74.1317L277.34 107.294L285.747 46.0873L95.3163 27.7817L92.2969 74.1317Z" fill="#272727"/>
<path d="M92.2969 74.1318L277.34 107.294L280.611 83.4775L93.2398 59.6618L92.2969 74.1318Z" fill="black"/>
<path d="M97.9326 68.4521C97.7228 69.9769 98.79 71.3831 100.314 71.592C101.839 71.8018 103.244 70.7355 103.454 69.2102C103.664 67.6854 102.597 66.2791 101.072 66.0698C99.5481 65.8605 98.1419 66.9273 97.9326 68.4521Z" fill="#F2F2F2"/>
<path d="M73.5386 74.2302C61.908 48.0951 69.1255 25.4225 69.1255 25.4225L47.4434 23.359C47.4434 23.359 55.8865 57.6809 49.2457 68.9418C45.257 75.7036 75.8695 79.4677 73.5386 74.2302Z" fill="#E0AF54"/>
<path d="M61.075 49.7136C61.46 53.1718 58.9683 56.2877 55.51 56.6727L43.6274 57.9954C40.1692 58.3804 37.0528 55.8882 36.6682 52.4305C36.2827 48.9713 38.7745 45.8559 42.2332 45.4708L54.1158 44.1477C57.574 43.7631 60.6899 46.2549 61.075 49.7136Z" fill="#F2CEAD"/>
<path d="M114.731 169.107C116.552 155.848 109.218 136.008 99.7458 116.95C105.833 132.561 110.155 148.052 108.672 158.847C102.241 205.657 70.4036 212.724 35.6851 207.954C29.8317 207.149 24.2884 206.043 19.1426 204.54C27.1344 209.553 37.2729 212.389 48.7109 213.96C80.1162 218.275 108.914 211.449 114.731 169.107Z" fill="#C18442"/>
<path d="M58.5167 36.428C58.9017 39.8867 56.4104 43.0021 52.9513 43.3872L41.0691 44.7104C37.6104 45.0949 34.495 42.6032 34.1095 39.145C33.7249 35.6858 36.2166 32.5704 39.6753 32.1848L51.558 30.8622C55.0157 30.4776 58.1321 32.9693 58.5167 36.428Z" fill="#F2CEAD"/>
<path d="M58.1899 24.6414C58.1673 28.1212 55.3289 30.9246 51.8486 30.9034L39.893 30.8295C36.4137 30.8079 33.6099 27.969 33.631 24.4897C33.6526 21.0094 36.4915 18.206 39.9713 18.2272L51.9269 18.3006C55.4072 18.3232 58.211 21.1621 58.1899 24.6414Z" fill="#F2CEAD"/>
<path d="M80.0387 32.6702C78.464 35.7731 74.6721 37.0127 71.5682 35.4385L59.7609 29.0895C56.6565 27.5158 55.4174 23.7229 56.9917 20.62C58.5654 17.5166 62.3578 16.2769 65.4612 17.8512L77.2699 24.1997C80.3729 25.7744 81.613 29.5663 80.0387 32.6702Z" fill="#FFD9B3"/>
<path opacity="0.3" d="M56.8711 37.7513C56.5341 40.2099 54.2675 41.9287 51.8098 41.5912C49.3512 41.2532 47.6329 38.9871 47.9699 36.5284C48.3079 34.0698 50.574 32.351 53.0327 32.6885C55.4908 33.0261 57.2096 35.2931 56.8711 37.7513Z" fill="#F2F2F2"/>
<path opacity="0.3" d="M56.4577 25.4551C56.1206 27.9138 53.8535 29.6325 51.3954 29.2945C48.9373 28.9565 47.2185 26.6904 47.556 24.2318C47.894 21.7732 50.1596 20.0544 52.6182 20.3924C55.0769 20.7299 56.7956 22.9965 56.4577 25.4551Z" fill="#F2F2F2"/>
<path d="M77.2444 50.0007C73.7876 50.3996 70.6612 47.9204 70.2627 44.4631L69.0442 31.1133C68.6447 27.6565 71.1245 24.53 74.5803 24.1315C78.0375 23.7326 81.164 26.2119 81.562 29.6681L82.7815 43.0194C83.18 46.4757 80.7012 49.6017 77.2444 50.0007Z" fill="#FFD9B3"/>
<path d="M50.5091 37.5788C47.7139 35.5062 47.1282 31.5597 49.2013 28.7641L56.3222 19.1605C58.3944 16.3648 62.3408 15.7791 65.1355 17.8512C67.9307 19.9243 68.5169 23.8708 66.4443 26.666L59.3238 36.2701C57.2507 39.0657 53.3048 39.651 50.5091 37.5788Z" fill="#FFD9B3"/>
<path opacity="0.3" d="M59.1512 51.0848C58.8137 53.5434 56.5471 55.2622 54.089 54.9242C51.6303 54.5867 49.9111 52.3201 50.2496 49.8619C50.5871 47.4033 52.8532 45.684 55.3123 46.022C57.7695 46.3595 59.4887 48.6261 59.1512 51.0848Z" fill="#F2F2F2"/>
<path opacity="0.3" d="M55.9655 31.3576C55.7091 33.2252 53.9874 34.5306 52.1203 34.2742C50.2532 34.0173 48.9473 32.2962 49.2041 30.429C49.4605 28.5609 51.1822 27.256 53.0493 27.5124C54.916 27.7688 56.2218 29.4899 55.9655 31.3576Z" fill="#F2F2F2"/>
</svg>
