<svg width="380" height="380" viewBox="0 0 380 380" fill="none" xmlns="http://www.w3.org/2000/svg">
<rect x="0.803467" y="0.302246" width="378.798" height="378.798" rx="189.399" fill="#FFB800"/>
<path d="M58.9384 157.792C61.6415 157.792 63.6162 157.141 64.8623 155.837C66.1277 154.533 66.7603 152.75 66.7603 150.488C66.7603 149.453 66.5974 148.513 66.2714 147.67C65.9647 146.807 65.4854 146.079 64.8336 145.484C64.2009 144.871 63.3957 144.401 62.418 144.075C61.4402 143.749 60.2804 143.586 58.9384 143.586H53.4745V157.792H58.9384ZM58.9384 137.03C61.7949 137.03 64.2584 137.365 66.329 138.036C68.4186 138.707 70.1345 139.647 71.4765 140.854C72.8185 142.043 73.8058 143.462 74.4385 145.11C75.0903 146.759 75.4162 148.552 75.4162 150.488C75.4162 152.539 75.0807 154.418 74.4097 156.124C73.7387 157.831 72.7226 159.297 71.3615 160.524C70.0003 161.751 68.2844 162.71 66.2139 163.4C64.1434 164.071 61.7182 164.407 58.9384 164.407H53.4745V178.756H44.8474V137.03H58.9384ZM86.8683 153.996C87.8077 152.309 88.8909 150.977 90.1179 149.999C91.3448 149.021 92.7827 148.533 94.4315 148.533C95.7735 148.533 96.8662 148.849 97.7098 149.482L97.1921 155.348C97.0963 155.731 96.9429 156 96.732 156.153C96.5403 156.287 96.2719 156.355 95.9268 156.355C95.6201 156.355 95.1791 156.316 94.604 156.239C94.0289 156.144 93.4921 156.096 92.9936 156.096C92.2651 156.096 91.6132 156.201 91.0381 156.412C90.4821 156.623 89.9837 156.92 89.5427 157.304C89.1018 157.687 88.6992 158.157 88.3349 158.713C87.9898 159.269 87.6639 159.901 87.3572 160.611V178.756H79.4202V149.108H84.1076C84.9128 149.108 85.4688 149.251 85.7755 149.539C86.0823 149.827 86.3028 150.325 86.437 151.034L86.8683 153.996ZM113.799 148.648C116.022 148.648 118.045 149.002 119.866 149.712C121.688 150.421 123.25 151.437 124.554 152.76C125.857 154.064 126.864 155.655 127.573 157.534C128.283 159.412 128.637 161.531 128.637 163.889C128.637 166.247 128.283 168.375 127.573 170.273C126.864 172.152 125.857 173.753 124.554 175.075C123.25 176.398 121.688 177.414 119.866 178.124C118.045 178.833 116.022 179.188 113.799 179.188C111.555 179.188 109.514 178.833 107.673 178.124C105.852 177.414 104.289 176.398 102.986 175.075C101.682 173.753 100.666 172.152 99.9375 170.273C99.2282 168.375 98.8735 166.247 98.8735 163.889C98.8735 161.531 99.2282 159.412 99.9375 157.534C100.666 155.655 101.682 154.064 102.986 152.76C104.289 151.437 105.852 150.421 107.673 149.712C109.514 149.002 111.555 148.648 113.799 148.648ZM113.799 173.235C116.061 173.235 117.738 172.459 118.831 170.906C119.924 169.334 120.47 167.004 120.47 163.918C120.47 160.85 119.924 158.54 118.831 156.987C117.738 155.415 116.061 154.629 113.799 154.629C111.479 154.629 109.772 155.415 108.68 156.987C107.587 158.54 107.041 160.85 107.041 163.918C107.041 167.004 107.587 169.334 108.68 170.906C109.772 172.459 111.479 173.235 113.799 173.235ZM144.383 162.825C146.012 162.825 147.21 162.413 147.977 161.588C148.763 160.764 149.156 159.7 149.156 158.396C149.156 157.035 148.763 155.971 147.977 155.204C147.21 154.418 146.012 154.025 144.383 154.025C142.753 154.025 141.555 154.418 140.788 155.204C140.021 155.971 139.638 157.035 139.638 158.396C139.638 159.681 140.021 160.745 140.788 161.588C141.574 162.413 142.772 162.825 144.383 162.825ZM151.888 179.964C151.888 179.447 151.725 179.025 151.399 178.699C151.073 178.373 150.633 178.114 150.077 177.922C149.54 177.731 148.898 177.596 148.15 177.52C147.402 177.424 146.607 177.357 145.763 177.318C144.919 177.261 144.047 177.213 143.146 177.175C142.245 177.136 141.363 177.069 140.5 176.973C139.829 177.376 139.273 177.855 138.833 178.411C138.411 178.948 138.2 179.562 138.2 180.252C138.2 180.731 138.305 181.172 138.516 181.575C138.746 181.977 139.12 182.322 139.638 182.61C140.155 182.897 140.836 183.118 141.679 183.271C142.523 183.444 143.577 183.53 144.843 183.53C146.146 183.53 147.249 183.444 148.15 183.271C149.051 183.099 149.779 182.849 150.335 182.524C150.891 182.217 151.284 181.843 151.514 181.402C151.764 180.961 151.888 180.482 151.888 179.964ZM159.768 150.085V152.99C159.768 153.45 159.634 153.814 159.365 154.083C159.116 154.351 158.694 154.552 158.1 154.687L155.684 155.175C156.01 156.115 156.173 157.121 156.173 158.195C156.173 159.671 155.866 161.004 155.253 162.192C154.659 163.362 153.834 164.368 152.78 165.212C151.725 166.036 150.479 166.678 149.041 167.138C147.603 167.579 146.051 167.8 144.383 167.8C143.328 167.8 142.341 167.714 141.421 167.541C140.615 168.04 140.213 168.586 140.213 169.18C140.213 169.736 140.481 170.139 141.018 170.388C141.574 170.637 142.293 170.819 143.175 170.934C144.076 171.03 145.092 171.097 146.223 171.136C147.373 171.155 148.533 171.212 149.703 171.308C150.891 171.404 152.051 171.577 153.182 171.826C154.333 172.056 155.349 172.449 156.231 173.005C157.132 173.542 157.851 174.261 158.387 175.162C158.943 176.063 159.221 177.223 159.221 178.641C159.221 179.964 158.895 181.249 158.244 182.495C157.592 183.741 156.643 184.853 155.397 185.831C154.17 186.808 152.655 187.594 150.853 188.189C149.051 188.783 147 189.08 144.699 189.08C142.418 189.08 140.433 188.86 138.746 188.419C137.078 187.997 135.688 187.422 134.576 186.693C133.484 185.984 132.669 185.16 132.132 184.22C131.595 183.281 131.327 182.303 131.327 181.287C131.327 179.964 131.729 178.843 132.535 177.922C133.34 177.002 134.452 176.264 135.871 175.708C135.123 175.286 134.519 174.74 134.059 174.069C133.618 173.379 133.397 172.487 133.397 171.395C133.397 170.513 133.714 169.583 134.346 168.605C134.998 167.627 135.995 166.813 137.337 166.161C135.823 165.356 134.624 164.282 133.742 162.94C132.861 161.579 132.42 159.997 132.42 158.195C132.42 156.719 132.717 155.386 133.311 154.198C133.925 153.009 134.768 152.003 135.842 151.178C136.915 150.335 138.181 149.692 139.638 149.251C141.095 148.811 142.676 148.59 144.383 148.59C146.913 148.59 149.147 149.089 151.083 150.085H159.768ZM171.342 153.996C172.282 152.309 173.365 150.977 174.592 149.999C175.819 149.021 177.257 148.533 178.906 148.533C180.248 148.533 181.34 148.849 182.184 149.482L181.666 155.348C181.57 155.731 181.417 156 181.206 156.153C181.014 156.287 180.746 156.355 180.401 156.355C180.094 156.355 179.653 156.316 179.078 156.239C178.503 156.144 177.966 156.096 177.468 156.096C176.739 156.096 176.087 156.201 175.512 156.412C174.956 156.623 174.458 156.92 174.017 157.304C173.576 157.687 173.173 158.157 172.809 158.713C172.464 159.269 172.138 159.901 171.831 160.611V178.756H163.894V149.108H168.582C169.387 149.108 169.943 149.251 170.25 149.539C170.556 149.827 170.777 150.325 170.911 151.034L171.342 153.996ZM203.708 160.438C203.708 159.614 203.593 158.828 203.363 158.08C203.152 157.332 202.807 156.671 202.327 156.096C201.848 155.521 201.244 155.07 200.516 154.744C199.787 154.399 198.915 154.226 197.899 154.226C196.001 154.226 194.515 154.763 193.441 155.837C192.368 156.91 191.668 158.444 191.342 160.438H203.708ZM191.227 165.154C191.476 167.934 192.262 169.966 193.585 171.251C194.927 172.535 196.672 173.177 198.819 173.177C199.912 173.177 200.851 173.053 201.637 172.804C202.442 172.535 203.142 172.248 203.737 171.941C204.35 171.615 204.896 171.327 205.376 171.078C205.874 170.81 206.363 170.676 206.842 170.676C207.456 170.676 207.935 170.906 208.28 171.366L210.581 174.241C209.737 175.219 208.807 176.034 207.791 176.686C206.775 177.318 205.721 177.827 204.628 178.21C203.535 178.574 202.433 178.823 201.321 178.958C200.209 179.111 199.135 179.188 198.1 179.188C196.03 179.188 194.093 178.852 192.291 178.181C190.508 177.491 188.946 176.485 187.604 175.162C186.281 173.82 185.236 172.161 184.469 170.187C183.702 168.212 183.319 165.921 183.319 163.314C183.319 161.301 183.645 159.403 184.297 157.62C184.968 155.837 185.926 154.284 187.172 152.961C188.419 151.638 189.933 150.593 191.716 149.827C193.499 149.041 195.512 148.648 197.755 148.648C199.653 148.648 201.398 148.954 202.989 149.568C204.599 150.162 205.98 151.034 207.13 152.185C208.299 153.335 209.2 154.754 209.833 156.441C210.485 158.109 210.811 160.016 210.811 162.163C210.811 162.758 210.782 163.247 210.725 163.63C210.667 164.014 210.571 164.32 210.437 164.55C210.303 164.78 210.121 164.943 209.891 165.039C209.661 165.116 209.363 165.154 208.999 165.154H191.227ZM234.169 155.204C233.958 155.53 233.738 155.77 233.508 155.923C233.297 156.057 233 156.124 232.616 156.124C232.233 156.124 231.84 156.029 231.437 155.837C231.035 155.645 230.584 155.444 230.086 155.233C229.587 155.003 229.012 154.792 228.36 154.6C227.728 154.409 226.99 154.313 226.146 154.313C224.862 154.313 223.865 154.581 223.155 155.118C222.446 155.636 222.091 156.326 222.091 157.188C222.091 157.783 222.293 158.281 222.695 158.684C223.098 159.086 223.625 159.441 224.277 159.748C224.948 160.035 225.705 160.313 226.549 160.582C227.392 160.831 228.255 161.109 229.137 161.416C230.038 161.723 230.91 162.077 231.754 162.48C232.597 162.882 233.345 163.39 233.997 164.004C234.668 164.598 235.204 165.327 235.607 166.189C236.01 167.033 236.211 168.059 236.211 169.266C236.211 170.704 235.943 172.037 235.406 173.264C234.888 174.472 234.121 175.516 233.105 176.398C232.089 177.28 230.824 177.97 229.309 178.469C227.795 178.967 226.05 179.216 224.075 179.216C223.059 179.216 222.053 179.121 221.056 178.929C220.059 178.756 219.11 178.507 218.209 178.181C217.308 177.836 216.464 177.443 215.678 177.002C214.892 176.561 214.212 176.082 213.637 175.564L215.477 172.602C215.688 172.257 215.947 171.989 216.254 171.797C216.579 171.605 216.992 171.51 217.49 171.51C217.969 171.51 218.41 171.634 218.813 171.883C219.216 172.113 219.666 172.372 220.165 172.66C220.663 172.928 221.248 173.187 221.919 173.436C222.609 173.666 223.462 173.781 224.478 173.781C225.245 173.781 225.906 173.695 226.462 173.523C227.018 173.35 227.469 173.12 227.814 172.832C228.159 172.526 228.408 172.19 228.562 171.826C228.734 171.442 228.82 171.049 228.82 170.647C228.82 169.995 228.61 169.468 228.188 169.065C227.785 168.643 227.248 168.279 226.577 167.972C225.926 167.666 225.168 167.388 224.306 167.138C223.443 166.889 222.561 166.611 221.66 166.304C220.778 165.998 219.906 165.633 219.043 165.212C218.199 164.79 217.442 164.263 216.771 163.63C216.119 162.978 215.583 162.183 215.161 161.243C214.758 160.304 214.557 159.163 214.557 157.821C214.557 156.594 214.796 155.434 215.276 154.342C215.755 153.23 216.474 152.252 217.433 151.408C218.391 150.565 219.58 149.894 220.998 149.395C222.436 148.897 224.095 148.648 225.973 148.648C228.082 148.648 229.999 148.993 231.725 149.683C233.45 150.373 234.869 151.274 235.981 152.386L234.169 155.204ZM259.613 155.204C259.402 155.53 259.181 155.77 258.951 155.923C258.74 156.057 258.443 156.124 258.06 156.124C257.676 156.124 257.283 156.029 256.881 155.837C256.478 155.645 256.028 155.444 255.529 155.233C255.031 155.003 254.455 154.792 253.804 154.6C253.171 154.409 252.433 154.313 251.589 154.313C250.305 154.313 249.308 154.581 248.599 155.118C247.889 155.636 247.535 156.326 247.535 157.188C247.535 157.783 247.736 158.281 248.138 158.684C248.541 159.086 249.068 159.441 249.72 159.748C250.391 160.035 251.148 160.313 251.992 160.582C252.835 160.831 253.698 161.109 254.58 161.416C255.481 161.723 256.353 162.077 257.197 162.48C258.041 162.882 258.788 163.39 259.44 164.004C260.111 164.598 260.648 165.327 261.05 166.189C261.453 167.033 261.654 168.059 261.654 169.266C261.654 170.704 261.386 172.037 260.849 173.264C260.332 174.472 259.565 175.516 258.549 176.398C257.532 177.28 256.267 177.97 254.753 178.469C253.238 178.967 251.493 179.216 249.519 179.216C248.503 179.216 247.496 179.121 246.499 178.929C245.502 178.756 244.553 178.507 243.652 178.181C242.751 177.836 241.908 177.443 241.122 177.002C240.336 176.561 239.655 176.082 239.08 175.564L240.92 172.602C241.131 172.257 241.39 171.989 241.697 171.797C242.023 171.605 242.435 171.51 242.933 171.51C243.413 171.51 243.854 171.634 244.256 171.883C244.659 172.113 245.109 172.372 245.608 172.66C246.106 172.928 246.691 173.187 247.362 173.436C248.052 173.666 248.905 173.781 249.921 173.781C250.688 173.781 251.35 173.695 251.906 173.523C252.462 173.35 252.912 173.12 253.257 172.832C253.602 172.526 253.852 172.19 254.005 171.826C254.177 171.442 254.264 171.049 254.264 170.647C254.264 169.995 254.053 169.468 253.631 169.065C253.228 168.643 252.692 168.279 252.021 167.972C251.369 167.666 250.612 167.388 249.749 167.138C248.886 166.889 248.004 166.611 247.103 166.304C246.221 165.998 245.349 165.633 244.486 165.212C243.643 164.79 242.885 164.263 242.214 163.63C241.563 162.978 241.026 162.183 240.604 161.243C240.201 160.304 240 159.163 240 157.821C240 156.594 240.24 155.434 240.719 154.342C241.198 153.23 241.917 152.252 242.876 151.408C243.834 150.565 245.023 149.894 246.442 149.395C247.88 148.897 249.538 148.648 251.417 148.648C253.526 148.648 255.443 148.993 257.168 149.683C258.894 150.373 260.312 151.274 261.424 152.386L259.613 155.204ZM274.79 149.108V178.756H266.853V149.108H274.79ZM275.739 140.682C275.739 141.353 275.604 141.976 275.336 142.551C275.068 143.126 274.703 143.634 274.243 144.075C273.802 144.516 273.275 144.861 272.662 145.11C272.067 145.36 271.425 145.484 270.735 145.484C270.083 145.484 269.46 145.36 268.866 145.11C268.291 144.861 267.782 144.516 267.342 144.075C266.901 143.634 266.546 143.126 266.278 142.551C266.028 141.976 265.904 141.353 265.904 140.682C265.904 140.011 266.028 139.388 266.278 138.813C266.546 138.218 266.901 137.701 267.342 137.26C267.782 136.819 268.291 136.474 268.866 136.225C269.46 135.975 270.083 135.851 270.735 135.851C271.425 135.851 272.067 135.975 272.662 136.225C273.275 136.474 273.802 136.819 274.243 137.26C274.703 137.701 275.068 138.218 275.336 138.813C275.604 139.388 275.739 140.011 275.739 140.682ZM308.853 149.108L297.207 178.756H290.017L278.371 149.108H284.956C285.531 149.108 286.011 149.242 286.394 149.51C286.777 149.779 287.046 150.124 287.199 150.546L292.174 165.212C292.5 166.209 292.788 167.186 293.037 168.145C293.286 169.084 293.507 170.033 293.698 170.992C293.909 170.033 294.139 169.084 294.389 168.145C294.657 167.186 294.964 166.209 295.309 165.212L300.456 150.546C300.591 150.124 300.849 149.779 301.233 149.51C301.616 149.242 302.067 149.108 302.584 149.108H308.853ZM330.082 160.438C330.082 159.614 329.967 158.828 329.737 158.08C329.526 157.332 329.181 156.671 328.702 156.096C328.222 155.521 327.618 155.07 326.89 154.744C326.161 154.399 325.289 154.226 324.273 154.226C322.375 154.226 320.889 154.763 319.816 155.837C318.742 156.91 318.042 158.444 317.716 160.438H330.082ZM317.601 165.154C317.851 167.934 318.637 169.966 319.96 171.251C321.302 172.535 323.046 173.177 325.193 173.177C326.286 173.177 327.225 173.053 328.012 172.804C328.817 172.535 329.516 172.248 330.111 171.941C330.724 171.615 331.271 171.327 331.75 171.078C332.248 170.81 332.737 170.676 333.217 170.676C333.83 170.676 334.309 170.906 334.654 171.366L336.955 174.241C336.111 175.219 335.182 176.034 334.166 176.686C333.149 177.318 332.095 177.827 331.002 178.21C329.909 178.574 328.807 178.823 327.695 178.958C326.583 179.111 325.51 179.188 324.474 179.188C322.404 179.188 320.468 178.852 318.665 178.181C316.882 177.491 315.32 176.485 313.978 175.162C312.655 173.82 311.61 172.161 310.843 170.187C310.077 168.212 309.693 165.921 309.693 163.314C309.693 161.301 310.019 159.403 310.671 157.62C311.342 155.837 312.301 154.284 313.547 152.961C314.793 151.638 316.307 150.593 318.09 149.827C319.873 149.041 321.886 148.648 324.129 148.648C326.027 148.648 327.772 148.954 329.363 149.568C330.973 150.162 332.354 151.034 333.504 152.185C334.674 153.335 335.575 154.754 336.207 156.441C336.859 158.109 337.185 160.016 337.185 162.163C337.185 162.758 337.156 163.247 337.099 163.63C337.041 164.014 336.945 164.32 336.811 164.55C336.677 164.78 336.495 164.943 336.265 165.039C336.035 165.116 335.738 165.154 335.373 165.154H317.601Z" fill="#1D2F71"/>
<path d="M123.525 241.871L120.474 233.244C120.293 232.791 120.099 232.26 119.891 231.651C119.697 231.042 119.509 230.382 119.328 229.669C119.147 230.394 118.952 231.068 118.745 231.69C118.551 232.299 118.363 232.83 118.182 233.283L115.15 241.871H123.525ZM133.318 252.578H128.791C128.285 252.578 127.871 252.461 127.547 252.228C127.236 251.982 127.003 251.671 126.848 251.295L124.943 245.913H113.712L111.808 251.295C111.679 251.619 111.452 251.917 111.128 252.189C110.804 252.448 110.396 252.578 109.904 252.578H105.338L116.355 224.384H122.32L133.318 252.578ZM140.514 247.293C141.019 247.875 141.563 248.283 142.146 248.517C142.742 248.75 143.377 248.866 144.05 248.866C144.698 248.866 145.287 248.743 145.818 248.497C146.349 248.251 146.803 247.869 147.179 247.351C147.567 246.82 147.865 246.146 148.072 245.33C148.28 244.514 148.383 243.542 148.383 242.415C148.383 241.301 148.293 240.356 148.111 239.579C147.943 238.801 147.697 238.173 147.373 237.694C147.062 237.215 146.68 236.871 146.226 236.664C145.773 236.444 145.268 236.334 144.711 236.334C143.765 236.334 142.969 236.522 142.321 236.897C141.686 237.26 141.084 237.797 140.514 238.51V247.293ZM140.203 235.168C140.605 234.727 141.032 234.326 141.485 233.963C141.939 233.588 142.425 233.27 142.943 233.011C143.461 232.739 144.018 232.532 144.614 232.389C145.21 232.234 145.857 232.156 146.557 232.156C147.632 232.156 148.616 232.389 149.51 232.856C150.417 233.309 151.194 233.976 151.842 234.857C152.49 235.725 152.995 236.794 153.357 238.063C153.72 239.333 153.901 240.783 153.901 242.415C153.901 243.918 153.694 245.311 153.28 246.593C152.878 247.862 152.302 248.964 151.55 249.896C150.799 250.829 149.892 251.561 148.83 252.092C147.781 252.61 146.609 252.869 145.313 252.869C144.225 252.869 143.299 252.707 142.535 252.383C141.783 252.059 141.11 251.619 140.514 251.062V259.048H135.151V232.545H138.454C139.128 232.545 139.575 232.856 139.795 233.477L140.203 235.168ZM162.715 247.293C163.22 247.875 163.764 248.283 164.347 248.517C164.943 248.75 165.577 248.866 166.251 248.866C166.899 248.866 167.488 248.743 168.019 248.497C168.55 248.251 169.004 247.869 169.379 247.351C169.768 246.82 170.066 246.146 170.273 245.33C170.48 244.514 170.584 243.542 170.584 242.415C170.584 241.301 170.493 240.356 170.312 239.579C170.144 238.801 169.898 238.173 169.574 237.694C169.263 237.215 168.881 236.871 168.427 236.664C167.974 236.444 167.469 236.334 166.912 236.334C165.966 236.334 165.169 236.522 164.522 236.897C163.887 237.26 163.285 237.797 162.715 238.51V247.293ZM162.404 235.168C162.805 234.727 163.233 234.326 163.686 233.963C164.14 233.588 164.625 233.27 165.144 233.011C165.662 232.739 166.219 232.532 166.815 232.389C167.41 232.234 168.058 232.156 168.758 232.156C169.833 232.156 170.817 232.389 171.711 232.856C172.618 233.309 173.395 233.976 174.043 234.857C174.69 235.725 175.196 236.794 175.558 238.063C175.921 239.333 176.102 240.783 176.102 242.415C176.102 243.918 175.895 245.311 175.481 246.593C175.079 247.862 174.503 248.964 173.751 249.896C173 250.829 172.093 251.561 171.031 252.092C169.982 252.61 168.809 252.869 167.514 252.869C166.426 252.869 165.5 252.707 164.736 252.383C163.984 252.059 163.311 251.619 162.715 251.062V259.048H157.352V232.545H160.655C161.329 232.545 161.776 232.856 161.996 233.477L162.404 235.168ZM184.585 235.848C185.22 234.708 185.952 233.808 186.781 233.147C187.61 232.486 188.581 232.156 189.696 232.156C190.602 232.156 191.341 232.37 191.911 232.797L191.561 236.761C191.496 237.02 191.392 237.202 191.25 237.305C191.12 237.396 190.939 237.441 190.706 237.441C190.499 237.441 190.201 237.415 189.812 237.364C189.423 237.299 189.061 237.266 188.724 237.266C188.232 237.266 187.791 237.338 187.403 237.48C187.027 237.623 186.69 237.823 186.392 238.082C186.094 238.342 185.822 238.659 185.576 239.035C185.343 239.41 185.123 239.838 184.916 240.317V252.578H179.553V232.545H182.72C183.264 232.545 183.64 232.642 183.847 232.836C184.054 233.031 184.203 233.367 184.294 233.847L184.585 235.848ZM202.781 232.234C204.284 232.234 205.651 232.474 206.881 232.953C208.112 233.432 209.168 234.119 210.048 235.012C210.929 235.893 211.609 236.968 212.089 238.238C212.568 239.507 212.808 240.939 212.808 242.532C212.808 244.125 212.568 245.563 212.089 246.846C211.609 248.115 210.929 249.197 210.048 250.091C209.168 250.984 208.112 251.671 206.881 252.15C205.651 252.629 204.284 252.869 202.781 252.869C201.266 252.869 199.886 252.629 198.643 252.15C197.412 251.671 196.356 250.984 195.475 250.091C194.595 249.197 193.908 248.115 193.416 246.846C192.937 245.563 192.697 244.125 192.697 242.532C192.697 240.939 192.937 239.507 193.416 238.238C193.908 236.968 194.595 235.893 195.475 235.012C196.356 234.119 197.412 233.432 198.643 232.953C199.886 232.474 201.266 232.234 202.781 232.234ZM202.781 248.847C204.31 248.847 205.443 248.322 206.182 247.273C206.92 246.211 207.289 244.637 207.289 242.551C207.289 240.479 206.92 238.918 206.182 237.869C205.443 236.807 204.31 236.275 202.781 236.275C201.214 236.275 200.061 236.807 199.323 237.869C198.584 238.918 198.215 240.479 198.215 242.551C198.215 244.637 198.584 246.211 199.323 247.273C200.061 248.322 201.214 248.847 202.781 248.847ZM226.648 244.203C225.339 244.268 224.251 244.384 223.383 244.553C222.516 244.708 221.823 244.916 221.304 245.175C220.799 245.434 220.437 245.732 220.216 246.068C220.009 246.392 219.905 246.748 219.905 247.137C219.905 247.914 220.119 248.465 220.547 248.789C220.987 249.113 221.596 249.274 222.373 249.274C223.267 249.274 224.038 249.119 224.685 248.808C225.346 248.484 226 247.986 226.648 247.312V244.203ZM215.728 235.323C216.907 234.261 218.208 233.471 219.633 232.953C221.058 232.422 222.6 232.156 224.258 232.156C225.45 232.156 226.512 232.35 227.444 232.739C228.39 233.128 229.187 233.672 229.834 234.371C230.495 235.058 231 235.88 231.35 236.839C231.7 237.797 231.875 238.847 231.875 239.987V252.578H229.426C228.921 252.578 228.533 252.506 228.261 252.364C228.001 252.221 227.788 251.923 227.619 251.47L227.192 250.188C226.687 250.628 226.194 251.017 225.715 251.354C225.249 251.69 224.763 251.975 224.258 252.208C223.753 252.429 223.209 252.597 222.626 252.714C222.056 252.83 221.415 252.889 220.702 252.889C219.821 252.889 219.018 252.772 218.293 252.539C217.567 252.306 216.939 251.962 216.408 251.509C215.89 251.043 215.488 250.466 215.203 249.78C214.918 249.093 214.776 248.303 214.776 247.409C214.776 246.671 214.964 245.932 215.339 245.194C215.715 244.456 216.356 243.789 217.263 243.193C218.183 242.584 219.4 242.085 220.916 241.697C222.444 241.295 224.355 241.068 226.648 241.016V239.987C226.648 238.73 226.382 237.81 225.851 237.228C225.32 236.632 224.556 236.334 223.558 236.334C222.82 236.334 222.205 236.424 221.712 236.606C221.22 236.774 220.786 236.962 220.411 237.169C220.048 237.364 219.705 237.551 219.381 237.733C219.057 237.901 218.681 237.985 218.254 237.985C217.878 237.985 217.561 237.895 217.302 237.713C217.056 237.519 216.848 237.292 216.68 237.033L215.728 235.323ZM250.595 237.014C250.439 237.221 250.284 237.383 250.128 237.5C249.973 237.603 249.753 237.655 249.468 237.655C249.209 237.655 248.956 237.584 248.71 237.441C248.477 237.286 248.205 237.124 247.894 236.956C247.583 236.774 247.214 236.612 246.786 236.47C246.359 236.314 245.828 236.237 245.193 236.237C244.39 236.237 243.69 236.386 243.095 236.683C242.512 236.968 242.026 237.383 241.637 237.927C241.249 238.471 240.957 239.132 240.763 239.909C240.582 240.686 240.491 241.561 240.491 242.532C240.491 244.579 240.899 246.146 241.715 247.234C242.544 248.322 243.671 248.866 245.096 248.866C245.588 248.866 246.009 248.828 246.359 248.75C246.722 248.659 247.032 248.549 247.292 248.42C247.564 248.29 247.797 248.147 247.991 247.992C248.185 247.837 248.367 247.694 248.535 247.565C248.716 247.435 248.891 247.331 249.06 247.254C249.241 247.163 249.442 247.118 249.662 247.118C250.077 247.118 250.4 247.273 250.634 247.584L252.169 249.527C251.599 250.188 250.99 250.738 250.342 251.179C249.694 251.606 249.021 251.949 248.321 252.208C247.635 252.455 246.935 252.623 246.223 252.714C245.51 252.817 244.804 252.869 244.105 252.869C242.874 252.869 241.708 252.642 240.607 252.189C239.506 251.723 238.541 251.049 237.712 250.168C236.883 249.287 236.223 248.206 235.73 246.923C235.251 245.641 235.011 244.177 235.011 242.532C235.011 241.068 235.225 239.708 235.653 238.452C236.08 237.195 236.708 236.107 237.537 235.187C238.366 234.268 239.39 233.549 240.607 233.031C241.838 232.499 243.256 232.234 244.863 232.234C246.391 232.234 247.732 232.48 248.885 232.972C250.038 233.464 251.074 234.177 251.994 235.11L250.595 237.014ZM260.247 234.507C260.622 234.17 261.011 233.866 261.413 233.594C261.827 233.309 262.261 233.069 262.714 232.875C263.181 232.668 263.673 232.512 264.191 232.409C264.722 232.292 265.292 232.234 265.901 232.234C266.989 232.234 267.954 232.422 268.796 232.797C269.638 233.173 270.344 233.698 270.914 234.371C271.497 235.045 271.931 235.848 272.216 236.781C272.514 237.713 272.663 238.737 272.663 239.851V252.578H267.32V239.851C267.32 238.737 267.06 237.875 266.542 237.266C266.024 236.645 265.26 236.334 264.249 236.334C263.498 236.334 262.792 236.496 262.132 236.819C261.471 237.143 260.843 237.597 260.247 238.18V252.578H254.884V223.607H260.247V234.507Z" fill="#F5FAFF"/>
</svg>
