<svg width="275" height="268" viewBox="0 0 275 268" fill="none" xmlns="http://www.w3.org/2000/svg">
<g clip-path="url(#clip0_835_16657)">
<path d="M247.482 219.424H229.289V219.561H247.482V219.424Z" fill="#EBEBEB"/>
<path d="M182.292 220.915H177.518V221.052H182.292V220.915Z" fill="#EBEBEB"/>
<path d="M228.739 214.323H218.197V214.461H228.739V214.323Z" fill="#EBEBEB"/>
<path d="M52.9007 215.246H29.1758V215.383H52.9007V215.246Z" fill="#EBEBEB"/>
<path d="M61.2715 215.246H57.793V215.383H61.2715V215.246Z" fill="#EBEBEB"/>
<path d="M124.03 217.565H72.5762V217.703H124.03V217.565Z" fill="#EBEBEB"/>
<path d="M275 210.583H0.361328V210.72H275V210.583Z" fill="#EBEBEB"/>
<path d="M244.348 86.308L239.99 38.884L176.57 44.7114L180.928 92.1354L244.348 86.308Z" fill="#E6E6E6"/>
<path opacity="0.9" d="M236.653 42.8955L180.58 48.0479L184.263 88.1255L240.336 82.9731L236.653 42.8955Z" fill="#FAFAFA"/>
<path d="M210.867 50.314L211.2 53.9448L189.418 55.9463L190.518 67.9217L191.675 80.5155L202.302 79.5389L219.361 77.9713L220.148 77.8987L231.956 76.8139L231.769 74.7805L228.648 75.0672C228.695 73.6248 229.723 72.3587 231.17 72.0352L231.51 71.9589L230.798 64.2201L228.694 64.4134L227.26 48.8074L210.867 50.314ZM192.391 79.6564L191.378 68.6368L193.815 68.4127C194.378 70.194 196.118 71.3766 197.998 71.2036L198.391 71.1674L198.101 68.0189L200.43 67.8047L201.443 78.8243L192.391 79.6564ZM202.23 78.7523L201.145 66.9456L197.242 67.3043L197.53 70.428C196.086 70.3808 194.82 69.352 194.497 67.9025L194.421 67.563L191.306 67.8492L190.278 56.6604L211.273 54.7313L212.373 66.7067L214.165 66.5419L216.987 66.2826L218.276 66.164L219.289 77.1836L202.23 78.7523ZM214.092 65.7559L213.873 63.3753C215.186 63.4171 216.339 64.269 216.785 65.5087L214.092 65.7559ZM230.084 65.0803L230.66 71.3558C228.881 71.9193 227.7 73.6572 227.872 75.5363L227.909 75.9301L231.054 75.6412L231.097 76.1004L220.077 77.1133L219.064 66.0937L228.767 65.2022L230.084 65.0803ZM226.545 49.667L227.907 64.4859L218.991 65.3055L218.204 65.378L217.6 65.4334C217.052 63.6252 215.308 62.4251 213.405 62.5997L213.012 62.636L213.305 65.8284L213.087 65.8482L211.987 53.8728L211.726 51.0292L226.545 49.667Z" fill="#E0E0E0"/>
<path d="M128.656 122.298L138.135 74.6482L74.4131 61.9727L64.9347 109.622L128.656 122.298Z" fill="#E6E6E6"/>
<path opacity="0.9" d="M77.3735 66.3967L69.3633 106.665L125.703 117.872L133.713 77.6038L77.3735 66.3967Z" fill="#FAFAFA"/>
<path d="M106.339 77.3886L105.614 81.0364L83.7284 76.6833L81.3351 88.7158L78.8184 101.37L89.4947 103.493L106.635 106.902L107.426 107.059L119.289 109.419L119.695 107.376L116.559 106.752C117.023 105.355 118.395 104.415 119.905 104.517L120.259 104.541L121.805 96.7655L119.691 96.3447L122.81 80.6645L106.339 77.3886ZM79.7664 100.736L81.969 89.6639L84.4177 90.1511C84.4523 92.0565 85.8101 93.717 87.6996 94.0927L88.0951 94.1712L88.7246 91.008L91.0645 91.4732L88.8619 102.545L79.7664 100.736ZM89.6518 102.702L92.0115 90.8393L88.0902 90.0594L87.4656 93.1979C86.0672 92.7332 85.1268 91.3606 85.2306 89.849L85.2548 89.4952L82.1256 88.8729L84.3617 77.6314L105.456 81.8273L103.063 93.8598L104.863 94.2179L107.698 94.782L108.994 95.0397L106.791 106.111L89.6518 102.702ZM105.021 93.427L105.496 91.0349C106.768 91.4562 107.648 92.6228 107.726 93.9653L105.021 93.427ZM120.857 97.3993L119.603 103.705C117.7 103.74 116.041 105.098 115.665 106.986L115.586 107.381L118.747 108.01L118.655 108.472L107.583 106.269L109.786 95.1973L119.535 97.1362L120.857 97.3993ZM121.862 81.2984L118.901 96.1876L109.943 94.4058L109.152 94.2487L108.545 94.1279C108.533 92.2004 107.175 90.5213 105.263 90.1412L104.867 90.0626L104.23 93.2699L104.012 93.2265L106.405 81.194L106.973 78.3372L121.862 81.2984Z" fill="#E0E0E0"/>
<path d="M164.662 59.3315H159.292C156.173 59.3315 153.637 56.795 153.637 53.6767V48.3064C153.637 45.1882 156.173 42.6516 159.292 42.6516H164.662C167.78 42.6516 170.317 45.1882 170.317 48.3064V53.6767C170.317 56.795 167.78 59.3315 164.662 59.3315ZM159.292 44.2994C157.082 44.2994 155.285 46.0967 155.285 48.3064V53.6767C155.285 55.8859 157.082 57.6837 159.292 57.6837H164.662C166.871 57.6837 168.669 55.8864 168.669 53.6767V48.3064C168.669 46.0972 166.872 44.2994 164.662 44.2994H159.292Z" fill="#F0F0F0"/>
<path d="M159.739 54.4788L151.908 46.6483L154.238 44.3177L159.739 49.8182L169.708 39.8494L172.038 42.1799L159.739 54.4788Z" fill="#E0E0E0"/>
<path d="M49.3366 131.252H45.1978C42.7947 131.252 40.8398 129.297 40.8398 126.894V122.755C40.8398 120.352 42.7947 118.397 45.1978 118.397H49.3366C51.7397 118.397 53.6946 120.352 53.6946 122.755V126.894C53.694 129.298 51.7397 131.252 49.3366 131.252ZM45.1978 119.668C43.495 119.668 42.1098 121.054 42.1098 122.757V126.895C42.1098 128.598 43.495 129.983 45.1978 129.983H49.3366C51.0394 129.983 52.4247 128.598 52.4247 126.895V122.757C52.4247 121.054 51.0394 119.668 49.3366 119.668H45.1978Z" fill="#F0F0F0"/>
<path d="M45.5466 127.513L39.5117 121.479L41.3079 119.683L45.5466 123.921L53.2288 116.239L55.0244 118.035L45.5466 127.513Z" fill="#E0E0E0"/>
<path d="M237.1 164.957H232.961C230.558 164.957 228.604 163.002 228.604 160.599V156.46C228.604 154.057 230.558 152.102 232.961 152.102H237.1C239.503 152.102 241.458 154.057 241.458 156.46V160.599C241.458 163.002 239.503 164.957 237.1 164.957ZM232.961 153.373C231.259 153.373 229.873 154.758 229.873 156.461V160.6C229.873 162.302 231.259 163.688 232.961 163.688H237.1C238.803 163.688 240.188 162.302 240.188 160.6V156.461C240.188 154.758 238.803 153.373 237.1 153.373H232.961Z" fill="#F0F0F0"/>
<path d="M233.31 161.218L227.275 155.183L229.071 153.387L233.31 157.626L240.992 149.944L242.788 151.74L233.31 161.218Z" fill="#E0E0E0"/>
<path d="M137.68 233.277C196.498 233.277 244.179 230.492 244.179 227.057C244.179 223.622 196.498 220.838 137.68 220.838C78.8628 220.838 31.1816 223.622 31.1816 227.057C31.1816 230.492 78.8628 233.277 137.68 233.277Z" fill="#F5F5F5"/>
<path d="M191.202 110.405C191.993 108.231 192.977 106.265 194.038 104.358C194.564 103.404 195.128 102.478 195.702 101.561C196.283 100.636 196.855 99.7547 197.517 98.8303C198.359 97.6592 199.986 97.3478 201.2 98.1497C202.445 98.9714 202.788 100.647 201.966 101.891L201.942 101.926C201.415 102.725 200.846 103.6 200.312 104.449C199.776 105.307 199.26 106.176 198.75 107.042C197.747 108.777 196.795 110.54 196.073 112.274C195.852 112.805 195.66 113.337 195.507 113.841H190.301C190.489 112.562 190.829 111.464 191.202 110.405Z" fill="#B55B52"/>
<path d="M201.849 93.0559C196.6 94.2182 192.154 105.537 192.154 105.537L198.218 108.975C198.218 108.975 200.764 106.404 202.594 102.502C203.913 99.6928 206.533 92.0188 201.849 93.0559Z" fill="#407BFF"/>
<path opacity="0.2" d="M203.78 99.4151C203.402 100.621 202.95 101.741 202.593 102.503C200.762 106.404 198.217 108.975 198.217 108.975L196.887 108.221C198.965 104.441 198.945 99.6133 198.945 99.6133L203.471 98.8301L203.78 99.4151Z" fill="black"/>
<path d="M195.321 146.447L195.274 146.438C194.442 146.293 193.885 145.501 194.031 144.669L195.785 134.621C195.905 133.936 196.557 133.478 197.242 133.597L197.556 133.652C198.055 133.74 198.39 134.216 198.303 134.716L196.385 145.7C196.297 146.199 195.821 146.534 195.321 146.447Z" fill="#263238"/>
<path opacity="0.1" d="M195.321 146.447L195.274 146.438C194.442 146.293 193.885 145.501 194.031 144.669L195.785 134.621C195.905 133.936 196.557 133.478 197.242 133.597L197.556 133.652C198.055 133.74 198.39 134.216 198.303 134.716L196.385 145.7C196.297 146.199 195.821 146.534 195.321 146.447Z" fill="white"/>
<path d="M197.709 223.177L193.616 223.128L193.273 213.605L198.687 213.69L197.709 223.177Z" fill="#B55B52"/>
<path opacity="0.2" d="M193.275 213.609L193.474 219.175L198.118 219.237L198.691 213.693L193.275 213.609Z" fill="black"/>
<path d="M193.529 221.735L197.997 221.805C198.165 221.808 198.296 221.927 198.313 222.091L198.695 225.746C198.735 226.125 198.407 226.479 198.021 226.466C196.413 226.413 194.094 226.282 192.068 226.25C189.699 226.213 189.93 226.31 187.152 226.267C185.473 226.24 185.206 224.532 185.927 224.389C189.21 223.738 189.541 223.704 192.507 222.039C192.828 221.858 193.176 221.729 193.529 221.735Z" fill="#263238"/>
<path d="M192.785 222.1C192.819 222.089 192.845 222.06 192.851 222.023C192.858 221.983 192.838 221.942 192.802 221.923C192.617 221.823 190.985 220.963 190.482 221.232C190.385 221.284 190.328 221.373 190.318 221.488C190.3 221.682 190.358 221.841 190.491 221.963C190.933 222.368 192.11 222.225 192.773 222.104C192.776 222.103 192.781 222.102 192.785 222.1ZM190.609 221.388C190.92 221.286 191.807 221.64 192.451 221.96C191.543 222.096 190.869 222.046 190.621 221.819C190.534 221.739 190.497 221.637 190.509 221.505C190.514 221.454 190.533 221.423 190.573 221.402C190.584 221.397 190.596 221.392 190.609 221.388Z" fill="#407BFF"/>
<path d="M192.786 222.1C192.795 222.097 192.803 222.093 192.812 222.087C192.84 222.068 192.856 222.034 192.853 222C192.849 221.953 192.76 220.848 192.246 220.412C192.09 220.279 191.91 220.22 191.711 220.237C191.444 220.26 191.364 220.394 191.345 220.503C191.261 220.965 192.225 221.867 192.715 222.096C192.737 222.107 192.763 222.108 192.786 222.1ZM191.627 220.449C191.653 220.441 191.685 220.434 191.727 220.43C191.874 220.418 192.002 220.46 192.12 220.56C192.457 220.847 192.591 221.509 192.637 221.832C192.138 221.521 191.485 220.814 191.535 220.536C191.538 220.519 191.547 220.475 191.627 220.449Z" fill="#407BFF"/>
<path d="M202.375 178.029C208.47 157.109 214.15 142.58 212.811 132.202L198.355 132.375C198.355 132.375 190.701 166.284 191.27 178.555C191.861 191.313 192.615 215.558 192.615 215.558L199.206 215.652C199.206 215.652 204.091 192.28 202.375 178.029Z" fill="#263238"/>
<path opacity="0.2" d="M204.826 169.597C208.055 158.931 210.951 151.517 212.619 145.303C203.042 148.678 203.232 160.36 204.826 169.597Z" fill="black"/>
<path d="M191.686 214.092L192.086 216.919L199.336 217.049L199.768 214.377L191.686 214.092Z" fill="#263238"/>
<path opacity="0.3" d="M191.686 214.092L192.086 216.919L199.336 217.049L199.768 214.377L191.686 214.092Z" fill="black"/>
<path d="M225.664 223.177L221.561 223.127L219.428 213.605L224.702 213.688L225.664 223.177Z" fill="#B55B52"/>
<path opacity="0.2" d="M219.43 213.609L220.661 219.107L225.26 219.169L224.706 213.691L219.43 213.609Z" fill="black"/>
<path d="M221.249 222.289L225.717 222.199C225.884 222.195 226.019 222.309 226.043 222.473L226.563 226.112C226.617 226.489 226.303 226.854 225.917 226.855C224.308 226.86 223.797 226.747 221.771 226.788C219.403 226.836 220.498 226.894 217.721 226.95C216.041 226.984 215.711 225.294 216.425 225.118C218.682 224.559 219.247 223.632 220.238 222.629C220.498 222.367 220.896 222.296 221.249 222.289Z" fill="#263238"/>
<path d="M222.071 222.57C222.108 222.57 222.141 222.55 222.158 222.517C222.176 222.48 222.17 222.435 222.141 222.406C221.996 222.254 220.709 220.93 220.148 221.031C220.04 221.051 219.959 221.117 219.913 221.223C219.836 221.402 219.842 221.571 219.931 221.729C220.227 222.251 221.391 222.479 222.058 222.569C222.062 222.57 222.067 222.57 222.071 222.57ZM220.221 221.219C220.548 221.218 221.282 221.829 221.796 222.334C220.891 222.183 220.266 221.927 220.1 221.633C220.042 221.53 220.038 221.421 220.091 221.3C220.111 221.253 220.138 221.23 220.182 221.222C220.194 221.22 220.208 221.219 220.221 221.219Z" fill="#407BFF"/>
<path d="M222.071 222.57C222.081 222.57 222.09 222.569 222.099 222.566C222.132 222.556 222.157 222.529 222.165 222.496C222.176 222.45 222.431 221.37 222.077 220.796C221.969 220.621 221.816 220.51 221.622 220.465C221.361 220.404 221.244 220.506 221.192 220.604C220.97 221.018 221.61 222.173 222.005 222.544C222.023 222.561 222.047 222.57 222.071 222.57ZM221.477 220.64C221.504 220.64 221.536 220.644 221.578 220.653C221.722 220.687 221.831 220.767 221.912 220.898C222.145 221.275 222.068 221.947 222.013 222.268C221.634 221.818 221.23 220.943 221.363 220.695C221.371 220.679 221.392 220.64 221.477 220.64Z" fill="#407BFF"/>
<path d="M220.992 178.687C223.237 157.767 225.097 142.347 221.849 131.971L206.785 132.375C206.785 132.375 207.157 166.942 209.984 179.213C212.923 191.971 219.008 215.558 219.008 215.558L225.617 215.652C225.617 215.652 225.332 192.938 220.992 178.687Z" fill="#263238"/>
<path d="M218.045 214.092L218.477 216.919L225.886 217.049L226.305 214.377L218.045 214.092Z" fill="#263238"/>
<path opacity="0.3" d="M218.045 214.092L218.477 216.919L225.886 217.049L226.305 214.377L218.045 214.092Z" fill="black"/>
<path d="M203.958 92.4239C208.387 91.8878 213.011 92.1257 217.772 92.9166C220.31 93.3379 222.289 95.3164 222.655 97.8442C223.505 103.705 224.83 115.243 222.434 133.25C220.263 133.936 213.873 133.888 208.795 133.523C208.243 133.483 206.891 132.197 206.891 132.197C206.891 132.197 205.675 133.245 204.973 133.161C201.608 132.758 198.927 132.18 198.31 131.523C196.933 128.251 196.072 119.954 199.723 112.531C199.763 108.086 198.883 103.084 198.81 98.3138C198.764 95.3302 200.973 92.7854 203.958 92.4239Z" fill="#407BFF"/>
<path d="M211.73 84.843C212.139 87.8921 212.759 91.4272 214.913 93.1569C214.108 95.2639 212.094 97.1512 209.126 97.3061C205.864 97.4764 206.367 94.8712 206.907 93.4919C208.293 91.9369 207.627 90.2062 207.277 88.9763L211.73 84.843Z" fill="#B55B52"/>
<path opacity="0.2" d="M210.828 86.3324C210.808 86.1386 210.777 85.9447 210.746 85.7557L207.279 88.9778C207.489 89.7132 207.81 90.6322 207.738 91.5819C209.46 90.4279 211.037 88.1808 210.828 86.3324Z" fill="black"/>
<path d="M212.872 80.4124C212.358 84.4425 212.263 86.8296 210.081 88.7554C206.798 91.6523 201.919 89.4266 201.216 85.3131C200.584 81.6109 201.53 75.6419 205.601 74.3253C209.611 73.0285 213.385 76.3824 212.872 80.4124Z" fill="#B55B52"/>
<path d="M206.418 82.6957C206.396 83.0253 206.204 83.2796 205.988 83.2637C205.772 83.2478 205.615 82.9676 205.637 82.6375C205.658 82.3079 205.85 82.0536 206.066 82.0696C206.282 82.0855 206.439 82.3662 206.418 82.6957Z" fill="#263238"/>
<path d="M202.297 82.5173C202.275 82.8468 202.083 83.1011 201.867 83.0852C201.651 83.0693 201.494 82.7892 201.516 82.459C201.537 82.1295 201.729 81.8752 201.945 81.8911C202.161 81.907 202.318 82.1872 202.297 82.5173Z" fill="#263238"/>
<path d="M207.554 82.793H204.501C204.253 82.793 204.054 82.9836 204.024 83.2242C203.607 83.0572 203.283 83.1247 203.085 83.2198C203.053 82.9814 202.855 82.793 202.609 82.793H200.282C200.013 82.793 199.793 83.0132 199.793 83.2818V84.6962C199.793 84.9654 200.013 85.1851 200.282 85.1851H202.609C202.878 85.1851 203.097 84.9648 203.097 84.6962V83.5433C203.197 83.4686 203.52 83.2873 204.012 83.5285V84.6962C204.012 84.9654 204.232 85.1851 204.501 85.1851H207.554C207.823 85.1851 208.043 84.9648 208.043 84.6962V83.2818C208.043 83.0127 207.823 82.793 207.554 82.793ZM202.812 84.6962C202.812 84.8066 202.718 84.8994 202.609 84.8994H200.282C200.17 84.8994 200.079 84.8083 200.079 84.6962V83.2818C200.079 83.1698 200.17 83.0786 200.282 83.0786H202.609C202.719 83.0786 202.812 83.172 202.812 83.2818V84.6962ZM207.757 84.6962C207.757 84.8083 207.666 84.8994 207.554 84.8994H204.501C204.389 84.8994 204.298 84.8083 204.298 84.6962V83.2818C204.298 83.1698 204.389 83.0786 204.501 83.0786H207.554C207.665 83.0786 207.757 83.172 207.757 83.2818V84.6962Z" fill="#263238"/>
<path d="M203.554 83.4026C203.554 83.4026 202.722 84.9126 201.932 85.5882C202.363 86.1117 203.222 86.0167 203.222 86.0167L203.554 83.4026Z" fill="#A02724"/>
<path d="M207.214 80.887C207.245 80.8793 207.275 80.8634 207.3 80.8398C207.377 80.7662 207.379 80.6431 207.305 80.5657C206.557 79.7879 205.674 79.9401 205.636 79.9467C205.531 79.9659 205.462 80.0669 205.482 80.1724C205.502 80.2773 205.603 80.3471 205.709 80.3284C205.738 80.3235 206.428 80.2125 207.024 80.8326C207.076 80.8854 207.149 80.9035 207.214 80.887Z" fill="#263238"/>
<path d="M201.044 80.8382C201.106 80.8498 201.172 80.8316 201.219 80.7828C201.812 80.1687 202.5 80.2895 202.529 80.295C202.634 80.3148 202.735 80.2456 202.754 80.1407C202.773 80.0357 202.705 79.9341 202.6 79.9132C202.562 79.9067 201.681 79.7419 200.939 80.5109C200.865 80.5878 200.867 80.7108 200.944 80.7855C200.973 80.8141 201.008 80.8311 201.044 80.8382Z" fill="#263238"/>
<path d="M213.77 91.6464C213.868 92.5823 212.749 95.8961 208.834 97.3138C210.344 97.327 211.004 99.2418 211.004 99.2418C211.004 99.2418 216.195 96.4762 215.579 93.1355C215.174 91.5821 213.77 91.6464 213.77 91.6464Z" fill="#407BFF"/>
<path d="M207.621 91.9017C207.717 92.8163 206.657 94.7382 208.834 97.3138C207.323 97.327 206.418 98.8303 206.418 98.8303C206.418 98.8303 204.408 95.9653 205.989 92.6548C206.799 91.9517 207.621 91.9017 207.621 91.9017Z" fill="#407BFF"/>
<g opacity="0.5">
<path d="M213.77 91.6464C213.868 92.5823 212.749 95.8961 208.834 97.3138C210.344 97.327 211.004 99.2418 211.004 99.2418C211.004 99.2418 216.195 96.4762 215.579 93.1355C215.174 91.5821 213.77 91.6464 213.77 91.6464Z" fill="white"/>
<path d="M207.621 91.9017C207.717 92.8163 206.657 94.7382 208.834 97.3138C207.323 97.327 206.418 98.8303 206.418 98.8303C206.418 98.8303 204.408 95.9653 205.989 92.6548C206.799 91.9517 207.621 91.9017 207.621 91.9017Z" fill="white"/>
</g>
<path d="M197.355 134.757L223.194 135.451V132.202L197.745 131.519L197.355 134.757Z" fill="#263238"/>
<path opacity="0.3" d="M197.355 134.757L223.194 135.451V132.202L197.745 131.519L197.355 134.757Z" fill="white"/>
<path d="M215.383 134.24L216.223 147.529L223.072 147.097C223.97 147.04 224.653 146.265 224.596 145.366L223.944 135.043C223.897 134.303 223.259 133.741 222.52 133.788L215.383 134.24Z" fill="#263238"/>
<path opacity="0.3" d="M215.383 134.24L216.223 147.529L223.072 147.097C223.97 147.04 224.653 146.265 224.596 145.366L223.944 135.043C223.897 134.303 223.259 133.741 222.52 133.788L215.383 134.24Z" fill="white"/>
<path opacity="0.2" d="M216.222 147.53L217.034 147.479C217.877 147.425 218.518 146.699 218.464 145.856L217.801 135.348C217.757 134.655 217.159 134.127 216.465 134.171L215.383 134.239L216.222 147.53Z" fill="black"/>
<path opacity="0.2" d="M217.832 135.848L217.805 135.432C217.758 134.692 217.121 134.13 216.381 134.177L222.519 133.789C223.259 133.742 223.897 134.304 223.943 135.044L223.97 135.461L224.033 136.474C224.074 137.119 223.585 137.674 222.94 137.715L219.137 137.955C218.492 137.995 217.936 137.506 217.896 136.861L217.832 135.848Z" fill="white"/>
<path d="M220.474 136.627C220.49 136.881 220.709 137.075 220.964 137.059C221.218 137.043 221.411 136.823 221.395 136.569C221.379 136.315 221.16 136.121 220.905 136.137C220.651 136.154 220.458 136.373 220.474 136.627Z" fill="#263238"/>
<path d="M206.275 133.324C206.275 133.579 206.482 133.786 206.737 133.786C206.992 133.786 207.199 133.579 207.199 133.324C207.199 133.069 206.993 132.862 206.737 132.862C206.482 132.862 206.275 133.069 206.275 133.324Z" fill="#263238"/>
<path opacity="0.1" d="M222.175 137.772L219.861 137.918L220.452 147.271L222.766 147.125L222.175 137.772Z" fill="black"/>
<path d="M210.847 84.1008C210.847 84.1008 209.614 84.2189 209.949 82.4881C210.284 80.7574 208.578 79.0387 209.063 77.3815C209.547 75.7243 204.29 77.0135 203.912 75.7243C203.533 74.4357 203.45 78.0593 201.82 77.5655C200.403 77.136 202.252 75.4376 202.252 75.4376C202.252 75.4376 200.082 76.6757 200.082 75.4376C200.082 74.2204 202.64 74.26 203.549 74.0419C206.13 73.4229 211.757 70.3848 213.353 78.1175C213.353 78.1175 215.765 79.8033 212.259 84.7127L210.847 84.1008Z" fill="#263238"/>
<path opacity="0.2" d="M222.855 99.2865C223.305 102.662 223.793 107.48 223.792 113.841C220.316 110.833 217.271 102.653 217.271 102.653V99.3963L219.867 97.3135L222.855 99.2865Z" fill="black"/>
<path d="M198.982 108.719L192.057 104.753L191.512 106.619L197.744 110.154L198.982 108.719Z" fill="#407BFF"/>
<path opacity="0.5" d="M198.982 108.719L192.057 104.753L191.512 106.619L197.744 110.154L198.982 108.719Z" fill="white"/>
<path d="M202.961 73.6789C202.961 73.6789 208.381 68.6052 213.31 72.7989C217.423 76.2967 213.914 81.7461 213.914 81.7461L211.939 79.4375L208.104 76.1231L204.585 74.0875L202.961 73.6789Z" fill="#407BFF"/>
<path d="M200.071 73.3312C202.454 71.5032 209.652 74.9175 213.992 81.7999L213.968 81.8538C212.741 80.5146 206 73.4009 201.933 74.2781C201.933 74.2781 198.604 74.4561 200.071 73.3312Z" fill="#407BFF"/>
<g opacity="0.3">
<path d="M200.071 73.3312C202.454 71.5032 209.652 74.9175 213.992 81.7999L213.968 81.8538C212.741 80.5146 206 73.4009 201.933 74.2781C201.933 74.2781 198.604 74.4561 200.071 73.3312Z" fill="black"/>
</g>
<path d="M204.727 72.2015C206.555 71.1617 210.115 69.8401 213.431 72.659C216.975 75.674 215.01 80.1127 214.324 81.4013L213.99 81.2492C214.01 81.1981 215.924 76.0739 213.213 73.779C211.005 71.9104 208.333 72.9122 206.937 73.6768L206.842 73.729L206.75 73.6708C206.294 73.3824 205.575 72.9501 204.736 72.5267L204.43 72.3717L204.727 72.2015Z" fill="#407BFF"/>
<path opacity="0.3" d="M204.727 72.2015C206.555 71.1617 210.115 69.8401 213.431 72.659C216.975 75.674 215.01 80.1127 214.324 81.4013L213.99 81.2492C214.01 81.1981 215.924 76.0739 213.213 73.779C211.005 71.9104 208.333 72.9122 206.937 73.6768L206.842 73.729L206.75 73.6708C206.294 73.3824 205.575 72.9501 204.736 72.5267L204.43 72.3717L204.727 72.2015Z" fill="white"/>
<path d="M204.213 87.6893C204.03 87.6893 203.837 87.6733 203.633 87.6371C203.578 87.6272 203.541 87.5745 203.55 87.519C203.56 87.4641 203.611 87.4272 203.669 87.4366C205.163 87.7024 206.047 86.7808 206.056 86.7714C206.095 86.7302 206.159 86.728 206.2 86.7665C206.241 86.8049 206.243 86.8692 206.205 86.9098C206.17 86.9466 205.459 87.6893 204.213 87.6893Z" fill="#263238"/>
<path opacity="0.5" d="M218.204 105.96H210.85L211.09 106.814C211.232 107.317 211.692 107.665 212.215 107.665H216.581C217.009 107.665 217.402 107.431 217.607 107.056L218.204 105.96Z" fill="white"/>
<path d="M214.068 106.768C214.068 107.021 214.273 107.226 214.526 107.226C214.779 107.226 214.983 107.021 214.983 106.768C214.983 106.516 214.779 106.311 214.526 106.311C214.273 106.311 214.068 106.516 214.068 106.768Z" fill="#407BFF"/>
<path opacity="0.5" d="M205.634 105.917H199.711L199.905 106.77C200.019 107.273 200.389 107.621 200.811 107.621H204.328C204.672 107.621 204.989 107.387 205.154 107.012L205.634 105.917Z" fill="white"/>
<path d="M201.725 106.769C201.725 107.021 201.929 107.226 202.182 107.226C202.435 107.226 202.64 107.021 202.64 106.769C202.64 106.516 202.435 106.311 202.182 106.311C201.929 106.311 201.725 106.516 201.725 106.769Z" fill="#407BFF"/>
<path d="M207.844 83.1503L211.248 82.9201L211.224 82.5532L207.523 82.8092L207.844 83.1503Z" fill="#263238"/>
<path d="M213.981 84.6167C213.404 85.5439 212.45 86.1152 211.569 86.3003C210.243 86.5787 209.657 85.3714 210.09 84.1663C210.479 83.0815 211.637 81.6298 212.936 81.8929C214.216 82.1516 214.64 83.5566 213.981 84.6167Z" fill="#B55B52"/>
<path d="M206.647 111.439L206.372 112.297C206.336 112.411 206.454 112.512 206.56 112.457L207.363 112.048L212.165 106.402C212.267 106.282 212.253 106.102 212.133 106L211.851 105.76C211.731 105.658 211.55 105.672 211.448 105.793L206.647 111.439Z" fill="#263238"/>
<path opacity="0.5" d="M206.647 111.439L206.372 112.297C206.336 112.411 206.454 112.512 206.56 112.457L207.363 112.048L212.165 106.402C212.267 106.282 212.253 106.102 212.133 106L211.851 105.76C211.731 105.658 211.55 105.672 211.448 105.793L206.647 111.439Z" fill="white"/>
<path opacity="0.5" d="M211.742 105.703L206.737 111.588L206.4 112.419C206.374 112.387 206.358 112.344 206.373 112.297L206.648 111.438L211.45 105.792C211.524 105.705 211.639 105.675 211.742 105.703Z" fill="white"/>
<path d="M214.206 111.659L210.902 110.035L210.143 114.385C210.143 114.385 213.313 115.493 214.174 113.903L214.206 111.659Z" fill="#B55B52"/>
<path d="M207.272 111.241L207.264 112.811C207.26 113.435 207.71 113.971 208.325 114.076L210.143 114.385L210.902 110.035L208.583 109.973C207.867 109.954 207.276 110.526 207.272 111.241Z" fill="#B55B52"/>
<path d="M212.661 114C215.02 115.471 217.423 116.715 220.145 117.666C220.829 117.896 221.534 118.118 222.299 118.275C223.071 118.427 223.871 118.567 224.914 118.505C225.436 118.466 226.042 118.374 226.769 118.026C227.131 117.845 227.519 117.585 227.864 117.226C227.946 117.139 228.041 117.032 228.104 116.952L228.261 116.739C228.368 116.596 228.452 116.45 228.538 116.302C229.199 115.095 229.281 113.995 229.289 113.078C229.287 112.147 229.151 111.331 228.989 110.557C228.823 109.786 228.615 109.06 228.386 108.357C227.923 106.955 227.362 105.647 226.771 104.371C226.164 103.104 225.53 101.869 224.836 100.673C224.139 99.4663 223.456 98.315 222.64 97.1192C221.761 95.8312 220.004 95.5 218.717 96.3788C217.463 97.234 217.116 98.9209 217.908 100.197L217.94 100.248C218.58 101.276 219.273 102.401 219.898 103.499C220.524 104.61 221.147 105.718 221.706 106.84C222.277 107.954 222.792 109.081 223.218 110.184C223.644 111.271 223.966 112.403 224.029 113.219C224.048 113.391 224.046 113.531 224.04 113.642C223.755 113.664 223.396 113.66 223.029 113.627C222.482 113.576 221.888 113.502 221.289 113.388C218.882 112.933 216.33 112.199 213.854 111.47L213.804 111.455C213.058 111.235 212.276 111.661 212.056 112.407C211.872 113.028 212.138 113.674 212.661 114Z" fill="#B55B52"/>
<path d="M219.879 93.5589C225.617 95.3666 228.843 107.396 228.843 107.396L222.627 109.825C222.627 109.825 219.686 107.734 217.608 103.777C216.979 102.578 215.303 92.1171 219.879 93.5589Z" fill="#407BFF"/>
<path d="M228.845 105.96L221.23 108.975L222.352 110.563L229.331 107.802L228.845 105.96Z" fill="#407BFF"/>
<path opacity="0.5" d="M228.845 105.96L221.23 108.975L222.352 110.563L229.331 107.802L228.845 105.96Z" fill="white"/>
<path d="M193.096 107.45H204.333L212.229 121.206L211.924 121.512H200.687L192.791 107.755L193.096 107.45Z" fill="#263238"/>
<path opacity="0.2" d="M193.096 107.45H204.333L212.229 121.206L211.924 121.512H200.687L192.791 107.755L193.096 107.45Z" fill="white"/>
<path d="M200.687 121.512H211.924L204.028 107.755H192.791L200.687 121.512Z" fill="#263238"/>
<path opacity="0.4" d="M200.687 121.512H211.924L204.028 107.755H192.791L200.687 121.512Z" fill="white"/>
<path d="M195.972 107.249H200.253L201.158 108.827L201.032 108.954H196.751L195.846 107.376L195.972 107.249Z" fill="#407BFF"/>
<path opacity="0.5" d="M195.972 107.249H200.253L201.158 108.827L201.032 108.954H196.751L195.846 107.376L195.972 107.249Z" fill="white"/>
<path d="M196.751 108.954L195.846 107.376H200.126L201.032 108.954H196.751Z" fill="#407BFF"/>
<path opacity="0.2" d="M196.751 108.954L195.846 107.376H200.126L201.032 108.954H196.751Z" fill="white"/>
<path d="M190.276 116.244C190.148 115.378 190.197 114.649 190.277 113.976C190.304 113.779 190.342 113.595 190.375 113.407H195.645C195.486 113.874 195.357 114.326 195.28 114.735C195.205 115.094 195.18 115.423 195.189 115.596C195.191 115.653 195.192 115.685 195.191 115.704C195.233 115.724 195.272 115.745 195.318 115.765C195.658 115.919 196.083 116.05 196.53 116.176C197.422 116.423 198.439 116.631 199.402 116.87L199.505 116.895C199.954 117.007 200.335 117.343 200.484 117.816C200.711 118.54 200.309 119.311 199.585 119.538C198.458 119.892 197.374 120.094 196.179 120.164C195.583 120.199 194.968 120.187 194.288 120.104C193.946 120.052 193.586 119.981 193.186 119.855C192.789 119.724 192.339 119.553 191.825 119.157C191.691 119.045 191.563 118.935 191.434 118.804C191.309 118.668 191.152 118.483 191.076 118.365C190.912 118.124 190.782 117.879 190.67 117.633C190.454 117.142 190.342 116.675 190.276 116.244Z" fill="#B55B52"/>
<path d="M199.382 119.546L203.289 119.008L201.036 115.393C201.036 115.393 197.74 115.878 197.962 117.913L199.382 119.546Z" fill="#B55B52"/>
<path d="M204.838 116.81L204.135 115.189C203.884 114.611 203.203 114.356 202.634 114.629L201.035 115.394L203.289 119.009L204.469 118.156C204.893 117.849 205.046 117.289 204.838 116.81Z" fill="#B55B52"/>
<path d="M57.8105 131.434H62.1762V133.159H61.4632V140.895H58.523V133.159H57.8105V131.434Z" fill="#407BFF"/>
<g opacity="0.2">
<path d="M57.8105 131.434H62.1762V133.159H61.4632V140.895H58.523V133.159H57.8105V131.434Z" fill="black"/>
</g>
<path d="M83.6278 125.919L99.1312 149.773V171.181H62.4219V149.773L83.6278 125.919Z" fill="#407BFF"/>
<path opacity="0.5" d="M83.6278 125.919L99.1312 149.773V171.181H62.4219V149.773L83.6278 125.919Z" fill="white"/>
<path d="M66.5996 126.889L68.9588 123.27H83.6278L100.906 149.773H86.2374H66.5996V126.889Z" fill="#407BFF"/>
<path opacity="0.2" d="M66.5996 126.889L68.9588 123.27H83.6278L100.906 149.773H86.2374H66.5996V126.889Z" fill="black"/>
<path d="M86.2383 149.772L68.9597 123.27L51.6816 149.772H86.2383Z" fill="#407BFF"/>
<path d="M68.9604 125.919L84.4643 149.773V171.181H53.457V149.773L68.9604 125.919Z" fill="#407BFF"/>
<path opacity="0.8" d="M68.9604 125.919L84.4643 149.773V171.181H53.457V149.773L68.9604 125.919Z" fill="white"/>
<path d="M75.9137 139.649H72.7773V147.96H75.9137V139.649Z" fill="#407BFF"/>
<path d="M64.9352 139.649H61.7988V147.96H64.9352V139.649Z" fill="#407BFF"/>
<path d="M72.7765 139.257H64.9355V148.352H72.7765V139.257Z" fill="#407BFF"/>
<path opacity="0.4" d="M72.7765 139.257H64.9355V148.352H72.7765V139.257Z" fill="white"/>
<path d="M71.7966 140.236H65.916V147.371H71.7966V140.236Z" fill="#263238"/>
<path d="M64.118 171.18H73.5996V155.878H64.118V171.18Z" fill="#407BFF"/>
<path opacity="0.3" d="M64.118 171.18H73.5996V155.878H64.118V171.18Z" fill="white"/>
<path d="M64.7041 152.673H73.0109L75.03 156.419H62.6855L64.7041 152.673Z" fill="#407BFF"/>
<path d="M71.9386 158.478H69.0352V171.181H71.9386V158.478Z" fill="#263238"/>
<path d="M68.673 158.478H65.7695V171.181H68.673V158.478Z" fill="#263238"/>
<path d="M93.2193 186.638H49.0508V224.071H93.2193V186.638Z" fill="#407BFF"/>
<path opacity="0.6" d="M93.2193 186.638H49.0508V224.071H93.2193V186.638Z" fill="white"/>
<path d="M103.535 186.638H81.7207V224.071H103.535V186.638Z" fill="#407BFF"/>
<path opacity="0.8" d="M103.535 186.638H81.7207V224.071H103.535V186.638Z" fill="white"/>
<path d="M77.6092 190.404H68.9219V200.482H77.6092V190.404Z" fill="#407BFF"/>
<path opacity="0.3" d="M77.6092 190.404H68.9219V200.482H77.6092V190.404Z" fill="white"/>
<path d="M76.5233 191.49H70.0078V199.396H76.5233V191.49Z" fill="#263238"/>
<path d="M88.1857 190.839H84.7109V200.047H88.1857V190.839Z" fill="#407BFF"/>
<path d="M100.348 190.839H96.873V200.047H100.348V190.839Z" fill="#407BFF"/>
<path d="M96.8749 190.404H88.1875V200.482H96.8749V190.404Z" fill="#407BFF"/>
<path opacity="0.3" d="M96.8729 190.404H88.1855V200.482H96.8729V190.404Z" fill="white"/>
<path d="M95.787 191.49H89.2715V199.396H95.787V191.49Z" fill="#263238"/>
<path d="M69.5763 207.421H59.2598V224.07H69.5763V207.421Z" fill="#407BFF"/>
<path opacity="0.3" d="M69.5763 207.421H59.2598V224.07H69.5763V207.421Z" fill="white"/>
<path d="M68.938 203.933H59.9002L57.7031 208.01H71.1346L68.938 203.933Z" fill="#407BFF"/>
<path d="M64.2214 210.249H61.0625V224.07H64.2214V210.249Z" fill="#263238"/>
<path d="M67.7761 210.249H64.6172V224.07H67.7761V210.249Z" fill="#263238"/>
<path d="M98.1367 186.957L89.507 170.942H52.7625L44.1328 186.957H98.1367Z" fill="#407BFF"/>
<path opacity="0.3" d="M98.1367 186.957L89.507 170.942H52.7625L44.1328 186.957H98.1367Z" fill="black"/>
<path d="M108.452 186.957L99.8219 170.942H85.4319L76.8027 186.957H108.452Z" fill="#407BFF"/>
<path opacity="0.1" d="M108.452 186.957L99.8219 170.942H85.4319L76.8027 186.957H108.452Z" fill="black"/>
<path d="M60.9941 184.22V170.942H77.9816L70.8273 184.22H60.9941Z" fill="#407BFF"/>
<path opacity="0.8" d="M60.9941 184.22V170.942H77.9816L70.8273 184.22H60.9941Z" fill="white"/>
<path d="M60.494 184.22H70.8105V173.904H60.494V184.22Z" fill="#407BFF"/>
<path opacity="0.6" d="M60.494 184.22H70.8105V173.904H60.494V184.22Z" fill="white"/>
<path d="M63.4805 182.971H67.8297C68.2236 182.971 68.5427 182.652 68.5427 182.258V181.738H62.7676V182.258C62.7676 182.652 63.0873 182.971 63.4805 182.971Z" fill="#407BFF"/>
<path d="M63.8281 177.504C63.8281 176.495 64.646 175.677 65.6545 175.677C66.6629 175.677 67.4808 176.495 67.4808 177.504V181.445H63.8281V177.504Z" fill="#263238"/>
<path d="M67.4805 174.492L69.3931 170.942H77.981L76.0679 174.492H67.4805Z" fill="#407BFF"/>
<path opacity="0.2" d="M67.4805 174.492L69.3931 170.942H77.981L76.0679 174.492H67.4805Z" fill="black"/>
<path d="M70.4558 170.942L72.369 174.492H58.9375L60.8506 170.942H70.4558Z" fill="#407BFF"/>
<path d="M62.0448 190.404H53.3574V200.482H62.0448V190.404Z" fill="#407BFF"/>
<path opacity="0.3" d="M62.0448 190.404H53.3574V200.482H62.0448V190.404Z" fill="white"/>
<path d="M60.9589 191.49H54.4434V199.396H60.9589V191.49Z" fill="#263238"/>
<path d="M105.252 223.698H186.081C187.58 223.698 188.689 222.483 188.558 220.984L178.417 105.077C178.286 103.578 176.964 102.363 175.465 102.363H94.6357C93.1367 102.363 92.0277 103.578 92.159 105.077L102.3 220.984C102.431 222.483 103.752 223.698 105.252 223.698Z" fill="#263238"/>
<path d="M106.418 223.698H187.247C188.746 223.698 189.855 222.483 189.724 220.984L179.583 105.077C179.452 103.578 178.13 102.363 176.631 102.363H95.8017C94.3027 102.363 93.1937 103.578 93.325 105.077L103.466 220.984C103.596 222.483 104.919 223.698 106.418 223.698Z" fill="#263238"/>
<path opacity="0.5" d="M106.418 223.698H187.247C188.746 223.698 189.855 222.483 189.724 220.984L179.583 105.077C179.452 103.578 178.13 102.363 176.631 102.363H95.8017C94.3027 102.363 93.1937 103.578 93.325 105.077L103.466 220.984C103.596 222.483 104.919 223.698 106.418 223.698Z" fill="white"/>
<path opacity="0.2" d="M172.066 109.064L181.76 219.492H108.905L99.2109 109.064H172.066Z" fill="black"/>
<path d="M172.513 109.064L175.307 144.678C176.032 153.909 177.125 163.107 178.584 172.251L185.725 216.996H112.871L105.717 172.139C104.261 163.007 103.169 153.82 102.446 144.6L99.6582 109.064H172.513Z" fill="white"/>
<path d="M124.159 123.22H151.477C152.382 123.22 153.026 122.487 152.915 121.581L152.698 119.808C152.587 118.903 151.763 118.17 150.858 118.17H123.54C122.635 118.17 121.991 118.904 122.102 119.808L122.319 121.581C122.43 122.487 123.254 123.22 124.159 123.22Z" fill="#407BFF"/>
<path d="M112.62 159.935H171.266C172.171 159.935 172.815 159.201 172.704 158.296L172.487 156.523C172.376 155.618 171.553 154.885 170.648 154.885H112.001C111.096 154.885 110.452 155.619 110.563 156.523L110.78 158.296C110.891 159.201 111.715 159.935 112.62 159.935Z" fill="#407BFF"/>
<path opacity="0.5" d="M112.62 159.935H171.266C172.171 159.935 172.815 159.201 172.704 158.296L172.487 156.523C172.376 155.618 171.553 154.885 170.648 154.885H112.001C111.096 154.885 110.452 155.619 110.563 156.523L110.78 158.296C110.891 159.201 111.715 159.935 112.62 159.935Z" fill="white"/>
<path d="M148.77 130.781C139.664 130.781 130.559 130.781 121.453 130.781C120.89 130.781 120.813 129.907 121.376 129.907C130.482 129.907 139.588 129.907 148.694 129.907C149.256 129.907 149.334 130.781 148.77 130.781Z" fill="#263238"/>
<path d="M109.81 133.21C122.906 133.21 136.001 133.21 149.097 133.21C149.659 133.21 149.737 134.084 149.173 134.084C136.077 134.084 122.981 134.084 109.886 134.084C109.324 134.084 109.247 133.21 109.81 133.21Z" fill="#263238"/>
<path d="M154.792 134.229H168.123C169.028 134.229 169.672 133.495 169.561 132.59L169.344 130.817C169.233 129.912 168.41 129.178 167.505 129.178H154.173C153.268 129.178 152.624 129.912 152.735 130.817L152.952 132.59C153.063 133.495 153.886 134.229 154.792 134.229Z" fill="#263238"/>
<path opacity="0.7" d="M154.792 134.229H168.123C169.028 134.229 169.672 133.495 169.561 132.59L169.344 130.817C169.233 129.912 168.41 129.178 167.505 129.178H154.173C153.268 129.178 152.624 129.912 152.735 130.817L152.952 132.59C153.063 133.495 153.886 134.229 154.792 134.229Z" fill="white"/>
<path d="M162.306 144.394H169.366C170.272 144.394 170.915 143.66 170.804 142.755L170.691 141.826C170.58 140.92 169.756 140.187 168.851 140.187H161.79C160.885 140.187 160.241 140.921 160.352 141.826L160.466 142.755C160.577 143.66 161.4 144.394 162.306 144.394Z" fill="#263238"/>
<path d="M140.722 144.394H157.106C158.012 144.394 158.655 143.66 158.544 142.755L158.431 141.826C158.32 140.92 157.496 140.187 156.591 140.187H140.206C139.301 140.187 138.657 140.921 138.768 141.826L138.882 142.755C138.993 143.66 139.817 144.394 140.722 144.394Z" fill="#263238"/>
<path d="M123.218 144.394H135.524C136.429 144.394 137.073 143.66 136.962 142.755L136.848 141.826C136.737 140.92 135.914 140.187 135.008 140.187H122.702C121.797 140.187 121.153 140.921 121.264 141.826L121.378 142.755C121.49 143.66 122.313 144.394 123.218 144.394Z" fill="#263238"/>
<path d="M111.54 144.394H118.018C118.923 144.394 119.567 143.66 119.456 142.755L119.342 141.826C119.231 140.92 118.408 140.187 117.503 140.187H111.025C110.119 140.187 109.476 140.921 109.587 141.826L109.7 142.755C109.811 143.66 110.635 144.394 111.54 144.394Z" fill="#263238"/>
<path d="M157.813 150.544H170.119C171.025 150.544 171.668 149.81 171.557 148.905L171.444 147.975C171.333 147.07 170.509 146.336 169.604 146.336H157.298C156.393 146.336 155.749 147.07 155.86 147.975L155.974 148.905C156.085 149.81 156.908 150.544 157.813 150.544Z" fill="#263238"/>
<path d="M137.979 150.544H152.616C153.521 150.544 154.165 149.81 154.054 148.905L153.94 147.975C153.829 147.07 153.006 146.336 152.101 146.336H137.464C136.559 146.336 135.915 147.07 136.026 147.975L136.14 148.905C136.251 149.81 137.074 150.544 137.979 150.544Z" fill="#263238"/>
<path d="M125.718 150.544H132.779C133.684 150.544 134.328 149.81 134.217 148.905L134.103 147.975C133.992 147.07 133.169 146.336 132.263 146.336H125.202C124.297 146.336 123.653 147.07 123.764 147.975L123.878 148.905C123.989 149.81 124.812 150.544 125.718 150.544Z" fill="#263238"/>
<path d="M112.294 150.544H120.52C121.426 150.544 122.069 149.81 121.958 148.905L121.845 147.975C121.734 147.07 120.91 146.336 120.005 146.336H111.779C110.873 146.336 110.23 147.07 110.341 147.975L110.454 148.905C110.565 149.81 111.389 150.544 112.294 150.544Z" fill="#263238"/>
<g opacity="0.7">
<path d="M162.306 144.394H169.366C170.272 144.394 170.915 143.66 170.804 142.755L170.691 141.826C170.58 140.92 169.756 140.187 168.851 140.187H161.79C160.885 140.187 160.241 140.921 160.352 141.826L160.466 142.755C160.577 143.66 161.4 144.394 162.306 144.394Z" fill="white"/>
<path d="M140.722 144.394H157.106C158.012 144.394 158.655 143.66 158.544 142.755L158.431 141.826C158.32 140.92 157.496 140.187 156.591 140.187H140.206C139.301 140.187 138.657 140.921 138.768 141.826L138.882 142.755C138.993 143.66 139.817 144.394 140.722 144.394Z" fill="white"/>
<path d="M123.218 144.394H135.524C136.429 144.394 137.073 143.66 136.962 142.755L136.848 141.826C136.737 140.92 135.914 140.187 135.008 140.187H122.702C121.797 140.187 121.153 140.921 121.264 141.826L121.378 142.755C121.49 143.66 122.313 144.394 123.218 144.394Z" fill="white"/>
<path d="M111.54 144.394H118.018C118.923 144.394 119.567 143.66 119.456 142.755L119.342 141.826C119.231 140.92 118.408 140.187 117.503 140.187H111.025C110.119 140.187 109.476 140.921 109.587 141.826L109.7 142.755C109.811 143.66 110.635 144.394 111.54 144.394Z" fill="white"/>
<path d="M157.813 150.544H170.119C171.025 150.544 171.668 149.81 171.557 148.905L171.444 147.975C171.333 147.07 170.509 146.336 169.604 146.336H157.298C156.393 146.336 155.749 147.07 155.86 147.975L155.974 148.905C156.085 149.81 156.908 150.544 157.813 150.544Z" fill="white"/>
<path d="M137.979 150.544H152.616C153.521 150.544 154.165 149.81 154.054 148.905L153.94 147.975C153.829 147.07 153.006 146.336 152.101 146.336H137.464C136.559 146.336 135.915 147.07 136.026 147.975L136.14 148.905C136.251 149.81 137.074 150.544 137.979 150.544Z" fill="white"/>
<path d="M125.718 150.544H132.779C133.684 150.544 134.328 149.81 134.217 148.905L134.103 147.975C133.992 147.07 133.169 146.336 132.263 146.336H125.202C124.297 146.336 123.653 147.07 123.764 147.975L123.878 148.905C123.989 149.81 124.812 150.544 125.718 150.544Z" fill="white"/>
<path d="M112.294 150.544H120.52C121.426 150.544 122.069 149.81 121.958 148.905L121.845 147.975C121.734 147.07 120.91 146.336 120.005 146.336H111.779C110.873 146.336 110.23 147.07 110.341 147.975L110.454 148.905C110.565 149.81 111.389 150.544 112.294 150.544Z" fill="white"/>
</g>
<path d="M135.672 212.523C129.346 212.523 123.021 212.523 116.695 212.523C116.132 212.523 116.055 211.649 116.618 211.649C122.944 211.649 129.27 211.649 135.596 211.649C136.158 211.649 136.236 212.523 135.672 212.523Z" fill="#263238"/>
<path d="M179.329 212.523C173.003 212.523 166.677 212.523 160.351 212.523C159.789 212.523 159.711 211.649 160.275 211.649C166.601 211.649 172.926 211.649 179.252 211.649C179.815 211.649 179.892 212.523 179.329 212.523Z" fill="#263238"/>
<path d="M176.037 185.625C167.962 185.625 159.888 185.625 151.814 185.625C151.251 185.625 151.174 184.751 151.738 184.751C159.812 184.751 167.886 184.751 175.96 184.751C176.523 184.75 176.6 185.625 176.037 185.625Z" fill="#263238"/>
<path d="M152.148 188.113C160.222 188.113 168.296 188.113 176.37 188.113C176.933 188.113 177.01 188.987 176.446 188.987C168.372 188.987 160.298 188.987 152.224 188.987C151.661 188.987 151.585 188.113 152.148 188.113Z" fill="#263238"/>
<path d="M152.56 191.475C160.634 191.475 168.708 191.475 176.782 191.475C177.345 191.475 177.422 192.349 176.859 192.349C168.784 192.349 160.711 192.349 152.636 192.349C152.074 192.349 151.996 191.475 152.56 191.475Z" fill="#263238"/>
<path d="M152.972 194.838C161.046 194.838 169.12 194.838 177.195 194.838C177.757 194.838 177.834 195.712 177.271 195.712C169.197 195.712 161.123 195.712 153.048 195.712C152.486 195.712 152.408 194.838 152.972 194.838Z" fill="#263238"/>
<path d="M153.384 198.199C161.458 198.199 169.532 198.199 177.607 198.199C178.169 198.199 178.247 199.074 177.683 199.074C169.609 199.074 161.535 199.074 153.46 199.074C152.898 199.074 152.821 198.199 153.384 198.199Z" fill="#263238"/>
<path d="M139.819 185.625C133.493 185.625 127.167 185.625 120.841 185.625C120.279 185.625 120.201 184.751 120.765 184.751C127.091 184.751 133.416 184.751 139.742 184.751C140.305 184.75 140.382 185.625 139.819 185.625Z" fill="#263238"/>
<path d="M121.177 188.113C127.503 188.113 133.828 188.113 140.154 188.113C140.717 188.113 140.794 188.987 140.231 188.987C133.905 188.987 127.579 188.987 121.253 188.987C120.691 188.987 120.613 188.113 121.177 188.113Z" fill="#263238"/>
<path d="M121.587 191.475C127.913 191.475 134.239 191.475 140.565 191.475C141.127 191.475 141.205 192.349 140.641 192.349C134.315 192.349 127.99 192.349 121.664 192.349C121.101 192.349 121.024 191.475 121.587 191.475Z" fill="#263238"/>
<path d="M121.999 194.837C128.325 194.837 134.651 194.837 140.977 194.837C141.539 194.837 141.617 195.712 141.053 195.712C134.727 195.712 128.402 195.712 122.076 195.712C121.513 195.712 121.436 194.837 121.999 194.837Z" fill="#263238"/>
<path d="M122.409 198.2C128.736 198.2 135.061 198.2 141.387 198.2C141.949 198.2 142.027 199.074 141.463 199.074C135.137 199.074 128.812 199.074 122.486 199.074C121.923 199.074 121.846 198.2 122.409 198.2Z" fill="#263238"/>
<path d="M111.79 168.312L112.29 172.391L112.789 176.471L113.288 180.55H124.69H125.127H144.25H144.688H163.811H164.248H175.65L175.097 176.034L174.598 171.954L174.099 167.875L173.599 163.795H162.198H161.761H142.637H142.2H123.077H122.64H111.238L111.79 168.312ZM122.916 166.054L123.139 167.875H112.175L111.729 164.232H122.693L122.916 166.054ZM123.852 170.133L123.629 168.312H142.752L142.975 170.133L143.198 171.955H124.075L123.852 170.133ZM143.19 168.312H162.313L162.536 170.133L162.759 171.954H143.636L143.413 170.133L143.19 168.312ZM163.258 176.034H144.135L143.912 174.213L143.689 172.391H162.812L163.035 174.213L163.258 176.034ZM143.697 176.034H124.575L124.352 174.213L124.129 172.391H143.252L143.475 174.213L143.697 176.034ZM142.476 166.054L142.699 167.875H123.577L123.354 166.054L123.131 164.233H142.254L142.476 166.054ZM162.037 166.054L162.26 167.875H143.136L142.913 166.054L142.69 164.233H161.813L162.037 166.054ZM173.661 167.875H162.697L162.474 166.054L162.251 164.233H173.215L173.661 167.875ZM174.161 171.955H163.196L162.973 170.133L162.75 168.312H173.714L174.161 171.955ZM174.66 176.034H163.695L163.472 174.213L163.249 172.391H174.213L174.66 176.034ZM163.972 178.292L163.749 176.471H174.713L175.159 180.113H164.194L163.972 178.292ZM144.411 178.292L144.188 176.471H163.311L163.534 178.292L163.757 180.113H144.635L144.411 178.292ZM124.851 178.292L124.628 176.471H143.751L143.974 178.292L144.197 180.113H125.074L124.851 178.292ZM113.227 176.471H124.191L124.414 178.292L124.637 180.113H113.673L113.227 176.471ZM112.727 172.391H123.691L123.914 174.213L124.137 176.034H113.173L112.727 172.391ZM112.228 168.312H123.192L123.415 170.133L123.638 171.954H112.674L112.228 168.312Z" fill="#407BFF"/>
<path opacity="0.5" d="M111.79 168.312L112.29 172.391L112.789 176.471L113.288 180.55H124.69H125.127H144.25H144.688H163.811H164.248H175.65L175.097 176.034L174.598 171.954L174.099 167.875L173.599 163.795H162.198H161.761H142.637H142.2H123.077H122.64H111.238L111.79 168.312ZM122.916 166.054L123.139 167.875H112.175L111.729 164.232H122.693L122.916 166.054ZM123.852 170.133L123.629 168.312H142.752L142.975 170.133L143.198 171.955H124.075L123.852 170.133ZM143.19 168.312H162.313L162.536 170.133L162.759 171.954H143.636L143.413 170.133L143.19 168.312ZM163.258 176.034H144.135L143.912 174.213L143.689 172.391H162.812L163.035 174.213L163.258 176.034ZM143.697 176.034H124.575L124.352 174.213L124.129 172.391H143.252L143.475 174.213L143.697 176.034ZM142.476 166.054L142.699 167.875H123.577L123.354 166.054L123.131 164.233H142.254L142.476 166.054ZM162.037 166.054L162.26 167.875H143.136L142.913 166.054L142.69 164.233H161.813L162.037 166.054ZM173.661 167.875H162.697L162.474 166.054L162.251 164.233H173.215L173.661 167.875ZM174.161 171.955H163.196L162.973 170.133L162.75 168.312H173.714L174.161 171.955ZM174.66 176.034H163.695L163.472 174.213L163.249 172.391H174.213L174.66 176.034ZM163.972 178.292L163.749 176.471H174.713L175.159 180.113H164.194L163.972 178.292ZM144.411 178.292L144.188 176.471H163.311L163.534 178.292L163.757 180.113H144.635L144.411 178.292ZM124.851 178.292L124.628 176.471H143.751L143.974 178.292L144.197 180.113H125.074L124.851 178.292ZM113.227 176.471H124.191L124.414 178.292L124.637 180.113H113.673L113.227 176.471ZM112.727 172.391H123.691L123.914 174.213L124.137 176.034H113.173L112.727 172.391ZM112.228 168.312H123.192L123.415 170.133L123.638 171.954H112.674L112.228 168.312Z" fill="white"/>
<path d="M115.499 188.382H117.307C117.643 188.382 117.883 188.109 117.842 187.773L117.62 185.965C117.579 185.629 117.273 185.356 116.937 185.356H115.129C114.793 185.356 114.553 185.629 114.594 185.965L114.816 187.773C114.857 188.109 115.163 188.382 115.499 188.382Z" fill="#407BFF"/>
<path d="M115.903 191.684H117.712C118.048 191.684 118.287 191.412 118.246 191.075L118.025 189.267C117.984 188.931 117.678 188.659 117.341 188.659H115.533C115.197 188.659 114.958 188.931 114.999 189.267L115.22 191.075C115.261 191.412 115.567 191.684 115.903 191.684Z" fill="#407BFF"/>
<path d="M116.307 194.987H118.116C118.452 194.987 118.692 194.714 118.65 194.378L118.429 192.569C118.388 192.233 118.082 191.961 117.746 191.961H115.937C115.601 191.961 115.362 192.233 115.403 192.569L115.624 194.378C115.665 194.714 115.971 194.987 116.307 194.987Z" fill="#407BFF"/>
<path d="M116.712 198.289H118.52C118.856 198.289 119.096 198.017 119.055 197.681L118.833 195.872C118.792 195.536 118.486 195.264 118.15 195.264H116.342C116.006 195.264 115.766 195.536 115.807 195.872L116.029 197.681C116.07 198.017 116.375 198.289 116.712 198.289Z" fill="#407BFF"/>
<path opacity="0.5" d="M115.903 191.684H117.712C118.048 191.684 118.287 191.412 118.246 191.075L118.025 189.267C117.984 188.931 117.678 188.659 117.341 188.659H115.533C115.197 188.659 114.958 188.931 114.999 189.267L115.22 191.075C115.261 191.412 115.567 191.684 115.903 191.684Z" fill="white"/>
<path opacity="0.5" d="M116.712 198.289H118.52C118.856 198.289 119.096 198.017 119.055 197.681L118.833 195.872C118.792 195.536 118.486 195.264 118.15 195.264H116.342C116.006 195.264 115.766 195.536 115.807 195.872L116.029 197.681C116.07 198.017 116.375 198.289 116.712 198.289Z" fill="white"/>
<path d="M124.649 100.375H131.782L130.652 97.6902C130.297 96.8471 131.047 96.0248 132.17 96.0248H139.16C140.283 96.0248 141.176 96.8471 140.969 97.6902L140.309 100.375H147.442C149.597 100.375 151.496 102.122 151.685 104.277L152.233 110.547C152.342 111.789 151.423 112.795 150.182 112.795H124.083C122.842 112.795 121.747 111.788 121.638 110.547L121.089 104.277C120.901 102.122 122.494 100.375 124.649 100.375Z" fill="#407BFF"/>
<path opacity="0.2" d="M140.307 100.375H131.78L131.115 98.7946H140.696L140.307 100.375Z" fill="black"/>
<path d="M146.056 109.04C146.114 109.711 146.705 110.254 147.376 110.254C148.047 110.254 148.543 109.71 148.484 109.04C148.425 108.369 147.834 107.826 147.163 107.826C146.493 107.826 145.997 108.369 146.056 109.04Z" fill="#263238"/>
<path d="M125.124 109.04C125.183 109.711 125.774 110.254 126.444 110.254C127.115 110.254 127.611 109.71 127.552 109.04C127.493 108.369 126.902 107.826 126.232 107.826C125.562 107.826 125.065 108.369 125.124 109.04Z" fill="#263238"/>
<path d="M171.316 208.085L139.02 214.399C137.441 214.708 136.015 213.696 135.842 212.144L135.295 207.233C135.122 205.68 136.266 204.167 137.845 203.857L170.141 197.544C171.72 197.235 173.146 198.247 173.319 199.8L173.866 204.71C174.039 206.263 172.895 207.776 171.316 208.085ZM137.937 204.68C136.818 204.898 136.008 205.97 136.13 207.071L136.677 211.981C136.8 213.08 137.809 213.797 138.928 213.578L171.224 207.264C172.342 207.046 173.153 205.974 173.03 204.874L172.483 199.963C172.36 198.864 171.351 198.147 170.232 198.366L137.937 204.68Z" fill="#407BFF"/>
<path d="M142.509 209.339L140.879 209.657L140.651 210.457L139.818 210.62L140.998 206.864L141.8 206.707L143.754 209.85L142.901 210.016L142.509 209.339ZM142.186 208.782L141.482 207.571L141.073 209L142.186 208.782Z" fill="#407BFF"/>
<path d="M146.082 206.027C146.322 206.084 146.515 206.194 146.66 206.357C146.804 206.52 146.891 206.73 146.919 206.986C146.947 207.239 146.91 207.472 146.808 207.685C146.705 207.898 146.545 208.077 146.327 208.222C146.11 208.367 145.845 208.47 145.534 208.53L144.827 208.669L144.933 209.62L144.121 209.779L143.736 206.329L145.256 206.031C145.567 205.971 145.842 205.97 146.082 206.027ZM145.955 207.625C146.071 207.496 146.118 207.338 146.097 207.147C146.076 206.953 145.995 206.817 145.857 206.738C145.718 206.659 145.526 206.644 145.283 206.691L144.621 206.821L144.754 208.018L145.416 207.889C145.66 207.841 145.84 207.753 145.955 207.625Z" fill="#407BFF"/>
<path d="M149.703 205.319C149.943 205.376 150.136 205.486 150.281 205.649C150.425 205.812 150.512 206.022 150.54 206.278C150.569 206.531 150.532 206.764 150.429 206.977C150.326 207.19 150.166 207.369 149.948 207.514C149.73 207.659 149.466 207.762 149.155 207.822L148.448 207.961L148.554 208.912L147.742 209.071L147.357 205.621L148.877 205.324C149.187 205.264 149.463 205.262 149.703 205.319ZM149.577 206.917C149.692 206.788 149.739 206.63 149.718 206.439C149.697 206.245 149.617 206.109 149.478 206.03C149.339 205.951 149.148 205.936 148.904 205.983L148.242 206.113L148.375 207.31L149.037 207.181C149.281 207.133 149.461 207.046 149.577 206.917Z" fill="#407BFF"/>
<path d="M153.597 207.926L152.813 207.097L152.773 207.105L152.066 207.243L152.173 208.205L151.361 208.363L150.977 204.913L152.496 204.616C152.807 204.555 153.082 204.554 153.323 204.611C153.563 204.668 153.755 204.778 153.9 204.941C154.044 205.104 154.131 205.314 154.16 205.57C154.188 205.827 154.15 206.06 154.045 206.269C153.94 206.48 153.778 206.656 153.559 206.8L154.469 207.755L153.597 207.926ZM153.097 205.322C152.958 205.243 152.767 205.228 152.523 205.275L151.861 205.405L151.995 206.608L152.657 206.478C152.901 206.43 153.08 206.341 153.196 206.211C153.311 206.081 153.358 205.921 153.337 205.731C153.316 205.537 153.236 205.401 153.097 205.322Z" fill="#407BFF"/>
<path d="M155.742 207.33C155.432 207.233 155.179 207.065 154.984 206.827C154.788 206.588 154.671 206.3 154.634 205.961C154.596 205.623 154.644 205.302 154.78 204.998C154.915 204.695 155.121 204.437 155.396 204.225C155.671 204.015 155.991 203.873 156.355 203.801C156.72 203.73 157.056 203.744 157.364 203.841C157.672 203.939 157.925 204.107 158.122 204.345C158.319 204.584 158.437 204.872 158.475 205.21C158.513 205.549 158.463 205.87 158.326 206.174C158.188 206.477 157.984 206.735 157.71 206.946C157.436 207.157 157.117 207.298 156.753 207.369C156.389 207.441 156.052 207.428 155.742 207.33ZM157.223 206.44C157.38 206.313 157.496 206.157 157.573 205.971C157.65 205.785 157.676 205.585 157.652 205.371C157.629 205.158 157.56 204.977 157.446 204.827C157.332 204.679 157.186 204.573 157.009 204.513C156.831 204.452 156.638 204.441 156.431 204.482C156.224 204.523 156.042 204.606 155.885 204.732C155.728 204.858 155.612 205.014 155.535 205.201C155.459 205.387 155.433 205.587 155.456 205.8C155.48 206.014 155.549 206.195 155.663 206.344C155.777 206.493 155.923 206.598 156.1 206.659C156.277 206.72 156.47 206.73 156.677 206.689C156.884 206.649 157.066 206.566 157.223 206.44Z" fill="#407BFF"/>
<path d="M162.155 202.728L161.02 206.475L160.217 206.633L158.318 203.479L159.196 203.307L160.539 205.563L161.347 202.886L162.155 202.728Z" fill="#407BFF"/>
<path d="M165.474 204.949L165.546 205.59L162.828 206.121L162.443 202.671L165.096 202.153L165.167 202.794L163.322 203.154L163.406 203.904L165.035 203.585L165.105 204.206L163.475 204.524L163.564 205.323L165.474 204.949Z" fill="#407BFF"/>
<path d="M165.809 202.014L167.403 201.702C167.784 201.627 168.129 201.633 168.437 201.719C168.746 201.804 168.995 201.961 169.187 202.189C169.378 202.417 169.493 202.703 169.531 203.048C169.569 203.393 169.522 203.711 169.389 204.002C169.255 204.293 169.051 204.539 168.774 204.739C168.497 204.94 168.169 205.077 167.788 205.151L166.193 205.463L165.809 202.014ZM167.674 204.505C168.025 204.436 168.295 204.285 168.482 204.052C168.67 203.819 168.746 203.538 168.709 203.209C168.672 202.881 168.538 202.641 168.308 202.49C168.078 202.338 167.788 202.297 167.436 202.366L166.694 202.511L166.932 204.65L167.674 204.505Z" fill="#407BFF"/>
</g>
<defs>
<clipPath id="clip0_835_16657">
<rect width="274.639" height="274.639" fill="white" transform="translate(0.361328 0.540039)"/>
</clipPath>
</defs>
</svg>
