<svg width="550" height="450" viewBox="0 0 550 450" fill="none" xmlns="http://www.w3.org/2000/svg">
<path d="M58.3009 351.238C31.2148 319.064 12.6138 278.367 3.95625 238.938C-2.07933 211.45 -1.8309 181.942 9.06249 155.992C35.0995 93.9652 96.7721 109.681 143.002 76.4186C158.541 65.2381 169.15 48.6412 182.378 34.8072C203.676 12.5351 231.87 8.63716 261.576 10.6807C297.851 13.176 332.602 32.6298 353.689 62.2449C367.615 81.8042 375.507 104.897 386.175 126.406C396.843 147.915 411.558 169 433.5 178.753C450.195 186.173 469.209 186.204 486.674 191.57C518.145 201.242 543.106 229.517 548.797 261.938C554.809 296.193 537.264 324.341 518.934 351.238H58.3009Z" fill="#5877E4"/>
<path d="M50.7593 274.985C52.1391 279.628 53.9463 284.168 56.2182 288.536L38.2827 306.136C38.2672 306.152 38.2672 306.178 38.2827 306.193L70.0399 338.54C70.0554 338.555 70.0811 338.555 70.0965 338.54L88.0347 320.938C92.3712 323.302 96.8596 325.176 101.483 326.656L101.249 351.781C101.249 351.803 101.267 351.821 101.289 351.821L146.623 352.244C146.645 352.244 146.663 352.226 146.663 352.204L146.897 327.058C151.538 325.707 156.096 323.868 160.459 321.623L178.055 339.546C178.07 339.562 178.096 339.562 178.111 339.546L210.466 307.796C210.481 307.781 210.481 307.757 210.466 307.74L192.864 289.81C195.213 285.488 197.11 280.965 198.576 276.36L223.711 276.595C223.733 276.595 223.751 276.577 223.751 276.555L224.174 231.232C224.174 231.21 224.156 231.192 224.134 231.192L198.986 230.957C197.625 226.31 195.8 221.772 193.542 217.402L211.472 199.806C211.488 199.791 211.489 199.765 211.474 199.75L179.718 167.403C179.702 167.387 179.677 167.387 179.661 167.403L161.72 185.007C157.394 182.639 152.894 180.767 148.276 179.284L148.51 154.161C148.51 154.139 148.492 154.121 148.47 154.121L103.137 153.697C103.115 153.697 103.097 153.715 103.097 153.737L102.863 178.867C98.2201 180.251 93.6777 182.054 89.3103 184.328L71.7055 166.395C71.6901 166.38 71.6643 166.38 71.6489 166.395L39.2944 198.144C39.2789 198.159 39.2789 198.185 39.2944 198.2L56.894 216.127C54.5539 220.453 52.6476 224.958 51.1943 229.578L26.0493 229.344C26.0274 229.344 26.0094 229.362 26.0094 229.384L25.5859 274.707C25.5859 274.729 25.604 274.747 25.6258 274.747L50.7593 274.985ZM114.49 205.443C141.275 199.593 167.732 216.558 173.584 243.335C179.437 270.114 162.467 296.564 135.683 302.416C108.899 308.267 82.4419 291.301 76.5891 264.524C70.7363 237.746 87.7051 211.293 114.49 205.443Z" fill="#BCCAFC"/>
<path d="M348.656 113.681V351.235H360.888V289.411H508.197V351.235H517.65V113.681H348.656ZM360.888 209.813H508.197V272.109H360.888V209.813ZM360.888 130.216H508.197V192.511H360.888V130.216Z" fill="#87C5F4"/>
<path d="M480.406 192.431H501.945V130.214H480.406V192.431Z" fill="#2480EF"/>
<path d="M485.344 179.481C485.344 182.702 487.955 185.313 491.177 185.313C494.399 185.313 497.011 182.702 497.011 179.481C497.011 176.26 494.399 173.648 491.177 173.648C487.955 173.648 485.344 176.26 485.344 179.481Z" fill="white"/>
<path d="M491.176 184.054C493.703 184.054 495.751 182.007 495.751 179.481C495.751 176.955 493.703 174.907 491.176 174.907C488.65 174.907 486.602 176.955 486.602 179.481C486.602 182.007 488.65 184.054 491.176 184.054Z" fill="#5877E4"/>
<path d="M484.22 167.74H497.906V138.13H484.22V167.74Z" fill="#72B1EB"/>
<path d="M485.29 164.597H496.836V164.115H485.29V164.597Z" fill="#5877E4"/>
<path d="M485.29 160.388H496.836V159.906H485.29V160.388Z" fill="#5877E4"/>
<path d="M485.29 156.179H496.836V155.697H485.29V156.179Z" fill="#5877E4"/>
<path d="M485.29 147.755H496.836V147.274H485.29V147.755Z" fill="#5877E4"/>
<path d="M485.29 143.546H496.836V143.065H485.29V143.546Z" fill="#5877E4"/>
<path d="M485.29 151.966H496.836V151.485H485.29V151.966Z" fill="#5877E4"/>
<path d="M437.32 192.431H458.859V130.214H437.32V192.431Z" fill="#ABD5F4"/>
<path d="M442.258 179.481C442.258 182.702 444.87 185.313 448.091 185.313C451.313 185.313 453.925 182.702 453.925 179.481C453.925 176.26 451.313 173.648 448.091 173.648C444.87 173.648 442.258 176.26 442.258 179.481Z" fill="white"/>
<path d="M448.09 184.054C450.617 184.054 452.665 182.007 452.665 179.481C452.665 176.955 450.617 174.907 448.09 174.907C445.564 174.907 443.516 176.955 443.516 179.481C443.516 182.007 445.564 184.054 448.09 184.054Z" fill="#5877E4"/>
<path d="M441.134 167.74H454.82V138.13H441.134V167.74Z" fill="white"/>
<path d="M442.204 164.597H453.75V164.115H442.204V164.597Z" fill="#72B1EB"/>
<path d="M442.204 160.388H453.75V159.906H442.204V160.388Z" fill="#72B1EB"/>
<path d="M442.204 156.179H453.75V155.697H442.204V156.179Z" fill="#72B1EB"/>
<path d="M442.204 147.755H453.75V147.274H442.204V147.755Z" fill="#72B1EB"/>
<path d="M442.204 143.546H453.75V143.065H442.204V143.546Z" fill="#72B1EB"/>
<path d="M442.204 151.966H453.75V151.485H442.204V151.966Z" fill="#72B1EB"/>
<path d="M458.859 192.431H480.398V130.214H458.859V192.431Z" fill="#274F8E"/>
<path d="M463.797 179.481C463.797 182.702 466.409 185.313 469.63 185.313C472.852 185.313 475.464 182.702 475.464 179.481C475.464 176.26 472.852 173.648 469.63 173.648C466.409 173.648 463.797 176.26 463.797 179.481Z" fill="white"/>
<path d="M469.629 184.054C472.156 184.054 474.204 182.007 474.204 179.481C474.204 176.955 472.156 174.907 469.629 174.907C467.103 174.907 465.055 176.955 465.055 179.481C465.055 182.007 467.103 184.054 469.629 184.054Z" fill="#5877E4"/>
<path d="M462.673 167.74H476.359V138.13H462.673V167.74Z" fill="#72B1EB"/>
<path d="M463.743 164.597H475.289V164.115H463.743V164.597Z" fill="#5877E4"/>
<path d="M463.743 160.388H475.289V159.906H463.743V160.388Z" fill="#5877E4"/>
<path d="M463.743 156.179H475.289V155.697H463.743V156.179Z" fill="#5877E4"/>
<path d="M463.743 147.755H475.289V147.274H463.743V147.755Z" fill="#5877E4"/>
<path d="M463.743 143.546H475.289V143.065H463.743V143.546Z" fill="#5877E4"/>
<path d="M463.743 151.966H475.289V151.485H463.743V151.966Z" fill="#5877E4"/>
<path d="M462.086 209.853H440.547V272.069H462.086V209.853Z" fill="#2480EF"/>
<path d="M457.151 259.117C457.151 262.338 454.54 264.949 451.318 264.949C448.096 264.949 445.484 262.338 445.484 259.117C445.484 255.896 448.096 253.285 451.318 253.285C454.54 253.284 457.151 255.895 457.151 259.117Z" fill="white"/>
<path d="M451.317 263.693C453.843 263.693 455.891 261.645 455.891 259.119C455.891 256.594 453.843 254.546 451.317 254.546C448.79 254.546 446.742 256.594 446.742 259.119C446.742 261.645 448.79 263.693 451.317 263.693Z" fill="#5877E4"/>
<path d="M458.272 217.767H444.586V247.377H458.272V217.767Z" fill="#72B1EB"/>
<path d="M457.202 243.756H445.656V244.237H457.202V243.756Z" fill="#5877E4"/>
<path d="M457.202 239.545H445.656V240.026H457.202V239.545Z" fill="#5877E4"/>
<path d="M457.202 235.336H445.656V235.817H457.202V235.336Z" fill="#5877E4"/>
<path d="M457.202 226.914H445.656V227.395H457.202V226.914Z" fill="#5877E4"/>
<path d="M457.202 222.703H445.656V223.184H457.202V222.703Z" fill="#5877E4"/>
<path d="M457.202 231.125H445.656V231.606H457.202V231.125Z" fill="#5877E4"/>
<path d="M431.821 130.253H410.281V192.471H431.821V130.253Z" fill="#2480EF"/>
<path d="M426.886 179.518C426.886 182.739 424.274 185.35 421.052 185.35C417.83 185.35 415.219 182.739 415.219 179.518C415.219 176.297 417.83 173.686 421.052 173.686C424.274 173.686 426.886 176.297 426.886 179.518Z" fill="white"/>
<path d="M421.051 184.093C423.578 184.093 425.626 182.046 425.626 179.52C425.626 176.994 423.578 174.946 421.051 174.946C418.525 174.946 416.477 176.994 416.477 179.52C416.477 182.046 418.525 184.093 421.051 184.093Z" fill="#5877E4"/>
<path d="M428.007 138.167H414.32V167.777H428.007V138.167Z" fill="#72B1EB"/>
<path d="M426.937 164.154H415.391V164.636H426.937V164.154Z" fill="#5877E4"/>
<path d="M426.937 159.945H415.391V160.427H426.937V159.945Z" fill="#5877E4"/>
<path d="M426.937 155.734H415.391V156.216H426.937V155.734Z" fill="#5877E4"/>
<path d="M426.937 147.312H415.391V147.794H426.937V147.312Z" fill="#5877E4"/>
<path d="M426.937 143.102H415.391V143.583H426.937V143.102Z" fill="#5877E4"/>
<path d="M426.937 151.523H415.391V152.005H426.937V151.523Z" fill="#5877E4"/>
<path d="M482.625 209.647L461.891 215.479L477.822 272.097L498.556 266.265L482.625 209.647Z" fill="#ABD5F4"/>
<path d="M490.317 255.148C491.19 258.249 489.383 261.469 486.282 262.342C483.18 263.214 479.959 261.407 479.087 258.307C478.214 255.206 480.021 251.986 483.122 251.114C486.223 250.24 489.445 252.047 490.317 255.148Z" fill="white"/>
<path d="M485.94 261.13C483.511 261.813 480.98 260.395 480.297 257.966C479.613 255.536 481.033 253.007 483.462 252.324C485.891 251.641 488.421 253.059 489.105 255.488C489.788 257.918 488.367 260.447 485.94 261.13Z" fill="#5877E4"/>
<path d="M480.729 216.997L467.555 220.702L475.273 248.133L488.448 244.428L480.729 216.997Z" fill="white"/>
<path d="M486.474 241.366L475.359 244.492L475.485 244.938L486.599 241.812L486.474 241.366Z" fill="#72B1EB"/>
<path d="M485.372 237.458L474.258 240.584L474.383 241.03L485.497 237.904L485.372 237.458Z" fill="#72B1EB"/>
<path d="M484.278 233.556L473.164 236.682L473.29 237.128L484.404 234.002L484.278 233.556Z" fill="#72B1EB"/>
<path d="M482.083 225.754L470.969 228.88L471.094 229.326L482.208 226.2L482.083 225.754Z" fill="#72B1EB"/>
<path d="M480.981 221.859L469.867 224.985L469.993 225.431L481.107 222.305L480.981 221.859Z" fill="#72B1EB"/>
<path d="M483.177 229.655L472.062 232.781L472.188 233.227L483.302 230.101L483.177 229.655Z" fill="#72B1EB"/>
<path d="M440.54 209.853H419V272.069H440.54V209.853Z" fill="#ABD5F4"/>
<path d="M435.604 259.117C435.604 262.338 432.993 264.949 429.771 264.949C426.549 264.949 423.938 262.338 423.938 259.117C423.938 255.896 426.549 253.285 429.771 253.285C432.992 253.284 435.604 255.895 435.604 259.117Z" fill="white"/>
<path d="M429.77 263.693C432.296 263.693 434.345 261.645 434.345 259.119C434.345 256.594 432.296 254.546 429.77 254.546C427.243 254.546 425.195 256.594 425.195 259.119C425.195 261.645 427.243 263.693 429.77 263.693Z" fill="#5877E4"/>
<path d="M436.726 217.767H423.039V247.377H436.726V217.767Z" fill="white"/>
<path d="M435.655 243.756H424.109V244.237H435.655V243.756Z" fill="#72B1EB"/>
<path d="M435.655 239.545H424.109V240.026H435.655V239.545Z" fill="#72B1EB"/>
<path d="M435.655 235.336H424.109V235.817H435.655V235.336Z" fill="#72B1EB"/>
<path d="M435.655 226.914H424.109V227.395H435.655V226.914Z" fill="#72B1EB"/>
<path d="M435.655 222.703H424.109V223.184H435.655V222.703Z" fill="#72B1EB"/>
<path d="M435.655 231.125H424.109V231.606H435.655V231.125Z" fill="#72B1EB"/>
<path d="M315.235 65.2495H193.904L192.709 52.3794C191.448 38.7951 201.44 27.7832 215.027 27.7832H287.156C300.743 27.7832 312.78 38.7951 314.041 52.3794L315.235 65.2495Z" fill="#EAA813"/>
<path d="M246 0C235.501 0 227.78 8.51016 228.755 19.006C229.729 29.5031 239.03 38.012 249.53 38.012C260.029 38.012 267.75 29.5031 266.776 19.006C265.801 8.51016 256.499 0 246 0ZM248.583 27.8108C243.727 27.8108 239.409 23.8614 238.958 19.006C238.508 14.1519 242.091 10.2024 246.948 10.2024C251.803 10.2024 256.12 14.1519 256.571 19.006C257.021 23.8614 253.438 27.8108 248.583 27.8108Z" fill="#EAA813"/>
<path d="M377.218 351.237H180.666C172.873 351.237 165.969 344.921 165.245 337.13L138.937 53.7728C138.213 45.982 143.945 39.666 151.738 39.666H348.288C356.081 39.666 362.985 45.982 363.709 53.7728L390.017 337.13C390.742 344.921 385.01 351.237 377.218 351.237Z" fill="#164767"/>
<path d="M381.959 351.237H185.408C177.615 351.237 170.711 344.921 169.987 337.13L143.679 53.7728C142.955 45.982 148.686 39.666 156.48 39.666H353.031C360.823 39.666 367.728 45.982 368.451 53.7728L394.76 337.13C395.483 344.921 389.751 351.237 381.959 351.237Z" fill="#2480EF"/>
<path d="M369.013 316.697H191.944L167.961 58.3877H345.03L369.013 316.697Z" fill="#9CE5E5"/>
<path d="M202.97 296.857L182.671 78.2292C182.313 74.3788 185.146 71.2568 188.998 71.2568H326.377C330.228 71.2568 333.64 74.3788 333.998 78.2292L354.297 296.857C354.655 300.707 351.822 303.829 347.971 303.829H210.59C206.739 303.829 203.326 300.707 202.97 296.857Z" fill="white"/>
<path d="M323.11 65.2495H201.778L200.584 52.3794C199.323 38.7951 209.315 27.7832 222.902 27.7832H295.031C308.618 27.7832 320.655 38.7951 321.916 52.3794L323.11 65.2495Z" fill="#FFC121"/>
<path d="M253.875 0C243.376 0 235.655 8.51016 236.63 19.006C237.604 29.5031 246.905 38.012 257.405 38.012C267.904 38.012 275.625 29.5031 274.651 19.006C273.676 8.51016 264.375 0 253.875 0ZM256.458 27.8108C251.602 27.8108 247.284 23.8614 246.833 19.006C246.383 14.1519 249.966 10.2024 254.823 10.2024C259.678 10.2024 263.995 14.1519 264.446 19.006C264.896 23.8614 261.314 27.8108 256.458 27.8108Z" fill="#FFC121"/>
<path d="M323.105 65.2458H201.773L200.578 52.377H321.91L323.105 65.2458Z" fill="#FFDC21"/>
<path d="M316.478 137.629H206.609C205.334 137.629 204.207 136.597 204.088 135.323C203.97 134.049 204.907 133.017 206.181 133.017H316.051C317.325 133.017 318.453 134.049 318.571 135.323C318.69 136.597 317.752 137.629 316.478 137.629Z" fill="#4C4992"/>
<path d="M317.439 147.972H207.569C206.295 147.972 205.168 146.939 205.049 145.665C204.931 144.391 205.868 143.359 207.142 143.359H317.012C318.286 143.359 319.414 144.391 319.532 145.665C319.649 146.939 318.713 147.972 317.439 147.972Z" fill="#4C4992"/>
<path d="M241.165 158.311H208.53C207.256 158.311 206.129 157.279 206.01 156.005C205.892 154.731 206.829 153.699 208.103 153.699H240.738C242.012 153.699 243.14 154.731 243.258 156.005C243.377 157.279 242.44 158.311 241.165 158.311Z" fill="#4C4992"/>
<path d="M312.634 98.0751H202.765C201.49 98.0751 200.363 97.043 200.244 95.769C200.126 94.495 201.063 93.4629 202.337 93.4629H312.207C313.481 93.4629 314.609 94.495 314.727 95.769C314.846 97.043 313.909 98.0751 312.634 98.0751Z" fill="#4C4992"/>
<path d="M313.595 108.419H203.726C202.451 108.419 201.324 107.387 201.205 106.113C201.087 104.839 202.024 103.807 203.298 103.807H313.168C314.442 103.807 315.57 104.839 315.688 106.113C315.805 107.387 314.87 108.419 313.595 108.419Z" fill="#4C4992"/>
<path d="M237.322 118.758H204.687C203.412 118.758 202.285 117.726 202.166 116.452C202.048 115.178 202.985 114.146 204.259 114.146H236.894C238.169 114.146 239.296 115.178 239.415 116.452C239.533 117.726 238.596 118.758 237.322 118.758Z" fill="#4C4992"/>
<path d="M320.68 182.902H250.632C249.358 182.902 248.23 181.87 248.112 180.596C247.993 179.322 248.93 178.29 250.205 178.29H320.253C321.527 178.29 322.655 179.322 322.773 180.596C322.89 181.87 321.953 182.902 320.68 182.902Z" fill="#4C4992"/>
<path d="M321.641 193.245H251.593C250.319 193.245 249.191 192.213 249.073 190.939C248.954 189.665 249.891 188.633 251.166 188.633H321.214C322.488 188.633 323.616 189.665 323.734 190.939C323.851 192.213 322.914 193.245 321.641 193.245Z" fill="#4C4992"/>
<path d="M285.181 203.585H252.546C251.272 203.585 250.144 202.553 250.026 201.279C249.907 200.005 250.844 198.973 252.119 198.973H284.754C286.028 198.973 287.156 200.005 287.274 201.279C287.393 202.553 286.455 203.585 285.181 203.585Z" fill="#4C4992"/>
<path d="M235.511 176.007H210.09C208.862 176.007 207.959 177.003 208.072 178.231L210.431 203.644C210.546 204.872 211.634 205.868 212.863 205.868H238.282C239.51 205.868 240.414 204.872 240.3 203.644L237.941 178.231C237.828 177.003 236.739 176.007 235.511 176.007ZM237.183 202.692C237.191 202.773 237.13 202.838 237.048 202.838H213.536C213.455 202.838 213.382 202.773 213.374 202.692L211.191 179.185C211.183 179.103 211.244 179.037 211.326 179.037H234.838C234.919 179.037 234.992 179.103 235 179.185L237.183 202.692Z" fill="#9CE5E5"/>
<path d="M228.51 199.553L216.18 190.612L219.528 185.724L226.669 190.903L241.022 170.442L246.229 174.291L228.51 199.553Z" fill="#FFC121"/>
<path d="M324.508 224.141H254.46C253.186 224.141 252.058 223.108 251.94 221.834C251.821 220.56 252.758 219.528 254.033 219.528H324.081C325.355 219.528 326.483 220.56 326.601 221.834C326.718 223.108 325.781 224.141 324.508 224.141Z" fill="#4C4992"/>
<path d="M325.469 234.484H255.421C254.147 234.484 253.019 233.452 252.901 232.178C252.782 230.904 253.719 229.872 254.994 229.872H325.042C326.316 229.872 327.444 230.904 327.562 232.178C327.681 233.452 326.744 234.484 325.469 234.484Z" fill="#4C4992"/>
<path d="M289.016 244.823H256.382C255.108 244.823 253.98 243.791 253.862 242.517C253.743 241.243 254.68 240.211 255.955 240.211H288.59C289.864 240.211 290.992 241.243 291.11 242.517C291.226 243.791 290.29 244.823 289.016 244.823Z" fill="#4C4992"/>
<path d="M239.338 217.245H213.918C212.691 217.245 211.787 218.241 211.9 219.469L214.26 244.882C214.374 246.11 215.462 247.106 216.691 247.106H242.11C243.338 247.106 244.242 246.11 244.129 244.882L241.769 219.469C241.655 218.241 240.567 217.245 239.338 217.245ZM241.01 243.93C241.017 244.011 240.957 244.078 240.875 244.078H217.363C217.282 244.078 217.209 244.012 217.201 243.93L215.019 220.424C215.011 220.341 215.072 220.276 215.153 220.276H238.665C238.746 220.276 238.819 220.341 238.827 220.424L241.01 243.93Z" fill="#9CE5E5"/>
<path d="M232.338 240.791L220.008 231.85L223.356 226.962L230.497 232.141L244.85 211.681L250.057 215.53L232.338 240.791Z" fill="#FFC121"/>
<path d="M328.344 265.383H258.296C257.022 265.383 255.894 264.351 255.776 263.077C255.657 261.803 256.594 260.771 257.867 260.771H327.916C329.19 260.771 330.317 261.803 330.436 263.077C330.556 264.351 329.619 265.383 328.344 265.383Z" fill="#4C4992"/>
<path d="M329.305 275.726H259.257C257.983 275.726 256.855 274.694 256.737 273.42C256.618 272.146 257.555 271.114 258.83 271.114H328.878C330.152 271.114 331.28 272.146 331.398 273.42C331.515 274.694 330.579 275.726 329.305 275.726Z" fill="#4C4992"/>
<path d="M292.853 286.065H260.218C258.944 286.065 257.816 285.033 257.698 283.759C257.579 282.485 258.516 281.453 259.791 281.453H292.426C293.7 281.453 294.828 282.485 294.946 283.759C295.063 285.033 294.126 286.065 292.853 286.065Z" fill="#4C4992"/>
<path d="M243.166 258.489H217.747C216.519 258.489 215.615 259.485 215.728 260.713L218.088 286.126C218.202 287.354 219.29 288.35 220.519 288.35H245.938C247.166 288.35 248.07 287.354 247.957 286.126L245.597 260.713C245.483 259.485 244.394 258.489 243.166 258.489ZM244.838 285.174C244.846 285.255 244.785 285.321 244.704 285.321H221.192C221.111 285.321 221.038 285.255 221.03 285.174L218.847 261.668C218.839 261.586 218.9 261.52 218.981 261.52H242.493C242.574 261.52 242.647 261.586 242.655 261.668L244.838 285.174Z" fill="#9CE5E5"/>
<path d="M236.165 282.035L223.836 273.094L227.184 268.207L234.324 273.385L248.677 252.925L253.884 256.774L236.165 282.035Z" fill="#FFC121"/>
<path d="M424.239 438.956C468.089 438.956 503.635 434.684 503.635 429.415C503.635 424.146 468.089 419.874 424.239 419.874C380.39 419.874 344.844 424.146 344.844 429.415C344.844 434.684 380.39 438.956 424.239 438.956Z" fill="#0D1E57"/>
<path d="M391.969 274.014L399.936 280.303C403 277.347 423.291 266.834 424.052 259.114C424.328 256.309 423.834 253.301 421.822 251.326C417.654 247.234 412.9 248.169 409.172 251.683C405.11 255.51 391.969 274.014 391.969 274.014Z" fill="#E1DBFF"/>
<path d="M408.885 423.118H402.518L401.961 416.466H408.326L408.885 423.118Z" fill="#E7AFA7"/>
<path d="M468.621 423.118H462.255L459.766 416.466H466.132L468.621 423.118Z" fill="#E7AFA7"/>
<path d="M424.234 249.857L436.251 249.703L431.197 235.991L424.46 237.705L424.234 249.857Z" fill="#F79889"/>
<path d="M445.752 303.874L450.945 251.57C451.343 248.989 448.899 246.24 446.29 246.132L415.094 248.679C412.483 248.57 410.359 250.754 410.542 253.359L414.812 303.873H445.752V303.874Z" fill="#E1DBFF"/>
<path d="M445.745 303.877L433.838 319.635L410.789 418.623H398.906L414.624 303.877H445.745Z" fill="#5E5EAA"/>
<path d="M420.359 303.877L423.191 317.186C423.84 320.713 426.916 323.274 430.504 323.274L457.317 418.623H468.922L445.741 303.877H420.359Z" fill="#4C4992"/>
<path d="M433.839 228.385C433.901 229.586 434.924 230.508 436.124 230.447C437.325 230.385 438.247 229.362 438.186 228.161C438.124 226.961 437.101 226.038 435.901 226.1C434.7 226.161 433.777 227.184 433.839 228.385Z" fill="#F79889"/>
<path d="M423.778 216.48C421.731 216.921 420.426 218.061 419.611 219.179C418.742 220.372 418.348 221.849 418.404 223.324L418.662 231.303C418.917 236.286 422.838 240.384 427.573 240.218C432.372 240.051 436.074 235.78 435.817 230.748L435.59 223.39C435.59 223.387 435.589 223.383 435.589 223.381C435.589 223.381 435.089 214.715 423.778 216.48Z" fill="#F79889"/>
<path d="M435.737 228.232C432.273 235.023 429.233 230.726 425.563 231.04C422.524 231.3 420.426 235.547 418.66 229.625C418.396 238.848 422.837 240.382 427.571 240.217C432.371 240.051 437.017 238.351 435.737 228.232Z" fill="#164767"/>
<path d="M402.076 420.103L405.581 421.64L408.836 420.103L411.757 429.636H384.672C384.672 424.869 394.853 424.869 394.853 424.869L402.076 420.103Z" fill="#164767"/>
<path d="M461.262 420.103L464.767 421.64L468.022 420.103L470.944 429.636H443.859C443.859 424.869 454.041 424.869 454.041 424.869L461.262 420.103Z" fill="#164767"/>
<path d="M298.881 230.737C287.669 251.755 295.621 277.881 316.643 289.091C337.665 300.301 363.798 292.351 375.01 271.333C386.223 250.316 378.271 224.19 357.248 212.98C336.226 201.77 310.094 209.72 298.881 230.737ZM364.726 265.849C356.556 281.163 337.448 286.977 322.13 278.809C306.813 270.641 300.997 251.536 309.167 236.222C317.337 220.908 336.446 215.094 351.764 223.263C367.08 231.43 372.895 250.535 364.726 265.849Z" fill="#FFC121"/>
<path d="M370.636 262.161L364.961 272.799L433.786 309.5L439.462 298.863L370.636 262.161Z" fill="#FFC121"/>
<path d="M452.972 312.854C449.838 318.728 442.533 320.951 436.657 317.817L399.062 297.77L410.413 276.494L448.007 296.541C453.883 299.676 456.106 306.979 452.972 312.854Z" fill="#2480EF"/>
<path d="M432.886 307.65C434.17 308.71 436.049 308.567 436.966 307.341L440.573 302.512L444.066 300.782L439.722 296.844L438.095 297.477C436.252 298.195 434.755 299.492 433.835 301.168L432.117 304.303C431.522 305.391 431.843 306.789 432.886 307.65Z" fill="#F79889"/>
<path d="M445.987 302.996L467.922 284.855L458.399 277.381L438.578 296.216L445.987 302.996Z" fill="#E1DBFF"/>
<path d="M457.305 280.347C458.003 284.102 461.613 286.579 465.369 285.882C469.125 285.184 471.604 281.575 470.905 277.819C470.208 274.064 466.597 271.587 462.841 272.285C459.085 272.983 456.607 276.592 457.305 280.347Z" fill="#E1DBFF"/>
<path d="M458.005 279.084L470.455 276.346C468.401 272.616 458.016 249.831 450.761 247.079C448.125 246.079 445.092 245.771 442.66 247.195C437.62 250.147 437.279 254.981 439.698 259.496C442.333 264.416 458.005 279.084 458.005 279.084Z" fill="#E1DBFF"/>
<path d="M373.797 277.333L373.989 277.942C376.104 284.644 383.344 288.27 389.979 285.951L373.797 277.333Z" fill="#E1DBFF"/>
<path d="M378.991 276.079C377.299 275.451 375.382 275.829 374.024 276.971C373.549 277.37 373.608 278.119 374.154 278.415L380.491 281.856C380.969 282.116 381.59 281.883 381.736 281.359C382.336 279.19 381.223 276.907 378.991 276.079Z" fill="#F79889"/>
<path d="M375.539 279.169L373.446 278.036C373.196 277.901 373.042 277.637 373.047 277.352L373.075 275.762C373.087 275.09 373.635 274.551 374.307 274.551C374.988 274.551 375.539 275.103 375.539 275.782V279.169Z" fill="#F79889"/>
<path d="M436.44 215.015C436.349 214.952 436.255 214.894 436.156 214.842C435.052 214.255 434.366 214.891 433.289 214.915C432.126 214.942 431.005 214.341 430.09 213.68C428.871 212.798 427.732 211.699 426.271 211.338C424.791 210.971 423.166 211.514 422.135 212.621C421.26 213.56 421.193 214.967 420.373 215.945C419.974 216.421 419.333 216.491 418.827 216.845C418.259 217.243 417.799 217.795 417.526 218.433C417.163 219.283 417.142 220.267 417.446 221.137C417.548 221.429 417.972 223.257 418.423 223.02C419.099 222.665 419.103 221.709 419.493 221.051C420.04 220.13 421.3 219.913 422.358 220.086C423.416 220.259 424.422 220.719 425.493 220.774C426.971 220.851 428.365 220.157 429.811 219.836C431.255 219.516 433.061 219.736 433.758 221.039C434.17 221.809 434.074 222.744 433.901 223.599C433.697 224.612 433.281 225.845 433.857 226.796C434.896 228.507 437.166 227.877 438.032 226.376C438.494 225.576 438.642 224.634 438.706 223.712C438.848 221.702 438.63 219.668 438.067 217.732C437.764 216.703 437.303 215.624 436.44 215.015Z" fill="#164767"/>
<path d="M122.271 450.001C166.12 450.001 201.666 445.729 201.666 440.46C201.666 435.191 166.12 430.919 122.271 430.919C78.4217 430.919 42.875 435.191 42.875 440.46C42.875 445.729 78.4217 450.001 122.271 450.001Z" fill="#0D1E57"/>
<path d="M117.097 219.204C113.482 218.372 109.518 219.023 106.669 221.368C104.898 222.824 103.578 224.852 101.553 225.928C99.5145 227.011 96.9595 227.008 95.1265 228.411C93.282 229.822 92.6333 232.345 92.7195 234.665C92.8058 236.985 93.4957 239.239 93.7982 241.541C94.4894 246.799 91.4336 249.907 88.2903 253.681C86.191 256.203 84.4198 259.153 84.0697 262.417C83.7196 265.679 85.0763 269.276 87.9582 270.844C89.091 271.462 90.3884 271.739 91.6782 271.775C94.8292 271.864 97.8296 270.572 100.879 269.77C103.928 268.968 107.46 268.74 109.959 270.662C110.68 271.216 111.277 271.925 112.035 272.43C114.696 274.203 118.542 272.781 120.418 270.193C122.295 267.605 122.679 264.25 122.845 261.058C122.997 258.151 122.96 255.278 122.765 252.402C122.569 249.537 123.562 246.988 124.581 244.376C125.389 242.303 126.689 240.595 127.518 238.54C130.299 231.646 126.78 223.859 120.341 220.415C119.323 219.871 118.226 219.466 117.097 219.204Z" fill="#164767"/>
<path d="M132.157 286.928L141.289 281.404L127.594 255.276C126.099 251.977 122.026 250.766 118.972 252.713C115.916 254.66 114.651 261.258 116.661 266.247C118.672 271.236 132.157 286.928 132.157 286.928Z" fill="#F3D11C"/>
<path d="M115.064 257.325L107.742 256.125L109.593 243.412L116.916 244.61L115.064 257.325Z" fill="#F79889"/>
<path d="M119.136 228.512C119.997 231.501 122.82 233.767 122.728 236.149L122.497 237.172C122.479 237.216 122.462 237.26 122.442 237.304L122.473 237.281L121.775 240.382C120.892 244.306 116.994 246.771 113.07 245.888C109.145 245.006 106.679 241.109 107.562 237.185L108.347 233.695C110.087 230.527 116.265 232.756 119.136 228.512Z" fill="#F79889"/>
<path d="M104.783 294.73L96.7223 259.898C96.282 257.08 98.393 254.505 101.243 254.381L121.354 251.722C124.205 251.599 126.529 253.982 126.335 256.827L129.71 294.73H104.783Z" fill="#FFDC21"/>
<path d="M119.811 294.729L107.188 315.071L142.38 429.411H149.657C149.657 429.411 133.309 311.27 129.557 294.729H119.811Z" fill="#373791"/>
<path d="M119.808 294.729C117.913 350.204 99.5409 429.411 99.5409 429.411H92.5657C92.4293 412.309 93.5826 330.138 94.7192 322.888C95.561 317.518 97.0799 312.25 99.2462 307.264C101.27 302.605 101.774 298.799 104.781 294.729H110.062H119.808Z" fill="#373791"/>
<path d="M145.427 435.38H149.971L148.617 429.41H143.172L145.427 435.38Z" fill="#F79889"/>
<path d="M94.1063 435.38H98.6487L98.9448 429.41H93.5L94.1063 435.38Z" fill="#F79889"/>
<path d="M118.464 269.971C118.149 273.406 120.678 276.444 124.113 276.76C127.549 277.075 130.589 274.546 130.903 271.112C131.219 267.677 128.689 264.639 125.254 264.323C121.82 264.009 118.779 266.538 118.464 269.971Z" fill="#FFDC21"/>
<path d="M120.769 251.836L118.757 265.117L107.359 253.573L120.769 251.836Z" fill="#F79889"/>
<path d="M109.855 236.149C109.817 237.588 108.62 238.726 107.181 238.688C105.742 238.651 104.604 237.454 104.642 236.015C104.679 234.577 105.876 233.44 107.315 233.476C108.755 233.514 109.892 234.711 109.855 236.149Z" fill="#F79889"/>
<path d="M150.608 432.961L148.292 433.976L144.64 432.961L142.711 439.259H162.104C162.104 436.11 155.378 436.11 155.378 436.11L150.608 432.961Z" fill="#164767"/>
<path d="M99.2797 432.961L96.964 433.976L93.3123 432.961L91.3828 439.259H110.775C110.775 436.11 104.049 436.11 104.049 436.11L99.2797 432.961Z" fill="#164767"/>
<path d="M144.775 273.923L145.011 274.551C147.601 281.473 143.953 289.165 136.953 291.54L144.775 273.923Z" fill="#F1CF17"/>
<path d="M133.383 299.695L111.555 297.693L125.41 267.402L147.238 269.405L133.383 299.695Z" fill="#006CFF"/>
<path d="M140.495 275.504C141.326 274.156 142.855 273.381 144.411 273.436C144.955 273.456 145.318 274.005 145.102 274.504L142.583 280.307C142.393 280.745 141.838 280.92 141.454 280.636C139.866 279.462 139.4 277.283 140.495 275.504Z" fill="#F79889"/>
<path d="M144.552 275.777L145.386 273.862C145.485 273.633 145.449 273.368 145.292 273.174L144.413 272.089C144.041 271.631 143.372 271.555 142.907 271.918C142.437 272.286 142.354 272.965 142.722 273.435L144.552 275.777Z" fill="#F79889"/>
<path d="M124.682 280.113C124.775 281.582 123.595 282.82 122.121 282.799L116.321 282.712L111.554 284.58L110.969 279.417L113.821 278.262C115.428 277.362 117.286 277.015 119.109 277.278L122.52 277.771C123.705 277.941 124.608 278.919 124.682 280.113Z" fill="#F79889"/>
<path d="M115.586 277.523L118.849 278.316C119.064 278.445 119.332 278.442 119.544 278.311L121.168 277.314C121.67 277.004 121.831 276.349 121.53 275.841C121.225 275.328 120.562 275.159 120.049 275.464L115.586 277.523Z" fill="#F79889"/>
<path d="M111.552 285.057L89.5705 294.71L88.7969 281.774L111.11 278.896L111.552 285.057Z" fill="#F3D11C"/>
<path d="M91.9679 290.013L81.3281 286.814L95.7754 258.261C97.1913 254.926 101.234 253.619 104.335 255.493C107.437 257.366 108.858 263.932 106.967 268.968C105.075 274.004 91.9679 290.013 91.9679 290.013Z" fill="#F3D11C"/>
<path d="M87.0705 295.243C90.4792 295.243 93.2425 292.48 93.2425 289.072C93.2425 285.664 90.4792 282.901 87.0705 282.901C83.6618 282.901 80.8984 285.664 80.8984 289.072C80.8984 292.48 83.6618 295.243 87.0705 295.243Z" fill="#F1CF17"/>
<path d="M420.052 55.9492L424.401 66.8877L436.151 67.6431L427.09 75.1585L430.002 86.5642L420.052 80.27L410.102 86.5642L413.015 75.1585L403.953 67.6431L415.704 66.8877L420.052 55.9492Z" fill="#FFC121"/>
<path d="M462.084 55.9492L466.432 66.8877L478.183 67.6431L469.121 75.1585L472.033 86.5642L462.084 80.27L452.135 86.5642L455.046 75.1585L445.984 67.6431L457.735 66.8877L462.084 55.9492Z" fill="#FFC121"/>
<path d="M504.114 55.9492L508.464 66.8877L520.213 67.6431L511.151 75.1585L514.064 86.5642L504.114 80.27L494.164 86.5642L497.077 75.1585L488.016 67.6431L499.765 66.8877L504.114 55.9492Z" fill="#FFC121"/>
<path d="M158.114 193.543H78.4002C76.5042 193.543 74.9531 191.992 74.9531 190.096V120.948C74.9531 119.053 76.5042 117.502 78.4002 117.502H158.114C160.01 117.502 161.561 119.053 161.561 120.948V190.096C161.56 191.992 160.01 193.543 158.114 193.543Z" fill="#4C4992"/>
<path d="M100.949 180.087H93.8918C92.2082 180.087 90.8438 178.723 90.8438 177.04V151.594C90.8438 149.911 92.2082 148.547 93.8918 148.547H100.949C102.633 148.547 103.997 149.911 103.997 151.594V177.04C103.997 178.723 102.632 180.087 100.949 180.087Z" fill="white"/>
<path d="M101.201 153.944C101.201 155.116 100.25 156.067 99.077 156.067C97.9044 156.067 96.9531 155.116 96.9531 153.944C96.9531 152.771 97.9044 151.82 99.077 151.82C100.25 151.82 101.201 152.77 101.201 153.944Z" fill="#9CE5E5"/>
<path d="M146.958 160.143C146.958 157.456 144.32 156.634 144.32 156.634C144.32 156.634 146.933 155.216 146.933 152.378C146.933 149.541 144.119 147.325 141.118 147.325H130.258C129.04 147.325 128.18 146.127 128.578 144.976C129.388 142.633 130.999 139.54 130.999 137.363C130.999 134.513 130.609 132.011 128.243 130.111C127.489 129.505 126.454 129.163 125.536 129.465C124.596 129.776 123.967 130.692 123.675 131.639C123.383 132.586 123.357 133.592 123.213 134.572C122.954 136.314 122.289 137.987 121.312 139.45C120.238 141.058 118.783 141.872 117.45 143.166C116.279 144.303 115.305 145.874 114.602 147.573C113.676 149.814 111.499 151.281 109.075 151.281H106.984V178.536H118.947H120.108H137.324C139.753 178.536 142.378 176.962 142.378 174.641C142.378 172.321 140.79 171.293 140.79 171.293C140.79 171.293 144.731 170.378 144.731 168.018C144.731 165.656 143.021 164.604 143.021 164.604C143.021 164.604 146.958 162.832 146.958 160.143Z" fill="white"/>
<path d="M107.62 106.08H15.033C13.137 106.08 11.5859 104.529 11.5859 102.634V65.7285C11.5859 63.8329 13.137 62.2822 15.033 62.2822H107.62C109.516 62.2822 111.067 63.8329 111.067 65.7285V102.634C111.065 104.529 109.514 106.08 107.62 106.08Z" fill="#7B98FF"/>
<path d="M93.3525 76.1444H43.9004C42.6261 76.1444 41.5938 75.1123 41.5938 73.8383C41.5938 72.5643 42.6261 71.5322 43.9004 71.5322H93.3525C94.6268 71.5322 95.6591 72.5643 95.6591 73.8383C95.6591 75.1123 94.6255 76.1444 93.3525 76.1444Z" fill="white"/>
<path d="M93.3525 86.4882H43.9004C42.6261 86.4882 41.5938 85.4561 41.5938 84.1821C41.5938 82.908 42.6261 81.876 43.9004 81.876H93.3525C94.6268 81.876 95.6591 82.908 95.6591 84.1821C95.6591 85.4561 94.6255 86.4882 93.3525 86.4882Z" fill="white"/>
<path d="M76.5342 96.827H43.9004C42.6261 96.827 41.5938 95.7949 41.5938 94.5209C41.5938 93.2469 42.6261 92.2148 43.9004 92.2148H76.5355C77.8098 92.2148 78.8421 93.2469 78.8421 94.5209C78.8408 95.7937 77.8085 96.827 76.5342 96.827Z" fill="white"/>
<path d="M33.1501 73.839C33.1501 75.5364 31.7729 76.9134 30.0751 76.9134C28.3773 76.9134 27 75.5364 27 73.839C27 72.1416 28.3773 70.7646 30.0751 70.7646C31.7729 70.7646 33.1501 72.1416 33.1501 73.839Z" fill="white"/>
<path d="M33.1501 84.1828C33.1501 85.8815 31.7729 87.2571 30.0751 87.2571C28.3773 87.2571 27 85.8802 27 84.1828C27 82.4854 28.3773 81.1084 30.0751 81.1084C31.7729 81.1071 33.1501 82.4841 33.1501 84.1828Z" fill="white"/>
<path d="M33.1501 94.5236C33.1501 96.2223 31.7729 97.5979 30.0751 97.5979C28.3773 97.5979 27 96.221 27 94.5236C27 92.8262 28.3773 91.4492 30.0751 91.4492C31.7729 91.4492 33.1501 92.8249 33.1501 94.5236Z" fill="white"/>
<path d="M339.309 181.341L332.898 162.946L315.164 171.015L342.459 107.218L366.604 117.544L339.309 181.341Z" fill="#FFC121"/>
<path d="M384.966 181.341L391.378 162.946L409.111 171.015L381.817 107.218L357.672 117.544L384.966 181.341Z" fill="#FFC121"/>
<path d="M359.6 62.7012L364.979 67.913L371.707 64.6186L375.212 71.2371L382.627 70.1818L383.916 77.5595L391.295 78.8477L390.24 86.2614L396.86 89.7656L393.563 96.4922L398.778 101.87L393.563 107.248L396.86 113.973L390.24 117.477L391.295 124.892L383.916 126.179L382.627 133.558L375.212 132.502L371.707 139.121L364.979 135.826L359.6 141.039L354.221 135.826L347.494 139.121L343.989 132.502L336.572 133.558L335.284 126.179L327.904 124.892L328.96 117.477L322.34 113.973L325.636 107.248L320.422 101.87L325.636 96.4922L322.34 89.7656L328.96 86.2614L327.904 78.8477L335.284 77.5595L336.572 70.1818L343.989 71.2371L347.494 64.6186L354.221 67.913L359.6 62.7012Z" fill="#164767"/>
<path d="M359.596 128.297C374.194 128.297 386.028 116.465 386.028 101.87C386.028 87.2757 374.194 75.4443 359.596 75.4443C344.998 75.4443 333.164 87.2757 333.164 101.87C333.164 116.465 344.998 128.297 359.596 128.297Z" fill="white"/>
<path d="M356.899 116.424L344.57 107.483L347.918 102.595L355.058 107.774L369.412 87.3135L374.618 91.1638L356.899 116.424Z" fill="#2480EF"/>
</svg>
