<svg width="453" height="451" viewBox="0 0 453 451" fill="none" xmlns="http://www.w3.org/2000/svg">
<path opacity="0.5" d="M1.28906 224.993L34.5471 185.486L68.9661 224.965L1.28906 224.993Z" fill="#58595B"/>
<path d="M1.28906 224.993L35.2851 190.654L68.9661 224.965L1.28906 224.993Z" fill="url(#paint0_linear_4187_17669)"/>
<path d="M115.279 337.193L115.351 337.12C86.7851 308.55 68.9661 268.555 68.9661 224.965L1.28906 224.993C1.28906 287.045 26.5341 343.739 67.0881 384.517L66.9861 384.621C107.793 425.428 164.697 451 226.966 451V383.351C183.608 383.351 143.814 365.494 115.279 337.193Z" fill="url(#paint1_linear_4187_17669)"/>
<path opacity="0.5" d="M226.974 450.888L187.727 417.487L226.947 383.211L226.974 450.888Z" fill="url(#paint2_linear_4187_17669)"/>
<path d="M226.971 450.888L192.891 416.749L226.944 383.211L226.971 450.888Z" fill="url(#paint3_linear_4187_17669)"/>
<path d="M452.463 225.502H384.813C384.813 269.864 365.586 310.23 336.125 338.904L336.426 339.207C308.045 366.533 269.454 383.213 226.945 383.213L226.972 450.89C288.47 450.89 344.197 426.372 384.88 386.455L384.58 386.156C425.948 345.274 452.463 288.248 452.463 225.502Z" fill="url(#paint4_linear_4187_17669)"/>
<path opacity="0.5" d="M452.467 225.551L419.121 264.827L384.789 225.578L452.467 225.551Z" fill="url(#paint5_linear_4187_17669)"/>
<path d="M452.467 225.551L418.382 259.661L384.789 225.578L452.467 225.551Z" fill="url(#paint6_linear_4187_17669)"/>
<path d="M386.387 65.929C345.578 25.122 289.231 0.00195312 226.961 0.00195312V67.652C270.553 67.652 309.986 85.22 338.551 113.784C367.115 142.35 384.783 181.989 384.783 225.58L452.462 225.552C452.462 163.282 427.194 106.737 386.387 65.929Z" fill="url(#paint7_linear_4187_17669)"/>
<path d="M226.484 0C163.703 0 107.403 25.673 66.5239 67.072L66.3569 66.905C26.4389 107.587 1.46094 164.004 1.46094 225.501H69.1119C69.1119 182.966 86.3699 143.704 113.732 115.31L113.843 115.422C142.52 85.959 182.15 67.679 226.512 67.679L226.484 0Z" fill="url(#paint8_linear_4187_17669)"/>
<path opacity="0.5" d="M226.484 0L265.497 33.349L226.513 67.679L226.484 0Z" fill="#58595B"/>
<path d="M226.484 0L260.332 34.086L226.513 67.679L226.484 0Z" fill="url(#paint9_linear_4187_17669)"/>
<path opacity="0.5" d="M0 225.186L33.348 186.172L67.679 225.158L0 225.186Z" fill="#58595B"/>
<path d="M0 225.187L34.084 191.34L67.679 225.159L0 225.187Z" fill="url(#paint10_linear_4187_17669)"/>
<defs>
<linearGradient id="paint0_linear_4187_17669" x1="35.1273" y1="189.484" x2="35.1273" y2="221.325" gradientUnits="userSpaceOnUse">
<stop stop-color="#08C054"/>
<stop offset="0.5" stop-color="#00A550"/>
<stop offset="1" stop-color="#00914C"/>
</linearGradient>
<linearGradient id="paint1_linear_4187_17669" x1="233.707" y1="397.665" x2="-1.57594" y2="274.026" gradientUnits="userSpaceOnUse">
<stop offset="0.0056" stop-color="#3B4A56"/>
<stop offset="0.9888" stop-color="#475966"/>
</linearGradient>
<linearGradient id="paint2_linear_4187_17669" x1="187.727" y1="417.05" x2="226.974" y2="417.05" gradientUnits="userSpaceOnUse">
<stop stop-color="#FF545E"/>
<stop offset="1" stop-color="#F92D40"/>
</linearGradient>
<linearGradient id="paint3_linear_4187_17669" x1="193.382" y1="417.05" x2="226.441" y2="417.05" gradientUnits="userSpaceOnUse">
<stop stop-color="#FF545E"/>
<stop offset="1" stop-color="#F92D40"/>
</linearGradient>
<linearGradient id="paint4_linear_4187_17669" x1="395.05" y1="214.602" x2="281.367" y2="450.944" gradientUnits="userSpaceOnUse">
<stop stop-color="#F92D40"/>
<stop offset="1" stop-color="#FF545E"/>
</linearGradient>
<linearGradient id="paint5_linear_4187_17669" x1="418.628" y1="257.979" x2="418.628" y2="227.691" gradientUnits="userSpaceOnUse">
<stop stop-color="#CF0008"/>
<stop offset="0.5" stop-color="#EC0009"/>
<stop offset="1" stop-color="#F33300"/>
</linearGradient>
<linearGradient id="paint6_linear_4187_17669" x1="418.628" y1="257.979" x2="418.628" y2="227.691" gradientUnits="userSpaceOnUse">
<stop offset="0.4788" stop-color="#F3A52D"/>
<stop offset="0.8025" stop-color="#F2A32C"/>
<stop offset="0.919" stop-color="#EE9C28"/>
<stop offset="0.9944" stop-color="#E79223"/>
</linearGradient>
<linearGradient id="paint7_linear_4187_17669" x1="226.961" y1="112.79" x2="452.462" y2="112.79" gradientUnits="userSpaceOnUse">
<stop offset="0.4788" stop-color="#F3A52D"/>
<stop offset="0.8025" stop-color="#F2A32C"/>
<stop offset="0.919" stop-color="#EE9C28"/>
<stop offset="0.9944" stop-color="#E79223"/>
</linearGradient>
<linearGradient id="paint8_linear_4187_17669" x1="1.46124" y1="112.751" x2="226.513" y2="112.751" gradientUnits="userSpaceOnUse">
<stop offset="0.0056" stop-color="#0095BC"/>
<stop offset="0.9888" stop-color="#06DFFF"/>
</linearGradient>
<linearGradient id="paint9_linear_4187_17669" x1="259.849" y1="33.8395" x2="229.532" y2="33.8395" gradientUnits="userSpaceOnUse">
<stop offset="0.0112" stop-color="#06DFFF"/>
<stop offset="0.9944" stop-color="#0095BC"/>
</linearGradient>
<linearGradient id="paint10_linear_4187_17669" x1="33.8396" y1="191.823" x2="33.8396" y2="222.14" gradientUnits="userSpaceOnUse">
<stop offset="0.0056" stop-color="#3B4A56"/>
<stop offset="0.9888" stop-color="#475966"/>
</linearGradient>
</defs>
</svg>
