<svg width="30" height="30" viewBox="0 0 30 30" fill="none" xmlns="http://www.w3.org/2000/svg">
<path d="M7.67496 13.768C7.35897 13.3458 6.87339 13.1599 6.33168 13.1563C6.31168 13.1562 6.29179 13.1564 6.27196 13.157C5.17771 13.1896 4.55617 14.2843 4.86717 15.4152L4.86746 15.4162C4.99398 15.8762 5.28393 16.2648 5.67425 16.4976C5.82082 16.585 5.93609 16.6537 5.93632 16.6538L6.9545 17.1421C7.38378 17.3182 7.72099 17.6872 7.8773 18.1518L7.87759 18.1527C8.11548 18.8597 7.91493 19.6582 7.36244 20.1137C7.06808 20.3564 6.69893 20.4995 6.29829 20.4968C5.71478 20.4928 5.1987 20.1804 4.88347 19.7042" stroke="black" stroke-miterlimit="10" stroke-linecap="round" stroke-linejoin="round"/>
<path d="M17.3838 13.2578V20.5129H19.5694" stroke="black" stroke-miterlimit="10" stroke-linecap="round" stroke-linejoin="round"/>
<path d="M22.9727 13.2578V20.5129H25.1583" stroke="black" stroke-miterlimit="10" stroke-linecap="round" stroke-linejoin="round"/>
<path d="M14.1465 20.5129H11.1895V13.2578H13.9322" stroke="black" stroke-miterlimit="10" stroke-linecap="round" stroke-linejoin="round"/>
<path d="M11.1895 17.043H13.0751" stroke="black" stroke-miterlimit="10" stroke-linecap="round" stroke-linejoin="round"/>
<path d="M19.0843 9.99139V6.6481H21.6424L14.9967 1L8.35352 6.6481H10.8531V9.99139" stroke="black" stroke-miterlimit="10" stroke-linecap="round" stroke-linejoin="round"/>
<path d="M10.7949 23.6797V28.9996H19.1421V23.6797" stroke="black" stroke-miterlimit="10" stroke-linecap="round" stroke-linejoin="round"/>
<path d="M29 9.99219H1V23.6806H29V9.99219Z" stroke="black" stroke-miterlimit="10" stroke-linecap="round" stroke-linejoin="round"/>
</svg>
