<svg width="321" height="195" viewBox="0 0 321 195" fill="none" xmlns="http://www.w3.org/2000/svg">
<path d="M14.519 186.165C14.519 186.165 -26.7887 112.849 30.874 97.995C30.874 97.995 24.7189 29.5461 122.292 23.1886C122.292 23.1886 293.015 -8.37055 317.976 73.9175C317.976 73.9175 357.551 81.0733 363.214 122.929C368.876 164.786 351.613 188.755 351.613 188.755L14.519 186.165Z" fill="#ECF1F5"/>
<path d="M161.363 55.9628L163.498 56.9929C164.253 55.4284 164.635 53.7494 164.635 52.0022V51.9828H162.267C162.264 50.565 161.936 49.2221 161.354 48.0244L163.488 46.9898C162.74 45.4485 161.635 44.0686 160.291 42.9994L158.814 44.8562C157.758 44.0156 156.513 43.4036 155.153 43.0959L155.674 40.7845C154.005 40.4081 152.23 40.4108 150.562 40.7925L151.091 43.1021C149.733 43.414 148.489 44.0302 147.436 44.8742L145.953 43.0218C144.612 44.0953 143.511 45.4788 142.768 47.0228L144.905 48.0504C144.328 49.2468 144.005 50.5874 144.005 52.002C144.005 52.0054 144.005 52.0086 144.005 52.012L141.637 52.0146C141.639 53.7615 142.023 55.4399 142.779 57.0035L144.914 55.9712C145.514 57.2093 146.386 58.292 147.451 59.142L145.972 60.9972C147.318 62.0704 148.913 62.8381 150.586 63.2173L151.11 60.9063C151.762 61.0546 152.44 61.1333 153.136 61.1333C153.836 61.1333 154.517 61.054 155.172 60.9043L155.698 63.2147C157.37 62.8339 158.965 62.0648 160.31 60.9905L158.829 59.1364C159.893 58.2854 160.764 57.2019 161.363 55.9628ZM147.328 52.0022C147.328 48.7997 149.933 46.1941 153.136 46.1941C156.338 46.1941 158.944 48.7997 158.944 52.0022C158.944 55.2048 156.338 57.8103 153.136 57.8103C149.933 57.8103 147.328 55.2048 147.328 52.0022Z" fill="#A4ADBA"/>
<path d="M124.232 56.0739L129.735 56.544C130.08 52.5129 129.52 48.5409 128.07 44.7381L128.054 44.6961L122.899 46.6608C121.716 43.5772 119.888 40.9259 117.628 38.8021L121.414 34.78C118.509 32.0452 114.958 29.9588 111.146 28.7465L109.471 34.0137C106.475 33.06 103.257 32.7611 100.043 33.219L99.2597 27.7552C95.3145 28.3205 91.4534 29.7991 88.1397 32.0136L91.2062 36.6022C88.5086 38.4081 86.3137 40.7804 84.7212 43.4913L79.9561 40.6897C77.9282 44.1389 76.679 48.0639 76.3438 52.0401L81.8471 52.5043C81.5844 55.5869 81.9924 58.7731 83.1661 61.8524C83.1689 61.8596 83.1718 61.8666 83.1744 61.8738L78.0214 63.8441C79.4746 67.6447 81.7035 70.9793 84.646 73.755L88.4362 69.7373C90.7694 71.9344 93.5652 73.5676 96.5889 74.5341L94.9081 79.7997C98.7278 81.0191 102.838 81.3662 106.793 80.8037L106.016 75.3391C107.558 75.1212 109.1 74.7297 110.616 74.1521C112.138 73.5718 113.555 72.8341 114.856 71.9652L117.918 76.5574C121.241 74.3413 124.075 71.3441 126.11 67.8902L121.349 65.0835C122.96 62.3483 123.957 59.2672 124.232 56.0739ZM90.399 59.0958C87.7421 52.125 91.2518 44.2925 98.2225 41.6358C105.193 38.979 113.026 42.4886 115.683 49.4594C118.339 56.4301 114.83 64.2627 107.859 66.9194C100.888 69.5762 93.0556 66.0666 90.399 59.0958Z" fill="#818D9D"/>
<path d="M104.872 156.864L103.091 159.953L99.3435 166.455L61.1037 151.3C54.1438 151.422 35.9521 124.524 37.0516 115.011C38.1294 105.695 49.8343 113.801 50.3148 114.134C43.9842 108.618 41.738 92.3535 43.404 84.8306C43.4338 84.7225 43.4573 84.6208 43.4809 84.5191C47.4501 68.2788 70.4754 108.098 70.4754 108.098C70.7787 106.985 70.873 105.863 71.3706 105C85.1962 81.2584 84.6385 121.775 84.6385 121.775C84.6385 121.775 87.0377 109.125 93.9744 112.751C101.001 116.426 104.872 156.864 104.872 156.864Z" fill="#A23507"/>
<path d="M103.091 159.952L99.3435 166.455L61.1037 151.3C54.1438 151.422 35.9521 124.524 37.0516 115.011C38.1294 105.695 49.8343 113.801 50.3148 114.134C43.9842 108.618 41.738 92.3534 43.404 84.8306C57.9993 99.6958 90.82 139.04 103.091 159.952Z" fill="#ED7A48"/>
<path d="M93.6657 183.019L88.4611 186.44L87.3921 187.14L84.4179 189.1C84.4179 189.1 43.8212 187.596 39.7405 180.802C35.7119 174.089 48.2038 170.952 48.2038 170.952C48.2038 170.952 7.7843 173.878 30.6781 158.689C31.5091 158.138 32.625 157.982 33.7176 157.611C33.7176 157.611 -5.46489 137.924 7.56371 132.418C7.87441 132.282 8.21968 132.159 8.59812 132.044C8.70202 132.014 8.79973 131.984 8.90903 131.946C16.32 129.847 32.6918 131.137 38.5632 137.135C38.2033 136.676 29.4291 125.463 38.6669 123.845C48.0971 122.188 76.0121 138.773 76.3021 145.732L93.6657 183.019Z" fill="#A13507"/>
<path d="M88.4611 186.44L87.3921 187.14L84.4179 189.1C84.4179 189.1 43.8212 187.596 39.7405 180.802C35.7119 174.089 48.2038 170.952 48.2038 170.952C48.2038 170.952 7.7843 173.878 30.6781 158.689C31.5091 158.138 32.625 157.982 33.7176 157.611C33.7176 157.611 -5.46489 137.924 7.56371 132.418C29.9092 133.816 63.4525 143.904 88.4611 186.44Z" fill="#ED7A48"/>
<path d="M321.638 141.988L318.799 143.589L287.357 161.322L283.707 156.61L282.959 155.643L280.869 152.952C280.869 152.952 280.855 152.6 280.833 151.959C280.831 151.889 280.829 151.815 280.827 151.739C280.817 151.425 280.807 151.055 280.795 150.634C280.789 150.428 280.783 150.208 280.777 149.976C280.733 148.112 280.688 145.491 280.688 142.468C280.688 140.755 280.701 138.915 280.739 137.009C280.753 136.295 280.769 135.574 280.789 134.845C280.799 134.499 280.811 134.154 280.823 133.808C280.831 133.536 280.841 133.264 280.851 132.993C280.857 132.831 280.863 132.667 280.869 132.505C280.879 132.257 280.889 132.012 280.899 131.764C280.917 131.356 280.935 130.951 280.955 130.545C280.961 130.427 280.967 130.309 280.973 130.193C281.027 129.136 281.091 128.081 281.165 127.038C281.189 126.697 281.213 126.353 281.241 126.013C281.421 123.729 281.655 121.526 281.954 119.509C281.972 119.38 281.992 119.248 282.014 119.12C282.048 118.892 282.084 118.668 282.122 118.446C282.144 118.315 282.166 118.181 282.188 118.051C282.198 117.999 282.208 117.947 282.216 117.897C282.238 117.771 282.26 117.645 282.284 117.521C282.308 117.393 282.332 117.268 282.356 117.144C282.396 116.936 282.436 116.732 282.48 116.532C282.504 116.412 282.53 116.294 282.554 116.179C282.656 115.711 282.764 115.259 282.877 114.83C283.011 114.314 283.155 113.827 283.307 113.371C283.329 113.305 283.351 113.241 283.373 113.177C283.373 113.177 283.373 113.177 283.373 113.175C283.411 113.066 283.449 112.96 283.489 112.854C284.038 111.361 284.692 110.266 285.467 109.715C291.573 105.373 295.493 117.056 295.493 117.056C295.493 117.056 289.699 78.7143 305.89 99.4266C306.477 100.178 306.709 101.231 307.144 102.246C307.144 102.246 323.015 63.4049 329.235 75.4254C329.389 75.7111 329.531 76.0308 329.669 76.3845C329.705 76.4804 329.741 76.5723 329.785 76.6722C331.853 82.2729 332.236 93.6441 329.497 100.977C328.856 102.699 328.042 104.198 327.037 105.347C327.449 104.971 337.493 95.7681 339.723 104.46C342.005 113.333 328.256 141.195 321.638 141.988Z" fill="#A13507"/>
<path d="M326.604 98.3576C321.996 116.794 310.301 138.054 283.707 156.61L282.959 155.643L280.869 152.952C280.869 152.952 280.688 148.514 280.688 142.468C280.688 130.629 281.377 112.624 285.467 109.715C291.573 105.373 295.493 117.056 295.493 117.056C295.493 117.056 289.699 78.7143 305.89 99.4266C306.477 100.178 306.709 101.231 307.144 102.246C307.144 102.246 323.015 63.4049 329.235 75.4254C329.337 82.133 328.708 89.9516 326.604 98.3576Z" fill="#ED7A48"/>
<path d="M336.331 158.097C337.372 158.463 338.437 158.628 339.228 159.162C360.951 173.966 322.318 170.689 322.318 170.689C322.318 170.689 331.937 173.231 331.034 178.374C330.932 178.953 330.698 179.567 330.299 180.212C326.314 186.668 287.455 187.623 287.455 187.623L284.628 185.715L278.676 181.697L295.732 146.224C296.087 139.575 322.992 124.033 331.997 125.728C340.817 127.386 332.287 138.01 331.937 138.446C332.059 138.324 332.187 138.204 332.319 138.086C332.515 137.91 332.722 137.738 332.94 137.571C333.446 137.181 334.001 136.817 334.603 136.478C334.742 136.398 334.886 136.32 335.032 136.242C335.721 135.88 336.461 135.546 337.242 135.245C337.352 135.201 337.462 135.159 337.574 135.117C337.668 135.083 337.764 135.047 337.859 135.013C338.017 134.957 338.177 134.901 338.337 134.847C339.11 134.585 339.913 134.352 340.741 134.144C340.889 134.104 341.036 134.068 341.186 134.034C342.909 133.62 344.721 133.321 346.535 133.123C348.389 132.919 350.248 132.825 352.024 132.835C352.226 132.835 352.428 132.837 352.627 132.841C352.669 132.841 352.711 132.843 352.753 132.843C352.911 132.847 353.067 132.851 353.223 132.855C353.269 132.855 353.315 132.857 353.359 132.859C353.511 132.863 353.66 132.869 353.81 132.877C354.158 132.893 354.5 132.911 354.835 132.935C355.029 132.947 355.219 132.963 355.407 132.979C355.493 132.985 355.577 132.993 355.66 133.001C355.688 133.003 355.718 133.005 355.746 133.009C355.912 133.025 356.076 133.041 356.24 133.059C356.362 133.071 356.482 133.085 356.604 133.099C356.755 133.119 356.905 133.137 357.053 133.157C357.583 133.227 358.092 133.311 358.576 133.404C358.626 133.412 358.676 133.422 358.724 133.432C359.079 133.504 359.421 133.58 359.747 133.664C359.862 133.694 359.976 133.724 360.088 133.754C360.184 133.78 360.28 133.808 360.374 133.836C360.474 133.872 360.57 133.9 360.666 133.93C375.897 138.819 336.331 158.097 336.331 158.097Z" fill="#A186B9"/>
<path d="M360.374 133.836C348.06 144.322 319.553 165.164 298.129 178.156C295.462 179.774 292.904 181.271 290.501 182.61C288.417 183.771 286.45 184.814 284.628 185.715L278.676 181.697L295.732 146.224C296.087 139.575 322.992 124.033 331.997 125.728C340.817 127.386 332.287 138.01 331.937 138.446C332.059 138.324 332.187 138.204 332.319 138.086C332.515 137.91 332.722 137.738 332.94 137.571C333.446 137.181 334.001 136.817 334.603 136.478C334.742 136.398 334.886 136.32 335.032 136.242C335.721 135.88 336.461 135.546 337.242 135.245C337.352 135.201 337.462 135.159 337.574 135.117C337.668 135.083 337.764 135.047 337.859 135.013C338.017 134.957 338.177 134.901 338.337 134.847C339.11 134.585 339.913 134.352 340.741 134.144C340.889 134.104 341.036 134.068 341.186 134.034C342.909 133.62 344.721 133.321 346.535 133.123C348.389 132.921 350.248 132.827 352.024 132.835C352.226 132.835 352.428 132.837 352.627 132.841C352.669 132.841 352.711 132.843 352.753 132.843C352.911 132.847 353.067 132.851 353.223 132.855C353.269 132.857 353.315 132.857 353.359 132.861C353.511 132.865 353.66 132.871 353.81 132.877C354.158 132.893 354.5 132.911 354.835 132.935C355.029 132.947 355.219 132.963 355.407 132.979C355.493 132.985 355.577 132.993 355.66 133.001C355.688 133.003 355.718 133.005 355.746 133.009C355.912 133.023 356.076 133.041 356.24 133.059C356.362 133.071 356.482 133.085 356.604 133.099C356.755 133.117 356.905 133.137 357.053 133.157C357.583 133.227 358.092 133.311 358.576 133.404C358.626 133.412 358.676 133.422 358.724 133.432C359.079 133.504 359.421 133.58 359.747 133.664C359.862 133.694 359.976 133.724 360.088 133.754C360.184 133.78 360.28 133.808 360.374 133.836Z" fill="#ED7A48"/>
<path opacity="0.15" d="M336.334 158.097C337.375 158.462 338.44 158.628 339.231 159.162C360.954 173.966 322.321 170.689 322.321 170.689C322.321 170.689 331.94 173.23 331.037 178.373C316.125 177.165 304.502 176.909 298.132 178.156C296.548 178.465 295.289 178.869 294.384 179.373C293.91 173.424 293.495 167.865 293.547 167.358C293.66 166.235 292.867 162.195 292.867 162.195C292.867 162.195 334.162 155.353 353.362 132.861C353.364 132.861 353.364 132.861 353.362 132.859C353.513 132.863 353.663 132.869 353.813 132.877C354.161 132.893 354.503 132.911 354.838 132.935C355.032 132.947 355.222 132.963 355.41 132.979C355.496 132.985 355.579 132.993 355.663 133.001C355.691 133.003 355.721 133.005 355.749 133.009C355.915 133.023 356.079 133.041 356.243 133.059C356.365 133.071 356.485 133.085 356.607 133.099C356.758 133.117 356.908 133.137 357.056 133.157C357.586 133.226 358.095 133.31 358.579 133.404C358.629 133.412 358.679 133.422 358.726 133.432C359.082 133.504 359.424 133.58 359.75 133.664C359.865 133.694 359.979 133.724 360.091 133.754C360.187 133.78 360.283 133.808 360.377 133.836C360.477 133.872 360.573 133.9 360.669 133.93C375.9 138.819 336.334 158.097 336.334 158.097Z" fill="black"/>
<path d="M276.09 176.671H99.953C92.1135 176.671 85.6992 170.257 85.6992 162.417V72.0224C85.6992 64.1828 92.1135 57.7685 99.953 57.7685H276.09C283.929 57.7685 290.344 64.1828 290.344 72.0224V162.417C290.344 170.257 283.929 176.671 276.09 176.671Z" fill="#969EA9"/>
<path d="M281.338 169.318H98.6633C97.3446 169.318 96.2656 168.239 96.2656 166.921V70.7808C96.2656 69.4621 97.3446 68.3831 98.6633 68.3831H281.337C282.656 68.3831 283.735 69.4621 283.735 70.7808V166.921C283.735 168.239 282.656 169.318 281.338 169.318Z" fill="white"/>
<path d="M296.619 187.55H82.991C79.6122 187.55 76.8477 184.785 76.8477 181.406C76.8477 178.028 79.6122 175.263 82.991 175.263H296.619C299.998 175.263 302.763 178.027 302.763 181.406C302.762 184.785 299.998 187.55 296.619 187.55Z" fill="#7D8588"/>
<path d="M157.964 77.1027H109.875V163.637H157.964V77.1027Z" fill="#CBD5DE"/>
<path d="M274.487 103.261H255.859V163.373H274.487V103.261Z" fill="#F4A3C3"/>
<path d="M250.444 110.924H231.816V163.373H250.444V110.924Z" fill="#792B67"/>
<path d="M225.605 120.172H206.977V163.373H225.605V120.172Z" fill="#F4A3C3"/>
<path d="M197.335 137.346H178.707V163.373H197.335V137.346Z" fill="#792B67"/>
<path d="M174.409 123.541C173.759 123.541 173.179 123.084 173.052 122.427C172.908 121.684 173.4 120.965 174.15 120.823C174.777 120.703 236.128 107.715 251.39 96.0311C265.243 85.4256 265.707 80.6479 265.786 80.3221C265.854 79.6273 266.444 79.0842 267.163 79.0842C267.927 79.0842 268.546 79.6983 268.546 80.4555C268.546 81.4122 268.546 86.879 253.232 98.0778C246.418 103.06 231.74 109.654 208.146 115.863C190.683 120.459 174.829 123.486 174.671 123.516C174.583 123.533 174.496 123.541 174.409 123.541ZM265.779 80.4509C265.779 80.4523 265.779 80.4537 265.779 80.4553C265.779 80.4539 265.779 80.4525 265.779 80.4509Z" fill="#C8D5DD"/>
<path d="M262.863 77.8954L271.583 81.8587L273.3 70.2327L262.863 77.8954Z" fill="#C8D5DD"/>
<path d="M223.954 80.4053H173.354C172.373 80.4053 171.57 79.6026 171.57 78.6218C171.57 77.6409 172.373 76.8383 173.354 76.8383H223.953C224.934 76.8383 225.737 77.6409 225.737 78.6218C225.737 79.6028 224.935 80.4053 223.954 80.4053Z" fill="#969EA9"/>
<path d="M225.605 83.3121H171.57V89.2572H225.605V83.3121Z" fill="#CBD5DE"/>
<path d="M225.605 93.0883H171.57V98.5049H225.605V93.0883Z" fill="#CBD5DE"/>
<path d="M176.841 78.8774C176.976 78.0492 176.413 77.2685 175.585 77.1337C174.757 76.999 173.976 77.5611 173.842 78.3893C173.707 79.2176 174.269 79.9982 175.097 80.133C175.925 80.2677 176.706 79.7056 176.841 78.8774Z" fill="#110301"/>
<path d="M181.825 79.6963C182.418 79.1029 182.418 78.1409 181.825 77.5476C181.231 76.9543 180.269 76.9543 179.676 77.5476C179.083 78.1409 179.083 79.1029 179.676 79.6963C180.269 80.2896 181.231 80.2896 181.825 79.6963Z" fill="#110301"/>
<path d="M187.411 78.866C187.545 78.0377 186.983 77.2573 186.155 77.1228C185.326 76.9884 184.546 77.5509 184.411 78.3792C184.277 79.2075 184.839 79.9879 185.668 80.1223C186.496 80.2568 187.276 79.6943 187.411 78.866Z" fill="#110301"/>
<path d="M137.883 101.28H109.875V115.019H137.883V101.28Z" stroke="#110301" stroke-width="0.132114" stroke-miterlimit="10"/>
<path d="M157.965 101.28H129.957V115.019H157.965V101.28Z" stroke="#110301" stroke-width="0.132114" stroke-miterlimit="10"/>
<path d="M142.111 115.416H109.875V129.156H142.111V115.416Z" stroke="#110301" stroke-width="0.132114" stroke-miterlimit="10"/>
<path d="M158.228 115.416H125.992V129.156H158.228V115.416Z" stroke="#110301" stroke-width="0.132114" stroke-miterlimit="10"/>
<path d="M142.111 149.237H109.875V162.977H142.111V149.237Z" stroke="#110301" stroke-width="0.132114" stroke-miterlimit="10"/>
<path d="M158.228 149.237H125.992V162.977H158.228V149.237Z" stroke="#110301" stroke-width="0.132114" stroke-miterlimit="10"/>
<path d="M115.191 87.1194C114.651 87.1194 114.191 86.9723 113.811 86.6782C113.43 86.3817 113.14 85.9525 112.939 85.3906C112.738 84.8263 112.638 84.1449 112.638 83.3463C112.638 82.5524 112.738 81.8746 112.939 81.3127C113.142 80.7484 113.434 80.318 113.814 80.0215C114.197 79.7226 114.656 79.5731 115.191 79.5731C115.727 79.5731 116.185 79.7226 116.565 80.0215C116.948 80.318 117.239 80.7484 117.44 81.3127C117.643 81.8746 117.745 82.5524 117.745 83.3463C117.745 84.1449 117.645 84.8263 117.444 85.3906C117.243 85.9525 116.952 86.3817 116.572 86.6782C116.192 86.9723 115.732 87.1194 115.191 87.1194ZM115.191 86.3303C115.727 86.3303 116.143 86.0721 116.44 85.5556C116.736 85.0391 116.884 84.3027 116.884 83.3463C116.884 82.7102 116.816 82.1687 116.68 81.7215C116.546 81.2744 116.352 80.9337 116.099 80.6993C115.848 80.465 115.545 80.3479 115.191 80.3479C114.661 80.3479 114.246 80.6097 113.947 81.1333C113.648 81.6546 113.498 82.3922 113.498 83.3463C113.498 83.9823 113.565 84.5227 113.699 84.9674C113.833 85.4122 114.026 85.7505 114.277 85.9824C114.53 86.2144 114.835 86.3303 115.191 86.3303ZM121.504 87.1194C120.963 87.1194 120.503 86.9723 120.123 86.6782C119.743 86.3817 119.452 85.9525 119.251 85.3906C119.051 84.8263 118.95 84.1449 118.95 83.3463C118.95 82.5524 119.051 81.8746 119.251 81.3127C119.455 80.7484 119.746 80.318 120.127 80.0215C120.509 79.7226 120.968 79.5731 121.504 79.5731C122.039 79.5731 122.497 79.7226 122.877 80.0215C123.26 80.318 123.552 80.7484 123.753 81.3127C123.956 81.8746 124.057 82.5524 124.057 83.3463C124.057 84.1449 123.957 84.8263 123.756 85.3906C123.555 85.9525 123.265 86.3817 122.885 86.6782C122.504 86.9723 122.044 87.1194 121.504 87.1194ZM121.504 86.3303C122.039 86.3303 122.455 86.0721 122.752 85.5556C123.048 85.0391 123.197 84.3027 123.197 83.3463C123.197 82.7102 123.129 82.1687 122.992 81.7215C122.858 81.2744 122.665 80.9337 122.411 80.6993C122.16 80.465 121.858 80.3479 121.504 80.3479C120.973 80.3479 120.558 80.6097 120.259 81.1333C119.96 81.6546 119.811 82.3922 119.811 83.3463C119.811 83.9823 119.878 84.5227 120.012 84.9674C120.146 85.4122 120.338 85.7505 120.589 85.9824C120.843 86.2144 121.148 86.3303 121.504 86.3303ZM125.42 87.019V86.3734L127.845 83.7193C128.129 83.4084 128.364 83.1382 128.548 82.9087C128.732 82.6768 128.868 82.4592 128.957 82.2559C129.048 82.0503 129.093 81.8351 129.093 81.6103C129.093 81.3521 129.031 81.1285 128.907 80.9396C128.785 80.7508 128.617 80.6049 128.404 80.5021C128.192 80.3993 127.953 80.3479 127.687 80.3479C127.405 80.3479 127.159 80.4064 126.948 80.5236C126.74 80.6384 126.579 80.7998 126.464 81.0078C126.352 81.2158 126.296 81.4597 126.296 81.7395H125.449C125.449 81.3091 125.548 80.9313 125.747 80.6061C125.945 80.2809 126.215 80.0275 126.557 79.8457C126.902 79.664 127.288 79.5731 127.716 79.5731C128.146 79.5731 128.528 79.664 128.86 79.8457C129.192 80.0275 129.453 80.2725 129.642 80.581C129.831 80.8894 129.925 81.2326 129.925 81.6103C129.925 81.8805 129.876 82.1447 129.778 82.403C129.682 82.6588 129.515 82.9446 129.276 83.2602C129.039 83.5734 128.71 83.956 128.29 84.4079L126.64 86.1725V86.2299H130.054V87.019H125.42Z" fill="black"/>
<path d="M157.964 91.2389H109.875V101.28H157.964V91.2389Z" stroke="black" stroke-width="0.132114" stroke-miterlimit="10"/>
<path d="M155.849 82.6513H133.918V84.1045H155.849V82.6513Z" fill="white"/>
<path d="M150.961 87.0108H133.918V88.5961H150.961V87.0108Z" fill="white"/>
<path d="M155.851 106.564H138.809V108.15H155.851V106.564Z" fill="white"/>
<path d="M122.162 132.987H112.914V143.556H122.162V132.987Z" fill="white"/>
<path d="M154.594 146.462H129.36C128.67 146.462 128.105 145.897 128.105 145.207C128.105 144.517 128.67 143.952 129.36 143.952H154.594C155.285 143.952 155.849 144.517 155.849 145.207C155.849 145.897 155.285 146.462 154.594 146.462Z" fill="white"/>
<path d="M154.594 141.971H129.36C128.67 141.971 128.105 141.406 128.105 140.716C128.105 140.025 128.67 139.461 129.36 139.461H154.594C155.285 139.461 155.849 140.026 155.849 140.716C155.849 141.406 155.285 141.971 154.594 141.971Z" fill="white"/>
<path d="M154.594 137.743H129.36C128.67 137.743 128.105 137.178 128.105 136.488C128.105 135.797 128.67 135.233 129.36 135.233H154.594C155.285 135.233 155.849 135.797 155.849 136.488C155.849 137.178 155.285 137.743 154.594 137.743Z" fill="white"/>
<path d="M149.774 109.735H138.809V111.716H149.774V109.735Z" fill="white"/>
<path d="M127.579 103.922H112.914V104.979H127.579V103.922Z" fill="white"/>
<path d="M125.993 106.3H112.914V107.357H125.993V106.3Z" fill="white"/>
<path d="M123.483 108.942H112.914V110.66H123.483V108.942Z" fill="white"/>
<path d="M97.4085 144.574C105.925 136.058 105.925 122.251 97.4085 113.734C88.8923 105.218 75.0847 105.218 66.5685 113.734C58.0522 122.251 58.0522 136.058 66.5685 144.574C75.0847 153.091 88.8923 153.091 97.4085 144.574Z" fill="#E8B915"/>
<path d="M94.7039 141.871C101.727 134.848 101.727 123.461 94.7039 116.438C87.6808 109.415 76.2942 109.415 69.2711 116.438C62.248 123.461 62.248 134.848 69.2711 141.871C76.2942 148.894 87.6808 148.894 94.7039 141.871Z" fill="#F7D724"/>
<path d="M88.4599 122.489H84.22C84.5896 123.057 84.8916 123.74 85.0531 124.552H88.4602V126.991H85.0814C84.6706 129.353 82.9952 130.627 81.7196 131.143C81.367 131.287 80.9861 131.353 80.6052 131.353H78.8848L85.6858 138.154H82.504L75.7031 131.353V128.914H79.6749C80.9619 128.914 82.0782 128.121 82.5267 126.991H76.0787V124.552H82.5229C82.1121 123.386 81.2114 122.759 80.7124 122.489H76.0784V120.05H88.4605V122.489H88.4599Z" fill="#FFF1CB"/>
<path d="M329.408 171.118C329.683 161.185 321.318 152.895 310.724 152.603C300.131 152.31 291.322 160.126 291.047 170.059C290.773 179.992 299.138 188.281 309.731 188.574C320.324 188.866 329.134 181.051 329.408 171.118Z" fill="#E8B915"/>
<path d="M326.077 171.052C326.304 162.861 319.406 156.024 310.671 155.782C301.935 155.54 294.669 161.984 294.442 170.175C294.215 178.367 301.113 185.204 309.849 185.446C318.584 185.688 325.85 179.243 326.077 171.052Z" fill="#F7D724"/>
<path d="M316.604 164.859H312.365C312.734 165.427 313.036 166.11 313.198 166.922H316.605V169.361H313.226C312.815 171.723 311.14 172.997 309.864 173.513C309.512 173.657 309.131 173.723 308.75 173.723H307.029L313.83 180.524H310.649L303.848 173.723V171.284H307.819C309.106 171.284 310.223 170.491 310.671 169.361H304.223V166.922H310.667C310.257 165.755 309.356 165.129 308.857 164.859H304.223V162.42H316.605V164.859H316.604Z" fill="#FFF1CB"/>
<path d="M302.245 58.9527C304.866 49.3674 298.704 39.3307 288.482 36.5351C278.26 33.7396 267.848 39.2437 265.227 48.829C262.606 58.4143 268.767 68.451 278.989 71.2466C289.212 74.0422 299.623 68.538 302.245 58.9527Z" fill="#E8B915"/>
<path d="M299 58.0663C301.162 50.1617 296.08 41.8848 287.651 39.5794C279.221 37.274 270.635 41.8131 268.473 49.7177C266.311 57.6224 271.392 65.8992 279.822 68.2046C288.252 70.51 296.838 65.971 299 58.0663Z" fill="#F7D724"/>
<path d="M290.343 46.3701H286.103C286.472 46.9386 286.774 47.6216 286.936 48.4337H290.343V50.8724H286.964C286.553 53.2345 284.878 54.5083 283.602 55.0243C283.25 55.1689 282.869 55.2346 282.488 55.2346H280.768L287.569 62.0355H284.387L277.586 55.2346V52.7958H281.558C282.845 52.7958 283.961 52.0023 284.409 50.8727H277.961V48.434H284.406C283.995 47.2671 283.094 46.6404 282.595 46.3704H277.961V43.9317H290.343V46.3701H290.343Z" fill="#FFF1CB"/>
<path d="M295.342 178.531V183.261C293.305 184.269 287.956 184.978 282.041 185.263C273.142 185.691 262.964 185.163 260.844 183.261V178.531C260.872 178.538 260.902 178.543 260.931 178.549C261.694 178.719 262.457 178.877 263.222 179.023C263.761 179.128 264.3 179.227 264.839 179.318C269.845 180.177 274.851 180.548 279.857 180.434C284.226 180.334 288.595 179.864 292.964 179.024C293.727 178.877 294.492 178.719 295.255 178.549C295.284 178.544 295.314 178.538 295.342 178.531Z" fill="#E8B915"/>
<path d="M295.342 178.777C295.342 179.935 288.658 180.89 280.056 181.017C279.413 181.027 278.757 181.031 278.094 181.031C269.069 181.031 261.664 180.127 260.908 178.972C260.865 178.908 260.844 178.843 260.844 178.777C260.844 178.7 260.874 178.623 260.931 178.549C261.81 177.412 269.158 176.525 278.094 176.525C278.336 176.525 278.577 176.525 278.817 176.528C282.986 176.549 286.773 176.766 289.666 177.107C292.746 177.47 294.814 177.978 295.255 178.549C295.312 178.623 295.342 178.7 295.342 178.777Z" fill="#E8B915"/>
<path d="M278.096 180.523C286.392 180.523 293.117 179.742 293.117 178.778C293.117 177.814 286.392 177.032 278.096 177.032C269.8 177.032 263.074 177.814 263.074 178.778C263.074 179.742 269.8 180.523 278.096 180.523Z" fill="#F7D724"/>
<path d="M289.664 172.599V177.33C289.487 177.417 289.286 177.503 289.062 177.586C287.159 178.287 283.594 178.822 279.459 179.14C274.789 179.498 269.391 179.581 264.837 179.317C264.414 179.293 263.999 179.266 263.593 179.234C262.646 179.163 261.744 179.076 260.905 178.972C260.884 178.969 260.863 178.966 260.841 178.963C258.08 178.614 255.998 178.079 255.164 177.33V172.599C255.194 172.606 255.223 172.611 255.253 172.619C256.016 172.788 256.778 172.945 257.541 173.092C264.49 174.43 271.441 174.829 278.392 174.292C280.663 174.116 282.932 173.841 285.203 173.464C285.898 173.35 286.593 173.226 287.287 173.092C288.051 172.945 288.812 172.788 289.576 172.619C289.605 172.612 289.634 172.606 289.664 172.599Z" fill="#E8B915"/>
<path d="M272.414 175.101C281.94 175.101 289.663 174.092 289.663 172.848C289.663 171.604 281.94 170.595 272.414 170.595C262.887 170.595 255.164 171.604 255.164 172.848C255.164 174.092 262.887 175.101 272.414 175.101Z" fill="#E8B915"/>
<path d="M272.416 174.594C280.712 174.594 287.438 173.812 287.438 172.848C287.438 171.884 280.712 171.102 272.416 171.102C264.12 171.102 257.395 171.884 257.395 172.848C257.395 173.812 264.12 174.594 272.416 174.594Z" fill="#F7D724"/>
<path d="M295.342 166.929V171.661C294.255 172.2 292.223 172.652 289.666 173.002C289.652 173.003 289.637 173.005 289.623 173.007C288.763 173.123 287.843 173.229 286.88 173.32C286.335 173.372 285.776 173.421 285.206 173.465C283.016 173.635 280.664 173.743 278.312 173.783C270.59 173.917 262.875 173.317 260.918 171.723C260.892 171.703 260.868 171.682 260.844 171.661V166.929C260.874 166.936 260.902 166.942 260.932 166.949C261.695 167.117 262.457 167.276 263.22 167.423C265.117 167.788 267.016 168.083 268.915 168.308C271.847 168.657 274.781 168.838 277.716 168.852C282.799 168.878 287.882 168.401 292.966 167.423C293.729 167.276 294.491 167.117 295.254 166.949C295.283 166.942 295.312 166.937 295.342 166.929Z" fill="#E8B915"/>
<path d="M295.342 167.178C295.342 168.422 287.619 169.43 278.094 169.43C277.985 169.43 277.877 169.43 277.77 169.429C269.482 169.41 262.622 168.627 261.14 167.594C260.945 167.46 260.844 167.32 260.844 167.178C260.844 167.101 260.874 167.024 260.932 166.95C261.788 165.84 268.806 164.968 277.446 164.927C277.662 164.926 277.877 164.926 278.094 164.926C283.644 164.926 288.582 165.268 291.736 165.8C293.66 166.124 294.921 166.519 295.254 166.95C295.312 167.024 295.342 167.101 295.342 167.178Z" fill="#E8B915"/>
<path d="M278.092 168.923C286.388 168.923 293.113 168.142 293.113 167.177C293.113 166.213 286.388 165.432 278.092 165.432C269.796 165.432 263.07 166.213 263.07 167.177C263.07 168.142 269.796 168.923 278.092 168.923Z" fill="#F7D724"/>
<path d="M291.734 161.499V166.23C291.637 166.279 291.531 166.326 291.42 166.373C289.083 167.349 283.596 168.019 277.664 168.267C274.747 168.388 271.722 168.407 268.912 168.308C267.697 168.266 266.522 168.202 265.413 168.114C263.827 167.989 262.376 167.818 261.138 167.594C261.037 167.577 260.939 167.558 260.842 167.54C259.12 167.21 257.845 166.776 257.234 166.23V161.499C257.264 161.506 257.293 161.511 257.323 161.518C258.086 161.688 258.848 161.845 259.611 161.992C261.711 162.397 263.81 162.715 265.91 162.948C269.731 163.371 273.551 163.511 277.372 163.369C281.367 163.22 285.362 162.761 289.358 161.992C290.121 161.845 290.883 161.688 291.646 161.518C291.675 161.512 291.704 161.506 291.734 161.499Z" fill="#E8B915"/>
<path d="M274.484 163.999C284.011 163.999 291.734 162.991 291.734 161.747C291.734 160.502 284.011 159.494 274.484 159.494C264.957 159.494 257.234 160.502 257.234 161.747C257.234 162.991 264.957 163.999 274.484 163.999Z" fill="#E8B915"/>
<path d="M274.486 163.492C282.782 163.492 289.508 162.711 289.508 161.747C289.508 160.783 282.782 160.001 274.486 160.001C266.19 160.001 259.465 160.783 259.465 161.747C259.465 162.711 266.19 163.492 274.486 163.492Z" fill="#F7D724"/>
<path d="M297.543 157.06V161.791C296.437 162.339 294.355 162.798 291.737 163.149C288.049 163.643 283.294 163.922 278.702 163.931C278.266 163.934 277.831 163.932 277.399 163.928C273.9 163.895 270.566 163.701 267.956 163.319C267.956 163.319 267.954 163.319 267.953 163.319C267.21 163.211 266.525 163.087 265.913 162.948C264.564 162.64 263.562 162.257 263.043 161.791V157.06C263.073 157.067 263.102 157.073 263.132 157.08C263.895 157.25 264.656 157.407 265.42 157.553C269.361 158.312 273.303 158.769 277.246 158.924C283.22 159.16 289.194 158.703 295.166 157.553C295.929 157.407 296.691 157.25 297.454 157.08C297.484 157.073 297.513 157.067 297.543 157.06Z" fill="#E8B915"/>
<path d="M297.543 157.308C297.543 158.552 289.818 159.56 280.293 159.56C279.465 159.56 278.651 159.553 277.855 159.538C277.655 159.535 277.457 159.53 277.259 159.525C277.147 159.523 277.036 159.521 276.925 159.518C269.01 159.314 263.043 158.401 263.043 157.308C263.043 157.231 263.073 157.154 263.131 157.08C263.251 156.924 263.492 156.773 263.842 156.629C265.755 155.839 270.914 155.237 277.277 155.09C278.257 155.067 279.265 155.056 280.293 155.056C287.74 155.056 294.088 155.672 296.502 156.536C296.984 156.708 297.309 156.89 297.454 157.08C297.513 157.154 297.543 157.231 297.543 157.308Z" fill="#E8B915"/>
<path d="M280.295 159.054C288.591 159.054 295.316 158.272 295.316 157.308C295.316 156.344 288.591 155.562 280.295 155.562C271.999 155.562 265.273 156.344 265.273 157.308C265.273 158.272 271.999 159.054 280.295 159.054Z" fill="#F7D724"/>
<path d="M297.539 151.399V156.131C297.253 156.272 296.904 156.407 296.498 156.536C296.054 156.677 295.541 156.81 294.968 156.936C290.866 157.838 283.745 158.336 277.229 158.267C272.471 158.216 268.036 157.864 265.333 157.145C264.748 156.991 264.246 156.818 263.838 156.628C263.506 156.474 263.237 156.309 263.039 156.131V151.399C263.069 151.406 263.098 151.412 263.128 151.419C263.891 151.589 264.653 151.746 265.416 151.893C269.508 152.68 273.599 153.142 277.691 153.279C283.516 153.476 289.34 153.014 295.162 151.893C295.926 151.746 296.687 151.589 297.45 151.419C297.48 151.412 297.509 151.406 297.539 151.399Z" fill="#E8B915"/>
<path d="M297.539 151.647C297.539 152.891 289.815 153.901 280.289 153.901C279.345 153.901 278.419 153.891 277.516 153.873C269.307 153.698 263.039 152.768 263.039 151.647C263.039 151.57 263.069 151.493 263.128 151.419C263.988 150.303 271.07 149.429 279.77 149.396C279.942 149.395 280.115 149.395 280.289 149.395C289.223 149.395 296.572 150.282 297.45 151.419C297.509 151.493 297.539 151.57 297.539 151.647Z" fill="#E8B915"/>
<path d="M280.291 153.394C288.587 153.394 295.313 152.612 295.313 151.648C295.313 150.684 288.587 149.902 280.291 149.902C271.995 149.902 265.27 150.684 265.27 151.648C265.27 152.612 271.995 153.394 280.291 153.394Z" fill="#F7D724"/>
<path opacity="0.37" d="M297.539 151.4V156.132C297.254 156.273 296.904 156.408 296.498 156.537C296.98 156.708 297.305 156.89 297.451 157.08C297.481 157.073 297.509 157.067 297.539 157.06V161.792C296.434 162.339 294.351 162.799 291.733 163.149V165.8C293.658 166.124 294.919 166.519 295.251 166.949C295.281 166.942 295.31 166.937 295.34 166.929V171.661C294.253 172.2 292.221 172.652 289.664 173.002V177.107C292.743 177.471 294.812 177.979 295.252 178.549C295.281 178.543 295.311 178.538 295.34 178.531V183.261C293.303 184.269 287.953 184.978 282.038 185.263C281.252 183.997 280.599 182.565 280.054 181.017C279.994 180.85 279.937 180.68 279.88 180.511L279.854 180.434C279.716 180.011 279.583 179.579 279.459 179.141C279.264 178.455 279.087 177.752 278.925 177.036C278.887 176.868 278.85 176.698 278.814 176.528C278.703 176.01 278.6 175.485 278.506 174.956C278.476 174.788 278.446 174.618 278.418 174.448C278.408 174.397 278.399 174.346 278.392 174.293C278.362 174.124 278.335 173.953 278.309 173.784C278.175 172.938 278.058 172.083 277.958 171.225C277.937 171.055 277.917 170.884 277.9 170.712C277.851 170.284 277.807 169.857 277.767 169.429C277.75 169.26 277.734 169.091 277.72 168.922C277.717 168.9 277.716 168.875 277.713 168.852C277.695 168.657 277.68 168.462 277.663 168.268C277.586 167.317 277.521 166.37 277.47 165.435C277.46 165.265 277.451 165.095 277.443 164.927C277.426 164.604 277.41 164.285 277.396 163.967C277.396 163.954 277.394 163.941 277.394 163.928C277.387 163.771 277.38 163.616 277.375 163.46C277.373 163.43 277.372 163.399 277.37 163.369C277.325 162.225 277.292 161.108 277.266 160.031C277.262 159.862 277.259 159.692 277.255 159.525C277.255 159.523 277.255 159.523 277.255 159.523C277.251 159.354 277.248 159.185 277.243 159.019C277.243 158.987 277.243 158.956 277.242 158.924C277.238 158.703 277.233 158.485 277.229 158.268C277.218 157.631 277.208 157.012 277.196 156.415C277.192 156.141 277.199 155.869 277.221 155.599C277.232 155.428 277.251 155.26 277.273 155.09C277.326 154.681 277.407 154.276 277.516 153.873C277.559 153.704 277.609 153.535 277.663 153.367C277.671 153.337 277.681 153.309 277.691 153.28C278.075 152.116 278.666 150.989 279.407 149.907C279.524 149.735 279.646 149.566 279.77 149.397C279.942 149.396 280.115 149.396 280.289 149.396C289.223 149.396 296.572 150.283 297.45 151.42C297.48 151.413 297.509 151.407 297.539 151.4Z" fill="#E8B915"/>
<path d="M110.736 168.658H52.3906V190.591H110.736V168.658Z" fill="#56BDAA"/>
<path d="M110.737 170.529H61.4922V172.268H110.737V170.529Z" fill="#94D6C8"/>
<path d="M110.735 173.281H60.9609V175.02H110.735V173.281Z" fill="#94D6C8"/>
<path d="M110.735 184.229H62.8789V185.968H110.735V184.229Z" fill="#94D6C8"/>
<path d="M110.735 187.488H62.8789V189.226H110.735V187.488Z" fill="#94D6C8"/>
<path d="M110.735 181.477H62.8789V183.215H110.735V181.477Z" fill="#94D6C8"/>
<path d="M110.734 178.725H62.6992V180.463H110.734V178.725Z" fill="#94D6C8"/>
<path d="M110.737 176.034H61.8672V177.772H110.737V176.034Z" fill="#94D6C8"/>
<path d="M62.8792 168.658H52.3906V190.591H62.8792V168.658Z" fill="#3D8E7B"/>
<path d="M87.8068 190.591H83.0657C81.7469 190.591 80.668 189.512 80.668 188.193V171.056C80.668 169.737 81.7469 168.658 83.0657 168.658H87.8068C89.1255 168.658 90.2045 169.737 90.2045 171.056V188.193C90.2045 189.512 89.1255 190.591 87.8068 190.591Z" fill="#F7CC7E"/>
<path d="M98.7474 150.943H40.4023V172.877H98.7474V150.943Z" fill="#56BDAA"/>
<path d="M98.7484 152.815H49.5039V154.553H98.7484V152.815Z" fill="#94D6C8"/>
<path d="M98.7471 155.567H48.9727V157.306H98.7471V155.567Z" fill="#94D6C8"/>
<path d="M98.7471 166.515H50.8906V168.253H98.7471V166.515Z" fill="#94D6C8"/>
<path d="M98.7471 169.774H50.8906V171.512H98.7471V169.774Z" fill="#94D6C8"/>
<path d="M98.7471 163.763H50.8906V165.501H98.7471V163.763Z" fill="#94D6C8"/>
<path d="M98.7456 161.011H50.7109V162.749H98.7456V161.011Z" fill="#94D6C8"/>
<path d="M98.7492 158.319H49.8789V160.057H98.7492V158.319Z" fill="#94D6C8"/>
<path d="M50.891 150.943H40.4023V172.877H50.891V150.943Z" fill="#3D8E7B"/>
<path d="M75.8185 172.877H71.0774C69.7587 172.877 68.6797 171.798 68.6797 170.479V153.341C68.6797 152.022 69.7587 150.943 71.0774 150.943H75.8185C77.1372 150.943 78.2162 152.022 78.2162 153.341V170.479C78.2162 171.798 77.1372 172.877 75.8185 172.877Z" fill="#F7CC7E"/>
<path d="M140.235 29.793L141.969 30.6292C142.581 29.359 142.892 27.9957 142.892 26.5773V26.5615H140.969C140.967 25.4104 140.7 24.32 140.228 23.3476L141.96 22.5076C141.353 21.2562 140.456 20.1358 139.365 19.2678L138.165 20.7754C137.308 20.0931 136.297 19.5961 135.193 19.3464L135.616 17.4696C134.261 17.1638 132.82 17.1663 131.466 17.4762L131.895 19.3514C130.792 19.6047 129.783 20.1049 128.928 20.7902L127.723 19.2862C126.635 20.1578 125.741 21.2811 125.138 22.5347L126.873 23.3691C126.404 24.3406 126.142 25.429 126.142 26.5775C126.142 26.5801 126.142 26.5829 126.142 26.5855L124.219 26.5875C124.22 28.0057 124.532 29.3684 125.146 30.6378L126.879 29.7996C127.366 30.8049 128.074 31.6838 128.939 32.374L127.738 33.8803C128.831 34.7517 130.126 35.3749 131.484 35.6828L131.91 33.8066C132.439 33.9271 132.99 33.9908 133.555 33.9908C134.123 33.9908 134.676 33.9265 135.208 33.805L135.635 35.6808C136.993 35.3717 138.287 34.7471 139.379 33.8749L138.177 32.3698C139.041 31.6786 139.748 30.7989 140.235 29.793ZM128.84 26.5775C128.84 23.9774 130.955 21.862 133.555 21.862C136.156 21.862 138.271 23.9774 138.271 26.5775C138.271 29.1776 136.156 31.293 133.555 31.293C130.955 31.293 128.84 29.1776 128.84 26.5775Z" fill="#B2BAC7"/>
<path d="M228.487 32.38L227.446 31.8948L226.457 32.4765L226.597 31.3374L225.738 30.5761L226.865 30.3573L227.324 29.3051L227.88 30.3091L229.022 30.42L228.239 31.2592L228.487 32.38Z" fill="#F7D724"/>
<path d="M185.567 30.5842L182.471 29.1398L179.526 30.8711L179.943 27.4805L177.387 25.2147L180.741 24.5635L182.105 21.4317L183.761 24.4201L187.161 24.7503L184.831 27.2484L185.567 30.5842Z" fill="#F7D724"/>
<path d="M86.4892 23.3341L83.3934 21.8897L80.4484 23.6212L80.8654 20.2305L78.3086 17.9648L81.6622 17.3136L83.0271 14.1818L84.6827 17.17L88.0829 17.5003L85.7525 19.9983L86.4892 23.3341Z" fill="#F7D724"/>
<path d="M54.5383 62.0935L53.1444 61.5386L51.8093 62.2232L52.0075 60.8981L50.8594 60.0209L52.3759 59.7569L53.0013 58.5301L53.7404 59.692L55.275 59.8111L54.2154 60.7931L54.5383 62.0935Z" fill="#F7D724"/>
<path d="M276.829 18.2232L273.733 16.7788L270.788 18.5102L271.205 15.1196L268.648 12.8538L272.002 12.2026L273.367 9.07077L275.023 12.0591L278.423 12.3892L276.092 14.8872L276.829 18.2232Z" fill="#F7D724"/>
<path d="M314.34 26.55L312.792 25.8279L311.32 26.6936L311.528 24.9983L310.25 23.8653L311.927 23.5398L312.609 21.9739L313.437 23.4679L315.137 23.6331L313.972 24.8822L314.34 26.55Z" fill="#F7D724"/>
<path d="M139.528 5.19856L137.98 4.47624L136.507 5.34201L136.716 3.64663L135.438 2.51371L137.114 2.18822L137.797 0.622314L138.625 2.11648L140.325 2.28154L139.16 3.53054L139.528 5.19856Z" fill="#F7D724"/>
<path d="M233.899 8.14657L231.94 7.23265L230.076 8.3282L230.34 6.18284L228.723 4.7494L230.844 4.3374L231.708 2.35588L232.755 4.24649L234.907 4.45549L233.432 6.03598L233.899 8.14657Z" fill="#F7D724"/>
<path d="M362.557 195.238H9.25709C7.93835 195.238 6.85938 194.159 6.85938 192.84V187.962C6.85938 186.643 7.93835 185.564 9.25709 185.564H362.557C363.875 185.564 364.954 186.643 364.954 187.962V192.84C364.955 194.159 363.876 195.238 362.557 195.238Z" fill="#4C5460"/>
<path d="M215.611 179.374C215.611 179.374 214.922 179.626 214.922 180.14C214.922 180.654 215.243 180.718 215.243 180.718C215.243 180.718 216.271 183.93 216.656 184.957C216.999 185.872 220.567 187.249 220.93 184.423C220.968 184.129 220.899 183.831 220.742 183.579C220.326 182.907 219.709 181.427 219.611 181.232C219.483 180.975 219.023 180.244 219.162 180.204C219.611 180.076 219.143 179.315 218.478 179.374C217.813 179.433 215.611 179.374 215.611 179.374Z" fill="#0A131A"/>
<path d="M212.142 182.98C212.135 183.05 212.124 183.121 212.108 183.189C212.086 183.287 212.054 183.38 212.008 183.46C211.929 183.595 211.81 183.692 211.63 183.709C211.416 183.729 210.539 183.806 209.366 183.9C206.323 184.144 201.29 184.508 200.715 184.315C200.416 184.214 200.302 184.037 200.294 183.83C200.289 183.714 200.31 183.585 200.349 183.454C200.35 183.453 200.35 183.452 200.35 183.451C200.429 183.193 200.58 182.931 200.74 182.77C200.966 182.543 201.574 182.266 202.176 182.024C202.829 181.763 203.474 181.542 203.617 181.468C204.026 181.258 207.275 180.265 207.275 180.265L209.832 178.308C209.832 178.308 211.214 180.161 211.308 180.311C211.517 180.646 212.231 182.083 212.142 182.98Z" fill="#0A131A"/>
<path d="M212.026 184.272C211.985 184.276 211.775 184.296 211.516 184.32C211.013 184.368 210.327 184.433 210.327 184.433L210.084 184.146C209.977 184.021 209.777 184.047 209.707 184.197L209.563 184.506L208.713 184.586C208.713 184.586 200.829 184.852 200.399 184.602C200.043 184.396 200.169 183.873 200.349 183.454C200.35 183.453 200.35 183.452 200.35 183.452C200.491 183.126 200.663 182.863 200.663 182.863L205.014 182.811L212.051 182.726C212.051 182.726 212.082 182.93 212.108 183.19C212.154 183.639 212.188 184.256 212.026 184.272Z" fill="#0A131A"/>
<path d="M218.847 180.392C218.636 180.814 216.948 180.575 215.954 180.45C215.741 180.422 215.561 180.401 215.433 180.392C214.833 180.349 214.018 171.111 213.354 161.925C212.697 152.826 212.19 143.78 212.19 143.78V144.207C212.19 146.596 212.532 172.625 211.166 180.391C211.041 181.107 208.861 180.715 207.881 180.502C207.595 180.439 207.411 180.391 207.411 180.391C206.469 174.424 205.021 144.321 204.796 139.552C204.776 139.138 204.766 138.916 204.766 138.916C204.766 138.916 211.508 133.966 213.471 134.648C215.433 135.331 218.079 137.977 218.847 140.281C219.615 142.585 219.543 178.999 218.847 180.392Z" fill="#0C1033"/>
<path d="M210.597 111.172C209.453 111.239 208.343 111.595 207.38 112.216C206.535 112.761 205.624 113.475 205.407 114.125C204.98 115.405 207.797 137.508 208.223 137.679C208.65 137.85 215.136 138.276 215.989 137.679C216.575 137.269 213.392 124.118 217.725 118.17C220.641 114.167 214.71 110.957 210.774 111.162C210.716 111.165 210.656 111.169 210.597 111.172Z" fill="#D07EA6"/>
<path d="M211.56 115.277C211.435 115.277 211.331 115.374 211.324 115.499C211.223 117.387 210.513 130.647 210.54 131.506C210.566 132.348 210.322 135.246 210.278 135.755C210.274 135.804 210.286 135.854 210.311 135.897L211.726 138.231C211.819 138.385 212.043 138.382 212.132 138.225L213.351 136.074C213.373 136.035 213.383 135.991 213.381 135.946L212.372 115.5C212.365 115.375 212.262 115.276 212.136 115.276H211.56V115.277Z" fill="#792B67"/>
<path d="M211.176 112.799L212.171 112.805C212.171 112.805 213.096 114.303 212.97 114.489C212.845 114.676 211.967 115.79 211.967 115.79L211.312 115.266L210.48 114.599L211.176 112.799Z" fill="#792B67"/>
<path d="M212.658 111.137L214.45 111.308L216.413 112.247L213.298 115.106L211.932 112.716L211.164 112.802L210.225 115.532L207.238 111.948L208.787 111.498L212.658 111.137Z" fill="#2A376B"/>
<path d="M214.444 111.409C211.825 114.41 209.318 112.172 208.762 111.601C208.746 111.584 208.74 111.564 208.743 111.544C208.744 111.532 208.749 111.521 208.756 111.511C208.768 111.494 208.787 111.481 208.812 111.48C209.034 111.471 209.403 111.406 209.757 111.052C210.08 110.729 209.87 109.82 209.665 109.177C209.579 108.906 209.493 108.683 209.448 108.57C209.432 108.529 209.456 108.483 209.5 108.473L211.654 108.014L213.116 107.702C213.164 107.692 213.207 107.732 213.202 107.781C212.948 109.978 214.149 111.078 214.434 111.306C214.467 111.331 214.47 111.379 214.444 111.409Z" fill="#E2AF78"/>
<path opacity="0.15" d="M211.656 108.015C211.622 108.606 210.628 111.075 209.587 111.428C209.29 111.527 209.011 111.544 208.758 111.511C208.77 111.494 208.789 111.481 208.814 111.48C209.036 111.472 209.406 111.406 209.76 111.052C210.082 110.729 209.872 109.821 209.668 109.178C209.581 108.907 209.495 108.683 209.451 108.57C209.434 108.529 209.458 108.483 209.502 108.474L211.656 108.015Z" fill="#352727"/>
<path d="M214.411 104.319C214.478 101.562 212.642 99.2817 210.309 99.225C207.977 99.1683 206.032 101.357 205.965 104.113C205.898 106.87 207.734 109.15 210.067 109.207C212.399 109.264 214.344 107.075 214.411 104.319Z" fill="#E2AF78"/>
<path d="M208.989 140.665C208.768 141.065 208.047 140.964 207.239 140.683C206.374 140.383 205.409 139.878 204.85 139.569C204.616 139.439 204.512 139.156 204.607 138.905C205.463 136.653 204.642 127.702 203.877 120.966C203.875 120.952 203.873 120.94 203.873 120.926C203.605 118.58 203.346 116.506 203.167 115.083C203.022 113.927 202.93 113.199 202.93 113.1C202.93 113.089 202.931 113.079 202.935 113.068C203.06 112.615 205.759 112.143 206.984 111.951H206.985C207.115 111.931 207.228 111.914 207.32 111.9C207.524 111.87 207.727 111.957 207.843 112.125C209.71 114.805 212.206 134.842 208.989 140.665Z" fill="#2A376B"/>
<path opacity="0.15" d="M215.227 113.335C215.227 113.335 210.216 137.461 214.46 142.441C214.46 142.441 218.35 140.63 218.5 140.242C218.65 139.854 215.227 113.335 215.227 113.335Z" fill="#352727"/>
<path d="M218.91 139.109C219.015 139.4 218.902 139.724 218.63 139.873C217.687 140.391 215.799 141.344 214.952 141.178C214.778 141.144 214.648 141.063 214.579 140.922C212.085 135.809 213.919 115.51 215.711 112.401C215.715 112.393 215.72 112.384 215.724 112.377C215.758 112.319 215.801 112.269 215.85 112.228C215.987 112.109 216.173 112.057 216.358 112.088C216.702 112.146 217.278 112.249 217.897 112.378C219.175 112.642 220.638 113.019 220.638 113.357C220.638 113.921 217.592 135.468 218.91 139.109Z" fill="#2A376B"/>
<path d="M239.882 116.11C239.619 117.37 238.559 120.055 236.529 120.365C234.101 120.735 233.649 122.017 233.649 122.017L233.23 119.479L233.156 119.032C233.156 119.032 234.458 117.53 235.316 117.751C235.829 117.884 236.271 115.381 236.752 115.571C237.037 115.683 236.905 116.358 236.749 116.893C236.749 116.894 236.748 116.895 236.748 116.895C236.738 116.93 236.728 116.965 236.717 116.999C236.888 116.56 237.152 115.997 237.45 115.789C238.303 115.191 237.847 116.276 237.45 117.41C237.402 117.548 237.406 117.552 237.498 117.442C237.498 117.442 238.539 116.208 238.901 115.789C239.231 115.405 240.187 114.65 239.882 116.11Z" fill="#E2AF78"/>
<path opacity="0.03" d="M236.749 116.893C236.749 116.893 236.748 116.894 236.748 116.895C236.182 118.34 234.307 119.133 233.23 119.478L233.156 119.032C233.156 119.032 234.458 117.53 235.316 117.751C235.829 117.883 236.271 115.38 236.752 115.571C237.037 115.682 236.905 116.357 236.749 116.893Z" fill="#352727"/>
<path d="M235.145 121.592C235.145 121.592 234.29 122.193 233.072 123.005C231.063 124.347 228.067 126.267 226.312 127.011C224.186 127.914 221.11 123.341 219.733 121.047C219.728 121.041 219.725 121.035 219.722 121.031C219.722 121.029 219.72 121.028 219.719 121.026C219.719 121.025 219.718 121.024 219.718 121.024C219.717 121.023 219.716 121.022 219.716 121.022C219.279 120.292 219.016 119.8 219.016 119.8L220.04 112.972C220.04 112.972 222.387 113.697 223.24 114.21C224.093 114.722 228.019 121.89 228.019 121.89C228.019 121.89 228.019 121.89 228.19 121.634C228.36 121.378 233.267 117.751 233.182 118.263C233.122 118.621 234.102 120.1 234.699 120.961H234.699C234.713 120.981 234.726 121 234.74 121.019C234.977 121.361 235.145 121.592 235.145 121.592Z" fill="#2A376B"/>
<path d="M195.063 116.014L193.191 116.871C193.07 116.926 192.927 116.873 192.871 116.752L192.284 115.468L191.915 114.66C191.386 113.505 190.001 114.492 188.441 112.815C187.46 111.761 187.216 111.165 187.064 110.832C187.001 110.695 187.118 110.459 187.32 110.515C187.32 110.515 188.554 111.892 189.084 112.319C189.532 112.68 187.928 110.398 187.925 110.371L187.638 109.897C187.583 109.776 187.59 109.52 187.711 109.465L187.821 109.414C187.942 109.359 188.043 109.517 188.139 109.671L189.384 111.512C189.855 112.101 189.703 111.769 189.734 111.501C189.737 111.472 189.749 111.447 189.752 111.419C189.761 111.337 189.76 111.116 189.77 110.831C189.786 110.352 189.832 109.692 190.008 109.217C190.322 108.374 190.602 108.61 190.618 108.938C190.629 109.159 190.624 109.809 190.615 110.431C190.624 110.405 190.632 110.379 190.642 110.353C190.937 109.501 191.152 109.292 191.353 109.217C191.454 109.179 191.562 109.242 191.581 109.397C191.598 109.518 191.597 110.013 191.378 110.599C191.065 111.441 192.012 111.821 192.012 111.821L193.602 112.413C193.712 112.478 193.71 112.48 193.738 112.538L194.596 114.413L195.018 115.335L195.182 115.694C195.237 115.815 195.184 115.958 195.063 116.014Z" fill="#E2AF78"/>
<path d="M204.317 120.807C204.21 120.845 204.06 120.9 203.877 120.966C202.335 121.52 198.4 122.932 196.929 123.406C196.451 123.561 196.233 123.616 196.444 123.511C197.066 123.2 196.971 121.207 196.801 119.691C196.72 118.969 196.622 118.355 196.576 118.084C196.56 117.992 196.597 117.899 196.672 117.843L197.046 117.557L202.935 113.067L203.036 112.989C203.189 112.873 203.41 112.964 203.437 113.154L203.655 114.694L204.48 120.535C204.496 120.653 204.429 120.767 204.317 120.807Z" fill="#2A376B"/>
<path d="M198.043 119.114C197.996 120.67 197.254 123.213 197.254 123.213C197.254 123.213 197.132 123.296 196.928 123.406C196.32 123.734 194.97 124.3 193.883 123.597C192.432 122.658 191.621 115.191 191.621 115.191C191.826 115.357 192.049 115.442 192.282 115.468C192.981 115.545 193.758 115.081 194.336 114.627C194.427 114.554 194.514 114.482 194.594 114.413C194.965 114.093 195.205 113.825 195.205 113.825L196.699 117.111C196.699 117.111 196.737 117.302 197.045 117.557C197.196 117.683 197.413 117.824 197.723 117.964C197.98 118.081 198.061 118.527 198.043 119.114Z" fill="#2A376B"/>
<path opacity="0.15" d="M207.238 102.982C207.238 102.982 209.551 103.585 210.538 103.423C211.219 103.312 211.637 102.823 211.896 102.728C212.559 102.485 212.985 104.107 212.985 104.107C212.985 104.107 213.837 102.356 213.837 102.227C213.837 102.098 214.225 101.354 212.996 101.127C211.767 100.901 211.864 100.804 211.395 100.901C210.926 100.998 207.238 102.982 207.238 102.982Z" fill="#352727"/>
<path d="M215.602 104.353C215.576 104.436 215.551 104.516 215.522 104.591C215.285 105.241 214.96 105.61 214.578 106.145C214.307 106.524 213.718 107.294 213.24 107.804C213.062 107.994 212.743 107.841 212.784 107.582C212.871 107.024 213.045 106.338 213.383 106.145C213.98 105.803 214.407 104.95 214.274 104.491C214.121 103.967 213.724 104.011 213.298 104.438C212.871 104.865 212.785 105.547 212.956 104.694C213.127 103.84 212.572 101.492 211.506 102.475C210.728 103.193 206.726 103.584 205.958 102.646C205.19 102.048 204.449 100.436 204.837 99.6101C204.888 99.5008 204.893 99.4257 204.946 99.4045C204.994 99.3865 205.081 99.4097 205.276 99.4882C205.389 99.5334 205.457 99.5949 205.617 99.6588C206.471 100 207.301 99.4311 208.689 98.8908C210.226 98.2933 210.96 98.0979 212.615 98.5495C214.492 99.0616 215.348 100.249 215.602 101.366C216.029 103.243 215.858 103.499 215.602 104.353Z" fill="#31183F"/>
<path opacity="0.03" d="M206.985 111.952C206.067 112.799 204.679 114.05 204.217 114.294C204.114 114.349 203.917 114.491 203.656 114.694C203.511 114.807 203.347 114.938 203.167 115.083C201.782 116.198 199.45 118.171 198.044 119.114C197.677 119.361 197.374 119.537 197.167 119.609C197.032 119.657 196.912 119.684 196.802 119.692C195.853 119.765 195.731 118.424 195.062 116.014C194.912 115.472 194.656 115.016 194.337 114.627C193.071 113.082 190.814 112.58 190.246 111.894C190.035 111.641 189.881 111.251 189.77 110.831C189.785 110.352 189.831 109.692 190.008 109.217C190.321 108.374 190.601 108.61 190.617 108.938C190.628 109.159 190.623 109.809 190.615 110.431C190.623 110.405 190.632 110.379 190.641 110.353C190.936 109.501 191.151 109.292 191.352 109.217C191.453 109.179 191.561 109.242 191.581 109.397C191.597 109.518 191.596 110.013 191.377 110.599C191.064 111.441 192.011 111.821 192.011 111.821L193.601 112.413C193.711 112.478 193.71 112.48 193.737 112.538L194.596 114.413C194.966 114.093 195.207 113.825 195.207 113.825L196.7 117.111C196.7 117.111 196.738 117.302 197.046 117.557L202.935 113.067C203.061 112.615 205.759 112.144 206.985 111.952Z" fill="#352727"/>
<path opacity="0.15" d="M207.242 140.683C206.376 140.383 205.411 139.878 204.853 139.568C204.618 139.439 204.514 139.155 204.61 138.904C205.466 136.653 204.645 127.702 203.879 120.966C203.877 120.952 203.876 120.939 203.875 120.926C204.242 120.688 204.483 120.535 204.483 120.535C204.483 120.535 206.772 139.83 207.242 140.683Z" fill="#352727"/>
<path opacity="0.15" d="M234.742 121.019C234.371 121.46 233.775 122.171 233.074 123.005C231.065 124.347 228.069 126.266 226.314 127.011C224.188 127.914 221.112 123.34 219.734 121.047C220.022 121.487 223.957 127.442 225.95 126.81C228.019 126.155 234.701 120.961 234.701 120.961H234.702C234.716 120.981 234.728 121 234.742 121.019Z" fill="#352727"/>
<path opacity="0.89" d="M207.879 180.502C207.592 180.439 207.409 180.392 207.409 180.392C206.467 174.424 205.018 144.321 204.793 139.552L205.555 139.944C205.555 139.944 207.124 176.659 207.879 180.502Z" fill="#0D4399"/>
<path opacity="0.89" d="M215.955 180.45C215.742 180.422 215.562 180.401 215.434 180.392C214.834 180.349 214.019 171.111 213.355 161.925C214.238 168.464 215.818 179.883 216.12 180.149C216.244 180.259 216.15 180.361 215.955 180.45Z" fill="#0D4399"/>
<path d="M215.522 104.591C215.285 105.241 214.96 105.61 214.578 106.145C214.307 106.524 213.718 107.294 213.24 107.804C213.062 107.994 212.743 107.84 212.784 107.582C212.871 107.024 213.045 106.338 213.383 106.145C213.98 105.803 214.407 104.95 214.274 104.491C214.121 103.967 213.724 104.011 213.298 104.438C212.871 104.865 212.785 105.547 212.956 104.694C213.127 103.84 212.572 101.492 211.506 102.475C210.728 103.193 206.726 103.584 205.958 102.645C205.19 102.048 204.449 100.436 204.837 99.6099C204.888 99.5006 204.893 99.4255 204.946 99.4043C205.138 99.9504 205.492 100.489 206.125 100.863C207.967 101.952 211.93 100.011 214.46 101.563C215.086 101.948 215.214 103.352 215.522 104.591Z" fill="#010811"/>
<path d="M173.724 181.562C173.724 181.562 177.034 182.575 177.45 182.789C177.729 182.932 179.903 183.633 180.381 184.115C180.626 184.362 180.851 184.842 180.835 185.194C180.826 185.405 180.711 185.587 180.406 185.689C179.594 185.961 170.065 185.146 169.286 185.072C168.921 185.037 168.8 184.677 168.766 184.329C168.675 183.415 169.401 181.951 169.615 181.61C169.71 181.457 171.118 179.569 171.118 179.569L173.724 181.562Z" fill="#070000"/>
<path d="M180.461 184.21C180.461 184.21 181.376 185.607 180.729 185.982C180.291 186.236 172.26 185.965 172.26 185.965L171.394 185.883L171.247 185.568C171.176 185.417 170.971 185.389 170.863 185.517L170.615 185.809C170.615 185.809 169.007 185.657 168.884 185.645C168.624 185.621 168.859 184.071 168.859 184.071L180.461 184.21Z" fill="#070000"/>
<path d="M161.899 182.084C161.899 182.084 165.209 183.096 165.626 183.31C165.904 183.454 168.078 184.154 168.557 184.636C168.802 184.883 169.027 185.363 169.011 185.715C169.002 185.926 168.887 186.108 168.582 186.21C167.77 186.483 158.241 185.667 157.462 185.593C157.097 185.558 156.976 185.198 156.941 184.851C156.851 183.936 157.577 182.472 157.79 182.131C157.886 181.978 159.294 180.09 159.294 180.09L161.899 182.084Z" fill="#070000"/>
<path d="M168.636 184.731C168.636 184.731 169.552 186.128 168.905 186.503C168.467 186.758 160.436 186.486 160.436 186.486L159.57 186.404L159.423 186.09C159.352 185.938 159.147 185.91 159.038 186.038L158.791 186.331C158.791 186.331 157.182 186.178 157.06 186.167C156.8 186.142 157.035 184.592 157.035 184.592L168.636 184.731Z" fill="#070000"/>
<path d="M175.151 140.078C175.151 140.078 176.02 141.034 176.107 141.382C176.194 141.73 176.455 142.512 176.107 143.469C175.947 143.909 174.855 144.776 174.609 144.861C174.108 145.034 173.586 142.164 173.586 141.208C173.586 140.252 175.151 140.078 175.151 140.078Z" fill="#E3A785"/>
<path d="M170.59 115.643C170.59 115.643 175.806 114.821 175.632 134.905L175.589 139.991C175.589 139.991 174.299 140.85 173.937 140.6C168.286 136.687 170.59 115.643 170.59 115.643Z" fill="#1B133C"/>
<path d="M157.85 182.07L158.654 182.104L161.956 182.106C161.956 182.106 164.576 163.305 165.969 152.427C166.485 148.401 166.829 145.479 166.806 145.033C166.719 143.381 167.066 148.858 167.066 148.858L169.412 181.983L174.001 181.942L174.742 181.877C174.742 181.877 175.295 148.35 174.287 140.414C174.165 139.46 174.02 138.878 173.848 138.773C172.242 137.798 162.893 127.297 158.633 137.556C158.633 137.556 156.286 180.94 157.85 182.07Z" fill="#72324D"/>
<path d="M163.007 114.735C163.007 114.735 159.358 115.066 158.695 116.144C158.032 117.222 159.4 133.514 159.151 134.592C158.902 135.67 158.488 138.572 158.322 139.898C158.156 141.225 172.085 140.396 173.661 139.65C175.011 139.01 173.163 127.71 172.748 124.808C172.502 123.083 172.251 119.585 171.919 117.761C171.826 117.245 170.717 115.73 170.717 115.73C170.717 115.73 168.857 114.963 168.004 115.056C167.152 115.149 163.007 114.735 163.007 114.735Z" fill="#1B133C"/>
<path d="M162.805 110.866C162.805 110.866 163.413 114.17 163.587 114.517C163.743 114.829 167.804 116.213 167.804 116.213L167.792 116.111L167.326 112.083L165.331 111.546L165.311 111.54C165.307 111.54 165.304 111.539 165.304 111.539L162.805 110.866Z" fill="#E3A785"/>
<path opacity="0.15" d="M165.305 111.538C165.305 111.538 166.858 115.899 167.5 116.082C167.578 116.104 167.678 116.113 167.792 116.111L167.326 112.083L165.332 111.545L165.312 111.54C165.307 111.539 165.305 111.538 165.305 111.538Z" fill="#352727"/>
<path d="M160.543 107.214C160.71 110.354 163.634 111.904 166.338 112.663C169.846 113.648 171.522 108.076 171.15 104.953C170.715 101.302 168.539 101.141 165.734 101.29C162.929 101.439 160.376 104.073 160.543 107.214Z" fill="#E3A785"/>
<path d="M167.59 117.734C167.444 117.734 167.325 117.849 167.32 117.995C167.259 119.723 166.916 129.477 166.848 130.554C166.775 131.736 167.587 138.387 167.661 138.83C167.711 139.131 168.307 139.977 168.684 140.489C168.813 140.665 169.086 140.623 169.157 140.416L169.787 138.585C169.798 138.551 169.803 138.516 169.801 138.481L169.287 129.519L168.324 117.982C168.312 117.841 168.195 117.734 168.055 117.734L167.59 117.734Z" fill="#E1AC5C"/>
<path d="M172.562 138.526L173.098 136.867C173.098 136.867 174.747 136.301 175.292 135.745C175.743 135.285 176.952 135.57 177.36 135.684C177.452 135.709 177.511 135.799 177.498 135.893C177.467 136.108 177.299 136.451 176.542 136.458C175.677 136.466 175.86 136.842 175.854 136.842C175.854 136.842 177.467 137.168 178.392 137.657C179.542 138.264 179.188 139.694 178.248 140.083C178.134 140.131 178.024 140.142 177.903 140.165C177.274 140.283 175.328 140.588 174.783 140.159C174.17 139.677 172.562 138.526 172.562 138.526Z" fill="#E3A785"/>
<path d="M156.328 123.776C156.328 125.515 158.154 133.514 159.035 135.056C159.916 136.598 172.261 139.878 172.847 139.078C173.174 138.633 173.73 137.619 173.934 136.731C174.03 136.318 174.049 135.932 173.934 135.644C173.934 135.644 173.931 135.638 173.924 135.625C173.518 134.944 164.936 131.34 164.936 131.34C165.838 118.626 161.865 115.353 161.413 115.024C161.412 115.023 161.411 115.023 161.411 115.023C161.385 115.004 161.371 114.995 161.371 114.995C159.024 115.256 158.307 115.933 157.458 116.908C156.285 118.255 156.328 122.037 156.328 123.776Z" fill="#1B133C"/>
<path d="M168.582 117.208L168.231 118.348C168.123 118.698 167.669 118.786 167.438 118.501L166.899 117.835C166.791 117.702 166.767 117.52 166.836 117.363L167.219 116.491C167.34 116.218 167.686 116.131 167.921 116.316L168.427 116.714C168.576 116.831 168.638 117.027 168.582 117.208Z" fill="#E1AC5C"/>
<path d="M167.498 116.082L166.585 118.386L162.586 114.734L163.368 113.604L167.498 116.082Z" fill="#050101"/>
<path d="M167.5 116.213L168.717 117.169V116.213L167.587 114.343L167.5 116.213Z" fill="#050101"/>
<path opacity="0.15" d="M170.881 103.999C170.881 103.999 168.782 106.524 167.806 106.776C166.787 107.04 164.544 106.343 164.201 106.15C163.843 105.95 163.838 105.766 162.589 106.15L161.773 106.83C161.773 106.83 162.296 104.239 162.589 104.141C162.883 104.042 165.516 102.658 166.604 102.658C167.693 102.658 168.516 102.394 169.044 102.658C169.571 102.921 170.881 103.999 170.881 103.999Z" fill="#352727"/>
<path d="M159.37 107.475C159.718 109.126 160.566 109.898 161.022 110.431C161.19 110.627 161.408 110.82 161.639 110.994C162.008 111.276 162.414 111.511 162.706 111.644C162.794 111.684 162.871 111.715 162.934 111.735C162.974 111.748 163.043 111.771 163.021 111.735L163.025 111.67L163.035 111.487L162.99 111.198C162.969 110.891 162.106 109.242 161.63 109.214C160.776 109.164 160.761 107.997 160.935 107.649C161.075 107.369 161.785 107.597 161.987 107.696C162.017 107.711 162.05 107.685 162.044 107.652C161.913 106.986 162.207 104.673 165.195 106.084C168.005 107.41 171.191 104.607 171.455 102.867C171.622 101.762 171.08 101.166 170.276 100.848C168.993 100.34 167.04 100.543 166.238 100.519C163.282 100.433 162.438 100.695 160.848 101.911C159.37 103.041 159.248 104.435 159.196 104.953C159.109 105.823 159.043 105.923 159.37 107.475Z" fill="#2C2334"/>
<path opacity="0.45" d="M161.41 115.024C163.62 118.394 164.361 133.093 164.361 133.093L173.931 136.731V135.644C173.931 135.644 173.928 135.637 173.922 135.624C173.516 134.944 164.933 131.34 164.933 131.34C165.836 118.626 161.862 115.353 161.41 115.024Z" fill="#050101"/>
<path opacity="0.13" d="M172.848 139.078C172.848 139.078 173.644 175.021 174.053 182.06L174.674 182.071C174.674 182.071 175.295 148.35 174.287 140.415C173.416 139.6 172.848 139.078 172.848 139.078Z" fill="#050101"/>
<path opacity="0.13" d="M158.652 182.104L161.935 182.244C161.935 182.244 164.575 163.305 165.968 152.428C166.464 146.743 166.809 142.422 166.84 142.013C166.046 150.76 159.652 177.891 158.652 182.104Z" fill="#050101"/>
<path opacity="0.98" d="M161.638 110.994C161.867 111.24 162.082 111.431 162.255 111.538C162.329 111.584 162.484 111.619 162.705 111.644C162.8 111.655 162.907 111.664 163.024 111.67L163.035 111.487L162.989 111.197C162.969 110.891 162.105 109.241 161.63 109.214C160.775 109.164 160.76 107.996 160.934 107.649C161.074 107.369 161.784 107.596 161.987 107.696C162.016 107.71 162.049 107.685 162.043 107.652C161.912 106.986 162.207 104.672 165.194 106.083C168.004 107.41 171.191 104.606 171.454 102.867C171.622 101.762 171.079 101.165 170.275 100.848C170.118 101.263 168.184 106.139 165.044 105.304C161.904 104.47 159.971 106.522 159.927 107.721C159.892 108.648 160.848 110.146 161.638 110.994Z" fill="#030005"/>
</svg>
