<svg width="822" height="822" viewBox="0 0 822 822" fill="none" xmlns="http://www.w3.org/2000/svg">
<path d="M821.202 410.99L426.891 412.087L817.538 465.731L426.599 414.262L806.61 519.495L426.019 416.378L788.613 571.323L425.162 418.399L763.869 620.29L424.044 420.287L732.819 665.522L422.684 422.009L696.017 706.212L421.106 423.535L654.12 741.634L419.34 424.837L607.876 771.155L417.415 425.891L558.11 794.249L415.367 426.68L505.709 810.504L413.233 427.189L451.61 819.629L411.049 427.409L396.776 821.462L408.856 427.335L342.188 815.971L406.692 426.97L288.819 803.252L404.596 426.32L237.621 783.534L402.605 425.396L189.509 757.167L400.755 424.215L145.339 724.623L399.079 422.799L105.902 686.482L397.607 421.171L71.9001 643.425L396.365 419.362L43.9406 596.22L395.376 417.403L22.5224 545.71L394.656 415.33L8.02769 492.796L394.219 413.179L0.715069 438.422L394.072 410.99L0.715071 383.558L394.219 408.8L8.0277 329.184L394.656 406.649L22.5224 276.269L395.376 404.576L43.9407 225.759L396.365 402.618L71.9001 178.554L397.607 400.808L105.902 135.497L399.079 399.181L145.339 97.3561L400.755 397.764L189.509 64.812L402.605 396.583L237.621 38.4455L404.596 395.659L288.819 18.7271L406.692 395.009L342.188 6.00855L408.856 394.644L396.776 0.516919L411.049 394.571L451.61 2.3502L413.233 394.79L505.709 11.4757L415.367 395.299L558.11 27.7305L417.415 396.088L607.876 50.8245L419.34 397.143L654.12 80.3457L421.106 398.444L696.017 115.767L422.684 399.97L732.819 156.457L424.044 401.692L763.869 201.689L425.162 403.58L788.613 250.656L426.019 405.601L806.61 302.484L426.599 407.717L817.538 356.248L426.891 409.892L821.202 410.99Z" fill="#F1547A"/>
</svg>
