<svg width="822" height="822" viewBox="0 0 822 822" fill="none" xmlns="http://www.w3.org/2000/svg">
<path d="M0.599103 410.99L395.101 409.892L4.26536 356.222L395.393 407.716L15.1987 302.432L395.973 405.598L33.2041 250.578L396.831 403.577L57.9602 201.588L397.949 401.688L89.0252 156.334L399.31 399.965L125.845 115.624L400.888 398.438L167.762 80.1858L402.656 397.136L214.029 50.6503L404.581 396.081L263.819 27.545L406.63 395.292L316.245 11.2823L408.766 394.783L370.371 2.15245L410.951 394.563L425.23 0.318341L413.145 394.636L479.845 5.8126L415.31 395.001L533.24 18.5373L417.407 395.652L584.462 38.2652L419.399 396.576L632.598 64.6445L421.249 397.758L676.789 97.2043L422.926 399.175L716.245 135.364L424.399 400.804L750.264 178.442L425.642 402.614L778.237 225.669L426.632 404.573L799.665 276.204L427.352 406.647L814.167 329.144L427.789 408.799L821.483 383.545L427.936 410.99L821.483 438.435L427.789 413.18L814.167 492.835L427.352 415.332L799.665 545.775L426.632 417.406L778.237 596.31L425.642 419.366L750.264 643.538L424.399 421.176L716.245 686.616L422.926 422.804L676.789 724.775L421.249 424.222L632.599 757.335L419.399 425.403L584.462 783.714L417.407 426.328L533.24 803.442L415.31 426.978L479.845 816.167L413.145 427.343L425.23 821.661L410.951 427.417L370.371 819.827L408.766 427.197L316.245 810.697L406.63 426.688L263.819 794.434L404.581 425.899L214.029 771.329L402.656 424.844L167.762 741.794L400.888 423.541L125.845 706.355L399.31 422.015L89.0252 665.646L397.949 420.292L57.9602 620.392L396.831 418.403L33.2042 571.401L395.973 416.381L15.1987 519.548L395.393 414.264L4.26537 465.757L395.101 412.088L0.599103 410.99Z" fill="#6ABE4C"/>
</svg>
