<svg width="823" height="821" viewBox="0 0 823 821" fill="none" xmlns="http://www.w3.org/2000/svg">
<path d="M411.5 820.806L410.402 426.386L356.744 817.141L408.227 426.093L302.964 806.21L406.11 425.513L251.122 788.208L404.089 424.656L202.141 763.457L402.2 423.538L156.897 732.398L400.477 422.177L116.195 695.586L398.951 420.599L80.764 653.678L397.649 418.832L51.2346 607.421L396.594 416.907L28.1341 557.64L395.805 414.858L11.8749 505.225L395.296 412.723L2.74679 451.111L395.077 410.539L0.913049 396.262L395.15 408.345L6.40621 341.659L395.515 406.18L19.1282 288.275L396.165 404.084L38.8522 237.063L397.089 402.093L65.226 188.937L398.271 400.242L97.7791 144.755L399.688 398.566L135.931 105.307L401.316 397.093L179 71.2957L403.126 395.851L226.218 43.3285L405.085 394.861L276.742 21.9043L407.159 394.141L329.671 7.4055L409.31 393.704L384.06 0.0908586L411.5 393.557L438.939 0.0908538L413.69 393.704L493.329 7.40549L415.841 394.141L546.258 21.9043L417.915 394.861L596.782 43.3284L419.874 395.851L644 71.2957L421.684 397.093L687.069 105.307L423.312 398.566L725.221 144.755L424.729 400.242L757.774 188.937L425.911 402.093L784.148 237.063L426.835 404.084L803.872 288.275L427.485 406.18L816.594 341.659L427.85 408.345L822.087 396.262L427.923 410.539L820.253 451.111L427.704 412.723L811.125 505.225L427.195 414.858L794.866 557.64L426.406 416.907L771.765 607.421L425.351 418.832L742.236 653.678L424.049 420.599L706.805 695.586L422.523 422.177L666.103 732.398L420.8 423.538L620.859 763.457L418.911 424.656L571.878 788.208L416.89 425.513L520.036 806.21L414.773 426.093L466.256 817.141L412.598 426.386L411.5 820.806Z" fill="#CF69B9"/>
</svg>
