<svg width="823" height="821" viewBox="0 0 823 821" fill="none" xmlns="http://www.w3.org/2000/svg">
<path d="M411.5 0.125L412.598 394.592L466.263 3.79095L414.774 394.884L520.049 14.7234L416.891 395.465L571.897 32.7272L418.912 396.322L620.884 57.4811L420.801 397.44L666.133 88.5433L422.524 398.801L706.839 125.36L424.05 400.379L742.275 167.273L425.353 402.147L771.808 213.536L426.408 404.072L794.911 263.322L427.197 406.121L811.172 315.743L427.706 408.256L820.301 369.864L427.925 410.441L822.135 424.719L427.852 412.635L816.641 479.329L427.487 414.8L803.918 532.719L426.836 416.896L784.192 583.937L425.912 418.888L757.815 632.069L424.731 420.738L725.258 676.255L423.314 422.415L687.102 715.708L421.685 423.888L644.028 749.724L419.875 425.13L596.804 777.694L417.916 426.12L546.274 799.121L415.842 426.84L493.339 813.621L413.691 427.278L438.943 820.937L411.5 427.424L384.057 820.937L409.309 427.278L329.661 813.621L407.158 426.84L276.726 799.121L405.084 426.12L226.196 777.694L403.125 425.13L178.972 749.724L401.315 423.888L135.898 715.708L399.686 422.415L97.7422 676.255L398.269 420.738L65.1853 632.069L397.088 418.888L38.8083 583.937L396.164 416.896L19.0821 532.719L395.513 414.8L6.35849 479.329L395.148 412.635L0.864685 424.719L395.075 410.441L2.6987 369.864L395.294 408.256L11.8278 315.743L395.803 406.121L28.089 263.322L396.592 404.072L51.1922 213.536L397.647 402.147L80.7251 167.273L398.95 400.379L116.161 125.36L400.476 398.801L156.867 88.5433L402.199 397.44L202.116 57.4811L404.088 396.322L251.103 32.7272L406.109 395.465L302.951 14.7234L408.226 394.884L356.737 3.79095L410.402 394.592L411.5 0.125Z" fill="#1D2F71"/>
</svg>
