<svg width="238" height="220" viewBox="0 0 238 220" fill="none" xmlns="http://www.w3.org/2000/svg">
<path d="M120.187 219.657C176.652 219.657 222.426 214.126 222.426 207.303C222.426 200.481 176.652 194.95 120.187 194.95C63.7228 194.95 17.9492 200.481 17.9492 207.303C17.9492 214.126 63.7228 219.657 120.187 219.657Z" fill="#99E7FF"/>
<path d="M234.757 187.946C234.757 189.564 233.445 190.876 231.828 190.876C230.21 190.876 228.898 189.564 228.898 187.946C228.898 186.329 230.21 185.017 231.828 185.017C233.445 185.017 234.757 186.329 234.757 187.946Z" fill="#FF7BB7"/>
<path d="M229.658 103.7C231.796 102.419 233.934 101.138 236.072 99.8576C236.582 99.5518 236.815 98.8214 236.48 98.301C236.149 97.7877 235.47 97.5656 234.924 97.893C232.786 99.1738 230.648 100.455 228.51 101.735C228 102.041 227.767 102.772 228.102 103.292C228.433 103.805 229.112 104.027 229.658 103.7Z" fill="#99E7FF"/>
<path d="M214.041 90.9653C210.176 90.9653 207.031 87.8206 207.031 83.956C207.031 80.091 210.176 76.9463 214.041 76.9463C217.906 76.9463 221.05 80.091 221.05 83.956C221.05 87.8206 217.906 90.9653 214.041 90.9653ZM214.041 78.3113C210.928 78.3113 208.396 80.8434 208.396 83.956C208.396 87.0681 210.928 89.6002 214.041 89.6002C217.153 89.6002 219.685 87.0681 219.685 83.956C219.685 80.8434 217.153 78.3113 214.041 78.3113Z" fill="#FF7BB7"/>
<path d="M20.5421 96.6607C20.5421 98.3431 19.178 99.7071 17.4957 99.7071C15.8133 99.7071 14.4492 98.3431 14.4492 96.6607C14.4492 94.9783 15.8133 93.6143 17.4957 93.6143C19.178 93.6143 20.5421 94.9783 20.5421 96.6607Z" fill="#99E7FF"/>
<path d="M72.8976 82.2126C72.8976 83.895 71.5335 85.2591 69.8511 85.2591C68.1687 85.2591 66.8047 83.895 66.8047 82.2126C66.8047 80.5302 68.1687 79.1662 69.8511 79.1662C71.534 79.1662 72.8976 80.5302 72.8976 82.2126Z" fill="#FFD4A1"/>
<path d="M16.0653 180.066C16.0653 181.684 14.7539 182.996 13.1362 182.996C11.5184 182.996 10.207 181.684 10.207 180.066C10.207 178.449 11.5184 177.137 13.1362 177.137C14.7539 177.137 16.0653 178.449 16.0653 180.066Z" fill="#FFD4A1"/>
<path d="M21.7984 129.422C16.7703 129.422 12.6797 125.331 12.6797 120.303C12.6797 115.275 16.7703 111.184 21.7984 111.184C26.826 111.184 30.9167 115.275 30.9167 120.303C30.9167 125.331 26.826 129.422 21.7984 129.422ZM21.7984 112.55C17.5233 112.55 14.0447 116.028 14.0447 120.304C14.0447 124.579 17.5228 128.057 21.7984 128.057C26.0736 128.057 29.5516 124.579 29.5516 120.304C29.5516 116.028 26.0736 112.55 21.7984 112.55Z" fill="#FF7BB7"/>
<path d="M98.474 46.9853C94.0921 46.9853 90.5273 43.4205 90.5273 39.0386C90.5273 34.6567 94.0921 31.0919 98.474 31.0919C102.856 31.0919 106.421 34.6567 106.421 39.0386C106.421 43.4205 102.856 46.9853 98.474 46.9853ZM98.474 32.4565C94.8446 32.4565 91.8919 35.4092 91.8919 39.0381C91.8919 42.6671 94.8446 45.6202 98.474 45.6202C102.103 45.6202 105.056 42.6676 105.056 39.0381C105.056 35.4087 102.103 32.4565 98.474 32.4565Z" fill="#FFD4A1"/>
<path d="M56.8181 39.0182C55.2155 39.6128 54.4144 41.1648 54.5212 42.8347C54.6395 44.6825 55.6757 46.05 56.966 47.3013C58.2068 48.5039 59.442 49.6018 59.7658 51.3769C60.0325 52.8362 59.662 54.4715 58.7025 55.6159C58.308 56.0862 58.2413 56.7634 58.7025 57.2246C59.1081 57.6302 59.9147 57.6979 60.3112 57.2246C62.6629 54.4188 62.6829 50.3467 60.3674 47.5178C59.3347 46.2561 57.6473 45.275 57.0051 43.731C56.8201 43.2858 56.7374 42.6025 56.8081 42.197C56.8633 41.8807 56.9154 41.7333 57.0512 41.5247C57.1375 41.3924 57.2969 41.2591 57.4227 41.2129C57.9982 40.9994 58.3902 40.4429 58.2173 39.8138C58.0654 39.2588 57.3971 38.8032 56.8181 39.0182Z" fill="#FF7BB7"/>
<path d="M224.055 113.964C225.294 114.066 225.645 115.652 225.602 116.634C225.529 118.319 224.781 119.907 224.848 121.613C224.957 124.419 227.427 126.775 230.26 126.664C231.387 126.62 231.393 124.862 230.26 124.906C229.119 124.95 228.039 124.429 227.326 123.538C226.429 122.418 226.533 121.047 226.818 119.72C227.16 118.131 227.678 116.408 227.137 114.798C226.668 113.405 225.553 112.33 224.055 112.207C223.581 112.168 223.176 112.638 223.176 113.085C223.176 113.593 223.58 113.925 224.055 113.964Z" fill="#FF7BB7"/>
<path d="M26.9349 20.9705C27.6834 22.68 28.4318 24.3894 29.1803 26.0989C29.4199 26.6458 30.2616 26.8132 30.7363 26.5069C31.3033 26.1415 31.4006 25.5359 31.1444 24.9509C30.396 23.2414 29.6475 21.532 28.8991 19.8225C28.6594 19.2756 27.8177 19.1082 27.343 19.4145C26.776 19.7799 26.6788 20.3855 26.9349 20.9705Z" fill="#FFD4A1"/>
<path d="M159.564 17.8795C161.273 18.3071 162.983 18.7348 164.692 19.1624C165.269 19.3067 165.953 18.9764 166.092 18.3678C166.226 17.7783 165.915 17.1231 165.297 16.9687C163.588 16.541 161.878 16.1134 160.168 15.6858C159.592 15.5414 158.907 15.8718 158.769 16.4804C158.635 17.0694 158.946 17.7251 159.564 17.8795Z" fill="#FF7BB7"/>
<path d="M83.0275 106.747C83.7754 105.678 84.5234 104.609 85.2713 103.541C85.4327 103.311 85.4578 102.926 85.3861 102.664C85.3134 102.4 85.1094 102.114 84.8633 101.984C84.5991 101.845 84.2792 101.775 83.9865 101.869C83.6917 101.965 83.4847 102.138 83.3067 102.392C82.5588 103.461 81.8108 104.529 81.0629 105.598C80.9019 105.828 80.8764 106.213 80.9481 106.474C81.0207 106.738 81.2248 107.024 81.4709 107.154C81.7351 107.293 82.0549 107.364 82.3472 107.269C82.6425 107.174 82.8495 107.001 83.0275 106.747Z" fill="#FFD4A1"/>
<path d="M20.93 63.1901C20.9942 63.1289 21.0598 63.0703 21.1255 63.0111C21.2147 62.9304 21.0207 63.0748 21.1872 62.961C21.3331 62.8612 21.4814 62.7665 21.6373 62.6833C21.7306 62.6336 21.8263 62.586 21.9231 62.5444C21.8138 62.591 21.8669 62.568 21.9467 62.5419C22.1151 62.4868 22.283 62.4336 22.456 62.3945C22.5592 62.3715 22.664 62.3504 22.7688 62.3359C22.651 62.3524 22.6841 62.3454 22.7823 62.3404C22.9593 62.3314 23.1347 62.3238 23.3117 62.3319C23.3338 62.3329 23.6777 62.3645 23.4305 62.3319C23.5002 62.3409 23.5699 62.3544 23.6391 62.3685C23.8301 62.4071 24.0145 62.4632 24.199 62.5254C24.374 62.5845 23.9724 62.4091 24.2622 62.5494C24.3399 62.587 24.4171 62.6256 24.4923 62.6672C24.6437 62.7505 24.7886 62.8437 24.9289 62.945C25.0778 63.0527 24.7449 62.7755 24.9831 62.9921C25.0472 63.0502 25.1119 63.1074 25.1736 63.1675C25.2357 63.2277 25.2959 63.2899 25.354 63.3535C25.3711 63.3721 25.5515 63.5786 25.4658 63.4763C25.3856 63.3801 25.5641 63.6142 25.5621 63.6112C25.6107 63.6824 25.6573 63.7556 25.7014 63.8298C25.7455 63.904 25.7882 63.9792 25.8283 64.0559C25.8403 64.0789 25.9606 64.3276 25.9035 64.2012C25.8463 64.0754 25.9511 64.3286 25.9596 64.3541C25.9877 64.4358 26.0132 64.5181 26.0363 64.6013C26.0869 64.7853 26.1225 64.9707 26.1486 65.1592C26.2313 65.7508 27.0158 66.1257 27.5477 65.9538C28.1964 65.7437 28.431 65.1883 28.3423 64.5547C28.0716 62.6196 26.6138 60.9874 24.8036 60.3322C22.9312 59.6539 20.7375 60.2259 19.3208 61.5814C18.8902 61.9935 18.8752 62.7805 19.3208 63.1901C19.7835 63.6142 20.4703 63.6297 20.93 63.1901Z" fill="#99E7FF"/>
<path d="M161.127 60.3608C160.397 63.1074 162.268 66.2807 165.097 66.8326C165.679 66.9459 166.352 66.6682 166.496 66.0381C166.624 65.4751 166.326 64.7607 165.701 64.6389C165.568 64.6129 165.437 64.5823 165.308 64.5422C165.243 64.5221 165.181 64.4981 165.117 64.4775C164.914 64.4118 165.347 64.5913 165.141 64.49C164.919 64.3813 164.706 64.2655 164.504 64.1221C164.467 64.096 164.431 64.0699 164.395 64.0429C164.437 64.0745 164.478 64.106 164.52 64.1376C164.505 64.104 164.394 64.0318 164.366 64.0068C164.265 63.917 164.17 63.8223 164.078 63.7235C164.032 63.6739 163.987 63.6233 163.944 63.5717C163.917 63.5396 163.788 63.3807 163.905 63.5285C164.027 63.6814 163.877 63.4854 163.854 63.4523C163.816 63.3967 163.779 63.34 163.743 63.2829C163.677 63.1776 163.615 63.0698 163.558 62.9596C163.527 62.8994 163.499 62.8377 163.469 62.7771C163.361 62.56 163.56 63.0282 163.478 62.8001C163.391 62.556 163.312 62.3124 163.264 62.0572C163.254 62.0041 163.252 61.9434 163.236 61.8918C163.33 62.188 163.254 62.0336 163.246 61.9279C163.235 61.7945 163.231 61.6602 163.235 61.5263C163.236 61.4592 163.24 61.3925 163.245 61.3258C163.247 61.3032 163.249 61.2812 163.251 61.2591C163.265 61.1358 163.26 61.1699 163.236 61.3614C163.282 61.2441 163.288 61.0882 163.321 60.9654C163.474 60.3909 163.129 59.7036 162.526 59.5662C161.93 59.4304 161.291 59.7452 161.127 60.3608Z" fill="#99E7FF"/>
<path d="M219.715 56.6548C219.756 56.703 219.796 56.7511 219.836 56.8007C219.69 56.6177 219.825 56.7957 219.853 56.8363C219.933 56.9526 220.007 57.0729 220.076 57.1963C220.137 57.306 220.192 57.4183 220.246 57.5316C220.373 57.7978 220.208 57.4023 220.258 57.5632C220.277 57.6229 220.302 57.681 220.322 57.7402C220.414 58.0109 220.464 58.2846 220.529 58.5618C220.567 58.7267 220.513 58.3708 220.528 58.5397C220.535 58.6185 220.545 58.6967 220.55 58.7749C220.56 58.9162 220.565 59.0581 220.564 59.2C220.563 59.3263 220.558 59.4521 220.549 59.578C220.543 59.6567 220.534 59.7349 220.526 59.8131C220.535 59.7153 220.551 59.6637 220.526 59.791C220.472 60.0697 220.409 60.3434 220.317 60.6121C220.297 60.6713 220.274 60.7299 220.253 60.7891C220.179 60.9921 220.303 60.7019 220.239 60.8202C220.18 60.9305 220.13 61.0453 220.069 61.1551C220 61.2784 219.926 61.3982 219.846 61.515C219.83 61.5391 219.673 61.7461 219.768 61.6278C219.862 61.5095 219.675 61.7326 219.676 61.7316C219.287 62.1807 219.202 62.9046 219.676 63.3402C220.104 63.7328 220.869 63.8205 221.285 63.3402C223.323 60.9886 223.331 57.4173 221.323 55.0467C220.937 54.591 220.107 54.6195 219.715 55.0467C219.27 55.5309 219.303 56.1686 219.715 56.6548Z" fill="#99E7FF"/>
<path d="M100.357 4.17942C101.334 2.77025 103.251 1.99022 104.882 2.33061C106.606 2.69004 107.988 4.02953 108.423 5.72996C108.786 7.14715 110.981 6.54659 110.617 5.12538C109.987 2.66648 107.874 0.559998 105.344 0.109324C102.648 -0.370926 99.9477 0.789595 98.3921 3.03143C98.0417 3.53625 98.2989 4.29472 98.8002 4.58748C99.3662 4.91784 100.006 4.68524 100.357 4.17942Z" fill="#99E7FF"/>
<path d="M32.6404 173.744C33.0696 173.736 33.4987 173.739 33.9178 173.772C34.3228 173.827 34.7178 173.911 35.0963 174.068C35.8518 174.376 36.5251 174.916 36.9993 175.8C37.5983 176.914 37.7242 178.357 37.8004 179.797C37.8856 181.25 37.9262 182.711 38.4611 183.987C39.1554 185.65 40.527 186.714 42.3643 187.558C43.2661 187.97 44.2487 188.297 45.2758 188.581C46.287 188.864 47.3367 189.105 48.3995 189.345C52.6059 190.295 56.8841 191.309 58.603 194.821C59.1399 195.962 59.3239 197.219 59.4608 198.48C59.5129 199.036 59.5545 199.592 59.6097 200.14H96.8381C97.8948 198.905 98.933 197.511 99.877 196.026C102.147 192.492 103.764 188.558 104.186 185.46C104.451 183.441 104.532 181.344 104.324 179.155C104.213 178.079 104.018 177.011 103.739 175.923C103.457 174.844 103.092 173.728 102.605 172.69C100.692 168.39 96.7854 164.556 92.5314 163.503C91.0099 163.144 89.5065 163.111 88.0201 163.068C86.5327 163.046 85.0614 162.997 83.5986 162.559C79.1039 161.275 76.3041 157.144 73.398 153.178C72.6772 152.196 71.9513 151.216 71.2008 150.296C70.4559 149.391 69.6849 148.542 68.8647 147.799C67.2556 146.336 65.2829 145.21 62.82 144.902C60.9246 144.668 59.1304 145.041 57.3453 145.425C55.5446 145.809 53.7654 146.198 51.7256 146.002C50.1039 145.847 48.5443 145.379 46.9632 144.737C46.1752 144.414 45.3686 144.057 44.559 143.668C43.7469 143.303 42.9312 142.907 42.1066 142.494C38.8286 140.903 35.3881 139.314 31.9612 138.858C27.6349 138.291 23.4806 139.669 21.1701 142.15C20.2066 143.138 19.5123 144.323 18.7448 145.423C17.9763 146.519 17.1586 147.561 16.0026 148.33C13.2129 150.173 9.45758 149.82 6.13794 150.38C1.2056 151.219 -2.01729 158.289 2.11547 161.48C4.11317 163.024 6.68336 162.843 9.26859 162.616C11.8523 162.382 14.4782 162.115 16.4498 163.419C17.5146 164.114 18.2445 165.129 18.8766 166.231C19.5093 167.329 20.0682 168.483 20.7364 169.521C22.4394 172.023 24.8732 173.707 27.1677 174.038C28.9869 174.307 30.8708 173.821 32.6404 173.744Z" fill="#9CD3BE"/>
<path d="M39.9957 159.751C43.2532 161.002 46.3593 162.651 49.3616 164.485C52.3654 166.317 55.296 168.314 58.2327 170.289C61.1573 172.281 64.0558 174.308 66.9018 176.404C69.7346 178.515 72.548 180.655 75.245 182.931C76.6186 184.04 77.9179 185.233 79.2524 186.386C80.5348 187.595 81.8597 188.76 83.0914 190.02C84.5247 191.398 85.8671 192.862 87.2267 194.31L89.1778 196.559L89.6655 197.121L90.1287 197.703L91.9816 200.031L92.0603 200.14H93.7968L93.0188 199.07C90.8245 196.247 88.498 193.53 86.018 190.961C83.519 188.415 80.9503 185.933 78.2368 183.623C77.5715 183.03 76.8908 182.455 76.2015 181.892L74.1411 180.191C72.741 179.092 71.3574 177.971 69.9286 176.911C64.2559 172.607 58.3771 168.623 52.4211 164.736C49.4248 162.813 46.3342 160.984 43.0542 159.502C41.4174 158.76 39.7345 158.099 38.008 157.582C36.2931 157.029 34.539 156.617 32.7779 156.26C24.7921 154.739 16.6539 154.975 8.67015 155.59C7.69862 155.664 7.81443 157.07 8.77894 156.995C15.8173 156.457 22.9052 156.221 29.8553 157.192C33.3233 157.687 36.7297 158.531 39.9957 159.751Z" fill="#568691"/>
<path d="M26.3395 167.278C31.5355 164.456 37.3917 162.805 43.9724 163.656C45.8392 163.873 47.7276 164.258 49.611 164.746C50.5345 164.986 50.9235 163.626 49.9785 163.376C46.5992 162.494 43.1552 161.972 39.8812 162.044C36.6087 162.125 33.5212 162.774 30.6176 163.832C28.9518 164.444 27.3596 165.169 25.8141 166.013C25.0712 166.422 25.6061 167.692 26.3395 167.278Z" fill="#568691"/>
<path d="M48.4839 176.318C55.1368 176.71 61.753 177.786 68.2113 179.803C69.1402 180.085 70.0556 180.395 70.964 180.73C71.8728 181.063 72.7942 181.396 73.6936 181.769C74.5734 182.137 75.1368 180.835 74.2415 180.457C67.7641 177.841 61.0697 176.237 54.3347 175.411C52.3971 175.185 50.4616 174.996 48.5406 174.896C47.6227 174.856 47.5485 176.263 48.4839 176.318Z" fill="#568691"/>
<path d="M71.0376 193.064C77.3089 194.112 83.5251 196.189 89.2114 199.651C89.4801 199.807 89.7413 199.975 90.0045 200.14H92.5531C87.6328 196.727 82.2904 194.332 76.7936 192.874C75.8807 192.632 74.9723 192.41 74.069 192.205C73.1481 192.012 72.2242 191.842 71.3098 191.685C70.427 191.536 70.1548 192.92 71.0376 193.064Z" fill="#568691"/>
<path d="M27.5975 146.24C30.862 148.24 34.0834 150.339 37.0988 152.62L38.2212 153.469L39.3175 154.363L40.3953 155.246L41.4426 156.158C42.8162 157.385 44.1025 158.646 45.3327 159.92C46.7399 161.381 48.0809 162.85 49.3968 164.331C50.0309 165.048 51.0917 164.103 50.4475 163.38C48.1485 160.804 45.7809 158.205 43.0708 155.701C40.3572 153.185 37.2873 150.844 34.1215 148.685C33.2081 148.078 32.2923 147.469 31.3744 146.859C30.4479 146.275 29.519 145.69 28.5876 145.104C27.6632 144.549 26.6882 145.691 27.5975 146.24Z" fill="#568691"/>
<path d="M59.4686 158.317C62.7 164.526 66.377 170.523 70.2145 176.367C71.3234 178.022 72.4123 179.705 73.5422 181.326C74.0726 182.13 75.2426 181.332 74.7072 180.526C70.8417 174.822 67.0363 168.987 63.6234 162.948C62.6463 161.223 61.7094 159.496 60.795 157.735C60.3443 156.869 59.0008 157.448 59.4686 158.317Z" fill="#568691"/>
<path d="M88.2582 186.793C88.5941 187.617 88.9029 188.47 89.2197 189.309C89.5396 190.142 89.8584 190.973 90.1772 191.803C90.4825 192.64 90.7878 193.476 91.0921 194.311L91.5573 195.545L91.989 196.801C92.3228 197.747 92.6557 198.691 92.9881 199.633C93.0432 199.804 93.1009 199.97 93.1565 200.14H94.6499C92.6296 194.181 90.3362 188.129 87.972 182.063C87.2316 180.155 86.4871 178.239 85.7387 176.311C85.3692 175.36 83.9575 175.745 84.321 176.688C85.6464 180.09 86.9579 183.456 88.2582 186.793Z" fill="#568691"/>
<path d="M150.78 200.14H199.741C199.771 200.094 199.796 200.044 199.826 199.998C200.383 199.181 201.087 198.451 201.874 197.773C203.458 196.425 205.357 195.277 207.308 194.213C209.249 193.14 211.11 192.045 212.638 190.772C214.166 189.498 215.288 187.985 215.659 185.959C216.268 182.879 214.71 179.649 215.557 176.535C216.253 174.084 218.21 172.492 220.383 171.043C222.595 169.628 225.07 168.404 226.869 166.59C228.034 165.476 228.924 164.095 229.494 162.589C230.061 161.082 230.309 159.453 230.207 157.884C230.026 155.316 228.897 152.77 229.58 150.191C229.981 148.617 231.01 147.383 232.198 146.221C233.396 145.07 234.744 143.981 235.936 142.842C237.705 141.148 238.313 138.369 237.851 135.947C237.384 133.527 235.836 131.474 233.17 131.328C231.884 131.258 230.695 131.645 229.559 132.272C228.427 132.904 227.33 133.754 226.285 134.686C225.23 135.606 224.181 136.553 223.079 137.317C221.975 138.08 220.82 138.661 219.575 138.886C216.869 139.354 214.407 138.007 211.738 137.679C210.087 137.467 208.362 137.706 206.712 138.306C205.06 138.902 203.48 139.857 202.157 141.097C200.105 143.113 198.616 145.793 197.03 148.221C195.478 150.687 193.777 152.856 191.203 153.915C187.99 155.277 184.472 154.158 181.163 155.447C179.037 156.308 177.477 157.895 176.223 159.838C174.966 161.781 174.089 164.14 173.195 166.477C172.29 168.806 171.5 171.217 170.388 173.292C169.837 174.333 169.208 175.294 168.474 176.149C167.757 177.015 166.926 177.768 165.939 178.372C163.381 179.942 160.35 180.011 157.703 181.395C155.844 182.358 154.23 183.887 153.012 185.718C151.811 187.561 150.966 189.677 150.555 191.759C150.134 193.834 150.167 195.932 150.402 197.931C150.494 198.679 150.628 199.413 150.78 200.14Z" fill="#9CD3BE"/>
<path d="M176.325 200.14C178.84 196.483 181.415 192.868 184.096 189.331C192.861 177.768 202.408 166.791 212.739 156.599L214.915 154.434L217.145 152.325L219.375 150.215L220.491 149.162L221.632 148.136L226.199 144.034L230.866 140.045C231.62 139.401 230.719 138.316 229.959 138.966L225.803 142.518C224.419 143.703 223.085 144.946 221.724 146.157L219.691 147.986C219.019 148.601 218.365 149.235 217.7 149.858L213.734 153.621C208.529 158.724 203.474 163.98 198.617 169.415C189.984 179.145 181.936 189.397 174.602 200.141H176.325V200.14Z" fill="#568691"/>
<path d="M208.394 144.295C207.818 145.982 207.244 147.662 206.672 149.335C206.084 151.012 205.469 152.672 204.826 154.314C204.191 155.964 203.563 157.631 202.887 159.26C202.221 160.898 201.501 162.493 200.816 164.129C200.016 165.985 199.178 167.814 198.306 169.619C197.887 170.51 199.169 171.104 199.598 170.219C201.145 167.036 202.532 163.727 203.933 160.459C204.624 158.817 205.269 157.138 205.918 155.471C206.577 153.816 207.208 152.141 207.81 150.448C208.147 149.478 208.485 148.506 208.823 147.531C209.165 146.567 209.498 145.597 209.822 144.622C210.135 143.677 208.713 143.344 208.394 144.295Z" fill="#568691"/>
<path d="M186.752 167.15C186.347 168.886 185.943 170.615 185.541 172.336C185.123 174.063 184.677 175.777 184.201 177.475C183.734 179.18 183.275 180.9 182.765 182.588C182.266 184.284 181.709 185.944 181.189 187.64C180.579 189.566 179.927 191.47 179.239 193.352C178.912 194.281 180.246 194.745 180.584 193.821C181.807 190.499 182.857 187.069 183.925 183.678C184.449 181.974 184.923 180.24 185.403 178.517C185.893 176.803 186.354 175.074 186.784 173.33C187.023 172.331 187.262 171.331 187.501 170.327C187.745 169.333 187.978 168.335 188.203 167.333C188.422 166.362 186.973 166.172 186.752 167.15Z" fill="#568691"/>
<path d="M167.856 200.14C167.957 199.492 168.059 198.844 168.152 198.193C168.289 197.175 168.428 196.156 168.566 195.133C168.709 194.12 168.842 193.104 168.966 192.084C169.086 191.096 167.626 191.051 167.503 192.047C167.273 193.815 167.044 195.575 166.816 197.328C166.686 198.269 166.546 199.206 166.398 200.14H167.856V200.14Z" fill="#568691"/>
<path d="M223.5 159.011C220.15 159.794 216.9 160.874 213.626 162.09C211.978 162.687 210.407 163.401 208.801 164.117C207.213 164.851 205.595 165.593 204.051 166.438C202.275 167.397 200.512 168.411 198.764 169.475C197.913 169.991 198.67 171.202 199.503 170.683C201.005 169.771 202.518 168.899 204.039 168.066C204.802 167.651 205.56 167.24 206.332 166.851C207.113 166.469 207.895 166.097 208.679 165.735C210.246 165.012 211.82 164.331 213.398 163.693C215.001 163.079 216.614 162.514 218.226 161.99C219.147 161.69 220.069 161.406 220.99 161.136C221.916 160.87 222.86 160.639 223.793 160.409C224.714 160.188 224.421 158.788 223.5 159.011Z" fill="#568691"/>
<path d="M203.252 180.284C199.996 181.398 196.871 182.797 193.734 184.334C192.153 185.092 190.661 185.959 189.134 186.832C187.627 187.72 186.091 188.62 184.639 189.615C182.968 190.746 181.315 191.931 179.682 193.163C178.886 193.762 179.76 194.891 180.537 194.291C181.94 193.235 183.359 192.216 184.79 191.236C185.508 190.747 186.221 190.262 186.951 189.798C187.689 189.34 188.43 188.892 189.174 188.454C190.662 187.579 192.16 186.744 193.667 185.951C195.2 185.18 196.749 184.457 198.3 183.775C199.187 183.385 200.076 183.01 200.966 182.649C201.86 182.292 202.777 181.967 203.683 181.647C204.577 181.334 204.146 179.97 203.252 180.284Z" fill="#568691"/>
<path d="M99.3103 143.03C97.0028 140.401 94.0847 139.055 91.9175 136.352C85.3309 128.045 90.1499 113.27 82.4263 106.285C80.9119 104.899 79.1538 104.09 77.4052 103.294C75.6547 102.494 73.8896 101.68 72.2393 100.192C69.618 97.8323 67.908 94.4921 65.8592 90.8321C63.8189 87.1992 61.5379 83.4735 58.5627 80.7333C58.095 80.3037 57.6102 79.8926 57.1139 79.5051C56.6126 79.1402 56.0998 78.7973 55.5799 78.4784C55.0596 78.1621 54.5342 77.8598 54.0033 77.6022C53.4709 77.3545 52.9365 77.1324 52.4036 76.9374C51.8708 76.7424 51.3399 76.5745 50.815 76.4351C50.2886 76.3128 49.7678 76.2186 49.257 76.1524C48.2343 76.0281 47.2532 75.988 46.3333 76.1278C44.839 76.3379 43.493 76.8256 42.1259 77.2382C40.7558 77.6683 39.3697 77.9782 37.7956 77.8644C34.0047 77.5781 30.447 74.8991 26.8025 73.2829C21.3844 70.8907 14.2117 74.7883 16.5959 80.0215C17.7444 82.5541 20.4324 84.0033 23.141 85.4466C25.848 86.8838 28.6177 88.3351 29.8449 90.6973C30.5096 91.9661 30.647 93.296 30.6781 94.6145C30.6941 95.9419 30.5643 97.2814 30.6696 98.5773C30.7438 99.3703 30.8525 100.177 31.0676 100.94C31.1719 101.323 31.2957 101.699 31.4381 102.065C31.5644 102.437 31.7088 102.8 31.8707 103.15C32.0326 103.5 32.2121 103.838 32.4091 104.163C32.5961 104.491 32.7831 104.811 32.9961 105.112C33.2072 105.415 33.4353 105.701 33.6804 105.97C33.9035 106.247 34.1436 106.507 34.4013 106.749C36.021 108.276 38.126 109.273 39.874 110.604C41.597 111.919 43.0909 113.74 43.1315 116.239C43.1581 117.811 42.569 119.291 41.9424 120.782C41.3178 122.275 40.6526 123.744 40.5458 125.441C40.0715 134.525 53.894 140.776 53.4629 150.019C53.3426 152.994 51.6231 155.417 51.0637 158.184C50.253 162.058 51.6281 166.134 53.9983 169.152C56.3053 172.148 59.5528 174.291 62.8433 176.168C64.0765 176.873 65.3609 177.618 66.6818 178.343C68.0028 179.067 69.2921 179.766 70.6456 180.379C73.3377 181.599 76.1224 182.474 78.8861 182.284C81.6804 182.092 85.582 180.721 89.2741 178.612C91.1129 177.563 92.9387 176.322 94.4817 175.016C96.0257 173.712 97.3542 172.327 98.3107 170.986C100.823 167.452 102.905 163.147 103.428 157.948C103.911 152.794 102.523 146.725 99.3103 143.03Z" fill="#B3E2D1"/>
<path d="M25.7734 80.4587C33.1246 84.4355 40.2792 88.8726 46.34 94.5714L46.9114 95.1003L47.4579 95.6537L48.5502 96.7616C49.2701 97.5076 49.9383 98.3006 50.6351 99.0671C51.2793 99.8772 51.9425 100.674 52.5682 101.498C53.1858 102.329 53.7863 103.173 54.3523 104.043C56.6433 107.504 58.5452 111.225 60.3148 115.01C62.0679 118.806 63.7398 122.662 65.381 126.518C67.0278 130.375 68.5979 134.26 70.0938 138.173C71.5947 142.084 72.9708 146.039 74.2627 150.019C74.5815 151.015 74.8742 152.019 75.1815 153.019C75.4888 154.019 75.7926 155.02 76.0588 156.03L76.8895 159.055L77.6349 162.1C79.8382 171.265 81.1145 180.666 81.0488 190.078C81.0563 191.216 82.466 191.252 82.4585 190.09L82.4379 186.918C82.4389 185.86 82.3447 184.806 82.3021 183.75C82.2329 181.636 81.9818 179.536 81.7938 177.432C81.6825 176.381 81.5191 175.337 81.3842 174.29C81.2473 173.243 81.106 172.196 80.9105 171.158L80.3686 168.038L79.7239 164.938L79.399 163.389L79.0256 161.852L78.2751 158.778C77.7026 156.748 77.1933 154.7 76.5551 152.691C75.37 148.644 73.9744 144.666 72.5502 140.703C69.6336 132.799 66.3581 125.046 62.9367 117.364C61.2207 113.522 59.4045 109.698 57.2579 106.037C55.1113 102.382 52.5792 98.9102 49.628 95.8473C46.3029 92.3898 42.6037 89.3107 38.6665 86.6132C34.7373 83.8996 30.6275 81.4763 26.4457 79.2195C25.431 78.6715 24.7658 79.9148 25.7734 80.4587Z" fill="#568691"/>
<path d="M37.3529 100.524C40.6505 101.152 43.9125 102.202 47.0225 103.815C50.1532 105.383 53.1134 107.685 55.8761 110.407C57.4517 111.965 58.9616 113.654 60.4039 115.423C61.1097 116.291 62.1565 115.303 61.4371 114.42C58.8534 111.264 56.043 108.329 53.0046 105.957C51.4797 104.774 49.9361 103.723 48.3019 102.869L47.1018 102.229C46.6942 102.029 46.2721 101.846 45.8625 101.661L44.6353 101.13C44.2193 100.965 43.7906 100.815 43.3735 100.665C42.8928 100.495 42.4211 100.329 41.9438 100.176L40.481 99.7655C39.5305 99.4943 38.5299 99.2913 37.5594 99.1018C36.6265 98.9233 36.425 100.357 37.3529 100.524Z" fill="#568691"/>
<path d="M53.573 125.485C59.3836 130.42 64.8132 135.973 69.5756 142.279C70.9041 144.09 72.2456 145.941 73.4577 147.87C74.0623 148.813 75.2113 147.949 74.5992 146.99C70.1942 140.124 64.9626 134.045 59.3064 128.651C57.6957 127.108 56.0173 125.621 54.3344 124.185C53.5198 123.492 52.7548 124.79 53.573 125.485Z" fill="#568691"/>
<path d="M65.4725 156.957C70.5508 162.285 74.9282 168.508 78.1952 175.614L78.8915 177.147C79.1186 177.662 79.3101 178.184 79.5176 178.708C79.9217 179.757 80.3267 180.82 80.7037 181.899C81.0306 182.959 82.3876 182.409 82.0201 181.325C79.3672 173.574 75.4204 166.646 70.6756 160.689C69.2709 158.987 67.9079 157.352 66.3929 155.798C65.6736 155.048 64.7517 156.209 65.4725 156.957Z" fill="#568691"/>
<path d="M50.2917 83.8699C52.312 87.768 54.1678 91.78 55.6612 95.8581C57.1917 99.9367 58.2289 104.028 59.0786 108.031C59.5644 110.328 59.993 112.612 60.4226 114.893C60.6261 115.999 62.0594 115.862 61.8553 114.75C61.1179 110.788 60.379 106.801 59.3333 102.73C58.3091 98.6659 56.8463 94.488 55.1008 90.445C54.0961 88.1435 53.0198 85.844 51.8713 83.6142C51.2974 82.5068 49.7293 82.7775 50.2917 83.8699Z" fill="#568691"/>
<path d="M72.5093 116.195C72.2957 124.156 72.58 132.275 73.0808 140.382L73.2973 143.866C73.3826 145.023 73.4688 146.181 73.539 147.344C73.6142 148.467 75.0554 148.492 74.9777 147.366C74.4213 139.327 73.9581 131.274 73.9164 123.326C73.9084 121.051 73.9315 118.793 73.9911 116.547C74.0212 115.436 72.5404 115.089 72.5093 116.195Z" fill="#568691"/>
<path d="M85.4118 150.102C85.1401 152.142 84.8689 154.179 84.5977 156.214C84.3435 158.247 84.0297 160.306 83.7941 162.331C83.2041 166.422 82.6912 170.478 82.03 174.522C81.7052 176.828 81.2685 179.132 80.9056 181.411C80.7116 182.512 82.0726 182.899 82.3007 181.783C83.6969 173.83 84.8007 165.712 85.9081 157.601C86.2234 155.292 86.5388 152.982 86.8546 150.668C87.004 149.531 85.5612 148.974 85.4118 150.102Z" fill="#568691"/>
<path d="M196.279 165.889C195.72 163.122 194 160.7 193.88 157.724C193.449 148.481 207.272 142.231 206.797 133.146C206.69 131.448 206.025 129.981 205.4 128.487C204.774 126.996 204.185 125.517 204.211 123.944C204.251 121.446 205.746 119.624 207.469 118.309C209.217 116.978 211.322 115.981 212.941 114.454C213.2 114.212 213.439 113.952 213.662 113.675C213.908 113.406 214.136 113.119 214.347 112.818C214.56 112.516 214.747 112.196 214.934 111.868C215.131 111.544 215.31 111.205 215.472 110.855C215.634 110.504 215.778 110.143 215.905 109.771C216.047 109.405 216.171 109.029 216.275 108.646C216.49 107.883 216.599 107.076 216.673 106.282C216.778 104.987 216.649 103.647 216.665 102.32C216.696 101.002 216.833 99.6713 217.498 98.4025C219.105 95.3109 223.034 93.7774 226.253 91.7772C231.051 88.8015 232.269 80.7059 226.575 79.5749C223.834 79.0355 220.998 80.4126 218.146 81.9978C215.29 83.5819 212.458 85.3495 209.547 85.5696C207.972 85.6829 206.586 85.3735 205.216 84.9434C203.849 84.5304 202.503 84.0431 201.009 83.8325C200.089 83.6932 199.108 83.7333 198.085 83.8571C197.574 83.9228 197.054 84.0175 196.527 84.1398C196.002 84.2792 195.471 84.4471 194.939 84.6421C194.406 84.8372 193.871 85.0592 193.339 85.3069C192.808 85.5645 192.283 85.8668 191.762 86.1832C191.242 86.502 190.73 86.8449 190.228 87.2098C189.732 87.5973 189.248 88.0084 188.779 88.438C185.804 91.1782 183.523 94.9039 181.483 98.5368C179.435 102.197 177.724 105.537 175.103 107.897C173.453 109.385 171.687 110.199 169.937 110.998C168.188 111.794 166.43 112.604 164.916 113.99C157.192 120.974 162.011 135.749 155.425 144.056C153.258 146.759 150.34 148.105 148.032 150.734C144.82 154.429 143.431 160.499 143.914 165.654C144.437 170.853 146.518 175.157 149.031 178.691C149.987 180.032 150.99 181.371 152.043 182.624C153.096 183.877 154.266 185.062 155.448 186.068C157.826 188.09 160.411 189.43 163.205 189.622C165.969 189.812 170.071 188.968 174.076 187.836C176.086 187.266 178.031 186.622 179.843 185.95C181.655 185.277 183.265 184.578 184.498 183.873C187.789 181.997 191.036 179.853 193.343 176.857C195.715 173.839 197.09 169.763 196.279 165.889Z" fill="#B3E2D1"/>
<path d="M220.894 86.9231C213.497 90.926 206.236 95.4182 200.032 101.249L199.448 101.79L198.887 102.357L197.769 103.492C197.031 104.257 196.343 105.071 195.629 105.858C194.966 106.691 194.285 107.51 193.642 108.357C193.007 109.212 192.39 110.079 191.81 110.97C189.463 114.517 187.532 118.299 185.747 122.118C183.978 125.948 182.309 129.799 180.66 133.671C179.009 137.539 177.432 141.442 175.928 145.374C174.42 149.305 173.035 153.285 171.734 157.294C171.412 158.297 171.117 159.31 170.808 160.317C170.498 161.324 170.192 162.333 169.923 163.353L169.086 166.403L168.333 169.476C166.11 178.728 164.815 188.244 164.881 197.793C164.874 198.952 166.284 198.921 166.292 197.781L166.312 194.654C166.31 193.611 166.404 192.571 166.445 191.529C166.513 189.443 166.762 187.37 166.947 185.292C167.057 184.254 167.219 183.222 167.352 182.188C167.488 181.153 167.627 180.118 167.821 179.092L168.356 176.006L168.995 172.938L169.316 171.405L169.686 169.881L170.429 166.836C170.997 164.823 171.502 162.794 172.135 160.799C173.311 156.784 174.697 152.832 176.113 148.892C179.013 141.034 182.278 133.305 185.69 125.643C187.398 121.819 189.193 118.044 191.297 114.456C193.403 110.872 195.854 107.511 198.734 104.522C201.977 101.15 205.598 98.1328 209.476 95.4759C213.346 92.8034 217.411 90.4052 221.566 88.1628C222.572 87.6189 221.91 86.3742 220.894 86.9231Z" fill="#568691"/>
<path d="M195.471 91.3229C193.472 95.2446 191.643 99.2886 190.173 103.405C188.655 107.516 187.66 111.628 186.817 115.628C186.339 117.921 185.908 120.192 185.488 122.457C185.285 123.566 186.718 123.707 186.921 122.599C187.669 118.614 188.419 114.623 189.482 110.564C190.018 108.544 190.618 106.476 191.369 104.456L191.916 102.916C192.108 102.407 192.316 101.911 192.517 101.404L193.128 99.8757L193.786 98.3783L194.552 96.6487L195.364 94.9548C195.9 93.8008 196.476 92.704 197.05 91.579C197.613 90.4867 196.046 90.214 195.471 91.3229Z" fill="#568691"/>
<path d="M173.357 124.253C173.572 132.117 173.312 140.144 172.817 148.176C172.706 150.485 172.509 152.766 172.37 155.071C172.293 156.196 173.733 156.175 173.809 155.05C174.369 146.949 174.868 138.81 174.91 130.77C174.916 128.462 174.905 126.186 174.839 123.901C174.808 122.796 173.327 123.141 173.357 124.253Z" fill="#568691"/>
<path d="M160.491 158.373C161.585 166.432 162.666 174.598 163.921 182.631L164.178 184.349C164.264 184.921 164.379 185.497 164.475 186.068L165.046 189.487C165.274 190.601 166.636 190.217 166.441 189.114C165.059 181.146 163.948 172.967 162.861 164.799C162.591 162.481 162.222 160.12 161.935 157.807C161.786 156.68 160.342 157.234 160.491 158.373Z" fill="#568691"/>
<path d="M209.786 106.81C206.369 107.453 202.981 108.535 199.742 110.204C196.493 111.839 193.416 114.191 190.567 116.986C188.938 118.584 187.392 120.319 185.909 122.126C185.192 123.008 186.236 123.998 186.943 123.129C189.467 120.036 192.195 117.179 195.129 114.875C198.061 112.553 201.166 110.904 204.387 109.742C206.24 109.088 208.094 108.583 209.992 108.231C210.92 108.065 210.72 106.631 209.786 106.81Z" fill="#568691"/>
<path d="M193.016 131.891C187.106 136.908 181.592 142.568 176.728 148.991C176.028 149.908 175.368 150.849 174.697 151.797C174.026 152.745 173.372 153.709 172.752 154.695C172.141 155.652 173.288 156.519 173.894 155.575C178.212 148.844 183.321 142.876 188.894 137.576C190.481 136.061 192.115 134.602 193.778 133.19C194.596 132.496 193.832 131.197 193.016 131.891Z" fill="#568691"/>
<path d="M180.959 163.504C179.637 164.861 178.433 166.282 177.206 167.754C175.987 169.226 174.879 170.764 173.74 172.349C171.588 175.533 169.559 178.94 167.916 182.58C166.922 184.657 166.123 186.815 165.332 189.029C164.965 190.111 166.321 190.664 166.648 189.603C169.219 182.043 173.079 175.284 177.711 169.45C178.355 168.614 179.073 167.801 179.759 167.003C180.462 166.205 181.134 165.424 181.879 164.663C182.6 163.915 181.679 162.752 180.959 163.504Z" fill="#568691"/>
<path d="M186.93 112.469H58.8361C56.2278 112.469 54.1133 114.583 54.1133 117.192V191.73C54.1133 194.339 56.2278 196.453 58.8361 196.453H186.93C189.538 196.453 191.652 194.339 191.652 191.73V117.192C191.652 114.583 189.538 112.469 186.93 112.469Z" fill="#507C96"/>
<path d="M49.3267 203.089H196.433C197.625 203.089 198.793 202.755 199.804 202.124L202.807 200.249H42.9531L45.9559 202.124C46.9671 202.754 48.1351 203.089 49.3267 203.089Z" fill="#507C96"/>
<path d="M138.833 195.621V197.653H106.927V195.621H42.9531V200.25H202.807V195.621H138.833Z" fill="#7DA3B5"/>
<path d="M138.831 195.62H106.926V197.653H138.831V195.62Z" fill="#507C96"/>
<path d="M184.166 117.145H61.5949C59.8359 117.145 58.4102 118.634 58.4102 120.47V187.922C58.4102 189.757 59.8359 191.246 61.5949 191.246H184.166C185.925 191.246 187.35 189.757 187.35 187.922V120.47C187.35 118.634 185.925 117.145 184.166 117.145Z" fill="#A3D3E2"/>
<path d="M90.6852 153.214C91.5099 153.489 108.276 163.109 108.276 163.109L105.527 175.477L84.3633 163.659L90.6852 153.214Z" fill="#F4A062"/>
<path d="M182.512 51.7676C182.512 51.7676 198.152 50.7329 199.074 70.2427L183.043 71.5977L182.512 51.7676Z" fill="#18424C"/>
<path d="M173.695 20.6957C177.431 23.7116 180.925 27.1114 184.661 30.1273C186.943 31.9691 189.26 33.8319 191.943 35.015C193.068 33.7693 194.321 32.9406 195.357 31.6197C195.968 30.8401 196.313 29.5007 196.425 28.5166C192.617 23.3622 188.81 18.2083 185.002 13.0538C182.571 13.3381 180.085 13.5155 178.06 14.8891C177.774 14.658 177.312 14.3833 177.025 14.1517C175.923 14.8766 174.725 15.5328 173.918 16.577C173.112 17.6212 173.258 19.451 173.695 20.6957Z" fill="#E1F1FF"/>
<path d="M182.293 52.776C182.293 52.776 187.315 43.0386 187.523 42.623C187.731 42.2075 187.523 40.6484 188.354 36.284C189.185 31.9192 189.896 25.7466 193.49 29.4563C193.49 29.4563 196.044 25.7877 198.331 28.9053C200.617 32.0229 201.328 33.6056 201.328 33.6056C201.328 33.6056 202.488 34.6207 201.968 35.6599C201.449 36.6991 201.76 40.6479 198.227 43.9735C194.694 47.2987 193.029 48.1289 193.029 48.1289L187.449 63.8543C187.449 63.8543 183.402 60.0193 182.293 52.776Z" fill="#F4A062"/>
<path d="M193.929 30.6899C194.189 31.1922 194.45 31.6945 194.711 32.1968C194.997 32.7477 195.286 33.3072 195.415 33.9143C195.544 34.5214 195.497 35.1926 195.149 35.7064C194.801 36.2203 194.108 36.5211 193.529 36.298C193.212 36.1762 192.967 35.9235 192.733 35.6784C192.27 35.1946 191.807 34.7103 191.344 34.2266C192.323 36.7747 191.723 40.0518 189.848 42.0364C191.595 40.8343 192.771 39.0276 192.869 36.9096C193.4 37.448 194.625 37.5262 195.253 37.1051C195.882 36.684 196.223 35.9195 196.269 35.164C196.315 34.4086 196.1 33.6596 195.807 32.9618C195.447 32.1051 194.511 31.4138 193.929 30.6899Z" fill="#CE814D"/>
<path d="M196.561 36.6123C196.142 36.5296 195.762 36.2669 195.537 35.904C195.374 36.2639 195.399 36.7407 195.701 36.9943C196.004 37.248 196.582 37.0951 196.621 36.7021" fill="#CE814D"/>
<path d="M190.773 27.9424C187.015 24.0808 183.258 20.2188 179.5 16.3567C180.323 16.1176 181.271 16.6821 181.932 17.228C185.583 20.2464 189.247 23.4572 190.773 27.9424Z" fill="#81B0D3"/>
<path d="M202.072 34.5049C200.991 34.8027 199.928 35.1641 198.89 35.5872C198.435 35.7727 197.979 35.9727 197.584 36.266C196.937 36.7462 196.491 37.4465 196.113 38.1579C195.79 38.7665 195.497 39.4322 195.559 40.1185C199.36 43.3514 202.82 47.0295 206.114 50.7983C206.961 51.7673 208.375 52.0531 209.51 51.4465C209.517 51.443 209.523 51.4395 209.529 51.436C210.884 50.7091 212.266 49.9616 213.312 48.8352C214.358 47.7083 215.027 46.1131 214.659 44.6197C210.404 41.5146 205.924 38.0987 202.072 34.5049Z" fill="#E1F1FF"/>
<path d="M214.005 44.9506C212.864 45.3316 211.714 45.7768 210.806 46.5663C209.727 47.5053 209.092 48.8412 208.486 50.1371C205.314 46.0435 201.306 43.0993 197.895 39.0096C202.298 41.4079 204.935 44.0543 207.956 47.7659C207.956 47.7659 210.721 43.8277 214.005 44.9506Z" fill="#81B0D3"/>
<path d="M130.52 94.1445L140.098 92.4721L166.351 82.6435L182.511 51.7676C182.511 51.7676 185.178 67.9468 199.074 70.2427L177.373 100.555L145.339 128.112L130.52 94.1445Z" fill="#1D4E5B"/>
<path d="M91.5696 175.261C91.5696 175.261 95.9545 156.442 104.359 156.077C104.359 156.077 87.0779 138.969 82.6929 135.315C82.6929 135.315 94.0209 129.286 97.1265 125.084C97.1265 125.084 113.388 154.015 98.1356 191.257H163.699C162.059 181.7 155.768 145.325 152.227 128.8C152.227 128.8 151.783 92.0271 118.686 93.6583C118.686 93.6583 110.281 92.7449 93.2895 102.976L66.0667 122.525C66.0667 122.525 54.3732 130.016 59.1236 143.354C63.8744 156.692 91.5696 175.261 91.5696 175.261Z" fill="#1D4E5B"/>
<path d="M118.89 92.5717C118.89 92.5717 109.259 94.7419 104.918 97.1837L125.13 146.695L140.924 92.6414C140.924 92.6414 131.457 91.1164 118.89 92.5717Z" fill="#FFAE43"/>
<path d="M113.266 97.3925C113.266 97.3925 121.765 122.339 123.983 128.696C123.983 128.696 128.713 110.365 133.474 97.6577L113.266 97.3925Z" fill="#DEFCFF"/>
<path d="M127.301 47.7355C126.392 47.3008 124.839 47.1539 123.868 47.4211C113.949 50.1522 106.107 55.8481 99.0039 63.4208C99.3829 64.1702 99.5569 64.6625 100.101 65.3017C102.781 68.4479 105.56 71.5424 108.801 74.1066C113.236 77.6162 118.5 80.0721 124.039 81.2171C124.126 80.1303 126.17 80.9043 127.203 80.5559C136.029 77.5771 142.464 70.7153 148.673 63.7918C148.885 63.5551 148.864 63.1862 148.626 62.9741C142.057 57.1079 135.304 51.5634 127.301 47.7355Z" fill="#1D4E5B"/>
<path d="M113.298 64.3588C115.079 57.7641 124.675 57.6167 129.596 58.9296C131.996 59.5698 135.772 61.6076 136.011 64.2916C136.401 68.6585 134.966 69.9087 132.427 70.3444C129.351 70.8722 126.432 68.854 123.333 68.4785C122.008 68.3176 120.662 68.4715 119.384 68.8445C118.221 69.1838 116.933 70.2727 115.761 70.3775C113.402 70.5895 112.872 65.9349 113.298 64.3588Z" fill="#275468"/>
<path d="M112.956 72.3213C112.861 71.1774 113.129 69.9547 113.915 69.118C114.452 68.5455 115.224 68.1475 115.511 67.4171C115.695 66.9494 115.642 66.428 115.623 65.9262C115.567 64.5205 115.841 63.0106 116.82 62.0005C117.667 61.1262 118.939 60.7547 120.156 60.7918C121.374 60.8289 122.55 61.234 123.665 61.7238C124.618 62.1423 125.583 62.6351 126.624 62.6452C128.102 62.6592 129.476 61.6927 130.95 61.7949C132.362 61.8927 133.613 63.1023 133.76 64.509C133.794 64.8349 133.776 65.1687 133.862 65.4851C134.14 66.5067 135.321 66.9303 136.123 67.6221C136.824 68.2272 137.269 69.12 137.33 70.0444C137.438 71.6711 136.406 73.1701 135.176 74.2408C133.947 75.3116 132.489 76.0997 131.289 77.2036C131.019 77.4522 130.756 77.7209 130.424 77.8783C130.147 78.0097 129.837 78.0543 129.532 78.0833C127.656 78.2598 125.774 77.8838 123.89 77.8693C122.556 77.8593 121.215 78.0302 119.89 77.8728C118.17 77.6688 116.58 76.9233 115.073 76.1077C114.39 75.7382 113.907 75.6099 113.608 74.883C113.276 74.0749 113.028 73.1941 112.956 72.3213Z" fill="#3E7593"/>
<path d="M133.474 97.6573C132.054 99.3567 130.49 100.957 128.556 102.015C125.995 103.416 122.871 103.75 120.072 102.922C117.273 102.093 114.652 99.9618 113.266 97.3926C114.451 95.7498 115.641 94.0995 116.573 92.3004C117.505 90.5012 118.163 88.2844 118.236 86.2596C117.838 85.8325 117.436 85.4009 117.143 84.8961C116.704 84.1361 116.536 83.2538 116.383 82.3896C116.25 81.6316 116.187 80.7137 116.067 79.9532C115.825 80.463 115.251 80.7789 114.688 80.7633C114.124 80.7478 113.59 80.4259 113.265 79.9652C112.99 79.5762 112.858 79.1065 112.751 78.6428C112.6 77.9836 112.493 77.3143 112.433 76.6406C112.4 76.2671 112.384 75.8871 112.469 75.5227C112.557 75.1422 112.767 74.7752 113.102 74.5747C113.606 74.2734 114.257 74.4103 114.792 74.6509C115.539 74.9863 116.255 75.6004 116.328 76.415C116.608 75.7237 116.376 75.1723 116.063 74.495C115.624 73.549 115.486 72.4667 115.674 71.4415C115.791 70.7989 116.146 70.083 116.793 69.9943C117.099 69.9527 117.402 70.0645 117.699 70.1457C118.931 70.4821 120.3 70.285 121.387 69.6143C122.209 69.1075 122.872 68.348 123.754 67.9545C125.111 67.3489 126.86 67.8136 127.736 69.0127C128.029 69.4133 128.231 69.88 128.564 70.2479C128.969 70.6961 129.561 70.9698 130.165 70.9879C130.55 70.9994 130.931 70.9122 131.315 70.9167C131.7 70.9212 132.116 71.042 132.329 71.3623C132.468 71.5709 132.499 71.8306 132.519 72.0802C132.624 73.3851 132.408 74.6283 132.115 75.9042C132.573 74.877 133.887 74.3281 134.939 74.7246C135.107 74.7878 135.27 74.8735 135.397 74.9993C135.636 75.2349 135.723 75.5778 135.758 75.9157C135.833 76.6551 135.747 77.4061 135.525 78.1154C135.277 78.911 134.84 79.7652 134.097 80.2134C133.367 80.654 132.354 80.6395 131.651 80.1567C131.445 81.218 131.188 82.2687 130.881 83.3054C130.503 84.5828 130.009 85.9348 128.94 86.7294C129.033 88.7456 129.385 90.7784 130.111 92.6618C130.837 94.5447 131.964 96.3183 133.474 97.6573Z" fill="#F4A062"/>
<path d="M119.32 86.8345C120.307 88.3384 122.4 89.6463 123.221 90.0303C124.204 90.49 126.178 90.9232 127.263 90.9232C128.297 90.9232 128.908 90.688 129.42 90.3005C129.159 89.131 128.998 87.9364 128.942 86.7438C127.028 87.9158 124.302 88.7144 119.32 86.8345Z" fill="#E08F58"/>
<path d="M116.436 72.9146C116.348 72.8283 116.481 72.503 116.897 72.1486C117.305 71.7967 118.026 71.4472 118.884 71.4287C119.743 71.4101 120.477 71.7285 120.901 72.0623C121.332 72.3987 121.478 72.7175 121.394 72.8078C121.22 73.0043 120.229 72.3265 118.904 72.3671C117.579 72.3837 116.618 73.1031 116.436 72.9146Z" fill="#275468"/>
<path d="M131.889 72.79C131.746 73.0186 130.448 72.387 128.77 72.5414C127.088 72.6482 125.904 73.4733 125.728 73.2698C125.648 73.18 125.849 72.8251 126.363 72.4396C126.871 72.0546 127.713 71.6842 128.698 71.6059C129.683 71.5308 130.572 71.7669 131.134 72.0687C131.701 72.3694 131.954 72.6888 131.889 72.79Z" fill="#275468"/>
<path d="M120.095 74.6859C119.542 74.6859 119.094 75.3932 119.094 76.265C119.094 77.1372 119.542 77.8441 120.095 77.8441C120.649 77.8441 121.097 77.1367 121.097 76.265C121.097 75.3932 120.648 74.6859 120.095 74.6859Z" fill="#A35B41"/>
<path d="M127.107 74.6859C126.554 74.6859 126.105 75.3932 126.105 76.265C126.105 77.1372 126.554 77.8441 127.107 77.8441C127.661 77.8441 128.109 77.1367 128.109 76.265C128.109 75.3932 127.661 74.6859 127.107 74.6859Z" fill="#A35B41"/>
<path d="M124.636 81.6424C124.632 81.5261 125.149 81.3813 125.23 80.6704C125.273 80.3556 125.148 79.9586 124.9 79.4979C124.65 79.0442 124.317 78.4496 124.093 77.8175C123.626 76.5417 123.524 75.2969 123.594 74.4226C123.662 73.5428 123.867 73.029 123.989 73.0456C124.258 73.0741 124.109 75.1691 124.975 77.4956C125.185 78.0847 125.438 78.579 125.683 79.1299C125.92 79.6693 126.059 80.311 125.875 80.8288C125.711 81.3246 125.355 81.6249 125.073 81.7051C124.787 81.7898 124.633 81.6966 124.636 81.6424Z" fill="#A35B41"/>
<path d="M126.106 83.0149C126.244 83.1117 126.195 83.5052 125.782 83.9443C125.385 84.3755 124.578 84.8051 123.61 84.7204C122.643 84.6296 121.927 84.0616 121.614 83.5658C121.288 83.0595 121.31 82.6635 121.463 82.5928C121.628 82.5111 121.888 82.7096 122.265 82.9252C122.637 83.1448 123.155 83.3814 123.727 83.4345C124.3 83.4856 124.851 83.3463 125.257 83.1974C125.667 83.053 125.959 82.9041 126.106 83.0149Z" fill="#DEFCFF"/>
<path d="M140.047 56.0386C138.577 57.3455 138.341 59.5969 138.99 61.374C139.739 63.4234 141.348 64.9167 142.344 66.8232C142.768 67.6368 142.999 68.5347 142.836 69.451C142.666 70.4055 142.232 71.2873 141.835 72.1626C140.969 74.0746 140.43 75.9229 140.838 78.0304C141.248 80.1474 142.557 82.0298 144.36 83.1958C145.592 83.9934 146.734 82.0248 145.508 81.2312C144.228 80.4036 143.387 79.0631 143.065 77.5852C142.697 75.8998 143.305 74.3999 143.992 72.8885C144.81 71.0923 145.494 69.2545 144.952 67.2664C144.419 65.3083 143.016 63.8414 141.94 62.1811C141.103 60.8908 140.268 58.881 141.655 57.6473C142.752 56.6723 141.138 55.0681 140.047 56.0386Z" fill="#FFAE43"/>
<path d="M139.274 182.844H65.7517C64.3004 182.844 63.1133 183.742 63.1133 184.84C63.1133 185.938 64.3004 186.836 65.7517 186.836H139.274C140.725 186.836 141.912 185.938 141.912 184.84C141.912 183.742 140.725 182.844 139.274 182.844Z" fill="#F96767"/>
<path d="M181.171 187.292H65.258C63.8238 187.292 62.6562 186.141 62.6562 184.726C62.6562 183.311 63.8233 182.16 65.258 182.16H181.171C182.606 182.16 183.773 183.311 183.773 184.726C183.773 186.141 182.606 187.292 181.171 187.292ZM65.258 183.07C64.3321 183.07 63.5792 183.813 63.5792 184.726C63.5792 185.638 64.3326 186.381 65.258 186.381H181.171C182.097 186.381 182.85 185.639 182.85 184.726C182.85 183.813 182.097 183.07 181.171 183.07H65.258Z" fill="#FCFCFC"/>
<path d="M139.954 189.194C142.585 189.194 144.717 187.062 144.717 184.432C144.717 181.801 142.585 179.669 139.954 179.669C137.324 179.669 135.191 181.801 135.191 184.432C135.191 187.062 137.324 189.194 139.954 189.194Z" fill="#5B7FF4"/>
<path d="M177.436 122.685H168.859C167.074 122.685 165.613 124.145 165.613 125.931C165.613 127.716 167.074 129.176 168.859 129.176H177.436C179.221 129.176 180.682 127.716 180.682 125.931C180.682 124.145 179.221 122.685 177.436 122.685Z" fill="#F96767"/>
<path d="M169.232 127.275V124.519H169.566V126.979H170.847V127.275H169.232ZM171.698 124.519V127.275H171.364V124.519H171.698ZM172.48 124.519L173.298 126.839H173.33L174.148 124.519H174.498L173.486 127.275H173.142L172.13 124.519H172.48ZM174.928 127.275V124.519H176.591V124.815H175.261V125.746H176.505V126.042H175.261V126.979H176.612V127.275H174.928Z" fill="#FCFCFC"/>
</svg>
