<svg width="250" height="200" viewBox="0 0 250 200" fill="none" xmlns="http://www.w3.org/2000/svg">
<path d="M93.1879 12.1955C92.2431 11.5665 91.9843 10.2411 92.8169 9.32774C94.3245 7.67398 95.6826 6.02219 94.9191 3.71913C93.9906 0.917751 90.5886 -0.687752 87.6663 0.285629C84.0624 1.486 83.7826 4.83393 84.9775 7.80545C85.4432 8.96362 84.6719 10.1482 83.5196 10.3994L70.6898 8.01544L70.6557 8.17992L69.7609 12.5005L68.2025 20.0244C67.5687 21.0493 66.0305 21.3449 65.0292 20.46C62.5745 18.2907 59.1954 17.2732 56.6621 19.9814C54.6079 22.1774 54.8942 25.767 57.2829 27.6384C59.2469 29.1769 61.3743 28.6088 63.5601 27.9105C64.8184 27.5085 66.0639 28.316 66.2489 29.4556L63.7905 41.3243L75.7945 43.5547C77.3785 43.8491 78.0034 45.6784 76.9014 46.796C74.6097 49.1197 73.5335 52.3194 76.3912 54.7205C78.7085 56.6675 82.4987 56.3985 84.476 54.1369C86.1016 52.2776 85.503 50.2623 84.7668 48.1917C84.2629 46.7747 85.562 45.3696 87.1111 45.6575L98.958 47.8588L101.376 36.1859C101.291 34.9609 99.9832 34.0559 98.6651 34.477C96.4794 35.1756 94.352 35.7436 92.3879 34.2049C89.999 32.3335 89.7127 28.7438 91.7671 26.548C94.3006 23.8398 97.6795 24.8573 100.134 27.0265C101.186 27.9556 102.829 27.5848 103.396 26.4331L104.854 19.394L105.823 14.7148L105.857 14.5504L93.1879 12.1955Z" fill="#CDD7FF"/>
<path d="M139.145 43.4412C138.218 44.1331 138.032 45.4991 138.936 46.3874C140.571 47.9952 142.054 49.6091 141.411 51.9997C140.628 54.9073 137.251 56.7253 134.212 55.8864C130.464 54.8516 129.981 51.4502 131.026 48.3548C131.433 47.1484 130.576 45.9803 129.385 45.7849L116.433 48.8949L116.389 48.7289L115.221 44.3673L113.188 36.7719C112.481 35.7595 110.894 35.5391 109.924 36.4949C107.547 38.838 104.159 40.0548 101.414 37.4251C99.1886 35.2928 99.2697 31.6145 101.597 29.5787C103.511 27.905 105.715 28.3723 107.987 28.9696C109.295 29.3134 110.518 28.4237 110.64 27.251L107.433 15.2694L119.551 12.3597C119.574 12.354 119.595 12.345 119.618 12.3388L120.384 12.1549C121.574 12.3503 122.431 13.5184 122.024 14.7248C120.98 17.8202 121.462 21.2217 125.21 22.2564C128.25 23.0954 131.627 21.2775 132.409 18.3697C133.053 15.9791 131.57 14.3652 129.934 12.7574C129.031 11.8692 129.217 10.5031 130.144 9.81125L130.905 9.6286C130.929 9.62372 130.952 9.62196 130.976 9.6163L142.935 6.7446L146.09 18.5287C146.155 19.9318 144.933 20.779 143.424 20.4157C141.14 19.8652 139.114 19.3732 137.2 21.0468C134.872 23.0827 134.626 26.7387 136.852 28.871C139.596 31.5009 142.985 30.2841 145.362 27.9408C146.38 26.9373 148.079 27.229 148.725 28.3742L150.627 35.4803L151.892 40.2041L151.936 40.3701L139.145 43.4412Z" fill="#CDD7FF"/>
<path d="M186.115 13.4924C185.191 12.7915 185.016 11.42 185.93 10.5363C187.584 8.93628 189.085 7.32902 188.46 4.92672C187.7 2.00463 184.329 0.155924 181.274 0.97401C177.506 1.98314 176.993 5.39065 178.014 8.50282C178.412 9.71588 177.543 10.8807 176.347 11.0676L163.385 7.84999L163.339 8.01622L162.131 12.3815L160.027 19.9832C159.309 20.9933 157.716 21.2021 156.752 20.2359C154.387 17.868 151 16.6219 148.225 19.2383C145.975 21.3599 146.025 25.0493 148.342 27.1086C150.247 28.8016 152.461 28.3498 154.745 27.7681C156.059 27.4332 157.279 28.3347 157.391 29.5119L154.073 41.5034L166.201 44.514C167.801 44.9113 168.317 46.8206 167.114 47.8967C164.612 50.1345 163.295 53.3424 166.056 55.9721C168.294 58.1044 172.19 58.0593 174.365 55.866C176.154 54.0628 175.678 51.9649 175.065 49.8021C174.646 48.322 176.07 46.9636 177.635 47.3521L189.605 50.3232L192.868 38.5294C192.864 37.2712 191.588 36.266 190.211 36.6168C187.928 37.1985 185.713 37.6505 183.808 35.9573C181.491 33.8978 181.441 30.2084 183.691 28.0871C186.466 25.4707 189.854 26.7167 192.218 29.0847C193.231 30.0989 194.937 29.8193 195.595 28.6756L197.563 21.5635L198.871 16.8358L198.917 16.6696L186.115 13.4924Z" fill="#CDD7FF"/>
<path d="M37.8345 11.7435C36.624 11.5537 35.7316 10.398 36.0843 9.16035C36.723 6.91961 37.2195 4.74586 35.3682 2.8745C33.1167 0.598199 29.0794 0.546042 26.7557 2.753C23.8901 5.47467 25.2507 8.80132 27.8399 11.1241C28.8491 12.0295 28.6869 13.5 27.7063 14.2431L14.2659 17.56L14.3134 17.7323L15.5585 22.2583L17.7267 30.1401C17.6187 31.3979 16.2902 32.3517 14.9012 31.9417C11.4963 30.9367 7.76699 31.4372 6.65946 35.135C5.76126 38.1332 7.78163 41.4444 10.9786 42.1932C13.607 42.8089 15.3671 41.3368 17.1195 39.7143C18.1283 38.7804 19.7135 39.0097 20.4448 40.0198L23.8652 52.453L36.4405 49.3497C36.4648 49.3436 36.4885 49.3419 36.5129 49.3368L37.3069 49.1409C38.2876 48.3978 38.4497 46.9273 37.4406 46.0219C34.8514 43.6989 33.4906 40.3724 36.3563 37.6507C38.6799 35.444 42.7173 35.4961 44.9689 37.7722C46.8199 39.6436 46.3235 41.8173 45.685 44.0581C45.3323 45.2958 46.2247 46.4516 47.4351 46.6413L48.2249 46.4463C48.2492 46.4395 48.2713 46.4299 48.296 46.4239L60.7065 43.3611L57.3425 31.1328C56.6596 29.824 55.0984 29.6326 53.9166 30.68C52.1274 32.266 50.543 33.6758 47.9147 33.0602C44.7177 32.3115 42.5585 29.0989 43.4567 26.1007C44.5642 22.4029 48.2937 21.9024 51.6984 22.9074C53.1568 23.338 54.5497 22.2657 54.5318 20.9159L52.5032 13.5418L51.1548 8.64016L51.1073 8.46787L37.8345 11.7435Z" fill="#CDD7FF"/>
<path d="M225.967 12.2404C224.793 11.9082 224.063 10.6572 224.577 9.47364C225.507 7.33075 226.287 5.23709 224.703 3.16317C222.776 0.640542 218.784 0.107458 216.19 2.01593C212.99 4.36959 213.896 7.82614 216.151 10.4353C217.03 11.4522 216.674 12.8892 215.604 13.5082L201.853 15.1905L201.878 15.3669L202.509 19.9976L203.609 28.0616C203.335 29.2942 201.892 30.0807 200.571 29.5089C197.333 28.1075 193.573 28.1587 191.985 31.6885C190.697 34.5508 192.258 38.0707 195.324 39.1935C197.845 40.1165 199.784 38.8684 201.735 37.4708C202.858 36.6662 204.398 37.0823 204.988 38.1699L206.722 50.8907L219.588 49.3166C219.613 49.3135 219.637 49.3147 219.662 49.3125L220.474 49.2131C221.544 48.5941 221.9 47.1571 221.021 46.1402C218.765 43.531 217.86 40.0745 221.06 37.7208C223.654 35.8124 227.645 36.3452 229.573 38.8681C231.157 40.942 230.376 43.0356 229.446 45.1785C228.933 46.3621 229.663 47.613 230.836 47.9453L231.644 47.8465C231.669 47.8426 231.692 47.8357 231.717 47.8326L244.415 46.2793L242.709 33.7683C242.206 32.3908 240.686 32.0151 239.376 32.9114C237.393 34.2686 235.637 35.476 233.116 34.5528C230.05 33.43 228.338 29.9914 229.626 27.1291C231.214 23.5993 234.974 23.5481 238.212 24.9495C239.599 25.5498 241.121 24.6539 241.283 23.3151L240.254 15.7706L239.57 10.7555L239.546 10.5793L225.967 12.2404Z" fill="#CDD7FF"/>
<path d="M202.928 81.0704L192.025 100.074L191.422 106.83L197.175 110.297L202.928 102.371L202.405 90.9136L204.323 83.7962L202.928 81.0704Z" fill="#2E4661"/>
<path d="M186.569 83.382L198.743 99.7291L200.661 105.508L197.174 110.297L190.723 106.334L181.832 84.5379L185.853 82.3989L186.569 83.382Z" fill="#2E4661"/>
<path d="M202.933 81.0704L215.14 73.7073C215.14 73.7073 222.013 83.8241 230.855 100.423C239.697 117.021 233.443 139.854 233.443 139.854C233.443 139.854 205.054 139.456 198.832 139.428L199.874 105.971L202.933 81.0704Z" fill="#2E4661"/>
<path d="M221.414 125.768V132.141L212.442 159.758L214.685 188.438L209.077 189.5L200.105 154.447L200.449 144.134L204.591 123.101L221.414 125.768Z" fill="#2E4661"/>
<path d="M214.301 133.314L223.316 191.735H227.414L230.002 159.869L235.609 128.003L214.301 133.314Z" fill="#2E4661"/>
<path d="M210.007 190.228L205.727 194.519L206.963 196.694L215.795 192.679L214.169 189.5L210.007 190.228Z" fill="#363636"/>
<path d="M223.386 193.097L218.109 196.239L218.733 198.637L228.344 196.839L227.608 193.376L223.386 193.097Z" fill="#363636"/>
<path d="M199.113 63.8603C202.733 63.4624 205.51 60.0815 209.163 60.1342C211.537 60.1686 213.728 61.761 214.862 63.7972C215.391 64.7464 215.727 65.8243 215.612 66.8844C215.537 67.5724 215.275 68.2276 214.932 68.8298C214.474 69.6348 213.858 70.3462 213.134 70.9381C213.719 71.5392 214.36 72.0902 215.05 72.5815C213.524 73.4767 211.998 74.372 210.473 75.2674C209.928 74.4374 209.383 73.6072 208.839 72.7772C208.338 72.8409 207.832 72.8636 207.324 72.8323C204.256 72.6434 201.344 70.6578 200.115 67.9176C199.539 66.634 199.318 65.2385 199.113 63.8603Z" fill="#E8CBAE"/>
<path d="M200.22 64.7171L211.006 61.4754L214.761 69.0728L217.405 66.1655L213.16 53.3901L197.52 55.8942L191.531 60.8632L192.575 64.5671L199.383 67.3196L200.22 64.7171Z" fill="#363636"/>
<path d="M207.166 77.1468L219.282 69.8464C219.282 69.8464 223.725 80.4887 232.567 97.0873C241.409 113.686 240.596 136.915 240.596 136.915C240.596 136.915 211.19 129.209 204.968 129.18L204.016 102.11L207.166 77.1468Z" fill="white"/>
<path d="M232.743 92.4638C223.901 75.8654 219.557 70.1855 219.557 70.1855L207.442 77.4859L207.434 77.5531C207.869 78.2179 208.317 78.8763 208.726 79.5559C210.344 82.2385 211.708 85.054 212.786 87.9702C214.68 93.0958 215.862 98.5043 216.759 103.86C217.62 109 218.093 114.199 218.151 119.403C218.227 126.282 217.515 133.127 216.179 139.87C228.847 140.008 241.112 142.496 241.112 142.496C241.112 142.496 241.586 109.062 232.743 92.4638Z" fill="#2E4661"/>
<path d="M138.064 191.724C138.073 191.711 138.079 191.702 138.079 191.702L138.061 191.698L136.859 180.639L131.105 181.96L134.243 191.537L132.849 194.509C132.849 194.509 132.326 195.995 132.849 195.83C133.372 195.665 135.638 195.004 135.813 194.839C135.96 194.699 137.482 192.547 137.946 191.891L138.064 191.724Z" fill="#B99A6F"/>
<path d="M108.267 183.281V190.877L106.523 192.693V194.014L110.708 193.188L112.625 192.528L114.02 181.96L108.267 183.281Z" fill="#B99A6F"/>
<path d="M123.2 126.469L119.68 147.088L120.881 155.141L131.38 185.823L138.496 184.901L131.929 152.258L140.535 132.279L141.539 126.954L143.722 120.595L123.2 126.469Z" fill="#273140"/>
<path d="M107.476 127.396L106 149.101L107.395 185.758H114.368L117.158 164.457L125.7 124.993L118.204 121.03L112.102 118.718L107.476 127.396Z" fill="#273140"/>
<path d="M108.263 190.877L102.336 195.335L102.51 197.316H106.869L112.971 194.014L113.319 191.207L112.796 190.711C112.796 190.711 107.218 193.188 106.869 193.023C106.52 192.858 108.263 190.877 108.263 190.877Z" fill="#273140"/>
<path d="M134.148 191.681L131.973 194.84L130.578 196.326L131.624 198.307H134.065L139.644 193.684L138.598 191.207L137.9 190.712C137.9 190.712 135.808 193.023 133.716 194.51C133.124 194.93 134.148 191.681 134.148 191.681Z" fill="#273140"/>
<path d="M111.056 87.0148L100.77 104.188L82.4648 108.811V112.939L103.385 110.792L107.046 108.646L113.544 100.055L115.241 97.9129L116.098 84.5379L111.056 87.0148Z" fill="#A0A4A9"/>
<path d="M114.714 85.4662C114.714 85.4662 117.155 82.7216 126.395 82.7216C135.635 82.7216 146.967 111.763 146.618 116.737C146.269 121.711 143.131 131.598 143.131 131.598L121.513 126.462C121.513 126.462 109.833 125.089 106.869 127.834C103.905 130.578 113.494 109.137 113.668 103.991C113.842 98.8454 111.75 88.039 114.714 85.4662Z" fill="#A0A4A9"/>
<path d="M124.678 83.3466L125.525 83.3821L122.787 105.467L118.028 96.0966L117.156 86.0241L118.028 84.5379L124.678 83.3466Z" fill="#C5CCCC"/>
<path d="M112.342 74.4929C111.772 67.7984 120.89 66.6238 124.952 71.1145C127.602 74.0438 126.868 79.571 123.618 82.0715C123.663 82.2112 123.708 82.3407 123.756 82.4464C124.004 82.99 124.18 83.5542 124.345 84.1316C124.406 84.3469 120.898 85.0966 120.506 85.1786C120.369 85.2073 120.213 85.2331 120.099 85.1608C119.88 85.0223 119.83 84.3676 119.756 84.1441C119.667 83.88 119.579 83.6159 119.49 83.352C117.277 83.2631 115.298 81.943 114.133 80.2474C112.963 78.5435 112.513 76.5045 112.342 74.4929Z" fill="#B99A6F"/>
<path d="M115.212 67.0442C115.84 67.2827 116.28 67.7952 116.663 68.3035C116.893 68.6071 117.117 68.9265 117.194 69.2892C117.502 70.7351 116.086 71.2385 115.213 72.1068C114.135 73.1778 113.443 74.6154 113.218 76.0345C112.865 78.2569 114.42 80.2853 115.776 82.0147C116.254 82.6241 117.051 83.4942 116.775 84.3283C116.495 85.1758 115.147 85.6202 114.326 85.5835C113.576 85.5499 112.823 85.2255 112.095 85.3983C111.325 85.5814 110.494 86.2809 109.872 85.7957C109.7 85.6607 109.593 85.4522 109.403 85.3419C108.759 84.969 108.063 86.0054 107.33 85.8582C106.879 85.7675 106.653 85.2706 106.588 84.8299C106.523 84.3894 106.536 83.9106 106.271 83.5449C106.043 83.2306 105.656 83.0675 105.351 82.822C104.748 82.3372 104.487 81.4886 104.723 80.7715C105.159 79.4381 106.953 78.9148 107.48 77.6126C107.754 76.9342 107.63 76.171 107.515 75.4473C107.4 74.7238 107.306 73.9496 107.631 73.2929C108.032 72.4815 109.014 72.1847 109.36 71.2762C109.563 70.7423 109.588 70.1465 109.86 69.6426C110.219 68.9782 111.157 68.1937 111.749 67.6855C112.689 66.8795 114.024 66.5929 115.212 67.0442Z" fill="#363636"/>
<path d="M124.628 74.2096C125.549 76.1097 125.5 78.5962 127.209 79.8972C128.934 81.2099 131.419 80.5473 133.458 79.8097C133.793 79.6883 138.083 78.2608 138.151 78.2061C140.346 76.4469 138.001 75.2373 137.747 73.7691C137.382 71.6585 140.869 71.9886 140.098 70.1464C139.66 70.2479 139.238 69.861 139.101 69.4437C138.965 69.0265 139.017 68.578 138.967 68.1439C138.843 67.0772 138.037 66.1061 136.985 65.7553C134.887 65.0556 132.435 66.7209 130.459 65.7375C129.234 65.1277 128.701 63.7286 127.758 62.7559C125.934 60.8747 123.162 61.4699 120.788 61.2613C118.283 61.0412 116.116 61.2492 113.955 62.5806C111.277 64.2315 110.414 67.9046 112.736 70.0649C115.715 72.8356 121.294 70.1827 123.937 73.1536C124.221 73.4728 124.444 73.8295 124.628 74.2096Z" fill="#363636"/>
<path d="M125.062 82.742L140.698 80.2449L139.827 55.972H144.185L149.241 82.7217L146.103 87.1799L135.294 91.8034L126.577 83.5474L125.062 82.742Z" fill="#A0A4A9"/>
<path d="M32.1643 189.809L35.6758 193.485L36.5629 195.916C36.5629 195.916 34.8449 196.245 33.9378 196.226C33.0308 196.208 26.4883 193.792 26.4883 193.792L27.3774 190.009L32.1643 189.809Z" fill="#647380"/>
<path d="M45.5006 135.757L47.244 156.893L32.9482 190.412L27.3693 190.082L34.1685 158.874L25.2773 130.969L41.1421 121.392L45.5006 135.757Z" fill="#273140"/>
<path d="M22.1389 193.353L24.4524 195.544C24.4524 195.544 26.4098 198.578 25.5201 198.578C24.6304 198.578 19.8257 199.084 19.4697 198.578C19.1137 198.073 16.4445 196.387 16.0888 196.05C15.7328 195.713 15.8974 192.758 15.8974 192.758L22.1389 193.353Z" fill="#647380"/>
<path d="M30.3215 134.195L27.2963 163.016L22.1356 193.353H15.9075L15.1957 161.667C15.1957 161.667 8.96756 132.847 8.43359 124.251L30.3215 134.195Z" fill="#273140"/>
<path d="M48.8616 138.729C48.5038 135.128 49.7571 131.682 50.2886 128.16C51.213 122.034 50.1343 115.961 49.4919 109.866C49.2264 107.349 49.002 104.816 48.8932 102.288C48.8437 101.138 48.8348 99.9787 48.7946 98.8161C48.755 97.6646 48.5168 96.1208 48.8251 95.0019C50.0642 90.5065 46.7377 86.0719 44.872 82.102C44.3112 80.9086 43.7057 79.6612 42.5971 78.8843C41.8375 78.352 40.9092 78.0914 40.0022 77.8404C37.2505 77.0794 34.4988 76.3183 31.7468 75.5575C30.7437 75.2801 29.6978 74.9998 28.6678 75.1664C27.1241 75.4161 25.965 76.5965 24.9294 77.7092C20.2861 82.6984 19.7195 89.8722 16.8657 95.9905C15.3758 99.1851 13.9267 102.397 12.5913 105.65C12.2079 106.584 11.3386 108.08 10.2409 109.85C10.2409 109.85 0.641935 127.045 1.28913 135.171C3.17296 134.569 4.81796 133.687 6.7779 133.241C9.2188 132.685 11.8278 132.714 14.3419 132.904C18.1061 133.171 21.8849 133.693 25.5622 134.538C28.4531 135.202 31.2803 136.149 34.0838 137.083C36.416 137.861 38.45 139.079 40.9226 139.52C43.457 139.972 46.1082 139.856 48.5774 139.143C48.6679 139.117 48.7645 139.086 48.8191 139.013C48.8787 138.934 48.8715 138.827 48.8616 138.729Z" fill="#273140"/>
<path d="M34.895 77.3278L32.7106 76.6066L31.832 78.9939L34.5262 102.908L38.8221 93.7958L40.3231 79.477L34.895 77.3278Z" fill="white"/>
<path d="M38.0349 95.4639C38.2395 94.5899 38.3952 93.8009 38.4808 93.1508C39.0729 88.6623 37.2347 82.2069 37.2347 82.2069C37.2347 82.2069 37.3327 80.9104 37.5593 79.8142L34.9293 78.7673L34.4145 81.514L35.2974 82.9541C35.2974 82.9541 35.5142 94.0115 34.5044 98.1949C34.3984 98.6338 34.2767 99.0825 34.1445 99.534L34.5246 102.908L38.0349 95.4639Z" fill="#2E4661"/>
<path d="M34.1296 110.199L22.9336 133.63L29.455 135.935L34.072 137.194L35.2204 114.531L34.1296 110.199Z" fill="white"/>
<path d="M40.9727 78.1295L46.2028 79.2541L57.7092 82.8867L80.7219 78.2633L81.6483 81.5591L65.5072 91.2386L47.2462 91.6914L40.9727 78.1295Z" fill="#273140"/>
<path d="M29.4636 75.1193L12.2037 74.1352L24.2331 56.302L19.6889 52.4632L0 74.7957V81.2354L22.1409 86.5194L29.4636 75.1193Z" fill="#273140"/>
<path d="M184.73 189.83C185.4 189.374 186.108 189.191 186.812 189.436C187.489 189.671 188.024 190.229 188.187 190.87C188.299 191.307 188.246 191.76 188.192 192.204C187.916 194.497 186.763 199.848 183.355 199.997C181.922 200.06 180.985 198.947 180.861 197.744C180.674 195.931 182.489 191.356 184.73 189.83Z" fill="#363636"/>
<path d="M172.277 162.458L174.026 168.007L182.901 190.196L182.908 193.76C182.908 193.76 183.672 195.575 185.588 194.852C186.354 194.563 187.46 190.393 187.46 190.393L186.589 188.956L183.623 172.409L180.859 165.629L180.919 159.735L172.277 162.458Z" fill="#E7CAAD"/>
<path d="M156.097 196.744L160.666 192.747C161.991 192.112 163.394 191.668 164.53 191.682C165.355 191.691 166.04 191.942 166.453 192.535C166.849 193.105 166.93 193.855 166.66 194.463C166.561 194.685 166.421 194.884 166.263 195.071C166.263 195.071 166.261 195.073 166.261 195.074C166.125 195.235 165.976 195.388 165.828 195.539C165.733 195.635 165.629 195.738 165.519 195.845C164.573 196.816 162.989 198.397 162.36 198.754C161.438 199.278 159.408 200.676 157.01 199.103C157.019 199.096 157.029 199.089 157.038 199.081C156.166 198.522 155.909 197.603 156.097 196.744Z" fill="#363636"/>
<path d="M159.68 161.935L160.049 166.951L161.859 191.37L160.049 194.211C160.049 194.211 159.68 196.482 162.447 196.307C163.27 196.255 166.186 192.744 166.186 192.744L165.765 191.135L167.707 174.453L167.797 167.475L168.779 161.562L159.68 161.935Z" fill="#E7CAAD"/>
<path d="M187.662 134.83C187.78 132.701 187.581 130.599 186.842 128.608C184.15 121.35 183.11 114.321 183.11 108.413C183.11 102.505 185.878 83.7747 185.878 83.7747L176.264 78.3089L163.369 78.1911L158.296 79.0168C158.296 79.0168 156.984 104.18 156.6 111.776C156.325 117.196 155.928 121.89 155.404 128.171C155.404 128.171 153.937 142.496 156.204 157.852C156.204 157.852 156.71 162.951 156.937 163.398C156.967 163.55 156.983 163.631 156.983 163.631C156.983 163.631 157.075 163.631 157.076 163.631L182.704 163.631V154.88C183.557 152.071 184.367 149.25 185.143 146.421C186.13 142.826 187.443 138.782 187.662 134.83Z" fill="#C5CCCC"/>
<path d="M182.239 79.9597L186.613 83.0757C186.613 83.0757 183.285 104.649 183.108 108.413C182.93 112.178 188.053 127.221 188.053 127.221L166.836 129.842C166.836 129.842 162.236 112.375 161.338 104.394C160.44 96.413 176.282 78.3579 176.282 78.3579L182.239 79.9597Z" fill="#647380"/>
<path d="M160.971 79.5809L156.553 83.7124C156.553 83.7124 157.25 105.508 156.14 111.6C155.463 115.312 152.828 127.336 152.828 127.336L159.68 129.557C159.68 129.557 163.085 117.443 163.923 109.462C164.761 101.48 164.661 78.7072 164.661 78.7072L160.971 79.5809Z" fill="#647380"/>
<path d="M182.18 79.9146L187.061 83.217L195.081 104.683L193.337 108.811L188.63 108.976L182.18 95.6012V79.9146Z" fill="#647380"/>
<path d="M164.745 79.4192L151.67 72.9794L163.176 49.0367L158.12 46.3947L142.43 69.842V76.7772L157.802 89.8218L164.745 79.4192Z" fill="#647380"/>
<path d="M161.685 71.2419C161.256 73.3308 162.675 75.2881 163.914 76.9575C164.42 77.6397 165.198 78.5843 164.656 79.4276C164.049 80.3717 162.385 80.2857 161.614 79.6505C161.07 79.202 160.776 78.5683 160.516 77.9489C159.353 75.1731 157.727 71.2847 157.803 68.2916C157.864 65.8917 160.683 61.4733 163.965 62.8061C164.561 63.0481 164.965 63.5441 165.314 64.0344C165.523 64.3272 165.727 64.6349 165.787 64.9793C166.026 66.3529 164.641 66.7901 163.764 67.5865C162.683 68.569 161.959 69.9079 161.685 71.2419Z" fill="#514943"/>
<path d="M167.476 78.3228C165.333 78.1897 163.464 76.8845 162.404 75.2442C161.343 73.6041 160.99 71.6667 160.905 69.7626C160.621 63.4259 169.46 62.5621 173.199 66.9118C176.457 70.7021 173.708 78.7093 167.476 78.3228Z" fill="#E7CAAD"/>
<path d="M173.007 69.9218C173.129 70.684 173.593 71.473 173.757 72.2539C174.06 73.6913 173.838 75.5921 174.484 76.8841C176.025 76.5926 177.855 75.5628 178.941 74.4865C180.051 73.3871 179.74 71.8656 179.905 70.331C180.058 68.9115 180.277 67.4812 180.1 66.0644C179.135 58.3066 170.659 54.5239 163.659 58.4529C161.011 59.9395 160.033 63.3849 162.187 65.4872C164.503 67.7484 168.831 66.4597 171.535 68.0805C172.135 68.4401 172.622 69.1201 173.007 69.9218Z" fill="#514943"/>
<path d="M167.255 77.6799C167.393 78.1448 167.531 78.6099 167.669 79.0748C167.733 79.2879 167.754 79.9073 167.96 80.0441C168.067 80.1154 168.219 80.0953 168.352 80.0718C168.733 80.005 172.146 79.3914 172.095 79.1865C171.959 78.6368 171.811 78.0995 171.594 77.5795C171.419 77.1595 171.31 76.3564 171.017 76.047C170.457 76.459 169.868 76.728 169.192 76.9524C168.539 77.1691 167.883 77.3755 167.223 77.5717C167.233 77.6078 167.244 77.6439 167.255 77.6799Z" fill="#E7CAAD"/>
<path d="M80.5391 81.2355L96.5783 75.6214L90.4765 52.5042L95.3579 51.1833L105.644 72.9794L106.516 80.0796L88.3844 90.4823L80.5391 81.2355Z" fill="#647380"/>
<path d="M97.4094 106.492C96.5681 101.775 96.1306 98.0404 93.566 93.8439C91.1008 89.8099 88.1009 86.0686 84.6538 82.7417C81.3685 79.571 73.7746 78.1909 69.2244 80.3289C68.7255 80.5633 68.2636 80.877 67.8313 81.2479C67.537 81.5613 61.1688 88.4765 60.1468 101.381C59.1131 114.434 54.6067 137.531 57.814 135.982C59.6681 134.975 61.1644 133.737 63.1281 132.852C65.5183 131.774 68.2347 131.21 70.8895 130.82C74.8491 130.222 78.8742 129.862 82.8595 129.828C86.2846 129.799 89.8464 131.279 93.0844 132.093C95.5439 132.932 96.1005 134.145 98.5 135.065C100.259 125.697 99.0682 115.793 97.4094 106.492Z" fill="#647380"/>
<path d="M92.2652 118.123L92.6634 150.729L86.176 192.77H81.1876L78.037 153.978L71.2109 115.187L92.2652 118.123Z" fill="#647380"/>
<path d="M61.5433 118.123L61.4453 136.986L67.6326 192.77H72.6208L78.1426 155.73L82.5975 115.187L61.5433 118.123Z" fill="#647380"/>
<path d="M72.5877 192.207H67.1934L64.4961 194.762L67.1934 197.316L72.5877 194.762V192.207H81.2151V194.762L86.6094 197.316L89.3064 194.762L86.6094 192.207H81.2151H72.5877Z" fill="#3A3029"/>
<path d="M72.7601 80.7401L79.5012 80.801C79.5012 80.801 82.3735 108.317 82.6394 112.444C82.9003 116.495 89.6129 129.452 89.6129 129.452C89.6129 129.452 82.1473 129.618 73.5455 130.611C65.1363 132.315 64.4297 131.307 64.4297 131.307C64.4297 131.307 68.9681 114.043 69.1186 109.083C69.2727 104.01 69.9583 87.2535 69.9583 87.2535L72.7601 80.7401Z" fill="white"/>
<path d="M77.3685 80.9686C77.2893 81.0336 77.1981 81.085 77.0927 81.1178C76.8832 81.1831 76.6559 81.1593 76.4369 81.1348C75.5451 81.0348 74.6535 80.935 73.7617 80.835C74.0558 78.2487 72.4595 77.6636 70.904 76.0001C69.3274 74.3135 69.8127 72.04 69.9012 69.9762C69.9266 69.4015 69.9561 68.8094 70.2126 68.2879C70.6629 67.3729 71.7112 66.8678 72.729 66.5681C75.3263 65.8035 78.2968 65.9919 80.5838 67.3864C81.1924 67.7575 81.7607 68.2238 82.0904 68.8341C82.5988 69.775 82.4697 70.898 82.3278 71.9466C82.11 73.5582 81.6064 75.141 80.6443 76.4992C79.7479 77.7646 78.0388 78.3708 77.8424 79.8893C77.7919 80.282 77.6665 80.7234 77.3685 80.9686Z" fill="#E7CAAD"/>
<path d="M82.2526 70.0735C82.101 70.7236 81.7811 71.3811 81.9476 72.0275C83.0378 71.6771 83.7497 70.6213 84.1358 69.5479C84.3107 69.0613 84.438 68.5462 84.394 68.0314C84.3499 67.5167 84.114 66.9994 83.685 66.7086C83.0862 66.3027 82.0121 66.4621 81.8407 67.1977C81.6679 67.9394 82.4807 69.0956 82.2526 70.0735Z" fill="#3A3029"/>
<path d="M88.0418 64.3645C88.016 63.5857 87.7027 62.8899 86.9681 62.4199C86.3347 62.0148 85.6044 61.6786 85.2195 61.0345C84.9209 60.5347 84.877 59.9158 84.581 59.4144C84.0452 58.5064 82.882 58.2392 81.8699 57.9314C79.3385 57.1613 77.9756 56.2725 75.2944 57.2582C73.3883 57.9591 70.9252 58.0529 69.156 59.0753C68.4172 59.5023 67.7886 60.1879 67.2726 60.9519C65.4851 63.5986 65.0561 67.3202 66.2203 70.0809C66.4808 70.699 66.812 71.2672 67.166 71.8113C67.8738 72.8993 68.6319 74.2378 69.8849 74.7705C69.9637 74.2579 70.3669 73.9749 70.4929 73.4711C70.5836 73.1085 70.5533 72.7284 70.5335 72.3553C70.4564 70.9039 69.9866 68.6089 71.5169 67.8888C73.4521 66.9787 77.0824 67.7998 78.9464 68.5702C80.5958 69.2519 83.379 70.139 85.1375 69.4086C86.7699 68.7304 88.097 66.0282 88.0418 64.3645Z" fill="#3A3029"/>
<path d="M79.6719 80.0796L80.7534 78.0983L84.5609 78.1243L86.129 79.7681L85.2151 83.4362L82.5554 83.6221L80.5742 80.4162L79.6719 80.0796Z" fill="#E7CAAD"/>
<path d="M195.086 104.683L180.268 89.8218L176.258 93.1242L187.067 109.471L193.343 108.811L195.086 104.683Z" fill="#6E7E8C"/>
<path d="M72.5184 79.4192L68.8611 78.9238L58.4977 64.8513L69.0354 45.8994L62.9334 43.0923L48.2891 61.2557V66.5396L61.5388 93.7849L72.5184 79.4192Z" fill="#647380"/>
<path d="M38.5061 78.8244C36.9964 78.3331 35.338 78.1831 33.8285 77.6918C34.1063 76.5151 34.4837 75.3595 34.9556 74.2398C33.7742 73.5223 32.446 72.5452 32.5399 71.219C32.5696 70.8012 32.7453 70.407 32.9187 70.022C33.6358 68.43 34.3529 66.8379 35.0701 65.2459C35.3182 64.6953 35.577 64.1294 36.0295 63.7113C36.8233 62.9778 38.0402 62.8514 39.1473 62.9147C41.9724 63.0763 44.7905 64.2952 46.4745 66.4498C46.9227 67.0231 47.2946 67.6752 47.3783 68.3843C47.5074 69.4774 46.9452 70.5254 46.3997 71.4966C45.8962 72.393 45.3926 73.2894 44.8891 74.1857C44.31 75.2167 43.558 76.3676 42.3371 76.5296C41.6888 76.6155 41.0037 76.3946 40.3854 76.5981C39.2948 76.9566 39.238 77.9788 38.5061 78.8244Z" fill="#E7CAAD"/>
<path d="M53.3708 60.5868C53.0491 60.4343 52.7241 60.2694 52.4182 60.0266C51.453 59.2595 50.9625 58.1261 49.9202 57.368C47.8115 55.8344 44.7876 55.1241 42.1594 55.4005C39.6443 55.665 36.4844 55.1527 34.1085 55.7893C33.1164 56.0551 32.2364 56.6204 31.492 57.2961C28.913 59.6369 27.9512 63.4452 29.1332 66.6379C29.3985 67.3542 29.7596 68.0355 30.1527 68.697C30.9663 70.0659 31.9289 71.7474 33.3301 72.501C33.6842 71.2337 33.4615 66.9371 34.7567 66.1234C36.4741 65.0443 38.954 65.779 40.6899 66.4375C42.7583 67.2221 44.7117 67.0657 46.8018 67.7607C47.8664 68.1147 49.024 68.6628 50.0585 68.2358C51.2544 67.7421 54.0349 65.8897 54.8469 64.9623C55.5578 64.1502 55.635 62.9266 55.1342 61.9845C54.7023 61.1709 54.0444 60.906 53.3708 60.5868Z" fill="#3A3029"/>
<path d="M179.007 90.8327L178.599 86.6417L175.438 85.8932L172.594 90.0844L174.016 91.8805L176.424 92.9604L179.007 90.8327Z" fill="#E7CAAD"/>
<path d="M219.488 70.1723L239.712 72.484L236.922 51.3484L241.978 50.853L249.998 74.3005L245.813 81.2354L225.764 83.382L219.488 70.1723Z" fill="#2E4661"/>
<path d="M185.672 79.4191L183.057 77.6029L180.442 77.7679L178.176 81.4007L182.186 82.7216L184.408 81.4179L185.331 82.0428L185.672 79.4191Z" fill="#E8CBAE"/>
<path d="M240.079 50.9993L242.56 47.5851L240.085 42.3109L237.404 42.7016L237.816 46.4131L236.785 48.3665L237.747 51.2278L240.079 50.9993Z" fill="#E8CBAE"/>
<path d="M158.844 46.7694L157.793 42.7016L163.362 38.2088L165.218 41.1389L162.743 43.6783L163.403 44.992L161.505 48.1604L158.844 46.7694Z" fill="#E8CBAE"/>
<path d="M143.135 55.9613C143.277 55.7693 143.955 50.8307 143.749 50.844C143.543 50.8572 138.161 47.8761 138.161 47.8761L136.449 49.9446L140.092 54.6044L140.475 56.1332L143.135 55.9613Z" fill="#B99A6F"/>
<path d="M207.492 79.2303L206.5 82.3989L207.492 83.5278C207.492 83.5278 206.461 103.648 209.554 107.75C212.648 111.852 211.617 110.094 212.236 106.383C212.854 102.671 208.73 88.9973 208.523 83.5278C208.73 81.7697 208.317 78.0582 207.492 79.2303Z" fill="#9E6652"/>
<path d="M90.9023 52.3909L91.3825 48.3665L95.0949 46.8038L96.3323 44.069L98.8073 44.655L97.9823 49.7339L94.7517 51.3491L90.9023 52.3909Z" fill="#E7CAAD"/>
<path d="M63.7091 43.6393L63.3281 39.5762L65.5968 35.8647L68.0717 37.0368L67.2468 40.9436L68.9483 43.5314L67.5687 45.4149L63.7091 43.6393Z" fill="#E7CAAD"/>
<path d="M20.5865 53.2232L19.8125 48.5618L24.3499 44.4597L26.6186 46.8038L23.6497 51.6904L24.3499 53.6407L22.7461 55.0477L20.5865 53.2232Z" fill="#E7CAAD"/>
</svg>
