<svg width="310" height="250" viewBox="0 0 310 250" fill="none" xmlns="http://www.w3.org/2000/svg">
<g clip-path="url(#clip0_4043_19394)">
<path d="M313.949 210.567H-3V210.726H313.949V210.567Z" fill="#EBEBEB"/>
<path d="M282.191 220.771H261.195V220.929H282.191V220.771Z" fill="#EBEBEB"/>
<path d="M206.964 222.492H201.453V222.65H206.964V222.492Z" fill="#EBEBEB"/>
<path d="M260.564 214.885H248.398V215.043H260.564V214.885Z" fill="#EBEBEB"/>
<path d="M57.6339 215.949H30.2539V216.107H57.6339V215.949Z" fill="#EBEBEB"/>
<path d="M67.2918 215.949H63.2773V216.107H67.2918V215.949Z" fill="#EBEBEB"/>
<path d="M139.717 218.626H80.3359V218.784H139.717V218.626Z" fill="#EBEBEB"/>
<path d="M147.242 182.297H24.837C22.8422 182.297 21.2188 180.673 21.2188 178.679V6.61829C21.2188 4.62341 22.8422 3 24.837 3H147.242C149.236 3 150.86 4.62341 150.86 6.61829V178.679C150.86 180.673 149.236 182.297 147.242 182.297ZM24.837 3.15911C22.929 3.15911 21.3772 4.71089 21.3772 6.61892V178.679C21.3772 180.587 22.929 182.139 24.837 182.139H147.242C149.15 182.139 150.701 180.587 150.701 178.679V6.61829C150.701 4.71089 149.15 3.15847 147.242 3.15847L24.837 3.15911Z" fill="#EBEBEB"/>
<path d="M284.35 182.297H161.946C159.951 182.297 158.328 180.673 158.328 178.679V6.61829C158.328 4.62341 159.952 3 161.946 3H284.35C286.346 3 287.969 4.62341 287.969 6.61829V178.679C287.969 180.673 286.346 182.297 284.35 182.297ZM161.946 3.15911C160.038 3.15911 158.487 4.71089 158.487 6.61892V178.679C158.487 180.587 160.038 182.139 161.946 182.139H284.35C286.258 182.139 287.81 180.587 287.81 178.679V6.61829C287.81 4.71089 286.258 3.15847 284.35 3.15847L161.946 3.15911Z" fill="#EBEBEB"/>
<path d="M240.477 91.6689C240.477 89.828 241.969 88.3352 243.81 88.3352C244.143 88.3352 244.464 88.3853 244.767 88.4766C244.719 88.1425 244.693 87.8008 244.693 87.4528C244.693 83.5543 247.853 80.3937 251.752 80.3937C252.196 80.3937 252.63 80.4368 253.052 80.5154C254.136 78.7399 256.087 77.55 258.32 77.55C261.7 77.55 264.442 80.2663 264.492 83.6342C264.527 83.6336 264.561 83.6291 264.595 83.6291C267.735 83.6291 270.282 86.1749 270.282 89.3158C270.282 92.4562 267.736 95.0025 264.595 95.0025H243.711L243.716 94.9981C241.919 94.948 240.477 93.4786 240.477 91.6689Z" fill="#425BB1"/>
<path d="M53.6992 76.6138C53.6992 74.7729 55.1921 73.2801 57.0329 73.2801C57.3657 73.2801 57.6871 73.3302 57.9901 73.4215C57.9413 73.0874 57.9153 72.7457 57.9153 72.3984C57.9153 68.4999 61.0759 65.3393 64.9744 65.3393C65.4187 65.3393 65.853 65.3824 66.2745 65.461C67.3597 63.6854 69.3096 62.4956 71.5435 62.4956C74.9234 62.4956 77.6656 65.2119 77.7157 68.5798C77.7499 68.5791 77.7835 68.5747 77.8184 68.5747C80.9587 68.5747 83.5051 71.1204 83.5051 74.2614C83.5051 77.4017 80.9594 79.9481 77.8184 79.9481H56.9346L56.9391 79.943C55.142 79.8923 53.6992 78.4236 53.6992 76.6138Z" fill="#425BB1"/>
<path d="M139.429 28.3705H127.274C127.306 28.0789 127.326 27.7841 127.326 27.4836C127.326 23.0647 123.744 19.4832 119.325 19.4832C119.226 19.4832 119.131 19.4946 119.034 19.4978C118.031 16.8075 115.446 14.8875 112.406 14.8875C108.497 14.8875 105.328 18.0563 105.328 21.9656C105.328 21.9713 105.329 21.9763 105.329 21.9814C101.863 22.1431 99.0856 24.9087 98.9055 28.3698H98.5841C96.6279 28.3698 95.0273 29.9704 95.0273 31.9266C95.0273 33.8828 96.6279 35.4834 98.5841 35.4834H139.429C141.385 35.4834 142.986 33.8828 142.986 31.9266C142.986 29.9711 141.386 28.3705 139.429 28.3705Z" fill="#425BB1"/>
<path d="M229.459 33.4487C227.559 30.4186 224.2 28.3965 220.36 28.3965C216.456 28.3965 213.049 30.4858 211.168 33.6008C210.674 33.4626 210.156 33.3834 209.618 33.3834C206.44 33.3834 203.864 35.9595 203.864 39.1379C203.864 39.1404 203.864 39.143 203.864 39.1455H200.83C199.25 39.1455 197.957 40.4387 197.957 42.019C197.957 43.5993 199.25 44.8924 200.83 44.8924H211.3C213.206 47.887 216.547 49.8793 220.36 49.8793C223.366 49.8793 226.081 48.6407 228.03 46.6502C228.212 46.6648 228.394 46.6781 228.579 46.6781C232.25 46.6781 235.226 43.702 235.226 40.0311C235.226 36.6587 232.713 33.8803 229.459 33.4487Z" fill="#425BB1"/>
<path d="M165.502 74.0885C163.602 71.0585 160.243 69.0364 156.403 69.0364C152.499 69.0364 149.092 71.1257 147.211 74.2407C146.717 74.1025 146.199 74.0233 145.661 74.0233C142.483 74.0233 139.907 76.5994 139.907 79.7778C139.907 79.7803 139.907 79.7829 139.907 79.7854H136.873C135.293 79.7854 134 81.0785 134 82.6589C134 84.2392 135.293 85.5323 136.873 85.5323H147.343C149.249 88.5268 152.59 90.5192 156.403 90.5192C159.409 90.5192 162.124 89.2806 164.073 87.2901C164.255 87.3047 164.437 87.318 164.622 87.318C168.293 87.318 171.269 84.3419 171.269 80.6709C171.269 77.2986 168.756 74.5196 165.502 74.0885Z" fill="#425BB1"/>
<path d="M32.7734 210.473V180.174H35.3642V165.739H39.1511V115.545H44.6254V109.069L56.3139 103.618V97.0875H57.9329V115.545H60.1997V165.739H62.4665V139.347H68.6191V125.746H70.3363V165.739H75.0094V150.519H78.0857V146.633H85.2095V133.356H89.1111V123.965H93.9072V110.283H95.6181V123.965H100.414V133.356H104.316V146.633H111.44V150.519H114.516V165.739H118.165V146.633H125.289V105.507H127.556V100.973H142.776V105.507H146.014V135.299H158.967V138.214H163.824V140.48H158.967V152.138H172.568V113.279H175.482V105.021H181.797V75.7144H183.578V105.021H188.111V113.279H214.69V110.561H216.309V129.019H218.576V129.343H219.938V147.801H222.204V152.82H226.995V139.22H228.713V171.602H230.624V158.001H232.341V179.212H233.385V163.992H236.462V160.106H243.586V146.829H247.487V137.438H252.283V123.757H253.994V137.438H258.79V146.829H262.691V160.106H269.816V163.992H272.892V178.888H273.444V179.212H274.968V210.473H32.7734Z" fill="#7D91D2"/>
<path d="M199.862 115.095H198.027V116.93H199.862V115.095Z" fill="#425BB1"/>
<path d="M199.862 118.172H198.027V120.007H199.862V118.172Z" fill="#425BB1"/>
<path d="M199.862 130.477H198.027V132.312H199.862V130.477Z" fill="#425BB1"/>
<path d="M199.862 133.552H198.027V135.387H199.862V133.552Z" fill="#425BB1"/>
<path d="M199.862 136.63H198.027V138.465H199.862V136.63Z" fill="#425BB1"/>
<path d="M199.862 145.858H198.027V147.693H199.862V145.858Z" fill="#425BB1"/>
<path d="M199.862 148.936H198.027V150.771H199.862V148.936Z" fill="#425BB1"/>
<path d="M196.948 127.4H195.113V129.235H196.948V127.4Z" fill="#425BB1"/>
<path d="M196.948 130.477H195.113V132.312H196.948V130.477Z" fill="#425BB1"/>
<path d="M196.948 133.552H195.113V135.387H196.948V133.552Z" fill="#425BB1"/>
<path d="M196.948 136.63H195.113V138.465H196.948V136.63Z" fill="#425BB1"/>
<path d="M196.948 139.705H195.113V141.54H196.948V139.705Z" fill="#425BB1"/>
<path d="M196.948 145.858H195.113V147.693H196.948V145.858Z" fill="#425BB1"/>
<path d="M196.948 148.936H195.113V150.771H196.948V148.936Z" fill="#425BB1"/>
<path d="M194.034 115.095H192.199V116.93H194.034V115.095Z" fill="#425BB1"/>
<path d="M194.034 118.172H192.199V120.007H194.034V118.172Z" fill="#425BB1"/>
<path d="M194.034 121.248H192.199V123.083H194.034V121.248Z" fill="#425BB1"/>
<path d="M194.034 124.325H192.199V126.16H194.034V124.325Z" fill="#425BB1"/>
<path d="M194.034 127.4H192.199V129.235H194.034V127.4Z" fill="#425BB1"/>
<path d="M194.034 130.477H192.199V132.312H194.034V130.477Z" fill="#425BB1"/>
<path d="M194.034 133.552H192.199V135.387H194.034V133.552Z" fill="#425BB1"/>
<path d="M194.034 136.63H192.199V138.465H194.034V136.63Z" fill="#425BB1"/>
<path d="M194.034 139.705H192.199V141.54H194.034V139.705Z" fill="#425BB1"/>
<path d="M194.034 142.783H192.199V144.618H194.034V142.783Z" fill="#425BB1"/>
<path d="M194.034 148.936H192.199V150.771H194.034V148.936Z" fill="#425BB1"/>
<path d="M191.12 115.095H189.285V116.93H191.12V115.095Z" fill="#425BB1"/>
<path d="M191.116 118.172H189.281V120.007H191.116V118.172Z" fill="#425BB1"/>
<path d="M191.12 121.248H189.285V123.083H191.12V121.248Z" fill="#425BB1"/>
<path d="M191.116 124.325H189.281V126.16H191.116V124.325Z" fill="#425BB1"/>
<path d="M191.116 127.4H189.281V129.235H191.116V127.4Z" fill="#425BB1"/>
<path d="M191.116 130.477H189.281V132.312H191.116V130.477Z" fill="#425BB1"/>
<path d="M191.116 133.552H189.281V135.387H191.116V133.552Z" fill="#425BB1"/>
<path d="M191.12 161.241H189.285V163.076H191.12V161.241Z" fill="#425BB1"/>
<path d="M188.206 115.095H186.371V116.93H188.206V115.095Z" fill="#425BB1"/>
<path d="M188.206 118.172H186.371V120.007H188.206V118.172Z" fill="#425BB1"/>
<path d="M188.206 121.248H186.371V123.083H188.206V121.248Z" fill="#425BB1"/>
<path d="M188.206 124.325H186.371V126.16H188.206V124.325Z" fill="#425BB1"/>
<path d="M188.206 127.4H186.371V129.235H188.206V127.4Z" fill="#425BB1"/>
<path d="M188.206 130.477H186.371V132.312H188.206V130.477Z" fill="#425BB1"/>
<path d="M188.206 133.552H186.371V135.387H188.206V133.552Z" fill="#425BB1"/>
<path d="M188.206 136.63H186.371V138.465H188.206V136.63Z" fill="#425BB1"/>
<path d="M188.206 155.088H186.371V156.923H188.206V155.088Z" fill="#425BB1"/>
<path d="M188.206 158.164H186.371V159.999H188.206V158.164Z" fill="#425BB1"/>
<path d="M188.206 161.241H186.371V163.076H188.206V161.241Z" fill="#425BB1"/>
<path d="M188.206 164.317H186.371V166.152H188.206V164.317Z" fill="#425BB1"/>
<path d="M188.206 176.623H186.371V178.458H188.206V176.623Z" fill="#425BB1"/>
<path d="M185.292 115.095H183.457V116.93H185.292V115.095Z" fill="#425BB1"/>
<path d="M185.288 118.172H183.453V120.007H185.288V118.172Z" fill="#425BB1"/>
<path d="M185.292 121.248H183.457V123.083H185.292V121.248Z" fill="#425BB1"/>
<path d="M185.288 124.325H183.453V126.16H185.288V124.325Z" fill="#425BB1"/>
<path d="M185.288 127.4H183.453V129.235H185.288V127.4Z" fill="#425BB1"/>
<path d="M185.288 130.477H183.453V132.312H185.288V130.477Z" fill="#425BB1"/>
<path d="M185.288 133.552H183.453V135.387H185.288V133.552Z" fill="#425BB1"/>
<path d="M185.288 136.63H183.453V138.465H185.288V136.63Z" fill="#425BB1"/>
<path d="M185.288 139.705H183.453V141.54H185.288V139.705Z" fill="#425BB1"/>
<path d="M185.288 142.783H183.453V144.618H185.288V142.783Z" fill="#425BB1"/>
<path d="M185.288 152.011H183.453V153.846H185.288V152.011Z" fill="#425BB1"/>
<path d="M185.292 155.088H183.457V156.923H185.292V155.088Z" fill="#425BB1"/>
<path d="M185.288 158.164H183.453V159.999H185.288V158.164Z" fill="#425BB1"/>
<path d="M185.292 161.241H183.457V163.076H185.292V161.241Z" fill="#425BB1"/>
<path d="M185.288 164.317H183.453V166.152H185.288V164.317Z" fill="#425BB1"/>
<path d="M185.288 176.623H183.453V178.458H185.288V176.623Z" fill="#425BB1"/>
<path d="M182.378 115.095H180.543V116.93H182.378V115.095Z" fill="#425BB1"/>
<path d="M182.378 118.172H180.543V120.007H182.378V118.172Z" fill="#425BB1"/>
<path d="M182.378 121.248H180.543V123.083H182.378V121.248Z" fill="#425BB1"/>
<path d="M182.378 124.325H180.543V126.16H182.378V124.325Z" fill="#425BB1"/>
<path d="M182.378 127.4H180.543V129.235H182.378V127.4Z" fill="#425BB1"/>
<path d="M182.378 130.477H180.543V132.312H182.378V130.477Z" fill="#425BB1"/>
<path d="M182.378 133.552H180.543V135.387H182.378V133.552Z" fill="#425BB1"/>
<path d="M182.378 136.63H180.543V138.465H182.378V136.63Z" fill="#425BB1"/>
<path d="M182.378 139.705H180.543V141.54H182.378V139.705Z" fill="#425BB1"/>
<path d="M182.378 142.783H180.543V144.618H182.378V142.783Z" fill="#425BB1"/>
<path d="M182.378 145.858H180.543V147.693H182.378V145.858Z" fill="#425BB1"/>
<path d="M182.378 148.936H180.543V150.771H182.378V148.936Z" fill="#425BB1"/>
<path d="M182.378 152.011H180.543V153.846H182.378V152.011Z" fill="#425BB1"/>
<path d="M182.378 155.088H180.543V156.923H182.378V155.088Z" fill="#425BB1"/>
<path d="M182.378 158.164H180.543V159.999H182.378V158.164Z" fill="#425BB1"/>
<path d="M182.378 161.241H180.543V163.076H182.378V161.241Z" fill="#425BB1"/>
<path d="M182.378 164.317H180.543V166.152H182.378V164.317Z" fill="#425BB1"/>
<path d="M182.378 167.392H180.543V169.227H182.378V167.392Z" fill="#425BB1"/>
<path d="M179.46 115.095H177.625V116.93H179.46V115.095Z" fill="#425BB1"/>
<path d="M179.46 118.172H177.625V120.007H179.46V118.172Z" fill="#425BB1"/>
<path d="M179.46 121.248H177.625V123.083H179.46V121.248Z" fill="#425BB1"/>
<path d="M179.46 124.325H177.625V126.16H179.46V124.325Z" fill="#425BB1"/>
<path d="M179.46 127.4H177.625V129.235H179.46V127.4Z" fill="#425BB1"/>
<path d="M179.46 130.477H177.625V132.312H179.46V130.477Z" fill="#425BB1"/>
<path d="M179.46 133.552H177.625V135.387H179.46V133.552Z" fill="#425BB1"/>
<path d="M179.46 136.63H177.625V138.465H179.46V136.63Z" fill="#425BB1"/>
<path d="M179.46 139.705H177.625V141.54H179.46V139.705Z" fill="#425BB1"/>
<path d="M179.46 142.783H177.625V144.618H179.46V142.783Z" fill="#425BB1"/>
<path d="M179.46 152.011H177.625V153.846H179.46V152.011Z" fill="#425BB1"/>
<path d="M179.46 155.088H177.625V156.923H179.46V155.088Z" fill="#425BB1"/>
<path d="M179.46 158.164H177.625V159.999H179.46V158.164Z" fill="#425BB1"/>
<path d="M179.46 161.241H177.625V163.076H179.46V161.241Z" fill="#425BB1"/>
<path d="M176.546 115.095H174.711V116.93H176.546V115.095Z" fill="#425BB1"/>
<path d="M176.55 118.172H174.715V120.007H176.55V118.172Z" fill="#425BB1"/>
<path d="M176.546 121.248H174.711V123.083H176.546V121.248Z" fill="#425BB1"/>
<path d="M176.55 124.325H174.715V126.16H176.55V124.325Z" fill="#425BB1"/>
<path d="M176.55 127.4H174.715V129.235H176.55V127.4Z" fill="#425BB1"/>
<path d="M176.55 130.477H174.715V132.312H176.55V130.477Z" fill="#425BB1"/>
<path d="M176.55 133.552H174.715V135.387H176.55V133.552Z" fill="#425BB1"/>
<path d="M176.55 136.63H174.715V138.465H176.55V136.63Z" fill="#425BB1"/>
<path d="M176.55 139.705H174.715V141.54H176.55V139.705Z" fill="#425BB1"/>
<path d="M176.55 142.783H174.715V144.618H176.55V142.783Z" fill="#425BB1"/>
<path d="M176.55 152.011H174.715V153.846H176.55V152.011Z" fill="#425BB1"/>
<path d="M176.546 155.088H174.711V156.923H176.546V155.088Z" fill="#425BB1"/>
<path d="M176.55 158.164H174.715V159.999H176.55V158.164Z" fill="#425BB1"/>
<path d="M143.734 107.107H141.898V108.943H143.734V107.107Z" fill="#425BB1"/>
<path d="M143.734 110.184H141.898V112.019H143.734V110.184Z" fill="#425BB1"/>
<path d="M143.734 113.26H141.898V115.095H143.734V113.26Z" fill="#425BB1"/>
<path d="M143.734 116.337H141.898V118.172H143.734V116.337Z" fill="#425BB1"/>
<path d="M143.734 119.412H141.898V121.247H143.734V119.412Z" fill="#425BB1"/>
<path d="M143.734 122.489H141.898V124.324H143.734V122.489Z" fill="#425BB1"/>
<path d="M143.734 125.566H141.898V127.401H143.734V125.566Z" fill="#425BB1"/>
<path d="M143.734 128.642H141.898V130.477H143.734V128.642Z" fill="#425BB1"/>
<path d="M143.734 137.871H141.898V139.706H143.734V137.871Z" fill="#425BB1"/>
<path d="M143.734 140.948H141.898V142.783H143.734V140.948Z" fill="#425BB1"/>
<path d="M140.82 107.107H138.984V108.943H140.82V107.107Z" fill="#425BB1"/>
<path d="M140.82 110.184H138.984V112.019H140.82V110.184Z" fill="#425BB1"/>
<path d="M140.82 113.26H138.984V115.095H140.82V113.26Z" fill="#425BB1"/>
<path d="M140.82 116.337H138.984V118.172H140.82V116.337Z" fill="#425BB1"/>
<path d="M140.82 119.412H138.984V121.247H140.82V119.412Z" fill="#425BB1"/>
<path d="M140.82 122.489H138.984V124.324H140.82V122.489Z" fill="#425BB1"/>
<path d="M140.82 125.566H138.984V127.401H140.82V125.566Z" fill="#425BB1"/>
<path d="M140.82 128.642H138.984V130.477H140.82V128.642Z" fill="#425BB1"/>
<path d="M140.82 140.948H138.984V142.783H140.82V140.948Z" fill="#425BB1"/>
<path d="M137.905 107.107H136.07V108.943H137.905V107.107Z" fill="#425BB1"/>
<path d="M137.905 110.184H136.07V112.019H137.905V110.184Z" fill="#425BB1"/>
<path d="M137.905 113.26H136.07V115.095H137.905V113.26Z" fill="#425BB1"/>
<path d="M137.905 116.337H136.07V118.172H137.905V116.337Z" fill="#425BB1"/>
<path d="M137.905 119.412H136.07V121.247H137.905V119.412Z" fill="#425BB1"/>
<path d="M137.905 122.489H136.07V124.324H137.905V122.489Z" fill="#425BB1"/>
<path d="M137.905 125.566H136.07V127.401H137.905V125.566Z" fill="#425BB1"/>
<path d="M137.905 128.642H136.07V130.477H137.905V128.642Z" fill="#425BB1"/>
<path d="M134.991 107.107H133.156V108.943H134.991V107.107Z" fill="#425BB1"/>
<path d="M134.991 110.184H133.156V112.019H134.991V110.184Z" fill="#425BB1"/>
<path d="M134.991 113.26H133.156V115.095H134.991V113.26Z" fill="#425BB1"/>
<path d="M134.991 116.337H133.156V118.172H134.991V116.337Z" fill="#425BB1"/>
<path d="M134.991 119.412H133.156V121.247H134.991V119.412Z" fill="#425BB1"/>
<path d="M134.991 122.489H133.156V124.324H134.991V122.489Z" fill="#425BB1"/>
<path d="M134.991 128.642H133.156V130.477H134.991V128.642Z" fill="#425BB1"/>
<path d="M134.991 131.718H133.156V133.553H134.991V131.718Z" fill="#425BB1"/>
<path d="M134.991 140.948H133.156V142.783H134.991V140.948Z" fill="#425BB1"/>
<path d="M134.991 144.023H133.156V145.858H134.991V144.023Z" fill="#425BB1"/>
<path d="M134.991 147.1H133.156V148.935H134.991V147.1Z" fill="#425BB1"/>
<path d="M134.991 150.176H133.156V152.011H134.991V150.176Z" fill="#425BB1"/>
<path d="M134.991 153.252H133.156V155.088H134.991V153.252Z" fill="#425BB1"/>
<path d="M134.991 156.329H133.156V158.164H134.991V156.329Z" fill="#425BB1"/>
<path d="M134.991 159.405H133.156V161.24H134.991V159.405Z" fill="#425BB1"/>
<path d="M132.077 107.107H130.242V108.943H132.077V107.107Z" fill="#425BB1"/>
<path d="M132.077 110.184H130.242V112.019H132.077V110.184Z" fill="#425BB1"/>
<path d="M132.077 113.26H130.242V115.095H132.077V113.26Z" fill="#425BB1"/>
<path d="M132.077 116.337H130.242V118.172H132.077V116.337Z" fill="#425BB1"/>
<path d="M132.077 119.412H130.242V121.247H132.077V119.412Z" fill="#425BB1"/>
<path d="M132.077 122.489H130.242V124.324H132.077V122.489Z" fill="#425BB1"/>
<path d="M132.077 131.718H130.242V133.553H132.077V131.718Z" fill="#425BB1"/>
<path d="M132.077 134.794H130.242V136.629H132.077V134.794Z" fill="#425BB1"/>
<path d="M132.077 137.871H130.242V139.706H132.077V137.871Z" fill="#425BB1"/>
<path d="M132.077 140.948H130.242V142.783H132.077V140.948Z" fill="#425BB1"/>
<path d="M132.077 144.023H130.242V145.858H132.077V144.023Z" fill="#425BB1"/>
<path d="M132.077 147.1H130.242V148.935H132.077V147.1Z" fill="#425BB1"/>
<path d="M132.077 150.176H130.242V152.011H132.077V150.176Z" fill="#425BB1"/>
<path d="M132.077 153.252H130.242V155.088H132.077V153.252Z" fill="#425BB1"/>
<path d="M132.077 156.329H130.242V158.164H132.077V156.329Z" fill="#425BB1"/>
<path d="M132.077 159.405H130.242V161.24H132.077V159.405Z" fill="#425BB1"/>
<path d="M132.077 162.482H130.242V164.317H132.077V162.482Z" fill="#425BB1"/>
<path d="M132.077 168.634H130.242V170.469H132.077V168.634Z" fill="#425BB1"/>
<path d="M129.163 107.107H127.328V108.943H129.163V107.107Z" fill="#425BB1"/>
<path d="M129.163 110.184H127.328V112.019H129.163V110.184Z" fill="#425BB1"/>
<path d="M129.163 113.26H127.328V115.095H129.163V113.26Z" fill="#425BB1"/>
<path d="M129.163 116.337H127.328V118.172H129.163V116.337Z" fill="#425BB1"/>
<path d="M129.163 119.412H127.328V121.247H129.163V119.412Z" fill="#425BB1"/>
<path d="M129.163 122.489H127.328V124.324H129.163V122.489Z" fill="#425BB1"/>
<path d="M129.163 131.718H127.328V133.553H129.163V131.718Z" fill="#425BB1"/>
<path d="M129.163 134.794H127.328V136.629H129.163V134.794Z" fill="#425BB1"/>
<path d="M129.163 137.871H127.328V139.706H129.163V137.871Z" fill="#425BB1"/>
<path d="M129.163 140.948H127.328V142.783H129.163V140.948Z" fill="#425BB1"/>
<path d="M129.163 150.176H127.328V152.011H129.163V150.176Z" fill="#425BB1"/>
<path d="M129.163 153.252H127.328V155.088H129.163V153.252Z" fill="#425BB1"/>
<path d="M129.163 156.329H127.328V158.164H129.163V156.329Z" fill="#425BB1"/>
<path d="M129.163 159.405H127.328V161.24H129.163V159.405Z" fill="#425BB1"/>
<path d="M129.163 162.482H127.328V164.317H129.163V162.482Z" fill="#425BB1"/>
<path d="M129.163 168.634H127.328V170.469H129.163V168.634Z" fill="#425BB1"/>
<path d="M129.163 171.711H127.328V173.546H129.163V171.711Z" fill="#425BB1"/>
<path d="M102.714 135.711H100.879V137.547H102.714V135.711Z" fill="#425BB1"/>
<path d="M102.714 138.788H100.879V140.623H102.714V138.788Z" fill="#425BB1"/>
<path d="M102.714 141.864H100.879V143.699H102.714V141.864Z" fill="#425BB1"/>
<path d="M102.714 144.941H100.879V146.776H102.714V144.941Z" fill="#425BB1"/>
<path d="M102.714 148.018H100.879V149.853H102.714V148.018Z" fill="#425BB1"/>
<path d="M102.714 151.094H100.879V152.929H102.714V151.094Z" fill="#425BB1"/>
<path d="M102.714 154.17H100.879V156.005H102.714V154.17Z" fill="#425BB1"/>
<path d="M102.714 163.399H100.879V165.234H102.714V163.399Z" fill="#425BB1"/>
<path d="M102.714 166.476H100.879V168.311H102.714V166.476Z" fill="#425BB1"/>
<path d="M102.714 169.552H100.879V171.387H102.714V169.552Z" fill="#425BB1"/>
<path d="M99.8039 135.711H97.9688V137.547H99.8039V135.711Z" fill="#425BB1"/>
<path d="M99.8039 138.788H97.9688V140.623H99.8039V138.788Z" fill="#425BB1"/>
<path d="M99.8039 141.864H97.9688V143.699H99.8039V141.864Z" fill="#425BB1"/>
<path d="M99.8039 144.941H97.9688V146.776H99.8039V144.941Z" fill="#425BB1"/>
<path d="M99.8039 148.018H97.9688V149.853H99.8039V148.018Z" fill="#425BB1"/>
<path d="M99.8039 151.094H97.9688V152.929H99.8039V151.094Z" fill="#425BB1"/>
<path d="M99.8039 154.17H97.9688V156.005H99.8039V154.17Z" fill="#425BB1"/>
<path d="M96.882 135.711H95.0469V137.547H96.882V135.711Z" fill="#425BB1"/>
<path d="M96.882 138.788H95.0469V140.623H96.882V138.788Z" fill="#425BB1"/>
<path d="M96.882 141.864H95.0469V143.699H96.882V141.864Z" fill="#425BB1"/>
<path d="M96.882 144.941H95.0469V146.776H96.882V144.941Z" fill="#425BB1"/>
<path d="M96.882 148.018H95.0469V149.853H96.882V148.018Z" fill="#425BB1"/>
<path d="M96.882 151.094H95.0469V152.929H96.882V151.094Z" fill="#425BB1"/>
<path d="M96.882 154.17H95.0469V156.005H96.882V154.17Z" fill="#425BB1"/>
<path d="M93.9719 135.711H92.1367V137.547H93.9719V135.711Z" fill="#425BB1"/>
<path d="M93.9719 138.788H92.1367V140.623H93.9719V138.788Z" fill="#425BB1"/>
<path d="M93.9719 141.864H92.1367V143.699H93.9719V141.864Z" fill="#425BB1"/>
<path d="M93.9719 144.941H92.1367V146.776H93.9719V144.941Z" fill="#425BB1"/>
<path d="M93.9719 148.018H92.1367V149.853H93.9719V148.018Z" fill="#425BB1"/>
<path d="M93.9719 151.094H92.1367V152.929H93.9719V151.094Z" fill="#425BB1"/>
<path d="M93.9719 154.17H92.1367V156.005H93.9719V154.17Z" fill="#425BB1"/>
<path d="M93.9719 157.247H92.1367V159.082H93.9719V157.247Z" fill="#425BB1"/>
<path d="M93.9719 160.323H92.1367V162.158H93.9719V160.323Z" fill="#425BB1"/>
<path d="M93.9719 163.399H92.1367V165.234H93.9719V163.399Z" fill="#425BB1"/>
<path d="M93.9719 166.476H92.1367V168.311H93.9719V166.476Z" fill="#425BB1"/>
<path d="M91.0578 135.711H89.2227V137.547H91.0578V135.711Z" fill="#425BB1"/>
<path d="M91.0578 138.788H89.2227V140.623H91.0578V138.788Z" fill="#425BB1"/>
<path d="M91.0578 141.864H89.2227V143.699H91.0578V141.864Z" fill="#425BB1"/>
<path d="M91.0578 144.941H89.2227V146.776H91.0578V144.941Z" fill="#425BB1"/>
<path d="M91.0578 148.018H89.2227V149.853H91.0578V148.018Z" fill="#425BB1"/>
<path d="M91.0578 151.094H89.2227V152.929H91.0578V151.094Z" fill="#425BB1"/>
<path d="M91.0578 154.17H89.2227V156.005H91.0578V154.17Z" fill="#425BB1"/>
<path d="M91.0578 157.247H89.2227V159.082H91.0578V157.247Z" fill="#425BB1"/>
<path d="M91.0578 160.323H89.2227V162.158H91.0578V160.323Z" fill="#425BB1"/>
<path d="M91.0578 163.399H89.2227V165.234H91.0578V163.399Z" fill="#425BB1"/>
<path d="M91.0578 166.476H89.2227V168.311H91.0578V166.476Z" fill="#425BB1"/>
<path d="M91.0578 169.552H89.2227V171.387H91.0578V169.552Z" fill="#425BB1"/>
<path d="M91.0578 178.782H89.2227V180.617H91.0578V178.782Z" fill="#425BB1"/>
<path d="M91.0578 181.858H89.2227V183.693H91.0578V181.858Z" fill="#425BB1"/>
<path d="M88.1398 135.711H86.3047V137.547H88.1398V135.711Z" fill="#425BB1"/>
<path d="M88.1398 138.788H86.3047V140.623H88.1398V138.788Z" fill="#425BB1"/>
<path d="M88.1398 141.864H86.3047V143.699H88.1398V141.864Z" fill="#425BB1"/>
<path d="M88.1398 151.094H86.3047V152.929H88.1398V151.094Z" fill="#425BB1"/>
<path d="M88.1398 154.17H86.3047V156.005H88.1398V154.17Z" fill="#425BB1"/>
<path d="M88.1398 157.247H86.3047V159.082H88.1398V157.247Z" fill="#425BB1"/>
<path d="M88.1398 160.323H86.3047V162.158H88.1398V160.323Z" fill="#425BB1"/>
<path d="M88.1398 163.399H86.3047V165.234H88.1398V163.399Z" fill="#425BB1"/>
<path d="M88.1398 166.476H86.3047V168.311H88.1398V166.476Z" fill="#425BB1"/>
<path d="M88.1398 169.552H86.3047V171.387H88.1398V169.552Z" fill="#425BB1"/>
<path d="M88.1398 178.782H86.3047V180.617H88.1398V178.782Z" fill="#425BB1"/>
<path d="M88.1398 181.858H86.3047V183.693H88.1398V181.858Z" fill="#425BB1"/>
<path d="M88.1398 184.934H86.3047V186.769H88.1398V184.934Z" fill="#425BB1"/>
<path d="M57.593 117.254H55.7578V119.089H57.593V117.254Z" fill="#425BB1"/>
<path d="M57.593 120.331H55.7578V122.166H57.593V120.331Z" fill="#425BB1"/>
<path d="M57.593 123.407H55.7578V125.242H57.593V123.407Z" fill="#425BB1"/>
<path d="M57.593 126.484H55.7578V128.319H57.593V126.484Z" fill="#425BB1"/>
<path d="M57.593 129.559H55.7578V131.394H57.593V129.559Z" fill="#425BB1"/>
<path d="M57.593 132.637H55.7578V134.472H57.593V132.637Z" fill="#425BB1"/>
<path d="M57.593 135.711H55.7578V137.547H57.593V135.711Z" fill="#425BB1"/>
<path d="M57.593 138.788H55.7578V140.623H57.593V138.788Z" fill="#425BB1"/>
<path d="M57.593 141.864H55.7578V143.699H57.593V141.864Z" fill="#425BB1"/>
<path d="M57.593 144.941H55.7578V146.776H57.593V144.941Z" fill="#425BB1"/>
<path d="M57.593 148.018H55.7578V149.853H57.593V148.018Z" fill="#425BB1"/>
<path d="M57.593 151.094H55.7578V152.929H57.593V151.094Z" fill="#425BB1"/>
<path d="M57.593 154.17H55.7578V156.005H57.593V154.17Z" fill="#425BB1"/>
<path d="M57.593 157.247H55.7578V159.082H57.593V157.247Z" fill="#425BB1"/>
<path d="M57.593 160.323H55.7578V162.158H57.593V160.323Z" fill="#425BB1"/>
<path d="M57.593 163.399H55.7578V165.234H57.593V163.399Z" fill="#425BB1"/>
<path d="M57.593 166.476H55.7578V168.311H57.593V166.476Z" fill="#425BB1"/>
<path d="M57.593 169.552H55.7578V171.387H57.593V169.552Z" fill="#425BB1"/>
<path d="M57.593 172.628H55.7578V174.464H57.593V172.628Z" fill="#425BB1"/>
<path d="M57.593 175.704H55.7578V177.539H57.593V175.704Z" fill="#425BB1"/>
<path d="M57.593 178.782H55.7578V180.617H57.593V178.782Z" fill="#425BB1"/>
<path d="M57.593 181.858H55.7578V183.693H57.593V181.858Z" fill="#425BB1"/>
<path d="M57.593 184.934H55.7578V186.769H57.593V184.934Z" fill="#425BB1"/>
<path d="M54.6789 117.254H52.8438V119.089H54.6789V117.254Z" fill="#425BB1"/>
<path d="M54.6789 120.331H52.8438V122.166H54.6789V120.331Z" fill="#425BB1"/>
<path d="M54.6789 123.407H52.8438V125.242H54.6789V123.407Z" fill="#425BB1"/>
<path d="M54.6789 126.484H52.8438V128.319H54.6789V126.484Z" fill="#425BB1"/>
<path d="M54.6789 129.559H52.8438V131.394H54.6789V129.559Z" fill="#425BB1"/>
<path d="M54.6789 132.637H52.8438V134.472H54.6789V132.637Z" fill="#425BB1"/>
<path d="M54.6789 135.711H52.8438V137.547H54.6789V135.711Z" fill="#425BB1"/>
<path d="M54.6789 138.788H52.8438V140.623H54.6789V138.788Z" fill="#425BB1"/>
<path d="M54.6789 141.864H52.8438V143.699H54.6789V141.864Z" fill="#425BB1"/>
<path d="M54.6789 144.941H52.8438V146.776H54.6789V144.941Z" fill="#425BB1"/>
<path d="M54.6789 148.018H52.8438V149.853H54.6789V148.018Z" fill="#425BB1"/>
<path d="M54.6789 151.094H52.8438V152.929H54.6789V151.094Z" fill="#425BB1"/>
<path d="M54.6789 154.17H52.8438V156.005H54.6789V154.17Z" fill="#425BB1"/>
<path d="M54.6789 157.247H52.8438V159.082H54.6789V157.247Z" fill="#425BB1"/>
<path d="M54.6789 160.323H52.8438V162.158H54.6789V160.323Z" fill="#425BB1"/>
<path d="M54.6789 163.399H52.8438V165.234H54.6789V163.399Z" fill="#425BB1"/>
<path d="M54.6789 166.476H52.8438V168.311H54.6789V166.476Z" fill="#425BB1"/>
<path d="M54.6789 169.552H52.8438V171.387H54.6789V169.552Z" fill="#425BB1"/>
<path d="M54.6789 172.628H52.8438V174.464H54.6789V172.628Z" fill="#425BB1"/>
<path d="M51.7648 117.254H49.9297V119.089H51.7648V117.254Z" fill="#425BB1"/>
<path d="M51.7687 120.331H49.9336V122.166H51.7687V120.331Z" fill="#425BB1"/>
<path d="M51.7648 123.407H49.9297V125.242H51.7648V123.407Z" fill="#425BB1"/>
<path d="M51.7687 126.484H49.9336V128.319H51.7687V126.484Z" fill="#425BB1"/>
<path d="M51.7648 129.559H49.9297V131.394H51.7648V129.559Z" fill="#425BB1"/>
<path d="M51.7687 132.637H49.9336V134.472H51.7687V132.637Z" fill="#425BB1"/>
<path d="M51.7687 135.711H49.9336V137.547H51.7687V135.711Z" fill="#425BB1"/>
<path d="M51.7648 138.788H49.9297V140.623H51.7648V138.788Z" fill="#425BB1"/>
<path d="M51.7687 141.864H49.9336V143.699H51.7687V141.864Z" fill="#425BB1"/>
<path d="M51.7648 144.941H49.9297V146.776H51.7648V144.941Z" fill="#425BB1"/>
<path d="M51.7687 148.018H49.9336V149.853H51.7687V148.018Z" fill="#425BB1"/>
<path d="M51.7648 151.094H49.9297V152.929H51.7648V151.094Z" fill="#425BB1"/>
<path d="M51.7687 154.17H49.9336V156.005H51.7687V154.17Z" fill="#425BB1"/>
<path d="M51.7648 157.247H49.9297V159.082H51.7648V157.247Z" fill="#425BB1"/>
<path d="M51.7687 160.323H49.9336V162.158H51.7687V160.323Z" fill="#425BB1"/>
<path d="M51.7648 163.399H49.9297V165.234H51.7648V163.399Z" fill="#425BB1"/>
<path d="M51.7687 166.476H49.9336V168.311H51.7687V166.476Z" fill="#425BB1"/>
<path d="M51.7648 169.552H49.9297V171.387H51.7648V169.552Z" fill="#425BB1"/>
<path d="M51.7687 172.628H49.9336V174.464H51.7687V172.628Z" fill="#425BB1"/>
<path d="M48.8508 117.254H47.0156V119.089H48.8508V117.254Z" fill="#425BB1"/>
<path d="M48.8508 120.331H47.0156V122.166H48.8508V120.331Z" fill="#425BB1"/>
<path d="M48.8508 123.407H47.0156V125.242H48.8508V123.407Z" fill="#425BB1"/>
<path d="M48.8508 126.484H47.0156V128.319H48.8508V126.484Z" fill="#425BB1"/>
<path d="M48.8508 129.559H47.0156V131.394H48.8508V129.559Z" fill="#425BB1"/>
<path d="M48.8508 132.637H47.0156V134.472H48.8508V132.637Z" fill="#425BB1"/>
<path d="M48.8508 135.711H47.0156V137.547H48.8508V135.711Z" fill="#425BB1"/>
<path d="M48.8508 138.788H47.0156V140.623H48.8508V138.788Z" fill="#425BB1"/>
<path d="M48.8508 141.864H47.0156V143.699H48.8508V141.864Z" fill="#425BB1"/>
<path d="M48.8508 144.941H47.0156V146.776H48.8508V144.941Z" fill="#425BB1"/>
<path d="M48.8508 148.018H47.0156V149.853H48.8508V148.018Z" fill="#425BB1"/>
<path d="M48.8508 151.094H47.0156V152.929H48.8508V151.094Z" fill="#425BB1"/>
<path d="M48.8508 154.17H47.0156V156.005H48.8508V154.17Z" fill="#425BB1"/>
<path d="M48.8508 157.247H47.0156V159.082H48.8508V157.247Z" fill="#425BB1"/>
<path d="M48.8508 160.323H47.0156V162.158H48.8508V160.323Z" fill="#425BB1"/>
<path d="M45.9367 117.254H44.1016V119.089H45.9367V117.254Z" fill="#425BB1"/>
<path d="M45.9367 120.331H44.1016V122.166H45.9367V120.331Z" fill="#425BB1"/>
<path d="M45.9367 123.407H44.1016V125.242H45.9367V123.407Z" fill="#425BB1"/>
<path d="M45.9367 126.484H44.1016V128.319H45.9367V126.484Z" fill="#425BB1"/>
<path d="M45.9367 129.559H44.1016V131.394H45.9367V129.559Z" fill="#425BB1"/>
<path d="M45.9367 132.637H44.1016V134.472H45.9367V132.637Z" fill="#425BB1"/>
<path d="M45.9367 135.711H44.1016V137.547H45.9367V135.711Z" fill="#425BB1"/>
<path d="M45.9367 138.788H44.1016V140.623H45.9367V138.788Z" fill="#425BB1"/>
<path d="M45.9367 141.864H44.1016V143.699H45.9367V141.864Z" fill="#425BB1"/>
<path d="M45.9367 144.941H44.1016V146.776H45.9367V144.941Z" fill="#425BB1"/>
<path d="M45.9367 148.018H44.1016V149.853H45.9367V148.018Z" fill="#425BB1"/>
<path d="M45.9367 151.094H44.1016V152.929H45.9367V151.094Z" fill="#425BB1"/>
<path d="M45.9367 154.17H44.1016V156.005H45.9367V154.17Z" fill="#425BB1"/>
<path d="M43.0226 117.254H41.1875V119.089H43.0226V117.254Z" fill="#425BB1"/>
<path d="M43.0226 120.331H41.1875V122.166H43.0226V120.331Z" fill="#425BB1"/>
<path d="M43.0226 123.407H41.1875V125.242H43.0226V123.407Z" fill="#425BB1"/>
<path d="M43.0226 126.484H41.1875V128.319H43.0226V126.484Z" fill="#425BB1"/>
<path d="M43.0226 129.559H41.1875V131.394H43.0226V129.559Z" fill="#425BB1"/>
<path d="M43.0226 132.637H41.1875V134.472H43.0226V132.637Z" fill="#425BB1"/>
<path d="M43.0226 135.711H41.1875V137.547H43.0226V135.711Z" fill="#425BB1"/>
<path d="M43.0226 138.788H41.1875V140.623H43.0226V138.788Z" fill="#425BB1"/>
<path d="M43.0226 141.864H41.1875V143.699H43.0226V141.864Z" fill="#425BB1"/>
<path d="M43.0226 144.941H41.1875V146.776H43.0226V144.941Z" fill="#425BB1"/>
<path d="M43.0226 148.018H41.1875V149.853H43.0226V148.018Z" fill="#425BB1"/>
<path d="M43.0226 151.094H41.1875V152.929H43.0226V151.094Z" fill="#425BB1"/>
<path d="M257.183 139.705H255.348V141.54H257.183V139.705Z" fill="#425BB1"/>
<path d="M257.183 142.783H255.348V144.618H257.183V142.783Z" fill="#425BB1"/>
<path d="M257.183 145.858H255.348V147.693H257.183V145.858Z" fill="#425BB1"/>
<path d="M257.183 148.936H255.348V150.771H257.183V148.936Z" fill="#425BB1"/>
<path d="M257.183 152.011H255.348V153.846H257.183V152.011Z" fill="#425BB1"/>
<path d="M257.183 155.088H255.348V156.924H257.183V155.088Z" fill="#425BB1"/>
<path d="M257.183 158.164H255.348V159.999H257.183V158.164Z" fill="#425BB1"/>
<path d="M257.183 161.241H255.348V163.076H257.183V161.241Z" fill="#425BB1"/>
<path d="M257.183 164.317H255.348V166.152H257.183V164.317Z" fill="#425BB1"/>
<path d="M257.183 167.392H255.348V169.227H257.183V167.392Z" fill="#425BB1"/>
<path d="M257.183 170.469H255.348V172.304H257.183V170.469Z" fill="#425BB1"/>
<path d="M257.183 173.545H255.348V175.38H257.183V173.545Z" fill="#425BB1"/>
<path d="M257.183 176.623H255.348V178.458H257.183V176.623Z" fill="#425BB1"/>
<path d="M257.183 179.698H255.348V181.533H257.183V179.698Z" fill="#425BB1"/>
<path d="M257.183 182.775H255.348V184.61H257.183V182.775Z" fill="#425BB1"/>
<path d="M257.183 185.851H255.348V187.686H257.183V185.851Z" fill="#425BB1"/>
<path d="M257.183 188.929H255.348V190.764H257.183V188.929Z" fill="#425BB1"/>
<path d="M257.183 192.004H255.348V193.84H257.183V192.004Z" fill="#425BB1"/>
<path d="M257.183 195.081H255.348V196.916H257.183V195.081Z" fill="#425BB1"/>
<path d="M257.183 198.157H255.348V199.992H257.183V198.157Z" fill="#425BB1"/>
<path d="M254.265 139.705H252.43V141.54H254.265V139.705Z" fill="#425BB1"/>
<path d="M254.265 142.783H252.43V144.618H254.265V142.783Z" fill="#425BB1"/>
<path d="M254.265 145.858H252.43V147.693H254.265V145.858Z" fill="#425BB1"/>
<path d="M254.265 148.936H252.43V150.771H254.265V148.936Z" fill="#425BB1"/>
<path d="M254.265 152.011H252.43V153.846H254.265V152.011Z" fill="#425BB1"/>
<path d="M254.265 155.088H252.43V156.924H254.265V155.088Z" fill="#425BB1"/>
<path d="M254.265 158.164H252.43V159.999H254.265V158.164Z" fill="#425BB1"/>
<path d="M254.265 161.241H252.43V163.076H254.265V161.241Z" fill="#425BB1"/>
<path d="M254.265 164.317H252.43V166.152H254.265V164.317Z" fill="#425BB1"/>
<path d="M254.265 167.392H252.43V169.227H254.265V167.392Z" fill="#425BB1"/>
<path d="M254.265 170.469H252.43V172.304H254.265V170.469Z" fill="#425BB1"/>
<path d="M254.265 173.545H252.43V175.38H254.265V173.545Z" fill="#425BB1"/>
<path d="M254.265 176.623H252.43V178.458H254.265V176.623Z" fill="#425BB1"/>
<path d="M254.265 179.698H252.43V181.533H254.265V179.698Z" fill="#425BB1"/>
<path d="M254.265 182.775H252.43V184.61H254.265V182.775Z" fill="#425BB1"/>
<path d="M254.265 185.851H252.43V187.686H254.265V185.851Z" fill="#425BB1"/>
<path d="M254.265 188.928H252.43V190.764H254.265V188.928Z" fill="#425BB1"/>
<path d="M254.265 192.004H252.43V193.84H254.265V192.004Z" fill="#425BB1"/>
<path d="M251.351 139.705H249.516V141.54H251.351V139.705Z" fill="#425BB1"/>
<path d="M251.351 142.783H249.516V144.618H251.351V142.783Z" fill="#425BB1"/>
<path d="M251.351 145.858H249.516V147.693H251.351V145.858Z" fill="#425BB1"/>
<path d="M251.351 148.936H249.516V150.771H251.351V148.936Z" fill="#425BB1"/>
<path d="M251.351 152.011H249.516V153.846H251.351V152.011Z" fill="#425BB1"/>
<path d="M251.351 155.088H249.516V156.924H251.351V155.088Z" fill="#425BB1"/>
<path d="M251.351 158.164H249.516V159.999H251.351V158.164Z" fill="#425BB1"/>
<path d="M251.351 161.241H249.516V163.076H251.351V161.241Z" fill="#425BB1"/>
<path d="M251.351 164.317H249.516V166.152H251.351V164.317Z" fill="#425BB1"/>
<path d="M251.351 167.392H249.516V169.227H251.351V167.392Z" fill="#425BB1"/>
<path d="M251.351 170.469H249.516V172.304H251.351V170.469Z" fill="#425BB1"/>
<path d="M251.351 173.545H249.516V175.38H251.351V173.545Z" fill="#425BB1"/>
<path d="M251.351 176.623H249.516V178.458H251.351V176.623Z" fill="#425BB1"/>
<path d="M251.351 179.698H249.516V181.533H251.351V179.698Z" fill="#425BB1"/>
<path d="M251.351 182.775H249.516V184.61H251.351V182.775Z" fill="#425BB1"/>
<path d="M251.351 185.851H249.516V187.686H251.351V185.851Z" fill="#425BB1"/>
<path d="M251.351 188.928H249.516V190.764H251.351V188.928Z" fill="#425BB1"/>
<path d="M251.351 192.004H249.516V193.84H251.351V192.004Z" fill="#425BB1"/>
<path d="M268.085 162.157H266.25V163.992H268.085V162.157Z" fill="#425BB1"/>
<path d="M268.085 165.235H266.25V167.07H268.085V165.235Z" fill="#425BB1"/>
<path d="M268.085 168.311H266.25V170.146H268.085V168.311Z" fill="#425BB1"/>
<path d="M268.085 171.387H266.25V173.223H268.085V171.387Z" fill="#425BB1"/>
<path d="M268.085 174.463H266.25V176.299H268.085V174.463Z" fill="#425BB1"/>
<path d="M268.085 177.54H266.25V179.375H268.085V177.54Z" fill="#425BB1"/>
<path d="M268.085 180.617H266.25V182.452H268.085V180.617Z" fill="#425BB1"/>
<path d="M268.085 183.693H266.25V185.528H268.085V183.693Z" fill="#425BB1"/>
<path d="M268.085 186.769H266.25V188.604H268.085V186.769Z" fill="#425BB1"/>
<path d="M268.085 189.845H266.25V191.68H268.085V189.845Z" fill="#425BB1"/>
<path d="M268.085 192.922H266.25V194.757H268.085V192.922Z" fill="#425BB1"/>
<path d="M268.085 195.998H266.25V197.833H268.085V195.998Z" fill="#425BB1"/>
<path d="M268.085 199.074H266.25V200.909H268.085V199.074Z" fill="#425BB1"/>
<path d="M265.171 162.157H263.336V163.992H265.171V162.157Z" fill="#425BB1"/>
<path d="M265.171 165.235H263.336V167.07H265.171V165.235Z" fill="#425BB1"/>
<path d="M265.171 168.311H263.336V170.146H265.171V168.311Z" fill="#425BB1"/>
<path d="M265.171 171.387H263.336V173.223H265.171V171.387Z" fill="#425BB1"/>
<path d="M265.171 174.463H263.336V176.299H265.171V174.463Z" fill="#425BB1"/>
<path d="M265.171 177.54H263.336V179.375H265.171V177.54Z" fill="#425BB1"/>
<path d="M265.171 180.617H263.336V182.452H265.171V180.617Z" fill="#425BB1"/>
<path d="M265.171 183.693H263.336V185.528H265.171V183.693Z" fill="#425BB1"/>
<path d="M265.171 186.769H263.336V188.604H265.171V186.769Z" fill="#425BB1"/>
<path d="M265.171 189.845H263.336V191.68H265.171V189.845Z" fill="#425BB1"/>
<path d="M265.171 192.922H263.336V194.757H265.171V192.922Z" fill="#425BB1"/>
<path d="M265.171 195.998H263.336V197.833H265.171V195.998Z" fill="#425BB1"/>
<path d="M265.171 199.074H263.336V200.909H265.171V199.074Z" fill="#425BB1"/>
<path d="M262.249 162.157H260.414V163.992H262.249V162.157Z" fill="#425BB1"/>
<path d="M262.249 165.235H260.414V167.07H262.249V165.235Z" fill="#425BB1"/>
<path d="M262.249 168.311H260.414V170.146H262.249V168.311Z" fill="#425BB1"/>
<path d="M262.249 171.387H260.414V173.223H262.249V171.387Z" fill="#425BB1"/>
<path d="M262.249 174.463H260.414V176.299H262.249V174.463Z" fill="#425BB1"/>
<path d="M262.249 177.54H260.414V179.375H262.249V177.54Z" fill="#425BB1"/>
<path d="M262.249 180.617H260.414V182.452H262.249V180.617Z" fill="#425BB1"/>
<path d="M262.249 183.693H260.414V185.528H262.249V183.693Z" fill="#425BB1"/>
<path d="M262.249 186.769H260.414V188.604H262.249V186.769Z" fill="#425BB1"/>
<path d="M262.249 189.845H260.414V191.68H262.249V189.845Z" fill="#425BB1"/>
<path d="M262.249 192.922H260.414V194.757H262.249V192.922Z" fill="#425BB1"/>
<path d="M262.249 195.998H260.414V197.833H262.249V195.998Z" fill="#425BB1"/>
<path d="M262.249 199.074H260.414V200.909H262.249V199.074Z" fill="#425BB1"/>
<path d="M262.249 202.151H260.414V203.986H262.249V202.151Z" fill="#425BB1"/>
<path d="M246.062 163.076H244.227V164.911H246.062V163.076Z" fill="#425BB1"/>
<path d="M246.062 166.152H244.227V167.987H246.062V166.152Z" fill="#425BB1"/>
<path d="M246.062 169.228H244.227V171.063H246.062V169.228Z" fill="#425BB1"/>
<path d="M246.062 172.305H244.227V174.14H246.062V172.305Z" fill="#425BB1"/>
<path d="M246.062 175.381H244.227V177.216H246.062V175.381Z" fill="#425BB1"/>
<path d="M246.062 178.457H244.227V180.292H246.062V178.457Z" fill="#425BB1"/>
<path d="M246.062 181.533H244.227V183.368H246.062V181.533Z" fill="#425BB1"/>
<path d="M246.062 184.61H244.227V186.445H246.062V184.61Z" fill="#425BB1"/>
<path d="M246.062 187.686H244.227V189.521H246.062V187.686Z" fill="#425BB1"/>
<path d="M246.062 190.763H244.227V192.598H246.062V190.763Z" fill="#425BB1"/>
<path d="M246.062 199.992H244.227V201.827H246.062V199.992Z" fill="#425BB1"/>
<path d="M243.148 163.076H241.312V164.911H243.148V163.076Z" fill="#425BB1"/>
<path d="M243.148 166.152H241.312V167.987H243.148V166.152Z" fill="#425BB1"/>
<path d="M243.148 169.228H241.312V171.063H243.148V169.228Z" fill="#425BB1"/>
<path d="M243.148 172.305H241.312V174.14H243.148V172.305Z" fill="#425BB1"/>
<path d="M243.148 175.381H241.312V177.216H243.148V175.381Z" fill="#425BB1"/>
<path d="M243.148 178.457H241.312V180.292H243.148V178.457Z" fill="#425BB1"/>
<path d="M243.148 181.533H241.312V183.368H243.148V181.533Z" fill="#425BB1"/>
<path d="M243.148 184.61H241.312V186.445H243.148V184.61Z" fill="#425BB1"/>
<path d="M243.148 187.686H241.312V189.521H243.148V187.686Z" fill="#425BB1"/>
<path d="M243.148 196.916H241.312V198.751H243.148V196.916Z" fill="#425BB1"/>
<path d="M243.148 199.992H241.312V201.827H243.148V199.992Z" fill="#425BB1"/>
<path d="M240.234 163.076H238.398V164.911H240.234V163.076Z" fill="#425BB1"/>
<path d="M240.234 166.152H238.398V167.987H240.234V166.152Z" fill="#425BB1"/>
<path d="M240.234 169.228H238.398V171.063H240.234V169.228Z" fill="#425BB1"/>
<path d="M240.234 172.305H238.398V174.14H240.234V172.305Z" fill="#425BB1"/>
<path d="M240.234 175.381H238.398V177.216H240.234V175.381Z" fill="#425BB1"/>
<path d="M240.234 178.457H238.398V180.292H240.234V178.457Z" fill="#425BB1"/>
<path d="M240.234 181.533H238.398V183.368H240.234V181.533Z" fill="#425BB1"/>
<path d="M240.234 184.61H238.398V186.445H240.234V184.61Z" fill="#425BB1"/>
<path d="M240.234 193.839H238.398V195.674H240.234V193.839Z" fill="#425BB1"/>
<path d="M240.234 196.916H238.398V198.751H240.234V196.916Z" fill="#425BB1"/>
<path d="M240.234 199.992H238.398V201.827H240.234V199.992Z" fill="#425BB1"/>
<path d="M213.14 116.337H211.305V118.172H213.14V116.337Z" fill="#425BB1"/>
<path d="M213.14 119.413H211.305V121.248H213.14V119.413Z" fill="#425BB1"/>
<path d="M213.14 122.489H211.305V124.324H213.14V122.489Z" fill="#425BB1"/>
<path d="M213.14 125.566H211.305V127.401H213.14V125.566Z" fill="#425BB1"/>
<path d="M213.14 128.642H211.305V130.477H213.14V128.642Z" fill="#425BB1"/>
<path d="M213.14 131.718H211.305V133.553H213.14V131.718Z" fill="#425BB1"/>
<path d="M213.14 134.794H211.305V136.629H213.14V134.794Z" fill="#425BB1"/>
<path d="M213.14 137.871H211.305V139.706H213.14V137.871Z" fill="#425BB1"/>
<path d="M213.14 140.947H211.305V142.782H213.14V140.947Z" fill="#425BB1"/>
<path d="M213.14 144.023H211.305V145.858H213.14V144.023Z" fill="#425BB1"/>
<path d="M213.14 147.1H211.305V148.935H213.14V147.1Z" fill="#425BB1"/>
<path d="M213.14 150.176H211.305V152.011H213.14V150.176Z" fill="#425BB1"/>
<path d="M213.14 153.252H211.305V155.088H213.14V153.252Z" fill="#425BB1"/>
<path d="M213.14 156.329H211.305V158.164H213.14V156.329Z" fill="#425BB1"/>
<path d="M213.14 159.405H211.305V161.24H213.14V159.405Z" fill="#425BB1"/>
<path d="M213.14 162.482H211.305V164.317H213.14V162.482Z" fill="#425BB1"/>
<path d="M213.14 165.558H211.305V167.393H213.14V165.558Z" fill="#425BB1"/>
<path d="M213.14 171.711H211.305V173.546H213.14V171.711Z" fill="#425BB1"/>
<path d="M213.14 174.788H211.305V176.623H213.14V174.788Z" fill="#425BB1"/>
<path d="M213.14 177.863H211.305V179.698H213.14V177.863Z" fill="#425BB1"/>
<path d="M213.14 180.94H211.305V182.775H213.14V180.94Z" fill="#425BB1"/>
<path d="M213.14 184.016H211.305V185.851H213.14V184.016Z" fill="#425BB1"/>
<path d="M210.226 116.337H208.391V118.172H210.226V116.337Z" fill="#425BB1"/>
<path d="M210.226 119.413H208.391V121.248H210.226V119.413Z" fill="#425BB1"/>
<path d="M210.226 122.489H208.391V124.324H210.226V122.489Z" fill="#425BB1"/>
<path d="M210.226 125.566H208.391V127.401H210.226V125.566Z" fill="#425BB1"/>
<path d="M210.226 128.642H208.391V130.477H210.226V128.642Z" fill="#425BB1"/>
<path d="M210.226 131.718H208.391V133.553H210.226V131.718Z" fill="#425BB1"/>
<path d="M210.226 134.794H208.391V136.629H210.226V134.794Z" fill="#425BB1"/>
<path d="M210.226 137.871H208.391V139.706H210.226V137.871Z" fill="#425BB1"/>
<path d="M210.226 140.947H208.391V142.782H210.226V140.947Z" fill="#425BB1"/>
<path d="M210.226 144.023H208.391V145.858H210.226V144.023Z" fill="#425BB1"/>
<path d="M210.226 147.1H208.391V148.935H210.226V147.1Z" fill="#425BB1"/>
<path d="M210.226 150.176H208.391V152.011H210.226V150.176Z" fill="#425BB1"/>
<path d="M210.226 153.252H208.391V155.088H210.226V153.252Z" fill="#425BB1"/>
<path d="M210.226 156.329H208.391V158.164H210.226V156.329Z" fill="#425BB1"/>
<path d="M210.226 159.405H208.391V161.24H210.226V159.405Z" fill="#425BB1"/>
<path d="M210.226 162.482H208.391V164.317H210.226V162.482Z" fill="#425BB1"/>
<path d="M210.226 180.94H208.391V182.775H210.226V180.94Z" fill="#425BB1"/>
<path d="M210.226 184.016H208.391V185.851H210.226V184.016Z" fill="#425BB1"/>
<path d="M207.312 116.337H205.477V118.172H207.312V116.337Z" fill="#425BB1"/>
<path d="M207.312 119.413H205.477V121.248H207.312V119.413Z" fill="#425BB1"/>
<path d="M207.312 122.489H205.477V124.324H207.312V122.489Z" fill="#425BB1"/>
<path d="M207.312 125.566H205.477V127.401H207.312V125.566Z" fill="#425BB1"/>
<path d="M207.312 128.642H205.477V130.477H207.312V128.642Z" fill="#425BB1"/>
<path d="M207.312 131.718H205.477V133.553H207.312V131.718Z" fill="#425BB1"/>
<path d="M207.312 134.794H205.477V136.629H207.312V134.794Z" fill="#425BB1"/>
<path d="M207.312 137.871H205.477V139.706H207.312V137.871Z" fill="#425BB1"/>
<path d="M207.312 140.947H205.477V142.782H207.312V140.947Z" fill="#425BB1"/>
<path d="M207.312 144.023H205.477V145.858H207.312V144.023Z" fill="#425BB1"/>
<path d="M207.312 147.1H205.477V148.935H207.312V147.1Z" fill="#425BB1"/>
<path d="M207.312 150.176H205.477V152.011H207.312V150.176Z" fill="#425BB1"/>
<path d="M207.312 153.252H205.477V155.088H207.312V153.252Z" fill="#425BB1"/>
<path d="M207.312 156.329H205.477V158.164H207.312V156.329Z" fill="#425BB1"/>
<path d="M207.312 159.405H205.477V161.24H207.312V159.405Z" fill="#425BB1"/>
<path d="M207.312 162.482H205.477V164.317H207.312V162.482Z" fill="#425BB1"/>
<path d="M207.312 168.634H205.477V170.469H207.312V168.634Z" fill="#425BB1"/>
<path d="M207.312 171.711H205.477V173.546H207.312V171.711Z" fill="#425BB1"/>
<path d="M207.312 174.788H205.477V176.623H207.312V174.788Z" fill="#425BB1"/>
<path d="M207.312 177.863H205.477V179.698H207.312V177.863Z" fill="#425BB1"/>
<path d="M207.312 184.016H205.477V185.851H207.312V184.016Z" fill="#425BB1"/>
<path d="M223.718 155.088H221.883V156.924H223.718V155.088Z" fill="#425BB1"/>
<path d="M223.718 158.164H221.883V159.999H223.718V158.164Z" fill="#425BB1"/>
<path d="M223.718 161.241H221.883V163.076H223.718V161.241Z" fill="#425BB1"/>
<path d="M223.718 164.317H221.883V166.152H223.718V164.317Z" fill="#425BB1"/>
<path d="M223.718 167.392H221.883V169.227H223.718V167.392Z" fill="#425BB1"/>
<path d="M223.718 170.469H221.883V172.304H223.718V170.469Z" fill="#425BB1"/>
<path d="M223.718 173.545H221.883V175.38H223.718V173.545Z" fill="#425BB1"/>
<path d="M223.718 179.698H221.883V181.533H223.718V179.698Z" fill="#425BB1"/>
<path d="M223.718 182.775H221.883V184.61H223.718V182.775Z" fill="#425BB1"/>
<path d="M223.718 185.851H221.883V187.686H223.718V185.851Z" fill="#425BB1"/>
<path d="M223.718 188.928H221.883V190.764H223.718V188.928Z" fill="#425BB1"/>
<path d="M223.718 192.004H221.883V193.84H223.718V192.004Z" fill="#425BB1"/>
<path d="M223.718 195.081H221.883V196.916H223.718V195.081Z" fill="#425BB1"/>
<path d="M223.718 198.157H221.883V199.992H223.718V198.157Z" fill="#425BB1"/>
<path d="M223.718 201.233H221.883V203.069H223.718V201.233Z" fill="#425BB1"/>
<path d="M220.804 155.088H218.969V156.924H220.804V155.088Z" fill="#425BB1"/>
<path d="M220.804 158.164H218.969V159.999H220.804V158.164Z" fill="#425BB1"/>
<path d="M220.804 161.241H218.969V163.076H220.804V161.241Z" fill="#425BB1"/>
<path d="M220.804 164.317H218.969V166.152H220.804V164.317Z" fill="#425BB1"/>
<path d="M220.804 167.392H218.969V169.227H220.804V167.392Z" fill="#425BB1"/>
<path d="M220.804 170.469H218.969V172.304H220.804V170.469Z" fill="#425BB1"/>
<path d="M220.804 179.698H218.969V181.533H220.804V179.698Z" fill="#425BB1"/>
<path d="M220.804 182.775H218.969V184.61H220.804V182.775Z" fill="#425BB1"/>
<path d="M220.804 185.851H218.969V187.686H220.804V185.851Z" fill="#425BB1"/>
<path d="M220.804 188.929H218.969V190.764H220.804V188.929Z" fill="#425BB1"/>
<path d="M220.804 192.004H218.969V193.84H220.804V192.004Z" fill="#425BB1"/>
<path d="M220.804 195.081H218.969V196.916H220.804V195.081Z" fill="#425BB1"/>
<path d="M220.804 198.157H218.969V199.992H220.804V198.157Z" fill="#425BB1"/>
<path d="M220.804 201.233H218.969V203.069H220.804V201.233Z" fill="#425BB1"/>
<path d="M217.89 155.088H216.055V156.923H217.89V155.088Z" fill="#425BB1"/>
<path d="M217.89 158.164H216.055V159.999H217.89V158.164Z" fill="#425BB1"/>
<path d="M217.89 161.241H216.055V163.076H217.89V161.241Z" fill="#425BB1"/>
<path d="M217.89 164.317H216.055V166.152H217.89V164.317Z" fill="#425BB1"/>
<path d="M217.89 167.392H216.055V169.227H217.89V167.392Z" fill="#425BB1"/>
<path d="M217.89 170.469H216.055V172.304H217.89V170.469Z" fill="#425BB1"/>
<path d="M217.89 176.623H216.055V178.458H217.89V176.623Z" fill="#425BB1"/>
<path d="M217.89 179.698H216.055V181.533H217.89V179.698Z" fill="#425BB1"/>
<path d="M217.89 182.775H216.055V184.61H217.89V182.775Z" fill="#425BB1"/>
<path d="M217.89 185.851H216.055V187.686H217.89V185.851Z" fill="#425BB1"/>
<path d="M217.89 188.928H216.055V190.764H217.89V188.928Z" fill="#425BB1"/>
<path d="M217.89 192.004H216.055V193.84H217.89V192.004Z" fill="#425BB1"/>
<path d="M217.89 195.081H216.055V196.916H217.89V195.081Z" fill="#425BB1"/>
<path d="M217.89 198.157H216.055V199.992H217.89V198.157Z" fill="#425BB1"/>
<path d="M217.89 201.233H216.055V203.069H217.89V201.233Z" fill="#425BB1"/>
<path d="M156.468 137.871H154.633V139.706H156.468V137.871Z" fill="#425BB1"/>
<path d="M156.468 140.947H154.633V142.782H156.468V140.947Z" fill="#425BB1"/>
<path d="M156.468 144.023H154.633V145.858H156.468V144.023Z" fill="#425BB1"/>
<path d="M156.468 147.1H154.633V148.935H156.468V147.1Z" fill="#425BB1"/>
<path d="M156.468 150.176H154.633V152.011H156.468V150.176Z" fill="#425BB1"/>
<path d="M156.468 153.252H154.633V155.088H156.468V153.252Z" fill="#425BB1"/>
<path d="M156.468 156.329H154.633V158.164H156.468V156.329Z" fill="#425BB1"/>
<path d="M156.468 159.405H154.633V161.24H156.468V159.405Z" fill="#425BB1"/>
<path d="M156.468 162.482H154.633V164.317H156.468V162.482Z" fill="#425BB1"/>
<path d="M156.468 165.558H154.633V167.393H156.468V165.558Z" fill="#425BB1"/>
<path d="M156.468 168.634H154.633V170.469H156.468V168.634Z" fill="#425BB1"/>
<path d="M156.468 171.711H154.633V173.546H156.468V171.711Z" fill="#425BB1"/>
<path d="M156.468 174.788H154.633V176.623H156.468V174.788Z" fill="#425BB1"/>
<path d="M156.468 180.94H154.633V182.775H156.468V180.94Z" fill="#425BB1"/>
<path d="M156.468 184.016H154.633V185.851H156.468V184.016Z" fill="#425BB1"/>
<path d="M156.468 187.093H154.633V188.928H156.468V187.093Z" fill="#425BB1"/>
<path d="M156.468 190.169H154.633V192.005H156.468V190.169Z" fill="#425BB1"/>
<path d="M156.468 196.322H154.633V198.157H156.468V196.322Z" fill="#425BB1"/>
<path d="M156.468 199.397H154.633V201.233H156.468V199.397Z" fill="#425BB1"/>
<path d="M156.468 202.475H154.633V204.31H156.468V202.475Z" fill="#425BB1"/>
<path d="M153.554 137.871H151.719V139.706H153.554V137.871Z" fill="#425BB1"/>
<path d="M153.554 140.947H151.719V142.782H153.554V140.947Z" fill="#425BB1"/>
<path d="M153.554 144.023H151.719V145.858H153.554V144.023Z" fill="#425BB1"/>
<path d="M153.554 147.1H151.719V148.935H153.554V147.1Z" fill="#425BB1"/>
<path d="M153.554 150.176H151.719V152.011H153.554V150.176Z" fill="#425BB1"/>
<path d="M153.554 153.252H151.719V155.088H153.554V153.252Z" fill="#425BB1"/>
<path d="M153.554 156.329H151.719V158.164H153.554V156.329Z" fill="#425BB1"/>
<path d="M153.554 159.405H151.719V161.24H153.554V159.405Z" fill="#425BB1"/>
<path d="M153.554 162.482H151.719V164.317H153.554V162.482Z" fill="#425BB1"/>
<path d="M153.554 165.558H151.719V167.393H153.554V165.558Z" fill="#425BB1"/>
<path d="M153.554 168.634H151.719V170.469H153.554V168.634Z" fill="#425BB1"/>
<path d="M153.554 171.711H151.719V173.546H153.554V171.711Z" fill="#425BB1"/>
<path d="M153.554 174.788H151.719V176.623H153.554V174.788Z" fill="#425BB1"/>
<path d="M153.554 184.016H151.719V185.851H153.554V184.016Z" fill="#425BB1"/>
<path d="M153.554 187.093H151.719V188.928H153.554V187.093Z" fill="#425BB1"/>
<path d="M153.554 193.245H151.719V195.081H153.554V193.245Z" fill="#425BB1"/>
<path d="M153.554 196.322H151.719V198.157H153.554V196.322Z" fill="#425BB1"/>
<path d="M153.554 199.397H151.719V201.233H153.554V199.397Z" fill="#425BB1"/>
<path d="M153.554 202.475H151.719V204.31H153.554V202.475Z" fill="#425BB1"/>
<path d="M150.64 137.871H148.805V139.706H150.64V137.871Z" fill="#425BB1"/>
<path d="M150.64 140.947H148.805V142.782H150.64V140.947Z" fill="#425BB1"/>
<path d="M150.64 144.023H148.805V145.858H150.64V144.023Z" fill="#425BB1"/>
<path d="M150.64 147.1H148.805V148.935H150.64V147.1Z" fill="#425BB1"/>
<path d="M150.64 150.176H148.805V152.011H150.64V150.176Z" fill="#425BB1"/>
<path d="M150.64 153.252H148.805V155.088H150.64V153.252Z" fill="#425BB1"/>
<path d="M150.64 156.329H148.805V158.164H150.64V156.329Z" fill="#425BB1"/>
<path d="M150.64 159.405H148.805V161.24H150.64V159.405Z" fill="#425BB1"/>
<path d="M150.64 162.482H148.805V164.317H150.64V162.482Z" fill="#425BB1"/>
<path d="M150.64 165.558H148.805V167.393H150.64V165.558Z" fill="#425BB1"/>
<path d="M150.64 168.634H148.805V170.469H150.64V168.634Z" fill="#425BB1"/>
<path d="M150.64 171.711H148.805V173.546H150.64V171.711Z" fill="#425BB1"/>
<path d="M150.64 174.788H148.805V176.623H150.64V174.788Z" fill="#425BB1"/>
<path d="M150.64 177.863H148.805V179.698H150.64V177.863Z" fill="#425BB1"/>
<path d="M150.64 184.016H148.805V185.851H150.64V184.016Z" fill="#425BB1"/>
<path d="M150.64 190.169H148.805V192.005H150.64V190.169Z" fill="#425BB1"/>
<path d="M150.64 193.245H148.805V195.081H150.64V193.245Z" fill="#425BB1"/>
<path d="M150.64 196.322H148.805V198.157H150.64V196.322Z" fill="#425BB1"/>
<path d="M150.64 199.397H148.805V201.233H150.64V199.397Z" fill="#425BB1"/>
<path d="M150.64 202.475H148.805V204.31H150.64V202.475Z" fill="#425BB1"/>
<path d="M168.343 155.412H166.508V157.247H168.343V155.412Z" fill="#425BB1"/>
<path d="M168.343 158.488H166.508V160.323H168.343V158.488Z" fill="#425BB1"/>
<path d="M168.343 161.564H166.508V163.4H168.343V161.564Z" fill="#425BB1"/>
<path d="M168.343 164.64H166.508V166.475H168.343V164.64Z" fill="#425BB1"/>
<path d="M168.343 167.717H166.508V169.552H168.343V167.717Z" fill="#425BB1"/>
<path d="M168.343 170.794H166.508V172.629H168.343V170.794Z" fill="#425BB1"/>
<path d="M168.343 180.023H166.508V181.858H168.343V180.023Z" fill="#425BB1"/>
<path d="M168.343 183.099H166.508V184.934H168.343V183.099Z" fill="#425BB1"/>
<path d="M168.343 186.175H166.508V188.01H168.343V186.175Z" fill="#425BB1"/>
<path d="M168.343 189.252H166.508V191.087H168.343V189.252Z" fill="#425BB1"/>
<path d="M168.343 192.328H166.508V194.163H168.343V192.328Z" fill="#425BB1"/>
<path d="M168.343 195.405H166.508V197.24H168.343V195.405Z" fill="#425BB1"/>
<path d="M168.343 198.48H166.508V200.316H168.343V198.48Z" fill="#425BB1"/>
<path d="M165.429 155.412H163.594V157.247H165.429V155.412Z" fill="#425BB1"/>
<path d="M165.429 158.488H163.594V160.323H165.429V158.488Z" fill="#425BB1"/>
<path d="M165.429 161.564H163.594V163.4H165.429V161.564Z" fill="#425BB1"/>
<path d="M165.429 164.64H163.594V166.475H165.429V164.64Z" fill="#425BB1"/>
<path d="M165.429 167.717H163.594V169.552H165.429V167.717Z" fill="#425BB1"/>
<path d="M165.429 170.794H163.594V172.629H165.429V170.794Z" fill="#425BB1"/>
<path d="M165.429 180.023H163.594V181.858H165.429V180.023Z" fill="#425BB1"/>
<path d="M165.429 183.099H163.594V184.934H165.429V183.099Z" fill="#425BB1"/>
<path d="M165.429 186.175H163.594V188.01H165.429V186.175Z" fill="#425BB1"/>
<path d="M165.429 189.252H163.594V191.087H165.429V189.252Z" fill="#425BB1"/>
<path d="M165.429 192.328H163.594V194.163H165.429V192.328Z" fill="#425BB1"/>
<path d="M165.429 195.405H163.594V197.24H165.429V195.405Z" fill="#425BB1"/>
<path d="M165.429 201.557H163.594V203.392H165.429V201.557Z" fill="#425BB1"/>
<path d="M68.6086 141.864H66.7734V143.699H68.6086V141.864Z" fill="#425BB1"/>
<path d="M68.6086 144.941H66.7734V146.776H68.6086V144.941Z" fill="#425BB1"/>
<path d="M68.6086 148.018H66.7734V149.853H68.6086V148.018Z" fill="#425BB1"/>
<path d="M68.6086 151.094H66.7734V152.929H68.6086V151.094Z" fill="#425BB1"/>
<path d="M68.6086 154.17H66.7734V156.005H68.6086V154.17Z" fill="#425BB1"/>
<path d="M68.6086 157.247H66.7734V159.082H68.6086V157.247Z" fill="#425BB1"/>
<path d="M68.6086 160.323H66.7734V162.158H68.6086V160.323Z" fill="#425BB1"/>
<path d="M68.6086 163.399H66.7734V165.234H68.6086V163.399Z" fill="#425BB1"/>
<path d="M68.6086 166.476H66.7734V168.311H68.6086V166.476Z" fill="#425BB1"/>
<path d="M68.6086 169.552H66.7734V171.387H68.6086V169.552Z" fill="#425BB1"/>
<path d="M68.6086 172.628H66.7734V174.464H68.6086V172.628Z" fill="#425BB1"/>
<path d="M68.6086 178.782H66.7734V180.617H68.6086V178.782Z" fill="#425BB1"/>
<path d="M68.6086 181.858H66.7734V183.693H68.6086V181.858Z" fill="#425BB1"/>
<path d="M68.6086 184.934H66.7734V186.769H68.6086V184.934Z" fill="#425BB1"/>
<path d="M68.6086 188.01H66.7734V189.845H68.6086V188.01Z" fill="#425BB1"/>
<path d="M68.6086 191.088H66.7734V192.923H68.6086V191.088Z" fill="#425BB1"/>
<path d="M68.6086 194.163H66.7734V195.998H68.6086V194.163Z" fill="#425BB1"/>
<path d="M68.6086 197.239H66.7734V199.074H68.6086V197.239Z" fill="#425BB1"/>
<path d="M68.6086 200.316H66.7734V202.151H68.6086V200.316Z" fill="#425BB1"/>
<path d="M65.6867 141.864H63.8516V143.699H65.6867V141.864Z" fill="#425BB1"/>
<path d="M65.6906 144.941H63.8555V146.776H65.6906V144.941Z" fill="#425BB1"/>
<path d="M65.6867 148.018H63.8516V149.853H65.6867V148.018Z" fill="#425BB1"/>
<path d="M65.6906 151.094H63.8555V152.929H65.6906V151.094Z" fill="#425BB1"/>
<path d="M65.6867 154.17H63.8516V156.005H65.6867V154.17Z" fill="#425BB1"/>
<path d="M65.6906 157.247H63.8555V159.082H65.6906V157.247Z" fill="#425BB1"/>
<path d="M65.6867 160.323H63.8516V162.158H65.6867V160.323Z" fill="#425BB1"/>
<path d="M65.6906 163.399H63.8555V165.234H65.6906V163.399Z" fill="#425BB1"/>
<path d="M65.6867 166.476H63.8516V168.311H65.6867V166.476Z" fill="#425BB1"/>
<path d="M65.6906 169.552H63.8555V171.387H65.6906V169.552Z" fill="#425BB1"/>
<path d="M65.6867 172.628H63.8516V174.464H65.6867V172.628Z" fill="#425BB1"/>
<path d="M65.6906 175.704H63.8555V177.539H65.6906V175.704Z" fill="#425BB1"/>
<path d="M65.6867 178.782H63.8516V180.617H65.6867V178.782Z" fill="#425BB1"/>
<path d="M65.6906 181.858H63.8555V183.693H65.6906V181.858Z" fill="#425BB1"/>
<path d="M65.6867 184.934H63.8516V186.769H65.6867V184.934Z" fill="#425BB1"/>
<path d="M65.6906 188.01H63.8555V189.845H65.6906V188.01Z" fill="#425BB1"/>
<path d="M65.6867 191.088H63.8516V192.923H65.6867V191.088Z" fill="#425BB1"/>
<path d="M65.6906 194.163H63.8555V195.998H65.6906V194.163Z" fill="#425BB1"/>
<path d="M65.6867 197.239H63.8516V199.074H65.6867V197.239Z" fill="#425BB1"/>
<path d="M65.6906 200.316H63.8555V202.151H65.6906V200.316Z" fill="#425BB1"/>
<path d="M82.9601 153.846H81.125V155.682H82.9601V153.846Z" fill="#425BB1"/>
<path d="M82.9601 156.923H81.125V158.758H82.9601V156.923Z" fill="#425BB1"/>
<path d="M82.9601 159.999H81.125V161.834H82.9601V159.999Z" fill="#425BB1"/>
<path d="M82.9601 163.076H81.125V164.911H82.9601V163.076Z" fill="#425BB1"/>
<path d="M82.9601 166.152H81.125V167.987H82.9601V166.152Z" fill="#425BB1"/>
<path d="M82.9601 169.228H81.125V171.063H82.9601V169.228Z" fill="#425BB1"/>
<path d="M82.9601 172.305H81.125V174.14H82.9601V172.305Z" fill="#425BB1"/>
<path d="M82.9601 175.381H81.125V177.216H82.9601V175.381Z" fill="#425BB1"/>
<path d="M82.9601 178.457H81.125V180.292H82.9601V178.457Z" fill="#425BB1"/>
<path d="M82.9601 181.533H81.125V183.368H82.9601V181.533Z" fill="#425BB1"/>
<path d="M80.0461 153.846H78.2109V155.682H80.0461V153.846Z" fill="#425BB1"/>
<path d="M80.0461 156.923H78.2109V158.758H80.0461V156.923Z" fill="#425BB1"/>
<path d="M80.0461 159.999H78.2109V161.834H80.0461V159.999Z" fill="#425BB1"/>
<path d="M80.0461 163.076H78.2109V164.911H80.0461V163.076Z" fill="#425BB1"/>
<path d="M80.0461 166.152H78.2109V167.987H80.0461V166.152Z" fill="#425BB1"/>
<path d="M80.0461 169.228H78.2109V171.063H80.0461V169.228Z" fill="#425BB1"/>
<path d="M80.0461 172.305H78.2109V174.14H80.0461V172.305Z" fill="#425BB1"/>
<path d="M80.0461 175.381H78.2109V177.216H80.0461V175.381Z" fill="#425BB1"/>
<path d="M80.0461 178.457H78.2109V180.292H80.0461V178.457Z" fill="#425BB1"/>
<path d="M155.468 239.195C223.347 239.195 278.374 235.982 278.374 232.018C278.374 228.054 223.347 224.84 155.468 224.84C87.5893 224.84 32.5625 228.054 32.5625 232.018C32.5625 235.982 87.5893 239.195 155.468 239.195Z" fill="#F5F5F5"/>
<path d="M152.605 117.201L153.672 118.522L52.418 199.174L56.731 204.513L57.3224 205.246L158.576 124.594L159.642 125.914L161.539 117.183L152.605 117.201Z" fill="#407BFF"/>
<path opacity="0.7" d="M152.605 117.201L153.672 118.522L52.418 199.174L56.731 204.513L57.3224 205.246L158.576 124.594L159.642 125.914L161.539 117.183L152.605 117.201Z" fill="white"/>
<path d="M37.5156 204.814C37.5156 202.973 39.0085 201.48 40.8493 201.48C41.1821 201.48 41.5035 201.53 41.8065 201.622C41.7577 201.288 41.7317 200.946 41.7317 200.599C41.7317 196.7 44.8923 193.539 48.7908 193.539C49.2351 193.539 49.6694 193.583 50.0909 193.661C51.1761 191.885 53.126 190.696 55.3599 190.696C58.7398 190.696 61.4821 193.412 61.5321 196.78C61.5664 196.779 61.6 196.775 61.6348 196.775C64.7758 196.775 67.3215 199.321 67.3215 202.462C67.3215 205.602 64.7758 208.148 61.6348 208.148H40.751L40.7555 208.143C38.9577 208.093 37.5156 206.624 37.5156 204.814Z" fill="#407BFF"/>
<path opacity="0.8" d="M37.5156 204.814C37.5156 202.973 39.0085 201.48 40.8493 201.48C41.1821 201.48 41.5035 201.53 41.8065 201.622C41.7577 201.288 41.7317 200.946 41.7317 200.599C41.7317 196.7 44.8923 193.539 48.7908 193.539C49.2351 193.539 49.6694 193.583 50.0909 193.661C51.1761 191.885 53.126 190.696 55.3599 190.696C58.7398 190.696 61.4821 193.412 61.5321 196.78C61.5664 196.779 61.6 196.775 61.6348 196.775C64.7758 196.775 67.3215 199.321 67.3215 202.462C67.3215 205.602 64.7758 208.148 61.6348 208.148H40.751L40.7555 208.143C38.9577 208.093 37.5156 206.624 37.5156 204.814Z" fill="white"/>
<path d="M249.766 168.292L252.295 171.423L205.23 209.441L215.456 222.101L216.859 223.838L263.924 185.82L266.453 188.951L270.95 168.25L249.766 168.292Z" fill="#407BFF"/>
<path opacity="0.5" d="M249.766 168.292L252.295 171.423L205.23 209.441L215.456 222.101L216.859 223.838L263.924 185.82L266.453 188.951L270.95 168.25L249.766 168.292Z" fill="white"/>
<path d="M224.318 208.074C222.419 205.044 219.059 203.021 215.219 203.021C211.315 203.021 207.908 205.111 206.027 208.226C205.534 208.088 205.015 208.008 204.478 208.008C201.3 208.008 198.723 210.585 198.723 213.763C198.723 213.765 198.724 213.768 198.724 213.77H195.69C194.11 213.77 192.816 215.064 192.816 216.644C192.816 218.224 194.11 219.517 195.69 219.517H206.159C208.065 222.512 211.406 224.504 215.219 224.504C218.226 224.504 220.94 223.266 222.89 221.275C223.071 221.29 223.253 221.303 223.438 221.303C227.109 221.303 230.085 218.327 230.085 214.656C230.085 211.284 227.572 208.505 224.318 208.074Z" fill="#407BFF"/>
<path opacity="0.8" d="M224.318 208.074C222.419 205.044 219.059 203.021 215.219 203.021C211.315 203.021 207.908 205.111 206.027 208.226C205.534 208.088 205.015 208.008 204.478 208.008C201.3 208.008 198.723 210.585 198.723 213.763C198.723 213.765 198.724 213.768 198.724 213.77H195.69C194.11 213.77 192.816 215.064 192.816 216.644C192.816 218.224 194.11 219.517 195.69 219.517H206.159C208.065 222.512 211.406 224.504 215.219 224.504C218.226 224.504 220.94 223.266 222.89 221.275C223.071 221.29 223.253 221.303 223.438 221.303C227.109 221.303 230.085 218.327 230.085 214.656C230.085 211.284 227.572 208.505 224.318 208.074Z" fill="white"/>
<path d="M153.664 79.4466L152.75 78.4837C152.504 78.2244 152.144 78.1091 151.793 78.1763L150.426 78.4387C149.979 78.5243 149.638 78.8888 149.583 79.3401L148.883 85.0699L151.004 85.8832C153.586 84.7599 153.452 81.3489 153.452 81.3489L153.823 80.67C154.041 80.2713 153.977 79.7769 153.664 79.4466Z" fill="#FFB573"/>
<path d="M128.072 96.6173C128.072 96.6173 130.102 96.7402 131.293 96.7111C132.494 96.6946 133.689 96.673 134.864 96.6059C136.034 96.531 137.197 96.4486 138.264 96.3009C138.792 96.2268 139.306 96.1317 139.71 96.0214C139.9 95.9669 140.083 95.9092 140.167 95.875C140.303 95.8122 140.153 95.9225 140.229 95.8794C140.428 95.7108 140.812 95.2525 141.149 94.8271C141.496 94.3859 141.846 93.9105 142.192 93.4269C142.888 92.457 143.578 91.4491 144.267 90.4355L148.408 84.2917L151.643 86.0147C151.168 87.1982 150.652 88.3385 150.135 89.4929C149.6 90.6345 149.055 91.773 148.493 92.9115C147.922 94.0455 147.328 95.1726 146.684 96.3009C146.357 96.8651 146.022 97.4299 145.653 98.0068C145.269 98.5957 144.916 99.1459 144.248 99.8736C143.889 100.274 143.23 100.759 142.805 100.968C142.338 101.223 141.936 101.382 141.538 101.533C140.759 101.813 140.054 101.991 139.36 102.146C137.978 102.454 136.661 102.637 135.35 102.763C132.723 103.023 130.203 103.121 127.57 103.062L128.072 96.6173Z" fill="#407BFF"/>
<path opacity="0.7" d="M151.639 86.0167C151.164 87.1957 150.651 88.3367 150.137 89.4904C149.598 90.6315 149.053 91.7725 148.489 92.9135C147.918 94.0418 147.329 95.1702 146.682 96.2985C146.359 96.8627 146.023 97.4268 145.649 98.0037C145.269 98.5932 144.914 99.1447 144.248 99.8737C143.887 100.273 143.228 100.755 142.803 100.964C142.334 101.224 141.934 101.382 141.535 101.535C140.755 101.813 140.052 101.991 139.361 102.143C137.979 102.454 136.66 102.637 135.348 102.764C134.784 102.821 134.226 102.866 133.675 102.91C131.64 103.056 129.637 103.107 127.57 103.062L127.672 101.731L128.071 96.6155C128.071 96.6155 130.1 96.7422 131.291 96.7105C132.496 96.6915 133.687 96.6725 134.866 96.6028C136.033 96.5331 137.199 96.4506 138.264 96.2985C138.79 96.2288 139.304 96.1337 139.709 96.0196C139.9 95.9689 140.083 95.9118 140.166 95.8738C140.305 95.8104 140.153 95.9245 140.229 95.8801C140.426 95.709 140.812 95.2526 141.148 94.8279C141.497 94.3841 141.846 93.9087 142.188 93.4269C142.885 92.4571 143.576 91.4492 144.267 90.4349L148.407 84.2925L151.639 86.0167Z" fill="white"/>
<path opacity="0.1" d="M133.675 102.91C131.64 103.056 129.637 103.107 127.57 103.062L127.672 101.731L128.166 100.565C128.166 100.565 131.488 100.52 133.675 102.91Z" fill="black"/>
<path d="M94.1701 210.332C94.1701 210.332 88.4315 206.384 88.7833 203.732C88.8181 203.471 88.6654 203.241 88.3896 203.199L83.5251 202.464C83.2981 202.429 83.0554 202.533 82.921 202.722L80.0469 206.749L81.3381 207.216L82.031 206.73L82.3568 207.585C89.3646 210.12 92.4199 211.141 93.9647 211.206C94.3914 210.66 94.1701 210.332 94.1701 210.332Z" fill="black"/>
<path d="M126.487 135.765C126.487 135.765 126.195 136.526 125.682 137.844C125.13 139.27 124.319 141.35 123.343 143.822C122.69 145.47 121.967 147.295 121.188 149.216C117.606 158.116 112.979 169.127 109.917 174.686C104.053 185.323 88.7763 205.525 88.7763 205.525L82.6719 203.294C82.6719 203.294 93.6637 182.489 99.2103 171.948C100.903 168.734 102.849 164.005 104.776 158.845C105.695 156.392 106.608 153.837 107.489 151.308C107.888 150.167 108.281 149.026 108.662 147.904C109.67 144.937 110.614 142.078 111.445 139.53C111.546 139.213 111.647 138.896 111.749 138.592C112.085 137.546 112.402 136.557 112.687 135.644C113.879 131.892 114.62 129.42 114.646 129.324C114.652 129.324 114.652 129.324 114.652 129.324L120.097 132.291L126.487 135.765Z" fill="#263238"/>
<path opacity="0.3" d="M125.685 137.844C125.134 139.271 124.322 141.35 123.346 143.822C122.693 145.47 121.97 147.296 121.191 149.217C116.208 150.218 111.137 150.896 107.492 151.308C107.892 150.167 108.285 149.026 108.665 147.904C109.673 144.938 110.617 142.079 111.448 139.531C111.549 139.214 111.651 138.897 111.752 138.592C112.088 137.546 112.405 136.558 112.69 135.645C116.354 136.146 121.254 136.894 125.685 137.844Z" fill="black"/>
<path d="M106.984 99.9935C106.984 99.9985 106.989 100.003 106.989 100.007C107.867 102.956 108.383 106.383 108.671 109.762C108.892 112.39 108.977 114.978 108.988 117.3C108.997 119.639 108.927 121.709 108.851 123.294C108.749 125.33 108.628 126.585 108.628 126.585L127.888 127.574C133.667 106.631 128.079 96.6173 128.079 96.6173C128.079 96.6173 125.679 96.3752 122.914 96.4988C122.558 96.5095 122.196 96.5374 121.825 96.566C119.47 96.7625 115.717 97.5073 113.211 98.0734C112.695 98.1868 112.176 98.3212 111.67 98.4582C109.153 99.1447 106.984 99.9935 106.984 99.9935Z" fill="#407BFF"/>
<path opacity="0.7" d="M127.886 127.576L108.629 126.587C108.629 126.587 108.749 125.332 108.85 123.291C108.876 122.695 108.901 122.017 108.927 121.282C108.965 120.096 108.99 118.752 108.99 117.301C108.984 116.597 108.971 115.868 108.952 115.12C108.952 115 108.946 114.879 108.946 114.759C108.914 113.573 108.857 112.344 108.774 111.095C108.736 110.651 108.705 110.207 108.667 109.764C108.641 109.415 108.61 109.06 108.578 108.711C108.483 107.824 108.381 106.936 108.255 106.062C108.223 105.821 108.185 105.58 108.147 105.345C108.09 104.946 108.026 104.559 107.957 104.166C107.697 102.721 107.38 101.314 106.993 100.002C106.993 100.002 106.987 99.9952 106.98 99.9952C106.98 99.9952 109.155 99.1458 111.671 98.4549C112.172 98.3217 112.692 98.1886 113.205 98.0745C115.716 97.5103 119.468 96.7623 121.82 96.5658C122.194 96.5405 122.555 96.5088 122.917 96.5024C125.674 96.3757 128.077 96.6165 128.077 96.6165C128.077 96.6165 133.668 106.626 127.886 127.576Z" fill="white"/>
<path d="M139.795 177.694C139.795 177.694 134.293 173.423 134.797 170.795C134.846 170.537 134.707 170.299 134.435 170.241L129.621 169.227C129.396 169.18 129.148 169.269 129.003 169.45L125.902 173.306L127.164 173.846L127.885 173.401L128.161 174.273C135.011 177.207 138.003 178.402 139.542 178.556C139.996 178.034 139.795 177.694 139.795 177.694Z" fill="black"/>
<path d="M117.834 143.937C118.124 143.952 118.285 143.953 118.285 143.953L141.374 147.309L128.23 169.114L134.812 171.619C134.812 171.619 158.61 145.959 153.293 140.108C148.921 135.296 127.496 132.369 127.496 132.369L128.199 127.347L108.381 123.445C99.9091 141.99 114.998 143.763 117.834 143.937Z" fill="#263238"/>
<path d="M108.143 125.417L107.723 125.335L108.107 124L108.481 124.072L108.143 125.417Z" fill="#263238"/>
<path d="M123.73 128.433L115.27 126.795L115.6 125.452L124.026 127.086L123.73 128.433Z" fill="#263238"/>
<path d="M124.681 127.214L128.258 127.907L128.02 129.263L124.398 128.562L124.681 127.214Z" fill="#263238"/>
<path d="M109.133 124.199L114.95 125.328L114.607 126.668L108.809 125.546L109.133 124.199Z" fill="#263238"/>
<g opacity="0.2">
<path d="M108.143 125.417L107.723 125.335L108.107 124L108.481 124.072L108.143 125.417Z" fill="white"/>
<path d="M123.73 128.433L115.27 126.795L115.6 125.452L124.026 127.086L123.73 128.433Z" fill="white"/>
<path d="M124.681 127.214L128.258 127.907L128.02 129.263L124.398 128.562L124.681 127.214Z" fill="white"/>
<path d="M109.133 124.199L114.95 125.328L114.607 126.668L108.809 125.546L109.133 124.199Z" fill="white"/>
</g>
<path d="M121.387 126.839L121.196 127.657C121.166 127.787 121.039 127.871 120.908 127.847L118.789 127.471C118.646 127.446 118.554 127.304 118.59 127.163L118.802 126.314C118.834 126.185 118.962 126.103 119.094 126.129L121.19 126.535C121.33 126.563 121.42 126.7 121.387 126.839Z" stroke="white" stroke-width="0.328799" stroke-miterlimit="10"/>
<path d="M119.631 126.907L118.984 126.793" stroke="white" stroke-width="0.328799" stroke-miterlimit="10" stroke-linecap="round" stroke-linejoin="round"/>
<path d="M115.203 89.3328L120.234 93.5025C119.742 95.5437 120.596 97.4257 121.587 97.7744C121.587 97.7744 122.322 99.5246 120.908 99.8193C118.04 100.417 114.77 97.64 114.77 97.64C116.286 96.0096 115.737 91.9381 115.203 89.3328Z" fill="#EBB376"/>
<path opacity="0.2" d="M117.258 91.0334L120.235 93.4993C120.118 93.9823 120.026 94.4717 119.996 94.9465C118.879 94.8058 117.337 93.6102 117.209 92.4464C117.145 91.8651 117.165 91.306 117.258 91.0334Z" fill="black"/>
<path d="M119.646 81.0936C120.863 81.8523 122.512 84.1401 120.467 84.6903C118.42 85.2399 117.553 79.7896 119.646 81.0936Z" fill="#263238"/>
<path d="M113.359 88.9123C115.488 91.7192 116.591 93.4726 119.064 93.9746C122.782 94.7309 125.486 90.9433 124.235 87.5475C123.11 84.4902 119.818 80.4137 116.191 81.187C112.616 81.9502 111.23 86.1054 113.359 88.9123Z" fill="#FFB573"/>
<path d="M113.987 85.8562L111.431 82.873C111.431 82.873 108.053 85.3579 109.587 86.8622C108.575 89.2412 112.593 92.5616 116.105 91.8795C116.511 89.7337 113.383 86.0692 113.383 86.0692C113.577 86.0108 113.78 85.9367 113.987 85.8562Z" fill="#263238"/>
<path d="M113.852 92.1044C114.588 92.7022 115.53 92.8999 116.303 92.8017C117.465 92.654 117.6 91.4958 116.903 90.6293C116.276 89.849 114.916 88.9856 113.929 89.5701C112.957 90.1469 113.011 91.421 113.852 92.1044Z" fill="#FFB573"/>
<path d="M118.324 86.7265C118.482 86.9649 118.737 87.0727 118.892 86.9674C119.047 86.8622 119.044 86.5833 118.886 86.3449C118.727 86.1066 118.472 85.9988 118.318 86.1041C118.162 86.2093 118.166 86.4876 118.324 86.7265Z" fill="#263238"/>
<path d="M121.004 84.9023C121.162 85.1407 121.417 85.2484 121.572 85.1432C121.727 85.038 121.724 84.7591 121.566 84.5207C121.407 84.2824 121.152 84.1746 120.998 84.2798C120.842 84.3851 120.845 84.664 121.004 84.9023Z" fill="#263238"/>
<path d="M120.234 85.6011C120.234 85.6011 121.669 86.5494 122.696 86.7852C122.53 87.4394 121.697 87.7437 121.697 87.7437L120.234 85.6011Z" fill="#ED893E"/>
<path d="M119.488 89.3594C119.383 89.4158 119.278 89.4817 119.172 89.5597C119.134 89.5869 119.125 89.6402 119.153 89.6776C119.18 89.7156 119.233 89.7232 119.269 89.6966C120.289 88.9556 121.272 89.3232 121.282 89.327C121.325 89.3442 121.374 89.3213 121.39 89.2782C121.407 89.2345 121.386 89.1857 121.343 89.1686C121.303 89.1534 120.455 88.8364 119.488 89.3594Z" fill="#263238"/>
<path d="M116.487 85.9429C116.545 85.9461 116.604 85.9182 116.639 85.8649C117.046 85.2304 117.666 85.2145 117.672 85.2145C117.766 85.2133 117.84 85.1366 117.84 85.044C117.84 84.9515 117.764 84.8767 117.671 84.8779C117.638 84.8779 116.861 84.8976 116.355 85.6855C116.304 85.7641 116.327 85.8681 116.405 85.9182C116.431 85.9334 116.458 85.9416 116.487 85.9429Z" fill="#263238"/>
<path d="M121.039 82.7394C121.048 82.709 121.05 82.6754 121.04 82.6418C121.015 82.5518 120.921 82.4992 120.833 82.5239C119.938 82.7718 119.706 83.5109 119.691 83.5426C119.664 83.6313 119.713 83.7264 119.802 83.755C119.89 83.7828 119.984 83.7347 120.012 83.6466C120.02 83.6155 120.206 83.0488 120.925 82.8497C120.981 82.8339 121.022 82.7908 121.039 82.7394Z" fill="#263238"/>
<path d="M113.385 86.0688C113.385 86.0688 120.078 83.2569 120.488 80.0468C120.898 76.8367 118.07 78.1521 118.07 78.1521C118.07 78.1521 119.379 78.0627 119.251 79.0161C119.251 79.0161 116.991 77.4738 114.837 78.7993C114.837 78.7993 115.843 78.7796 116.373 79.5264C116.373 79.5264 114.328 79.9257 112.032 81.6271C109.738 83.3285 105.616 89.4196 113.385 86.0688Z" fill="#263238"/>
<path opacity="0.3" d="M127.495 132.368L116.586 131.115C116.586 131.115 120.905 130.406 127.734 130.657L127.495 132.368Z" fill="black"/>
<path opacity="0.1" d="M108.772 111.093C108.734 110.65 108.702 110.206 108.664 109.762C108.639 109.413 108.607 109.058 108.576 108.71C108.481 107.822 108.379 106.935 108.252 106.06C108.221 105.819 108.183 105.578 108.145 105.344C108.436 105.109 108.759 104.894 109.102 104.704C109.102 104.704 109.723 107.905 108.772 111.093Z" fill="black"/>
<path d="M90.5907 126.667L88.6953 131.115L92.7998 132.13C92.7998 132.13 94.562 129.207 92.8416 126.977L90.5907 126.667Z" fill="#EBB376"/>
<path d="M88.9907 134.544L92.2312 134.568L92.7998 132.13L88.6953 131.115L88.9907 134.544Z" fill="#EBB376"/>
<path d="M109.047 103.071C109.329 105.861 108.377 106.995 108.377 106.995C108.377 106.995 105.675 108.693 104.503 109.563C103.506 110.314 102.529 111.076 101.603 111.84C101.146 112.224 100.704 112.613 100.299 112.998C99.8981 113.378 99.5229 113.774 99.2858 114.081C99.1799 114.203 99.0734 114.402 98.96 114.58C98.8446 114.766 98.7242 115.045 98.5993 115.271C98.3514 115.782 98.1055 116.323 97.8722 116.891C97.4037 118.023 96.9606 119.204 96.5391 120.402C95.6612 122.785 94.8434 125.242 94.0016 127.658L90.2578 126.768C90.6388 124.138 91.1529 121.574 91.7462 118.978C92.0593 117.687 92.4061 116.393 92.8042 115.078C93.002 114.422 93.227 113.753 93.4806 113.067C93.6321 112.707 93.7538 112.382 93.9433 111.996C94.143 111.604 94.3268 111.222 94.6019 110.816C95.109 110.058 95.6066 109.487 96.1074 108.935C96.6082 108.39 97.1109 107.887 97.6174 107.402C98.6253 106.434 99.6598 105.553 100.708 104.704C102.806 102.998 104.913 101.44 107.17 99.9343C107.17 99.9343 108.791 100.547 109.047 103.071Z" fill="#407BFF"/>
<path opacity="0.7" d="M109.047 103.071C109.329 105.861 108.377 106.995 108.377 106.995C108.377 106.995 105.675 108.693 104.503 109.563C103.506 110.314 102.529 111.076 101.603 111.84C101.146 112.224 100.704 112.613 100.299 112.998C99.8981 113.378 99.5229 113.774 99.2858 114.081C99.1799 114.203 99.0734 114.402 98.96 114.58C98.8446 114.766 98.7242 115.045 98.5993 115.271C98.3514 115.782 98.1055 116.323 97.8722 116.891C97.4037 118.023 96.9606 119.204 96.5391 120.402C95.6612 122.785 94.8434 125.242 94.0016 127.658L90.2578 126.768C90.6388 124.138 91.1529 121.574 91.7462 118.978C92.0593 117.687 92.4061 116.393 92.8042 115.078C93.002 114.422 93.227 113.753 93.4806 113.067C93.6321 112.707 93.7538 112.382 93.9433 111.996C94.143 111.604 94.3268 111.222 94.6019 110.816C95.109 110.058 95.6066 109.487 96.1074 108.935C96.6082 108.39 97.1109 107.887 97.6174 107.402C98.6253 106.434 99.6598 105.553 100.708 104.704C102.806 102.998 104.913 101.44 107.17 99.9343C107.17 99.9343 108.791 100.547 109.047 103.071Z" fill="white"/>
<path d="M117.561 99.3316L118.971 101.546C118.971 101.546 114.056 107.502 104.651 109.467L104.023 111.381L106.023 111.905C106.023 111.905 116.182 109.276 120.235 101.657L122.329 99.3246L119.861 98.4961L117.561 99.3316Z" fill="#407BFF"/>
<path d="M113.008 97.9969L115.298 95.9932L119.862 98.4958L120.389 95.7593L122.798 97.1456L123.488 100.685L120.126 99.2299L117.117 101.913L113.008 97.9969Z" fill="#407BFF"/>
<path opacity="0.6" d="M113.008 97.9969L115.298 95.9932L119.862 98.4958L120.389 95.7593L122.798 97.1456L123.488 100.685L120.126 99.2299L117.117 101.913L113.008 97.9969Z" fill="white"/>
<path d="M175.875 58.3525C175.875 58.3525 171.613 63.6399 167.287 63.2006C162.961 62.7619 160.75 64.5172 160.75 64.5172L160.328 66.6274L162.648 66.3143C162.648 66.3143 162.648 64.6421 167.162 64.8303C171.676 65.0186 175.061 61.1379 176.377 59.3788L175.875 58.3525Z" fill="#407BFF"/>
<path d="M206.497 49.5639L206.407 49.1481C206.362 48.9833 206.386 48.9617 206.23 48.551C205.982 47.9082 205.565 47.3789 205.197 47.0474C204.434 46.3653 203.806 46.1244 203.258 45.9082C202.173 45.5241 201.309 45.403 200.454 45.2984C199.607 45.2021 198.805 45.1602 198.014 45.1393C196.437 45.0937 194.916 45.1723 193.408 45.2667C190.385 45.4664 187.478 45.8233 184.488 46.3399L185.576 52.5851C188.309 52.1496 191.159 51.7509 193.918 51.465C195.301 51.3243 196.679 51.238 198.002 51.1956C198.662 51.1785 199.311 51.181 199.908 51.2178C200.329 51.2425 200.745 51.29 201.056 51.3439C201.076 51.5588 201.084 51.794 201.077 52.0437C201.037 53.1214 200.767 54.3828 200.398 55.6398C199.654 58.1647 198.487 60.7871 197.279 63.2371L200.287 65.2434C202.209 62.813 203.79 60.2882 205.1 57.3837C205.726 55.9194 206.279 54.3739 206.53 52.5604C206.651 51.6514 206.694 50.6606 206.497 49.5639Z" fill="#407BFF"/>
<path opacity="0.7" d="M206.529 52.5619C206.326 54.0579 205.908 55.3764 205.42 56.6125C205.318 56.8724 205.21 57.1323 205.103 57.3859C203.79 60.2891 202.206 62.812 200.285 65.2399L197.28 63.2368C198.485 60.7836 199.651 58.1656 200.399 55.6363C200.653 54.7679 200.862 53.8931 200.976 53.0817C201.033 52.7204 201.065 52.3717 201.077 52.0421C201.084 51.7949 201.077 51.5603 201.058 51.3448C200.748 51.2878 200.329 51.2434 199.911 51.218C199.309 51.18 198.662 51.18 198.003 51.1927C197.952 51.1927 197.908 51.199 197.857 51.199C196.577 51.2434 195.252 51.3321 193.914 51.4653C191.239 51.7442 188.488 52.1245 185.832 52.5492C185.743 52.5619 185.661 52.5746 185.579 52.5873L184.488 46.337C187.48 45.8236 190.384 45.4686 193.407 45.2657C194.916 45.1707 196.437 45.0946 198.016 45.139C198.808 45.158 199.607 45.2023 200.456 45.2974C201.312 45.4052 202.174 45.5256 203.258 45.906C203.803 46.1215 204.431 46.3624 205.198 47.047C205.565 47.3766 205.984 47.9091 206.231 48.5493C206.383 48.9614 206.364 48.9804 206.408 49.1452L206.497 49.5636C206.694 50.6602 206.649 51.6491 206.529 52.5619Z" fill="white"/>
<path opacity="0.1" d="M197.857 51.1996C196.577 51.244 195.252 51.3328 193.914 51.4659C191.239 51.7448 188.488 52.1251 185.832 52.5498C186.802 50.1664 187.797 47.7576 187.797 47.7576C187.797 47.7576 192.234 48.1823 197.857 51.1996Z" fill="black"/>
<path opacity="0.1" d="M205.421 56.6124C205.319 56.8722 205.211 57.1321 205.104 57.3857C203.791 60.289 202.207 62.8119 200.286 65.2397L197.281 63.2366C198.486 60.7834 199.652 58.1654 200.4 55.6362C200.654 54.7677 200.863 53.8929 200.977 53.0815C202.441 54.0641 203.937 55.2305 205.421 56.6124Z" fill="black"/>
<path d="M164.905 50.8204C165.078 51.0397 165.102 51.3091 164.959 51.422C164.815 51.5354 164.559 51.4492 164.386 51.2299C164.213 51.0106 164.188 50.7412 164.332 50.6283C164.475 50.5155 164.732 50.6011 164.905 50.8204Z" fill="#263238"/>
<path d="M165.121 51.2932C165.121 51.2932 165.621 52.9515 165.555 53.9949C166.229 54.0507 166.757 53.3642 166.757 53.3642L165.121 51.2932Z" fill="#DE5753"/>
<path d="M164.744 48.9694C164.77 48.939 164.785 48.899 164.783 48.8559C164.779 48.7653 164.702 48.6956 164.612 48.6994C163.705 48.7393 163.313 49.3865 163.296 49.415C163.25 49.493 163.276 49.5938 163.354 49.6394C163.432 49.6851 163.533 49.6585 163.578 49.5824C163.591 49.5608 163.903 49.0594 164.626 49.0271C164.674 49.0252 164.716 49.003 164.744 48.9694Z" fill="#263238"/>
<path d="M171.215 47.4294C173.309 48.9388 177.32 51.3273 179.596 50.4221C179.596 50.4221 181.641 52.1247 179.676 56.4016C177.515 61.1045 176.309 57.5763 176.309 57.5763C176.876 54.7281 174.941 53.9187 172.947 53.544L171.215 47.4294Z" fill="#E4897B"/>
<path d="M171.849 44.5815C173.811 47.4036 175.101 48.956 174.833 51.4111C174.43 55.1048 170.134 56.4962 167.369 54.3169C164.88 52.355 162.092 48.0692 163.88 44.9168C165.642 41.8113 169.888 41.7587 171.849 44.5815Z" fill="#E4897B"/>
<path d="M174.999 49.2394C174.704 50.8388 169.321 53.027 166.878 49.5786C166.878 49.5786 163.813 49.5539 161.969 47.706C160.125 45.8582 160.52 43.8538 162.173 42.7635C163.63 41.8026 167.395 34.7232 171.78 39.7753C176.541 39.5814 175.366 47.2433 174.999 49.2394Z" fill="#263238"/>
<path d="M165.903 42.0015C165.903 42.0015 163.076 41.8646 161.446 43.1603C159.817 44.4559 160.276 48.4305 160.903 49.181C161.53 49.9309 162.199 49.9309 162.199 49.9309C162.199 49.9309 161.238 49.4327 161.238 48.6993C161.238 48.6993 161.655 49.6799 163.578 49.9309C163.578 49.9309 163.03 49.4929 163.116 48.9389C163.116 48.9389 164.157 50.2872 166.564 48.9389C168.969 47.5906 165.903 42.0015 165.903 42.0015Z" fill="#263238"/>
<path d="M168.308 48.9855C168.828 49.7208 169.031 50.6412 168.984 51.3867C168.914 52.5074 167.976 52.5955 167.238 51.8887C166.574 51.2523 165.81 49.9021 166.244 48.9671C166.673 48.046 167.714 48.1449 168.308 48.9855Z" fill="#E4897B"/>
<path d="M173.936 58.3536C173.936 58.3536 173.409 51.9715 177.576 48.3875L182.538 48.842C182.538 48.842 179.679 55.8205 173.936 58.3536Z" fill="#407BFF"/>
<path opacity="0.6" d="M173.936 58.3536C173.936 58.3536 173.409 51.9715 177.576 48.3875L182.538 48.842C182.538 48.842 179.679 55.8205 173.936 58.3536Z" fill="white"/>
<path d="M188.246 72.7075C188.246 72.7075 180.741 65.3391 172.445 60.1811C172.445 60.1811 177.972 47.2077 184.969 46.0496C184.969 46.0496 203.056 51.5119 208.304 66.3147L188.246 72.7075Z" fill="#407BFF"/>
<path d="M189.196 117.655L185.957 119.028L182.453 111.667L185.691 110.293L189.196 117.655Z" fill="#E4897B"/>
<path d="M208.302 66.3147L206.391 86.5779C205.341 87.355 203.669 87.9592 201.65 88.4301C197.696 89.3506 192.421 89.7683 187.865 90.0123C182.748 90.2913 178.546 90.3445 178.166 90.6386C177.276 91.3308 188.543 114.6 188.543 114.6L183.165 115.27C183.165 115.27 169.033 95.8879 167.204 89.154C166.53 86.6685 165.851 83.5555 170.415 80.6465C174.433 78.0855 189.394 76.1636 189.394 76.1636L188.243 72.7069L208.302 66.3147Z" fill="#263238"/>
<path opacity="0.2" d="M201.65 88.4297C197.696 89.3501 192.421 89.7679 187.865 90.0119C187.248 82.5344 191.011 75.3594 191.011 75.3594L196.362 73.9863L201.65 88.4297Z" fill="black"/>
<path d="M236.355 114.669L236.928 118.14L228.947 119.812L228.375 116.342L236.355 114.669Z" fill="#E4897B"/>
<path d="M237.097 118.269C237.074 118.243 237.037 118.235 237.005 118.248C236.972 118.262 236.952 118.293 236.953 118.328C236.955 118.389 237.003 119.803 237.446 120.217C237.536 120.302 237.639 120.344 237.75 120.34C237.948 120.333 238.03 120.236 238.064 120.155C238.159 119.924 237.984 119.52 237.747 119.135C237.526 118.778 237.253 118.436 237.097 118.269ZM237.134 118.564C237.555 119.072 238.017 119.832 237.91 120.091C237.896 120.124 237.863 120.169 237.744 120.174C237.678 120.176 237.618 120.15 237.559 120.096C237.523 120.061 237.489 120.018 237.458 119.968C237.243 119.618 237.162 118.929 237.134 118.564Z" fill="#407BFF"/>
<path d="M237.065 118.248C237.038 118.237 237.006 118.24 236.983 118.258C236.951 118.283 236.194 118.86 236.116 119.434C236.092 119.609 236.132 119.766 236.236 119.902C236.376 120.085 236.51 120.081 236.598 120.044C236.97 119.89 237.177 118.775 237.116 118.314C237.114 118.302 237.11 118.291 237.105 118.281C237.095 118.267 237.082 118.255 237.065 118.248ZM236.281 119.457C236.332 119.08 236.749 118.676 236.961 118.493C236.967 118.998 236.757 119.798 236.534 119.89C236.515 119.898 236.46 119.921 236.369 119.801C236.359 119.788 236.349 119.774 236.34 119.76C236.285 119.67 236.265 119.57 236.281 119.457Z" fill="#407BFF"/>
<path d="M236.494 118.221L234.479 114.95C234.404 114.828 234.423 114.669 234.527 114.569L236.825 112.338C237.063 112.107 237.453 112.155 237.623 112.441C238.33 113.633 239.31 115.381 240.224 116.863C241.292 118.598 242.308 120.037 243.561 122.07C244.319 123.3 243.285 124.407 242.856 123.961C240.901 121.934 239.667 120.054 237.172 118.799C236.901 118.662 236.653 118.48 236.494 118.221Z" fill="#263238"/>
<path d="M208.303 66.3147C208.303 66.3147 214.747 82.8797 203.876 89.3075C203.876 89.3075 203.737 108.448 206.485 110.691C209.829 113.421 234.319 114.81 234.319 114.81L234.106 120.891C234.106 120.891 207.888 123.037 199.95 120.19C190.656 116.855 188.586 72.9954 188.586 72.9954L208.303 66.3147Z" fill="#263238"/>
<path opacity="0.2" d="M200.852 76.4837L204.765 75.2996C204.765 75.2996 205.303 78.6668 205.296 80.469L203.481 82.0278L201.764 81.4807C201.764 81.4807 201.295 77.8814 200.852 76.4837Z" fill="black"/>
<path d="M189.536 72.7205L190.043 74.3306L188.596 74.7794L188.086 73.1832L189.536 72.7205Z" fill="#263238"/>
<path d="M196.212 70.5784L196.757 72.2487L190.764 74.1066L190.234 72.494L196.212 70.5784Z" fill="#263238"/>
<path d="M203.676 68.187L204.22 69.9347L197.52 72.01L196.988 70.3302L203.676 68.187Z" fill="#263238"/>
<path d="M209.121 68.4115L204.995 69.6907L204.991 69.6913L204.438 67.9405L208.533 66.6277L209.121 68.4115Z" fill="#263238"/>
<g opacity="0.2">
<path d="M189.536 72.7202L190.043 74.3303L188.596 74.7791L188.086 73.183L189.536 72.7202Z" fill="white"/>
<path d="M196.212 70.5779L196.757 72.2482L190.764 74.1062L190.234 72.4935L196.212 70.5779Z" fill="white"/>
<path d="M203.676 68.1868L204.22 69.9344L197.52 72.0098L196.988 70.33L203.676 68.1868Z" fill="white"/>
<path d="M209.121 68.411L204.995 69.6902L204.991 69.6908L204.438 67.94L208.533 66.6272L209.121 68.411Z" fill="white"/>
</g>
<path d="M184.966 118.001C185 117.994 185.026 117.966 185.031 117.931C185.036 117.897 185.018 117.864 184.988 117.846C184.935 117.818 183.69 117.147 183.108 117.32C182.989 117.355 182.901 117.423 182.849 117.521C182.754 117.695 182.797 117.815 182.851 117.885C183.001 118.084 183.439 118.136 183.89 118.125C184.311 118.116 184.743 118.051 184.966 118.001ZM184.693 117.885C184.042 117.992 183.153 118.008 182.984 117.785C182.961 117.756 182.939 117.705 182.996 117.601C183.027 117.542 183.079 117.503 183.156 117.48C183.204 117.466 183.258 117.459 183.316 117.457C183.727 117.447 184.363 117.725 184.693 117.885Z" fill="#407BFF"/>
<path d="M184.998 117.986C185.022 117.968 185.034 117.939 185.031 117.91C185.025 117.87 184.908 116.925 184.452 116.568C184.313 116.459 184.158 116.414 183.987 116.436C183.759 116.464 183.696 116.582 183.682 116.676C183.627 117.076 184.486 117.816 184.915 117.997C184.926 118.001 184.938 118.004 184.949 118.003C184.967 118.002 184.984 117.997 184.998 117.986ZM184.35 116.699C184.65 116.933 184.788 117.497 184.84 117.772C184.4 117.522 183.815 116.938 183.848 116.698C183.851 116.679 183.859 116.62 184.009 116.601C184.025 116.599 184.042 116.598 184.059 116.597C184.163 116.595 184.26 116.628 184.35 116.699Z" fill="#407BFF"/>
<path d="M185.314 117.503L189.154 117.412C189.298 117.409 189.425 117.505 189.459 117.645L190.228 120.754C190.308 121.077 190.069 121.39 189.737 121.392C188.351 121.402 186.347 121.367 184.606 121.409C182.57 121.457 180.814 121.61 178.427 121.666C176.983 121.7 176.548 120.25 177.149 120.103C179.886 119.437 182.131 119.319 184.473 117.797C184.728 117.631 185.011 117.51 185.314 117.503Z" fill="#263238"/>
<path opacity="0.7" d="M208.305 66.318L188.248 72.7077C188.248 72.7077 184.711 69.2402 179.811 65.3925C178.879 64.6635 177.903 63.9218 176.889 63.1865C175.463 62.1469 173.967 61.1263 172.445 60.1818C172.445 60.1818 177.973 47.2059 184.971 46.0522C184.971 46.0522 203.056 51.5101 208.305 66.318Z" fill="white"/>
<path opacity="0.1" d="M179.813 65.3923C178.881 64.6634 177.905 63.9217 176.891 63.1864L177.284 62.001C177.284 62.001 178.97 63.4209 179.813 65.3923Z" fill="black"/>
<path d="M150.83 78.6279L149.448 78.9575C149.103 79.0399 148.841 79.3214 148.785 79.6713L148.472 81.5965C148.406 82.0028 148.631 82.4003 149.014 82.553L150.024 82.9562C150.024 82.9562 152.941 85.0607 155.408 83.7016L154.342 80.8802L152.257 78.993C151.871 78.6438 151.337 78.5075 150.83 78.6279Z" fill="#E4897B"/>
<path d="M176.005 60.6928C177.777 61.7564 177.932 63.9497 177.932 63.9497C177.932 63.9497 176.539 67.7284 175.731 69.6085C175.182 70.8846 174.612 72.165 173.949 73.4386C173.264 74.7228 172.605 75.9817 171.486 77.3725L171.268 77.6356L171.008 77.9151C170.852 78.0914 170.62 78.3012 170.394 78.4958C170.299 78.5858 170.123 78.7088 169.975 78.8121C169.831 78.911 169.631 79.0441 169.573 79.0663L169.036 79.3446C168.339 79.6964 167.685 79.9709 167.029 80.2409C165.726 80.7747 164.437 81.2387 163.144 81.683C160.55 82.5508 157.969 83.3438 155.32 84.0113L154.062 80.6212C156.439 79.4035 158.861 78.2505 161.226 77.0619C162.41 76.4749 163.589 75.8841 164.721 75.2883C165.279 74.9872 165.835 74.6791 166.314 74.3875L166.656 74.172C166.747 74.1194 166.677 74.1441 166.671 74.1479C166.657 74.1498 166.627 74.1865 166.648 74.1555C166.668 74.1213 166.688 74.1105 166.746 74.0274L166.822 73.9324L166.914 73.7986C167.426 73.0531 168.008 71.9128 168.509 70.7946C169.012 69.6504 169.514 68.4701 169.977 67.2599C170.898 64.8499 171.782 62.3365 172.606 59.9017C172.605 59.9023 174.124 59.5644 176.005 60.6928Z" fill="#407BFF"/>
<path opacity="0.7" d="M176.005 60.6928C177.777 61.7564 177.932 63.9497 177.932 63.9497C177.932 63.9497 176.539 67.7284 175.731 69.6085C175.182 70.8846 174.612 72.165 173.949 73.4386C173.264 74.7228 172.605 75.9817 171.486 77.3725L171.268 77.6356L171.008 77.9151C170.852 78.0914 170.62 78.3012 170.394 78.4958C170.299 78.5858 170.123 78.7088 169.975 78.8121C169.831 78.911 169.631 79.0441 169.573 79.0663L169.036 79.3446C168.339 79.6964 167.685 79.9709 167.029 80.2409C165.726 80.7747 164.437 81.2387 163.144 81.683C160.55 82.5508 157.969 83.3438 155.32 84.0113L154.062 80.6212C156.439 79.4035 158.861 78.2505 161.226 77.0619C162.41 76.4749 163.589 75.8841 164.721 75.2883C165.279 74.9872 165.835 74.6791 166.314 74.3875L166.656 74.172C166.747 74.1194 166.677 74.1441 166.671 74.1479C166.657 74.1498 166.627 74.1865 166.648 74.1555C166.668 74.1213 166.688 74.1105 166.746 74.0274L166.822 73.9324L166.914 73.7986C167.426 73.0531 168.008 71.9128 168.509 70.7946C169.012 69.6504 169.514 68.4701 169.977 67.2599C170.898 64.8499 171.782 62.3365 172.606 59.9017C172.605 59.9023 174.124 59.5644 176.005 60.6928Z" fill="white"/>
<path d="M60.0703 228.898H167.125L223.781 183.133L226.265 186.208H240.22L254.436 120.77L240.475 120.798L240.482 120.77L173.517 120.903L181.511 130.8L60.0703 228.898Z" fill="#407BFF"/>
<path opacity="0.2" d="M60.0703 228.898H153.171L218.271 176.312L226.265 186.208L240.482 120.77L173.517 120.903L181.511 130.8L60.0703 228.898Z" fill="white"/>
<path d="M57.8945 225.122H134.76C134.724 224.796 134.703 224.466 134.703 224.131C134.703 219.196 138.704 215.195 143.639 215.195C143.748 215.195 143.855 215.208 143.964 215.212C145.084 212.206 147.971 210.062 151.366 210.062C155.732 210.062 159.272 213.602 159.272 217.968C159.272 217.974 159.271 217.98 159.271 217.986C163.143 218.166 166.244 221.255 166.446 225.122H166.805C168.99 225.122 170.778 226.909 170.778 229.095C170.778 231.28 168.991 233.067 166.805 233.067H57.8945C55.7095 233.067 53.9219 231.28 53.9219 229.095C53.9219 226.909 55.7095 225.122 57.8945 225.122Z" fill="#407BFF"/>
<path opacity="0.7" d="M57.8945 225.122H134.76C134.724 224.796 134.703 224.466 134.703 224.131C134.703 219.196 138.704 215.195 143.639 215.195C143.748 215.195 143.855 215.208 143.964 215.212C145.084 212.206 147.971 210.062 151.366 210.062C155.732 210.062 159.272 213.602 159.272 217.968C159.272 217.974 159.271 217.98 159.271 217.986C163.143 218.166 166.244 221.255 166.446 225.122H166.805C168.99 225.122 170.778 226.909 170.778 229.095C170.778 231.28 168.991 233.067 166.805 233.067H57.8945C55.7095 233.067 53.9219 231.28 53.9219 229.095C53.9219 226.909 55.7095 225.122 57.8945 225.122Z" fill="white"/>
</g>
<defs>
<clipPath id="clip0_4043_19394">
<rect width="310" height="250" fill="white"/>
</clipPath>
</defs>
</svg>
