<svg width="438" height="438" viewBox="0 0 438 438" fill="none" xmlns="http://www.w3.org/2000/svg">
<rect x="0.75708" y="0.935059" width="436.89" height="436.89" rx="218.445" fill="#1D2F71"/>
<rect x="117.454" y="117.802" width="203.496" height="203.496" rx="101.748" fill="#FFB800"/>
<path d="M195.947 210.078V213.214H183.372V210.078H187.821V197.811C187.821 197.544 187.826 197.271 187.837 196.993C187.847 196.715 187.862 196.431 187.883 196.143L184.948 198.584C184.742 198.738 184.541 198.836 184.345 198.877C184.149 198.919 183.964 198.924 183.789 198.893C183.614 198.852 183.459 198.79 183.325 198.707C183.192 198.615 183.089 198.522 183.017 198.429L181.672 196.622L188.563 190.782H192.07V210.078H195.947ZM214.998 201.998C214.998 203.955 214.787 205.654 214.365 207.096C213.942 208.538 213.36 209.733 212.619 210.68C211.877 211.617 210.997 212.318 209.977 212.781C208.968 213.234 207.876 213.461 206.702 213.461C205.528 213.461 204.436 213.234 203.427 212.781C202.417 212.318 201.547 211.617 200.816 210.68C200.085 209.733 199.508 208.538 199.086 207.096C198.674 205.654 198.468 203.955 198.468 201.998C198.468 200.041 198.674 198.347 199.086 196.915C199.508 195.473 200.085 194.284 200.816 193.347C201.547 192.399 202.417 191.699 203.427 191.246C204.436 190.782 205.528 190.55 206.702 190.55C207.876 190.55 208.968 190.782 209.977 191.246C210.997 191.699 211.877 192.399 212.619 193.347C213.36 194.284 213.942 195.473 214.365 196.915C214.787 198.347 214.998 200.041 214.998 201.998ZM210.595 201.998C210.595 200.412 210.482 199.104 210.255 198.074C210.039 197.044 209.75 196.23 209.39 195.633C209.03 195.036 208.612 194.619 208.139 194.382C207.675 194.145 207.196 194.026 206.702 194.026C206.208 194.026 205.729 194.145 205.265 194.382C204.812 194.619 204.405 195.036 204.045 195.633C203.695 196.23 203.411 197.044 203.195 198.074C202.979 199.104 202.871 200.412 202.871 201.998C202.871 203.594 202.979 204.908 203.195 205.937C203.411 206.967 203.695 207.781 204.045 208.378C204.405 208.976 204.812 209.393 205.265 209.63C205.729 209.867 206.208 209.985 206.702 209.985C207.196 209.985 207.675 209.867 208.139 209.63C208.612 209.393 209.03 208.976 209.39 208.378C209.75 207.781 210.039 206.967 210.255 205.937C210.482 204.908 210.595 203.594 210.595 201.998ZM232.921 201.998C232.921 203.955 232.71 205.654 232.288 207.096C231.865 208.538 231.283 209.733 230.542 210.68C229.8 211.617 228.92 212.318 227.9 212.781C226.891 213.234 225.799 213.461 224.625 213.461C223.451 213.461 222.359 213.234 221.35 212.781C220.34 212.318 219.47 211.617 218.739 210.68C218.008 209.733 217.431 208.538 217.009 207.096C216.597 205.654 216.391 203.955 216.391 201.998C216.391 200.041 216.597 198.347 217.009 196.915C217.431 195.473 218.008 194.284 218.739 193.347C219.47 192.399 220.34 191.699 221.35 191.246C222.359 190.782 223.451 190.55 224.625 190.55C225.799 190.55 226.891 190.782 227.9 191.246C228.92 191.699 229.8 192.399 230.542 193.347C231.283 194.284 231.865 195.473 232.288 196.915C232.71 198.347 232.921 200.041 232.921 201.998ZM228.518 201.998C228.518 200.412 228.405 199.104 228.178 198.074C227.962 197.044 227.673 196.23 227.313 195.633C226.953 195.036 226.535 194.619 226.062 194.382C225.598 194.145 225.119 194.026 224.625 194.026C224.131 194.026 223.652 194.145 223.188 194.382C222.735 194.619 222.328 195.036 221.968 195.633C221.618 196.23 221.334 197.044 221.118 198.074C220.902 199.104 220.794 200.412 220.794 201.998C220.794 203.594 220.902 204.908 221.118 205.937C221.334 206.967 221.618 207.781 221.968 208.378C222.328 208.976 222.735 209.393 223.188 209.63C223.652 209.867 224.131 209.985 224.625 209.985C225.119 209.985 225.598 209.867 226.062 209.63C226.535 209.393 226.953 208.976 227.313 208.378C227.673 207.781 227.962 206.967 228.178 205.937C228.405 204.908 228.518 203.594 228.518 201.998ZM245.282 196.22C245.282 197.054 245.138 197.811 244.85 198.491C244.561 199.171 244.17 199.758 243.676 200.252C243.192 200.736 242.63 201.112 241.992 201.38C241.353 201.638 240.689 201.766 239.999 201.766C239.237 201.766 238.536 201.638 237.898 201.38C237.259 201.112 236.703 200.736 236.229 200.252C235.766 199.758 235.4 199.171 235.132 198.491C234.875 197.811 234.746 197.054 234.746 196.22C234.746 195.355 234.875 194.577 235.132 193.887C235.4 193.187 235.766 192.595 236.229 192.111C236.703 191.616 237.259 191.235 237.898 190.968C238.536 190.7 239.237 190.566 239.999 190.566C240.761 190.566 241.466 190.7 242.115 190.968C242.764 191.235 243.32 191.616 243.784 192.111C244.258 192.595 244.623 193.187 244.881 193.887C245.148 194.577 245.282 195.355 245.282 196.22ZM242.007 196.22C242.007 195.664 241.956 195.201 241.853 194.83C241.75 194.449 241.606 194.145 241.42 193.918C241.245 193.692 241.034 193.532 240.787 193.439C240.54 193.336 240.277 193.285 239.999 193.285C239.721 193.285 239.458 193.336 239.211 193.439C238.974 193.532 238.768 193.692 238.593 193.918C238.428 194.145 238.294 194.449 238.191 194.83C238.099 195.201 238.052 195.664 238.052 196.22C238.052 196.766 238.099 197.219 238.191 197.58C238.294 197.94 238.428 198.234 238.593 198.46C238.768 198.677 238.974 198.831 239.211 198.924C239.458 199.016 239.721 199.063 239.999 199.063C240.277 199.063 240.54 199.016 240.787 198.924C241.034 198.831 241.245 198.677 241.42 198.46C241.606 198.234 241.75 197.94 241.853 197.58C241.956 197.219 242.007 196.766 242.007 196.22ZM252.543 191.446C252.687 191.282 252.857 191.132 253.053 190.998C253.259 190.865 253.542 190.798 253.903 190.798H257.008L240.246 212.596C240.102 212.771 239.927 212.92 239.721 213.044C239.515 213.157 239.262 213.214 238.964 213.214H235.797L252.543 191.446ZM258.043 207.946C258.043 208.78 257.899 209.537 257.61 210.217C257.322 210.896 256.931 211.484 256.436 211.978C255.952 212.462 255.391 212.838 254.752 213.106C254.114 213.363 253.45 213.492 252.76 213.492C251.997 213.492 251.297 213.363 250.659 213.106C250.02 212.838 249.464 212.462 248.99 211.978C248.527 211.484 248.161 210.896 247.893 210.217C247.636 209.537 247.507 208.78 247.507 207.946C247.507 207.081 247.636 206.303 247.893 205.613C248.161 204.913 248.527 204.32 248.99 203.836C249.464 203.342 250.02 202.966 250.659 202.709C251.297 202.441 251.997 202.307 252.76 202.307C253.522 202.307 254.227 202.441 254.876 202.709C255.525 202.966 256.081 203.342 256.545 203.836C257.018 204.32 257.384 204.913 257.641 205.613C257.909 206.303 258.043 207.081 258.043 207.946ZM254.768 207.946C254.768 207.39 254.716 206.926 254.613 206.555C254.51 206.174 254.366 205.87 254.181 205.644C254.006 205.417 253.795 205.258 253.547 205.165C253.3 205.062 253.038 205.011 252.76 205.011C252.481 205.011 252.219 205.062 251.972 205.165C251.735 205.258 251.529 205.417 251.354 205.644C251.189 205.87 251.055 206.174 250.952 206.555C250.859 206.926 250.813 207.39 250.813 207.946C250.813 208.492 250.859 208.945 250.952 209.305C251.055 209.666 251.189 209.959 251.354 210.186C251.529 210.402 251.735 210.557 251.972 210.649C252.219 210.742 252.481 210.788 252.76 210.788C253.038 210.788 253.3 210.742 253.547 210.649C253.795 210.557 254.006 210.402 254.181 210.186C254.366 209.959 254.51 209.666 254.613 209.305C254.716 208.945 254.768 208.492 254.768 207.946Z" fill="#1D2F71"/>
<path d="M175.954 240.533H171.528V253.153H168.386V240.533H163.96V238.007H175.954V240.533ZM178.121 244.165C178.462 243.553 178.856 243.069 179.301 242.714C179.746 242.36 180.268 242.182 180.867 242.182C181.354 242.182 181.75 242.297 182.057 242.527L181.869 244.656C181.834 244.795 181.778 244.893 181.702 244.948C181.632 244.997 181.535 245.021 181.41 245.021C181.298 245.021 181.138 245.007 180.929 244.98C180.721 244.945 180.526 244.927 180.345 244.927C180.08 244.927 179.844 244.966 179.635 245.042C179.433 245.119 179.252 245.227 179.092 245.366C178.932 245.505 178.786 245.675 178.654 245.877C178.529 246.079 178.41 246.309 178.299 246.566V253.153H175.418V242.391H177.119C177.412 242.391 177.613 242.443 177.725 242.547C177.836 242.652 177.916 242.833 177.965 243.09L178.121 244.165ZM188.791 248.654C188.089 248.689 187.504 248.751 187.038 248.842C186.571 248.925 186.199 249.037 185.921 249.176C185.649 249.315 185.455 249.475 185.336 249.656C185.225 249.83 185.169 250.021 185.169 250.23C185.169 250.648 185.284 250.943 185.514 251.117C185.75 251.291 186.077 251.378 186.495 251.378C186.975 251.378 187.389 251.295 187.737 251.128C188.092 250.954 188.443 250.686 188.791 250.324V248.654ZM182.925 243.884C183.558 243.313 184.258 242.888 185.023 242.61C185.789 242.325 186.617 242.182 187.507 242.182C188.148 242.182 188.718 242.286 189.219 242.495C189.727 242.704 190.155 242.996 190.503 243.372C190.858 243.741 191.13 244.183 191.317 244.698C191.505 245.213 191.599 245.776 191.599 246.389V253.153H190.284C190.013 253.153 189.804 253.114 189.658 253.038C189.519 252.961 189.404 252.801 189.313 252.558L189.084 251.869C188.812 252.105 188.548 252.314 188.29 252.495C188.04 252.676 187.779 252.829 187.507 252.954C187.236 253.073 186.944 253.163 186.631 253.226C186.324 253.288 185.98 253.32 185.597 253.32C185.124 253.32 184.693 253.257 184.303 253.132C183.913 253.007 183.576 252.822 183.29 252.579C183.012 252.328 182.796 252.018 182.643 251.65C182.49 251.281 182.414 250.856 182.414 250.376C182.414 249.98 182.514 249.583 182.716 249.186C182.918 248.79 183.263 248.431 183.75 248.111C184.244 247.784 184.898 247.516 185.712 247.307C186.533 247.092 187.56 246.97 188.791 246.942V246.389C188.791 245.714 188.649 245.22 188.363 244.906C188.078 244.586 187.668 244.426 187.132 244.426C186.735 244.426 186.404 244.475 186.14 244.572C185.876 244.663 185.642 244.764 185.441 244.875C185.246 244.98 185.061 245.08 184.887 245.178C184.713 245.268 184.512 245.314 184.282 245.314C184.08 245.314 183.91 245.265 183.771 245.167C183.638 245.063 183.527 244.941 183.436 244.802L182.925 243.884ZM196.52 243.643C196.736 243.435 196.959 243.243 197.188 243.069C197.425 242.895 197.672 242.746 197.93 242.62C198.194 242.495 198.476 242.398 198.775 242.328C199.081 242.259 199.412 242.224 199.767 242.224C200.351 242.224 200.87 242.325 201.322 242.527C201.774 242.728 202.154 243.01 202.46 243.372C202.773 243.734 203.006 244.165 203.159 244.666C203.319 245.167 203.399 245.717 203.399 246.316V253.153H200.529V246.316C200.529 245.717 200.389 245.254 200.111 244.927C199.833 244.593 199.422 244.426 198.879 244.426C198.476 244.426 198.097 244.513 197.742 244.687C197.387 244.861 197.049 245.105 196.729 245.418V253.153H193.848V242.391H195.623C195.985 242.391 196.225 242.558 196.343 242.892L196.52 243.643ZM212.384 244.604C212.308 244.722 212.228 244.809 212.144 244.865C212.068 244.913 211.96 244.938 211.821 244.938C211.681 244.938 211.539 244.903 211.393 244.833C211.246 244.764 211.083 244.691 210.902 244.614C210.721 244.531 210.512 244.454 210.276 244.385C210.046 244.315 209.778 244.28 209.472 244.28C209.006 244.28 208.644 244.378 208.386 244.572C208.129 244.76 208 245.011 208 245.324C208 245.54 208.073 245.721 208.219 245.867C208.365 246.013 208.557 246.142 208.793 246.253C209.037 246.357 209.312 246.458 209.618 246.556C209.924 246.646 210.237 246.747 210.557 246.858C210.885 246.97 211.201 247.099 211.507 247.245C211.814 247.391 212.085 247.575 212.322 247.798C212.565 248.014 212.76 248.278 212.906 248.591C213.052 248.897 213.125 249.27 213.125 249.708C213.125 250.23 213.028 250.714 212.833 251.159C212.645 251.597 212.367 251.977 211.998 252.297C211.629 252.617 211.17 252.867 210.62 253.048C210.07 253.229 209.437 253.32 208.72 253.32C208.352 253.32 207.986 253.285 207.624 253.215C207.262 253.153 206.918 253.062 206.591 252.944C206.264 252.819 205.958 252.676 205.672 252.516C205.387 252.356 205.14 252.182 204.931 251.994L205.599 250.919C205.676 250.794 205.77 250.696 205.881 250.627C205.999 250.557 206.149 250.522 206.33 250.522C206.504 250.522 206.664 250.568 206.81 250.658C206.956 250.742 207.12 250.835 207.301 250.94C207.482 251.037 207.694 251.131 207.937 251.222C208.188 251.305 208.498 251.347 208.866 251.347C209.145 251.347 209.385 251.316 209.587 251.253C209.789 251.19 209.952 251.107 210.077 251.002C210.203 250.891 210.293 250.769 210.349 250.637C210.411 250.498 210.443 250.355 210.443 250.209C210.443 249.973 210.366 249.781 210.213 249.635C210.067 249.482 209.872 249.35 209.628 249.238C209.392 249.127 209.117 249.026 208.804 248.936C208.491 248.845 208.171 248.744 207.844 248.633C207.523 248.522 207.207 248.389 206.894 248.236C206.587 248.083 206.313 247.892 206.069 247.662C205.832 247.426 205.638 247.137 205.484 246.796C205.338 246.455 205.265 246.041 205.265 245.554C205.265 245.108 205.352 244.687 205.526 244.291C205.7 243.887 205.961 243.532 206.309 243.226C206.657 242.92 207.088 242.676 207.603 242.495C208.125 242.314 208.727 242.224 209.409 242.224C210.175 242.224 210.871 242.349 211.497 242.6C212.123 242.85 212.638 243.177 213.042 243.581L212.384 244.604ZM217.81 250.314C218.081 250.627 218.373 250.846 218.687 250.971C219.007 251.096 219.348 251.159 219.709 251.159C220.057 251.159 220.374 251.093 220.659 250.961C220.945 250.828 221.188 250.623 221.39 250.345C221.599 250.06 221.759 249.698 221.87 249.259C221.982 248.821 222.037 248.299 222.037 247.694C222.037 247.095 221.989 246.587 221.891 246.17C221.801 245.752 221.668 245.414 221.494 245.157C221.327 244.9 221.122 244.715 220.879 244.604C220.635 244.485 220.364 244.426 220.064 244.426C219.556 244.426 219.128 244.527 218.78 244.729C218.439 244.924 218.116 245.213 217.81 245.595V250.314ZM217.643 243.8C217.858 243.563 218.088 243.348 218.332 243.153C218.575 242.951 218.836 242.781 219.115 242.641C219.393 242.495 219.692 242.384 220.012 242.307C220.332 242.224 220.68 242.182 221.056 242.182C221.634 242.182 222.163 242.307 222.643 242.558C223.13 242.801 223.547 243.16 223.895 243.633C224.243 244.099 224.515 244.673 224.709 245.355C224.904 246.037 225.002 246.817 225.002 247.694C225.002 248.501 224.89 249.249 224.668 249.938C224.452 250.62 224.142 251.211 223.739 251.712C223.335 252.213 222.848 252.606 222.277 252.892C221.714 253.17 221.084 253.309 220.388 253.309C219.803 253.309 219.306 253.222 218.895 253.048C218.492 252.874 218.13 252.638 217.81 252.339V256.629H214.929V242.391H216.703C217.065 242.391 217.305 242.558 217.423 242.892L217.643 243.8ZM232.482 248.654C231.779 248.689 231.194 248.751 230.728 248.842C230.262 248.925 229.889 249.037 229.611 249.176C229.34 249.315 229.145 249.475 229.027 249.656C228.915 249.83 228.86 250.021 228.86 250.23C228.86 250.648 228.974 250.943 229.204 251.117C229.441 251.291 229.768 251.378 230.185 251.378C230.665 251.378 231.079 251.295 231.427 251.128C231.782 250.954 232.134 250.686 232.482 250.324V248.654ZM226.615 243.884C227.249 243.313 227.948 242.888 228.713 242.61C229.479 242.325 230.307 242.182 231.198 242.182C231.838 242.182 232.409 242.286 232.91 242.495C233.418 242.704 233.846 242.996 234.194 243.372C234.548 243.741 234.82 244.183 235.008 244.698C235.196 245.213 235.29 245.776 235.29 246.389V253.153H233.974C233.703 253.153 233.494 253.114 233.348 253.038C233.209 252.961 233.094 252.801 233.004 252.558L232.774 251.869C232.503 252.105 232.238 252.314 231.981 252.495C231.73 252.676 231.469 252.829 231.198 252.954C230.926 253.073 230.634 253.163 230.321 253.226C230.015 253.288 229.67 253.32 229.288 253.32C228.814 253.32 228.383 253.257 227.993 253.132C227.603 253.007 227.266 252.822 226.981 252.579C226.702 252.328 226.487 252.018 226.333 251.65C226.18 251.281 226.104 250.856 226.104 250.376C226.104 249.98 226.205 249.583 226.407 249.186C226.608 248.79 226.953 248.431 227.44 248.111C227.934 247.784 228.588 247.516 229.402 247.307C230.223 247.092 231.25 246.97 232.482 246.942V246.389C232.482 245.714 232.339 245.22 232.054 244.906C231.768 244.586 231.358 244.426 230.822 244.426C230.425 244.426 230.095 244.475 229.83 244.572C229.566 244.663 229.333 244.764 229.131 244.875C228.936 244.98 228.752 245.08 228.578 245.178C228.404 245.268 228.202 245.314 227.972 245.314C227.77 245.314 227.6 245.265 227.461 245.167C227.329 245.063 227.217 244.941 227.127 244.802L226.615 243.884ZM240.242 244.165C240.583 243.553 240.976 243.069 241.421 242.714C241.867 242.36 242.389 242.182 242.987 242.182C243.474 242.182 243.871 242.297 244.177 242.527L243.989 244.656C243.955 244.795 243.899 244.893 243.822 244.948C243.753 244.997 243.655 245.021 243.53 245.021C243.419 245.021 243.259 245.007 243.05 244.98C242.841 244.945 242.646 244.927 242.465 244.927C242.201 244.927 241.964 244.966 241.755 245.042C241.554 245.119 241.373 245.227 241.213 245.366C241.053 245.505 240.906 245.675 240.774 245.877C240.649 246.079 240.531 246.309 240.419 246.566V253.153H237.538V242.391H239.24C239.532 242.391 239.734 242.443 239.845 242.547C239.957 242.652 240.037 242.833 240.085 243.09L240.242 244.165ZM251.99 246.504C251.99 246.204 251.948 245.919 251.865 245.648C251.788 245.376 251.663 245.136 251.489 244.927C251.315 244.719 251.096 244.555 250.831 244.437C250.567 244.311 250.25 244.249 249.881 244.249C249.192 244.249 248.653 244.444 248.263 244.833C247.874 245.223 247.62 245.78 247.501 246.504H251.99ZM247.46 248.215C247.55 249.224 247.836 249.962 248.316 250.428C248.803 250.895 249.436 251.128 250.215 251.128C250.612 251.128 250.953 251.082 251.238 250.992C251.531 250.895 251.785 250.79 252 250.679C252.223 250.561 252.421 250.456 252.595 250.366C252.776 250.268 252.954 250.22 253.128 250.22C253.35 250.22 253.524 250.303 253.65 250.47L254.485 251.514C254.179 251.869 253.841 252.165 253.472 252.401C253.103 252.631 252.721 252.815 252.324 252.954C251.927 253.087 251.527 253.177 251.124 253.226C250.72 253.282 250.33 253.309 249.954 253.309C249.203 253.309 248.5 253.188 247.846 252.944C247.199 252.693 246.632 252.328 246.144 251.848C245.664 251.361 245.285 250.759 245.007 250.042C244.728 249.325 244.589 248.494 244.589 247.547C244.589 246.817 244.707 246.128 244.944 245.481C245.188 244.833 245.536 244.27 245.988 243.79C246.44 243.309 246.99 242.93 247.637 242.652C248.284 242.366 249.015 242.224 249.829 242.224C250.518 242.224 251.151 242.335 251.729 242.558C252.314 242.774 252.815 243.09 253.232 243.508C253.657 243.925 253.984 244.44 254.213 245.053C254.45 245.658 254.568 246.35 254.568 247.13C254.568 247.346 254.558 247.523 254.537 247.662C254.516 247.801 254.481 247.913 254.433 247.996C254.384 248.08 254.318 248.139 254.234 248.174C254.151 248.202 254.043 248.215 253.911 248.215H247.46ZM259.028 243.643C259.244 243.435 259.467 243.243 259.696 243.069C259.933 242.895 260.18 242.746 260.437 242.62C260.702 242.495 260.984 242.398 261.283 242.328C261.589 242.259 261.92 242.224 262.275 242.224C262.859 242.224 263.378 242.325 263.83 242.527C264.282 242.728 264.661 243.01 264.968 243.372C265.281 243.734 265.514 244.165 265.667 244.666C265.827 245.167 265.907 245.717 265.907 246.316V253.153H263.037V246.316C263.037 245.717 262.897 245.254 262.619 244.927C262.341 244.593 261.93 244.426 261.387 244.426C260.984 244.426 260.604 244.513 260.25 244.687C259.895 244.861 259.557 245.105 259.237 245.418V253.153H256.356V242.391H258.131C258.492 242.391 258.732 242.558 258.851 242.892L259.028 243.643ZM271.774 253.32C271.287 253.32 270.856 253.25 270.48 253.111C270.104 252.965 269.788 252.76 269.53 252.495C269.273 252.231 269.078 251.911 268.946 251.535C268.813 251.159 268.747 250.735 268.747 250.261V244.458H267.735C267.582 244.458 267.449 244.409 267.338 244.311C267.234 244.214 267.182 244.068 267.182 243.873V242.746L268.904 242.433L269.488 239.646C269.565 239.332 269.777 239.176 270.125 239.176H271.628V242.453H274.405V244.458H271.628V250.073C271.628 250.373 271.698 250.609 271.837 250.783C271.983 250.957 272.188 251.044 272.453 251.044C272.592 251.044 272.71 251.03 272.808 251.002C272.905 250.968 272.989 250.933 273.058 250.898C273.128 250.856 273.191 250.822 273.246 250.794C273.309 250.759 273.372 250.742 273.434 250.742C273.518 250.742 273.587 250.762 273.643 250.804C273.699 250.839 273.754 250.902 273.81 250.992L274.676 252.37C274.28 252.683 273.831 252.92 273.33 253.08C272.829 253.24 272.31 253.32 271.774 253.32Z" fill="#F5FAFF"/>
<rect x="117.454" y="117.802" width="203.496" height="203.496" rx="101.748" fill="#FFB800"/>
<path d="M148.872 201.952C150.324 201.952 151.385 201.601 152.054 200.901C152.734 200.201 153.074 199.243 153.074 198.028C153.074 197.471 152.986 196.967 152.811 196.514C152.646 196.05 152.389 195.659 152.039 195.339C151.699 195.01 151.266 194.758 150.741 194.582C150.216 194.407 149.592 194.32 148.872 194.32H145.936V201.952H148.872ZM148.872 190.797C150.406 190.797 151.73 190.978 152.842 191.338C153.965 191.699 154.886 192.203 155.607 192.852C156.328 193.491 156.859 194.253 157.198 195.139C157.549 196.024 157.724 196.987 157.724 198.028C157.724 199.13 157.543 200.139 157.183 201.055C156.823 201.972 156.277 202.76 155.545 203.419C154.814 204.078 153.892 204.593 152.78 204.964C151.668 205.325 150.365 205.505 148.872 205.505H145.936V213.214H141.302V190.797H148.872ZM163.876 199.912C164.381 199.006 164.963 198.29 165.622 197.765C166.281 197.24 167.053 196.977 167.939 196.977C168.66 196.977 169.247 197.147 169.7 197.487L169.422 200.638C169.371 200.844 169.288 200.989 169.175 201.071C169.072 201.143 168.928 201.179 168.742 201.179C168.578 201.179 168.341 201.158 168.032 201.117C167.723 201.066 167.434 201.04 167.167 201.04C166.775 201.04 166.425 201.097 166.116 201.21C165.817 201.323 165.55 201.483 165.313 201.689C165.076 201.895 164.86 202.147 164.664 202.446C164.478 202.745 164.303 203.084 164.139 203.466V213.214H159.875V197.286H162.393C162.825 197.286 163.124 197.363 163.289 197.518C163.454 197.672 163.572 197.94 163.644 198.321L163.876 199.912ZM178.343 197.039C179.538 197.039 180.625 197.229 181.603 197.61C182.581 197.991 183.421 198.537 184.121 199.248C184.821 199.948 185.362 200.803 185.743 201.812C186.124 202.822 186.315 203.96 186.315 205.227C186.315 206.493 186.124 207.637 185.743 208.656C185.362 209.666 184.821 210.526 184.121 211.236C183.421 211.947 182.581 212.493 181.603 212.874C180.625 213.255 179.538 213.445 178.343 213.445C177.138 213.445 176.041 213.255 175.053 212.874C174.074 212.493 173.235 211.947 172.535 211.236C171.834 210.526 171.288 209.666 170.897 208.656C170.516 207.637 170.325 206.493 170.325 205.227C170.325 203.96 170.516 202.822 170.897 201.812C171.288 200.803 171.834 199.948 172.535 199.248C173.235 198.537 174.074 197.991 175.053 197.61C176.041 197.229 177.138 197.039 178.343 197.039ZM178.343 210.248C179.559 210.248 180.46 209.83 181.047 208.996C181.634 208.152 181.927 206.9 181.927 205.242C181.927 203.594 181.634 202.353 181.047 201.519C180.46 200.674 179.559 200.252 178.343 200.252C177.097 200.252 176.18 200.674 175.593 201.519C175.006 202.353 174.713 203.594 174.713 205.242C174.713 206.9 175.006 208.152 175.593 208.996C176.18 209.83 177.097 210.248 178.343 210.248ZM194.774 204.655C195.649 204.655 196.293 204.434 196.705 203.991C197.127 203.548 197.338 202.976 197.338 202.276C197.338 201.545 197.127 200.973 196.705 200.561C196.293 200.139 195.649 199.928 194.774 199.928C193.898 199.928 193.254 200.139 192.842 200.561C192.43 200.973 192.224 201.545 192.224 202.276C192.224 202.966 192.43 203.538 192.842 203.991C193.265 204.434 193.908 204.655 194.774 204.655ZM198.806 213.863C198.806 213.584 198.718 213.358 198.543 213.183C198.368 213.008 198.131 212.869 197.832 212.766C197.544 212.663 197.199 212.591 196.797 212.549C196.396 212.498 195.968 212.462 195.515 212.441C195.062 212.41 194.593 212.385 194.109 212.364C193.625 212.343 193.151 212.307 192.688 212.256C192.327 212.472 192.029 212.73 191.792 213.028C191.565 213.317 191.452 213.646 191.452 214.017C191.452 214.275 191.509 214.511 191.622 214.728C191.746 214.944 191.946 215.129 192.224 215.284C192.503 215.438 192.868 215.557 193.321 215.639C193.774 215.732 194.341 215.778 195.021 215.778C195.721 215.778 196.313 215.732 196.797 215.639C197.281 215.546 197.673 215.413 197.971 215.237C198.27 215.073 198.481 214.872 198.605 214.635C198.739 214.398 198.806 214.141 198.806 213.863ZM203.039 197.811V199.372C203.039 199.619 202.967 199.814 202.822 199.959C202.688 200.103 202.462 200.211 202.143 200.283L200.845 200.546C201.02 201.05 201.108 201.591 201.108 202.168C201.108 202.961 200.943 203.677 200.613 204.315C200.294 204.943 199.851 205.484 199.285 205.937C198.718 206.38 198.049 206.725 197.276 206.972C196.504 207.209 195.67 207.328 194.774 207.328C194.207 207.328 193.677 207.281 193.182 207.189C192.75 207.456 192.533 207.75 192.533 208.069C192.533 208.368 192.678 208.584 192.966 208.718C193.265 208.852 193.651 208.95 194.125 209.012C194.609 209.063 195.155 209.099 195.762 209.12C196.38 209.13 197.003 209.161 197.632 209.212C198.27 209.264 198.893 209.357 199.501 209.491C200.119 209.614 200.665 209.825 201.138 210.124C201.622 210.412 202.009 210.799 202.297 211.283C202.596 211.767 202.745 212.39 202.745 213.152C202.745 213.863 202.57 214.553 202.22 215.222C201.87 215.891 201.36 216.489 200.69 217.014C200.031 217.539 199.218 217.962 198.249 218.281C197.281 218.6 196.179 218.76 194.943 218.76C193.718 218.76 192.652 218.641 191.746 218.404C190.85 218.178 190.103 217.869 189.505 217.478C188.918 217.096 188.481 216.654 188.192 216.149C187.904 215.644 187.76 215.119 187.76 214.573C187.76 213.863 187.976 213.26 188.409 212.766C188.841 212.271 189.439 211.875 190.201 211.576C189.799 211.35 189.475 211.056 189.227 210.696C188.991 210.325 188.872 209.846 188.872 209.259C188.872 208.785 189.042 208.286 189.382 207.76C189.732 207.235 190.268 206.797 190.989 206.447C190.175 206.015 189.531 205.438 189.057 204.717C188.584 203.986 188.347 203.136 188.347 202.168C188.347 201.375 188.506 200.659 188.826 200.02C189.155 199.382 189.608 198.841 190.185 198.398C190.762 197.945 191.442 197.6 192.224 197.363C193.007 197.126 193.857 197.008 194.774 197.008C196.133 197.008 197.333 197.276 198.373 197.811H203.039ZM209.257 199.912C209.761 199.006 210.343 198.29 211.002 197.765C211.662 197.24 212.434 196.977 213.32 196.977C214.041 196.977 214.628 197.147 215.081 197.487L214.803 200.638C214.751 200.844 214.669 200.989 214.556 201.071C214.453 201.143 214.308 201.179 214.123 201.179C213.958 201.179 213.721 201.158 213.412 201.117C213.103 201.066 212.815 201.04 212.547 201.04C212.156 201.04 211.806 201.097 211.497 201.21C211.198 201.323 210.93 201.483 210.693 201.689C210.457 201.895 210.24 202.147 210.045 202.446C209.859 202.745 209.684 203.084 209.519 203.466V213.214H205.256V197.286H207.774C208.206 197.286 208.505 197.363 208.67 197.518C208.834 197.672 208.953 197.94 209.025 198.321L209.257 199.912ZM226.644 203.373C226.644 202.93 226.582 202.508 226.458 202.106C226.345 201.704 226.16 201.349 225.902 201.04C225.645 200.731 225.32 200.489 224.929 200.314C224.538 200.129 224.069 200.036 223.523 200.036C222.504 200.036 221.705 200.324 221.129 200.901C220.552 201.478 220.176 202.302 220.001 203.373H226.644ZM219.939 205.906C220.073 207.4 220.495 208.492 221.206 209.182C221.927 209.872 222.864 210.217 224.018 210.217C224.605 210.217 225.109 210.15 225.532 210.016C225.964 209.872 226.34 209.717 226.659 209.552C226.989 209.377 227.282 209.223 227.54 209.089C227.808 208.945 228.07 208.873 228.328 208.873C228.657 208.873 228.915 208.996 229.1 209.243L230.336 210.788C229.883 211.313 229.383 211.751 228.838 212.101C228.292 212.441 227.725 212.714 227.138 212.92C226.551 213.116 225.959 213.25 225.362 213.322C224.764 213.404 224.188 213.445 223.631 213.445C222.519 213.445 221.479 213.265 220.511 212.905C219.553 212.534 218.713 211.993 217.993 211.283C217.282 210.562 216.721 209.671 216.309 208.61C215.897 207.549 215.691 206.318 215.691 204.918C215.691 203.836 215.866 202.817 216.216 201.859C216.576 200.901 217.091 200.067 217.761 199.356C218.43 198.645 219.244 198.084 220.202 197.672C221.16 197.25 222.241 197.039 223.446 197.039C224.466 197.039 225.403 197.204 226.258 197.533C227.123 197.852 227.864 198.321 228.482 198.939C229.111 199.557 229.595 200.319 229.934 201.225C230.285 202.121 230.46 203.146 230.46 204.3C230.46 204.619 230.444 204.882 230.413 205.088C230.382 205.294 230.331 205.458 230.259 205.582C230.187 205.706 230.089 205.793 229.965 205.845C229.842 205.886 229.682 205.906 229.486 205.906H219.939ZM243.008 200.561C242.895 200.736 242.776 200.865 242.653 200.947C242.54 201.019 242.38 201.055 242.174 201.055C241.968 201.055 241.757 201.004 241.541 200.901C241.324 200.798 241.082 200.69 240.815 200.577C240.547 200.453 240.238 200.34 239.888 200.237C239.548 200.134 239.151 200.082 238.698 200.082C238.008 200.082 237.472 200.226 237.091 200.515C236.71 200.793 236.52 201.164 236.52 201.627C236.52 201.946 236.628 202.214 236.844 202.43C237.06 202.647 237.344 202.837 237.694 203.002C238.054 203.157 238.461 203.306 238.914 203.45C239.367 203.584 239.831 203.733 240.305 203.898C240.789 204.063 241.257 204.253 241.711 204.47C242.164 204.686 242.565 204.959 242.916 205.288C243.276 205.608 243.564 205.999 243.781 206.463C243.997 206.916 244.105 207.467 244.105 208.116C244.105 208.888 243.961 209.604 243.673 210.263C243.394 210.912 242.982 211.473 242.437 211.947C241.891 212.421 241.211 212.791 240.397 213.059C239.584 213.327 238.647 213.461 237.586 213.461C237.04 213.461 236.499 213.409 235.964 213.306C235.428 213.214 234.918 213.08 234.434 212.905C233.95 212.719 233.497 212.508 233.075 212.271C232.652 212.034 232.287 211.777 231.978 211.499L232.967 209.908C233.08 209.722 233.219 209.578 233.384 209.475C233.559 209.372 233.78 209.321 234.048 209.321C234.305 209.321 234.542 209.388 234.759 209.521C234.975 209.645 235.217 209.784 235.485 209.939C235.752 210.083 236.067 210.222 236.427 210.356C236.798 210.479 237.256 210.541 237.802 210.541C238.214 210.541 238.569 210.495 238.868 210.402C239.167 210.309 239.409 210.186 239.594 210.031C239.779 209.866 239.913 209.686 239.996 209.491C240.088 209.285 240.135 209.073 240.135 208.857C240.135 208.507 240.021 208.224 239.795 208.007C239.579 207.781 239.29 207.585 238.93 207.42C238.58 207.256 238.173 207.106 237.709 206.972C237.246 206.838 236.772 206.689 236.288 206.524C235.814 206.36 235.346 206.164 234.882 205.937C234.429 205.711 234.022 205.427 233.662 205.088C233.312 204.737 233.023 204.31 232.797 203.805C232.58 203.301 232.472 202.688 232.472 201.967C232.472 201.308 232.601 200.685 232.858 200.098C233.116 199.5 233.502 198.975 234.017 198.522C234.532 198.069 235.171 197.708 235.933 197.44C236.705 197.173 237.596 197.039 238.605 197.039C239.738 197.039 240.768 197.224 241.695 197.595C242.622 197.966 243.384 198.45 243.982 199.047L243.008 200.561ZM256.677 200.561C256.563 200.736 256.445 200.865 256.321 200.947C256.208 201.019 256.049 201.055 255.843 201.055C255.637 201.055 255.425 201.004 255.209 200.901C254.993 200.798 254.751 200.69 254.483 200.577C254.215 200.453 253.906 200.34 253.556 200.237C253.216 200.134 252.82 200.082 252.367 200.082C251.677 200.082 251.141 200.226 250.76 200.515C250.379 200.793 250.188 201.164 250.188 201.627C250.188 201.946 250.296 202.214 250.513 202.43C250.729 202.647 251.012 202.837 251.362 203.002C251.723 203.157 252.13 203.306 252.583 203.45C253.036 203.584 253.499 203.733 253.973 203.898C254.457 204.063 254.926 204.253 255.379 204.47C255.832 204.686 256.234 204.959 256.584 205.288C256.945 205.608 257.233 205.999 257.449 206.463C257.666 206.916 257.774 207.467 257.774 208.116C257.774 208.888 257.629 209.604 257.341 210.263C257.063 210.912 256.651 211.473 256.105 211.947C255.559 212.421 254.88 212.791 254.066 213.059C253.252 213.327 252.315 213.461 251.254 213.461C250.708 213.461 250.168 213.409 249.632 213.306C249.097 213.214 248.587 213.08 248.103 212.905C247.619 212.719 247.165 212.508 246.743 212.271C246.321 212.034 245.955 211.777 245.646 211.499L246.635 209.908C246.748 209.722 246.887 209.578 247.052 209.475C247.227 209.372 247.449 209.321 247.716 209.321C247.974 209.321 248.211 209.388 248.427 209.521C248.643 209.645 248.885 209.784 249.153 209.939C249.421 210.083 249.735 210.222 250.096 210.356C250.466 210.479 250.925 210.541 251.471 210.541C251.883 210.541 252.238 210.495 252.537 210.402C252.835 210.309 253.077 210.186 253.263 210.031C253.448 209.866 253.582 209.686 253.664 209.491C253.757 209.285 253.803 209.073 253.803 208.857C253.803 208.507 253.69 208.224 253.463 208.007C253.247 207.781 252.959 207.585 252.598 207.42C252.248 207.256 251.841 207.106 251.378 206.972C250.914 206.838 250.441 206.689 249.957 206.524C249.483 206.36 249.014 206.164 248.551 205.937C248.098 205.711 247.691 205.427 247.33 205.088C246.98 204.737 246.692 204.31 246.465 203.805C246.249 203.301 246.141 202.688 246.141 201.967C246.141 201.308 246.269 200.685 246.527 200.098C246.784 199.5 247.171 198.975 247.686 198.522C248.201 198.069 248.839 197.708 249.601 197.44C250.374 197.173 251.265 197.039 252.274 197.039C253.407 197.039 254.437 197.224 255.364 197.595C256.291 197.966 257.053 198.45 257.65 199.047L256.677 200.561ZM264.83 197.286V213.214H260.566V197.286H264.83ZM265.34 192.759C265.34 193.12 265.268 193.455 265.124 193.764C264.979 194.073 264.784 194.346 264.537 194.582C264.3 194.819 264.016 195.005 263.687 195.139C263.368 195.272 263.023 195.339 262.652 195.339C262.302 195.339 261.967 195.272 261.648 195.139C261.339 195.005 261.066 194.819 260.829 194.582C260.592 194.346 260.401 194.073 260.257 193.764C260.123 193.455 260.056 193.12 260.056 192.759C260.056 192.399 260.123 192.064 260.257 191.755C260.401 191.436 260.592 191.158 260.829 190.921C261.066 190.684 261.339 190.499 261.648 190.365C261.967 190.231 262.302 190.164 262.652 190.164C263.023 190.164 263.368 190.231 263.687 190.365C264.016 190.499 264.3 190.684 264.537 190.921C264.784 191.158 264.979 191.436 265.124 191.755C265.268 192.064 265.34 192.399 265.34 192.759ZM283.13 197.286L276.873 213.214H273.011L266.754 197.286H270.292C270.601 197.286 270.858 197.358 271.064 197.502C271.27 197.646 271.414 197.832 271.497 198.058L274.169 205.937C274.344 206.473 274.499 206.998 274.633 207.513C274.767 208.018 274.885 208.528 274.988 209.043C275.101 208.528 275.225 208.018 275.359 207.513C275.503 206.998 275.668 206.473 275.853 205.937L278.619 198.058C278.691 197.832 278.83 197.646 279.036 197.502C279.242 197.358 279.484 197.286 279.762 197.286H283.13ZM294.534 203.373C294.534 202.93 294.472 202.508 294.349 202.106C294.235 201.704 294.05 201.349 293.792 201.04C293.535 200.731 293.211 200.489 292.819 200.314C292.428 200.129 291.959 200.036 291.413 200.036C290.394 200.036 289.596 200.324 289.019 200.901C288.442 201.478 288.066 202.302 287.891 203.373H294.534ZM287.829 205.906C287.963 207.4 288.385 208.492 289.096 209.182C289.817 209.872 290.754 210.217 291.908 210.217C292.495 210.217 292.999 210.15 293.422 210.016C293.854 209.872 294.23 209.717 294.549 209.552C294.879 209.377 295.173 209.223 295.43 209.089C295.698 208.945 295.96 208.873 296.218 208.873C296.547 208.873 296.805 208.996 296.99 209.243L298.226 210.788C297.773 211.313 297.274 211.751 296.728 212.101C296.182 212.441 295.615 212.714 295.028 212.92C294.441 213.116 293.849 213.25 293.252 213.322C292.654 213.404 292.078 213.445 291.521 213.445C290.409 213.445 289.369 213.265 288.401 212.905C287.443 212.534 286.604 211.993 285.883 211.283C285.172 210.562 284.611 209.671 284.199 208.61C283.787 207.549 283.581 206.318 283.581 204.918C283.581 203.836 283.756 202.817 284.106 201.859C284.467 200.901 284.982 200.067 285.651 199.356C286.32 198.645 287.134 198.084 288.092 197.672C289.05 197.25 290.131 197.039 291.336 197.039C292.356 197.039 293.293 197.204 294.148 197.533C295.013 197.852 295.754 198.321 296.372 198.939C297.001 199.557 297.485 200.319 297.825 201.225C298.175 202.121 298.35 203.146 298.35 204.3C298.35 204.619 298.334 204.882 298.304 205.088C298.273 205.294 298.221 205.458 298.149 205.582C298.077 205.706 297.979 205.793 297.855 205.845C297.732 205.886 297.572 205.906 297.377 205.906H287.829Z" fill="#1D2F71"/>
<path d="M183.382 247.401L181.743 242.766C181.646 242.523 181.542 242.238 181.43 241.911C181.326 241.583 181.225 241.229 181.128 240.846C181.03 241.236 180.926 241.597 180.814 241.931C180.71 242.258 180.609 242.544 180.512 242.787L178.883 247.401H183.382ZM188.643 253.153H186.211C185.94 253.153 185.717 253.09 185.543 252.965C185.376 252.833 185.251 252.666 185.167 252.464L184.144 249.572H178.111L177.088 252.464C177.018 252.638 176.896 252.798 176.723 252.944C176.549 253.083 176.329 253.153 176.065 253.153H173.612L179.53 238.007H182.735L188.643 253.153ZM192.509 250.313C192.78 250.627 193.073 250.846 193.386 250.971C193.706 251.096 194.047 251.159 194.409 251.159C194.757 251.159 195.073 251.093 195.359 250.961C195.644 250.828 195.887 250.623 196.089 250.345C196.298 250.059 196.458 249.698 196.569 249.259C196.681 248.821 196.736 248.299 196.736 247.693C196.736 247.095 196.688 246.587 196.59 246.169C196.5 245.752 196.368 245.414 196.194 245.157C196.027 244.899 195.821 244.715 195.578 244.604C195.334 244.485 195.063 244.426 194.764 244.426C194.256 244.426 193.828 244.527 193.48 244.729C193.139 244.924 192.815 245.213 192.509 245.595V250.313ZM192.342 243.8C192.558 243.563 192.787 243.348 193.031 243.153C193.274 242.951 193.535 242.78 193.814 242.641C194.092 242.495 194.391 242.384 194.711 242.307C195.032 242.224 195.379 242.182 195.755 242.182C196.333 242.182 196.862 242.307 197.342 242.558C197.829 242.801 198.247 243.16 198.594 243.633C198.942 244.099 199.214 244.673 199.409 245.355C199.604 246.037 199.701 246.817 199.701 247.693C199.701 248.501 199.59 249.249 199.367 249.938C199.151 250.62 198.842 251.211 198.438 251.712C198.034 252.213 197.547 252.606 196.977 252.892C196.413 253.17 195.783 253.309 195.087 253.309C194.503 253.309 194.005 253.222 193.594 253.048C193.191 252.874 192.829 252.638 192.509 252.338V256.629H189.628V242.391H191.402C191.764 242.391 192.004 242.558 192.123 242.892L192.342 243.8ZM204.436 250.313C204.707 250.627 204.999 250.846 205.312 250.971C205.632 251.096 205.973 251.159 206.335 251.159C206.683 251.159 207 251.093 207.285 250.961C207.571 250.828 207.814 250.623 208.016 250.345C208.225 250.059 208.385 249.698 208.496 249.259C208.607 248.821 208.663 248.299 208.663 247.693C208.663 247.095 208.614 246.587 208.517 246.169C208.426 245.752 208.294 245.414 208.12 245.157C207.953 244.899 207.748 244.715 207.504 244.604C207.261 244.485 206.989 244.426 206.69 244.426C206.182 244.426 205.754 244.527 205.406 244.729C205.065 244.924 204.742 245.213 204.436 245.595V250.313ZM204.269 243.8C204.484 243.563 204.714 243.348 204.957 243.153C205.201 242.951 205.462 242.78 205.74 242.641C206.019 242.495 206.318 242.384 206.638 242.307C206.958 242.224 207.306 242.182 207.682 242.182C208.259 242.182 208.788 242.307 209.269 242.558C209.756 242.801 210.173 243.16 210.521 243.633C210.869 244.099 211.14 244.673 211.335 245.355C211.53 246.037 211.628 246.817 211.628 247.693C211.628 248.501 211.516 249.249 211.294 249.938C211.078 250.62 210.768 251.211 210.365 251.712C209.961 252.213 209.474 252.606 208.903 252.892C208.34 253.17 207.71 253.309 207.014 253.309C206.429 253.309 205.932 253.222 205.521 253.048C205.118 252.874 204.756 252.638 204.436 252.338V256.629H201.555V242.391H203.329C203.691 242.391 203.931 242.558 204.049 242.892L204.269 243.8ZM216.185 244.165C216.526 243.553 216.919 243.069 217.364 242.714C217.81 242.359 218.332 242.182 218.93 242.182C219.417 242.182 219.814 242.297 220.12 242.526L219.932 244.656C219.897 244.795 219.842 244.892 219.765 244.948C219.696 244.997 219.598 245.021 219.473 245.021C219.361 245.021 219.201 245.007 218.993 244.979C218.784 244.945 218.589 244.927 218.408 244.927C218.144 244.927 217.907 244.965 217.698 245.042C217.497 245.119 217.316 245.226 217.156 245.366C216.995 245.505 216.849 245.675 216.717 245.877C216.592 246.079 216.474 246.309 216.362 246.566V253.153H213.481V242.391H215.183C215.475 242.391 215.677 242.443 215.788 242.547C215.899 242.652 215.979 242.833 216.028 243.09L216.185 244.165ZM225.96 242.224C226.767 242.224 227.501 242.352 228.162 242.61C228.824 242.867 229.391 243.236 229.864 243.716C230.337 244.19 230.702 244.767 230.96 245.449C231.217 246.131 231.346 246.9 231.346 247.756C231.346 248.612 231.217 249.384 230.96 250.073C230.702 250.755 230.337 251.336 229.864 251.817C229.391 252.297 228.824 252.666 228.162 252.923C227.501 253.18 226.767 253.309 225.96 253.309C225.146 253.309 224.405 253.18 223.737 252.923C223.075 252.666 222.508 252.297 222.035 251.817C221.562 251.336 221.193 250.755 220.929 250.073C220.671 249.384 220.542 248.612 220.542 247.756C220.542 246.9 220.671 246.131 220.929 245.449C221.193 244.767 221.562 244.19 222.035 243.716C222.508 243.236 223.075 242.867 223.737 242.61C224.405 242.352 225.146 242.224 225.96 242.224ZM225.96 251.148C226.781 251.148 227.39 250.867 227.787 250.303C228.183 249.732 228.382 248.887 228.382 247.766C228.382 246.653 228.183 245.814 227.787 245.251C227.39 244.68 226.781 244.395 225.96 244.395C225.118 244.395 224.499 244.68 224.102 245.251C223.705 245.814 223.507 246.653 223.507 247.766C223.507 248.887 223.705 249.732 224.102 250.303C224.499 250.867 225.118 251.148 225.96 251.148ZM238.781 248.654C238.079 248.689 237.494 248.751 237.028 248.842C236.561 248.925 236.189 249.036 235.911 249.176C235.639 249.315 235.445 249.475 235.326 249.656C235.215 249.83 235.159 250.021 235.159 250.23C235.159 250.647 235.274 250.943 235.504 251.117C235.74 251.291 236.067 251.378 236.485 251.378C236.965 251.378 237.379 251.295 237.727 251.128C238.082 250.954 238.433 250.686 238.781 250.324V248.654ZM232.915 243.883C233.548 243.313 234.248 242.888 235.013 242.61C235.779 242.325 236.607 242.182 237.497 242.182C238.138 242.182 238.708 242.286 239.209 242.495C239.717 242.704 240.145 242.996 240.493 243.372C240.848 243.741 241.12 244.183 241.307 244.698C241.495 245.213 241.589 245.776 241.589 246.389V253.153H240.274C240.003 253.153 239.794 253.114 239.648 253.038C239.509 252.961 239.394 252.801 239.303 252.558L239.074 251.869C238.802 252.105 238.538 252.314 238.28 252.495C238.03 252.676 237.769 252.829 237.497 252.954C237.226 253.073 236.934 253.163 236.621 253.226C236.314 253.288 235.97 253.32 235.587 253.32C235.114 253.32 234.683 253.257 234.293 253.132C233.903 253.007 233.566 252.822 233.28 252.579C233.002 252.328 232.786 252.018 232.633 251.65C232.48 251.281 232.404 250.856 232.404 250.376C232.404 249.979 232.504 249.583 232.706 249.186C232.908 248.789 233.253 248.431 233.74 248.111C234.234 247.784 234.888 247.516 235.702 247.307C236.523 247.091 237.55 246.97 238.781 246.942V246.389C238.781 245.714 238.639 245.219 238.353 244.906C238.068 244.586 237.658 244.426 237.122 244.426C236.725 244.426 236.394 244.475 236.13 244.572C235.866 244.663 235.632 244.764 235.431 244.875C235.236 244.979 235.051 245.08 234.877 245.178C234.703 245.268 234.502 245.313 234.272 245.313C234.07 245.313 233.9 245.265 233.761 245.167C233.628 245.063 233.517 244.941 233.426 244.802L232.915 243.883ZM251.646 244.792C251.562 244.903 251.479 244.99 251.395 245.052C251.312 245.108 251.194 245.136 251.041 245.136C250.901 245.136 250.766 245.098 250.633 245.021C250.508 244.938 250.362 244.851 250.195 244.76C250.028 244.663 249.83 244.576 249.6 244.499C249.37 244.416 249.085 244.374 248.744 244.374C248.313 244.374 247.937 244.454 247.617 244.614C247.304 244.767 247.043 244.99 246.834 245.282C246.625 245.574 246.469 245.929 246.364 246.347C246.267 246.764 246.218 247.234 246.218 247.756C246.218 248.856 246.437 249.698 246.876 250.282C247.321 250.867 247.926 251.159 248.692 251.159C248.956 251.159 249.183 251.138 249.37 251.096C249.565 251.048 249.732 250.988 249.871 250.919C250.018 250.849 250.143 250.773 250.247 250.689C250.352 250.606 250.449 250.529 250.54 250.46C250.637 250.39 250.731 250.334 250.821 250.293C250.919 250.244 251.027 250.219 251.145 250.219C251.368 250.219 251.542 250.303 251.667 250.47L252.492 251.514C252.185 251.869 251.858 252.164 251.51 252.401C251.162 252.631 250.8 252.815 250.425 252.954C250.056 253.087 249.68 253.177 249.297 253.226C248.915 253.281 248.535 253.309 248.16 253.309C247.498 253.309 246.872 253.187 246.281 252.944C245.689 252.693 245.171 252.331 244.725 251.858C244.28 251.385 243.925 250.804 243.661 250.115C243.403 249.426 243.274 248.64 243.274 247.756C243.274 246.97 243.389 246.239 243.619 245.564C243.849 244.889 244.186 244.304 244.631 243.81C245.077 243.316 245.627 242.93 246.281 242.652C246.942 242.366 247.704 242.224 248.567 242.224C249.388 242.224 250.108 242.356 250.727 242.62C251.347 242.885 251.903 243.268 252.398 243.769L251.646 244.792ZM256.831 243.445C257.033 243.264 257.242 243.101 257.458 242.954C257.68 242.801 257.913 242.673 258.157 242.568C258.407 242.457 258.672 242.373 258.95 242.318C259.236 242.255 259.542 242.224 259.869 242.224C260.453 242.224 260.972 242.325 261.424 242.526C261.876 242.728 262.256 243.01 262.562 243.372C262.875 243.734 263.108 244.165 263.261 244.666C263.421 245.167 263.501 245.717 263.501 246.316V253.153H260.631V246.316C260.631 245.717 260.492 245.254 260.213 244.927C259.935 244.593 259.524 244.426 258.982 244.426C258.578 244.426 258.199 244.513 257.844 244.687C257.489 244.861 257.151 245.105 256.831 245.418V253.153H253.95V237.589H256.831V243.445Z" fill="#F5FAFF"/>
<rect x="117.454" y="117.802" width="203.496" height="203.496" rx="101.748" fill="#FFB800"/>
<path d="M168.749 207.699C169.007 207.699 169.223 207.791 169.398 207.977L171.236 209.939C170.33 211.092 169.202 211.968 167.853 212.565C166.514 213.162 164.918 213.461 163.064 213.461C161.385 213.461 159.876 213.178 158.538 212.611C157.199 212.035 156.061 211.236 155.123 210.217C154.186 209.197 153.465 207.987 152.96 206.586C152.456 205.186 152.204 203.656 152.204 201.998C152.204 200.886 152.322 199.83 152.559 198.831C152.806 197.822 153.161 196.895 153.625 196.05C154.088 195.206 154.644 194.444 155.293 193.764C155.952 193.084 156.694 192.507 157.518 192.034C158.342 191.55 159.238 191.184 160.206 190.937C161.184 190.679 162.225 190.551 163.327 190.551C164.151 190.551 164.928 190.623 165.659 190.767C166.401 190.911 167.091 191.112 167.73 191.369C168.368 191.627 168.955 191.941 169.491 192.312C170.037 192.672 170.526 193.069 170.958 193.501L169.398 195.633C169.305 195.767 169.187 195.885 169.043 195.988C168.898 196.091 168.703 196.143 168.456 196.143C168.208 196.143 167.956 196.055 167.699 195.88C167.451 195.705 167.142 195.51 166.772 195.293C166.411 195.077 165.953 194.881 165.397 194.706C164.851 194.531 164.156 194.444 163.311 194.444C162.374 194.444 161.514 194.614 160.731 194.953C159.948 195.293 159.274 195.788 158.707 196.436C158.151 197.075 157.719 197.863 157.41 198.8C157.101 199.737 156.946 200.803 156.946 201.998C156.946 203.203 157.111 204.279 157.441 205.227C157.781 206.164 158.239 206.957 158.816 207.606C159.403 208.255 160.082 208.749 160.855 209.089C161.638 209.419 162.472 209.583 163.358 209.583C163.883 209.583 164.357 209.558 164.779 209.506C165.211 209.455 165.608 209.367 165.968 209.244C166.339 209.12 166.684 208.96 167.003 208.765C167.333 208.569 167.663 208.322 167.992 208.023C168.105 207.93 168.224 207.853 168.347 207.791C168.471 207.73 168.605 207.699 168.749 207.699ZM187.036 197.286V213.214H184.409C183.864 213.214 183.513 212.967 183.359 212.472L183.081 211.36C182.762 211.669 182.432 211.952 182.092 212.21C181.752 212.467 181.387 212.689 180.995 212.874C180.614 213.059 180.197 213.204 179.744 213.307C179.301 213.41 178.817 213.461 178.292 213.461C177.427 213.461 176.654 213.312 175.974 213.013C175.305 212.714 174.744 212.297 174.29 211.762C173.837 211.226 173.492 210.588 173.255 209.846C173.018 209.104 172.9 208.291 172.9 207.405V197.286H177.164V207.405C177.164 208.291 177.365 208.981 177.766 209.475C178.178 209.959 178.786 210.201 179.589 210.201C180.187 210.201 180.748 210.073 181.273 209.815C181.799 209.547 182.298 209.187 182.772 208.734V197.286H187.036ZM200.458 200.561C200.344 200.736 200.226 200.865 200.102 200.948C199.989 201.02 199.83 201.056 199.624 201.056C199.418 201.056 199.206 201.004 198.99 200.901C198.774 200.798 198.532 200.69 198.264 200.577C197.996 200.453 197.687 200.34 197.337 200.237C196.997 200.134 196.601 200.082 196.148 200.082C195.458 200.082 194.922 200.227 194.541 200.515C194.16 200.793 193.969 201.164 193.969 201.627C193.969 201.947 194.077 202.214 194.294 202.431C194.51 202.647 194.793 202.837 195.143 203.002C195.504 203.157 195.911 203.306 196.364 203.45C196.817 203.584 197.28 203.733 197.754 203.898C198.238 204.063 198.707 204.254 199.16 204.47C199.613 204.686 200.015 204.959 200.365 205.289C200.726 205.608 201.014 205.999 201.23 206.463C201.447 206.916 201.555 207.467 201.555 208.116C201.555 208.888 201.41 209.604 201.122 210.263C200.844 210.912 200.432 211.473 199.886 211.947C199.34 212.421 198.661 212.792 197.847 213.059C197.033 213.327 196.096 213.461 195.035 213.461C194.489 213.461 193.949 213.41 193.413 213.307C192.878 213.214 192.368 213.08 191.884 212.905C191.4 212.72 190.946 212.508 190.524 212.271C190.102 212.035 189.736 211.777 189.427 211.499L190.416 209.908C190.529 209.722 190.668 209.578 190.833 209.475C191.008 209.372 191.23 209.321 191.497 209.321C191.755 209.321 191.992 209.388 192.208 209.522C192.424 209.645 192.666 209.784 192.934 209.939C193.202 210.083 193.516 210.222 193.877 210.356C194.247 210.479 194.706 210.541 195.252 210.541C195.664 210.541 196.019 210.495 196.318 210.402C196.616 210.309 196.858 210.186 197.044 210.031C197.229 209.867 197.363 209.686 197.445 209.491C197.538 209.285 197.584 209.074 197.584 208.857C197.584 208.507 197.471 208.224 197.244 208.008C197.028 207.781 196.74 207.585 196.379 207.421C196.029 207.256 195.622 207.106 195.159 206.973C194.695 206.839 194.222 206.689 193.738 206.525C193.264 206.36 192.795 206.164 192.332 205.937C191.879 205.711 191.472 205.428 191.111 205.088C190.761 204.738 190.473 204.31 190.246 203.806C190.03 203.301 189.922 202.688 189.922 201.967C189.922 201.308 190.05 200.685 190.308 200.098C190.565 199.5 190.952 198.975 191.467 198.522C191.982 198.069 192.62 197.708 193.382 197.441C194.155 197.173 195.046 197.039 196.055 197.039C197.188 197.039 198.218 197.224 199.145 197.595C200.072 197.966 200.834 198.45 201.431 199.047L200.458 200.561ZM209.723 213.461C209.002 213.461 208.364 213.358 207.808 213.152C207.252 212.936 206.783 212.632 206.402 212.241C206.021 211.849 205.732 211.375 205.537 210.819C205.341 210.263 205.243 209.635 205.243 208.935V200.345H203.745C203.518 200.345 203.322 200.273 203.158 200.129C203.003 199.985 202.926 199.768 202.926 199.48V197.811L205.475 197.348L206.34 193.223C206.453 192.76 206.768 192.528 207.283 192.528H209.507V197.379H213.617V200.345H209.507V208.656C209.507 209.099 209.61 209.45 209.816 209.707C210.032 209.964 210.336 210.093 210.728 210.093C210.934 210.093 211.109 210.073 211.253 210.031C211.397 209.98 211.521 209.928 211.624 209.877C211.727 209.815 211.819 209.764 211.902 209.722C211.994 209.671 212.087 209.645 212.18 209.645C212.303 209.645 212.406 209.676 212.489 209.738C212.571 209.789 212.654 209.882 212.736 210.016L214.018 212.055C213.431 212.519 212.767 212.869 212.025 213.106C211.284 213.343 210.516 213.461 209.723 213.461ZM222.934 197.039C224.128 197.039 225.215 197.23 226.193 197.611C227.172 197.992 228.011 198.538 228.711 199.248C229.412 199.949 229.952 200.803 230.334 201.813C230.715 202.822 230.905 203.96 230.905 205.227C230.905 206.494 230.715 207.637 230.334 208.656C229.952 209.666 229.412 210.526 228.711 211.236C228.011 211.947 227.172 212.493 226.193 212.874C225.215 213.255 224.128 213.446 222.934 213.446C221.729 213.446 220.632 213.255 219.643 212.874C218.665 212.493 217.825 211.947 217.125 211.236C216.424 210.526 215.879 209.666 215.487 208.656C215.106 207.637 214.916 206.494 214.916 205.227C214.916 203.96 215.106 202.822 215.487 201.813C215.879 200.803 216.424 199.949 217.125 199.248C217.825 198.538 218.665 197.992 219.643 197.611C220.632 197.23 221.729 197.039 222.934 197.039ZM222.934 210.248C224.149 210.248 225.05 209.831 225.637 208.996C226.224 208.152 226.518 206.9 226.518 205.242C226.518 203.594 226.224 202.353 225.637 201.519C225.05 200.675 224.149 200.252 222.934 200.252C221.687 200.252 220.771 200.675 220.184 201.519C219.597 202.353 219.303 203.594 219.303 205.242C219.303 206.9 219.597 208.152 220.184 208.996C220.771 209.831 221.687 210.248 222.934 210.248ZM233.582 213.214V197.286H236.209C236.744 197.286 237.1 197.533 237.275 198.028L237.522 199.063C237.8 198.774 238.083 198.507 238.372 198.259C238.67 198.012 238.989 197.801 239.329 197.626C239.669 197.441 240.035 197.296 240.426 197.193C240.828 197.09 241.26 197.039 241.724 197.039C242.702 197.039 243.511 197.302 244.149 197.827C244.788 198.342 245.272 199.032 245.602 199.897C245.859 199.392 246.173 198.96 246.544 198.599C246.925 198.229 247.337 197.93 247.78 197.703C248.233 197.477 248.707 197.312 249.201 197.209C249.706 197.096 250.21 197.039 250.715 197.039C251.611 197.039 252.404 197.173 253.094 197.441C253.784 197.708 254.361 198.105 254.824 198.63C255.298 199.145 255.659 199.779 255.906 200.53C256.153 201.282 256.277 202.137 256.277 203.095V213.214H252.013V203.095C252.013 201.231 251.215 200.299 249.618 200.299C249.258 200.299 248.923 200.36 248.614 200.484C248.315 200.597 248.048 200.772 247.811 201.009C247.584 201.246 247.404 201.54 247.27 201.89C247.146 202.24 247.085 202.642 247.085 203.095V213.214H242.821V203.095C242.821 202.086 242.62 201.37 242.218 200.948C241.827 200.515 241.245 200.299 240.473 200.299C239.978 200.299 239.51 200.417 239.067 200.654C238.634 200.881 238.227 201.2 237.846 201.612V213.214H233.582ZM269.756 203.373C269.756 202.93 269.694 202.508 269.57 202.106C269.457 201.705 269.272 201.349 269.014 201.04C268.757 200.731 268.432 200.489 268.041 200.314C267.65 200.129 267.181 200.036 266.635 200.036C265.615 200.036 264.817 200.324 264.24 200.901C263.664 201.478 263.288 202.302 263.113 203.373H269.756ZM263.051 205.907C263.185 207.4 263.607 208.492 264.318 209.182C265.039 209.872 265.976 210.217 267.129 210.217C267.716 210.217 268.221 210.15 268.643 210.016C269.076 209.872 269.452 209.717 269.771 209.553C270.101 209.377 270.394 209.223 270.652 209.089C270.92 208.945 271.182 208.873 271.44 208.873C271.769 208.873 272.027 208.996 272.212 209.244L273.448 210.788C272.995 211.314 272.495 211.751 271.949 212.102C271.404 212.441 270.837 212.714 270.25 212.92C269.663 213.116 269.071 213.25 268.473 213.322C267.876 213.404 267.299 213.446 266.743 213.446C265.631 213.446 264.591 213.265 263.623 212.905C262.665 212.534 261.825 211.993 261.104 211.283C260.394 210.562 259.832 209.671 259.42 208.61C259.009 207.549 258.803 206.319 258.803 204.918C258.803 203.836 258.978 202.817 259.328 201.859C259.688 200.901 260.203 200.067 260.873 199.356C261.542 198.646 262.356 198.084 263.314 197.672C264.271 197.25 265.353 197.039 266.558 197.039C267.577 197.039 268.515 197.204 269.369 197.533C270.235 197.853 270.976 198.321 271.594 198.939C272.222 199.557 272.706 200.319 273.046 201.226C273.396 202.122 273.572 203.146 273.572 204.3C273.572 204.619 273.556 204.882 273.525 205.088C273.494 205.294 273.443 205.459 273.371 205.582C273.299 205.706 273.201 205.793 273.077 205.845C272.954 205.886 272.794 205.907 272.598 205.907H263.051ZM280.219 199.912C280.723 199.006 281.305 198.29 281.964 197.765C282.623 197.24 283.396 196.977 284.282 196.977C285.003 196.977 285.59 197.147 286.043 197.487L285.765 200.639C285.713 200.845 285.631 200.989 285.518 201.071C285.415 201.143 285.27 201.179 285.085 201.179C284.92 201.179 284.683 201.159 284.374 201.117C284.065 201.066 283.777 201.04 283.509 201.04C283.118 201.04 282.768 201.097 282.459 201.21C282.16 201.323 281.892 201.483 281.655 201.689C281.418 201.895 281.202 202.147 281.007 202.446C280.821 202.745 280.646 203.085 280.481 203.466V213.214H276.217V197.286H278.736C279.168 197.286 279.467 197.363 279.632 197.518C279.796 197.672 279.915 197.94 279.987 198.321L280.219 199.912Z" fill="#1D2F71"/>
<path d="M173.245 242.391V253.153H170.364V242.391H173.245ZM173.589 239.333C173.589 239.576 173.54 239.802 173.443 240.011C173.346 240.22 173.213 240.404 173.046 240.564C172.886 240.724 172.695 240.85 172.472 240.94C172.257 241.031 172.023 241.076 171.773 241.076C171.536 241.076 171.31 241.031 171.094 240.94C170.886 240.85 170.701 240.724 170.541 240.564C170.381 240.404 170.252 240.22 170.155 240.011C170.065 239.802 170.019 239.576 170.019 239.333C170.019 239.089 170.065 238.863 170.155 238.654C170.252 238.438 170.381 238.251 170.541 238.091C170.701 237.93 170.886 237.805 171.094 237.715C171.31 237.624 171.536 237.579 171.773 237.579C172.023 237.579 172.257 237.624 172.472 237.715C172.695 237.805 172.886 237.93 173.046 238.091C173.213 238.251 173.346 238.438 173.443 238.654C173.54 238.863 173.589 239.089 173.589 239.333ZM182.394 244.604C182.318 244.722 182.238 244.809 182.154 244.865C182.078 244.914 181.97 244.938 181.831 244.938C181.691 244.938 181.549 244.903 181.403 244.834C181.257 244.764 181.093 244.691 180.912 244.614C180.731 244.531 180.522 244.454 180.286 244.385C180.056 244.315 179.788 244.28 179.482 244.28C179.016 244.28 178.654 244.378 178.396 244.573C178.139 244.761 178.01 245.011 178.01 245.324C178.01 245.54 178.083 245.721 178.229 245.867C178.376 246.013 178.567 246.142 178.803 246.253C179.047 246.358 179.322 246.459 179.628 246.556C179.934 246.646 180.247 246.747 180.568 246.859C180.895 246.97 181.211 247.099 181.517 247.245C181.824 247.391 182.095 247.576 182.332 247.798C182.575 248.014 182.77 248.278 182.916 248.592C183.062 248.898 183.135 249.27 183.135 249.708C183.135 250.23 183.038 250.714 182.843 251.159C182.655 251.598 182.377 251.977 182.008 252.297C181.639 252.617 181.18 252.868 180.63 253.049C180.08 253.23 179.447 253.32 178.73 253.32C178.362 253.32 177.996 253.285 177.634 253.216C177.273 253.153 176.928 253.063 176.601 252.944C176.274 252.819 175.968 252.676 175.682 252.516C175.397 252.356 175.15 252.182 174.941 251.994L175.609 250.919C175.686 250.794 175.78 250.697 175.891 250.627C176.009 250.557 176.159 250.523 176.34 250.523C176.514 250.523 176.674 250.568 176.82 250.658C176.966 250.742 177.13 250.836 177.311 250.94C177.492 251.038 177.704 251.132 177.948 251.222C178.198 251.305 178.508 251.347 178.877 251.347C179.155 251.347 179.395 251.316 179.597 251.253C179.799 251.191 179.962 251.107 180.087 251.003C180.213 250.891 180.303 250.77 180.359 250.637C180.421 250.498 180.453 250.356 180.453 250.209C180.453 249.973 180.376 249.781 180.223 249.635C180.077 249.482 179.882 249.35 179.639 249.239C179.402 249.127 179.127 249.026 178.814 248.936C178.501 248.846 178.181 248.745 177.854 248.633C177.533 248.522 177.217 248.39 176.904 248.237C176.598 248.084 176.323 247.892 176.079 247.662C175.842 247.426 175.648 247.137 175.495 246.796C175.348 246.455 175.275 246.041 175.275 245.554C175.275 245.109 175.362 244.688 175.536 244.291C175.71 243.887 175.971 243.532 176.319 243.226C176.667 242.92 177.099 242.676 177.614 242.496C178.135 242.315 178.737 242.224 179.419 242.224C180.185 242.224 180.881 242.349 181.507 242.6C182.133 242.85 182.648 243.177 183.052 243.581L182.394 244.604ZM196.584 244.604C196.507 244.722 196.427 244.809 196.344 244.865C196.267 244.914 196.159 244.938 196.02 244.938C195.881 244.938 195.738 244.903 195.592 244.834C195.446 244.764 195.283 244.691 195.102 244.614C194.921 244.531 194.712 244.454 194.475 244.385C194.246 244.315 193.978 244.28 193.672 244.28C193.205 244.28 192.844 244.378 192.586 244.573C192.329 244.761 192.2 245.011 192.2 245.324C192.2 245.54 192.273 245.721 192.419 245.867C192.565 246.013 192.757 246.142 192.993 246.253C193.237 246.358 193.512 246.459 193.818 246.556C194.124 246.646 194.437 246.747 194.757 246.859C195.084 246.97 195.401 247.099 195.707 247.245C196.013 247.391 196.285 247.576 196.521 247.798C196.765 248.014 196.96 248.278 197.106 248.592C197.252 248.898 197.325 249.27 197.325 249.708C197.325 250.23 197.228 250.714 197.033 251.159C196.845 251.598 196.567 251.977 196.198 252.297C195.829 252.617 195.37 252.868 194.82 253.049C194.27 253.23 193.637 253.32 192.92 253.32C192.551 253.32 192.186 253.285 191.824 253.216C191.462 253.153 191.118 253.063 190.791 252.944C190.464 252.819 190.157 252.676 189.872 252.516C189.587 252.356 189.34 252.182 189.131 251.994L189.799 250.919C189.876 250.794 189.97 250.697 190.081 250.627C190.199 250.557 190.349 250.523 190.53 250.523C190.704 250.523 190.864 250.568 191.01 250.658C191.156 250.742 191.32 250.836 191.5 250.94C191.681 251.038 191.894 251.132 192.137 251.222C192.388 251.305 192.697 251.347 193.066 251.347C193.345 251.347 193.585 251.316 193.786 251.253C193.988 251.191 194.152 251.107 194.277 251.003C194.402 250.891 194.493 250.77 194.548 250.637C194.611 250.498 194.642 250.356 194.642 250.209C194.642 249.973 194.566 249.781 194.413 249.635C194.267 249.482 194.072 249.35 193.828 249.239C193.592 249.127 193.317 249.026 193.004 248.936C192.69 248.846 192.37 248.745 192.043 248.633C191.723 248.522 191.407 248.39 191.093 248.237C190.787 248.084 190.512 247.892 190.269 247.662C190.032 247.426 189.837 247.137 189.684 246.796C189.538 246.455 189.465 246.041 189.465 245.554C189.465 245.109 189.552 244.688 189.726 244.291C189.9 243.887 190.161 243.532 190.509 243.226C190.857 242.92 191.288 242.676 191.803 242.496C192.325 242.315 192.927 242.224 193.609 242.224C194.374 242.224 195.07 242.349 195.697 242.6C196.323 242.85 196.838 243.177 197.242 243.581L196.584 244.604ZM208.575 242.391V253.153H206.801C206.432 253.153 206.195 252.986 206.091 252.652L205.903 251.9C205.687 252.109 205.465 252.301 205.235 252.475C205.005 252.649 204.758 252.798 204.494 252.923C204.236 253.049 203.954 253.146 203.648 253.216C203.349 253.285 203.022 253.32 202.667 253.32C202.083 253.32 201.561 253.219 201.101 253.017C200.649 252.816 200.27 252.534 199.964 252.172C199.657 251.81 199.424 251.379 199.264 250.878C199.104 250.376 199.024 249.827 199.024 249.228V242.391H201.905V249.228C201.905 249.827 202.041 250.293 202.312 250.627C202.591 250.954 203.001 251.118 203.544 251.118C203.948 251.118 204.327 251.031 204.682 250.857C205.037 250.676 205.374 250.432 205.694 250.126V242.391H208.575ZM213.834 250.314C214.106 250.627 214.398 250.846 214.711 250.971C215.031 251.097 215.372 251.159 215.734 251.159C216.082 251.159 216.399 251.093 216.684 250.961C216.969 250.829 217.213 250.624 217.415 250.345C217.623 250.06 217.783 249.698 217.895 249.26C218.006 248.821 218.062 248.299 218.062 247.694C218.062 247.095 218.013 246.587 217.916 246.17C217.825 245.752 217.693 245.415 217.519 245.157C217.352 244.9 217.147 244.715 216.903 244.604C216.659 244.486 216.388 244.427 216.089 244.427C215.581 244.427 215.153 244.528 214.805 244.729C214.464 244.924 214.14 245.213 213.834 245.596V250.314ZM213.667 243.8C213.883 243.564 214.113 243.348 214.356 243.153C214.6 242.951 214.861 242.781 215.139 242.642C215.417 242.496 215.717 242.384 216.037 242.308C216.357 242.224 216.705 242.182 217.08 242.182C217.658 242.182 218.187 242.308 218.667 242.558C219.154 242.802 219.572 243.16 219.92 243.633C220.268 244.1 220.539 244.674 220.734 245.356C220.929 246.038 221.026 246.817 221.026 247.694C221.026 248.501 220.915 249.249 220.692 249.938C220.476 250.62 220.167 251.212 219.763 251.713C219.36 252.214 218.872 252.607 218.302 252.892C217.738 253.17 217.108 253.31 216.412 253.31C215.828 253.31 215.33 253.223 214.92 253.049C214.516 252.875 214.154 252.638 213.834 252.339V256.629H210.953V242.391H212.728C213.09 242.391 213.33 242.558 213.448 242.892L213.667 243.8ZM225.583 244.166C225.924 243.553 226.318 243.07 226.763 242.715C227.208 242.36 227.73 242.182 228.329 242.182C228.816 242.182 229.212 242.297 229.519 242.527L229.331 244.656C229.296 244.795 229.24 244.893 229.164 244.949C229.094 244.997 228.997 245.022 228.871 245.022C228.76 245.022 228.6 245.008 228.391 244.98C228.183 244.945 227.988 244.928 227.807 244.928C227.542 244.928 227.306 244.966 227.097 245.042C226.895 245.119 226.714 245.227 226.554 245.366C226.394 245.505 226.248 245.676 226.116 245.878C225.99 246.079 225.872 246.309 225.761 246.566V253.153H222.88V242.391H224.581C224.874 242.391 225.075 242.443 225.187 242.548C225.298 242.652 225.378 242.833 225.427 243.09L225.583 244.166ZM237.331 246.504C237.331 246.205 237.29 245.919 237.206 245.648C237.13 245.376 237.004 245.136 236.83 244.928C236.656 244.719 236.437 244.555 236.173 244.437C235.908 244.312 235.592 244.249 235.223 244.249C234.534 244.249 233.995 244.444 233.605 244.834C233.215 245.223 232.961 245.78 232.843 246.504H237.331ZM232.801 248.216C232.892 249.225 233.177 249.962 233.657 250.429C234.144 250.895 234.777 251.128 235.557 251.128C235.954 251.128 236.295 251.083 236.58 250.992C236.872 250.895 237.126 250.791 237.342 250.679C237.565 250.561 237.763 250.456 237.937 250.366C238.118 250.269 238.295 250.22 238.469 250.22C238.692 250.22 238.866 250.303 238.991 250.47L239.826 251.514C239.52 251.869 239.182 252.165 238.814 252.402C238.445 252.631 238.062 252.816 237.665 252.955C237.269 253.087 236.869 253.177 236.465 253.226C236.061 253.282 235.672 253.31 235.296 253.31C234.544 253.31 233.842 253.188 233.187 252.944C232.54 252.694 231.973 252.328 231.486 251.848C231.006 251.361 230.627 250.759 230.348 250.042C230.07 249.326 229.931 248.494 229.931 247.548C229.931 246.817 230.049 246.128 230.286 245.481C230.529 244.834 230.877 244.27 231.329 243.79C231.782 243.31 232.331 242.93 232.979 242.652C233.626 242.367 234.356 242.224 235.171 242.224C235.86 242.224 236.493 242.335 237.07 242.558C237.655 242.774 238.156 243.09 238.574 243.508C238.998 243.926 239.325 244.441 239.555 245.053C239.791 245.658 239.91 246.351 239.91 247.13C239.91 247.346 239.899 247.523 239.878 247.662C239.858 247.802 239.823 247.913 239.774 247.997C239.725 248.08 239.659 248.139 239.576 248.174C239.492 248.202 239.384 248.216 239.252 248.216H232.801ZM241.697 253.153V242.391H243.472C243.834 242.391 244.074 242.558 244.192 242.892L244.359 243.592C244.547 243.397 244.738 243.216 244.933 243.049C245.135 242.882 245.351 242.739 245.58 242.621C245.81 242.496 246.057 242.398 246.322 242.328C246.593 242.259 246.885 242.224 247.198 242.224C247.86 242.224 248.406 242.402 248.837 242.756C249.269 243.104 249.596 243.571 249.818 244.155C249.992 243.814 250.205 243.522 250.455 243.278C250.713 243.028 250.991 242.826 251.29 242.673C251.596 242.52 251.917 242.409 252.251 242.339C252.592 242.262 252.933 242.224 253.274 242.224C253.879 242.224 254.415 242.315 254.881 242.496C255.347 242.676 255.737 242.944 256.05 243.299C256.37 243.647 256.614 244.075 256.781 244.583C256.948 245.091 257.031 245.669 257.031 246.316V253.153H254.15V246.316C254.15 245.056 253.611 244.427 252.532 244.427C252.289 244.427 252.063 244.468 251.854 244.552C251.652 244.628 251.471 244.747 251.311 244.907C251.158 245.067 251.036 245.265 250.946 245.502C250.862 245.738 250.821 246.01 250.821 246.316V253.153H247.94V246.316C247.94 245.634 247.804 245.15 247.532 244.865C247.268 244.573 246.875 244.427 246.353 244.427C246.019 244.427 245.702 244.507 245.403 244.667C245.111 244.82 244.836 245.036 244.578 245.314V253.153H241.697ZM266.139 246.504C266.139 246.205 266.097 245.919 266.014 245.648C265.937 245.376 265.812 245.136 265.638 244.928C265.464 244.719 265.245 244.555 264.98 244.437C264.716 244.312 264.399 244.249 264.03 244.249C263.341 244.249 262.802 244.444 262.412 244.834C262.023 245.223 261.769 245.78 261.65 246.504H266.139ZM261.609 248.216C261.699 249.225 261.984 249.962 262.465 250.429C262.952 250.895 263.585 251.128 264.364 251.128C264.761 251.128 265.102 251.083 265.387 250.992C265.68 250.895 265.934 250.791 266.149 250.679C266.372 250.561 266.57 250.456 266.744 250.366C266.925 250.269 267.103 250.22 267.277 250.22C267.499 250.22 267.673 250.303 267.799 250.47L268.634 251.514C268.327 251.869 267.99 252.165 267.621 252.402C267.252 252.631 266.87 252.816 266.473 252.955C266.076 253.087 265.676 253.177 265.272 253.226C264.869 253.282 264.479 253.31 264.103 253.31C263.352 253.31 262.649 253.188 261.995 252.944C261.348 252.694 260.78 252.328 260.293 251.848C259.813 251.361 259.434 250.759 259.156 250.042C258.877 249.326 258.738 248.494 258.738 247.548C258.738 246.817 258.856 246.128 259.093 245.481C259.337 244.834 259.684 244.27 260.137 243.79C260.589 243.31 261.139 242.93 261.786 242.652C262.433 242.367 263.164 242.224 263.978 242.224C264.667 242.224 265.3 242.335 265.878 242.558C266.462 242.774 266.963 243.09 267.381 243.508C267.806 243.926 268.133 244.441 268.362 245.053C268.599 245.658 268.717 246.351 268.717 247.13C268.717 247.346 268.707 247.523 268.686 247.662C268.665 247.802 268.63 247.913 268.581 247.997C268.533 248.08 268.467 248.139 268.383 248.174C268.3 248.202 268.192 248.216 268.06 248.216H261.609Z" fill="#F5FAFF"/>
<rect x="30.1252" y="30.304" width="378.153" height="378.153" rx="189.076" fill="#FFB800"/>
<path d="M165.502 173.858H153.33V208.566H144.689V173.858H132.517V166.911H165.502V173.858ZM177.452 178.968V208.566H169.529V178.968H177.452ZM178.4 170.557C178.4 171.227 178.266 171.849 177.998 172.423C177.73 172.997 177.366 173.504 176.907 173.944C176.467 174.385 175.94 174.729 175.328 174.978C174.735 175.227 174.094 175.351 173.405 175.351C172.754 175.351 172.132 175.227 171.539 174.978C170.964 174.729 170.457 174.385 170.017 173.944C169.577 173.504 169.223 172.997 168.955 172.423C168.706 171.849 168.582 171.227 168.582 170.557C168.582 169.887 168.706 169.265 168.955 168.691C169.223 168.097 169.577 167.581 170.017 167.141C170.457 166.7 170.964 166.356 171.539 166.107C172.132 165.858 172.754 165.734 173.405 165.734C174.094 165.734 174.735 165.858 175.328 166.107C175.94 166.356 176.467 166.7 176.907 167.141C177.366 167.581 177.73 168.097 177.998 168.691C178.266 169.265 178.4 169.887 178.4 170.557ZM184.214 208.566V178.968H189.095C190.09 178.968 190.75 179.428 191.075 180.346L191.535 182.27C192.051 181.734 192.578 181.236 193.114 180.777C193.669 180.318 194.262 179.925 194.894 179.6C195.525 179.255 196.205 178.987 196.932 178.796C197.678 178.605 198.482 178.509 199.343 178.509C201.162 178.509 202.664 178.997 203.851 179.973C205.037 180.93 205.937 182.212 206.549 183.82C207.028 182.882 207.611 182.078 208.3 181.408C209.008 180.719 209.774 180.164 210.597 179.743C211.439 179.322 212.319 179.016 213.238 178.825C214.176 178.614 215.114 178.509 216.052 178.509C217.717 178.509 219.19 178.758 220.473 179.255C221.755 179.753 222.827 180.49 223.688 181.466C224.568 182.423 225.238 183.6 225.697 184.997C226.157 186.394 226.386 187.983 226.386 189.763V208.566H218.463V189.763C218.463 186.298 216.98 184.566 214.013 184.566C213.343 184.566 212.721 184.681 212.147 184.911C211.592 185.121 211.095 185.447 210.654 185.887C210.233 186.327 209.898 186.873 209.65 187.523C209.42 188.174 209.305 188.92 209.305 189.763V208.566H201.382V189.763C201.382 187.887 201.008 186.557 200.262 185.772C199.535 184.968 198.453 184.566 197.018 184.566C196.099 184.566 195.229 184.786 194.406 185.227C193.602 185.648 192.846 186.241 192.138 187.007V208.566H184.214ZM251.434 190.279C251.434 189.456 251.32 188.672 251.09 187.925C250.879 187.179 250.535 186.519 250.056 185.944C249.578 185.37 248.975 184.92 248.248 184.595C247.52 184.251 246.65 184.078 245.635 184.078C243.741 184.078 242.257 184.614 241.186 185.686C240.114 186.758 239.415 188.289 239.09 190.279H251.434ZM238.975 194.987C239.224 197.763 240.008 199.791 241.329 201.074C242.669 202.356 244.41 202.997 246.554 202.997C247.645 202.997 248.583 202.873 249.367 202.624C250.171 202.356 250.87 202.069 251.463 201.763C252.075 201.437 252.621 201.15 253.099 200.901C253.597 200.633 254.085 200.499 254.564 200.499C255.176 200.499 255.654 200.729 255.999 201.188L258.296 204.059C257.453 205.035 256.525 205.849 255.511 206.499C254.497 207.131 253.444 207.638 252.353 208.021C251.262 208.385 250.162 208.633 249.052 208.767C247.942 208.92 246.87 208.997 245.836 208.997C243.769 208.997 241.836 208.662 240.037 207.992C238.257 207.303 236.697 206.298 235.358 204.978C234.037 203.638 232.994 201.983 232.229 200.011C231.463 198.04 231.08 195.753 231.08 193.15C231.08 191.141 231.406 189.246 232.056 187.466C232.726 185.686 233.683 184.136 234.927 182.815C236.171 181.495 237.683 180.452 239.463 179.686C241.243 178.901 243.253 178.509 245.492 178.509C247.386 178.509 249.128 178.815 250.717 179.428C252.324 180.021 253.702 180.892 254.851 182.04C256.018 183.188 256.918 184.605 257.549 186.289C258.2 187.954 258.525 189.858 258.525 192.002C258.525 192.595 258.497 193.083 258.439 193.466C258.382 193.849 258.286 194.155 258.152 194.385C258.018 194.614 257.836 194.777 257.607 194.873C257.377 194.949 257.08 194.987 256.717 194.987H238.975ZM271.423 165.763V208.566H263.499V165.763H271.423ZM305.465 178.968L289.504 216.519C289.255 217.054 288.949 217.456 288.585 217.724C288.24 217.992 287.685 218.126 286.92 218.126H281.035L286.633 206.184L274.748 178.968H281.695C282.327 178.968 282.815 179.112 283.159 179.399C283.504 179.686 283.752 180.021 283.906 180.404L289.532 194.557C289.743 195.112 289.925 195.676 290.078 196.251C290.25 196.806 290.413 197.361 290.566 197.916C290.91 196.786 291.303 195.657 291.743 194.528L296.968 180.404C297.121 179.983 297.398 179.638 297.8 179.37C298.202 179.102 298.642 178.968 299.121 178.968H305.465Z" fill="#1D2F71"/>
<path d="M174.324 268.143C174.324 270.199 173.975 272.094 173.277 273.827C172.591 275.547 171.615 277.027 170.348 278.269C169.093 279.51 167.58 280.48 165.809 281.178C164.037 281.877 162.072 282.226 159.912 282.226H149.088V254.08H159.912C162.072 254.08 164.037 254.429 165.809 255.128C167.58 255.826 169.093 256.802 170.348 258.057C171.615 259.298 172.591 260.779 173.277 262.499C173.975 264.219 174.324 266.1 174.324 268.143ZM168.35 268.143C168.35 266.669 168.156 265.344 167.768 264.167C167.38 262.99 166.824 261.994 166.1 261.18C165.376 260.365 164.49 259.738 163.442 259.298C162.408 258.858 161.231 258.639 159.912 258.639H154.946V277.667H159.912C161.231 277.667 162.408 277.454 163.442 277.027C164.49 276.588 165.376 275.96 166.1 275.146C166.824 274.318 167.38 273.316 167.768 272.139C168.156 270.962 168.35 269.63 168.35 268.143ZM190.323 269.87C190.323 269.314 190.245 268.783 190.09 268.279C189.948 267.775 189.715 267.329 189.392 266.941C189.068 266.553 188.661 266.249 188.169 266.029C187.678 265.796 187.09 265.68 186.404 265.68C185.124 265.68 184.122 266.042 183.398 266.766C182.674 267.49 182.202 268.525 181.982 269.87H190.323ZM181.904 273.051C182.072 274.926 182.602 276.297 183.495 277.163C184.4 278.03 185.577 278.463 187.025 278.463C187.762 278.463 188.396 278.379 188.926 278.211C189.469 278.03 189.941 277.836 190.342 277.629C190.756 277.409 191.124 277.215 191.448 277.047C191.784 276.866 192.114 276.775 192.437 276.775C192.851 276.775 193.174 276.93 193.407 277.241L194.959 279.18C194.39 279.84 193.762 280.39 193.077 280.829C192.392 281.256 191.68 281.599 190.943 281.857C190.206 282.103 189.463 282.271 188.713 282.362C187.963 282.465 187.238 282.517 186.54 282.517C185.143 282.517 183.837 282.29 182.622 281.838C181.419 281.372 180.365 280.693 179.46 279.801C178.568 278.896 177.863 277.777 177.346 276.445C176.828 275.113 176.57 273.568 176.57 271.809C176.57 270.452 176.79 269.171 177.229 267.969C177.682 266.766 178.329 265.719 179.169 264.826C180.01 263.934 181.031 263.229 182.234 262.712C183.437 262.182 184.794 261.917 186.307 261.917C187.588 261.917 188.764 262.124 189.838 262.537C190.924 262.938 191.855 263.527 192.631 264.303C193.42 265.079 194.028 266.035 194.454 267.173C194.894 268.298 195.114 269.585 195.114 271.034C195.114 271.434 195.094 271.764 195.056 272.023C195.017 272.281 194.952 272.488 194.862 272.644C194.771 272.799 194.648 272.909 194.493 272.973C194.338 273.025 194.137 273.051 193.892 273.051H181.904ZM203.828 253.304V282.226H198.475V253.304H203.828ZM213.795 262.227V282.226H208.441V262.227H213.795ZM214.435 256.544C214.435 256.996 214.345 257.417 214.164 257.804C213.983 258.192 213.737 258.535 213.426 258.833C213.129 259.13 212.773 259.363 212.36 259.531C211.959 259.699 211.526 259.783 211.06 259.783C210.62 259.783 210.2 259.699 209.799 259.531C209.411 259.363 209.068 259.13 208.771 258.833C208.474 258.535 208.234 258.192 208.053 257.804C207.885 257.417 207.801 256.996 207.801 256.544C207.801 256.091 207.885 255.671 208.053 255.283C208.234 254.882 208.474 254.533 208.771 254.235C209.068 253.938 209.411 253.705 209.799 253.537C210.2 253.369 210.62 253.285 211.06 253.285C211.526 253.285 211.959 253.369 212.36 253.537C212.773 253.705 213.129 253.938 213.426 254.235C213.737 254.533 213.983 254.882 214.164 255.283C214.345 255.671 214.435 256.091 214.435 256.544ZM236.772 262.227L228.916 282.226H224.067L216.211 262.227H220.653C221.041 262.227 221.364 262.318 221.622 262.499C221.881 262.68 222.062 262.912 222.166 263.197L225.521 273.09C225.741 273.762 225.935 274.422 226.103 275.068C226.271 275.702 226.42 276.342 226.549 276.989C226.692 276.342 226.847 275.702 227.015 275.068C227.196 274.422 227.403 273.762 227.636 273.09L231.108 263.197C231.198 262.912 231.373 262.68 231.632 262.499C231.89 262.318 232.194 262.227 232.543 262.227H236.772ZM251.091 269.87C251.091 269.314 251.013 268.783 250.858 268.279C250.716 267.775 250.483 267.329 250.16 266.941C249.837 266.553 249.429 266.249 248.938 266.029C248.447 265.796 247.858 265.68 247.173 265.68C245.893 265.68 244.89 266.042 244.166 266.766C243.442 267.49 242.97 268.525 242.75 269.87H251.091ZM242.673 273.051C242.841 274.926 243.371 276.297 244.263 277.163C245.168 278.03 246.345 278.463 247.794 278.463C248.531 278.463 249.164 278.379 249.694 278.211C250.238 278.03 250.71 277.836 251.11 277.629C251.524 277.409 251.893 277.215 252.216 277.047C252.552 276.866 252.882 276.775 253.205 276.775C253.619 276.775 253.943 276.93 254.175 277.241L255.727 279.18C255.158 279.84 254.531 280.39 253.846 280.829C253.16 281.256 252.449 281.599 251.712 281.857C250.975 282.103 250.231 282.271 249.481 282.362C248.731 282.465 248.007 282.517 247.309 282.517C245.912 282.517 244.606 282.29 243.39 281.838C242.188 281.372 241.134 280.693 240.229 279.801C239.336 278.896 238.631 277.777 238.114 276.445C237.597 275.113 237.338 273.568 237.338 271.809C237.338 270.452 237.558 269.171 237.998 267.969C238.45 266.766 239.097 265.719 239.938 264.826C240.778 263.934 241.8 263.229 243.002 262.712C244.205 262.182 245.563 261.917 247.076 261.917C248.356 261.917 249.533 262.124 250.606 262.537C251.692 262.938 252.623 263.527 253.399 264.303C254.188 265.079 254.796 266.035 255.223 267.173C255.662 268.298 255.882 269.585 255.882 271.034C255.882 271.434 255.863 271.764 255.824 272.023C255.785 272.281 255.721 272.488 255.63 272.644C255.54 272.799 255.417 272.909 255.262 272.973C255.106 273.025 254.906 273.051 254.66 273.051H242.673ZM264.228 265.525C264.862 264.387 265.593 263.488 266.42 262.828C267.248 262.169 268.218 261.839 269.33 261.839C270.235 261.839 270.972 262.053 271.541 262.479L271.192 266.436C271.127 266.695 271.024 266.876 270.882 266.979C270.752 267.07 270.571 267.115 270.338 267.115C270.132 267.115 269.834 267.089 269.446 267.038C269.058 266.973 268.696 266.941 268.36 266.941C267.869 266.941 267.429 267.012 267.041 267.154C266.666 267.296 266.33 267.497 266.032 267.755C265.735 268.014 265.463 268.331 265.218 268.706C264.985 269.081 264.765 269.508 264.558 269.986V282.226H259.204V262.227H262.366C262.909 262.227 263.284 262.324 263.491 262.518C263.698 262.712 263.847 263.048 263.937 263.527L264.228 265.525ZM292.372 262.227L281.587 287.599C281.419 287.961 281.212 288.233 280.966 288.414C280.734 288.595 280.359 288.685 279.841 288.685H275.865L279.647 280.616L271.617 262.227H276.311C276.738 262.227 277.068 262.324 277.3 262.518C277.533 262.712 277.701 262.938 277.805 263.197L281.607 272.76C281.749 273.135 281.872 273.516 281.975 273.904C282.091 274.279 282.201 274.654 282.305 275.029C282.538 274.266 282.803 273.503 283.1 272.74L286.63 263.197C286.734 262.912 286.921 262.68 287.193 262.499C287.465 262.318 287.762 262.227 288.085 262.227H292.372Z" fill="#F5FAFF"/>
</svg>
