<svg width="379" height="379" viewBox="0 0 379 379" fill="none" xmlns="http://www.w3.org/2000/svg">
<rect x="0.125244" y="0.303955" width="378.153" height="378.153" rx="189.076" fill="#FFB800"/>
<path d="M135.502 143.858H123.33V178.566H114.689V143.858H102.517V136.911H135.502V143.858ZM147.452 148.968V178.566H139.529V148.968H147.452ZM148.4 140.557C148.4 141.227 148.266 141.849 147.998 142.423C147.73 142.997 147.366 143.504 146.907 143.944C146.467 144.385 145.94 144.729 145.328 144.978C144.735 145.227 144.094 145.351 143.405 145.351C142.754 145.351 142.132 145.227 141.539 144.978C140.964 144.729 140.457 144.385 140.017 143.944C139.577 143.504 139.223 142.997 138.955 142.423C138.706 141.849 138.582 141.227 138.582 140.557C138.582 139.887 138.706 139.265 138.955 138.691C139.223 138.097 139.577 137.581 140.017 137.141C140.457 136.7 140.964 136.356 141.539 136.107C142.132 135.858 142.754 135.734 143.405 135.734C144.094 135.734 144.735 135.858 145.328 136.107C145.94 136.356 146.467 136.7 146.907 137.141C147.366 137.581 147.73 138.097 147.998 138.691C148.266 139.265 148.4 139.887 148.4 140.557ZM154.214 178.566V148.968H159.095C160.09 148.968 160.75 149.428 161.075 150.346L161.535 152.27C162.051 151.734 162.578 151.236 163.114 150.777C163.669 150.318 164.262 149.925 164.894 149.6C165.525 149.255 166.205 148.987 166.932 148.796C167.678 148.605 168.482 148.509 169.343 148.509C171.162 148.509 172.664 148.997 173.851 149.973C175.037 150.93 175.937 152.212 176.549 153.82C177.028 152.882 177.611 152.078 178.3 151.408C179.008 150.719 179.774 150.164 180.597 149.743C181.439 149.322 182.319 149.016 183.238 148.825C184.176 148.614 185.114 148.509 186.052 148.509C187.717 148.509 189.19 148.758 190.473 149.255C191.755 149.753 192.827 150.49 193.688 151.466C194.568 152.423 195.238 153.6 195.697 154.997C196.157 156.394 196.386 157.983 196.386 159.763V178.566H188.463V159.763C188.463 156.298 186.98 154.566 184.013 154.566C183.343 154.566 182.721 154.681 182.147 154.911C181.592 155.121 181.095 155.447 180.654 155.887C180.233 156.327 179.898 156.873 179.65 157.523C179.42 158.174 179.305 158.92 179.305 159.763V178.566H171.382V159.763C171.382 157.887 171.008 156.557 170.262 155.772C169.535 154.968 168.453 154.566 167.018 154.566C166.099 154.566 165.229 154.786 164.406 155.227C163.602 155.648 162.846 156.241 162.138 157.007V178.566H154.214ZM221.434 160.279C221.434 159.456 221.32 158.672 221.09 157.925C220.879 157.179 220.535 156.519 220.056 155.944C219.578 155.37 218.975 154.92 218.248 154.595C217.52 154.251 216.65 154.078 215.635 154.078C213.741 154.078 212.257 154.614 211.186 155.686C210.114 156.758 209.415 158.289 209.09 160.279H221.434ZM208.975 164.987C209.224 167.763 210.008 169.791 211.329 171.074C212.669 172.356 214.41 172.997 216.554 172.997C217.645 172.997 218.583 172.873 219.367 172.624C220.171 172.356 220.87 172.069 221.463 171.763C222.075 171.437 222.621 171.15 223.099 170.901C223.597 170.633 224.085 170.499 224.564 170.499C225.176 170.499 225.654 170.729 225.999 171.188L228.296 174.059C227.453 175.035 226.525 175.849 225.511 176.499C224.497 177.131 223.444 177.638 222.353 178.021C221.262 178.385 220.162 178.633 219.052 178.767C217.942 178.92 216.87 178.997 215.836 178.997C213.769 178.997 211.836 178.662 210.037 177.992C208.257 177.303 206.697 176.298 205.358 174.978C204.037 173.638 202.994 171.983 202.229 170.011C201.463 168.04 201.08 165.753 201.08 163.15C201.08 161.141 201.406 159.246 202.056 157.466C202.726 155.686 203.683 154.136 204.927 152.815C206.171 151.495 207.683 150.452 209.463 149.686C211.243 148.901 213.253 148.509 215.492 148.509C217.386 148.509 219.128 148.815 220.717 149.428C222.324 150.021 223.702 150.892 224.851 152.04C226.018 153.188 226.918 154.605 227.549 156.289C228.2 157.954 228.525 159.858 228.525 162.002C228.525 162.595 228.497 163.083 228.439 163.466C228.382 163.849 228.286 164.155 228.152 164.385C228.018 164.614 227.836 164.777 227.607 164.873C227.377 164.949 227.08 164.987 226.717 164.987H208.975ZM241.423 135.763V178.566H233.499V135.763H241.423ZM275.465 148.968L259.504 186.519C259.255 187.054 258.949 187.456 258.585 187.724C258.24 187.992 257.685 188.126 256.92 188.126H251.035L256.633 176.184L244.748 148.968H251.695C252.327 148.968 252.815 149.112 253.159 149.399C253.504 149.686 253.752 150.021 253.906 150.404L259.532 164.557C259.743 165.112 259.925 165.676 260.078 166.251C260.25 166.806 260.413 167.361 260.566 167.916C260.91 166.786 261.303 165.657 261.743 164.528L266.968 150.404C267.121 149.983 267.398 149.638 267.8 149.37C268.202 149.102 268.642 148.968 269.121 148.968H275.465Z" fill="#1D2F71"/>
<path d="M144.324 238.143C144.324 240.199 143.975 242.094 143.277 243.827C142.591 245.547 141.615 247.027 140.348 248.269C139.093 249.51 137.58 250.48 135.809 251.178C134.037 251.877 132.072 252.226 129.912 252.226H119.088V224.08H129.912C132.072 224.08 134.037 224.429 135.809 225.128C137.58 225.826 139.093 226.802 140.348 228.057C141.615 229.298 142.591 230.779 143.277 232.499C143.975 234.219 144.324 236.1 144.324 238.143ZM138.35 238.143C138.35 236.669 138.156 235.344 137.768 234.167C137.38 232.99 136.824 231.994 136.1 231.18C135.376 230.365 134.49 229.738 133.442 229.298C132.408 228.858 131.231 228.639 129.912 228.639H124.946V247.667H129.912C131.231 247.667 132.408 247.454 133.442 247.027C134.49 246.588 135.376 245.96 136.1 245.146C136.824 244.318 137.38 243.316 137.768 242.139C138.156 240.962 138.35 239.63 138.35 238.143ZM160.323 239.87C160.323 239.314 160.245 238.783 160.09 238.279C159.948 237.775 159.715 237.329 159.392 236.941C159.068 236.553 158.661 236.249 158.169 236.029C157.678 235.796 157.09 235.68 156.404 235.68C155.124 235.68 154.122 236.042 153.398 236.766C152.674 237.49 152.202 238.525 151.982 239.87H160.323ZM151.904 243.051C152.072 244.926 152.602 246.297 153.495 247.163C154.4 248.03 155.577 248.463 157.025 248.463C157.762 248.463 158.396 248.379 158.926 248.211C159.469 248.03 159.941 247.836 160.342 247.629C160.756 247.409 161.124 247.215 161.448 247.047C161.784 246.866 162.114 246.775 162.437 246.775C162.851 246.775 163.174 246.93 163.407 247.241L164.959 249.18C164.39 249.84 163.762 250.39 163.077 250.829C162.392 251.256 161.68 251.599 160.943 251.857C160.206 252.103 159.463 252.271 158.713 252.362C157.963 252.465 157.238 252.517 156.54 252.517C155.143 252.517 153.837 252.29 152.622 251.838C151.419 251.372 150.365 250.693 149.46 249.801C148.568 248.896 147.863 247.777 147.346 246.445C146.828 245.113 146.57 243.568 146.57 241.809C146.57 240.452 146.79 239.171 147.229 237.969C147.682 236.766 148.329 235.719 149.169 234.826C150.01 233.934 151.031 233.229 152.234 232.712C153.437 232.182 154.794 231.917 156.307 231.917C157.588 231.917 158.764 232.124 159.838 232.537C160.924 232.938 161.855 233.527 162.631 234.303C163.42 235.079 164.028 236.035 164.454 237.173C164.894 238.298 165.114 239.585 165.114 241.034C165.114 241.434 165.094 241.764 165.056 242.023C165.017 242.281 164.952 242.488 164.862 242.644C164.771 242.799 164.648 242.909 164.493 242.973C164.338 243.025 164.137 243.051 163.892 243.051H151.904ZM173.828 223.304V252.226H168.475V223.304H173.828ZM183.795 232.227V252.226H178.441V232.227H183.795ZM184.435 226.544C184.435 226.996 184.345 227.417 184.164 227.804C183.983 228.192 183.737 228.535 183.426 228.833C183.129 229.13 182.773 229.363 182.36 229.531C181.959 229.699 181.526 229.783 181.06 229.783C180.62 229.783 180.2 229.699 179.799 229.531C179.411 229.363 179.068 229.13 178.771 228.833C178.474 228.535 178.234 228.192 178.053 227.804C177.885 227.417 177.801 226.996 177.801 226.544C177.801 226.091 177.885 225.671 178.053 225.283C178.234 224.882 178.474 224.533 178.771 224.235C179.068 223.938 179.411 223.705 179.799 223.537C180.2 223.369 180.62 223.285 181.06 223.285C181.526 223.285 181.959 223.369 182.36 223.537C182.773 223.705 183.129 223.938 183.426 224.235C183.737 224.533 183.983 224.882 184.164 225.283C184.345 225.671 184.435 226.091 184.435 226.544ZM206.772 232.227L198.916 252.226H194.067L186.211 232.227H190.653C191.041 232.227 191.364 232.318 191.622 232.499C191.881 232.68 192.062 232.912 192.166 233.197L195.521 243.09C195.741 243.762 195.935 244.422 196.103 245.068C196.271 245.702 196.42 246.342 196.549 246.989C196.692 246.342 196.847 245.702 197.015 245.068C197.196 244.422 197.403 243.762 197.636 243.09L201.108 233.197C201.198 232.912 201.373 232.68 201.632 232.499C201.89 232.318 202.194 232.227 202.543 232.227H206.772ZM221.091 239.87C221.091 239.314 221.013 238.783 220.858 238.279C220.716 237.775 220.483 237.329 220.16 236.941C219.837 236.553 219.429 236.249 218.938 236.029C218.447 235.796 217.858 235.68 217.173 235.68C215.893 235.68 214.89 236.042 214.166 236.766C213.442 237.49 212.97 238.525 212.75 239.87H221.091ZM212.673 243.051C212.841 244.926 213.371 246.297 214.263 247.163C215.168 248.03 216.345 248.463 217.794 248.463C218.531 248.463 219.164 248.379 219.694 248.211C220.238 248.03 220.71 247.836 221.11 247.629C221.524 247.409 221.893 247.215 222.216 247.047C222.552 246.866 222.882 246.775 223.205 246.775C223.619 246.775 223.943 246.93 224.175 247.241L225.727 249.18C225.158 249.84 224.531 250.39 223.846 250.829C223.16 251.256 222.449 251.599 221.712 251.857C220.975 252.103 220.231 252.271 219.481 252.362C218.731 252.465 218.007 252.517 217.309 252.517C215.912 252.517 214.606 252.29 213.39 251.838C212.188 251.372 211.134 250.693 210.229 249.801C209.336 248.896 208.631 247.777 208.114 246.445C207.597 245.113 207.338 243.568 207.338 241.809C207.338 240.452 207.558 239.171 207.998 237.969C208.45 236.766 209.097 235.719 209.938 234.826C210.778 233.934 211.8 233.229 213.002 232.712C214.205 232.182 215.563 231.917 217.076 231.917C218.356 231.917 219.533 232.124 220.606 232.537C221.692 232.938 222.623 233.527 223.399 234.303C224.188 235.079 224.796 236.035 225.223 237.173C225.662 238.298 225.882 239.585 225.882 241.034C225.882 241.434 225.863 241.764 225.824 242.023C225.785 242.281 225.721 242.488 225.63 242.644C225.54 242.799 225.417 242.909 225.262 242.973C225.106 243.025 224.906 243.051 224.66 243.051H212.673ZM234.228 235.525C234.862 234.387 235.593 233.488 236.42 232.828C237.248 232.169 238.218 231.839 239.33 231.839C240.235 231.839 240.972 232.053 241.541 232.479L241.192 236.436C241.127 236.695 241.024 236.876 240.882 236.979C240.752 237.07 240.571 237.115 240.338 237.115C240.132 237.115 239.834 237.089 239.446 237.038C239.058 236.973 238.696 236.941 238.36 236.941C237.869 236.941 237.429 237.012 237.041 237.154C236.666 237.296 236.33 237.497 236.032 237.755C235.735 238.014 235.463 238.331 235.218 238.706C234.985 239.081 234.765 239.508 234.558 239.986V252.226H229.204V232.227H232.366C232.909 232.227 233.284 232.324 233.491 232.518C233.698 232.712 233.847 233.048 233.937 233.527L234.228 235.525ZM262.372 232.227L251.587 257.599C251.419 257.961 251.212 258.233 250.966 258.414C250.734 258.595 250.359 258.685 249.841 258.685H245.865L249.647 250.616L241.617 232.227H246.311C246.738 232.227 247.068 232.324 247.3 232.518C247.533 232.712 247.701 232.938 247.805 233.197L251.607 242.76C251.749 243.135 251.872 243.516 251.975 243.904C252.091 244.279 252.201 244.654 252.305 245.029C252.538 244.266 252.803 243.503 253.1 242.74L256.63 233.197C256.734 232.912 256.921 232.68 257.193 232.499C257.465 232.318 257.762 232.227 258.085 232.227H262.372Z" fill="#F5FAFF"/>
</svg>
