<svg width="500" height="500" viewBox="0 0 500 500" fill="none" xmlns="http://www.w3.org/2000/svg">
<path d="M417.714 315.4C413.224 315.262 412.282 315.541 412.621 320.097C416.303 320.886 421.977 315.53 417.714 315.4Z" fill="#31458D"/>
<path d="M454.181 300.339C450.108 304.77 456.42 306.481 454.586 309.754C453.203 312.223 448.889 313.318 447.135 315.82C446.379 316.898 446.72 318.38 445.776 319.354C444.403 320.771 442.717 320.391 441.101 321.327C438.932 322.584 435.892 325.62 435.999 328.027C439.445 328.809 442.669 324.85 444.666 322.536C447.29 319.497 448.234 318.986 451.802 317.49C455.475 315.951 463.542 309.6 457.093 305.8C461.053 303.409 456.963 297.313 454.181 300.339Z" fill="#31458D"/>
<path d="M51.0212 114.384C48.6482 114.024 45.5682 116.895 48.4292 118.312C45.3722 121.374 50.5402 121.31 51.4822 122.609C53.6992 125.668 48.1902 124.49 46.8122 124.912C44.5892 125.592 44.1012 128.1 42.3312 129.866C41.3342 130.861 40.3842 129.668 40.4952 131.753C40.5902 133.536 41.7462 133.49 43.3512 133.372C43.7122 136.076 47.4032 138.077 45.7642 140.509C44.8202 141.909 41.8402 143.868 40.5232 145.116C45.0812 147.388 49.4732 139.046 53.3332 138.654C54.3792 138.548 55.1502 138.733 56.2282 138.332C57.3032 137.933 58.0562 136.783 59.4582 136.739C61.9692 136.661 63.2482 138.076 64.9652 139.325C66.2262 140.243 67.7552 140.633 68.9112 141.739C70.4332 143.195 70.8472 145.12 72.0772 146.772C73.0692 148.105 73.4772 147.46 73.9192 149.122C74.2192 150.249 73.4632 151.595 73.5842 152.543C73.8032 154.263 76.8912 156.718 75.5042 158.338C74.7562 159.211 69.3562 158.41 70.8022 161.233C71.5302 162.655 75.4692 161.238 76.8282 162.268C77.7022 162.931 80.0202 166.314 80.2032 167.235C79.1172 167.454 77.9542 167.171 77.0652 166.788C75.2342 169.921 78.2672 169.373 78.9272 171.222C79.7522 173.533 76.3072 175.525 75.6922 177.544C75.0532 179.644 73.4512 190.442 76.5072 190.222C76.9472 191.315 76.5142 192.49 76.8752 193.597C77.3882 195.174 78.1892 195.202 79.3902 196.287C81.7822 198.448 80.9732 200.432 81.5462 203.348C82.3592 207.484 83.7762 216.351 89.6782 215.394C88.9402 213.872 87.5262 212.737 86.8752 210.908C86.3272 209.367 85.9792 207.354 86.0672 205.728C88.2092 206.127 88.2552 207.017 89.1852 208.86C90.1022 210.678 91.7972 211.897 92.6712 213.597C94.4902 217.136 92.0372 220.699 97.3432 221.755C97.1092 222.032 97.0292 221.984 97.1072 222.507C98.1382 223.001 98.6322 223.856 99.4482 224.708C101.097 226.431 100.535 225.989 102.607 226.17C103.745 226.269 104.144 226.044 105.496 226.427C107.007 226.855 108.878 227.531 110.252 228.276C112.365 229.421 113.832 231.221 115.781 232.743C117.714 234.253 119.665 234.577 121.555 235.77C124.249 237.471 122.889 239.256 126.761 238.138C128.463 237.646 131.224 236.35 131.885 239.119C132.252 240.659 129.727 243.665 128.662 245.178C127.06 247.453 124.144 248.838 123.451 251.699C122.708 254.765 124.019 256.929 125.233 259.39C126.2 261.35 126.681 265.074 127.794 266.574C129.563 268.957 133.64 268.283 135.503 270.706C136.309 271.754 136.977 273.188 137.662 274.318C139.124 276.731 138.634 276.699 137.873 279.654C137.094 282.677 137.79 286.509 138.078 289.641C138.456 293.75 138.321 297.93 138.662 302.01C138.98 305.816 139.491 308.352 138.466 311.96C137.672 314.752 137.392 318.435 138.195 321.294C139.263 325.094 141.348 325.765 144.261 327.822C146.527 329.422 147.391 331.962 150.242 332.886C152.657 333.669 155.285 332.597 154.125 329.978C153.039 327.527 150.215 327.711 149.717 324.879C149.039 321.03 151.399 316.782 152.092 313.142C152.637 310.28 152.507 307.419 154.252 304.99C155.498 303.255 157.411 302.787 158.992 301.555C160.322 300.52 161.266 299.009 162.363 297.601C164.324 295.084 166.204 292.235 167.612 289.331C169.151 286.156 170.405 283.667 173.732 281.95C176.427 280.559 179.688 279.881 181.362 277.284C182.747 275.135 182.522 272.731 182.293 270.441C182.003 267.528 182.522 266.51 184.391 264.388C187.749 260.576 188.369 254.489 182.607 252.349C179.927 251.354 178.112 251.616 176.033 249.137C173.186 245.742 171.685 242.168 167.546 240.113C165.096 238.897 162.08 238.428 159.454 237.531C156.576 236.548 155.684 234.697 153.139 233.079C150.912 231.663 149.219 232.306 146.63 232.032C143.835 231.737 139.794 229.655 137.085 230.158C134.041 230.722 132.92 234.197 129.453 234.066C126.232 233.944 122.552 233.742 122.927 229.914C123.069 228.464 124.629 226.881 122.624 225.691C121.332 224.924 119.454 226.285 118.188 224.861C115.099 221.387 122.179 218.382 113.925 217.544C111.931 221.11 108.486 222.355 105.504 218.597C102.769 215.15 105.261 210.18 107.88 207.045C110.044 208.231 113.507 207.089 115.813 207.28C119.535 207.588 119.847 207.859 122.274 210.447C123.71 211.978 125.865 214.131 127.544 211.496C129.154 208.968 126.109 206.491 126.861 203.923C127.712 201.017 131.597 198.922 133.926 197.478C136.988 195.579 138.051 192.789 139.708 189.648C140.78 187.615 143.589 183.988 146.032 183.385C147.71 182.971 150.58 183.717 152.612 183.857C156.112 184.099 157.849 182.915 157.572 179.424C156.22 179.504 153.49 179.503 152.335 178.819C150.427 177.688 150.819 175.344 150.198 173.633C149.947 173.573 149.727 173.612 149.475 173.555C150.758 171.187 156.449 170.281 156.336 174.08C158.094 174.179 159.703 173.299 161.532 173.37C160.896 174.988 158.772 176.127 158.967 178.021C161.784 179.055 165.483 178.757 166.566 175.771C167.959 171.928 162.566 171.637 164.717 168.33C166.543 165.523 162.322 156.953 158.197 159.887C157.742 157.799 154.405 148.966 151.347 150.751C149.869 151.614 150.98 154.719 148.387 152.604C146.824 151.329 147.607 148.217 145.972 146.736C143.652 144.633 143.515 146.644 143.136 148.854C142.689 151.458 142.379 154.094 142.084 156.748C141.885 158.54 141.524 161.674 139.635 162.756C138.083 163.645 136.602 162.331 135.031 162.04C134.57 163.912 134.509 166.391 132.141 164.651C130.603 163.521 129.597 159.762 128.392 158.258C126.391 155.763 125.572 152.238 127.147 148.895C128.168 146.729 131.289 145.771 131.069 143.105C132.132 142.955 134.112 143.007 135.054 143.514C135.993 144.019 136.285 145.201 137.077 145.497C140.159 146.65 141.928 142.876 140.838 140.42C139.718 137.898 138.42 137.303 141.616 134.966C143.464 133.614 147.552 133.319 146.322 130.151C149.048 129.25 153.964 131.02 152.819 134.854C152.449 136.091 150.17 136.736 149.768 138.328C149.369 139.907 149.933 140.757 151.031 141.763C152.253 142.882 153.986 142.852 154.933 144.434C155.892 146.035 154.839 147.499 157.341 147.54C161.5 147.607 160.23 140.68 158.684 138.587C161.02 136.872 163.527 139.098 164.452 135.499C165.31 132.161 161.652 130.391 160.184 127.861C158.734 125.363 158.468 123.322 157.874 120.632C157.342 118.224 155.491 116.345 153.143 115.171C149.748 113.474 140.287 113.604 141.031 119.381C141.234 120.956 142.483 120.803 142.95 121.942C143.613 123.56 142.6 124.468 141.871 125.775C140.803 127.688 139.73 130.092 137.083 129.644C134.917 129.278 135.978 128.969 135.188 127.203C134.709 126.13 133.665 124.957 133.458 123.867C133.032 121.624 135.631 117.934 137.537 116.934C139.901 115.694 141.797 116.671 141.366 112.795C140.896 108.572 136.8 111.818 133.911 109.868C131.722 112.201 131.208 112.56 131.498 115.492C131.718 117.726 132.186 120.377 131.358 122.544C130.689 124.293 128.585 126.492 126.826 127.223C124.54 128.173 122.939 126.578 120.8 125.914C120.825 124.016 131.857 121.131 124.49 119.078C123.801 115.556 128.831 115.389 129.662 112.999C130.444 110.75 125.823 109.48 123.924 109.103C122.401 108.801 120.774 109.451 119.51 109.335C117.225 109.125 117.597 109.015 116.622 106.735C115.074 103.117 114.166 103.5 111.825 105.945C109.677 108.189 107.022 108.602 107.608 112.222C108.168 115.681 111.82 115.425 112.614 118.341C113.355 121.061 111.905 122.494 109.463 122.538C104.708 122.623 105.205 119.309 103.461 116.414C102.119 114.186 98.5642 115.398 95.8232 115.169C93.4552 114.972 90.1742 114.162 88.9932 116.918C86.9812 115.369 85.7462 113.222 83.9212 111.471C83.0272 110.613 82.1672 109.341 81.2942 108.577C80.1642 107.587 78.6222 107.563 77.4662 106.695C75.9382 105.548 75.4782 101.587 74.1312 101.011C73.0692 100.557 68.7352 103.314 67.0782 103.589C64.7512 103.976 61.5792 103.853 59.5052 105.227C58.4592 105.92 57.0562 107.565 56.5392 108.66C55.4892 110.882 56.3802 109.977 56.8862 112.002C57.2992 113.655 56.8172 117.012 54.1832 116.687C51.7522 116.387 52.2612 113.101 48.9202 115.431" fill="#31458D"/>
<path d="M145.236 89.9103C143.51 89.3393 141.053 88.4193 139.762 89.9633C138.038 92.0263 140.211 92.0983 140.504 93.3253C141.31 96.6973 138.454 95.4783 137.27 97.8653C135.84 100.748 141.486 102.095 138.4 102.804C136.013 103.352 133.863 99.4563 131.545 100.693C128.293 102.429 132.754 106.11 134.979 106.429C136.362 106.627 137.533 106.571 138.721 106.95C139.951 107.342 140.005 108.34 141.743 108.087C143.186 107.877 145.709 106.059 145.97 104.574C146.364 102.334 144.358 102.673 143.972 101.7C143.458 100.404 143.014 100.04 144.761 99.9053C147.081 99.7263 148.025 102.677 148.4 104.455C149.153 108.032 147.642 106.786 145.769 108.602C143.616 110.69 146.093 110.54 148.34 111.154C150.145 111.647 151.953 113.092 153.92 112.547C155.823 112.02 157.609 108.958 154.481 108.811C154.786 107.724 155.889 106.815 156.722 105.949C154.754 105.979 150.03 104.51 150.277 102.054C154.629 101.138 159.438 106.806 163.384 105.388C167.559 103.888 167.563 101.106 168.454 97.8033C169.186 95.0883 173.559 91.4713 176.514 91.7903C176.344 93.7993 176.83 95.4993 175.166 97.0113C173.545 98.4843 170.636 98.0703 169.423 100.434C170.804 101.792 168.984 102.908 167.81 103.658C165.871 104.896 164.749 104.748 165.238 107.541C165.942 111.565 170.31 110.033 172.607 112.922C174.93 115.844 174.302 119.09 174.783 122.279C175.357 126.079 174.219 128.239 172.114 131.278C173.05 132.592 175.371 132.693 176.58 133.859C175.382 135.166 171.268 137.25 170.747 138.857C170.145 140.713 172.48 144.071 172.877 145.977C173.361 148.301 173.915 149.944 175.292 151.944C176.278 153.375 179.18 156.307 180.515 155.521C183.029 154.039 182.699 148.332 183.859 146.162C185.534 143.029 189.609 142.522 192.556 141.219C196.54 139.457 200.068 137.58 203.083 134.37C205.763 131.517 205.011 129.983 206.222 126.693C207.534 123.13 212.9 122.498 212.089 117.585C211.876 116.293 210.627 115.418 210.761 114.119C210.949 112.306 213.172 111.388 214.452 110.493C217.521 108.345 219.334 104.038 219.721 99.9613C219.812 99.0023 220.281 96.7763 219.938 95.9553C219.553 95.0333 216.378 94.6823 218.898 93.3423C218.285 92.0973 216.514 92.5263 215.175 92.5393C214.351 92.5473 213.025 92.2723 212.268 92.5923C211.814 92.7843 210.694 94.1153 210.576 94.1363C208.432 94.5183 206.437 91.2763 203.946 91.6953C205.974 89.8583 210.489 91.2643 211.57 88.8673C213.168 85.3223 207.496 83.5753 205.03 83.5903C200.982 83.6143 199.397 85.4223 196.293 87.8013C194.765 88.9723 194.468 88.5413 192.871 89.1173C191.562 89.5893 190.538 89.0693 190.989 91.1833C187.041 91.7423 188.784 89.6063 186.561 88.0603C184.402 86.5583 181.872 89.3513 180.015 89.6043C179.03 85.7753 187.012 82.2653 179.917 81.4863C177.713 81.2443 176.233 80.1263 174.186 79.6313C171.777 79.0483 168.759 80.5243 166.542 81.2373C164.904 81.7643 161.642 82.5043 161.022 84.1183C160.662 85.0563 161.39 86.1473 161.303 87.0183C161.215 87.8943 160.236 88.0683 160.482 89.1313C161.049 91.5853 164.638 91.6683 160.232 93.2623C157.675 94.1883 157.248 92.9243 155.014 92.7623C155.029 91.5213 156.009 87.8393 155.25 86.7363C153.531 84.2393 151.48 87.5913 151.027 89.1173C150.445 91.0773 151.002 93.4233 150.447 95.3813C150.017 96.8983 147.094 100.331 151.249 100.209C152.174 104.552 144.736 99.9533 144.967 97.0123C145.069 95.7123 147.268 93.2733 146.834 92.0053C146.397 90.7273 144.085 90.6763 143.131 89.3803C143.784 89.1273 144.509 89.9993 145.236 89.9103Z" fill="#31458D"/>
<path d="M269.47 140.6C269.073 140.659 268.737 140.556 268.339 140.661C267.084 145.902 272.185 147.556 274.166 142.582C275.11 140.211 272.933 133.391 277.397 132.644C280.361 132.148 281.468 137.632 285.633 136.953C287.493 136.65 289.166 135.176 290.874 134.654C292.833 134.055 295.113 134.077 297.164 133.396C296.632 130.449 286.758 128.985 283.809 128.254C282.509 124.038 283.52 120.183 284.138 115.938C285.081 109.458 290.347 110.012 294.867 106.254C295.519 110.353 289.804 112.513 287.616 115.211C284.547 118.995 285.391 119.789 288.198 123.138C290.321 125.671 291.862 126.32 294.144 128.213C294.971 128.899 295.174 130.373 296.009 131.094C296.841 131.812 299.338 132.247 300.328 132.621C300.577 129.443 300.676 128.49 300.004 125.625C299.573 123.786 298.668 121.141 298.467 118.858C303.38 117.719 305.045 125.627 305.54 129.104C306.269 134.214 303.244 138.73 311.019 137.764C313.144 133.266 307.624 128.285 306.632 124.347C304.67 116.558 310.876 123.206 314.199 123.098C313.814 120.965 312.213 119.405 311.397 117.3C309.764 113.086 311.414 115.991 312.99 112.376C313.412 111.408 312.378 109.923 312.644 109.275C313.092 108.184 313.956 108.164 314.576 107.213C316.385 104.438 317.709 104.367 320.542 102.875C321.899 99.0598 321.276 97.7628 325.338 95.8398C326.986 97.6638 328.946 99.8588 331.303 100.661C332.392 101.032 335.177 100.384 335.979 101.042C336.873 101.775 337.224 105.112 337.16 106.212C337.11 107.075 335.871 109.565 335.962 109.981C336.813 113.864 341.993 111.654 344.817 109.769C346.664 108.536 344.886 108.236 348.04 107.7C350.606 107.264 353.018 108.679 355.431 108.828C355.248 108.059 355.714 106.939 355.542 106.175C360.639 105.206 359.388 112.005 363.004 112.466C367.917 113.092 364.414 106.56 364.271 104.995C366.176 103.475 368.809 103.3 370.852 101.902C374.026 104.512 378.144 101.554 381.582 103.014C381.288 104.508 381.809 105.39 382.546 106.452C386.652 104.718 389.027 103.09 393.546 103.726C395.704 104.03 397.971 103.647 399.855 103.739C402.38 103.862 403.296 104.761 405.741 105.68C406.171 101.755 405.358 99.7878 410.577 100.258C413.871 100.555 415.782 103.335 418.844 103.686C418.557 99.0358 426.675 100.944 428.801 102.14C432.682 104.322 433.13 110.161 428.079 110.139C427.404 113.943 427.704 114.71 428.913 118.403C429.634 120.606 430.479 125.311 426.503 125.192C426.302 127.688 424.951 128.436 423.671 130.294C422.042 132.657 422.031 132.581 421.678 135.447C421.294 138.561 421.607 140.595 422.57 143.762C423.718 147.541 423.121 149.708 421.776 153.305C421.04 155.273 420.324 161.617 418.884 161.538C412.554 161.191 415.538 143.182 414.961 139.79C414.843 139.096 413.44 139.045 413.328 138.242C413.178 137.173 414.449 136.796 414.464 135.845C414.482 134.641 415.128 131.746 414.484 130.693C412.134 126.848 407.797 129.789 407.409 133.07C406.944 137.006 409.764 137.524 405.427 138.619C402.39 139.386 400.806 138.173 398.193 140.097C394.982 142.462 388.922 148.853 392.24 152.976C393.691 154.779 399.022 154.523 401.464 155.969C404.892 158 404.279 158.894 406.211 162.303C407.122 163.912 411.166 168.699 406.626 169.146C403.83 169.422 402.938 164.046 400.73 162.828C400.402 168.683 405.802 179.674 412.561 174.648C418.473 178.627 410.202 181.266 406.678 180.693C406.755 185.407 412.831 187.694 409.5 193.028C407.789 195.768 400.352 201.619 397.949 198.796C398.533 197.068 402.074 193.431 403.536 191.731C406.357 188.45 407.462 189.668 405.418 185.874C404.855 184.829 401.231 181.557 401.429 180.634C401.792 178.94 406.098 178.386 406.973 176.243C403.783 175.555 400.22 175.375 399.086 171.677C397.33 173.849 397.284 178.844 398.659 181.057C395.383 182.367 387.455 179.545 389.961 186.577C391.147 189.902 395.109 189.956 396.26 194.029C391.496 195.436 391.982 196.997 388.285 192.612C386.108 190.03 385.688 186.199 381.645 186.975C379.372 187.411 379.54 187.372 378.772 189.75C377.764 192.87 378.303 192.212 380.368 194.208C383.38 197.118 386.793 199.923 389.215 203.624C388.212 205.297 387.989 207.753 386.72 209.195C385.941 210.08 384.278 210.298 383.628 211.046C382.455 212.396 382.671 212.389 382.132 213.533C381.303 215.293 383.384 216.323 379.664 217.11C377.31 217.608 375.316 215.998 372.986 216.368C372.771 218.659 375.054 222.93 373.31 224.243C371.199 225.833 367.182 222.693 366.169 220.807C365.285 225.474 370.175 225.028 371.261 228.596C372.766 233.546 366.617 233.035 363.809 231.321C360.506 229.305 358.048 224.934 354.607 222.739C351.328 220.648 348.895 217.037 345.181 218.988C343.134 220.063 340.025 223.006 338.939 225.02C338.109 226.559 338.465 228.195 337.669 229.806C336.695 231.778 335.381 232.477 334.875 234.938C334.544 236.547 335.559 238.215 334.09 239.209C331.882 240.703 330.4 238.124 329.305 236.437C326.718 232.45 327.427 227.56 324.975 223.841C322.835 220.595 317.888 220.107 318.563 215.19C314.327 214.215 309.574 213.973 305.544 212.443C302.657 211.347 299.108 207.936 296.03 207.976C290.332 208.048 294.32 212.538 297.219 213.534C300.492 214.659 303.666 213.373 305.542 215.893C308.081 219.305 306.283 223.287 302.77 225.116C300.577 226.257 294.209 228.728 291.691 228.637C285.629 228.42 284.468 216.967 277.856 215.975C277.531 222.019 281.98 229.575 287.71 231.37C290.348 232.196 296.367 230.096 298.438 232.839C300.617 235.725 296.413 239.757 294.454 241.68C291.285 244.791 282.451 247.004 281.051 251.189C280.115 253.988 283.011 257.138 283.742 259.523C284.481 261.933 284.536 266.912 282.584 268.967C280.937 270.7 277.712 270.234 276.192 272.97C274.402 276.192 276.42 278.467 276.213 281.314C275.955 284.838 272.117 287.046 269.861 289.56C267.513 292.178 266.484 293.364 263.131 293.996C261.085 294.382 260.593 293.27 258.763 294.502C257.225 295.538 257.745 297.515 256.811 298.376C248.902 305.671 250.202 289.404 250.051 286.466C249.635 278.374 240.975 273.61 246.079 266.251C248.903 262.179 250.233 260.39 248.565 255.452C247.389 251.967 245.776 251.37 243.326 249.127C241.252 247.229 241.248 243.453 239.25 241.755C237.017 239.859 232.236 240.458 229.44 240.874C224.388 241.626 214.717 241.645 212.298 235.749C211.385 233.522 212.542 230.885 212.008 228.588C211.57 226.705 210.037 225.319 209.602 223.443C208.715 219.623 211.089 213.88 213.08 210.76C214.543 208.467 216.678 206.569 218.45 204.506C219.296 203.521 221.208 200.238 222.395 199.729C224.013 199.035 225.58 200.414 227.085 200.084C229.256 199.608 230.834 197.456 232.998 196.876C235.821 196.118 241.958 197.269 244.194 198.76C247.078 200.683 247.436 203.692 251.241 204.426C252.631 204.694 255.144 204.776 256.495 204.725C259.622 204.608 260.19 203.583 262.747 202.536C266.472 201.01 269.346 201.989 273.041 202.752C276.421 203.45 278.788 202.864 278.984 198.471C279.131 195.159 276.889 191.929 273.943 192.626C271.882 193.114 270.362 196.459 267.473 194.834C265.806 193.897 265.478 189.808 262.844 189.643C257.31 189.297 263.774 199.827 256.78 197.775C251.396 196.195 252.394 189.116 248.089 186.667C239.915 182.018 245.911 192.55 245.63 194.446C240.61 195.225 241.98 192.606 239.656 190.146C237.753 188.131 235.014 188.387 232.312 190.224C229.553 192.1 229.513 194.98 226.279 196.103C223.218 197.166 218.725 197.017 218.738 192.921C218.753 188.046 222.485 188.986 225.088 187.293C229.197 184.62 225.61 181.937 226.754 178.257C227.884 174.622 231.69 172.973 234.968 172.795C236.92 172.689 239.401 173.774 241.349 172.825C242.751 172.142 243.046 170.359 244.503 169.449C246.753 168.045 249.465 168.879 251.557 167.563C253.272 166.485 254.742 163.201 255.619 161.607C256.33 160.315 255.239 160.323 256.789 158.735C257.861 157.636 259.421 157.435 260.744 156.852C263.309 155.721 264.987 155.216 266.648 152.978C264.516 151.014 260.888 155.423 257.998 155.167C255.812 154.973 253.496 154 252.905 151.699C252.28 149.268 255.532 147.221 253.606 145.706C250.135 147.528 249.661 150.656 249.279 154.077C248.871 157.73 250.798 160.673 249.754 163.687C248.781 166.497 245.405 168.33 242.827 166.859C239.231 164.807 244.048 160.536 240.933 158.825C237.937 157.18 232.859 161.934 233.296 155.66C233.547 152.06 238.171 146.736 240.529 144.167C242.046 142.514 244.479 141.014 245.711 139.102C246.783 137.44 246.607 136.27 247.364 134.654C248.869 131.439 250.722 129.89 254.806 130.671C258.36 131.351 262.655 132.283 265.521 134.258C267.329 135.506 274.913 139.787 269.47 140.6Z" fill="#31458D"/>
<path d="M369.357 244.449C369.813 237.883 362.521 238.792 362.162 232.618C361.568 232.495 360.894 232.494 360.3 232.618C359.809 238.292 362.436 237.919 365.293 241.378C366.789 243.189 367.155 248.308 370.485 247.957C370.612 246.327 370.194 245.566 369.357 244.449Z" fill="#31458D"/>
<path d="M359.051 239.297C357.632 239.531 355.861 240.579 355.388 242.072C354.59 244.592 355.307 243.079 356.761 244.748C357.403 245.485 358.762 245.486 359.446 246.434C360.169 247.436 359.521 248.702 360.144 249.701C360.834 250.808 362.109 251.075 362.925 252.102C363.471 252.789 363.986 254.044 364.613 254.755C366.517 256.914 368.115 258.047 371.339 258.719C376.15 259.721 380.935 258.858 385.917 260.395C390.12 261.692 395.406 265.16 399.441 261.485C395.868 260.19 391.275 262.173 387.592 261.098C385.679 260.54 385.711 259.241 383.935 258.424C382.23 257.64 380.649 258.315 378.87 257.927C377.037 257.527 371.531 256.325 370.043 254.865C368.148 253.006 369.511 250.177 366.256 248.742C365.967 244.753 363.792 238.515 359.051 239.297Z" fill="#31458D"/>
<path d="M293.253 264.268C293.018 263.866 293.599 263.513 292.883 263.518C289.421 266.064 288.622 266.861 288.409 270.234C288.347 271.213 289.306 271.984 289.009 273.385C288.758 274.565 286.78 276.147 286.108 277.26C285.432 278.38 282.922 282.378 283.713 283.698C285.263 286.283 289.182 283.345 290.477 281.727C292.371 279.362 292.382 276.051 293.73 273.78C295.249 271.223 299.063 270.161 299.614 267.042C299.812 265.92 298.402 261.577 297.334 260.977C294.249 259.242 294.7 262.053 293.253 264.268Z" fill="#31458D"/>
<path d="M386.797 237.315C384.317 237.797 381.971 240.274 383.181 242.775C380.414 243.751 376.778 243.488 375.204 246.325C373.126 250.07 378.157 252.244 376.542 255.459C382.102 257.867 386.598 252.54 390.275 249.098C393.712 245.881 391.672 246.738 389.572 244.45C387.107 241.766 388.553 242.099 388.719 238.177C387.79 237.8 387.816 237.116 386.797 237.315Z" fill="#31458D"/>
<path d="M396.31 244.053C392.209 245.584 394.379 247.766 392.859 250.899C391.653 253.385 387.637 254.716 392.247 257.469C393.612 255.16 392.444 253.843 395.022 254.062C396.555 254.193 397.295 256.439 399.431 256.272C398.793 253.369 395.602 254.516 395.895 251.654C395.999 250.644 398.984 248.546 399.422 247.294C397.686 246.443 395.203 246.807 394.727 248.076C394.666 246.722 395.783 245.121 396.31 244.053Z" fill="#31458D"/>
<path d="M409.391 249.999C407.266 248.312 404.29 246.848 404.735 250.295C404.713 250.126 406.951 251.907 407.022 251.972C407.353 252.275 406.635 253.577 407.073 253.883C407.65 254.287 409.083 254.054 409.391 254.339C410.635 255.492 411.082 255.761 412.167 257.155C412.953 258.164 413.101 259.524 414.236 260.315C416.063 261.587 419.446 261.375 421.61 261.83C421.605 260.807 422.296 259.874 422.134 258.782C423.851 259.015 430.591 263.386 431.507 261.009C432.614 258.136 422.076 257.618 424.403 252.051C418.539 249.598 414.925 246.622 409.391 249.999Z" fill="#31458D"/>
<path d="M412.562 265.456C411.976 263.033 407.849 261.542 405.407 262.662C402.534 263.98 403.373 266.035 399.461 266.665C396.69 267.111 395.925 266.205 393.537 268.626C391.502 270.69 390.467 272.51 387.493 274.086C382.887 276.526 378.045 277.459 377.681 283.689C377.386 288.74 378.857 294.478 376.959 299.476C383.583 302.141 388.24 295.636 394.33 294.392C402.934 292.635 405.572 296.737 407.718 303.507C410.046 310.851 414.534 314.726 421.171 308.163C423.295 306.062 427.122 302.404 428.335 299.525C429.748 296.174 428.964 292.56 430.478 289.24C431.852 286.226 433.004 286.648 431.092 282.897C429.602 279.971 427.308 279.96 426.017 277.348C424.232 273.736 426.422 267.271 420.993 265.348C414.751 263.138 419.615 273.791 413.75 274.585C405.564 275.691 417.106 266.027 412.562 265.456Z" fill="#31458D"/>
<path d="M224.165 213.623L223.202 213.353C223.477 212.372 223.768 211.408 224.078 210.462L225.028 210.773C224.724 211.705 224.436 212.655 224.165 213.623ZM226.017 207.966L225.081 207.613C225.435 206.674 225.815 205.732 226.211 204.813L227.129 205.208C226.739 206.114 226.365 207.041 226.017 207.966ZM228.369 202.507L227.469 202.069C227.909 201.166 228.375 200.264 228.856 199.387L229.733 199.867C229.26 200.731 228.801 201.62 228.369 202.507ZM231.223 197.297L230.369 196.776C230.892 195.921 231.444 195.066 232.007 194.238L232.834 194.801C232.28 195.615 231.738 196.456 231.223 197.297ZM234.565 192.384L233.766 191.782C234.368 190.982 234.999 190.185 235.64 189.413L236.41 190.052C235.779 190.812 235.158 191.597 234.565 192.384ZM238.363 187.811L237.625 187.136C238.3 186.398 239.002 185.663 239.713 184.953L240.42 185.661C239.719 186.36 239.027 187.083 238.363 187.811ZM242.571 183.606L241.897 182.868C242.644 182.186 243.402 181.524 244.171 180.881L244.813 181.649C244.055 182.282 243.308 182.934 242.571 183.606ZM247.138 179.787L246.529 178.994C247.331 178.378 248.143 177.782 248.962 177.205L249.538 178.022C248.729 178.592 247.928 179.18 247.138 179.787ZM252.006 176.355L251.463 175.515C252.313 174.966 253.168 174.435 254.028 173.922L254.54 174.781C253.689 175.288 252.846 175.813 252.006 176.355ZM257.13 173.301L256.65 172.424C257.536 171.938 258.426 171.47 259.32 171.02L259.771 171.913C258.887 172.358 258.006 172.821 257.13 173.301ZM262.457 170.613L262.037 169.706C262.955 169.28 263.875 168.871 264.794 168.48L265.187 169.4C264.277 169.787 263.367 170.191 262.457 170.613ZM267.952 168.27L267.587 167.338C268.532 166.968 269.475 166.616 270.412 166.28L270.75 167.221C269.82 167.555 268.888 167.904 267.952 168.27ZM273.577 166.254L273.267 165.304C274.234 164.987 275.194 164.687 276.146 164.404L276.431 165.362C275.488 165.643 274.536 165.94 273.577 166.254ZM279.309 164.545L279.047 163.579C280.035 163.312 281.01 163.063 281.97 162.829L282.206 163.801C281.254 164.033 280.287 164.281 279.309 164.545ZM285.122 163.129L284.909 162.151C285.916 161.932 286.902 161.73 287.865 161.544L288.054 162.525C287.1 162.711 286.121 162.911 285.122 163.129ZM291 161.993L290.834 161.007C291.863 160.833 292.858 160.678 293.815 160.539L293.96 161.528C293.009 161.666 292.021 161.82 291 161.993ZM296.929 161.132L296.81 160.139C297.879 160.01 298.883 159.902 299.814 159.813L299.91 160.808C298.986 160.898 297.99 161.004 296.929 161.132ZM302.898 160.561L302.828 159.563C304.093 159.475 305.115 159.427 305.856 159.401L305.891 160.4C305.158 160.426 304.147 160.474 302.898 160.561ZM305.757 159.015C305.067 158.291 304.37 157.579 303.668 156.88L304.373 156.172C305.081 156.878 305.783 157.595 306.48 158.325L305.757 159.015ZM301.525 154.798C300.799 154.112 300.067 153.437 299.331 152.774L299.999 152.031C300.743 152.699 301.481 153.38 302.213 154.073L301.525 154.798ZM297.085 150.807C296.324 150.158 295.559 149.522 294.788 148.898L295.417 148.121C296.194 148.75 296.967 149.392 297.733 150.046L297.085 150.807ZM292.443 147.049C291.651 146.441 290.853 145.845 290.051 145.261L290.639 144.452C291.449 145.041 292.252 145.642 293.052 146.256L292.443 147.049ZM287.615 143.533C286.794 142.966 285.967 142.41 285.136 141.867L285.683 141.03C286.521 141.578 287.354 142.137 288.183 142.709L287.615 143.533ZM282.617 140.264C281.766 139.738 280.914 139.224 280.056 138.723L280.562 137.86C281.425 138.366 282.286 138.884 283.142 139.414L282.617 140.264ZM277.462 137.246C276.588 136.762 275.71 136.29 274.83 135.83L275.293 134.943C276.181 135.407 277.064 135.882 277.946 136.371L277.462 137.246ZM272.165 134.476C271.27 134.034 270.371 133.603 269.471 133.185L269.893 132.278C270.801 132.7 271.707 133.134 272.609 133.58L272.165 134.476ZM266.747 131.956C265.833 131.555 264.916 131.166 263.996 130.788L264.377 129.863C265.303 130.244 266.227 130.636 267.149 131.04L266.747 131.956ZM261.22 129.681C260.287 129.321 259.354 128.972 258.42 128.634L258.76 127.694C259.701 128.035 260.641 128.386 261.579 128.749L261.22 129.681ZM255.6 127.646C254.652 127.325 253.705 127.016 252.757 126.717L253.058 125.763C254.012 126.065 254.966 126.376 255.92 126.699L255.6 127.646ZM249.897 125.845C248.938 125.563 247.978 125.291 247.02 125.03L247.283 124.065C248.248 124.328 249.214 124.602 250.179 124.886L249.897 125.845ZM244.126 124.271C243.157 124.026 242.188 123.792 241.22 123.566L241.447 122.592C242.421 122.818 243.396 123.054 244.372 123.3L244.126 124.271ZM152.116 123.78L151.874 122.81C151.874 122.81 152.909 122.551 154.828 122.152L155.031 123.131C153.142 123.524 152.122 123.778 152.116 123.78ZM238.301 122.915C237.322 122.706 236.345 122.507 235.37 122.317L235.561 121.336C236.542 121.527 237.525 121.727 238.51 121.938L238.301 122.915ZM157.967 122.552L157.782 121.569C158.678 121.401 159.668 121.223 160.744 121.039L160.913 122.024C159.842 122.207 158.858 122.385 157.967 122.552ZM232.428 121.771C231.442 121.596 230.459 121.431 229.478 121.275L229.635 120.288C230.622 120.445 231.611 120.611 232.603 120.787L232.428 121.771ZM163.869 121.544L163.716 120.556C164.659 120.41 165.653 120.263 166.693 120.116L166.833 121.106C165.797 121.251 164.809 121.398 163.869 121.544ZM226.519 120.829C225.527 120.688 224.538 120.555 223.553 120.432L223.678 119.44C224.668 119.565 225.663 119.697 226.66 119.839L226.519 120.829ZM169.8 120.708L169.674 119.716C170.637 119.594 171.633 119.474 172.661 119.358L172.773 120.351C171.751 120.467 170.76 120.586 169.8 120.708ZM220.581 120.082C219.583 119.973 218.591 119.872 217.603 119.78L217.697 118.784C218.69 118.877 219.687 118.978 220.69 119.088L220.581 120.082ZM175.751 120.033L175.651 119.038C176.626 118.941 177.625 118.847 178.645 118.758L178.732 119.754C177.716 119.843 176.722 119.936 175.751 120.033ZM214.621 119.523C213.62 119.444 212.624 119.375 211.635 119.312L211.698 118.314C212.692 118.377 213.693 118.448 214.699 118.526L214.621 119.523ZM181.717 119.514L181.644 118.517C182.626 118.444 183.627 118.377 184.645 118.315L184.706 119.313C183.692 119.375 182.696 119.442 181.717 119.514ZM187.696 119.151L187.648 118.152C188.636 118.105 189.637 118.064 190.653 118.029L190.687 119.028C189.677 119.063 188.679 119.104 187.696 119.151ZM208.646 119.145C207.642 119.096 206.645 119.055 205.655 119.021L205.689 118.022C206.684 118.056 207.686 118.097 208.695 118.146L208.646 119.145ZM193.681 118.946L193.66 117.946C194.651 117.925 195.654 117.91 196.668 117.903L196.675 118.903C195.665 118.91 194.667 118.925 193.681 118.946ZM202.662 118.939C201.655 118.918 200.657 118.906 199.668 118.9L199.674 117.9C200.668 117.906 201.671 117.919 202.682 117.939L202.662 118.939Z" fill="#103366"/>
<path d="M385.866 245.728C385.865 245.71 385.779 243.855 385.342 240.768L386.332 240.627C386.776 243.768 386.861 245.607 386.865 245.684L385.866 245.728ZM384.508 235.851C384.19 234.232 383.824 232.595 383.424 230.984L384.395 230.743C384.799 232.37 385.167 234.024 385.489 235.658L384.508 235.851ZM382.104 226.176C381.627 224.59 381.105 222.996 380.552 221.44L381.495 221.106C382.052 222.677 382.579 224.286 383.06 225.888L382.104 226.176ZM378.769 216.791C378.131 215.248 377.453 213.717 376.749 212.241L377.651 211.811C378.362 213.303 379.048 214.85 379.692 216.409L378.769 216.791ZM374.493 207.806C373.696 206.342 372.856 204.895 371.995 203.506L372.845 202.979C373.716 204.384 374.567 205.848 375.372 207.329L374.493 207.806ZM369.256 199.357C368.305 198.005 367.302 196.668 366.276 195.382L367.057 194.758C368.096 196.059 369.112 197.413 370.075 198.781L369.256 199.357ZM363.058 191.601C361.949 190.377 360.787 189.176 359.608 188.031L360.305 187.313C361.499 188.473 362.675 189.69 363.798 190.929L363.058 191.601ZM355.938 184.69C354.68 183.618 353.375 182.576 352.06 181.595L352.658 180.793C353.991 181.788 355.312 182.843 356.587 183.929L355.938 184.69ZM347.991 178.755C346.611 177.857 345.184 176.991 343.749 176.181L344.241 175.31C345.694 176.13 347.139 177.007 348.536 177.917L347.991 178.755ZM339.356 173.877C337.882 173.16 336.359 172.475 334.831 171.841L335.214 170.917C336.761 171.559 338.302 172.252 339.794 172.977L339.356 173.877ZM330.193 170.071C328.653 169.532 327.062 169.024 325.464 168.559L325.743 167.599C327.358 168.068 328.967 168.582 330.523 169.126L330.193 170.071ZM320.658 167.297C319.183 166.949 317.653 166.625 316.11 166.332L316.296 165.35C317.855 165.646 319.399 165.974 320.887 166.324L320.658 167.297Z" fill="#103366"/>
<path d="M168.507 258.182L167.524 257.999C167.83 256.356 168.104 254.704 168.339 253.086L169.328 253.23C169.091 254.86 168.814 256.526 168.507 258.182ZM169.944 248.248L168.949 248.146C169.119 246.481 169.25 244.812 169.339 243.186L170.337 243.241C170.248 244.882 170.115 246.567 169.944 248.248ZM170.488 238.217L169.488 238.213L169.489 237.81C169.488 236.27 169.45 234.734 169.375 233.244L170.374 233.193C170.45 234.699 170.489 236.252 170.489 237.81L170.488 238.217ZM168.982 228.296C168.801 226.643 168.567 224.991 168.288 223.386L169.273 223.214C169.556 224.839 169.792 226.512 169.976 228.187L168.982 228.296ZM167.277 218.534C166.884 216.922 166.433 215.317 165.936 213.763L166.888 213.458C167.392 215.034 167.85 216.662 168.249 218.296L167.277 218.534ZM164.255 209.102C163.64 207.575 162.96 206.054 162.233 204.58L163.129 204.138C163.867 205.634 164.558 207.179 165.182 208.729L164.255 209.102ZM159.873 200.224C159.036 198.81 158.133 197.41 157.187 196.059L158.006 195.486C158.966 196.857 159.883 198.28 160.733 199.715L159.873 200.224ZM154.194 192.107C153.156 190.838 152.052 189.586 150.915 188.385L151.641 187.697C152.795 188.915 153.915 190.185 154.969 191.473L154.194 192.107ZM147.376 184.907C146.169 183.801 144.9 182.713 143.604 181.675L144.229 180.895C145.542 181.947 146.828 183.048 148.052 184.17L147.376 184.907ZM139.627 178.694C138.29 177.756 136.891 176.838 135.47 175.964L135.993 175.112C137.431 175.996 138.847 176.925 140.201 177.875L139.627 178.694ZM131.155 173.482C129.714 172.705 128.216 171.952 126.707 171.244L127.132 170.339C128.658 171.055 130.172 171.816 131.63 172.601L131.155 173.482ZM122.141 169.251C120.602 168.627 119.031 168.039 117.474 167.503L117.799 166.558C119.373 167.1 120.961 167.694 122.517 168.325L122.141 169.251ZM112.717 166.012C109.729 165.171 107.888 164.842 107.87 164.839L108.044 163.855C108.12 163.868 109.947 164.194 112.988 165.05L112.717 166.012Z" fill="#103366"/>
<path d="M104.725 133.038L103.728 132.959C103.734 132.879 103.889 130.973 104.507 127.928L105.487 128.127C104.882 131.106 104.726 133.019 104.725 133.038ZM106.666 123.295L105.704 123.021C106.167 121.394 106.696 119.781 107.273 118.225L108.211 118.573C107.642 120.104 107.122 121.693 106.666 123.295ZM110.127 113.993L109.222 113.568C109.947 112.023 110.737 110.519 111.57 109.099L112.432 109.605C111.615 110.999 110.84 112.476 110.127 113.993ZM115.145 105.463L114.337 104.873C115.341 103.498 116.418 102.182 117.536 100.961L118.273 101.637C117.18 102.831 116.127 104.118 115.145 105.463ZM121.814 98.2003L121.162 97.4423C122.441 96.3423 123.795 95.3153 125.188 94.3893L125.742 95.2223C124.383 96.1263 123.061 97.1273 121.814 98.2003ZM130.006 92.7583L129.561 91.8623C131.048 91.1223 132.612 90.4593 134.207 89.8923L134.542 90.8343C132.984 91.3893 131.458 92.0363 130.006 92.7583ZM139.273 89.4543L139.046 88.4803C140.646 88.1073 142.315 87.8103 144.004 87.5943L144.131 88.5863C142.475 88.7973 140.841 89.0893 139.273 89.4543ZM163.884 89.3093C162.22 89.0183 160.566 88.7793 158.966 88.5983L159.078 87.6043C160.698 87.7873 162.372 88.0293 164.056 88.3233L163.884 89.3093ZM154.017 88.2093C152.307 88.1343 150.654 88.1293 149.059 88.1873L149.023 87.1883C150.644 87.1293 152.323 87.1353 154.061 87.2093L154.017 88.2093Z" fill="#103366"/>
<path d="M110.177 119.148C110.177 115.438 107.169 112.43 103.459 112.43C99.7489 112.43 96.7409 115.438 96.7409 119.148C96.0989 125.728 103.459 135.414 103.459 135.414C103.459 135.414 110.82 125.728 110.177 119.148Z" fill="#103366"/>
<path d="M107.768 119.147C107.768 121.527 105.839 123.456 103.459 123.456C101.079 123.456 99.1504 121.527 99.1504 119.147C99.1504 116.767 101.079 114.838 103.459 114.838C105.839 114.838 107.768 116.767 107.768 119.147Z" fill="#4660BC"/>
<path d="M169.205 82.9559C169.205 80.6579 167.342 78.7949 165.044 78.7949C162.746 78.7949 160.883 80.6579 160.883 82.9559C160.485 87.0319 165.044 93.0319 165.044 93.0319C165.044 93.0319 169.603 87.0319 169.205 82.9559Z" fill="#103366"/>
<path d="M167.713 82.9561C167.713 84.4301 166.518 85.6251 165.044 85.6251C163.57 85.6251 162.375 84.4301 162.375 82.9561C162.375 81.4821 163.57 80.2871 165.044 80.2871C166.518 80.2871 167.713 81.4821 167.713 82.9561Z" fill="#4660BC"/>
<path d="M156.508 115.526C156.508 113.228 154.645 111.365 152.347 111.365C150.049 111.365 148.186 113.228 148.186 115.526C147.788 119.602 152.347 125.602 152.347 125.602C152.347 125.602 156.906 119.602 156.508 115.526Z" fill="#103366"/>
<path d="M155.016 115.526C155.016 117 153.821 118.195 152.347 118.195C150.873 118.195 149.678 117 149.678 115.526C149.678 114.052 150.873 112.857 152.347 112.857C153.821 112.857 155.016 114.052 155.016 115.526Z" fill="#4660BC"/>
<path d="M111.637 158.935C111.637 157.098 110.148 155.609 108.311 155.609C106.474 155.609 104.985 157.098 104.985 158.935C104.667 162.193 108.311 166.989 108.311 166.989C108.311 166.989 111.955 162.193 111.637 158.935Z" fill="#103366"/>
<path d="M110.445 158.936C110.445 160.114 109.49 161.07 108.312 161.07C107.134 161.07 106.178 160.115 106.178 158.936C106.178 157.758 107.133 156.803 108.312 156.803C109.49 156.802 110.445 157.757 110.445 158.936Z" fill="#4660BC"/>
<path d="M170.904 254.461C170.904 252.624 169.415 251.135 167.578 251.135C165.741 251.135 164.252 252.624 164.252 254.461C163.934 257.719 167.578 262.515 167.578 262.515C167.578 262.515 171.222 257.719 170.904 254.461Z" fill="#103366"/>
<path d="M169.711 254.461C169.711 255.639 168.756 256.594 167.577 256.594C166.399 256.594 165.444 255.639 165.444 254.461C165.444 253.283 166.399 252.328 167.577 252.328C168.756 252.328 169.711 253.283 169.711 254.461Z" fill="#4660BC"/>
<path d="M309.304 154.469C309.304 152.632 307.814 151.143 305.977 151.143C304.14 151.143 302.652 152.632 302.652 154.469C302.334 157.727 305.977 162.523 305.977 162.523C305.977 162.523 309.622 157.727 309.304 154.469Z" fill="#103366"/>
<path d="M308.111 154.468C308.111 155.646 307.156 156.601 305.977 156.601C304.799 156.601 303.843 155.646 303.843 154.468C303.843 153.29 304.798 152.334 305.977 152.334C307.156 152.335 308.111 153.29 308.111 154.468Z" fill="#4660BC"/>
<path d="M388.435 241.033C388.435 239.196 386.946 237.707 385.109 237.707C383.272 237.707 381.783 239.196 381.783 241.033C381.465 244.291 385.109 249.087 385.109 249.087C385.109 249.087 388.753 244.291 388.435 241.033Z" fill="#103366"/>
<path d="M387.244 241.033C387.244 242.211 386.289 243.166 385.11 243.166C383.932 243.166 382.976 242.211 382.976 241.033C382.976 239.855 383.931 238.9 385.11 238.9C386.288 238.899 387.244 239.855 387.244 241.033Z" fill="#4660BC"/>
<path d="M323.03 155.113C323.03 151.912 320.436 149.318 317.235 149.318C314.034 149.318 311.44 151.912 311.44 155.113C310.886 160.789 317.235 169.144 317.235 169.144C317.235 169.144 323.584 160.789 323.03 155.113Z" fill="#103366"/>
<path d="M317.235 158.83C319.287 158.83 320.952 157.166 320.952 155.113C320.952 153.061 319.287 151.396 317.235 151.396C315.182 151.396 313.518 153.061 313.518 155.113C313.518 157.166 315.182 158.83 317.235 158.83Z" fill="#4660BC"/>
<path d="M228.323 351.373L226.04 396.876C225.712 399.904 225.886 402.965 226.555 405.936L230.195 422.103C230.878 425.135 232 428.051 233.525 430.758L235.417 434.115C235.417 434.115 234.251 438.566 233.879 440.749C233.507 442.931 224.967 447.982 224.967 447.982L228.049 440.327C228.524 439.206 229.123 437.626 228.43 436.625L226.588 432.633L213.146 407.389C211.704 404.162 210.893 400.688 210.758 397.156L208.896 351.373H228.323Z" fill="#FFA895"/>
<path d="M200.937 339.186L219.183 345.858L206.485 395.687C206.307 396.387 206.104 397.081 205.843 397.755C204.691 400.724 204.167 406.299 203.803 409.103L202.42 442.075C202.42 442.075 199.252 445.412 197.873 447.144C196.494 448.876 186.577 449.182 186.577 449.182L192.969 443.963C193.926 443.21 194.43 442.019 194.306 440.808L190.711 405.863C190.465 402.337 190.094 398.349 191.18 394.985L200.937 339.186Z" fill="#FFA895"/>
<path d="M186.772 448.664L194.948 447.892L201.685 441.705L202.604 440.418C202.604 440.418 205.913 445.564 204.626 449.241L203.707 451.814H201.685L201.501 446.116L196.995 451.132C196.703 451.61 196.192 451.912 195.632 451.934L186.495 452.306C186.152 452.32 185.849 452.141 185.6 451.853C184.624 450.727 185.309 448.952 186.772 448.664Z" fill="#C6AE7D"/>
<path d="M217.945 227.216L223.274 229.685C230.978 233.255 234.329 242.394 230.759 250.098L229.486 252.845L196.259 237.448L197.532 234.701C201.102 226.997 210.241 223.646 217.945 227.216Z" fill="#EFAF84"/>
<path d="M243.844 263.799C246.773 257.477 234.405 245.52 216.219 237.093C198.034 228.667 180.916 226.961 177.986 233.284C175.057 239.607 187.424 251.563 205.61 259.99C223.796 268.417 240.914 270.122 243.844 263.799Z" fill="#C48D65"/>
<path d="M136.979 253.951L143.348 249.83L155.657 264.587C156.282 265.318 157.136 265.816 158.08 266.001L179.169 270.14L180.025 284.73L156.252 275.648C152.956 274.604 150.053 272.588 147.924 269.864L136.979 253.951Z" fill="#FFA895"/>
<path d="M143.839 250.179C143.839 250.179 145.62 246.757 144.033 244.884C142.94 243.594 141.241 241.12 140.503 239.591C139.85 238.238 137.703 238.783 138.134 240.591C138.175 240.762 138.199 240.955 138.269 241.159C138.976 243.226 140.494 244.85 140.494 244.85L138.804 245.485L130.339 249.079C130.339 249.079 133.119 253.632 136.443 254.742C140.116 255.97 143.839 250.179 143.839 250.179Z" fill="#FFA895"/>
<path d="M138.934 243.921C140.97 244.956 141.679 247.65 140.516 249.938C139.353 252.227 136.759 253.243 134.723 252.208C132.687 251.173 131.978 248.479 133.141 246.191C134.304 243.903 136.898 242.886 138.934 243.921Z" fill="#F49889"/>
<path d="M138.561 225.253L146.505 226.057C146.614 226.068 146.709 226.113 146.787 226.177H146.791L147.549 226.83L147.564 226.855C147.697 226.983 147.762 227.177 147.711 227.372L142.37 247.827C142.304 248.08 142.064 248.246 141.804 248.22L133.86 247.416C133.549 247.385 133.338 247.093 133.395 246.791L133.113 246.762C132.79 246.729 132.572 246.416 132.654 246.101L137.995 225.646C138.061 225.394 138.301 225.227 138.561 225.253Z" fill="#39484C"/>
<path d="M223.179 321.809C223.179 321.809 225.046 324.747 227.433 329.78C234.267 344.195 237.596 360.021 237.321 375.971L237.035 392.922H187.869C187.869 392.922 187.213 359.248 196.812 322.064L223.179 321.809Z" fill="#B12E36"/>
<path d="M211.709 241.318C211.844 241.374 211.951 241.418 212.044 241.456C212.347 241.587 212.649 241.718 212.951 241.851C213.611 242.143 214.271 242.437 214.931 242.732C216.92 243.619 218.917 244.49 220.93 245.321C223.393 246.339 225.884 247.253 228.485 247.82C228.33 250.447 227.971 253.084 228.827 255.539C230.432 260.139 235.961 262.998 236.287 267.859C236.438 270.102 235.392 272.24 234.264 274.185C233.136 276.129 231.871 278.077 231.512 280.296C231.152 282.515 231.992 285.122 234.054 286.016C229.572 288.835 224.436 289.246 219.179 288.617C217.702 288.44 216.169 288.244 214.914 287.445C212.178 285.701 211.811 281.925 211.715 278.682C211.451 269.71 210.764 259.922 204.698 253.306C202.833 251.271 200.525 249.632 198.945 247.369C196.909 244.451 195.942 239.573 197.391 236.34C202.245 237.762 207.087 239.435 211.709 241.318Z" fill="#4C352D"/>
<path d="M231.466 276.711C231.466 276.711 240.245 286.287 233.386 328.971H231.839C231.839 328.971 238.256 286.72 229.44 275.361L231.466 276.711Z" fill="#965E38"/>
<path d="M205.116 280.147C205.116 280.147 204.234 288.648 196.298 289.209C188.362 289.771 172.221 282.676 172.221 282.676L175.447 268.926C175.447 268.926 207.813 273.134 205.116 280.147Z" fill="#D8D3C7"/>
<path d="M211.709 241.317C211.844 241.373 211.951 241.417 212.044 241.455C212.347 241.586 212.649 241.717 212.951 241.85C213.611 242.142 214.271 242.436 214.931 242.731C215.866 243.148 216.802 243.56 217.741 243.967C217.535 250.011 212.168 254.852 205.573 254.852C198.847 254.852 193.395 249.817 193.395 243.607C193.395 240.716 194.577 238.08 196.519 236.088C201.665 237.562 206.81 239.321 211.709 241.317Z" fill="#4C352D"/>
<path d="M141.855 247.731C141.871 247.72 141.881 247.713 141.896 247.702L147.237 227.247C147.243 227.223 147.225 227.204 147.21 227.2L139.259 226.395C139.243 226.406 139.233 226.413 139.218 226.424L133.875 246.885C133.886 246.901 133.892 246.909 133.903 246.925L141.855 247.731Z" fill="#A7C9D1"/>
<path d="M146.007 228.067L139.963 227.455L135.105 246.061L141.148 246.672L146.007 228.067Z" fill="#B7E6ED"/>
<path d="M205.292 238.889C207.462 239.654 209.609 240.462 211.709 241.318C211.844 241.374 211.951 241.418 212.044 241.456C212.347 241.587 212.649 241.718 212.951 241.851C213.611 242.143 214.271 242.437 214.931 242.732C216.92 243.619 218.917 244.49 220.93 245.321C222.177 245.836 223.432 246.322 224.703 246.754C224.744 247.129 224.765 247.509 224.765 247.894C224.765 254.105 219.313 259.139 212.587 259.139C205.862 259.139 200.41 254.104 200.41 247.894C200.409 244.21 202.327 240.94 205.292 238.889Z" fill="#4C352D"/>
<path d="M195.175 251.175C193.856 258.961 198.04 266.163 204.52 267.261C211 268.359 217.323 262.937 218.642 255.151C219.961 247.365 215.778 240.163 209.297 239.065C202.817 237.967 196.494 243.389 195.175 251.175Z" fill="#FFA895"/>
<path d="M213.382 273.862H210.579C208.997 273.862 207.714 272.579 207.714 270.997V257.047C207.714 255.465 208.997 254.182 210.579 254.182H213.382C214.964 254.182 216.247 255.465 216.247 257.047V270.997C216.246 272.579 214.964 273.862 213.382 273.862Z" fill="#FFA895"/>
<path d="M211.98 291.913C220.612 291.913 227.61 287.218 227.61 281.426C227.61 275.635 220.612 270.939 211.98 270.939C203.347 270.939 196.35 275.635 196.35 281.426C196.35 287.218 203.347 291.913 211.98 291.913Z" fill="#FFA895"/>
<path d="M226.81 306.999L239.294 309.051C239.294 309.051 241.883 282.514 227.227 274.886C224.979 273.312 221.381 272.301 219.098 272.072C219.513 272.412 220.798 273.621 220.609 275.472C220.189 279.587 217.1 281.721 211.585 281.721C206.07 281.721 202.34 279.803 202.575 275.465C202.651 274.067 204.052 272.581 204.078 272.361C204.078 272.361 200.153 272.918 195.945 273.242C195.945 273.242 195.516 283.935 194.476 285.807C193.436 287.679 190.315 294.129 193.228 299.538C196.141 304.947 199.372 312.85 196.812 322.065C196.812 322.065 208.588 330.001 223.179 321.809C223.179 321.809 221.728 309.852 225.103 302.279C226.016 305.086 226.81 306.999 226.81 306.999Z" fill="#EAE6DA"/>
<path d="M225.102 302.278C225.102 302.278 221.899 289.293 226.292 280.506C226.292 280.506 217.725 291.709 218.164 301.814C218.573 311.214 200.162 307.688 197.592 307.15C197.458 307.122 197.343 307.245 197.381 307.377C197.553 307.976 197.937 309.4 198.099 310.67C198.174 311.258 198.672 311.7 199.266 311.7H215.35C218.138 311.7 220.492 313.763 220.862 316.526C221.122 318.468 221.282 320.751 221.071 322.891C221.766 322.566 222.469 322.207 223.179 321.809C223.179 321.809 221.728 309.851 225.102 302.278Z" fill="#D8D3C7"/>
<path d="M202.63 261.739C204.504 261.739 206.163 260.711 206.909 259.065C207.051 258.752 206.912 258.383 206.599 258.241C206.286 258.099 205.917 258.237 205.775 258.552C205.206 259.809 203.893 260.574 202.416 260.488C201.304 260.427 199.94 259.822 199.445 258.308C199.338 257.981 198.989 257.802 198.66 257.91C198.333 258.016 198.155 258.368 198.261 258.695C198.838 260.462 200.403 261.626 202.347 261.732C202.442 261.736 202.536 261.739 202.63 261.739Z" fill="#C1584D"/>
<path d="M195.948 236.029C196.364 236.083 196.78 236.14 197.197 236.193C197.584 236.243 197.971 236.293 198.358 236.343C198.391 236.353 199.55 236.519 199.779 236.558C202.069 236.944 204.286 237.473 206.451 238.299C206.785 238.439 207.291 238.651 207.426 238.714C208.043 239 208.657 239.29 209.272 239.579C210.957 240.373 212.655 241.125 214.379 241.834C216.198 242.582 217.979 243.079 219.825 243.436C221.571 245.206 223.075 247.207 224.219 249.401C221.569 250.563 218.356 250.34 215.892 248.824C213.428 247.307 211.389 244.496 211.233 241.607C209.789 243.113 208.231 244.686 206.205 245.183C204.491 245.604 202.653 245.192 200.943 245.627C198.944 246.135 197.377 247.759 196.444 249.599C195.511 251.439 194.884 253.704 194.505 255.732C191.11 252.092 189.986 246.492 191.714 241.823C192.553 239.547 194.057 237.548 195.948 236.029Z" fill="#4C352D"/>
<path d="M223.069 253.113C223.069 255.104 221.455 256.718 219.464 256.718C217.473 256.718 215.859 255.104 215.859 253.113C215.859 251.122 217.473 249.508 219.464 249.508C221.456 249.508 223.069 251.122 223.069 253.113Z" fill="#FFA895"/>
<path d="M135.971 251.724L135.466 252.446C135.181 252.853 134.62 252.953 134.212 252.667L129.453 249.337C129.046 249.052 128.946 248.491 129.232 248.083L129.737 247.361C130.022 246.954 130.583 246.854 130.991 247.14L135.75 250.47C136.157 250.755 136.256 251.317 135.971 251.724Z" fill="#FFA895"/>
<path d="M139.413 247.906L138.908 248.628C138.623 249.035 138.062 249.135 137.654 248.849L131.797 244.75C131.39 244.465 131.29 243.904 131.575 243.496L132.08 242.774C132.365 242.367 132.926 242.268 133.334 242.553L139.191 246.652C139.599 246.938 139.698 247.499 139.413 247.906Z" fill="#FFA895"/>
<path d="M141.117 245.944L140.612 246.666C140.327 247.073 139.766 247.173 139.358 246.887L134.599 243.557C134.192 243.272 134.093 242.711 134.378 242.303L134.883 241.581C135.168 241.174 135.729 241.075 136.137 241.36L140.896 244.69C141.303 244.975 141.402 245.537 141.117 245.944Z" fill="#FFA895"/>
<path d="M138.138 250.087L137.633 250.809C137.348 251.216 136.787 251.315 136.379 251.03L130.386 246.836C129.979 246.551 129.879 245.99 130.165 245.582L130.67 244.86C130.955 244.453 131.516 244.354 131.924 244.639L137.917 248.833C138.324 249.118 138.423 249.679 138.138 250.087Z" fill="#FFA895"/>
<path d="M194.939 234.695C195.964 234.623 196.991 234.583 198.019 234.566C199.103 234.804 200.183 235.065 201.247 235.383C203.365 236.017 205.452 236.746 207.503 237.573C207.681 237.645 209.4 238.365 208.735 238.075C209.021 238.198 209.308 238.321 209.594 238.445C210.722 238.939 211.848 239.439 212.973 239.94C215.406 241.024 217.845 242.091 220.305 243.113C221.728 243.704 223.191 244.196 224.627 244.757C225.059 244.949 226.222 245.452 226.516 245.593C227.229 245.935 227.941 246.28 228.637 246.654C229.502 247.119 230.364 247.594 231.193 248.122C231.588 248.374 233.262 249.646 232.936 249.335C233.387 249.725 233.828 250.128 234.227 250.57C234.272 250.618 234.312 250.669 234.355 250.717C234.377 250.75 234.393 250.775 234.419 250.812C234.441 250.845 234.464 250.877 234.486 250.91C235.435 256.832 232.711 259.958 232.711 259.958C232.711 259.958 217.358 236.373 188.439 239.513C188.439 239.513 191.21 237.184 194.662 234.703C194.754 234.703 194.846 234.701 194.939 234.695Z" fill="#C48D65"/>
<path d="M208.747 247.777C208.757 247.777 208.765 247.78 208.775 247.78C209.077 247.729 209.736 247.7 210.413 248.212C210.996 248.653 211.788 248.281 211.788 248.281C211.788 248.281 211.438 249.315 210.026 249.333C210.026 249.34 210.028 249.346 210.028 249.353C210.028 250.224 209.454 250.929 208.747 250.929C208.04 250.929 207.466 250.223 207.466 249.353C207.466 248.483 208.04 247.777 208.747 247.777Z" fill="#4C352D"/>
<path d="M201.277 247.644C201.268 247.643 201.259 247.646 201.249 247.646C200.951 247.575 200.295 247.503 199.586 247.971C198.976 248.373 198.209 247.95 198.209 247.95C198.209 247.95 198.491 249.004 199.899 249.114C199.898 249.121 199.896 249.127 199.896 249.134C199.839 250.003 200.366 250.744 201.072 250.79C201.778 250.836 202.396 250.169 202.453 249.3C202.509 248.432 201.983 247.69 201.277 247.644Z" fill="#4C352D"/>
<path d="M201.997 257.148L202.126 256.762L201.502 256.554C200.977 256.379 200.617 255.947 200.539 255.399C200.461 254.851 200.686 254.338 201.14 254.024C201.718 253.625 202.383 253.471 202.389 253.469L202.493 253.445L204.942 247.395L204.564 247.242L202.194 253.098C201.967 253.161 201.414 253.338 200.909 253.687C200.334 254.084 200.038 254.761 200.136 255.455C200.235 256.149 200.709 256.717 201.373 256.939L201.997 257.148Z" fill="#E87562"/>
<path d="M231.466 276.711L229.441 275.361C229.441 275.361 217.964 299.159 219.821 324.814L221.678 323.97C221.678 323.97 220.495 301.521 231.466 276.711Z" fill="#B77548"/>
<path d="M216.792 346.067H237.764C240.88 346.067 243.15 343.113 242.347 340.102L239.593 329.766C239.04 327.689 237.159 326.244 235.01 326.244H220.42C218.406 326.244 216.611 327.516 215.944 329.417L212.316 339.753C211.234 342.838 213.523 346.067 216.792 346.067Z" fill="#965E38"/>
<path d="M217.305 332.783V327.415C218.15 326.679 219.247 326.244 220.42 326.244H235.011C236.341 326.244 237.567 326.798 238.44 327.712V332.783C238.44 335.032 236.617 336.854 234.369 336.854H221.376C219.128 336.854 217.305 335.031 217.305 332.783Z" fill="#774C2F"/>
<path d="M224.613 338.828H230.341V334.087H224.613V338.828Z" fill="#AF876B"/>
<path d="M143.027 225.37L141.297 223.771L141.468 226.121L139.139 226.477L141.083 227.808L139.909 229.851L142.162 229.161L143.027 231.353L143.893 229.161L146.146 229.851L144.971 227.808L146.916 226.477L144.586 226.121L144.758 223.771L143.027 225.37Z" fill="white"/>
<path d="M224.887 447.436L231.677 442.817L234.595 434.148L234.779 432.578C234.779 432.578 240.16 435.491 240.806 439.331L241.242 442.028L239.471 443.003L236.562 438.1L235.034 444.667C235.009 445.227 234.707 445.737 234.227 446.028L226.403 450.761C226.109 450.938 225.757 450.928 225.4 450.796C224.001 450.279 223.744 448.394 224.887 447.436Z" fill="#C6AE7D"/>
<path d="M265.51 455.445C268.243 455.445 270.458 453.23 270.458 450.497C270.458 447.764 268.243 445.549 265.51 445.549C262.778 445.549 260.562 447.764 260.562 450.497C260.562 453.23 262.778 455.445 265.51 455.445Z" fill="#705A61"/>
<path d="M242.526 455.445C245.259 455.445 247.474 453.23 247.474 450.497C247.474 447.764 245.259 445.549 242.526 445.549C239.793 445.549 237.578 447.764 237.578 450.497C237.578 453.23 239.793 455.445 242.526 455.445Z" fill="#705A61"/>
<path d="M261.361 450.34H269.023V442.997H261.361V450.34Z" fill="#705A61"/>
<path d="M238.376 450.34H246.038V442.997H238.376V450.34Z" fill="#705A61"/>
<path d="M240.034 355.586H268.003V387.066H240.034V355.586ZM265.574 358.016H242.465V384.637H265.574V358.016Z" fill="#705A61"/>
<path d="M240.295 379.092H267.743C273.563 379.092 278.281 383.81 278.281 389.63V437.542C278.281 443.362 273.563 448.08 267.743 448.08H240.295C234.475 448.08 229.757 443.362 229.757 437.542V389.63C229.757 383.81 234.475 379.092 240.295 379.092Z" fill="#E24D71"/>
<path d="M268.065 441.359H270.619V385.811H268.065V441.359Z" fill="#CE3A64"/>
<path d="M257.849 441.359H260.403V385.811H257.849V441.359Z" fill="#CE3A64"/>
<path d="M247.633 441.359H250.188V385.811H247.633V441.359Z" fill="#CE3A64"/>
<path d="M237.418 441.359H239.972V385.811H237.418V441.359Z" fill="#CE3A64"/>
<path d="M240.381 358.716H267.976C268.907 358.716 269.661 357.961 269.661 357.03V355.381C269.661 354.45 268.906 353.695 267.976 353.695H240.381C239.45 353.695 238.695 354.45 238.695 355.381V357.03C238.695 357.962 239.45 358.716 240.381 358.716Z" fill="#705A61"/>
<path d="M207.438 246.597C207.324 246.199 207.572 245.789 207.976 245.704C209.546 245.372 213.153 244.708 214.48 245.298C216.197 246.061 217.151 247.778 217.151 247.778L213.526 246.252L208.236 247.105C207.88 247.162 207.537 246.944 207.438 246.597Z" fill="#4C352D"/>
<path d="M203.177 246.328C203.291 245.93 203.043 245.52 202.639 245.435C201.069 245.103 197.462 244.439 196.135 245.029C194.418 245.792 193.464 247.509 193.464 247.509L197.089 245.983L202.379 246.836C202.734 246.894 203.078 246.675 203.177 246.328Z" fill="#4C352D"/>
<path d="M213.637 334.617C213.637 334.617 209.349 333.82 207.561 334.444C205.773 335.067 209.224 337.159 209.224 337.159L213.637 334.617Z" fill="#EF8C7B"/>
<path d="M204.823 336.141C205.777 336.199 207.217 336.171 208.262 335.631C209.961 334.752 213.638 334.616 213.638 334.616L214.182 334.187C215.202 333.382 216.083 332.416 216.788 331.324C220.06 326.26 223.164 319.093 225.886 311.852L227.397 307.088L237.467 308.745L235.78 313.635C233.833 318.639 231.415 323.529 228.207 327.852C225.552 331.43 222.289 334.055 218.816 336.769C218.551 336.976 217.851 337.33 217.7 337.641C216.643 339.829 213.662 341.087 211.802 341.681C210.841 341.988 209.8 341.9 208.902 341.44C207.315 340.627 204.81 339.277 204.283 338.594C203.965 338.181 203.829 337.682 203.779 337.233C203.711 336.623 204.21 336.103 204.823 336.141Z" fill="#FFA895"/>
<path d="M103.577 445.128C103.577 445.128 103.725 446.315 103.688 447.576C103.663 448.43 103.211 449.212 102.487 449.667C101.419 450.339 99.5615 451.156 96.8965 451.104C94.0615 451.048 92.1505 450.577 90.6235 449.007C90.0305 448.397 89.5225 447.714 89.5415 446.863L89.6015 444.16L103.577 445.128Z" fill="#383438"/>
<path d="M100.285 431.844C100.285 431.844 100.285 437.684 102.055 441.046C103.825 444.408 105.417 448.655 98.3386 449.363C94.0316 449.794 91.7556 448.717 90.6336 447.809C89.9836 447.282 89.6126 446.488 89.5716 445.653C89.5126 444.448 89.5696 442.42 90.3756 440.692C91.6146 438.038 91.0836 430.605 91.0836 430.605L100.285 431.844Z" fill="#564A56"/>
<path d="M100.068 431.786C100.068 431.786 100.068 437.352 101.777 440.556C103.486 443.76 105.024 447.808 98.1881 448.483C94.2101 448.875 92.0271 447.955 90.8961 447.116C90.1851 446.589 89.7581 445.764 89.7181 444.88C89.6671 443.724 89.7341 441.834 90.4981 440.219C91.6941 437.689 91.1821 430.605 91.1821 430.605L100.068 431.786Z" fill="#605560"/>
<path d="M90.8057 443.683C92.7517 441.099 96.2427 439.78 99.4117 440.433C98.7247 438.751 98.9157 436.737 99.9077 435.215C99.8877 438.553 101.362 441.696 102.806 444.706C101.46 443.016 99.2247 442.209 97.0647 442.188C94.9037 442.167 92.7967 442.844 90.8057 443.683Z" fill="#6B5F6B"/>
<path d="M82.0433 445.128C82.0433 445.128 82.1913 446.315 82.1543 447.576C82.1293 448.43 81.6773 449.212 80.9533 449.667C79.8853 450.339 78.0283 451.156 75.3633 451.104C72.5283 451.048 70.6173 450.577 69.0903 449.007C68.4973 448.397 67.9893 447.714 68.0083 446.863L68.0683 444.16L82.0433 445.128Z" fill="#383438"/>
<path d="M78.7514 431.844C78.7514 431.844 78.7514 437.684 80.5214 441.046C82.2914 444.408 83.8834 448.655 76.8054 449.363C72.4984 449.794 70.2224 448.717 69.1004 447.809C68.4504 447.282 68.0784 446.488 68.0384 445.653C67.9794 444.448 68.0364 442.42 68.8424 440.692C70.0814 438.038 69.5504 430.605 69.5504 430.605L78.7514 431.844Z" fill="#564A56"/>
<path d="M78.5349 431.786C78.5349 431.786 78.5349 437.352 80.2439 440.556C81.9529 443.76 83.4909 447.808 76.6549 448.483C72.6779 448.875 70.4939 447.955 69.3629 447.116C68.6519 446.589 68.2249 445.764 68.1849 444.88C68.1339 443.724 68.2009 441.834 68.9649 440.219C70.1609 437.689 69.6489 430.605 69.6489 430.605L78.5349 431.786Z" fill="#605560"/>
<path d="M69.2715 443.683C71.2175 441.099 74.7085 439.78 77.8775 440.433C77.1905 438.751 77.3815 436.737 78.3735 435.215C78.3535 438.553 79.8275 441.696 81.2715 444.706C79.9255 443.016 77.6905 442.209 75.5305 442.188C73.3705 442.167 71.2625 442.844 69.2715 443.683Z" fill="#6B5F6B"/>
<path d="M156.166 451.146C158.003 451.146 159.493 449.657 159.493 447.819C159.493 445.982 158.003 444.492 156.166 444.492C154.328 444.492 152.839 445.982 152.839 447.819C152.839 449.657 154.328 451.146 156.166 451.146Z" fill="#666C6D"/>
<path d="M153.545 446.766H158.45V439.65H153.545V446.766Z" fill="#666C6D"/>
<path d="M139.469 451.146C141.306 451.146 142.796 449.657 142.796 447.819C142.796 445.982 141.306 444.492 139.469 444.492C137.631 444.492 136.142 445.982 136.142 447.819C136.142 449.657 137.631 451.146 139.469 451.146Z" fill="#666C6D"/>
<path d="M136.848 446.766H141.753V439.65H136.848V446.766Z" fill="#666C6D"/>
<path d="M155.43 440.056H163.732C165.081 440.056 166.061 438.774 165.707 437.472L159.82 415.839C159.578 414.948 158.769 414.33 157.845 414.33H149.543C148.194 414.33 147.214 415.612 147.568 416.914L153.455 438.546C153.698 439.438 154.507 440.056 155.43 440.056Z" fill="#FFAA55"/>
<path d="M145.933 406.95H154.235C155.584 406.95 156.564 405.668 156.21 404.366L153.31 394.566C153.068 393.675 152.259 393.057 151.335 393.057H143.033C141.684 393.057 140.704 394.339 141.058 395.641L143.958 405.441C144.2 406.332 145.009 406.95 145.933 406.95Z" fill="#FFAA55"/>
<path d="M121.872 388.118L125.583 387.283L115.112 338.125L111.401 338.961L121.872 388.118Z" fill="#666C6D"/>
<path d="M82.1288 318.805H95.8248C103.523 318.805 109.821 312.507 109.821 304.809V278.99C109.821 271.292 103.523 264.994 95.8248 264.994H82.1288C74.4308 264.994 68.1328 271.292 68.1328 278.99V304.809C68.1328 312.506 74.4308 318.805 82.1288 318.805Z" fill="#F4C951"/>
<path d="M71.7205 273.863H106.529C109.641 273.863 112.187 271.317 112.187 268.205V262.668C112.187 259.556 109.641 257.01 106.529 257.01H71.7205C68.6085 257.01 66.0625 259.556 66.0625 262.668V268.205C66.0635 271.317 68.6095 273.863 71.7205 273.863Z" fill="#A09D9C"/>
<path d="M118.767 328.569C118.767 328.569 120.148 338.247 119.864 339.695C119.581 341.142 114.259 347.134 114.259 347.134C114.259 347.134 112.507 348.715 111.487 348.244C110.467 347.774 111.418 345.525 112.305 344.527C113.192 343.529 115.105 338.823 115.105 338.823L114.882 335.052L112.638 338.069L112.039 341.589C112.039 341.589 110.955 342.369 110.602 341.097C110.25 339.826 110.245 335.857 110.245 335.857L112.122 327.809C112.122 327.809 107.597 310.241 107.825 297.722L106.197 272.576L114.396 271.537C114.396 271.537 116.823 285.237 116.451 296.496C116.451 296.496 118.936 313.123 118.767 328.569Z" fill="#FFA895"/>
<path d="M26.0527 291.49C26.0527 291.49 37.7577 309.109 48.9837 313.64C49.6197 313.897 50.3437 313.765 50.8597 313.313C54.1407 310.443 66.2317 298.993 73.3347 280.431L75.5987 267.083C75.5987 267.083 65.6977 265.751 63.6877 273.637C61.9037 280.637 51.3557 297.398 49.0077 301.077C48.7547 301.474 48.2247 301.584 47.8337 301.322L31.4497 289.073L27.3227 289.833L26.0527 291.49Z" fill="#FFA895"/>
<path d="M31.5472 291.05C31.5472 291.05 34.7382 289.075 35.1932 285.884C35.5482 283.4 35.9032 280.179 36.0422 278.874C36.0862 278.467 35.8082 278.089 35.4042 278.023C34.8072 277.925 33.9752 278.113 33.5212 279.655C32.7612 282.238 32.0022 284.213 32.0022 284.213C32.0022 284.213 32.9142 273.882 32.1542 273.426C31.3942 272.97 30.1792 274.49 29.7232 277.832C29.2672 281.174 28.9632 282.694 28.9632 282.694C28.9632 282.694 29.4192 273.578 28.9632 272.362C28.5072 271.147 26.9882 271.754 26.6842 273.881C26.3802 276.008 26.2282 281.782 26.2282 281.782C26.2282 281.782 25.8112 274.69 25.3162 274.337C24.2522 273.577 23.1892 274.033 23.7972 281.63L24.1012 283.909C24.1012 283.909 22.7332 278.439 22.1262 278.591C20.5392 278.988 21.2142 280.414 21.6702 283.453C22.1262 286.492 23.9492 290.29 23.9492 290.29L24.1412 290.556C25.1982 292.02 27.0932 292.614 28.7972 292.015L31.5472 291.05Z" fill="#FFA895"/>
<path d="M95.1787 259.815C95.1787 259.815 89.9367 257.314 83.3027 259.815L83.2217 266.714L96.6497 267.673L95.1787 259.815Z" fill="#FFA895"/>
<path d="M91.6208 214.031C94.7688 216.624 99.2958 216.118 102.825 217.952C105.664 219.427 108.28 222.079 109.121 225.244C110.122 229.007 107.207 231.382 107.261 235.019C107.307 238.154 109.91 239.799 111.305 242.29C113.752 246.659 110.351 247.785 110.295 251.94C110.265 254.18 112.363 255.82 113.2 257.897C114.161 260.279 113.379 262.969 112.593 265.414C111.886 267.612 111.027 270.006 109.026 271.158C107.514 272.029 105.665 271.993 103.922 271.932C90.8828 271.479 77.8428 271.027 64.8038 270.574C66.3068 269.975 66.3108 267.762 65.5008 266.361C64.6908 264.96 63.3558 263.851 62.8708 262.307C61.9168 259.269 64.6168 256.301 64.8668 253.126C65.2028 248.86 61.0858 244.943 62.1148 240.789C62.7198 238.344 64.9668 236.639 65.9178 234.306C67.5368 230.334 67.0858 225.582 69.3258 221.924C71.3548 218.61 74.4928 220.888 77.1198 218.029C78.7158 216.292 79.2478 214.385 81.4108 213.238C83.7198 212.013 86.5908 211.435 89.1048 212.353C89.9228 212.649 90.7608 213.322 91.6208 214.031Z" fill="#4C352D"/>
<path d="M95.1787 259.815C95.1787 259.815 90.1247 257.77 83.3027 259.815L84.0187 265.655L91.4547 266.646L95.1787 259.815Z" fill="#C14D4D"/>
<path d="M85.7764 269.072H92.5674V247.627H85.7764V269.072Z" fill="#FFA895"/>
<path d="M71.0513 323.935C67.1673 320.097 68.3663 316.282 69.5423 314.801L71.2773 316.166C71.0603 316.451 69.2483 319.05 72.6033 322.365L71.0513 323.935Z" fill="#2D2A2A"/>
<path d="M107.095 323.935C110.979 320.097 109.78 316.282 108.604 314.801L106.869 316.166C107.086 316.451 108.898 319.05 105.543 322.365L107.095 323.935Z" fill="#2D2A2A"/>
<path d="M72.0319 377.429C72.0319 377.429 64.4939 349.321 69.4689 327.686L70.9999 321.186L79.9839 316.668L106.154 318.174L107.303 321.738C109.129 327.402 110.388 334.66 110.214 340.59C109.757 356.19 102.598 380.003 102.598 380.003C104.528 403.168 102.702 428.565 101.18 435.11H89.5899L88.5259 342.27L79.8099 435.481H69.2539C69.2539 435.481 68.4919 400.594 72.0319 377.429Z" fill="#7B93AA"/>
<path d="M89.2267 338.652C89.2367 338.535 90.2547 326.858 88.5117 318.848L87.9727 318.965C89.6977 326.891 88.6877 338.486 88.6767 338.602L89.2267 338.652Z" fill="#8CA8BF"/>
<path d="M73.9061 305.292L70.5891 287.966L60.2471 281.422C60.2471 281.422 62.9721 266.592 68.9961 264.71C75.0201 262.828 76.5261 262.451 76.5261 262.451L83.3031 259.816C85.9881 264.308 92.4941 264.308 95.1791 259.816L101.956 262.451C101.956 262.451 103.512 262.674 109.486 264.71C116.543 267.115 117.165 282.667 117.165 282.667L107.893 287.967L104.576 305.293C104.035 308.119 104.217 311.035 105.104 313.772L109.815 328.304H89.2411H68.6671L73.3781 313.772C74.2651 311.034 74.4471 308.117 73.9061 305.292Z" fill="#D85959"/>
<path d="M73.9935 277.302C73.8935 273.299 73.2485 268.965 71.4675 265.241C71.4375 265.163 71.4045 265.085 71.3735 265.006C72.1565 266.052 81.2385 278.439 80.7505 289.66C80.2765 300.571 101.65 296.474 104.625 295.851C104.78 295.819 104.911 295.962 104.868 296.114C104.668 296.81 104.221 298.468 104.033 299.944C103.946 300.624 103.365 301.13 102.68 301.13H84.0175C80.7825 301.13 78.0505 303.524 77.6215 306.73C77.4995 307.646 77.4015 309.772 77.3455 312.14C77.2075 317.964 74.6395 323.485 70.2025 327.261C69.3865 327.956 68.7715 328.381 68.5635 328.264C68.5635 328.264 79.0645 301.779 72.7005 290.197C72.7005 290.197 74.3795 284.748 73.9935 277.302Z" fill="#C14D4D"/>
<path d="M104.715 311.59C104.859 311.59 105.005 311.576 105.152 311.549C106.425 311.309 107.262 310.083 107.022 308.81C102.667 285.708 108.603 264.916 108.663 264.709C109.025 263.466 108.312 262.163 107.069 261.8C105.826 261.436 104.524 262.149 104.16 263.392C103.9 264.28 97.84 285.43 102.411 309.679C102.625 310.805 103.61 311.59 104.715 311.59Z" fill="#A09D9C"/>
<path d="M107.396 317.069L109.384 316.108C103.079 303.068 103.15 290.756 104.165 281.719C105.266 271.914 107.697 263.956 107.724 263.889L105.668 263.084C105.556 263.369 103.104 271.382 101.971 281.473C100.924 290.799 100.862 303.555 107.396 317.069Z" fill="#4F4E4E"/>
<path d="M73.4309 311.59C73.2869 311.59 73.1409 311.576 72.9939 311.549C71.7209 311.309 70.8839 310.083 71.1239 308.81C75.4789 285.708 69.5429 264.916 69.4829 264.709C69.1209 263.466 69.8339 262.163 71.0769 261.8C72.3199 261.436 73.6219 262.149 73.9859 263.392C74.2459 264.28 80.3059 285.43 75.7349 309.679C75.5209 310.805 74.5359 311.59 73.4309 311.59Z" fill="#A09D9C"/>
<path d="M70.7497 317.069L68.7617 316.108C75.0667 303.068 74.9957 290.756 73.9807 281.719C72.8797 271.914 70.4487 263.956 70.4217 263.889L72.4777 263.084C72.5887 263.369 75.0417 271.382 76.1747 281.473C77.2217 290.799 77.2837 303.555 70.7497 317.069Z" fill="#4F4E4E"/>
<path d="M89.2623 222.965C89.2773 222.965 89.2913 222.966 89.3063 222.966C89.3213 222.966 89.3353 222.965 89.3503 222.965C97.0483 222.965 103.289 229.846 103.289 238.334C103.289 246.568 94.7133 253.793 89.3053 254.219C83.8973 253.793 75.3213 246.568 75.3213 238.334C75.3223 229.846 81.5633 222.965 89.2623 222.965Z" fill="#FFA895"/>
<path d="M100.177 238.678C100.177 240.351 101.437 241.708 102.99 241.708C104.544 241.708 105.803 240.351 105.803 238.678C105.803 237.005 104.543 235.648 102.99 235.648C101.437 235.648 100.177 237.005 100.177 238.678Z" fill="#FFA895"/>
<path d="M110.585 339.085C110.585 340.589 111.805 341.809 113.309 341.809C114.813 341.809 116.033 340.589 116.033 339.085C116.033 337.581 114.813 336.361 113.309 336.361C111.805 336.361 110.585 337.58 110.585 339.085Z" fill="#57384D"/>
<path d="M136.421 445.208H156.06C159.251 445.208 161.57 442.174 160.732 439.095L146.805 387.922C146.231 385.814 144.318 384.352 142.133 384.352H122.494C119.303 384.352 116.984 387.386 117.822 390.465L131.749 441.638C132.323 443.745 134.237 445.208 136.421 445.208Z" fill="#FF9624"/>
<path d="M134.124 384.352L150.543 445.209H147.922L131.503 384.352H134.124Z" fill="#F78716"/>
<path d="M137.128 445.209H143.83L127.268 384.352H123.705C119.904 384.352 117.142 387.965 118.14 391.633L131.563 440.956C132.247 443.467 134.526 445.209 137.128 445.209Z" fill="#F78716"/>
<path d="M95.7015 227.275C95.7255 227.247 95.7515 227.219 95.7805 227.191C95.7325 228.335 95.0825 229.437 94.1035 230.032C92.6365 230.923 90.8955 230.306 89.3185 230.108C87.9245 229.934 86.3475 230.002 85.3435 230.985C84.2365 232.069 84.1745 233.937 83.0075 234.957C81.0135 236.7 77.4815 234.735 75.3955 236.368C73.5895 237.781 73.3805 240.81 74.1255 242.978C74.8705 245.147 76.3555 247.02 76.9655 249.23C77.5765 251.44 76.8495 254.354 74.6365 254.954C75.9125 253.04 74.5525 250.443 72.8625 248.882C71.1725 247.321 69.0295 246.001 68.3125 243.815C67.5645 241.536 68.6285 239.099 69.6685 236.937C71.4725 233.187 73.2775 229.438 75.0815 225.688C76.3995 222.95 77.7655 220.144 79.9885 218.072C84.9785 213.422 93.9585 214.188 98.0875 219.618C100.687 220.214 103.819 221.215 105.034 223.589C106.249 225.964 106.356 228.877 105.319 231.334C104.507 233.258 103.018 234.985 102.937 237.072C102.853 239.256 104.342 241.174 104.81 243.309C105.446 246.207 103.937 249.44 101.307 250.814C102.738 249.793 103.12 247.77 102.761 246.049C102.402 244.328 101.455 242.799 100.67 241.226C99.8855 239.653 99.2405 237.896 99.5545 236.167C99.7495 235.092 100.301 234.116 100.616 233.07C101.082 231.521 100.452 230.23 99.1525 229.374C98.5795 228.997 94.6295 228.503 95.7015 227.275Z" fill="#4C352D"/>
<path d="M73.125 238.678C73.125 240.351 74.385 241.708 75.938 241.708C77.491 241.708 78.751 240.351 78.751 238.678C78.751 237.005 77.491 235.648 75.938 235.648C74.385 235.648 73.125 237.005 73.125 238.678Z" fill="#FFA895"/>
<path d="M94.8402 235.463C94.8492 235.463 94.8572 235.466 94.8662 235.466C95.1452 235.419 95.7542 235.392 96.3792 235.865C96.9172 236.273 97.6492 235.928 97.6492 235.928C97.6492 235.928 97.3262 236.882 96.0222 236.899C96.0222 236.905 96.0242 236.911 96.0242 236.917C96.0242 237.721 95.4942 238.373 94.8412 238.373C94.1882 238.373 93.6582 237.721 93.6582 236.917C93.6572 236.114 94.1872 235.463 94.8402 235.463Z" fill="#4C352D"/>
<path d="M82.5463 235.463C82.5373 235.463 82.5293 235.466 82.5203 235.466C82.2413 235.419 81.6323 235.392 81.0073 235.865C80.4693 236.273 79.7373 235.928 79.7373 235.928C79.7373 235.928 80.0603 236.882 81.3643 236.899C81.3643 236.905 81.3633 236.911 81.3633 236.917C81.3633 237.721 81.8933 238.373 82.5463 238.373C83.1993 238.373 83.7293 237.721 83.7293 236.917C83.7293 236.114 83.2003 235.463 82.5463 235.463Z" fill="#4C352D"/>
<path d="M89.4949 243.254L89.4759 242.879L88.8699 242.91C88.3599 242.936 87.9049 242.686 87.6529 242.241C87.4009 241.796 87.4219 241.279 87.7069 240.856C88.0699 240.318 88.5889 239.962 88.5939 239.959L88.6749 239.904L88.7419 233.877L88.3659 233.873L88.3009 239.707C88.1269 239.838 87.7119 240.176 87.3939 240.647C87.0329 241.182 87.0069 241.864 87.3249 242.427C87.6439 242.99 88.2429 243.319 88.8879 243.286L89.4949 243.254Z" fill="#EA8C7D"/>
<path d="M92.5177 233.884C92.4127 233.517 92.6417 233.139 93.0147 233.06C94.4637 232.753 97.7957 232.14 99.0207 232.685C100.607 233.39 101.488 234.975 101.488 234.975L98.1397 233.565L93.2547 234.353C92.9257 234.408 92.6087 234.205 92.5177 233.884Z" fill="#4C352D"/>
<path d="M86.1341 233.884C86.2391 233.517 86.0111 233.139 85.6371 233.06C84.1881 232.753 80.8571 232.14 79.6311 232.685C78.0451 233.39 77.1641 234.975 77.1641 234.975L80.5121 233.565L85.3971 234.353C85.7251 234.408 86.0421 234.205 86.1341 233.884Z" fill="#4C352D"/>
<path d="M89.2795 248.585C91.1525 248.585 92.8125 247.557 93.5575 245.911C93.6995 245.598 93.5605 245.229 93.2475 245.087C92.9345 244.945 92.5655 245.083 92.4235 245.398C91.8545 246.656 90.5265 247.411 89.0655 247.335C87.9535 247.274 86.5885 246.669 86.0945 245.154C85.9875 244.828 85.6385 244.647 85.3095 244.756C84.9825 244.862 84.8045 245.214 84.9105 245.541C85.4875 247.308 87.0535 248.471 88.9975 248.578C89.0915 248.583 89.1855 248.585 89.2795 248.585Z" fill="#C1584D"/>
<path d="M313.701 334.66H299.847C284.21 334.66 271.533 321.983 271.533 306.346V260.125C271.533 244.488 284.21 231.811 299.847 231.811H313.701V334.66Z" fill="#67CEA4"/>
<path d="M313.186 334.66H302.301C290.014 334.66 280.054 324.7 280.054 312.413V254.058C280.054 241.771 290.014 231.811 302.301 231.811H313.186V334.66Z" fill="#50B288"/>
<path d="M316.895 256.055H276.799C271.542 256.055 267.281 251.794 267.281 246.537V237.223C267.281 231.966 271.542 227.705 276.799 227.705H316.895V256.055Z" fill="#597F6F"/>
<path d="M352.457 246.754C352.457 246.754 352.177 241.935 355.644 241.076C359.111 240.216 363.011 234.075 363.011 234.075C363.011 234.075 365.229 227.078 364.646 224.629C364.365 223.446 364.805 223.995 363.939 223.833C363.07 223.67 362.338 224.49 362.596 225.337L362.941 226.472L357.948 228.53L352.885 228.771C352.885 228.771 353.042 233.373 353.834 229.792C354.626 226.212 352.12 225.968 352.12 225.968C351.848 228.061 348.058 233.298 345.722 235.533C343.386 237.767 345.818 242.994 345.818 242.994L346.825 249.234L352.457 246.754Z" fill="#F29E8F"/>
<path d="M308.82 248.296C305.667 250.075 304.312 253.067 307.525 261.503C307.525 261.503 317.11 285.946 343.339 288.555C344.163 288.637 344.867 287.923 345.148 287.144L348.503 279.476C351.797 271.852 353.201 261.511 354.763 253.353L355.617 243.199L343.259 239.766C343.259 239.766 338.453 254.87 337.996 272.263C337.996 272.263 326.612 255.758 316.393 249.282C314.003 247.767 311.283 246.906 308.82 248.296Z" fill="#A3C6D6"/>
<path d="M337.912 433.718L338.305 441.909H328.437L328.189 432.08L337.912 433.718Z" fill="#FFA895"/>
<path d="M332.734 440.804C332.734 440.804 334.263 436.787 338.849 437.912C338.849 437.912 342.365 441.929 344.964 442.893C347.563 443.857 353.067 442.893 353.067 447.071V448.517H327.383V439.52C327.383 439.52 331.511 438.073 332.734 440.804Z" fill="#684229"/>
<path d="M327.077 449.023H353.372V447.958H327.077V449.023Z" fill="#B9BFC1"/>
<path d="M341.346 440.428C341.447 440.52 341.56 440.62 341.679 440.725C341.257 440.822 340.037 441.206 339.467 442.491L339.145 442.333C339.696 441.094 340.749 440.61 341.346 440.428Z" fill="#B9BFC1"/>
<path d="M342.571 441.473C342.676 441.556 342.783 441.639 342.891 441.721C342.549 441.895 341.385 442.585 341.129 444.032L340.78 443.964C341.036 442.519 342.062 441.765 342.571 441.473Z" fill="#B9BFC1"/>
<path d="M343.889 442.402C344.006 442.472 344.121 442.537 344.235 442.597C343.894 442.857 342.91 443.727 342.881 445.156L342.526 445.148C342.555 443.702 343.425 442.788 343.889 442.402Z" fill="#B9BFC1"/>
<path d="M318.215 433.718L318.95 441.909H309.082L308.492 432.08L318.215 433.718Z" fill="#FFA895"/>
<path d="M313.377 440.804C313.377 440.804 314.906 436.787 319.492 437.912C319.492 437.912 323.008 441.929 325.607 442.893C328.206 443.857 333.71 442.893 333.71 447.071V448.517H308.027V439.52C308.027 439.52 312.154 438.073 313.377 440.804Z" fill="#7C5133"/>
<path d="M307.722 449.023H334.017V447.958H307.722V449.023Z" fill="#B9BFC1"/>
<path d="M321.99 440.428C322.091 440.52 322.204 440.62 322.323 440.725C321.901 440.822 320.681 441.206 320.111 442.491L319.789 442.333C320.34 441.094 321.393 440.61 321.99 440.428Z" fill="#B9BFC1"/>
<path d="M323.216 441.473C323.321 441.556 323.428 441.639 323.536 441.721C323.194 441.895 322.03 442.585 321.774 444.032L321.425 443.964C321.681 442.519 322.707 441.765 323.216 441.473Z" fill="#B9BFC1"/>
<path d="M324.534 442.402C324.651 442.472 324.766 442.537 324.88 442.597C324.539 442.857 323.555 443.727 323.526 445.156L323.171 445.148C323.2 443.702 324.07 442.788 324.534 442.402Z" fill="#B9BFC1"/>
<path d="M339.189 436.183H326.779L321.554 363.319L316.36 348.609C308.071 318.546 322.61 303.992 322.61 303.992L333.666 307.37L341.9 367.218C342.101 369.582 342.106 371.958 341.914 374.323L339.189 436.183Z" fill="#525A5B"/>
<path d="M305.459 326.312C305.459 326.312 302.034 327.923 297.88 326.312C297.88 326.312 297.569 330.257 301.825 330.465C301.825 330.465 305.356 330.674 305.459 326.312Z" fill="white"/>
<path d="M323.555 366.27L319.694 306.407L307.655 302.756C307.655 302.756 292.771 304.435 298.401 347.141L307.492 435.783H319.777L323.424 373.374C323.664 371.014 323.708 368.638 323.555 366.27Z" fill="#666C6D"/>
<path d="M300.256 226.37C300.256 226.37 298.257 234.7 308.253 234.7L309.253 225.371L300.256 226.37Z" fill="#4E341F"/>
<path d="M313.731 264.069C323.213 264.069 330.898 258.912 330.898 252.55C330.898 246.188 323.213 241.031 313.731 241.031C304.25 241.031 296.564 246.188 296.564 252.55C296.564 258.912 304.25 264.069 313.731 264.069Z" fill="#FFA895"/>
<path d="M312.372 231.384C320.069 231.384 326.307 225.623 326.307 218.515C326.307 211.408 320.069 205.646 312.372 205.646C304.676 205.646 298.438 211.408 298.438 218.515C298.438 225.623 304.676 231.384 312.372 231.384Z" fill="#4E341F"/>
<path d="M321.477 239.412C329.333 238.08 334.463 229.696 332.936 220.685C331.409 211.674 323.802 205.449 315.946 206.78C308.09 208.112 302.96 216.496 304.487 225.507C306.014 234.518 313.621 240.743 321.477 239.412Z" fill="#FFA895"/>
<path d="M314.969 209.316C314.44 211.394 316.539 213.319 318.709 213.9C320.879 214.481 323.21 214.232 325.406 214.715C328.512 215.398 331.192 217.624 332.314 220.454C333.363 216.696 334.423 212.565 334.149 208.686C333.874 204.808 331.253 199.36 327.709 197.406C320.61 193.492 311.591 193.565 305.582 199.573C298.132 199.041 295.133 206.381 295.17 212.704C295.194 216.782 296.76 220.767 299.134 224.167C299.937 219.205 304.283 214.818 309.199 212.955C311.257 212.175 313.787 211.097 314.969 209.316Z" fill="#4E341F"/>
<path d="M308.185 248.23H317.949V225.71H308.185V248.23Z" fill="#FFA895"/>
<path d="M310.251 210.377C310.251 210.377 310.584 219.706 303.92 220.373L300.921 217.374C300.921 217.374 307.586 211.377 310.251 210.377Z" fill="#4E341F"/>
<path d="M294.858 250.062C296.087 247.024 301.426 243.95 305.445 242.46C305.454 245.526 309.16 248.009 313.731 248.009C318.302 248.009 322.008 245.525 322.017 242.46C322.017 242.46 327.887 242.236 337.923 248.545L335.462 319.543H296.594L299.814 297.883C299.674 288.111 298.954 277.874 296.893 268.32L294.726 258.275C294.726 258.275 291.926 252.126 294.858 250.062Z" fill="#E4F0F9"/>
<path d="M304.686 295.132L302.345 319.544H296.593L299.813 297.884C299.673 288.112 298.953 277.875 296.892 268.321L294.725 258.276C294.725 258.276 294.647 257.209 294.739 255.797C298.19 263.359 304.686 279.651 304.686 295.132Z" fill="#BFD4E0"/>
<path d="M322.317 230.64L322.275 230.207L322.976 230.139C323.565 230.081 324.044 229.717 324.256 229.163C324.468 228.61 324.356 228.02 323.956 227.585C323.448 227.031 322.791 226.712 322.785 226.709L322.682 226.66L321.569 219.764L321.999 219.695L323.077 226.37C323.299 226.49 323.833 226.807 324.278 227.291C324.783 227.842 324.931 228.62 324.663 229.319C324.394 230.019 323.765 230.5 323.019 230.572L322.317 230.64Z" fill="#E87562"/>
<path d="M294.836 302.998V297.755C298.605 297.755 304.083 293.666 305.895 289.499C310.613 278.647 310.019 268.387 304.131 259.003C299.684 251.916 293.837 248.054 293.778 248.016L296.642 243.625C296.92 243.807 303.519 248.165 308.572 256.217C313.291 263.737 317.491 275.979 310.703 291.591C308.357 296.986 301.263 302.998 294.836 302.998Z" fill="#597F6F"/>
<path d="M297.257 295.357H291.116V306.82H297.257V295.357Z" fill="#597F6F"/>
<path d="M280.184 315.885H276.367C272.058 315.885 268.565 312.392 268.565 308.083V293.102H280.184V315.885Z" fill="#50B288"/>
<path d="M314.559 205.223C315.01 207.422 315.461 209.694 315.006 211.891C314.551 214.089 312.944 216.211 310.724 216.54C311.462 213.928 310.513 210.919 308.409 209.204C309.579 206.84 311.923 205.332 314.559 205.223Z" fill="#4E341F"/>
<path d="M298.771 224.486C298.771 226.764 300.618 228.611 302.896 228.611C305.174 228.611 307.021 226.764 307.021 224.486C307.021 222.208 305.174 220.361 302.896 220.361C300.618 220.361 298.771 222.208 298.771 224.486Z" fill="#FFA895"/>
<path d="M319.352 218.819C319.489 218.34 319.191 217.847 318.704 217.743C316.814 217.343 311.92 216.821 309.914 217.601C307.805 218.421 307.657 220.241 307.657 220.241L311.697 219.496L318.391 219.431C318.819 219.5 319.233 219.237 319.352 218.819Z" fill="#4E341F"/>
<path d="M322.584 219.08C322.403 218.707 322.577 218.26 322.961 218.106C324.452 217.508 327.895 216.232 329.305 216.586C331.13 217.043 332.366 218.572 332.366 218.572L328.635 218.381L323.459 219.444C323.117 219.561 322.741 219.406 322.584 219.08Z" fill="#4E341F"/>
<path d="M316.454 232.986C319.178 236.117 323.804 236.152 326.595 233.091C327.27 232.351 326.172 231.247 325.494 231.99C323.241 234.46 319.743 234.4 317.554 231.885C316.894 231.127 315.798 232.233 316.454 232.986Z" fill="#C1584D"/>
<path d="M328.806 219.321C327.236 219.321 325.963 221.292 325.963 223.723C325.963 226.154 327.236 228.125 328.806 228.125L344.824 229.592V217.854L328.806 219.321Z" fill="#A1C0CE"/>
<path d="M360.618 231.788C363.495 231.788 365.827 228.177 365.827 223.723C365.827 219.269 363.495 215.658 360.618 215.658C357.741 215.658 355.409 219.269 355.409 223.723C355.409 228.177 357.741 231.788 360.618 231.788Z" fill="#405C66"/>
<path d="M338.607 217.673C336.449 217.673 334.7 220.381 334.7 223.722C334.7 227.063 336.449 229.771 338.607 229.771L360.618 231.787V215.656L338.607 217.673Z" fill="#405C66"/>
<path d="M360.618 230.625C358.424 230.625 356.57 227.463 356.57 223.72C356.57 219.978 358.424 216.816 360.618 216.816C362.812 216.816 364.666 219.978 364.666 223.72C364.666 227.464 362.812 230.625 360.618 230.625Z" fill="white"/>
<path d="M315.363 220.832C313.793 220.832 312.52 222.803 312.52 225.234C312.52 227.665 313.793 229.636 315.363 229.636L331.381 231.103V219.365L315.363 220.832Z" fill="#425E68"/>
<path d="M347.176 233.3C350.053 233.3 352.385 229.689 352.385 225.235C352.385 220.781 350.053 217.17 347.176 217.17C344.299 217.17 341.967 220.781 341.967 225.235C341.967 229.689 344.299 233.3 347.176 233.3Z" fill="#526E7A"/>
<path d="M325.164 219.185C323.006 219.185 321.257 221.893 321.257 225.234C321.257 228.575 323.006 231.283 325.164 231.283L347.175 233.299V217.168L325.164 219.185Z" fill="#526E7A"/>
<path d="M347.176 232.139C344.982 232.139 343.128 228.977 343.128 225.234C343.128 221.491 344.982 218.33 347.176 218.33C349.37 218.33 351.224 221.492 351.224 225.234C351.224 228.977 349.37 232.139 347.176 232.139Z" fill="white"/>
<path d="M334.734 247.463C334.734 247.463 336.178 242.714 339.667 243.17C343.155 243.627 349.788 240.627 349.788 240.627C349.788 240.627 354.296 234.704 354.626 232.127C354.785 230.882 354.113 230.099 353.376 229.622C352.635 229.143 351.702 229.301 351.145 230.416L350.119 231.973L348.82 233.372C347.307 235.001 345.064 235.739 342.879 235.325L339.998 234.78C339.998 234.78 339.998 234.78 341.99 231.622C343.982 228.464 341.766 227.301 341.766 227.301C340.778 229.218 335.447 232.862 332.512 234.15C329.577 235.438 329.965 241.378 329.965 241.378L328.686 247.767L334.734 247.463Z" fill="#FFA895"/>
<path d="M295.971 248.296C292.967 250.075 291.676 253.067 294.738 261.503C294.738 261.503 303.871 285.946 328.86 288.555C329.645 288.637 330.316 287.923 330.584 287.144L333.781 279.476C336.92 271.852 338.257 261.511 339.745 253.353L340.559 243.199L328.785 239.766C328.785 239.766 324.206 254.87 323.77 272.263C323.77 272.263 312.924 255.758 303.187 249.282C300.909 247.767 298.318 246.906 295.971 248.296Z" fill="#BFD4E0"/>
<path d="M406.841 318.583H397.314C386.56 318.583 377.843 309.866 377.843 299.112V268.067C377.843 257.313 386.56 248.596 397.314 248.596H406.841V318.583Z" fill="#E24D71"/>
<path d="M386.184 318.583H406.841V300.422H377.843V310.241C377.842 314.848 381.577 318.583 386.184 318.583Z" fill="#727C78"/>
<path d="M428.116 217.36C425.818 212.795 421.307 209.411 416.281 208.483C411.256 207.555 405.833 209.104 402.056 212.547C396.589 212.905 391.794 217.365 391.315 222.822C390.952 226.953 392.808 231.048 392.396 235.174C392.007 239.061 389.627 242.712 390.103 246.59C390.379 248.838 391.59 250.845 392.371 252.971C393.152 255.097 393.435 257.683 392.028 259.458C399.281 261.06 406.69 260.785 413.727 258.407C412.445 249.755 414.67 240.635 419.793 233.547C421.63 231.005 423.818 228.719 425.492 226.067C427.165 223.415 429.526 220.161 428.116 217.36Z" fill="#4E341F"/>
<path d="M415.181 372.549C415.181 372.549 413.491 404.242 416.026 429.174L416.449 438.893H427.013L432.394 396.519C433.312 389.29 433.508 381.987 432.98 374.719L432.085 362.406L415.181 372.549Z" fill="#F49282"/>
<path d="M398.7 372.549C398.7 372.549 397.01 404.242 399.545 429.174L399.968 438.893H410.532L415.913 396.519C416.831 389.29 417.027 381.987 416.499 374.719L415.604 362.406L398.7 372.549Z" fill="#FFA895"/>
<path d="M412.05 374.285L436.243 373.731L436.264 373.14C436.45 370.775 436.439 368.398 436.232 366.035L431.7 320.421L418.882 302.902C418.882 302.902 400.98 308.092 409.197 356.186L412.05 374.285Z" fill="#A07355"/>
<path d="M437.445 368.408L410.311 369.029L410.466 375.813L437.601 375.192L437.445 368.408Z" fill="#B58564"/>
<path d="M397.254 374.474H421.453L421.488 373.884C421.728 371.524 421.772 369.148 421.619 366.78L417.758 306.917L405.719 303.266C405.719 303.266 387.703 308.045 394.816 356.314L397.254 374.474Z" fill="#B7896A"/>
<path d="M422.792 369.195H395.649V375.981H422.792V369.195Z" fill="#C19374"/>
<path d="M462.088 276.388C458.705 288.074 452.948 293.147 451.396 294.343C448.398 283.514 439.369 253.721 430.928 254.392C430.928 254.392 428.238 262.168 429.058 272.479C429.878 282.79 440.265 304.65 440.265 304.65C443.485 312.521 449.209 313.952 449.209 313.952C465.666 310.375 473.272 279.763 473.272 279.763L462.088 276.388Z" fill="#E1CA62"/>
<path d="M411.852 276.016C423.075 276.016 432.172 269.912 432.172 262.382C432.172 254.852 423.075 248.748 411.852 248.748C400.63 248.748 391.532 254.852 391.532 262.382C391.532 269.912 400.63 276.016 411.852 276.016Z" fill="#FFA895"/>
<path d="M390.053 254.842C390.679 254.455 391.336 254.128 392.029 253.877C394.952 251.831 399.628 250.516 402.597 250.219C402.057 250.661 400.387 252.232 400.633 254.639C401.179 259.988 405.195 262.763 412.365 262.763C419.535 262.763 424.383 260.269 424.078 254.629C423.98 252.812 422.158 250.879 422.124 250.594C422.124 250.594 430.152 252.335 433.04 254.745C433.04 254.745 433.254 265.64 434.606 268.074C435.958 270.508 440.015 278.892 436.229 285.924C432.443 292.956 428.325 308.752 431.653 320.733C431.653 320.733 413.263 332.013 394.293 321.363C394.293 321.363 399.177 299.334 394.79 289.488C394.79 289.488 400.386 271.325 390.053 254.842Z" fill="#F2E28F"/>
<path d="M393.244 261.186C393.244 261.186 393.266 261.215 393.305 261.268C393.34 261.356 393.376 261.443 393.41 261.531C393.355 261.415 393.301 261.3 393.244 261.186Z" fill="#E56363"/>
<path d="M396.24 275.041C396.128 270.557 395.406 265.701 393.41 261.529C393.376 261.441 393.34 261.354 393.305 261.266C394.182 262.438 404.357 276.315 403.81 288.886C403.279 301.107 427.214 296.522 430.555 295.823C430.729 295.787 430.878 295.947 430.829 296.118C430.606 296.897 430.106 298.747 429.895 300.399C429.797 301.164 429.15 301.738 428.378 301.738H407.469C403.845 301.738 400.784 304.42 400.304 308.012C399.966 310.537 399.797 321.279 400.072 324.061C399.168 323.639 395.218 321.883 394.295 321.365C394.295 321.365 399.179 299.336 394.792 289.49C394.792 289.49 396.672 283.383 396.24 275.041Z" fill="#E1CA62"/>
<path d="M394.791 289.489C394.791 289.489 396.434 282.827 396.24 275.041C396.672 283.383 394.791 289.489 394.791 289.489Z" fill="#E56363"/>
<path d="M443.095 311.147L425.804 303.467V243.668L443.095 251.348V311.147Z" fill="#81C0EF"/>
<path d="M443.095 311.147L460.385 303.467V243.668L443.095 251.348V311.147Z" fill="#6AB0DB"/>
<path d="M477.676 311.147L460.385 303.467V243.668L477.676 251.348V311.147Z" fill="#81C0EF"/>
<path d="M478.006 269.734H471.232C470.757 269.734 470.369 269.346 470.369 268.871V268.027C470.369 267.552 470.757 267.164 471.232 267.164H478.006C478.481 267.164 478.869 267.552 478.869 268.027V268.871C478.869 269.345 478.481 269.734 478.006 269.734Z" fill="#FFA895"/>
<path d="M478.006 274.816H471.232C470.757 274.816 470.369 274.428 470.369 273.953V273.109C470.369 272.634 470.757 272.246 471.232 272.246H478.006C478.481 272.246 478.869 272.634 478.869 273.109V273.953C478.869 274.428 478.481 274.816 478.006 274.816Z" fill="#FFA895"/>
<path d="M478.006 277.357H472.745C472.271 277.357 471.882 276.969 471.882 276.494V275.65C471.882 275.176 472.27 274.787 472.745 274.787H478.006C478.481 274.787 478.869 275.175 478.869 275.65V276.494C478.869 276.969 478.481 277.357 478.006 277.357Z" fill="#FFA895"/>
<path d="M478.005 272.238H470.217C469.742 272.238 469.354 271.85 469.354 271.375V270.531C469.354 270.056 469.742 269.668 470.217 269.668H478.005C478.48 269.668 478.868 270.056 478.868 270.531V271.375C478.868 271.85 478.48 272.238 478.005 272.238Z" fill="#FFA895"/>
<path d="M428.688 230.49C430.007 238.276 425.785 245.485 419.256 246.591C412.728 247.697 406.366 242.282 405.046 234.496C403.727 226.71 407.949 219.501 414.478 218.395C421.007 217.289 427.369 222.704 428.688 230.49Z" fill="#FFA895"/>
<path d="M407.389 254.4H416.059V234.404H407.389V254.4Z" fill="#FFA895"/>
<path d="M420.229 238.775L420.19 238.374L420.838 238.311C421.383 238.258 421.826 237.92 422.022 237.408C422.218 236.896 422.114 236.351 421.745 235.948C421.275 235.436 420.667 235.14 420.662 235.137L420.567 235.091L419.537 228.712L419.935 228.648L420.932 234.823C421.137 234.934 421.632 235.227 422.043 235.675C422.51 236.185 422.647 236.904 422.4 237.551C422.151 238.199 421.569 238.643 420.879 238.711L420.229 238.775Z" fill="#E87562"/>
<path d="M420.236 438.827C420.236 438.827 421.888 434.487 426.843 435.703C426.843 435.703 430.642 440.043 433.45 441.084C436.258 442.126 442.204 441.084 442.204 445.597V447.159H414.457V437.439C414.455 437.439 418.914 435.876 420.236 438.827Z" fill="#D85959"/>
<path d="M414.125 447.707H442.533V446.556H414.125V447.707Z" fill="#C14D4D"/>
<path d="M429.54 438.422C429.649 438.522 429.771 438.63 429.9 438.743C429.444 438.848 428.127 439.262 427.511 440.65L427.163 440.479C427.757 439.141 428.895 438.618 429.54 438.422Z" fill="#C14D4D"/>
<path d="M430.864 439.551C430.978 439.641 431.093 439.73 431.21 439.819C430.84 440.007 429.583 440.753 429.306 442.316L428.929 442.242C429.206 440.681 430.314 439.866 430.864 439.551Z" fill="#C14D4D"/>
<path d="M432.288 440.557C432.414 440.633 432.539 440.703 432.662 440.768C432.293 441.049 431.23 441.989 431.199 443.533L430.815 443.524C430.847 441.961 431.787 440.973 432.288 440.557Z" fill="#C14D4D"/>
<path d="M404.256 438.827C404.256 438.827 405.908 434.487 410.862 435.703C410.862 435.703 414.661 440.043 417.469 441.084C420.277 442.126 426.223 441.084 426.223 445.597V447.159H398.476V437.439C398.476 437.439 402.935 435.876 404.256 438.827Z" fill="#E87070"/>
<path d="M398.146 447.707H426.554V446.556H398.146V447.707Z" fill="#C14D4D"/>
<path d="M413.56 438.422C413.669 438.522 413.791 438.63 413.92 438.743C413.464 438.848 412.147 439.262 411.531 440.65L411.183 440.479C411.778 439.141 412.916 438.618 413.56 438.422Z" fill="#C14D4D"/>
<path d="M414.884 439.551C414.998 439.641 415.113 439.73 415.23 439.819C414.86 440.007 413.603 440.753 413.326 442.316L412.949 442.242C413.225 440.681 414.334 439.866 414.884 439.551Z" fill="#C14D4D"/>
<path d="M416.308 440.557C416.434 440.633 416.559 440.703 416.682 440.768C416.313 441.049 415.25 441.989 415.219 443.533L414.835 443.524C414.867 441.961 415.808 440.973 416.308 440.557Z" fill="#C14D4D"/>
<path d="M414.001 227.299C413.992 227.299 413.984 227.302 413.975 227.302C413.696 227.255 413.087 227.228 412.462 227.701C411.924 228.109 411.192 227.764 411.192 227.764C411.192 227.764 411.515 228.718 412.819 228.735C412.819 228.741 412.818 228.747 412.818 228.753C412.818 229.557 413.347 230.209 414.001 230.209C414.654 230.209 415.184 229.557 415.184 228.753C415.184 227.951 414.654 227.299 414.001 227.299Z" fill="#402B1A"/>
<path d="M416.324 225.724C416.429 225.357 416.2 224.978 415.827 224.899C414.378 224.592 411.046 223.979 409.821 224.524C408.235 225.229 407.354 226.814 407.354 226.814L410.702 225.404L415.587 226.192C415.916 226.246 416.233 226.045 416.324 225.724Z" fill="#402B1A"/>
<path d="M424.418 227.299C424.409 227.299 424.401 227.302 424.392 227.302C424.113 227.255 423.504 227.228 422.879 227.701C422.341 228.109 421.609 227.764 421.609 227.764C421.609 227.764 421.932 228.718 423.236 228.735C423.236 228.741 423.235 228.747 423.235 228.753C423.235 229.557 423.764 230.209 424.418 230.209C425.071 230.209 425.601 229.557 425.601 228.753C425.601 227.951 425.071 227.299 424.418 227.299Z" fill="#402B1A"/>
<path d="M420.967 225.875C420.862 225.508 421.091 225.129 421.464 225.05C422.913 224.743 426.244 224.13 427.47 224.675C429.056 225.38 429.937 226.965 429.937 226.965L426.589 225.555L421.704 226.343C421.375 226.397 421.059 226.196 420.967 225.875Z" fill="#402B1A"/>
<path d="M425.621 225.811C428.149 227.027 429.721 229.976 429.319 232.753C432.471 228.788 432.808 222.815 430.121 218.522C427.434 214.229 421.915 211.92 416.971 213.021C414.906 213.481 412.902 214.537 411.685 216.268C410.468 217.999 410.191 220.462 411.341 222.238C412.721 224.371 415.577 224.944 418.117 224.974C420.658 225.003 423.332 224.71 425.621 225.811Z" fill="#4E341F"/>
<path d="M410.059 217.611C411.165 220.848 410.669 224.591 408.757 227.428C406.845 230.265 403.563 232.13 400.147 232.32C399.157 229.246 400.286 225.429 402.402 222.989C404.518 220.549 407.247 219.2 410.059 217.611Z" fill="#4E341F"/>
<path d="M399.962 233.618C399.962 235.641 401.602 237.281 403.625 237.281C405.648 237.281 407.288 235.641 407.288 233.618C407.288 231.595 405.648 229.955 403.625 229.955C401.602 229.955 399.962 231.595 399.962 233.618Z" fill="#FFA895"/>
<path d="M390.513 305.135V300.347C393.955 300.347 398.958 296.613 400.612 292.808C404.921 282.898 404.378 273.528 399.001 264.957C394.94 258.485 389.6 254.958 389.546 254.923L393.62 252.729C393.874 252.895 398.442 255.059 403.056 262.412C407.365 269.28 411.201 280.459 405.002 294.717C402.861 299.645 396.383 305.135 390.513 305.135Z" fill="#727C78"/>
<path d="M392.724 298.156H387.116V308.625H392.724V298.156Z" fill="#727C78"/>
<path d="M421.681 279.399L422.634 275.399L425.682 267.589C425.682 267.589 435.206 264.541 436.73 264.922C438.254 265.303 438.444 267.779 437.302 269.113C437.302 269.113 438.254 270.256 437.112 271.97C437.112 271.97 437.493 274.256 436.35 275.018C436.35 275.018 436.16 276.732 434.064 276.923L428.54 280.161L426.445 284.161L420.921 283.018L421.681 279.399Z" fill="#FFA895"/>
<path d="M421.238 276.765C417.855 288.451 412.097 293.524 410.546 294.72C407.549 283.891 398.519 254.098 390.078 254.769C390.078 254.769 385.645 259.168 386.465 269.479C387.285 279.79 399.414 305.028 399.414 305.028C402.634 312.899 408.358 314.33 408.358 314.33C424.815 310.752 432.421 280.141 432.421 280.141L421.238 276.765Z" fill="#E1CA62"/>
<path d="M420.474 242.24C418.601 242.24 416.941 241.212 416.196 239.566C416.054 239.253 416.193 238.884 416.507 238.742C416.82 238.6 417.189 238.739 417.331 239.053C417.9 240.31 419.221 241.075 420.689 240.989C421.801 240.928 423.165 240.323 423.66 238.809C423.767 238.483 424.117 238.302 424.445 238.411C424.772 238.517 424.95 238.869 424.843 239.196C424.266 240.963 422.701 242.126 420.756 242.233C420.662 242.237 420.568 242.24 420.474 242.24Z" fill="#C1584D"/>
</svg>
