<svg width="120" height="121" viewBox="0 0 120 121" fill="none" xmlns="http://www.w3.org/2000/svg">
<rect y="0.849609" width="120" height="120" rx="17.8037" fill="white"/>
<path fill-rule="evenodd" clip-rule="evenodd" d="M44.3047 62.7944C35.5169 62.7944 28.3672 55.6245 28.3672 46.812C28.3672 37.9994 35.5169 30.8296 44.3047 30.8296C53.0924 30.8296 60.2421 37.9994 60.2421 46.812C60.2421 55.625 53.0924 62.7944 44.3047 62.7944ZM44.3047 32.9766C36.6968 32.9766 30.5076 39.1832 30.5076 46.8125C30.5076 54.4417 36.6968 60.6484 44.3047 60.6484C51.9125 60.6484 58.1017 54.4417 58.1017 46.8125C58.1017 39.1832 51.9125 32.9766 44.3047 32.9766Z" fill="#1D3071"/>
<path fill-rule="evenodd" clip-rule="evenodd" d="M44.3052 57.2323C38.5755 57.2323 33.9141 52.5577 33.9141 46.8119C33.9141 41.0662 38.5755 36.3916 44.3052 36.3916C50.0348 36.3916 54.6962 41.0662 54.6962 46.8119C54.6962 52.5577 50.0348 57.2323 44.3052 57.2323ZM44.3052 38.5386C39.756 38.5386 36.0545 42.25 36.0545 46.8124C36.0545 51.375 39.7555 55.0863 44.3052 55.0863C48.8548 55.0863 52.5558 51.375 52.5558 46.8124C52.5558 42.25 48.8548 38.5386 44.3052 38.5386Z" fill="#1D3071"/>
<path fill-rule="evenodd" clip-rule="evenodd" d="M44.4729 51.5561H42.4614C41.8704 51.5561 41.3911 51.0755 41.3911 50.4829C41.3911 49.8902 41.8704 49.4097 42.4614 49.4097H44.4729C44.6994 49.4097 45.079 49.4097 45.079 48.4091C45.079 48.0739 44.8072 47.8008 44.4729 47.8008C42.6008 47.8008 41.3906 46.7195 41.3906 45.0466V44.8224C41.3906 43.3034 42.6229 42.0676 44.1377 42.0676L46.1497 42.0682C46.7407 42.0682 47.2199 42.5487 47.2199 43.1414C47.2199 43.734 46.7407 44.2146 46.1497 44.2146H44.1377C43.8034 44.2146 43.531 44.4872 43.531 44.8229V45.047C43.531 45.2596 43.531 45.6549 44.4729 45.6549C45.9876 45.6549 47.2194 46.8906 47.2194 48.4096C47.2199 50.3208 46.1417 51.5561 44.4729 51.5561Z" fill="#1D3071"/>
<path fill-rule="evenodd" clip-rule="evenodd" d="M44.4979 53.6446C43.907 53.6446 43.4277 53.164 43.4277 52.5713V50.5394C43.4277 49.9468 43.907 49.4662 44.4979 49.4662C45.0889 49.4662 45.5682 49.9468 45.5682 50.5394V52.5713C45.5676 53.164 45.0889 53.6446 44.4979 53.6446ZM44.4979 44.2207C43.907 44.2207 43.4277 43.7401 43.4277 43.1475V41.0525C43.4277 40.4599 43.907 39.9792 44.4979 39.9792C45.0889 39.9792 45.5682 40.4599 45.5682 41.0525V43.1475C45.5676 43.7406 45.0889 44.2207 44.4979 44.2207Z" fill="#1D3071"/>
<path fill-rule="evenodd" clip-rule="evenodd" d="M50.8922 41.2763C50.6184 41.2763 50.3445 41.1712 50.1356 40.9617C49.7178 40.5427 49.7178 39.8633 50.1356 39.4443L54.0576 35.5113C54.4754 35.0923 55.153 35.0923 55.5708 35.5113C55.9886 35.9303 55.9886 36.6098 55.5708 37.0287L51.6488 40.9617C51.4399 41.1717 51.1661 41.2763 50.8922 41.2763Z" fill="#1D3071"/>
<path fill-rule="evenodd" clip-rule="evenodd" d="M54.9973 58.2384C54.7234 58.2384 54.4496 58.1333 54.2407 57.9239L50.3192 53.9914C49.9014 53.5724 49.9014 52.8929 50.3192 52.4739C50.7371 52.0549 51.4146 52.0549 51.8324 52.4739L55.7539 56.4064C56.1717 56.8254 56.1717 57.5049 55.7539 57.9239C55.545 58.1334 55.2706 58.2384 54.9973 58.2384Z" fill="#1D3071"/>
<path fill-rule="evenodd" clip-rule="evenodd" d="M34.0426 58.6717C33.7688 58.6717 33.4949 58.5667 33.286 58.3572C32.8682 57.9382 32.8682 57.2587 33.286 56.8397L37.207 52.9078C37.6248 52.4888 38.3024 52.4888 38.7202 52.9078C39.138 53.3268 39.138 54.0062 38.7202 54.4252L34.7993 58.3572C34.5903 58.5672 34.3165 58.6717 34.0426 58.6717Z" fill="#1D3071"/>
<path fill-rule="evenodd" clip-rule="evenodd" d="M37.6487 41.3388C37.3748 41.3388 37.101 41.2339 36.8921 41.0244L32.9696 37.0909C32.5518 36.6719 32.5518 35.9924 32.9696 35.5734C33.3874 35.1544 34.065 35.1544 34.4828 35.5734L38.4053 39.5069C38.8231 39.9259 38.8231 40.6054 38.4053 41.0244C38.1963 41.2343 37.9225 41.3388 37.6487 41.3388Z" fill="#1D3071"/>
<path fill-rule="evenodd" clip-rule="evenodd" d="M74.7728 88.2878C65.9861 88.2878 58.8379 81.1195 58.8379 72.308C58.8379 63.4965 65.9861 56.3281 74.7728 56.3281C83.5596 56.3281 90.7078 63.4965 90.7078 72.308C90.7078 81.1195 83.5596 88.2878 74.7728 88.2878ZM74.7728 58.4746C67.1666 58.4746 60.9783 64.6803 60.9783 72.308C60.9783 79.9357 67.1666 86.1414 74.7728 86.1414C82.3792 86.1414 88.5674 79.9357 88.5674 72.308C88.5678 64.6803 82.3792 58.4746 74.7728 58.4746Z" fill="#1D3071"/>
<path fill-rule="evenodd" clip-rule="evenodd" d="M74.7743 82.7268C69.0457 82.7268 64.3848 78.0533 64.3848 72.308C64.3848 66.5627 69.0452 61.8892 74.7743 61.8892C80.5029 61.8892 85.1639 66.5627 85.1639 72.308C85.1639 78.0532 80.5034 82.7268 74.7743 82.7268ZM74.7743 64.0361C70.2256 64.0361 66.5252 67.747 66.5252 72.3084C66.5252 76.8699 70.2256 80.5809 74.7743 80.5809C79.323 80.5809 83.0234 76.8699 83.0234 72.3084C83.0234 67.747 79.323 64.0361 74.7743 64.0361Z" fill="#1D3071"/>
<path fill-rule="evenodd" clip-rule="evenodd" d="M81.361 66.7738C81.0871 66.7738 80.8133 66.6692 80.6044 66.4593C80.1866 66.0403 80.1866 65.3608 80.6044 64.9418L84.5258 61.0093C84.9436 60.5903 85.6212 60.5903 86.039 61.0093C86.4568 61.4283 86.4568 62.1078 86.039 62.5268L82.1176 66.4593C81.9087 66.6687 81.6348 66.7738 81.361 66.7738Z" fill="#1D3071"/>
<path fill-rule="evenodd" clip-rule="evenodd" d="M85.4655 83.733C85.1917 83.733 84.9179 83.6285 84.7089 83.4185L80.788 79.4865C80.3702 79.0675 80.3702 78.388 80.788 77.969C81.2058 77.55 81.8834 77.55 82.3012 77.969L86.2222 81.901C86.6399 82.32 86.6399 82.9995 86.2222 83.4185C86.0132 83.628 85.7394 83.733 85.4655 83.733Z" fill="#1D3071"/>
<path fill-rule="evenodd" clip-rule="evenodd" d="M64.5133 84.1656C64.2395 84.1656 63.9656 84.0611 63.7567 83.8511C63.3389 83.4321 63.3389 82.7526 63.7567 82.3336L67.6772 78.4021C68.095 77.9831 68.7725 77.9831 69.1904 78.4021C69.6082 78.8211 69.6082 79.5006 69.1904 79.9196L65.2699 83.8511C65.0615 84.0611 64.7877 84.1656 64.5133 84.1656Z" fill="#1D3071"/>
<path fill-rule="evenodd" clip-rule="evenodd" d="M68.1183 66.8358C67.8445 66.8358 67.5706 66.7313 67.3617 66.5213L63.4403 62.5888C63.0225 62.1698 63.0225 61.4903 63.4403 61.0713C63.8581 60.6523 64.5357 60.6523 64.9535 61.0713L68.875 65.0038C69.2928 65.4228 69.2928 66.1023 68.875 66.5213C68.666 66.7313 68.3922 66.8358 68.1183 66.8358Z" fill="#1D3071"/>
<path fill-rule="evenodd" clip-rule="evenodd" d="M84.4419 53.8294C84.1696 53.8294 83.8957 53.7935 83.6254 53.7208C83.6209 53.7198 83.6158 53.7183 83.6113 53.7168L83.6012 53.7137L76.0805 51.693C75.2716 51.4759 74.596 50.9555 74.1772 50.2285C73.7584 49.5016 73.6471 48.6541 73.864 47.8433C74.081 47.0326 74.5995 46.3546 75.3244 45.9346C76.0291 45.5267 76.8467 45.4101 77.634 45.6029C74.7988 35.701 65.9155 36.3659 65.5243 36.4002C64.5608 36.4764 63.6361 36.1745 62.9097 35.5521C62.1833 34.9297 61.7423 34.0609 61.6673 33.1058C61.5133 31.134 62.9872 29.4045 64.9535 29.25C65.3637 29.2142 69.1593 28.9406 73.4679 30.6711C76.9534 32.0709 81.3329 35.0655 83.7945 41.4604C84.5043 40.3145 85.9048 39.7143 87.2695 40.0813C88.0784 40.2984 88.754 40.8188 89.1728 41.5458C89.5916 42.2732 89.7024 43.1203 89.4859 43.931L87.4704 51.4739C87.4683 51.482 87.4663 51.4901 87.4643 51.4976C87.2473 52.3089 86.7289 52.9863 86.0035 53.4063C85.5212 53.6865 84.9851 53.8294 84.4419 53.8294ZM84.1857 51.6491C84.4404 51.7157 84.7062 51.6799 84.9342 51.5481C85.1593 51.4179 85.3219 51.2089 85.3928 50.959C85.3944 50.9534 85.3959 50.9479 85.3974 50.9424L87.419 43.3757C87.4874 43.1183 87.4522 42.8497 87.3198 42.619C87.1869 42.3883 86.9725 42.2232 86.7162 42.1546C86.1867 42.0122 85.6405 42.3287 85.4985 42.8598L84.824 45.3838C84.6986 45.8533 84.2738 46.1794 83.7905 46.1794C83.7845 46.1794 83.7789 46.1794 83.7734 46.1794C83.2826 46.1714 82.8602 45.8301 82.7485 45.351C81.2715 39.0247 77.8816 34.756 72.6725 32.6641C68.7586 31.0921 65.2787 31.3763 65.1327 31.3889C64.3318 31.4521 63.7403 32.1467 63.8017 32.9382C63.8319 33.3218 64.0086 33.6707 64.3006 33.9201C64.592 34.1699 64.9631 34.2916 65.3456 34.2608C65.6477 34.234 68.4732 34.0311 71.6627 35.379C74.6584 36.645 78.5396 39.5704 80.0206 46.3183C80.0458 46.4339 80.085 46.5459 80.1374 46.6515C80.3241 47.0296 80.2728 47.4819 80.0065 47.808C79.7402 48.1341 79.3083 48.2739 78.9015 48.1649L77.1487 47.6939C76.8925 47.6252 76.6242 47.6606 76.3941 47.7933C76.1641 47.9266 75.9995 48.1417 75.931 48.3986C75.789 48.9297 76.1047 49.4774 76.6343 49.6197L84.1625 51.6425C84.1671 51.6436 84.1721 51.6451 84.1771 51.6466L84.1857 51.6491Z" fill="#1D3071"/>
<path fill-rule="evenodd" clip-rule="evenodd" d="M53.1624 89.9008C51.7021 89.9008 48.7648 89.7141 45.6131 88.4484C42.126 87.0486 37.7445 84.0546 35.2819 77.6571C34.5721 78.803 33.1716 79.4027 31.807 79.0362C30.998 78.8192 30.3224 78.2992 29.9036 77.5718C29.4848 76.8443 29.3741 75.9972 29.5905 75.1865L31.6056 67.6446C31.6076 67.636 31.6096 67.6279 31.6117 67.6199C32.0592 65.9454 33.7818 64.9474 35.4511 65.3972C35.4571 65.3987 35.4631 65.4002 35.4692 65.4022L35.4772 65.4048L42.9959 67.425C43.8048 67.6421 44.4804 68.1621 44.8993 68.8895C45.3181 69.617 45.4293 70.464 45.2124 71.2748C44.7709 72.926 43.0896 73.9184 41.4419 73.5151C44.2776 83.4231 53.1604 82.7527 53.5511 82.7178C54.5156 82.6421 55.4398 82.9435 56.1662 83.5659C56.8926 84.1884 57.3336 85.0571 57.4086 86.0123C57.4831 86.9674 57.1826 87.8942 56.5619 88.6226C55.9412 89.3511 55.0749 89.7933 54.1224 89.868C54.0786 89.872 53.7333 89.9003 53.1624 89.9008ZM35.2864 72.9386C35.2924 72.9386 35.298 72.9386 35.3035 72.9386C35.7943 72.9467 36.2167 73.2879 36.3284 73.767C37.8059 80.0948 41.1968 84.364 46.4079 86.456C50.3228 88.027 53.7977 87.7417 53.9437 87.7291C54.3379 87.6978 54.6857 87.5206 54.9349 87.2279C55.1841 86.9355 55.3049 86.563 55.2747 86.1798C55.2445 85.7962 55.0678 85.4473 54.7758 85.1975C54.4844 84.9476 54.1129 84.8265 53.7308 84.8567C53.4303 84.884 50.6092 85.088 47.4187 83.7411C44.4215 82.4755 40.5373 79.5501 39.0558 72.7998C39.0306 72.6842 38.9914 72.5721 38.939 72.4661C38.7523 72.0885 38.8036 71.6357 39.0699 71.3096C39.3367 70.9835 39.7686 70.8437 40.1749 70.9532L41.9277 71.4242C42.4572 71.5665 43.0034 71.25 43.1454 70.7189C43.2138 70.462 43.1786 70.1929 43.0462 69.9622C42.9133 69.7315 42.6989 69.5664 42.4426 69.4978L34.9144 67.475C34.9084 67.4735 34.9023 67.472 34.8962 67.47L34.8897 67.4679C34.3677 67.3321 33.8326 67.6396 33.6841 68.158C33.6826 68.1636 33.6811 68.1696 33.6796 68.1752L31.6579 75.7413C31.5895 75.9988 31.6247 76.2673 31.7571 76.4981C31.89 76.7288 32.1044 76.8938 32.3607 76.9625C32.8902 77.1053 33.4364 76.7888 33.5784 76.2572L34.2529 73.7332C34.3783 73.2642 34.8031 72.9386 35.2864 72.9386Z" fill="#1D3071"/>
<mask id="path-18-outside-1_662_12363" maskUnits="userSpaceOnUse" x="71" y="65.8496" width="8" height="13" fill="black">
<rect fill="white" x="71" y="65.8496" width="8" height="13"/>
<path d="M75.0231 77.8496L72.1859 72.8958V72.2353H72.5162C73.0466 72.2353 73.4919 72.1853 73.8522 72.0852C74.2225 71.9851 74.5127 71.82 74.7228 71.5898C74.933 71.3597 75.0581 71.0444 75.0981 70.6441H72.1859V69.6834H75.0831C75.0131 69.3131 74.8729 69.0129 74.6628 68.7827C74.4526 68.5425 74.1674 68.3674 73.8071 68.2573C73.4569 68.1472 73.0265 68.0922 72.5162 68.0922H72.1859V67.1314H78.4006V68.0922H75.5635C75.7937 68.2823 75.9838 68.5075 76.1339 68.7677C76.284 69.0279 76.3791 69.3331 76.4191 69.6834H78.4006V70.6441H76.4492C76.3791 71.3747 76.0989 71.9451 75.6085 72.3554C75.1281 72.7557 74.4877 73.0109 73.687 73.121L76.5542 77.8496H75.0231Z"/>
</mask>
<path d="M75.0231 77.8496L72.1859 72.8958V72.2353H72.5162C73.0466 72.2353 73.4919 72.1853 73.8522 72.0852C74.2225 71.9851 74.5127 71.82 74.7228 71.5898C74.933 71.3597 75.0581 71.0444 75.0981 70.6441H72.1859V69.6834H75.0831C75.0131 69.3131 74.8729 69.0129 74.6628 68.7827C74.4526 68.5425 74.1674 68.3674 73.8071 68.2573C73.4569 68.1472 73.0265 68.0922 72.5162 68.0922H72.1859V67.1314H78.4006V68.0922H75.5635C75.7937 68.2823 75.9838 68.5075 76.1339 68.7677C76.284 69.0279 76.3791 69.3331 76.4191 69.6834H78.4006V70.6441H76.4492C76.3791 71.3747 76.0989 71.9451 75.6085 72.3554C75.1281 72.7557 74.4877 73.0109 73.687 73.121L76.5542 77.8496H75.0231Z" fill="#1D3071"/>
<path d="M75.0231 77.8496L74.7627 77.9987L74.8492 78.1496H75.0231V77.8496ZM72.1859 72.8958H71.8859V72.9757L71.9256 73.0449L72.1859 72.8958ZM72.1859 72.2353V71.9353H71.8859V72.2353H72.1859ZM73.8522 72.0852L73.7739 71.7956L73.7719 71.7962L73.8522 72.0852ZM74.7228 71.5898L74.5013 71.3876L74.7228 71.5898ZM75.0981 70.6441L75.3966 70.674L75.4296 70.3441H75.0981V70.6441ZM72.1859 70.6441H71.8859V70.9441H72.1859V70.6441ZM72.1859 69.6834V69.3834H71.8859V69.6834H72.1859ZM75.0831 69.6834V69.9834H75.4452L75.3779 69.6276L75.0831 69.6834ZM74.6628 68.7827L74.437 68.9803L74.4412 68.985L74.6628 68.7827ZM73.8071 68.2573L73.7172 68.5435L73.7195 68.5442L73.8071 68.2573ZM72.1859 68.0922H71.8859V68.3922H72.1859V68.0922ZM72.1859 67.1314V66.8314H71.8859V67.1314H72.1859ZM78.4006 67.1314H78.7006V66.8314H78.4006V67.1314ZM78.4006 68.0922V68.3922H78.7006V68.0922H78.4006ZM75.5635 68.0922V67.7922H74.7293L75.3724 68.3235L75.5635 68.0922ZM76.1339 68.7677L75.8741 68.9176V68.9176L76.1339 68.7677ZM76.4191 69.6834L76.1211 69.7175L76.1515 69.9834H76.4191V69.6834ZM78.4006 69.6834H78.7006V69.3834H78.4006V69.6834ZM78.4006 70.6441V70.9441H78.7006V70.6441H78.4006ZM76.4492 70.6441V70.3441H76.1765L76.1505 70.6155L76.4492 70.6441ZM75.6085 72.3554L75.8006 72.5859L75.801 72.5855L75.6085 72.3554ZM73.687 73.121L73.6462 72.8238L73.1937 72.886L73.4305 73.2766L73.687 73.121ZM76.5542 77.8496V78.1496H77.087L76.8108 77.6941L76.5542 77.8496ZM75.2834 77.7005L72.4462 72.7467L71.9256 73.0449L74.7627 77.9987L75.2834 77.7005ZM72.4859 72.8958V72.2353H71.8859V72.8958H72.4859ZM72.1859 72.5353H72.5162V71.9353H72.1859V72.5353ZM72.5162 72.5353C73.0634 72.5353 73.5377 72.4839 73.9325 72.3743L73.7719 71.7962C73.4461 71.8866 73.0298 71.9353 72.5162 71.9353V72.5353ZM73.9304 72.3748C74.3431 72.2633 74.6877 72.0732 74.9444 71.7921L74.5013 71.3876C74.3376 71.5668 74.1018 71.707 73.7739 71.7956L73.9304 72.3748ZM74.9444 71.7921C75.2093 71.502 75.3521 71.1198 75.3966 70.674L74.7996 70.6143C74.7641 70.9691 74.6567 71.2173 74.5013 71.3876L74.9444 71.7921ZM75.0981 70.3441H72.1859V70.9441H75.0981V70.3441ZM72.4859 70.6441V69.6834H71.8859V70.6441H72.4859ZM72.1859 69.9834H75.0831V69.3834H72.1859V69.9834ZM75.3779 69.6276C75.2997 69.2141 75.1392 68.8596 74.8843 68.5804L74.4412 68.985C74.6067 69.1662 74.7265 69.4121 74.7883 69.7392L75.3779 69.6276ZM74.8886 68.5852C74.6354 68.2958 74.2988 68.0938 73.8948 67.9704L73.7195 68.5442C74.0361 68.6409 74.2699 68.7892 74.437 68.9803L74.8886 68.5852ZM73.8971 67.9711C73.5088 67.8491 73.0461 67.7922 72.5162 67.7922V68.3922C73.007 68.3922 73.4049 68.4454 73.7172 68.5435L73.8971 67.9711ZM72.5162 67.7922H72.1859V68.3922H72.5162V67.7922ZM72.4859 68.0922V67.1314H71.8859V68.0922H72.4859ZM72.1859 67.4314H78.4006V66.8314H72.1859V67.4314ZM78.1006 67.1314V68.0922H78.7006V67.1314H78.1006ZM78.4006 67.7922H75.5635V68.3922H78.4006V67.7922ZM75.3724 68.3235C75.5748 68.4907 75.7417 68.6882 75.8741 68.9176L76.3938 68.6178C76.2259 68.3268 76.0125 68.074 75.7545 67.8609L75.3724 68.3235ZM75.8741 68.9176C76.0004 69.1366 76.0849 69.401 76.1211 69.7175L76.7172 69.6493C76.6733 69.2652 76.5677 68.9192 76.3938 68.6178L75.8741 68.9176ZM76.4191 69.9834H78.4006V69.3834H76.4191V69.9834ZM78.1006 69.6834V70.6441H78.7006V69.6834H78.1006ZM78.4006 70.3441H76.4492V70.9441H78.4006V70.3441ZM76.1505 70.6155C76.0868 71.2801 75.8369 71.7732 75.416 72.1253L75.801 72.5855C76.3609 72.117 76.6714 71.4692 76.7478 70.6728L76.1505 70.6155ZM75.4165 72.125C74.9902 72.4802 74.4072 72.7192 73.6462 72.8238L73.7279 73.4182C74.5682 73.3027 75.2661 73.0313 75.8006 72.5859L75.4165 72.125ZM73.4305 73.2766L76.2977 78.0052L76.8108 77.6941L73.9436 72.9655L73.4305 73.2766ZM76.5542 77.5496H75.0231V78.1496H76.5542V77.5496Z" fill="#1D3071" mask="url(#path-18-outside-1_662_12363)"/>
</svg>
