<svg width="376" height="376" viewBox="0 0 376 376" fill="none" xmlns="http://www.w3.org/2000/svg">
<rect x="-0.00683594" y="-0.00683594" width="375.415" height="375.415" rx="187.708" fill="#FFB800"/>
<path d="M144.506 170.658V176.443H121.306V170.658H129.515V148.029C129.515 147.535 129.524 147.031 129.543 146.518C129.562 146.005 129.591 145.483 129.629 144.951L124.213 149.454C123.833 149.739 123.463 149.919 123.102 149.995C122.741 150.071 122.399 150.081 122.076 150.024C121.753 149.948 121.468 149.834 121.221 149.682C120.974 149.511 120.784 149.34 120.651 149.169L118.171 145.834L130.883 135.061H137.352V170.658H144.506ZM179.651 155.752C179.651 159.362 179.262 162.497 178.483 165.157C177.704 167.817 176.63 170.021 175.262 171.769C173.894 173.498 172.27 174.79 170.389 175.645C168.527 176.481 166.512 176.899 164.346 176.899C162.18 176.899 160.166 176.481 158.304 175.645C156.442 174.79 154.837 173.498 153.488 171.769C152.139 170.021 151.075 167.817 150.296 165.157C149.536 162.497 149.156 159.362 149.156 155.752C149.156 152.142 149.536 149.017 150.296 146.376C151.075 143.715 152.139 141.521 153.488 139.792C154.837 138.044 156.442 136.752 158.304 135.916C160.166 135.061 162.18 134.633 164.346 134.633C166.512 134.633 168.527 135.061 170.389 135.916C172.27 136.752 173.894 138.044 175.262 139.792C176.63 141.521 177.704 143.715 178.483 146.376C179.262 149.017 179.651 152.142 179.651 155.752ZM171.529 155.752C171.529 152.826 171.32 150.413 170.902 148.513C170.503 146.613 169.971 145.112 169.306 144.01C168.641 142.908 167.871 142.138 166.997 141.701C166.142 141.264 165.258 141.046 164.346 141.046C163.434 141.046 162.551 141.264 161.696 141.701C160.86 142.138 160.109 142.908 159.444 144.01C158.798 145.112 158.276 146.613 157.877 148.513C157.478 150.413 157.278 152.826 157.278 155.752C157.278 158.697 157.478 161.12 157.877 163.02C158.276 164.92 158.798 166.421 159.444 167.523C160.109 168.625 160.86 169.394 161.696 169.831C162.551 170.268 163.434 170.487 164.346 170.487C165.258 170.487 166.142 170.268 166.997 169.831C167.871 169.394 168.641 168.625 169.306 167.523C169.971 166.421 170.503 164.92 170.902 163.02C171.32 161.12 171.529 158.697 171.529 155.752ZM212.716 155.752C212.716 159.362 212.327 162.497 211.548 165.157C210.769 167.817 209.695 170.021 208.327 171.769C206.959 173.498 205.334 174.79 203.453 175.645C201.591 176.481 199.577 176.899 197.411 176.899C195.245 176.899 193.231 176.481 191.369 175.645C189.507 174.79 187.902 173.498 186.553 171.769C185.204 170.021 184.14 167.817 183.361 165.157C182.601 162.497 182.221 159.362 182.221 155.752C182.221 152.142 182.601 149.017 183.361 146.376C184.14 143.715 185.204 141.521 186.553 139.792C187.902 138.044 189.507 136.752 191.369 135.916C193.231 135.061 195.245 134.633 197.411 134.633C199.577 134.633 201.591 135.061 203.453 135.916C205.334 136.752 206.959 138.044 208.327 139.792C209.695 141.521 210.769 143.715 211.548 146.376C212.327 149.017 212.716 152.142 212.716 155.752ZM204.593 155.752C204.593 152.826 204.384 150.413 203.966 148.513C203.567 146.613 203.035 145.112 202.37 144.01C201.705 142.908 200.936 142.138 200.062 141.701C199.207 141.264 198.323 141.046 197.411 141.046C196.499 141.046 195.616 141.264 194.761 141.701C193.925 142.138 193.174 142.908 192.509 144.01C191.863 145.112 191.341 146.613 190.942 148.513C190.543 150.413 190.343 152.826 190.343 155.752C190.343 158.697 190.543 161.12 190.942 163.02C191.341 164.92 191.863 166.421 192.509 167.523C193.174 168.625 193.925 169.394 194.761 169.831C195.616 170.268 196.499 170.487 197.411 170.487C198.323 170.487 199.207 170.268 200.062 169.831C200.936 169.394 201.705 168.625 202.37 167.523C203.035 166.421 203.567 164.92 203.966 163.02C204.384 161.12 204.593 158.697 204.593 155.752ZM235.521 145.093C235.521 146.632 235.255 148.029 234.723 149.283C234.191 150.537 233.469 151.62 232.557 152.532C231.664 153.425 230.628 154.118 229.45 154.612C228.272 155.087 227.047 155.325 225.774 155.325C224.368 155.325 223.076 155.087 221.898 154.612C220.72 154.118 219.694 153.425 218.82 152.532C217.965 151.62 217.29 150.537 216.796 149.283C216.321 148.029 216.084 146.632 216.084 145.093C216.084 143.497 216.321 142.062 216.796 140.789C217.29 139.497 217.965 138.405 218.82 137.512C219.694 136.6 220.72 135.897 221.898 135.403C223.076 134.909 224.368 134.662 225.774 134.662C227.18 134.662 228.481 134.909 229.678 135.403C230.875 135.897 231.901 136.6 232.756 137.512C233.63 138.405 234.305 139.497 234.78 140.789C235.274 142.062 235.521 143.497 235.521 145.093ZM229.479 145.093C229.479 144.067 229.384 143.212 229.194 142.528C229.004 141.825 228.738 141.264 228.396 140.846C228.073 140.428 227.683 140.134 227.227 139.963C226.771 139.773 226.287 139.678 225.774 139.678C225.261 139.678 224.776 139.773 224.32 139.963C223.883 140.134 223.503 140.428 223.18 140.846C222.876 141.264 222.629 141.825 222.439 142.528C222.268 143.212 222.183 144.067 222.183 145.093C222.183 146.1 222.268 146.936 222.439 147.601C222.629 148.266 222.876 148.808 223.18 149.226C223.503 149.625 223.883 149.91 224.32 150.081C224.776 150.252 225.261 150.337 225.774 150.337C226.287 150.337 226.771 150.252 227.227 150.081C227.683 149.91 228.073 149.625 228.396 149.226C228.738 148.808 229.004 148.266 229.194 147.601C229.384 146.936 229.479 146.1 229.479 145.093ZM248.916 136.286C249.182 135.982 249.495 135.707 249.856 135.46C250.237 135.213 250.759 135.089 251.424 135.089H257.153L226.23 175.303C225.964 175.626 225.641 175.902 225.261 176.13C224.881 176.339 224.415 176.443 223.864 176.443H218.022L248.916 136.286ZM259.062 166.725C259.062 168.264 258.796 169.66 258.264 170.914C257.732 172.168 257.01 173.251 256.098 174.163C255.205 175.056 254.17 175.75 252.992 176.244C251.814 176.719 250.588 176.956 249.315 176.956C247.909 176.956 246.617 176.719 245.439 176.244C244.261 175.75 243.235 175.056 242.361 174.163C241.506 173.251 240.831 172.168 240.337 170.914C239.862 169.66 239.625 168.264 239.625 166.725C239.625 165.129 239.862 163.694 240.337 162.421C240.831 161.129 241.506 160.037 242.361 159.144C243.235 158.232 244.261 157.538 245.439 157.063C246.617 156.569 247.909 156.322 249.315 156.322C250.721 156.322 252.023 156.569 253.22 157.063C254.417 157.538 255.443 158.232 256.298 159.144C257.172 160.037 257.846 161.129 258.321 162.421C258.815 163.694 259.062 165.129 259.062 166.725ZM253.02 166.725C253.02 165.699 252.925 164.844 252.735 164.16C252.545 163.457 252.279 162.896 251.937 162.478C251.614 162.06 251.225 161.766 250.769 161.595C250.313 161.405 249.828 161.31 249.315 161.31C248.802 161.31 248.317 161.405 247.861 161.595C247.424 161.766 247.044 162.06 246.721 162.478C246.417 162.896 246.17 163.457 245.98 164.16C245.809 164.844 245.724 165.699 245.724 166.725C245.724 167.732 245.809 168.568 245.98 169.233C246.17 169.898 246.417 170.439 246.721 170.857C247.044 171.256 247.424 171.541 247.861 171.712C248.317 171.883 248.802 171.969 249.315 171.969C249.828 171.969 250.313 171.883 250.769 171.712C251.225 171.541 251.614 171.256 251.937 170.857C252.279 170.439 252.545 169.898 252.735 169.233C252.925 168.568 253.02 167.732 253.02 166.725Z" fill="#1D2F71"/>
<path d="M107.914 226.135H99.7495V249.417H93.9532V226.135H85.7882V221.475H107.914V226.135ZM111.914 232.837C112.543 231.707 113.268 230.815 114.09 230.16C114.911 229.505 115.874 229.178 116.978 229.178C117.877 229.178 118.609 229.39 119.174 229.813L118.827 233.742C118.763 233.998 118.66 234.178 118.519 234.281C118.39 234.371 118.211 234.416 117.98 234.416C117.774 234.416 117.479 234.39 117.094 234.339C116.709 234.275 116.349 234.242 116.015 234.242C115.528 234.242 115.091 234.313 114.706 234.454C114.334 234.595 114 234.794 113.705 235.051C113.409 235.308 113.14 235.622 112.896 235.995C112.665 236.367 112.446 236.791 112.241 237.266V249.417H106.926V229.563H110.065C110.604 229.563 110.976 229.659 111.182 229.852C111.387 230.044 111.535 230.378 111.625 230.853L111.914 232.837ZM131.598 241.117C130.301 241.181 129.223 241.297 128.363 241.464C127.503 241.618 126.816 241.823 126.302 242.08C125.802 242.337 125.442 242.632 125.224 242.966C125.018 243.287 124.916 243.64 124.916 244.025C124.916 244.795 125.128 245.341 125.551 245.662C125.988 245.983 126.591 246.143 127.361 246.143C128.247 246.143 129.011 245.989 129.653 245.681C130.308 245.36 130.956 244.866 131.598 244.198V241.117ZM120.775 232.317C121.944 231.264 123.234 230.481 124.646 229.967C126.058 229.441 127.586 229.178 129.229 229.178C130.41 229.178 131.463 229.37 132.387 229.756C133.325 230.141 134.114 230.68 134.756 231.373C135.411 232.054 135.911 232.869 136.258 233.819C136.605 234.769 136.778 235.809 136.778 236.938V249.417H134.352C133.851 249.417 133.466 249.346 133.196 249.205C132.939 249.064 132.728 248.769 132.561 248.319L132.137 247.048C131.636 247.485 131.149 247.87 130.674 248.204C130.211 248.538 129.73 248.82 129.229 249.051C128.729 249.269 128.189 249.436 127.612 249.552C127.047 249.667 126.411 249.725 125.705 249.725C124.832 249.725 124.036 249.61 123.317 249.378C122.598 249.147 121.976 248.807 121.449 248.358C120.936 247.896 120.538 247.324 120.256 246.644C119.973 245.964 119.832 245.18 119.832 244.295C119.832 243.563 120.018 242.831 120.39 242.099C120.763 241.368 121.398 240.706 122.297 240.116C123.208 239.512 124.415 239.018 125.917 238.633C127.432 238.235 129.326 238.01 131.598 237.959V236.938C131.598 235.693 131.335 234.782 130.808 234.204C130.282 233.613 129.525 233.318 128.536 233.318C127.804 233.318 127.194 233.408 126.707 233.588C126.219 233.755 125.789 233.941 125.416 234.146C125.057 234.339 124.717 234.525 124.396 234.705C124.075 234.871 123.703 234.955 123.279 234.955C122.907 234.955 122.592 234.865 122.335 234.685C122.091 234.493 121.886 234.268 121.719 234.011L120.775 232.317ZM145.857 231.874C146.255 231.489 146.665 231.136 147.089 230.815C147.525 230.494 147.981 230.218 148.456 229.987C148.944 229.756 149.464 229.576 150.016 229.447C150.581 229.319 151.191 229.255 151.845 229.255C152.924 229.255 153.88 229.441 154.715 229.813C155.549 230.186 156.249 230.706 156.814 231.373C157.391 232.041 157.822 232.837 158.104 233.761C158.399 234.685 158.547 235.7 158.547 236.804V249.417H153.251V236.804C153.251 235.7 152.994 234.846 152.481 234.242C151.967 233.626 151.21 233.318 150.209 233.318C149.464 233.318 148.764 233.479 148.11 233.799C147.455 234.12 146.832 234.57 146.242 235.147V249.417H140.927V229.563H144.2C144.868 229.563 145.311 229.871 145.529 230.487L145.857 231.874ZM175.123 233.645C174.981 233.864 174.834 234.024 174.68 234.127C174.539 234.217 174.34 234.262 174.083 234.262C173.826 234.262 173.563 234.197 173.293 234.069C173.024 233.941 172.722 233.806 172.388 233.665C172.054 233.511 171.669 233.369 171.233 233.241C170.809 233.113 170.315 233.048 169.75 233.048C168.89 233.048 168.222 233.228 167.747 233.588C167.272 233.934 167.035 234.396 167.035 234.974C167.035 235.372 167.17 235.706 167.439 235.976C167.709 236.245 168.062 236.483 168.498 236.688C168.948 236.881 169.455 237.067 170.02 237.247C170.584 237.413 171.162 237.6 171.753 237.805C172.356 238.01 172.94 238.248 173.505 238.517C174.07 238.787 174.571 239.127 175.007 239.538C175.456 239.936 175.816 240.424 176.086 241.002C176.355 241.566 176.49 242.253 176.49 243.062C176.49 244.025 176.31 244.917 175.951 245.739C175.604 246.548 175.091 247.247 174.41 247.838C173.73 248.428 172.882 248.891 171.868 249.224C170.854 249.558 169.686 249.725 168.363 249.725C167.683 249.725 167.009 249.661 166.341 249.532C165.674 249.417 165.038 249.25 164.435 249.032C163.832 248.801 163.267 248.538 162.74 248.242C162.214 247.947 161.758 247.626 161.373 247.279L162.606 245.296C162.747 245.065 162.92 244.885 163.126 244.757C163.344 244.628 163.62 244.564 163.954 244.564C164.275 244.564 164.57 244.648 164.839 244.815C165.109 244.969 165.411 245.142 165.744 245.334C166.078 245.514 166.47 245.687 166.919 245.854C167.381 246.008 167.953 246.085 168.633 246.085C169.147 246.085 169.589 246.028 169.962 245.912C170.334 245.797 170.636 245.643 170.867 245.45C171.098 245.245 171.265 245.02 171.368 244.776C171.483 244.519 171.541 244.256 171.541 243.986C171.541 243.55 171.4 243.197 171.117 242.927C170.848 242.645 170.488 242.401 170.039 242.196C169.602 241.99 169.095 241.804 168.518 241.637C167.94 241.47 167.349 241.284 166.746 241.079C166.155 240.873 165.571 240.629 164.993 240.347C164.429 240.064 163.921 239.711 163.472 239.288C163.036 238.851 162.676 238.318 162.394 237.689C162.124 237.06 161.989 236.296 161.989 235.398C161.989 234.576 162.15 233.799 162.471 233.068C162.792 232.323 163.273 231.668 163.915 231.104C164.557 230.539 165.353 230.089 166.303 229.756C167.266 229.422 168.376 229.255 169.634 229.255C171.047 229.255 172.33 229.486 173.486 229.948C174.641 230.41 175.591 231.014 176.336 231.758L175.123 233.645ZM185.132 244.179C185.632 244.757 186.172 245.161 186.749 245.392C187.34 245.623 187.969 245.739 188.637 245.739C189.278 245.739 189.863 245.617 190.389 245.373C190.915 245.129 191.365 244.75 191.737 244.237C192.122 243.71 192.417 243.043 192.623 242.234C192.828 241.425 192.931 240.462 192.931 239.346C192.931 238.241 192.841 237.304 192.661 236.534C192.494 235.764 192.25 235.141 191.93 234.666C191.621 234.191 191.243 233.851 190.793 233.645C190.344 233.427 189.843 233.318 189.291 233.318C188.354 233.318 187.565 233.504 186.923 233.877C186.294 234.236 185.697 234.769 185.132 235.475V244.179ZM184.824 232.163C185.222 231.726 185.645 231.328 186.095 230.969C186.544 230.596 187.025 230.282 187.539 230.025C188.052 229.756 188.604 229.55 189.195 229.409C189.786 229.255 190.427 229.178 191.121 229.178C192.186 229.178 193.162 229.409 194.048 229.871C194.946 230.32 195.717 230.982 196.359 231.855C197.001 232.715 197.501 233.774 197.861 235.032C198.22 236.29 198.4 237.728 198.4 239.346C198.4 240.835 198.194 242.215 197.784 243.486C197.386 244.744 196.814 245.835 196.07 246.759C195.325 247.684 194.427 248.409 193.374 248.936C192.334 249.449 191.172 249.706 189.888 249.706C188.81 249.706 187.892 249.545 187.135 249.224C186.39 248.903 185.722 248.467 185.132 247.915V255.83H179.817V229.563H183.091C183.758 229.563 184.201 229.871 184.419 230.487L184.824 232.163ZM212.199 241.117C210.902 241.181 209.824 241.297 208.964 241.464C208.104 241.618 207.417 241.823 206.903 242.08C206.403 242.337 206.043 242.632 205.825 242.966C205.62 243.287 205.517 243.64 205.517 244.025C205.517 244.795 205.729 245.341 206.152 245.662C206.589 245.983 207.192 246.143 207.962 246.143C208.848 246.143 209.612 245.989 210.254 245.681C210.909 245.36 211.557 244.866 212.199 244.198V241.117ZM201.377 232.317C202.545 231.264 203.835 230.481 205.247 229.967C206.659 229.441 208.187 229.178 209.83 229.178C211.012 229.178 212.064 229.37 212.989 229.756C213.926 230.141 214.715 230.68 215.357 231.373C216.012 232.054 216.513 232.869 216.859 233.819C217.206 234.769 217.379 235.809 217.379 236.938V249.417H214.953C214.452 249.417 214.067 249.346 213.797 249.205C213.541 249.064 213.329 248.769 213.162 248.319L212.738 247.048C212.238 247.485 211.75 247.87 211.275 248.204C210.813 248.538 210.331 248.82 209.83 249.051C209.33 249.269 208.791 249.436 208.213 249.552C207.648 249.667 207.012 249.725 206.306 249.725C205.433 249.725 204.637 249.61 203.919 249.378C203.2 249.147 202.577 248.807 202.051 248.358C201.537 247.896 201.139 247.324 200.857 246.644C200.574 245.964 200.433 245.18 200.433 244.295C200.433 243.563 200.619 242.831 200.991 242.099C201.364 241.368 201.999 240.706 202.898 240.116C203.809 239.512 205.016 239.018 206.518 238.633C208.033 238.235 209.927 238.01 212.199 237.959V236.938C212.199 235.693 211.936 234.782 211.409 234.204C210.883 233.613 210.126 233.318 209.137 233.318C208.405 233.318 207.796 233.408 207.308 233.588C206.82 233.755 206.39 233.941 206.018 234.146C205.658 234.339 205.318 234.525 204.997 234.705C204.676 234.871 204.304 234.955 203.88 234.955C203.508 234.955 203.193 234.865 202.936 234.685C202.692 234.493 202.487 234.268 202.32 234.011L201.377 232.317ZM226.515 232.837C227.144 231.707 227.87 230.815 228.691 230.16C229.513 229.505 230.476 229.178 231.58 229.178C232.479 229.178 233.21 229.39 233.775 229.813L233.429 233.742C233.364 233.998 233.262 234.178 233.121 234.281C232.992 234.371 232.812 234.416 232.581 234.416C232.376 234.416 232.081 234.39 231.696 234.339C231.31 234.275 230.951 234.242 230.617 234.242C230.129 234.242 229.693 234.313 229.308 234.454C228.935 234.595 228.602 234.794 228.306 235.051C228.011 235.308 227.741 235.622 227.498 235.995C227.266 236.367 227.048 236.791 226.843 237.266V249.417H221.528V229.563H224.667C225.206 229.563 225.578 229.659 225.784 229.852C225.989 230.044 226.137 230.378 226.227 230.853L226.515 232.837ZM248.189 237.15C248.189 236.598 248.112 236.072 247.957 235.571C247.816 235.07 247.585 234.628 247.264 234.242C246.943 233.857 246.539 233.556 246.051 233.337C245.563 233.106 244.979 232.991 244.299 232.991C243.028 232.991 242.033 233.35 241.314 234.069C240.595 234.788 240.126 235.815 239.908 237.15H248.189ZM239.831 240.308C239.998 242.17 240.524 243.531 241.41 244.391C242.309 245.251 243.477 245.681 244.915 245.681C245.647 245.681 246.276 245.598 246.802 245.431C247.341 245.251 247.81 245.058 248.208 244.853C248.619 244.635 248.985 244.442 249.305 244.275C249.639 244.096 249.967 244.006 250.288 244.006C250.698 244.006 251.019 244.16 251.25 244.468L252.791 246.394C252.226 247.048 251.603 247.594 250.923 248.03C250.243 248.454 249.537 248.794 248.805 249.051C248.073 249.295 247.335 249.462 246.59 249.552C245.846 249.654 245.127 249.706 244.433 249.706C243.047 249.706 241.75 249.481 240.544 249.032C239.35 248.57 238.303 247.896 237.405 247.01C236.519 246.111 235.819 245.001 235.306 243.678C234.792 242.356 234.535 240.822 234.535 239.076C234.535 237.728 234.754 236.457 235.19 235.263C235.639 234.069 236.281 233.029 237.116 232.143C237.95 231.258 238.964 230.558 240.158 230.044C241.352 229.518 242.7 229.255 244.202 229.255C245.473 229.255 246.642 229.46 247.707 229.871C248.786 230.269 249.71 230.853 250.48 231.623C251.263 232.394 251.867 233.344 252.29 234.473C252.727 235.59 252.945 236.868 252.945 238.306C252.945 238.704 252.926 239.031 252.887 239.288C252.849 239.545 252.785 239.75 252.695 239.904C252.605 240.058 252.483 240.167 252.329 240.231C252.175 240.283 251.976 240.308 251.732 240.308H239.831ZM261.173 231.874C261.571 231.489 261.982 231.136 262.405 230.815C262.842 230.494 263.298 230.218 263.773 229.987C264.26 229.756 264.78 229.576 265.332 229.447C265.897 229.319 266.507 229.255 267.162 229.255C268.24 229.255 269.197 229.441 270.031 229.813C270.866 230.186 271.565 230.706 272.13 231.373C272.708 232.041 273.138 232.837 273.42 233.761C273.716 234.685 273.863 235.7 273.863 236.804V249.417H268.568V236.804C268.568 235.7 268.311 234.846 267.797 234.242C267.284 233.626 266.526 233.318 265.525 233.318C264.78 233.318 264.081 233.479 263.426 233.799C262.771 234.12 262.149 234.57 261.558 235.147V249.417H256.243V229.563H259.517C260.184 229.563 260.627 229.871 260.846 230.487L261.173 231.874ZM284.688 249.725C283.789 249.725 282.993 249.597 282.3 249.34C281.606 249.07 281.022 248.692 280.547 248.204C280.072 247.716 279.713 247.125 279.469 246.432C279.225 245.739 279.103 244.956 279.103 244.083V233.376H277.235C276.953 233.376 276.709 233.286 276.503 233.106C276.311 232.927 276.214 232.657 276.214 232.297V230.218L279.392 229.64L280.47 224.498C280.611 223.921 281.003 223.632 281.645 223.632H284.418V229.678H289.54V233.376H284.418V243.736C284.418 244.288 284.546 244.725 284.803 245.046C285.073 245.367 285.451 245.527 285.939 245.527C286.196 245.527 286.414 245.501 286.594 245.45C286.774 245.386 286.928 245.322 287.056 245.257C287.185 245.18 287.3 245.116 287.403 245.065C287.518 245.001 287.634 244.969 287.749 244.969C287.903 244.969 288.032 245.007 288.135 245.084C288.237 245.148 288.34 245.264 288.443 245.431L290.041 247.973C289.309 248.55 288.481 248.987 287.557 249.282C286.632 249.577 285.676 249.725 284.688 249.725Z" fill="#F5FAFF"/>
</svg>
