<svg width="300" height="256" viewBox="0 0 300 256" fill="none" xmlns="http://www.w3.org/2000/svg">
<path d="M215.355 198.153C241.397 166.274 228.196 112.402 185.87 77.8269C143.544 43.2514 88.1215 41.0653 62.08 72.9441C36.0385 104.823 49.2395 158.695 91.5652 193.27C133.891 227.846 189.314 230.032 215.355 198.153Z" fill="#CFEEF3"/>
<path d="M2.97919 246.35H249.61C250.996 246.35 252.12 245.226 252.12 243.841C252.12 242.456 250.996 241.332 249.61 241.332H2.97919C1.5934 241.332 0.470703 242.456 0.470703 243.841C0.470703 245.227 1.59417 246.35 2.97919 246.35Z" fill="#CFEEF3"/>
<path d="M154.47 243.608C154.47 243.608 143.415 243.608 136.798 243.608H130.607C129.375 243.608 128.222 242.945 127.622 241.855L127.48 241.618C126.785 240.371 126.927 238.839 127.827 237.749C128.332 237.133 128.601 236.359 128.601 235.569V230.09H136.797V231.764C136.797 233.438 138.376 235.017 140.255 236.849C142.119 238.68 149.131 238.475 152.779 240.165C156.428 241.839 154.47 243.608 154.47 243.608Z" fill="#FCCCA6"/>
<path d="M152.857 240.155C150.5 239.064 146.751 238.759 143.877 238.19C143.059 238.472 142.17 238.542 141.294 238.535C139.513 238.521 137.703 238.556 135.927 238.424C134.175 238.294 132.383 238.044 130.779 237.283C129.757 236.798 129.17 236.306 128.596 235.664C128.57 236.415 128.311 237.145 127.829 237.732C126.927 238.824 126.784 240.361 127.48 241.612L127.623 241.85C128.225 242.943 129.381 243.608 130.616 243.608H136.825C143.462 243.608 154.55 243.608 154.55 243.608C154.55 243.608 156.516 241.834 152.857 240.155Z" fill="#263238"/>
<path d="M138.967 159.526L136.821 230.09H128.625C128.625 230.09 119.677 182.583 119.676 178.501C119.674 174.52 122.606 163.907 124.624 158.498C125.658 155.725 129.25 155.167 131.271 155.1C133.654 155.02 139.015 155.863 138.967 159.526Z" fill="#263238"/>
<path d="M117.556 110.512C117.351 123.683 117.985 149.3 125.334 161.301C125.334 161.301 126.968 165.894 131.717 165.905C136.849 165.917 137.578 163.747 138.495 161.301C138.495 161.301 143.007 148.378 141.239 122.271C140.553 112.155 137.78 110.915 135.263 107.969C133.362 105.746 128.576 99.9096 123.918 101.662C121.369 102.621 117.63 105.805 117.556 110.512Z" fill="#263238"/>
<path d="M125.324 132.981C128.688 122.25 126.04 112.426 121.987 102.701C119.813 104.206 117.612 106.911 117.556 110.511C117.424 118.947 117.641 132.487 119.742 144.287C122.035 140.734 124.052 137.041 125.324 132.981Z" fill="#263238"/>
<path d="M140.893 118.877C133.889 123.438 125.859 125.789 117.796 125.915C117.789 125.828 117.789 125.735 117.783 125.649C118.196 120.169 118.383 115.228 118.349 111.547C118.342 110.428 118.189 109.29 117.91 108.191C118.902 104.762 121.812 102.451 123.923 101.659C128.577 99.9075 133.364 105.747 135.262 107.971C137.464 110.548 139.868 111.82 140.893 118.877Z" fill="#263238"/>
<path d="M104.091 155.096C112.382 155.272 112.481 165.636 112.382 170.275C112.284 174.914 105.703 230.747 105.703 230.747H97.742C97.742 230.747 93.2344 172.94 93.2344 169.584C93.2344 166.228 95.2083 158.628 97.2816 156.851C99.3542 155.075 104.091 155.096 104.091 155.096Z" fill="#263238"/>
<path d="M101.502 230.747H105.647C105.647 230.747 106.766 236.011 107.95 238.841C108.666 240.551 108.853 241.935 108.889 242.763C108.909 243.227 108.525 243.608 108.06 243.608H93.3329C92.8809 243.608 92.5138 243.252 92.5031 242.8C92.4779 241.71 92.5857 239.779 93.5394 238.644C94.9214 236.999 97.6853 231.603 97.6853 230.747H101.502Z" fill="#FCCCA6"/>
<path d="M107.94 238.844C107.588 238.004 107.242 236.947 106.93 235.878C105.519 237.147 103.794 238.075 101.845 238.092C99.3678 238.114 97.0421 237.717 95.3581 235.826C94.7011 236.992 94.0319 238.059 93.5387 238.647C92.5857 239.781 92.4779 241.712 92.5031 242.8C92.5138 243.251 92.8802 243.608 93.3322 243.608H108.05C108.514 243.608 108.899 243.228 108.878 242.764C108.842 241.936 108.655 240.553 107.94 238.844Z" fill="#263238"/>
<path d="M118.353 111.547C118.462 124.538 115.843 153.11 110.418 165.943C108.336 170.868 98.6077 168.719 97.2586 165.845C94.5184 160.01 92.0588 139.655 93.2351 123.123C93.7146 116.384 94.8174 112.529 96.5191 109.727C99.1002 105.474 106.379 100.466 111.304 101.173C115.899 101.832 118.314 106.904 118.353 111.547Z" fill="#263238"/>
<path d="M117.783 125.648C117.776 125.735 117.77 125.828 117.763 125.914C109.381 126.048 100.965 123.777 93.6406 119.096C94.2264 114.749 95.1924 111.919 96.517 109.729C99.1004 105.474 106.378 100.467 111.305 101.173C113.602 101.506 115.353 102.937 116.538 104.868C117.151 105.867 117.61 107.006 117.91 108.191C117.697 108.916 117.571 109.696 117.558 110.515C117.49 114.616 117.51 119.922 117.783 125.648Z" fill="#263238"/>
<path d="M134.168 48.4396C135.404 48.9038 137.624 51.6685 138.18 52.8662C141.672 60.384 150.758 83.5164 149.471 88.7177C148.117 94.1928 147.05 94.9055 142.604 90.0453C138.158 85.1852 132.133 70.0662 129.752 63.4622C128.611 60.2968 126.056 52.5557 128.066 50.064C130.181 47.4439 132.73 47.8989 134.168 48.4396Z" fill="#FCCCA6"/>
<path d="M137.008 79.7781C136.933 79.9716 136.859 80.1704 136.79 80.3761C133.887 74.3649 131.171 67.4008 129.751 63.4637C128.611 60.299 126.057 52.5564 128.069 50.0647C128.4 49.6533 128.742 49.3167 129.085 49.0491C129.241 49.1546 129.396 49.2609 129.552 49.3665C132.735 51.5591 133.034 57.0533 135.999 62.5536C138.69 67.5194 139.182 73.9665 137.008 79.7781Z" fill="#ECA06E"/>
<path d="M144.088 89.1267C143.651 90.9346 143.651 90.9346 144.392 91.8478C146.502 94.445 149.634 93.5762 155.374 88.9921C162.515 83.2883 173.301 65.6027 173.301 65.6027L170.059 62.575C170.059 62.575 152.318 77.7567 148.782 81.9171C146.033 85.1536 144.763 86.3329 144.088 89.1267Z" fill="#FCCCA6"/>
<path d="M176.045 55.7134C176.662 55.7868 177.262 55.4549 177.623 54.9471C178.809 53.2806 181.031 51.1828 181.832 50.6108C182.747 49.9569 183.347 49.2211 183.03 48.4013C182.714 47.5814 179.199 48.1833 176.307 52.0516C175.521 53.1032 174.239 55.4992 176.045 55.7134Z" fill="#FCCCA6"/>
<path d="M178.126 56.8184C178.752 57.0563 179.47 56.8605 179.987 56.4146C181.682 54.9508 184.58 53.2989 185.574 52.8989C186.711 52.4416 187.539 51.8152 187.431 50.8623C187.324 49.9086 183.484 49.6348 179.401 52.9953C178.292 53.9077 176.297 56.1225 178.126 56.8184Z" fill="#FCCCA6"/>
<path d="M179.402 52.9939C178.459 53.7709 176.874 55.4902 177.546 56.4079C178.946 52.6444 185.089 50.5344 187.122 50.4801C186.132 49.9111 182.852 50.1497 179.402 52.9939Z" fill="#ECA06E"/>
<path d="M179.18 59.059C179.763 59.3887 180.503 59.3022 181.08 58.939C182.976 57.7467 186.089 56.5475 187.132 56.3012C188.324 56.0198 189.237 55.525 189.274 54.5659C189.311 53.6069 185.555 52.7603 181.015 55.4699C179.781 56.2056 177.476 58.0954 179.18 59.059Z" fill="#FCCCA6"/>
<path d="M181.014 55.4681C179.966 56.0944 178.141 57.5575 178.668 58.5647C180.616 55.0536 187.007 53.8896 189.024 54.1404C188.13 53.4292 184.853 53.1737 181.014 55.4681Z" fill="#ECA06E"/>
<path d="M180.129 61.8312C180.703 62.1754 181.444 62.1081 182.031 61.7593C183.957 60.616 187.1 59.4964 188.148 59.2769C189.347 59.026 190.273 58.5541 190.333 57.5966C190.394 56.6391 186.661 55.6961 182.054 58.2895C180.802 58.9947 178.449 60.8248 180.129 61.8312Z" fill="#FCCCA6"/>
<path d="M182.053 58.2893C180.99 58.8889 179.127 60.3045 179.629 61.3247C181.666 57.8641 188.084 56.8637 190.095 57.1666C189.219 56.4324 185.949 56.0936 182.053 58.2893Z" fill="#ECA06E"/>
<path d="M173.038 54.1963C169.52 56.2543 168.119 60.0033 169.59 63.0318C171.061 66.0596 175.607 67.3521 177.983 64.9667C179.716 63.2261 181.532 62.4598 182.464 61.3141C183.261 60.3344 182.154 58.619 181.49 57.2531C180.357 54.9198 177.507 51.1654 176.236 52.1719C175.533 52.7279 173.704 53.8062 173.038 54.1963Z" fill="#FCCCA6"/>
<path d="M172.688 85.6549L179.506 83.1403C179.884 83.0011 180.303 83.0348 180.654 83.2436L190.744 89.1523C191.061 89.3465 191.452 89.3863 191.808 89.2907L202.625 86.1566C202.922 86.0725 203.258 86.0916 203.546 86.2301L210.138 89.1592C210.949 89.5148 211.875 89.0131 212.018 88.1405L220.05 39.8261C220.142 39.2846 219.893 38.7462 219.427 38.4579L210.761 33.1159C210.444 32.9216 210.06 32.8612 209.695 32.9583L199.127 35.8048C198.8 35.8951 198.439 35.85 198.139 35.6932L187.26 29.8273C186.925 29.6468 186.537 29.617 186.177 29.7432L176.888 32.9713C176.386 33.1434 176.044 33.5893 175.988 34.1131L170.88 84.2523C170.779 85.2473 171.753 85.9968 172.688 85.6549Z" fill="#8FA0FD"/>
<path d="M194.199 71.7664C195.825 71.2885 197.792 71.846 198.713 73.3006C198.967 73.6975 199.175 74.174 199.587 74.3912C200.314 74.7828 201.156 74.2053 201.955 73.9996C202.86 73.7641 203.774 74.0807 204.479 74.6879L208.819 45.9565L208.843 45.7608L208.872 45.5841L209.773 39.5936L210.758 33.1143C210.44 32.9201 210.056 32.8596 209.691 32.9568L199.123 35.8033L196.897 52.0442C197.213 52.0067 197.531 52.0901 197.801 52.3027C197.983 51.8064 198.166 51.3192 198.357 50.8206C198.414 50.9108 198.486 50.9185 198.575 50.6301C199.455 50.429 200.345 50.2263 201.226 50.0252C201.134 49.2459 201.033 48.4681 200.931 47.6903C203.202 46.8827 205.832 48.5897 206.554 50.8871C207.276 53.1845 206.433 55.7473 204.957 57.6493C202.6 57.0008 200.013 56.3545 197.785 57.3457C197.143 57.6348 196.57 58.0309 196.018 58.4852L194.199 71.7664Z" fill="#3E7EB3"/>
<path d="M191.805 89.2875L202.622 86.1534C202.661 86.1465 202.698 86.1297 202.747 86.1205L203.452 81.4255C203.385 81.4982 203.304 81.5533 203.224 81.6083C201.732 82.6568 199.927 83.1478 198.158 83.6212C196.315 84.1191 194.243 84.5879 192.569 83.7046L191.805 89.2875Z" fill="#3E7EB3"/>
<path d="M172.684 85.652L179.502 83.1374L180.488 76.3354C180.241 76.1993 179.98 76.0953 179.684 76.0188C179.23 75.9102 178.771 75.8735 178.335 75.7006C177.91 75.5263 177.514 75.1752 177.461 74.721C177.379 73.9401 178.313 73.4262 179.096 73.4048C179.697 73.3856 180.327 73.5225 180.916 73.4354L183.069 58.6192C182.056 58.8142 180.957 58.5917 180.161 57.9301C179.131 57.0904 178.699 55.5563 179.232 54.3303C179.958 52.6256 182.23 51.7063 182.357 49.8594C182.458 48.3696 181.084 47.2492 179.855 46.4255C178.615 45.5934 177.238 44.5143 177.269 43.0268C177.295 42.1756 177.82 41.4047 178.488 40.8694C179.147 40.3355 179.955 40.0166 180.744 39.7015C182.538 38.9811 184.34 38.2492 186.135 37.538L187.257 29.8244C186.921 29.6439 186.532 29.614 186.173 29.7402L176.885 32.9684C176.382 33.1405 176.04 33.5863 175.984 34.1102L170.876 84.2494C170.775 85.2451 171.748 85.9946 172.684 85.652Z" fill="#3E7EB3"/>
<path d="M186.559 31.7041L197.194 37.4339C197.858 37.7918 198.632 37.9141 199.374 37.7788C199.464 37.7627 199.553 37.7421 199.642 37.7183L209.945 34.946L218.019 39.9209L210.192 87.0117L204.345 84.4122C203.73 84.1384 203.054 84.0581 202.392 84.1789C202.283 84.1988 202.173 84.224 202.066 84.2554L191.509 87.3054L181.65 81.5267C180.961 81.1236 180.15 80.9798 179.365 81.1236C179.176 81.158 178.989 81.2093 178.808 81.2758L172.948 83.4402L177.913 34.7112L186.559 31.7041ZM186.371 29.6866C186.303 29.6988 186.236 29.7164 186.17 29.7394L176.883 32.9713C176.387 33.1434 176.036 33.5878 175.983 34.1101L170.875 84.2485C170.781 85.1609 171.596 85.8729 172.455 85.7161C172.533 85.7024 172.609 85.681 172.686 85.6527L179.498 83.1365C179.572 83.109 179.647 83.0883 179.724 83.0746C180.04 83.0172 180.368 83.073 180.649 83.2382L190.743 89.1538C191.023 89.3183 191.352 89.3749 191.668 89.3175C191.713 89.3091 191.757 89.2992 191.8 89.2862L202.618 86.1605C202.661 86.1482 202.706 86.1375 202.75 86.1291C203.016 86.0802 203.292 86.1131 203.541 86.224L210.135 89.1554C210.395 89.2709 210.668 89.2976 210.923 89.251C211.459 89.1531 211.917 88.7332 212.015 88.1428L220.045 39.8269C220.136 39.2854 219.889 38.7432 219.421 38.4556L210.753 33.1144C210.468 32.9385 210.129 32.8757 209.802 32.9354C209.765 32.9423 209.729 32.9499 209.693 32.9599L199.126 35.8033C199.09 35.8133 199.054 35.8209 199.018 35.8278C198.717 35.8829 198.406 35.8339 198.134 35.6878L187.253 29.8258C186.982 29.6797 186.671 29.6323 186.371 29.6866Z" fill="#F8A41F"/>
<path d="M180.164 57.9302C180.961 58.591 182.06 58.8143 183.072 58.6193L186.137 37.5388C184.342 38.2493 182.541 38.982 180.747 39.7024C179.958 40.0175 179.15 40.3364 178.491 40.8702C177.823 41.4056 177.298 42.1765 177.272 43.0277C177.241 44.5152 178.617 45.5943 179.858 46.4264C181.087 47.25 182.46 48.3704 182.359 49.8602C182.233 51.708 179.962 52.6265 179.234 54.3312C178.703 55.5563 179.134 57.0905 180.164 57.9302Z" fill="#A1C2D6"/>
<path d="M183.1 58.7753C183.393 58.7218 183.688 58.6277 183.955 58.4886C185.161 57.9157 185.994 56.6852 186.187 55.3698C186.383 54.0138 186.051 52.3611 187.115 51.5114C188.109 50.7153 189.837 51.1252 190.574 50.0836C191.552 48.7054 189.512 46.639 190.387 45.1989C190.993 44.2116 192.444 44.3194 193.55 44.6314C194.665 44.9419 196.014 45.27 196.847 44.4731C196.683 43.4652 195.72 42.7738 194.749 42.4778C193.776 42.1719 192.735 42.1604 191.756 41.8752C189.619 41.2672 187.922 39.3093 187.629 37.1052C187.14 37.2957 186.652 37.4953 186.165 37.6949L183.1 58.7753Z" fill="#DEF3FF"/>
<path d="M196.018 58.4826C196.57 58.0291 197.143 57.6322 197.785 57.3431C200.013 56.3519 202.6 56.9982 204.956 57.6467C206.433 55.7439 207.276 53.1812 206.554 50.8845C205.832 48.5871 203.202 46.8801 200.931 47.6877C201.032 48.4655 201.134 49.2433 201.226 50.0226C200.345 50.2237 199.455 50.4264 198.574 50.6276C198.486 50.9159 198.414 50.909 198.357 50.818C198.166 51.3166 197.982 51.8038 197.801 52.3001C197.53 52.0875 197.213 52.0042 196.897 52.0416L196.018 58.4826Z" fill="#A1C2D6"/>
<path d="M198.358 50.8186C198.364 50.7972 198.378 50.7643 198.385 50.7429C198.245 50.2045 198.268 50.6542 198.358 50.8186Z" fill="#DEF3FF"/>
<path d="M191.369 61.5184C193.228 61.2094 194.533 59.6913 196.016 58.483L196.896 52.0427C196.209 52.0878 195.494 52.5911 195.126 53.2228C194.579 54.1489 194.471 55.267 193.979 56.2138C193.501 57.1278 192.689 57.8199 192.064 58.6497C191.449 59.4672 190.993 60.5586 191.369 61.5184Z" fill="#DEF3FF"/>
<path d="M192.568 83.7057C194.242 84.5898 196.313 84.121 198.157 83.6224C199.926 83.1482 201.73 82.6572 203.223 81.6094C203.303 81.5544 203.384 81.4993 203.451 81.4267L204.478 74.6874C203.773 74.0802 202.859 73.7635 201.954 73.9991C201.155 74.2056 200.313 74.7822 199.586 74.3907C199.174 74.1735 198.966 73.6978 198.712 73.3001C197.791 71.8455 195.825 71.2872 194.198 71.7659L192.568 83.7057Z" fill="#A1C2D6"/>
<path d="M204.48 74.6875L203.453 81.4268C204.834 80.3782 205.863 78.7294 205.709 77.0033C205.637 76.1092 205.159 75.2588 204.48 74.6875Z" fill="#DEF3FF"/>
<path d="M180.488 76.3356C182.474 77.3841 182.803 80.1259 185.093 81.0184C186.645 81.6218 188.489 81.0734 189.983 81.7984C190.902 82.2458 191.542 83.1062 192.413 83.6224C192.459 83.6546 192.515 83.6844 192.569 83.705L194.199 71.766C193.597 71.9465 193.041 72.2692 192.611 72.7312C191.861 73.5334 191.452 74.6661 190.538 75.2871C189.558 75.9394 186.77 76.126 185.782 75.4094C185.092 74.8901 184.708 74.0535 184.563 73.203C184.428 72.3511 184.512 71.4892 184.597 70.6265C183.98 70.1745 183.092 70.3871 182.521 70.9049C182.47 70.9546 182.419 71.0043 182.377 71.0525C181.824 71.6674 181.615 72.5117 181.428 73.3116C181.26 73.3828 181.096 73.4225 180.917 73.4355L180.488 76.3356Z" fill="#DEF3FF"/>
<path d="M206.667 42.4847C206.689 42.4572 206.719 42.4243 206.738 42.3991C207.166 41.8247 207.342 41.0844 207.815 40.5468C208.713 39.5273 211.786 39.0509 213.022 39.5931C213.612 39.8516 214.018 40.4206 214.229 41.0286C214.441 41.6366 214.48 42.2882 214.519 42.9306C213.986 43.5516 213.192 43.8751 212.431 44.1772C211.494 44.5489 210.556 44.9213 209.619 45.293C209.154 45.4177 208.689 45.5393 208.221 45.6716C208.074 45.7136 207.651 45.8521 207.214 45.9446C206.649 44.8418 206.475 43.6419 206.667 42.4847Z" fill="#DEF3FF"/>
<path d="M207.216 45.9461C207.653 45.8566 208.071 45.7197 208.223 45.6715C208.445 45.6111 208.665 45.5507 208.886 45.4903L209.774 39.593C208.935 39.7964 208.178 40.1261 207.811 40.5459C207.346 41.0843 207.167 41.8224 206.738 42.3952C206.724 42.4281 206.688 42.4548 206.664 42.4893C206.472 43.6425 206.651 44.8394 207.216 45.9461Z" fill="#A1C2D6"/>
<path d="M173.931 47.3717C175.228 47.1652 176.135 49.3586 175.534 50.8729C174.933 52.3872 174.299 53.786 174.299 53.786L171.61 57.0004L169.604 61.7764C169.604 61.7764 167.013 58.5544 169.686 54.6073C171.261 52.2801 172.472 50.9111 172.625 49.8183C172.776 48.7246 173.178 47.4918 173.931 47.3717Z" fill="#FCCCA6"/>
<path d="M94.3207 114.958C94.3489 114.85 94.3899 114.71 94.4446 114.536C94.6071 114.017 94.8703 113.262 95.2064 112.319C95.3837 111.822 95.5808 111.274 95.7928 110.685C96.3819 109.047 97.0869 107.087 97.8063 104.994C98.7849 102.148 99.794 99.047 100.581 96.1569C101.367 93.2755 101.941 90.5714 102.034 88.5309C102.445 79.6453 101.542 70.2183 100.619 62.9225C100.29 60.3229 99.9577 57.9876 99.6812 56.0453C99.5698 55.2626 99.4675 54.5437 99.3782 53.897C99.222 52.7671 99.1063 51.8634 99.0489 51.2183C99.0201 50.8943 99.0073 50.649 99.0096 50.4786C99.0104 50.4162 99.0132 50.371 99.0164 50.34C99.1725 50.1556 99.5229 49.8385 100.062 49.4089C100.639 48.9493 101.386 48.3964 102.228 47.8C103.911 46.6077 105.955 45.2532 107.738 44.1427L107.974 43.9959V43.9885C108.118 43.8994 108.261 43.812 108.402 43.7262C108.428 43.7103 108.454 43.6944 108.48 43.6785L108.482 43.6774C108.79 43.4876 109.085 43.3108 109.366 43.1469C109.436 43.1077 109.509 43.0651 109.573 43.0275C109.607 43.0078 109.639 42.9895 109.666 42.9738C109.957 42.8081 110.226 42.6573 110.468 42.5269L110.468 42.5269L110.471 42.5248C110.791 42.3482 111.063 42.2092 111.284 42.1113L111.286 42.1106C111.447 42.0386 111.572 41.994 111.661 41.9673C112.403 41.7548 114.675 41.2081 117.18 41.1951C118.449 41.2016 119.655 41.2576 120.637 41.3389C121.627 41.4208 122.352 41.5255 122.689 41.62C122.771 41.6461 122.888 41.6904 123.04 41.7603C123.904 42.1742 125.565 43.2596 127.465 44.5571L127.471 44.5616L127.478 44.5658C127.623 44.6587 127.766 44.7552 127.915 44.8559C127.983 44.9022 128.053 44.9493 128.125 44.9974C129.666 46.0615 130.696 46.804 131.462 47.3568L131.528 47.4039C132.196 47.886 132.674 48.2298 133.126 48.5181C133.11 48.6204 133.083 48.7568 133.046 48.942C132.951 49.4222 132.813 50.1213 132.759 50.9927C132.65 52.7437 132.882 55.1678 134.417 58.011L134.418 58.0116C137.037 62.8479 137.523 69.1424 135.395 74.8232L135.395 74.8235C133.933 78.7306 132.129 84.2873 132.327 88.5316C132.327 88.5317 132.328 88.5318 132.328 88.5319L132.827 88.5085M94.3207 114.958L140.484 114.713C140.411 114.723 140.335 114.751 140.268 114.8C140.266 114.801 140.265 114.802 140.263 114.803C140.184 114.862 140.14 114.933 140.117 114.981C140.077 115.066 140.076 115.136 140.076 115.144L140.076 115.144C140.076 115.152 140.076 115.156 140.076 115.156C140.076 115.156 140.075 115.138 140.066 115.096C140.058 115.059 140.047 115.014 140.034 114.961C140.11 114.908 140.185 114.854 140.261 114.8L140.391 114.708H140.483C140.275 113.971 139.734 112.465 139.03 110.505C136.842 104.411 133.077 93.9284 132.827 88.5085M94.3207 114.958L94.5008 115.083L94.3207 114.958ZM132.827 88.5085C132.634 84.3802 134.399 78.9143 135.863 74.9986M132.827 88.5085L135.863 74.9986M135.863 74.9986C138.04 69.1863 137.548 62.7407 134.857 57.7734C132.623 53.6355 133.256 50.4509 133.54 49.0257C133.633 48.5567 133.688 48.2783 133.591 48.219L135.863 74.9986ZM99.0238 50.2939C99.0239 50.2941 99.0233 50.2969 99.0218 50.302C99.0229 50.2962 99.0237 50.2937 99.0238 50.2939Z" fill="white" stroke="black"/>
<path d="M105.022 67.2388C104.119 69.1821 102.817 71.8795 101.297 74.8262C100.73 66.4664 99.5591 58.8545 98.9297 54.3384C99.397 53.9713 99.9262 53.6845 100.512 53.5224C101.995 53.1109 104.574 52.8807 106.448 55.6714C108.23 58.3314 106.436 64.1804 105.022 67.2388Z" fill="#132060"/>
<path d="M107.469 43.7116V43.7185C109.606 47.3076 114.699 57.922 119.859 57.5496C124.207 57.2498 126.584 48.7989 128.402 44.5842C128.182 44.4374 127.962 44.2844 127.742 44.1445C125.851 42.8528 124.153 41.7408 123.249 41.3079C123.076 41.2284 122.936 41.1748 122.829 41.1412C122.056 40.9217 119.74 40.7083 117.176 40.6953C114.606 40.7083 112.282 41.2681 111.517 41.4876C111.404 41.5213 111.257 41.574 111.078 41.6543C110.838 41.7607 110.552 41.9075 110.226 42.0872C109.98 42.2203 109.707 42.3732 109.414 42.54C109.32 42.5935 109.221 42.6532 109.114 42.7128C108.828 42.8795 108.528 43.0592 108.215 43.252C107.975 43.3988 107.722 43.5525 107.469 43.7116Z" fill="#FCCCA6"/>
<path d="M119.825 57.051L119.823 57.0511C118.714 57.1311 117.552 56.6235 116.361 55.6616C115.906 55.2942 115.456 54.8673 115.012 54.3954C115.351 54.7304 115.695 55.0403 116.044 55.3182C117.235 56.2667 118.539 56.8893 119.888 56.7896C120.924 56.7162 121.814 56.203 122.58 55.4623C122.524 55.5244 122.468 55.5851 122.411 55.6442C121.599 56.4924 120.744 56.9876 119.825 57.051Z" fill="#8FA0FD" stroke="black"/>
<path d="M119.443 49.3973H115.622C113.081 49.3973 111.021 47.3377 111.021 44.7971V29.8938H124.043V44.7971C124.043 47.3377 121.983 49.3973 119.443 49.3973Z" fill="#FCCCA6"/>
<path d="M123.081 4.46387C126.419 5.85501 126.933 10.5294 129.046 14.4114C131.159 18.2934 137.338 26.3535 135.992 33.9432C134.647 41.5329 122.645 41.6033 122.729 37.1079C122.813 32.6132 122.641 13.008 121.668 8.94703C120.696 4.88679 123.081 4.46387 123.081 4.46387Z" fill="#24160A"/>
<path d="M124.04 29.8943V43.0218C117.415 44.1858 113.34 40.4873 111.021 34.4853V29.8943H124.04Z" fill="#ECA06E"/>
<path d="M108.828 4.00757C105.785 5.96082 103.914 11.325 102.512 15.5176C101.11 19.7093 96.437 28.7261 99.0893 35.9633C101.742 43.2012 113.57 41.1707 112.702 36.7594C111.833 32.3481 108.573 13.0152 108.82 8.84712C109.067 4.67982 108.828 4.00757 108.828 4.00757Z" fill="#24160A"/>
<path d="M130.264 21.4344C130.504 23.9023 130.985 27.597 133.704 26.2281C136.267 24.9371 137.417 22.2275 136.845 19.0934C136.273 15.9586 134.839 14.5039 132.489 15.6098C130.346 16.6178 130.004 18.5359 130.264 21.4344Z" fill="#ECA06E"/>
<path d="M125.609 37.824C132.599 36.5208 133.847 29.7961 133.548 25.2059C133.314 21.6152 132.488 14.9379 131.952 10.8012C131.397 6.52068 128.353 2.81684 124.13 1.92586C120.64 1.18938 116.558 1.53812 113.228 3.16864C106.454 6.48627 104.731 12.2229 107.186 22.3035C108.311 26.9236 109.673 39.8973 125.609 37.824Z" fill="#FCCCA6"/>
<path d="M117.589 29.2829C117.589 30.0492 116.967 30.6709 116.201 30.6709C115.434 30.6709 114.812 30.0492 114.812 29.2829C114.812 28.5165 115.434 27.8948 116.201 27.8948C116.968 27.8948 117.589 28.5165 117.589 29.2829Z" fill="#F98495"/>
<path d="M130.841 29.4747C130.841 30.2411 130.219 30.8628 129.453 30.8628C128.686 30.8628 128.064 30.2411 128.064 29.4747C128.064 28.7084 128.686 28.0867 129.453 28.0867C130.219 28.0867 130.841 28.7077 130.841 29.4747Z" fill="#F98495"/>
<path d="M124.509 20.9197C125.897 24.0844 127.298 28.7442 126.42 29.4745C125.672 30.0955 124.398 30.0688 124.01 29.5472" stroke="#ECA06E" stroke-width="0.776102" stroke-linecap="round" stroke-linejoin="round" stroke-dasharray="11.58 11.58"/>
<path d="M123.919 33.0524C123.127 34.6439 119.813 34.2745 119.312 31.2942" stroke="#ECA06E" stroke-width="0.776102" stroke-miterlimit="10" stroke-linecap="round" stroke-linejoin="round" stroke-dasharray="22.42 22.42"/>
<path d="M118.303 23.6867C118.303 24.6419 117.853 25.4167 117.298 25.4167C116.743 25.4167 116.293 24.6419 116.293 23.6867C116.293 22.7315 116.743 21.9568 117.298 21.9568C117.853 21.9568 118.303 22.7315 118.303 23.6867Z" fill="#513217"/>
<path d="M129.06 23.237C129.06 24.154 128.628 24.8973 128.095 24.8973C127.563 24.8973 127.131 24.154 127.131 23.237C127.131 22.32 127.562 21.5767 128.095 21.5767C128.628 21.5767 129.06 22.32 129.06 23.237Z" fill="#513217"/>
<path d="M119.515 19.1975C119.515 19.1975 116.628 19.1317 115.184 21.1852" stroke="#161717" stroke-width="1.43282" stroke-miterlimit="10" stroke-linecap="round" stroke-linejoin="round" stroke-dasharray="25.55 25.55"/>
<path d="M130.335 20.324C130.335 20.324 128.866 18.7891 127.047 19.1087" stroke="#161717" stroke-width="1.43282" stroke-miterlimit="10" stroke-linecap="round" stroke-linejoin="round" stroke-dasharray="25.55 25.55"/>
<path d="M129.993 7.74198L122.078 4.66602L110.824 9.61111L111.722 17.8417H112.929C118.262 17.2421 123.683 16.1515 123.683 16.1515V11.1682L125.07 15.9955L132.292 15.4831L129.993 7.74198Z" fill="#ECA06E"/>
<path d="M108.335 23.6654C111.537 24.3308 114.206 17.4187 113.218 11.8832C113.218 11.8832 118.171 10.1586 129.504 10.0393C130.308 10.0309 132.042 18.6332 132.907 18.5812C132.907 18.5812 134.889 19.2106 132.489 10.6618C131.738 7.98509 130.252 5.29077 129.144 4.03423C126.444 0.96974 116.411 -1.1143 109.59 3.4331C102.769 7.9805 104.64 20.2247 108.335 23.6654Z" fill="#24160A"/>
<path d="M129.868 7.31448L121.953 4.23853L110.699 9.18361L111.597 17.4142H112.805C118.138 16.8146 123.559 15.724 123.559 15.724V10.7407L124.946 15.568L132.167 15.0556L129.868 7.31448Z" fill="#24160A"/>
<path d="M108.848 25.3256C109.382 27.7545 110.858 30.9077 107.126 30.7739C103.607 30.6477 101.321 28.582 100.965 25.3829C100.609 22.1839 101.854 20.2008 105.053 20.2444C107.774 20.2818 108.197 22.4821 108.848 25.3256Z" fill="#FCCCA6"/>
<path d="M106.896 28.4334C107.002 27.316 106.163 27.5867 105.527 27.0438C104.908 26.5145 104.805 25.6886 105.172 25.0056C105.321 24.7257 105.45 24.4856 105.224 23.7804C104.944 22.9063 103.71 23.7812 103.14 24.0007C102.847 23.0562 104.079 22.1835 104.958 22.2103C105.318 22.2218 105.972 22.3939 106.306 23.4324C106.654 24.5062 106.432 25.0653 106.173 25.5448C106.04 25.7964 106.028 25.817 106.239 26.1352C106.342 26.2904 106.521 26.3631 106.798 26.461C107.11 26.5719 107.535 26.7241 107.705 27.1738C107.916 27.7336 107.646 28.532 106.896 28.4334Z" fill="#ECA06E"/>
<path d="M68.164 130.255C67.3602 131.078 66.4211 129.754 66.1656 128.226C65.9308 126.818 65.602 125.254 65.602 125.254L65.8153 121.591L64.7324 117.187C64.7324 117.187 68.2359 118.099 68.4179 122.269C68.5257 124.727 68.7988 126.138 68.6917 127.257C68.5571 128.66 68.6305 129.779 68.164 130.255Z" fill="#FCCCA6"/>
<path d="M66.1056 176.091L39.209 168.996L49.3615 131.878C50.4245 127.848 54.5674 125.434 58.597 126.497L70.8779 129.737C74.9075 130.8 77.3212 134.943 76.2581 138.973L66.1056 176.091ZM41.9974 167.371L64.482 173.303L74.0525 138.391C74.7951 135.578 73.1095 132.685 70.2967 131.943L58.0158 128.704C55.2029 127.962 52.3105 129.647 51.5679 132.46L41.9974 167.371Z" fill="#ADD3D4"/>
<path d="M50.5011 137.471L51.8066 132.523C52.514 129.842 55.2696 128.237 57.9509 128.943L70.2318 132.183C72.9123 132.89 74.5176 135.647 73.811 138.327L72.5055 143.275L75.1922 143.984L76.4976 139.036C77.5959 134.874 75.1027 130.595 70.94 129.496L58.6591 126.257C54.4971 125.158 50.2182 127.652 49.1199 131.814L47.8145 136.763L50.5011 137.471Z" fill="#161717"/>
<path d="M56.4838 243.774L14.189 232.617C11.858 232.002 10.4661 229.613 11.0809 227.282L26.7873 167.743C27.4022 165.412 29.7906 164.02 32.1224 164.635L74.4172 175.793C76.7483 176.407 78.1402 178.796 77.5253 181.128L61.819 240.666C61.2041 242.998 58.8149 244.389 56.4838 243.774Z" fill="#8FA0FD"/>
<path d="M54.3926 243.223L16.2773 233.168L27.8416 189.33C28.2844 187.652 30.0037 186.651 31.6816 187.093L63.7199 195.545C65.3978 195.987 66.3989 197.707 65.9569 199.385L54.3926 243.223Z" fill="#6B75CD"/>
<path d="M17.5139 237.427L17.1476 237.33C16.1419 237.065 15.5415 236.035 15.8069 235.029L16.2964 233.174L20.3054 234.231L19.8159 236.087C19.5498 237.092 18.5196 237.692 17.5139 237.427Z" fill="#202A36"/>
<path d="M51.5901 246.415L51.2238 246.319C50.2181 246.053 49.6177 245.023 49.8831 244.017L50.3726 242.162L54.3816 243.22L53.8921 245.075C53.6259 246.08 52.5958 246.68 51.5901 246.415Z" fill="#202A36"/>
<path d="M66.9685 190.711L31.2401 181.286C30.5809 181.113 30.1877 180.437 30.3614 179.778L32.0271 173.463C32.2007 172.804 32.876 172.411 33.5352 172.584L69.2636 182.01C69.9228 182.183 70.3159 182.859 70.1423 183.518L68.4766 189.833C68.303 190.492 67.6277 190.886 66.9685 190.711Z" fill="#6B75CD"/>
<path d="M66.5896 186.94L33.4355 178.194C33.1487 178.118 32.9774 177.824 33.0531 177.537L33.2641 176.738C33.3399 176.451 33.6335 176.28 33.9211 176.355L67.0752 185.101C67.362 185.177 67.5333 185.471 67.4576 185.758L67.2465 186.557C67.1701 186.844 66.8764 187.016 66.5896 186.94Z" fill="#CFEEF3"/>
<path d="M62.904 200.912L29.7499 192.166C29.4631 192.09 29.2918 191.796 29.3675 191.51L29.5786 190.71C29.6543 190.424 29.948 190.252 30.2356 190.328L63.3897 199.074C63.6765 199.15 63.8478 199.443 63.7721 199.731L63.561 200.53C63.4845 200.816 63.1908 200.988 62.904 200.912Z" fill="#CFEEF3"/>
<path d="M55.3627 234.149C48.6571 233.705 41.9423 232.536 35.4271 230.909C27.4757 228.923 19.7368 226.306 12.1157 223.36L11.081 227.282C10.4661 229.613 11.8572 232.002 14.1891 232.617L56.4839 243.775C58.8149 244.39 61.2041 242.998 61.819 240.667L63.679 233.615C60.9777 234.223 58.1404 234.333 55.3627 234.149Z" fill="#6B75CD"/>
<path d="M55.3608 234.149C48.6552 233.705 41.9397 232.536 35.4252 230.909C29.6022 229.454 23.8938 227.659 18.2612 225.646L16.2773 233.168L54.3926 243.223L56.7696 234.214C56.2985 234.2 55.8281 234.18 55.3608 234.149Z" fill="#5563AD"/>
<path d="M66.5988 124.083C66.6493 124.673 66.4803 125.294 66.4222 125.872C66.3778 126.308 66.3602 126.747 66.374 127.186C66.3273 127.761 66.3006 128.343 66.3335 128.912C66.2639 128.692 66.205 128.464 66.1652 128.227C65.9304 126.82 65.6016 125.256 65.6016 125.256L65.626 124.836C65.9526 124.586 66.2386 124.27 66.5988 124.083Z" fill="#ECA06E"/>
<path d="M57.6224 123.597C57.9298 123.961 57.9153 124.446 57.6682 124.84C56.8553 126.133 56.128 128.218 56.0087 128.91C55.8725 129.7 55.5445 130.318 54.7797 130.388C54.0157 130.458 53.0574 128.051 54.8867 124.963C55.3846 124.125 56.7245 122.532 57.6224 123.597Z" fill="#FCCCA6"/>
<path d="M55.1533 130.297C55.6603 130.09 55.8974 129.557 56.0068 128.912C56.1223 128.23 56.8251 126.217 57.6121 124.927C57.0239 125.332 56.487 126.072 56.2094 126.571C55.4064 128.005 55.1342 129.296 55.1533 130.297Z" fill="#ECA06E"/>
<path d="M59.7592 124.755C60.1033 125.139 60.101 125.667 59.8418 126.103C58.9906 127.534 58.2541 129.823 58.1424 130.578C58.0147 131.44 57.6744 132.123 56.8438 132.225C56.0133 132.328 54.9066 129.749 56.817 126.332C57.3363 125.405 58.7535 123.63 59.7592 124.755Z" fill="#FCCCA6"/>
<path d="M58.0355 128.312C57.5131 129.716 57.4175 130.943 57.559 131.905C57.8925 131.607 58.0623 131.132 58.1449 130.579C58.2535 129.834 58.9701 127.618 59.796 126.183C58.9861 126.378 58.31 127.594 58.0355 128.312Z" fill="#ECA06E"/>
<path d="M61.8926 125.114C62.2949 125.459 62.3767 125.983 62.1893 126.443C61.5744 127.951 61.2089 130.298 61.2188 131.058C61.2295 131.927 61.0009 132.64 60.194 132.828C59.3872 133.016 57.8775 130.575 59.2273 126.988C59.5937 126.013 60.7156 124.104 61.8926 125.114Z" fill="#FCCCA6"/>
<path d="M60.771 132.528C61.1244 132.197 61.2314 131.663 61.2192 131.056C61.2085 130.3 61.5756 127.95 62.1897 126.444C62.2325 126.33 62.2677 126.213 62.2731 126.096C61.789 126.551 61.3898 127.231 61.1848 127.699C60.2724 129.78 60.371 131.497 60.771 132.528Z" fill="#ECA06E"/>
<path d="M64.4496 125.296C64.8626 125.633 64.9612 126.155 64.7884 126.619C64.2209 128.139 63.9295 130.493 63.9632 131.252C64.0014 132.12 63.7949 132.838 62.9942 133.043C62.1935 133.248 60.6081 130.839 61.844 127.224C62.1797 126.242 63.2405 124.311 64.4496 125.296Z" fill="#FCCCA6"/>
<path d="M57.1767 120.594C59.1598 117.157 60.6917 115.94 63.5443 116.684C66.3962 117.426 68.286 121.109 66.6463 123.558C65.4494 125.345 65.103 127.035 64.2793 128.032C63.5749 128.885 61.9123 128.228 60.6251 127.893C58.4279 127.321 54.3402 126.436 54.9864 125.171C55.3428 124.472 56.8387 121.18 57.1767 120.594Z" fill="#FCCCA6"/>
<path d="M99.5497 49.4486C98.1119 49.6543 96.86 50.5154 95.9789 51.6703C90.4427 58.9212 75.1898 81.623 75.339 87.5187C75.4958 93.7234 76.4724 94.7428 82.4033 90.5748C88.3334 86.4067 98.3964 71.589 102.522 65.057C104.499 61.926 107.292 55.7963 105.722 52.6423C104.071 49.3247 101.224 49.2099 99.5497 49.4486Z" fill="#FCCCA6"/>
<path d="M78.1626 83.2879C79.9185 82.2356 79.9185 82.2356 81.1207 82.7151C84.5416 84.0795 84.6563 87.6548 81.7242 95.1872C78.0761 104.56 64.1235 121.11 64.1235 121.11L59.498 119.677C59.498 119.677 68.9194 95.6629 72.13 90.584C74.627 86.6339 75.4491 84.9139 78.1626 83.2879Z" fill="#FCCCA6"/>
<path d="M208.628 227.778H191.945V240.83H208.628V227.778Z" fill="#5563AD"/>
<path d="M236.459 233.921H164.113C161.338 233.921 159.088 231.672 159.088 228.897V182.435C159.088 179.661 161.337 177.411 164.113 177.411H236.459C239.234 177.411 241.483 179.66 241.483 182.435V228.897C241.483 231.671 239.233 233.921 236.459 233.921Z" fill="#8FA0FD"/>
<path d="M178.934 221.821C178.934 224.415 176.83 226.518 174.236 226.518C171.642 226.518 169.539 224.415 169.539 221.821C169.539 219.227 171.642 217.124 174.236 217.124C176.83 217.124 178.934 219.227 178.934 221.821Z" fill="#B6C1FD"/>
<path d="M228.673 220.774H198.315C196.287 220.774 194.643 219.13 194.643 217.102V190.899C194.643 188.871 196.287 187.227 198.315 187.227H228.673C230.701 187.227 232.346 188.871 232.346 190.899V217.102C232.346 219.13 230.701 220.774 228.673 220.774Z" fill="#6B75CD"/>
<path d="M180.097 211.364H169.542C168.817 211.364 168.229 210.776 168.229 210.051V188.54C168.229 187.815 168.817 187.227 169.542 187.227H180.097C180.823 187.227 181.411 187.815 181.411 188.54V210.051C181.41 210.776 180.822 211.364 180.097 211.364Z" fill="#6B75CD"/>
<path d="M220.695 211.212C224.677 207.23 224.677 200.774 220.695 196.792C216.714 192.811 210.258 192.811 206.276 196.792C202.294 200.774 202.294 207.23 206.276 211.212C210.258 215.193 216.714 215.193 220.695 211.212Z" fill="#B6C1FD"/>
<path d="M208.814 209.686C212.272 206.236 215.792 202.854 219.354 199.556C218.01 197.785 215.888 196.637 213.493 196.637C209.426 196.637 206.129 199.934 206.129 204.001C206.13 206.291 207.175 208.336 208.814 209.686Z" fill="white"/>
<path d="M183.677 173.772H169.449C168.775 173.772 168.229 174.319 168.229 174.993V177.411H184.898V174.993C184.898 174.319 184.351 173.772 183.677 173.772Z" fill="#6B75CD"/>
<path d="M230.52 173.772H196.479C195.465 173.772 194.643 174.595 194.643 175.609V177.411H232.356V175.609C232.356 174.595 231.534 173.772 230.52 173.772Z" fill="#6B75CD"/>
<path d="M214.609 238.856H185.963V242.628H214.609V238.856Z" fill="#6B75CD"/>
<path d="M253.263 89.248L197.943 85.034C194.133 84.7434 190.203 85.4378 186.591 87.0393C185.062 87.7169 184.855 89.6273 186.238 90.3049L218.641 106.196C218.945 106.345 219.325 106.345 219.662 106.196L253.469 91.2081C254.536 90.7347 254.389 89.3336 253.263 89.248Z" fill="#5563AD"/>
<path d="M208.057 132.116L294.661 93.6584C297.772 92.2764 299.826 89.2441 299.954 85.8423C300.118 81.4861 297.111 77.65 292.841 76.7697C289.625 76.1066 286.05 75.3686 283.647 74.8723C281.822 74.4952 279.927 74.7002 278.225 75.4558L154.117 130.568C150.915 131.989 151.742 136.748 155.236 137.006L172.558 138.286C184.719 139.184 196.912 137.065 208.057 132.116Z" fill="#8FA0FD"/>
<path d="M185.84 121.965C176.513 125.015 158.385 133.403 158.235 133.472C156.464 134.285 154.671 135.043 152.876 135.8C151.608 134.226 151.862 131.57 154.118 130.568L216.313 102.949C227.188 102.008 238.158 101.782 248.992 100.456C259.334 99.1894 269.396 96.7023 278.898 92.3713C285.768 89.2396 292.918 85.4768 297.444 79.3027C299.088 81.0013 300.048 83.3331 299.954 85.8416C299.827 89.2434 297.773 92.2765 294.661 93.6577L246.914 114.861C246.895 114.862 246.875 114.864 246.855 114.865C236.308 115.606 225.724 115.631 215.18 116.451C205.239 117.226 195.334 118.861 185.84 121.965Z" fill="#6B75CD"/>
<path d="M276.295 79.1619L285.223 75.1973C287.469 75.6615 290.272 76.242 292.84 76.7681C293.535 76.9119 294.192 77.1352 294.809 77.4243L283.267 82.5499C280.782 81.7339 278.23 80.8796 276.295 79.1619Z" fill="#5563AD"/>
<path d="M269.608 83.0784C269.857 82.384 270.315 81.8181 270.851 81.5802L274.794 79.8289C276.576 81.6116 278.874 82.6119 281.241 83.4493L273.256 86.9949C272.185 87.4706 270.338 86.8396 269.673 85.3422C269.34 84.5958 269.369 83.7736 269.608 83.0784Z" fill="#5563AD"/>
<path d="M259.041 102.239L225.043 146.082C222.701 149.102 219.55 151.55 215.939 153.153C214.41 153.832 212.855 152.704 213.28 151.224L223.242 116.536C223.335 116.21 223.59 115.929 223.927 115.779L257.725 100.77C258.793 100.297 259.732 101.346 259.041 102.239Z" fill="#6B75CD"/>
<path d="M153.934 115.33L170.935 123.099L158.253 128.731L148.475 117.93C148.399 117.847 148.427 117.714 148.53 117.669L153.797 115.329C153.841 115.31 153.891 115.311 153.934 115.33Z" fill="#5563AD"/>
<path d="M159.908 132.754L172.699 127.074L167.463 143.109L161.644 145.693L159.908 132.754Z" fill="#6B75CD"/>
<path d="M260.907 102.687L265.92 100.461C266.411 100.243 266.632 99.6696 266.414 99.1786L261.814 88.8219C261.596 88.3317 261.023 88.1106 260.532 88.3286L255.519 90.5549C255.028 90.7728 254.807 91.3464 255.025 91.8374L259.625 102.194C259.843 102.684 260.417 102.905 260.907 102.687Z" fill="#6B75CD"/>
<path d="M260.988 102.026L265.379 100.076C265.818 99.8814 266.017 99.366 265.822 98.9255L261.606 89.433C261.41 88.9932 260.896 88.7944 260.455 88.9902L256.065 90.9396C255.625 91.1354 255.427 91.6501 255.622 92.0906L259.838 101.583C260.033 102.023 260.548 102.222 260.988 102.026Z" fill="#B6C1FD"/>
<path d="M249.741 101.644C250.559 101.28 250.929 100.322 250.565 99.503L249.859 97.9107C249.495 97.0924 248.537 96.723 247.718 97.0863C246.9 97.4496 246.53 98.4078 246.894 99.2269L247.6 100.819C247.964 101.638 248.923 102.007 249.741 101.644Z" fill="#5563AD"/>
<path d="M241.859 105.145C242.677 104.782 243.047 103.823 242.683 103.004L241.976 101.412C241.613 100.594 240.654 100.224 239.835 100.588C239.017 100.951 238.648 101.91 239.011 102.729L239.718 104.321C240.082 105.139 241.04 105.508 241.859 105.145Z" fill="#5563AD"/>
<path d="M233.973 108.645C234.792 108.282 235.161 107.324 234.798 106.504L234.091 104.912C233.728 104.094 232.77 103.724 231.951 104.088C231.132 104.451 230.763 105.409 231.126 106.228L231.833 107.821C232.197 108.64 233.155 109.009 233.973 108.645Z" fill="#5563AD"/>
<path d="M226.089 112.146C226.907 111.783 227.276 110.825 226.913 110.006L226.206 108.413C225.843 107.595 224.885 107.226 224.066 107.589C223.247 107.952 222.878 108.911 223.241 109.73L223.948 111.322C224.312 112.141 225.27 112.51 226.089 112.146Z" fill="#5563AD"/>
<path d="M218.207 115.647C219.025 115.284 219.394 114.325 219.03 113.507L218.324 111.915C217.96 111.096 217.002 110.727 216.183 111.091C215.365 111.454 214.995 112.412 215.359 113.232L216.065 114.824C216.429 115.642 217.387 116.012 218.207 115.647Z" fill="#5563AD"/>
<path d="M210.321 119.149C211.139 118.785 211.508 117.827 211.145 117.008L210.438 115.416C210.075 114.598 209.117 114.228 208.298 114.591C207.48 114.955 207.11 115.913 207.474 116.732L208.181 118.324C208.544 119.143 209.502 119.513 210.321 119.149Z" fill="#5563AD"/>
<path d="M202.438 122.65C203.257 122.287 203.626 121.329 203.263 120.51L202.556 118.917C202.193 118.099 201.234 117.73 200.415 118.094C199.597 118.457 199.228 119.415 199.591 120.234L200.298 121.826C200.662 122.645 201.62 123.013 202.438 122.65Z" fill="#5563AD"/>
<path d="M194.553 126.151C195.372 125.788 195.741 124.829 195.378 124.01L194.671 122.418C194.308 121.6 193.35 121.23 192.531 121.594C191.712 121.957 191.343 122.915 191.706 123.734L192.413 125.327C192.776 126.146 193.734 126.514 194.553 126.151Z" fill="#5563AD"/>
</svg>
