<svg width="169" height="227" viewBox="0 0 169 227" fill="none" xmlns="http://www.w3.org/2000/svg">
<path d="M26.8364 197.125C26.1295 199.763 23.4184 201.329 20.7795 200.622C18.1414 199.915 16.5757 197.203 17.2825 194.565C17.9896 191.926 20.7013 190.361 23.3394 191.068C25.9783 191.775 27.5435 194.486 26.8364 197.125Z" fill="#383838"/>
<path d="M24.5087 196.501C24.1463 197.854 22.7553 198.657 21.4026 198.295C20.0499 197.932 19.2465 196.542 19.6092 195.189C19.9717 193.836 21.3627 193.033 22.7154 193.395C24.0681 193.758 24.8712 195.149 24.5087 196.501Z" fill="#939393"/>
<path d="M103.154 217.574C102.447 220.212 99.7348 221.778 97.0959 221.071C94.4578 220.364 92.8921 217.652 93.5989 215.014C94.306 212.375 97.0177 210.81 99.6558 211.517C102.295 212.224 103.861 214.935 103.154 217.574Z" fill="#383838"/>
<path d="M100.827 216.95C100.465 218.303 99.0736 219.106 97.7209 218.743C96.3682 218.381 95.5649 216.991 95.9276 215.637C96.29 214.285 97.681 213.481 99.0337 213.844C100.386 214.206 101.19 215.597 100.827 216.95Z" fill="#939393"/>
<path d="M97.6473 122.894L71.2255 115.815C67.1538 114.724 64.7279 110.523 65.8191 106.45L89.066 19.6918C90.1573 15.6192 94.3586 13.1943 98.4303 14.2853L124.852 21.365C128.925 22.4564 131.35 26.6577 130.259 30.7295L107.013 117.487C105.921 121.56 101.721 123.986 97.6473 122.894ZM97.4187 18.0605C95.4281 17.5271 93.3746 18.7127 92.8412 20.7033L69.5945 107.461C69.0611 109.452 70.2467 111.505 72.2373 112.039L98.6591 119.118C100.65 119.652 102.704 118.466 103.237 116.476L126.484 29.7179C127.017 27.7273 125.832 25.6738 123.84 25.1402L97.4187 18.0605Z" fill="#848484"/>
<path d="M125.932 19.6286L98.1699 12.1899L96.2101 19.504L123.972 26.9427L125.932 19.6286Z" fill="#FFCE06"/>
<path d="M114.564 205.758C112.623 213.002 105.178 217.299 97.9357 215.358L24.7441 195.747C17.5006 193.806 13.2028 186.362 15.1437 179.119L43.328 73.9333C45.2687 66.6906 52.7126 62.3929 59.9561 64.3338L133.147 83.9452C140.389 85.8857 144.688 93.3308 142.748 100.573L114.564 205.758Z" fill="#FFCE06"/>
<path d="M46.7925 179.333C46.1679 181.664 43.7727 183.048 41.4416 182.423C39.1096 181.798 37.7263 179.402 38.351 177.071L62.402 87.3114C63.0267 84.9803 65.4228 83.5962 67.7548 84.221C70.0859 84.8456 71.4684 87.2414 70.8436 89.5733L46.7925 179.333Z" fill="#FBB616"/>
<path d="M67.7549 84.2219C66.7436 83.951 65.7292 84.076 64.8435 84.4742C65.3232 84.437 65.8149 84.4614 66.3069 84.5932C68.6381 85.2179 70.0206 87.6136 69.3957 89.9456L45.3446 179.705C44.9908 181.026 44.0609 182.025 42.9041 182.544C44.7003 182.405 46.2996 181.174 46.7926 179.334L70.8439 89.5735C71.4685 87.2423 70.086 84.8466 67.7549 84.2219Z" fill="#EE9A21"/>
<path d="M63.0238 183.682C62.3991 186.014 60.0024 187.397 57.6721 186.772C55.3409 186.148 53.9568 183.752 54.5814 181.42L78.6325 91.6605C79.2571 89.3294 81.6541 87.9455 83.9852 88.5701C86.3156 89.1946 87.6997 91.5907 87.0749 93.9227L63.0238 183.682Z" fill="#FBB616"/>
<path d="M83.9845 88.5711C82.9732 88.3001 81.9589 88.4251 81.0739 88.8236C81.5537 88.7864 82.0453 88.8108 82.5366 88.9424C84.8669 89.5668 86.251 91.9629 85.6262 94.2949L61.5751 184.055C61.2212 185.375 60.2898 186.374 59.1338 186.893C60.9316 186.754 62.5301 185.523 63.0231 183.683L87.0744 93.9228C87.699 91.5917 86.3157 89.1957 83.9845 88.5711Z" fill="#EE9A21"/>
<path d="M79.2554 188.032C78.6308 190.363 76.2356 191.746 73.9045 191.122C71.5733 190.497 70.1892 188.101 70.8139 185.77L94.8649 96.0099C95.4896 93.6787 97.8865 92.2949 100.218 92.9195C102.549 93.5441 103.931 95.9399 103.306 98.2718L79.2554 188.032Z" fill="#FBB616"/>
<path d="M100.218 92.9204C99.2064 92.6494 98.1921 92.7745 97.3064 93.1727C97.7861 93.1355 98.2778 93.1599 98.7698 93.2917C101.101 93.9163 102.484 96.3123 101.859 98.6443L77.8083 188.404C77.4545 189.725 76.523 190.723 75.367 191.242C77.164 191.104 78.7625 189.873 79.2555 188.033L103.307 98.272C103.931 95.9408 102.548 93.5448 100.218 92.9204Z" fill="#EE9A21"/>
<path d="M95.4867 192.381C94.862 194.712 92.4669 196.096 90.1349 195.471C87.8038 194.846 86.4197 192.45 87.0443 190.119L111.095 100.359C111.72 98.0279 114.117 96.644 116.448 97.2686C118.78 97.8935 120.163 100.289 119.538 102.621L95.4867 192.381Z" fill="#FBB616"/>
<path d="M116.447 97.2696C115.437 96.9988 114.422 97.1236 113.537 97.5221C114.017 97.4849 114.508 97.5092 115 97.6411C117.33 98.2653 118.714 100.661 118.089 102.993L94.038 192.753C93.6841 194.074 92.7543 195.073 91.5975 195.592C93.3937 195.453 94.993 194.222 95.486 192.382L119.537 102.621C120.162 100.29 118.779 97.8944 116.447 97.2696Z" fill="#EE9A21"/>
<path d="M123.896 170.924L131.961 140.825L109.933 125.243L77.9511 170.455L108.795 192.272L123.896 170.924Z" fill="#C6C6C5"/>
<path d="M107.597 122.6L75.6172 167.81L106.458 189.626L138.438 144.416L107.597 122.6Z" fill="#702D14"/>
<path d="M108.596 153.91C104.987 151.357 104.127 146.342 106.681 142.733C109.234 139.124 114.248 138.265 117.857 140.817C121.467 143.371 122.326 148.385 119.773 151.994C117.219 155.603 112.205 156.463 108.596 153.91ZM117.348 141.537C114.136 139.265 109.673 140.03 107.401 143.243C105.129 146.455 105.894 150.918 109.106 153.19C112.318 155.463 116.781 154.697 119.054 151.485C121.325 148.273 120.56 143.81 117.348 141.537Z" fill="#CB7329"/>
<path d="M108.597 153.91C106.821 152.654 108.249 148.604 110.493 145.43C112.739 142.257 116.082 139.562 117.857 140.817C119.632 142.073 118.204 146.124 115.96 149.297C113.716 152.47 110.371 155.166 108.597 153.91ZM117.349 141.537C116.396 140.864 113.642 142.506 111.214 145.939C108.785 149.373 108.153 152.516 109.107 153.19C110.058 153.864 112.813 152.221 115.24 148.788C117.669 145.355 118.3 142.211 117.349 141.537Z" fill="#CB7329"/>
<path d="M115.793 143.736C113.763 142.299 112.633 140.811 112.313 139.842L111.428 139.994C111.845 141.422 113.461 143.166 115.285 144.456C117.088 145.732 119.245 146.669 120.728 146.609L120.663 145.721C119.649 145.757 117.848 145.188 115.793 143.736Z" fill="#CB7329"/>
<path d="M110.658 150.993C112.759 152.479 113.907 154.028 114.179 154.993L115.053 154.843C114.69 153.396 113.037 151.596 111.168 150.273C109.358 148.994 107.194 148.054 105.71 148.121L105.761 149.007C106.769 148.96 108.585 149.527 110.658 150.993Z" fill="#CB7329"/>
<path d="M107.282 142.633L106.773 143.352L119.122 152.087L119.631 151.368L107.282 142.633Z" fill="#CB7329"/>
<path d="M58.5512 88.5223L56.0004 168.165L32.0671 166.274L28.109 91.6873L58.5512 88.5223Z" fill="#EFEFEF"/>
<path d="M62.0707 91.8785L59.5775 163.824L35.645 161.934L31.6285 95.0435L62.0707 91.8785Z" fill="#B2E3F8"/>
<path d="M58.5518 88.5217L56.001 168.164L37.7549 172.596L33.7958 98.0098L58.5518 88.5217Z" fill="#D3D3D3"/>
<path d="M64.5781 93.5063L62.0275 173.148L37.7535 172.596L33.7944 98.0099L64.5781 93.5063Z" fill="#F3FAFD"/>
<path d="M33.9609 101.134L37.5969 169.64L58.9723 169.213L61.8603 97.2111L33.9609 101.134Z" fill="#B2E3F8"/>
<path d="M37.9057 132.306C37.05 129.652 40.3181 129.047 40.9692 131.902C41.5573 134.006 41.7756 138.029 43.8804 137.44C50.0068 136.633 46.5067 128.991 46.4744 124.009C51.4561 123.976 54.8896 121.654 52.9388 116.302C49.9554 107.187 38.8817 111.876 34.1523 104.719L36.7119 152.945C39.6421 146.43 41.5632 140.116 37.9057 132.306Z" fill="#8BC63F"/>
<path d="M49.8357 113.035C49.2919 115.85 42.6673 122.776 42.6673 122.776C42.6673 122.776 39.0986 113.881 39.6424 111.067C40.1854 108.251 42.9082 106.411 45.7226 106.954C48.5391 107.498 50.3795 110.22 49.8357 113.035Z" fill="#EE2F4C"/>
<path d="M47.8047 112.927C47.4723 114.648 45.8066 115.774 44.0851 115.442C42.3628 115.109 41.2373 113.444 41.5689 111.722C41.9016 110 43.5681 108.874 45.2888 109.206C47.0119 109.539 48.1374 111.204 47.8047 112.927Z" fill="#F3FAFD"/>
<path d="M86.8974 167.863C86.8974 167.863 68.5364 145.824 65.4147 142.075C62.2907 138.325 54.3122 136.602 50.2132 135.494C46.1152 134.386 45.2065 133.7 44.5952 134.353C43.9849 135.005 43.8421 136.278 44.6082 136.795C45.3751 137.311 51.5619 137.769 54.2247 138.117C56.8888 138.464 60.8866 139.107 63.3178 142.025C67.5842 147.147 66.1986 146.426 68.073 148.906C69.9463 151.387 85.1072 169.355 85.1072 169.355L86.8974 167.863Z" fill="url(#paint0_linear_881_24294)"/>
<path d="M86.8982 167.864C86.8982 167.864 68.5372 145.824 65.4156 142.075C62.2916 138.326 53.9954 136.897 49.8974 135.788C45.7984 134.68 45.5959 134.266 44.9854 134.919C44.3741 135.572 43.8432 136.278 44.6101 136.794C45.377 137.311 51.5638 137.769 54.2266 138.117C56.8907 138.464 60.8885 139.107 63.3197 142.025C67.586 147.146 66.2005 146.426 68.0749 148.906C69.9482 151.387 85.1091 169.355 85.1091 169.355L86.8982 167.864Z" fill="#0D0D0D"/>
<path d="M56.2975 129.729C56.2975 129.729 73.8358 152.429 76.8191 156.29C79.8024 160.151 79.7564 168.314 79.9503 172.556C80.1452 176.797 80.6182 177.833 79.848 178.287C79.0787 178.741 77.8053 178.605 77.4666 177.744C77.1293 176.884 78.0221 170.745 78.2594 168.07C78.4965 165.394 78.7361 161.351 76.414 158.347C72.3374 153.071 72.7419 154.582 70.7264 152.215C68.7101 149.847 54.4539 131.154 54.4539 131.154L56.2975 129.729Z" fill="url(#paint1_linear_881_24294)"/>
<path d="M56.2975 129.729C56.2975 129.729 73.8358 152.429 76.8191 156.29C79.8024 160.151 79.5415 168.196 79.7354 172.438C79.9292 176.679 80.162 177.452 79.3914 177.908C78.622 178.362 77.8059 178.606 77.4664 177.745C77.1291 176.885 78.0218 170.745 78.2592 168.071C78.4962 165.394 78.7359 161.352 76.4138 158.347C72.3372 153.072 72.7416 154.582 70.7262 152.215C68.7099 149.848 54.4537 131.155 54.4537 131.155L56.2975 129.729Z" fill="#0D0D0D"/>
<path d="M87.716 168.255C85.125 160.086 79.1535 154.751 76.2153 152.613C73.6753 150.764 72.1569 149.09 71.7927 148.671C71.7887 148.666 71.7824 148.658 71.7789 148.651C71.7736 148.646 71.7671 148.638 71.7625 148.632C71.4329 148.186 70.1279 146.341 68.8727 143.461C67.4228 140.13 63.5068 133.143 56.0947 128.844C54.3046 130.15 53.9394 130.791 53.9394 130.791C53.9394 130.791 54.2809 131.251 53.0162 132.57C50.8946 134.785 44.325 139.68 49.4911 146.444C54.6573 153.208 57.8972 153.467 62.3049 151.861C66.7115 150.257 67.779 149.466 68.9289 150.899C68.9313 150.9 68.9341 150.899 68.9358 150.899C68.9359 150.902 68.9345 150.904 68.9354 150.907C68.9394 150.911 68.9429 150.917 68.9474 150.923C68.9514 150.927 68.9559 150.933 68.9604 150.938C68.9623 150.938 68.9657 150.938 68.9673 150.939C68.9674 150.941 68.966 150.943 68.9653 150.946C70.1163 152.378 69.1126 153.249 66.5911 157.204C64.0685 161.159 63.6191 164.378 69.1042 170.888C74.5887 177.397 80.743 171.962 83.4117 170.452C84.9664 169.573 85.3485 169.936 85.3485 169.936C85.3485 169.936 86.0543 169.719 87.716 168.255ZM63.2968 150.221C58.7755 152.109 54.6079 151.933 50.7039 146.687C46.7999 141.441 48.6801 138.963 50.909 136.302C53.1378 133.642 55.9124 131.823 58.154 132.577C59.9434 133.178 61.9994 135.352 65.7213 140.621C68.5939 144.687 67.7713 146.02 66.493 147.886C65.7039 149.039 64.2165 149.837 63.2968 150.221ZM79.3125 171.701C76.2325 173.3 73.4057 174.599 69.1298 169.651C64.8539 164.703 65.5865 160.597 68.4093 156.592C68.9839 155.778 70.0837 154.497 71.38 153.977C73.4793 153.134 74.9586 152.62 78.3051 156.305C82.6413 161.079 84.3192 163.559 84.5194 165.437C84.7691 167.787 82.3933 170.102 79.3125 171.701Z" fill="#191919"/>
<path d="M68.6303 156.862C68.6303 156.862 70.2043 155.049 71.354 154.416C73.1289 153.436 75.0595 152.899 79.2261 157.117C83.4887 161.432 84.3294 163.923 84.3916 165.697C84.4738 168.093 81.8442 170.114 78.9471 171.617C76.0505 173.122 72.8749 173.681 69.3223 169.233C65.4876 164.427 65.5326 161.031 68.6303 156.862Z" fill="#0073AD"/>
<path opacity="0.3" d="M83.5304 166.375C83.6 166.099 83.6345 165.816 83.6249 165.528C83.5689 163.894 82.7938 161.6 78.869 157.628C75.0328 153.744 73.2545 154.239 71.6206 155.141C70.5615 155.725 69.1126 157.394 69.1126 157.394C67.6449 159.368 66.9234 161.154 67.0481 163.025C72.5348 160.97 79.13 162.436 83.5304 166.375Z" fill="#F3FAFD"/>
<path d="M85.002 165.832C84.9371 163.946 84.0419 161.296 79.51 156.707C75.079 152.222 73.0254 152.793 71.1375 153.835C69.9156 154.51 68.2407 156.437 68.2407 156.437C64.946 160.869 64.8979 164.482 68.9777 169.591C72.7549 174.323 76.1314 173.727 79.2119 172.128C82.2943 170.53 85.0897 168.38 85.002 165.832ZM78.945 171.618C76.0484 173.123 72.8728 173.682 69.3202 169.233C65.4847 164.427 65.5295 161.032 68.6271 156.863C68.6271 156.863 70.2012 155.05 71.3509 154.417C73.1258 153.437 75.0563 152.9 79.223 157.118C83.4856 161.433 84.3263 163.924 84.3884 165.699C84.4719 168.092 81.8423 170.114 78.945 171.618Z" fill="#282828"/>
<path d="M63.0816 149.947C63.0816 149.947 65.1917 148.803 66.0601 147.819C67.4013 146.298 68.3432 144.529 65.129 139.549C61.8403 134.452 59.5904 133.092 57.8716 132.647C55.5509 132.047 53.0065 134.177 50.9122 136.678C48.8168 139.181 47.5816 142.159 51.156 146.59C55.0164 151.377 58.3412 152.069 63.0816 149.947Z" fill="#0073AD"/>
<path opacity="0.3" d="M66.5334 145.586C66.8216 144.357 66.4575 142.635 64.6044 139.765C61.5527 135.034 59.4637 133.771 57.8683 133.359C55.7141 132.802 53.3541 134.779 51.4092 137.101C50.1752 138.575 49.2653 140.226 49.6082 142.287C55.2704 139.522 62.727 140.117 66.5334 145.586Z" fill="#F3FAFD"/>
<path d="M50.4718 136.307C48.2428 138.968 46.9301 142.136 50.7308 146.848C54.8357 151.938 58.3722 152.673 63.4137 150.417C63.4137 150.417 65.6575 149.201 66.5813 148.154C68.0068 146.537 69.0098 144.656 65.5919 139.359C62.0938 133.94 59.7008 132.492 57.8732 132.02C55.4057 131.382 52.7017 133.646 50.4718 136.307ZM57.8728 132.647C59.5907 133.092 61.8415 134.453 65.1302 139.549C68.3444 144.53 67.4024 146.298 66.0613 147.819C65.1929 148.804 63.0827 149.947 63.0827 149.947C58.3418 152.069 55.0178 151.376 51.1563 146.59C47.5827 142.159 48.8172 139.181 50.9125 136.678C53.0077 134.177 55.5512 132.047 57.8728 132.647Z" fill="#282828"/>
<path d="M23.0938 149.448L15.1436 179.119C13.2027 186.362 17.5004 193.806 24.7439 195.747L97.9348 215.359C105.177 217.299 112.622 213.002 114.563 205.758L122.513 176.088L23.0938 149.448Z" fill="#C6C6C5"/>
<path d="M23.0938 149.448L15.1436 179.119C13.2027 186.362 17.5004 193.806 24.7439 195.747L97.9348 215.359C105.177 217.299 112.622 213.002 114.563 205.758L122.513 176.088C122.513 176.088 98.9853 173.713 72.1669 166.527C59.6167 163.171 23.0938 149.448 23.0938 149.448Z" fill="#FABB15"/>
<path d="M72.1669 166.527C71.9497 166.468 71.7248 166.407 71.4938 166.343C47.7883 159.919 23.0938 149.448 23.0938 149.448L15.1436 179.118C13.2027 186.362 17.5004 193.806 24.7439 195.747L97.9348 215.358C105.177 217.299 112.622 213.001 114.563 205.758L122.513 176.087C122.513 176.087 98.9853 173.713 72.1669 166.527Z" fill="#FABB15"/>
<path d="M60.9874 72.3535L63.1277 64.3656L59.4631 63.3836C52.2212 61.4432 44.7763 65.7415 42.8359 72.9834L41.9855 76.1568L50.1394 78.3416C52.571 74.7321 56.619 72.4817 60.9874 72.3535Z" fill="#59595A"/>
<path d="M61.3612 66.359C61.2193 66.8887 60.6757 67.2026 60.146 67.0606C59.6171 66.9189 59.3024 66.3751 59.4444 65.8454C59.5863 65.3157 60.1307 65.0021 60.6596 65.1438C61.1893 65.2857 61.5032 65.8293 61.3612 66.359Z" fill="#848484"/>
<path d="M60.2831 70.3849C60.1412 70.9146 59.5976 71.2284 59.0679 71.0865C58.539 70.9448 58.2243 70.401 58.3662 69.8713C58.5082 69.3416 59.0526 69.0279 59.5815 69.1697C60.1112 69.3116 60.425 69.8552 60.2831 70.3849Z" fill="#848484"/>
<path d="M45.267 74.0295C45.7959 74.1712 46.1106 74.7151 45.9686 75.2448C45.8267 75.7745 45.2823 76.0881 44.7534 75.9464C44.2229 75.8042 43.9101 75.26 44.0518 74.7311C44.1929 74.2012 44.7365 73.8874 45.267 74.0295Z" fill="#848484"/>
<path d="M49.2924 75.1081C49.8213 75.2498 50.136 75.7937 49.994 76.3234C49.8521 76.8531 49.3077 77.1667 48.7788 77.025C48.2491 76.8831 47.9355 76.3386 48.0772 75.8097C48.2191 75.28 48.7627 74.9662 49.2924 75.1081Z" fill="#848484"/>
<path d="M128.246 90.3757L130.387 82.3877L134.051 83.3696C141.295 85.3105 145.592 92.7552 143.652 99.9971L142.802 103.17L134.648 100.986C134.345 96.6436 131.965 92.6708 128.246 90.3757Z" fill="#59595A"/>
<path d="M130.919 84.9975C130.777 85.5272 131.092 86.071 131.621 86.2127C132.15 86.3547 132.694 86.0408 132.836 85.5111C132.978 84.9814 132.664 84.4378 132.134 84.2959C131.605 84.1542 131.061 84.4678 130.919 84.9975Z" fill="#848484"/>
<path d="M129.841 89.0234C129.699 89.5531 130.014 90.0969 130.542 90.2386C131.072 90.3805 131.616 90.0667 131.758 89.537C131.9 89.0073 131.586 88.4637 131.056 88.3218C130.527 88.18 129.983 88.4937 129.841 89.0234Z" fill="#848484"/>
<path d="M141.025 99.688C140.494 99.5458 139.952 99.8599 139.81 100.39C139.668 100.919 139.982 101.463 140.511 101.605C141.04 101.747 141.585 101.432 141.726 100.903C141.868 100.374 141.555 99.8299 141.025 99.688Z" fill="#848484"/>
<path d="M136.997 98.6093C136.468 98.4674 135.924 98.7813 135.782 99.311C135.64 99.8407 135.954 100.384 136.484 100.526C137.013 100.668 137.557 100.353 137.699 99.8246C137.842 99.2951 137.527 98.7513 136.997 98.6093Z" fill="#848484"/>
<path d="M29.6484 189.317L27.508 197.305L23.8434 196.324C16.6015 194.383 12.3032 186.938 14.2437 179.696L15.0938 176.524L23.2476 178.709C23.5489 183.049 25.9294 187.022 29.6484 189.317Z" fill="#59595A"/>
<path d="M26.9745 194.695C27.1164 194.166 26.8026 193.622 26.2729 193.48C25.744 193.338 25.1996 193.652 25.0576 194.182C24.9157 194.712 25.2304 195.255 25.7593 195.397C26.289 195.539 26.8328 195.224 26.9745 194.695Z" fill="#848484"/>
<path d="M28.0526 190.669C28.1946 190.139 27.8807 189.596 27.351 189.454C26.8221 189.312 26.2775 189.627 26.1358 190.155C25.9938 190.685 26.3085 191.229 26.8374 191.371C27.3671 191.513 27.9107 191.199 28.0526 190.669Z" fill="#848484"/>
<path d="M16.8706 180.005C17.3995 180.147 17.9439 179.833 18.0858 179.304C18.2278 178.774 17.9131 178.23 17.3842 178.088C16.8537 177.946 16.3109 178.26 16.169 178.79C16.0262 179.319 16.3401 179.863 16.8706 180.005Z" fill="#848484"/>
<path d="M20.896 181.084C21.4249 181.225 21.9693 180.912 22.1112 180.382C22.2531 179.852 21.9385 179.308 21.4096 179.167C20.8799 179.025 20.3363 179.339 20.1944 179.868C20.0524 180.398 20.3663 180.942 20.896 181.084Z" fill="#848484"/>
<path d="M96.9074 207.339L94.767 215.327L98.4317 216.309C105.675 218.25 113.119 213.951 115.06 206.709L115.91 203.537L107.756 201.352C105.323 204.96 101.276 207.211 96.9074 207.339Z" fill="#59595A"/>
<path d="M96.5342 213.333C96.6761 212.804 97.2205 212.49 97.7494 212.632C98.2791 212.774 98.593 213.317 98.4511 213.847C98.3091 214.377 97.7655 214.691 97.2358 214.549C96.7069 214.407 96.3925 213.862 96.5342 213.333Z" fill="#848484"/>
<path d="M97.6123 209.307C97.7543 208.778 98.2987 208.464 98.8276 208.606C99.3573 208.748 99.6709 209.292 99.5292 209.821C99.3873 210.351 98.8436 210.664 98.3139 210.523C97.785 210.381 97.4704 209.837 97.6123 209.307Z" fill="#848484"/>
<path d="M112.63 205.663C112.1 205.521 111.787 204.978 111.929 204.448C112.071 203.918 112.614 203.604 113.144 203.746C113.673 203.888 113.988 204.432 113.846 204.962C113.704 205.491 113.16 205.805 112.63 205.663Z" fill="#848484"/>
<path d="M108.603 204.584C108.073 204.442 107.759 203.899 107.901 203.369C108.043 202.839 108.587 202.526 109.117 202.667C109.646 202.809 109.96 203.353 109.818 203.883C109.677 204.413 109.133 204.726 108.603 204.584Z" fill="#848484"/>
<defs>
<linearGradient id="paint0_linear_881_24294" x1="48.6657" y1="131.074" x2="81.6252" y2="172.149" gradientUnits="userSpaceOnUse">
<stop stop-color="#3C3C3B"/>
<stop offset="0.1439" stop-color="#343435"/>
<stop offset="0.5043" stop-color="#212326"/>
<stop offset="0.8026" stop-color="#14171A"/>
<stop offset="1" stop-color="#0F1215"/>
</linearGradient>
<linearGradient id="paint1_linear_881_24294" x1="50.9719" y1="133.949" x2="83.9311" y2="175.023" gradientUnits="userSpaceOnUse">
<stop stop-color="#0F1215"/>
<stop offset="0.1974" stop-color="#14171A"/>
<stop offset="0.4957" stop-color="#212326"/>
<stop offset="0.8561" stop-color="#343435"/>
<stop offset="1" stop-color="#3C3C3B"/>
</linearGradient>
</defs>
</svg>
