<svg width="399" height="147" viewBox="0 0 399 147" fill="none" xmlns="http://www.w3.org/2000/svg">
<path d="M235.657 101.039L249.279 109.77C249.279 109.77 251.23 115.754 246.029 119.614L228.295 119.641L235.657 101.039Z" fill="url(#paint0_linear_3996_22156)"/>
<path d="M240.035 103.762C240.035 103.762 241.653 110.626 236.118 119.344L231.611 119.463C231.611 119.463 236.289 110.69 237.232 101.924L240.035 103.762Z" fill="url(#paint1_linear_3996_22156)"/>
<path d="M172.247 69.8359C172.247 69.8359 210.972 69.8132 236.985 93.0267C236.985 93.0267 238.695 97.1837 235.349 110.028C232.779 119.886 227.091 125.033 227.091 125.033C227.091 125.033 186.945 123.69 163.492 105.794L172.247 69.8359Z" fill="url(#paint2_linear_3996_22156)"/>
<path d="M163.492 105.794L172.246 69.8359C172.246 69.8359 194.003 69.8235 215.856 79.5921C216.856 85.7578 216.659 92.5764 215.025 99.518C212.902 108.545 208.697 116.311 203.394 121.985C190.556 119.378 175.012 114.584 163.492 105.794Z" fill="url(#paint3_linear_3996_22156)"/>
<path d="M163.262 86.8224C160.901 96.8568 161.296 105.534 164.145 106.205C166.991 106.874 171.216 99.2838 173.577 89.2494C175.937 79.2155 175.541 70.5371 172.695 69.8674C169.846 69.197 165.623 76.7888 163.262 86.8224Z" fill="url(#paint4_linear_3996_22156)"/>
<path d="M164.199 87.0423C162.151 95.7467 162.024 103.163 163.918 103.609C165.811 104.054 169.007 97.36 171.056 88.6556C173.104 79.9518 173.227 72.5346 171.335 72.0894C169.44 71.6433 166.247 78.3385 164.199 87.0423Z" fill="url(#paint5_linear_3996_22156)"/>
<path d="M165.925 87.4495C164.067 95.3441 163.711 102.014 165.126 102.347C166.543 102.68 169.196 96.5509 171.054 88.6563C172.911 80.7635 173.269 74.0923 171.852 73.759C170.437 73.4261 167.782 79.5566 165.925 87.4495Z" fill="url(#paint6_linear_3996_22156)"/>
<path d="M463.196 124.977L502.717 38.7717L490.016 32.8471C490.016 32.8471 486.695 30.7705 480.149 35.5527C472.815 40.9104 421.525 81.834 421.525 81.834C421.525 81.834 405.401 94.4987 352.568 85.997L463.196 124.977Z" fill="url(#paint7_linear_3996_22156)"/>
<path d="M493.872 35.0677C493.872 35.0677 491.25 32.2912 484.005 37.7733C476.763 43.2548 425.381 84.0543 425.381 84.0543C425.381 84.0543 410.129 96.0198 360.725 88.8682L352.568 85.9965C405.401 94.4983 421.525 81.8336 421.525 81.8336C421.525 81.8336 472.879 40.9962 480.149 35.5522C486.496 30.7996 490.016 32.8466 490.016 32.8466L502.717 38.7713L502.559 39.1175L493.872 35.0677Z" fill="url(#paint8_linear_3996_22156)"/>
<path d="M3.04434 25.7347C3.04434 25.7347 28.9492 53.6834 103.538 77.2792C178.128 100.877 273.677 126.326 343.295 139.369C414.941 152.79 459.476 142.764 459.476 142.764C459.476 142.764 466.956 141.12 467.976 134.083C468.873 127.877 462.104 123.964 454.423 120.594C446.741 117.226 177.062 21.1212 107.374 6.44576C107.374 6.44576 70.9314 -3.90361 48.9785 2.46271C48.9785 2.46271 35.9425 6.56424 22.4293 8.24113C8.91847 9.91625 2.79233 12.5574 1.10776 16.3978C-0.576809 20.2378 1.62655 23.5765 3.04434 25.7347Z" fill="url(#paint9_linear_3996_22156)"/>
<path d="M1.88564 15.1035C20.2174 25.1061 48.8438 38.1005 90.751 50.7099C176.619 76.5478 286.539 105.172 366.542 120.878C410.063 129.423 444.794 131.454 467.871 131.47C468.054 132.297 468.109 133.162 467.976 134.084C466.956 141.12 459.476 142.765 459.476 142.765C459.476 142.765 414.941 152.791 343.295 139.37C273.677 126.327 178.128 100.877 103.538 77.2798C28.9489 53.6838 3.04434 25.7353 3.04434 25.7353C1.62655 23.5772 -0.576809 20.2385 1.10776 16.3984C1.30482 15.9505 1.5645 15.5198 1.88564 15.1035Z" fill="url(#paint10_linear_3996_22156)"/>
<path d="M32.5312 6.68133C32.5312 6.68133 45.7824 9.0528 49.9019 13.7543L55.7397 6.91739C55.7397 6.91739 45.1948 4.6836 42.9542 4.15625L32.5312 6.68133Z" fill="url(#paint11_linear_3996_22156)"/>
<path d="M57.4807 7.45117L51.8438 13.9634L64.5407 14.4612L65.4276 8.5747L57.4807 7.45117Z" fill="url(#paint12_linear_3996_22156)"/>
<path d="M101.775 40.8256C101.775 40.8389 101.093 42.0576 99.6039 41.7152C99.4506 41.6791 99.294 41.6259 99.1285 41.5565C98.1495 41.1367 88.1688 37.5986 88.1573 37.5938C88.1644 37.5941 86.3058 37.0346 86.7421 35.1113C86.7746 34.9804 86.8169 34.8472 86.8659 34.7078C87.4651 33.1171 94.476 8.20075 94.4876 8.17446C94.5053 8.12246 95.087 6.86656 96.6587 7.22995L96.6076 7.44768L96.6741 7.2335L107.899 10.706C107.909 10.7102 109.744 11.2157 109.268 13.5171C109.172 13.9942 108.852 15.4064 108.391 17.366C106.738 24.3752 103.315 38.2311 101.775 40.8256ZM100.984 41.0448C101.256 40.8413 101.383 40.6029 101.386 40.6038C102.845 38.188 106.319 24.2337 107.956 17.2641C108.416 15.3092 108.735 13.892 108.827 13.4285C109.224 11.4299 107.775 11.1628 107.779 11.138L96.5438 7.66334C95.2858 7.38091 94.921 8.32779 94.9089 8.32513C94.9156 8.30416 87.9079 33.2069 87.2857 34.8646C87.2408 34.9872 87.206 35.1045 87.18 35.2144C86.8068 36.7389 88.2979 37.156 88.2952 37.1667C88.3115 37.1737 98.2777 40.7054 99.3043 41.1444C99.4467 41.2052 99.5817 41.2502 99.7061 41.2794C100.292 41.4206 100.712 41.249 100.984 41.0448Z" fill="white"/>
<path d="M87.0714 34.7856C87.6803 33.1619 94.6972 8.23514 94.6972 8.23514C94.6972 8.23514 95.0077 7.55062 95.8325 7.41797C95.6337 7.62034 95.5433 7.81355 95.5433 7.81355C95.5433 7.81355 88.5282 32.7403 87.9178 34.3637C87.1559 36.3933 89.0724 36.9594 89.0724 36.9594C89.0724 36.9594 99.0545 40.499 100.057 40.9268C100.533 41.1309 100.929 41.1581 101.256 41.1008C100.897 41.4314 100.229 41.7856 99.2105 41.3501C98.2102 40.9215 88.2277 37.3822 88.2277 37.3822C88.2277 37.3822 86.3098 36.8152 87.0714 34.7856Z" fill="#C7C7C7"/>
<path d="M122.853 30.6046C122.801 30.8261 122.936 31.0483 123.159 31.1009L127.432 32.1063C127.655 32.1589 127.877 32.0206 127.929 31.799L129.231 26.2673C129.283 26.046 129.146 25.8227 128.923 25.7704L124.65 24.765C124.427 24.7124 124.207 24.8519 124.154 25.0731L122.853 30.6046Z" fill="url(#paint13_linear_3996_22156)"/>
<path d="M132.718 33.6364C132.666 33.8579 132.801 34.0783 133.021 34.13L137.252 35.1254C137.472 35.1771 137.693 35.0406 137.745 34.819L139.033 29.3464C139.084 29.1269 138.947 28.9056 138.727 28.8539L134.497 27.8585C134.277 27.8068 134.058 27.9442 134.006 28.1635L132.718 33.6364Z" fill="url(#paint14_linear_3996_22156)"/>
<path d="M142.577 36.6721C142.526 36.8905 142.66 37.1064 142.879 37.1578L147.065 38.1428C147.283 38.1942 147.5 38.0607 147.551 37.8424L148.826 32.4261C148.877 32.2078 148.743 31.9904 148.524 31.9393L144.338 30.9543C144.12 30.9029 143.903 31.0376 143.852 31.2559L142.577 36.6721Z" fill="url(#paint15_linear_3996_22156)"/>
<path d="M152.442 39.7061C152.392 39.9209 152.525 40.1375 152.741 40.1886L156.881 41.1626C157.098 41.2135 157.314 41.0793 157.365 40.8645L158.626 35.5036C158.677 35.2897 158.543 35.0731 158.326 35.022L154.186 34.048C153.969 33.9969 153.754 34.1313 153.704 34.3452L152.442 39.7061Z" fill="url(#paint16_linear_3996_22156)"/>
<path d="M162.303 42.7414C162.254 42.9532 162.387 43.1674 162.6 43.2173L166.697 44.1813C166.91 44.2316 167.125 44.0995 167.175 43.8874L168.423 38.5831C168.473 38.3713 168.339 38.1577 168.126 38.1075L164.029 37.1435C163.816 37.0933 163.601 37.225 163.551 37.4369L162.303 42.7414Z" fill="url(#paint17_linear_3996_22156)"/>
<path d="M172.169 45.7736C172.119 45.9845 172.249 46.1969 172.461 46.2468L176.514 47.2005C176.725 47.2501 176.936 47.1181 176.986 46.9071L178.22 41.6617C178.27 41.4511 178.139 41.2404 177.928 41.1908L173.875 40.2371C173.663 40.1875 173.453 40.3178 173.403 40.5284L172.169 45.7736Z" fill="url(#paint18_linear_3996_22156)"/>
<path d="M182.028 48.8078C181.979 49.0164 182.108 49.2249 182.316 49.2737L186.326 50.2173C186.536 50.2666 186.745 50.1375 186.794 49.9289L188.014 44.7408C188.063 44.5322 187.934 44.3237 187.725 44.2743L183.714 43.3307C183.506 43.2817 183.298 43.4108 183.249 43.6193L182.028 48.8078Z" fill="url(#paint19_linear_3996_22156)"/>
<path d="M191.887 51.8436C191.839 52.0486 191.967 52.2554 192.175 52.3045L196.139 53.2372C196.346 53.2856 196.553 53.158 196.602 52.953L197.81 47.8189C197.858 47.6145 197.729 47.4059 197.523 47.3571L193.558 46.4244C193.35 46.3754 193.144 46.5051 193.095 46.7095L191.887 51.8436Z" fill="url(#paint20_linear_3996_22156)"/>
<path d="M201.753 54.8774C201.704 55.0818 201.829 55.2863 202.034 55.3344L205.955 56.2571C206.16 56.3052 206.363 56.1779 206.411 55.9734L207.605 50.8985C207.653 50.6952 207.528 50.4908 207.324 50.4426L203.402 49.5199C203.197 49.4718 202.995 49.5991 202.947 49.8024L201.753 54.8774Z" fill="url(#paint21_linear_3996_22156)"/>
<path d="M211.614 57.9135C211.566 58.1144 211.691 58.3171 211.892 58.3643L215.77 59.2766C215.971 59.3239 216.173 59.1983 216.221 58.9974L217.401 53.9786C217.449 53.7774 217.324 53.575 217.122 53.5278L213.245 52.6155C213.044 52.5682 212.841 52.6932 212.794 52.8946L211.614 57.9135Z" fill="url(#paint22_linear_3996_22156)"/>
<path d="M221.479 60.9455C221.432 61.1458 221.554 61.3455 221.752 61.3922L225.587 62.2945C225.786 62.3414 225.986 62.2177 226.033 62.0174L227.201 57.0567C227.247 56.8582 227.123 56.6582 226.924 56.6112L223.089 55.7089C222.891 55.6626 222.693 55.7866 222.646 55.9852L221.479 60.9455Z" fill="url(#paint23_linear_3996_22156)"/>
<path d="M231.344 63.9805C231.298 64.177 231.42 64.3749 231.616 64.421L235.407 65.3129C235.603 65.359 235.801 65.2364 235.847 65.0399L237.001 60.1348C237.047 59.9383 236.924 59.7407 236.729 59.6946L232.938 58.8027C232.742 58.7566 232.544 58.8786 232.498 59.0751L231.344 63.9805Z" fill="url(#paint24_linear_3996_22156)"/>
<path d="M241.203 67.0156C241.157 67.2103 241.277 67.4058 241.471 67.4516L245.215 68.3326C245.412 68.3787 245.607 68.2573 245.653 68.0626L246.794 63.2148C246.839 63.0213 246.718 62.8254 246.522 62.7793L242.778 61.8983C242.583 61.8525 242.389 61.9743 242.344 62.1678L241.203 67.0156Z" fill="url(#paint25_linear_3996_22156)"/>
<path d="M251.062 70.0493C251.017 70.2417 251.137 70.4346 251.33 70.4798L255.032 71.3507C255.224 71.3962 255.416 71.2766 255.462 71.0843L256.589 66.2932C256.634 66.1014 256.516 65.9085 256.323 65.863L252.621 64.9921C252.429 64.9466 252.235 65.0662 252.19 65.2583L251.062 70.0493Z" fill="url(#paint26_linear_3996_22156)"/>
<path d="M260.927 73.0821C260.883 73.2726 261.001 73.4638 261.191 73.5084L264.85 74.3693C265.039 74.4139 265.231 74.2957 265.276 74.1051L266.389 69.3726C266.434 69.1811 266.315 68.9912 266.126 68.9465L262.467 68.0857C262.277 68.041 262.086 68.158 262.041 68.3495L260.927 73.0821Z" fill="url(#paint27_linear_3996_22156)"/>
<path d="M270.789 76.1185C270.744 76.307 270.86 76.4949 271.049 76.5392L274.663 77.3895C274.85 77.4338 275.039 77.3174 275.083 77.1289L276.184 72.4513C276.227 72.2652 276.111 72.0758 275.923 72.0315L272.309 71.1812C272.121 71.1369 271.933 71.2545 271.889 71.4409L270.789 76.1185Z" fill="url(#paint28_linear_3996_22156)"/>
<path d="M280.654 79.1517C280.61 79.3381 280.724 79.523 280.91 79.5668L284.479 80.4067C284.665 80.4504 284.851 80.3358 284.895 80.1493L285.981 75.5299C286.025 75.3441 285.911 75.1586 285.724 75.1148L282.155 74.2749C281.969 74.2312 281.784 74.3461 281.74 74.5319L280.654 79.1517Z" fill="url(#paint29_linear_3996_22156)"/>
<path d="M290.513 82.1858C290.47 82.3689 290.584 82.5515 290.767 82.5947L294.293 83.4242C294.475 83.4671 294.659 83.3548 294.702 83.1717L295.776 78.6092C295.819 78.4264 295.705 78.2429 295.522 78.2001L291.996 77.3705C291.813 77.3273 291.63 77.4408 291.587 77.6237L290.513 82.1858Z" fill="url(#paint30_linear_3996_22156)"/>
<path d="M300.378 85.2191C300.335 85.4011 300.448 85.5822 300.628 85.6248L304.11 86.444C304.291 86.4865 304.474 86.3749 304.516 86.1926L305.576 81.6878C305.619 81.507 305.505 81.3259 305.324 81.2833L301.842 80.4641C301.662 80.4216 301.481 80.5332 301.438 80.714L300.378 85.2191Z" fill="url(#paint31_linear_3996_22156)"/>
<path d="M310.237 88.2543C310.195 88.4336 310.306 88.6115 310.485 88.6537L313.923 89.4627C314.102 89.5049 314.281 89.3953 314.324 89.216L315.371 84.7664C315.413 84.5883 315.301 84.4089 315.122 84.3667L311.685 83.5578C311.505 83.5156 311.326 83.6266 311.284 83.8048L310.237 88.2543Z" fill="url(#paint32_linear_3996_22156)"/>
<path d="M320.102 91.2905C320.061 91.4657 320.17 91.6429 320.347 91.6846L323.741 92.4831C323.917 92.5248 324.095 92.4146 324.136 92.2394L325.169 87.8463C325.211 87.6711 325.101 87.4932 324.925 87.4519L321.531 86.6533C321.354 86.6117 321.177 86.7222 321.136 86.8973L320.102 91.2905Z" fill="url(#paint33_linear_3996_22156)"/>
<path d="M329.964 94.322C329.923 94.4963 330.031 94.6721 330.205 94.7129L333.554 95.5011C333.729 95.5422 333.903 95.4329 333.944 95.2586L334.964 90.9242C335.005 90.7499 334.898 90.5762 334.723 90.5351L331.373 89.7469C331.199 89.7062 331.024 89.8134 330.984 89.9877L329.964 94.322Z" fill="url(#paint34_linear_3996_22156)"/>
<path d="M339.829 97.3585C339.789 97.5296 339.894 97.7024 340.067 97.7429L343.372 98.5208C343.545 98.5616 343.716 98.4537 343.757 98.2827L344.763 94.0048C344.803 93.8337 344.698 93.6612 344.525 93.6204L341.22 92.8425C341.048 92.802 340.876 92.9096 340.836 93.0806L339.829 97.3585Z" fill="url(#paint35_linear_3996_22156)"/>
<path d="M349.688 100.393C349.648 100.562 349.753 100.732 349.923 100.772L353.185 101.54C353.354 101.58 353.524 101.474 353.564 101.305L354.557 97.0825C354.597 96.9138 354.491 96.7436 354.323 96.7037L351.061 95.9362C350.891 95.8963 350.721 96.0015 350.682 96.1705L349.688 100.393Z" fill="url(#paint36_linear_3996_22156)"/>
<path d="M359.553 103.426C359.514 103.592 359.618 103.76 359.784 103.8L363.003 104.557C363.171 104.596 363.339 104.493 363.378 104.326L364.358 100.161C364.397 99.9937 364.293 99.8265 364.125 99.7872L360.906 99.0297C360.74 98.9907 360.572 99.0938 360.533 99.2611L359.553 103.426Z" fill="url(#paint37_linear_3996_22156)"/>
<path d="M369.412 106.461C369.374 106.626 369.476 106.792 369.641 106.831L372.815 107.578C372.98 107.617 373.146 107.514 373.185 107.349L374.151 103.241C374.19 103.077 374.087 102.911 373.922 102.873L370.748 102.125C370.583 102.087 370.418 102.189 370.379 102.353L369.412 106.461Z" fill="url(#paint38_linear_3996_22156)"/>
<path d="M379.278 109.494C379.239 109.657 379.341 109.82 379.503 109.858L382.633 110.595C382.796 110.633 382.959 110.532 382.997 110.37L383.95 106.319C383.989 106.156 383.887 105.994 383.725 105.956L380.594 105.219C380.433 105.181 380.269 105.281 380.231 105.444L379.278 109.494Z" fill="url(#paint39_linear_3996_22156)"/>
<path d="M235.324 71.1939L458.022 44.8242L494.708 52.6019C494.708 52.6019 320.095 91.6152 308.224 102.538C308.224 102.538 268.715 98.5919 235.324 71.1939Z" fill="url(#paint40_linear_3996_22156)"/>
<path d="M458.252 48.6102L239.544 74.5054C238.128 73.4403 236.719 72.3404 235.324 71.1939L458.022 44.8242L494.708 52.6019C494.708 52.6019 491.592 53.2976 486.169 54.5287L458.252 48.6102Z" fill="url(#paint41_linear_3996_22156)"/>
<path d="M326.787 77.4122C326.787 77.4122 338.166 90.9129 376.568 95.8437L363.981 84.2981C363.981 84.2981 340.975 77.3912 326.787 77.4122Z" fill="url(#paint42_linear_3996_22156)"/>
<path d="M373.733 93.2434L376.568 95.8438C338.166 90.913 326.787 77.4122 326.787 77.4122C327.678 77.4102 328.601 77.437 329.553 77.4861C334.414 81.3838 347.205 89.3658 373.733 93.2434Z" fill="url(#paint43_linear_3996_22156)"/>
<path d="M291.445 86.4512C291.445 86.4512 302.824 99.9517 341.226 104.882L328.64 93.3366C328.64 93.3366 305.633 86.4302 291.445 86.4512Z" fill="url(#paint44_linear_3996_22156)"/>
<path d="M338.392 102.283L341.226 104.882C302.824 99.9518 291.445 86.4513 291.445 86.4513C292.335 86.4492 293.26 86.4755 294.211 86.5249C299.071 90.4219 311.863 98.4052 338.392 102.283Z" fill="url(#paint45_linear_3996_22156)"/>
<path d="M275.479 93.8242C275.479 93.8242 284.659 106.443 318.204 113.208L307.836 102.237C307.836 102.237 287.987 94.7008 275.479 93.8242Z" fill="url(#paint46_linear_3996_22156)"/>
<path d="M315.87 110.738L318.204 113.208C284.659 106.443 275.479 93.8242 275.479 93.8242C276.262 93.8809 277.076 93.9598 277.911 94.0647C281.951 97.8055 292.725 105.65 315.87 110.738Z" fill="url(#paint47_linear_3996_22156)"/>
<path d="M311.514 96.9961L326.958 106.425C326.958 106.425 329.253 112.757 323.481 116.733L303.572 116.451L311.514 96.9961Z" fill="url(#paint48_linear_3996_22156)"/>
<path d="M316.467 99.9395C316.467 99.9395 318.403 107.193 312.342 116.274L307.283 116.322C307.283 116.322 312.383 107.167 313.288 97.9551L316.467 99.9395Z" fill="url(#paint49_linear_3996_22156)"/>
<path d="M239.777 63.041C239.777 63.041 283.254 63.6919 312.863 88.5828C312.863 88.5828 314.857 92.9901 311.323 106.454C308.609 116.786 302.312 122.106 302.312 122.106C302.312 122.106 257.218 119.993 230.576 100.743L239.777 63.041Z" fill="url(#paint50_linear_3996_22156)"/>
<path d="M230.576 100.743L239.777 63.041C239.777 63.041 264.203 63.4071 288.907 74.0714C290.136 80.5816 290.035 87.7544 288.322 95.0334C286.095 104.501 281.509 112.603 275.657 118.484C261.196 115.516 243.661 110.199 230.576 100.743Z" fill="url(#paint51_linear_3996_22156)"/>
<path d="M229.983 80.7663C227.507 91.2903 228.104 100.431 231.312 101.186C234.521 101.941 239.129 94.0249 241.605 83.5009C244.081 72.9796 243.486 63.8361 240.277 63.081C237.07 62.3265 232.459 70.245 229.983 80.7663Z" fill="url(#paint52_linear_3996_22156)"/>
<path d="M231.036 81.0135C228.889 90.141 228.877 97.947 231.012 98.4495C233.146 98.9517 236.616 91.9594 238.764 82.8319C240.911 73.7059 240.924 65.8988 238.789 65.3965C236.654 64.8943 233.184 71.8875 231.036 81.0135Z" fill="url(#paint53_linear_3996_22156)"/>
<path d="M232.989 81.4728C231.041 89.7511 230.755 96.7656 232.351 97.1411C233.947 97.5166 236.82 91.1107 238.767 82.8323C240.715 74.5554 241 67.538 239.404 67.1622C237.809 66.7867 234.937 73.1956 232.989 81.4728Z" fill="url(#paint54_linear_3996_22156)"/>
<defs>
<linearGradient id="paint0_linear_3996_22156" x1="242.262" y1="102.593" x2="237.729" y2="121.861" gradientUnits="userSpaceOnUse">
<stop offset="0.1538" stop-color="#666666"/>
<stop offset="0.2586" stop-color="#868686"/>
<stop offset="0.4176" stop-color="#B3B3B3"/>
<stop offset="0.4312" stop-color="#A7A7A7"/>
<stop offset="0.4769" stop-color="#878787"/>
<stop offset="0.5241" stop-color="#6D6D6D"/>
<stop offset="0.5727" stop-color="#5B5B5B"/>
<stop offset="0.6238" stop-color="#505050"/>
<stop offset="0.6813" stop-color="#4D4D4D"/>
<stop offset="1" stop-color="#999999"/>
</linearGradient>
<linearGradient id="paint1_linear_3996_22156" x1="238.704" y1="102.27" x2="234.499" y2="120.142" gradientUnits="userSpaceOnUse">
<stop offset="0.1538" stop-color="#333333"/>
<stop offset="0.2586" stop-color="#535353"/>
<stop offset="0.4176" stop-color="#808080"/>
<stop offset="0.4312" stop-color="#747474"/>
<stop offset="0.4769" stop-color="#545454"/>
<stop offset="0.5241" stop-color="#3A3A3A"/>
<stop offset="0.5727" stop-color="#282828"/>
<stop offset="0.6238" stop-color="#1D1D1D"/>
<stop offset="0.6813" stop-color="#1A1A1A"/>
<stop offset="1" stop-color="#666666"/>
</linearGradient>
<linearGradient id="paint2_linear_3996_22156" x1="195.961" y1="119.437" x2="207.572" y2="75.7243" gradientUnits="userSpaceOnUse">
<stop stop-color="#B3B3B3"/>
<stop offset="0.1081" stop-color="#A9A9A9"/>
<stop offset="0.2866" stop-color="#909090"/>
<stop offset="0.3846" stop-color="#808080"/>
<stop offset="0.6758" stop-color="#F2F2F2"/>
<stop offset="0.6832" stop-color="#F0F0F0"/>
<stop offset="0.8163" stop-color="#CFCFCF"/>
<stop offset="0.9267" stop-color="#BABABA"/>
<stop offset="1" stop-color="#B3B3B3"/>
</linearGradient>
<linearGradient id="paint3_linear_3996_22156" x1="184.047" y1="118.366" x2="196.592" y2="74.4391" gradientUnits="userSpaceOnUse">
<stop stop-color="#09AFFD"/>
<stop offset="0.2983" stop-color="#0366C4"/>
<stop offset="0.4286" stop-color="#0045AA"/>
<stop offset="0.8846" stop-color="#09AFFD"/>
<stop offset="0.9234" stop-color="#09ACFD"/>
<stop offset="0.9572" stop-color="#08A1FD"/>
<stop offset="0.989" stop-color="#078FFD"/>
<stop offset="1" stop-color="#0787FD"/>
</linearGradient>
<linearGradient id="paint4_linear_3996_22156" x1="172.694" y1="69.867" x2="164.145" y2="106.205" gradientUnits="userSpaceOnUse">
<stop stop-color="#B3B3B3"/>
<stop offset="0.0236" stop-color="#BDBDBD"/>
<stop offset="0.0971" stop-color="#DADADA"/>
<stop offset="0.1704" stop-color="#EFEFEF"/>
<stop offset="0.2427" stop-color="#FBFBFB"/>
<stop offset="0.3132" stop-color="white"/>
<stop offset="0.7857" stop-color="#B3B3B3"/>
<stop offset="1" stop-color="#E6E6E6"/>
</linearGradient>
<linearGradient id="paint5_linear_3996_22156" x1="171.335" y1="72.0892" x2="163.919" y2="103.609" gradientUnits="userSpaceOnUse">
<stop stop-color="#808080"/>
<stop offset="0.0386" stop-color="#8B8B8B"/>
<stop offset="0.1694" stop-color="#ADADAD"/>
<stop offset="0.2944" stop-color="#C5C5C5"/>
<stop offset="0.41" stop-color="#D3D3D3"/>
<stop offset="0.5072" stop-color="#D8D8D8"/>
<stop offset="1" stop-color="#808080"/>
</linearGradient>
<linearGradient id="paint6_linear_3996_22156" x1="171.852" y1="73.759" x2="165.126" y2="102.347" gradientUnits="userSpaceOnUse">
<stop stop-color="#373737"/>
<stop offset="0.116" stop-color="#505050"/>
<stop offset="0.2604" stop-color="#686868"/>
<stop offset="0.3945" stop-color="#767676"/>
<stop offset="0.5072" stop-color="#7B7B7B"/>
<stop offset="1" stop-color="#090909"/>
</linearGradient>
<linearGradient id="paint7_linear_3996_22156" x1="410.152" y1="101.884" x2="479.322" y2="-7.91767" gradientUnits="userSpaceOnUse">
<stop stop-color="#0475CF"/>
<stop offset="0.0506" stop-color="#068ADF"/>
<stop offset="0.112" stop-color="#079BED"/>
<stop offset="0.1884" stop-color="#08A6F6"/>
<stop offset="0.2957" stop-color="#09ADFC"/>
<stop offset="0.5934" stop-color="#09AFFD"/>
<stop offset="1" stop-color="#0475CF"/>
</linearGradient>
<linearGradient id="paint8_linear_3996_22156" x1="434.747" y1="32.1889" x2="413.883" y2="120.871" gradientUnits="userSpaceOnUse">
<stop stop-color="#3DD2FD"/>
<stop offset="0.1818" stop-color="#31CAFD"/>
<stop offset="0.7027" stop-color="#14B6FD"/>
<stop offset="1" stop-color="#09AFFD"/>
</linearGradient>
<linearGradient id="paint9_linear_3996_22156" x1="243.881" y1="46.02" x2="220.918" y2="118.245" gradientUnits="userSpaceOnUse">
<stop stop-color="#E6E6E6"/>
<stop offset="0.1722" stop-color="#F7F7F7"/>
<stop offset="0.3132" stop-color="white"/>
<stop offset="1" stop-color="#B3B3B3"/>
</linearGradient>
<linearGradient id="paint10_linear_3996_22156" x1="240.04" y1="58.1022" x2="221.103" y2="117.665" gradientUnits="userSpaceOnUse">
<stop stop-color="#09AFFD"/>
<stop offset="0.3317" stop-color="#09ADFB"/>
<stop offset="0.5053" stop-color="#08A5F6"/>
<stop offset="0.6424" stop-color="#0797EC"/>
<stop offset="0.7596" stop-color="#0584DF"/>
<stop offset="0.8297" stop-color="#0475D4"/>
<stop offset="0.8846" stop-color="#0475CF"/>
<stop offset="1" stop-color="#09AFFD"/>
</linearGradient>
<linearGradient id="paint11_linear_3996_22156" x1="63.7337" y1="24.6535" x2="42.1742" y2="5.01279" gradientUnits="userSpaceOnUse">
<stop stop-color="#00003A"/>
<stop offset="0.15" stop-color="#001855"/>
<stop offset="0.3678" stop-color="#003576"/>
<stop offset="0.5491" stop-color="#00478B"/>
<stop offset="0.6703" stop-color="#004D92"/>
<stop offset="0.7588" stop-color="#00498F"/>
<stop offset="0.8482" stop-color="#003D86"/>
<stop offset="0.9379" stop-color="#002976"/>
<stop offset="1" stop-color="#001668"/>
</linearGradient>
<linearGradient id="paint12_linear_3996_22156" x1="68.0842" y1="19.8768" x2="46.5259" y2="0.237069" gradientUnits="userSpaceOnUse">
<stop stop-color="#00003A"/>
<stop offset="0.15" stop-color="#001855"/>
<stop offset="0.3678" stop-color="#003576"/>
<stop offset="0.5491" stop-color="#00478B"/>
<stop offset="0.6703" stop-color="#004D92"/>
<stop offset="0.7588" stop-color="#00498F"/>
<stop offset="0.8482" stop-color="#003D86"/>
<stop offset="0.9379" stop-color="#002976"/>
<stop offset="1" stop-color="#001668"/>
</linearGradient>
<linearGradient id="paint13_linear_3996_22156" x1="383.388" y1="108.178" x2="124.098" y2="27.8333" gradientUnits="userSpaceOnUse">
<stop stop-color="#006EB6"/>
<stop offset="0.5495" stop-color="#002E66"/>
<stop offset="1" stop-color="#006EB6"/>
</linearGradient>
<linearGradient id="paint14_linear_3996_22156" x1="383.442" y1="108.205" x2="124.097" y2="27.8432" gradientUnits="userSpaceOnUse">
<stop stop-color="#006EB6"/>
<stop offset="0.5495" stop-color="#002E66"/>
<stop offset="1" stop-color="#006EB6"/>
</linearGradient>
<linearGradient id="paint15_linear_3996_22156" x1="383.48" y1="108.227" x2="124.088" y2="27.8508" gradientUnits="userSpaceOnUse">
<stop stop-color="#006EB6"/>
<stop offset="0.5495" stop-color="#002E66"/>
<stop offset="1" stop-color="#006EB6"/>
</linearGradient>
<linearGradient id="paint16_linear_3996_22156" x1="383.461" y1="108.232" x2="124.088" y2="27.8616" gradientUnits="userSpaceOnUse">
<stop stop-color="#006EB6"/>
<stop offset="0.5495" stop-color="#002E66"/>
<stop offset="1" stop-color="#006EB6"/>
</linearGradient>
<linearGradient id="paint17_linear_3996_22156" x1="383.45" y1="108.24" x2="124.079" y2="27.87" gradientUnits="userSpaceOnUse">
<stop stop-color="#006EB6"/>
<stop offset="0.5495" stop-color="#002E66"/>
<stop offset="1" stop-color="#006EB6"/>
</linearGradient>
<linearGradient id="paint18_linear_3996_22156" x1="383.467" y1="108.255" x2="124.076" y2="27.8792" gradientUnits="userSpaceOnUse">
<stop stop-color="#006EB6"/>
<stop offset="0.5495" stop-color="#002E66"/>
<stop offset="1" stop-color="#006EB6"/>
</linearGradient>
<linearGradient id="paint19_linear_3996_22156" x1="383.459" y1="108.263" x2="124.07" y2="27.8879" gradientUnits="userSpaceOnUse">
<stop stop-color="#006EB6"/>
<stop offset="0.5495" stop-color="#002E66"/>
<stop offset="1" stop-color="#006EB6"/>
</linearGradient>
<linearGradient id="paint20_linear_3996_22156" x1="383.442" y1="108.269" x2="124.066" y2="27.8981" gradientUnits="userSpaceOnUse">
<stop stop-color="#006EB6"/>
<stop offset="0.5495" stop-color="#002E66"/>
<stop offset="1" stop-color="#006EB6"/>
</linearGradient>
<linearGradient id="paint21_linear_3996_22156" x1="383.388" y1="108.264" x2="124.086" y2="27.9161" gradientUnits="userSpaceOnUse">
<stop stop-color="#006EB6"/>
<stop offset="0.5495" stop-color="#002E66"/>
<stop offset="1" stop-color="#006EB6"/>
</linearGradient>
<linearGradient id="paint22_linear_3996_22156" x1="383.388" y1="108.276" x2="124.083" y2="27.9266" gradientUnits="userSpaceOnUse">
<stop stop-color="#006EB6"/>
<stop offset="0.5495" stop-color="#002E66"/>
<stop offset="1" stop-color="#006EB6"/>
</linearGradient>
<linearGradient id="paint23_linear_3996_22156" x1="383.371" y1="108.28" x2="124.093" y2="27.9388" gradientUnits="userSpaceOnUse">
<stop stop-color="#006EB6"/>
<stop offset="0.5495" stop-color="#002E66"/>
<stop offset="1" stop-color="#006EB6"/>
</linearGradient>
<linearGradient id="paint24_linear_3996_22156" x1="383.401" y1="108.299" x2="124.075" y2="27.9431" gradientUnits="userSpaceOnUse">
<stop stop-color="#006EB6"/>
<stop offset="0.5495" stop-color="#002E66"/>
<stop offset="1" stop-color="#006EB6"/>
</linearGradient>
<linearGradient id="paint25_linear_3996_22156" x1="383.406" y1="108.313" x2="124.059" y2="27.9512" gradientUnits="userSpaceOnUse">
<stop stop-color="#006EB6"/>
<stop offset="0.5495" stop-color="#002E66"/>
<stop offset="1" stop-color="#006EB6"/>
</linearGradient>
<linearGradient id="paint26_linear_3996_22156" x1="383.391" y1="108.319" x2="124.065" y2="27.9635" gradientUnits="userSpaceOnUse">
<stop stop-color="#006EB6"/>
<stop offset="0.5495" stop-color="#002E66"/>
<stop offset="1" stop-color="#006EB6"/>
</linearGradient>
<linearGradient id="paint27_linear_3996_22156" x1="383.388" y1="108.328" x2="124.069" y2="27.9743" gradientUnits="userSpaceOnUse">
<stop stop-color="#006EB6"/>
<stop offset="0.5495" stop-color="#002E66"/>
<stop offset="1" stop-color="#006EB6"/>
</linearGradient>
<linearGradient id="paint28_linear_3996_22156" x1="383.398" y1="108.343" x2="124.048" y2="27.98" gradientUnits="userSpaceOnUse">
<stop stop-color="#006EB6"/>
<stop offset="0.5495" stop-color="#002E66"/>
<stop offset="1" stop-color="#006EB6"/>
</linearGradient>
<linearGradient id="paint29_linear_3996_22156" x1="383.375" y1="108.345" x2="124.079" y2="27.9992" gradientUnits="userSpaceOnUse">
<stop stop-color="#006EB6"/>
<stop offset="0.5495" stop-color="#002E66"/>
<stop offset="1" stop-color="#006EB6"/>
</linearGradient>
<linearGradient id="paint30_linear_3996_22156" x1="383.37" y1="108.355" x2="124.077" y2="28.0099" gradientUnits="userSpaceOnUse">
<stop stop-color="#006EB6"/>
<stop offset="0.5495" stop-color="#002E66"/>
<stop offset="1" stop-color="#006EB6"/>
</linearGradient>
<linearGradient id="paint31_linear_3996_22156" x1="383.388" y1="108.371" x2="124.044" y2="28.0096" gradientUnits="userSpaceOnUse">
<stop stop-color="#006EB6"/>
<stop offset="0.5495" stop-color="#002E66"/>
<stop offset="1" stop-color="#006EB6"/>
</linearGradient>
<linearGradient id="paint32_linear_3996_22156" x1="383.383" y1="108.38" x2="124.035" y2="28.0175" gradientUnits="userSpaceOnUse">
<stop stop-color="#006EB6"/>
<stop offset="0.5495" stop-color="#002E66"/>
<stop offset="1" stop-color="#006EB6"/>
</linearGradient>
<linearGradient id="paint33_linear_3996_22156" x1="383.37" y1="108.388" x2="124.073" y2="28.0413" gradientUnits="userSpaceOnUse">
<stop stop-color="#006EB6"/>
<stop offset="0.5495" stop-color="#002E66"/>
<stop offset="1" stop-color="#006EB6"/>
</linearGradient>
<linearGradient id="paint34_linear_3996_22156" x1="383.376" y1="108.4" x2="124.033" y2="28.0388" gradientUnits="userSpaceOnUse">
<stop stop-color="#006EB6"/>
<stop offset="0.5495" stop-color="#002E66"/>
<stop offset="1" stop-color="#006EB6"/>
</linearGradient>
<linearGradient id="paint35_linear_3996_22156" x1="383.372" y1="108.409" x2="124.056" y2="28.0568" gradientUnits="userSpaceOnUse">
<stop stop-color="#006EB6"/>
<stop offset="0.5495" stop-color="#002E66"/>
<stop offset="1" stop-color="#006EB6"/>
</linearGradient>
<linearGradient id="paint36_linear_3996_22156" x1="383.364" y1="108.419" x2="124.065" y2="28.0719" gradientUnits="userSpaceOnUse">
<stop stop-color="#006EB6"/>
<stop offset="0.5495" stop-color="#002E66"/>
<stop offset="1" stop-color="#006EB6"/>
</linearGradient>
<linearGradient id="paint37_linear_3996_22156" x1="383.368" y1="108.428" x2="124.045" y2="28.0731" gradientUnits="userSpaceOnUse">
<stop stop-color="#006EB6"/>
<stop offset="0.5495" stop-color="#002E66"/>
<stop offset="1" stop-color="#006EB6"/>
</linearGradient>
<linearGradient id="paint38_linear_3996_22156" x1="383.362" y1="108.44" x2="124.046" y2="28.088" gradientUnits="userSpaceOnUse">
<stop stop-color="#006EB6"/>
<stop offset="0.5495" stop-color="#002E66"/>
<stop offset="1" stop-color="#006EB6"/>
</linearGradient>
<linearGradient id="paint39_linear_3996_22156" x1="383.363" y1="108.449" x2="124.041" y2="28.0943" gradientUnits="userSpaceOnUse">
<stop stop-color="#006EB6"/>
<stop offset="0.5495" stop-color="#002E66"/>
<stop offset="1" stop-color="#006EB6"/>
</linearGradient>
<linearGradient id="paint40_linear_3996_22156" x1="387.929" y1="104.613" x2="340.88" y2="16.9039" gradientUnits="userSpaceOnUse">
<stop stop-color="#09AFFD"/>
<stop offset="0.2486" stop-color="#079DEF"/>
<stop offset="0.727" stop-color="#0580D8"/>
<stop offset="1" stop-color="#0475CF"/>
</linearGradient>
<linearGradient id="paint41_linear_3996_22156" x1="485.576" y1="91.4197" x2="243.94" y2="34.5729" gradientUnits="userSpaceOnUse">
<stop stop-color="#3DD2FD"/>
<stop offset="0.016" stop-color="#31CAFD"/>
<stop offset="0.0618" stop-color="#14B6FD"/>
<stop offset="0.0879" stop-color="#09AFFD"/>
<stop offset="0.1758" stop-color="#3DD2FD"/>
<stop offset="0.2912" stop-color="#09AFFD"/>
<stop offset="1" stop-color="#09AFFD"/>
</linearGradient>
<linearGradient id="paint42_linear_3996_22156" x1="352.821" y1="98.7252" x2="350.824" y2="77.6016" gradientUnits="userSpaceOnUse">
<stop stop-color="#09AFFD"/>
<stop offset="0.2651" stop-color="#08A5F5"/>
<stop offset="0.7188" stop-color="#0689DF"/>
<stop offset="1" stop-color="#0475CF"/>
</linearGradient>
<linearGradient id="paint43_linear_3996_22156" x1="377.277" y1="92.8266" x2="325.999" y2="80.7629" gradientUnits="userSpaceOnUse">
<stop stop-color="#3DD2FD"/>
<stop offset="0.1818" stop-color="#31CAFD"/>
<stop offset="0.7027" stop-color="#14B6FD"/>
<stop offset="1" stop-color="#09AFFD"/>
</linearGradient>
<linearGradient id="paint44_linear_3996_22156" x1="317.48" y1="107.764" x2="315.482" y2="86.6407" gradientUnits="userSpaceOnUse">
<stop stop-color="#09AFFD"/>
<stop offset="0.2651" stop-color="#08A5F5"/>
<stop offset="0.7188" stop-color="#0689DF"/>
<stop offset="1" stop-color="#0475CF"/>
</linearGradient>
<linearGradient id="paint45_linear_3996_22156" x1="341.936" y1="101.865" x2="290.657" y2="89.8014" gradientUnits="userSpaceOnUse">
<stop stop-color="#3DD2FD"/>
<stop offset="0.1818" stop-color="#31CAFD"/>
<stop offset="0.7027" stop-color="#14B6FD"/>
<stop offset="1" stop-color="#09AFFD"/>
</linearGradient>
<linearGradient id="paint46_linear_3996_22156" x1="297.088" y1="114.253" x2="296.657" y2="95.5051" gradientUnits="userSpaceOnUse">
<stop stop-color="#09AFFD"/>
<stop offset="0.2651" stop-color="#08A5F5"/>
<stop offset="0.7188" stop-color="#0689DF"/>
<stop offset="1" stop-color="#0475CF"/>
</linearGradient>
<linearGradient id="paint47_linear_3996_22156" x1="319.272" y1="108.67" x2="274.466" y2="98.1287" gradientUnits="userSpaceOnUse">
<stop stop-color="#3DD2FD"/>
<stop offset="0.1818" stop-color="#31CAFD"/>
<stop offset="0.7027" stop-color="#14B6FD"/>
<stop offset="1" stop-color="#09AFFD"/>
</linearGradient>
<linearGradient id="paint48_linear_3996_22156" x1="318.955" y1="98.7466" x2="314.202" y2="118.952" gradientUnits="userSpaceOnUse">
<stop offset="0.1538" stop-color="#666666"/>
<stop offset="0.2586" stop-color="#868686"/>
<stop offset="0.4176" stop-color="#B3B3B3"/>
<stop offset="0.4312" stop-color="#A7A7A7"/>
<stop offset="0.4769" stop-color="#878787"/>
<stop offset="0.5241" stop-color="#6D6D6D"/>
<stop offset="0.5727" stop-color="#5B5B5B"/>
<stop offset="0.6238" stop-color="#505050"/>
<stop offset="0.6813" stop-color="#4D4D4D"/>
<stop offset="1" stop-color="#999999"/>
</linearGradient>
<linearGradient id="paint49_linear_3996_22156" x1="314.947" y1="98.3452" x2="310.537" y2="117.087" gradientUnits="userSpaceOnUse">
<stop offset="0.1538" stop-color="#333333"/>
<stop offset="0.2586" stop-color="#535353"/>
<stop offset="0.4176" stop-color="#808080"/>
<stop offset="0.4312" stop-color="#747474"/>
<stop offset="0.4769" stop-color="#545454"/>
<stop offset="0.5241" stop-color="#3A3A3A"/>
<stop offset="0.5727" stop-color="#282828"/>
<stop offset="0.6238" stop-color="#1D1D1D"/>
<stop offset="0.6813" stop-color="#1A1A1A"/>
<stop offset="1" stop-color="#666666"/>
</linearGradient>
<linearGradient id="paint50_linear_3996_22156" x1="267.33" y1="115.693" x2="279.503" y2="69.8647" gradientUnits="userSpaceOnUse">
<stop stop-color="#E6E6E6"/>
<stop offset="0.0646" stop-color="#DCDCDC"/>
<stop offset="0.1714" stop-color="#C3C3C3"/>
<stop offset="0.3065" stop-color="#9A9A9A"/>
<stop offset="0.3846" stop-color="#808080"/>
<stop offset="0.6758" stop-color="white"/>
<stop offset="0.7208" stop-color="#F0F0F0"/>
<stop offset="0.8381" stop-color="#CFCFCF"/>
<stop offset="0.9354" stop-color="#BABABA"/>
<stop offset="1" stop-color="#B3B3B3"/>
</linearGradient>
<linearGradient id="paint51_linear_3996_22156" x1="253.998" y1="114.342" x2="267.153" y2="68.2809" gradientUnits="userSpaceOnUse">
<stop stop-color="#2ACAFD"/>
<stop offset="0.2395" stop-color="#1381D0"/>
<stop offset="0.4286" stop-color="#0045AA"/>
<stop offset="0.7308" stop-color="#09AFFD"/>
<stop offset="0.8213" stop-color="#09ACFD"/>
<stop offset="0.9001" stop-color="#08A1FD"/>
<stop offset="0.9743" stop-color="#078FFD"/>
<stop offset="1" stop-color="#0787FD"/>
</linearGradient>
<linearGradient id="paint52_linear_3996_22156" x1="240.172" y1="63.1324" x2="231.247" y2="101.868" gradientUnits="userSpaceOnUse">
<stop stop-color="#B3B3B3"/>
<stop offset="0.0236" stop-color="#BDBDBD"/>
<stop offset="0.0971" stop-color="#DADADA"/>
<stop offset="0.1704" stop-color="#EFEFEF"/>
<stop offset="0.2427" stop-color="#FBFBFB"/>
<stop offset="0.3132" stop-color="white"/>
<stop offset="0.7857" stop-color="#B3B3B3"/>
<stop offset="1" stop-color="#E6E6E6"/>
</linearGradient>
<linearGradient id="paint53_linear_3996_22156" x1="238.788" y1="65.3964" x2="231.012" y2="98.4496" gradientUnits="userSpaceOnUse">
<stop stop-color="#808080"/>
<stop offset="0.0386" stop-color="#8B8B8B"/>
<stop offset="0.1694" stop-color="#ADADAD"/>
<stop offset="0.2944" stop-color="#C5C5C5"/>
<stop offset="0.41" stop-color="#D3D3D3"/>
<stop offset="0.5072" stop-color="#D8D8D8"/>
<stop offset="1" stop-color="#808080"/>
</linearGradient>
<linearGradient id="paint54_linear_3996_22156" x1="239.405" y1="67.1623" x2="232.352" y2="97.1413" gradientUnits="userSpaceOnUse">
<stop stop-color="#373737"/>
<stop offset="0.116" stop-color="#505050"/>
<stop offset="0.2604" stop-color="#686868"/>
<stop offset="0.3945" stop-color="#767676"/>
<stop offset="0.5072" stop-color="#7B7B7B"/>
<stop offset="1" stop-color="#090909"/>
</linearGradient>
</defs>
</svg>
