<svg width="207" height="202" viewBox="0 0 207 202" fill="none" xmlns="http://www.w3.org/2000/svg">
<path d="M110.002 17.2857C146.76 17.2857 178.311 39.3348 191.898 70.79L202.731 60.0707C197.795 50.189 191.195 41.067 183.089 33.0452C163.569 13.722 137.614 3.08789 110.002 3.08789C82.3965 3.08789 56.4343 13.722 36.9143 33.0452C17.3942 52.3613 6.64062 78.0451 6.64062 105.362H20.9883C20.9883 56.72 60.8391 17.2857 110.002 17.2857Z" fill="#26A8DF"/>
<path d="M199.01 105.361C199.01 154.01 159.16 193.444 109.997 193.444C72.3561 193.444 40.1742 170.33 27.1608 137.654L16.2207 148.487C21.2496 159.206 28.2154 169.081 36.9101 177.685C56.4302 197.008 82.3923 207.642 109.997 207.642C137.609 207.642 163.564 197.008 183.085 177.685C202.605 158.369 213.358 132.685 213.358 105.361H199.01Z" fill="#1B75BA"/>
<path d="M109.999 31.4829C142.849 31.4829 170.805 52.5808 180.77 81.7999L191.896 70.7895C178.309 39.3343 146.758 17.2852 109.999 17.2852C60.8371 17.2852 20.9863 56.7195 20.9863 105.361H35.334C35.334 64.6277 68.8288 31.4829 109.999 31.4829Z" fill="#1B75BA"/>
<path d="M184.666 105.361C184.666 146.102 151.171 179.247 110.001 179.247C76.2476 179.247 47.6526 156.97 38.4485 126.488L27.1641 137.654C40.1774 170.33 72.3593 193.444 110.001 193.444C159.163 193.444 199.014 154.01 199.014 105.361H184.666Z" fill="#26A8DF"/>
<path d="M20.7977 122.546L0 102.252H41.5954L20.7977 122.546Z" fill="#26A8DF"/>
<path d="M199.202 88.1797L220 108.474H178.404L199.202 88.1797Z" fill="#26A8DF"/>
<path d="M199.202 88.1797V105.093L178.404 108.474L199.202 88.1797Z" fill="#4DCBF7"/>
<path d="M178.404 108.475L199.202 105.094L220 108.475H178.404Z" fill="#1B75BA"/>
<path d="M20.7977 106.468L41.5954 102.252H0L20.7977 106.468Z" fill="#4DCBF7"/>
<path d="M20.7988 122.546V106.468L41.5965 102.252L20.7988 122.546Z" fill="#1B75BA"/>
<path d="M199.023 61.0137C199.023 61.0137 198.906 60.7958 198.679 60.3741C198.449 59.9532 198.122 59.3221 197.66 58.5185C196.756 56.9006 195.365 54.5616 193.443 51.6865C191.518 48.8157 189.029 45.4239 185.858 41.8006C184.275 39.9882 182.524 38.1163 180.599 36.2244C179.648 35.2668 178.617 34.3631 177.571 33.3806C177.046 32.9007 176.525 32.3981 175.979 31.9218C175.425 31.4575 174.865 30.9883 174.299 30.5141C169.778 26.7176 164.508 22.9906 158.568 19.7166C152.631 16.4348 146.013 13.6237 138.938 11.4549C131.854 9.30966 124.27 7.96726 116.515 7.46821C114.578 7.28932 112.623 7.32269 110.668 7.26163L109.934 7.24601L109.218 7.26305L107.733 7.30352C106.744 7.33475 105.747 7.34824 104.761 7.39296C100.868 7.66201 96.9278 8.01767 93.0468 8.7375C89.1464 9.33877 85.3155 10.3035 81.5313 11.3513C80.5887 11.6239 79.6618 11.9469 78.7271 12.2415C77.7995 12.5553 76.8525 12.8123 75.9465 13.18C74.125 13.8842 72.2785 14.5153 70.5166 15.3295C63.3951 18.4026 56.7177 22.2083 50.81 26.6345C44.9031 31.0578 39.636 35.9156 35.133 40.9679C30.6185 45.9974 26.9361 51.2684 23.9439 56.3469C20.9661 61.4404 18.6704 66.3564 16.9315 70.8258C16.5197 71.9517 16.0627 73.0229 15.727 74.092C15.374 75.1561 15.034 76.1819 14.7069 77.168C14.148 79.167 13.5677 80.9893 13.2011 82.6746C13.0002 83.513 12.8101 84.3073 12.6308 85.0541C12.478 85.8073 12.3352 86.513 12.2018 87.1689C11.9306 88.4822 11.7125 89.6017 11.5862 90.5182C11.2993 92.3468 11.1465 93.3215 11.1465 93.3215C11.1465 93.3215 11.2591 92.3404 11.47 90.5018C11.5583 89.579 11.7304 88.4502 11.9478 87.1242C12.0547 86.4604 12.1702 85.7477 12.2929 84.9867C12.4493 84.2321 12.6157 83.4299 12.7914 82.5823C13.1078 80.8786 13.6337 79.0321 14.1344 77.004C14.4328 76.0023 14.7435 74.9602 15.0656 73.8791C15.3712 72.7915 15.7973 71.7004 16.1782 70.5532C17.7852 65.9943 19.9495 60.9541 22.8901 55.7535C25.8242 50.5549 29.4499 45.1505 33.9479 39.9471C38.4157 34.7429 43.6677 29.6743 49.6851 25.1586C55.6775 20.6125 62.4618 16.6883 69.711 13.508C71.5051 12.6667 73.3847 12.0094 75.2406 11.2796C76.1631 10.8991 77.128 10.6301 78.0735 10.3035C79.0255 9.99684 79.9703 9.66177 80.9316 9.37711L83.8348 8.57422L85.2883 8.17242L86.7596 7.83878L89.7066 7.17645C90.6909 6.96348 91.6888 6.81653 92.6809 6.63906C96.6488 5.92988 100.67 5.58701 104.702 5.33713C105.7 5.29808 106.689 5.29027 107.681 5.26543L109.166 5.23419L109.934 5.2207L110.683 5.24058C112.678 5.3137 114.672 5.29382 116.647 5.48762C124.555 6.04346 132.278 7.4604 139.485 9.69016C146.699 11.9071 153.372 14.9327 159.341 18.3707C165.318 21.8115 170.573 25.6733 175.098 29.6182C175.664 30.1115 176.225 30.5992 176.779 31.082C177.322 31.5732 177.829 32.0815 178.347 32.572C179.359 33.5595 180.409 34.5086 181.335 35.5096C183.221 37.4774 184.928 39.4182 186.468 41.2916C189.55 45.0377 191.948 48.5225 193.793 51.4615C195.647 54.3983 196.915 56.8119 197.761 58.4631C198.191 59.2859 198.492 59.929 198.704 60.3592C198.915 60.7915 199.023 61.0137 199.023 61.0137Z" fill="#4DCBF7"/>
<path d="M33.5801 142.813C33.5801 142.813 33.6812 143 33.8778 143.363C34.0765 143.724 34.3599 144.266 34.7595 144.956C35.5407 146.346 36.7459 148.352 38.4031 150.821C40.0645 153.285 42.2124 156.195 44.9449 159.304C47.6631 162.422 51.0011 165.703 54.8986 168.984C58.7869 172.239 63.3207 175.435 68.4271 178.239C73.5313 181.051 79.2173 183.459 85.2985 185.303C91.3856 187.137 97.8987 188.25 104.554 188.693C106.216 188.849 107.894 188.822 109.573 188.877L110.203 188.891L110.815 188.878L112.092 188.844C112.943 188.819 113.801 188.808 114.648 188.771C117.985 188.543 121.369 188.242 124.702 187.629C128.051 187.11 131.338 186.277 134.586 185.374C135.395 185.138 136.191 184.861 136.992 184.606C137.787 184.336 138.6 184.114 139.377 183.798C140.94 183.192 142.524 182.648 144.035 181.947C150.137 179.292 155.889 176.064 160.968 172.269C166.05 168.485 170.58 164.319 174.455 159.984C178.339 155.671 181.51 151.147 184.088 146.787C186.651 142.414 188.635 138.195 190.14 134.356C190.909 132.442 191.502 130.604 192.066 128.909C192.551 127.192 193.054 125.626 193.373 124.178C193.547 123.457 193.713 122.775 193.868 122.133C194.002 121.487 194.127 120.88 194.243 120.316C194.48 119.187 194.671 118.225 194.782 117.437C195.033 115.866 195.168 115.027 195.168 115.027C195.168 115.027 195.074 115.871 194.897 117.454C194.824 118.248 194.679 119.219 194.496 120.361C194.406 120.932 194.309 121.546 194.206 122.201C194.073 122.85 193.931 123.541 193.782 124.27C193.513 125.737 193.064 127.326 192.638 129.073C192.131 130.798 191.599 132.671 190.893 134.63C189.52 138.557 187.669 142.9 185.141 147.381C182.622 151.86 179.508 156.518 175.64 161.005C171.799 165.492 167.281 169.862 162.109 173.767C160.82 174.747 159.463 175.66 158.121 176.614C156.721 177.481 155.351 178.421 153.899 179.246C152.443 180.063 151.004 180.934 149.478 181.665C148.722 182.043 147.964 182.422 147.205 182.802C146.428 183.145 145.649 183.488 144.867 183.833C143.321 184.555 141.699 185.12 140.099 185.747C139.303 186.074 138.472 186.305 137.657 186.586C136.836 186.849 136.021 187.136 135.193 187.381C131.867 188.318 128.499 189.188 125.066 189.728C121.648 190.343 118.185 190.643 114.706 190.863C113.846 190.897 112.997 190.905 112.143 190.927L110.865 190.956L110.201 190.968L109.555 190.951C107.837 190.89 106.118 190.91 104.416 190.745C97.5981 190.281 90.9472 189.021 84.7426 187.092C78.5336 185.165 72.7888 182.553 67.653 179.585C62.5101 176.614 57.9913 173.283 54.0987 169.88C53.6116 169.455 53.1295 169.033 52.6532 168.617C52.1862 168.194 51.7515 167.756 51.3067 167.333C50.4386 166.483 49.5347 165.664 48.7399 164.799C47.1207 163.101 45.6551 161.427 44.3344 159.811C41.6894 156.581 39.6334 153.578 38.0523 151.045C36.4625 148.515 35.3807 146.434 34.6562 145.012C34.2889 144.302 34.0313 143.749 33.8505 143.378C33.6726 143.005 33.5801 142.813 33.5801 142.813Z" fill="#4DCBF7"/>
<path d="M201.674 82.6159C182.706 101.385 151.952 101.385 132.984 82.6159C129.232 78.9031 126.219 74.729 123.953 70.278C114.763 52.2539 117.769 29.7007 132.984 14.644C146.249 1.51811 165.281 -2.42888 182.011 2.80301C186.064 4.07371 189.981 5.87682 193.647 8.21946C196.495 10.0368 199.185 12.1806 201.674 14.644C202.915 15.8721 204.077 17.157 205.161 18.4774C220.563 37.3533 219.401 65.0745 201.674 82.6159Z" fill="#E28B00"/>
<path d="M135.208 80.5351C135.208 80.5351 134.813 80.1425 134.072 79.4078C133.692 79.0486 133.256 78.5751 132.749 78.0114C132.495 77.7296 132.222 77.4272 131.93 77.1042C131.656 76.767 131.364 76.4085 131.057 76.0294C129.839 74.5067 128.437 72.5822 127.101 70.2083C125.753 67.8451 124.442 65.0453 123.429 61.8444C122.399 58.6506 121.694 55.0579 121.414 51.2181C121.297 49.2978 121.257 47.3144 121.403 45.2948C121.508 43.2723 121.812 41.2186 122.241 39.1585C123.092 35.0348 124.582 30.8933 126.679 26.9846C127.718 25.0239 128.952 23.1512 130.276 21.336C131.626 19.5265 133.108 17.8512 134.715 16.2106C136.302 14.6851 138.054 13.1645 139.868 11.842C141.703 10.5315 143.596 9.3105 145.577 8.28187C149.528 6.20757 153.712 4.73313 157.88 3.89049C162.043 3.01165 166.19 2.81856 170.068 3.07128C173.949 3.34884 177.58 4.04666 180.807 5.06606C184.041 6.06985 186.871 7.36611 189.26 8.7007C191.659 10.0232 193.603 11.4111 195.141 12.6164C195.525 12.921 195.887 13.2092 196.228 13.4804C196.56 13.7615 196.859 14.0391 197.144 14.2904C197.713 14.7915 198.192 15.2239 198.555 15.5994C199.299 16.3334 199.695 16.7246 199.695 16.7246C199.695 16.7246 199.28 16.3526 198.502 15.6555C198.122 15.2984 197.624 14.8902 197.032 14.4189C196.738 14.1825 196.421 13.9276 196.083 13.6564C195.735 13.3987 195.364 13.1254 194.973 12.8365C193.4 11.6936 191.423 10.3867 189.006 9.16568C186.596 7.93615 183.766 6.76341 180.574 5.83133C177.382 4.89924 173.807 4.29442 170.009 4.10559C168.11 4.03389 166.153 4.03744 164.167 4.22201C163.171 4.28519 162.175 4.43426 161.165 4.5514C160.661 4.62096 160.16 4.71893 159.653 4.80128C159.146 4.88079 158.64 4.97662 158.137 5.09588C154.087 5.94491 150.031 7.40799 146.21 9.44892C144.294 10.4605 142.467 11.6602 140.696 12.943C138.929 14.2535 137.321 15.6718 135.702 17.2378C134.185 18.7691 132.698 20.4181 131.387 22.1531C130.09 23.9051 128.878 25.7132 127.856 27.61C125.793 31.3902 124.315 35.4046 123.457 39.4119C123.019 41.4138 122.731 43.4122 122.571 45.3786C122.385 47.3442 122.382 49.2801 122.455 51.1599C122.645 54.918 123.257 58.4554 124.199 61.6144C125.142 64.7734 126.326 67.5747 127.57 69.9585C128.804 72.3508 130.125 74.3072 131.28 75.8626C131.572 76.2502 131.848 76.6165 132.108 76.9615C132.382 77.2952 132.639 77.6082 132.878 77.9C133.355 78.4849 133.767 78.9783 134.129 79.3553C134.832 80.1241 135.208 80.5351 135.208 80.5351Z" fill="#FFCE00"/>
<path d="M197.062 19.4043C197.062 19.4043 197.425 19.7628 198.105 20.4351C198.453 20.7637 198.854 21.1961 199.319 21.7122C199.553 21.9698 199.804 22.2467 200.071 22.542C200.323 22.8508 200.59 23.1788 200.873 23.5252C201.991 24.9187 203.279 26.68 204.507 28.8536C205.746 31.0174 206.952 33.5822 207.884 36.5155C208.831 39.4416 209.48 42.7348 209.741 46.2559C209.976 49.7741 209.806 53.5379 208.991 57.3152C208.211 61.0975 206.846 64.8961 204.925 68.4818C203.972 70.2799 202.841 71.9986 201.627 73.664C200.389 75.3244 199.032 76.8599 197.556 78.3677C196.103 79.7633 194.493 81.1604 192.829 82.3722C191.146 83.5733 189.41 84.6928 187.592 85.6355C183.969 87.5366 180.13 88.8875 176.308 89.6592C172.49 90.4649 168.687 90.6374 165.132 90.4024C161.573 90.1448 158.246 89.5016 155.288 88.5638C152.324 87.641 149.732 86.4491 147.546 85.2224C145.349 84.0071 143.57 82.7321 142.162 81.6254C141.812 81.3457 141.48 81.0816 141.168 80.8324C140.87 80.5676 140.591 80.3199 140.33 80.0892C139.809 79.6285 139.372 79.2316 139.04 78.8866C138.36 78.2129 137.998 77.8537 137.998 77.8537C137.998 77.8537 138.379 78.1931 139.093 78.8305C139.442 79.1571 139.899 79.5298 140.442 79.9607C140.974 80.4044 141.608 80.885 142.331 81.406C143.772 82.4503 145.585 83.6436 147.8 84.7581C150.009 85.8805 152.6 86.9488 155.522 87.8C158.444 88.6504 161.716 89.2006 165.191 89.3696C166.929 89.4327 168.719 89.4278 170.536 89.2574C171.447 89.1985 172.359 89.0615 173.283 88.9543C174.199 88.7974 175.131 88.6746 176.052 88.4552C179.756 87.6772 183.467 86.3376 186.96 84.4692C188.713 83.5435 190.384 82.4453 192.003 81.2711C193.62 80.0714 195.086 78.7766 196.57 77.3405C197.956 75.9427 199.319 74.4328 200.517 72.8469C201.704 71.2447 202.813 69.5913 203.749 67.8571C205.637 64.3999 206.991 60.7284 207.777 57.0625C208.178 55.2317 208.442 53.403 208.589 51.6042C208.762 49.806 208.767 48.0348 208.702 46.3148C208.531 42.8754 207.975 39.6383 207.115 36.7469C206.255 33.8555 205.176 31.2893 204.041 29.1049C202.915 26.9128 201.708 25.1196 200.653 23.6935C200.126 22.9779 199.641 22.3503 199.193 21.825C198.758 21.2883 198.381 20.8361 198.05 20.4897C197.405 19.7813 197.062 19.4043 197.062 19.4043Z" fill="#FFCE00"/>
<path opacity="0.25" d="M182.011 2.80301C180.827 19.6487 172.792 59.6509 123.953 70.278C114.763 52.2539 117.769 29.7007 132.984 14.644C146.249 1.51811 165.281 -2.42888 182.011 2.80301Z" fill="white"/>
<path opacity="0.25" d="M205.161 18.4767C186.653 67.168 139.312 71.6758 139.312 71.6758C174.68 61.7231 188.532 27.6839 193.647 8.21875C196.495 10.0361 199.185 12.1799 201.675 14.6432C202.916 15.8714 204.078 17.1563 205.161 18.4767Z" fill="white"/>
<path d="M207.3 48.6261C207.3 70.4764 189.408 88.1811 167.334 88.1811C152.778 88.1811 140.045 80.4859 133.057 68.9857C129.442 63.0368 127.361 56.0728 127.361 48.6261C127.361 26.7828 145.253 9.07812 167.334 9.07812C172.671 9.07812 177.765 10.1146 182.421 11.9958C186.043 13.4581 189.401 15.4245 192.399 17.824C196.316 20.9475 199.624 24.7809 202.12 29.1396C205.42 34.8897 207.3 41.5414 207.3 48.6261Z" fill="#FFCE00"/>
<path opacity="0.25" d="M182.421 11.9958C179.343 29.9631 168.74 58.0037 133.057 68.9857C129.442 63.0368 127.361 56.0728 127.361 48.6261C127.361 26.7828 145.253 9.07812 167.334 9.07812C172.671 9.07813 177.765 10.1146 182.421 11.9958Z" fill="white"/>
<path opacity="0.25" d="M202.118 29.1399C181.443 68.5103 140.746 72.3863 140.746 72.3863C171.185 63.825 185.683 37.4243 192.398 17.8242C196.315 20.9477 199.622 24.7811 202.118 29.1399Z" fill="white"/>
<path d="M196.262 21.345C189.103 14.6153 179.411 10.4979 168.765 10.4979C146.691 10.4979 128.799 28.2025 128.799 50.0458C128.799 60.6303 132.996 70.2422 139.84 77.334C132.15 70.1357 127.357 59.9346 127.357 48.6261C127.357 26.7828 145.256 9.07812 167.33 9.07812C178.716 9.07813 188.982 13.7847 196.262 21.345Z" fill="#BC6F00"/>
<path d="M184.27 53.3981C182.581 51.5949 180.553 50.2653 178.187 49.4099C176.367 48.7525 174.055 48.0895 171.258 47.4201V33.2116C176.164 33.8051 177.69 35.6075 178.449 39.7682L179.885 41.1887H185.722C185.537 36.9109 183.879 33.6 180.75 31.2566C178.23 29.3704 175.058 28.2573 171.258 27.8896V23.7935L169.823 22.373L166.709 27.7945C162.628 28.0373 159.293 29.1795 156.708 31.2261C153.774 33.5495 152.307 36.524 152.307 40.1501C152.307 43.3694 153.434 45.9463 155.689 47.8822C157.924 49.801 161.6 51.3032 166.709 52.3907V68.4938C164.464 68.1552 162.465 67.4389 160.723 66.3251C158.221 64.7257 156.816 62.256 156.507 58.9146L155.072 57.4941L150.732 58.9146C150.897 63.3564 152.56 66.9931 155.72 69.8249C158.302 72.1384 161.978 73.49 166.71 73.9138L165.275 76.6796L166.71 78.1001H171.26V74.0324C175.68 73.8365 179.318 72.5856 182.156 70.2522C185.254 67.7052 186.804 64.5064 186.804 60.656C186.803 57.6198 185.959 55.2012 184.27 53.3981ZM160.351 44.0914C158.879 43.1551 158.143 41.7488 158.143 39.8739C158.143 37.8167 159.059 36.1655 160.892 34.9225C162.351 33.9329 164.296 33.3437 166.709 33.1421V46.3709C163.706 45.634 161.579 44.8737 160.351 44.0914ZM177.893 66.6758C176.154 67.8344 173.939 68.496 171.258 68.6713V53.4541C174.145 54.2073 176.332 54.9676 177.786 55.7343C179.906 56.8552 180.967 58.6484 180.967 61.1131C180.966 63.4572 179.941 65.3107 177.893 66.6758Z" fill="#BC6F00"/>
<path d="M182.832 51.9774C182.732 51.8709 182.631 51.7644 182.524 51.665C180.902 50.0181 178.98 48.7971 176.749 47.9878C176.196 47.789 175.594 47.5903 174.948 47.3915C173.477 46.9301 171.763 46.4615 169.819 46.0001V31.7881C171.476 31.994 172.896 32.3986 174.08 33.0091C176.634 34.3153 178.09 36.5657 178.442 39.7673H184.281C184.202 37.9216 183.851 36.2675 183.219 34.791C183.219 34.7839 183.219 34.7839 183.219 34.7839C182.394 32.8175 181.096 31.1705 179.31 29.8359C178.384 29.1403 177.373 28.551 176.275 28.0683C174.381 27.2306 172.229 26.6982 169.819 26.4711V22.375H165.27V26.3717C161.189 26.613 157.853 27.756 155.27 29.8075C152.336 32.1289 150.865 35.1033 150.865 38.7309C150.865 41.9467 151.992 44.5235 154.244 46.4615C155.987 47.9523 158.599 49.1946 162.078 50.1814C163.068 50.4653 164.137 50.728 165.27 50.9693V67.0696C163.534 66.8141 161.942 66.3242 160.507 65.6002C160.084 65.3872 159.675 65.16 159.28 64.9045C158.62 64.4785 158.039 63.9958 157.537 63.4563C156.117 61.9442 155.292 59.9565 155.062 57.4932H149.287C149.323 58.4374 149.423 59.3389 149.596 60.205C150.048 62.5476 150.994 64.6276 152.436 66.4449C152.896 67.0341 153.419 67.602 153.993 68.1345C154.086 68.2267 154.18 68.319 154.28 68.4042C156.863 70.7185 160.536 72.0672 165.27 72.4932V76.6815H169.819V72.6139C174.238 72.4151 177.875 71.1657 180.716 68.8302C183.815 66.2816 185.364 63.0872 185.364 59.2325C185.364 56.2012 184.518 53.7805 182.832 51.9774ZM158.907 42.6707C157.437 41.7337 156.705 40.3281 156.705 38.454C156.705 36.3953 157.616 34.7484 159.452 33.5061C160.909 32.5122 162.853 31.923 165.27 31.7242V44.9495C162.265 44.2112 160.141 43.4516 158.907 42.6707ZM176.454 65.2523C174.711 66.4165 172.502 67.0767 169.819 67.2542V52.0342C170.141 52.1194 170.45 52.2045 170.751 52.2897C173.183 52.957 175.056 53.6314 176.347 54.3129C176.949 54.6324 177.466 55.0086 177.896 55.4416C178.98 56.5136 179.525 57.9334 179.525 59.6939C179.525 62.0365 178.499 63.8893 176.454 65.2523Z" fill="#E28B00"/>
<path opacity="0.25" d="M149.293 57.4922H153.633C152.349 58.4293 151.008 59.3309 149.601 60.2041C149.429 59.338 149.329 58.4364 149.293 57.4922Z" fill="white"/>
<path opacity="0.25" d="M169.821 26.4711V22.375H165.272V26.3717C161.19 26.613 157.855 27.756 155.272 29.8075C152.338 32.1289 150.867 35.1033 150.867 38.7309C150.867 41.9467 151.993 44.5236 154.246 46.4615C155.989 47.9523 158.601 49.1946 162.08 50.1814C165.086 47.0863 167.64 43.8208 169.821 40.4985V31.7881C171.478 31.994 172.898 32.3986 174.082 33.0091C174.892 31.3551 175.617 29.7011 176.277 28.0683C174.383 27.2306 172.231 26.6982 169.821 26.4711ZM165.272 44.9495C162.266 44.2112 160.143 43.4516 158.909 42.6707C157.438 41.7337 156.707 40.3281 156.707 38.454C156.707 36.3953 157.618 34.7484 159.454 33.5061C160.911 32.5122 162.855 31.923 165.272 31.7243V44.9495Z" fill="white"/>
<path opacity="0.25" d="M159.286 64.9033C159.68 65.1589 160.089 65.3861 160.512 65.5991C158.231 66.5929 156.043 67.4307 153.998 68.1335C153.424 67.601 152.901 67.0331 152.441 66.4439C154.213 65.5139 155.914 64.5129 157.542 63.4551C158.044 63.9946 158.626 64.4774 159.286 64.9033Z" fill="white"/>
<path opacity="0.25" d="M169.822 53.2754V60.8574C168.287 61.759 166.766 62.5896 165.273 63.3492V57.6059C166.873 56.2216 168.387 54.7733 169.822 53.2754Z" fill="white"/>
<path opacity="0.25" d="M182.527 51.6644C180.999 53.0132 179.449 54.2698 177.899 55.4412C177.469 55.0081 176.952 54.6319 176.35 54.3124C175.058 53.6309 173.186 52.9564 170.754 52.2891C172.232 50.6989 173.631 49.059 174.951 47.3906C175.597 47.5894 176.199 47.7882 176.752 47.987C178.983 48.7963 180.905 50.0174 182.527 51.6644Z" fill="white"/>
<path opacity="0.25" d="M184.285 39.7676H180.311C181.344 38.1206 182.312 36.4522 183.223 34.791C183.855 36.2677 184.206 37.9218 184.285 39.7676Z" fill="white"/>
<path d="M87.0107 196.084C68.043 214.854 37.2887 214.854 18.3211 196.084C14.4257 192.23 11.3266 187.878 9.03811 183.242C0.156875 165.303 3.24881 143.027 18.3211 128.112C31.7577 114.816 51.1056 110.94 67.9928 116.484C71.9743 117.791 75.8267 119.622 79.428 121.979C82.1038 123.732 84.6505 125.777 87.0107 128.112C88.3666 129.454 89.6292 130.86 90.7913 132.315C105.878 151.177 104.623 178.656 87.0107 196.084Z" fill="#E28B00"/>
<path d="M20.5395 194.003C20.5395 194.003 20.1443 193.611 19.4032 192.875C19.0237 192.516 18.5875 192.043 18.0811 191.479C17.8271 191.197 17.5538 190.895 17.2618 190.572C16.9878 190.235 16.6965 189.876 16.3895 189.497C15.1713 187.974 13.7689 186.05 12.4331 183.676C11.0851 181.313 9.77445 178.513 8.76079 175.312C7.73062 172.118 7.02543 168.525 6.74565 164.686C6.62871 162.765 6.58854 160.782 6.73489 158.762C6.83962 156.74 7.14451 154.686 7.57279 152.626C8.42433 148.502 9.91434 144.361 12.0105 140.452C13.0493 138.491 14.2839 136.619 15.6082 134.804C16.9526 133 18.4534 131.307 20.0345 129.69C21.6479 128.14 23.3804 126.637 25.2004 125.309C27.0347 123.998 28.9279 122.777 30.9093 121.749C34.86 119.674 39.0445 118.2 43.2125 117.357C47.3748 116.478 51.522 116.285 55.4002 116.538C59.2812 116.816 62.9119 117.513 66.1394 118.533C69.3734 119.537 72.2035 120.833 74.5916 122.167C76.9906 123.49 78.9347 124.878 80.4742 126.083C80.8573 126.388 81.2189 126.676 81.5603 126.947C81.8925 127.228 82.1916 127.506 82.4764 127.757C83.046 128.258 83.5245 128.691 83.8882 129.066C84.6315 129.8 85.0275 130.191 85.0275 130.191C85.0275 130.191 84.6128 129.819 83.8352 129.123C83.4549 128.766 82.9564 128.358 82.3652 127.886C82.0704 127.65 81.754 127.395 81.4161 127.124C81.0675 126.866 80.6966 126.593 80.3056 126.304C78.7331 125.161 76.756 123.854 74.3384 122.633C71.9287 121.404 69.0986 120.231 65.9063 119.299C62.7146 118.367 59.1399 117.762 55.342 117.573C53.4424 117.501 51.4861 117.505 49.5004 117.69C48.5047 117.753 47.5082 117.902 46.4981 118.019C45.9945 118.088 45.4931 118.186 44.9866 118.269C44.4794 118.348 43.9736 118.444 43.47 118.563C39.4204 119.412 35.3636 120.875 31.5435 122.916C29.6274 123.928 27.8002 125.128 26.0297 126.41C24.2685 127.715 22.6415 129.151 21.0489 130.693C19.5051 132.249 18.0366 133.88 16.7202 135.621C15.4239 137.373 14.2115 139.181 13.1892 141.078C11.1267 144.858 9.64748 148.872 8.7902 152.879C8.35259 154.881 8.0642 156.88 7.90495 158.846C7.71843 160.812 7.71555 162.748 7.78729 164.627C7.97812 168.386 8.58933 171.923 9.53197 175.082C10.4746 178.241 11.6583 181.042 12.9022 183.426C14.1369 185.818 15.4576 187.775 16.6126 189.33C16.9045 189.718 17.1815 190.084 17.4411 190.429C17.7152 190.763 17.972 191.076 18.2109 191.368C18.6872 191.952 19.0997 192.446 19.4613 192.823C20.1636 193.592 20.5395 194.003 20.5395 194.003Z" fill="#FFCE00"/>
<path d="M82.3958 132.873C82.3958 132.873 82.7588 133.232 83.4389 133.904C83.7868 134.232 84.1871 134.665 84.6534 135.181C84.8873 135.439 85.1376 135.715 85.4052 136.011C85.657 136.32 85.9239 136.648 86.2066 136.994C87.325 138.387 88.6134 140.149 89.8408 142.322C91.0798 144.486 92.2857 147.051 93.2176 149.984C94.1645 152.91 94.8145 156.203 95.0749 159.724C95.3102 163.242 95.1402 167.005 94.3252 170.783C93.5454 174.566 92.1802 178.364 90.2591 181.95C89.3064 183.749 88.1751 185.467 86.9612 187.132C85.723 188.792 84.3657 190.328 82.8901 191.836C81.4374 193.231 79.8269 194.628 78.1632 195.84C76.4802 197.041 74.7442 198.161 72.9263 199.104C69.3028 201.005 65.4641 202.356 61.6418 203.127C57.8239 203.933 54.0211 204.105 50.4657 203.87C46.9075 203.613 43.5795 202.97 40.6225 202.032C37.6582 201.109 35.0663 199.917 32.8797 198.69C30.6831 197.475 28.904 196.2 27.4957 195.093C27.1457 194.814 26.8142 194.55 26.5022 194.3C26.2037 194.036 25.9247 193.788 25.6643 193.557C25.1434 193.097 24.7065 192.7 24.3737 192.355C23.6943 191.681 23.332 191.322 23.332 191.322C23.332 191.322 23.713 191.661 24.4268 192.299C24.7761 192.625 25.2331 192.998 25.7762 193.429C26.3077 193.872 26.9419 194.353 27.665 194.874C29.1063 195.918 30.9191 197.112 33.1344 198.226C35.3425 199.348 37.9344 200.417 40.8563 201.268C43.7782 202.118 47.0502 202.669 50.5252 202.838C52.2635 202.901 54.0533 202.897 55.8705 202.725C56.7808 202.667 57.6926 202.53 58.6166 202.422C59.5327 202.265 60.4653 202.143 61.3865 201.923C65.0903 201.145 68.8006 199.806 72.2943 197.937C74.0469 197.012 75.7177 195.913 77.3368 194.739C78.9538 193.539 80.4201 192.245 81.9044 190.809C83.2904 189.411 84.6527 187.901 85.8522 186.315C87.0387 184.713 88.1478 183.059 89.084 181.325C90.9714 177.868 92.3259 174.196 93.1114 170.531C93.5124 168.7 93.7764 166.871 93.9242 165.072C94.0964 163.274 94.1014 161.503 94.0368 159.783C93.8661 156.343 93.3094 153.106 92.45 150.215C91.5898 147.324 90.5109 144.757 89.376 142.573C88.2497 140.381 87.043 138.588 85.9878 137.161C85.4605 136.446 84.9755 135.818 84.5271 135.293C84.0924 134.756 83.7151 134.304 83.3851 133.958C82.7394 133.249 82.3958 132.873 82.3958 132.873Z" fill="#FFCE00"/>
<path opacity="0.25" d="M67.9928 116.484C66.5652 133.941 57.8633 173.112 9.03811 183.242C0.156875 165.303 3.24881 143.027 18.3211 128.112C31.7577 114.816 51.1056 110.94 67.9928 116.484Z" fill="white"/>
<path opacity="0.25" d="M90.7888 132.315C72.0005 179.991 25.3633 184.435 25.3633 184.435C60.135 174.652 74.1024 141.586 79.4254 121.979C82.1013 123.732 84.648 125.776 87.0082 128.112C88.3641 129.454 89.6267 130.859 90.7888 132.315Z" fill="white"/>
<path d="M92.6349 162.095C92.6349 183.945 74.7361 201.65 52.6622 201.65C38.1136 201.65 25.3728 193.955 18.3855 182.454C14.7699 176.506 12.6895 169.542 12.6895 162.095C12.6895 140.252 30.5882 122.547 52.6622 122.547C57.9995 122.547 63.1001 123.583 67.756 125.465C71.3787 126.927 74.7361 128.9 77.7348 131.293C81.6517 134.416 84.9588 138.257 87.4553 142.615C90.7553 148.366 92.6349 155.01 92.6349 162.095Z" fill="#FFCE00"/>
<path opacity="0.25" d="M67.756 125.465C64.6784 143.425 54.0754 171.472 18.3855 182.454C14.7699 176.506 12.6895 169.542 12.6895 162.095C12.6895 140.252 30.5882 122.547 52.6622 122.547C57.9995 122.547 63.1001 123.583 67.756 125.465Z" fill="white"/>
<path opacity="0.25" d="M87.4563 142.616C66.7741 181.979 26.084 185.855 26.084 185.855C56.5226 177.294 71.021 150.893 77.7357 131.293C81.6527 134.416 84.9598 138.257 87.4563 142.616Z" fill="white"/>
<path d="M81.5943 134.814C74.4348 128.084 64.7429 123.967 54.0969 123.967C32.023 123.967 14.1314 141.671 14.1314 163.515C14.1314 174.099 18.3281 183.711 25.172 190.803C17.4816 183.604 12.6895 173.403 12.6895 162.095C12.6895 140.252 30.5882 122.547 52.6622 122.547C64.0471 122.547 74.3129 127.253 81.5943 134.814Z" fill="#BC6F00"/>
<path d="M67.2505 156.303H75.8082L77.2437 151.334L75.8082 149.913L66.7512 151.334C66.3186 149.956 65.6586 148.677 64.8021 147.548H75.0894L77.2415 142.579L75.806 141.158L31.3281 146.127L32.7636 147.548H54.7658C57.5715 147.548 60.02 149.077 61.3156 151.334L32.0462 154.882L33.4817 156.303H62.175C61.5501 159.794 58.469 162.456 54.7651 162.456H34.9151V168.454L57.2186 190.518H64.3135L40.977 167.425H54.7651C61.2445 167.424 66.5905 162.544 67.2505 156.303Z" fill="#BC6F00"/>
<path d="M75.8112 149.913L74.3765 154.882H65.8181C65.2585 160.164 61.3487 164.466 56.2266 165.673H56.2194C55.294 165.893 54.3255 166.006 53.3284 166.006H39.5402L42.0296 168.47L47.2665 173.652L50.2795 176.633L62.8768 189.099H55.7818L45.4156 178.848L43.0913 176.541L37.9548 171.465L33.4783 167.036V161.037H53.3284C57.0373 161.037 60.1148 158.375 60.739 154.882H32.0507L33.4855 149.913H59.8853C59.5696 149.366 59.1894 148.87 58.759 148.422C57.3888 147.01 55.4662 146.129 53.3284 146.129H31.3262L33.4783 141.16H75.8041L73.6519 146.129H63.3646C64.2255 147.258 64.8855 148.536 65.3159 149.913H75.8112Z" fill="#E28B00"/>
<path opacity="0.25" d="M33.4805 161.037H49.9095C48.3814 162.741 46.7313 164.402 44.9449 166.007C44.0122 166.844 43.0437 167.668 42.0322 168.47C40.7408 169.499 39.3849 170.5 37.9572 171.466L33.4805 167.036V161.037Z" fill="white"/>
<path opacity="0.25" d="M33.4875 149.912H57.9288C56.9675 151.58 55.9201 153.241 54.7723 154.881H32.0527L33.4875 149.912Z" fill="white"/>
<path opacity="0.25" d="M62.1953 141.16C61.2124 143.567 60.079 145.995 58.759 148.422C57.3888 147.01 55.4662 146.129 53.3284 146.129H31.3262L33.4783 141.16H62.1953Z" fill="white"/>
<path opacity="0.25" d="M50.2823 176.634C48.6179 177.45 46.9894 178.189 45.4182 178.849L43.0938 176.542C44.5358 175.626 45.9276 174.66 47.2692 173.652L50.2823 176.634Z" fill="white"/>
<path opacity="0.25" d="M73.6516 146.13H70.043C70.9182 144.468 71.7361 142.807 72.4966 141.16H75.8039L73.6516 146.13Z" fill="white"/>
<path opacity="0.25" d="M75.8131 149.912L74.3784 154.881H65.82C65.2604 160.163 61.3506 164.465 56.2285 165.672C60.8987 160.759 64.7582 155.371 67.9434 149.912H75.8131Z" fill="white"/>
</svg>
