<svg width="177" height="219" viewBox="0 0 177 219" fill="none" xmlns="http://www.w3.org/2000/svg">
<path d="M193.39 70.9707H7.18945L7.18945 336.375H193.39V70.9707Z" fill="#C7D9F4"/>
<path d="M193.39 47.0352L7.18945 47.0352L7.18945 70.9706H193.39V47.0352Z" fill="#006DB5"/>
<path d="M198.439 55.6074L1.70703 55.6074L1.70703 65.1457H198.439V55.6074Z" fill="#E9E9FF"/>
<path d="M200.407 47.0344L1.01936 47.0344L0 37.4961L201.428 37.4961L200.407 47.0344Z" fill="#079AEE"/>
<path d="M7.18945 144.301H193.39" stroke="#006DB5" stroke-width="2.0397" stroke-miterlimit="10"/>
<path d="M7.18945 215.99H193.39" stroke="#006DB5" stroke-width="2.0397" stroke-miterlimit="10"/>
<path d="M51.5159 81.8633C44.3871 81.8633 38.6074 87.6429 38.6074 94.7718V129.696H64.7464V95.0927C64.7453 87.7868 58.8229 81.8633 51.5159 81.8633Z" fill="white"/>
<path d="M51.6776 85.541C46.727 85.541 42.7148 89.5542 42.7148 94.5038V129.695H60.6415V94.5038C60.6404 89.5542 56.6283 85.541 51.6776 85.541Z" fill="#A6D9EF"/>
<path d="M60.6415 99.1797H42.7148V101.368H60.6415V99.1797Z" fill="#079AEE"/>
<path d="M66.3641 129.697H36.9922V133.24H66.3641V129.697Z" fill="#079AEE"/>
<g opacity="0.6">
<path opacity="0.72" d="M43.4231 126.061L42.1348 122.923L59.6165 109.385L61.7327 111.882L43.4231 126.061Z" fill="white"/>
<path opacity="0.72" d="M42.614 120.8L42.1348 118.062L60.6381 103.602V106.716L42.614 120.8Z" fill="white"/>
</g>
<path d="M61.7359 129.696H59.5478V94.5047C59.5478 90.166 56.0182 86.6354 51.6785 86.6354C47.3399 86.6354 43.8092 90.1649 43.8092 94.5047V129.696H41.6211V94.5047C41.6211 88.9596 46.1324 84.4473 51.6785 84.4473C57.2246 84.4473 61.7359 88.9596 61.7359 94.5047V129.696Z" fill="#079AEE"/>
<path d="M101.834 81.8633C94.7054 81.8633 88.9258 87.6429 88.9258 94.7718V129.696H115.065V95.0927C115.065 87.7868 109.141 81.8633 101.834 81.8633Z" fill="white"/>
<path d="M101.996 85.541C97.0453 85.541 93.0332 89.5542 93.0332 94.5038V129.695H110.96V94.5038C110.96 89.5542 106.947 85.541 101.996 85.541Z" fill="#A6D9EF"/>
<path d="M110.96 99.1797H93.0332V101.368H110.96V99.1797Z" fill="#079AEE"/>
<path d="M116.683 129.697H87.3105V133.24H116.683V129.697Z" fill="#079AEE"/>
<g opacity="0.6">
<path opacity="0.72" d="M93.7462 126.059L92.459 122.921L109.941 109.383L112.056 111.88L93.7462 126.059Z" fill="white"/>
<path opacity="0.72" d="M92.9382 120.798L92.459 118.06L110.962 103.6V106.714L92.9382 120.798Z" fill="white"/>
</g>
<path d="M112.054 129.696H109.866V94.5047C109.866 90.166 106.335 86.6354 101.997 86.6354C97.6582 86.6354 94.1276 90.1649 94.1276 94.5047V129.696H91.9395V94.5047C91.9395 88.9596 96.4507 84.4473 101.997 84.4473C107.543 84.4473 112.054 88.9596 112.054 94.5047V129.696Z" fill="#079AEE"/>
<path d="M152.153 81.8633C145.024 81.8633 139.244 87.6429 139.244 94.7718V129.696H165.383V95.0927C165.382 87.7868 159.46 81.8633 152.153 81.8633Z" fill="white"/>
<path d="M152.314 85.541C147.364 85.541 143.352 89.5542 143.352 94.5038V129.695H161.278V94.5038C161.278 89.5542 157.265 85.541 152.314 85.541Z" fill="#A6D9EF"/>
<path d="M161.278 99.1797H143.352V101.368H161.278V99.1797Z" fill="#079AEE"/>
<path d="M167.001 129.697H137.629V133.24H167.001V129.697Z" fill="#079AEE"/>
<g opacity="0.6">
<path opacity="0.72" d="M144.06 126.059L142.771 122.921L160.253 109.383L162.369 111.88L144.06 126.059Z" fill="white"/>
<path opacity="0.72" d="M143.251 120.798L142.771 118.06L161.276 103.6V106.714L143.251 120.798Z" fill="white"/>
</g>
<path d="M162.373 129.696H160.184V94.5047C160.184 90.166 156.655 86.6354 152.315 86.6354C147.977 86.6354 144.446 90.1649 144.446 94.5047V129.696H142.258V94.5047C142.258 88.9596 146.769 84.4473 152.315 84.4473C157.861 84.4473 162.373 88.9596 162.373 94.5047V129.696Z" fill="#079AEE"/>
<path d="M51.5159 154.156C44.3871 154.156 38.6074 159.936 38.6074 167.065V201.989H64.7464V167.386C64.7453 160.08 58.8229 154.156 51.5159 154.156Z" fill="white"/>
<path d="M51.6776 157.836C46.727 157.836 42.7148 161.849 42.7148 166.799V201.99H60.6415V166.799C60.6404 161.849 56.6283 157.836 51.6776 157.836Z" fill="#A6D9EF"/>
<path d="M60.6415 171.473H42.7148V173.661H60.6415V171.473Z" fill="#079AEE"/>
<path d="M66.3641 201.99H36.9922V205.533H66.3641V201.99Z" fill="#079AEE"/>
<g opacity="0.6">
<path opacity="0.72" d="M43.4231 198.353L42.1348 195.216L59.6165 181.678L61.7327 184.174L43.4231 198.353Z" fill="white"/>
<path opacity="0.72" d="M42.614 193.093L42.1348 190.354L60.6381 175.895V179.008L42.614 193.093Z" fill="white"/>
</g>
<path d="M61.7359 201.991H59.5478V166.8C59.5478 162.461 56.0182 158.93 51.6785 158.93C47.3399 158.93 43.8092 162.461 43.8092 166.8V201.991H41.6211V166.8C41.6211 161.255 46.1324 156.742 51.6785 156.742C57.2246 156.742 61.7359 161.255 61.7359 166.8V201.991Z" fill="#079AEE"/>
<path d="M101.834 154.156C94.7054 154.156 88.9258 159.936 88.9258 167.065V201.989H115.065V167.386C115.065 160.08 109.141 154.156 101.834 154.156Z" fill="white"/>
<path d="M101.996 157.836C97.0453 157.836 93.0332 161.849 93.0332 166.799V201.99H110.96V166.799C110.96 161.849 106.947 157.836 101.996 157.836Z" fill="#A6D9EF"/>
<path d="M110.96 171.473H93.0332V173.661H110.96V171.473Z" fill="#079AEE"/>
<path d="M116.683 201.99H87.3105V205.533H116.683V201.99Z" fill="#079AEE"/>
<g opacity="0.6">
<path opacity="0.72" d="M93.7462 198.353L92.459 195.216L109.941 181.678L112.056 184.174L93.7462 198.353Z" fill="white"/>
<path opacity="0.72" d="M92.9382 193.093L92.459 190.354L110.962 175.895V179.008L92.9382 193.093Z" fill="white"/>
</g>
<path d="M112.054 201.991H109.866V166.8C109.866 162.461 106.335 158.93 101.997 158.93C97.6582 158.93 94.1276 162.461 94.1276 166.8V201.991H91.9395V166.8C91.9395 161.255 96.4507 156.742 101.997 156.742C107.543 156.742 112.054 161.255 112.054 166.8V201.991Z" fill="#079AEE"/>
<path d="M152.153 154.156C145.024 154.156 139.244 159.936 139.244 167.065V201.989H165.383V167.386C165.382 160.08 159.46 154.156 152.153 154.156Z" fill="white"/>
<path d="M152.314 157.836C147.364 157.836 143.352 161.849 143.352 166.799V201.99H161.278V166.799C161.278 161.849 157.265 157.836 152.314 157.836Z" fill="#A6D9EF"/>
<path d="M161.278 171.473H143.352V173.661H161.278V171.473Z" fill="#079AEE"/>
<path d="M167.001 201.99H137.629V205.533H167.001V201.99Z" fill="#079AEE"/>
<g opacity="0.6">
<path opacity="0.72" d="M144.06 198.353L142.771 195.216L160.253 181.678L162.369 184.174L144.06 198.353Z" fill="white"/>
<path opacity="0.72" d="M143.251 193.093L142.771 190.354L161.276 175.895V179.008L143.251 193.093Z" fill="white"/>
</g>
<path d="M162.373 201.991H160.184V166.8C160.184 162.461 156.655 158.93 152.315 158.93C147.977 158.93 144.446 162.461 144.446 166.8V201.991H142.258V166.8C142.258 161.255 146.769 156.742 152.315 156.742C157.861 156.742 162.373 161.255 162.373 166.8V201.991Z" fill="#079AEE"/>
<path d="M64.9441 27.1074H61.9336V38.3778H64.9441V27.1074Z" fill="#079AEE"/>
<path d="M133.425 27.1074H130.416V38.3778H133.425V27.1074Z" fill="#079AEE"/>
<path d="M152 1.90625L42.5586 1.90625V29.1144L152 29.1144V1.90625Z" fill="#079AEE"/>
<path d="M153.504 30.619L41.0527 30.619V0.400391L153.504 0.400391V30.619ZM44.0643 27.6097L150.494 27.6097V3.41086L44.0643 3.41086V27.6097Z" fill="white"/>
<path d="M69.6658 8.14747H72.2045V21.1191H69.6658V15.7452H64.8477V21.1191H62.2904V8.14747H64.8477V13.2991H69.6658V8.14747ZM89.4205 19.4328C88.111 20.73 86.5173 21.3786 84.6395 21.3786C82.7617 21.3786 81.168 20.73 79.8585 19.4328C78.5614 18.1233 77.9128 16.5235 77.9128 14.6333C77.9128 12.7431 78.5614 11.1495 79.8585 9.85232C81.168 8.5428 82.7617 7.88804 84.6395 7.88804C86.5173 7.88804 88.111 8.5428 89.4205 9.85232C90.73 11.1495 91.3848 12.7431 91.3848 14.6333C91.3848 16.5235 90.73 18.1233 89.4205 19.4328ZM81.656 17.6909C82.459 18.4816 83.4535 18.8769 84.6395 18.8769C85.8255 18.8769 86.82 18.4816 87.623 17.6909C88.426 16.8879 88.8275 15.8687 88.8275 14.6333C88.8275 13.3979 88.426 12.3787 87.623 11.5757C86.82 10.7727 85.8255 10.3712 84.6395 10.3712C83.4535 10.3712 82.459 10.7727 81.656 11.5757C80.853 12.3787 80.4515 13.3979 80.4515 14.6333C80.4515 15.8687 80.853 16.8879 81.656 17.6909ZM104.912 8.14747V10.5936H101.409V21.1191H98.8519V10.5936H95.3681V8.14747H104.912ZM112.788 18.6731H118.255V21.1191H110.231V8.14747H118.162V10.5936H112.788V13.3547H117.699V15.7637H112.788V18.6731ZM126.506 18.6731H131.454V21.1191L123.949 21.1191V8.14747H126.506V18.6731Z" fill="#E9E9FF"/>
</svg>
