<svg width="278" height="130" viewBox="0 0 278 130" fill="none" xmlns="http://www.w3.org/2000/svg">
<path d="M298.876 85.6504H124.891V114.185H298.876V85.6504Z" fill="#263238" stroke="#263238" stroke-width="0.648968" stroke-miterlimit="10"/>
<path d="M6.12684 20.0879C4.6472 20.0879 3.44336 21.2917 3.44336 22.772V29.2838H5.55445V22.772C5.55445 22.4566 5.81079 22.1996 6.12619 22.1996C6.12619 22.1996 7.52926 22.1996 7.5656 22.1996C7.87516 22.2003 8.24961 23.3567 8.35475 23.5716C9.13286 25.1654 10.5191 26.27 12.3543 26.27H26.5596V20.0885H6.12684V20.0879ZM24.4498 24.1576H12.3556C11.6126 24.1576 10.9227 23.7883 10.5106 23.1698L9.86295 22.199H24.4491L24.4498 24.1576Z" fill="white" stroke="#263238" stroke-width="0.648968" stroke-miterlimit="10"/>
<path d="M10.1894 47.8523H2.77428C1.79434 47.8523 1 47.0579 1 46.078V28.4559C1 27.476 1.79434 26.6816 2.77428 26.6816H10.1894C11.1693 26.6816 11.9637 27.476 11.9637 28.4559V46.078C11.9637 47.0579 11.1693 47.8523 10.1894 47.8523Z" fill="white" stroke="#263238" stroke-width="0.648968" stroke-miterlimit="10"/>
<path d="M136.157 1.08594H87.3156C86.2961 1.08594 85.2928 1.34163 84.3972 1.83031L70.3613 9.48617H122.512L136.157 1.08594Z" fill="#41BAFF" stroke="#263238" stroke-width="0.648968" stroke-miterlimit="10"/>
<path d="M120.061 9.48552L130.903 2.16323C131.947 1.4578 133.142 1.08594 134.359 1.08594H230.321C231.555 1.08594 232.765 1.46817 233.819 2.19176L244.956 9.83597L120.061 9.48552Z" fill="#41BAFF" stroke="#263238" stroke-width="0.648968" stroke-miterlimit="10"/>
<path d="M167.928 115.086C167.928 107.81 163.84 101.491 157.837 98.293V96.0684H148.911C138.408 96.0684 129.893 104.583 129.893 115.086C129.893 125.589 138.407 134.104 148.911 134.104H157.837V131.88C163.84 128.682 167.928 122.363 167.928 115.086Z" fill="#263238" stroke="#263238" stroke-width="0.648968" stroke-miterlimit="10"/>
<path d="M160.841 133.863C171.211 132.196 178.266 122.438 176.599 112.068C174.932 101.699 165.175 94.6432 154.805 96.3101C144.436 97.9769 137.381 107.735 139.047 118.105C140.714 128.475 150.472 135.53 160.841 133.863Z" fill="#263238" stroke="#263238" stroke-width="0.648968" stroke-miterlimit="10"/>
<path d="M168.772 119.675C171.305 113.639 168.465 106.694 162.43 104.161C156.395 101.628 149.449 104.467 146.916 110.502C144.383 116.537 147.223 123.483 153.258 126.016C159.293 128.549 166.239 125.71 168.772 119.675Z" fill="white" stroke="#263238" stroke-width="0.648968" stroke-miterlimit="10"/>
<path d="M91.6802 96.0684H82.7537C72.2508 96.0684 63.7363 104.583 63.7363 115.086C63.7363 125.589 72.2508 134.104 82.7537 134.104H91.6802C102.184 134.104 110.698 125.59 110.698 115.086C110.698 104.583 102.183 96.0684 91.6802 96.0684Z" fill="#263238" stroke="#263238" stroke-width="0.648968" stroke-miterlimit="10"/>
<path d="M275.16 115.086C275.16 107.81 271.072 101.491 265.07 98.293V96.0684H256.143C245.639 96.0684 237.125 104.583 237.125 115.086C237.125 125.589 245.639 134.104 256.143 134.104H265.07V131.88C271.072 128.682 275.16 122.363 275.16 115.086Z" fill="#263238" stroke="#263238" stroke-width="0.648968" stroke-miterlimit="10"/>
<path d="M269.793 133.519C279.97 130.919 286.112 120.561 283.511 110.384C280.911 100.207 270.552 94.0655 260.376 96.6661C250.199 99.2668 244.057 109.625 246.658 119.802C249.259 129.978 259.617 136.12 269.793 133.519Z" fill="#263238" stroke="#263238" stroke-width="0.648968" stroke-miterlimit="10"/>
<path d="M267.992 126.565C274.33 124.937 278.149 118.478 276.521 112.139C274.892 105.8 268.434 101.982 262.095 103.61C255.756 105.239 251.937 111.697 253.566 118.036C255.194 124.375 261.653 128.194 267.992 126.565Z" fill="white" stroke="#263238" stroke-width="0.648968" stroke-miterlimit="10"/>
<path d="M327.982 8.25H103.053V114.488H137.267V108.877C137.267 97.5168 146.476 88.3066 157.837 88.3066C169.198 88.3066 178.408 97.5161 178.408 108.877V114.488H244.387V108.877C244.387 97.5168 253.597 88.3066 264.958 88.3066C276.319 88.3066 285.528 97.5161 285.528 108.877V114.488H308.6L326.222 109.532C329.047 108.737 331 106.16 331 103.224V11.2677C330.999 9.60115 329.648 8.25 327.982 8.25Z" fill="#41BAFF" stroke="#263238" stroke-width="0.648968" stroke-miterlimit="10"/>
<path d="M103.053 8.25H31.8431C28.695 8.25 26.1426 10.8024 26.1426 13.9505V103.611C26.1426 105.829 27.0239 107.957 28.5931 109.527L30.7295 111.663C32.4389 113.372 34.757 114.333 37.1744 114.333H108.753V13.9505C108.754 10.8024 106.201 8.25 103.053 8.25Z" fill="#41BAFF" stroke="#263238" stroke-width="0.648968" stroke-miterlimit="10"/>
<path d="M29.043 14.5613V82.185L42.0567 84.9386C43.3073 85.2034 44.5818 85.3364 45.8603 85.3364H78.9752C81.0519 85.3364 83.113 84.9847 85.0716 84.2955L104.016 77.6319V14.5607C104.016 12.2185 102.178 10.3203 99.9122 10.3203H33.1464C30.8802 10.321 29.043 12.2192 29.043 14.5613Z" fill="#263238" stroke="#263238" stroke-width="0.648968" stroke-miterlimit="10"/>
<path d="M31.5273 106.877H100.701C100.701 106.877 101.762 108.534 105.257 111.433" stroke="#263238" stroke-width="0.648968" stroke-miterlimit="10"/>
<path d="M47.2676 103.148H77.5056" stroke="#263238" stroke-width="0.648968" stroke-miterlimit="10"/>
<path d="M101.944 92.3789L82.3711 99.4436C82.3711 99.4436 84.9618 103.563 86.2039 103.977C87.4467 104.391 100.701 103.977 100.701 103.977C100.701 103.977 105.672 101.078 101.944 92.3789Z" fill="#263238" stroke="#263238" stroke-width="0.648968" stroke-miterlimit="10"/>
<path d="M94.2743 97.5006L100.833 96.043C100.833 96.043 100.833 100.415 99.8612 100.901C98.8897 101.387 93.5137 102.291 93.5137 102.291L94.2743 97.5006Z" fill="white" stroke="#263238" stroke-width="0.648968" stroke-miterlimit="10"/>
<path d="M95.2449 100.294C95.2449 101.971 93.8853 103.331 92.2084 103.331C90.5315 103.331 89.1719 101.971 89.1719 100.294C89.1719 98.6174 90.5315 97.2578 92.2084 97.2578C93.8853 97.2578 95.2449 98.6174 95.2449 100.294Z" fill="white" stroke="#263238" stroke-width="0.648968" stroke-miterlimit="10"/>
<path d="M89.2672 101.035C89.2672 102.302 88.2399 103.33 86.9725 103.33C85.705 103.33 84.6777 102.302 84.6777 101.035C84.6777 99.7676 85.705 98.7402 86.9725 98.7402C88.2399 98.7402 89.2672 99.7676 89.2672 101.035Z" fill="white" stroke="#263238" stroke-width="0.648968" stroke-miterlimit="10"/>
<path d="M29.2684 92.3789L44.3375 99.4436C44.3375 99.4436 42.3432 103.563 41.3866 103.977C40.43 104.391 30.225 103.977 30.225 103.977C30.225 103.977 26.3987 101.078 29.2684 92.3789Z" fill="#263238" stroke="#263238" stroke-width="0.648968" stroke-miterlimit="10"/>
<path d="M35.174 97.5006L30.125 96.043C30.125 96.043 30.125 100.415 30.8733 100.901C31.6215 101.387 35.76 102.291 35.76 102.291L35.174 97.5006Z" fill="white" stroke="#263238" stroke-width="0.648968" stroke-miterlimit="10"/>
<path d="M34.4258 100.294C34.4258 101.971 35.4726 103.331 36.7634 103.331C38.0542 103.331 39.1009 101.971 39.1009 100.294C39.1009 98.6174 38.0542 97.2578 36.7634 97.2578C35.4726 97.2578 34.4258 98.6174 34.4258 100.294Z" fill="white" stroke="#263238" stroke-width="0.648968" stroke-miterlimit="10"/>
<path d="M40.7938 103.33C41.7694 103.33 42.5603 102.302 42.5603 101.035C42.5603 99.7676 41.7694 98.7402 40.7938 98.7402C39.8182 98.7402 39.0273 99.7676 39.0273 101.035C39.0273 102.302 39.8182 103.33 40.7938 103.33Z" fill="white" stroke="#263238" stroke-width="0.648968" stroke-miterlimit="10"/>
<path d="M86.9767 16.4395H46.0801V23.8688H86.9767V16.4395Z" fill="#CCCCCC" stroke="#263238" stroke-width="0.648968" stroke-miterlimit="10"/>
<path d="M101.834 28.2656H31.2109V75.9842H101.834V28.2656Z" fill="#CCCCCC" stroke="#263238" stroke-width="0.648968" stroke-miterlimit="10"/>
<path d="M31.2109 67.2699L70.2152 28.2656H52.889L31.2109 49.9438V67.2699Z" fill="white" stroke="#263238" stroke-width="0.648968" stroke-miterlimit="10"/>
<path d="M73.85 71.8482H82.112C82.112 71.8482 67.7965 68.349 51.5723 71.8482H73.4522L77.6588 77.256H79.8971L74.0175 71.9306L73.85 71.8482Z" fill="#263238" stroke="#263238" stroke-width="0.648968" stroke-miterlimit="10"/>
<path d="M69.7342 109.652H54.5977V114.31H69.7342V109.652Z" fill="white" stroke="#263238" stroke-width="0.648968" stroke-miterlimit="10"/>
<path d="M110.875 18.834V87.1729H129.341C132.253 87.1729 136.185 82.8936 136.185 82.8936L144.325 74.4602H326.668V18.834H110.875Z" fill="#263238" stroke="#263238" stroke-width="0.648968" stroke-miterlimit="10"/>
<path d="M89.7401 20.0879C88.2605 20.0879 87.0566 21.2917 87.0566 22.772V29.2838H89.1677V22.772C89.1677 22.4566 89.4241 22.1996 89.7395 22.1996C89.7395 22.1996 91.1425 22.1996 91.1789 22.1996C91.4884 22.2003 91.8629 23.3567 91.968 23.5716C92.7461 25.1654 94.1323 26.27 95.9676 26.27H110.173V20.0885H89.7401V20.0879ZM108.062 24.1576H95.9683C95.2252 24.1576 94.5353 23.7883 94.1239 23.1698L93.4762 22.199H108.062V24.1576Z" fill="white" stroke="#263238" stroke-width="0.648968" stroke-miterlimit="10"/>
<path d="M93.8027 47.8523H86.3876C85.4076 47.8523 84.6133 47.0579 84.6133 46.078V28.4559C84.6133 27.476 85.4076 26.6816 86.3876 26.6816H93.8027C94.7826 26.6816 95.5769 27.476 95.5769 28.4559V46.078C95.5769 47.0579 94.7826 47.8523 93.8027 47.8523Z" fill="white" stroke="#263238" stroke-width="0.648968" stroke-miterlimit="10"/>
<path d="M137.996 26.8887H113.166V60.8297H137.996V26.8887Z" fill="white" stroke="#263238" stroke-width="0.648968" stroke-miterlimit="10"/>
<path d="M168.181 26.8887H143.352V71.7005H168.181V26.8887Z" fill="white" stroke="#263238" stroke-width="0.648968" stroke-miterlimit="10"/>
<path d="M198.365 26.8887H173.535V71.7005H198.365V26.8887Z" fill="white" stroke="#263238" stroke-width="0.648968" stroke-miterlimit="10"/>
<path d="M228.55 26.8887H203.721V71.7005H228.55V26.8887Z" fill="white" stroke="#263238" stroke-width="0.648968" stroke-miterlimit="10"/>
<path d="M258.733 26.8887H233.904V65.0421H258.733V26.8887Z" fill="white" stroke="#263238" stroke-width="0.648968" stroke-miterlimit="10"/>
<path d="M288.919 26.8887H264.09V65.0421H288.919V26.8887Z" fill="white" stroke="#263238" stroke-width="0.648968" stroke-miterlimit="10"/>
<path d="M137.996 64.9785H113.166V75.0855H137.996V64.9785Z" fill="white" stroke="#263238" stroke-width="0.648968" stroke-miterlimit="10"/>
<path d="M61.0968 97.1886C65.0766 97.1886 68.3029 95.8059 68.3029 94.1002C68.3029 92.3945 65.0766 91.0117 61.0968 91.0117C57.1169 91.0117 53.8906 92.3945 53.8906 94.1002C53.8906 95.8059 57.1169 97.1886 61.0968 97.1886Z" fill="white" stroke="#263238" stroke-width="0.648968" stroke-miterlimit="10"/>
<path d="M142.837 88.9531H137.072V91.8358H142.837V88.9531Z" fill="white" stroke="#263238" stroke-width="0.648968" stroke-miterlimit="10"/>
</svg>
