<svg width="257" height="209" viewBox="0 0 257 209" fill="none" xmlns="http://www.w3.org/2000/svg">
<path d="M285.035 221.576C285.493 220.48 286.256 219.479 286.38 218.298C286.678 215.455 283.208 212.872 284.292 210.228C285.195 208.028 288.762 207.54 289.053 205.18C289.16 204.311 288.746 203.472 288.345 202.695C285.684 197.538 283.023 192.382 280.361 187.225L280.244 187.522C275.404 186.467 270.405 187.906 265.689 189.425C256.179 192.488 245.796 196.241 240.939 204.973C237.775 210.661 237.582 217.459 236.141 223.806C234.415 231.4 230.789 238.554 225.685 244.435C219.733 251.292 211.968 256.288 204.206 260.998C191.658 268.61 163.786 298.16 150.684 304.771C169.812 316.528 207.835 299.445 230.188 297.332C231.348 289.305 237.477 282.212 245.251 279.901C246.971 279.39 248.875 279.026 250.071 277.688C252.951 274.467 249.569 268.375 252.711 265.41C253.563 264.606 254.729 264.246 255.85 263.91C259.42 262.84 262.99 261.771 266.56 260.702C264.47 255.072 265.41 248.416 268.977 243.585C276.798 245.671 285.039 246.166 293.054 245.032C294.634 236.577 281.717 229.511 285.035 221.576Z" fill="#33AEE5"/>
<path d="M79.5436 172.956C84.3833 168.377 91.1212 166.26 96.075 161.805C100.902 157.463 103.648 151.258 108.111 146.543C117.942 136.155 133.684 134.927 147.786 132.532C160.47 130.377 172.856 126.774 185.208 123.179C192.687 121.003 200.187 118.819 207.356 115.77C206.855 113.054 206.354 110.34 205.853 107.625C211.165 111.405 216.024 115.752 220.246 120.767C224.806 126.185 229.097 132.05 231.142 138.831C231.537 140.143 231.891 141.559 232.894 142.493C233.621 143.17 234.595 143.499 235.539 143.808C251.609 149.079 267.876 153.748 284.295 157.801C282.52 151.265 280.745 144.73 278.97 138.194C276.328 138.008 273.99 136.279 272.434 134.136C270.877 131.993 269.979 129.455 269.102 126.956C267.646 122.811 266.169 118.477 266.727 114.119C266.806 113.506 266.918 112.854 266.661 112.293C266.359 111.636 265.642 111.296 265.123 110.793C262.722 108.463 265.309 104.01 263.538 101.172C261.927 98.5909 257.668 98.8408 256.036 96.2737C254.333 93.5955 256.181 88.9163 253.309 87.5656C252.761 87.308 252.139 87.2578 251.535 87.2717C248.096 87.3527 243.794 89.0428 241.789 86.2466C240.816 84.8897 240.985 83.0654 240.868 81.4C240.751 79.7346 239.99 77.7869 238.343 77.5161C234.671 80.5546 230.729 83.7157 226.004 84.3413C225.127 84.457 224.163 84.4608 223.445 83.9448C222.261 83.0939 222.319 81.356 222.394 79.8997C222.664 74.6065 221.493 69.2462 219.04 64.5477C214.878 64.4713 210.866 67.9155 206.914 66.6073C205.602 66.173 204.51 65.2551 203.27 64.6449C199.15 62.6177 195.236 64.4127 191.133 65.2535C187.236 66.0519 183.507 66.5139 179.669 67.8106C178.53 68.1956 177.39 68.5812 176.25 68.9662C166.3 65.8436 155.435 70.927 145.171 69.0811C142.824 68.6592 140.327 67.8916 138.141 68.8427C137.121 69.2855 136.292 70.0623 135.426 70.7596C119.233 69.5709 111.85 73.1339 111.85 73.1339C111.85 73.1339 105.31 82.618 99.7846 82.8772C94.179 83.1395 88.8195 79.8225 83.2293 80.3108C82.2836 80.3933 81.3039 80.6055 80.575 81.2133C80.0466 81.6538 79.6917 82.2686 79.4302 82.9042C77.4092 87.8155 80.4377 94.1293 77.3383 98.4421C76.1457 100.101 74.1185 101.305 73.7591 103.316C73.5477 104.498 73.982 105.685 74.252 106.855C75.4738 112.142 73.0201 118.075 68.4211 120.955C66.7997 121.97 64.9044 122.675 63.7173 124.174C62.5463 125.652 62.3427 127.414 62.5139 129.286C60.0247 131.621 57.6164 134.156 55.2468 136.194C53.1664 137.984 50.998 139.9 50.1125 142.497C48.9971 145.772 50.1642 149.4 49.5957 152.813C48.5543 159.071 42.2915 162.803 36.9088 166.161C35.9376 166.767 34.8901 167.51 34.678 168.634C34.2668 170.818 37.0176 172.012 38.9476 173.114C42.3686 175.066 44.3819 179.225 43.791 183.119C43.4177 185.58 42.131 187.802 41.4376 190.192C40.7441 192.583 40.7981 195.502 42.6556 197.159C43.221 197.664 43.9322 198.028 44.3495 198.662C45.3454 200.171 44.1829 202.156 44.2631 203.962C44.3225 205.29 45.0638 206.477 45.7527 207.614C47.3494 210.25 48.7734 212.988 50.0361 215.799C50.033 216.003 50.0299 216.208 50.0215 216.41C49.8857 219.555 48.7525 222.563 48.1725 225.657C47.5916 228.751 47.6564 232.227 49.608 234.697C51.936 237.644 56.2372 238.317 58.8321 241.031C62.3427 244.703 61.5659 250.572 60.5531 255.551C60.2916 256.838 60.0301 258.124 59.7678 259.411C59.0813 262.786 58.3909 266.219 58.6887 269.651C58.8337 271.319 59.2109 272.982 59.0859 274.652C58.961 276.322 58.2035 278.079 56.6985 278.814C55.398 279.45 53.3878 279.612 53.2774 281.055C53.1995 282.069 54.2594 282.767 55.2013 283.152C61.036 285.534 67.5873 284.964 73.8848 284.703C76.7482 284.585 79.9301 284.652 82.0298 286.602C82.886 287.396 83.4854 288.449 84.4041 289.171C87.4564 291.568 92.9324 289.626 95.1208 292.832C95.7109 293.696 95.9223 294.812 96.6651 295.551C97.4311 296.313 98.582 296.499 99.6519 296.646C103.338 297.154 107.023 297.663 110.709 298.172C112.48 298.416 118.88 300.353 120.251 299.177C121.635 297.99 119.342 291.701 119 290.027C118.288 286.547 117.576 283.067 116.864 279.587C116.463 277.628 116.054 275.644 115.174 273.849C114.3 272.068 112.994 270.541 111.808 268.951C108.196 264.11 105.608 258.562 101.942 253.761C97.9171 248.489 92.7049 244.259 88.1985 239.392C84.3501 235.235 81.0046 230.588 78.53 225.492C78.0032 224.406 77.5219 223.301 77.0606 222.187C79.1001 222.038 81.1427 221.937 83.1876 221.917C83.9767 205.947 80.3559 190.167 78.2261 174.295C78.655 173.836 79.0893 173.386 79.5436 172.956Z" fill="#33AEE5"/>
<path d="M281.439 93.1477C265.694 105.19 249.95 117.242 234.21 129.29C234.115 129.365 231.218 125.38 228.316 121.33C225.329 117.166 222.332 112.932 222.332 112.932C222.332 112.932 246.823 94.4475 255.744 87.7126C260.86 83.8542 265.975 79.9865 271.095 76.1234C272.042 75.4068 274.572 73.8039 275.712 73.51C277.47 73.0572 281.757 78.3126 282.802 79.7967C282.862 79.8762 282.911 79.9564 282.966 80.0405C284.699 82.5212 287.387 85.5396 286.52 88.4176C285.906 90.4749 283.147 91.8387 281.439 93.1477Z" fill="#FCE78C"/>
<path d="M282.966 80.0424C272.695 87.5896 262.33 95.0118 251.88 102.31C244.315 107.591 236.589 116.111 228.316 121.332C225.329 117.168 222.332 112.934 222.332 112.934C222.332 112.934 246.823 94.4494 255.744 87.7145C260.86 83.8561 265.975 79.9884 271.095 76.1254C272.042 75.4088 274.572 73.8058 275.712 73.5119C277.47 73.0591 281.757 78.3145 282.802 79.7987C282.861 79.8781 282.911 79.9576 282.966 80.0424Z" fill="#E5D17F"/>
<path d="M261.198 88.8978C261.453 88.6448 261.884 88.0123 261.88 87.6528C261.875 87.2301 261.461 86.9015 261.041 86.8498C260.622 86.7981 260.207 86.9555 259.822 87.1283C258.019 87.9359 256.403 89.1578 255.135 90.6728L256.721 92.6799C256.721 92.6799 260.385 89.7024 261.198 88.8978Z" fill="#AA9643"/>
<path d="M253.667 94.2592C253.923 94.0062 254.353 93.3736 254.348 93.0142C254.344 92.5914 253.93 92.2628 253.51 92.2112C253.09 92.1595 252.675 92.3168 252.29 92.4896C250.488 93.2973 248.872 94.5191 247.604 96.0341L249.189 98.0405C249.189 98.0405 252.854 95.0637 253.667 94.2592Z" fill="#AA9643"/>
<path d="M262.376 103.103C262.023 103.031 261.321 103.335 261.025 103.538C260.082 104.186 256.471 107.227 256.471 107.227L258.144 109.161C259.869 108.2 261.373 106.841 262.505 105.222C262.747 104.876 262.98 104.498 263.007 104.076C263.035 103.655 262.79 103.187 262.376 103.103Z" fill="#AA9643"/>
<path d="M258.251 99.9604C258.513 99.7143 258.96 99.0934 258.965 98.7339C258.972 98.3112 258.567 97.9718 258.149 97.9093C257.73 97.8468 257.312 97.9926 256.922 98.1546C255.098 98.9144 253.45 100.092 252.143 101.573L253.675 103.621C253.675 103.621 257.416 100.743 258.251 99.9604Z" fill="#AA9643"/>
<path d="M259.29 100.944C257.539 101.859 255.855 103.019 254.34 104.398L255.991 106.565C255.991 106.565 259.787 103.741 260.567 102.904C262.286 101.062 260.496 100.314 259.29 100.944Z" fill="#AA9643"/>
<path d="M255.99 97.165C256.245 96.912 256.675 96.2794 256.671 95.92C256.667 95.4973 256.253 95.1679 255.833 95.117C254.487 94.955 251.195 97.4249 249.926 98.9399L251.621 100.858C251.621 100.858 255.177 97.9695 255.99 97.165Z" fill="#AA9643"/>
<path d="M245.998 100.203C246.253 99.9495 246.684 99.317 246.679 98.9575C246.675 98.5348 246.26 98.2062 245.841 98.1545C245.421 98.1028 245.006 98.2602 244.621 98.433C242.818 99.2406 241.202 100.462 239.934 101.977L241.52 103.985C241.52 103.985 245.185 101.007 245.998 100.203Z" fill="#AA9643"/>
<path d="M254.708 109.046C254.356 108.974 253.654 109.278 253.358 109.482C252.415 110.13 248.803 113.17 248.803 113.17L250.477 115.104C252.202 114.143 253.706 112.785 254.838 111.166C255.08 110.819 255.312 110.441 255.34 110.019C255.368 109.598 255.123 109.129 254.708 109.046Z" fill="#AA9643"/>
<path d="M250.581 105.904C250.843 105.658 251.29 105.037 251.295 104.677C251.302 104.255 250.897 103.915 250.479 103.853C250.061 103.79 249.642 103.936 249.252 104.098C247.429 104.858 245.781 106.036 244.473 107.517L246.005 109.565C246.005 109.565 249.747 106.687 250.581 105.904Z" fill="#AA9643"/>
<path d="M251.62 106.885C249.869 107.8 248.185 108.96 246.67 110.339L248.321 112.506C248.321 112.506 252.117 109.682 252.897 108.845C254.616 107.003 252.826 106.256 251.62 106.885Z" fill="#AA9643"/>
<path d="M249.005 101.861C249.001 101.439 248.587 101.109 248.167 101.058C246.82 100.897 243.529 103.366 242.26 104.881L243.955 106.799C243.955 106.799 247.51 103.912 248.324 103.107C248.58 102.853 249.009 102.221 249.005 101.861Z" fill="#AA9643"/>
<path d="M238.819 104.708C238.815 104.285 238.4 103.956 237.981 103.905C237.561 103.853 237.146 104.01 236.761 104.183C234.958 104.991 233.342 106.212 232.074 107.727L233.66 109.735C233.66 109.735 237.325 106.758 238.138 105.953C238.393 105.7 238.823 105.067 238.819 104.708Z" fill="#AA9643"/>
<path d="M246.845 114.796C246.493 114.724 245.791 115.028 245.494 115.232C244.551 115.88 240.939 118.92 240.939 118.92L242.613 120.854C244.338 119.893 245.842 118.535 246.974 116.916C247.216 116.569 247.448 116.191 247.476 115.769C247.504 115.348 247.259 114.879 246.845 114.796Z" fill="#AA9643"/>
<path d="M243.433 110.427C243.439 110.005 243.034 109.665 242.616 109.603C242.198 109.54 241.779 109.686 241.389 109.848C239.565 110.608 237.918 111.786 236.609 113.267L238.141 115.315C238.141 115.315 241.884 112.437 242.718 111.654C242.981 111.408 243.428 110.788 243.433 110.427Z" fill="#AA9643"/>
<path d="M243.76 112.636C242.009 113.551 240.326 114.71 238.811 116.089L240.461 118.257C240.461 118.257 244.258 115.433 245.039 114.596C246.756 112.753 244.966 112.006 243.76 112.636Z" fill="#AA9643"/>
<path d="M241.142 107.611C241.138 107.189 240.723 106.859 240.304 106.808C238.958 106.646 235.665 109.116 234.396 110.631L236.092 112.549C236.092 112.549 239.647 109.662 240.46 108.857C240.716 108.603 241.147 107.971 241.142 107.611Z" fill="#AA9643"/>
<path d="M39.9605 127.217C39.6003 128.089 39.2339 128.97 38.7611 129.784C38.498 130.239 38.2072 130.667 37.8632 131.067C37.1774 131.872 35.6817 133.098 34.5115 132.869C33.4069 132.653 32.1889 130.678 31.4785 129.825C29.4521 127.408 27.6586 124.808 26.129 122.058C26.0603 121.937 25.9901 121.809 25.9199 121.68C29.9565 121.681 34.0001 122.066 37.9704 122.832C38.7649 122.979 39.6265 123.192 40.1179 123.833C40.8376 124.778 40.4056 126.117 39.9605 127.217Z" fill="#E6A529"/>
<path d="M38.761 129.783C38.4979 130.238 38.2071 130.666 37.8631 131.066C37.1773 131.871 35.6816 133.097 34.5115 132.868C33.4069 132.652 32.1888 130.677 31.4784 129.824C29.452 127.407 27.6585 124.807 26.1289 122.057C30.3399 124.629 34.5485 127.195 38.761 129.783Z" fill="#D38E20"/>
<path d="M87.9012 91.0625C87.5664 91.5755 87.2394 92.0931 86.9054 92.6068C86.1564 92.7634 85.2546 93.3442 84.5905 93.6104C78.0584 96.2246 70.9918 96.4274 64.2315 94.651C63.464 94.4288 62.6826 94.1735 61.885 94.2313C61.0881 94.2892 60.2581 94.7481 60.0367 95.5164C64.0633 98.7215 69.6666 99.1874 74.8102 98.9977C76.9739 98.9174 81.3962 97.593 84.5797 96.213C72.4991 114.994 61.1498 134.245 50.5696 153.911C50.2842 150.421 49.2984 145.694 48.3018 143.699C46.604 140.3 44.4696 136.857 41.5615 134.482C49.1996 122.813 56.2524 110.762 62.6818 98.386C61.9868 98.035 61.2918 97.6832 60.5968 97.3323C53.028 108.918 45.9992 120.855 39.5374 133.093C39.0931 132.841 38.6379 132.607 38.1612 132.406C37.5935 132.968 37.5889 133.917 37.9206 134.644C38.2523 135.371 38.8508 135.934 39.414 136.501C44.215 141.581 47.427 147.878 48.2663 154.865C48.3619 155.658 48.2539 156.902 48.5879 157.619C48.0819 158.571 47.5659 159.518 47.0629 160.473L47.1362 160.871C48.4537 161.519 49.772 162.167 51.0895 162.815C65.8583 140.28 79.4878 116.999 91.9085 93.0881C90.5733 92.4124 89.2372 91.7375 87.9012 91.0625Z" fill="#69472B"/>
<path d="M59.0867 94.9674C58.836 95.5768 58.5792 96.1954 58.286 96.7886C57.9304 97.5106 57.5147 98.2049 56.9901 98.8166C56.3044 99.6219 54.8087 100.848 53.6385 100.619C52.5339 100.403 51.3159 98.4278 50.6054 97.5754C48.4965 95.0476 46.6251 92.32 45.0469 89.4297C49.0835 89.4312 53.1271 89.8162 57.0973 90.5821C57.8919 90.7287 58.7535 90.9424 59.2449 91.5826C59.9645 92.5283 59.5395 93.8667 59.0867 94.9674Z" fill="#E6A529"/>
<path d="M67.0838 153.197C56.6385 147.285 33.4316 132.999 33.4316 132.999C33.4316 132.999 38.1085 124.864 39.9729 122.102C50.24 127.973 60.5062 133.843 70.7725 139.714C72.0576 140.449 73.4237 141.273 74.0146 142.629C74.786 144.402 74.138 146.508 73.1815 148.188C69.4735 154.698 67.0838 153.197 67.0838 153.197Z" fill="#C75529"/>
<path d="M38.1845 130.297C37.5844 130.274 36.9858 131.034 37.1509 131.602C37.3221 132.19 38.9142 132.895 39.4095 133.23C39.6216 133.374 39.8468 133.522 40.1022 133.536C40.4578 133.554 40.7817 133.297 40.9491 132.983C41.1165 132.669 41.1589 132.305 41.199 131.951C40.42 131.488 39.6401 131.025 38.861 130.561C38.6504 130.435 38.429 130.307 38.1845 130.297Z" fill="#F78D37"/>
<path d="M43.1686 129.242C43.336 128.928 43.3784 128.564 43.4185 128.21C42.6395 127.747 41.8596 127.284 41.0797 126.82C40.8691 126.695 40.6478 126.566 40.4032 126.557C39.8039 126.533 39.2045 127.294 39.3696 127.862C39.5408 128.45 41.133 129.154 41.6282 129.49C41.8395 129.633 42.0656 129.782 42.3209 129.795C42.6773 129.813 43.0012 129.556 43.1686 129.242Z" fill="#F78D37"/>
<path d="M43.6708 133.549C43.0714 133.525 42.4721 134.286 42.6372 134.854C42.8084 135.442 44.4005 136.147 44.8958 136.482C45.1079 136.626 45.3331 136.774 45.5885 136.788C45.9441 136.806 46.268 136.548 46.4354 136.235C46.6028 135.921 46.6452 135.557 46.6854 135.203C45.9063 134.74 45.1264 134.277 44.3473 133.813C44.1367 133.688 43.9146 133.559 43.6708 133.549Z" fill="#F78D37"/>
<path d="M48.6542 132.495C48.8216 132.182 48.864 131.817 48.9041 131.464C48.125 131.001 47.3452 130.538 46.5661 130.074C46.3555 129.949 46.1341 129.82 45.8896 129.811C45.2895 129.787 44.6909 130.548 44.8559 131.115C45.0272 131.704 46.6193 132.408 47.1145 132.744C47.3259 132.887 47.5519 133.035 47.8072 133.049C48.1628 133.067 48.4868 132.809 48.6542 132.495Z" fill="#F78D37"/>
<path d="M49.1572 136.803C48.557 136.779 47.9584 137.54 48.1235 138.108C48.2948 138.696 49.8869 139.401 50.3821 139.736C50.5942 139.88 50.8195 140.028 51.0748 140.042C51.4304 140.06 51.7544 139.802 51.9218 139.488C52.0892 139.175 52.1316 138.81 52.1717 138.457C51.3926 137.994 50.6128 137.531 49.8337 137.067C49.6231 136.941 49.4017 136.813 49.1572 136.803Z" fill="#F78D37"/>
<path d="M54.1374 135.747C54.3048 135.433 54.3472 135.07 54.3873 134.716C53.6074 134.253 52.8283 133.79 52.0485 133.326C51.8379 133.201 51.6165 133.072 51.372 133.063C50.7726 133.039 50.1733 133.8 50.3383 134.367C50.5096 134.956 52.1017 135.66 52.5969 135.996C52.8091 136.139 53.0343 136.287 53.2896 136.301C53.646 136.319 53.97 136.061 54.1374 135.747Z" fill="#F78D37"/>
<path d="M54.6415 140.057C54.0422 140.033 53.4428 140.794 53.6079 141.362C53.7791 141.95 55.3712 142.654 55.8665 142.99C56.0786 143.133 56.3038 143.282 56.5592 143.295C56.9148 143.314 57.2387 143.056 57.4061 142.742C57.5735 142.428 57.6167 142.064 57.6561 141.711C56.8762 141.247 56.0971 140.785 55.3172 140.321C55.1074 140.195 54.8853 140.067 54.6415 140.057Z" fill="#F78D37"/>
<path d="M57.5348 136.578C57.325 136.453 57.1029 136.324 56.8583 136.315C56.2582 136.291 55.6596 137.052 55.8247 137.619C55.9959 138.208 57.5881 138.912 58.0833 139.248C58.2946 139.391 58.5207 139.539 58.776 139.553C59.1316 139.572 59.4556 139.314 59.623 139C59.7903 138.686 59.8328 138.322 59.8729 137.969C59.0938 137.505 58.3139 137.042 57.5348 136.578Z" fill="#F78D37"/>
<path d="M58.286 96.7886C57.9304 97.5106 57.5147 98.2049 56.9901 98.8166C56.3044 99.6219 54.8087 100.848 53.6385 100.619C52.5339 100.403 51.3159 98.4278 50.6054 97.5754C48.4965 95.0476 46.6251 92.32 45.0469 89.4297C49.4653 91.8564 53.8645 94.348 58.286 96.7886Z" fill="#D38E20"/>
<path d="M86.2068 120.947C75.7616 115.035 52.5547 100.749 52.5547 100.749C52.5547 100.749 57.2316 92.6139 59.096 89.8516C69.363 95.7225 79.6293 101.593 89.8955 107.464C91.1807 108.199 92.5468 109.023 93.1376 110.379C93.909 112.152 93.2904 114.275 92.3046 115.938C88.3057 122.68 86.2068 120.947 86.2068 120.947Z" fill="#C75529"/>
<path d="M57.6747 97.5318C57.0746 97.5079 56.476 98.2685 56.6411 98.8362C56.8123 99.4248 58.4045 100.129 58.8997 100.465C59.1118 100.608 59.3371 100.756 59.5924 100.77C59.948 100.789 60.272 100.531 60.4394 100.217C60.6067 99.903 60.6492 99.5389 60.6893 99.1856C59.9102 98.722 59.1303 98.2592 58.3512 97.7956C58.1414 97.6706 57.9193 97.5418 57.6747 97.5318Z" fill="#F78D37"/>
<path d="M62.6589 96.476C62.8262 96.162 62.8687 95.7979 62.9088 95.4446C62.1297 94.981 61.3498 94.5182 60.57 94.0546C60.3594 93.9296 60.138 93.8016 59.8935 93.7916C59.2941 93.7677 58.6947 94.5282 58.8598 95.096C59.0311 95.6845 60.6232 96.3888 61.1184 96.7243C61.3298 96.8678 61.5558 97.0159 61.8111 97.0298C62.1675 97.0475 62.4915 96.7899 62.6589 96.476Z" fill="#F78D37"/>
<path d="M63.1611 100.786C62.5609 100.762 61.9623 101.522 62.1274 102.09C62.2987 102.679 63.8908 103.383 64.386 103.718C64.5981 103.862 64.8234 104.01 65.0787 104.024C65.4343 104.042 65.7583 103.785 65.9257 103.471C66.0931 103.157 66.1355 102.794 66.1756 102.44C65.3965 101.976 64.6167 101.513 63.8368 101.05C63.627 100.924 63.4056 100.795 63.1611 100.786Z" fill="#F78D37"/>
<path d="M68.1444 99.7279C68.3118 99.414 68.3543 99.0506 68.3944 98.6966C67.6153 98.233 66.8354 97.7702 66.0563 97.3066C65.8457 97.1816 65.6243 97.0528 65.3798 97.0435C64.7797 97.0196 64.1811 97.7802 64.3462 98.3479C64.5174 98.9365 66.1095 99.6407 66.6048 99.9763C66.8169 100.12 67.0421 100.268 67.2975 100.281C67.6531 100.3 67.9763 100.042 68.1444 99.7279Z" fill="#F78D37"/>
<path d="M68.6474 104.038C68.048 104.014 67.4486 104.774 67.6137 105.342C67.785 105.931 69.3771 106.635 69.8723 106.97C70.0844 107.114 70.3097 107.262 70.565 107.275C70.9206 107.294 71.2446 107.036 71.412 106.722C71.5794 106.408 71.6218 106.044 71.6619 105.691C70.8828 105.227 70.103 104.764 69.3239 104.301C69.1141 104.176 68.8919 104.048 68.6474 104.038Z" fill="#F78D37"/>
<path d="M73.6276 102.982C73.795 102.668 73.8374 102.304 73.8775 101.95C73.0984 101.487 72.3186 101.024 71.5387 100.56C71.3289 100.436 71.1067 100.307 70.8622 100.297C70.2629 100.274 69.6635 101.034 69.8286 101.602C69.9998 102.19 71.5919 102.895 72.0872 103.23C72.2993 103.374 72.5245 103.522 72.7799 103.536C73.1362 103.554 73.4602 103.297 73.6276 102.982Z" fill="#F78D37"/>
<path d="M74.1317 107.292C73.5324 107.268 72.933 108.028 73.0981 108.596C73.2693 109.185 74.8615 109.889 75.3567 110.224C75.5688 110.368 75.7941 110.516 76.0494 110.53C76.405 110.548 76.729 110.291 76.8964 109.977C77.0637 109.663 77.1062 109.299 77.1463 108.945C76.3664 108.482 75.5873 108.019 74.8075 107.555C74.5977 107.43 74.3763 107.302 74.1317 107.292Z" fill="#F78D37"/>
<path d="M77.025 103.814C76.8144 103.689 76.5931 103.561 76.3485 103.551C75.7492 103.527 75.1498 104.288 75.3149 104.856C75.4861 105.444 77.0783 106.149 77.5735 106.484C77.7856 106.628 78.0109 106.776 78.2662 106.79C78.6218 106.808 78.9458 106.55 79.1132 106.236C79.2805 105.923 79.323 105.558 79.3631 105.205C78.584 104.741 77.8049 104.277 77.025 103.814Z" fill="#F78D37"/>
<path d="M188.972 92.921C177.257 70.8912 170.891 46.0412 170.567 21.0918C169.228 20.8681 167.89 20.6436 166.551 20.4199C166.546 20.4724 166.546 20.5248 166.542 20.5773C165.627 34.0124 162.492 47.2808 157.375 59.7293C153.145 70.0342 147.299 83.5217 138.176 90.4965C139.371 90.6107 152.664 91.1398 152.664 91.1969C152.745 84.8701 158.071 79.1534 164.25 78.1861C165.036 78.0673 165.832 78.0195 166.632 78.0573C173.759 78.4005 179.866 85.3607 179.281 92.4689C182.511 92.6209 185.742 92.7729 188.972 92.921ZM164.627 72.535C160.634 72.6445 157.247 72.7348 157.247 72.7348C161.878 60.8864 166.766 48.2705 167.747 35.5837C167.752 35.7981 167.757 36.0126 167.762 36.227C168.091 48.5999 169.596 60.8957 174.556 72.2349C172.016 72.3205 168.095 72.4347 164.627 72.535Z" fill="#683A57"/>
<path d="M167.115 19.2894C167.314 12.8885 167.513 6.4876 167.712 0.0859375C168.247 6.80232 168.781 13.5195 169.316 20.2359C168.403 20.33 167.407 19.9065 166.906 19.1382L167.115 19.2894Z" fill="#683A57"/>
<path d="M167.763 36.2267C167.759 36.0122 167.754 35.7978 167.748 35.5833C166.767 48.2702 161.879 60.8861 157.249 72.7344C157.249 72.7344 160.636 72.6442 164.628 72.5346C164.481 74.4214 164.352 76.3028 164.252 78.185C158.073 79.1523 152.747 84.869 152.666 91.1958C152.666 91.1387 139.373 90.6096 138.178 90.4954C147.301 83.5206 153.147 70.0331 157.377 59.7282C162.494 47.2797 165.629 34.0113 166.544 20.5762C167.158 21.3668 167.687 21.8243 167.744 22.8918C167.978 27.3319 167.949 31.7773 167.763 36.2267Z" fill="#7C466A"/>
<path d="M149.287 68.2764C160.449 68.4422 171.637 68.1105 182.799 68.2764C183.016 69.7628 181.826 71.6697 180.408 72.2999C178.991 72.9293 177.37 72.9556 175.804 72.9702C172.081 73.0049 168.359 73.0396 164.636 73.0751C162.917 73.0913 159.548 73.0882 157.146 73.0828C155.255 73.079 153.428 72.3963 152.015 71.139C150.969 70.2079 149.287 68.2764 149.287 68.2764Z" fill="#C487B0"/>
<path d="M178.204 49.9863C176.425 51.7998 174.67 54.2235 172.238 54.9586C171.031 55.3235 165.096 55.0944 163.459 55.1144C160.595 55.1499 157.886 52.3082 156.754 50.3435C156.754 50.3435 171.54 50.1452 178.204 49.9863Z" fill="#C487B0"/>
<path d="M165.112 21.5765C165.137 22.5577 165.533 23.5844 166.355 24.1205C167.115 24.6165 168.085 24.6165 168.992 24.6003C169.685 24.588 170.449 24.5478 170.951 24.0696C171.468 23.5782 171.534 22.786 171.517 22.0733C171.494 21.082 171.374 20.0939 171.159 19.1258C171.042 18.5982 170.888 18.0582 170.542 17.6425C170.172 17.1974 169.62 16.9405 169.06 16.7909C168.156 16.5487 167.199 16.6898 166.353 17.0909C165.111 17.6787 165.087 20.5945 165.112 21.5765Z" fill="#C487B0"/>
<path d="M275.726 191.508C275.726 204.144 273.597 216.285 269.671 227.586C269.254 228.82 268.799 230.039 268.321 231.258C267.086 234.459 265.698 237.583 264.171 240.63C263.152 242.674 262.072 244.687 260.931 246.647C260.221 247.865 259.488 249.076 258.732 250.257C248.118 267.034 233.1 280.726 215.288 289.728C200.401 297.257 183.569 301.491 165.743 301.491C149.667 301.491 134.409 298.051 120.648 291.849C82.3877 274.632 55.7598 236.179 55.7598 191.508C55.7598 188.084 55.914 184.689 56.2226 181.349C56.4077 179.29 56.6546 177.246 56.9554 175.225C57.3334 172.679 57.7962 170.157 58.3516 167.665C69.2357 118.39 113.189 81.5254 165.743 81.5254C171.613 81.5254 177.375 81.9805 182.991 82.8676C213.884 87.735 240.512 105.461 257.197 130.4C257.197 130.4 257.197 130.4 257.205 130.4C257.776 131.256 258.339 132.12 258.879 132.992C258.887 132.999 258.887 132.999 258.887 132.999C261.324 136.864 263.53 140.906 265.482 145.071V145.079C272.054 159.18 275.726 174.916 275.726 191.508Z" fill="#2976D3"/>
<path d="M257.195 130.399C253.809 129.242 249.89 132.012 248.664 135.467C247.383 139.116 248.201 143.135 249.011 146.915C249.805 150.702 250.561 154.736 249.165 158.339C247.206 163.399 241.22 167.302 242.315 172.602C242.701 174.461 243.943 176.034 244.498 177.847C245.138 179.999 244.213 183.085 241.444 182.514C239.801 182.182 238.636 180.763 238.366 179.112C237.988 176.844 234.817 173.635 232.974 175.517C234.655 179.837 236.352 184.288 236.229 188.916C236.075 194.632 232.434 200.757 225.97 200.603C224.118 200.556 222.298 201.15 220.994 202.454C218.001 205.431 219.884 208.008 221.21 210.723C222.244 212.844 222.267 215.374 221.11 217.434C218.48 222.085 212.239 220.589 210.565 216.67C207.125 223.914 211.198 229.005 215.548 234.019C210.797 233.749 207.372 229.275 205.628 224.847C203.407 219.177 202.69 212.744 197.328 208.787C194.914 207.005 191.667 206.581 189.059 208.077C185.025 210.391 185.403 215.344 184.392 219.447C183.382 223.559 178.283 227.778 175.329 223.351C174.55 222.186 174.341 220.751 174.503 219.363C175.552 210.623 167.723 204.398 159.932 201.621C153.237 199.245 145.947 198.373 139.676 195.095C139.869 195.689 140.038 196.298 140.246 196.892C140.74 198.35 141.396 199.916 142.769 200.603C143.818 201.119 145.044 200.996 146.186 201.227C148.439 201.667 150.328 203.619 150.683 205.887C151.046 208.154 149.866 210.584 147.868 211.71C144.165 213.793 139.082 211.363 135.456 213.569C133.859 214.549 132.355 216.447 130.45 215.336C129.941 215.043 129.563 214.58 129.301 214.063C124.996 205.779 120.561 197.371 118.663 188.214C118.123 185.599 117.529 182.552 115.161 181.31C114.112 180.755 112.893 180.67 111.736 180.439C110.579 180.2 109.353 179.706 108.782 178.68C108.203 177.639 108.728 176.011 109.908 175.911C108.35 174.314 105.704 173.905 103.722 174.954C101.747 176.003 100.605 178.425 101.053 180.624C98.5227 180.277 96.6945 177.978 95.6763 175.633C94.6504 173.288 94.1181 170.704 92.6988 168.575C91.2949 166.446 88.5642 164.826 86.1961 165.79C88.1014 168.706 90.0144 171.614 91.9197 174.53C92.5985 175.556 93.3004 176.875 92.5059 177.947C91.9043 178.765 90.7163 178.919 89.8215 178.41C88.0011 177.384 87.7157 175.363 86.9443 173.643C84.7536 168.799 77.8806 166.839 73.4683 169.817C70.5988 171.738 68.9635 175.178 65.9628 176.883C63.0393 178.541 58.8661 177.947 56.9531 175.224C57.3311 172.679 57.7939 170.156 58.3493 167.665C58.8276 167.348 59.3753 167.117 59.9615 167.017C62.5148 166.593 65.7623 168.12 67.0659 165.266C67.5056 164.309 67.4901 163.222 67.2279 162.196C66.1017 157.791 69.6037 153.849 73.6226 152.415C77.1709 151.142 81.0587 151.396 84.8153 151.651C88.5796 151.898 92.4674 152.106 95.9926 150.756C100.212 149.152 103.405 145.38 104.84 141.106C106.275 136.825 106.082 132.112 104.84 127.769L104.933 127.785C103.629 124.645 101.253 121.205 98.0213 122.169C96.3088 122.678 95.1826 124.282 95.0206 126.057C94.5424 131.155 99.3249 134.642 99.6566 139.378C99.8957 142.641 95.9386 146.166 93.5242 143.945C87.8237 141.854 81.1127 138.638 82.6709 131.256C83.0488 129.482 83.8819 127.839 84.9541 126.373C89.1427 120.688 93.2156 114.54 99.0704 110.483C104.154 106.973 110.934 105.276 116.611 107.721C121.085 109.649 124.364 113.861 128.992 115.396C134.469 117.232 140.501 114.849 145.245 111.562C149.989 108.269 154.108 104.034 159.261 101.411C164.414 98.8039 171.248 98.2099 175.537 102.074C175.676 100.424 175.822 98.7421 175.961 97.1685C176.44 91.6609 178.923 86.4927 182.989 82.8672C213.882 87.7346 240.51 105.461 257.195 130.399Z" fill="#BFF241"/>
<path d="M130.284 221.592C124.911 216.063 121.605 208.896 117.188 202.581C112.764 196.267 106.464 190.434 98.771 189.915C93.153 189.537 87.2612 192.035 82.0213 189.96C78.7977 188.686 76.4481 185.884 73.4837 184.091C68.4805 181.059 62.2624 181.155 56.4154 181.341C56.3491 181.341 56.2897 181.348 56.2225 181.348C55.9109 184.691 55.7559 188.086 55.7559 191.51C55.7559 236.179 82.3854 274.636 120.643 291.853C122.37 290.215 124.089 288.577 125.815 286.939C127.246 285.583 128.714 284.16 129.417 282.329C130.781 278.765 128.92 274.873 128.439 271.094C127.387 262.756 133.086 255.203 138.734 248.985C144.374 242.767 150.652 236.037 151.133 227.655C144.077 230.752 135.657 227.12 130.284 221.592Z" fill="#BFF241"/>
<path d="M171.556 146.309C170.873 145.988 170.084 146.41 169.469 146.848C166.915 148.663 164.756 150.968 162.615 153.256C162.078 153.83 161.536 154.418 161.072 155.052C156.867 153.658 152.647 152.311 148.413 151.009C151.149 141.066 154.374 131.256 158.072 121.628L155.349 120.875C153.635 120.401 151.806 120.998 150.703 122.393C149.043 124.493 146.433 127.794 143.693 131.261L141.136 130.782C140.148 130.596 139.197 131.247 139.012 132.235C138.827 133.223 139.477 134.174 140.465 134.359L141.143 134.486C139.757 136.24 138.402 137.954 137.181 139.499L134.701 139.034C133.713 138.849 132.762 139.499 132.577 140.487C132.392 141.475 133.042 142.426 134.03 142.611L134.636 142.725C133.753 143.859 132.893 145.023 132.183 146.259C128.723 145.3 125.256 144.37 121.779 143.472C119.544 142.894 117.287 142.327 114.981 142.204C114.017 142.152 112.496 142.53 111.228 142.915C110.059 143.271 109.581 144.677 110.293 145.671C110.735 146.285 111.213 146.883 111.603 147.197C112.611 148.01 113.71 148.698 114.973 149.241C119.845 150.675 125.128 152.358 130.343 153.87C130.385 155.411 130.59 156.963 130.83 158.493L128.797 158.112C127.809 157.927 126.858 158.577 126.673 159.565C126.488 160.554 127.138 161.505 128.126 161.69L131.329 162.291C131.493 163.769 131.685 165.565 131.922 167.528L130.16 167.197C129.172 167.012 128.221 167.662 128.036 168.65C127.851 169.638 128.501 170.589 129.489 170.774L132.417 171.324C133.661 180.114 135.861 190.052 140.236 189.647C142.869 179.36 144.11 168.638 146.549 158.221C150.427 159.245 154.304 160.269 158.181 161.293C158.749 161.442 159.328 161.587 159.911 161.699C160.215 165.612 160.619 169.59 162.322 173.114L162.391 173.029C162.901 173.352 163.473 173.657 164.057 173.812C164.641 173.967 165.308 173.926 165.789 173.56C166.481 173.033 166.58 172.041 166.548 171.172C166.409 167.478 164.966 163.751 165.32 160.156C166.434 160.406 167.55 160.656 168.664 160.906C168.812 160.939 168.97 160.972 169.114 160.926C169.259 160.88 169.379 160.723 169.33 160.579C169.253 160.424 169.067 160.321 168.896 160.351L169.005 160.328C167.884 160.007 166.76 159.702 165.634 159.396C165.706 159.125 165.736 158.842 165.715 158.551C165.708 158.463 165.695 158.379 165.68 158.296C166.716 154.886 169.671 152.452 171.611 149.457C171.936 148.955 172.241 148.414 172.297 147.819C172.353 147.224 172.098 146.562 171.556 146.309Z" fill="#99CE19"/>
<path d="M148.901 169.652C173.367 175.382 196.623 188.077 212.483 207.568C228.342 227.058 236.101 253.641 230.439 278.123C229.522 254.105 222.081 227.554 206.915 208.908C191.749 190.261 168.942 179.625 145.615 173.836C146.294 172.61 147.322 171.358 148.001 170.132L148.901 169.652Z" fill="#EEECF1"/>
<path d="M121.201 184.066L120.395 188.363L114.33 187.224C113.143 187.001 112.362 185.86 112.585 184.673C112.808 183.487 113.949 182.706 115.136 182.929L121.201 184.066Z" fill="#C5BFD1"/>
<path d="M134.385 140.338L133.579 144.634L127.513 143.496C126.327 143.273 125.546 142.131 125.768 140.945C125.991 139.759 127.133 138.977 128.319 139.2L134.385 140.338Z" fill="#C5BFD1"/>
<path d="M119.564 173.156L118.758 177.452L112.693 176.314C111.507 176.091 110.725 174.95 110.948 173.763C111.171 172.577 112.313 171.796 113.499 172.018L119.564 173.156Z" fill="#C5BFD1"/>
<path d="M126.658 150.248L125.852 154.545L119.787 153.406C118.6 153.183 117.819 152.041 118.042 150.855C118.265 149.669 119.406 148.887 120.593 149.11L126.658 150.248Z" fill="#C5BFD1"/>
<path d="M153.757 190.033C151.586 185.543 151.172 180.434 150.794 175.46C150.668 173.811 150.548 172.111 151.072 170.542C151.638 168.849 152.891 167.489 154.111 166.186C156.681 163.438 159.273 160.671 162.34 158.491C163.079 157.966 164.026 157.459 164.847 157.844C165.497 158.149 165.804 158.944 165.737 159.659C165.67 160.374 165.304 161.024 164.914 161.627C162.567 165.248 158.983 168.186 157.764 172.324C156.299 177.293 158.638 182.525 158.832 187.702C158.872 188.745 158.752 189.937 157.921 190.569C157.344 191.009 156.543 191.057 155.842 190.871C155.141 190.686 154.455 190.318 153.841 189.932L153.757 190.033Z" fill="#33AEE5"/>
<path d="M116.085 173.39C115.44 169.404 114.836 165.255 115.984 161.385C116.976 158.038 119.188 155.211 121.352 152.474C126.542 145.908 135.647 134.389 139.806 129.128C141.13 127.453 143.326 126.737 145.384 127.306L148.654 128.21C143.591 141.392 139.267 154.857 135.707 168.522C132.155 182.156 130.704 196.335 127.236 209.885C118.847 210.66 117.119 179.772 116.085 173.39Z" fill="#E5E2E9"/>
<path d="M96.9 161.366C95.3842 160.713 94.0652 159.888 92.8549 158.912C92.3867 158.535 91.812 157.816 91.2828 157.078C90.4273 155.885 91.0005 154.197 92.4052 153.77C93.9271 153.307 95.7537 152.854 96.9116 152.916C99.68 153.063 102.39 153.745 105.074 154.439C121.386 158.653 137.552 163.431 153.534 168.762C155.457 169.404 157.668 170.342 157.83 172.545C157.933 173.953 157.05 175.219 155.801 175.877C153.563 177.058 151.093 176.447 148.782 175.837C139.705 173.44 130.626 171.042 121.548 168.646C113.363 166.484 104.694 163.66 96.9 161.366Z" fill="#FDFEFF"/>
<path d="M161.781 174.68C158.029 173.602 154.257 172.598 150.465 171.667C149.234 171.366 147.838 171.097 146.777 171.79C147.607 172.285 148.568 172.504 149.51 172.715C153.464 173.601 157.418 174.487 161.371 175.374C161.549 175.414 161.737 175.453 161.912 175.398C162.085 175.342 162.231 175.153 162.171 174.98C162.078 174.794 161.855 174.671 161.65 174.707L161.781 174.68Z" fill="#33AEE5"/>
<path d="M94.8693 158.003C94.5854 157.006 94.8183 155.874 95.4609 155.06C96.1035 154.246 97.1765 153.779 98.2055 153.911C96.9435 154.212 96.1405 155.344 95.9577 156.629C95.7779 157.888 95.9307 159.688 96.7075 160.515C96.7075 160.515 95.3606 159.731 94.8693 158.003Z" fill="#606060"/>
<g opacity="0.67">
<path d="M134.463 45.4428C134.374 39.8426 147.358 35.4781 149.408 45.4359C150.32 43.3069 152.602 41.4849 156.303 42.7276C159.804 43.9031 160.105 47.6351 159.56 49.8458C159.842 47.7515 162.773 46.5089 165.178 47.2887C167.576 48.057 169.061 50.3241 169.129 52.45C169.206 54.5805 168.147 56.5645 166.812 58.2245C171.224 59.8969 175.483 61.9179 179.547 64.2667C157.488 57.8766 132.925 58.7213 111.678 65.6606C114.959 63.4884 118.993 61.7952 122.212 59.566C119.489 58.2484 117.742 56.1326 117.878 53.2275C118.605 37.6388 130.994 40.6842 134.463 45.4428Z" fill="#FDFEFF"/>
</g>
<path opacity="0.69" d="M65.0781 87.4709C64.1463 86.6132 65.5903 79.4147 70.0396 81.7689C69.7334 80.5555 70.1923 79.0814 71.1002 78.3417C72.0081 77.5973 73.2624 77.6513 74.0747 78.4103C74.0184 77.0851 74.8391 75.7313 75.9329 75.3233C77.0283 74.9106 78.2679 75.4652 78.8587 76.5367C79.0308 75.8108 79.6224 75.233 80.2742 75.1482C80.9268 75.0618 81.5948 75.466 81.9134 76.1047C82.4711 75.3827 83.3173 74.9592 84.1666 74.9669C84.7544 74.9708 85.3715 75.1991 85.7464 75.709C86.1197 76.2196 86.1652 77.0319 85.7425 77.4307C86.2594 78.3517 85.977 79.5342 85.3522 80.2501C84.7251 80.9651 83.8226 81.3346 82.9463 81.7118C83.2672 81.8669 83.3759 82.3366 83.2633 82.6691C83.1507 83.0016 82.8823 83.2307 82.6246 83.4474C81.3094 84.542 79.7759 85.794 78.0218 85.4299C77.0576 88.115 74.7126 90.1515 71.9997 90.5102C72.3267 91.9642 69.2728 97.1857 66.276 96.766C66.1873 98.3898 64.3422 99.3972 63.2137 98.3389C63.0355 99.2044 62.4809 99.9549 61.7673 100.1C61.0546 100.245 60.2284 99.661 60.034 98.7369C59.8381 97.8128 60.429 96.7676 61.1579 96.8316C60.105 96.7545 60.7159 92.8042 62.676 93.183C61.6293 91.3872 62.6698 87.5959 65.0781 87.4709Z" fill="#EBFDFF"/>
<path d="M213.136 87.3057C213.28 87.1051 213.431 86.8984 213.645 86.7765C214.166 86.4803 214.878 86.839 215.114 87.3898C215.35 87.9405 215.212 88.5854 214.945 89.1215C214.678 89.6576 214.291 90.1251 213.996 90.6458C213.573 91.3932 213.347 92.2333 213.125 93.0625C212.802 94.2728 212.479 95.4823 212.156 96.6926C205.897 96.6386 211.41 89.7132 213.136 87.3057Z" fill="#6E5A28"/>
<path d="M228.378 84.3198C227.987 86.5544 226.682 88.4867 225.266 90.1907C224.566 91.0315 223.82 91.8499 222.899 92.4107C221.158 93.4729 218.975 93.4799 217.035 92.8828C216.157 92.6175 215.007 91.8654 214.025 91.1202C212.838 90.2277 211.872 89.3499 211.872 89.3499C209.6 87.5943 207.837 84.9839 207.432 82.048C207.034 79.1122 208.169 75.904 210.53 74.3258C211.791 73.4927 213.296 73.1456 214.785 72.9905C218.104 72.6365 221.63 73.1895 224.388 75.1959C225.03 75.6603 225.62 76.2211 226.144 76.8405C227.87 78.8839 228.844 81.65 228.378 84.3198Z" fill="#54B74D"/>
<path d="M226.145 76.8412C225.164 76.7826 224.183 76.7379 223.202 76.6862C221.609 76.6052 219.957 76.5535 218.497 77.1876C216.985 77.844 215.849 79.1939 215.163 80.6912C214.484 82.1884 214.204 83.8407 214.02 85.4776C213.813 87.3513 213.739 89.2612 214.027 91.1202C212.84 90.2277 211.874 89.3499 211.874 89.3499C209.602 87.5943 207.839 84.9839 207.434 82.048C207.036 79.1122 208.171 75.904 210.532 74.3258C211.793 73.4927 213.298 73.1456 214.787 72.9905C218.106 72.6365 221.632 73.1895 224.39 75.1959C225.031 75.661 225.621 76.2218 226.145 76.8412Z" fill="#2F7F4A"/>
<path d="M54.9179 207.754C54.7073 207.772 54.4882 207.788 54.2892 207.717C53.8063 207.542 53.6436 206.879 53.8703 206.419C54.0971 205.958 54.5947 205.689 55.093 205.564C55.5913 205.44 56.1112 205.431 56.6149 205.333C57.3377 205.193 58.0103 204.872 58.6745 204.554C59.6426 204.09 60.6106 203.627 61.5795 203.164C65.0299 207.272 57.4472 207.538 54.9179 207.754Z" fill="#6E5A28"/>
<path d="M44.4826 199.487C46.1565 198.496 48.142 198.271 50.0412 198.244C50.9792 198.233 51.9272 198.262 52.8065 198.55C54.4681 199.092 55.6892 200.51 56.3803 202.107C56.6966 202.826 56.847 203.995 56.908 205.049C56.9882 206.319 56.9542 207.438 56.9542 207.438C57.0761 209.895 56.3572 212.498 54.671 214.397C52.9801 216.291 50.2579 217.339 47.9145 216.68C46.6687 216.323 45.605 215.535 44.6739 214.651C42.5943 212.687 40.9914 210.082 40.7615 207.167C40.7067 206.49 40.743 205.794 40.8548 205.107C41.2243 202.846 42.484 200.671 44.4826 199.487Z" fill="#54B74D"/>
<path d="M40.8553 205.108C41.3637 205.78 41.8805 206.443 42.3935 207.112C43.2281 208.195 44.1144 209.3 45.3409 209.898C46.6106 210.517 48.1225 210.506 49.4801 210.118C50.8331 209.726 52.0658 208.989 53.2352 208.197C54.5704 207.288 55.8563 206.271 56.9069 205.049C56.9872 206.319 56.9532 207.438 56.9532 207.438C57.0751 209.895 56.3562 212.498 54.6699 214.397C52.9791 216.292 50.2569 217.339 47.9134 216.68C46.6677 216.323 45.6039 215.536 44.6729 214.652C42.5932 212.687 40.9903 210.082 40.7605 207.167C40.7072 206.491 40.7435 205.794 40.8553 205.108Z" fill="#2F7F4A"/>
<path d="M232.538 51.0546C234.41 52.0096 235.018 53.6487 235.091 55.0881C235.16 56.5337 234.843 57.9538 235.132 59.4024C237.081 58.034 240.963 59.1656 242.434 61.2507C243.931 63.3064 243.488 65.6298 242.407 67.3862C244.374 67.2111 245.955 69.4674 245.871 71.1945C245.812 72.9224 244.938 74.4613 244.818 76.1483C240.757 69.1982 234.078 62.8019 225.089 58.6187C223.224 57.2326 212.488 54.1316 212.261 54.4641C211.744 54.3646 223.118 46.2219 232.538 51.0546Z" fill="#EBFDFF"/>
<path d="M12.6307 188.583C12.7387 185.891 14.3224 184.303 15.96 183.446C17.6069 182.59 19.4312 182.197 20.9639 181.082C18.3243 179.546 17.5591 174.416 19.1983 171.584C20.7896 168.739 23.734 168.007 26.3605 168.324C25.1008 166.126 26.8812 163.075 28.9384 162.246C30.9826 161.388 33.2443 161.58 35.2738 160.814C29.3565 169.273 25.4896 180.485 25.4395 193.202C24.8255 196.118 26.9745 210.288 27.4829 210.374C27.6441 211.03 12.0561 202.15 12.6307 188.583Z" fill="#EBFDFF"/>
</svg>
