<svg width="37" height="31" viewBox="0 0 37 31" fill="none" xmlns="http://www.w3.org/2000/svg">
<path d="M36.8683 3.89242C35.5233 4.50797 34.0735 4.91248 32.5713 5.10593C34.1084 4.17382 35.2962 2.6965 35.8552 0.9202C34.4054 1.79956 32.7983 2.41511 31.104 2.76685C29.7241 1.25436 27.7852 0.375 25.5843 0.375C21.4794 0.375 18.1256 3.75173 18.1256 7.91987C18.1256 8.51783 18.1955 9.09821 18.3177 9.64341C12.0993 9.32684 6.56209 6.31944 2.87643 1.76438C2.23014 2.87237 1.86332 4.17382 1.86332 5.54561C1.86332 8.16609 3.17338 10.4876 5.19962 11.8066C3.95942 11.8066 2.80656 11.4549 1.79345 10.9273V10.98C1.79345 14.6381 4.37864 17.6983 7.80228 18.3842C6.7031 18.6871 5.54914 18.7292 4.43105 18.5073C4.90548 20.0066 5.83463 21.3185 7.08789 22.2585C8.34115 23.1986 9.8555 23.7196 11.4181 23.7483C8.76934 25.8595 5.48608 27.0007 2.10786 26.9843C1.51397 26.9843 0.920069 26.9491 0.326172 26.8788C3.64501 29.0244 7.59267 30.2731 11.8198 30.2731C25.5843 30.2731 33.1477 18.7711 33.1477 8.79923C33.1477 8.46507 33.1477 8.1485 33.1302 7.81435C34.5975 6.75912 35.8552 5.4225 36.8683 3.89242Z" fill="#1D2F71"/>
</svg>
