<svg width="229" height="83" viewBox="0 0 229 83" fill="none" xmlns="http://www.w3.org/2000/svg">
<g clip-path="url(#clip0_685_11066)">
<path d="M-0.214844 68.8776H228.785V17.2456H-0.214844V68.8776Z" fill="white"/>
<path d="M1.35938 67.2937H227.212V18.9878H1.35938V67.2937Z" fill="#2B61AB"/>
<path fill-rule="evenodd" clip-rule="evenodd" d="M21.6611 55.0983H27.3271V43.3782L36.4556 30.8662H30.4748L24.9662 38.4684L19.9298 30.8662H13.1621L21.6611 43.5366V55.0983Z" fill="white"/>
<path fill-rule="evenodd" clip-rule="evenodd" d="M38.9746 55.0982H53.7691V50.03H44.4832V45.2786H52.3526V40.3689H44.4832V35.9343H53.6117V31.0244H38.9746V55.0982Z" fill="white"/>
<path fill-rule="evenodd" clip-rule="evenodd" d="M58.9632 48.2883L59.4354 54.7818C60.6945 55.0986 61.7962 55.4153 62.7405 55.5737C63.8423 55.7321 64.7866 55.8905 65.7309 55.8905C68.4065 55.8905 70.61 55.0986 72.0264 53.6731C73.6003 52.2477 74.2299 50.3472 74.3873 47.9715C74.3873 46.0709 73.7577 44.6455 72.656 43.5369C71.5543 42.4282 70.1378 41.3195 68.4065 40.5276L65.5735 38.9438C64.944 38.6271 64.6292 38.3103 64.3144 37.9936C63.9997 37.6768 63.8422 37.2017 63.8422 36.8849C63.8422 36.2514 64.157 35.7762 64.4718 35.4594C64.9439 35.1427 65.5735 34.9843 66.3605 34.9843C66.99 34.9843 67.777 35.1427 68.8787 35.4594C69.823 35.7762 71.0821 36.4098 72.3412 37.2017V31.4999C71.2395 31.0248 70.1378 30.8664 69.1934 30.5497C68.2491 30.3913 67.3048 30.2329 66.3605 30.2329C63.9996 30.2329 62.111 30.8664 60.6945 32.1335C59.278 33.4005 58.6484 34.9843 58.6484 36.8849C58.6484 38.3103 58.9632 39.5774 59.7501 40.6861C60.5371 41.7947 61.6388 42.9033 63.2127 43.6952L64.7866 44.6456C66.0457 45.2791 66.99 45.9126 67.6195 46.3877C68.2491 46.8628 68.7213 47.4963 68.7213 48.4466C68.7213 49.0801 68.4065 49.7137 67.9343 50.1889C67.3048 50.664 66.5178 50.8223 65.5735 50.8223C64.4718 50.8223 63.3701 50.664 62.2683 50.1889C61.324 49.7137 60.2223 49.0802 58.9632 48.2883Z" fill="white"/>
<path fill-rule="evenodd" clip-rule="evenodd" d="M166.775 55.0987H170.867V39.7359L186.134 55.8906H186.606V30.8666H182.514V46.2295L167.248 30.0747H166.775V55.0987Z" fill="white"/>
<path fill-rule="evenodd" clip-rule="evenodd" d="M194.16 55.0982H198.252V43.8533L208.955 55.0982H214.306L202.344 42.5861L213.204 31.0244H208.325L198.252 41.7942V31.0244H194.16V55.0982Z" fill="white"/>
<path fill-rule="evenodd" clip-rule="evenodd" d="M132.149 -9.52051L80.0536 85.5075L62.1113 67.2938H74.3876L132.149 -9.52051Z" fill="white"/>
<path fill-rule="evenodd" clip-rule="evenodd" d="M125.696 0.615723L79.7385 82.6566L66.2031 68.8776H75.3317L125.696 0.615723Z" fill="#D71C23"/>
<path fill-rule="evenodd" clip-rule="evenodd" d="M147.101 47.4965L151.035 38.4688L154.97 47.4965H147.101ZM143.638 55.0987L145.527 50.8225H156.387L158.275 55.0987H162.682L151.35 30.0747H151.035L139.389 55.0987H143.638Z" fill="white"/>
<path fill-rule="evenodd" clip-rule="evenodd" d="M125.223 41.0025V34.1922H127.584C129.158 34.1922 130.259 34.5089 131.046 34.9841C131.833 35.4592 132.148 36.4095 132.148 37.5182C132.148 38.6269 131.676 39.4187 131.046 40.0522C130.259 40.6858 129.158 41.0025 127.741 41.0025H125.223ZM125.223 51.7724V44.1701H128.213C129.63 44.1701 130.732 44.4869 131.518 45.1204C132.305 45.7539 132.62 46.7042 132.62 47.8129C132.62 49.0799 132.148 50.0302 131.518 50.6637C130.732 51.2972 129.63 51.614 128.213 51.614L125.223 51.7724ZM121.131 55.0983V30.8662H128.213C130.102 30.8662 132.62 31.183 134.194 32.45C135.453 33.5587 136.24 34.984 136.24 37.043C136.24 38.31 135.925 39.2603 135.296 40.2106C134.666 41.0025 133.722 41.7945 132.463 42.2696C133.879 42.5864 134.824 43.3782 135.611 44.3285C136.398 45.2788 136.712 46.5458 136.712 48.1296C136.712 50.5053 135.925 52.2475 134.509 53.5145C132.935 54.6232 130.732 55.2567 127.741 55.2567L121.131 55.0983Z" fill="white"/>
</g>
<defs>
<clipPath id="clip0_685_11066">
<rect width="229" height="82" fill="white" transform="translate(0 0.932129)"/>
</clipPath>
</defs>
</svg>
