<svg width="40" height="31" viewBox="0 0 40 31" fill="none" xmlns="http://www.w3.org/2000/svg">
<path d="M38.1182 5.39215C37.9592 4.763 37.6479 4.18126 37.2109 3.6968C36.774 3.21234 36.2244 2.8396 35.6094 2.61053C29.6921 0.357938 20.2451 0.375004 19.726 0.375004C19.207 0.375004 9.76002 0.357938 3.84269 2.61053C3.22767 2.8396 2.67813 3.21234 2.24118 3.6968C1.80424 4.18126 1.49291 4.763 1.33388 5.39215C0.884023 7.0816 0.347656 10.1874 0.347656 15.324C0.347656 20.4606 0.884023 23.5665 1.33388 25.2559C1.49291 25.8851 1.80424 26.4668 2.24118 26.9513C2.67813 27.4358 3.22767 27.8085 3.84269 28.0376C9.51779 30.2048 18.4111 30.2731 19.6049 30.2731H19.8472C21.041 30.2731 29.9343 30.2048 35.6094 28.0376C36.2244 27.8085 36.774 27.4358 37.2109 26.9513C37.6479 26.4668 37.9592 25.8851 38.1182 25.2559C38.5681 23.5665 39.1044 20.4606 39.1044 15.324C39.1044 10.1874 38.5681 7.0816 38.1182 5.39215ZM25.6434 15.8872L17.3384 21.348C17.2282 21.428 17.0944 21.47 16.9577 21.4675C16.8431 21.4633 16.7308 21.4341 16.629 21.3822C16.5184 21.3254 16.4259 21.2396 16.3617 21.1341C16.2976 21.0287 16.2643 20.9078 16.2656 20.7849V9.86321C16.2643 9.74027 16.2976 9.61937 16.3617 9.51395C16.4259 9.40852 16.5184 9.32267 16.629 9.26593C16.7393 9.20788 16.8635 9.18039 16.9884 9.1864C17.1133 9.19241 17.2343 9.23169 17.3384 9.30006L25.6434 14.7609C25.7399 14.8208 25.8194 14.9039 25.8745 15.0024C25.9296 15.1009 25.9585 15.2116 25.9585 15.324C25.9585 15.4365 25.9296 15.5472 25.8745 15.6457C25.8194 15.7442 25.7399 15.8272 25.6434 15.8872Z" fill="#1D2F71"/>
</svg>
